<?xml version="1.0" encoding="utf-8" standalone="no"?>
<!DOCTYPE svg PUBLIC "-//W3C//DTD SVG 1.1//EN"
  "http://www.w3.org/Graphics/SVG/1.1/DTD/svg11.dtd">
<!-- Created with matplotlib (https://matplotlib.org/) -->
<svg height="364.007178pt" version="1.1" viewBox="0 0 424.010625 364.007178" width="424.010625pt" xmlns="http://www.w3.org/2000/svg" xmlns:xlink="http://www.w3.org/1999/xlink">
 <metadata>
  <rdf:RDF xmlns:cc="http://creativecommons.org/ns#" xmlns:dc="http://purl.org/dc/elements/1.1/" xmlns:rdf="http://www.w3.org/1999/02/22-rdf-syntax-ns#">
   <cc:Work>
    <dc:type rdf:resource="http://purl.org/dc/dcmitype/StillImage"/>
    <dc:date>2020-11-13T12:43:45.526109</dc:date>
    <dc:format>image/svg+xml</dc:format>
    <dc:creator>
     <cc:Agent>
      <dc:title>Matplotlib v3.3.2, https://matplotlib.org/</dc:title>
     </cc:Agent>
    </dc:creator>
   </cc:Work>
  </rdf:RDF>
 </metadata>
 <defs>
  <style type="text/css">*{stroke-linecap:butt;stroke-linejoin:round;}</style>
 </defs>
 <g id="figure_1">
  <g id="patch_1">
   <path d="M 0 364.007178 
L 424.010625 364.007178 
L 424.010625 0 
L 0 0 
z
" style="fill:#ffffff;"/>
  </g>
  <g id="axes_1">
   <g id="patch_2">
    <path d="M 59.690625 288.430125 
L 416.810625 288.430125 
L 416.810625 22.318125 
L 59.690625 22.318125 
z
" style="fill:#ffffff;"/>
   </g>
   <g id="PolyCollection_1">
    <defs>
     <path d="M 149.780298 -234.256631 
L 148.160952 -234.256631 
L 148.02128 -235.219625 
L 147.864005 -236.18262 
L 147.688121 -237.145614 
L 147.492762 -238.108608 
L 147.27723 -239.071602 
L 147.041022 -240.034596 
L 146.783848 -240.99759 
L 146.505641 -241.960585 
L 146.206566 -242.923579 
L 145.887006 -243.886573 
L 145.547555 -244.849567 
L 145.188984 -245.812561 
L 144.812214 -246.775555 
L 144.418268 -247.738549 
L 144.008226 -248.701544 
L 143.58317 -249.664538 
L 143.14414 -250.627532 
L 142.692082 -251.590526 
L 142.227812 -252.55352 
L 141.751986 -253.516514 
L 141.265093 -254.479509 
L 140.76746 -255.442503 
L 140.259275 -256.405497 
L 139.740636 -257.368491 
L 139.21162 -258.331485 
L 138.672364 -259.294479 
L 138.123167 -260.257474 
L 137.564597 -261.220468 
L 136.997608 -262.183462 
L 136.423648 -263.146456 
L 135.844755 -264.10945 
L 135.263645 -265.072444 
L 134.683759 -266.035438 
L 134.109294 -266.998433 
L 133.545185 -267.961427 
L 132.997054 -268.924421 
L 132.471113 -269.887415 
L 131.974028 -270.850409 
L 131.512751 -271.813403 
L 131.094312 -272.776398 
L 130.725596 -273.739392 
L 130.413105 -274.702386 
L 130.162711 -275.66538 
L 129.979431 -276.628374 
L 129.867209 -277.591368 
L 129.828739 -278.554363 
L 129.865327 -279.517357 
L 129.976804 -280.480351 
L 130.161488 -281.443345 
L 130.416211 -282.406339 
L 130.7364 -283.369333 
L 131.116213 -284.332327 
L 131.548726 -285.295322 
L 132.026157 -286.258316 
L 132.540126 -287.22131 
L 133.08193 -288.184304 
L 133.642827 -289.147298 
L 134.214314 -290.110292 
L 134.788386 -291.073287 
L 135.357768 -292.036281 
L 135.916106 -292.999275 
L 136.458119 -293.962269 
L 136.979695 -294.925263 
L 137.477933 -295.888257 
L 137.951145 -296.851252 
L 138.398795 -297.814246 
L 138.821403 -298.77724 
L 139.22041 -299.740234 
L 139.598012 -300.703228 
L 139.956978 -301.666222 
L 140.300458 -302.629216 
L 140.631784 -303.592211 
L 140.954292 -304.555205 
L 141.271146 -305.518199 
L 141.585195 -306.481193 
L 141.898857 -307.444187 
L 142.214024 -308.407181 
L 142.532015 -309.370176 
L 142.853546 -310.33317 
L 143.17874 -311.296164 
L 143.507162 -312.259158 
L 143.837875 -313.222152 
L 144.169515 -314.185146 
L 144.500382 -315.148141 
L 144.828534 -316.111135 
L 145.151884 -317.074129 
L 145.468301 -318.037123 
L 145.775696 -319.000117 
L 146.072098 -319.963111 
L 146.355731 -320.926106 
L 146.625054 -321.8891 
L 146.87881 -322.852094 
L 147.116043 -323.815088 
L 147.336108 -324.778082 
L 147.538668 -325.741076 
L 147.723679 -326.70407 
L 147.891369 -327.667065 
L 148.042201 -328.630059 
L 148.176844 -329.593053 
L 149.764406 -329.593053 
L 149.764406 -329.593053 
L 149.899049 -328.630059 
L 150.049881 -327.667065 
L 150.217571 -326.70407 
L 150.402582 -325.741076 
L 150.605142 -324.778082 
L 150.825207 -323.815088 
L 151.06244 -322.852094 
L 151.316196 -321.8891 
L 151.585519 -320.926106 
L 151.869152 -319.963111 
L 152.165554 -319.000117 
L 152.472949 -318.037123 
L 152.789366 -317.074129 
L 153.112716 -316.111135 
L 153.440868 -315.148141 
L 153.771735 -314.185146 
L 154.103375 -313.222152 
L 154.434088 -312.259158 
L 154.76251 -311.296164 
L 155.087704 -310.33317 
L 155.409235 -309.370176 
L 155.727226 -308.407181 
L 156.042393 -307.444187 
L 156.356055 -306.481193 
L 156.670104 -305.518199 
L 156.986958 -304.555205 
L 157.309466 -303.592211 
L 157.640792 -302.629216 
L 157.984272 -301.666222 
L 158.343238 -300.703228 
L 158.72084 -299.740234 
L 159.119847 -298.77724 
L 159.542455 -297.814246 
L 159.990105 -296.851252 
L 160.463317 -295.888257 
L 160.961555 -294.925263 
L 161.483131 -293.962269 
L 162.025144 -292.999275 
L 162.583482 -292.036281 
L 163.152864 -291.073287 
L 163.726936 -290.110292 
L 164.298423 -289.147298 
L 164.85932 -288.184304 
L 165.401124 -287.22131 
L 165.915093 -286.258316 
L 166.392524 -285.295322 
L 166.825037 -284.332327 
L 167.20485 -283.369333 
L 167.525039 -282.406339 
L 167.779762 -281.443345 
L 167.964446 -280.480351 
L 168.075923 -279.517357 
L 168.112511 -278.554363 
L 168.074041 -277.591368 
L 167.961819 -276.628374 
L 167.778539 -275.66538 
L 167.528145 -274.702386 
L 167.215654 -273.739392 
L 166.846938 -272.776398 
L 166.428499 -271.813403 
L 165.967222 -270.850409 
L 165.470137 -269.887415 
L 164.944196 -268.924421 
L 164.396065 -267.961427 
L 163.831956 -266.998433 
L 163.257491 -266.035438 
L 162.677605 -265.072444 
L 162.096495 -264.10945 
L 161.517602 -263.146456 
L 160.943642 -262.183462 
L 160.376653 -261.220468 
L 159.818083 -260.257474 
L 159.268886 -259.294479 
L 158.72963 -258.331485 
L 158.200614 -257.368491 
L 157.681975 -256.405497 
L 157.17379 -255.442503 
L 156.676157 -254.479509 
L 156.189264 -253.516514 
L 155.713438 -252.55352 
L 155.249168 -251.590526 
L 154.79711 -250.627532 
L 154.35808 -249.664538 
L 153.933024 -248.701544 
L 153.522982 -247.738549 
L 153.129036 -246.775555 
L 152.752266 -245.812561 
L 152.393695 -244.849567 
L 152.054244 -243.886573 
L 151.734684 -242.923579 
L 151.435609 -241.960585 
L 151.157402 -240.99759 
L 150.900228 -240.034596 
L 150.66402 -239.071602 
L 150.448488 -238.108608 
L 150.253129 -237.145614 
L 150.077245 -236.18262 
L 149.91997 -235.219625 
L 149.780298 -234.256631 
z
" id="md20a20fb42" style="stroke:#3f3f3f;stroke-width:1.5;"/>
    </defs>
    <g clip-path="url(#pbe7e070dc2)">
     <use style="fill:#3274a1;stroke:#3f3f3f;stroke-width:1.5;" x="0" xlink:href="#md20a20fb42" y="364.007178"/>
    </g>
   </g>
   <g id="PolyCollection_2">
    <defs>
     <path d="M 331.528552 -87.673053 
L 323.532698 -87.673053 
L 322.884702 -87.912058 
L 322.156612 -88.151062 
L 321.342864 -88.390067 
L 320.438182 -88.629072 
L 319.437694 -88.868077 
L 318.337045 -89.107082 
L 317.132522 -89.346086 
L 315.821164 -89.585091 
L 314.400878 -89.824096 
L 312.870543 -90.063101 
L 311.230105 -90.302105 
L 309.480659 -90.54111 
L 307.624521 -90.780115 
L 305.66528 -91.01912 
L 303.607838 -91.258124 
L 301.458431 -91.497129 
L 299.224637 -91.736134 
L 296.915359 -91.975139 
L 294.5408 -92.214143 
L 292.112419 -92.453148 
L 289.642865 -92.692153 
L 287.145907 -92.931158 
L 284.636336 -93.170163 
L 282.129859 -93.409167 
L 279.642972 -93.648172 
L 277.192818 -93.887177 
L 274.797023 -94.126182 
L 272.473517 -94.365186 
L 270.240333 -94.604191 
L 268.115384 -94.843196 
L 266.116226 -95.082201 
L 264.259798 -95.321205 
L 262.562149 -95.56021 
L 261.038157 -95.799215 
L 259.701239 -96.03822 
L 258.563064 -96.277225 
L 257.633279 -96.516229 
L 256.919247 -96.755234 
L 256.425827 -96.994239 
L 256.155177 -97.233244 
L 256.106625 -97.472248 
L 256.276585 -97.711253 
L 256.658546 -97.950258 
L 257.243136 -98.189263 
L 258.01826 -98.428267 
L 258.969312 -98.667272 
L 260.079473 -98.906277 
L 261.330067 -99.145282 
L 262.700983 -99.384286 
L 264.171148 -99.623291 
L 265.719033 -99.862296 
L 267.323173 -100.101301 
L 268.962693 -100.340306 
L 270.61782 -100.57931 
L 272.270342 -100.818315 
L 273.904038 -101.05732 
L 275.505018 -101.296325 
L 277.061994 -101.535329 
L 278.566461 -101.774334 
L 280.012772 -102.013339 
L 281.39813 -102.252344 
L 282.722469 -102.491348 
L 283.988257 -102.730353 
L 285.200213 -102.969358 
L 286.364956 -103.208363 
L 287.490611 -103.447367 
L 288.586362 -103.686372 
L 289.66201 -103.925377 
L 290.727512 -104.164382 
L 291.792547 -104.403387 
L 292.86612 -104.642391 
L 293.956203 -104.881396 
L 295.069444 -105.120401 
L 296.210936 -105.359406 
L 297.384068 -105.59841 
L 298.590438 -105.837415 
L 299.829847 -106.07642 
L 301.100361 -106.315425 
L 302.398429 -106.554429 
L 303.719063 -106.793434 
L 305.056052 -107.032439 
L 306.40221 -107.271444 
L 307.749646 -107.510449 
L 309.09004 -107.749453 
L 310.414915 -107.988458 
L 311.715893 -108.227463 
L 312.984939 -108.466468 
L 314.214561 -108.705472 
L 315.397997 -108.944477 
L 316.52934 -109.183482 
L 317.603648 -109.422487 
L 318.617 -109.661491 
L 319.566523 -109.900496 
L 320.450382 -110.139501 
L 321.267743 -110.378506 
L 322.018707 -110.61751 
L 322.704229 -110.856515 
L 323.326016 -111.09552 
L 323.886422 -111.334525 
L 331.174828 -111.334525 
L 331.174828 -111.334525 
L 331.735234 -111.09552 
L 332.357021 -110.856515 
L 333.042543 -110.61751 
L 333.793507 -110.378506 
L 334.610868 -110.139501 
L 335.494727 -109.900496 
L 336.44425 -109.661491 
L 337.457602 -109.422487 
L 338.53191 -109.183482 
L 339.663253 -108.944477 
L 340.846689 -108.705472 
L 342.076311 -108.466468 
L 343.345357 -108.227463 
L 344.646335 -107.988458 
L 345.97121 -107.749453 
L 347.311604 -107.510449 
L 348.65904 -107.271444 
L 350.005198 -107.032439 
L 351.342187 -106.793434 
L 352.662821 -106.554429 
L 353.960889 -106.315425 
L 355.231403 -106.07642 
L 356.470812 -105.837415 
L 357.677182 -105.59841 
L 358.850314 -105.359406 
L 359.991806 -105.120401 
L 361.105047 -104.881396 
L 362.19513 -104.642391 
L 363.268703 -104.403387 
L 364.333738 -104.164382 
L 365.39924 -103.925377 
L 366.474888 -103.686372 
L 367.570639 -103.447367 
L 368.696294 -103.208363 
L 369.861037 -102.969358 
L 371.072993 -102.730353 
L 372.338781 -102.491348 
L 373.66312 -102.252344 
L 375.048478 -102.013339 
L 376.494789 -101.774334 
L 377.999256 -101.535329 
L 379.556232 -101.296325 
L 381.157212 -101.05732 
L 382.790908 -100.818315 
L 384.44343 -100.57931 
L 386.098557 -100.340306 
L 387.738077 -100.101301 
L 389.342217 -99.862296 
L 390.890102 -99.623291 
L 392.360267 -99.384286 
L 393.731183 -99.145282 
L 394.981777 -98.906277 
L 396.091938 -98.667272 
L 397.04299 -98.428267 
L 397.818114 -98.189263 
L 398.402704 -97.950258 
L 398.784665 -97.711253 
L 398.954625 -97.472248 
L 398.906073 -97.233244 
L 398.635423 -96.994239 
L 398.142003 -96.755234 
L 397.427971 -96.516229 
L 396.498186 -96.277225 
L 395.360011 -96.03822 
L 394.023093 -95.799215 
L 392.499101 -95.56021 
L 390.801452 -95.321205 
L 388.945024 -95.082201 
L 386.945866 -94.843196 
L 384.820917 -94.604191 
L 382.587733 -94.365186 
L 380.264227 -94.126182 
L 377.868432 -93.887177 
L 375.418278 -93.648172 
L 372.931391 -93.409167 
L 370.424914 -93.170163 
L 367.915343 -92.931158 
L 365.418385 -92.692153 
L 362.948831 -92.453148 
L 360.52045 -92.214143 
L 358.145891 -91.975139 
L 355.836613 -91.736134 
L 353.602819 -91.497129 
L 351.453412 -91.258124 
L 349.39597 -91.01912 
L 347.436729 -90.780115 
L 345.580591 -90.54111 
L 343.831145 -90.302105 
L 342.190707 -90.063101 
L 340.660372 -89.824096 
L 339.240086 -89.585091 
L 337.928728 -89.346086 
L 336.724205 -89.107082 
L 335.623556 -88.868077 
L 334.623068 -88.629072 
L 333.718386 -88.390067 
L 332.904638 -88.151062 
L 332.176548 -87.912058 
L 331.528552 -87.673053 
z
" id="ma1559d5c1c" style="stroke:#3f3f3f;stroke-width:1.5;"/>
    </defs>
    <g clip-path="url(#pbe7e070dc2)">
     <use style="fill:#9fd495;stroke:#3f3f3f;stroke-width:1.5;" x="0" xlink:href="#ma1559d5c1c" y="364.007178"/>
    </g>
   </g>
   <g id="matplotlib.axis_1">
    <g id="xtick_1">
     <g id="line2d_1">
      <defs>
       <path d="M 0 0 
L 0 3.5 
" id="m51c07c3b66" style="stroke:#000000;stroke-width:0.8;"/>
      </defs>
      <g>
       <use style="stroke:#000000;stroke-width:0.8;" x="148.970625" xlink:href="#m51c07c3b66" y="288.430125"/>
      </g>
     </g>
     <g id="text_1">
      <!-- aflplusplus -->
      <g transform="translate(101.361618 328.897284)rotate(-30)scale(0.1 -0.1)">
       <defs>
        <path d="M 34.28125 27.484375 
Q 23.390625 27.484375 19.1875 25 
Q 14.984375 22.515625 14.984375 16.5 
Q 14.984375 11.71875 18.140625 8.90625 
Q 21.296875 6.109375 26.703125 6.109375 
Q 34.1875 6.109375 38.703125 11.40625 
Q 43.21875 16.703125 43.21875 25.484375 
L 43.21875 27.484375 
z
M 52.203125 31.203125 
L 52.203125 0 
L 43.21875 0 
L 43.21875 8.296875 
Q 40.140625 3.328125 35.546875 0.953125 
Q 30.953125 -1.421875 24.3125 -1.421875 
Q 15.921875 -1.421875 10.953125 3.296875 
Q 6 8.015625 6 15.921875 
Q 6 25.140625 12.171875 29.828125 
Q 18.359375 34.515625 30.609375 34.515625 
L 43.21875 34.515625 
L 43.21875 35.40625 
Q 43.21875 41.609375 39.140625 45 
Q 35.0625 48.390625 27.6875 48.390625 
Q 23 48.390625 18.546875 47.265625 
Q 14.109375 46.140625 10.015625 43.890625 
L 10.015625 52.203125 
Q 14.9375 54.109375 19.578125 55.046875 
Q 24.21875 56 28.609375 56 
Q 40.484375 56 46.34375 49.84375 
Q 52.203125 43.703125 52.203125 31.203125 
z
" id="DejaVuSans-97"/>
        <path d="M 37.109375 75.984375 
L 37.109375 68.5 
L 28.515625 68.5 
Q 23.6875 68.5 21.796875 66.546875 
Q 19.921875 64.59375 19.921875 59.515625 
L 19.921875 54.6875 
L 34.71875 54.6875 
L 34.71875 47.703125 
L 19.921875 47.703125 
L 19.921875 0 
L 10.890625 0 
L 10.890625 47.703125 
L 2.296875 47.703125 
L 2.296875 54.6875 
L 10.890625 54.6875 
L 10.890625 58.5 
Q 10.890625 67.625 15.140625 71.796875 
Q 19.390625 75.984375 28.609375 75.984375 
z
" id="DejaVuSans-102"/>
        <path d="M 9.421875 75.984375 
L 18.40625 75.984375 
L 18.40625 0 
L 9.421875 0 
z
" id="DejaVuSans-108"/>
        <path d="M 18.109375 8.203125 
L 18.109375 -20.796875 
L 9.078125 -20.796875 
L 9.078125 54.6875 
L 18.109375 54.6875 
L 18.109375 46.390625 
Q 20.953125 51.265625 25.265625 53.625 
Q 29.59375 56 35.59375 56 
Q 45.5625 56 51.78125 48.09375 
Q 58.015625 40.1875 58.015625 27.296875 
Q 58.015625 14.40625 51.78125 6.484375 
Q 45.5625 -1.421875 35.59375 -1.421875 
Q 29.59375 -1.421875 25.265625 0.953125 
Q 20.953125 3.328125 18.109375 8.203125 
z
M 48.6875 27.296875 
Q 48.6875 37.203125 44.609375 42.84375 
Q 40.53125 48.484375 33.40625 48.484375 
Q 26.265625 48.484375 22.1875 42.84375 
Q 18.109375 37.203125 18.109375 27.296875 
Q 18.109375 17.390625 22.1875 11.75 
Q 26.265625 6.109375 33.40625 6.109375 
Q 40.53125 6.109375 44.609375 11.75 
Q 48.6875 17.390625 48.6875 27.296875 
z
" id="DejaVuSans-112"/>
        <path d="M 8.5 21.578125 
L 8.5 54.6875 
L 17.484375 54.6875 
L 17.484375 21.921875 
Q 17.484375 14.15625 20.5 10.265625 
Q 23.53125 6.390625 29.59375 6.390625 
Q 36.859375 6.390625 41.078125 11.03125 
Q 45.3125 15.671875 45.3125 23.6875 
L 45.3125 54.6875 
L 54.296875 54.6875 
L 54.296875 0 
L 45.3125 0 
L 45.3125 8.40625 
Q 42.046875 3.421875 37.71875 1 
Q 33.40625 -1.421875 27.6875 -1.421875 
Q 18.265625 -1.421875 13.375 4.4375 
Q 8.5 10.296875 8.5 21.578125 
z
M 31.109375 56 
z
" id="DejaVuSans-117"/>
        <path d="M 44.28125 53.078125 
L 44.28125 44.578125 
Q 40.484375 46.53125 36.375 47.5 
Q 32.28125 48.484375 27.875 48.484375 
Q 21.1875 48.484375 17.84375 46.4375 
Q 14.5 44.390625 14.5 40.28125 
Q 14.5 37.15625 16.890625 35.375 
Q 19.28125 33.59375 26.515625 31.984375 
L 29.59375 31.296875 
Q 39.15625 29.25 43.1875 25.515625 
Q 47.21875 21.78125 47.21875 15.09375 
Q 47.21875 7.46875 41.1875 3.015625 
Q 35.15625 -1.421875 24.609375 -1.421875 
Q 20.21875 -1.421875 15.453125 -0.5625 
Q 10.6875 0.296875 5.421875 2 
L 5.421875 11.28125 
Q 10.40625 8.6875 15.234375 7.390625 
Q 20.0625 6.109375 24.8125 6.109375 
Q 31.15625 6.109375 34.5625 8.28125 
Q 37.984375 10.453125 37.984375 14.40625 
Q 37.984375 18.0625 35.515625 20.015625 
Q 33.0625 21.96875 24.703125 23.78125 
L 21.578125 24.515625 
Q 13.234375 26.265625 9.515625 29.90625 
Q 5.8125 33.546875 5.8125 39.890625 
Q 5.8125 47.609375 11.28125 51.796875 
Q 16.75 56 26.8125 56 
Q 31.78125 56 36.171875 55.265625 
Q 40.578125 54.546875 44.28125 53.078125 
z
" id="DejaVuSans-115"/>
       </defs>
       <use xlink:href="#DejaVuSans-97"/>
       <use x="61.279297" xlink:href="#DejaVuSans-102"/>
       <use x="96.484375" xlink:href="#DejaVuSans-108"/>
       <use x="124.267578" xlink:href="#DejaVuSans-112"/>
       <use x="187.744141" xlink:href="#DejaVuSans-108"/>
       <use x="215.527344" xlink:href="#DejaVuSans-117"/>
       <use x="278.90625" xlink:href="#DejaVuSans-115"/>
       <use x="331.005859" xlink:href="#DejaVuSans-112"/>
       <use x="394.482422" xlink:href="#DejaVuSans-108"/>
       <use x="422.265625" xlink:href="#DejaVuSans-117"/>
       <use x="485.644531" xlink:href="#DejaVuSans-115"/>
      </g>
     </g>
    </g>
    <g id="xtick_2">
     <g id="line2d_2">
      <g>
       <use style="stroke:#000000;stroke-width:0.8;" x="327.530625" xlink:href="#m51c07c3b66" y="288.430125"/>
      </g>
     </g>
     <g id="text_2">
      <!-- aflplusplus_hier -->
      <g transform="translate(258.669127 341.087127)rotate(-30)scale(0.1 -0.1)">
       <defs>
        <path d="M 50.984375 -16.609375 
L 50.984375 -23.578125 
L -0.984375 -23.578125 
L -0.984375 -16.609375 
z
" id="DejaVuSans-95"/>
        <path d="M 54.890625 33.015625 
L 54.890625 0 
L 45.90625 0 
L 45.90625 32.71875 
Q 45.90625 40.484375 42.875 44.328125 
Q 39.84375 48.1875 33.796875 48.1875 
Q 26.515625 48.1875 22.3125 43.546875 
Q 18.109375 38.921875 18.109375 30.90625 
L 18.109375 0 
L 9.078125 0 
L 9.078125 75.984375 
L 18.109375 75.984375 
L 18.109375 46.1875 
Q 21.34375 51.125 25.703125 53.5625 
Q 30.078125 56 35.796875 56 
Q 45.21875 56 50.046875 50.171875 
Q 54.890625 44.34375 54.890625 33.015625 
z
" id="DejaVuSans-104"/>
        <path d="M 9.421875 54.6875 
L 18.40625 54.6875 
L 18.40625 0 
L 9.421875 0 
z
M 9.421875 75.984375 
L 18.40625 75.984375 
L 18.40625 64.59375 
L 9.421875 64.59375 
z
" id="DejaVuSans-105"/>
        <path d="M 56.203125 29.59375 
L 56.203125 25.203125 
L 14.890625 25.203125 
Q 15.484375 15.921875 20.484375 11.0625 
Q 25.484375 6.203125 34.421875 6.203125 
Q 39.59375 6.203125 44.453125 7.46875 
Q 49.3125 8.734375 54.109375 11.28125 
L 54.109375 2.78125 
Q 49.265625 0.734375 44.1875 -0.34375 
Q 39.109375 -1.421875 33.890625 -1.421875 
Q 20.796875 -1.421875 13.15625 6.1875 
Q 5.515625 13.8125 5.515625 26.8125 
Q 5.515625 40.234375 12.765625 48.109375 
Q 20.015625 56 32.328125 56 
Q 43.359375 56 49.78125 48.890625 
Q 56.203125 41.796875 56.203125 29.59375 
z
M 47.21875 32.234375 
Q 47.125 39.59375 43.09375 43.984375 
Q 39.0625 48.390625 32.421875 48.390625 
Q 24.90625 48.390625 20.390625 44.140625 
Q 15.875 39.890625 15.1875 32.171875 
z
" id="DejaVuSans-101"/>
        <path d="M 41.109375 46.296875 
Q 39.59375 47.171875 37.8125 47.578125 
Q 36.03125 48 33.890625 48 
Q 26.265625 48 22.1875 43.046875 
Q 18.109375 38.09375 18.109375 28.8125 
L 18.109375 0 
L 9.078125 0 
L 9.078125 54.6875 
L 18.109375 54.6875 
L 18.109375 46.1875 
Q 20.953125 51.171875 25.484375 53.578125 
Q 30.03125 56 36.53125 56 
Q 37.453125 56 38.578125 55.875 
Q 39.703125 55.765625 41.0625 55.515625 
z
" id="DejaVuSans-114"/>
       </defs>
       <use xlink:href="#DejaVuSans-97"/>
       <use x="61.279297" xlink:href="#DejaVuSans-102"/>
       <use x="96.484375" xlink:href="#DejaVuSans-108"/>
       <use x="124.267578" xlink:href="#DejaVuSans-112"/>
       <use x="187.744141" xlink:href="#DejaVuSans-108"/>
       <use x="215.527344" xlink:href="#DejaVuSans-117"/>
       <use x="278.90625" xlink:href="#DejaVuSans-115"/>
       <use x="331.005859" xlink:href="#DejaVuSans-112"/>
       <use x="394.482422" xlink:href="#DejaVuSans-108"/>
       <use x="422.265625" xlink:href="#DejaVuSans-117"/>
       <use x="485.644531" xlink:href="#DejaVuSans-115"/>
       <use x="537.744141" xlink:href="#DejaVuSans-95"/>
       <use x="587.744141" xlink:href="#DejaVuSans-104"/>
       <use x="651.123047" xlink:href="#DejaVuSans-105"/>
       <use x="678.90625" xlink:href="#DejaVuSans-101"/>
       <use x="740.429688" xlink:href="#DejaVuSans-114"/>
      </g>
     </g>
    </g>
    <g id="text_3">
     <!-- Fuzzer (highest median coverage on the left) -->
     <g transform="translate(125.632656 354.72749)scale(0.1 -0.1)">
      <defs>
       <path d="M 9.8125 72.90625 
L 51.703125 72.90625 
L 51.703125 64.59375 
L 19.671875 64.59375 
L 19.671875 43.109375 
L 48.578125 43.109375 
L 48.578125 34.8125 
L 19.671875 34.8125 
L 19.671875 0 
L 9.8125 0 
z
" id="DejaVuSans-70"/>
       <path d="M 5.515625 54.6875 
L 48.1875 54.6875 
L 48.1875 46.484375 
L 14.40625 7.171875 
L 48.1875 7.171875 
L 48.1875 0 
L 4.296875 0 
L 4.296875 8.203125 
L 38.09375 47.515625 
L 5.515625 47.515625 
z
" id="DejaVuSans-122"/>
       <path id="DejaVuSans-32"/>
       <path d="M 31 75.875 
Q 24.46875 64.65625 21.28125 53.65625 
Q 18.109375 42.671875 18.109375 31.390625 
Q 18.109375 20.125 21.3125 9.0625 
Q 24.515625 -2 31 -13.1875 
L 23.1875 -13.1875 
Q 15.875 -1.703125 12.234375 9.375 
Q 8.59375 20.453125 8.59375 31.390625 
Q 8.59375 42.28125 12.203125 53.3125 
Q 15.828125 64.359375 23.1875 75.875 
z
" id="DejaVuSans-40"/>
       <path d="M 45.40625 27.984375 
Q 45.40625 37.75 41.375 43.109375 
Q 37.359375 48.484375 30.078125 48.484375 
Q 22.859375 48.484375 18.828125 43.109375 
Q 14.796875 37.75 14.796875 27.984375 
Q 14.796875 18.265625 18.828125 12.890625 
Q 22.859375 7.515625 30.078125 7.515625 
Q 37.359375 7.515625 41.375 12.890625 
Q 45.40625 18.265625 45.40625 27.984375 
z
M 54.390625 6.78125 
Q 54.390625 -7.171875 48.1875 -13.984375 
Q 42 -20.796875 29.203125 -20.796875 
Q 24.46875 -20.796875 20.265625 -20.09375 
Q 16.0625 -19.390625 12.109375 -17.921875 
L 12.109375 -9.1875 
Q 16.0625 -11.328125 19.921875 -12.34375 
Q 23.78125 -13.375 27.78125 -13.375 
Q 36.625 -13.375 41.015625 -8.765625 
Q 45.40625 -4.15625 45.40625 5.171875 
L 45.40625 9.625 
Q 42.625 4.78125 38.28125 2.390625 
Q 33.9375 0 27.875 0 
Q 17.828125 0 11.671875 7.65625 
Q 5.515625 15.328125 5.515625 27.984375 
Q 5.515625 40.671875 11.671875 48.328125 
Q 17.828125 56 27.875 56 
Q 33.9375 56 38.28125 53.609375 
Q 42.625 51.21875 45.40625 46.390625 
L 45.40625 54.6875 
L 54.390625 54.6875 
z
" id="DejaVuSans-103"/>
       <path d="M 18.3125 70.21875 
L 18.3125 54.6875 
L 36.8125 54.6875 
L 36.8125 47.703125 
L 18.3125 47.703125 
L 18.3125 18.015625 
Q 18.3125 11.328125 20.140625 9.421875 
Q 21.96875 7.515625 27.59375 7.515625 
L 36.8125 7.515625 
L 36.8125 0 
L 27.59375 0 
Q 17.1875 0 13.234375 3.875 
Q 9.28125 7.765625 9.28125 18.015625 
L 9.28125 47.703125 
L 2.6875 47.703125 
L 2.6875 54.6875 
L 9.28125 54.6875 
L 9.28125 70.21875 
z
" id="DejaVuSans-116"/>
       <path d="M 52 44.1875 
Q 55.375 50.25 60.0625 53.125 
Q 64.75 56 71.09375 56 
Q 79.640625 56 84.28125 50.015625 
Q 88.921875 44.046875 88.921875 33.015625 
L 88.921875 0 
L 79.890625 0 
L 79.890625 32.71875 
Q 79.890625 40.578125 77.09375 44.375 
Q 74.3125 48.1875 68.609375 48.1875 
Q 61.625 48.1875 57.5625 43.546875 
Q 53.515625 38.921875 53.515625 30.90625 
L 53.515625 0 
L 44.484375 0 
L 44.484375 32.71875 
Q 44.484375 40.625 41.703125 44.40625 
Q 38.921875 48.1875 33.109375 48.1875 
Q 26.21875 48.1875 22.15625 43.53125 
Q 18.109375 38.875 18.109375 30.90625 
L 18.109375 0 
L 9.078125 0 
L 9.078125 54.6875 
L 18.109375 54.6875 
L 18.109375 46.1875 
Q 21.1875 51.21875 25.484375 53.609375 
Q 29.78125 56 35.6875 56 
Q 41.65625 56 45.828125 52.96875 
Q 50 49.953125 52 44.1875 
z
" id="DejaVuSans-109"/>
       <path d="M 45.40625 46.390625 
L 45.40625 75.984375 
L 54.390625 75.984375 
L 54.390625 0 
L 45.40625 0 
L 45.40625 8.203125 
Q 42.578125 3.328125 38.25 0.953125 
Q 33.9375 -1.421875 27.875 -1.421875 
Q 17.96875 -1.421875 11.734375 6.484375 
Q 5.515625 14.40625 5.515625 27.296875 
Q 5.515625 40.1875 11.734375 48.09375 
Q 17.96875 56 27.875 56 
Q 33.9375 56 38.25 53.625 
Q 42.578125 51.265625 45.40625 46.390625 
z
M 14.796875 27.296875 
Q 14.796875 17.390625 18.875 11.75 
Q 22.953125 6.109375 30.078125 6.109375 
Q 37.203125 6.109375 41.296875 11.75 
Q 45.40625 17.390625 45.40625 27.296875 
Q 45.40625 37.203125 41.296875 42.84375 
Q 37.203125 48.484375 30.078125 48.484375 
Q 22.953125 48.484375 18.875 42.84375 
Q 14.796875 37.203125 14.796875 27.296875 
z
" id="DejaVuSans-100"/>
       <path d="M 54.890625 33.015625 
L 54.890625 0 
L 45.90625 0 
L 45.90625 32.71875 
Q 45.90625 40.484375 42.875 44.328125 
Q 39.84375 48.1875 33.796875 48.1875 
Q 26.515625 48.1875 22.3125 43.546875 
Q 18.109375 38.921875 18.109375 30.90625 
L 18.109375 0 
L 9.078125 0 
L 9.078125 54.6875 
L 18.109375 54.6875 
L 18.109375 46.1875 
Q 21.34375 51.125 25.703125 53.5625 
Q 30.078125 56 35.796875 56 
Q 45.21875 56 50.046875 50.171875 
Q 54.890625 44.34375 54.890625 33.015625 
z
" id="DejaVuSans-110"/>
       <path d="M 48.78125 52.59375 
L 48.78125 44.1875 
Q 44.96875 46.296875 41.140625 47.34375 
Q 37.3125 48.390625 33.40625 48.390625 
Q 24.65625 48.390625 19.8125 42.84375 
Q 14.984375 37.3125 14.984375 27.296875 
Q 14.984375 17.28125 19.8125 11.734375 
Q 24.65625 6.203125 33.40625 6.203125 
Q 37.3125 6.203125 41.140625 7.25 
Q 44.96875 8.296875 48.78125 10.40625 
L 48.78125 2.09375 
Q 45.015625 0.34375 40.984375 -0.53125 
Q 36.96875 -1.421875 32.421875 -1.421875 
Q 20.0625 -1.421875 12.78125 6.34375 
Q 5.515625 14.109375 5.515625 27.296875 
Q 5.515625 40.671875 12.859375 48.328125 
Q 20.21875 56 33.015625 56 
Q 37.15625 56 41.109375 55.140625 
Q 45.0625 54.296875 48.78125 52.59375 
z
" id="DejaVuSans-99"/>
       <path d="M 30.609375 48.390625 
Q 23.390625 48.390625 19.1875 42.75 
Q 14.984375 37.109375 14.984375 27.296875 
Q 14.984375 17.484375 19.15625 11.84375 
Q 23.34375 6.203125 30.609375 6.203125 
Q 37.796875 6.203125 41.984375 11.859375 
Q 46.1875 17.53125 46.1875 27.296875 
Q 46.1875 37.015625 41.984375 42.703125 
Q 37.796875 48.390625 30.609375 48.390625 
z
M 30.609375 56 
Q 42.328125 56 49.015625 48.375 
Q 55.71875 40.765625 55.71875 27.296875 
Q 55.71875 13.875 49.015625 6.21875 
Q 42.328125 -1.421875 30.609375 -1.421875 
Q 18.84375 -1.421875 12.171875 6.21875 
Q 5.515625 13.875 5.515625 27.296875 
Q 5.515625 40.765625 12.171875 48.375 
Q 18.84375 56 30.609375 56 
z
" id="DejaVuSans-111"/>
       <path d="M 2.984375 54.6875 
L 12.5 54.6875 
L 29.59375 8.796875 
L 46.6875 54.6875 
L 56.203125 54.6875 
L 35.6875 0 
L 23.484375 0 
z
" id="DejaVuSans-118"/>
       <path d="M 8.015625 75.875 
L 15.828125 75.875 
Q 23.140625 64.359375 26.78125 53.3125 
Q 30.421875 42.28125 30.421875 31.390625 
Q 30.421875 20.453125 26.78125 9.375 
Q 23.140625 -1.703125 15.828125 -13.1875 
L 8.015625 -13.1875 
Q 14.5 -2 17.703125 9.0625 
Q 20.90625 20.125 20.90625 31.390625 
Q 20.90625 42.671875 17.703125 53.65625 
Q 14.5 64.65625 8.015625 75.875 
z
" id="DejaVuSans-41"/>
      </defs>
      <use xlink:href="#DejaVuSans-70"/>
      <use x="52.019531" xlink:href="#DejaVuSans-117"/>
      <use x="115.398438" xlink:href="#DejaVuSans-122"/>
      <use x="167.888672" xlink:href="#DejaVuSans-122"/>
      <use x="220.378906" xlink:href="#DejaVuSans-101"/>
      <use x="281.902344" xlink:href="#DejaVuSans-114"/>
      <use x="323.015625" xlink:href="#DejaVuSans-32"/>
      <use x="354.802734" xlink:href="#DejaVuSans-40"/>
      <use x="393.816406" xlink:href="#DejaVuSans-104"/>
      <use x="457.195312" xlink:href="#DejaVuSans-105"/>
      <use x="484.978516" xlink:href="#DejaVuSans-103"/>
      <use x="548.455078" xlink:href="#DejaVuSans-104"/>
      <use x="611.833984" xlink:href="#DejaVuSans-101"/>
      <use x="673.357422" xlink:href="#DejaVuSans-115"/>
      <use x="725.457031" xlink:href="#DejaVuSans-116"/>
      <use x="764.666016" xlink:href="#DejaVuSans-32"/>
      <use x="796.453125" xlink:href="#DejaVuSans-109"/>
      <use x="893.865234" xlink:href="#DejaVuSans-101"/>
      <use x="955.388672" xlink:href="#DejaVuSans-100"/>
      <use x="1018.865234" xlink:href="#DejaVuSans-105"/>
      <use x="1046.648438" xlink:href="#DejaVuSans-97"/>
      <use x="1107.927734" xlink:href="#DejaVuSans-110"/>
      <use x="1171.306641" xlink:href="#DejaVuSans-32"/>
      <use x="1203.09375" xlink:href="#DejaVuSans-99"/>
      <use x="1258.074219" xlink:href="#DejaVuSans-111"/>
      <use x="1319.255859" xlink:href="#DejaVuSans-118"/>
      <use x="1378.435547" xlink:href="#DejaVuSans-101"/>
      <use x="1439.958984" xlink:href="#DejaVuSans-114"/>
      <use x="1481.072266" xlink:href="#DejaVuSans-97"/>
      <use x="1542.351562" xlink:href="#DejaVuSans-103"/>
      <use x="1605.828125" xlink:href="#DejaVuSans-101"/>
      <use x="1667.351562" xlink:href="#DejaVuSans-32"/>
      <use x="1699.138672" xlink:href="#DejaVuSans-111"/>
      <use x="1760.320312" xlink:href="#DejaVuSans-110"/>
      <use x="1823.699219" xlink:href="#DejaVuSans-32"/>
      <use x="1855.486328" xlink:href="#DejaVuSans-116"/>
      <use x="1894.695312" xlink:href="#DejaVuSans-104"/>
      <use x="1958.074219" xlink:href="#DejaVuSans-101"/>
      <use x="2019.597656" xlink:href="#DejaVuSans-32"/>
      <use x="2051.384766" xlink:href="#DejaVuSans-108"/>
      <use x="2079.167969" xlink:href="#DejaVuSans-101"/>
      <use x="2140.691406" xlink:href="#DejaVuSans-102"/>
      <use x="2174.146484" xlink:href="#DejaVuSans-116"/>
      <use x="2213.355469" xlink:href="#DejaVuSans-41"/>
     </g>
    </g>
   </g>
   <g id="matplotlib.axis_2">
    <g id="ytick_1">
     <g id="line2d_3">
      <defs>
       <path d="M 0 0 
L -3.5 0 
" id="m78077ec230" style="stroke:#000000;stroke-width:0.8;"/>
      </defs>
      <g>
       <use style="stroke:#000000;stroke-width:0.8;" x="59.690625" xlink:href="#m78077ec230" y="277.325862"/>
      </g>
     </g>
     <g id="text_4">
      <!-- 18000 -->
      <g transform="translate(20.878125 281.125081)scale(0.1 -0.1)">
       <defs>
        <path d="M 12.40625 8.296875 
L 28.515625 8.296875 
L 28.515625 63.921875 
L 10.984375 60.40625 
L 10.984375 69.390625 
L 28.421875 72.90625 
L 38.28125 72.90625 
L 38.28125 8.296875 
L 54.390625 8.296875 
L 54.390625 0 
L 12.40625 0 
z
" id="DejaVuSans-49"/>
        <path d="M 31.78125 34.625 
Q 24.75 34.625 20.71875 30.859375 
Q 16.703125 27.09375 16.703125 20.515625 
Q 16.703125 13.921875 20.71875 10.15625 
Q 24.75 6.390625 31.78125 6.390625 
Q 38.8125 6.390625 42.859375 10.171875 
Q 46.921875 13.96875 46.921875 20.515625 
Q 46.921875 27.09375 42.890625 30.859375 
Q 38.875 34.625 31.78125 34.625 
z
M 21.921875 38.8125 
Q 15.578125 40.375 12.03125 44.71875 
Q 8.5 49.078125 8.5 55.328125 
Q 8.5 64.0625 14.71875 69.140625 
Q 20.953125 74.21875 31.78125 74.21875 
Q 42.671875 74.21875 48.875 69.140625 
Q 55.078125 64.0625 55.078125 55.328125 
Q 55.078125 49.078125 51.53125 44.71875 
Q 48 40.375 41.703125 38.8125 
Q 48.828125 37.15625 52.796875 32.3125 
Q 56.78125 27.484375 56.78125 20.515625 
Q 56.78125 9.90625 50.3125 4.234375 
Q 43.84375 -1.421875 31.78125 -1.421875 
Q 19.734375 -1.421875 13.25 4.234375 
Q 6.78125 9.90625 6.78125 20.515625 
Q 6.78125 27.484375 10.78125 32.3125 
Q 14.796875 37.15625 21.921875 38.8125 
z
M 18.3125 54.390625 
Q 18.3125 48.734375 21.84375 45.5625 
Q 25.390625 42.390625 31.78125 42.390625 
Q 38.140625 42.390625 41.71875 45.5625 
Q 45.3125 48.734375 45.3125 54.390625 
Q 45.3125 60.0625 41.71875 63.234375 
Q 38.140625 66.40625 31.78125 66.40625 
Q 25.390625 66.40625 21.84375 63.234375 
Q 18.3125 60.0625 18.3125 54.390625 
z
" id="DejaVuSans-56"/>
        <path d="M 31.78125 66.40625 
Q 24.171875 66.40625 20.328125 58.90625 
Q 16.5 51.421875 16.5 36.375 
Q 16.5 21.390625 20.328125 13.890625 
Q 24.171875 6.390625 31.78125 6.390625 
Q 39.453125 6.390625 43.28125 13.890625 
Q 47.125 21.390625 47.125 36.375 
Q 47.125 51.421875 43.28125 58.90625 
Q 39.453125 66.40625 31.78125 66.40625 
z
M 31.78125 74.21875 
Q 44.046875 74.21875 50.515625 64.515625 
Q 56.984375 54.828125 56.984375 36.375 
Q 56.984375 17.96875 50.515625 8.265625 
Q 44.046875 -1.421875 31.78125 -1.421875 
Q 19.53125 -1.421875 13.0625 8.265625 
Q 6.59375 17.96875 6.59375 36.375 
Q 6.59375 54.828125 13.0625 64.515625 
Q 19.53125 74.21875 31.78125 74.21875 
z
" id="DejaVuSans-48"/>
       </defs>
       <use xlink:href="#DejaVuSans-49"/>
       <use x="63.623047" xlink:href="#DejaVuSans-56"/>
       <use x="127.246094" xlink:href="#DejaVuSans-48"/>
       <use x="190.869141" xlink:href="#DejaVuSans-48"/>
       <use x="254.492188" xlink:href="#DejaVuSans-48"/>
      </g>
     </g>
    </g>
    <g id="ytick_2">
     <g id="line2d_4">
      <g>
       <use style="stroke:#000000;stroke-width:0.8;" x="59.690625" xlink:href="#m78077ec230" y="243.1326"/>
      </g>
     </g>
     <g id="text_5">
      <!-- 19000 -->
      <g transform="translate(20.878125 246.931819)scale(0.1 -0.1)">
       <defs>
        <path d="M 10.984375 1.515625 
L 10.984375 10.5 
Q 14.703125 8.734375 18.5 7.8125 
Q 22.3125 6.890625 25.984375 6.890625 
Q 35.75 6.890625 40.890625 13.453125 
Q 46.046875 20.015625 46.78125 33.40625 
Q 43.953125 29.203125 39.59375 26.953125 
Q 35.25 24.703125 29.984375 24.703125 
Q 19.046875 24.703125 12.671875 31.3125 
Q 6.296875 37.9375 6.296875 49.421875 
Q 6.296875 60.640625 12.9375 67.421875 
Q 19.578125 74.21875 30.609375 74.21875 
Q 43.265625 74.21875 49.921875 64.515625 
Q 56.59375 54.828125 56.59375 36.375 
Q 56.59375 19.140625 48.40625 8.859375 
Q 40.234375 -1.421875 26.421875 -1.421875 
Q 22.703125 -1.421875 18.890625 -0.6875 
Q 15.09375 0.046875 10.984375 1.515625 
z
M 30.609375 32.421875 
Q 37.25 32.421875 41.125 36.953125 
Q 45.015625 41.5 45.015625 49.421875 
Q 45.015625 57.28125 41.125 61.84375 
Q 37.25 66.40625 30.609375 66.40625 
Q 23.96875 66.40625 20.09375 61.84375 
Q 16.21875 57.28125 16.21875 49.421875 
Q 16.21875 41.5 20.09375 36.953125 
Q 23.96875 32.421875 30.609375 32.421875 
z
" id="DejaVuSans-57"/>
       </defs>
       <use xlink:href="#DejaVuSans-49"/>
       <use x="63.623047" xlink:href="#DejaVuSans-57"/>
       <use x="127.246094" xlink:href="#DejaVuSans-48"/>
       <use x="190.869141" xlink:href="#DejaVuSans-48"/>
       <use x="254.492188" xlink:href="#DejaVuSans-48"/>
      </g>
     </g>
    </g>
    <g id="ytick_3">
     <g id="line2d_5">
      <g>
       <use style="stroke:#000000;stroke-width:0.8;" x="59.690625" xlink:href="#m78077ec230" y="208.939338"/>
      </g>
     </g>
     <g id="text_6">
      <!-- 20000 -->
      <g transform="translate(20.878125 212.738557)scale(0.1 -0.1)">
       <defs>
        <path d="M 19.1875 8.296875 
L 53.609375 8.296875 
L 53.609375 0 
L 7.328125 0 
L 7.328125 8.296875 
Q 12.9375 14.109375 22.625 23.890625 
Q 32.328125 33.6875 34.8125 36.53125 
Q 39.546875 41.84375 41.421875 45.53125 
Q 43.3125 49.21875 43.3125 52.78125 
Q 43.3125 58.59375 39.234375 62.25 
Q 35.15625 65.921875 28.609375 65.921875 
Q 23.96875 65.921875 18.8125 64.3125 
Q 13.671875 62.703125 7.8125 59.421875 
L 7.8125 69.390625 
Q 13.765625 71.78125 18.9375 73 
Q 24.125 74.21875 28.421875 74.21875 
Q 39.75 74.21875 46.484375 68.546875 
Q 53.21875 62.890625 53.21875 53.421875 
Q 53.21875 48.921875 51.53125 44.890625 
Q 49.859375 40.875 45.40625 35.40625 
Q 44.1875 33.984375 37.640625 27.21875 
Q 31.109375 20.453125 19.1875 8.296875 
z
" id="DejaVuSans-50"/>
       </defs>
       <use xlink:href="#DejaVuSans-50"/>
       <use x="63.623047" xlink:href="#DejaVuSans-48"/>
       <use x="127.246094" xlink:href="#DejaVuSans-48"/>
       <use x="190.869141" xlink:href="#DejaVuSans-48"/>
       <use x="254.492188" xlink:href="#DejaVuSans-48"/>
      </g>
     </g>
    </g>
    <g id="ytick_4">
     <g id="line2d_6">
      <g>
       <use style="stroke:#000000;stroke-width:0.8;" x="59.690625" xlink:href="#m78077ec230" y="174.746076"/>
      </g>
     </g>
     <g id="text_7">
      <!-- 21000 -->
      <g transform="translate(20.878125 178.545295)scale(0.1 -0.1)">
       <use xlink:href="#DejaVuSans-50"/>
       <use x="63.623047" xlink:href="#DejaVuSans-49"/>
       <use x="127.246094" xlink:href="#DejaVuSans-48"/>
       <use x="190.869141" xlink:href="#DejaVuSans-48"/>
       <use x="254.492188" xlink:href="#DejaVuSans-48"/>
      </g>
     </g>
    </g>
    <g id="ytick_5">
     <g id="line2d_7">
      <g>
       <use style="stroke:#000000;stroke-width:0.8;" x="59.690625" xlink:href="#m78077ec230" y="140.552814"/>
      </g>
     </g>
     <g id="text_8">
      <!-- 22000 -->
      <g transform="translate(20.878125 144.352033)scale(0.1 -0.1)">
       <use xlink:href="#DejaVuSans-50"/>
       <use x="63.623047" xlink:href="#DejaVuSans-50"/>
       <use x="127.246094" xlink:href="#DejaVuSans-48"/>
       <use x="190.869141" xlink:href="#DejaVuSans-48"/>
       <use x="254.492188" xlink:href="#DejaVuSans-48"/>
      </g>
     </g>
    </g>
    <g id="ytick_6">
     <g id="line2d_8">
      <g>
       <use style="stroke:#000000;stroke-width:0.8;" x="59.690625" xlink:href="#m78077ec230" y="106.359552"/>
      </g>
     </g>
     <g id="text_9">
      <!-- 23000 -->
      <g transform="translate(20.878125 110.158771)scale(0.1 -0.1)">
       <defs>
        <path d="M 40.578125 39.3125 
Q 47.65625 37.796875 51.625 33 
Q 55.609375 28.21875 55.609375 21.1875 
Q 55.609375 10.40625 48.1875 4.484375 
Q 40.765625 -1.421875 27.09375 -1.421875 
Q 22.515625 -1.421875 17.65625 -0.515625 
Q 12.796875 0.390625 7.625 2.203125 
L 7.625 11.71875 
Q 11.71875 9.328125 16.59375 8.109375 
Q 21.484375 6.890625 26.8125 6.890625 
Q 36.078125 6.890625 40.9375 10.546875 
Q 45.796875 14.203125 45.796875 21.1875 
Q 45.796875 27.640625 41.28125 31.265625 
Q 36.765625 34.90625 28.71875 34.90625 
L 20.21875 34.90625 
L 20.21875 43.015625 
L 29.109375 43.015625 
Q 36.375 43.015625 40.234375 45.921875 
Q 44.09375 48.828125 44.09375 54.296875 
Q 44.09375 59.90625 40.109375 62.90625 
Q 36.140625 65.921875 28.71875 65.921875 
Q 24.65625 65.921875 20.015625 65.03125 
Q 15.375 64.15625 9.8125 62.3125 
L 9.8125 71.09375 
Q 15.4375 72.65625 20.34375 73.4375 
Q 25.25 74.21875 29.59375 74.21875 
Q 40.828125 74.21875 47.359375 69.109375 
Q 53.90625 64.015625 53.90625 55.328125 
Q 53.90625 49.265625 50.4375 45.09375 
Q 46.96875 40.921875 40.578125 39.3125 
z
" id="DejaVuSans-51"/>
       </defs>
       <use xlink:href="#DejaVuSans-50"/>
       <use x="63.623047" xlink:href="#DejaVuSans-51"/>
       <use x="127.246094" xlink:href="#DejaVuSans-48"/>
       <use x="190.869141" xlink:href="#DejaVuSans-48"/>
       <use x="254.492188" xlink:href="#DejaVuSans-48"/>
      </g>
     </g>
    </g>
    <g id="ytick_7">
     <g id="line2d_9">
      <g>
       <use style="stroke:#000000;stroke-width:0.8;" x="59.690625" xlink:href="#m78077ec230" y="72.16629"/>
      </g>
     </g>
     <g id="text_10">
      <!-- 24000 -->
      <g transform="translate(20.878125 75.965509)scale(0.1 -0.1)">
       <defs>
        <path d="M 37.796875 64.3125 
L 12.890625 25.390625 
L 37.796875 25.390625 
z
M 35.203125 72.90625 
L 47.609375 72.90625 
L 47.609375 25.390625 
L 58.015625 25.390625 
L 58.015625 17.1875 
L 47.609375 17.1875 
L 47.609375 0 
L 37.796875 0 
L 37.796875 17.1875 
L 4.890625 17.1875 
L 4.890625 26.703125 
z
" id="DejaVuSans-52"/>
       </defs>
       <use xlink:href="#DejaVuSans-50"/>
       <use x="63.623047" xlink:href="#DejaVuSans-52"/>
       <use x="127.246094" xlink:href="#DejaVuSans-48"/>
       <use x="190.869141" xlink:href="#DejaVuSans-48"/>
       <use x="254.492188" xlink:href="#DejaVuSans-48"/>
      </g>
     </g>
    </g>
    <g id="ytick_8">
     <g id="line2d_10">
      <g>
       <use style="stroke:#000000;stroke-width:0.8;" x="59.690625" xlink:href="#m78077ec230" y="37.973028"/>
      </g>
     </g>
     <g id="text_11">
      <!-- 25000 -->
      <g transform="translate(20.878125 41.772247)scale(0.1 -0.1)">
       <defs>
        <path d="M 10.796875 72.90625 
L 49.515625 72.90625 
L 49.515625 64.59375 
L 19.828125 64.59375 
L 19.828125 46.734375 
Q 21.96875 47.46875 24.109375 47.828125 
Q 26.265625 48.1875 28.421875 48.1875 
Q 40.625 48.1875 47.75 41.5 
Q 54.890625 34.8125 54.890625 23.390625 
Q 54.890625 11.625 47.5625 5.09375 
Q 40.234375 -1.421875 26.90625 -1.421875 
Q 22.3125 -1.421875 17.546875 -0.640625 
Q 12.796875 0.140625 7.71875 1.703125 
L 7.71875 11.625 
Q 12.109375 9.234375 16.796875 8.0625 
Q 21.484375 6.890625 26.703125 6.890625 
Q 35.15625 6.890625 40.078125 11.328125 
Q 45.015625 15.765625 45.015625 23.390625 
Q 45.015625 31 40.078125 35.4375 
Q 35.15625 39.890625 26.703125 39.890625 
Q 22.75 39.890625 18.8125 39.015625 
Q 14.890625 38.140625 10.796875 36.28125 
z
" id="DejaVuSans-53"/>
       </defs>
       <use xlink:href="#DejaVuSans-50"/>
       <use x="63.623047" xlink:href="#DejaVuSans-53"/>
       <use x="127.246094" xlink:href="#DejaVuSans-48"/>
       <use x="190.869141" xlink:href="#DejaVuSans-48"/>
       <use x="254.492188" xlink:href="#DejaVuSans-48"/>
      </g>
     </g>
    </g>
    <g id="text_12">
     <!-- Reached region coverage -->
     <g transform="translate(14.798438 219.136625)rotate(-90)scale(0.1 -0.1)">
      <defs>
       <path d="M 44.390625 34.1875 
Q 47.5625 33.109375 50.5625 29.59375 
Q 53.5625 26.078125 56.59375 19.921875 
L 66.609375 0 
L 56 0 
L 46.6875 18.703125 
Q 43.0625 26.03125 39.671875 28.421875 
Q 36.28125 30.8125 30.421875 30.8125 
L 19.671875 30.8125 
L 19.671875 0 
L 9.8125 0 
L 9.8125 72.90625 
L 32.078125 72.90625 
Q 44.578125 72.90625 50.734375 67.671875 
Q 56.890625 62.453125 56.890625 51.90625 
Q 56.890625 45.015625 53.6875 40.46875 
Q 50.484375 35.9375 44.390625 34.1875 
z
M 19.671875 64.796875 
L 19.671875 38.921875 
L 32.078125 38.921875 
Q 39.203125 38.921875 42.84375 42.21875 
Q 46.484375 45.515625 46.484375 51.90625 
Q 46.484375 58.296875 42.84375 61.546875 
Q 39.203125 64.796875 32.078125 64.796875 
z
" id="DejaVuSans-82"/>
      </defs>
      <use xlink:href="#DejaVuSans-82"/>
      <use x="64.982422" xlink:href="#DejaVuSans-101"/>
      <use x="126.505859" xlink:href="#DejaVuSans-97"/>
      <use x="187.785156" xlink:href="#DejaVuSans-99"/>
      <use x="242.765625" xlink:href="#DejaVuSans-104"/>
      <use x="306.144531" xlink:href="#DejaVuSans-101"/>
      <use x="367.667969" xlink:href="#DejaVuSans-100"/>
      <use x="431.144531" xlink:href="#DejaVuSans-32"/>
      <use x="462.931641" xlink:href="#DejaVuSans-114"/>
      <use x="501.794922" xlink:href="#DejaVuSans-101"/>
      <use x="563.318359" xlink:href="#DejaVuSans-103"/>
      <use x="626.794922" xlink:href="#DejaVuSans-105"/>
      <use x="654.578125" xlink:href="#DejaVuSans-111"/>
      <use x="715.759766" xlink:href="#DejaVuSans-110"/>
      <use x="779.138672" xlink:href="#DejaVuSans-32"/>
      <use x="810.925781" xlink:href="#DejaVuSans-99"/>
      <use x="865.90625" xlink:href="#DejaVuSans-111"/>
      <use x="927.087891" xlink:href="#DejaVuSans-118"/>
      <use x="986.267578" xlink:href="#DejaVuSans-101"/>
      <use x="1047.791016" xlink:href="#DejaVuSans-114"/>
      <use x="1088.904297" xlink:href="#DejaVuSans-97"/>
      <use x="1150.183594" xlink:href="#DejaVuSans-103"/>
      <use x="1213.660156" xlink:href="#DejaVuSans-101"/>
     </g>
    </g>
   </g>
   <g id="line2d_11">
    <path clip-path="url(#pbe7e070dc2)" d="M 148.970625 87.382291 
L 148.970625 81.945563 
" style="fill:none;stroke:#3f3f3f;stroke-linecap:square;stroke-width:1.5;"/>
   </g>
   <g id="line2d_12">
    <path clip-path="url(#pbe7e070dc2)" d="M 148.970625 87.382291 
L 148.970625 81.945563 
" style="fill:none;stroke:#3f3f3f;stroke-linecap:square;stroke-width:4.5;"/>
   </g>
   <g id="line2d_13">
    <path clip-path="url(#pbe7e070dc2)" d="M 327.530625 269.734958 
L 327.530625 265.56338 
" style="fill:none;stroke:#3f3f3f;stroke-linecap:square;stroke-width:1.5;"/>
   </g>
   <g id="line2d_14">
    <path clip-path="url(#pbe7e070dc2)" d="M 327.530625 267.093529 
L 327.530625 263.99049 
" style="fill:none;stroke:#3f3f3f;stroke-linecap:square;stroke-width:4.5;"/>
   </g>
   <g id="patch_3">
    <path d="M 59.690625 277.325862 
L 59.690625 37.973028 
" style="fill:none;stroke:#000000;stroke-linecap:square;stroke-linejoin:miter;stroke-width:0.8;"/>
   </g>
   <g id="patch_4">
    <path d="M 148.970625 288.430125 
L 327.530625 288.430125 
" style="fill:none;stroke:#000000;stroke-linecap:square;stroke-linejoin:miter;stroke-width:0.8;"/>
   </g>
   <g id="PathCollection_1">
    <defs>
     <path d="M 0 1.5 
C 0.397805 1.5 0.77937 1.341951 1.06066 1.06066 
C 1.341951 0.77937 1.5 0.397805 1.5 0 
C 1.5 -0.397805 1.341951 -0.77937 1.06066 -1.06066 
C 0.77937 -1.341951 0.397805 -1.5 0 -1.5 
C -0.397805 -1.5 -0.77937 -1.341951 -1.06066 -1.06066 
C -1.341951 -0.77937 -1.5 -0.397805 -1.5 0 
C -1.5 0.397805 -1.341951 0.77937 -1.06066 1.06066 
C -0.77937 1.341951 -0.397805 1.5 0 1.5 
z
" id="med80e3b6ce" style="stroke:#3f3f3f;"/>
    </defs>
    <g clip-path="url(#pbe7e070dc2)">
     <use style="fill:#ffffff;stroke:#3f3f3f;" x="148.970625" xlink:href="#med80e3b6ce" y="84.099738"/>
    </g>
   </g>
   <g id="PathCollection_2">
    <g clip-path="url(#pbe7e070dc2)">
     <use style="fill:#ffffff;stroke:#3f3f3f;" x="327.530625" xlink:href="#med80e3b6ce" y="265.888216"/>
    </g>
   </g>
   <g id="text_13">
    <!-- freetype2-2017 (12h, 4 trials/fuzzer) -->
    <g transform="translate(128.854688 16.318125)scale(0.12 -0.12)">
     <defs>
      <path d="M 32.171875 -5.078125 
Q 28.375 -14.84375 24.75 -17.8125 
Q 21.140625 -20.796875 15.09375 -20.796875 
L 7.90625 -20.796875 
L 7.90625 -13.28125 
L 13.1875 -13.28125 
Q 16.890625 -13.28125 18.9375 -11.515625 
Q 21 -9.765625 23.484375 -3.21875 
L 25.09375 0.875 
L 2.984375 54.6875 
L 12.5 54.6875 
L 29.59375 11.921875 
L 46.6875 54.6875 
L 56.203125 54.6875 
z
" id="DejaVuSans-121"/>
      <path d="M 4.890625 31.390625 
L 31.203125 31.390625 
L 31.203125 23.390625 
L 4.890625 23.390625 
z
" id="DejaVuSans-45"/>
      <path d="M 8.203125 72.90625 
L 55.078125 72.90625 
L 55.078125 68.703125 
L 28.609375 0 
L 18.3125 0 
L 43.21875 64.59375 
L 8.203125 64.59375 
z
" id="DejaVuSans-55"/>
      <path d="M 11.71875 12.40625 
L 22.015625 12.40625 
L 22.015625 4 
L 14.015625 -11.625 
L 7.71875 -11.625 
L 11.71875 4 
z
" id="DejaVuSans-44"/>
      <path d="M 25.390625 72.90625 
L 33.6875 72.90625 
L 8.296875 -9.28125 
L 0 -9.28125 
z
" id="DejaVuSans-47"/>
     </defs>
     <use xlink:href="#DejaVuSans-102"/>
     <use x="35.205078" xlink:href="#DejaVuSans-114"/>
     <use x="74.068359" xlink:href="#DejaVuSans-101"/>
     <use x="135.591797" xlink:href="#DejaVuSans-101"/>
     <use x="197.115234" xlink:href="#DejaVuSans-116"/>
     <use x="236.324219" xlink:href="#DejaVuSans-121"/>
     <use x="295.503906" xlink:href="#DejaVuSans-112"/>
     <use x="358.980469" xlink:href="#DejaVuSans-101"/>
     <use x="420.503906" xlink:href="#DejaVuSans-50"/>
     <use x="484.126953" xlink:href="#DejaVuSans-45"/>
     <use x="520.210938" xlink:href="#DejaVuSans-50"/>
     <use x="583.833984" xlink:href="#DejaVuSans-48"/>
     <use x="647.457031" xlink:href="#DejaVuSans-49"/>
     <use x="711.080078" xlink:href="#DejaVuSans-55"/>
     <use x="774.703125" xlink:href="#DejaVuSans-32"/>
     <use x="806.490234" xlink:href="#DejaVuSans-40"/>
     <use x="845.503906" xlink:href="#DejaVuSans-49"/>
     <use x="909.126953" xlink:href="#DejaVuSans-50"/>
     <use x="972.75" xlink:href="#DejaVuSans-104"/>
     <use x="1036.128906" xlink:href="#DejaVuSans-44"/>
     <use x="1067.916016" xlink:href="#DejaVuSans-32"/>
     <use x="1099.703125" xlink:href="#DejaVuSans-52"/>
     <use x="1163.326172" xlink:href="#DejaVuSans-32"/>
     <use x="1195.113281" xlink:href="#DejaVuSans-116"/>
     <use x="1234.322266" xlink:href="#DejaVuSans-114"/>
     <use x="1275.435547" xlink:href="#DejaVuSans-105"/>
     <use x="1303.21875" xlink:href="#DejaVuSans-97"/>
     <use x="1364.498047" xlink:href="#DejaVuSans-108"/>
     <use x="1392.28125" xlink:href="#DejaVuSans-115"/>
     <use x="1444.380859" xlink:href="#DejaVuSans-47"/>
     <use x="1478.072266" xlink:href="#DejaVuSans-102"/>
     <use x="1513.277344" xlink:href="#DejaVuSans-117"/>
     <use x="1576.65625" xlink:href="#DejaVuSans-122"/>
     <use x="1629.146484" xlink:href="#DejaVuSans-122"/>
     <use x="1681.636719" xlink:href="#DejaVuSans-101"/>
     <use x="1743.160156" xlink:href="#DejaVuSans-114"/>
     <use x="1784.273438" xlink:href="#DejaVuSans-41"/>
    </g>
   </g>
  </g>
 </g>
 <defs>
  <clipPath id="pbe7e070dc2">
   <rect height="266.112" width="357.12" x="59.690625" y="22.318125"/>
  </clipPath>
 </defs>
</svg>
