<?xml version="1.0" encoding="utf-8" standalone="no"?>
<!DOCTYPE svg PUBLIC "-//W3C//DTD SVG 1.1//EN"
  "http://www.w3.org/Graphics/SVG/1.1/DTD/svg11.dtd">
<!-- Created with matplotlib (https://matplotlib.org/) -->
<svg height="368.607178pt" version="1.1" viewBox="0 0 424.010625 368.607178" width="424.010625pt" xmlns="http://www.w3.org/2000/svg" xmlns:xlink="http://www.w3.org/1999/xlink">
 <metadata>
  <rdf:RDF xmlns:cc="http://creativecommons.org/ns#" xmlns:dc="http://purl.org/dc/elements/1.1/" xmlns:rdf="http://www.w3.org/1999/02/22-rdf-syntax-ns#">
   <cc:Work>
    <dc:type rdf:resource="http://purl.org/dc/dcmitype/StillImage"/>
    <dc:date>2020-12-06T10:28:48.004292</dc:date>
    <dc:format>image/svg+xml</dc:format>
    <dc:creator>
     <cc:Agent>
      <dc:title>Matplotlib v3.3.3, https://matplotlib.org/</dc:title>
     </cc:Agent>
    </dc:creator>
   </cc:Work>
  </rdf:RDF>
 </metadata>
 <defs>
  <style type="text/css">*{stroke-linecap:butt;stroke-linejoin:round;}</style>
 </defs>
 <g id="figure_1">
  <g id="patch_1">
   <path d="M 0 368.607178 
L 424.010625 368.607178 
L 424.010625 0 
L 0 0 
z
" style="fill:#ffffff;"/>
  </g>
  <g id="axes_1">
   <g id="patch_2">
    <path d="M 59.690625 288.430125 
L 416.810625 288.430125 
L 416.810625 22.318125 
L 59.690625 22.318125 
z
" style="fill:#ffffff;"/>
   </g>
   <g id="PolyCollection_1">
    <defs>
     <path d="M 82.18745 -198.309342 
L 81.8338 -198.309342 
L 81.792382 -199.623722 
L 81.743834 -200.938103 
L 81.687598 -202.252484 
L 81.62324 -203.566865 
L 81.550491 -204.881245 
L 81.469292 -206.195626 
L 81.379835 -207.510007 
L 81.282602 -208.824388 
L 81.178389 -210.138768 
L 81.068323 -211.453149 
L 80.953866 -212.76753 
L 80.836797 -214.081911 
L 80.719176 -215.396291 
L 80.603301 -216.710672 
L 80.491632 -218.025053 
L 80.386709 -219.339434 
L 80.29106 -220.653814 
L 80.2071 -221.968195 
L 80.137026 -223.282576 
L 80.08272 -224.596957 
L 80.045663 -225.911337 
L 80.026864 -227.225718 
L 80.026804 -228.540099 
L 80.04541 -229.854479 
L 80.082047 -231.16886 
L 80.135541 -232.483241 
L 80.204218 -233.797622 
L 80.285963 -235.112002 
L 80.378296 -236.426383 
L 80.478456 -237.740764 
L 80.583486 -239.055145 
L 80.690314 -240.369525 
L 80.795835 -241.683906 
L 80.896968 -242.998287 
L 80.990711 -244.312668 
L 81.074173 -245.627048 
L 81.144589 -246.941429 
L 81.19933 -248.25581 
L 81.235893 -249.570191 
L 81.251892 -250.884571 
L 81.245038 -252.198952 
L 81.213134 -253.513333 
L 81.154064 -254.827714 
L 81.065809 -256.142094 
L 80.946466 -257.456475 
L 80.794288 -258.770856 
L 80.607744 -260.085237 
L 80.385596 -261.399617 
L 80.126984 -262.713998 
L 79.83153 -264.028379 
L 79.499438 -265.34276 
L 79.131602 -266.65714 
L 78.729697 -267.971521 
L 78.296262 -269.285902 
L 77.834752 -270.600283 
L 77.34957 -271.914663 
L 76.846059 -273.229044 
L 76.330459 -274.543425 
L 75.809819 -275.857806 
L 75.291877 -277.172186 
L 74.784896 -278.486567 
L 74.297468 -279.800948 
L 73.838292 -281.115328 
L 73.415932 -282.429709 
L 73.038565 -283.74409 
L 72.713731 -285.058471 
L 72.448096 -286.372851 
L 72.247229 -287.687232 
L 72.115422 -289.001613 
L 72.055541 -290.315994 
L 72.068928 -291.630374 
L 72.155354 -292.944755 
L 72.313026 -294.259136 
L 72.538648 -295.573517 
L 72.827528 -296.887897 
L 73.173739 -298.202278 
L 73.570314 -299.516659 
L 74.009474 -300.83104 
L 74.48287 -302.14542 
L 74.981845 -303.459801 
L 75.497689 -304.774182 
L 76.021882 -306.088563 
L 76.54632 -307.402943 
L 77.063512 -308.717324 
L 77.566743 -310.031705 
L 78.050193 -311.346086 
L 78.509024 -312.660466 
L 78.939419 -313.974847 
L 79.338583 -315.289228 
L 79.704711 -316.603609 
L 80.036921 -317.917989 
L 80.335168 -319.23237 
L 80.600135 -320.546751 
L 80.83311 -321.861132 
L 81.035868 -323.175512 
L 81.210544 -324.489893 
L 81.359515 -325.804274 
L 81.485295 -327.118655 
L 81.590437 -328.433035 
L 82.430813 -328.433035 
L 82.430813 -328.433035 
L 82.535955 -327.118655 
L 82.661735 -325.804274 
L 82.810706 -324.489893 
L 82.985382 -323.175512 
L 83.18814 -321.861132 
L 83.421115 -320.546751 
L 83.686082 -319.23237 
L 83.984329 -317.917989 
L 84.316539 -316.603609 
L 84.682667 -315.289228 
L 85.081831 -313.974847 
L 85.512226 -312.660466 
L 85.971057 -311.346086 
L 86.454507 -310.031705 
L 86.957738 -308.717324 
L 87.47493 -307.402943 
L 87.999368 -306.088563 
L 88.523561 -304.774182 
L 89.039405 -303.459801 
L 89.53838 -302.14542 
L 90.011776 -300.83104 
L 90.450936 -299.516659 
L 90.847511 -298.202278 
L 91.193722 -296.887897 
L 91.482602 -295.573517 
L 91.708224 -294.259136 
L 91.865896 -292.944755 
L 91.952322 -291.630374 
L 91.965709 -290.315994 
L 91.905828 -289.001613 
L 91.774021 -287.687232 
L 91.573154 -286.372851 
L 91.307519 -285.058471 
L 90.982685 -283.74409 
L 90.605318 -282.429709 
L 90.182958 -281.115328 
L 89.723782 -279.800948 
L 89.236354 -278.486567 
L 88.729373 -277.172186 
L 88.211431 -275.857806 
L 87.690791 -274.543425 
L 87.175191 -273.229044 
L 86.67168 -271.914663 
L 86.186498 -270.600283 
L 85.724988 -269.285902 
L 85.291553 -267.971521 
L 84.889648 -266.65714 
L 84.521812 -265.34276 
L 84.18972 -264.028379 
L 83.894266 -262.713998 
L 83.635654 -261.399617 
L 83.413506 -260.085237 
L 83.226962 -258.770856 
L 83.074784 -257.456475 
L 82.955441 -256.142094 
L 82.867186 -254.827714 
L 82.808116 -253.513333 
L 82.776212 -252.198952 
L 82.769358 -250.884571 
L 82.785357 -249.570191 
L 82.82192 -248.25581 
L 82.876661 -246.941429 
L 82.947077 -245.627048 
L 83.030539 -244.312668 
L 83.124282 -242.998287 
L 83.225415 -241.683906 
L 83.330936 -240.369525 
L 83.437764 -239.055145 
L 83.542794 -237.740764 
L 83.642954 -236.426383 
L 83.735287 -235.112002 
L 83.817032 -233.797622 
L 83.885709 -232.483241 
L 83.939203 -231.16886 
L 83.97584 -229.854479 
L 83.994446 -228.540099 
L 83.994386 -227.225718 
L 83.975587 -225.911337 
L 83.93853 -224.596957 
L 83.884224 -223.282576 
L 83.81415 -221.968195 
L 83.73019 -220.653814 
L 83.634541 -219.339434 
L 83.529618 -218.025053 
L 83.417949 -216.710672 
L 83.302074 -215.396291 
L 83.184453 -214.081911 
L 83.067384 -212.76753 
L 82.952927 -211.453149 
L 82.842861 -210.138768 
L 82.738648 -208.824388 
L 82.641415 -207.510007 
L 82.551958 -206.195626 
L 82.470759 -204.881245 
L 82.39801 -203.566865 
L 82.333652 -202.252484 
L 82.277416 -200.938103 
L 82.228868 -199.623722 
L 82.18745 -198.309342 
z
" id="ma3c844f8f8" style="stroke:#3d3d3d;stroke-width:1.5;"/>
    </defs>
    <g clip-path="url(#pe5fef5739c)">
     <use style="fill:#c4b5d0;stroke:#3d3d3d;stroke-width:1.5;" x="0" xlink:href="#ma3c844f8f8" y="368.607178"/>
    </g>
   </g>
   <g id="PolyCollection_2">
    <defs>
     <path d="M 126.705046 -92.273053 
L 126.596204 -92.273053 
L 126.583146 -94.716689 
L 126.567924 -97.160326 
L 126.550435 -99.603962 
L 126.530633 -102.047598 
L 126.508541 -104.491235 
L 126.484259 -106.934871 
L 126.457967 -109.378507 
L 126.429922 -111.822144 
L 126.400454 -114.26578 
L 126.369945 -116.709417 
L 126.338813 -119.153053 
L 126.30748 -121.596689 
L 126.276343 -124.040326 
L 126.245738 -126.483962 
L 126.215911 -128.927598 
L 126.186985 -131.371235 
L 126.158939 -133.814871 
L 126.131593 -136.258507 
L 126.104602 -138.702144 
L 126.077468 -141.14578 
L 126.04956 -143.589417 
L 126.020142 -146.033053 
L 125.988417 -148.476689 
L 125.95357 -150.920326 
L 125.914826 -153.363962 
L 125.871496 -155.807598 
L 125.823025 -158.251235 
L 125.769037 -160.694871 
L 125.709364 -163.138507 
L 125.644069 -165.582144 
L 125.57345 -168.02578 
L 125.49804 -170.469417 
L 125.418582 -172.913053 
L 125.336001 -175.356689 
L 125.251358 -177.800326 
L 125.165798 -180.243962 
L 125.080487 -182.687598 
L 124.99655 -185.131235 
L 124.915001 -187.574871 
L 124.836682 -190.018507 
L 124.762205 -192.462144 
L 124.691899 -194.90578 
L 124.625781 -197.349417 
L 124.563533 -199.793053 
L 124.504503 -202.236689 
L 124.447723 -204.680326 
L 124.391945 -207.123962 
L 124.3357 -209.567598 
L 124.277365 -212.011235 
L 124.215249 -214.454871 
L 124.147683 -216.898507 
L 124.073112 -219.342144 
L 123.990193 -221.78578 
L 123.897876 -224.229417 
L 123.79549 -226.673053 
L 123.68281 -229.116689 
L 123.560109 -231.560326 
L 123.428201 -234.003962 
L 123.288462 -236.447598 
L 123.142829 -238.891235 
L 122.99379 -241.334871 
L 122.844341 -243.778507 
L 122.69792 -246.222144 
L 122.558322 -248.66578 
L 122.429585 -251.109417 
L 122.315856 -253.553053 
L 122.221229 -255.996689 
L 122.149584 -258.440326 
L 122.104409 -260.883962 
L 122.088626 -263.327598 
L 122.104444 -265.771235 
L 122.15322 -268.214871 
L 122.235374 -270.658507 
L 122.350335 -273.102144 
L 122.496547 -275.54578 
L 122.671514 -277.989417 
L 122.871905 -280.433053 
L 123.093698 -282.876689 
L 123.332351 -285.320326 
L 123.583006 -287.763962 
L 123.84069 -290.207598 
L 124.100519 -292.651235 
L 124.35788 -295.094871 
L 124.60859 -297.538507 
L 124.84902 -299.982144 
L 125.076175 -302.42578 
L 125.287743 -304.869417 
L 125.482103 -307.313053 
L 125.658292 -309.756689 
L 125.815959 -312.200326 
L 125.955286 -314.643962 
L 126.076901 -317.087598 
L 126.181784 -319.531235 
L 126.271172 -321.974871 
L 126.346472 -324.418507 
L 126.40918 -326.862144 
L 126.460812 -329.30578 
L 126.50285 -331.749417 
L 126.536698 -334.193053 
L 126.764552 -334.193053 
L 126.764552 -334.193053 
L 126.7984 -331.749417 
L 126.840438 -329.30578 
L 126.89207 -326.862144 
L 126.954778 -324.418507 
L 127.030078 -321.974871 
L 127.119466 -319.531235 
L 127.224349 -317.087598 
L 127.345964 -314.643962 
L 127.485291 -312.200326 
L 127.642958 -309.756689 
L 127.819147 -307.313053 
L 128.013507 -304.869417 
L 128.225075 -302.42578 
L 128.45223 -299.982144 
L 128.69266 -297.538507 
L 128.94337 -295.094871 
L 129.200731 -292.651235 
L 129.46056 -290.207598 
L 129.718244 -287.763962 
L 129.968899 -285.320326 
L 130.207552 -282.876689 
L 130.429345 -280.433053 
L 130.629736 -277.989417 
L 130.804703 -275.54578 
L 130.950915 -273.102144 
L 131.065876 -270.658507 
L 131.14803 -268.214871 
L 131.196806 -265.771235 
L 131.212624 -263.327598 
L 131.196841 -260.883962 
L 131.151666 -258.440326 
L 131.080021 -255.996689 
L 130.985394 -253.553053 
L 130.871665 -251.109417 
L 130.742928 -248.66578 
L 130.60333 -246.222144 
L 130.456909 -243.778507 
L 130.30746 -241.334871 
L 130.158421 -238.891235 
L 130.012788 -236.447598 
L 129.873049 -234.003962 
L 129.741141 -231.560326 
L 129.61844 -229.116689 
L 129.50576 -226.673053 
L 129.403374 -224.229417 
L 129.311057 -221.78578 
L 129.228138 -219.342144 
L 129.153567 -216.898507 
L 129.086001 -214.454871 
L 129.023885 -212.011235 
L 128.96555 -209.567598 
L 128.909305 -207.123962 
L 128.853527 -204.680326 
L 128.796747 -202.236689 
L 128.737717 -199.793053 
L 128.675469 -197.349417 
L 128.609351 -194.90578 
L 128.539045 -192.462144 
L 128.464568 -190.018507 
L 128.386249 -187.574871 
L 128.3047 -185.131235 
L 128.220763 -182.687598 
L 128.135452 -180.243962 
L 128.049892 -177.800326 
L 127.965249 -175.356689 
L 127.882668 -172.913053 
L 127.80321 -170.469417 
L 127.7278 -168.02578 
L 127.657181 -165.582144 
L 127.591886 -163.138507 
L 127.532213 -160.694871 
L 127.478225 -158.251235 
L 127.429754 -155.807598 
L 127.386424 -153.363962 
L 127.34768 -150.920326 
L 127.312833 -148.476689 
L 127.281108 -146.033053 
L 127.25169 -143.589417 
L 127.223782 -141.14578 
L 127.196648 -138.702144 
L 127.169657 -136.258507 
L 127.142311 -133.814871 
L 127.114265 -131.371235 
L 127.085339 -128.927598 
L 127.055512 -126.483962 
L 127.024907 -124.040326 
L 126.99377 -121.596689 
L 126.962437 -119.153053 
L 126.931305 -116.709417 
L 126.900796 -114.26578 
L 126.871328 -111.822144 
L 126.843283 -109.378507 
L 126.816991 -106.934871 
L 126.792709 -104.491235 
L 126.770617 -102.047598 
L 126.750815 -99.603962 
L 126.733326 -97.160326 
L 126.718104 -94.716689 
L 126.705046 -92.273053 
z
" id="m99d58dc225" style="stroke:#3d3d3d;stroke-width:1.5;"/>
    </defs>
    <g clip-path="url(#pe5fef5739c)">
     <use style="fill:#f2a5a3;stroke:#3d3d3d;stroke-width:1.5;" x="0" xlink:href="#m99d58dc225" y="368.607178"/>
    </g>
   </g>
   <g id="PolyCollection_3">
    <defs>
     <path d="M 171.39703 -149.797288 
L 171.18422 -149.797288 
L 171.158489 -151.314839 
L 171.127973 -152.83239 
L 171.092144 -154.349941 
L 171.050501 -155.867492 
L 171.002585 -157.385042 
L 170.948006 -158.902593 
L 170.886464 -160.420144 
L 170.817773 -161.937695 
L 170.74188 -163.455246 
L 170.658889 -164.972797 
L 170.569072 -166.490348 
L 170.47288 -168.007898 
L 170.370952 -169.525449 
L 170.264105 -171.043 
L 170.15333 -172.560551 
L 170.03977 -174.078102 
L 169.924692 -175.595653 
L 169.809456 -177.113204 
L 169.695469 -178.630755 
L 169.584137 -180.148305 
L 169.476812 -181.665856 
L 169.374737 -183.183407 
L 169.278984 -184.700958 
L 169.190406 -186.218509 
L 169.109587 -187.73606 
L 169.036798 -189.253611 
L 168.971971 -190.771161 
L 168.914684 -192.288712 
L 168.864159 -193.806263 
L 168.819283 -195.323814 
L 168.778643 -196.841365 
L 168.740575 -198.358916 
L 168.703231 -199.876467 
L 168.664654 -201.394018 
L 168.622864 -202.911568 
L 168.57594 -204.429119 
L 168.522102 -205.94667 
L 168.459787 -207.464221 
L 168.387705 -208.981772 
L 168.304891 -210.499323 
L 168.210729 -212.016874 
L 168.104963 -213.534424 
L 167.987689 -215.051975 
L 167.859339 -216.569526 
L 167.720645 -218.087077 
L 167.572602 -219.604628 
L 167.416427 -221.122179 
L 167.253522 -222.63973 
L 167.085435 -224.157281 
L 166.913836 -225.674831 
L 166.740489 -227.192382 
L 166.567238 -228.709933 
L 166.395992 -230.227484 
L 166.228712 -231.745035 
L 166.067395 -233.262586 
L 165.914058 -234.780137 
L 165.77071 -236.297687 
L 165.639323 -237.815238 
L 165.52179 -239.332789 
L 165.419892 -240.85034 
L 165.335251 -242.367891 
L 165.269289 -243.885442 
L 165.223201 -245.402993 
L 165.197927 -246.920544 
L 165.194139 -248.438094 
L 165.212239 -249.955645 
L 165.252369 -251.473196 
L 165.31443 -252.990747 
L 165.398101 -254.508298 
L 165.502872 -256.025849 
L 165.62806 -257.5434 
L 165.772832 -259.06095 
L 165.936215 -260.578501 
L 166.117098 -262.096052 
L 166.314227 -263.613603 
L 166.526198 -265.131154 
L 166.751438 -266.648705 
L 166.988199 -268.166256 
L 167.23455 -269.683807 
L 167.48838 -271.201357 
L 167.747416 -272.718908 
L 168.009252 -274.236459 
L 168.271393 -275.75401 
L 168.53131 -277.271561 
L 168.786504 -278.789112 
L 169.034579 -280.306663 
L 169.273308 -281.824213 
L 169.5007 -283.341764 
L 169.715058 -284.859315 
L 169.91502 -286.376866 
L 170.099587 -287.894417 
L 170.268135 -289.411968 
L 170.420409 -290.929519 
L 170.556502 -292.44707 
L 170.676824 -293.96462 
L 170.78205 -295.482171 
L 170.87308 -296.999722 
L 170.950973 -298.517273 
L 171.016903 -300.034824 
L 171.564347 -300.034824 
L 171.564347 -300.034824 
L 171.630277 -298.517273 
L 171.70817 -296.999722 
L 171.7992 -295.482171 
L 171.904426 -293.96462 
L 172.024748 -292.44707 
L 172.160841 -290.929519 
L 172.313115 -289.411968 
L 172.481663 -287.894417 
L 172.66623 -286.376866 
L 172.866192 -284.859315 
L 173.08055 -283.341764 
L 173.307942 -281.824213 
L 173.546671 -280.306663 
L 173.794746 -278.789112 
L 174.04994 -277.271561 
L 174.309857 -275.75401 
L 174.571998 -274.236459 
L 174.833834 -272.718908 
L 175.09287 -271.201357 
L 175.3467 -269.683807 
L 175.593051 -268.166256 
L 175.829812 -266.648705 
L 176.055052 -265.131154 
L 176.267023 -263.613603 
L 176.464152 -262.096052 
L 176.645035 -260.578501 
L 176.808418 -259.06095 
L 176.95319 -257.5434 
L 177.078378 -256.025849 
L 177.183149 -254.508298 
L 177.26682 -252.990747 
L 177.328881 -251.473196 
L 177.369011 -249.955645 
L 177.387111 -248.438094 
L 177.383323 -246.920544 
L 177.358049 -245.402993 
L 177.311961 -243.885442 
L 177.245999 -242.367891 
L 177.161358 -240.85034 
L 177.05946 -239.332789 
L 176.941927 -237.815238 
L 176.81054 -236.297687 
L 176.667192 -234.780137 
L 176.513855 -233.262586 
L 176.352538 -231.745035 
L 176.185258 -230.227484 
L 176.014012 -228.709933 
L 175.840761 -227.192382 
L 175.667414 -225.674831 
L 175.495815 -224.157281 
L 175.327728 -222.63973 
L 175.164823 -221.122179 
L 175.008648 -219.604628 
L 174.860605 -218.087077 
L 174.721911 -216.569526 
L 174.593561 -215.051975 
L 174.476287 -213.534424 
L 174.370521 -212.016874 
L 174.276359 -210.499323 
L 174.193545 -208.981772 
L 174.121463 -207.464221 
L 174.059148 -205.94667 
L 174.00531 -204.429119 
L 173.958386 -202.911568 
L 173.916596 -201.394018 
L 173.878019 -199.876467 
L 173.840675 -198.358916 
L 173.802607 -196.841365 
L 173.761967 -195.323814 
L 173.717091 -193.806263 
L 173.666566 -192.288712 
L 173.609279 -190.771161 
L 173.544452 -189.253611 
L 173.471663 -187.73606 
L 173.390844 -186.218509 
L 173.302266 -184.700958 
L 173.206513 -183.183407 
L 173.104438 -181.665856 
L 172.997113 -180.148305 
L 172.885781 -178.630755 
L 172.771794 -177.113204 
L 172.656558 -175.595653 
L 172.54148 -174.078102 
L 172.42792 -172.560551 
L 172.317145 -171.043 
L 172.210298 -169.525449 
L 172.10837 -168.007898 
L 172.012178 -166.490348 
L 171.922361 -164.972797 
L 171.83937 -163.455246 
L 171.763477 -161.937695 
L 171.694786 -160.420144 
L 171.633244 -158.902593 
L 171.578665 -157.385042 
L 171.530749 -155.867492 
L 171.489106 -154.349941 
L 171.453277 -152.83239 
L 171.422761 -151.314839 
L 171.39703 -149.797288 
z
" id="m08dda14934" style="stroke:#3d3d3d;stroke-width:1.5;"/>
    </defs>
    <g clip-path="url(#pe5fef5739c)">
     <use style="fill:#d684bd;stroke:#3d3d3d;stroke-width:1.5;" x="0" xlink:href="#m08dda14934" y="368.607178"/>
    </g>
   </g>
   <g id="PolyCollection_4">
    <defs>
     <path d="M 215.991954 -98.665831 
L 215.869296 -98.665831 
L 215.854364 -100.954861 
L 215.836749 -103.24389 
L 215.816213 -105.532919 
L 215.792546 -107.821949 
L 215.765584 -110.110978 
L 215.735217 -112.400008 
L 215.701399 -114.689037 
L 215.664153 -116.978066 
L 215.623578 -119.267096 
L 215.579844 -121.556125 
L 215.533194 -123.845155 
L 215.483932 -126.134184 
L 215.432411 -128.423214 
L 215.379022 -130.712243 
L 215.324173 -133.001272 
L 215.268273 -135.290302 
L 215.211711 -137.579331 
L 215.154837 -139.868361 
L 215.097948 -142.15739 
L 215.041266 -144.446419 
L 214.984934 -146.735449 
L 214.929002 -149.024478 
L 214.873424 -151.313508 
L 214.818057 -153.602537 
L 214.762666 -155.891567 
L 214.706933 -158.180596 
L 214.65047 -160.469625 
L 214.592837 -162.758655 
L 214.533567 -165.047684 
L 214.472186 -167.336714 
L 214.408245 -169.625743 
L 214.341349 -171.914772 
L 214.271179 -174.203802 
L 214.197518 -176.492831 
L 214.120273 -178.781861 
L 214.039482 -181.07089 
L 213.955323 -183.35992 
L 213.868104 -185.648949 
L 213.778252 -187.937978 
L 213.686291 -190.227008 
L 213.592814 -192.516037 
L 213.49845 -194.805067 
L 213.403828 -197.094096 
L 213.309545 -199.383125 
L 213.21614 -201.672155 
L 213.124064 -203.961184 
L 213.033668 -206.250214 
L 212.945197 -208.539243 
L 212.858787 -210.828273 
L 212.77448 -213.117302 
L 212.692241 -215.406331 
L 212.61198 -217.695361 
L 212.533589 -219.98439 
L 212.456968 -222.27342 
L 212.382072 -224.562449 
L 212.30894 -226.851479 
L 212.237739 -229.140508 
L 212.168796 -231.429537 
L 212.102627 -233.718567 
L 212.039967 -236.007596 
L 211.981773 -238.296626 
L 211.929236 -240.585655 
L 211.883757 -242.874684 
L 211.846927 -245.163714 
L 211.820472 -247.452743 
L 211.806199 -249.741773 
L 211.805907 -252.030802 
L 211.821312 -254.319832 
L 211.853941 -256.608861 
L 211.905047 -258.89789 
L 211.975515 -261.18692 
L 212.065792 -263.475949 
L 212.175827 -265.764979 
L 212.305041 -268.054008 
L 212.452321 -270.343037 
L 212.616039 -272.632067 
L 212.794106 -274.921096 
L 212.984037 -277.210126 
L 213.183051 -279.499155 
L 213.38817 -281.788185 
L 213.596334 -284.077214 
L 213.804512 -286.366243 
L 214.009808 -288.655273 
L 214.209555 -290.944302 
L 214.401391 -293.233332 
L 214.583319 -295.522361 
L 214.753742 -297.81139 
L 214.911481 -300.10042 
L 215.055768 -302.389449 
L 215.186233 -304.678479 
L 215.302861 -306.967508 
L 215.405951 -309.256538 
L 215.496067 -311.545567 
L 215.573976 -313.834596 
L 215.640599 -316.123626 
L 215.696953 -318.412655 
L 215.744107 -320.701685 
L 215.783141 -322.990714 
L 215.815106 -325.279743 
L 216.046144 -325.279743 
L 216.046144 -325.279743 
L 216.078109 -322.990714 
L 216.117143 -320.701685 
L 216.164297 -318.412655 
L 216.220651 -316.123626 
L 216.287274 -313.834596 
L 216.365183 -311.545567 
L 216.455299 -309.256538 
L 216.558389 -306.967508 
L 216.675017 -304.678479 
L 216.805482 -302.389449 
L 216.949769 -300.10042 
L 217.107508 -297.81139 
L 217.277931 -295.522361 
L 217.459859 -293.233332 
L 217.651695 -290.944302 
L 217.851442 -288.655273 
L 218.056738 -286.366243 
L 218.264916 -284.077214 
L 218.47308 -281.788185 
L 218.678199 -279.499155 
L 218.877213 -277.210126 
L 219.067144 -274.921096 
L 219.245211 -272.632067 
L 219.408929 -270.343037 
L 219.556209 -268.054008 
L 219.685423 -265.764979 
L 219.795458 -263.475949 
L 219.885735 -261.18692 
L 219.956203 -258.89789 
L 220.007309 -256.608861 
L 220.039938 -254.319832 
L 220.055343 -252.030802 
L 220.055051 -249.741773 
L 220.040778 -247.452743 
L 220.014323 -245.163714 
L 219.977493 -242.874684 
L 219.932014 -240.585655 
L 219.879477 -238.296626 
L 219.821283 -236.007596 
L 219.758623 -233.718567 
L 219.692454 -231.429537 
L 219.623511 -229.140508 
L 219.55231 -226.851479 
L 219.479178 -224.562449 
L 219.404282 -222.27342 
L 219.327661 -219.98439 
L 219.24927 -217.695361 
L 219.169009 -215.406331 
L 219.08677 -213.117302 
L 219.002463 -210.828273 
L 218.916053 -208.539243 
L 218.827582 -206.250214 
L 218.737186 -203.961184 
L 218.64511 -201.672155 
L 218.551705 -199.383125 
L 218.457422 -197.094096 
L 218.3628 -194.805067 
L 218.268436 -192.516037 
L 218.174959 -190.227008 
L 218.082998 -187.937978 
L 217.993146 -185.648949 
L 217.905927 -183.35992 
L 217.821768 -181.07089 
L 217.740977 -178.781861 
L 217.663732 -176.492831 
L 217.590071 -174.203802 
L 217.519901 -171.914772 
L 217.453005 -169.625743 
L 217.389064 -167.336714 
L 217.327683 -165.047684 
L 217.268413 -162.758655 
L 217.21078 -160.469625 
L 217.154317 -158.180596 
L 217.098584 -155.891567 
L 217.043193 -153.602537 
L 216.987826 -151.313508 
L 216.932248 -149.024478 
L 216.876316 -146.735449 
L 216.819984 -144.446419 
L 216.763302 -142.15739 
L 216.706413 -139.868361 
L 216.649539 -137.579331 
L 216.592977 -135.290302 
L 216.537077 -133.001272 
L 216.482228 -130.712243 
L 216.428839 -128.423214 
L 216.377318 -126.134184 
L 216.328056 -123.845155 
L 216.281406 -121.556125 
L 216.237672 -119.267096 
L 216.197097 -116.978066 
L 216.159851 -114.689037 
L 216.126033 -112.400008 
L 216.095666 -110.110978 
L 216.068704 -107.821949 
L 216.045037 -105.532919 
L 216.024501 -103.24389 
L 216.006886 -100.954861 
L 215.991954 -98.665831 
z
" id="m990cd90519" style="stroke:#3d3d3d;stroke-width:1.5;"/>
    </defs>
    <g clip-path="url(#pe5fef5739c)">
     <use style="fill:#3274a1;stroke:#3d3d3d;stroke-width:1.5;" x="0" xlink:href="#m990cd90519" y="368.607178"/>
    </g>
   </g>
   <g id="PolyCollection_5">
    <defs>
     <path d="M 260.790365 -122.335858 
L 260.350885 -122.335858 
L 260.291 -123.753109 
L 260.217772 -125.170359 
L 260.129093 -126.58761 
L 260.02275 -128.004861 
L 259.896486 -129.422111 
L 259.748071 -130.839362 
L 259.575397 -132.256612 
L 259.37658 -133.673863 
L 259.150082 -135.091113 
L 258.894838 -136.508364 
L 258.610385 -137.925615 
L 258.296988 -139.342865 
L 257.955756 -140.760116 
L 257.588732 -142.177366 
L 257.198961 -143.594617 
L 256.790511 -145.011868 
L 256.368456 -146.429118 
L 255.938807 -147.846369 
L 255.508386 -149.263619 
L 255.084655 -150.68087 
L 254.675489 -152.09812 
L 254.288915 -153.515371 
L 253.932824 -154.932622 
L 253.614658 -156.349872 
L 253.341113 -157.767123 
L 253.117849 -159.184373 
L 252.949244 -160.601624 
L 252.838199 -162.018874 
L 252.786005 -163.436125 
L 252.792287 -164.853376 
L 252.855024 -166.270626 
L 252.970649 -167.687877 
L 253.134221 -169.105127 
L 253.339659 -170.522378 
L 253.580021 -171.939628 
L 253.847819 -173.356879 
L 254.135335 -174.77413 
L 254.434948 -176.19138 
L 254.739416 -177.608631 
L 255.042132 -179.025881 
L 255.337324 -180.443132 
L 255.620195 -181.860382 
L 255.887002 -183.277633 
L 256.135078 -184.694884 
L 256.362786 -186.112134 
L 256.569439 -187.529385 
L 256.755175 -188.946635 
L 256.920808 -190.363886 
L 257.067666 -191.781137 
L 257.197431 -193.198387 
L 257.311982 -194.615638 
L 257.41326 -196.032888 
L 257.503155 -197.450139 
L 257.58342 -198.867389 
L 257.655611 -200.28464 
L 257.721058 -201.701891 
L 257.780856 -203.119141 
L 257.835879 -204.536392 
L 257.886809 -205.953642 
L 257.934176 -207.370893 
L 257.9784 -208.788143 
L 258.019846 -210.205394 
L 258.05886 -211.622645 
L 258.095811 -213.039895 
L 258.131123 -214.457146 
L 258.165298 -215.874396 
L 258.198923 -217.291647 
L 258.232675 -218.708897 
L 258.267307 -220.126148 
L 258.303635 -221.543399 
L 258.342507 -222.960649 
L 258.384769 -224.3779 
L 258.431229 -225.79515 
L 258.482614 -227.212401 
L 258.539533 -228.629651 
L 258.602436 -230.046902 
L 258.671588 -231.464153 
L 258.747038 -232.881403 
L 258.828612 -234.298654 
L 258.915904 -235.715904 
L 259.00829 -237.133155 
L 259.104945 -238.550406 
L 259.204873 -239.967656 
L 259.306949 -241.384907 
L 259.409961 -242.802157 
L 259.512662 -244.219408 
L 259.613817 -245.636658 
L 259.71225 -247.053909 
L 259.806891 -248.47116 
L 259.896802 -249.88841 
L 259.981213 -251.305661 
L 260.05953 -252.722911 
L 260.131347 -254.140162 
L 260.196443 -255.557412 
L 260.254768 -256.974663 
L 260.306432 -258.391914 
L 260.351677 -259.809164 
L 260.390854 -261.226415 
L 260.424397 -262.643665 
L 260.716853 -262.643665 
L 260.716853 -262.643665 
L 260.750396 -261.226415 
L 260.789573 -259.809164 
L 260.834818 -258.391914 
L 260.886482 -256.974663 
L 260.944807 -255.557412 
L 261.009903 -254.140162 
L 261.08172 -252.722911 
L 261.160037 -251.305661 
L 261.244448 -249.88841 
L 261.334359 -248.47116 
L 261.429 -247.053909 
L 261.527433 -245.636658 
L 261.628588 -244.219408 
L 261.731289 -242.802157 
L 261.834301 -241.384907 
L 261.936377 -239.967656 
L 262.036305 -238.550406 
L 262.13296 -237.133155 
L 262.225346 -235.715904 
L 262.312638 -234.298654 
L 262.394212 -232.881403 
L 262.469662 -231.464153 
L 262.538814 -230.046902 
L 262.601717 -228.629651 
L 262.658636 -227.212401 
L 262.710021 -225.79515 
L 262.756481 -224.3779 
L 262.798743 -222.960649 
L 262.837615 -221.543399 
L 262.873943 -220.126148 
L 262.908575 -218.708897 
L 262.942327 -217.291647 
L 262.975952 -215.874396 
L 263.010127 -214.457146 
L 263.045439 -213.039895 
L 263.08239 -211.622645 
L 263.121404 -210.205394 
L 263.16285 -208.788143 
L 263.207074 -207.370893 
L 263.254441 -205.953642 
L 263.305371 -204.536392 
L 263.360394 -203.119141 
L 263.420192 -201.701891 
L 263.485639 -200.28464 
L 263.55783 -198.867389 
L 263.638095 -197.450139 
L 263.72799 -196.032888 
L 263.829268 -194.615638 
L 263.943819 -193.198387 
L 264.073584 -191.781137 
L 264.220442 -190.363886 
L 264.386075 -188.946635 
L 264.571811 -187.529385 
L 264.778464 -186.112134 
L 265.006172 -184.694884 
L 265.254248 -183.277633 
L 265.521055 -181.860382 
L 265.803926 -180.443132 
L 266.099118 -179.025881 
L 266.401834 -177.608631 
L 266.706302 -176.19138 
L 267.005915 -174.77413 
L 267.293431 -173.356879 
L 267.561229 -171.939628 
L 267.801591 -170.522378 
L 268.007029 -169.105127 
L 268.170601 -167.687877 
L 268.286226 -166.270626 
L 268.348963 -164.853376 
L 268.355245 -163.436125 
L 268.303051 -162.018874 
L 268.192006 -160.601624 
L 268.023401 -159.184373 
L 267.800137 -157.767123 
L 267.526592 -156.349872 
L 267.208426 -154.932622 
L 266.852335 -153.515371 
L 266.465761 -152.09812 
L 266.056595 -150.68087 
L 265.632864 -149.263619 
L 265.202443 -147.846369 
L 264.772794 -146.429118 
L 264.350739 -145.011868 
L 263.942289 -143.594617 
L 263.552518 -142.177366 
L 263.185494 -140.760116 
L 262.844262 -139.342865 
L 262.530865 -137.925615 
L 262.246412 -136.508364 
L 261.991168 -135.091113 
L 261.76467 -133.673863 
L 261.565853 -132.256612 
L 261.393179 -130.839362 
L 261.244764 -129.422111 
L 261.1185 -128.004861 
L 261.012157 -126.58761 
L 260.923478 -125.170359 
L 260.85025 -123.753109 
L 260.790365 -122.335858 
z
" id="mfc87d7836b" style="stroke:#3d3d3d;stroke-width:1.5;"/>
    </defs>
    <g clip-path="url(#pe5fef5739c)">
     <use style="fill:#d1d197;stroke:#3d3d3d;stroke-width:1.5;" x="0" xlink:href="#mfc87d7836b" y="368.607178"/>
    </g>
   </g>
   <g id="PolyCollection_6">
    <defs>
     <path d="M 305.734604 -119.116062 
L 304.686646 -119.116062 
L 304.604342 -119.971495 
L 304.512618 -120.826927 
L 304.411006 -121.68236 
L 304.299113 -122.537793 
L 304.176631 -123.393225 
L 304.043352 -124.248658 
L 303.899182 -125.10409 
L 303.744143 -125.959523 
L 303.578388 -126.814956 
L 303.402192 -127.670388 
L 303.215962 -128.525821 
L 303.020221 -129.381254 
L 302.815606 -130.236686 
L 302.602851 -131.092119 
L 302.38277 -131.947552 
L 302.156237 -132.802984 
L 301.924162 -133.658417 
L 301.687473 -134.51385 
L 301.447085 -135.369282 
L 301.203881 -136.224715 
L 300.958694 -137.080148 
L 300.712285 -137.93558 
L 300.465334 -138.791013 
L 300.218433 -139.646446 
L 299.972082 -140.501878 
L 299.7267 -141.357311 
L 299.482629 -142.212744 
L 299.240161 -143.068176 
L 298.999552 -143.923609 
L 298.761054 -144.779041 
L 298.524942 -145.634474 
L 298.291545 -146.489907 
L 298.061275 -147.345339 
L 297.834655 -148.200772 
L 297.612337 -149.056205 
L 297.395121 -149.911637 
L 297.183961 -150.76707 
L 296.979967 -151.622503 
L 296.784391 -152.477935 
L 296.598612 -153.333368 
L 296.424105 -154.188801 
L 296.262408 -155.044233 
L 296.11508 -155.899666 
L 295.983654 -156.755099 
L 295.86959 -157.610531 
L 295.774226 -158.465964 
L 295.698733 -159.321397 
L 295.644076 -160.176829 
L 295.610977 -161.032262 
L 295.599893 -161.887695 
L 295.610998 -162.743127 
L 295.644182 -163.59856 
L 295.699052 -164.453992 
L 295.774956 -165.309425 
L 295.871001 -166.164858 
L 295.986092 -167.02029 
L 296.11897 -167.875723 
L 296.268259 -168.731156 
L 296.432506 -169.586588 
L 296.610233 -170.442021 
L 296.799974 -171.297454 
L 297.000316 -172.152886 
L 297.209928 -173.008319 
L 297.427585 -173.863752 
L 297.652185 -174.719184 
L 297.882753 -175.574617 
L 298.118442 -176.43005 
L 298.358523 -177.285482 
L 298.602367 -178.140915 
L 298.84943 -178.996348 
L 299.099225 -179.85178 
L 299.351298 -180.707213 
L 299.605203 -181.562646 
L 299.860477 -182.418078 
L 300.116624 -183.273511 
L 300.373092 -184.128943 
L 300.629269 -184.984376 
L 300.884473 -185.839809 
L 301.137954 -186.695241 
L 301.388899 -187.550674 
L 301.636446 -188.406107 
L 301.879693 -189.261539 
L 302.117723 -190.116972 
L 302.349619 -190.972405 
L 302.574491 -191.827837 
L 302.79149 -192.68327 
L 302.999838 -193.538703 
L 303.198836 -194.394135 
L 303.38789 -195.249568 
L 303.566513 -196.105001 
L 303.734342 -196.960433 
L 303.891139 -197.815866 
L 304.036791 -198.671299 
L 304.17131 -199.526731 
L 304.294822 -200.382164 
L 304.407566 -201.237597 
L 304.509875 -202.093029 
L 304.602168 -202.948462 
L 304.684933 -203.803894 
L 305.736317 -203.803894 
L 305.736317 -203.803894 
L 305.819082 -202.948462 
L 305.911375 -202.093029 
L 306.013684 -201.237597 
L 306.126428 -200.382164 
L 306.24994 -199.526731 
L 306.384459 -198.671299 
L 306.530111 -197.815866 
L 306.686908 -196.960433 
L 306.854737 -196.105001 
L 307.03336 -195.249568 
L 307.222414 -194.394135 
L 307.421412 -193.538703 
L 307.62976 -192.68327 
L 307.846759 -191.827837 
L 308.071631 -190.972405 
L 308.303527 -190.116972 
L 308.541557 -189.261539 
L 308.784804 -188.406107 
L 309.032351 -187.550674 
L 309.283296 -186.695241 
L 309.536777 -185.839809 
L 309.791981 -184.984376 
L 310.048158 -184.128943 
L 310.304626 -183.273511 
L 310.560773 -182.418078 
L 310.816047 -181.562646 
L 311.069952 -180.707213 
L 311.322025 -179.85178 
L 311.57182 -178.996348 
L 311.818883 -178.140915 
L 312.062727 -177.285482 
L 312.302808 -176.43005 
L 312.538497 -175.574617 
L 312.769065 -174.719184 
L 312.993665 -173.863752 
L 313.211322 -173.008319 
L 313.420934 -172.152886 
L 313.621276 -171.297454 
L 313.811017 -170.442021 
L 313.988744 -169.586588 
L 314.152991 -168.731156 
L 314.30228 -167.875723 
L 314.435158 -167.02029 
L 314.550249 -166.164858 
L 314.646294 -165.309425 
L 314.722198 -164.453992 
L 314.777068 -163.59856 
L 314.810252 -162.743127 
L 314.821357 -161.887695 
L 314.810273 -161.032262 
L 314.777174 -160.176829 
L 314.722517 -159.321397 
L 314.647024 -158.465964 
L 314.55166 -157.610531 
L 314.437596 -156.755099 
L 314.30617 -155.899666 
L 314.158842 -155.044233 
L 313.997145 -154.188801 
L 313.822638 -153.333368 
L 313.636859 -152.477935 
L 313.441283 -151.622503 
L 313.237289 -150.76707 
L 313.026129 -149.911637 
L 312.808913 -149.056205 
L 312.586595 -148.200772 
L 312.359975 -147.345339 
L 312.129705 -146.489907 
L 311.896308 -145.634474 
L 311.660196 -144.779041 
L 311.421698 -143.923609 
L 311.181089 -143.068176 
L 310.938621 -142.212744 
L 310.69455 -141.357311 
L 310.449168 -140.501878 
L 310.202817 -139.646446 
L 309.955916 -138.791013 
L 309.708965 -137.93558 
L 309.462556 -137.080148 
L 309.217369 -136.224715 
L 308.974165 -135.369282 
L 308.733777 -134.51385 
L 308.497088 -133.658417 
L 308.265013 -132.802984 
L 308.03848 -131.947552 
L 307.818399 -131.092119 
L 307.605644 -130.236686 
L 307.401029 -129.381254 
L 307.205288 -128.525821 
L 307.019058 -127.670388 
L 306.842862 -126.814956 
L 306.677107 -125.959523 
L 306.522068 -125.10409 
L 306.377898 -124.248658 
L 306.244619 -123.393225 
L 306.122137 -122.537793 
L 306.010244 -121.68236 
L 305.908632 -120.826927 
L 305.816908 -119.971495 
L 305.734604 -119.116062 
z
" id="mf0a2b40069" style="stroke:#3d3d3d;stroke-width:1.5;"/>
    </defs>
    <g clip-path="url(#pe5fef5739c)">
     <use style="fill:#9fd495;stroke:#3d3d3d;stroke-width:1.5;" x="0" xlink:href="#mf0a2b40069" y="368.607178"/>
    </g>
   </g>
   <g id="PolyCollection_7">
    <defs>
     <path d="M 350.601992 -133.74751 
L 349.099258 -133.74751 
L 348.955513 -134.274329 
L 348.791016 -134.801147 
L 348.604197 -135.327966 
L 348.393645 -135.854785 
L 348.158174 -136.381604 
L 347.896878 -136.908422 
L 347.6092 -137.435241 
L 347.294989 -137.96206 
L 346.954553 -138.488879 
L 346.588703 -139.015697 
L 346.198787 -139.542516 
L 345.786704 -140.069335 
L 345.35491 -140.596154 
L 344.906393 -141.122973 
L 344.444638 -141.649791 
L 343.973567 -142.17661 
L 343.497458 -142.703429 
L 343.020848 -143.230248 
L 342.54842 -143.757066 
L 342.084875 -144.283885 
L 341.634799 -144.810704 
L 341.202526 -145.337523 
L 340.792002 -145.864342 
L 340.40666 -146.39116 
L 340.049304 -146.917979 
L 339.722018 -147.444798 
L 339.426093 -147.971617 
L 339.161982 -148.498435 
L 338.929289 -149.025254 
L 338.726784 -149.552073 
L 338.552449 -150.078892 
L 338.403561 -150.60571 
L 338.27679 -151.132529 
L 338.168331 -151.659348 
L 338.074047 -152.186167 
L 337.989629 -152.712986 
L 337.910756 -153.239804 
L 337.833261 -153.766623 
L 337.753285 -154.293442 
L 337.66742 -154.820261 
L 337.572834 -155.347079 
L 337.46737 -155.873898 
L 337.349624 -156.400717 
L 337.21899 -156.927536 
L 337.075678 -157.454355 
L 336.920705 -157.981173 
L 336.755852 -158.507992 
L 336.583607 -159.034811 
L 336.407078 -159.56163 
L 336.229892 -160.088448 
L 336.056082 -160.615267 
L 335.889963 -161.142086 
L 335.73601 -161.668905 
L 335.598731 -162.195723 
L 335.482546 -162.722542 
L 335.391675 -163.249361 
L 335.330036 -163.77618 
L 335.301153 -164.302999 
L 335.308086 -164.829817 
L 335.353362 -165.356636 
L 335.438935 -165.883455 
L 335.566152 -166.410274 
L 335.735741 -166.937092 
L 335.9478 -167.463911 
L 336.201813 -167.99073 
L 336.49667 -168.517549 
L 336.830696 -169.044368 
L 337.201693 -169.571186 
L 337.606988 -170.098005 
L 338.043487 -170.624824 
L 338.507733 -171.151643 
L 338.995974 -171.678461 
L 339.504225 -172.20528 
L 340.02834 -172.732099 
L 340.564077 -173.258918 
L 341.107174 -173.785736 
L 341.653406 -174.312555 
L 342.198656 -174.839374 
L 342.738974 -175.366193 
L 343.270628 -175.893012 
L 343.79016 -176.41983 
L 344.294422 -176.946649 
L 344.780613 -177.473468 
L 345.246309 -178.000287 
L 345.689475 -178.527105 
L 346.108482 -179.053924 
L 346.502103 -179.580743 
L 346.869509 -180.107562 
L 347.210252 -180.634381 
L 347.524246 -181.161199 
L 347.81174 -181.688018 
L 348.07328 -182.214837 
L 348.30968 -182.741656 
L 348.521979 -183.268474 
L 348.711398 -183.795293 
L 348.879306 -184.322112 
L 349.027175 -184.848931 
L 349.156543 -185.375749 
L 349.268981 -185.902568 
L 350.432269 -185.902568 
L 350.432269 -185.902568 
L 350.544707 -185.375749 
L 350.674075 -184.848931 
L 350.821944 -184.322112 
L 350.989852 -183.795293 
L 351.179271 -183.268474 
L 351.39157 -182.741656 
L 351.62797 -182.214837 
L 351.88951 -181.688018 
L 352.177004 -181.161199 
L 352.490998 -180.634381 
L 352.831741 -180.107562 
L 353.199147 -179.580743 
L 353.592768 -179.053924 
L 354.011775 -178.527105 
L 354.454941 -178.000287 
L 354.920637 -177.473468 
L 355.406828 -176.946649 
L 355.91109 -176.41983 
L 356.430622 -175.893012 
L 356.962276 -175.366193 
L 357.502594 -174.839374 
L 358.047844 -174.312555 
L 358.594076 -173.785736 
L 359.137173 -173.258918 
L 359.67291 -172.732099 
L 360.197025 -172.20528 
L 360.705276 -171.678461 
L 361.193517 -171.151643 
L 361.657763 -170.624824 
L 362.094262 -170.098005 
L 362.499557 -169.571186 
L 362.870554 -169.044368 
L 363.20458 -168.517549 
L 363.499437 -167.99073 
L 363.75345 -167.463911 
L 363.965509 -166.937092 
L 364.135098 -166.410274 
L 364.262315 -165.883455 
L 364.347888 -165.356636 
L 364.393164 -164.829817 
L 364.400097 -164.302999 
L 364.371214 -163.77618 
L 364.309575 -163.249361 
L 364.218704 -162.722542 
L 364.102519 -162.195723 
L 363.96524 -161.668905 
L 363.811287 -161.142086 
L 363.645168 -160.615267 
L 363.471358 -160.088448 
L 363.294172 -159.56163 
L 363.117643 -159.034811 
L 362.945398 -158.507992 
L 362.780545 -157.981173 
L 362.625572 -157.454355 
L 362.48226 -156.927536 
L 362.351626 -156.400717 
L 362.23388 -155.873898 
L 362.128416 -155.347079 
L 362.03383 -154.820261 
L 361.947965 -154.293442 
L 361.867989 -153.766623 
L 361.790494 -153.239804 
L 361.711621 -152.712986 
L 361.627203 -152.186167 
L 361.532919 -151.659348 
L 361.42446 -151.132529 
L 361.297689 -150.60571 
L 361.148801 -150.078892 
L 360.974466 -149.552073 
L 360.771961 -149.025254 
L 360.539268 -148.498435 
L 360.275157 -147.971617 
L 359.979232 -147.444798 
L 359.651946 -146.917979 
L 359.29459 -146.39116 
L 358.909248 -145.864342 
L 358.498724 -145.337523 
L 358.066451 -144.810704 
L 357.616375 -144.283885 
L 357.15283 -143.757066 
L 356.680402 -143.230248 
L 356.203792 -142.703429 
L 355.727683 -142.17661 
L 355.256612 -141.649791 
L 354.794857 -141.122973 
L 354.34634 -140.596154 
L 353.914546 -140.069335 
L 353.502463 -139.542516 
L 353.112547 -139.015697 
L 352.746697 -138.488879 
L 352.406261 -137.96206 
L 352.09205 -137.435241 
L 351.804372 -136.908422 
L 351.543076 -136.381604 
L 351.307605 -135.854785 
L 351.097053 -135.327966 
L 350.910234 -134.801147 
L 350.745737 -134.274329 
L 350.601992 -133.74751 
z
" id="m644d137192" style="stroke:#3d3d3d;stroke-width:1.5;"/>
    </defs>
    <g clip-path="url(#pe5fef5739c)">
     <use style="fill:#c03d3e;stroke:#3d3d3d;stroke-width:1.5;" x="0" xlink:href="#m644d137192" y="368.607178"/>
    </g>
   </g>
   <g id="PolyCollection_8">
    <defs>
     <path d="M 394.887868 -126.148238 
L 394.093382 -126.148238 
L 394.000094 -126.801741 
L 393.890441 -127.455244 
L 393.762911 -128.108748 
L 393.616144 -128.762251 
L 393.44899 -129.415754 
L 393.260565 -130.069257 
L 393.050295 -130.722761 
L 392.81795 -131.376264 
L 392.563654 -132.029767 
L 392.28787 -132.683271 
L 391.991367 -133.336774 
L 391.675151 -133.990277 
L 391.340379 -134.643781 
L 390.988245 -135.297284 
L 390.619856 -135.950787 
L 390.236102 -136.60429 
L 389.837536 -137.257794 
L 389.424263 -137.911297 
L 388.995868 -138.5648 
L 388.551391 -139.218304 
L 388.089346 -139.871807 
L 387.607813 -140.52531 
L 387.104585 -141.178814 
L 386.577392 -141.832317 
L 386.024165 -142.48582 
L 385.443357 -143.139323 
L 384.834282 -143.792827 
L 384.197457 -144.44633 
L 383.53492 -145.099833 
L 382.850495 -145.753337 
L 382.149976 -146.40684 
L 381.44121 -147.060343 
L 380.734057 -147.713846 
L 380.040217 -148.36735 
L 379.372915 -149.020853 
L 378.746472 -149.674356 
L 378.17575 -150.32786 
L 377.675529 -150.981363 
L 377.259828 -151.634866 
L 376.941222 -152.28837 
L 376.730205 -152.941873 
L 376.634625 -153.595376 
L 376.65924 -154.248879 
L 376.805432 -154.902383 
L 377.071084 -155.555886 
L 377.450645 -156.209389 
L 377.935365 -156.862893 
L 378.513697 -157.516396 
L 379.171825 -158.169899 
L 379.894293 -158.823403 
L 380.664687 -159.476906 
L 381.46632 -160.130409 
L 382.282897 -160.783912 
L 383.099096 -161.437416 
L 383.901055 -162.090919 
L 384.676738 -162.744422 
L 385.416172 -163.397926 
L 386.111547 -164.051429 
L 386.757205 -164.704932 
L 387.349529 -165.358436 
L 387.88675 -166.011939 
L 388.36871 -166.665442 
L 388.796594 -167.318945 
L 389.172667 -167.972449 
L 389.500025 -168.625952 
L 389.782379 -169.279455 
L 390.023871 -169.932959 
L 390.228936 -170.586462 
L 390.402189 -171.239965 
L 390.548346 -171.893468 
L 390.672154 -172.546972 
L 390.778336 -173.200475 
L 390.871525 -173.853978 
L 390.956199 -174.507482 
L 391.0366 -175.160985 
L 391.116646 -175.814488 
L 391.199835 -176.467992 
L 391.289158 -177.121495 
L 391.387006 -177.774998 
L 391.495109 -178.428501 
L 391.614493 -179.082005 
L 391.745464 -179.735508 
L 391.887634 -180.389011 
L 392.039969 -181.042515 
L 392.200877 -181.696018 
L 392.368319 -182.349521 
L 392.539934 -183.003025 
L 392.713175 -183.656528 
L 392.885452 -184.310031 
L 393.054253 -184.963534 
L 393.217262 -185.617038 
L 393.372451 -186.270541 
L 393.518144 -186.924044 
L 393.653058 -187.577548 
L 393.776319 -188.231051 
L 393.887453 -188.884554 
L 393.986357 -189.538058 
L 394.073254 -190.191561 
L 394.148644 -190.845064 
L 394.832606 -190.845064 
L 394.832606 -190.845064 
L 394.907996 -190.191561 
L 394.994893 -189.538058 
L 395.093797 -188.884554 
L 395.204931 -188.231051 
L 395.328192 -187.577548 
L 395.463106 -186.924044 
L 395.608799 -186.270541 
L 395.763988 -185.617038 
L 395.926997 -184.963534 
L 396.095798 -184.310031 
L 396.268075 -183.656528 
L 396.441316 -183.003025 
L 396.612931 -182.349521 
L 396.780373 -181.696018 
L 396.941281 -181.042515 
L 397.093616 -180.389011 
L 397.235786 -179.735508 
L 397.366757 -179.082005 
L 397.486141 -178.428501 
L 397.594244 -177.774998 
L 397.692092 -177.121495 
L 397.781415 -176.467992 
L 397.864604 -175.814488 
L 397.94465 -175.160985 
L 398.025051 -174.507482 
L 398.109725 -173.853978 
L 398.202914 -173.200475 
L 398.309096 -172.546972 
L 398.432904 -171.893468 
L 398.579061 -171.239965 
L 398.752314 -170.586462 
L 398.957379 -169.932959 
L 399.198871 -169.279455 
L 399.481225 -168.625952 
L 399.808583 -167.972449 
L 400.184656 -167.318945 
L 400.61254 -166.665442 
L 401.0945 -166.011939 
L 401.631721 -165.358436 
L 402.224045 -164.704932 
L 402.869703 -164.051429 
L 403.565078 -163.397926 
L 404.304512 -162.744422 
L 405.080195 -162.090919 
L 405.882154 -161.437416 
L 406.698353 -160.783912 
L 407.51493 -160.130409 
L 408.316563 -159.476906 
L 409.086957 -158.823403 
L 409.809425 -158.169899 
L 410.467553 -157.516396 
L 411.045885 -156.862893 
L 411.530605 -156.209389 
L 411.910166 -155.555886 
L 412.175818 -154.902383 
L 412.32201 -154.248879 
L 412.346625 -153.595376 
L 412.251045 -152.941873 
L 412.040028 -152.28837 
L 411.721422 -151.634866 
L 411.305721 -150.981363 
L 410.8055 -150.32786 
L 410.234778 -149.674356 
L 409.608335 -149.020853 
L 408.941033 -148.36735 
L 408.247193 -147.713846 
L 407.54004 -147.060343 
L 406.831274 -146.40684 
L 406.130755 -145.753337 
L 405.44633 -145.099833 
L 404.783793 -144.44633 
L 404.146968 -143.792827 
L 403.537893 -143.139323 
L 402.957085 -142.48582 
L 402.403858 -141.832317 
L 401.876665 -141.178814 
L 401.373437 -140.52531 
L 400.891904 -139.871807 
L 400.429859 -139.218304 
L 399.985382 -138.5648 
L 399.556987 -137.911297 
L 399.143714 -137.257794 
L 398.745148 -136.60429 
L 398.361394 -135.950787 
L 397.993005 -135.297284 
L 397.640871 -134.643781 
L 397.306099 -133.990277 
L 396.989883 -133.336774 
L 396.69338 -132.683271 
L 396.417596 -132.029767 
L 396.1633 -131.376264 
L 395.930955 -130.722761 
L 395.720685 -130.069257 
L 395.53226 -129.415754 
L 395.365106 -128.762251 
L 395.218339 -128.108748 
L 395.090809 -127.455244 
L 394.981156 -126.801741 
L 394.887868 -126.148238 
z
" id="meb810aaeb0" style="stroke:#3d3d3d;stroke-width:1.5;"/>
    </defs>
    <g clip-path="url(#pe5fef5739c)">
     <use style="fill:#3a923a;stroke:#3d3d3d;stroke-width:1.5;" x="0" xlink:href="#meb810aaeb0" y="368.607178"/>
    </g>
   </g>
   <g id="matplotlib.axis_1">
    <g id="xtick_1">
     <g id="line2d_1">
      <defs>
       <path d="M 0 0 
L 0 3.5 
" id="m95d721d613" style="stroke:#000000;stroke-width:0.8;"/>
      </defs>
      <g>
       <use style="stroke:#000000;stroke-width:0.8;" x="82.010625" xlink:href="#m95d721d613" y="288.430125"/>
      </g>
     </g>
     <g id="text_1">
      <!-- mopt -->
      <g transform="translate(58.343161 315.074627)rotate(-30)scale(0.1 -0.1)">
       <defs>
        <path d="M 52 44.1875 
Q 55.375 50.25 60.0625 53.125 
Q 64.75 56 71.09375 56 
Q 79.640625 56 84.28125 50.015625 
Q 88.921875 44.046875 88.921875 33.015625 
L 88.921875 0 
L 79.890625 0 
L 79.890625 32.71875 
Q 79.890625 40.578125 77.09375 44.375 
Q 74.3125 48.1875 68.609375 48.1875 
Q 61.625 48.1875 57.5625 43.546875 
Q 53.515625 38.921875 53.515625 30.90625 
L 53.515625 0 
L 44.484375 0 
L 44.484375 32.71875 
Q 44.484375 40.625 41.703125 44.40625 
Q 38.921875 48.1875 33.109375 48.1875 
Q 26.21875 48.1875 22.15625 43.53125 
Q 18.109375 38.875 18.109375 30.90625 
L 18.109375 0 
L 9.078125 0 
L 9.078125 54.6875 
L 18.109375 54.6875 
L 18.109375 46.1875 
Q 21.1875 51.21875 25.484375 53.609375 
Q 29.78125 56 35.6875 56 
Q 41.65625 56 45.828125 52.96875 
Q 50 49.953125 52 44.1875 
z
" id="DejaVuSans-109"/>
        <path d="M 30.609375 48.390625 
Q 23.390625 48.390625 19.1875 42.75 
Q 14.984375 37.109375 14.984375 27.296875 
Q 14.984375 17.484375 19.15625 11.84375 
Q 23.34375 6.203125 30.609375 6.203125 
Q 37.796875 6.203125 41.984375 11.859375 
Q 46.1875 17.53125 46.1875 27.296875 
Q 46.1875 37.015625 41.984375 42.703125 
Q 37.796875 48.390625 30.609375 48.390625 
z
M 30.609375 56 
Q 42.328125 56 49.015625 48.375 
Q 55.71875 40.765625 55.71875 27.296875 
Q 55.71875 13.875 49.015625 6.21875 
Q 42.328125 -1.421875 30.609375 -1.421875 
Q 18.84375 -1.421875 12.171875 6.21875 
Q 5.515625 13.875 5.515625 27.296875 
Q 5.515625 40.765625 12.171875 48.375 
Q 18.84375 56 30.609375 56 
z
" id="DejaVuSans-111"/>
        <path d="M 18.109375 8.203125 
L 18.109375 -20.796875 
L 9.078125 -20.796875 
L 9.078125 54.6875 
L 18.109375 54.6875 
L 18.109375 46.390625 
Q 20.953125 51.265625 25.265625 53.625 
Q 29.59375 56 35.59375 56 
Q 45.5625 56 51.78125 48.09375 
Q 58.015625 40.1875 58.015625 27.296875 
Q 58.015625 14.40625 51.78125 6.484375 
Q 45.5625 -1.421875 35.59375 -1.421875 
Q 29.59375 -1.421875 25.265625 0.953125 
Q 20.953125 3.328125 18.109375 8.203125 
z
M 48.6875 27.296875 
Q 48.6875 37.203125 44.609375 42.84375 
Q 40.53125 48.484375 33.40625 48.484375 
Q 26.265625 48.484375 22.1875 42.84375 
Q 18.109375 37.203125 18.109375 27.296875 
Q 18.109375 17.390625 22.1875 11.75 
Q 26.265625 6.109375 33.40625 6.109375 
Q 40.53125 6.109375 44.609375 11.75 
Q 48.6875 17.390625 48.6875 27.296875 
z
" id="DejaVuSans-112"/>
        <path d="M 18.3125 70.21875 
L 18.3125 54.6875 
L 36.8125 54.6875 
L 36.8125 47.703125 
L 18.3125 47.703125 
L 18.3125 18.015625 
Q 18.3125 11.328125 20.140625 9.421875 
Q 21.96875 7.515625 27.59375 7.515625 
L 36.8125 7.515625 
L 36.8125 0 
L 27.59375 0 
Q 17.1875 0 13.234375 3.875 
Q 9.28125 7.765625 9.28125 18.015625 
L 9.28125 47.703125 
L 2.6875 47.703125 
L 2.6875 54.6875 
L 9.28125 54.6875 
L 9.28125 70.21875 
z
" id="DejaVuSans-116"/>
       </defs>
       <use xlink:href="#DejaVuSans-109"/>
       <use x="97.412109" xlink:href="#DejaVuSans-111"/>
       <use x="158.59375" xlink:href="#DejaVuSans-112"/>
       <use x="222.070312" xlink:href="#DejaVuSans-116"/>
      </g>
     </g>
    </g>
    <g id="xtick_2">
     <g id="line2d_2">
      <g>
       <use style="stroke:#000000;stroke-width:0.8;" x="126.650625" xlink:href="#m95d721d613" y="288.430125"/>
      </g>
     </g>
     <g id="text_2">
      <!-- fairfuzz -->
      <g transform="translate(93.66121 320.456659)rotate(-30)scale(0.1 -0.1)">
       <defs>
        <path d="M 37.109375 75.984375 
L 37.109375 68.5 
L 28.515625 68.5 
Q 23.6875 68.5 21.796875 66.546875 
Q 19.921875 64.59375 19.921875 59.515625 
L 19.921875 54.6875 
L 34.71875 54.6875 
L 34.71875 47.703125 
L 19.921875 47.703125 
L 19.921875 0 
L 10.890625 0 
L 10.890625 47.703125 
L 2.296875 47.703125 
L 2.296875 54.6875 
L 10.890625 54.6875 
L 10.890625 58.5 
Q 10.890625 67.625 15.140625 71.796875 
Q 19.390625 75.984375 28.609375 75.984375 
z
" id="DejaVuSans-102"/>
        <path d="M 34.28125 27.484375 
Q 23.390625 27.484375 19.1875 25 
Q 14.984375 22.515625 14.984375 16.5 
Q 14.984375 11.71875 18.140625 8.90625 
Q 21.296875 6.109375 26.703125 6.109375 
Q 34.1875 6.109375 38.703125 11.40625 
Q 43.21875 16.703125 43.21875 25.484375 
L 43.21875 27.484375 
z
M 52.203125 31.203125 
L 52.203125 0 
L 43.21875 0 
L 43.21875 8.296875 
Q 40.140625 3.328125 35.546875 0.953125 
Q 30.953125 -1.421875 24.3125 -1.421875 
Q 15.921875 -1.421875 10.953125 3.296875 
Q 6 8.015625 6 15.921875 
Q 6 25.140625 12.171875 29.828125 
Q 18.359375 34.515625 30.609375 34.515625 
L 43.21875 34.515625 
L 43.21875 35.40625 
Q 43.21875 41.609375 39.140625 45 
Q 35.0625 48.390625 27.6875 48.390625 
Q 23 48.390625 18.546875 47.265625 
Q 14.109375 46.140625 10.015625 43.890625 
L 10.015625 52.203125 
Q 14.9375 54.109375 19.578125 55.046875 
Q 24.21875 56 28.609375 56 
Q 40.484375 56 46.34375 49.84375 
Q 52.203125 43.703125 52.203125 31.203125 
z
" id="DejaVuSans-97"/>
        <path d="M 9.421875 54.6875 
L 18.40625 54.6875 
L 18.40625 0 
L 9.421875 0 
z
M 9.421875 75.984375 
L 18.40625 75.984375 
L 18.40625 64.59375 
L 9.421875 64.59375 
z
" id="DejaVuSans-105"/>
        <path d="M 41.109375 46.296875 
Q 39.59375 47.171875 37.8125 47.578125 
Q 36.03125 48 33.890625 48 
Q 26.265625 48 22.1875 43.046875 
Q 18.109375 38.09375 18.109375 28.8125 
L 18.109375 0 
L 9.078125 0 
L 9.078125 54.6875 
L 18.109375 54.6875 
L 18.109375 46.1875 
Q 20.953125 51.171875 25.484375 53.578125 
Q 30.03125 56 36.53125 56 
Q 37.453125 56 38.578125 55.875 
Q 39.703125 55.765625 41.0625 55.515625 
z
" id="DejaVuSans-114"/>
        <path d="M 8.5 21.578125 
L 8.5 54.6875 
L 17.484375 54.6875 
L 17.484375 21.921875 
Q 17.484375 14.15625 20.5 10.265625 
Q 23.53125 6.390625 29.59375 6.390625 
Q 36.859375 6.390625 41.078125 11.03125 
Q 45.3125 15.671875 45.3125 23.6875 
L 45.3125 54.6875 
L 54.296875 54.6875 
L 54.296875 0 
L 45.3125 0 
L 45.3125 8.40625 
Q 42.046875 3.421875 37.71875 1 
Q 33.40625 -1.421875 27.6875 -1.421875 
Q 18.265625 -1.421875 13.375 4.4375 
Q 8.5 10.296875 8.5 21.578125 
z
M 31.109375 56 
z
" id="DejaVuSans-117"/>
        <path d="M 5.515625 54.6875 
L 48.1875 54.6875 
L 48.1875 46.484375 
L 14.40625 7.171875 
L 48.1875 7.171875 
L 48.1875 0 
L 4.296875 0 
L 4.296875 8.203125 
L 38.09375 47.515625 
L 5.515625 47.515625 
z
" id="DejaVuSans-122"/>
       </defs>
       <use xlink:href="#DejaVuSans-102"/>
       <use x="35.205078" xlink:href="#DejaVuSans-97"/>
       <use x="96.484375" xlink:href="#DejaVuSans-105"/>
       <use x="124.267578" xlink:href="#DejaVuSans-114"/>
       <use x="165.380859" xlink:href="#DejaVuSans-102"/>
       <use x="200.585938" xlink:href="#DejaVuSans-117"/>
       <use x="263.964844" xlink:href="#DejaVuSans-122"/>
       <use x="316.455078" xlink:href="#DejaVuSans-122"/>
      </g>
     </g>
    </g>
    <g id="xtick_3">
     <g id="line2d_3">
      <g>
       <use style="stroke:#000000;stroke-width:0.8;" x="171.290625" xlink:href="#m95d721d613" y="288.430125"/>
      </g>
     </g>
     <g id="text_3">
      <!-- honggfuzz -->
      <g transform="translate(125.351424 327.933221)rotate(-30)scale(0.1 -0.1)">
       <defs>
        <path d="M 54.890625 33.015625 
L 54.890625 0 
L 45.90625 0 
L 45.90625 32.71875 
Q 45.90625 40.484375 42.875 44.328125 
Q 39.84375 48.1875 33.796875 48.1875 
Q 26.515625 48.1875 22.3125 43.546875 
Q 18.109375 38.921875 18.109375 30.90625 
L 18.109375 0 
L 9.078125 0 
L 9.078125 75.984375 
L 18.109375 75.984375 
L 18.109375 46.1875 
Q 21.34375 51.125 25.703125 53.5625 
Q 30.078125 56 35.796875 56 
Q 45.21875 56 50.046875 50.171875 
Q 54.890625 44.34375 54.890625 33.015625 
z
" id="DejaVuSans-104"/>
        <path d="M 54.890625 33.015625 
L 54.890625 0 
L 45.90625 0 
L 45.90625 32.71875 
Q 45.90625 40.484375 42.875 44.328125 
Q 39.84375 48.1875 33.796875 48.1875 
Q 26.515625 48.1875 22.3125 43.546875 
Q 18.109375 38.921875 18.109375 30.90625 
L 18.109375 0 
L 9.078125 0 
L 9.078125 54.6875 
L 18.109375 54.6875 
L 18.109375 46.1875 
Q 21.34375 51.125 25.703125 53.5625 
Q 30.078125 56 35.796875 56 
Q 45.21875 56 50.046875 50.171875 
Q 54.890625 44.34375 54.890625 33.015625 
z
" id="DejaVuSans-110"/>
        <path d="M 45.40625 27.984375 
Q 45.40625 37.75 41.375 43.109375 
Q 37.359375 48.484375 30.078125 48.484375 
Q 22.859375 48.484375 18.828125 43.109375 
Q 14.796875 37.75 14.796875 27.984375 
Q 14.796875 18.265625 18.828125 12.890625 
Q 22.859375 7.515625 30.078125 7.515625 
Q 37.359375 7.515625 41.375 12.890625 
Q 45.40625 18.265625 45.40625 27.984375 
z
M 54.390625 6.78125 
Q 54.390625 -7.171875 48.1875 -13.984375 
Q 42 -20.796875 29.203125 -20.796875 
Q 24.46875 -20.796875 20.265625 -20.09375 
Q 16.0625 -19.390625 12.109375 -17.921875 
L 12.109375 -9.1875 
Q 16.0625 -11.328125 19.921875 -12.34375 
Q 23.78125 -13.375 27.78125 -13.375 
Q 36.625 -13.375 41.015625 -8.765625 
Q 45.40625 -4.15625 45.40625 5.171875 
L 45.40625 9.625 
Q 42.625 4.78125 38.28125 2.390625 
Q 33.9375 0 27.875 0 
Q 17.828125 0 11.671875 7.65625 
Q 5.515625 15.328125 5.515625 27.984375 
Q 5.515625 40.671875 11.671875 48.328125 
Q 17.828125 56 27.875 56 
Q 33.9375 56 38.28125 53.609375 
Q 42.625 51.21875 45.40625 46.390625 
L 45.40625 54.6875 
L 54.390625 54.6875 
z
" id="DejaVuSans-103"/>
       </defs>
       <use xlink:href="#DejaVuSans-104"/>
       <use x="63.378906" xlink:href="#DejaVuSans-111"/>
       <use x="124.560547" xlink:href="#DejaVuSans-110"/>
       <use x="187.939453" xlink:href="#DejaVuSans-103"/>
       <use x="251.416016" xlink:href="#DejaVuSans-103"/>
       <use x="314.892578" xlink:href="#DejaVuSans-102"/>
       <use x="350.097656" xlink:href="#DejaVuSans-117"/>
       <use x="413.476562" xlink:href="#DejaVuSans-122"/>
       <use x="465.966797" xlink:href="#DejaVuSans-122"/>
      </g>
     </g>
    </g>
    <g id="xtick_4">
     <g id="line2d_4">
      <g>
       <use style="stroke:#000000;stroke-width:0.8;" x="215.930625" xlink:href="#m95d721d613" y="288.430125"/>
      </g>
     </g>
     <g id="text_4">
      <!-- aflplusplus -->
      <g transform="translate(168.321618 328.897284)rotate(-30)scale(0.1 -0.1)">
       <defs>
        <path d="M 9.421875 75.984375 
L 18.40625 75.984375 
L 18.40625 0 
L 9.421875 0 
z
" id="DejaVuSans-108"/>
        <path d="M 44.28125 53.078125 
L 44.28125 44.578125 
Q 40.484375 46.53125 36.375 47.5 
Q 32.28125 48.484375 27.875 48.484375 
Q 21.1875 48.484375 17.84375 46.4375 
Q 14.5 44.390625 14.5 40.28125 
Q 14.5 37.15625 16.890625 35.375 
Q 19.28125 33.59375 26.515625 31.984375 
L 29.59375 31.296875 
Q 39.15625 29.25 43.1875 25.515625 
Q 47.21875 21.78125 47.21875 15.09375 
Q 47.21875 7.46875 41.1875 3.015625 
Q 35.15625 -1.421875 24.609375 -1.421875 
Q 20.21875 -1.421875 15.453125 -0.5625 
Q 10.6875 0.296875 5.421875 2 
L 5.421875 11.28125 
Q 10.40625 8.6875 15.234375 7.390625 
Q 20.0625 6.109375 24.8125 6.109375 
Q 31.15625 6.109375 34.5625 8.28125 
Q 37.984375 10.453125 37.984375 14.40625 
Q 37.984375 18.0625 35.515625 20.015625 
Q 33.0625 21.96875 24.703125 23.78125 
L 21.578125 24.515625 
Q 13.234375 26.265625 9.515625 29.90625 
Q 5.8125 33.546875 5.8125 39.890625 
Q 5.8125 47.609375 11.28125 51.796875 
Q 16.75 56 26.8125 56 
Q 31.78125 56 36.171875 55.265625 
Q 40.578125 54.546875 44.28125 53.078125 
z
" id="DejaVuSans-115"/>
       </defs>
       <use xlink:href="#DejaVuSans-97"/>
       <use x="61.279297" xlink:href="#DejaVuSans-102"/>
       <use x="96.484375" xlink:href="#DejaVuSans-108"/>
       <use x="124.267578" xlink:href="#DejaVuSans-112"/>
       <use x="187.744141" xlink:href="#DejaVuSans-108"/>
       <use x="215.527344" xlink:href="#DejaVuSans-117"/>
       <use x="278.90625" xlink:href="#DejaVuSans-115"/>
       <use x="331.005859" xlink:href="#DejaVuSans-112"/>
       <use x="394.482422" xlink:href="#DejaVuSans-108"/>
       <use x="422.265625" xlink:href="#DejaVuSans-117"/>
       <use x="485.644531" xlink:href="#DejaVuSans-115"/>
      </g>
     </g>
    </g>
    <g id="xtick_5">
     <g id="line2d_5">
      <g>
       <use style="stroke:#000000;stroke-width:0.8;" x="260.570625" xlink:href="#m95d721d613" y="288.430125"/>
      </g>
     </g>
     <g id="text_5">
      <!-- lafintel -->
      <g transform="translate(229.74492 319.20744)rotate(-30)scale(0.1 -0.1)">
       <defs>
        <path d="M 56.203125 29.59375 
L 56.203125 25.203125 
L 14.890625 25.203125 
Q 15.484375 15.921875 20.484375 11.0625 
Q 25.484375 6.203125 34.421875 6.203125 
Q 39.59375 6.203125 44.453125 7.46875 
Q 49.3125 8.734375 54.109375 11.28125 
L 54.109375 2.78125 
Q 49.265625 0.734375 44.1875 -0.34375 
Q 39.109375 -1.421875 33.890625 -1.421875 
Q 20.796875 -1.421875 13.15625 6.1875 
Q 5.515625 13.8125 5.515625 26.8125 
Q 5.515625 40.234375 12.765625 48.109375 
Q 20.015625 56 32.328125 56 
Q 43.359375 56 49.78125 48.890625 
Q 56.203125 41.796875 56.203125 29.59375 
z
M 47.21875 32.234375 
Q 47.125 39.59375 43.09375 43.984375 
Q 39.0625 48.390625 32.421875 48.390625 
Q 24.90625 48.390625 20.390625 44.140625 
Q 15.875 39.890625 15.1875 32.171875 
z
" id="DejaVuSans-101"/>
       </defs>
       <use xlink:href="#DejaVuSans-108"/>
       <use x="27.783203" xlink:href="#DejaVuSans-97"/>
       <use x="89.0625" xlink:href="#DejaVuSans-102"/>
       <use x="124.267578" xlink:href="#DejaVuSans-105"/>
       <use x="152.050781" xlink:href="#DejaVuSans-110"/>
       <use x="215.429688" xlink:href="#DejaVuSans-116"/>
       <use x="254.638672" xlink:href="#DejaVuSans-101"/>
       <use x="316.162109" xlink:href="#DejaVuSans-108"/>
      </g>
     </g>
    </g>
    <g id="xtick_6">
     <g id="line2d_6">
      <g>
       <use style="stroke:#000000;stroke-width:0.8;" x="305.210625" xlink:href="#m95d721d613" y="288.430125"/>
      </g>
     </g>
     <g id="text_6">
      <!-- aflplusplus_flat -->
      <g transform="translate(238.97562 339.570721)rotate(-30)scale(0.1 -0.1)">
       <defs>
        <path d="M 50.984375 -16.609375 
L 50.984375 -23.578125 
L -0.984375 -23.578125 
L -0.984375 -16.609375 
z
" id="DejaVuSans-95"/>
       </defs>
       <use xlink:href="#DejaVuSans-97"/>
       <use x="61.279297" xlink:href="#DejaVuSans-102"/>
       <use x="96.484375" xlink:href="#DejaVuSans-108"/>
       <use x="124.267578" xlink:href="#DejaVuSans-112"/>
       <use x="187.744141" xlink:href="#DejaVuSans-108"/>
       <use x="215.527344" xlink:href="#DejaVuSans-117"/>
       <use x="278.90625" xlink:href="#DejaVuSans-115"/>
       <use x="331.005859" xlink:href="#DejaVuSans-112"/>
       <use x="394.482422" xlink:href="#DejaVuSans-108"/>
       <use x="422.265625" xlink:href="#DejaVuSans-117"/>
       <use x="485.644531" xlink:href="#DejaVuSans-115"/>
       <use x="537.744141" xlink:href="#DejaVuSans-95"/>
       <use x="587.744141" xlink:href="#DejaVuSans-102"/>
       <use x="622.949219" xlink:href="#DejaVuSans-108"/>
       <use x="650.732422" xlink:href="#DejaVuSans-97"/>
       <use x="712.011719" xlink:href="#DejaVuSans-116"/>
      </g>
     </g>
    </g>
    <g id="xtick_7">
     <g id="line2d_7">
      <g>
       <use style="stroke:#000000;stroke-width:0.8;" x="349.850625" xlink:href="#m95d721d613" y="288.430125"/>
      </g>
     </g>
     <g id="text_7">
      <!-- aflplusplus_qemu -->
      <g transform="translate(273.021693 345.687127)rotate(-30)scale(0.1 -0.1)">
       <defs>
        <path d="M 14.796875 27.296875 
Q 14.796875 17.390625 18.875 11.75 
Q 22.953125 6.109375 30.078125 6.109375 
Q 37.203125 6.109375 41.296875 11.75 
Q 45.40625 17.390625 45.40625 27.296875 
Q 45.40625 37.203125 41.296875 42.84375 
Q 37.203125 48.484375 30.078125 48.484375 
Q 22.953125 48.484375 18.875 42.84375 
Q 14.796875 37.203125 14.796875 27.296875 
z
M 45.40625 8.203125 
Q 42.578125 3.328125 38.25 0.953125 
Q 33.9375 -1.421875 27.875 -1.421875 
Q 17.96875 -1.421875 11.734375 6.484375 
Q 5.515625 14.40625 5.515625 27.296875 
Q 5.515625 40.1875 11.734375 48.09375 
Q 17.96875 56 27.875 56 
Q 33.9375 56 38.25 53.625 
Q 42.578125 51.265625 45.40625 46.390625 
L 45.40625 54.6875 
L 54.390625 54.6875 
L 54.390625 -20.796875 
L 45.40625 -20.796875 
z
" id="DejaVuSans-113"/>
       </defs>
       <use xlink:href="#DejaVuSans-97"/>
       <use x="61.279297" xlink:href="#DejaVuSans-102"/>
       <use x="96.484375" xlink:href="#DejaVuSans-108"/>
       <use x="124.267578" xlink:href="#DejaVuSans-112"/>
       <use x="187.744141" xlink:href="#DejaVuSans-108"/>
       <use x="215.527344" xlink:href="#DejaVuSans-117"/>
       <use x="278.90625" xlink:href="#DejaVuSans-115"/>
       <use x="331.005859" xlink:href="#DejaVuSans-112"/>
       <use x="394.482422" xlink:href="#DejaVuSans-108"/>
       <use x="422.265625" xlink:href="#DejaVuSans-117"/>
       <use x="485.644531" xlink:href="#DejaVuSans-115"/>
       <use x="537.744141" xlink:href="#DejaVuSans-95"/>
       <use x="587.744141" xlink:href="#DejaVuSans-113"/>
       <use x="651.220703" xlink:href="#DejaVuSans-101"/>
       <use x="712.744141" xlink:href="#DejaVuSans-109"/>
       <use x="810.15625" xlink:href="#DejaVuSans-117"/>
      </g>
     </g>
    </g>
    <g id="xtick_8">
     <g id="line2d_8">
      <g>
       <use style="stroke:#000000;stroke-width:0.8;" x="394.490625" xlink:href="#m95d721d613" y="288.430125"/>
      </g>
     </g>
     <g id="text_8">
      <!-- libfuzzer -->
      <g transform="translate(356.624404 323.272284)rotate(-30)scale(0.1 -0.1)">
       <defs>
        <path d="M 48.6875 27.296875 
Q 48.6875 37.203125 44.609375 42.84375 
Q 40.53125 48.484375 33.40625 48.484375 
Q 26.265625 48.484375 22.1875 42.84375 
Q 18.109375 37.203125 18.109375 27.296875 
Q 18.109375 17.390625 22.1875 11.75 
Q 26.265625 6.109375 33.40625 6.109375 
Q 40.53125 6.109375 44.609375 11.75 
Q 48.6875 17.390625 48.6875 27.296875 
z
M 18.109375 46.390625 
Q 20.953125 51.265625 25.265625 53.625 
Q 29.59375 56 35.59375 56 
Q 45.5625 56 51.78125 48.09375 
Q 58.015625 40.1875 58.015625 27.296875 
Q 58.015625 14.40625 51.78125 6.484375 
Q 45.5625 -1.421875 35.59375 -1.421875 
Q 29.59375 -1.421875 25.265625 0.953125 
Q 20.953125 3.328125 18.109375 8.203125 
L 18.109375 0 
L 9.078125 0 
L 9.078125 75.984375 
L 18.109375 75.984375 
z
" id="DejaVuSans-98"/>
       </defs>
       <use xlink:href="#DejaVuSans-108"/>
       <use x="27.783203" xlink:href="#DejaVuSans-105"/>
       <use x="55.566406" xlink:href="#DejaVuSans-98"/>
       <use x="119.042969" xlink:href="#DejaVuSans-102"/>
       <use x="154.248047" xlink:href="#DejaVuSans-117"/>
       <use x="217.626953" xlink:href="#DejaVuSans-122"/>
       <use x="270.117188" xlink:href="#DejaVuSans-122"/>
       <use x="322.607422" xlink:href="#DejaVuSans-101"/>
       <use x="384.130859" xlink:href="#DejaVuSans-114"/>
      </g>
     </g>
    </g>
    <g id="text_9">
     <!-- Fuzzer (highest median coverage on the left) -->
     <g transform="translate(125.632656 359.32749)scale(0.1 -0.1)">
      <defs>
       <path d="M 9.8125 72.90625 
L 51.703125 72.90625 
L 51.703125 64.59375 
L 19.671875 64.59375 
L 19.671875 43.109375 
L 48.578125 43.109375 
L 48.578125 34.8125 
L 19.671875 34.8125 
L 19.671875 0 
L 9.8125 0 
z
" id="DejaVuSans-70"/>
       <path id="DejaVuSans-32"/>
       <path d="M 31 75.875 
Q 24.46875 64.65625 21.28125 53.65625 
Q 18.109375 42.671875 18.109375 31.390625 
Q 18.109375 20.125 21.3125 9.0625 
Q 24.515625 -2 31 -13.1875 
L 23.1875 -13.1875 
Q 15.875 -1.703125 12.234375 9.375 
Q 8.59375 20.453125 8.59375 31.390625 
Q 8.59375 42.28125 12.203125 53.3125 
Q 15.828125 64.359375 23.1875 75.875 
z
" id="DejaVuSans-40"/>
       <path d="M 45.40625 46.390625 
L 45.40625 75.984375 
L 54.390625 75.984375 
L 54.390625 0 
L 45.40625 0 
L 45.40625 8.203125 
Q 42.578125 3.328125 38.25 0.953125 
Q 33.9375 -1.421875 27.875 -1.421875 
Q 17.96875 -1.421875 11.734375 6.484375 
Q 5.515625 14.40625 5.515625 27.296875 
Q 5.515625 40.1875 11.734375 48.09375 
Q 17.96875 56 27.875 56 
Q 33.9375 56 38.25 53.625 
Q 42.578125 51.265625 45.40625 46.390625 
z
M 14.796875 27.296875 
Q 14.796875 17.390625 18.875 11.75 
Q 22.953125 6.109375 30.078125 6.109375 
Q 37.203125 6.109375 41.296875 11.75 
Q 45.40625 17.390625 45.40625 27.296875 
Q 45.40625 37.203125 41.296875 42.84375 
Q 37.203125 48.484375 30.078125 48.484375 
Q 22.953125 48.484375 18.875 42.84375 
Q 14.796875 37.203125 14.796875 27.296875 
z
" id="DejaVuSans-100"/>
       <path d="M 48.78125 52.59375 
L 48.78125 44.1875 
Q 44.96875 46.296875 41.140625 47.34375 
Q 37.3125 48.390625 33.40625 48.390625 
Q 24.65625 48.390625 19.8125 42.84375 
Q 14.984375 37.3125 14.984375 27.296875 
Q 14.984375 17.28125 19.8125 11.734375 
Q 24.65625 6.203125 33.40625 6.203125 
Q 37.3125 6.203125 41.140625 7.25 
Q 44.96875 8.296875 48.78125 10.40625 
L 48.78125 2.09375 
Q 45.015625 0.34375 40.984375 -0.53125 
Q 36.96875 -1.421875 32.421875 -1.421875 
Q 20.0625 -1.421875 12.78125 6.34375 
Q 5.515625 14.109375 5.515625 27.296875 
Q 5.515625 40.671875 12.859375 48.328125 
Q 20.21875 56 33.015625 56 
Q 37.15625 56 41.109375 55.140625 
Q 45.0625 54.296875 48.78125 52.59375 
z
" id="DejaVuSans-99"/>
       <path d="M 2.984375 54.6875 
L 12.5 54.6875 
L 29.59375 8.796875 
L 46.6875 54.6875 
L 56.203125 54.6875 
L 35.6875 0 
L 23.484375 0 
z
" id="DejaVuSans-118"/>
       <path d="M 8.015625 75.875 
L 15.828125 75.875 
Q 23.140625 64.359375 26.78125 53.3125 
Q 30.421875 42.28125 30.421875 31.390625 
Q 30.421875 20.453125 26.78125 9.375 
Q 23.140625 -1.703125 15.828125 -13.1875 
L 8.015625 -13.1875 
Q 14.5 -2 17.703125 9.0625 
Q 20.90625 20.125 20.90625 31.390625 
Q 20.90625 42.671875 17.703125 53.65625 
Q 14.5 64.65625 8.015625 75.875 
z
" id="DejaVuSans-41"/>
      </defs>
      <use xlink:href="#DejaVuSans-70"/>
      <use x="52.019531" xlink:href="#DejaVuSans-117"/>
      <use x="115.398438" xlink:href="#DejaVuSans-122"/>
      <use x="167.888672" xlink:href="#DejaVuSans-122"/>
      <use x="220.378906" xlink:href="#DejaVuSans-101"/>
      <use x="281.902344" xlink:href="#DejaVuSans-114"/>
      <use x="323.015625" xlink:href="#DejaVuSans-32"/>
      <use x="354.802734" xlink:href="#DejaVuSans-40"/>
      <use x="393.816406" xlink:href="#DejaVuSans-104"/>
      <use x="457.195312" xlink:href="#DejaVuSans-105"/>
      <use x="484.978516" xlink:href="#DejaVuSans-103"/>
      <use x="548.455078" xlink:href="#DejaVuSans-104"/>
      <use x="611.833984" xlink:href="#DejaVuSans-101"/>
      <use x="673.357422" xlink:href="#DejaVuSans-115"/>
      <use x="725.457031" xlink:href="#DejaVuSans-116"/>
      <use x="764.666016" xlink:href="#DejaVuSans-32"/>
      <use x="796.453125" xlink:href="#DejaVuSans-109"/>
      <use x="893.865234" xlink:href="#DejaVuSans-101"/>
      <use x="955.388672" xlink:href="#DejaVuSans-100"/>
      <use x="1018.865234" xlink:href="#DejaVuSans-105"/>
      <use x="1046.648438" xlink:href="#DejaVuSans-97"/>
      <use x="1107.927734" xlink:href="#DejaVuSans-110"/>
      <use x="1171.306641" xlink:href="#DejaVuSans-32"/>
      <use x="1203.09375" xlink:href="#DejaVuSans-99"/>
      <use x="1258.074219" xlink:href="#DejaVuSans-111"/>
      <use x="1319.255859" xlink:href="#DejaVuSans-118"/>
      <use x="1378.435547" xlink:href="#DejaVuSans-101"/>
      <use x="1439.958984" xlink:href="#DejaVuSans-114"/>
      <use x="1481.072266" xlink:href="#DejaVuSans-97"/>
      <use x="1542.351562" xlink:href="#DejaVuSans-103"/>
      <use x="1605.828125" xlink:href="#DejaVuSans-101"/>
      <use x="1667.351562" xlink:href="#DejaVuSans-32"/>
      <use x="1699.138672" xlink:href="#DejaVuSans-111"/>
      <use x="1760.320312" xlink:href="#DejaVuSans-110"/>
      <use x="1823.699219" xlink:href="#DejaVuSans-32"/>
      <use x="1855.486328" xlink:href="#DejaVuSans-116"/>
      <use x="1894.695312" xlink:href="#DejaVuSans-104"/>
      <use x="1958.074219" xlink:href="#DejaVuSans-101"/>
      <use x="2019.597656" xlink:href="#DejaVuSans-32"/>
      <use x="2051.384766" xlink:href="#DejaVuSans-108"/>
      <use x="2079.167969" xlink:href="#DejaVuSans-101"/>
      <use x="2140.691406" xlink:href="#DejaVuSans-102"/>
      <use x="2174.146484" xlink:href="#DejaVuSans-116"/>
      <use x="2213.355469" xlink:href="#DejaVuSans-41"/>
     </g>
    </g>
   </g>
   <g id="matplotlib.axis_2">
    <g id="ytick_1">
     <g id="line2d_9">
      <defs>
       <path d="M 0 0 
L -3.5 0 
" id="mb317187f3e" style="stroke:#000000;stroke-width:0.8;"/>
      </defs>
      <g>
       <use style="stroke:#000000;stroke-width:0.8;" x="59.690625" xlink:href="#mb317187f3e" y="263.314174"/>
      </g>
     </g>
     <g id="text_10">
      <!-- 6500 -->
      <g transform="translate(27.240625 267.113392)scale(0.1 -0.1)">
       <defs>
        <path d="M 33.015625 40.375 
Q 26.375 40.375 22.484375 35.828125 
Q 18.609375 31.296875 18.609375 23.390625 
Q 18.609375 15.53125 22.484375 10.953125 
Q 26.375 6.390625 33.015625 6.390625 
Q 39.65625 6.390625 43.53125 10.953125 
Q 47.40625 15.53125 47.40625 23.390625 
Q 47.40625 31.296875 43.53125 35.828125 
Q 39.65625 40.375 33.015625 40.375 
z
M 52.59375 71.296875 
L 52.59375 62.3125 
Q 48.875 64.0625 45.09375 64.984375 
Q 41.3125 65.921875 37.59375 65.921875 
Q 27.828125 65.921875 22.671875 59.328125 
Q 17.53125 52.734375 16.796875 39.40625 
Q 19.671875 43.65625 24.015625 45.921875 
Q 28.375 48.1875 33.59375 48.1875 
Q 44.578125 48.1875 50.953125 41.515625 
Q 57.328125 34.859375 57.328125 23.390625 
Q 57.328125 12.15625 50.6875 5.359375 
Q 44.046875 -1.421875 33.015625 -1.421875 
Q 20.359375 -1.421875 13.671875 8.265625 
Q 6.984375 17.96875 6.984375 36.375 
Q 6.984375 53.65625 15.1875 63.9375 
Q 23.390625 74.21875 37.203125 74.21875 
Q 40.921875 74.21875 44.703125 73.484375 
Q 48.484375 72.75 52.59375 71.296875 
z
" id="DejaVuSans-54"/>
        <path d="M 10.796875 72.90625 
L 49.515625 72.90625 
L 49.515625 64.59375 
L 19.828125 64.59375 
L 19.828125 46.734375 
Q 21.96875 47.46875 24.109375 47.828125 
Q 26.265625 48.1875 28.421875 48.1875 
Q 40.625 48.1875 47.75 41.5 
Q 54.890625 34.8125 54.890625 23.390625 
Q 54.890625 11.625 47.5625 5.09375 
Q 40.234375 -1.421875 26.90625 -1.421875 
Q 22.3125 -1.421875 17.546875 -0.640625 
Q 12.796875 0.140625 7.71875 1.703125 
L 7.71875 11.625 
Q 12.109375 9.234375 16.796875 8.0625 
Q 21.484375 6.890625 26.703125 6.890625 
Q 35.15625 6.890625 40.078125 11.328125 
Q 45.015625 15.765625 45.015625 23.390625 
Q 45.015625 31 40.078125 35.4375 
Q 35.15625 39.890625 26.703125 39.890625 
Q 22.75 39.890625 18.8125 39.015625 
Q 14.890625 38.140625 10.796875 36.28125 
z
" id="DejaVuSans-53"/>
        <path d="M 31.78125 66.40625 
Q 24.171875 66.40625 20.328125 58.90625 
Q 16.5 51.421875 16.5 36.375 
Q 16.5 21.390625 20.328125 13.890625 
Q 24.171875 6.390625 31.78125 6.390625 
Q 39.453125 6.390625 43.28125 13.890625 
Q 47.125 21.390625 47.125 36.375 
Q 47.125 51.421875 43.28125 58.90625 
Q 39.453125 66.40625 31.78125 66.40625 
z
M 31.78125 74.21875 
Q 44.046875 74.21875 50.515625 64.515625 
Q 56.984375 54.828125 56.984375 36.375 
Q 56.984375 17.96875 50.515625 8.265625 
Q 44.046875 -1.421875 31.78125 -1.421875 
Q 19.53125 -1.421875 13.0625 8.265625 
Q 6.59375 17.96875 6.59375 36.375 
Q 6.59375 54.828125 13.0625 64.515625 
Q 19.53125 74.21875 31.78125 74.21875 
z
" id="DejaVuSans-48"/>
       </defs>
       <use xlink:href="#DejaVuSans-54"/>
       <use x="63.623047" xlink:href="#DejaVuSans-53"/>
       <use x="127.246094" xlink:href="#DejaVuSans-48"/>
       <use x="190.869141" xlink:href="#DejaVuSans-48"/>
      </g>
     </g>
    </g>
    <g id="ytick_2">
     <g id="line2d_10">
      <g>
       <use style="stroke:#000000;stroke-width:0.8;" x="59.690625" xlink:href="#mb317187f3e" y="229.25294"/>
      </g>
     </g>
     <g id="text_11">
      <!-- 7000 -->
      <g transform="translate(27.240625 233.052159)scale(0.1 -0.1)">
       <defs>
        <path d="M 8.203125 72.90625 
L 55.078125 72.90625 
L 55.078125 68.703125 
L 28.609375 0 
L 18.3125 0 
L 43.21875 64.59375 
L 8.203125 64.59375 
z
" id="DejaVuSans-55"/>
       </defs>
       <use xlink:href="#DejaVuSans-55"/>
       <use x="63.623047" xlink:href="#DejaVuSans-48"/>
       <use x="127.246094" xlink:href="#DejaVuSans-48"/>
       <use x="190.869141" xlink:href="#DejaVuSans-48"/>
      </g>
     </g>
    </g>
    <g id="ytick_3">
     <g id="line2d_11">
      <g>
       <use style="stroke:#000000;stroke-width:0.8;" x="59.690625" xlink:href="#mb317187f3e" y="195.191707"/>
      </g>
     </g>
     <g id="text_12">
      <!-- 7500 -->
      <g transform="translate(27.240625 198.990926)scale(0.1 -0.1)">
       <use xlink:href="#DejaVuSans-55"/>
       <use x="63.623047" xlink:href="#DejaVuSans-53"/>
       <use x="127.246094" xlink:href="#DejaVuSans-48"/>
       <use x="190.869141" xlink:href="#DejaVuSans-48"/>
      </g>
     </g>
    </g>
    <g id="ytick_4">
     <g id="line2d_12">
      <g>
       <use style="stroke:#000000;stroke-width:0.8;" x="59.690625" xlink:href="#mb317187f3e" y="161.130473"/>
      </g>
     </g>
     <g id="text_13">
      <!-- 8000 -->
      <g transform="translate(27.240625 164.929692)scale(0.1 -0.1)">
       <defs>
        <path d="M 31.78125 34.625 
Q 24.75 34.625 20.71875 30.859375 
Q 16.703125 27.09375 16.703125 20.515625 
Q 16.703125 13.921875 20.71875 10.15625 
Q 24.75 6.390625 31.78125 6.390625 
Q 38.8125 6.390625 42.859375 10.171875 
Q 46.921875 13.96875 46.921875 20.515625 
Q 46.921875 27.09375 42.890625 30.859375 
Q 38.875 34.625 31.78125 34.625 
z
M 21.921875 38.8125 
Q 15.578125 40.375 12.03125 44.71875 
Q 8.5 49.078125 8.5 55.328125 
Q 8.5 64.0625 14.71875 69.140625 
Q 20.953125 74.21875 31.78125 74.21875 
Q 42.671875 74.21875 48.875 69.140625 
Q 55.078125 64.0625 55.078125 55.328125 
Q 55.078125 49.078125 51.53125 44.71875 
Q 48 40.375 41.703125 38.8125 
Q 48.828125 37.15625 52.796875 32.3125 
Q 56.78125 27.484375 56.78125 20.515625 
Q 56.78125 9.90625 50.3125 4.234375 
Q 43.84375 -1.421875 31.78125 -1.421875 
Q 19.734375 -1.421875 13.25 4.234375 
Q 6.78125 9.90625 6.78125 20.515625 
Q 6.78125 27.484375 10.78125 32.3125 
Q 14.796875 37.15625 21.921875 38.8125 
z
M 18.3125 54.390625 
Q 18.3125 48.734375 21.84375 45.5625 
Q 25.390625 42.390625 31.78125 42.390625 
Q 38.140625 42.390625 41.71875 45.5625 
Q 45.3125 48.734375 45.3125 54.390625 
Q 45.3125 60.0625 41.71875 63.234375 
Q 38.140625 66.40625 31.78125 66.40625 
Q 25.390625 66.40625 21.84375 63.234375 
Q 18.3125 60.0625 18.3125 54.390625 
z
" id="DejaVuSans-56"/>
       </defs>
       <use xlink:href="#DejaVuSans-56"/>
       <use x="63.623047" xlink:href="#DejaVuSans-48"/>
       <use x="127.246094" xlink:href="#DejaVuSans-48"/>
       <use x="190.869141" xlink:href="#DejaVuSans-48"/>
      </g>
     </g>
    </g>
    <g id="ytick_5">
     <g id="line2d_13">
      <g>
       <use style="stroke:#000000;stroke-width:0.8;" x="59.690625" xlink:href="#mb317187f3e" y="127.06924"/>
      </g>
     </g>
     <g id="text_14">
      <!-- 8500 -->
      <g transform="translate(27.240625 130.868459)scale(0.1 -0.1)">
       <use xlink:href="#DejaVuSans-56"/>
       <use x="63.623047" xlink:href="#DejaVuSans-53"/>
       <use x="127.246094" xlink:href="#DejaVuSans-48"/>
       <use x="190.869141" xlink:href="#DejaVuSans-48"/>
      </g>
     </g>
    </g>
    <g id="ytick_6">
     <g id="line2d_14">
      <g>
       <use style="stroke:#000000;stroke-width:0.8;" x="59.690625" xlink:href="#mb317187f3e" y="93.008007"/>
      </g>
     </g>
     <g id="text_15">
      <!-- 9000 -->
      <g transform="translate(27.240625 96.807225)scale(0.1 -0.1)">
       <defs>
        <path d="M 10.984375 1.515625 
L 10.984375 10.5 
Q 14.703125 8.734375 18.5 7.8125 
Q 22.3125 6.890625 25.984375 6.890625 
Q 35.75 6.890625 40.890625 13.453125 
Q 46.046875 20.015625 46.78125 33.40625 
Q 43.953125 29.203125 39.59375 26.953125 
Q 35.25 24.703125 29.984375 24.703125 
Q 19.046875 24.703125 12.671875 31.3125 
Q 6.296875 37.9375 6.296875 49.421875 
Q 6.296875 60.640625 12.9375 67.421875 
Q 19.578125 74.21875 30.609375 74.21875 
Q 43.265625 74.21875 49.921875 64.515625 
Q 56.59375 54.828125 56.59375 36.375 
Q 56.59375 19.140625 48.40625 8.859375 
Q 40.234375 -1.421875 26.421875 -1.421875 
Q 22.703125 -1.421875 18.890625 -0.6875 
Q 15.09375 0.046875 10.984375 1.515625 
z
M 30.609375 32.421875 
Q 37.25 32.421875 41.125 36.953125 
Q 45.015625 41.5 45.015625 49.421875 
Q 45.015625 57.28125 41.125 61.84375 
Q 37.25 66.40625 30.609375 66.40625 
Q 23.96875 66.40625 20.09375 61.84375 
Q 16.21875 57.28125 16.21875 49.421875 
Q 16.21875 41.5 20.09375 36.953125 
Q 23.96875 32.421875 30.609375 32.421875 
z
" id="DejaVuSans-57"/>
       </defs>
       <use xlink:href="#DejaVuSans-57"/>
       <use x="63.623047" xlink:href="#DejaVuSans-48"/>
       <use x="127.246094" xlink:href="#DejaVuSans-48"/>
       <use x="190.869141" xlink:href="#DejaVuSans-48"/>
      </g>
     </g>
    </g>
    <g id="ytick_7">
     <g id="line2d_15">
      <g>
       <use style="stroke:#000000;stroke-width:0.8;" x="59.690625" xlink:href="#mb317187f3e" y="58.946773"/>
      </g>
     </g>
     <g id="text_16">
      <!-- 9500 -->
      <g transform="translate(27.240625 62.745992)scale(0.1 -0.1)">
       <use xlink:href="#DejaVuSans-57"/>
       <use x="63.623047" xlink:href="#DejaVuSans-53"/>
       <use x="127.246094" xlink:href="#DejaVuSans-48"/>
       <use x="190.869141" xlink:href="#DejaVuSans-48"/>
      </g>
     </g>
    </g>
    <g id="ytick_8">
     <g id="line2d_16">
      <g>
       <use style="stroke:#000000;stroke-width:0.8;" x="59.690625" xlink:href="#mb317187f3e" y="24.88554"/>
      </g>
     </g>
     <g id="text_17">
      <!-- 10000 -->
      <g transform="translate(20.878125 28.684759)scale(0.1 -0.1)">
       <defs>
        <path d="M 12.40625 8.296875 
L 28.515625 8.296875 
L 28.515625 63.921875 
L 10.984375 60.40625 
L 10.984375 69.390625 
L 28.421875 72.90625 
L 38.28125 72.90625 
L 38.28125 8.296875 
L 54.390625 8.296875 
L 54.390625 0 
L 12.40625 0 
z
" id="DejaVuSans-49"/>
       </defs>
       <use xlink:href="#DejaVuSans-49"/>
       <use x="63.623047" xlink:href="#DejaVuSans-48"/>
       <use x="127.246094" xlink:href="#DejaVuSans-48"/>
       <use x="190.869141" xlink:href="#DejaVuSans-48"/>
       <use x="254.492188" xlink:href="#DejaVuSans-48"/>
      </g>
     </g>
    </g>
    <g id="text_18">
     <!-- Reached region coverage -->
     <g transform="translate(14.798438 219.136625)rotate(-90)scale(0.1 -0.1)">
      <defs>
       <path d="M 44.390625 34.1875 
Q 47.5625 33.109375 50.5625 29.59375 
Q 53.5625 26.078125 56.59375 19.921875 
L 66.609375 0 
L 56 0 
L 46.6875 18.703125 
Q 43.0625 26.03125 39.671875 28.421875 
Q 36.28125 30.8125 30.421875 30.8125 
L 19.671875 30.8125 
L 19.671875 0 
L 9.8125 0 
L 9.8125 72.90625 
L 32.078125 72.90625 
Q 44.578125 72.90625 50.734375 67.671875 
Q 56.890625 62.453125 56.890625 51.90625 
Q 56.890625 45.015625 53.6875 40.46875 
Q 50.484375 35.9375 44.390625 34.1875 
z
M 19.671875 64.796875 
L 19.671875 38.921875 
L 32.078125 38.921875 
Q 39.203125 38.921875 42.84375 42.21875 
Q 46.484375 45.515625 46.484375 51.90625 
Q 46.484375 58.296875 42.84375 61.546875 
Q 39.203125 64.796875 32.078125 64.796875 
z
" id="DejaVuSans-82"/>
      </defs>
      <use xlink:href="#DejaVuSans-82"/>
      <use x="64.982422" xlink:href="#DejaVuSans-101"/>
      <use x="126.505859" xlink:href="#DejaVuSans-97"/>
      <use x="187.785156" xlink:href="#DejaVuSans-99"/>
      <use x="242.765625" xlink:href="#DejaVuSans-104"/>
      <use x="306.144531" xlink:href="#DejaVuSans-101"/>
      <use x="367.667969" xlink:href="#DejaVuSans-100"/>
      <use x="431.144531" xlink:href="#DejaVuSans-32"/>
      <use x="462.931641" xlink:href="#DejaVuSans-114"/>
      <use x="501.794922" xlink:href="#DejaVuSans-101"/>
      <use x="563.318359" xlink:href="#DejaVuSans-103"/>
      <use x="626.794922" xlink:href="#DejaVuSans-105"/>
      <use x="654.578125" xlink:href="#DejaVuSans-111"/>
      <use x="715.759766" xlink:href="#DejaVuSans-110"/>
      <use x="779.138672" xlink:href="#DejaVuSans-32"/>
      <use x="810.925781" xlink:href="#DejaVuSans-99"/>
      <use x="865.90625" xlink:href="#DejaVuSans-111"/>
      <use x="927.087891" xlink:href="#DejaVuSans-118"/>
      <use x="986.267578" xlink:href="#DejaVuSans-101"/>
      <use x="1047.791016" xlink:href="#DejaVuSans-114"/>
      <use x="1088.904297" xlink:href="#DejaVuSans-97"/>
      <use x="1150.183594" xlink:href="#DejaVuSans-103"/>
      <use x="1213.660156" xlink:href="#DejaVuSans-101"/>
     </g>
    </g>
   </g>
   <g id="line2d_17">
    <path clip-path="url(#pe5fef5739c)" d="M 82.010625 91.44119 
L 82.010625 66.57649 
" style="fill:none;stroke:#3d3d3d;stroke-linecap:square;stroke-width:1.5;"/>
   </g>
   <g id="line2d_18">
    <path clip-path="url(#pe5fef5739c)" d="M 82.010625 86.638556 
L 82.010625 74.461665 
" style="fill:none;stroke:#3d3d3d;stroke-linecap:square;stroke-width:4.5;"/>
   </g>
   <g id="line2d_19">
    <path clip-path="url(#pe5fef5739c)" d="M 126.650625 231.773471 
L 126.650625 78.974779 
" style="fill:none;stroke:#3d3d3d;stroke-linecap:square;stroke-width:1.5;"/>
   </g>
   <g id="line2d_20">
    <path clip-path="url(#pe5fef5739c)" d="M 126.650625 159.274136 
L 126.650625 98.185314 
" style="fill:none;stroke:#3d3d3d;stroke-linecap:square;stroke-width:4.5;"/>
   </g>
   <g id="line2d_21">
    <path clip-path="url(#pe5fef5739c)" d="M 171.290625 188.720072 
L 171.290625 98.662171 
" style="fill:none;stroke:#3d3d3d;stroke-linecap:square;stroke-width:1.5;"/>
   </g>
   <g id="line2d_22">
    <path clip-path="url(#pe5fef5739c)" d="M 171.290625 145.922133 
L 171.290625 116.220737 
" style="fill:none;stroke:#3d3d3d;stroke-linecap:square;stroke-width:4.5;"/>
   </g>
   <g id="line2d_23">
    <path clip-path="url(#pe5fef5739c)" d="M 215.930625 226.936776 
L 215.930625 86.332005 
" style="fill:none;stroke:#3d3d3d;stroke-linecap:square;stroke-width:1.5;"/>
   </g>
   <g id="line2d_24">
    <path clip-path="url(#pe5fef5739c)" d="M 215.930625 168.113026 
L 215.930625 108.029011 
" style="fill:none;stroke:#3d3d3d;stroke-linecap:square;stroke-width:4.5;"/>
   </g>
   <g id="line2d_25">
    <path clip-path="url(#pe5fef5739c)" d="M 260.570625 217.876488 
L 260.570625 134.358344 
" style="fill:none;stroke:#3d3d3d;stroke-linecap:square;stroke-width:1.5;"/>
   </g>
   <g id="line2d_26">
    <path clip-path="url(#pe5fef5739c)" d="M 260.570625 207.402659 
L 260.570625 173.682038 
" style="fill:none;stroke:#3d3d3d;stroke-linecap:square;stroke-width:4.5;"/>
   </g>
   <g id="line2d_27">
    <path clip-path="url(#pe5fef5739c)" d="M 305.210625 226.051184 
L 305.210625 188.243215 
" style="fill:none;stroke:#3d3d3d;stroke-linecap:square;stroke-width:1.5;"/>
   </g>
   <g id="line2d_28">
    <path clip-path="url(#pe5fef5739c)" d="M 305.210625 212.562936 
L 305.210625 201.373821 
" style="fill:none;stroke:#3d3d3d;stroke-linecap:square;stroke-width:4.5;"/>
   </g>
   <g id="line2d_29">
    <path clip-path="url(#pe5fef5739c)" d="M 349.850625 222.100081 
L 349.850625 195.464197 
" style="fill:none;stroke:#3d3d3d;stroke-linecap:square;stroke-width:1.5;"/>
   </g>
   <g id="line2d_30">
    <path clip-path="url(#pe5fef5739c)" d="M 349.850625 216.990896 
L 349.850625 201.35679 
" style="fill:none;stroke:#3d3d3d;stroke-linecap:square;stroke-width:4.5;"/>
   </g>
   <g id="line2d_31">
    <path clip-path="url(#pe5fef5739c)" d="M 394.490625 224.620612 
L 394.490625 211.132364 
" style="fill:none;stroke:#3d3d3d;stroke-linecap:square;stroke-width:1.5;"/>
   </g>
   <g id="line2d_32">
    <path clip-path="url(#pe5fef5739c)" d="M 394.490625 217.399631 
L 394.490625 211.915772 
" style="fill:none;stroke:#3d3d3d;stroke-linecap:square;stroke-width:4.5;"/>
   </g>
   <g id="patch_3">
    <path d="M 59.690625 263.314174 
L 59.690625 24.88554 
" style="fill:none;stroke:#000000;stroke-linecap:square;stroke-linejoin:miter;stroke-width:0.8;"/>
   </g>
   <g id="patch_4">
    <path d="M 82.010625 288.430125 
L 394.490625 288.430125 
" style="fill:none;stroke:#000000;stroke-linecap:square;stroke-linejoin:miter;stroke-width:0.8;"/>
   </g>
   <g id="PathCollection_1">
    <defs>
     <path d="M 0 1.5 
C 0.397805 1.5 0.77937 1.341951 1.06066 1.06066 
C 1.341951 0.77937 1.5 0.397805 1.5 0 
C 1.5 -0.397805 1.341951 -0.77937 1.06066 -1.06066 
C 0.77937 -1.341951 0.397805 -1.5 0 -1.5 
C -0.397805 -1.5 -0.77937 -1.341951 -1.06066 -1.06066 
C -1.341951 -0.77937 -1.5 -0.397805 -1.5 0 
C -1.5 0.397805 -1.341951 0.77937 -1.06066 1.06066 
C -0.77937 1.341951 -0.397805 1.5 0 1.5 
z
" id="mac02f99bb6" style="stroke:#3d3d3d;"/>
    </defs>
    <g clip-path="url(#pe5fef5739c)">
     <use style="fill:#ffffff;stroke:#3d3d3d;" x="82.010625" xlink:href="#mac02f99bb6" y="79.928493"/>
    </g>
   </g>
   <g id="PathCollection_2">
    <g clip-path="url(#pe5fef5739c)">
     <use style="fill:#ffffff;stroke:#3d3d3d;" x="126.650625" xlink:href="#mac02f99bb6" y="115.726849"/>
    </g>
   </g>
   <g id="PathCollection_3">
    <g clip-path="url(#pe5fef5739c)">
     <use style="fill:#ffffff;stroke:#3d3d3d;" x="171.290625" xlink:href="#mac02f99bb6" y="125.40024"/>
    </g>
   </g>
   <g id="PathCollection_4">
    <g clip-path="url(#pe5fef5739c)">
     <use style="fill:#ffffff;stroke:#3d3d3d;" x="215.930625" xlink:href="#mac02f99bb6" y="134.222099"/>
    </g>
   </g>
   <g id="PathCollection_5">
    <g clip-path="url(#pe5fef5739c)">
     <use style="fill:#ffffff;stroke:#3d3d3d;" x="260.570625" xlink:href="#mac02f99bb6" y="202.378627"/>
    </g>
   </g>
   <g id="PathCollection_6">
    <g clip-path="url(#pe5fef5739c)">
     <use style="fill:#ffffff;stroke:#3d3d3d;" x="305.210625" xlink:href="#mac02f99bb6" y="206.908771"/>
    </g>
   </g>
   <g id="PathCollection_7">
    <g clip-path="url(#pe5fef5739c)">
     <use style="fill:#ffffff;stroke:#3d3d3d;" x="349.850625" xlink:href="#mac02f99bb6" y="207.385628"/>
    </g>
   </g>
   <g id="PathCollection_8">
    <g clip-path="url(#pe5fef5739c)">
     <use style="fill:#ffffff;stroke:#3d3d3d;" x="394.490625" xlink:href="#mac02f99bb6" y="214.538487"/>
    </g>
   </g>
   <g id="text_19">
    <!-- bloaty_fuzz_target (23h, 4 trials/fuzzer) -->
    <g transform="translate(120.154688 16.318125)scale(0.12 -0.12)">
     <defs>
      <path d="M 32.171875 -5.078125 
Q 28.375 -14.84375 24.75 -17.8125 
Q 21.140625 -20.796875 15.09375 -20.796875 
L 7.90625 -20.796875 
L 7.90625 -13.28125 
L 13.1875 -13.28125 
Q 16.890625 -13.28125 18.9375 -11.515625 
Q 21 -9.765625 23.484375 -3.21875 
L 25.09375 0.875 
L 2.984375 54.6875 
L 12.5 54.6875 
L 29.59375 11.921875 
L 46.6875 54.6875 
L 56.203125 54.6875 
z
" id="DejaVuSans-121"/>
      <path d="M 19.1875 8.296875 
L 53.609375 8.296875 
L 53.609375 0 
L 7.328125 0 
L 7.328125 8.296875 
Q 12.9375 14.109375 22.625 23.890625 
Q 32.328125 33.6875 34.8125 36.53125 
Q 39.546875 41.84375 41.421875 45.53125 
Q 43.3125 49.21875 43.3125 52.78125 
Q 43.3125 58.59375 39.234375 62.25 
Q 35.15625 65.921875 28.609375 65.921875 
Q 23.96875 65.921875 18.8125 64.3125 
Q 13.671875 62.703125 7.8125 59.421875 
L 7.8125 69.390625 
Q 13.765625 71.78125 18.9375 73 
Q 24.125 74.21875 28.421875 74.21875 
Q 39.75 74.21875 46.484375 68.546875 
Q 53.21875 62.890625 53.21875 53.421875 
Q 53.21875 48.921875 51.53125 44.890625 
Q 49.859375 40.875 45.40625 35.40625 
Q 44.1875 33.984375 37.640625 27.21875 
Q 31.109375 20.453125 19.1875 8.296875 
z
" id="DejaVuSans-50"/>
      <path d="M 40.578125 39.3125 
Q 47.65625 37.796875 51.625 33 
Q 55.609375 28.21875 55.609375 21.1875 
Q 55.609375 10.40625 48.1875 4.484375 
Q 40.765625 -1.421875 27.09375 -1.421875 
Q 22.515625 -1.421875 17.65625 -0.515625 
Q 12.796875 0.390625 7.625 2.203125 
L 7.625 11.71875 
Q 11.71875 9.328125 16.59375 8.109375 
Q 21.484375 6.890625 26.8125 6.890625 
Q 36.078125 6.890625 40.9375 10.546875 
Q 45.796875 14.203125 45.796875 21.1875 
Q 45.796875 27.640625 41.28125 31.265625 
Q 36.765625 34.90625 28.71875 34.90625 
L 20.21875 34.90625 
L 20.21875 43.015625 
L 29.109375 43.015625 
Q 36.375 43.015625 40.234375 45.921875 
Q 44.09375 48.828125 44.09375 54.296875 
Q 44.09375 59.90625 40.109375 62.90625 
Q 36.140625 65.921875 28.71875 65.921875 
Q 24.65625 65.921875 20.015625 65.03125 
Q 15.375 64.15625 9.8125 62.3125 
L 9.8125 71.09375 
Q 15.4375 72.65625 20.34375 73.4375 
Q 25.25 74.21875 29.59375 74.21875 
Q 40.828125 74.21875 47.359375 69.109375 
Q 53.90625 64.015625 53.90625 55.328125 
Q 53.90625 49.265625 50.4375 45.09375 
Q 46.96875 40.921875 40.578125 39.3125 
z
" id="DejaVuSans-51"/>
      <path d="M 11.71875 12.40625 
L 22.015625 12.40625 
L 22.015625 4 
L 14.015625 -11.625 
L 7.71875 -11.625 
L 11.71875 4 
z
" id="DejaVuSans-44"/>
      <path d="M 37.796875 64.3125 
L 12.890625 25.390625 
L 37.796875 25.390625 
z
M 35.203125 72.90625 
L 47.609375 72.90625 
L 47.609375 25.390625 
L 58.015625 25.390625 
L 58.015625 17.1875 
L 47.609375 17.1875 
L 47.609375 0 
L 37.796875 0 
L 37.796875 17.1875 
L 4.890625 17.1875 
L 4.890625 26.703125 
z
" id="DejaVuSans-52"/>
      <path d="M 25.390625 72.90625 
L 33.6875 72.90625 
L 8.296875 -9.28125 
L 0 -9.28125 
z
" id="DejaVuSans-47"/>
     </defs>
     <use xlink:href="#DejaVuSans-98"/>
     <use x="63.476562" xlink:href="#DejaVuSans-108"/>
     <use x="91.259766" xlink:href="#DejaVuSans-111"/>
     <use x="152.441406" xlink:href="#DejaVuSans-97"/>
     <use x="213.720703" xlink:href="#DejaVuSans-116"/>
     <use x="252.929688" xlink:href="#DejaVuSans-121"/>
     <use x="312.109375" xlink:href="#DejaVuSans-95"/>
     <use x="362.109375" xlink:href="#DejaVuSans-102"/>
     <use x="397.314453" xlink:href="#DejaVuSans-117"/>
     <use x="460.693359" xlink:href="#DejaVuSans-122"/>
     <use x="513.183594" xlink:href="#DejaVuSans-122"/>
     <use x="565.673828" xlink:href="#DejaVuSans-95"/>
     <use x="615.673828" xlink:href="#DejaVuSans-116"/>
     <use x="654.882812" xlink:href="#DejaVuSans-97"/>
     <use x="716.162109" xlink:href="#DejaVuSans-114"/>
     <use x="755.525391" xlink:href="#DejaVuSans-103"/>
     <use x="819.001953" xlink:href="#DejaVuSans-101"/>
     <use x="880.525391" xlink:href="#DejaVuSans-116"/>
     <use x="919.734375" xlink:href="#DejaVuSans-32"/>
     <use x="951.521484" xlink:href="#DejaVuSans-40"/>
     <use x="990.535156" xlink:href="#DejaVuSans-50"/>
     <use x="1054.158203" xlink:href="#DejaVuSans-51"/>
     <use x="1117.78125" xlink:href="#DejaVuSans-104"/>
     <use x="1181.160156" xlink:href="#DejaVuSans-44"/>
     <use x="1212.947266" xlink:href="#DejaVuSans-32"/>
     <use x="1244.734375" xlink:href="#DejaVuSans-52"/>
     <use x="1308.357422" xlink:href="#DejaVuSans-32"/>
     <use x="1340.144531" xlink:href="#DejaVuSans-116"/>
     <use x="1379.353516" xlink:href="#DejaVuSans-114"/>
     <use x="1420.466797" xlink:href="#DejaVuSans-105"/>
     <use x="1448.25" xlink:href="#DejaVuSans-97"/>
     <use x="1509.529297" xlink:href="#DejaVuSans-108"/>
     <use x="1537.3125" xlink:href="#DejaVuSans-115"/>
     <use x="1589.412109" xlink:href="#DejaVuSans-47"/>
     <use x="1623.103516" xlink:href="#DejaVuSans-102"/>
     <use x="1658.308594" xlink:href="#DejaVuSans-117"/>
     <use x="1721.6875" xlink:href="#DejaVuSans-122"/>
     <use x="1774.177734" xlink:href="#DejaVuSans-122"/>
     <use x="1826.667969" xlink:href="#DejaVuSans-101"/>
     <use x="1888.191406" xlink:href="#DejaVuSans-114"/>
     <use x="1929.304688" xlink:href="#DejaVuSans-41"/>
    </g>
   </g>
  </g>
 </g>
 <defs>
  <clipPath id="pe5fef5739c">
   <rect height="266.112" width="357.12" x="59.690625" y="22.318125"/>
  </clipPath>
 </defs>
</svg>
