<?xml version="1.0" encoding="utf-8" standalone="no"?>
<!DOCTYPE svg PUBLIC "-//W3C//DTD SVG 1.1//EN"
  "http://www.w3.org/Graphics/SVG/1.1/DTD/svg11.dtd">
<!-- Created with matplotlib (https://matplotlib.org/) -->
<svg height="325.986375pt" version="1.1" viewBox="0 0 904.48375 325.986375" width="904.48375pt" xmlns="http://www.w3.org/2000/svg" xmlns:xlink="http://www.w3.org/1999/xlink">
 <metadata>
  <rdf:RDF xmlns:cc="http://creativecommons.org/ns#" xmlns:dc="http://purl.org/dc/elements/1.1/" xmlns:rdf="http://www.w3.org/1999/02/22-rdf-syntax-ns#">
   <cc:Work>
    <dc:type rdf:resource="http://purl.org/dc/dcmitype/StillImage"/>
    <dc:date>2020-12-06T10:28:49.787283</dc:date>
    <dc:format>image/svg+xml</dc:format>
    <dc:creator>
     <cc:Agent>
      <dc:title>Matplotlib v3.3.3, https://matplotlib.org/</dc:title>
     </cc:Agent>
    </dc:creator>
   </cc:Work>
  </rdf:RDF>
 </metadata>
 <defs>
  <style type="text/css">*{stroke-linecap:butt;stroke-linejoin:round;}</style>
 </defs>
 <g id="figure_1">
  <g id="patch_1">
   <path d="M 0 325.986375 
L 904.48375 325.986375 
L 904.48375 0 
L 0 0 
z
" style="fill:#ffffff;"/>
  </g>
  <g id="axes_1">
   <g id="patch_2">
    <path d="M 59.690625 288.430125 
L 773.930625 288.430125 
L 773.930625 22.318125 
L 59.690625 22.318125 
z
" style="fill:#ffffff;"/>
   </g>
   <g id="matplotlib.axis_1">
    <g id="xtick_1">
     <g id="line2d_1">
      <defs>
       <path d="M 0 0 
L 0 3.5 
" id="mbf4729b240" style="stroke:#000000;stroke-width:0.8;"/>
      </defs>
      <g>
       <use style="stroke:#000000;stroke-width:0.8;" x="92.15608" xlink:href="#mbf4729b240" y="288.430125"/>
      </g>
     </g>
     <g id="text_1">
      <!-- 15m -->
      <g transform="translate(80.923267 303.028562)scale(0.1 -0.1)">
       <defs>
        <path d="M 12.40625 8.296875 
L 28.515625 8.296875 
L 28.515625 63.921875 
L 10.984375 60.40625 
L 10.984375 69.390625 
L 28.421875 72.90625 
L 38.28125 72.90625 
L 38.28125 8.296875 
L 54.390625 8.296875 
L 54.390625 0 
L 12.40625 0 
z
" id="DejaVuSans-49"/>
        <path d="M 10.796875 72.90625 
L 49.515625 72.90625 
L 49.515625 64.59375 
L 19.828125 64.59375 
L 19.828125 46.734375 
Q 21.96875 47.46875 24.109375 47.828125 
Q 26.265625 48.1875 28.421875 48.1875 
Q 40.625 48.1875 47.75 41.5 
Q 54.890625 34.8125 54.890625 23.390625 
Q 54.890625 11.625 47.5625 5.09375 
Q 40.234375 -1.421875 26.90625 -1.421875 
Q 22.3125 -1.421875 17.546875 -0.640625 
Q 12.796875 0.140625 7.71875 1.703125 
L 7.71875 11.625 
Q 12.109375 9.234375 16.796875 8.0625 
Q 21.484375 6.890625 26.703125 6.890625 
Q 35.15625 6.890625 40.078125 11.328125 
Q 45.015625 15.765625 45.015625 23.390625 
Q 45.015625 31 40.078125 35.4375 
Q 35.15625 39.890625 26.703125 39.890625 
Q 22.75 39.890625 18.8125 39.015625 
Q 14.890625 38.140625 10.796875 36.28125 
z
" id="DejaVuSans-53"/>
        <path d="M 52 44.1875 
Q 55.375 50.25 60.0625 53.125 
Q 64.75 56 71.09375 56 
Q 79.640625 56 84.28125 50.015625 
Q 88.921875 44.046875 88.921875 33.015625 
L 88.921875 0 
L 79.890625 0 
L 79.890625 32.71875 
Q 79.890625 40.578125 77.09375 44.375 
Q 74.3125 48.1875 68.609375 48.1875 
Q 61.625 48.1875 57.5625 43.546875 
Q 53.515625 38.921875 53.515625 30.90625 
L 53.515625 0 
L 44.484375 0 
L 44.484375 32.71875 
Q 44.484375 40.625 41.703125 44.40625 
Q 38.921875 48.1875 33.109375 48.1875 
Q 26.21875 48.1875 22.15625 43.53125 
Q 18.109375 38.875 18.109375 30.90625 
L 18.109375 0 
L 9.078125 0 
L 9.078125 54.6875 
L 18.109375 54.6875 
L 18.109375 46.1875 
Q 21.1875 51.21875 25.484375 53.609375 
Q 29.78125 56 35.6875 56 
Q 41.65625 56 45.828125 52.96875 
Q 50 49.953125 52 44.1875 
z
" id="DejaVuSans-109"/>
       </defs>
       <use xlink:href="#DejaVuSans-49"/>
       <use x="63.623047" xlink:href="#DejaVuSans-53"/>
       <use x="127.246094" xlink:href="#DejaVuSans-109"/>
      </g>
     </g>
    </g>
    <g id="xtick_2">
     <g id="line2d_2">
      <g>
       <use style="stroke:#000000;stroke-width:0.8;" x="146.859776" xlink:href="#mbf4729b240" y="288.430125"/>
      </g>
     </g>
     <g id="text_2">
      <!-- 2h:10m -->
      <g transform="translate(127.592588 303.028562)scale(0.1 -0.1)">
       <defs>
        <path d="M 19.1875 8.296875 
L 53.609375 8.296875 
L 53.609375 0 
L 7.328125 0 
L 7.328125 8.296875 
Q 12.9375 14.109375 22.625 23.890625 
Q 32.328125 33.6875 34.8125 36.53125 
Q 39.546875 41.84375 41.421875 45.53125 
Q 43.3125 49.21875 43.3125 52.78125 
Q 43.3125 58.59375 39.234375 62.25 
Q 35.15625 65.921875 28.609375 65.921875 
Q 23.96875 65.921875 18.8125 64.3125 
Q 13.671875 62.703125 7.8125 59.421875 
L 7.8125 69.390625 
Q 13.765625 71.78125 18.9375 73 
Q 24.125 74.21875 28.421875 74.21875 
Q 39.75 74.21875 46.484375 68.546875 
Q 53.21875 62.890625 53.21875 53.421875 
Q 53.21875 48.921875 51.53125 44.890625 
Q 49.859375 40.875 45.40625 35.40625 
Q 44.1875 33.984375 37.640625 27.21875 
Q 31.109375 20.453125 19.1875 8.296875 
z
" id="DejaVuSans-50"/>
        <path d="M 54.890625 33.015625 
L 54.890625 0 
L 45.90625 0 
L 45.90625 32.71875 
Q 45.90625 40.484375 42.875 44.328125 
Q 39.84375 48.1875 33.796875 48.1875 
Q 26.515625 48.1875 22.3125 43.546875 
Q 18.109375 38.921875 18.109375 30.90625 
L 18.109375 0 
L 9.078125 0 
L 9.078125 75.984375 
L 18.109375 75.984375 
L 18.109375 46.1875 
Q 21.34375 51.125 25.703125 53.5625 
Q 30.078125 56 35.796875 56 
Q 45.21875 56 50.046875 50.171875 
Q 54.890625 44.34375 54.890625 33.015625 
z
" id="DejaVuSans-104"/>
        <path d="M 11.71875 12.40625 
L 22.015625 12.40625 
L 22.015625 0 
L 11.71875 0 
z
M 11.71875 51.703125 
L 22.015625 51.703125 
L 22.015625 39.3125 
L 11.71875 39.3125 
z
" id="DejaVuSans-58"/>
        <path d="M 31.78125 66.40625 
Q 24.171875 66.40625 20.328125 58.90625 
Q 16.5 51.421875 16.5 36.375 
Q 16.5 21.390625 20.328125 13.890625 
Q 24.171875 6.390625 31.78125 6.390625 
Q 39.453125 6.390625 43.28125 13.890625 
Q 47.125 21.390625 47.125 36.375 
Q 47.125 51.421875 43.28125 58.90625 
Q 39.453125 66.40625 31.78125 66.40625 
z
M 31.78125 74.21875 
Q 44.046875 74.21875 50.515625 64.515625 
Q 56.984375 54.828125 56.984375 36.375 
Q 56.984375 17.96875 50.515625 8.265625 
Q 44.046875 -1.421875 31.78125 -1.421875 
Q 19.53125 -1.421875 13.0625 8.265625 
Q 6.59375 17.96875 6.59375 36.375 
Q 6.59375 54.828125 13.0625 64.515625 
Q 19.53125 74.21875 31.78125 74.21875 
z
" id="DejaVuSans-48"/>
       </defs>
       <use xlink:href="#DejaVuSans-50"/>
       <use x="63.623047" xlink:href="#DejaVuSans-104"/>
       <use x="127.001953" xlink:href="#DejaVuSans-58"/>
       <use x="160.693359" xlink:href="#DejaVuSans-49"/>
       <use x="224.316406" xlink:href="#DejaVuSans-48"/>
       <use x="287.939453" xlink:href="#DejaVuSans-109"/>
      </g>
     </g>
    </g>
    <g id="xtick_3">
     <g id="line2d_3">
      <g>
       <use style="stroke:#000000;stroke-width:0.8;" x="201.563472" xlink:href="#mbf4729b240" y="288.430125"/>
      </g>
     </g>
     <g id="text_3">
      <!-- 4h:5m -->
      <g transform="translate(185.477535 303.028562)scale(0.1 -0.1)">
       <defs>
        <path d="M 37.796875 64.3125 
L 12.890625 25.390625 
L 37.796875 25.390625 
z
M 35.203125 72.90625 
L 47.609375 72.90625 
L 47.609375 25.390625 
L 58.015625 25.390625 
L 58.015625 17.1875 
L 47.609375 17.1875 
L 47.609375 0 
L 37.796875 0 
L 37.796875 17.1875 
L 4.890625 17.1875 
L 4.890625 26.703125 
z
" id="DejaVuSans-52"/>
       </defs>
       <use xlink:href="#DejaVuSans-52"/>
       <use x="63.623047" xlink:href="#DejaVuSans-104"/>
       <use x="127.001953" xlink:href="#DejaVuSans-58"/>
       <use x="160.693359" xlink:href="#DejaVuSans-53"/>
       <use x="224.316406" xlink:href="#DejaVuSans-109"/>
      </g>
     </g>
    </g>
    <g id="xtick_4">
     <g id="line2d_4">
      <g>
       <use style="stroke:#000000;stroke-width:0.8;" x="256.267168" xlink:href="#mbf4729b240" y="288.430125"/>
      </g>
     </g>
     <g id="text_4">
      <!-- 6h -->
      <g transform="translate(249.917168 303.028562)scale(0.1 -0.1)">
       <defs>
        <path d="M 33.015625 40.375 
Q 26.375 40.375 22.484375 35.828125 
Q 18.609375 31.296875 18.609375 23.390625 
Q 18.609375 15.53125 22.484375 10.953125 
Q 26.375 6.390625 33.015625 6.390625 
Q 39.65625 6.390625 43.53125 10.953125 
Q 47.40625 15.53125 47.40625 23.390625 
Q 47.40625 31.296875 43.53125 35.828125 
Q 39.65625 40.375 33.015625 40.375 
z
M 52.59375 71.296875 
L 52.59375 62.3125 
Q 48.875 64.0625 45.09375 64.984375 
Q 41.3125 65.921875 37.59375 65.921875 
Q 27.828125 65.921875 22.671875 59.328125 
Q 17.53125 52.734375 16.796875 39.40625 
Q 19.671875 43.65625 24.015625 45.921875 
Q 28.375 48.1875 33.59375 48.1875 
Q 44.578125 48.1875 50.953125 41.515625 
Q 57.328125 34.859375 57.328125 23.390625 
Q 57.328125 12.15625 50.6875 5.359375 
Q 44.046875 -1.421875 33.015625 -1.421875 
Q 20.359375 -1.421875 13.671875 8.265625 
Q 6.984375 17.96875 6.984375 36.375 
Q 6.984375 53.65625 15.1875 63.9375 
Q 23.390625 74.21875 37.203125 74.21875 
Q 40.921875 74.21875 44.703125 73.484375 
Q 48.484375 72.75 52.59375 71.296875 
z
" id="DejaVuSans-54"/>
       </defs>
       <use xlink:href="#DejaVuSans-54"/>
       <use x="63.623047" xlink:href="#DejaVuSans-104"/>
      </g>
     </g>
    </g>
    <g id="xtick_5">
     <g id="line2d_5">
      <g>
       <use style="stroke:#000000;stroke-width:0.8;" x="310.970865" xlink:href="#mbf4729b240" y="288.430125"/>
      </g>
     </g>
     <g id="text_5">
      <!-- 7h:55m -->
      <g transform="translate(291.703677 303.028562)scale(0.1 -0.1)">
       <defs>
        <path d="M 8.203125 72.90625 
L 55.078125 72.90625 
L 55.078125 68.703125 
L 28.609375 0 
L 18.3125 0 
L 43.21875 64.59375 
L 8.203125 64.59375 
z
" id="DejaVuSans-55"/>
       </defs>
       <use xlink:href="#DejaVuSans-55"/>
       <use x="63.623047" xlink:href="#DejaVuSans-104"/>
       <use x="127.001953" xlink:href="#DejaVuSans-58"/>
       <use x="160.693359" xlink:href="#DejaVuSans-53"/>
       <use x="224.316406" xlink:href="#DejaVuSans-53"/>
       <use x="287.939453" xlink:href="#DejaVuSans-109"/>
      </g>
     </g>
    </g>
    <g id="xtick_6">
     <g id="line2d_6">
      <g>
       <use style="stroke:#000000;stroke-width:0.8;" x="365.674561" xlink:href="#mbf4729b240" y="288.430125"/>
      </g>
     </g>
     <g id="text_6">
      <!-- 9h:50m -->
      <g transform="translate(346.407374 303.028562)scale(0.1 -0.1)">
       <defs>
        <path d="M 10.984375 1.515625 
L 10.984375 10.5 
Q 14.703125 8.734375 18.5 7.8125 
Q 22.3125 6.890625 25.984375 6.890625 
Q 35.75 6.890625 40.890625 13.453125 
Q 46.046875 20.015625 46.78125 33.40625 
Q 43.953125 29.203125 39.59375 26.953125 
Q 35.25 24.703125 29.984375 24.703125 
Q 19.046875 24.703125 12.671875 31.3125 
Q 6.296875 37.9375 6.296875 49.421875 
Q 6.296875 60.640625 12.9375 67.421875 
Q 19.578125 74.21875 30.609375 74.21875 
Q 43.265625 74.21875 49.921875 64.515625 
Q 56.59375 54.828125 56.59375 36.375 
Q 56.59375 19.140625 48.40625 8.859375 
Q 40.234375 -1.421875 26.421875 -1.421875 
Q 22.703125 -1.421875 18.890625 -0.6875 
Q 15.09375 0.046875 10.984375 1.515625 
z
M 30.609375 32.421875 
Q 37.25 32.421875 41.125 36.953125 
Q 45.015625 41.5 45.015625 49.421875 
Q 45.015625 57.28125 41.125 61.84375 
Q 37.25 66.40625 30.609375 66.40625 
Q 23.96875 66.40625 20.09375 61.84375 
Q 16.21875 57.28125 16.21875 49.421875 
Q 16.21875 41.5 20.09375 36.953125 
Q 23.96875 32.421875 30.609375 32.421875 
z
" id="DejaVuSans-57"/>
       </defs>
       <use xlink:href="#DejaVuSans-57"/>
       <use x="63.623047" xlink:href="#DejaVuSans-104"/>
       <use x="127.001953" xlink:href="#DejaVuSans-58"/>
       <use x="160.693359" xlink:href="#DejaVuSans-53"/>
       <use x="224.316406" xlink:href="#DejaVuSans-48"/>
       <use x="287.939453" xlink:href="#DejaVuSans-109"/>
      </g>
     </g>
    </g>
    <g id="xtick_7">
     <g id="line2d_7">
      <g>
       <use style="stroke:#000000;stroke-width:0.8;" x="420.378257" xlink:href="#mbf4729b240" y="288.430125"/>
      </g>
     </g>
     <g id="text_7">
      <!-- 11h:45m -->
      <g transform="translate(397.92982 303.028562)scale(0.1 -0.1)">
       <use xlink:href="#DejaVuSans-49"/>
       <use x="63.623047" xlink:href="#DejaVuSans-49"/>
       <use x="127.246094" xlink:href="#DejaVuSans-104"/>
       <use x="190.625" xlink:href="#DejaVuSans-58"/>
       <use x="224.316406" xlink:href="#DejaVuSans-52"/>
       <use x="287.939453" xlink:href="#DejaVuSans-53"/>
       <use x="351.5625" xlink:href="#DejaVuSans-109"/>
      </g>
     </g>
    </g>
    <g id="xtick_8">
     <g id="line2d_8">
      <g>
       <use style="stroke:#000000;stroke-width:0.8;" x="475.081954" xlink:href="#mbf4729b240" y="288.430125"/>
      </g>
     </g>
     <g id="text_8">
      <!-- 13h:40m -->
      <g transform="translate(452.633516 303.028562)scale(0.1 -0.1)">
       <defs>
        <path d="M 40.578125 39.3125 
Q 47.65625 37.796875 51.625 33 
Q 55.609375 28.21875 55.609375 21.1875 
Q 55.609375 10.40625 48.1875 4.484375 
Q 40.765625 -1.421875 27.09375 -1.421875 
Q 22.515625 -1.421875 17.65625 -0.515625 
Q 12.796875 0.390625 7.625 2.203125 
L 7.625 11.71875 
Q 11.71875 9.328125 16.59375 8.109375 
Q 21.484375 6.890625 26.8125 6.890625 
Q 36.078125 6.890625 40.9375 10.546875 
Q 45.796875 14.203125 45.796875 21.1875 
Q 45.796875 27.640625 41.28125 31.265625 
Q 36.765625 34.90625 28.71875 34.90625 
L 20.21875 34.90625 
L 20.21875 43.015625 
L 29.109375 43.015625 
Q 36.375 43.015625 40.234375 45.921875 
Q 44.09375 48.828125 44.09375 54.296875 
Q 44.09375 59.90625 40.109375 62.90625 
Q 36.140625 65.921875 28.71875 65.921875 
Q 24.65625 65.921875 20.015625 65.03125 
Q 15.375 64.15625 9.8125 62.3125 
L 9.8125 71.09375 
Q 15.4375 72.65625 20.34375 73.4375 
Q 25.25 74.21875 29.59375 74.21875 
Q 40.828125 74.21875 47.359375 69.109375 
Q 53.90625 64.015625 53.90625 55.328125 
Q 53.90625 49.265625 50.4375 45.09375 
Q 46.96875 40.921875 40.578125 39.3125 
z
" id="DejaVuSans-51"/>
       </defs>
       <use xlink:href="#DejaVuSans-49"/>
       <use x="63.623047" xlink:href="#DejaVuSans-51"/>
       <use x="127.246094" xlink:href="#DejaVuSans-104"/>
       <use x="190.625" xlink:href="#DejaVuSans-58"/>
       <use x="224.316406" xlink:href="#DejaVuSans-52"/>
       <use x="287.939453" xlink:href="#DejaVuSans-48"/>
       <use x="351.5625" xlink:href="#DejaVuSans-109"/>
      </g>
     </g>
    </g>
    <g id="xtick_9">
     <g id="line2d_9">
      <g>
       <use style="stroke:#000000;stroke-width:0.8;" x="529.78565" xlink:href="#mbf4729b240" y="288.430125"/>
      </g>
     </g>
     <g id="text_9">
      <!-- 15h:35m -->
      <g transform="translate(507.337212 303.028562)scale(0.1 -0.1)">
       <use xlink:href="#DejaVuSans-49"/>
       <use x="63.623047" xlink:href="#DejaVuSans-53"/>
       <use x="127.246094" xlink:href="#DejaVuSans-104"/>
       <use x="190.625" xlink:href="#DejaVuSans-58"/>
       <use x="224.316406" xlink:href="#DejaVuSans-51"/>
       <use x="287.939453" xlink:href="#DejaVuSans-53"/>
       <use x="351.5625" xlink:href="#DejaVuSans-109"/>
      </g>
     </g>
    </g>
    <g id="xtick_10">
     <g id="line2d_10">
      <g>
       <use style="stroke:#000000;stroke-width:0.8;" x="584.489346" xlink:href="#mbf4729b240" y="288.430125"/>
      </g>
     </g>
     <g id="text_10">
      <!-- 17h:30m -->
      <g transform="translate(562.040909 303.028562)scale(0.1 -0.1)">
       <use xlink:href="#DejaVuSans-49"/>
       <use x="63.623047" xlink:href="#DejaVuSans-55"/>
       <use x="127.246094" xlink:href="#DejaVuSans-104"/>
       <use x="190.625" xlink:href="#DejaVuSans-58"/>
       <use x="224.316406" xlink:href="#DejaVuSans-51"/>
       <use x="287.939453" xlink:href="#DejaVuSans-48"/>
       <use x="351.5625" xlink:href="#DejaVuSans-109"/>
      </g>
     </g>
    </g>
    <g id="xtick_11">
     <g id="line2d_11">
      <g>
       <use style="stroke:#000000;stroke-width:0.8;" x="639.193043" xlink:href="#mbf4729b240" y="288.430125"/>
      </g>
     </g>
     <g id="text_11">
      <!-- 19h:25m -->
      <g transform="translate(616.744605 303.028562)scale(0.1 -0.1)">
       <use xlink:href="#DejaVuSans-49"/>
       <use x="63.623047" xlink:href="#DejaVuSans-57"/>
       <use x="127.246094" xlink:href="#DejaVuSans-104"/>
       <use x="190.625" xlink:href="#DejaVuSans-58"/>
       <use x="224.316406" xlink:href="#DejaVuSans-50"/>
       <use x="287.939453" xlink:href="#DejaVuSans-53"/>
       <use x="351.5625" xlink:href="#DejaVuSans-109"/>
      </g>
     </g>
    </g>
    <g id="xtick_12">
     <g id="line2d_12">
      <g>
       <use style="stroke:#000000;stroke-width:0.8;" x="693.896739" xlink:href="#mbf4729b240" y="288.430125"/>
      </g>
     </g>
     <g id="text_12">
      <!-- 21h:20m -->
      <g transform="translate(671.448301 303.028562)scale(0.1 -0.1)">
       <use xlink:href="#DejaVuSans-50"/>
       <use x="63.623047" xlink:href="#DejaVuSans-49"/>
       <use x="127.246094" xlink:href="#DejaVuSans-104"/>
       <use x="190.625" xlink:href="#DejaVuSans-58"/>
       <use x="224.316406" xlink:href="#DejaVuSans-50"/>
       <use x="287.939453" xlink:href="#DejaVuSans-48"/>
       <use x="351.5625" xlink:href="#DejaVuSans-109"/>
      </g>
     </g>
    </g>
    <g id="text_13">
     <!-- Time (hour:minute) -->
     <g transform="translate(368.403594 316.706687)scale(0.1 -0.1)">
      <defs>
       <path d="M -0.296875 72.90625 
L 61.375 72.90625 
L 61.375 64.59375 
L 35.5 64.59375 
L 35.5 0 
L 25.59375 0 
L 25.59375 64.59375 
L -0.296875 64.59375 
z
" id="DejaVuSans-84"/>
       <path d="M 9.421875 54.6875 
L 18.40625 54.6875 
L 18.40625 0 
L 9.421875 0 
z
M 9.421875 75.984375 
L 18.40625 75.984375 
L 18.40625 64.59375 
L 9.421875 64.59375 
z
" id="DejaVuSans-105"/>
       <path d="M 56.203125 29.59375 
L 56.203125 25.203125 
L 14.890625 25.203125 
Q 15.484375 15.921875 20.484375 11.0625 
Q 25.484375 6.203125 34.421875 6.203125 
Q 39.59375 6.203125 44.453125 7.46875 
Q 49.3125 8.734375 54.109375 11.28125 
L 54.109375 2.78125 
Q 49.265625 0.734375 44.1875 -0.34375 
Q 39.109375 -1.421875 33.890625 -1.421875 
Q 20.796875 -1.421875 13.15625 6.1875 
Q 5.515625 13.8125 5.515625 26.8125 
Q 5.515625 40.234375 12.765625 48.109375 
Q 20.015625 56 32.328125 56 
Q 43.359375 56 49.78125 48.890625 
Q 56.203125 41.796875 56.203125 29.59375 
z
M 47.21875 32.234375 
Q 47.125 39.59375 43.09375 43.984375 
Q 39.0625 48.390625 32.421875 48.390625 
Q 24.90625 48.390625 20.390625 44.140625 
Q 15.875 39.890625 15.1875 32.171875 
z
" id="DejaVuSans-101"/>
       <path id="DejaVuSans-32"/>
       <path d="M 31 75.875 
Q 24.46875 64.65625 21.28125 53.65625 
Q 18.109375 42.671875 18.109375 31.390625 
Q 18.109375 20.125 21.3125 9.0625 
Q 24.515625 -2 31 -13.1875 
L 23.1875 -13.1875 
Q 15.875 -1.703125 12.234375 9.375 
Q 8.59375 20.453125 8.59375 31.390625 
Q 8.59375 42.28125 12.203125 53.3125 
Q 15.828125 64.359375 23.1875 75.875 
z
" id="DejaVuSans-40"/>
       <path d="M 30.609375 48.390625 
Q 23.390625 48.390625 19.1875 42.75 
Q 14.984375 37.109375 14.984375 27.296875 
Q 14.984375 17.484375 19.15625 11.84375 
Q 23.34375 6.203125 30.609375 6.203125 
Q 37.796875 6.203125 41.984375 11.859375 
Q 46.1875 17.53125 46.1875 27.296875 
Q 46.1875 37.015625 41.984375 42.703125 
Q 37.796875 48.390625 30.609375 48.390625 
z
M 30.609375 56 
Q 42.328125 56 49.015625 48.375 
Q 55.71875 40.765625 55.71875 27.296875 
Q 55.71875 13.875 49.015625 6.21875 
Q 42.328125 -1.421875 30.609375 -1.421875 
Q 18.84375 -1.421875 12.171875 6.21875 
Q 5.515625 13.875 5.515625 27.296875 
Q 5.515625 40.765625 12.171875 48.375 
Q 18.84375 56 30.609375 56 
z
" id="DejaVuSans-111"/>
       <path d="M 8.5 21.578125 
L 8.5 54.6875 
L 17.484375 54.6875 
L 17.484375 21.921875 
Q 17.484375 14.15625 20.5 10.265625 
Q 23.53125 6.390625 29.59375 6.390625 
Q 36.859375 6.390625 41.078125 11.03125 
Q 45.3125 15.671875 45.3125 23.6875 
L 45.3125 54.6875 
L 54.296875 54.6875 
L 54.296875 0 
L 45.3125 0 
L 45.3125 8.40625 
Q 42.046875 3.421875 37.71875 1 
Q 33.40625 -1.421875 27.6875 -1.421875 
Q 18.265625 -1.421875 13.375 4.4375 
Q 8.5 10.296875 8.5 21.578125 
z
M 31.109375 56 
z
" id="DejaVuSans-117"/>
       <path d="M 41.109375 46.296875 
Q 39.59375 47.171875 37.8125 47.578125 
Q 36.03125 48 33.890625 48 
Q 26.265625 48 22.1875 43.046875 
Q 18.109375 38.09375 18.109375 28.8125 
L 18.109375 0 
L 9.078125 0 
L 9.078125 54.6875 
L 18.109375 54.6875 
L 18.109375 46.1875 
Q 20.953125 51.171875 25.484375 53.578125 
Q 30.03125 56 36.53125 56 
Q 37.453125 56 38.578125 55.875 
Q 39.703125 55.765625 41.0625 55.515625 
z
" id="DejaVuSans-114"/>
       <path d="M 54.890625 33.015625 
L 54.890625 0 
L 45.90625 0 
L 45.90625 32.71875 
Q 45.90625 40.484375 42.875 44.328125 
Q 39.84375 48.1875 33.796875 48.1875 
Q 26.515625 48.1875 22.3125 43.546875 
Q 18.109375 38.921875 18.109375 30.90625 
L 18.109375 0 
L 9.078125 0 
L 9.078125 54.6875 
L 18.109375 54.6875 
L 18.109375 46.1875 
Q 21.34375 51.125 25.703125 53.5625 
Q 30.078125 56 35.796875 56 
Q 45.21875 56 50.046875 50.171875 
Q 54.890625 44.34375 54.890625 33.015625 
z
" id="DejaVuSans-110"/>
       <path d="M 18.3125 70.21875 
L 18.3125 54.6875 
L 36.8125 54.6875 
L 36.8125 47.703125 
L 18.3125 47.703125 
L 18.3125 18.015625 
Q 18.3125 11.328125 20.140625 9.421875 
Q 21.96875 7.515625 27.59375 7.515625 
L 36.8125 7.515625 
L 36.8125 0 
L 27.59375 0 
Q 17.1875 0 13.234375 3.875 
Q 9.28125 7.765625 9.28125 18.015625 
L 9.28125 47.703125 
L 2.6875 47.703125 
L 2.6875 54.6875 
L 9.28125 54.6875 
L 9.28125 70.21875 
z
" id="DejaVuSans-116"/>
       <path d="M 8.015625 75.875 
L 15.828125 75.875 
Q 23.140625 64.359375 26.78125 53.3125 
Q 30.421875 42.28125 30.421875 31.390625 
Q 30.421875 20.453125 26.78125 9.375 
Q 23.140625 -1.703125 15.828125 -13.1875 
L 8.015625 -13.1875 
Q 14.5 -2 17.703125 9.0625 
Q 20.90625 20.125 20.90625 31.390625 
Q 20.90625 42.671875 17.703125 53.65625 
Q 14.5 64.65625 8.015625 75.875 
z
" id="DejaVuSans-41"/>
      </defs>
      <use xlink:href="#DejaVuSans-84"/>
      <use x="57.958984" xlink:href="#DejaVuSans-105"/>
      <use x="85.742188" xlink:href="#DejaVuSans-109"/>
      <use x="183.154297" xlink:href="#DejaVuSans-101"/>
      <use x="244.677734" xlink:href="#DejaVuSans-32"/>
      <use x="276.464844" xlink:href="#DejaVuSans-40"/>
      <use x="315.478516" xlink:href="#DejaVuSans-104"/>
      <use x="378.857422" xlink:href="#DejaVuSans-111"/>
      <use x="440.039062" xlink:href="#DejaVuSans-117"/>
      <use x="503.417969" xlink:href="#DejaVuSans-114"/>
      <use x="542.78125" xlink:href="#DejaVuSans-58"/>
      <use x="576.472656" xlink:href="#DejaVuSans-109"/>
      <use x="673.884766" xlink:href="#DejaVuSans-105"/>
      <use x="701.667969" xlink:href="#DejaVuSans-110"/>
      <use x="765.046875" xlink:href="#DejaVuSans-117"/>
      <use x="828.425781" xlink:href="#DejaVuSans-116"/>
      <use x="867.634766" xlink:href="#DejaVuSans-101"/>
      <use x="929.158203" xlink:href="#DejaVuSans-41"/>
     </g>
    </g>
   </g>
   <g id="matplotlib.axis_2">
    <g id="ytick_1">
     <g id="line2d_13">
      <defs>
       <path d="M 0 0 
L -3.5 0 
" id="m41ceb10c13" style="stroke:#000000;stroke-width:0.8;"/>
      </defs>
      <g>
       <use style="stroke:#000000;stroke-width:0.8;" x="59.690625" xlink:href="#m41ceb10c13" y="286.241561"/>
      </g>
     </g>
     <g id="text_14">
      <!-- 15000 -->
      <g transform="translate(20.878125 290.04078)scale(0.1 -0.1)">
       <use xlink:href="#DejaVuSans-49"/>
       <use x="63.623047" xlink:href="#DejaVuSans-53"/>
       <use x="127.246094" xlink:href="#DejaVuSans-48"/>
       <use x="190.869141" xlink:href="#DejaVuSans-48"/>
       <use x="254.492188" xlink:href="#DejaVuSans-48"/>
      </g>
     </g>
    </g>
    <g id="ytick_2">
     <g id="line2d_14">
      <g>
       <use style="stroke:#000000;stroke-width:0.8;" x="59.690625" xlink:href="#m41ceb10c13" y="244.908911"/>
      </g>
     </g>
     <g id="text_15">
      <!-- 15500 -->
      <g transform="translate(20.878125 248.70813)scale(0.1 -0.1)">
       <use xlink:href="#DejaVuSans-49"/>
       <use x="63.623047" xlink:href="#DejaVuSans-53"/>
       <use x="127.246094" xlink:href="#DejaVuSans-53"/>
       <use x="190.869141" xlink:href="#DejaVuSans-48"/>
       <use x="254.492188" xlink:href="#DejaVuSans-48"/>
      </g>
     </g>
    </g>
    <g id="ytick_3">
     <g id="line2d_15">
      <g>
       <use style="stroke:#000000;stroke-width:0.8;" x="59.690625" xlink:href="#m41ceb10c13" y="203.576261"/>
      </g>
     </g>
     <g id="text_16">
      <!-- 16000 -->
      <g transform="translate(20.878125 207.37548)scale(0.1 -0.1)">
       <use xlink:href="#DejaVuSans-49"/>
       <use x="63.623047" xlink:href="#DejaVuSans-54"/>
       <use x="127.246094" xlink:href="#DejaVuSans-48"/>
       <use x="190.869141" xlink:href="#DejaVuSans-48"/>
       <use x="254.492188" xlink:href="#DejaVuSans-48"/>
      </g>
     </g>
    </g>
    <g id="ytick_4">
     <g id="line2d_16">
      <g>
       <use style="stroke:#000000;stroke-width:0.8;" x="59.690625" xlink:href="#m41ceb10c13" y="162.243611"/>
      </g>
     </g>
     <g id="text_17">
      <!-- 16500 -->
      <g transform="translate(20.878125 166.04283)scale(0.1 -0.1)">
       <use xlink:href="#DejaVuSans-49"/>
       <use x="63.623047" xlink:href="#DejaVuSans-54"/>
       <use x="127.246094" xlink:href="#DejaVuSans-53"/>
       <use x="190.869141" xlink:href="#DejaVuSans-48"/>
       <use x="254.492188" xlink:href="#DejaVuSans-48"/>
      </g>
     </g>
    </g>
    <g id="ytick_5">
     <g id="line2d_17">
      <g>
       <use style="stroke:#000000;stroke-width:0.8;" x="59.690625" xlink:href="#m41ceb10c13" y="120.910961"/>
      </g>
     </g>
     <g id="text_18">
      <!-- 17000 -->
      <g transform="translate(20.878125 124.71018)scale(0.1 -0.1)">
       <use xlink:href="#DejaVuSans-49"/>
       <use x="63.623047" xlink:href="#DejaVuSans-55"/>
       <use x="127.246094" xlink:href="#DejaVuSans-48"/>
       <use x="190.869141" xlink:href="#DejaVuSans-48"/>
       <use x="254.492188" xlink:href="#DejaVuSans-48"/>
      </g>
     </g>
    </g>
    <g id="ytick_6">
     <g id="line2d_18">
      <g>
       <use style="stroke:#000000;stroke-width:0.8;" x="59.690625" xlink:href="#m41ceb10c13" y="79.578312"/>
      </g>
     </g>
     <g id="text_19">
      <!-- 17500 -->
      <g transform="translate(20.878125 83.37753)scale(0.1 -0.1)">
       <use xlink:href="#DejaVuSans-49"/>
       <use x="63.623047" xlink:href="#DejaVuSans-55"/>
       <use x="127.246094" xlink:href="#DejaVuSans-53"/>
       <use x="190.869141" xlink:href="#DejaVuSans-48"/>
       <use x="254.492188" xlink:href="#DejaVuSans-48"/>
      </g>
     </g>
    </g>
    <g id="ytick_7">
     <g id="line2d_19">
      <g>
       <use style="stroke:#000000;stroke-width:0.8;" x="59.690625" xlink:href="#m41ceb10c13" y="38.245662"/>
      </g>
     </g>
     <g id="text_20">
      <!-- 18000 -->
      <g transform="translate(20.878125 42.04488)scale(0.1 -0.1)">
       <defs>
        <path d="M 31.78125 34.625 
Q 24.75 34.625 20.71875 30.859375 
Q 16.703125 27.09375 16.703125 20.515625 
Q 16.703125 13.921875 20.71875 10.15625 
Q 24.75 6.390625 31.78125 6.390625 
Q 38.8125 6.390625 42.859375 10.171875 
Q 46.921875 13.96875 46.921875 20.515625 
Q 46.921875 27.09375 42.890625 30.859375 
Q 38.875 34.625 31.78125 34.625 
z
M 21.921875 38.8125 
Q 15.578125 40.375 12.03125 44.71875 
Q 8.5 49.078125 8.5 55.328125 
Q 8.5 64.0625 14.71875 69.140625 
Q 20.953125 74.21875 31.78125 74.21875 
Q 42.671875 74.21875 48.875 69.140625 
Q 55.078125 64.0625 55.078125 55.328125 
Q 55.078125 49.078125 51.53125 44.71875 
Q 48 40.375 41.703125 38.8125 
Q 48.828125 37.15625 52.796875 32.3125 
Q 56.78125 27.484375 56.78125 20.515625 
Q 56.78125 9.90625 50.3125 4.234375 
Q 43.84375 -1.421875 31.78125 -1.421875 
Q 19.734375 -1.421875 13.25 4.234375 
Q 6.78125 9.90625 6.78125 20.515625 
Q 6.78125 27.484375 10.78125 32.3125 
Q 14.796875 37.15625 21.921875 38.8125 
z
M 18.3125 54.390625 
Q 18.3125 48.734375 21.84375 45.5625 
Q 25.390625 42.390625 31.78125 42.390625 
Q 38.140625 42.390625 41.71875 45.5625 
Q 45.3125 48.734375 45.3125 54.390625 
Q 45.3125 60.0625 41.71875 63.234375 
Q 38.140625 66.40625 31.78125 66.40625 
Q 25.390625 66.40625 21.84375 63.234375 
Q 18.3125 60.0625 18.3125 54.390625 
z
" id="DejaVuSans-56"/>
       </defs>
       <use xlink:href="#DejaVuSans-49"/>
       <use x="63.623047" xlink:href="#DejaVuSans-56"/>
       <use x="127.246094" xlink:href="#DejaVuSans-48"/>
       <use x="190.869141" xlink:href="#DejaVuSans-48"/>
       <use x="254.492188" xlink:href="#DejaVuSans-48"/>
      </g>
     </g>
    </g>
    <g id="text_21">
     <!-- Edge coverage -->
     <g transform="translate(14.798437 192.762406)rotate(-90)scale(0.1 -0.1)">
      <defs>
       <path d="M 9.8125 72.90625 
L 55.90625 72.90625 
L 55.90625 64.59375 
L 19.671875 64.59375 
L 19.671875 43.015625 
L 54.390625 43.015625 
L 54.390625 34.71875 
L 19.671875 34.71875 
L 19.671875 8.296875 
L 56.78125 8.296875 
L 56.78125 0 
L 9.8125 0 
z
" id="DejaVuSans-69"/>
       <path d="M 45.40625 46.390625 
L 45.40625 75.984375 
L 54.390625 75.984375 
L 54.390625 0 
L 45.40625 0 
L 45.40625 8.203125 
Q 42.578125 3.328125 38.25 0.953125 
Q 33.9375 -1.421875 27.875 -1.421875 
Q 17.96875 -1.421875 11.734375 6.484375 
Q 5.515625 14.40625 5.515625 27.296875 
Q 5.515625 40.1875 11.734375 48.09375 
Q 17.96875 56 27.875 56 
Q 33.9375 56 38.25 53.625 
Q 42.578125 51.265625 45.40625 46.390625 
z
M 14.796875 27.296875 
Q 14.796875 17.390625 18.875 11.75 
Q 22.953125 6.109375 30.078125 6.109375 
Q 37.203125 6.109375 41.296875 11.75 
Q 45.40625 17.390625 45.40625 27.296875 
Q 45.40625 37.203125 41.296875 42.84375 
Q 37.203125 48.484375 30.078125 48.484375 
Q 22.953125 48.484375 18.875 42.84375 
Q 14.796875 37.203125 14.796875 27.296875 
z
" id="DejaVuSans-100"/>
       <path d="M 45.40625 27.984375 
Q 45.40625 37.75 41.375 43.109375 
Q 37.359375 48.484375 30.078125 48.484375 
Q 22.859375 48.484375 18.828125 43.109375 
Q 14.796875 37.75 14.796875 27.984375 
Q 14.796875 18.265625 18.828125 12.890625 
Q 22.859375 7.515625 30.078125 7.515625 
Q 37.359375 7.515625 41.375 12.890625 
Q 45.40625 18.265625 45.40625 27.984375 
z
M 54.390625 6.78125 
Q 54.390625 -7.171875 48.1875 -13.984375 
Q 42 -20.796875 29.203125 -20.796875 
Q 24.46875 -20.796875 20.265625 -20.09375 
Q 16.0625 -19.390625 12.109375 -17.921875 
L 12.109375 -9.1875 
Q 16.0625 -11.328125 19.921875 -12.34375 
Q 23.78125 -13.375 27.78125 -13.375 
Q 36.625 -13.375 41.015625 -8.765625 
Q 45.40625 -4.15625 45.40625 5.171875 
L 45.40625 9.625 
Q 42.625 4.78125 38.28125 2.390625 
Q 33.9375 0 27.875 0 
Q 17.828125 0 11.671875 7.65625 
Q 5.515625 15.328125 5.515625 27.984375 
Q 5.515625 40.671875 11.671875 48.328125 
Q 17.828125 56 27.875 56 
Q 33.9375 56 38.28125 53.609375 
Q 42.625 51.21875 45.40625 46.390625 
L 45.40625 54.6875 
L 54.390625 54.6875 
z
" id="DejaVuSans-103"/>
       <path d="M 48.78125 52.59375 
L 48.78125 44.1875 
Q 44.96875 46.296875 41.140625 47.34375 
Q 37.3125 48.390625 33.40625 48.390625 
Q 24.65625 48.390625 19.8125 42.84375 
Q 14.984375 37.3125 14.984375 27.296875 
Q 14.984375 17.28125 19.8125 11.734375 
Q 24.65625 6.203125 33.40625 6.203125 
Q 37.3125 6.203125 41.140625 7.25 
Q 44.96875 8.296875 48.78125 10.40625 
L 48.78125 2.09375 
Q 45.015625 0.34375 40.984375 -0.53125 
Q 36.96875 -1.421875 32.421875 -1.421875 
Q 20.0625 -1.421875 12.78125 6.34375 
Q 5.515625 14.109375 5.515625 27.296875 
Q 5.515625 40.671875 12.859375 48.328125 
Q 20.21875 56 33.015625 56 
Q 37.15625 56 41.109375 55.140625 
Q 45.0625 54.296875 48.78125 52.59375 
z
" id="DejaVuSans-99"/>
       <path d="M 2.984375 54.6875 
L 12.5 54.6875 
L 29.59375 8.796875 
L 46.6875 54.6875 
L 56.203125 54.6875 
L 35.6875 0 
L 23.484375 0 
z
" id="DejaVuSans-118"/>
       <path d="M 34.28125 27.484375 
Q 23.390625 27.484375 19.1875 25 
Q 14.984375 22.515625 14.984375 16.5 
Q 14.984375 11.71875 18.140625 8.90625 
Q 21.296875 6.109375 26.703125 6.109375 
Q 34.1875 6.109375 38.703125 11.40625 
Q 43.21875 16.703125 43.21875 25.484375 
L 43.21875 27.484375 
z
M 52.203125 31.203125 
L 52.203125 0 
L 43.21875 0 
L 43.21875 8.296875 
Q 40.140625 3.328125 35.546875 0.953125 
Q 30.953125 -1.421875 24.3125 -1.421875 
Q 15.921875 -1.421875 10.953125 3.296875 
Q 6 8.015625 6 15.921875 
Q 6 25.140625 12.171875 29.828125 
Q 18.359375 34.515625 30.609375 34.515625 
L 43.21875 34.515625 
L 43.21875 35.40625 
Q 43.21875 41.609375 39.140625 45 
Q 35.0625 48.390625 27.6875 48.390625 
Q 23 48.390625 18.546875 47.265625 
Q 14.109375 46.140625 10.015625 43.890625 
L 10.015625 52.203125 
Q 14.9375 54.109375 19.578125 55.046875 
Q 24.21875 56 28.609375 56 
Q 40.484375 56 46.34375 49.84375 
Q 52.203125 43.703125 52.203125 31.203125 
z
" id="DejaVuSans-97"/>
      </defs>
      <use xlink:href="#DejaVuSans-69"/>
      <use x="63.183594" xlink:href="#DejaVuSans-100"/>
      <use x="126.660156" xlink:href="#DejaVuSans-103"/>
      <use x="190.136719" xlink:href="#DejaVuSans-101"/>
      <use x="251.660156" xlink:href="#DejaVuSans-32"/>
      <use x="283.447266" xlink:href="#DejaVuSans-99"/>
      <use x="338.427734" xlink:href="#DejaVuSans-111"/>
      <use x="399.609375" xlink:href="#DejaVuSans-118"/>
      <use x="458.789062" xlink:href="#DejaVuSans-101"/>
      <use x="520.3125" xlink:href="#DejaVuSans-114"/>
      <use x="561.425781" xlink:href="#DejaVuSans-97"/>
      <use x="622.705078" xlink:href="#DejaVuSans-103"/>
      <use x="686.181641" xlink:href="#DejaVuSans-101"/>
     </g>
    </g>
   </g>
   <g id="line2d_20">
    <path clip-path="url(#peba4200438)" d="M 92.15608 276.334125 
L 99.291344 232.70338 
L 106.426609 206.320749 
L 113.561874 173.543958 
L 120.697138 141.279691 
L 127.832403 124.068776 
L 134.967668 115.632782 
L 142.102933 110.672864 
L 149.238197 108.135039 
L 156.373462 106.886793 
L 163.508727 105.382285 
L 170.643992 103.311519 
L 177.779256 100.786094 
L 184.914521 99.847843 
L 192.049786 97.719212 
L 199.185051 93.879408 
L 206.320315 92.651829 
L 213.45558 91.341584 
L 220.590845 89.237752 
L 227.72611 87.724977 
L 234.861374 86.158469 
L 241.996639 85.360749 
L 249.131904 84.637428 
L 256.267168 82.70306 
L 263.402433 81.103486 
L 270.537698 79.813908 
L 277.672963 78.772325 
L 284.808227 77.896073 
L 291.943492 76.490763 
L 299.078757 76.05677 
L 306.214022 74.477863 
L 313.349286 71.857373 
L 320.484551 70.906722 
L 327.619816 69.852739 
L 334.755081 68.554894 
L 341.890345 67.773707 
L 349.02561 67.430646 
L 356.160875 66.831322 
L 363.296139 65.459078 
L 370.431404 64.458828 
L 377.566669 63.380046 
L 384.701934 62.660858 
L 391.837198 62.057401 
L 398.972463 59.895704 
L 406.107728 59.709707 
L 413.242993 57.506677 
L 420.378257 57.097483 
L 427.513522 56.684157 
L 434.648787 56.225364 
L 441.784052 55.869904 
L 448.919316 55.543376 
L 456.054581 54.882053 
L 463.189846 54.49766 
L 470.325111 53.770205 
L 477.460375 51.835837 
L 484.59564 49.988267 
L 491.730905 49.806404 
L 498.866169 48.516825 
L 506.001434 48.169631 
L 513.136699 46.950318 
L 520.271964 46.412993 
L 527.407228 46.074066 
L 534.542493 45.681405 
L 541.677758 45.61114 
L 548.813023 45.483009 
L 555.948287 45.057282 
L 563.083552 44.672889 
L 570.218817 43.755304 
L 577.354082 43.519708 
L 584.489346 42.767454 
L 591.624611 41.283611 
L 598.759876 40.076698 
L 605.89514 39.754303 
L 613.030405 39.580706 
L 620.16567 39.092981 
L 627.300935 38.919384 
L 634.436199 38.224995 
L 641.571464 37.74967 
L 648.706729 37.443808 
L 655.841994 37.212345 
L 662.977258 36.972616 
L 670.112523 36.728753 
L 677.247788 36.650221 
L 684.383053 36.617155 
L 691.518317 36.377426 
L 698.653582 36.241028 
L 705.788847 36.026098 
L 712.924112 35.943433 
L 720.059376 35.856634 
L 727.194641 35.72437 
L 734.329906 34.645588 
L 741.46517 34.414125 
" style="fill:none;stroke:#1f77b4;stroke-linecap:square;stroke-width:1.5;"/>
   </g>
   <g id="line2d_21">
    <path clip-path="url(#peba4200438)" d="M 92.15608 138.485604 
L 99.291344 118.017676 
L 106.426609 110.354603 
L 113.561874 105.981608 
L 120.697138 102.017807 
L 127.832403 98.562398 
L 134.967668 95.979107 
L 142.102933 93.908341 
L 149.238197 92.205436 
L 156.373462 90.097471 
L 163.508727 87.807642 
L 170.643992 85.149953 
L 177.779256 83.409848 
L 184.914521 82.256667 
L 192.049786 80.661227 
L 199.185051 79.198051 
L 206.320315 77.858873 
L 213.45558 76.325432 
L 220.590845 74.267066 
L 227.72611 72.543495 
L 234.861374 71.439913 
L 241.996639 70.530595 
L 249.131904 69.546877 
L 256.267168 68.988887 
L 263.402433 68.327564 
L 270.537698 67.422379 
L 277.672963 66.413863 
L 284.808227 65.678141 
L 291.943492 64.768823 
L 299.078757 64.37203 
L 306.214022 63.888438 
L 313.349286 63.375913 
L 320.484551 62.896454 
L 327.619816 62.569926 
L 334.755081 62.127667 
L 341.890345 61.846605 
L 349.02561 61.491144 
L 356.160875 61.040618 
L 363.296139 60.664491 
L 370.431404 59.932903 
L 377.566669 59.176516 
L 384.701934 58.473861 
L 391.837198 57.932403 
L 398.972463 57.585209 
L 406.107728 57.30828 
L 413.242993 56.994152 
L 420.378257 56.717223 
L 427.513522 56.572559 
L 434.648787 56.25843 
L 441.784052 56.171632 
L 448.919316 55.960835 
L 456.054581 55.766572 
L 463.189846 55.530976 
L 470.325111 55.25818 
L 477.460375 55.022584 
L 484.59564 54.733256 
L 491.730905 54.237264 
L 498.866169 53.832204 
L 506.001434 53.274213 
L 513.136699 53.162615 
L 520.271964 52.86502 
L 527.407228 52.666623 
L 534.542493 52.402094 
L 541.677758 51.604374 
L 548.813023 51.174515 
L 555.948287 50.947185 
L 563.083552 50.732255 
L 570.218817 50.628924 
L 577.354082 49.872536 
L 584.489346 49.752671 
L 591.624611 49.66174 
L 598.759876 49.521209 
L 605.89514 49.343478 
L 613.030405 49.186414 
L 620.16567 48.864019 
L 627.300935 48.566424 
L 634.436199 48.442426 
L 641.571464 48.21923 
L 648.706729 47.698439 
L 655.841994 47.533108 
L 662.977258 47.00405 
L 670.112523 46.768454 
L 677.247788 46.594857 
L 684.383053 46.425393 
L 691.518317 46.371661 
L 698.653582 46.264196 
L 705.788847 46.007933 
L 712.924112 45.979 
L 720.059376 45.838469 
L 727.194641 45.797137 
L 734.329906 45.627673 
L 741.46517 45.565674 
" style="fill:none;stroke:#e377c2;stroke-linecap:square;stroke-width:1.5;"/>
   </g>
   <g id="line2d_22">
    <path clip-path="url(#peba4200438)" d="M 92.15608 156.634771 
L 99.291344 126.920729 
L 106.426609 113.450418 
L 113.561874 106.762795 
L 120.697138 102.323669 
L 127.832403 99.331185 
L 134.967668 97.756411 
L 142.102933 95.640179 
L 149.238197 94.429133 
L 156.373462 93.38755 
L 163.508727 92.15997 
L 170.643992 90.899324 
L 177.779256 90.010672 
L 184.914521 89.142687 
L 192.049786 87.886174 
L 199.185051 86.902457 
L 206.320315 86.245268 
L 213.45558 85.534346 
L 220.590845 84.52583 
L 227.72611 84.029838 
L 234.861374 83.339583 
L 241.996639 82.426131 
L 249.131904 81.897073 
L 256.267168 81.401081 
L 263.402433 80.987755 
L 270.537698 80.698426 
L 277.672963 80.421498 
L 284.808227 79.970972 
L 291.943492 79.627911 
L 299.078757 79.127786 
L 306.214022 78.929389 
L 313.349286 78.371398 
L 320.484551 78.173001 
L 327.619816 78.065537 
L 334.755081 77.681143 
L 341.890345 77.46208 
L 349.02561 77.028087 
L 356.160875 76.763558 
L 363.296139 76.147702 
L 370.431404 75.676509 
L 377.566669 75.151585 
L 384.701934 74.874656 
L 391.837198 74.610127 
L 398.972463 74.2588 
L 406.107728 73.671876 
L 413.242993 73.560278 
L 420.378257 73.20895 
L 427.513522 73.039486 
L 434.648787 72.969221 
L 441.784052 72.79149 
L 448.919316 72.655093 
L 456.054581 72.510428 
L 463.189846 72.419497 
L 470.325111 72.324432 
L 477.460375 72.159101 
L 484.59564 72.092969 
L 491.730905 71.915238 
L 498.866169 71.518445 
L 506.001434 71.320048 
L 513.136699 71.303515 
L 520.271964 71.014187 
L 527.407228 70.923255 
L 534.542493 70.472729 
L 541.677758 70.323931 
L 548.813023 69.745274 
L 555.948287 69.522078 
L 563.083552 69.39808 
L 570.218817 69.311281 
L 577.354082 68.881422 
L 584.489346 68.757424 
L 591.624611 68.534228 
L 598.759876 68.435029 
L 605.89514 68.211833 
L 613.030405 68.166367 
L 620.16567 68.116768 
L 627.300935 68.054769 
L 634.436199 68.009303 
L 641.571464 67.988637 
L 648.706729 67.96797 
L 655.841994 67.860505 
L 662.977258 67.819173 
L 670.112523 67.810906 
L 677.247788 67.781973 
L 684.383053 67.740641 
L 691.518317 67.715841 
L 698.653582 67.666242 
L 705.788847 67.554644 
L 712.924112 67.228116 
L 720.059376 67.128917 
L 727.194641 67.116518 
L 734.329906 67.099985 
L 741.46517 66.975987 
" style="fill:none;stroke:#ff7f0e;stroke-linecap:square;stroke-width:1.5;"/>
   </g>
   <g id="line2d_23">
    <path clip-path="url(#peba4200438)" d="M 92.15608 164.686371 
L 99.291344 148.041713 
L 106.426609 137.361356 
L 113.561874 131.698783 
L 120.697138 127.462187 
L 127.832403 123.692649 
L 134.967668 120.6051 
L 142.102933 118.009409 
L 149.238197 115.517051 
L 156.373462 113.872011 
L 163.508727 112.255905 
L 170.643992 111.181256 
L 177.779256 109.494884 
L 184.914521 106.568532 
L 192.049786 105.87001 
L 199.185051 105.167355 
L 206.320315 102.435267 
L 213.45558 100.525699 
L 220.590845 99.885042 
L 227.72611 99.141055 
L 234.861374 98.839326 
L 241.996639 98.359868 
L 249.131904 97.702679 
L 256.267168 96.946291 
L 263.402433 95.660846 
L 270.537698 94.850726 
L 277.672963 94.408466 
L 284.808227 93.904208 
L 291.943492 93.635546 
L 299.078757 93.437149 
L 306.214022 93.350351 
L 313.349286 92.99489 
L 320.484551 92.676628 
L 327.619816 92.230236 
L 334.755081 90.647195 
L 341.890345 90.209069 
L 349.02561 90.176003 
L 356.160875 89.365883 
L 363.296139 88.696294 
L 370.431404 88.307767 
L 377.566669 86.964456 
L 384.701934 86.418865 
L 391.837198 85.902207 
L 398.972463 84.794492 
L 406.107728 84.459698 
L 413.242993 84.13317 
L 420.378257 83.752909 
L 427.513522 83.364382 
L 434.648787 82.975855 
L 441.784052 82.570795 
L 448.919316 82.48813 
L 456.054581 82.3228 
L 463.189846 81.773075 
L 470.325111 81.698677 
L 477.460375 81.438281 
L 484.59564 81.066287 
L 491.730905 80.686027 
L 498.866169 80.438031 
L 506.001434 80.103236 
L 513.136699 79.793241 
L 520.271964 79.24765 
L 527.407228 79.185651 
L 534.542493 79.177385 
L 541.677758 78.255667 
L 548.813023 78.206068 
L 555.948287 77.974605 
L 563.083552 77.040487 
L 570.218817 77.007421 
L 577.354082 76.833824 
L 584.489346 76.767691 
L 591.624611 76.643693 
L 598.759876 76.470096 
L 605.89514 75.924505 
L 613.030405 75.659976 
L 620.16567 75.155718 
L 627.300935 75.077186 
L 634.436199 75.035853 
L 641.571464 74.936655 
L 648.706729 74.622527 
L 655.841994 74.155468 
L 662.977258 74.147201 
L 670.112523 74.143068 
L 677.247788 74.122402 
L 684.383053 73.977738 
L 691.518317 73.919872 
L 698.653582 73.870273 
L 705.788847 73.762808 
L 712.924112 73.432147 
L 720.059376 73.184151 
L 727.194641 73.035353 
L 734.329906 72.882422 
L 741.46517 72.729491 
" style="fill:none;stroke:#c5b0d5;stroke-linecap:square;stroke-width:1.5;"/>
   </g>
   <g id="line2d_24">
    <path clip-path="url(#peba4200438)" d="M 92.15608 167.294461 
L 99.291344 152.600704 
L 106.426609 142.449405 
L 113.561874 136.716567 
L 120.697138 130.752265 
L 127.832403 126.362738 
L 134.967668 122.506402 
L 142.102933 119.823913 
L 149.238197 118.550867 
L 156.373462 116.385036 
L 163.508727 114.673865 
L 170.643992 112.363369 
L 177.779256 111.673114 
L 184.914521 110.652198 
L 192.049786 109.399818 
L 199.185051 107.949042 
L 206.320315 107.432384 
L 213.45558 105.841077 
L 220.590845 104.911093 
L 227.72611 104.406834 
L 234.861374 103.741379 
L 241.996639 103.108989 
L 249.131904 102.736995 
L 256.267168 101.62928 
L 263.402433 100.488499 
L 270.537698 98.285469 
L 277.672963 97.79361 
L 284.808227 97.512548 
L 291.943492 97.02069 
L 299.078757 96.293235 
L 306.214022 95.706312 
L 313.349286 95.040856 
L 320.484551 94.726728 
L 327.619816 94.263802 
L 334.755081 93.991007 
L 341.890345 93.647946 
L 349.02561 93.317284 
L 356.160875 91.647445 
L 363.296139 91.36225 
L 370.431404 91.167987 
L 377.566669 91.060522 
L 384.701934 90.300001 
L 391.837198 90.002406 
L 398.972463 89.808142 
L 406.107728 89.489881 
L 413.242993 89.295618 
L 420.378257 88.849225 
L 427.513522 87.629912 
L 434.648787 87.373649 
L 441.784052 86.93139 
L 448.919316 86.856991 
L 456.054581 86.803259 
L 463.189846 86.675128 
L 470.325111 85.712077 
L 477.460375 85.596345 
L 484.59564 85.406215 
L 491.730905 84.91849 
L 498.866169 84.52583 
L 506.001434 84.3109 
L 513.136699 84.157969 
L 520.271964 83.194918 
L 527.407228 82.864257 
L 534.542493 82.793992 
L 541.677758 82.723726 
L 548.813023 82.496397 
L 555.948287 82.198802 
L 563.083552 82.09547 
L 570.218817 81.950806 
L 577.354082 80.66536 
L 584.489346 80.438031 
L 591.624611 80.173502 
L 598.759876 79.718843 
L 605.89514 79.627911 
L 613.030405 79.313783 
L 620.16567 79.061653 
L 627.300935 78.904589 
L 634.436199 78.739259 
L 641.571464 78.383798 
L 648.706729 77.809274 
L 655.841994 77.67701 
L 662.977258 77.643944 
L 670.112523 77.610877 
L 677.247788 77.152085 
L 684.383053 77.102486 
L 691.518317 76.825557 
L 698.653582 76.623027 
L 705.788847 76.499029 
L 712.924112 76.242767 
L 720.059376 76.040237 
L 727.194641 75.941038 
L 734.329906 75.821174 
L 741.46517 75.63931 
" style="fill:none;stroke:#dbdb8d;stroke-linecap:square;stroke-width:1.5;"/>
   </g>
   <g id="line2d_25">
    <path clip-path="url(#peba4200438)" d="M 92.15608 170.968934 
L 99.291344 153.64642 
L 106.426609 142.908198 
L 113.561874 137.13816 
L 120.697138 133.823281 
L 127.832403 131.281323 
L 134.967668 128.85923 
L 142.102933 125.341822 
L 149.238197 122.634533 
L 156.373462 121.249889 
L 163.508727 118.75753 
L 170.643992 117.224089 
L 177.779256 116.810763 
L 184.914521 115.917977 
L 192.049786 115.049992 
L 199.185051 112.086441 
L 206.320315 110.986992 
L 213.45558 110.296737 
L 220.590845 108.027575 
L 227.72611 105.365752 
L 234.861374 104.824294 
L 241.996639 103.538849 
L 249.131904 102.65433 
L 256.267168 102.220337 
L 263.402433 101.112622 
L 270.537698 99.43865 
L 277.672963 99.02119 
L 284.808227 96.094838 
L 291.943492 95.60298 
L 299.078757 95.011923 
L 306.214022 94.482865 
L 313.349286 94.102605 
L 320.484551 93.635546 
L 327.619816 93.259419 
L 334.755081 92.775827 
L 341.890345 92.436899 
L 349.02561 91.965707 
L 356.160875 91.709444 
L 363.296139 90.093338 
L 370.431404 89.646945 
L 377.566669 89.279085 
L 384.701934 89.026955 
L 391.837198 88.378033 
L 398.972463 88.068038 
L 406.107728 87.634045 
L 413.242993 87.580313 
L 420.378257 87.472848 
L 427.513522 87.233118 
L 434.648787 86.964456 
L 441.784052 86.542863 
L 448.919316 86.216335 
L 456.054581 85.910474 
L 463.189846 85.848475 
L 470.325111 85.517813 
L 477.460375 85.443415 
L 484.59564 85.327683 
L 491.730905 84.877157 
L 498.866169 84.426631 
L 506.001434 84.389432 
L 513.136699 84.149703 
L 520.271964 84.005038 
L 527.407228 83.852108 
L 534.542493 83.695044 
L 541.677758 83.343716 
L 548.813023 82.190535 
L 555.948287 82.07067 
L 563.083552 82.029338 
L 570.218817 81.033221 
L 577.354082 80.987755 
L 584.489346 80.929889 
L 591.624611 80.65296 
L 598.759876 80.371898 
L 605.89514 80.293366 
L 613.030405 80.07017 
L 620.16567 80.032971 
L 627.300935 79.917239 
L 634.436199 79.545245 
L 641.571464 79.359249 
L 648.706729 79.06992 
L 655.841994 79.04512 
L 662.977258 78.86739 
L 670.112523 78.540862 
L 677.247788 78.528462 
L 684.383053 78.296999 
L 691.518317 78.263933 
L 698.653582 78.168868 
L 705.788847 77.953938 
L 712.924112 77.817541 
L 720.059376 77.631544 
L 727.194641 77.429014 
L 734.329906 77.321549 
L 741.46517 77.08182 
" style="fill:none;stroke:#d62728;stroke-linecap:square;stroke-width:1.5;"/>
   </g>
   <g id="line2d_26">
    <path clip-path="url(#peba4200438)" d="M 92.15608 171.559991 
L 99.291344 145.21456 
L 106.426609 135.956046 
L 113.561874 132.186508 
L 120.697138 128.664967 
L 127.832403 126.474336 
L 134.967668 124.139041 
L 142.102933 121.898812 
L 149.238197 120.476969 
L 156.373462 118.253272 
L 163.508727 116.504901 
L 170.643992 115.264922 
L 177.779256 114.347337 
L 184.914521 112.842828 
L 192.049786 112.359236 
L 199.185051 111.70618 
L 206.320315 110.970459 
L 213.45558 110.234738 
L 220.590845 109.606482 
L 227.72611 109.143556 
L 234.861374 108.473967 
L 241.996639 108.068907 
L 249.131904 107.721713 
L 256.267168 107.134789 
L 263.402433 106.713196 
L 270.537698 106.204805 
L 277.672963 105.758412 
L 284.808227 105.506283 
L 291.943492 105.163222 
L 299.078757 104.774695 
L 306.214022 104.4771 
L 313.349286 104.158838 
L 320.484551 103.480983 
L 327.619816 103.26192 
L 334.755081 102.815527 
L 341.890345 102.612997 
L 349.02561 102.377401 
L 356.160875 102.212071 
L 363.296139 101.939275 
L 370.431404 101.447417 
L 377.566669 101.141555 
L 384.701934 101.07129 
L 391.837198 100.802627 
L 398.972463 100.4637 
L 406.107728 100.025573 
L 413.242993 99.810644 
L 420.378257 99.60398 
L 427.513522 99.277453 
L 434.648787 98.917858 
L 441.784052 98.599597 
L 448.919316 98.24827 
L 456.054581 97.921742 
L 463.189846 97.777077 
L 470.325111 97.227353 
L 477.460375 97.115755 
L 484.59564 96.698295 
L 491.730905 96.346968 
L 498.866169 96.136171 
L 506.001434 95.991507 
L 513.136699 95.731111 
L 520.271964 95.437649 
L 527.407228 95.350851 
L 534.542493 95.094588 
L 541.677758 94.763927 
L 548.813023 94.61513 
L 555.948287 94.433266 
L 563.083552 94.057139 
L 570.218817 94.019939 
L 577.354082 93.424749 
L 584.489346 93.102355 
L 591.624611 92.99489 
L 598.759876 92.965957 
L 605.89514 92.858492 
L 613.030405 92.746894 
L 620.16567 92.585697 
L 627.300935 92.383167 
L 634.436199 92.317034 
L 641.571464 92.17237 
L 648.706729 92.023572 
L 655.841994 91.829309 
L 662.977258 91.626779 
L 670.112523 91.378783 
L 677.247788 91.271318 
L 684.383053 91.048122 
L 691.518317 90.986123 
L 698.653582 90.808393 
L 705.788847 90.787726 
L 712.924112 90.750527 
L 720.059376 90.469465 
L 727.194641 90.295868 
L 734.329906 90.002406 
L 741.46517 89.915607 
" style="fill:none;stroke:#2ca02c;stroke-linecap:square;stroke-width:1.5;"/>
   </g>
   <g id="line2d_27">
    <path clip-path="url(#peba4200438)" d="M 92.15608 203.398531 
L 99.291344 180.045584 
L 106.426609 168.240979 
L 113.561874 159.391659 
L 120.697138 154.448274 
L 127.832403 150.765535 
L 134.967668 146.144544 
L 142.102933 143.251259 
L 149.238197 139.853715 
L 156.373462 137.634152 
L 163.508727 135.736983 
L 170.643992 134.145676 
L 177.779256 132.814765 
L 184.914521 131.045727 
L 192.049786 129.888413 
L 199.185051 129.421354 
L 206.320315 128.334305 
L 213.45558 127.292723 
L 220.590845 126.842197 
L 227.72611 125.961811 
L 234.861374 125.271556 
L 241.996639 123.713315 
L 249.131904 123.171857 
L 256.267168 122.576667 
L 263.402433 122.109608 
L 270.537698 121.853346 
L 277.672963 121.142424 
L 284.808227 120.824163 
L 291.943492 120.675365 
L 299.078757 120.423236 
L 306.214022 119.050992 
L 313.349286 118.819529 
L 320.484551 118.575667 
L 327.619816 118.315271 
L 334.755081 117.761414 
L 341.890345 117.306754 
L 349.02561 116.773563 
L 356.160875 116.475968 
L 363.296139 115.736114 
L 370.431404 114.446535 
L 377.566669 114.13654 
L 384.701934 113.781079 
L 391.837198 112.202172 
L 398.972463 111.396185 
L 406.107728 110.28847 
L 413.242993 110.003275 
L 420.378257 109.581682 
L 427.513522 108.957559 
L 434.648787 108.643431 
L 441.784052 108.494633 
L 448.919316 108.184639 
L 456.054581 108.093707 
L 463.189846 107.738246 
L 470.325111 107.498517 
L 477.460375 107.324919 
L 484.59564 107.159589 
L 491.730905 107.047991 
L 498.866169 106.795862 
L 506.001434 106.254404 
L 513.136699 105.783212 
L 520.271964 105.576548 
L 527.407228 105.498016 
L 534.542493 105.394685 
L 541.677758 105.345086 
L 548.813023 103.989375 
L 555.948287 103.770312 
L 563.083552 103.402451 
L 570.218817 103.352852 
L 577.354082 103.26192 
L 584.489346 103.150322 
L 591.624611 102.154205 
L 598.759876 102.112872 
L 605.89514 101.972341 
L 613.030405 101.025824 
L 620.16567 100.781961 
L 627.300935 100.699296 
L 634.436199 100.600097 
L 641.571464 100.554631 
L 648.706729 100.339702 
L 655.841994 99.422117 
L 662.977258 99.23612 
L 670.112523 99.025323 
L 677.247788 98.909592 
L 684.383053 98.744261 
L 691.518317 98.669863 
L 698.653582 98.4384 
L 705.788847 98.397067 
L 712.924112 97.983741 
L 720.059376 97.892809 
L 727.194641 97.789477 
L 734.329906 97.686146 
L 741.46517 97.661346 
" style="fill:none;stroke:#98df8a;stroke-linecap:square;stroke-width:1.5;"/>
   </g>
   <g id="line2d_28">
    <path clip-path="url(#peba4200438)" d="M 92.15608 170.59694 
L 99.291344 157.391158 
L 106.426609 154.072147 
L 113.561874 150.773801 
L 120.697138 148.145045 
L 127.832403 145.260026 
L 134.967668 144.7599 
L 142.102933 143.338057 
L 149.238197 141.643419 
L 156.373462 140.853965 
L 163.508727 139.853715 
L 170.643992 139.465188 
L 177.779256 139.179993 
L 184.914521 138.31614 
L 192.049786 137.547353 
L 199.185051 135.997379 
L 206.320315 135.807249 
L 213.45558 135.666718 
L 220.590845 135.50552 
L 227.72611 135.261658 
L 234.861374 134.162209 
L 241.996639 134.025811 
L 249.131904 133.575285 
L 256.267168 133.368622 
L 263.402433 133.128893 
L 270.537698 132.723833 
L 277.672963 132.471704 
L 284.808227 132.331173 
L 291.943492 132.318773 
L 299.078757 132.203041 
L 306.214022 132.066644 
L 313.349286 132.033578 
L 320.484551 131.847581 
L 327.619816 131.727716 
L 334.755081 131.611985 
L 341.890345 131.574785 
L 349.02561 131.566519 
L 356.160875 131.421854 
L 363.296139 130.508403 
L 370.431404 130.256274 
L 377.566669 130.177742 
L 384.701934 130.07441 
L 391.837198 129.780948 
L 398.972463 129.524686 
L 406.107728 129.421354 
L 413.242993 129.210558 
L 420.378257 129.202291 
L 427.513522 129.169225 
L 434.648787 129.169225 
L 441.784052 129.148559 
L 448.919316 129.057627 
L 456.054581 129.053494 
L 463.189846 129.04936 
L 470.325111 127.945779 
L 477.460375 127.88378 
L 484.59564 127.825914 
L 491.730905 127.825914 
L 498.866169 127.809381 
L 506.001434 127.763915 
L 513.136699 127.685383 
L 520.271964 127.63165 
L 527.407228 127.532452 
L 534.542493 127.532452 
L 541.677758 127.45392 
L 548.813023 127.404321 
L 555.948287 127.391921 
L 563.083552 127.292723 
L 570.218817 127.280323 
L 577.354082 127.280323 
L 584.489346 127.280323 
L 591.624611 127.27619 
L 598.759876 127.127392 
L 605.89514 127.123259 
L 613.030405 126.891796 
L 620.16567 126.891796 
L 627.300935 126.280073 
L 634.436199 126.280073 
L 641.571464 126.275939 
L 648.706729 126.267673 
L 655.841994 126.26354 
L 662.977258 126.259406 
L 670.112523 126.255273 
L 677.247788 126.247007 
L 684.383053 126.164341 
L 691.518317 125.788214 
L 698.653582 125.784081 
L 705.788847 124.82103 
L 712.924112 124.82103 
L 720.059376 124.796231 
L 727.194641 124.717699 
L 734.329906 124.672233 
L 741.46517 124.672233 
" style="fill:none;stroke:#ff9896;stroke-linecap:square;stroke-width:1.5;"/>
   </g>
   <g id="line2d_29"/>
   <g id="line2d_30"/>
   <g id="line2d_31"/>
   <g id="line2d_32"/>
   <g id="line2d_33"/>
   <g id="line2d_34"/>
   <g id="line2d_35"/>
   <g id="line2d_36"/>
   <g id="line2d_37"/>
   <g id="line2d_38"/>
   <g id="line2d_39">
    <path clip-path="url(#peba4200438)" d="M 741.46517 288.430125 
L 741.46517 22.318125 
" style="fill:none;stroke:#ff0000;stroke-linecap:square;stroke-width:1.5;"/>
   </g>
   <g id="patch_3">
    <path d="M 59.690625 286.241561 
L 59.690625 38.245662 
" style="fill:none;stroke:#000000;stroke-linecap:square;stroke-linejoin:miter;stroke-width:0.8;"/>
   </g>
   <g id="patch_4">
    <path d="M 92.15608 288.430125 
L 693.896739 288.430125 
" style="fill:none;stroke:#000000;stroke-linecap:square;stroke-linejoin:miter;stroke-width:0.8;"/>
   </g>
   <g id="text_22">
    <!-- curl_curl_fuzzer_http (23h, 20 trials/fuzzer) -->
    <g transform="translate(287.924063 16.318125)scale(0.12 -0.12)">
     <defs>
      <path d="M 9.421875 75.984375 
L 18.40625 75.984375 
L 18.40625 0 
L 9.421875 0 
z
" id="DejaVuSans-108"/>
      <path d="M 50.984375 -16.609375 
L 50.984375 -23.578125 
L -0.984375 -23.578125 
L -0.984375 -16.609375 
z
" id="DejaVuSans-95"/>
      <path d="M 37.109375 75.984375 
L 37.109375 68.5 
L 28.515625 68.5 
Q 23.6875 68.5 21.796875 66.546875 
Q 19.921875 64.59375 19.921875 59.515625 
L 19.921875 54.6875 
L 34.71875 54.6875 
L 34.71875 47.703125 
L 19.921875 47.703125 
L 19.921875 0 
L 10.890625 0 
L 10.890625 47.703125 
L 2.296875 47.703125 
L 2.296875 54.6875 
L 10.890625 54.6875 
L 10.890625 58.5 
Q 10.890625 67.625 15.140625 71.796875 
Q 19.390625 75.984375 28.609375 75.984375 
z
" id="DejaVuSans-102"/>
      <path d="M 5.515625 54.6875 
L 48.1875 54.6875 
L 48.1875 46.484375 
L 14.40625 7.171875 
L 48.1875 7.171875 
L 48.1875 0 
L 4.296875 0 
L 4.296875 8.203125 
L 38.09375 47.515625 
L 5.515625 47.515625 
z
" id="DejaVuSans-122"/>
      <path d="M 18.109375 8.203125 
L 18.109375 -20.796875 
L 9.078125 -20.796875 
L 9.078125 54.6875 
L 18.109375 54.6875 
L 18.109375 46.390625 
Q 20.953125 51.265625 25.265625 53.625 
Q 29.59375 56 35.59375 56 
Q 45.5625 56 51.78125 48.09375 
Q 58.015625 40.1875 58.015625 27.296875 
Q 58.015625 14.40625 51.78125 6.484375 
Q 45.5625 -1.421875 35.59375 -1.421875 
Q 29.59375 -1.421875 25.265625 0.953125 
Q 20.953125 3.328125 18.109375 8.203125 
z
M 48.6875 27.296875 
Q 48.6875 37.203125 44.609375 42.84375 
Q 40.53125 48.484375 33.40625 48.484375 
Q 26.265625 48.484375 22.1875 42.84375 
Q 18.109375 37.203125 18.109375 27.296875 
Q 18.109375 17.390625 22.1875 11.75 
Q 26.265625 6.109375 33.40625 6.109375 
Q 40.53125 6.109375 44.609375 11.75 
Q 48.6875 17.390625 48.6875 27.296875 
z
" id="DejaVuSans-112"/>
      <path d="M 11.71875 12.40625 
L 22.015625 12.40625 
L 22.015625 4 
L 14.015625 -11.625 
L 7.71875 -11.625 
L 11.71875 4 
z
" id="DejaVuSans-44"/>
      <path d="M 44.28125 53.078125 
L 44.28125 44.578125 
Q 40.484375 46.53125 36.375 47.5 
Q 32.28125 48.484375 27.875 48.484375 
Q 21.1875 48.484375 17.84375 46.4375 
Q 14.5 44.390625 14.5 40.28125 
Q 14.5 37.15625 16.890625 35.375 
Q 19.28125 33.59375 26.515625 31.984375 
L 29.59375 31.296875 
Q 39.15625 29.25 43.1875 25.515625 
Q 47.21875 21.78125 47.21875 15.09375 
Q 47.21875 7.46875 41.1875 3.015625 
Q 35.15625 -1.421875 24.609375 -1.421875 
Q 20.21875 -1.421875 15.453125 -0.5625 
Q 10.6875 0.296875 5.421875 2 
L 5.421875 11.28125 
Q 10.40625 8.6875 15.234375 7.390625 
Q 20.0625 6.109375 24.8125 6.109375 
Q 31.15625 6.109375 34.5625 8.28125 
Q 37.984375 10.453125 37.984375 14.40625 
Q 37.984375 18.0625 35.515625 20.015625 
Q 33.0625 21.96875 24.703125 23.78125 
L 21.578125 24.515625 
Q 13.234375 26.265625 9.515625 29.90625 
Q 5.8125 33.546875 5.8125 39.890625 
Q 5.8125 47.609375 11.28125 51.796875 
Q 16.75 56 26.8125 56 
Q 31.78125 56 36.171875 55.265625 
Q 40.578125 54.546875 44.28125 53.078125 
z
" id="DejaVuSans-115"/>
      <path d="M 25.390625 72.90625 
L 33.6875 72.90625 
L 8.296875 -9.28125 
L 0 -9.28125 
z
" id="DejaVuSans-47"/>
     </defs>
     <use xlink:href="#DejaVuSans-99"/>
     <use x="54.980469" xlink:href="#DejaVuSans-117"/>
     <use x="118.359375" xlink:href="#DejaVuSans-114"/>
     <use x="159.472656" xlink:href="#DejaVuSans-108"/>
     <use x="187.255859" xlink:href="#DejaVuSans-95"/>
     <use x="237.255859" xlink:href="#DejaVuSans-99"/>
     <use x="292.236328" xlink:href="#DejaVuSans-117"/>
     <use x="355.615234" xlink:href="#DejaVuSans-114"/>
     <use x="396.728516" xlink:href="#DejaVuSans-108"/>
     <use x="424.511719" xlink:href="#DejaVuSans-95"/>
     <use x="474.511719" xlink:href="#DejaVuSans-102"/>
     <use x="509.716797" xlink:href="#DejaVuSans-117"/>
     <use x="573.095703" xlink:href="#DejaVuSans-122"/>
     <use x="625.585938" xlink:href="#DejaVuSans-122"/>
     <use x="678.076172" xlink:href="#DejaVuSans-101"/>
     <use x="739.599609" xlink:href="#DejaVuSans-114"/>
     <use x="780.712891" xlink:href="#DejaVuSans-95"/>
     <use x="830.712891" xlink:href="#DejaVuSans-104"/>
     <use x="894.091797" xlink:href="#DejaVuSans-116"/>
     <use x="933.300781" xlink:href="#DejaVuSans-116"/>
     <use x="972.509766" xlink:href="#DejaVuSans-112"/>
     <use x="1035.986328" xlink:href="#DejaVuSans-32"/>
     <use x="1067.773438" xlink:href="#DejaVuSans-40"/>
     <use x="1106.787109" xlink:href="#DejaVuSans-50"/>
     <use x="1170.410156" xlink:href="#DejaVuSans-51"/>
     <use x="1234.033203" xlink:href="#DejaVuSans-104"/>
     <use x="1297.412109" xlink:href="#DejaVuSans-44"/>
     <use x="1329.199219" xlink:href="#DejaVuSans-32"/>
     <use x="1360.986328" xlink:href="#DejaVuSans-50"/>
     <use x="1424.609375" xlink:href="#DejaVuSans-48"/>
     <use x="1488.232422" xlink:href="#DejaVuSans-32"/>
     <use x="1520.019531" xlink:href="#DejaVuSans-116"/>
     <use x="1559.228516" xlink:href="#DejaVuSans-114"/>
     <use x="1600.341797" xlink:href="#DejaVuSans-105"/>
     <use x="1628.125" xlink:href="#DejaVuSans-97"/>
     <use x="1689.404297" xlink:href="#DejaVuSans-108"/>
     <use x="1717.1875" xlink:href="#DejaVuSans-115"/>
     <use x="1769.287109" xlink:href="#DejaVuSans-47"/>
     <use x="1802.978516" xlink:href="#DejaVuSans-102"/>
     <use x="1838.183594" xlink:href="#DejaVuSans-117"/>
     <use x="1901.5625" xlink:href="#DejaVuSans-122"/>
     <use x="1954.052734" xlink:href="#DejaVuSans-122"/>
     <use x="2006.542969" xlink:href="#DejaVuSans-101"/>
     <use x="2068.066406" xlink:href="#DejaVuSans-114"/>
     <use x="2109.179688" xlink:href="#DejaVuSans-41"/>
    </g>
   </g>
   <g id="legend_1">
    <g id="line2d_40">
     <path d="M 777.930625 30.416562 
L 797.930625 30.416562 
" style="fill:none;"/>
    </g>
    <g id="line2d_41"/>
    <g id="text_23">
     <!-- fuzzer -->
     <g transform="translate(805.930625 33.916562)scale(0.1 -0.1)">
      <use xlink:href="#DejaVuSans-102"/>
      <use x="35.205078" xlink:href="#DejaVuSans-117"/>
      <use x="98.583984" xlink:href="#DejaVuSans-122"/>
      <use x="151.074219" xlink:href="#DejaVuSans-122"/>
      <use x="203.564453" xlink:href="#DejaVuSans-101"/>
      <use x="265.087891" xlink:href="#DejaVuSans-114"/>
     </g>
    </g>
    <g id="line2d_42">
     <path d="M 777.930625 45.094688 
L 797.930625 45.094688 
" style="fill:none;stroke:#1f77b4;stroke-linecap:square;stroke-width:1.5;"/>
    </g>
    <g id="line2d_43"/>
    <g id="text_24">
     <!-- aflplusplus -->
     <g transform="translate(805.930625 48.594688)scale(0.1 -0.1)">
      <use xlink:href="#DejaVuSans-97"/>
      <use x="61.279297" xlink:href="#DejaVuSans-102"/>
      <use x="96.484375" xlink:href="#DejaVuSans-108"/>
      <use x="124.267578" xlink:href="#DejaVuSans-112"/>
      <use x="187.744141" xlink:href="#DejaVuSans-108"/>
      <use x="215.527344" xlink:href="#DejaVuSans-117"/>
      <use x="278.90625" xlink:href="#DejaVuSans-115"/>
      <use x="331.005859" xlink:href="#DejaVuSans-112"/>
      <use x="394.482422" xlink:href="#DejaVuSans-108"/>
      <use x="422.265625" xlink:href="#DejaVuSans-117"/>
      <use x="485.644531" xlink:href="#DejaVuSans-115"/>
     </g>
    </g>
    <g id="line2d_44">
     <path d="M 777.930625 59.772812 
L 797.930625 59.772812 
" style="fill:none;stroke:#e377c2;stroke-linecap:square;stroke-width:1.5;"/>
    </g>
    <g id="line2d_45"/>
    <g id="text_25">
     <!-- honggfuzz -->
     <g transform="translate(805.930625 63.272812)scale(0.1 -0.1)">
      <use xlink:href="#DejaVuSans-104"/>
      <use x="63.378906" xlink:href="#DejaVuSans-111"/>
      <use x="124.560547" xlink:href="#DejaVuSans-110"/>
      <use x="187.939453" xlink:href="#DejaVuSans-103"/>
      <use x="251.416016" xlink:href="#DejaVuSans-103"/>
      <use x="314.892578" xlink:href="#DejaVuSans-102"/>
      <use x="350.097656" xlink:href="#DejaVuSans-117"/>
      <use x="413.476562" xlink:href="#DejaVuSans-122"/>
      <use x="465.966797" xlink:href="#DejaVuSans-122"/>
     </g>
    </g>
    <g id="line2d_46">
     <path d="M 777.930625 74.450938 
L 797.930625 74.450938 
" style="fill:none;stroke:#ff7f0e;stroke-linecap:square;stroke-width:1.5;"/>
    </g>
    <g id="line2d_47"/>
    <g id="text_26">
     <!-- entropic -->
     <g transform="translate(805.930625 77.950938)scale(0.1 -0.1)">
      <use xlink:href="#DejaVuSans-101"/>
      <use x="61.523438" xlink:href="#DejaVuSans-110"/>
      <use x="124.902344" xlink:href="#DejaVuSans-116"/>
      <use x="164.111328" xlink:href="#DejaVuSans-114"/>
      <use x="202.974609" xlink:href="#DejaVuSans-111"/>
      <use x="264.15625" xlink:href="#DejaVuSans-112"/>
      <use x="327.632812" xlink:href="#DejaVuSans-105"/>
      <use x="355.416016" xlink:href="#DejaVuSans-99"/>
     </g>
    </g>
    <g id="line2d_48">
     <path d="M 777.930625 89.129063 
L 797.930625 89.129063 
" style="fill:none;stroke:#c5b0d5;stroke-linecap:square;stroke-width:1.5;"/>
    </g>
    <g id="line2d_49"/>
    <g id="text_27">
     <!-- mopt -->
     <g transform="translate(805.930625 92.629063)scale(0.1 -0.1)">
      <use xlink:href="#DejaVuSans-109"/>
      <use x="97.412109" xlink:href="#DejaVuSans-111"/>
      <use x="158.59375" xlink:href="#DejaVuSans-112"/>
      <use x="222.070312" xlink:href="#DejaVuSans-116"/>
     </g>
    </g>
    <g id="line2d_50">
     <path d="M 777.930625 103.807187 
L 797.930625 103.807187 
" style="fill:none;stroke:#dbdb8d;stroke-linecap:square;stroke-width:1.5;"/>
    </g>
    <g id="line2d_51"/>
    <g id="text_28">
     <!-- lafintel -->
     <g transform="translate(805.930625 107.307187)scale(0.1 -0.1)">
      <use xlink:href="#DejaVuSans-108"/>
      <use x="27.783203" xlink:href="#DejaVuSans-97"/>
      <use x="89.0625" xlink:href="#DejaVuSans-102"/>
      <use x="124.267578" xlink:href="#DejaVuSans-105"/>
      <use x="152.050781" xlink:href="#DejaVuSans-110"/>
      <use x="215.429688" xlink:href="#DejaVuSans-116"/>
      <use x="254.638672" xlink:href="#DejaVuSans-101"/>
      <use x="316.162109" xlink:href="#DejaVuSans-108"/>
     </g>
    </g>
    <g id="line2d_52">
     <path d="M 777.930625 118.485313 
L 797.930625 118.485313 
" style="fill:none;stroke:#d62728;stroke-linecap:square;stroke-width:1.5;"/>
    </g>
    <g id="line2d_53"/>
    <g id="text_29">
     <!-- aflplusplus_qemu -->
     <g transform="translate(805.930625 121.985313)scale(0.1 -0.1)">
      <defs>
       <path d="M 14.796875 27.296875 
Q 14.796875 17.390625 18.875 11.75 
Q 22.953125 6.109375 30.078125 6.109375 
Q 37.203125 6.109375 41.296875 11.75 
Q 45.40625 17.390625 45.40625 27.296875 
Q 45.40625 37.203125 41.296875 42.84375 
Q 37.203125 48.484375 30.078125 48.484375 
Q 22.953125 48.484375 18.875 42.84375 
Q 14.796875 37.203125 14.796875 27.296875 
z
M 45.40625 8.203125 
Q 42.578125 3.328125 38.25 0.953125 
Q 33.9375 -1.421875 27.875 -1.421875 
Q 17.96875 -1.421875 11.734375 6.484375 
Q 5.515625 14.40625 5.515625 27.296875 
Q 5.515625 40.1875 11.734375 48.09375 
Q 17.96875 56 27.875 56 
Q 33.9375 56 38.25 53.625 
Q 42.578125 51.265625 45.40625 46.390625 
L 45.40625 54.6875 
L 54.390625 54.6875 
L 54.390625 -20.796875 
L 45.40625 -20.796875 
z
" id="DejaVuSans-113"/>
      </defs>
      <use xlink:href="#DejaVuSans-97"/>
      <use x="61.279297" xlink:href="#DejaVuSans-102"/>
      <use x="96.484375" xlink:href="#DejaVuSans-108"/>
      <use x="124.267578" xlink:href="#DejaVuSans-112"/>
      <use x="187.744141" xlink:href="#DejaVuSans-108"/>
      <use x="215.527344" xlink:href="#DejaVuSans-117"/>
      <use x="278.90625" xlink:href="#DejaVuSans-115"/>
      <use x="331.005859" xlink:href="#DejaVuSans-112"/>
      <use x="394.482422" xlink:href="#DejaVuSans-108"/>
      <use x="422.265625" xlink:href="#DejaVuSans-117"/>
      <use x="485.644531" xlink:href="#DejaVuSans-115"/>
      <use x="537.744141" xlink:href="#DejaVuSans-95"/>
      <use x="587.744141" xlink:href="#DejaVuSans-113"/>
      <use x="651.220703" xlink:href="#DejaVuSans-101"/>
      <use x="712.744141" xlink:href="#DejaVuSans-109"/>
      <use x="810.15625" xlink:href="#DejaVuSans-117"/>
     </g>
    </g>
    <g id="line2d_54">
     <path d="M 777.930625 133.441563 
L 797.930625 133.441563 
" style="fill:none;stroke:#2ca02c;stroke-linecap:square;stroke-width:1.5;"/>
    </g>
    <g id="line2d_55"/>
    <g id="text_30">
     <!-- libfuzzer -->
     <g transform="translate(805.930625 136.941563)scale(0.1 -0.1)">
      <defs>
       <path d="M 48.6875 27.296875 
Q 48.6875 37.203125 44.609375 42.84375 
Q 40.53125 48.484375 33.40625 48.484375 
Q 26.265625 48.484375 22.1875 42.84375 
Q 18.109375 37.203125 18.109375 27.296875 
Q 18.109375 17.390625 22.1875 11.75 
Q 26.265625 6.109375 33.40625 6.109375 
Q 40.53125 6.109375 44.609375 11.75 
Q 48.6875 17.390625 48.6875 27.296875 
z
M 18.109375 46.390625 
Q 20.953125 51.265625 25.265625 53.625 
Q 29.59375 56 35.59375 56 
Q 45.5625 56 51.78125 48.09375 
Q 58.015625 40.1875 58.015625 27.296875 
Q 58.015625 14.40625 51.78125 6.484375 
Q 45.5625 -1.421875 35.59375 -1.421875 
Q 29.59375 -1.421875 25.265625 0.953125 
Q 20.953125 3.328125 18.109375 8.203125 
L 18.109375 0 
L 9.078125 0 
L 9.078125 75.984375 
L 18.109375 75.984375 
z
" id="DejaVuSans-98"/>
      </defs>
      <use xlink:href="#DejaVuSans-108"/>
      <use x="27.783203" xlink:href="#DejaVuSans-105"/>
      <use x="55.566406" xlink:href="#DejaVuSans-98"/>
      <use x="119.042969" xlink:href="#DejaVuSans-102"/>
      <use x="154.248047" xlink:href="#DejaVuSans-117"/>
      <use x="217.626953" xlink:href="#DejaVuSans-122"/>
      <use x="270.117188" xlink:href="#DejaVuSans-122"/>
      <use x="322.607422" xlink:href="#DejaVuSans-101"/>
      <use x="384.130859" xlink:href="#DejaVuSans-114"/>
     </g>
    </g>
    <g id="line2d_56">
     <path d="M 777.930625 148.119687 
L 797.930625 148.119687 
" style="fill:none;stroke:#98df8a;stroke-linecap:square;stroke-width:1.5;"/>
    </g>
    <g id="line2d_57"/>
    <g id="text_31">
     <!-- aflplusplus_flat -->
     <g transform="translate(805.930625 151.619687)scale(0.1 -0.1)">
      <use xlink:href="#DejaVuSans-97"/>
      <use x="61.279297" xlink:href="#DejaVuSans-102"/>
      <use x="96.484375" xlink:href="#DejaVuSans-108"/>
      <use x="124.267578" xlink:href="#DejaVuSans-112"/>
      <use x="187.744141" xlink:href="#DejaVuSans-108"/>
      <use x="215.527344" xlink:href="#DejaVuSans-117"/>
      <use x="278.90625" xlink:href="#DejaVuSans-115"/>
      <use x="331.005859" xlink:href="#DejaVuSans-112"/>
      <use x="394.482422" xlink:href="#DejaVuSans-108"/>
      <use x="422.265625" xlink:href="#DejaVuSans-117"/>
      <use x="485.644531" xlink:href="#DejaVuSans-115"/>
      <use x="537.744141" xlink:href="#DejaVuSans-95"/>
      <use x="587.744141" xlink:href="#DejaVuSans-102"/>
      <use x="622.949219" xlink:href="#DejaVuSans-108"/>
      <use x="650.732422" xlink:href="#DejaVuSans-97"/>
      <use x="712.011719" xlink:href="#DejaVuSans-116"/>
     </g>
    </g>
    <g id="line2d_58">
     <path d="M 777.930625 163.075938 
L 797.930625 163.075938 
" style="fill:none;stroke:#ff9896;stroke-linecap:square;stroke-width:1.5;"/>
    </g>
    <g id="line2d_59"/>
    <g id="text_32">
     <!-- fairfuzz -->
     <g transform="translate(805.930625 166.575938)scale(0.1 -0.1)">
      <use xlink:href="#DejaVuSans-102"/>
      <use x="35.205078" xlink:href="#DejaVuSans-97"/>
      <use x="96.484375" xlink:href="#DejaVuSans-105"/>
      <use x="124.267578" xlink:href="#DejaVuSans-114"/>
      <use x="165.380859" xlink:href="#DejaVuSans-102"/>
      <use x="200.585938" xlink:href="#DejaVuSans-117"/>
      <use x="263.964844" xlink:href="#DejaVuSans-122"/>
      <use x="316.455078" xlink:href="#DejaVuSans-122"/>
     </g>
    </g>
   </g>
  </g>
 </g>
 <defs>
  <clipPath id="peba4200438">
   <rect height="266.112" width="714.24" x="59.690625" y="22.318125"/>
  </clipPath>
 </defs>
</svg>
