<?xml version="1.0" encoding="utf-8" standalone="no"?>
<!DOCTYPE svg PUBLIC "-//W3C//DTD SVG 1.1//EN"
  "http://www.w3.org/Graphics/SVG/1.1/DTD/svg11.dtd">
<!-- Created with matplotlib (https://matplotlib.org/) -->
<svg height="368.607178pt" version="1.1" viewBox="0 0 424.010625 368.607178" width="424.010625pt" xmlns="http://www.w3.org/2000/svg" xmlns:xlink="http://www.w3.org/1999/xlink">
 <metadata>
  <rdf:RDF xmlns:cc="http://creativecommons.org/ns#" xmlns:dc="http://purl.org/dc/elements/1.1/" xmlns:rdf="http://www.w3.org/1999/02/22-rdf-syntax-ns#">
   <cc:Work>
    <dc:type rdf:resource="http://purl.org/dc/dcmitype/StillImage"/>
    <dc:date>2020-12-06T10:28:49.529767</dc:date>
    <dc:format>image/svg+xml</dc:format>
    <dc:creator>
     <cc:Agent>
      <dc:title>Matplotlib v3.3.3, https://matplotlib.org/</dc:title>
     </cc:Agent>
    </dc:creator>
   </cc:Work>
  </rdf:RDF>
 </metadata>
 <defs>
  <style type="text/css">*{stroke-linecap:butt;stroke-linejoin:round;}</style>
 </defs>
 <g id="figure_1">
  <g id="patch_1">
   <path d="M 0 368.607178 
L 424.010625 368.607178 
L 424.010625 0 
L 0 0 
z
" style="fill:#ffffff;"/>
  </g>
  <g id="axes_1">
   <g id="patch_2">
    <path d="M 59.690625 288.430125 
L 416.810625 288.430125 
L 416.810625 22.318125 
L 59.690625 22.318125 
z
" style="fill:#ffffff;"/>
   </g>
   <g id="PolyCollection_1">
    <defs>
     <path d="M 79.592338 -275.073547 
L 79.468912 -275.073547 
L 79.453777 -275.670714 
L 79.436091 -276.267881 
L 79.415736 -276.865048 
L 79.392668 -277.462214 
L 79.366927 -278.059381 
L 79.338651 -278.656548 
L 79.308076 -279.253715 
L 79.275534 -279.850881 
L 79.241443 -280.448048 
L 79.206278 -281.045215 
L 79.170551 -281.642381 
L 79.134766 -282.239548 
L 79.099383 -282.836715 
L 79.064774 -283.433882 
L 79.031183 -284.031048 
L 78.998689 -284.628215 
L 78.967186 -285.225382 
L 78.936368 -285.822548 
L 78.905732 -286.419715 
L 78.874596 -287.016882 
L 78.842131 -287.614049 
L 78.807401 -288.211215 
L 78.769416 -288.808382 
L 78.727184 -289.405549 
L 78.679765 -290.002716 
L 78.626314 -290.599882 
L 78.566121 -291.197049 
L 78.49863 -291.794216 
L 78.423456 -292.391382 
L 78.340376 -292.988549 
L 78.249326 -293.585716 
L 78.150378 -294.182883 
L 78.043719 -294.780049 
L 77.929635 -295.377216 
L 77.808492 -295.974383 
L 77.680728 -296.571549 
L 77.546855 -297.168716 
L 77.407457 -297.765883 
L 77.263203 -298.36305 
L 77.114856 -298.960216 
L 76.963282 -299.557383 
L 76.809454 -300.15455 
L 76.654447 -300.751717 
L 76.499431 -301.348883 
L 76.345651 -301.94605 
L 76.194407 -302.543217 
L 76.047025 -303.140383 
L 75.904831 -303.73755 
L 75.769129 -304.334717 
L 75.64118 -304.931884 
L 75.522183 -305.52905 
L 75.413273 -306.126217 
L 75.315501 -306.723384 
L 75.229837 -307.32055 
L 75.157148 -307.917717 
L 75.098192 -308.514884 
L 75.053593 -309.112051 
L 75.023814 -309.709217 
L 75.009132 -310.306384 
L 75.009612 -310.903551 
L 75.025083 -311.500718 
L 75.055129 -312.097884 
L 75.099098 -312.695051 
L 75.156119 -313.292218 
L 75.225149 -313.889384 
L 75.305026 -314.486551 
L 75.394543 -315.083718 
L 75.492519 -315.680885 
L 75.597873 -316.278051 
L 75.709684 -316.875218 
L 75.827233 -317.472385 
L 75.950025 -318.069551 
L 76.077777 -318.666718 
L 76.21039 -319.263885 
L 76.347886 -319.861052 
L 76.49034 -320.458218 
L 76.637796 -321.055385 
L 76.790184 -321.652552 
L 76.947254 -322.249718 
L 77.108513 -322.846885 
L 77.273201 -323.444052 
L 77.440282 -324.041219 
L 77.608465 -324.638385 
L 77.776253 -325.235552 
L 77.942006 -325.832719 
L 78.104021 -326.429886 
L 78.260612 -327.027052 
L 78.410199 -327.624219 
L 78.551379 -328.221386 
L 78.682984 -328.818552 
L 78.80413 -329.415719 
L 78.914236 -330.012886 
L 79.013031 -330.610053 
L 79.100538 -331.207219 
L 79.177048 -331.804386 
L 79.243078 -332.401553 
L 79.299328 -332.998719 
L 79.346625 -333.595886 
L 79.38588 -334.193053 
L 79.67537 -334.193053 
L 79.67537 -334.193053 
L 79.714625 -333.595886 
L 79.761922 -332.998719 
L 79.818172 -332.401553 
L 79.884202 -331.804386 
L 79.960712 -331.207219 
L 80.048219 -330.610053 
L 80.147014 -330.012886 
L 80.25712 -329.415719 
L 80.378266 -328.818552 
L 80.509871 -328.221386 
L 80.651051 -327.624219 
L 80.800638 -327.027052 
L 80.957229 -326.429886 
L 81.119244 -325.832719 
L 81.284997 -325.235552 
L 81.452785 -324.638385 
L 81.620968 -324.041219 
L 81.788049 -323.444052 
L 81.952737 -322.846885 
L 82.113996 -322.249718 
L 82.271066 -321.652552 
L 82.423454 -321.055385 
L 82.57091 -320.458218 
L 82.713364 -319.861052 
L 82.85086 -319.263885 
L 82.983473 -318.666718 
L 83.111225 -318.069551 
L 83.234017 -317.472385 
L 83.351566 -316.875218 
L 83.463377 -316.278051 
L 83.568731 -315.680885 
L 83.666707 -315.083718 
L 83.756224 -314.486551 
L 83.836101 -313.889384 
L 83.905131 -313.292218 
L 83.962152 -312.695051 
L 84.006121 -312.097884 
L 84.036167 -311.500718 
L 84.051638 -310.903551 
L 84.052118 -310.306384 
L 84.037436 -309.709217 
L 84.007657 -309.112051 
L 83.963058 -308.514884 
L 83.904102 -307.917717 
L 83.831413 -307.32055 
L 83.745749 -306.723384 
L 83.647977 -306.126217 
L 83.539067 -305.52905 
L 83.42007 -304.931884 
L 83.292121 -304.334717 
L 83.156419 -303.73755 
L 83.014225 -303.140383 
L 82.866843 -302.543217 
L 82.715599 -301.94605 
L 82.561819 -301.348883 
L 82.406803 -300.751717 
L 82.251796 -300.15455 
L 82.097968 -299.557383 
L 81.946394 -298.960216 
L 81.798047 -298.36305 
L 81.653793 -297.765883 
L 81.514395 -297.168716 
L 81.380522 -296.571549 
L 81.252758 -295.974383 
L 81.131615 -295.377216 
L 81.017531 -294.780049 
L 80.910872 -294.182883 
L 80.811924 -293.585716 
L 80.720874 -292.988549 
L 80.637794 -292.391382 
L 80.56262 -291.794216 
L 80.495129 -291.197049 
L 80.434936 -290.599882 
L 80.381485 -290.002716 
L 80.334066 -289.405549 
L 80.291834 -288.808382 
L 80.253849 -288.211215 
L 80.219119 -287.614049 
L 80.186654 -287.016882 
L 80.155518 -286.419715 
L 80.124882 -285.822548 
L 80.094064 -285.225382 
L 80.062561 -284.628215 
L 80.030067 -284.031048 
L 79.996476 -283.433882 
L 79.961867 -282.836715 
L 79.926484 -282.239548 
L 79.890699 -281.642381 
L 79.854972 -281.045215 
L 79.819807 -280.448048 
L 79.785716 -279.850881 
L 79.753174 -279.253715 
L 79.722599 -278.656548 
L 79.694323 -278.059381 
L 79.668582 -277.462214 
L 79.645514 -276.865048 
L 79.625159 -276.267881 
L 79.607473 -275.670714 
L 79.592338 -275.073547 
z
" id="m098d12c09e" style="stroke:#3d3d3d;stroke-width:1.5;"/>
    </defs>
    <g clip-path="url(#pd6b45fc82f)">
     <use style="fill:#3274a1;stroke:#3d3d3d;stroke-width:1.5;" x="0" xlink:href="#m098d12c09e" y="368.607178"/>
    </g>
   </g>
   <g id="PolyCollection_2">
    <defs>
     <path d="M 119.458528 -280.30272 
L 118.962722 -280.30272 
L 118.895208 -280.810188 
L 118.81375 -281.317655 
L 118.716748 -281.825123 
L 118.602744 -282.332591 
L 118.470519 -282.840058 
L 118.319192 -283.347526 
L 118.148312 -283.854994 
L 117.957949 -284.362461 
L 117.748766 -284.869929 
L 117.522063 -285.377397 
L 117.279801 -285.884864 
L 117.024582 -286.392332 
L 116.759603 -286.8998 
L 116.488566 -287.407267 
L 116.215559 -287.914735 
L 115.94491 -288.422203 
L 115.681019 -288.92967 
L 115.428186 -289.437138 
L 115.190433 -289.944606 
L 114.971348 -290.452073 
L 114.773938 -290.959541 
L 114.600518 -291.467009 
L 114.452639 -291.974476 
L 114.331041 -292.481944 
L 114.235664 -292.989412 
L 114.165679 -293.496879 
L 114.119567 -294.004347 
L 114.095221 -294.511815 
L 114.090076 -295.019282 
L 114.101252 -295.52675 
L 114.125714 -296.034218 
L 114.160426 -296.541685 
L 114.202509 -297.049153 
L 114.249374 -297.556621 
L 114.298854 -298.064088 
L 114.349291 -298.571556 
L 114.399602 -299.079024 
L 114.449313 -299.586491 
L 114.498549 -300.093959 
L 114.547988 -300.601427 
L 114.59879 -301.108894 
L 114.652482 -301.616362 
L 114.710837 -302.12383 
L 114.775726 -302.631297 
L 114.848976 -303.138765 
L 114.932228 -303.646233 
L 115.026815 -304.153701 
L 115.133664 -304.661168 
L 115.253225 -305.168636 
L 115.385433 -305.676104 
L 115.529712 -306.183571 
L 115.684999 -306.691039 
L 115.849807 -307.198507 
L 116.022298 -307.705974 
L 116.200385 -308.213442 
L 116.381823 -308.72091 
L 116.56431 -309.228377 
L 116.74558 -309.735845 
L 116.923479 -310.243313 
L 117.09603 -310.75078 
L 117.261479 -311.258248 
L 117.418326 -311.765716 
L 117.565343 -312.273183 
L 117.701581 -312.780651 
L 117.826368 -313.288119 
L 117.939305 -313.795586 
L 118.040249 -314.303054 
L 118.129314 -314.810522 
L 118.206847 -315.317989 
L 118.273423 -315.825457 
L 118.329828 -316.332925 
L 118.377032 -316.840392 
L 118.416172 -317.34786 
L 118.44851 -317.855328 
L 118.475398 -318.362795 
L 118.49823 -318.870263 
L 118.518386 -319.377731 
L 118.537185 -319.885198 
L 118.555828 -320.392666 
L 118.575349 -320.900134 
L 118.596582 -321.407601 
L 118.620128 -321.915069 
L 118.646342 -322.422537 
L 118.675337 -322.930004 
L 118.706995 -323.437472 
L 118.740996 -323.94494 
L 118.776857 -324.452407 
L 118.813975 -324.959875 
L 118.851678 -325.467343 
L 118.889268 -325.97481 
L 118.926071 -326.482278 
L 118.96147 -326.989746 
L 118.994935 -327.497213 
L 119.026045 -328.004681 
L 119.054495 -328.512149 
L 119.080099 -329.019616 
L 119.102783 -329.527084 
L 119.122575 -330.034552 
L 119.139585 -330.542019 
L 119.281665 -330.542019 
L 119.281665 -330.542019 
L 119.298675 -330.034552 
L 119.318467 -329.527084 
L 119.341151 -329.019616 
L 119.366755 -328.512149 
L 119.395205 -328.004681 
L 119.426315 -327.497213 
L 119.45978 -326.989746 
L 119.495179 -326.482278 
L 119.531982 -325.97481 
L 119.569572 -325.467343 
L 119.607275 -324.959875 
L 119.644393 -324.452407 
L 119.680254 -323.94494 
L 119.714255 -323.437472 
L 119.745913 -322.930004 
L 119.774908 -322.422537 
L 119.801122 -321.915069 
L 119.824668 -321.407601 
L 119.845901 -320.900134 
L 119.865422 -320.392666 
L 119.884065 -319.885198 
L 119.902864 -319.377731 
L 119.92302 -318.870263 
L 119.945852 -318.362795 
L 119.97274 -317.855328 
L 120.005078 -317.34786 
L 120.044218 -316.840392 
L 120.091422 -316.332925 
L 120.147827 -315.825457 
L 120.214403 -315.317989 
L 120.291936 -314.810522 
L 120.381001 -314.303054 
L 120.481945 -313.795586 
L 120.594882 -313.288119 
L 120.719669 -312.780651 
L 120.855907 -312.273183 
L 121.002924 -311.765716 
L 121.159771 -311.258248 
L 121.32522 -310.75078 
L 121.497771 -310.243313 
L 121.67567 -309.735845 
L 121.85694 -309.228377 
L 122.039427 -308.72091 
L 122.220865 -308.213442 
L 122.398952 -307.705974 
L 122.571443 -307.198507 
L 122.736251 -306.691039 
L 122.891538 -306.183571 
L 123.035817 -305.676104 
L 123.168025 -305.168636 
L 123.287586 -304.661168 
L 123.394435 -304.153701 
L 123.489022 -303.646233 
L 123.572274 -303.138765 
L 123.645524 -302.631297 
L 123.710413 -302.12383 
L 123.768768 -301.616362 
L 123.82246 -301.108894 
L 123.873262 -300.601427 
L 123.922701 -300.093959 
L 123.971937 -299.586491 
L 124.021648 -299.079024 
L 124.071959 -298.571556 
L 124.122396 -298.064088 
L 124.171876 -297.556621 
L 124.218741 -297.049153 
L 124.260824 -296.541685 
L 124.295536 -296.034218 
L 124.319998 -295.52675 
L 124.331174 -295.019282 
L 124.326029 -294.511815 
L 124.301683 -294.004347 
L 124.255571 -293.496879 
L 124.185586 -292.989412 
L 124.090209 -292.481944 
L 123.968611 -291.974476 
L 123.820732 -291.467009 
L 123.647312 -290.959541 
L 123.449902 -290.452073 
L 123.230817 -289.944606 
L 122.993064 -289.437138 
L 122.740231 -288.92967 
L 122.47634 -288.422203 
L 122.205691 -287.914735 
L 121.932684 -287.407267 
L 121.661647 -286.8998 
L 121.396668 -286.392332 
L 121.141449 -285.884864 
L 120.899187 -285.377397 
L 120.672484 -284.869929 
L 120.463301 -284.362461 
L 120.272938 -283.854994 
L 120.102058 -283.347526 
L 119.950731 -282.840058 
L 119.818506 -282.332591 
L 119.704502 -281.825123 
L 119.6075 -281.317655 
L 119.526042 -280.810188 
L 119.458528 -280.30272 
z
" id="mf26db2ce24" style="stroke:#3d3d3d;stroke-width:1.5;"/>
    </defs>
    <g clip-path="url(#pd6b45fc82f)">
     <use style="fill:#d684bd;stroke:#3d3d3d;stroke-width:1.5;" x="0" xlink:href="#mf26db2ce24" y="368.607178"/>
    </g>
   </g>
   <g id="PolyCollection_3">
    <defs>
     <path d="M 159.097146 -272.291571 
L 158.684104 -272.291571 
L 158.631123 -272.481207 
L 158.567996 -272.670843 
L 158.493636 -272.860478 
L 158.406995 -273.050114 
L 158.307078 -273.23975 
L 158.192948 -273.429386 
L 158.06371 -273.619022 
L 157.918484 -273.808658 
L 157.756356 -273.998294 
L 157.576321 -274.18793 
L 157.377207 -274.377566 
L 157.157603 -274.567202 
L 156.915793 -274.756838 
L 156.649706 -274.946474 
L 156.356899 -275.13611 
L 156.034581 -275.325746 
L 155.679692 -275.515382 
L 155.289037 -275.705018 
L 154.85948 -275.894654 
L 154.388197 -276.08429 
L 153.872967 -276.273926 
L 153.312491 -276.463562 
L 152.706724 -276.653198 
L 152.057173 -276.842834 
L 151.367155 -277.03247 
L 150.641975 -277.222106 
L 149.889005 -277.411742 
L 149.117639 -277.601378 
L 148.339121 -277.791014 
L 147.566244 -277.98065 
L 146.812919 -278.170286 
L 146.093648 -278.359922 
L 145.42292 -278.549558 
L 144.814563 -278.739194 
L 144.28111 -278.92883 
L 143.833199 -279.118466 
L 143.479067 -279.308102 
L 143.22416 -279.497738 
L 143.070902 -279.687374 
L 143.018625 -279.87701 
L 143.063672 -280.066646 
L 143.199675 -280.256282 
L 143.417968 -280.445918 
L 143.708128 -280.635554 
L 144.058587 -280.82519 
L 144.457284 -281.014826 
L 144.892304 -281.204462 
L 145.352462 -281.394098 
L 145.827795 -281.583733 
L 146.309929 -281.773369 
L 146.7923 -281.963005 
L 147.270228 -282.152641 
L 147.74083 -282.342277 
L 148.202812 -282.531913 
L 148.656144 -282.721549 
L 149.101667 -282.911185 
L 149.540664 -283.100821 
L 149.974431 -283.290457 
L 150.403895 -283.480093 
L 150.829307 -283.669729 
L 151.250038 -283.859365 
L 151.664481 -284.049001 
L 152.070084 -284.238637 
L 152.463491 -284.428273 
L 152.840779 -284.617909 
L 153.197778 -284.807545 
L 153.530416 -284.997181 
L 153.835095 -285.186817 
L 154.109029 -285.376453 
L 154.350534 -285.566089 
L 154.559233 -285.755725 
L 154.73617 -285.945361 
L 154.883805 -286.134997 
L 155.005911 -286.324633 
L 155.107359 -286.514269 
L 155.193823 -286.703905 
L 155.27143 -286.893541 
L 155.346373 -287.083177 
L 155.424523 -287.272813 
L 155.511076 -287.462449 
L 155.610254 -287.652085 
L 155.725085 -287.841721 
L 155.857276 -288.031357 
L 156.007182 -288.220993 
L 156.173872 -288.410629 
L 156.355279 -288.600265 
L 156.548414 -288.789901 
L 156.749626 -288.979537 
L 156.954885 -289.169173 
L 157.160061 -289.358809 
L 157.361178 -289.548445 
L 157.554633 -289.738081 
L 157.737359 -289.927717 
L 157.906935 -290.117353 
L 158.061638 -290.306988 
L 158.200442 -290.496624 
L 158.322976 -290.68626 
L 158.429441 -290.875896 
L 158.520517 -291.065532 
L 159.260733 -291.065532 
L 159.260733 -291.065532 
L 159.351809 -290.875896 
L 159.458274 -290.68626 
L 159.580808 -290.496624 
L 159.719612 -290.306988 
L 159.874315 -290.117353 
L 160.043891 -289.927717 
L 160.226617 -289.738081 
L 160.420072 -289.548445 
L 160.621189 -289.358809 
L 160.826365 -289.169173 
L 161.031624 -288.979537 
L 161.232836 -288.789901 
L 161.425971 -288.600265 
L 161.607378 -288.410629 
L 161.774068 -288.220993 
L 161.923974 -288.031357 
L 162.056165 -287.841721 
L 162.170996 -287.652085 
L 162.270174 -287.462449 
L 162.356727 -287.272813 
L 162.434877 -287.083177 
L 162.50982 -286.893541 
L 162.587427 -286.703905 
L 162.673891 -286.514269 
L 162.775339 -286.324633 
L 162.897445 -286.134997 
L 163.04508 -285.945361 
L 163.222017 -285.755725 
L 163.430716 -285.566089 
L 163.672221 -285.376453 
L 163.946155 -285.186817 
L 164.250834 -284.997181 
L 164.583472 -284.807545 
L 164.940471 -284.617909 
L 165.317759 -284.428273 
L 165.711166 -284.238637 
L 166.116769 -284.049001 
L 166.531212 -283.859365 
L 166.951943 -283.669729 
L 167.377355 -283.480093 
L 167.806819 -283.290457 
L 168.240586 -283.100821 
L 168.679583 -282.911185 
L 169.125106 -282.721549 
L 169.578438 -282.531913 
L 170.04042 -282.342277 
L 170.511022 -282.152641 
L 170.98895 -281.963005 
L 171.471321 -281.773369 
L 171.953455 -281.583733 
L 172.428788 -281.394098 
L 172.888946 -281.204462 
L 173.323966 -281.014826 
L 173.722663 -280.82519 
L 174.073122 -280.635554 
L 174.363282 -280.445918 
L 174.581575 -280.256282 
L 174.717578 -280.066646 
L 174.762625 -279.87701 
L 174.710348 -279.687374 
L 174.55709 -279.497738 
L 174.302183 -279.308102 
L 173.948051 -279.118466 
L 173.50014 -278.92883 
L 172.966687 -278.739194 
L 172.35833 -278.549558 
L 171.687602 -278.359922 
L 170.968331 -278.170286 
L 170.215006 -277.98065 
L 169.442129 -277.791014 
L 168.663611 -277.601378 
L 167.892245 -277.411742 
L 167.139275 -277.222106 
L 166.414095 -277.03247 
L 165.724077 -276.842834 
L 165.074526 -276.653198 
L 164.468759 -276.463562 
L 163.908283 -276.273926 
L 163.393053 -276.08429 
L 162.92177 -275.894654 
L 162.492213 -275.705018 
L 162.101558 -275.515382 
L 161.746669 -275.325746 
L 161.424351 -275.13611 
L 161.131544 -274.946474 
L 160.865457 -274.756838 
L 160.623647 -274.567202 
L 160.404043 -274.377566 
L 160.204929 -274.18793 
L 160.024894 -273.998294 
L 159.862766 -273.808658 
L 159.71754 -273.619022 
L 159.588302 -273.429386 
L 159.474172 -273.23975 
L 159.374255 -273.050114 
L 159.287614 -272.860478 
L 159.213254 -272.670843 
L 159.150127 -272.481207 
L 159.097146 -272.291571 
z
" id="m0651047966" style="stroke:#3d3d3d;stroke-width:1.5;"/>
    </defs>
    <g clip-path="url(#pd6b45fc82f)">
     <use style="fill:#e1812c;stroke:#3d3d3d;stroke-width:1.5;" x="0" xlink:href="#m0651047966" y="368.607178"/>
    </g>
   </g>
   <g id="PolyCollection_4">
    <defs>
     <path d="M 198.657045 -250.119925 
L 198.484205 -250.119925 
L 198.456692 -250.661829 
L 198.423467 -251.203732 
L 198.384405 -251.745635 
L 198.339747 -252.287538 
L 198.290166 -252.829441 
L 198.236806 -253.371345 
L 198.181278 -253.913248 
L 198.125589 -254.455151 
L 198.072024 -254.997054 
L 198.022966 -255.538957 
L 197.980684 -256.080861 
L 197.947096 -256.622764 
L 197.92355 -257.164667 
L 197.910641 -257.70657 
L 197.908092 -258.248474 
L 197.914717 -258.790377 
L 197.928476 -259.33228 
L 197.946613 -259.874183 
L 197.965851 -260.416086 
L 197.982636 -260.95799 
L 197.993372 -261.499893 
L 197.994626 -262.041796 
L 197.983266 -262.583699 
L 197.956505 -263.125603 
L 197.911848 -263.667506 
L 197.84694 -264.209409 
L 197.759344 -264.751312 
L 197.646278 -265.293215 
L 197.504379 -265.835119 
L 197.329535 -266.377022 
L 197.116857 -266.918925 
L 196.860842 -267.460828 
L 196.555751 -268.002731 
L 196.196209 -268.544635 
L 195.778008 -269.086538 
L 195.29903 -269.628441 
L 194.760207 -270.170344 
L 194.16638 -270.712248 
L 193.526928 -271.254151 
L 192.85604 -271.796054 
L 192.17253 -272.337957 
L 191.499136 -272.87986 
L 190.86132 -273.421764 
L 190.285654 -273.963667 
L 189.797914 -274.50557 
L 189.421101 -275.047473 
L 189.173587 -275.589377 
L 189.067609 -276.13128 
L 189.108286 -276.673183 
L 189.293266 -277.215086 
L 189.613046 -277.756989 
L 190.051899 -278.298893 
L 190.589285 -278.840796 
L 191.201567 -279.382699 
L 191.863828 -279.924602 
L 192.551588 -280.466505 
L 193.242261 -281.008409 
L 193.916248 -281.550312 
L 194.557613 -282.092215 
L 195.154351 -282.634118 
L 195.698312 -283.176022 
L 196.184848 -283.717925 
L 196.612296 -284.259828 
L 196.98137 -284.801731 
L 197.294545 -285.343634 
L 197.55549 -285.885538 
L 197.768572 -286.427441 
L 197.938466 -286.969344 
L 198.069857 -287.511247 
L 198.167243 -288.053151 
L 198.234821 -288.595054 
L 198.276452 -289.136957 
L 198.295678 -289.67886 
L 198.295795 -290.220763 
L 198.279944 -290.762667 
L 198.25121 -291.30457 
L 198.212706 -291.846473 
L 198.167628 -292.388376 
L 198.119256 -292.930279 
L 198.070903 -293.472183 
L 198.025812 -294.014086 
L 197.987003 -294.555989 
L 197.957103 -295.097892 
L 197.938172 -295.639796 
L 197.931558 -296.181699 
L 197.9378 -296.723602 
L 197.956607 -297.265505 
L 197.986903 -297.807408 
L 198.02695 -298.349312 
L 198.074524 -298.891215 
L 198.127126 -299.433118 
L 198.182203 -299.975021 
L 198.237352 -300.516924 
L 198.290481 -301.058828 
L 198.339926 -301.600731 
L 198.384505 -302.142634 
L 198.42352 -302.684537 
L 198.45672 -303.226441 
L 198.48422 -303.768344 
L 198.65703 -303.768344 
L 198.65703 -303.768344 
L 198.68453 -303.226441 
L 198.71773 -302.684537 
L 198.756745 -302.142634 
L 198.801324 -301.600731 
L 198.850769 -301.058828 
L 198.903898 -300.516924 
L 198.959047 -299.975021 
L 199.014124 -299.433118 
L 199.066726 -298.891215 
L 199.1143 -298.349312 
L 199.154347 -297.807408 
L 199.184643 -297.265505 
L 199.20345 -296.723602 
L 199.209692 -296.181699 
L 199.203078 -295.639796 
L 199.184147 -295.097892 
L 199.154247 -294.555989 
L 199.115438 -294.014086 
L 199.070347 -293.472183 
L 199.021994 -292.930279 
L 198.973622 -292.388376 
L 198.928544 -291.846473 
L 198.89004 -291.30457 
L 198.861306 -290.762667 
L 198.845455 -290.220763 
L 198.845572 -289.67886 
L 198.864798 -289.136957 
L 198.906429 -288.595054 
L 198.974007 -288.053151 
L 199.071393 -287.511247 
L 199.202784 -286.969344 
L 199.372678 -286.427441 
L 199.58576 -285.885538 
L 199.846705 -285.343634 
L 200.15988 -284.801731 
L 200.528954 -284.259828 
L 200.956402 -283.717925 
L 201.442938 -283.176022 
L 201.986899 -282.634118 
L 202.583637 -282.092215 
L 203.225002 -281.550312 
L 203.898989 -281.008409 
L 204.589662 -280.466505 
L 205.277422 -279.924602 
L 205.939683 -279.382699 
L 206.551965 -278.840796 
L 207.089351 -278.298893 
L 207.528204 -277.756989 
L 207.847984 -277.215086 
L 208.032964 -276.673183 
L 208.073641 -276.13128 
L 207.967663 -275.589377 
L 207.720149 -275.047473 
L 207.343336 -274.50557 
L 206.855596 -273.963667 
L 206.27993 -273.421764 
L 205.642114 -272.87986 
L 204.96872 -272.337957 
L 204.28521 -271.796054 
L 203.614322 -271.254151 
L 202.97487 -270.712248 
L 202.381043 -270.170344 
L 201.84222 -269.628441 
L 201.363242 -269.086538 
L 200.945041 -268.544635 
L 200.585499 -268.002731 
L 200.280408 -267.460828 
L 200.024393 -266.918925 
L 199.811715 -266.377022 
L 199.636871 -265.835119 
L 199.494972 -265.293215 
L 199.381906 -264.751312 
L 199.29431 -264.209409 
L 199.229402 -263.667506 
L 199.184745 -263.125603 
L 199.157984 -262.583699 
L 199.146624 -262.041796 
L 199.147878 -261.499893 
L 199.158614 -260.95799 
L 199.175399 -260.416086 
L 199.194637 -259.874183 
L 199.212774 -259.33228 
L 199.226533 -258.790377 
L 199.233158 -258.248474 
L 199.230609 -257.70657 
L 199.2177 -257.164667 
L 199.194154 -256.622764 
L 199.160566 -256.080861 
L 199.118284 -255.538957 
L 199.069226 -254.997054 
L 199.015661 -254.455151 
L 198.959972 -253.913248 
L 198.904444 -253.371345 
L 198.851084 -252.829441 
L 198.801503 -252.287538 
L 198.756845 -251.745635 
L 198.717783 -251.203732 
L 198.684558 -250.661829 
L 198.657045 -250.119925 
z
" id="m6171616ae3" style="stroke:#3d3d3d;stroke-width:1.5;"/>
    </defs>
    <g clip-path="url(#pd6b45fc82f)">
     <use style="fill:#c4b5d0;stroke:#3d3d3d;stroke-width:1.5;" x="0" xlink:href="#m6171616ae3" y="368.607178"/>
    </g>
   </g>
   <g id="PolyCollection_5">
    <defs>
     <path d="M 238.387131 -251.193749 
L 238.114119 -251.193749 
L 238.078542 -251.629907 
L 238.036357 -252.066065 
L 237.987095 -252.502224 
L 237.930452 -252.938382 
L 237.866341 -253.37454 
L 237.794931 -253.810699 
L 237.716682 -254.246857 
L 237.632359 -254.683015 
L 237.543032 -255.119174 
L 237.450047 -255.555332 
L 237.354976 -255.99149 
L 237.259543 -256.427649 
L 237.165526 -256.863807 
L 237.074646 -257.299965 
L 236.988447 -257.736124 
L 236.908178 -258.172282 
L 236.834677 -258.60844 
L 236.768284 -259.044599 
L 236.708774 -259.480757 
L 236.655328 -259.916915 
L 236.60654 -260.353074 
L 236.560462 -260.789232 
L 236.514689 -261.22539 
L 236.466474 -261.661549 
L 236.41287 -262.097707 
L 236.350889 -262.533865 
L 236.277669 -262.970024 
L 236.190635 -263.406182 
L 236.087649 -263.84234 
L 235.967141 -264.278499 
L 235.828201 -264.714657 
L 235.670645 -265.150815 
L 235.495027 -265.586974 
L 235.302621 -266.023132 
L 235.095353 -266.45929 
L 234.875698 -266.895449 
L 234.646546 -267.331607 
L 234.411049 -267.767765 
L 234.172453 -268.203924 
L 233.933948 -268.640082 
L 233.698516 -269.07624 
L 233.468828 -269.512399 
L 233.247169 -269.948557 
L 233.035412 -270.384715 
L 232.835035 -270.820874 
L 232.647185 -271.257032 
L 232.472768 -271.693191 
L 232.312566 -272.129349 
L 232.167359 -272.565507 
L 232.038029 -273.001666 
L 231.925654 -273.437824 
L 231.83155 -273.873982 
L 231.757283 -274.310141 
L 231.704626 -274.746299 
L 231.675478 -275.182457 
L 231.671745 -275.618616 
L 231.695194 -276.054774 
L 231.747298 -276.490932 
L 231.829088 -276.927091 
L 231.941013 -277.363249 
L 232.082839 -277.799407 
L 232.253585 -278.235566 
L 232.451499 -278.671724 
L 232.674091 -279.107882 
L 232.918206 -279.544041 
L 233.180136 -279.980199 
L 233.455769 -280.416357 
L 233.740761 -280.852516 
L 234.03071 -281.288674 
L 234.32134 -281.724832 
L 234.608663 -282.160991 
L 234.889122 -282.597149 
L 235.1597 -283.033307 
L 235.417996 -283.469466 
L 235.662255 -283.905624 
L 235.891368 -284.341782 
L 236.104823 -284.777941 
L 236.30264 -285.214099 
L 236.485272 -285.650257 
L 236.653502 -286.086416 
L 236.808327 -286.522574 
L 236.950852 -286.958732 
L 237.082198 -287.394891 
L 237.203421 -287.831049 
L 237.31546 -288.267207 
L 237.419099 -288.703366 
L 237.514962 -289.139524 
L 237.603515 -289.575682 
L 237.685092 -290.011841 
L 237.759927 -290.447999 
L 237.828186 -290.884157 
L 237.890011 -291.320316 
L 237.945546 -291.756474 
L 237.994969 -292.192632 
L 238.038503 -292.628791 
L 238.076432 -293.064949 
L 238.109096 -293.501107 
L 238.136888 -293.937266 
L 238.160242 -294.373424 
L 238.341008 -294.373424 
L 238.341008 -294.373424 
L 238.364362 -293.937266 
L 238.392154 -293.501107 
L 238.424818 -293.064949 
L 238.462747 -292.628791 
L 238.506281 -292.192632 
L 238.555704 -291.756474 
L 238.611239 -291.320316 
L 238.673064 -290.884157 
L 238.741323 -290.447999 
L 238.816158 -290.011841 
L 238.897735 -289.575682 
L 238.986288 -289.139524 
L 239.082151 -288.703366 
L 239.18579 -288.267207 
L 239.297829 -287.831049 
L 239.419052 -287.394891 
L 239.550398 -286.958732 
L 239.692923 -286.522574 
L 239.847748 -286.086416 
L 240.015978 -285.650257 
L 240.19861 -285.214099 
L 240.396427 -284.777941 
L 240.609882 -284.341782 
L 240.838995 -283.905624 
L 241.083254 -283.469466 
L 241.34155 -283.033307 
L 241.612128 -282.597149 
L 241.892587 -282.160991 
L 242.17991 -281.724832 
L 242.47054 -281.288674 
L 242.760489 -280.852516 
L 243.045481 -280.416357 
L 243.321114 -279.980199 
L 243.583044 -279.544041 
L 243.827159 -279.107882 
L 244.049751 -278.671724 
L 244.247665 -278.235566 
L 244.418411 -277.799407 
L 244.560237 -277.363249 
L 244.672162 -276.927091 
L 244.753952 -276.490932 
L 244.806056 -276.054774 
L 244.829505 -275.618616 
L 244.825772 -275.182457 
L 244.796624 -274.746299 
L 244.743967 -274.310141 
L 244.6697 -273.873982 
L 244.575596 -273.437824 
L 244.463221 -273.001666 
L 244.333891 -272.565507 
L 244.188684 -272.129349 
L 244.028482 -271.693191 
L 243.854065 -271.257032 
L 243.666215 -270.820874 
L 243.465838 -270.384715 
L 243.254081 -269.948557 
L 243.032422 -269.512399 
L 242.802734 -269.07624 
L 242.567302 -268.640082 
L 242.328797 -268.203924 
L 242.090201 -267.767765 
L 241.854704 -267.331607 
L 241.625552 -266.895449 
L 241.405897 -266.45929 
L 241.198629 -266.023132 
L 241.006223 -265.586974 
L 240.830605 -265.150815 
L 240.673049 -264.714657 
L 240.534109 -264.278499 
L 240.413601 -263.84234 
L 240.310615 -263.406182 
L 240.223581 -262.970024 
L 240.150361 -262.533865 
L 240.08838 -262.097707 
L 240.034776 -261.661549 
L 239.986561 -261.22539 
L 239.940788 -260.789232 
L 239.89471 -260.353074 
L 239.845922 -259.916915 
L 239.792476 -259.480757 
L 239.732966 -259.044599 
L 239.666573 -258.60844 
L 239.593072 -258.172282 
L 239.512803 -257.736124 
L 239.426604 -257.299965 
L 239.335724 -256.863807 
L 239.241707 -256.427649 
L 239.146274 -255.99149 
L 239.051203 -255.555332 
L 238.958218 -255.119174 
L 238.868891 -254.683015 
L 238.784568 -254.246857 
L 238.706319 -253.810699 
L 238.634909 -253.37454 
L 238.570798 -252.938382 
L 238.514155 -252.502224 
L 238.464893 -252.066065 
L 238.422708 -251.629907 
L 238.387131 -251.193749 
z
" id="maff122ded5" style="stroke:#3d3d3d;stroke-width:1.5;"/>
    </defs>
    <g clip-path="url(#pd6b45fc82f)">
     <use style="fill:#d1d197;stroke:#3d3d3d;stroke-width:1.5;" x="0" xlink:href="#maff122ded5" y="368.607178"/>
    </g>
   </g>
   <g id="PolyCollection_6">
    <defs>
     <path d="M 278.009339 -242.135751 
L 277.851911 -242.135751 
L 277.83105 -242.638966 
L 277.806498 -243.142181 
L 277.778148 -243.645396 
L 277.746055 -244.148611 
L 277.710464 -244.651826 
L 277.671839 -245.155041 
L 277.63087 -245.658256 
L 277.588472 -246.161472 
L 277.545763 -246.664687 
L 277.504016 -247.167902 
L 277.464606 -247.671117 
L 277.428927 -248.174332 
L 277.398308 -248.677547 
L 277.373919 -249.180762 
L 277.356688 -249.683977 
L 277.347218 -250.187193 
L 277.345727 -250.690408 
L 277.35201 -251.193623 
L 277.365422 -251.696838 
L 277.384888 -252.200053 
L 277.408931 -252.703268 
L 277.435728 -253.206483 
L 277.463163 -253.709698 
L 277.488903 -254.212913 
L 277.510463 -254.716129 
L 277.525274 -255.219344 
L 277.530746 -255.722559 
L 277.524322 -256.225774 
L 277.503531 -256.728989 
L 277.466034 -257.232204 
L 277.409678 -257.735419 
L 277.332546 -258.238634 
L 277.233023 -258.74185 
L 277.109856 -259.245065 
L 276.962233 -259.74828 
L 276.789856 -260.251495 
L 276.593009 -260.75471 
L 276.372626 -261.257925 
L 276.130329 -261.76114 
L 275.868457 -262.264355 
L 275.590047 -262.767571 
L 275.298797 -263.270786 
L 274.998975 -263.774001 
L 274.695296 -264.277216 
L 274.392769 -264.780431 
L 274.096502 -265.283646 
L 273.811494 -265.786861 
L 273.542413 -266.290076 
L 273.293384 -266.793292 
L 273.067784 -267.296507 
L 272.868087 -267.799722 
L 272.69574 -268.302937 
L 272.55111 -268.806152 
L 272.4335 -269.309367 
L 272.341226 -269.812582 
L 272.271779 -270.315797 
L 272.222041 -270.819013 
L 272.188551 -271.322228 
L 272.167799 -271.825443 
L 272.156534 -272.328658 
L 272.152043 -272.831873 
L 272.152396 -273.335088 
L 272.156622 -273.838303 
L 272.1648 -274.341518 
L 272.178062 -274.844734 
L 272.1985 -275.347949 
L 272.228985 -275.851164 
L 272.272907 -276.354379 
L 272.333878 -276.857594 
L 272.415396 -277.360809 
L 272.520527 -277.864024 
L 272.65161 -278.367239 
L 272.810029 -278.870455 
L 272.996058 -279.37367 
L 273.208795 -279.876885 
L 273.446189 -280.3801 
L 273.705145 -280.883315 
L 273.981701 -281.38653 
L 274.271259 -281.889745 
L 274.568841 -282.39296 
L 274.869351 -282.896176 
L 275.167822 -283.399391 
L 275.459636 -283.902606 
L 275.740693 -284.405821 
L 276.007537 -284.909036 
L 276.257428 -285.412251 
L 276.488364 -285.915466 
L 276.699069 -286.418681 
L 276.888938 -286.921897 
L 277.057965 -287.425112 
L 277.206653 -287.928327 
L 277.335917 -288.431542 
L 277.446988 -288.934757 
L 277.541321 -289.437972 
L 277.620507 -289.941187 
L 277.686202 -290.444402 
L 277.740061 -290.947618 
L 277.78369 -291.450833 
L 277.818605 -291.954048 
L 278.042645 -291.954048 
L 278.042645 -291.954048 
L 278.07756 -291.450833 
L 278.121189 -290.947618 
L 278.175048 -290.444402 
L 278.240743 -289.941187 
L 278.319929 -289.437972 
L 278.414262 -288.934757 
L 278.525333 -288.431542 
L 278.654597 -287.928327 
L 278.803285 -287.425112 
L 278.972312 -286.921897 
L 279.162181 -286.418681 
L 279.372886 -285.915466 
L 279.603822 -285.412251 
L 279.853713 -284.909036 
L 280.120557 -284.405821 
L 280.401614 -283.902606 
L 280.693428 -283.399391 
L 280.991899 -282.896176 
L 281.292409 -282.39296 
L 281.589991 -281.889745 
L 281.879549 -281.38653 
L 282.156105 -280.883315 
L 282.415061 -280.3801 
L 282.652455 -279.876885 
L 282.865192 -279.37367 
L 283.051221 -278.870455 
L 283.20964 -278.367239 
L 283.340723 -277.864024 
L 283.445854 -277.360809 
L 283.527372 -276.857594 
L 283.588343 -276.354379 
L 283.632265 -275.851164 
L 283.66275 -275.347949 
L 283.683188 -274.844734 
L 283.69645 -274.341518 
L 283.704628 -273.838303 
L 283.708854 -273.335088 
L 283.709207 -272.831873 
L 283.704716 -272.328658 
L 283.693451 -271.825443 
L 283.672699 -271.322228 
L 283.639209 -270.819013 
L 283.589471 -270.315797 
L 283.520024 -269.812582 
L 283.42775 -269.309367 
L 283.31014 -268.806152 
L 283.16551 -268.302937 
L 282.993163 -267.799722 
L 282.793466 -267.296507 
L 282.567866 -266.793292 
L 282.318837 -266.290076 
L 282.049756 -265.786861 
L 281.764748 -265.283646 
L 281.468481 -264.780431 
L 281.165954 -264.277216 
L 280.862275 -263.774001 
L 280.562453 -263.270786 
L 280.271203 -262.767571 
L 279.992793 -262.264355 
L 279.730921 -261.76114 
L 279.488624 -261.257925 
L 279.268241 -260.75471 
L 279.071394 -260.251495 
L 278.899017 -259.74828 
L 278.751394 -259.245065 
L 278.628227 -258.74185 
L 278.528704 -258.238634 
L 278.451572 -257.735419 
L 278.395216 -257.232204 
L 278.357719 -256.728989 
L 278.336928 -256.225774 
L 278.330504 -255.722559 
L 278.335976 -255.219344 
L 278.350787 -254.716129 
L 278.372347 -254.212913 
L 278.398087 -253.709698 
L 278.425522 -253.206483 
L 278.452319 -252.703268 
L 278.476362 -252.200053 
L 278.495828 -251.696838 
L 278.50924 -251.193623 
L 278.515523 -250.690408 
L 278.514032 -250.187193 
L 278.504562 -249.683977 
L 278.487331 -249.180762 
L 278.462942 -248.677547 
L 278.432323 -248.174332 
L 278.396644 -247.671117 
L 278.357234 -247.167902 
L 278.315487 -246.664687 
L 278.272778 -246.161472 
L 278.23038 -245.658256 
L 278.189411 -245.155041 
L 278.150786 -244.651826 
L 278.115195 -244.148611 
L 278.083102 -243.645396 
L 278.054752 -243.142181 
L 278.0302 -242.638966 
L 278.009339 -242.135751 
z
" id="ma4d7395f59" style="stroke:#3d3d3d;stroke-width:1.5;"/>
    </defs>
    <g clip-path="url(#pd6b45fc82f)">
     <use style="fill:#c03d3e;stroke:#3d3d3d;stroke-width:1.5;" x="0" xlink:href="#ma4d7395f59" y="368.607178"/>
    </g>
   </g>
   <g id="PolyCollection_7">
    <defs>
     <path d="M 317.707403 -235.930139 
L 317.513847 -235.930139 
L 317.488311 -236.421049 
L 317.457634 -236.91196 
L 317.421223 -237.40287 
L 317.378522 -237.893781 
L 317.329049 -238.384691 
L 317.272423 -238.875602 
L 317.208399 -239.366512 
L 317.1369 -239.857423 
L 317.058045 -240.348333 
L 316.972171 -240.839244 
L 316.879851 -241.330154 
L 316.781897 -241.821065 
L 316.679356 -242.311975 
L 316.573491 -242.802886 
L 316.465748 -243.293796 
L 316.357712 -243.784707 
L 316.251049 -244.275617 
L 316.147436 -244.766528 
L 316.048484 -245.257438 
L 315.955649 -245.748349 
L 315.870149 -246.239259 
L 315.792872 -246.73017 
L 315.724301 -247.22108 
L 315.66444 -247.711991 
L 315.612758 -248.202901 
L 315.568157 -248.693812 
L 315.528964 -249.184722 
L 315.492942 -249.675633 
L 315.457348 -250.166543 
L 315.419005 -250.657454 
L 315.374421 -251.148364 
L 315.319925 -251.639275 
L 315.251834 -252.130185 
L 315.166639 -252.621096 
L 315.061197 -253.112006 
L 314.932929 -253.602917 
L 314.780008 -254.093827 
L 314.601526 -254.584738 
L 314.397631 -255.075648 
L 314.169627 -255.566558 
L 313.92002 -256.057469 
L 313.652514 -256.548379 
L 313.371947 -257.03929 
L 313.084164 -257.5302 
L 312.79584 -258.021111 
L 312.514242 -258.512021 
L 312.246958 -259.002932 
L 312.001589 -259.493842 
L 311.785428 -259.984753 
L 311.605136 -260.475663 
L 311.466439 -260.966574 
L 311.373855 -261.457484 
L 311.330477 -261.948395 
L 311.337807 -262.439305 
L 311.395682 -262.930216 
L 311.502264 -263.421126 
L 311.654122 -263.912037 
L 311.846392 -264.402947 
L 312.073005 -264.893858 
L 312.326976 -265.384768 
L 312.600737 -265.875679 
L 312.886492 -266.366589 
L 313.176575 -266.8575 
L 313.463788 -267.34841 
L 313.741712 -267.839321 
L 314.004952 -268.330231 
L 314.249325 -268.821142 
L 314.471967 -269.312052 
L 314.671371 -269.802963 
L 314.847334 -270.293873 
L 315.000849 -270.784784 
L 315.133924 -271.275694 
L 315.249366 -271.766605 
L 315.350531 -272.257515 
L 315.441061 -272.748426 
L 315.524627 -273.239336 
L 315.604702 -273.730247 
L 315.684354 -274.221157 
L 315.766099 -274.712068 
L 315.851797 -275.202978 
L 315.942602 -275.693889 
L 316.038968 -276.184799 
L 316.140696 -276.675709 
L 316.247024 -277.16662 
L 316.35674 -277.65753 
L 316.468314 -278.148441 
L 316.580034 -278.639351 
L 316.690137 -279.130262 
L 316.796929 -279.621172 
L 316.89888 -280.112083 
L 316.994696 -280.602993 
L 317.083369 -281.093904 
L 317.164201 -281.584814 
L 317.236797 -282.075725 
L 317.301051 -282.566635 
L 317.357113 -283.057546 
L 317.40534 -283.548456 
L 317.446256 -284.039367 
L 317.480495 -284.530277 
L 317.740755 -284.530277 
L 317.740755 -284.530277 
L 317.774994 -284.039367 
L 317.81591 -283.548456 
L 317.864137 -283.057546 
L 317.920199 -282.566635 
L 317.984453 -282.075725 
L 318.057049 -281.584814 
L 318.137881 -281.093904 
L 318.226554 -280.602993 
L 318.32237 -280.112083 
L 318.424321 -279.621172 
L 318.531113 -279.130262 
L 318.641216 -278.639351 
L 318.752936 -278.148441 
L 318.86451 -277.65753 
L 318.974226 -277.16662 
L 319.080554 -276.675709 
L 319.182282 -276.184799 
L 319.278648 -275.693889 
L 319.369453 -275.202978 
L 319.455151 -274.712068 
L 319.536896 -274.221157 
L 319.616548 -273.730247 
L 319.696623 -273.239336 
L 319.780189 -272.748426 
L 319.870719 -272.257515 
L 319.971884 -271.766605 
L 320.087326 -271.275694 
L 320.220401 -270.784784 
L 320.373916 -270.293873 
L 320.549879 -269.802963 
L 320.749283 -269.312052 
L 320.971925 -268.821142 
L 321.216298 -268.330231 
L 321.479538 -267.839321 
L 321.757462 -267.34841 
L 322.044675 -266.8575 
L 322.334758 -266.366589 
L 322.620513 -265.875679 
L 322.894274 -265.384768 
L 323.148245 -264.893858 
L 323.374858 -264.402947 
L 323.567128 -263.912037 
L 323.718986 -263.421126 
L 323.825568 -262.930216 
L 323.883443 -262.439305 
L 323.890773 -261.948395 
L 323.847395 -261.457484 
L 323.754811 -260.966574 
L 323.616114 -260.475663 
L 323.435822 -259.984753 
L 323.219661 -259.493842 
L 322.974292 -259.002932 
L 322.707008 -258.512021 
L 322.42541 -258.021111 
L 322.137086 -257.5302 
L 321.849303 -257.03929 
L 321.568736 -256.548379 
L 321.30123 -256.057469 
L 321.051623 -255.566558 
L 320.823619 -255.075648 
L 320.619724 -254.584738 
L 320.441242 -254.093827 
L 320.288321 -253.602917 
L 320.160053 -253.112006 
L 320.054611 -252.621096 
L 319.969416 -252.130185 
L 319.901325 -251.639275 
L 319.846829 -251.148364 
L 319.802245 -250.657454 
L 319.763902 -250.166543 
L 319.728308 -249.675633 
L 319.692286 -249.184722 
L 319.653093 -248.693812 
L 319.608492 -248.202901 
L 319.55681 -247.711991 
L 319.496949 -247.22108 
L 319.428378 -246.73017 
L 319.351101 -246.239259 
L 319.265601 -245.748349 
L 319.172766 -245.257438 
L 319.073814 -244.766528 
L 318.970201 -244.275617 
L 318.863538 -243.784707 
L 318.755502 -243.293796 
L 318.647759 -242.802886 
L 318.541894 -242.311975 
L 318.439353 -241.821065 
L 318.341399 -241.330154 
L 318.249079 -240.839244 
L 318.163205 -240.348333 
L 318.08435 -239.857423 
L 318.012851 -239.366512 
L 317.948827 -238.875602 
L 317.892201 -238.384691 
L 317.842728 -237.893781 
L 317.800027 -237.40287 
L 317.763616 -236.91196 
L 317.732939 -236.421049 
L 317.707403 -235.930139 
z
" id="ma289971b34" style="stroke:#3d3d3d;stroke-width:1.5;"/>
    </defs>
    <g clip-path="url(#pd6b45fc82f)">
     <use style="fill:#3a923a;stroke:#3d3d3d;stroke-width:1.5;" x="0" xlink:href="#ma289971b34" y="368.607178"/>
    </g>
   </g>
   <g id="PolyCollection_8">
    <defs>
     <path d="M 357.363471 -226.185581 
L 357.217779 -226.185581 
L 357.200434 -226.677714 
L 357.180225 -227.169847 
L 357.157006 -227.66198 
L 357.130702 -228.154114 
L 357.101319 -228.646247 
L 357.068951 -229.13838 
L 357.033787 -229.630513 
L 356.996101 -230.122646 
L 356.956238 -230.61478 
L 356.914592 -231.106913 
L 356.871574 -231.599046 
L 356.827572 -232.091179 
L 356.782908 -232.583312 
L 356.737793 -233.075445 
L 356.692285 -233.567579 
L 356.646252 -234.059712 
L 356.599349 -234.551845 
L 356.551007 -235.043978 
L 356.500442 -235.536111 
L 356.446683 -236.028245 
L 356.388619 -236.520378 
L 356.325061 -237.012511 
L 356.254817 -237.504644 
L 356.176785 -237.996777 
L 356.090033 -238.48891 
L 355.993885 -238.981044 
L 355.88799 -239.473177 
L 355.772377 -239.96531 
L 355.647482 -240.457443 
L 355.514156 -240.949576 
L 355.373636 -241.44171 
L 355.227501 -241.933843 
L 355.077595 -242.425976 
L 354.925942 -242.918109 
L 354.774643 -243.410242 
L 354.625769 -243.902376 
L 354.481263 -244.394509 
L 354.342845 -244.886642 
L 354.211936 -245.378775 
L 354.089601 -245.870908 
L 353.976513 -246.363041 
L 353.87294 -246.855175 
L 353.778754 -247.347308 
L 353.693452 -247.839441 
L 353.616202 -248.331574 
L 353.545896 -248.823707 
L 353.481206 -249.315841 
L 353.420654 -249.807974 
L 353.362674 -250.300107 
L 353.305685 -250.79224 
L 353.248151 -251.284373 
L 353.18865 -251.776506 
L 353.125938 -252.26864 
L 353.059012 -252.760773 
L 352.987171 -253.252906 
L 352.910073 -253.745039 
L 352.827791 -254.237172 
L 352.740851 -254.729306 
L 352.650269 -255.221439 
L 352.557562 -255.713572 
L 352.464738 -256.205705 
L 352.374268 -256.697838 
L 352.289024 -257.189972 
L 352.21219 -257.682105 
L 352.147154 -258.174238 
L 352.097369 -258.666371 
L 352.066206 -259.158504 
L 352.056796 -259.650637 
L 352.071877 -260.142771 
L 352.113649 -260.634904 
L 352.18365 -261.127037 
L 352.282667 -261.61917 
L 352.410675 -262.111303 
L 352.566817 -262.603437 
L 352.749428 -263.09557 
L 352.956091 -263.587703 
L 353.183738 -264.079836 
L 353.428765 -264.571969 
L 353.687181 -265.064102 
L 353.954764 -265.556236 
L 354.227214 -266.048369 
L 354.500313 -266.540502 
L 354.770062 -267.032635 
L 355.0328 -267.524768 
L 355.285305 -268.016902 
L 355.524862 -268.509035 
L 355.749307 -269.001168 
L 355.957042 -269.493301 
L 356.147027 -269.985434 
L 356.318753 -270.477568 
L 356.472188 -270.969701 
L 356.607721 -271.461834 
L 356.72609 -271.953967 
L 356.828312 -272.4461 
L 356.915606 -272.938233 
L 356.989323 -273.430367 
L 357.050885 -273.9225 
L 357.101726 -274.414633 
L 357.143249 -274.906766 
L 357.438001 -274.906766 
L 357.438001 -274.906766 
L 357.479524 -274.414633 
L 357.530365 -273.9225 
L 357.591927 -273.430367 
L 357.665644 -272.938233 
L 357.752938 -272.4461 
L 357.85516 -271.953967 
L 357.973529 -271.461834 
L 358.109062 -270.969701 
L 358.262497 -270.477568 
L 358.434223 -269.985434 
L 358.624208 -269.493301 
L 358.831943 -269.001168 
L 359.056388 -268.509035 
L 359.295945 -268.016902 
L 359.54845 -267.524768 
L 359.811188 -267.032635 
L 360.080937 -266.540502 
L 360.354036 -266.048369 
L 360.626486 -265.556236 
L 360.894069 -265.064102 
L 361.152485 -264.571969 
L 361.397512 -264.079836 
L 361.625159 -263.587703 
L 361.831822 -263.09557 
L 362.014433 -262.603437 
L 362.170575 -262.111303 
L 362.298583 -261.61917 
L 362.3976 -261.127037 
L 362.467601 -260.634904 
L 362.509373 -260.142771 
L 362.524454 -259.650637 
L 362.515044 -259.158504 
L 362.483881 -258.666371 
L 362.434096 -258.174238 
L 362.36906 -257.682105 
L 362.292226 -257.189972 
L 362.206982 -256.697838 
L 362.116512 -256.205705 
L 362.023688 -255.713572 
L 361.930981 -255.221439 
L 361.840399 -254.729306 
L 361.753459 -254.237172 
L 361.671177 -253.745039 
L 361.594079 -253.252906 
L 361.522238 -252.760773 
L 361.455312 -252.26864 
L 361.3926 -251.776506 
L 361.333099 -251.284373 
L 361.275565 -250.79224 
L 361.218576 -250.300107 
L 361.160596 -249.807974 
L 361.100044 -249.315841 
L 361.035354 -248.823707 
L 360.965048 -248.331574 
L 360.887798 -247.839441 
L 360.802496 -247.347308 
L 360.70831 -246.855175 
L 360.604737 -246.363041 
L 360.491649 -245.870908 
L 360.369314 -245.378775 
L 360.238405 -244.886642 
L 360.099987 -244.394509 
L 359.955481 -243.902376 
L 359.806607 -243.410242 
L 359.655308 -242.918109 
L 359.503655 -242.425976 
L 359.353749 -241.933843 
L 359.207614 -241.44171 
L 359.067094 -240.949576 
L 358.933768 -240.457443 
L 358.808873 -239.96531 
L 358.69326 -239.473177 
L 358.587365 -238.981044 
L 358.491217 -238.48891 
L 358.404465 -237.996777 
L 358.326433 -237.504644 
L 358.256189 -237.012511 
L 358.192631 -236.520378 
L 358.134567 -236.028245 
L 358.080808 -235.536111 
L 358.030243 -235.043978 
L 357.981901 -234.551845 
L 357.934998 -234.059712 
L 357.888965 -233.567579 
L 357.843457 -233.075445 
L 357.798342 -232.583312 
L 357.753678 -232.091179 
L 357.709676 -231.599046 
L 357.666658 -231.106913 
L 357.625012 -230.61478 
L 357.585149 -230.122646 
L 357.547463 -229.630513 
L 357.512299 -229.13838 
L 357.479931 -228.646247 
L 357.450548 -228.154114 
L 357.424244 -227.66198 
L 357.401025 -227.169847 
L 357.380816 -226.677714 
L 357.363471 -226.185581 
z
" id="mb4dbd8a23b" style="stroke:#3d3d3d;stroke-width:1.5;"/>
    </defs>
    <g clip-path="url(#pd6b45fc82f)">
     <use style="fill:#9fd495;stroke:#3d3d3d;stroke-width:1.5;" x="0" xlink:href="#mb4dbd8a23b" y="368.607178"/>
    </g>
   </g>
   <g id="PolyCollection_9">
    <defs>
     <path d="M 396.986927 -92.273053 
L 396.954323 -92.273053 
L 396.950367 -94.512593 
L 396.945764 -96.752132 
L 396.940493 -98.991672 
L 396.934557 -101.231212 
L 396.927985 -103.470752 
L 396.920839 -105.710291 
L 396.913213 -107.949831 
L 396.905235 -110.189371 
L 396.897063 -112.428911 
L 396.888884 -114.66845 
L 396.8809 -116.90799 
L 396.873328 -119.14753 
L 396.866378 -121.38707 
L 396.860246 -123.626609 
L 396.8551 -125.866149 
L 396.851063 -128.105689 
L 396.848204 -130.345229 
L 396.846525 -132.584768 
L 396.845955 -134.824308 
L 396.846343 -137.063848 
L 396.847461 -139.303388 
L 396.849003 -141.542927 
L 396.850594 -143.782467 
L 396.851797 -146.022007 
L 396.85213 -148.261547 
L 396.851078 -150.501086 
L 396.848111 -152.740626 
L 396.842701 -154.980166 
L 396.834344 -157.219706 
L 396.822577 -159.459246 
L 396.807 -161.698785 
L 396.787291 -163.938325 
L 396.763227 -166.177865 
L 396.7347 -168.417405 
L 396.701724 -170.656944 
L 396.66445 -172.896484 
L 396.623168 -175.136024 
L 396.578306 -177.375564 
L 396.53042 -179.615103 
L 396.480187 -181.854643 
L 396.428381 -184.094183 
L 396.375849 -186.333723 
L 396.323478 -188.573262 
L 396.272164 -190.812802 
L 396.222776 -193.052342 
L 396.176114 -195.291882 
L 396.132882 -197.531421 
L 396.09365 -199.770961 
L 396.058833 -202.010501 
L 396.028673 -204.250041 
L 396.003228 -206.48958 
L 395.982375 -208.72912 
L 395.965818 -210.96866 
L 395.953105 -213.2082 
L 395.943661 -215.447739 
L 395.936811 -217.687279 
L 395.931829 -219.926819 
L 395.927969 -222.166359 
L 395.924513 -224.405898 
L 395.920806 -226.645438 
L 395.916295 -228.884978 
L 395.91056 -231.124518 
L 395.903338 -233.364057 
L 395.894541 -235.603597 
L 395.884268 -237.843137 
L 395.8728 -240.082677 
L 395.860601 -242.322216 
L 395.848295 -244.561756 
L 395.836641 -246.801296 
L 395.826509 -249.040836 
L 395.81883 -251.280375 
L 395.814562 -253.519915 
L 395.814635 -255.759455 
L 395.819906 -257.998995 
L 395.831108 -260.238534 
L 395.848811 -262.478074 
L 395.87338 -264.717614 
L 395.904949 -266.957154 
L 395.943407 -269.196693 
L 395.988395 -271.436233 
L 396.039316 -273.675773 
L 396.09536 -275.915313 
L 396.155543 -278.154852 
L 396.218748 -280.394392 
L 396.283785 -282.633932 
L 396.349441 -284.873472 
L 396.414535 -287.113011 
L 396.477969 -289.352551 
L 396.538768 -291.592091 
L 396.596114 -293.831631 
L 396.649366 -296.07117 
L 396.698068 -298.31071 
L 396.741948 -300.55025 
L 396.780909 -302.78979 
L 396.815005 -305.029329 
L 396.844422 -307.268869 
L 396.869448 -309.508409 
L 396.890443 -311.747949 
L 396.907815 -313.987488 
L 397.033435 -313.987488 
L 397.033435 -313.987488 
L 397.050807 -311.747949 
L 397.071802 -309.508409 
L 397.096828 -307.268869 
L 397.126245 -305.029329 
L 397.160341 -302.78979 
L 397.199302 -300.55025 
L 397.243182 -298.31071 
L 397.291884 -296.07117 
L 397.345136 -293.831631 
L 397.402482 -291.592091 
L 397.463281 -289.352551 
L 397.526715 -287.113011 
L 397.591809 -284.873472 
L 397.657465 -282.633932 
L 397.722502 -280.394392 
L 397.785707 -278.154852 
L 397.84589 -275.915313 
L 397.901934 -273.675773 
L 397.952855 -271.436233 
L 397.997843 -269.196693 
L 398.036301 -266.957154 
L 398.06787 -264.717614 
L 398.092439 -262.478074 
L 398.110142 -260.238534 
L 398.121344 -257.998995 
L 398.126615 -255.759455 
L 398.126688 -253.519915 
L 398.12242 -251.280375 
L 398.114741 -249.040836 
L 398.104609 -246.801296 
L 398.092955 -244.561756 
L 398.080649 -242.322216 
L 398.06845 -240.082677 
L 398.056982 -237.843137 
L 398.046709 -235.603597 
L 398.037912 -233.364057 
L 398.03069 -231.124518 
L 398.024955 -228.884978 
L 398.020444 -226.645438 
L 398.016737 -224.405898 
L 398.013281 -222.166359 
L 398.009421 -219.926819 
L 398.004439 -217.687279 
L 397.997589 -215.447739 
L 397.988145 -213.2082 
L 397.975432 -210.96866 
L 397.958875 -208.72912 
L 397.938022 -206.48958 
L 397.912577 -204.250041 
L 397.882417 -202.010501 
L 397.8476 -199.770961 
L 397.808368 -197.531421 
L 397.765136 -195.291882 
L 397.718474 -193.052342 
L 397.669086 -190.812802 
L 397.617772 -188.573262 
L 397.565401 -186.333723 
L 397.512869 -184.094183 
L 397.461063 -181.854643 
L 397.41083 -179.615103 
L 397.362944 -177.375564 
L 397.318082 -175.136024 
L 397.2768 -172.896484 
L 397.239526 -170.656944 
L 397.20655 -168.417405 
L 397.178023 -166.177865 
L 397.153959 -163.938325 
L 397.13425 -161.698785 
L 397.118673 -159.459246 
L 397.106906 -157.219706 
L 397.098549 -154.980166 
L 397.093139 -152.740626 
L 397.090172 -150.501086 
L 397.08912 -148.261547 
L 397.089453 -146.022007 
L 397.090656 -143.782467 
L 397.092247 -141.542927 
L 397.093789 -139.303388 
L 397.094907 -137.063848 
L 397.095295 -134.824308 
L 397.094725 -132.584768 
L 397.093046 -130.345229 
L 397.090187 -128.105689 
L 397.08615 -125.866149 
L 397.081004 -123.626609 
L 397.074872 -121.38707 
L 397.067922 -119.14753 
L 397.06035 -116.90799 
L 397.052366 -114.66845 
L 397.044187 -112.428911 
L 397.036015 -110.189371 
L 397.028037 -107.949831 
L 397.020411 -105.710291 
L 397.013265 -103.470752 
L 397.006693 -101.231212 
L 397.000757 -98.991672 
L 396.995486 -96.752132 
L 396.990883 -94.512593 
L 396.986927 -92.273053 
z
" id="m252bbfa39a" style="stroke:#3d3d3d;stroke-width:1.5;"/>
    </defs>
    <g clip-path="url(#pd6b45fc82f)">
     <use style="fill:#f2a5a3;stroke:#3d3d3d;stroke-width:1.5;" x="0" xlink:href="#m252bbfa39a" y="368.607178"/>
    </g>
   </g>
   <g id="matplotlib.axis_1">
    <g id="xtick_1">
     <g id="line2d_1">
      <defs>
       <path d="M 0 0 
L 0 3.5 
" id="mfa1ff3c56d" style="stroke:#000000;stroke-width:0.8;"/>
      </defs>
      <g>
       <use style="stroke:#000000;stroke-width:0.8;" x="79.530625" xlink:href="#mfa1ff3c56d" y="288.430125"/>
      </g>
     </g>
     <g id="text_1">
      <!-- aflplusplus -->
      <g transform="translate(31.921618 328.897284)rotate(-30)scale(0.1 -0.1)">
       <defs>
        <path d="M 34.28125 27.484375 
Q 23.390625 27.484375 19.1875 25 
Q 14.984375 22.515625 14.984375 16.5 
Q 14.984375 11.71875 18.140625 8.90625 
Q 21.296875 6.109375 26.703125 6.109375 
Q 34.1875 6.109375 38.703125 11.40625 
Q 43.21875 16.703125 43.21875 25.484375 
L 43.21875 27.484375 
z
M 52.203125 31.203125 
L 52.203125 0 
L 43.21875 0 
L 43.21875 8.296875 
Q 40.140625 3.328125 35.546875 0.953125 
Q 30.953125 -1.421875 24.3125 -1.421875 
Q 15.921875 -1.421875 10.953125 3.296875 
Q 6 8.015625 6 15.921875 
Q 6 25.140625 12.171875 29.828125 
Q 18.359375 34.515625 30.609375 34.515625 
L 43.21875 34.515625 
L 43.21875 35.40625 
Q 43.21875 41.609375 39.140625 45 
Q 35.0625 48.390625 27.6875 48.390625 
Q 23 48.390625 18.546875 47.265625 
Q 14.109375 46.140625 10.015625 43.890625 
L 10.015625 52.203125 
Q 14.9375 54.109375 19.578125 55.046875 
Q 24.21875 56 28.609375 56 
Q 40.484375 56 46.34375 49.84375 
Q 52.203125 43.703125 52.203125 31.203125 
z
" id="DejaVuSans-97"/>
        <path d="M 37.109375 75.984375 
L 37.109375 68.5 
L 28.515625 68.5 
Q 23.6875 68.5 21.796875 66.546875 
Q 19.921875 64.59375 19.921875 59.515625 
L 19.921875 54.6875 
L 34.71875 54.6875 
L 34.71875 47.703125 
L 19.921875 47.703125 
L 19.921875 0 
L 10.890625 0 
L 10.890625 47.703125 
L 2.296875 47.703125 
L 2.296875 54.6875 
L 10.890625 54.6875 
L 10.890625 58.5 
Q 10.890625 67.625 15.140625 71.796875 
Q 19.390625 75.984375 28.609375 75.984375 
z
" id="DejaVuSans-102"/>
        <path d="M 9.421875 75.984375 
L 18.40625 75.984375 
L 18.40625 0 
L 9.421875 0 
z
" id="DejaVuSans-108"/>
        <path d="M 18.109375 8.203125 
L 18.109375 -20.796875 
L 9.078125 -20.796875 
L 9.078125 54.6875 
L 18.109375 54.6875 
L 18.109375 46.390625 
Q 20.953125 51.265625 25.265625 53.625 
Q 29.59375 56 35.59375 56 
Q 45.5625 56 51.78125 48.09375 
Q 58.015625 40.1875 58.015625 27.296875 
Q 58.015625 14.40625 51.78125 6.484375 
Q 45.5625 -1.421875 35.59375 -1.421875 
Q 29.59375 -1.421875 25.265625 0.953125 
Q 20.953125 3.328125 18.109375 8.203125 
z
M 48.6875 27.296875 
Q 48.6875 37.203125 44.609375 42.84375 
Q 40.53125 48.484375 33.40625 48.484375 
Q 26.265625 48.484375 22.1875 42.84375 
Q 18.109375 37.203125 18.109375 27.296875 
Q 18.109375 17.390625 22.1875 11.75 
Q 26.265625 6.109375 33.40625 6.109375 
Q 40.53125 6.109375 44.609375 11.75 
Q 48.6875 17.390625 48.6875 27.296875 
z
" id="DejaVuSans-112"/>
        <path d="M 8.5 21.578125 
L 8.5 54.6875 
L 17.484375 54.6875 
L 17.484375 21.921875 
Q 17.484375 14.15625 20.5 10.265625 
Q 23.53125 6.390625 29.59375 6.390625 
Q 36.859375 6.390625 41.078125 11.03125 
Q 45.3125 15.671875 45.3125 23.6875 
L 45.3125 54.6875 
L 54.296875 54.6875 
L 54.296875 0 
L 45.3125 0 
L 45.3125 8.40625 
Q 42.046875 3.421875 37.71875 1 
Q 33.40625 -1.421875 27.6875 -1.421875 
Q 18.265625 -1.421875 13.375 4.4375 
Q 8.5 10.296875 8.5 21.578125 
z
M 31.109375 56 
z
" id="DejaVuSans-117"/>
        <path d="M 44.28125 53.078125 
L 44.28125 44.578125 
Q 40.484375 46.53125 36.375 47.5 
Q 32.28125 48.484375 27.875 48.484375 
Q 21.1875 48.484375 17.84375 46.4375 
Q 14.5 44.390625 14.5 40.28125 
Q 14.5 37.15625 16.890625 35.375 
Q 19.28125 33.59375 26.515625 31.984375 
L 29.59375 31.296875 
Q 39.15625 29.25 43.1875 25.515625 
Q 47.21875 21.78125 47.21875 15.09375 
Q 47.21875 7.46875 41.1875 3.015625 
Q 35.15625 -1.421875 24.609375 -1.421875 
Q 20.21875 -1.421875 15.453125 -0.5625 
Q 10.6875 0.296875 5.421875 2 
L 5.421875 11.28125 
Q 10.40625 8.6875 15.234375 7.390625 
Q 20.0625 6.109375 24.8125 6.109375 
Q 31.15625 6.109375 34.5625 8.28125 
Q 37.984375 10.453125 37.984375 14.40625 
Q 37.984375 18.0625 35.515625 20.015625 
Q 33.0625 21.96875 24.703125 23.78125 
L 21.578125 24.515625 
Q 13.234375 26.265625 9.515625 29.90625 
Q 5.8125 33.546875 5.8125 39.890625 
Q 5.8125 47.609375 11.28125 51.796875 
Q 16.75 56 26.8125 56 
Q 31.78125 56 36.171875 55.265625 
Q 40.578125 54.546875 44.28125 53.078125 
z
" id="DejaVuSans-115"/>
       </defs>
       <use xlink:href="#DejaVuSans-97"/>
       <use x="61.279297" xlink:href="#DejaVuSans-102"/>
       <use x="96.484375" xlink:href="#DejaVuSans-108"/>
       <use x="124.267578" xlink:href="#DejaVuSans-112"/>
       <use x="187.744141" xlink:href="#DejaVuSans-108"/>
       <use x="215.527344" xlink:href="#DejaVuSans-117"/>
       <use x="278.90625" xlink:href="#DejaVuSans-115"/>
       <use x="331.005859" xlink:href="#DejaVuSans-112"/>
       <use x="394.482422" xlink:href="#DejaVuSans-108"/>
       <use x="422.265625" xlink:href="#DejaVuSans-117"/>
       <use x="485.644531" xlink:href="#DejaVuSans-115"/>
      </g>
     </g>
    </g>
    <g id="xtick_2">
     <g id="line2d_2">
      <g>
       <use style="stroke:#000000;stroke-width:0.8;" x="119.210625" xlink:href="#mfa1ff3c56d" y="288.430125"/>
      </g>
     </g>
     <g id="text_2">
      <!-- honggfuzz -->
      <g transform="translate(73.271424 327.933221)rotate(-30)scale(0.1 -0.1)">
       <defs>
        <path d="M 54.890625 33.015625 
L 54.890625 0 
L 45.90625 0 
L 45.90625 32.71875 
Q 45.90625 40.484375 42.875 44.328125 
Q 39.84375 48.1875 33.796875 48.1875 
Q 26.515625 48.1875 22.3125 43.546875 
Q 18.109375 38.921875 18.109375 30.90625 
L 18.109375 0 
L 9.078125 0 
L 9.078125 75.984375 
L 18.109375 75.984375 
L 18.109375 46.1875 
Q 21.34375 51.125 25.703125 53.5625 
Q 30.078125 56 35.796875 56 
Q 45.21875 56 50.046875 50.171875 
Q 54.890625 44.34375 54.890625 33.015625 
z
" id="DejaVuSans-104"/>
        <path d="M 30.609375 48.390625 
Q 23.390625 48.390625 19.1875 42.75 
Q 14.984375 37.109375 14.984375 27.296875 
Q 14.984375 17.484375 19.15625 11.84375 
Q 23.34375 6.203125 30.609375 6.203125 
Q 37.796875 6.203125 41.984375 11.859375 
Q 46.1875 17.53125 46.1875 27.296875 
Q 46.1875 37.015625 41.984375 42.703125 
Q 37.796875 48.390625 30.609375 48.390625 
z
M 30.609375 56 
Q 42.328125 56 49.015625 48.375 
Q 55.71875 40.765625 55.71875 27.296875 
Q 55.71875 13.875 49.015625 6.21875 
Q 42.328125 -1.421875 30.609375 -1.421875 
Q 18.84375 -1.421875 12.171875 6.21875 
Q 5.515625 13.875 5.515625 27.296875 
Q 5.515625 40.765625 12.171875 48.375 
Q 18.84375 56 30.609375 56 
z
" id="DejaVuSans-111"/>
        <path d="M 54.890625 33.015625 
L 54.890625 0 
L 45.90625 0 
L 45.90625 32.71875 
Q 45.90625 40.484375 42.875 44.328125 
Q 39.84375 48.1875 33.796875 48.1875 
Q 26.515625 48.1875 22.3125 43.546875 
Q 18.109375 38.921875 18.109375 30.90625 
L 18.109375 0 
L 9.078125 0 
L 9.078125 54.6875 
L 18.109375 54.6875 
L 18.109375 46.1875 
Q 21.34375 51.125 25.703125 53.5625 
Q 30.078125 56 35.796875 56 
Q 45.21875 56 50.046875 50.171875 
Q 54.890625 44.34375 54.890625 33.015625 
z
" id="DejaVuSans-110"/>
        <path d="M 45.40625 27.984375 
Q 45.40625 37.75 41.375 43.109375 
Q 37.359375 48.484375 30.078125 48.484375 
Q 22.859375 48.484375 18.828125 43.109375 
Q 14.796875 37.75 14.796875 27.984375 
Q 14.796875 18.265625 18.828125 12.890625 
Q 22.859375 7.515625 30.078125 7.515625 
Q 37.359375 7.515625 41.375 12.890625 
Q 45.40625 18.265625 45.40625 27.984375 
z
M 54.390625 6.78125 
Q 54.390625 -7.171875 48.1875 -13.984375 
Q 42 -20.796875 29.203125 -20.796875 
Q 24.46875 -20.796875 20.265625 -20.09375 
Q 16.0625 -19.390625 12.109375 -17.921875 
L 12.109375 -9.1875 
Q 16.0625 -11.328125 19.921875 -12.34375 
Q 23.78125 -13.375 27.78125 -13.375 
Q 36.625 -13.375 41.015625 -8.765625 
Q 45.40625 -4.15625 45.40625 5.171875 
L 45.40625 9.625 
Q 42.625 4.78125 38.28125 2.390625 
Q 33.9375 0 27.875 0 
Q 17.828125 0 11.671875 7.65625 
Q 5.515625 15.328125 5.515625 27.984375 
Q 5.515625 40.671875 11.671875 48.328125 
Q 17.828125 56 27.875 56 
Q 33.9375 56 38.28125 53.609375 
Q 42.625 51.21875 45.40625 46.390625 
L 45.40625 54.6875 
L 54.390625 54.6875 
z
" id="DejaVuSans-103"/>
        <path d="M 5.515625 54.6875 
L 48.1875 54.6875 
L 48.1875 46.484375 
L 14.40625 7.171875 
L 48.1875 7.171875 
L 48.1875 0 
L 4.296875 0 
L 4.296875 8.203125 
L 38.09375 47.515625 
L 5.515625 47.515625 
z
" id="DejaVuSans-122"/>
       </defs>
       <use xlink:href="#DejaVuSans-104"/>
       <use x="63.378906" xlink:href="#DejaVuSans-111"/>
       <use x="124.560547" xlink:href="#DejaVuSans-110"/>
       <use x="187.939453" xlink:href="#DejaVuSans-103"/>
       <use x="251.416016" xlink:href="#DejaVuSans-103"/>
       <use x="314.892578" xlink:href="#DejaVuSans-102"/>
       <use x="350.097656" xlink:href="#DejaVuSans-117"/>
       <use x="413.476562" xlink:href="#DejaVuSans-122"/>
       <use x="465.966797" xlink:href="#DejaVuSans-122"/>
      </g>
     </g>
    </g>
    <g id="xtick_3">
     <g id="line2d_3">
      <g>
       <use style="stroke:#000000;stroke-width:0.8;" x="158.890625" xlink:href="#mfa1ff3c56d" y="288.430125"/>
      </g>
     </g>
     <g id="text_3">
      <!-- entropic -->
      <g transform="translate(122.308557 322.530877)rotate(-30)scale(0.1 -0.1)">
       <defs>
        <path d="M 56.203125 29.59375 
L 56.203125 25.203125 
L 14.890625 25.203125 
Q 15.484375 15.921875 20.484375 11.0625 
Q 25.484375 6.203125 34.421875 6.203125 
Q 39.59375 6.203125 44.453125 7.46875 
Q 49.3125 8.734375 54.109375 11.28125 
L 54.109375 2.78125 
Q 49.265625 0.734375 44.1875 -0.34375 
Q 39.109375 -1.421875 33.890625 -1.421875 
Q 20.796875 -1.421875 13.15625 6.1875 
Q 5.515625 13.8125 5.515625 26.8125 
Q 5.515625 40.234375 12.765625 48.109375 
Q 20.015625 56 32.328125 56 
Q 43.359375 56 49.78125 48.890625 
Q 56.203125 41.796875 56.203125 29.59375 
z
M 47.21875 32.234375 
Q 47.125 39.59375 43.09375 43.984375 
Q 39.0625 48.390625 32.421875 48.390625 
Q 24.90625 48.390625 20.390625 44.140625 
Q 15.875 39.890625 15.1875 32.171875 
z
" id="DejaVuSans-101"/>
        <path d="M 18.3125 70.21875 
L 18.3125 54.6875 
L 36.8125 54.6875 
L 36.8125 47.703125 
L 18.3125 47.703125 
L 18.3125 18.015625 
Q 18.3125 11.328125 20.140625 9.421875 
Q 21.96875 7.515625 27.59375 7.515625 
L 36.8125 7.515625 
L 36.8125 0 
L 27.59375 0 
Q 17.1875 0 13.234375 3.875 
Q 9.28125 7.765625 9.28125 18.015625 
L 9.28125 47.703125 
L 2.6875 47.703125 
L 2.6875 54.6875 
L 9.28125 54.6875 
L 9.28125 70.21875 
z
" id="DejaVuSans-116"/>
        <path d="M 41.109375 46.296875 
Q 39.59375 47.171875 37.8125 47.578125 
Q 36.03125 48 33.890625 48 
Q 26.265625 48 22.1875 43.046875 
Q 18.109375 38.09375 18.109375 28.8125 
L 18.109375 0 
L 9.078125 0 
L 9.078125 54.6875 
L 18.109375 54.6875 
L 18.109375 46.1875 
Q 20.953125 51.171875 25.484375 53.578125 
Q 30.03125 56 36.53125 56 
Q 37.453125 56 38.578125 55.875 
Q 39.703125 55.765625 41.0625 55.515625 
z
" id="DejaVuSans-114"/>
        <path d="M 9.421875 54.6875 
L 18.40625 54.6875 
L 18.40625 0 
L 9.421875 0 
z
M 9.421875 75.984375 
L 18.40625 75.984375 
L 18.40625 64.59375 
L 9.421875 64.59375 
z
" id="DejaVuSans-105"/>
        <path d="M 48.78125 52.59375 
L 48.78125 44.1875 
Q 44.96875 46.296875 41.140625 47.34375 
Q 37.3125 48.390625 33.40625 48.390625 
Q 24.65625 48.390625 19.8125 42.84375 
Q 14.984375 37.3125 14.984375 27.296875 
Q 14.984375 17.28125 19.8125 11.734375 
Q 24.65625 6.203125 33.40625 6.203125 
Q 37.3125 6.203125 41.140625 7.25 
Q 44.96875 8.296875 48.78125 10.40625 
L 48.78125 2.09375 
Q 45.015625 0.34375 40.984375 -0.53125 
Q 36.96875 -1.421875 32.421875 -1.421875 
Q 20.0625 -1.421875 12.78125 6.34375 
Q 5.515625 14.109375 5.515625 27.296875 
Q 5.515625 40.671875 12.859375 48.328125 
Q 20.21875 56 33.015625 56 
Q 37.15625 56 41.109375 55.140625 
Q 45.0625 54.296875 48.78125 52.59375 
z
" id="DejaVuSans-99"/>
       </defs>
       <use xlink:href="#DejaVuSans-101"/>
       <use x="61.523438" xlink:href="#DejaVuSans-110"/>
       <use x="124.902344" xlink:href="#DejaVuSans-116"/>
       <use x="164.111328" xlink:href="#DejaVuSans-114"/>
       <use x="202.974609" xlink:href="#DejaVuSans-111"/>
       <use x="264.15625" xlink:href="#DejaVuSans-112"/>
       <use x="327.632812" xlink:href="#DejaVuSans-105"/>
       <use x="355.416016" xlink:href="#DejaVuSans-99"/>
      </g>
     </g>
    </g>
    <g id="xtick_4">
     <g id="line2d_4">
      <g>
       <use style="stroke:#000000;stroke-width:0.8;" x="198.570625" xlink:href="#mfa1ff3c56d" y="288.430125"/>
      </g>
     </g>
     <g id="text_4">
      <!-- mopt -->
      <g transform="translate(174.903161 315.074627)rotate(-30)scale(0.1 -0.1)">
       <defs>
        <path d="M 52 44.1875 
Q 55.375 50.25 60.0625 53.125 
Q 64.75 56 71.09375 56 
Q 79.640625 56 84.28125 50.015625 
Q 88.921875 44.046875 88.921875 33.015625 
L 88.921875 0 
L 79.890625 0 
L 79.890625 32.71875 
Q 79.890625 40.578125 77.09375 44.375 
Q 74.3125 48.1875 68.609375 48.1875 
Q 61.625 48.1875 57.5625 43.546875 
Q 53.515625 38.921875 53.515625 30.90625 
L 53.515625 0 
L 44.484375 0 
L 44.484375 32.71875 
Q 44.484375 40.625 41.703125 44.40625 
Q 38.921875 48.1875 33.109375 48.1875 
Q 26.21875 48.1875 22.15625 43.53125 
Q 18.109375 38.875 18.109375 30.90625 
L 18.109375 0 
L 9.078125 0 
L 9.078125 54.6875 
L 18.109375 54.6875 
L 18.109375 46.1875 
Q 21.1875 51.21875 25.484375 53.609375 
Q 29.78125 56 35.6875 56 
Q 41.65625 56 45.828125 52.96875 
Q 50 49.953125 52 44.1875 
z
" id="DejaVuSans-109"/>
       </defs>
       <use xlink:href="#DejaVuSans-109"/>
       <use x="97.412109" xlink:href="#DejaVuSans-111"/>
       <use x="158.59375" xlink:href="#DejaVuSans-112"/>
       <use x="222.070312" xlink:href="#DejaVuSans-116"/>
      </g>
     </g>
    </g>
    <g id="xtick_5">
     <g id="line2d_5">
      <g>
       <use style="stroke:#000000;stroke-width:0.8;" x="238.250625" xlink:href="#mfa1ff3c56d" y="288.430125"/>
      </g>
     </g>
     <g id="text_5">
      <!-- lafintel -->
      <g transform="translate(207.42492 319.20744)rotate(-30)scale(0.1 -0.1)">
       <use xlink:href="#DejaVuSans-108"/>
       <use x="27.783203" xlink:href="#DejaVuSans-97"/>
       <use x="89.0625" xlink:href="#DejaVuSans-102"/>
       <use x="124.267578" xlink:href="#DejaVuSans-105"/>
       <use x="152.050781" xlink:href="#DejaVuSans-110"/>
       <use x="215.429688" xlink:href="#DejaVuSans-116"/>
       <use x="254.638672" xlink:href="#DejaVuSans-101"/>
       <use x="316.162109" xlink:href="#DejaVuSans-108"/>
      </g>
     </g>
    </g>
    <g id="xtick_6">
     <g id="line2d_6">
      <g>
       <use style="stroke:#000000;stroke-width:0.8;" x="277.930625" xlink:href="#mfa1ff3c56d" y="288.430125"/>
      </g>
     </g>
     <g id="text_6">
      <!-- aflplusplus_qemu -->
      <g transform="translate(201.101693 345.687127)rotate(-30)scale(0.1 -0.1)">
       <defs>
        <path d="M 50.984375 -16.609375 
L 50.984375 -23.578125 
L -0.984375 -23.578125 
L -0.984375 -16.609375 
z
" id="DejaVuSans-95"/>
        <path d="M 14.796875 27.296875 
Q 14.796875 17.390625 18.875 11.75 
Q 22.953125 6.109375 30.078125 6.109375 
Q 37.203125 6.109375 41.296875 11.75 
Q 45.40625 17.390625 45.40625 27.296875 
Q 45.40625 37.203125 41.296875 42.84375 
Q 37.203125 48.484375 30.078125 48.484375 
Q 22.953125 48.484375 18.875 42.84375 
Q 14.796875 37.203125 14.796875 27.296875 
z
M 45.40625 8.203125 
Q 42.578125 3.328125 38.25 0.953125 
Q 33.9375 -1.421875 27.875 -1.421875 
Q 17.96875 -1.421875 11.734375 6.484375 
Q 5.515625 14.40625 5.515625 27.296875 
Q 5.515625 40.1875 11.734375 48.09375 
Q 17.96875 56 27.875 56 
Q 33.9375 56 38.25 53.625 
Q 42.578125 51.265625 45.40625 46.390625 
L 45.40625 54.6875 
L 54.390625 54.6875 
L 54.390625 -20.796875 
L 45.40625 -20.796875 
z
" id="DejaVuSans-113"/>
       </defs>
       <use xlink:href="#DejaVuSans-97"/>
       <use x="61.279297" xlink:href="#DejaVuSans-102"/>
       <use x="96.484375" xlink:href="#DejaVuSans-108"/>
       <use x="124.267578" xlink:href="#DejaVuSans-112"/>
       <use x="187.744141" xlink:href="#DejaVuSans-108"/>
       <use x="215.527344" xlink:href="#DejaVuSans-117"/>
       <use x="278.90625" xlink:href="#DejaVuSans-115"/>
       <use x="331.005859" xlink:href="#DejaVuSans-112"/>
       <use x="394.482422" xlink:href="#DejaVuSans-108"/>
       <use x="422.265625" xlink:href="#DejaVuSans-117"/>
       <use x="485.644531" xlink:href="#DejaVuSans-115"/>
       <use x="537.744141" xlink:href="#DejaVuSans-95"/>
       <use x="587.744141" xlink:href="#DejaVuSans-113"/>
       <use x="651.220703" xlink:href="#DejaVuSans-101"/>
       <use x="712.744141" xlink:href="#DejaVuSans-109"/>
       <use x="810.15625" xlink:href="#DejaVuSans-117"/>
      </g>
     </g>
    </g>
    <g id="xtick_7">
     <g id="line2d_7">
      <g>
       <use style="stroke:#000000;stroke-width:0.8;" x="317.610625" xlink:href="#mfa1ff3c56d" y="288.430125"/>
      </g>
     </g>
     <g id="text_7">
      <!-- libfuzzer -->
      <g transform="translate(279.744404 323.272284)rotate(-30)scale(0.1 -0.1)">
       <defs>
        <path d="M 48.6875 27.296875 
Q 48.6875 37.203125 44.609375 42.84375 
Q 40.53125 48.484375 33.40625 48.484375 
Q 26.265625 48.484375 22.1875 42.84375 
Q 18.109375 37.203125 18.109375 27.296875 
Q 18.109375 17.390625 22.1875 11.75 
Q 26.265625 6.109375 33.40625 6.109375 
Q 40.53125 6.109375 44.609375 11.75 
Q 48.6875 17.390625 48.6875 27.296875 
z
M 18.109375 46.390625 
Q 20.953125 51.265625 25.265625 53.625 
Q 29.59375 56 35.59375 56 
Q 45.5625 56 51.78125 48.09375 
Q 58.015625 40.1875 58.015625 27.296875 
Q 58.015625 14.40625 51.78125 6.484375 
Q 45.5625 -1.421875 35.59375 -1.421875 
Q 29.59375 -1.421875 25.265625 0.953125 
Q 20.953125 3.328125 18.109375 8.203125 
L 18.109375 0 
L 9.078125 0 
L 9.078125 75.984375 
L 18.109375 75.984375 
z
" id="DejaVuSans-98"/>
       </defs>
       <use xlink:href="#DejaVuSans-108"/>
       <use x="27.783203" xlink:href="#DejaVuSans-105"/>
       <use x="55.566406" xlink:href="#DejaVuSans-98"/>
       <use x="119.042969" xlink:href="#DejaVuSans-102"/>
       <use x="154.248047" xlink:href="#DejaVuSans-117"/>
       <use x="217.626953" xlink:href="#DejaVuSans-122"/>
       <use x="270.117188" xlink:href="#DejaVuSans-122"/>
       <use x="322.607422" xlink:href="#DejaVuSans-101"/>
       <use x="384.130859" xlink:href="#DejaVuSans-114"/>
      </g>
     </g>
    </g>
    <g id="xtick_8">
     <g id="line2d_8">
      <g>
       <use style="stroke:#000000;stroke-width:0.8;" x="357.290625" xlink:href="#mfa1ff3c56d" y="288.430125"/>
      </g>
     </g>
     <g id="text_8">
      <!-- aflplusplus_flat -->
      <g transform="translate(291.05562 339.570721)rotate(-30)scale(0.1 -0.1)">
       <use xlink:href="#DejaVuSans-97"/>
       <use x="61.279297" xlink:href="#DejaVuSans-102"/>
       <use x="96.484375" xlink:href="#DejaVuSans-108"/>
       <use x="124.267578" xlink:href="#DejaVuSans-112"/>
       <use x="187.744141" xlink:href="#DejaVuSans-108"/>
       <use x="215.527344" xlink:href="#DejaVuSans-117"/>
       <use x="278.90625" xlink:href="#DejaVuSans-115"/>
       <use x="331.005859" xlink:href="#DejaVuSans-112"/>
       <use x="394.482422" xlink:href="#DejaVuSans-108"/>
       <use x="422.265625" xlink:href="#DejaVuSans-117"/>
       <use x="485.644531" xlink:href="#DejaVuSans-115"/>
       <use x="537.744141" xlink:href="#DejaVuSans-95"/>
       <use x="587.744141" xlink:href="#DejaVuSans-102"/>
       <use x="622.949219" xlink:href="#DejaVuSans-108"/>
       <use x="650.732422" xlink:href="#DejaVuSans-97"/>
       <use x="712.011719" xlink:href="#DejaVuSans-116"/>
      </g>
     </g>
    </g>
    <g id="xtick_9">
     <g id="line2d_9">
      <g>
       <use style="stroke:#000000;stroke-width:0.8;" x="396.970625" xlink:href="#mfa1ff3c56d" y="288.430125"/>
      </g>
     </g>
     <g id="text_9">
      <!-- fairfuzz -->
      <g transform="translate(363.98121 320.456659)rotate(-30)scale(0.1 -0.1)">
       <use xlink:href="#DejaVuSans-102"/>
       <use x="35.205078" xlink:href="#DejaVuSans-97"/>
       <use x="96.484375" xlink:href="#DejaVuSans-105"/>
       <use x="124.267578" xlink:href="#DejaVuSans-114"/>
       <use x="165.380859" xlink:href="#DejaVuSans-102"/>
       <use x="200.585938" xlink:href="#DejaVuSans-117"/>
       <use x="263.964844" xlink:href="#DejaVuSans-122"/>
       <use x="316.455078" xlink:href="#DejaVuSans-122"/>
      </g>
     </g>
    </g>
    <g id="text_10">
     <!-- Fuzzer (highest median coverage on the left) -->
     <g transform="translate(125.632656 359.32749)scale(0.1 -0.1)">
      <defs>
       <path d="M 9.8125 72.90625 
L 51.703125 72.90625 
L 51.703125 64.59375 
L 19.671875 64.59375 
L 19.671875 43.109375 
L 48.578125 43.109375 
L 48.578125 34.8125 
L 19.671875 34.8125 
L 19.671875 0 
L 9.8125 0 
z
" id="DejaVuSans-70"/>
       <path id="DejaVuSans-32"/>
       <path d="M 31 75.875 
Q 24.46875 64.65625 21.28125 53.65625 
Q 18.109375 42.671875 18.109375 31.390625 
Q 18.109375 20.125 21.3125 9.0625 
Q 24.515625 -2 31 -13.1875 
L 23.1875 -13.1875 
Q 15.875 -1.703125 12.234375 9.375 
Q 8.59375 20.453125 8.59375 31.390625 
Q 8.59375 42.28125 12.203125 53.3125 
Q 15.828125 64.359375 23.1875 75.875 
z
" id="DejaVuSans-40"/>
       <path d="M 45.40625 46.390625 
L 45.40625 75.984375 
L 54.390625 75.984375 
L 54.390625 0 
L 45.40625 0 
L 45.40625 8.203125 
Q 42.578125 3.328125 38.25 0.953125 
Q 33.9375 -1.421875 27.875 -1.421875 
Q 17.96875 -1.421875 11.734375 6.484375 
Q 5.515625 14.40625 5.515625 27.296875 
Q 5.515625 40.1875 11.734375 48.09375 
Q 17.96875 56 27.875 56 
Q 33.9375 56 38.25 53.625 
Q 42.578125 51.265625 45.40625 46.390625 
z
M 14.796875 27.296875 
Q 14.796875 17.390625 18.875 11.75 
Q 22.953125 6.109375 30.078125 6.109375 
Q 37.203125 6.109375 41.296875 11.75 
Q 45.40625 17.390625 45.40625 27.296875 
Q 45.40625 37.203125 41.296875 42.84375 
Q 37.203125 48.484375 30.078125 48.484375 
Q 22.953125 48.484375 18.875 42.84375 
Q 14.796875 37.203125 14.796875 27.296875 
z
" id="DejaVuSans-100"/>
       <path d="M 2.984375 54.6875 
L 12.5 54.6875 
L 29.59375 8.796875 
L 46.6875 54.6875 
L 56.203125 54.6875 
L 35.6875 0 
L 23.484375 0 
z
" id="DejaVuSans-118"/>
       <path d="M 8.015625 75.875 
L 15.828125 75.875 
Q 23.140625 64.359375 26.78125 53.3125 
Q 30.421875 42.28125 30.421875 31.390625 
Q 30.421875 20.453125 26.78125 9.375 
Q 23.140625 -1.703125 15.828125 -13.1875 
L 8.015625 -13.1875 
Q 14.5 -2 17.703125 9.0625 
Q 20.90625 20.125 20.90625 31.390625 
Q 20.90625 42.671875 17.703125 53.65625 
Q 14.5 64.65625 8.015625 75.875 
z
" id="DejaVuSans-41"/>
      </defs>
      <use xlink:href="#DejaVuSans-70"/>
      <use x="52.019531" xlink:href="#DejaVuSans-117"/>
      <use x="115.398438" xlink:href="#DejaVuSans-122"/>
      <use x="167.888672" xlink:href="#DejaVuSans-122"/>
      <use x="220.378906" xlink:href="#DejaVuSans-101"/>
      <use x="281.902344" xlink:href="#DejaVuSans-114"/>
      <use x="323.015625" xlink:href="#DejaVuSans-32"/>
      <use x="354.802734" xlink:href="#DejaVuSans-40"/>
      <use x="393.816406" xlink:href="#DejaVuSans-104"/>
      <use x="457.195312" xlink:href="#DejaVuSans-105"/>
      <use x="484.978516" xlink:href="#DejaVuSans-103"/>
      <use x="548.455078" xlink:href="#DejaVuSans-104"/>
      <use x="611.833984" xlink:href="#DejaVuSans-101"/>
      <use x="673.357422" xlink:href="#DejaVuSans-115"/>
      <use x="725.457031" xlink:href="#DejaVuSans-116"/>
      <use x="764.666016" xlink:href="#DejaVuSans-32"/>
      <use x="796.453125" xlink:href="#DejaVuSans-109"/>
      <use x="893.865234" xlink:href="#DejaVuSans-101"/>
      <use x="955.388672" xlink:href="#DejaVuSans-100"/>
      <use x="1018.865234" xlink:href="#DejaVuSans-105"/>
      <use x="1046.648438" xlink:href="#DejaVuSans-97"/>
      <use x="1107.927734" xlink:href="#DejaVuSans-110"/>
      <use x="1171.306641" xlink:href="#DejaVuSans-32"/>
      <use x="1203.09375" xlink:href="#DejaVuSans-99"/>
      <use x="1258.074219" xlink:href="#DejaVuSans-111"/>
      <use x="1319.255859" xlink:href="#DejaVuSans-118"/>
      <use x="1378.435547" xlink:href="#DejaVuSans-101"/>
      <use x="1439.958984" xlink:href="#DejaVuSans-114"/>
      <use x="1481.072266" xlink:href="#DejaVuSans-97"/>
      <use x="1542.351562" xlink:href="#DejaVuSans-103"/>
      <use x="1605.828125" xlink:href="#DejaVuSans-101"/>
      <use x="1667.351562" xlink:href="#DejaVuSans-32"/>
      <use x="1699.138672" xlink:href="#DejaVuSans-111"/>
      <use x="1760.320312" xlink:href="#DejaVuSans-110"/>
      <use x="1823.699219" xlink:href="#DejaVuSans-32"/>
      <use x="1855.486328" xlink:href="#DejaVuSans-116"/>
      <use x="1894.695312" xlink:href="#DejaVuSans-104"/>
      <use x="1958.074219" xlink:href="#DejaVuSans-101"/>
      <use x="2019.597656" xlink:href="#DejaVuSans-32"/>
      <use x="2051.384766" xlink:href="#DejaVuSans-108"/>
      <use x="2079.167969" xlink:href="#DejaVuSans-101"/>
      <use x="2140.691406" xlink:href="#DejaVuSans-102"/>
      <use x="2174.146484" xlink:href="#DejaVuSans-116"/>
      <use x="2213.355469" xlink:href="#DejaVuSans-41"/>
     </g>
    </g>
   </g>
   <g id="matplotlib.axis_2">
    <g id="ytick_1">
     <g id="line2d_10">
      <defs>
       <path d="M 0 0 
L -3.5 0 
" id="md35f997fc5" style="stroke:#000000;stroke-width:0.8;"/>
      </defs>
      <g>
       <use style="stroke:#000000;stroke-width:0.8;" x="59.690625" xlink:href="#md35f997fc5" y="277.775842"/>
      </g>
     </g>
     <g id="text_11">
      <!-- 15000 -->
      <g transform="translate(20.878125 281.575061)scale(0.1 -0.1)">
       <defs>
        <path d="M 12.40625 8.296875 
L 28.515625 8.296875 
L 28.515625 63.921875 
L 10.984375 60.40625 
L 10.984375 69.390625 
L 28.421875 72.90625 
L 38.28125 72.90625 
L 38.28125 8.296875 
L 54.390625 8.296875 
L 54.390625 0 
L 12.40625 0 
z
" id="DejaVuSans-49"/>
        <path d="M 10.796875 72.90625 
L 49.515625 72.90625 
L 49.515625 64.59375 
L 19.828125 64.59375 
L 19.828125 46.734375 
Q 21.96875 47.46875 24.109375 47.828125 
Q 26.265625 48.1875 28.421875 48.1875 
Q 40.625 48.1875 47.75 41.5 
Q 54.890625 34.8125 54.890625 23.390625 
Q 54.890625 11.625 47.5625 5.09375 
Q 40.234375 -1.421875 26.90625 -1.421875 
Q 22.3125 -1.421875 17.546875 -0.640625 
Q 12.796875 0.140625 7.71875 1.703125 
L 7.71875 11.625 
Q 12.109375 9.234375 16.796875 8.0625 
Q 21.484375 6.890625 26.703125 6.890625 
Q 35.15625 6.890625 40.078125 11.328125 
Q 45.015625 15.765625 45.015625 23.390625 
Q 45.015625 31 40.078125 35.4375 
Q 35.15625 39.890625 26.703125 39.890625 
Q 22.75 39.890625 18.8125 39.015625 
Q 14.890625 38.140625 10.796875 36.28125 
z
" id="DejaVuSans-53"/>
        <path d="M 31.78125 66.40625 
Q 24.171875 66.40625 20.328125 58.90625 
Q 16.5 51.421875 16.5 36.375 
Q 16.5 21.390625 20.328125 13.890625 
Q 24.171875 6.390625 31.78125 6.390625 
Q 39.453125 6.390625 43.28125 13.890625 
Q 47.125 21.390625 47.125 36.375 
Q 47.125 51.421875 43.28125 58.90625 
Q 39.453125 66.40625 31.78125 66.40625 
z
M 31.78125 74.21875 
Q 44.046875 74.21875 50.515625 64.515625 
Q 56.984375 54.828125 56.984375 36.375 
Q 56.984375 17.96875 50.515625 8.265625 
Q 44.046875 -1.421875 31.78125 -1.421875 
Q 19.53125 -1.421875 13.0625 8.265625 
Q 6.59375 17.96875 6.59375 36.375 
Q 6.59375 54.828125 13.0625 64.515625 
Q 19.53125 74.21875 31.78125 74.21875 
z
" id="DejaVuSans-48"/>
       </defs>
       <use xlink:href="#DejaVuSans-49"/>
       <use x="63.623047" xlink:href="#DejaVuSans-53"/>
       <use x="127.246094" xlink:href="#DejaVuSans-48"/>
       <use x="190.869141" xlink:href="#DejaVuSans-48"/>
       <use x="254.492188" xlink:href="#DejaVuSans-48"/>
      </g>
     </g>
    </g>
    <g id="ytick_2">
     <g id="line2d_11">
      <g>
       <use style="stroke:#000000;stroke-width:0.8;" x="59.690625" xlink:href="#md35f997fc5" y="241.909047"/>
      </g>
     </g>
     <g id="text_12">
      <!-- 15500 -->
      <g transform="translate(20.878125 245.708266)scale(0.1 -0.1)">
       <use xlink:href="#DejaVuSans-49"/>
       <use x="63.623047" xlink:href="#DejaVuSans-53"/>
       <use x="127.246094" xlink:href="#DejaVuSans-53"/>
       <use x="190.869141" xlink:href="#DejaVuSans-48"/>
       <use x="254.492188" xlink:href="#DejaVuSans-48"/>
      </g>
     </g>
    </g>
    <g id="ytick_3">
     <g id="line2d_12">
      <g>
       <use style="stroke:#000000;stroke-width:0.8;" x="59.690625" xlink:href="#md35f997fc5" y="206.042252"/>
      </g>
     </g>
     <g id="text_13">
      <!-- 16000 -->
      <g transform="translate(20.878125 209.841471)scale(0.1 -0.1)">
       <defs>
        <path d="M 33.015625 40.375 
Q 26.375 40.375 22.484375 35.828125 
Q 18.609375 31.296875 18.609375 23.390625 
Q 18.609375 15.53125 22.484375 10.953125 
Q 26.375 6.390625 33.015625 6.390625 
Q 39.65625 6.390625 43.53125 10.953125 
Q 47.40625 15.53125 47.40625 23.390625 
Q 47.40625 31.296875 43.53125 35.828125 
Q 39.65625 40.375 33.015625 40.375 
z
M 52.59375 71.296875 
L 52.59375 62.3125 
Q 48.875 64.0625 45.09375 64.984375 
Q 41.3125 65.921875 37.59375 65.921875 
Q 27.828125 65.921875 22.671875 59.328125 
Q 17.53125 52.734375 16.796875 39.40625 
Q 19.671875 43.65625 24.015625 45.921875 
Q 28.375 48.1875 33.59375 48.1875 
Q 44.578125 48.1875 50.953125 41.515625 
Q 57.328125 34.859375 57.328125 23.390625 
Q 57.328125 12.15625 50.6875 5.359375 
Q 44.046875 -1.421875 33.015625 -1.421875 
Q 20.359375 -1.421875 13.671875 8.265625 
Q 6.984375 17.96875 6.984375 36.375 
Q 6.984375 53.65625 15.1875 63.9375 
Q 23.390625 74.21875 37.203125 74.21875 
Q 40.921875 74.21875 44.703125 73.484375 
Q 48.484375 72.75 52.59375 71.296875 
z
" id="DejaVuSans-54"/>
       </defs>
       <use xlink:href="#DejaVuSans-49"/>
       <use x="63.623047" xlink:href="#DejaVuSans-54"/>
       <use x="127.246094" xlink:href="#DejaVuSans-48"/>
       <use x="190.869141" xlink:href="#DejaVuSans-48"/>
       <use x="254.492188" xlink:href="#DejaVuSans-48"/>
      </g>
     </g>
    </g>
    <g id="ytick_4">
     <g id="line2d_13">
      <g>
       <use style="stroke:#000000;stroke-width:0.8;" x="59.690625" xlink:href="#md35f997fc5" y="170.175457"/>
      </g>
     </g>
     <g id="text_14">
      <!-- 16500 -->
      <g transform="translate(20.878125 173.974676)scale(0.1 -0.1)">
       <use xlink:href="#DejaVuSans-49"/>
       <use x="63.623047" xlink:href="#DejaVuSans-54"/>
       <use x="127.246094" xlink:href="#DejaVuSans-53"/>
       <use x="190.869141" xlink:href="#DejaVuSans-48"/>
       <use x="254.492188" xlink:href="#DejaVuSans-48"/>
      </g>
     </g>
    </g>
    <g id="ytick_5">
     <g id="line2d_14">
      <g>
       <use style="stroke:#000000;stroke-width:0.8;" x="59.690625" xlink:href="#md35f997fc5" y="134.308662"/>
      </g>
     </g>
     <g id="text_15">
      <!-- 17000 -->
      <g transform="translate(20.878125 138.107881)scale(0.1 -0.1)">
       <defs>
        <path d="M 8.203125 72.90625 
L 55.078125 72.90625 
L 55.078125 68.703125 
L 28.609375 0 
L 18.3125 0 
L 43.21875 64.59375 
L 8.203125 64.59375 
z
" id="DejaVuSans-55"/>
       </defs>
       <use xlink:href="#DejaVuSans-49"/>
       <use x="63.623047" xlink:href="#DejaVuSans-55"/>
       <use x="127.246094" xlink:href="#DejaVuSans-48"/>
       <use x="190.869141" xlink:href="#DejaVuSans-48"/>
       <use x="254.492188" xlink:href="#DejaVuSans-48"/>
      </g>
     </g>
    </g>
    <g id="ytick_6">
     <g id="line2d_15">
      <g>
       <use style="stroke:#000000;stroke-width:0.8;" x="59.690625" xlink:href="#md35f997fc5" y="98.441868"/>
      </g>
     </g>
     <g id="text_16">
      <!-- 17500 -->
      <g transform="translate(20.878125 102.241086)scale(0.1 -0.1)">
       <use xlink:href="#DejaVuSans-49"/>
       <use x="63.623047" xlink:href="#DejaVuSans-55"/>
       <use x="127.246094" xlink:href="#DejaVuSans-53"/>
       <use x="190.869141" xlink:href="#DejaVuSans-48"/>
       <use x="254.492188" xlink:href="#DejaVuSans-48"/>
      </g>
     </g>
    </g>
    <g id="ytick_7">
     <g id="line2d_16">
      <g>
       <use style="stroke:#000000;stroke-width:0.8;" x="59.690625" xlink:href="#md35f997fc5" y="62.575073"/>
      </g>
     </g>
     <g id="text_17">
      <!-- 18000 -->
      <g transform="translate(20.878125 66.374291)scale(0.1 -0.1)">
       <defs>
        <path d="M 31.78125 34.625 
Q 24.75 34.625 20.71875 30.859375 
Q 16.703125 27.09375 16.703125 20.515625 
Q 16.703125 13.921875 20.71875 10.15625 
Q 24.75 6.390625 31.78125 6.390625 
Q 38.8125 6.390625 42.859375 10.171875 
Q 46.921875 13.96875 46.921875 20.515625 
Q 46.921875 27.09375 42.890625 30.859375 
Q 38.875 34.625 31.78125 34.625 
z
M 21.921875 38.8125 
Q 15.578125 40.375 12.03125 44.71875 
Q 8.5 49.078125 8.5 55.328125 
Q 8.5 64.0625 14.71875 69.140625 
Q 20.953125 74.21875 31.78125 74.21875 
Q 42.671875 74.21875 48.875 69.140625 
Q 55.078125 64.0625 55.078125 55.328125 
Q 55.078125 49.078125 51.53125 44.71875 
Q 48 40.375 41.703125 38.8125 
Q 48.828125 37.15625 52.796875 32.3125 
Q 56.78125 27.484375 56.78125 20.515625 
Q 56.78125 9.90625 50.3125 4.234375 
Q 43.84375 -1.421875 31.78125 -1.421875 
Q 19.734375 -1.421875 13.25 4.234375 
Q 6.78125 9.90625 6.78125 20.515625 
Q 6.78125 27.484375 10.78125 32.3125 
Q 14.796875 37.15625 21.921875 38.8125 
z
M 18.3125 54.390625 
Q 18.3125 48.734375 21.84375 45.5625 
Q 25.390625 42.390625 31.78125 42.390625 
Q 38.140625 42.390625 41.71875 45.5625 
Q 45.3125 48.734375 45.3125 54.390625 
Q 45.3125 60.0625 41.71875 63.234375 
Q 38.140625 66.40625 31.78125 66.40625 
Q 25.390625 66.40625 21.84375 63.234375 
Q 18.3125 60.0625 18.3125 54.390625 
z
" id="DejaVuSans-56"/>
       </defs>
       <use xlink:href="#DejaVuSans-49"/>
       <use x="63.623047" xlink:href="#DejaVuSans-56"/>
       <use x="127.246094" xlink:href="#DejaVuSans-48"/>
       <use x="190.869141" xlink:href="#DejaVuSans-48"/>
       <use x="254.492188" xlink:href="#DejaVuSans-48"/>
      </g>
     </g>
    </g>
    <g id="ytick_8">
     <g id="line2d_17">
      <g>
       <use style="stroke:#000000;stroke-width:0.8;" x="59.690625" xlink:href="#md35f997fc5" y="26.708278"/>
      </g>
     </g>
     <g id="text_18">
      <!-- 18500 -->
      <g transform="translate(20.878125 30.507497)scale(0.1 -0.1)">
       <use xlink:href="#DejaVuSans-49"/>
       <use x="63.623047" xlink:href="#DejaVuSans-56"/>
       <use x="127.246094" xlink:href="#DejaVuSans-53"/>
       <use x="190.869141" xlink:href="#DejaVuSans-48"/>
       <use x="254.492188" xlink:href="#DejaVuSans-48"/>
      </g>
     </g>
    </g>
    <g id="text_19">
     <!-- Reached region coverage -->
     <g transform="translate(14.798438 219.136625)rotate(-90)scale(0.1 -0.1)">
      <defs>
       <path d="M 44.390625 34.1875 
Q 47.5625 33.109375 50.5625 29.59375 
Q 53.5625 26.078125 56.59375 19.921875 
L 66.609375 0 
L 56 0 
L 46.6875 18.703125 
Q 43.0625 26.03125 39.671875 28.421875 
Q 36.28125 30.8125 30.421875 30.8125 
L 19.671875 30.8125 
L 19.671875 0 
L 9.8125 0 
L 9.8125 72.90625 
L 32.078125 72.90625 
Q 44.578125 72.90625 50.734375 67.671875 
Q 56.890625 62.453125 56.890625 51.90625 
Q 56.890625 45.015625 53.6875 40.46875 
Q 50.484375 35.9375 44.390625 34.1875 
z
M 19.671875 64.796875 
L 19.671875 38.921875 
L 32.078125 38.921875 
Q 39.203125 38.921875 42.84375 42.21875 
Q 46.484375 45.515625 46.484375 51.90625 
Q 46.484375 58.296875 42.84375 61.546875 
Q 39.203125 64.796875 32.078125 64.796875 
z
" id="DejaVuSans-82"/>
      </defs>
      <use xlink:href="#DejaVuSans-82"/>
      <use x="64.982422" xlink:href="#DejaVuSans-101"/>
      <use x="126.505859" xlink:href="#DejaVuSans-97"/>
      <use x="187.785156" xlink:href="#DejaVuSans-99"/>
      <use x="242.765625" xlink:href="#DejaVuSans-104"/>
      <use x="306.144531" xlink:href="#DejaVuSans-101"/>
      <use x="367.667969" xlink:href="#DejaVuSans-100"/>
      <use x="431.144531" xlink:href="#DejaVuSans-32"/>
      <use x="462.931641" xlink:href="#DejaVuSans-114"/>
      <use x="501.794922" xlink:href="#DejaVuSans-101"/>
      <use x="563.318359" xlink:href="#DejaVuSans-103"/>
      <use x="626.794922" xlink:href="#DejaVuSans-105"/>
      <use x="654.578125" xlink:href="#DejaVuSans-111"/>
      <use x="715.759766" xlink:href="#DejaVuSans-110"/>
      <use x="779.138672" xlink:href="#DejaVuSans-32"/>
      <use x="810.925781" xlink:href="#DejaVuSans-99"/>
      <use x="865.90625" xlink:href="#DejaVuSans-111"/>
      <use x="927.087891" xlink:href="#DejaVuSans-118"/>
      <use x="986.267578" xlink:href="#DejaVuSans-101"/>
      <use x="1047.791016" xlink:href="#DejaVuSans-114"/>
      <use x="1088.904297" xlink:href="#DejaVuSans-97"/>
      <use x="1150.183594" xlink:href="#DejaVuSans-103"/>
      <use x="1213.660156" xlink:href="#DejaVuSans-101"/>
     </g>
    </g>
   </g>
   <g id="line2d_18">
    <path clip-path="url(#pd6b45fc82f)" d="M 79.530625 73.263378 
L 79.530625 45.072077 
" style="fill:none;stroke:#3d3d3d;stroke-linecap:square;stroke-width:1.5;"/>
   </g>
   <g id="line2d_19">
    <path clip-path="url(#pd6b45fc82f)" d="M 79.530625 64.422213 
L 79.530625 54.038776 
" style="fill:none;stroke:#3d3d3d;stroke-linecap:square;stroke-width:4.5;"/>
   </g>
   <g id="line2d_20">
    <path clip-path="url(#pd6b45fc82f)" d="M 119.210625 79.073798 
L 119.210625 56.190783 
" style="fill:none;stroke:#3d3d3d;stroke-linecap:square;stroke-width:1.5;"/>
   </g>
   <g id="line2d_21">
    <path clip-path="url(#pd6b45fc82f)" d="M 119.210625 75.469185 
L 119.210625 64.314612 
" style="fill:none;stroke:#3d3d3d;stroke-linecap:square;stroke-width:4.5;"/>
   </g>
   <g id="line2d_22">
    <path clip-path="url(#pd6b45fc82f)" d="M 158.890625 92.918381 
L 158.890625 80.938872 
" style="fill:none;stroke:#3d3d3d;stroke-linecap:square;stroke-width:1.5;"/>
   </g>
   <g id="line2d_23">
    <path clip-path="url(#pd6b45fc82f)" d="M 158.890625 89.403435 
L 158.890625 85.368421 
" style="fill:none;stroke:#3d3d3d;stroke-linecap:square;stroke-width:4.5;"/>
   </g>
   <g id="line2d_24">
    <path clip-path="url(#pd6b45fc82f)" d="M 198.570625 95.572524 
L 198.570625 89.331702 
" style="fill:none;stroke:#3d3d3d;stroke-linecap:square;stroke-width:1.5;"/>
   </g>
   <g id="line2d_25">
    <path clip-path="url(#pd6b45fc82f)" d="M 198.570625 93.474317 
L 198.570625 91.59131 
" style="fill:none;stroke:#3d3d3d;stroke-linecap:square;stroke-width:4.5;"/>
   </g>
   <g id="line2d_26">
    <path clip-path="url(#pd6b45fc82f)" d="M 238.250625 109.704041 
L 238.250625 81.943142 
" style="fill:none;stroke:#3d3d3d;stroke-linecap:square;stroke-width:1.5;"/>
   </g>
   <g id="line2d_27">
    <path clip-path="url(#pd6b45fc82f)" d="M 238.250625 98.406001 
L 238.250625 90.318039 
" style="fill:none;stroke:#3d3d3d;stroke-linecap:square;stroke-width:4.5;"/>
   </g>
   <g id="line2d_28">
    <path clip-path="url(#pd6b45fc82f)" d="M 277.930625 104.395756 
L 277.930625 84.955953 
" style="fill:none;stroke:#3d3d3d;stroke-linecap:square;stroke-width:1.5;"/>
   </g>
   <g id="line2d_29">
    <path clip-path="url(#pd6b45fc82f)" d="M 277.930625 99.840673 
L 277.930625 90.425639 
" style="fill:none;stroke:#3d3d3d;stroke-linecap:square;stroke-width:4.5;"/>
   </g>
   <g id="line2d_30">
    <path clip-path="url(#pd6b45fc82f)" d="M 317.610625 116.805667 
L 317.610625 102.100281 
" style="fill:none;stroke:#3d3d3d;stroke-linecap:square;stroke-width:1.5;"/>
   </g>
   <g id="line2d_31">
    <path clip-path="url(#pd6b45fc82f)" d="M 317.610625 109.937175 
L 317.610625 104.862024 
" style="fill:none;stroke:#3d3d3d;stroke-linecap:square;stroke-width:4.5;"/>
   </g>
   <g id="line2d_32">
    <path clip-path="url(#pd6b45fc82f)" d="M 357.290625 133.376126 
L 357.290625 102.745883 
" style="fill:none;stroke:#3d3d3d;stroke-linecap:square;stroke-width:1.5;"/>
   </g>
   <g id="line2d_33">
    <path clip-path="url(#pd6b45fc82f)" d="M 357.290625 120.213012 
L 357.290625 107.749301 
" style="fill:none;stroke:#3d3d3d;stroke-linecap:square;stroke-width:4.5;"/>
   </g>
   <g id="line2d_34">
    <path clip-path="url(#pd6b45fc82f)" d="M 396.970625 236.242094 
L 396.970625 94.711721 
" style="fill:none;stroke:#3d3d3d;stroke-linecap:square;stroke-width:1.5;"/>
   </g>
   <g id="line2d_35">
    <path clip-path="url(#pd6b45fc82f)" d="M 396.970625 160.096888 
L 396.970625 105.346226 
" style="fill:none;stroke:#3d3d3d;stroke-linecap:square;stroke-width:4.5;"/>
   </g>
   <g id="patch_3">
    <path d="M 59.690625 277.775842 
L 59.690625 26.708278 
" style="fill:none;stroke:#000000;stroke-linecap:square;stroke-linejoin:miter;stroke-width:0.8;"/>
   </g>
   <g id="patch_4">
    <path d="M 79.530625 288.430125 
L 396.970625 288.430125 
" style="fill:none;stroke:#000000;stroke-linecap:square;stroke-linejoin:miter;stroke-width:0.8;"/>
   </g>
   <g id="PathCollection_1">
    <defs>
     <path d="M 0 1.5 
C 0.397805 1.5 0.77937 1.341951 1.06066 1.06066 
C 1.341951 0.77937 1.5 0.397805 1.5 0 
C 1.5 -0.397805 1.341951 -0.77937 1.06066 -1.06066 
C 0.77937 -1.341951 0.397805 -1.5 0 -1.5 
C -0.397805 -1.5 -0.77937 -1.341951 -1.06066 -1.06066 
C -1.341951 -0.77937 -1.5 -0.397805 -1.5 0 
C -1.5 0.397805 -1.341951 0.77937 -1.06066 1.06066 
C -0.77937 1.341951 -0.397805 1.5 0 1.5 
z
" id="m4ed580fb36" style="stroke:#3d3d3d;"/>
    </defs>
    <g clip-path="url(#pd6b45fc82f)">
     <use style="fill:#ffffff;stroke:#3d3d3d;" x="79.530625" xlink:href="#m4ed580fb36" y="57.948256"/>
    </g>
   </g>
   <g id="PathCollection_2">
    <g clip-path="url(#pd6b45fc82f)">
     <use style="fill:#ffffff;stroke:#3d3d3d;" x="119.210625" xlink:href="#m4ed580fb36" y="70.537501"/>
    </g>
   </g>
   <g id="PathCollection_3">
    <g clip-path="url(#pd6b45fc82f)">
     <use style="fill:#ffffff;stroke:#3d3d3d;" x="158.890625" xlink:href="#m4ed580fb36" y="88.148097"/>
    </g>
   </g>
   <g id="PathCollection_4">
    <g clip-path="url(#pd6b45fc82f)">
     <use style="fill:#ffffff;stroke:#3d3d3d;" x="198.570625" xlink:href="#m4ed580fb36" y="92.452113"/>
    </g>
   </g>
   <g id="PathCollection_5">
    <g clip-path="url(#pd6b45fc82f)">
     <use style="fill:#ffffff;stroke:#3d3d3d;" x="238.250625" xlink:href="#m4ed580fb36" y="93.850918"/>
    </g>
   </g>
   <g id="PathCollection_6">
    <g clip-path="url(#pd6b45fc82f)">
     <use style="fill:#ffffff;stroke:#3d3d3d;" x="277.930625" xlink:href="#m4ed580fb36" y="95.859458"/>
    </g>
   </g>
   <g id="PathCollection_7">
    <g clip-path="url(#pd6b45fc82f)">
     <use style="fill:#ffffff;stroke:#3d3d3d;" x="317.610625" xlink:href="#m4ed580fb36" y="106.189095"/>
    </g>
   </g>
   <g id="PathCollection_8">
    <g clip-path="url(#pd6b45fc82f)">
     <use style="fill:#ffffff;stroke:#3d3d3d;" x="357.290625" xlink:href="#m4ed580fb36" y="112.609252"/>
    </g>
   </g>
   <g id="PathCollection_9">
    <g clip-path="url(#pd6b45fc82f)">
     <use style="fill:#ffffff;stroke:#3d3d3d;" x="396.970625" xlink:href="#m4ed580fb36" y="129.681846"/>
    </g>
   </g>
   <g id="text_20">
    <!-- curl_curl_fuzzer_http (23h, 20 trials/fuzzer) -->
    <g transform="translate(109.364063 16.318125)scale(0.12 -0.12)">
     <defs>
      <path d="M 19.1875 8.296875 
L 53.609375 8.296875 
L 53.609375 0 
L 7.328125 0 
L 7.328125 8.296875 
Q 12.9375 14.109375 22.625 23.890625 
Q 32.328125 33.6875 34.8125 36.53125 
Q 39.546875 41.84375 41.421875 45.53125 
Q 43.3125 49.21875 43.3125 52.78125 
Q 43.3125 58.59375 39.234375 62.25 
Q 35.15625 65.921875 28.609375 65.921875 
Q 23.96875 65.921875 18.8125 64.3125 
Q 13.671875 62.703125 7.8125 59.421875 
L 7.8125 69.390625 
Q 13.765625 71.78125 18.9375 73 
Q 24.125 74.21875 28.421875 74.21875 
Q 39.75 74.21875 46.484375 68.546875 
Q 53.21875 62.890625 53.21875 53.421875 
Q 53.21875 48.921875 51.53125 44.890625 
Q 49.859375 40.875 45.40625 35.40625 
Q 44.1875 33.984375 37.640625 27.21875 
Q 31.109375 20.453125 19.1875 8.296875 
z
" id="DejaVuSans-50"/>
      <path d="M 40.578125 39.3125 
Q 47.65625 37.796875 51.625 33 
Q 55.609375 28.21875 55.609375 21.1875 
Q 55.609375 10.40625 48.1875 4.484375 
Q 40.765625 -1.421875 27.09375 -1.421875 
Q 22.515625 -1.421875 17.65625 -0.515625 
Q 12.796875 0.390625 7.625 2.203125 
L 7.625 11.71875 
Q 11.71875 9.328125 16.59375 8.109375 
Q 21.484375 6.890625 26.8125 6.890625 
Q 36.078125 6.890625 40.9375 10.546875 
Q 45.796875 14.203125 45.796875 21.1875 
Q 45.796875 27.640625 41.28125 31.265625 
Q 36.765625 34.90625 28.71875 34.90625 
L 20.21875 34.90625 
L 20.21875 43.015625 
L 29.109375 43.015625 
Q 36.375 43.015625 40.234375 45.921875 
Q 44.09375 48.828125 44.09375 54.296875 
Q 44.09375 59.90625 40.109375 62.90625 
Q 36.140625 65.921875 28.71875 65.921875 
Q 24.65625 65.921875 20.015625 65.03125 
Q 15.375 64.15625 9.8125 62.3125 
L 9.8125 71.09375 
Q 15.4375 72.65625 20.34375 73.4375 
Q 25.25 74.21875 29.59375 74.21875 
Q 40.828125 74.21875 47.359375 69.109375 
Q 53.90625 64.015625 53.90625 55.328125 
Q 53.90625 49.265625 50.4375 45.09375 
Q 46.96875 40.921875 40.578125 39.3125 
z
" id="DejaVuSans-51"/>
      <path d="M 11.71875 12.40625 
L 22.015625 12.40625 
L 22.015625 4 
L 14.015625 -11.625 
L 7.71875 -11.625 
L 11.71875 4 
z
" id="DejaVuSans-44"/>
      <path d="M 25.390625 72.90625 
L 33.6875 72.90625 
L 8.296875 -9.28125 
L 0 -9.28125 
z
" id="DejaVuSans-47"/>
     </defs>
     <use xlink:href="#DejaVuSans-99"/>
     <use x="54.980469" xlink:href="#DejaVuSans-117"/>
     <use x="118.359375" xlink:href="#DejaVuSans-114"/>
     <use x="159.472656" xlink:href="#DejaVuSans-108"/>
     <use x="187.255859" xlink:href="#DejaVuSans-95"/>
     <use x="237.255859" xlink:href="#DejaVuSans-99"/>
     <use x="292.236328" xlink:href="#DejaVuSans-117"/>
     <use x="355.615234" xlink:href="#DejaVuSans-114"/>
     <use x="396.728516" xlink:href="#DejaVuSans-108"/>
     <use x="424.511719" xlink:href="#DejaVuSans-95"/>
     <use x="474.511719" xlink:href="#DejaVuSans-102"/>
     <use x="509.716797" xlink:href="#DejaVuSans-117"/>
     <use x="573.095703" xlink:href="#DejaVuSans-122"/>
     <use x="625.585938" xlink:href="#DejaVuSans-122"/>
     <use x="678.076172" xlink:href="#DejaVuSans-101"/>
     <use x="739.599609" xlink:href="#DejaVuSans-114"/>
     <use x="780.712891" xlink:href="#DejaVuSans-95"/>
     <use x="830.712891" xlink:href="#DejaVuSans-104"/>
     <use x="894.091797" xlink:href="#DejaVuSans-116"/>
     <use x="933.300781" xlink:href="#DejaVuSans-116"/>
     <use x="972.509766" xlink:href="#DejaVuSans-112"/>
     <use x="1035.986328" xlink:href="#DejaVuSans-32"/>
     <use x="1067.773438" xlink:href="#DejaVuSans-40"/>
     <use x="1106.787109" xlink:href="#DejaVuSans-50"/>
     <use x="1170.410156" xlink:href="#DejaVuSans-51"/>
     <use x="1234.033203" xlink:href="#DejaVuSans-104"/>
     <use x="1297.412109" xlink:href="#DejaVuSans-44"/>
     <use x="1329.199219" xlink:href="#DejaVuSans-32"/>
     <use x="1360.986328" xlink:href="#DejaVuSans-50"/>
     <use x="1424.609375" xlink:href="#DejaVuSans-48"/>
     <use x="1488.232422" xlink:href="#DejaVuSans-32"/>
     <use x="1520.019531" xlink:href="#DejaVuSans-116"/>
     <use x="1559.228516" xlink:href="#DejaVuSans-114"/>
     <use x="1600.341797" xlink:href="#DejaVuSans-105"/>
     <use x="1628.125" xlink:href="#DejaVuSans-97"/>
     <use x="1689.404297" xlink:href="#DejaVuSans-108"/>
     <use x="1717.1875" xlink:href="#DejaVuSans-115"/>
     <use x="1769.287109" xlink:href="#DejaVuSans-47"/>
     <use x="1802.978516" xlink:href="#DejaVuSans-102"/>
     <use x="1838.183594" xlink:href="#DejaVuSans-117"/>
     <use x="1901.5625" xlink:href="#DejaVuSans-122"/>
     <use x="1954.052734" xlink:href="#DejaVuSans-122"/>
     <use x="2006.542969" xlink:href="#DejaVuSans-101"/>
     <use x="2068.066406" xlink:href="#DejaVuSans-114"/>
     <use x="2109.179688" xlink:href="#DejaVuSans-41"/>
    </g>
   </g>
  </g>
 </g>
 <defs>
  <clipPath id="pd6b45fc82f">
   <rect height="266.112" width="357.12" x="59.690625" y="22.318125"/>
  </clipPath>
 </defs>
</svg>
