<?xml version="1.0" encoding="utf-8" standalone="no"?>
<!DOCTYPE svg PUBLIC "-//W3C//DTD SVG 1.1//EN"
  "http://www.w3.org/Graphics/SVG/1.1/DTD/svg11.dtd">
<!-- Created with matplotlib (https://matplotlib.org/) -->
<svg height="325.986375pt" version="1.1" viewBox="0 0 904.48375 325.986375" width="904.48375pt" xmlns="http://www.w3.org/2000/svg" xmlns:xlink="http://www.w3.org/1999/xlink">
 <metadata>
  <rdf:RDF xmlns:cc="http://creativecommons.org/ns#" xmlns:dc="http://purl.org/dc/elements/1.1/" xmlns:rdf="http://www.w3.org/1999/02/22-rdf-syntax-ns#">
   <cc:Work>
    <dc:type rdf:resource="http://purl.org/dc/dcmitype/StillImage"/>
    <dc:date>2020-12-06T10:28:51.332265</dc:date>
    <dc:format>image/svg+xml</dc:format>
    <dc:creator>
     <cc:Agent>
      <dc:title>Matplotlib v3.3.3, https://matplotlib.org/</dc:title>
     </cc:Agent>
    </dc:creator>
   </cc:Work>
  </rdf:RDF>
 </metadata>
 <defs>
  <style type="text/css">*{stroke-linecap:butt;stroke-linejoin:round;}</style>
 </defs>
 <g id="figure_1">
  <g id="patch_1">
   <path d="M 0 325.986375 
L 904.48375 325.986375 
L 904.48375 0 
L 0 0 
z
" style="fill:#ffffff;"/>
  </g>
  <g id="axes_1">
   <g id="patch_2">
    <path d="M 59.690625 288.430125 
L 773.930625 288.430125 
L 773.930625 22.318125 
L 59.690625 22.318125 
z
" style="fill:#ffffff;"/>
   </g>
   <g id="matplotlib.axis_1">
    <g id="xtick_1">
     <g id="line2d_1">
      <defs>
       <path d="M 0 0 
L 0 3.5 
" id="m787f63731e" style="stroke:#000000;stroke-width:0.8;"/>
      </defs>
      <g>
       <use style="stroke:#000000;stroke-width:0.8;" x="92.15608" xlink:href="#m787f63731e" y="288.430125"/>
      </g>
     </g>
     <g id="text_1">
      <!-- 15m -->
      <g transform="translate(80.923267 303.028562)scale(0.1 -0.1)">
       <defs>
        <path d="M 12.40625 8.296875 
L 28.515625 8.296875 
L 28.515625 63.921875 
L 10.984375 60.40625 
L 10.984375 69.390625 
L 28.421875 72.90625 
L 38.28125 72.90625 
L 38.28125 8.296875 
L 54.390625 8.296875 
L 54.390625 0 
L 12.40625 0 
z
" id="DejaVuSans-49"/>
        <path d="M 10.796875 72.90625 
L 49.515625 72.90625 
L 49.515625 64.59375 
L 19.828125 64.59375 
L 19.828125 46.734375 
Q 21.96875 47.46875 24.109375 47.828125 
Q 26.265625 48.1875 28.421875 48.1875 
Q 40.625 48.1875 47.75 41.5 
Q 54.890625 34.8125 54.890625 23.390625 
Q 54.890625 11.625 47.5625 5.09375 
Q 40.234375 -1.421875 26.90625 -1.421875 
Q 22.3125 -1.421875 17.546875 -0.640625 
Q 12.796875 0.140625 7.71875 1.703125 
L 7.71875 11.625 
Q 12.109375 9.234375 16.796875 8.0625 
Q 21.484375 6.890625 26.703125 6.890625 
Q 35.15625 6.890625 40.078125 11.328125 
Q 45.015625 15.765625 45.015625 23.390625 
Q 45.015625 31 40.078125 35.4375 
Q 35.15625 39.890625 26.703125 39.890625 
Q 22.75 39.890625 18.8125 39.015625 
Q 14.890625 38.140625 10.796875 36.28125 
z
" id="DejaVuSans-53"/>
        <path d="M 52 44.1875 
Q 55.375 50.25 60.0625 53.125 
Q 64.75 56 71.09375 56 
Q 79.640625 56 84.28125 50.015625 
Q 88.921875 44.046875 88.921875 33.015625 
L 88.921875 0 
L 79.890625 0 
L 79.890625 32.71875 
Q 79.890625 40.578125 77.09375 44.375 
Q 74.3125 48.1875 68.609375 48.1875 
Q 61.625 48.1875 57.5625 43.546875 
Q 53.515625 38.921875 53.515625 30.90625 
L 53.515625 0 
L 44.484375 0 
L 44.484375 32.71875 
Q 44.484375 40.625 41.703125 44.40625 
Q 38.921875 48.1875 33.109375 48.1875 
Q 26.21875 48.1875 22.15625 43.53125 
Q 18.109375 38.875 18.109375 30.90625 
L 18.109375 0 
L 9.078125 0 
L 9.078125 54.6875 
L 18.109375 54.6875 
L 18.109375 46.1875 
Q 21.1875 51.21875 25.484375 53.609375 
Q 29.78125 56 35.6875 56 
Q 41.65625 56 45.828125 52.96875 
Q 50 49.953125 52 44.1875 
z
" id="DejaVuSans-109"/>
       </defs>
       <use xlink:href="#DejaVuSans-49"/>
       <use x="63.623047" xlink:href="#DejaVuSans-53"/>
       <use x="127.246094" xlink:href="#DejaVuSans-109"/>
      </g>
     </g>
    </g>
    <g id="xtick_2">
     <g id="line2d_2">
      <g>
       <use style="stroke:#000000;stroke-width:0.8;" x="146.859776" xlink:href="#m787f63731e" y="288.430125"/>
      </g>
     </g>
     <g id="text_2">
      <!-- 2h:10m -->
      <g transform="translate(127.592588 303.028562)scale(0.1 -0.1)">
       <defs>
        <path d="M 19.1875 8.296875 
L 53.609375 8.296875 
L 53.609375 0 
L 7.328125 0 
L 7.328125 8.296875 
Q 12.9375 14.109375 22.625 23.890625 
Q 32.328125 33.6875 34.8125 36.53125 
Q 39.546875 41.84375 41.421875 45.53125 
Q 43.3125 49.21875 43.3125 52.78125 
Q 43.3125 58.59375 39.234375 62.25 
Q 35.15625 65.921875 28.609375 65.921875 
Q 23.96875 65.921875 18.8125 64.3125 
Q 13.671875 62.703125 7.8125 59.421875 
L 7.8125 69.390625 
Q 13.765625 71.78125 18.9375 73 
Q 24.125 74.21875 28.421875 74.21875 
Q 39.75 74.21875 46.484375 68.546875 
Q 53.21875 62.890625 53.21875 53.421875 
Q 53.21875 48.921875 51.53125 44.890625 
Q 49.859375 40.875 45.40625 35.40625 
Q 44.1875 33.984375 37.640625 27.21875 
Q 31.109375 20.453125 19.1875 8.296875 
z
" id="DejaVuSans-50"/>
        <path d="M 54.890625 33.015625 
L 54.890625 0 
L 45.90625 0 
L 45.90625 32.71875 
Q 45.90625 40.484375 42.875 44.328125 
Q 39.84375 48.1875 33.796875 48.1875 
Q 26.515625 48.1875 22.3125 43.546875 
Q 18.109375 38.921875 18.109375 30.90625 
L 18.109375 0 
L 9.078125 0 
L 9.078125 75.984375 
L 18.109375 75.984375 
L 18.109375 46.1875 
Q 21.34375 51.125 25.703125 53.5625 
Q 30.078125 56 35.796875 56 
Q 45.21875 56 50.046875 50.171875 
Q 54.890625 44.34375 54.890625 33.015625 
z
" id="DejaVuSans-104"/>
        <path d="M 11.71875 12.40625 
L 22.015625 12.40625 
L 22.015625 0 
L 11.71875 0 
z
M 11.71875 51.703125 
L 22.015625 51.703125 
L 22.015625 39.3125 
L 11.71875 39.3125 
z
" id="DejaVuSans-58"/>
        <path d="M 31.78125 66.40625 
Q 24.171875 66.40625 20.328125 58.90625 
Q 16.5 51.421875 16.5 36.375 
Q 16.5 21.390625 20.328125 13.890625 
Q 24.171875 6.390625 31.78125 6.390625 
Q 39.453125 6.390625 43.28125 13.890625 
Q 47.125 21.390625 47.125 36.375 
Q 47.125 51.421875 43.28125 58.90625 
Q 39.453125 66.40625 31.78125 66.40625 
z
M 31.78125 74.21875 
Q 44.046875 74.21875 50.515625 64.515625 
Q 56.984375 54.828125 56.984375 36.375 
Q 56.984375 17.96875 50.515625 8.265625 
Q 44.046875 -1.421875 31.78125 -1.421875 
Q 19.53125 -1.421875 13.0625 8.265625 
Q 6.59375 17.96875 6.59375 36.375 
Q 6.59375 54.828125 13.0625 64.515625 
Q 19.53125 74.21875 31.78125 74.21875 
z
" id="DejaVuSans-48"/>
       </defs>
       <use xlink:href="#DejaVuSans-50"/>
       <use x="63.623047" xlink:href="#DejaVuSans-104"/>
       <use x="127.001953" xlink:href="#DejaVuSans-58"/>
       <use x="160.693359" xlink:href="#DejaVuSans-49"/>
       <use x="224.316406" xlink:href="#DejaVuSans-48"/>
       <use x="287.939453" xlink:href="#DejaVuSans-109"/>
      </g>
     </g>
    </g>
    <g id="xtick_3">
     <g id="line2d_3">
      <g>
       <use style="stroke:#000000;stroke-width:0.8;" x="201.563472" xlink:href="#m787f63731e" y="288.430125"/>
      </g>
     </g>
     <g id="text_3">
      <!-- 4h:5m -->
      <g transform="translate(185.477535 303.028562)scale(0.1 -0.1)">
       <defs>
        <path d="M 37.796875 64.3125 
L 12.890625 25.390625 
L 37.796875 25.390625 
z
M 35.203125 72.90625 
L 47.609375 72.90625 
L 47.609375 25.390625 
L 58.015625 25.390625 
L 58.015625 17.1875 
L 47.609375 17.1875 
L 47.609375 0 
L 37.796875 0 
L 37.796875 17.1875 
L 4.890625 17.1875 
L 4.890625 26.703125 
z
" id="DejaVuSans-52"/>
       </defs>
       <use xlink:href="#DejaVuSans-52"/>
       <use x="63.623047" xlink:href="#DejaVuSans-104"/>
       <use x="127.001953" xlink:href="#DejaVuSans-58"/>
       <use x="160.693359" xlink:href="#DejaVuSans-53"/>
       <use x="224.316406" xlink:href="#DejaVuSans-109"/>
      </g>
     </g>
    </g>
    <g id="xtick_4">
     <g id="line2d_4">
      <g>
       <use style="stroke:#000000;stroke-width:0.8;" x="256.267168" xlink:href="#m787f63731e" y="288.430125"/>
      </g>
     </g>
     <g id="text_4">
      <!-- 6h -->
      <g transform="translate(249.917168 303.028562)scale(0.1 -0.1)">
       <defs>
        <path d="M 33.015625 40.375 
Q 26.375 40.375 22.484375 35.828125 
Q 18.609375 31.296875 18.609375 23.390625 
Q 18.609375 15.53125 22.484375 10.953125 
Q 26.375 6.390625 33.015625 6.390625 
Q 39.65625 6.390625 43.53125 10.953125 
Q 47.40625 15.53125 47.40625 23.390625 
Q 47.40625 31.296875 43.53125 35.828125 
Q 39.65625 40.375 33.015625 40.375 
z
M 52.59375 71.296875 
L 52.59375 62.3125 
Q 48.875 64.0625 45.09375 64.984375 
Q 41.3125 65.921875 37.59375 65.921875 
Q 27.828125 65.921875 22.671875 59.328125 
Q 17.53125 52.734375 16.796875 39.40625 
Q 19.671875 43.65625 24.015625 45.921875 
Q 28.375 48.1875 33.59375 48.1875 
Q 44.578125 48.1875 50.953125 41.515625 
Q 57.328125 34.859375 57.328125 23.390625 
Q 57.328125 12.15625 50.6875 5.359375 
Q 44.046875 -1.421875 33.015625 -1.421875 
Q 20.359375 -1.421875 13.671875 8.265625 
Q 6.984375 17.96875 6.984375 36.375 
Q 6.984375 53.65625 15.1875 63.9375 
Q 23.390625 74.21875 37.203125 74.21875 
Q 40.921875 74.21875 44.703125 73.484375 
Q 48.484375 72.75 52.59375 71.296875 
z
" id="DejaVuSans-54"/>
       </defs>
       <use xlink:href="#DejaVuSans-54"/>
       <use x="63.623047" xlink:href="#DejaVuSans-104"/>
      </g>
     </g>
    </g>
    <g id="xtick_5">
     <g id="line2d_5">
      <g>
       <use style="stroke:#000000;stroke-width:0.8;" x="310.970865" xlink:href="#m787f63731e" y="288.430125"/>
      </g>
     </g>
     <g id="text_5">
      <!-- 7h:55m -->
      <g transform="translate(291.703677 303.028562)scale(0.1 -0.1)">
       <defs>
        <path d="M 8.203125 72.90625 
L 55.078125 72.90625 
L 55.078125 68.703125 
L 28.609375 0 
L 18.3125 0 
L 43.21875 64.59375 
L 8.203125 64.59375 
z
" id="DejaVuSans-55"/>
       </defs>
       <use xlink:href="#DejaVuSans-55"/>
       <use x="63.623047" xlink:href="#DejaVuSans-104"/>
       <use x="127.001953" xlink:href="#DejaVuSans-58"/>
       <use x="160.693359" xlink:href="#DejaVuSans-53"/>
       <use x="224.316406" xlink:href="#DejaVuSans-53"/>
       <use x="287.939453" xlink:href="#DejaVuSans-109"/>
      </g>
     </g>
    </g>
    <g id="xtick_6">
     <g id="line2d_6">
      <g>
       <use style="stroke:#000000;stroke-width:0.8;" x="365.674561" xlink:href="#m787f63731e" y="288.430125"/>
      </g>
     </g>
     <g id="text_6">
      <!-- 9h:50m -->
      <g transform="translate(346.407374 303.028562)scale(0.1 -0.1)">
       <defs>
        <path d="M 10.984375 1.515625 
L 10.984375 10.5 
Q 14.703125 8.734375 18.5 7.8125 
Q 22.3125 6.890625 25.984375 6.890625 
Q 35.75 6.890625 40.890625 13.453125 
Q 46.046875 20.015625 46.78125 33.40625 
Q 43.953125 29.203125 39.59375 26.953125 
Q 35.25 24.703125 29.984375 24.703125 
Q 19.046875 24.703125 12.671875 31.3125 
Q 6.296875 37.9375 6.296875 49.421875 
Q 6.296875 60.640625 12.9375 67.421875 
Q 19.578125 74.21875 30.609375 74.21875 
Q 43.265625 74.21875 49.921875 64.515625 
Q 56.59375 54.828125 56.59375 36.375 
Q 56.59375 19.140625 48.40625 8.859375 
Q 40.234375 -1.421875 26.421875 -1.421875 
Q 22.703125 -1.421875 18.890625 -0.6875 
Q 15.09375 0.046875 10.984375 1.515625 
z
M 30.609375 32.421875 
Q 37.25 32.421875 41.125 36.953125 
Q 45.015625 41.5 45.015625 49.421875 
Q 45.015625 57.28125 41.125 61.84375 
Q 37.25 66.40625 30.609375 66.40625 
Q 23.96875 66.40625 20.09375 61.84375 
Q 16.21875 57.28125 16.21875 49.421875 
Q 16.21875 41.5 20.09375 36.953125 
Q 23.96875 32.421875 30.609375 32.421875 
z
" id="DejaVuSans-57"/>
       </defs>
       <use xlink:href="#DejaVuSans-57"/>
       <use x="63.623047" xlink:href="#DejaVuSans-104"/>
       <use x="127.001953" xlink:href="#DejaVuSans-58"/>
       <use x="160.693359" xlink:href="#DejaVuSans-53"/>
       <use x="224.316406" xlink:href="#DejaVuSans-48"/>
       <use x="287.939453" xlink:href="#DejaVuSans-109"/>
      </g>
     </g>
    </g>
    <g id="xtick_7">
     <g id="line2d_7">
      <g>
       <use style="stroke:#000000;stroke-width:0.8;" x="420.378257" xlink:href="#m787f63731e" y="288.430125"/>
      </g>
     </g>
     <g id="text_7">
      <!-- 11h:45m -->
      <g transform="translate(397.92982 303.028562)scale(0.1 -0.1)">
       <use xlink:href="#DejaVuSans-49"/>
       <use x="63.623047" xlink:href="#DejaVuSans-49"/>
       <use x="127.246094" xlink:href="#DejaVuSans-104"/>
       <use x="190.625" xlink:href="#DejaVuSans-58"/>
       <use x="224.316406" xlink:href="#DejaVuSans-52"/>
       <use x="287.939453" xlink:href="#DejaVuSans-53"/>
       <use x="351.5625" xlink:href="#DejaVuSans-109"/>
      </g>
     </g>
    </g>
    <g id="xtick_8">
     <g id="line2d_8">
      <g>
       <use style="stroke:#000000;stroke-width:0.8;" x="475.081954" xlink:href="#m787f63731e" y="288.430125"/>
      </g>
     </g>
     <g id="text_8">
      <!-- 13h:40m -->
      <g transform="translate(452.633516 303.028562)scale(0.1 -0.1)">
       <defs>
        <path d="M 40.578125 39.3125 
Q 47.65625 37.796875 51.625 33 
Q 55.609375 28.21875 55.609375 21.1875 
Q 55.609375 10.40625 48.1875 4.484375 
Q 40.765625 -1.421875 27.09375 -1.421875 
Q 22.515625 -1.421875 17.65625 -0.515625 
Q 12.796875 0.390625 7.625 2.203125 
L 7.625 11.71875 
Q 11.71875 9.328125 16.59375 8.109375 
Q 21.484375 6.890625 26.8125 6.890625 
Q 36.078125 6.890625 40.9375 10.546875 
Q 45.796875 14.203125 45.796875 21.1875 
Q 45.796875 27.640625 41.28125 31.265625 
Q 36.765625 34.90625 28.71875 34.90625 
L 20.21875 34.90625 
L 20.21875 43.015625 
L 29.109375 43.015625 
Q 36.375 43.015625 40.234375 45.921875 
Q 44.09375 48.828125 44.09375 54.296875 
Q 44.09375 59.90625 40.109375 62.90625 
Q 36.140625 65.921875 28.71875 65.921875 
Q 24.65625 65.921875 20.015625 65.03125 
Q 15.375 64.15625 9.8125 62.3125 
L 9.8125 71.09375 
Q 15.4375 72.65625 20.34375 73.4375 
Q 25.25 74.21875 29.59375 74.21875 
Q 40.828125 74.21875 47.359375 69.109375 
Q 53.90625 64.015625 53.90625 55.328125 
Q 53.90625 49.265625 50.4375 45.09375 
Q 46.96875 40.921875 40.578125 39.3125 
z
" id="DejaVuSans-51"/>
       </defs>
       <use xlink:href="#DejaVuSans-49"/>
       <use x="63.623047" xlink:href="#DejaVuSans-51"/>
       <use x="127.246094" xlink:href="#DejaVuSans-104"/>
       <use x="190.625" xlink:href="#DejaVuSans-58"/>
       <use x="224.316406" xlink:href="#DejaVuSans-52"/>
       <use x="287.939453" xlink:href="#DejaVuSans-48"/>
       <use x="351.5625" xlink:href="#DejaVuSans-109"/>
      </g>
     </g>
    </g>
    <g id="xtick_9">
     <g id="line2d_9">
      <g>
       <use style="stroke:#000000;stroke-width:0.8;" x="529.78565" xlink:href="#m787f63731e" y="288.430125"/>
      </g>
     </g>
     <g id="text_9">
      <!-- 15h:35m -->
      <g transform="translate(507.337212 303.028562)scale(0.1 -0.1)">
       <use xlink:href="#DejaVuSans-49"/>
       <use x="63.623047" xlink:href="#DejaVuSans-53"/>
       <use x="127.246094" xlink:href="#DejaVuSans-104"/>
       <use x="190.625" xlink:href="#DejaVuSans-58"/>
       <use x="224.316406" xlink:href="#DejaVuSans-51"/>
       <use x="287.939453" xlink:href="#DejaVuSans-53"/>
       <use x="351.5625" xlink:href="#DejaVuSans-109"/>
      </g>
     </g>
    </g>
    <g id="xtick_10">
     <g id="line2d_10">
      <g>
       <use style="stroke:#000000;stroke-width:0.8;" x="584.489346" xlink:href="#m787f63731e" y="288.430125"/>
      </g>
     </g>
     <g id="text_10">
      <!-- 17h:30m -->
      <g transform="translate(562.040909 303.028562)scale(0.1 -0.1)">
       <use xlink:href="#DejaVuSans-49"/>
       <use x="63.623047" xlink:href="#DejaVuSans-55"/>
       <use x="127.246094" xlink:href="#DejaVuSans-104"/>
       <use x="190.625" xlink:href="#DejaVuSans-58"/>
       <use x="224.316406" xlink:href="#DejaVuSans-51"/>
       <use x="287.939453" xlink:href="#DejaVuSans-48"/>
       <use x="351.5625" xlink:href="#DejaVuSans-109"/>
      </g>
     </g>
    </g>
    <g id="xtick_11">
     <g id="line2d_11">
      <g>
       <use style="stroke:#000000;stroke-width:0.8;" x="639.193043" xlink:href="#m787f63731e" y="288.430125"/>
      </g>
     </g>
     <g id="text_11">
      <!-- 19h:25m -->
      <g transform="translate(616.744605 303.028562)scale(0.1 -0.1)">
       <use xlink:href="#DejaVuSans-49"/>
       <use x="63.623047" xlink:href="#DejaVuSans-57"/>
       <use x="127.246094" xlink:href="#DejaVuSans-104"/>
       <use x="190.625" xlink:href="#DejaVuSans-58"/>
       <use x="224.316406" xlink:href="#DejaVuSans-50"/>
       <use x="287.939453" xlink:href="#DejaVuSans-53"/>
       <use x="351.5625" xlink:href="#DejaVuSans-109"/>
      </g>
     </g>
    </g>
    <g id="xtick_12">
     <g id="line2d_12">
      <g>
       <use style="stroke:#000000;stroke-width:0.8;" x="693.896739" xlink:href="#m787f63731e" y="288.430125"/>
      </g>
     </g>
     <g id="text_12">
      <!-- 21h:20m -->
      <g transform="translate(671.448301 303.028562)scale(0.1 -0.1)">
       <use xlink:href="#DejaVuSans-50"/>
       <use x="63.623047" xlink:href="#DejaVuSans-49"/>
       <use x="127.246094" xlink:href="#DejaVuSans-104"/>
       <use x="190.625" xlink:href="#DejaVuSans-58"/>
       <use x="224.316406" xlink:href="#DejaVuSans-50"/>
       <use x="287.939453" xlink:href="#DejaVuSans-48"/>
       <use x="351.5625" xlink:href="#DejaVuSans-109"/>
      </g>
     </g>
    </g>
    <g id="text_13">
     <!-- Time (hour:minute) -->
     <g transform="translate(368.403594 316.706687)scale(0.1 -0.1)">
      <defs>
       <path d="M -0.296875 72.90625 
L 61.375 72.90625 
L 61.375 64.59375 
L 35.5 64.59375 
L 35.5 0 
L 25.59375 0 
L 25.59375 64.59375 
L -0.296875 64.59375 
z
" id="DejaVuSans-84"/>
       <path d="M 9.421875 54.6875 
L 18.40625 54.6875 
L 18.40625 0 
L 9.421875 0 
z
M 9.421875 75.984375 
L 18.40625 75.984375 
L 18.40625 64.59375 
L 9.421875 64.59375 
z
" id="DejaVuSans-105"/>
       <path d="M 56.203125 29.59375 
L 56.203125 25.203125 
L 14.890625 25.203125 
Q 15.484375 15.921875 20.484375 11.0625 
Q 25.484375 6.203125 34.421875 6.203125 
Q 39.59375 6.203125 44.453125 7.46875 
Q 49.3125 8.734375 54.109375 11.28125 
L 54.109375 2.78125 
Q 49.265625 0.734375 44.1875 -0.34375 
Q 39.109375 -1.421875 33.890625 -1.421875 
Q 20.796875 -1.421875 13.15625 6.1875 
Q 5.515625 13.8125 5.515625 26.8125 
Q 5.515625 40.234375 12.765625 48.109375 
Q 20.015625 56 32.328125 56 
Q 43.359375 56 49.78125 48.890625 
Q 56.203125 41.796875 56.203125 29.59375 
z
M 47.21875 32.234375 
Q 47.125 39.59375 43.09375 43.984375 
Q 39.0625 48.390625 32.421875 48.390625 
Q 24.90625 48.390625 20.390625 44.140625 
Q 15.875 39.890625 15.1875 32.171875 
z
" id="DejaVuSans-101"/>
       <path id="DejaVuSans-32"/>
       <path d="M 31 75.875 
Q 24.46875 64.65625 21.28125 53.65625 
Q 18.109375 42.671875 18.109375 31.390625 
Q 18.109375 20.125 21.3125 9.0625 
Q 24.515625 -2 31 -13.1875 
L 23.1875 -13.1875 
Q 15.875 -1.703125 12.234375 9.375 
Q 8.59375 20.453125 8.59375 31.390625 
Q 8.59375 42.28125 12.203125 53.3125 
Q 15.828125 64.359375 23.1875 75.875 
z
" id="DejaVuSans-40"/>
       <path d="M 30.609375 48.390625 
Q 23.390625 48.390625 19.1875 42.75 
Q 14.984375 37.109375 14.984375 27.296875 
Q 14.984375 17.484375 19.15625 11.84375 
Q 23.34375 6.203125 30.609375 6.203125 
Q 37.796875 6.203125 41.984375 11.859375 
Q 46.1875 17.53125 46.1875 27.296875 
Q 46.1875 37.015625 41.984375 42.703125 
Q 37.796875 48.390625 30.609375 48.390625 
z
M 30.609375 56 
Q 42.328125 56 49.015625 48.375 
Q 55.71875 40.765625 55.71875 27.296875 
Q 55.71875 13.875 49.015625 6.21875 
Q 42.328125 -1.421875 30.609375 -1.421875 
Q 18.84375 -1.421875 12.171875 6.21875 
Q 5.515625 13.875 5.515625 27.296875 
Q 5.515625 40.765625 12.171875 48.375 
Q 18.84375 56 30.609375 56 
z
" id="DejaVuSans-111"/>
       <path d="M 8.5 21.578125 
L 8.5 54.6875 
L 17.484375 54.6875 
L 17.484375 21.921875 
Q 17.484375 14.15625 20.5 10.265625 
Q 23.53125 6.390625 29.59375 6.390625 
Q 36.859375 6.390625 41.078125 11.03125 
Q 45.3125 15.671875 45.3125 23.6875 
L 45.3125 54.6875 
L 54.296875 54.6875 
L 54.296875 0 
L 45.3125 0 
L 45.3125 8.40625 
Q 42.046875 3.421875 37.71875 1 
Q 33.40625 -1.421875 27.6875 -1.421875 
Q 18.265625 -1.421875 13.375 4.4375 
Q 8.5 10.296875 8.5 21.578125 
z
M 31.109375 56 
z
" id="DejaVuSans-117"/>
       <path d="M 41.109375 46.296875 
Q 39.59375 47.171875 37.8125 47.578125 
Q 36.03125 48 33.890625 48 
Q 26.265625 48 22.1875 43.046875 
Q 18.109375 38.09375 18.109375 28.8125 
L 18.109375 0 
L 9.078125 0 
L 9.078125 54.6875 
L 18.109375 54.6875 
L 18.109375 46.1875 
Q 20.953125 51.171875 25.484375 53.578125 
Q 30.03125 56 36.53125 56 
Q 37.453125 56 38.578125 55.875 
Q 39.703125 55.765625 41.0625 55.515625 
z
" id="DejaVuSans-114"/>
       <path d="M 54.890625 33.015625 
L 54.890625 0 
L 45.90625 0 
L 45.90625 32.71875 
Q 45.90625 40.484375 42.875 44.328125 
Q 39.84375 48.1875 33.796875 48.1875 
Q 26.515625 48.1875 22.3125 43.546875 
Q 18.109375 38.921875 18.109375 30.90625 
L 18.109375 0 
L 9.078125 0 
L 9.078125 54.6875 
L 18.109375 54.6875 
L 18.109375 46.1875 
Q 21.34375 51.125 25.703125 53.5625 
Q 30.078125 56 35.796875 56 
Q 45.21875 56 50.046875 50.171875 
Q 54.890625 44.34375 54.890625 33.015625 
z
" id="DejaVuSans-110"/>
       <path d="M 18.3125 70.21875 
L 18.3125 54.6875 
L 36.8125 54.6875 
L 36.8125 47.703125 
L 18.3125 47.703125 
L 18.3125 18.015625 
Q 18.3125 11.328125 20.140625 9.421875 
Q 21.96875 7.515625 27.59375 7.515625 
L 36.8125 7.515625 
L 36.8125 0 
L 27.59375 0 
Q 17.1875 0 13.234375 3.875 
Q 9.28125 7.765625 9.28125 18.015625 
L 9.28125 47.703125 
L 2.6875 47.703125 
L 2.6875 54.6875 
L 9.28125 54.6875 
L 9.28125 70.21875 
z
" id="DejaVuSans-116"/>
       <path d="M 8.015625 75.875 
L 15.828125 75.875 
Q 23.140625 64.359375 26.78125 53.3125 
Q 30.421875 42.28125 30.421875 31.390625 
Q 30.421875 20.453125 26.78125 9.375 
Q 23.140625 -1.703125 15.828125 -13.1875 
L 8.015625 -13.1875 
Q 14.5 -2 17.703125 9.0625 
Q 20.90625 20.125 20.90625 31.390625 
Q 20.90625 42.671875 17.703125 53.65625 
Q 14.5 64.65625 8.015625 75.875 
z
" id="DejaVuSans-41"/>
      </defs>
      <use xlink:href="#DejaVuSans-84"/>
      <use x="57.958984" xlink:href="#DejaVuSans-105"/>
      <use x="85.742188" xlink:href="#DejaVuSans-109"/>
      <use x="183.154297" xlink:href="#DejaVuSans-101"/>
      <use x="244.677734" xlink:href="#DejaVuSans-32"/>
      <use x="276.464844" xlink:href="#DejaVuSans-40"/>
      <use x="315.478516" xlink:href="#DejaVuSans-104"/>
      <use x="378.857422" xlink:href="#DejaVuSans-111"/>
      <use x="440.039062" xlink:href="#DejaVuSans-117"/>
      <use x="503.417969" xlink:href="#DejaVuSans-114"/>
      <use x="542.78125" xlink:href="#DejaVuSans-58"/>
      <use x="576.472656" xlink:href="#DejaVuSans-109"/>
      <use x="673.884766" xlink:href="#DejaVuSans-105"/>
      <use x="701.667969" xlink:href="#DejaVuSans-110"/>
      <use x="765.046875" xlink:href="#DejaVuSans-117"/>
      <use x="828.425781" xlink:href="#DejaVuSans-116"/>
      <use x="867.634766" xlink:href="#DejaVuSans-101"/>
      <use x="929.158203" xlink:href="#DejaVuSans-41"/>
     </g>
    </g>
   </g>
   <g id="matplotlib.axis_2">
    <g id="ytick_1">
     <g id="line2d_13">
      <defs>
       <path d="M 0 0 
L -3.5 0 
" id="mc062e8eded" style="stroke:#000000;stroke-width:0.8;"/>
      </defs>
      <g>
       <use style="stroke:#000000;stroke-width:0.8;" x="59.690625" xlink:href="#mc062e8eded" y="276.181564"/>
      </g>
     </g>
     <g id="text_14">
      <!-- 12000 -->
      <g transform="translate(20.878125 279.980783)scale(0.1 -0.1)">
       <use xlink:href="#DejaVuSans-49"/>
       <use x="63.623047" xlink:href="#DejaVuSans-50"/>
       <use x="127.246094" xlink:href="#DejaVuSans-48"/>
       <use x="190.869141" xlink:href="#DejaVuSans-48"/>
       <use x="254.492188" xlink:href="#DejaVuSans-48"/>
      </g>
     </g>
    </g>
    <g id="ytick_2">
     <g id="line2d_14">
      <g>
       <use style="stroke:#000000;stroke-width:0.8;" x="59.690625" xlink:href="#mc062e8eded" y="243.016169"/>
      </g>
     </g>
     <g id="text_15">
      <!-- 14000 -->
      <g transform="translate(20.878125 246.815388)scale(0.1 -0.1)">
       <use xlink:href="#DejaVuSans-49"/>
       <use x="63.623047" xlink:href="#DejaVuSans-52"/>
       <use x="127.246094" xlink:href="#DejaVuSans-48"/>
       <use x="190.869141" xlink:href="#DejaVuSans-48"/>
       <use x="254.492188" xlink:href="#DejaVuSans-48"/>
      </g>
     </g>
    </g>
    <g id="ytick_3">
     <g id="line2d_15">
      <g>
       <use style="stroke:#000000;stroke-width:0.8;" x="59.690625" xlink:href="#mc062e8eded" y="209.850774"/>
      </g>
     </g>
     <g id="text_16">
      <!-- 16000 -->
      <g transform="translate(20.878125 213.649993)scale(0.1 -0.1)">
       <use xlink:href="#DejaVuSans-49"/>
       <use x="63.623047" xlink:href="#DejaVuSans-54"/>
       <use x="127.246094" xlink:href="#DejaVuSans-48"/>
       <use x="190.869141" xlink:href="#DejaVuSans-48"/>
       <use x="254.492188" xlink:href="#DejaVuSans-48"/>
      </g>
     </g>
    </g>
    <g id="ytick_4">
     <g id="line2d_16">
      <g>
       <use style="stroke:#000000;stroke-width:0.8;" x="59.690625" xlink:href="#mc062e8eded" y="176.685379"/>
      </g>
     </g>
     <g id="text_17">
      <!-- 18000 -->
      <g transform="translate(20.878125 180.484598)scale(0.1 -0.1)">
       <defs>
        <path d="M 31.78125 34.625 
Q 24.75 34.625 20.71875 30.859375 
Q 16.703125 27.09375 16.703125 20.515625 
Q 16.703125 13.921875 20.71875 10.15625 
Q 24.75 6.390625 31.78125 6.390625 
Q 38.8125 6.390625 42.859375 10.171875 
Q 46.921875 13.96875 46.921875 20.515625 
Q 46.921875 27.09375 42.890625 30.859375 
Q 38.875 34.625 31.78125 34.625 
z
M 21.921875 38.8125 
Q 15.578125 40.375 12.03125 44.71875 
Q 8.5 49.078125 8.5 55.328125 
Q 8.5 64.0625 14.71875 69.140625 
Q 20.953125 74.21875 31.78125 74.21875 
Q 42.671875 74.21875 48.875 69.140625 
Q 55.078125 64.0625 55.078125 55.328125 
Q 55.078125 49.078125 51.53125 44.71875 
Q 48 40.375 41.703125 38.8125 
Q 48.828125 37.15625 52.796875 32.3125 
Q 56.78125 27.484375 56.78125 20.515625 
Q 56.78125 9.90625 50.3125 4.234375 
Q 43.84375 -1.421875 31.78125 -1.421875 
Q 19.734375 -1.421875 13.25 4.234375 
Q 6.78125 9.90625 6.78125 20.515625 
Q 6.78125 27.484375 10.78125 32.3125 
Q 14.796875 37.15625 21.921875 38.8125 
z
M 18.3125 54.390625 
Q 18.3125 48.734375 21.84375 45.5625 
Q 25.390625 42.390625 31.78125 42.390625 
Q 38.140625 42.390625 41.71875 45.5625 
Q 45.3125 48.734375 45.3125 54.390625 
Q 45.3125 60.0625 41.71875 63.234375 
Q 38.140625 66.40625 31.78125 66.40625 
Q 25.390625 66.40625 21.84375 63.234375 
Q 18.3125 60.0625 18.3125 54.390625 
z
" id="DejaVuSans-56"/>
       </defs>
       <use xlink:href="#DejaVuSans-49"/>
       <use x="63.623047" xlink:href="#DejaVuSans-56"/>
       <use x="127.246094" xlink:href="#DejaVuSans-48"/>
       <use x="190.869141" xlink:href="#DejaVuSans-48"/>
       <use x="254.492188" xlink:href="#DejaVuSans-48"/>
      </g>
     </g>
    </g>
    <g id="ytick_5">
     <g id="line2d_17">
      <g>
       <use style="stroke:#000000;stroke-width:0.8;" x="59.690625" xlink:href="#mc062e8eded" y="143.519984"/>
      </g>
     </g>
     <g id="text_18">
      <!-- 20000 -->
      <g transform="translate(20.878125 147.319202)scale(0.1 -0.1)">
       <use xlink:href="#DejaVuSans-50"/>
       <use x="63.623047" xlink:href="#DejaVuSans-48"/>
       <use x="127.246094" xlink:href="#DejaVuSans-48"/>
       <use x="190.869141" xlink:href="#DejaVuSans-48"/>
       <use x="254.492188" xlink:href="#DejaVuSans-48"/>
      </g>
     </g>
    </g>
    <g id="ytick_6">
     <g id="line2d_18">
      <g>
       <use style="stroke:#000000;stroke-width:0.8;" x="59.690625" xlink:href="#mc062e8eded" y="110.354589"/>
      </g>
     </g>
     <g id="text_19">
      <!-- 22000 -->
      <g transform="translate(20.878125 114.153807)scale(0.1 -0.1)">
       <use xlink:href="#DejaVuSans-50"/>
       <use x="63.623047" xlink:href="#DejaVuSans-50"/>
       <use x="127.246094" xlink:href="#DejaVuSans-48"/>
       <use x="190.869141" xlink:href="#DejaVuSans-48"/>
       <use x="254.492188" xlink:href="#DejaVuSans-48"/>
      </g>
     </g>
    </g>
    <g id="ytick_7">
     <g id="line2d_19">
      <g>
       <use style="stroke:#000000;stroke-width:0.8;" x="59.690625" xlink:href="#mc062e8eded" y="77.189193"/>
      </g>
     </g>
     <g id="text_20">
      <!-- 24000 -->
      <g transform="translate(20.878125 80.988412)scale(0.1 -0.1)">
       <use xlink:href="#DejaVuSans-50"/>
       <use x="63.623047" xlink:href="#DejaVuSans-52"/>
       <use x="127.246094" xlink:href="#DejaVuSans-48"/>
       <use x="190.869141" xlink:href="#DejaVuSans-48"/>
       <use x="254.492188" xlink:href="#DejaVuSans-48"/>
      </g>
     </g>
    </g>
    <g id="ytick_8">
     <g id="line2d_20">
      <g>
       <use style="stroke:#000000;stroke-width:0.8;" x="59.690625" xlink:href="#mc062e8eded" y="44.023798"/>
      </g>
     </g>
     <g id="text_21">
      <!-- 26000 -->
      <g transform="translate(20.878125 47.823017)scale(0.1 -0.1)">
       <use xlink:href="#DejaVuSans-50"/>
       <use x="63.623047" xlink:href="#DejaVuSans-54"/>
       <use x="127.246094" xlink:href="#DejaVuSans-48"/>
       <use x="190.869141" xlink:href="#DejaVuSans-48"/>
       <use x="254.492188" xlink:href="#DejaVuSans-48"/>
      </g>
     </g>
    </g>
    <g id="text_22">
     <!-- Edge coverage -->
     <g transform="translate(14.798437 192.762406)rotate(-90)scale(0.1 -0.1)">
      <defs>
       <path d="M 9.8125 72.90625 
L 55.90625 72.90625 
L 55.90625 64.59375 
L 19.671875 64.59375 
L 19.671875 43.015625 
L 54.390625 43.015625 
L 54.390625 34.71875 
L 19.671875 34.71875 
L 19.671875 8.296875 
L 56.78125 8.296875 
L 56.78125 0 
L 9.8125 0 
z
" id="DejaVuSans-69"/>
       <path d="M 45.40625 46.390625 
L 45.40625 75.984375 
L 54.390625 75.984375 
L 54.390625 0 
L 45.40625 0 
L 45.40625 8.203125 
Q 42.578125 3.328125 38.25 0.953125 
Q 33.9375 -1.421875 27.875 -1.421875 
Q 17.96875 -1.421875 11.734375 6.484375 
Q 5.515625 14.40625 5.515625 27.296875 
Q 5.515625 40.1875 11.734375 48.09375 
Q 17.96875 56 27.875 56 
Q 33.9375 56 38.25 53.625 
Q 42.578125 51.265625 45.40625 46.390625 
z
M 14.796875 27.296875 
Q 14.796875 17.390625 18.875 11.75 
Q 22.953125 6.109375 30.078125 6.109375 
Q 37.203125 6.109375 41.296875 11.75 
Q 45.40625 17.390625 45.40625 27.296875 
Q 45.40625 37.203125 41.296875 42.84375 
Q 37.203125 48.484375 30.078125 48.484375 
Q 22.953125 48.484375 18.875 42.84375 
Q 14.796875 37.203125 14.796875 27.296875 
z
" id="DejaVuSans-100"/>
       <path d="M 45.40625 27.984375 
Q 45.40625 37.75 41.375 43.109375 
Q 37.359375 48.484375 30.078125 48.484375 
Q 22.859375 48.484375 18.828125 43.109375 
Q 14.796875 37.75 14.796875 27.984375 
Q 14.796875 18.265625 18.828125 12.890625 
Q 22.859375 7.515625 30.078125 7.515625 
Q 37.359375 7.515625 41.375 12.890625 
Q 45.40625 18.265625 45.40625 27.984375 
z
M 54.390625 6.78125 
Q 54.390625 -7.171875 48.1875 -13.984375 
Q 42 -20.796875 29.203125 -20.796875 
Q 24.46875 -20.796875 20.265625 -20.09375 
Q 16.0625 -19.390625 12.109375 -17.921875 
L 12.109375 -9.1875 
Q 16.0625 -11.328125 19.921875 -12.34375 
Q 23.78125 -13.375 27.78125 -13.375 
Q 36.625 -13.375 41.015625 -8.765625 
Q 45.40625 -4.15625 45.40625 5.171875 
L 45.40625 9.625 
Q 42.625 4.78125 38.28125 2.390625 
Q 33.9375 0 27.875 0 
Q 17.828125 0 11.671875 7.65625 
Q 5.515625 15.328125 5.515625 27.984375 
Q 5.515625 40.671875 11.671875 48.328125 
Q 17.828125 56 27.875 56 
Q 33.9375 56 38.28125 53.609375 
Q 42.625 51.21875 45.40625 46.390625 
L 45.40625 54.6875 
L 54.390625 54.6875 
z
" id="DejaVuSans-103"/>
       <path d="M 48.78125 52.59375 
L 48.78125 44.1875 
Q 44.96875 46.296875 41.140625 47.34375 
Q 37.3125 48.390625 33.40625 48.390625 
Q 24.65625 48.390625 19.8125 42.84375 
Q 14.984375 37.3125 14.984375 27.296875 
Q 14.984375 17.28125 19.8125 11.734375 
Q 24.65625 6.203125 33.40625 6.203125 
Q 37.3125 6.203125 41.140625 7.25 
Q 44.96875 8.296875 48.78125 10.40625 
L 48.78125 2.09375 
Q 45.015625 0.34375 40.984375 -0.53125 
Q 36.96875 -1.421875 32.421875 -1.421875 
Q 20.0625 -1.421875 12.78125 6.34375 
Q 5.515625 14.109375 5.515625 27.296875 
Q 5.515625 40.671875 12.859375 48.328125 
Q 20.21875 56 33.015625 56 
Q 37.15625 56 41.109375 55.140625 
Q 45.0625 54.296875 48.78125 52.59375 
z
" id="DejaVuSans-99"/>
       <path d="M 2.984375 54.6875 
L 12.5 54.6875 
L 29.59375 8.796875 
L 46.6875 54.6875 
L 56.203125 54.6875 
L 35.6875 0 
L 23.484375 0 
z
" id="DejaVuSans-118"/>
       <path d="M 34.28125 27.484375 
Q 23.390625 27.484375 19.1875 25 
Q 14.984375 22.515625 14.984375 16.5 
Q 14.984375 11.71875 18.140625 8.90625 
Q 21.296875 6.109375 26.703125 6.109375 
Q 34.1875 6.109375 38.703125 11.40625 
Q 43.21875 16.703125 43.21875 25.484375 
L 43.21875 27.484375 
z
M 52.203125 31.203125 
L 52.203125 0 
L 43.21875 0 
L 43.21875 8.296875 
Q 40.140625 3.328125 35.546875 0.953125 
Q 30.953125 -1.421875 24.3125 -1.421875 
Q 15.921875 -1.421875 10.953125 3.296875 
Q 6 8.015625 6 15.921875 
Q 6 25.140625 12.171875 29.828125 
Q 18.359375 34.515625 30.609375 34.515625 
L 43.21875 34.515625 
L 43.21875 35.40625 
Q 43.21875 41.609375 39.140625 45 
Q 35.0625 48.390625 27.6875 48.390625 
Q 23 48.390625 18.546875 47.265625 
Q 14.109375 46.140625 10.015625 43.890625 
L 10.015625 52.203125 
Q 14.9375 54.109375 19.578125 55.046875 
Q 24.21875 56 28.609375 56 
Q 40.484375 56 46.34375 49.84375 
Q 52.203125 43.703125 52.203125 31.203125 
z
" id="DejaVuSans-97"/>
      </defs>
      <use xlink:href="#DejaVuSans-69"/>
      <use x="63.183594" xlink:href="#DejaVuSans-100"/>
      <use x="126.660156" xlink:href="#DejaVuSans-103"/>
      <use x="190.136719" xlink:href="#DejaVuSans-101"/>
      <use x="251.660156" xlink:href="#DejaVuSans-32"/>
      <use x="283.447266" xlink:href="#DejaVuSans-99"/>
      <use x="338.427734" xlink:href="#DejaVuSans-111"/>
      <use x="399.609375" xlink:href="#DejaVuSans-118"/>
      <use x="458.789062" xlink:href="#DejaVuSans-101"/>
      <use x="520.3125" xlink:href="#DejaVuSans-114"/>
      <use x="561.425781" xlink:href="#DejaVuSans-97"/>
      <use x="622.705078" xlink:href="#DejaVuSans-103"/>
      <use x="686.181641" xlink:href="#DejaVuSans-101"/>
     </g>
    </g>
   </g>
   <g id="line2d_21">
    <path clip-path="url(#p59e5ea5798)" d="M 92.15608 216.058507 
L 99.291344 189.973923 
L 106.426609 168.849225 
L 113.561874 152.85853 
L 120.697138 144.342485 
L 127.832403 136.307339 
L 134.967668 123.891045 
L 142.102933 119.503263 
L 149.238197 115.054954 
L 156.373462 111.688667 
L 163.508727 107.169052 
L 170.643992 103.340937 
L 177.779256 101.369254 
L 184.914521 98.946522 
L 192.049786 96.740194 
L 199.185051 94.685598 
L 206.320315 93.002454 
L 213.45558 90.277917 
L 220.590845 88.099779 
L 227.72611 84.992182 
L 234.861374 84.128223 
L 241.996639 82.287544 
L 249.131904 79.587881 
L 256.267168 77.562304 
L 263.402433 74.750708 
L 270.537698 72.941535 
L 277.672963 71.126559 
L 284.808227 68.132553 
L 291.943492 65.929542 
L 299.078757 63.964492 
L 306.214022 63.140332 
L 313.349286 62.122154 
L 320.484551 61.269804 
L 327.619816 60.83285 
L 334.755081 59.359477 
L 341.890345 58.544437 
L 349.02561 57.886104 
L 356.160875 57.525431 
L 363.296139 56.513886 
L 370.431404 55.329881 
L 377.566669 53.783545 
L 384.701934 53.219733 
L 391.837198 52.078014 
L 398.972463 51.259658 
L 406.107728 50.656877 
L 413.242993 49.251494 
L 420.378257 48.06666 
L 427.513522 47.214309 
L 434.648787 46.851148 
L 441.784052 45.221898 
L 448.919316 44.4052 
L 456.054581 43.821489 
L 463.189846 43.668099 
L 470.325111 43.510564 
L 477.460375 43.257678 
L 484.59564 43.132478 
L 491.730905 42.712936 
L 498.866169 42.543792 
L 506.001434 42.112642 
L 513.136699 41.59692 
L 520.271964 41.322477 
L 527.407228 41.08949 
L 534.542493 40.995798 
L 541.677758 40.781052 
L 548.813023 40.300983 
L 555.948287 39.751266 
L 563.083552 39.658403 
L 570.218817 39.386447 
L 577.354082 39.331724 
L 584.489346 39.144339 
L 591.624611 38.738063 
L 598.759876 38.55897 
L 605.89514 38.410555 
L 613.030405 38.123674 
L 620.16567 37.952873 
L 627.300935 37.780413 
L 634.436199 37.440467 
L 641.571464 37.355066 
L 648.706729 36.976152 
L 655.841994 36.636206 
L 662.977258 36.465405 
L 670.112523 36.075711 
L 677.247788 36.062445 
L 684.383053 35.736595 
L 691.518317 35.31954 
L 698.653582 35.23331 
L 705.788847 35.126352 
L 712.924112 34.735 
L 720.059376 34.599022 
L 727.194641 34.512792 
L 734.329906 34.46636 
L 741.46517 34.414125 
" style="fill:none;stroke:#1f77b4;stroke-linecap:square;stroke-width:1.5;"/>
   </g>
   <g id="line2d_22">
    <path clip-path="url(#p59e5ea5798)" d="M 92.15608 276.334125 
L 99.291344 232.370906 
L 106.426609 209.33671 
L 113.561874 183.571344 
L 120.697138 161.008096 
L 127.832403 152.246628 
L 134.967668 145.905405 
L 142.102933 140.573238 
L 149.238197 135.267604 
L 156.373462 131.552251 
L 163.508727 128.855075 
L 170.643992 126.373474 
L 177.779256 122.894424 
L 184.914521 120.889576 
L 192.049786 117.568891 
L 199.185051 114.894102 
L 206.320315 113.100683 
L 213.45558 111.011263 
L 220.590845 109.515504 
L 227.72611 107.369703 
L 234.861374 105.092899 
L 241.996639 102.797853 
L 249.131904 100.099848 
L 256.267168 98.226833 
L 263.402433 97.168027 
L 270.537698 96.02465 
L 277.672963 95.308278 
L 284.808227 94.55874 
L 291.943492 93.594456 
L 299.078757 92.640951 
L 306.214022 91.820937 
L 313.349286 90.527486 
L 320.484551 89.070696 
L 327.619816 88.257315 
L 334.755081 87.580741 
L 341.890345 86.961377 
L 349.02561 86.349476 
L 356.160875 86.050987 
L 363.296139 85.34871 
L 370.431404 85.019543 
L 377.566669 84.32307 
L 384.701934 83.124141 
L 391.837198 81.815766 
L 398.972463 80.531436 
L 406.107728 79.470973 
L 413.242993 79.14761 
L 420.378257 77.769588 
L 427.513522 76.664351 
L 434.648787 76.437168 
L 441.784052 76.178478 
L 448.919316 75.670218 
L 456.054581 75.346027 
L 463.189846 74.981207 
L 470.325111 74.706764 
L 477.460375 74.607267 
L 484.59564 74.076621 
L 491.730905 73.244999 
L 498.866169 73.007037 
L 506.001434 71.525373 
L 513.136699 71.351255 
L 520.271964 71.172162 
L 527.407228 70.970682 
L 534.542493 70.818121 
L 541.677758 70.714479 
L 548.813023 70.603375 
L 555.948287 70.507195 
L 563.083552 69.893636 
L 570.218817 69.086887 
L 577.354082 68.493227 
L 584.489346 68.242828 
L 591.624611 67.178219 
L 598.759876 66.941915 
L 605.89514 66.869781 
L 613.030405 65.734695 
L 620.16567 65.311007 
L 627.300935 64.822647 
L 634.436199 64.281222 
L 641.571464 63.331862 
L 648.706729 63.090584 
L 655.841994 62.771367 
L 662.977258 62.745664 
L 670.112523 62.645338 
L 677.247788 62.423959 
L 684.383053 62.297931 
L 691.518317 62.224138 
L 698.653582 62.031779 
L 705.788847 61.824495 
L 712.924112 61.663643 
L 720.059376 61.527665 
L 727.194641 61.237467 
L 734.329906 60.962195 
L 741.46517 60.885914 
" style="fill:none;stroke:#ff7f0e;stroke-linecap:square;stroke-width:1.5;"/>
   </g>
   <g id="line2d_23">
    <path clip-path="url(#p59e5ea5798)" d="M 92.15608 253.725275 
L 99.291344 224.678193 
L 106.426609 201.455783 
L 113.561874 185.029792 
L 120.697138 170.650935 
L 127.832403 164.516166 
L 134.967668 160.507299 
L 142.102933 156.725615 
L 149.238197 153.312896 
L 156.373462 150.679563 
L 163.508727 148.330624 
L 170.643992 145.597796 
L 177.779256 143.625284 
L 184.914521 142.522534 
L 192.049786 140.76311 
L 199.185051 138.706027 
L 206.320315 137.198659 
L 213.45558 135.510541 
L 220.590845 134.021414 
L 227.72611 132.318371 
L 234.861374 131.266199 
L 241.996639 129.510092 
L 249.131904 127.7772 
L 256.267168 126.706787 
L 263.402433 125.662906 
L 270.537698 124.468122 
L 277.672963 122.732743 
L 284.808227 121.867955 
L 291.943492 120.951761 
L 299.078757 119.862278 
L 306.214022 119.234623 
L 313.349286 118.628525 
L 320.484551 117.364924 
L 327.619816 116.347575 
L 334.755081 115.347639 
L 341.890345 114.931413 
L 349.02561 114.161976 
L 356.160875 113.729997 
L 363.296139 112.774833 
L 370.431404 112.18366 
L 377.566669 111.510403 
L 384.701934 110.935812 
L 391.837198 110.286599 
L 398.972463 109.630754 
L 406.107728 108.808252 
L 413.242993 108.419388 
L 420.378257 108.175622 
L 427.513522 107.900349 
L 434.648787 107.453446 
L 441.784052 107.068727 
L 448.919316 106.722978 
L 456.054581 106.314214 
L 463.189846 106.035625 
L 470.325111 105.765327 
L 477.460375 104.771194 
L 484.59564 103.986833 
L 491.730905 103.170135 
L 498.866169 102.73401 
L 506.001434 102.127083 
L 513.136699 101.140413 
L 520.271964 100.693509 
L 527.407228 100.147938 
L 534.542493 99.376843 
L 541.677758 98.787328 
L 548.813023 98.119874 
L 555.948287 97.794024 
L 563.083552 97.593374 
L 570.218817 97.178806 
L 577.354082 97.078481 
L 584.489346 96.636552 
L 591.624611 96.343038 
L 598.759876 96.229447 
L 605.89514 95.973244 
L 613.030405 95.784201 
L 620.16567 95.479909 
L 627.300935 95.329835 
L 634.436199 95.044613 
L 641.571464 94.875469 
L 648.706729 94.565373 
L 655.841994 94.389596 
L 662.977258 94.135052 
L 670.112523 93.821639 
L 677.247788 93.727118 
L 684.383053 93.15004 
L 691.518317 92.67992 
L 698.653582 92.332513 
L 705.788847 91.877318 
L 712.924112 91.611165 
L 720.059376 91.413002 
L 727.194641 91.1568 
L 734.329906 90.920496 
L 741.46517 90.819342 
" style="fill:none;stroke:#2ca02c;stroke-linecap:square;stroke-width:1.5;"/>
   </g>
   <g id="line2d_24">
    <path clip-path="url(#p59e5ea5798)" d="M 92.15608 193.452973 
L 99.291344 180.633719 
L 106.426609 175.204544 
L 113.561874 170.926208 
L 120.697138 165.712608 
L 127.832403 163.60163 
L 134.967668 162.012179 
L 142.102933 160.342301 
L 149.238197 156.341725 
L 156.373462 154.944633 
L 163.508727 153.751508 
L 170.643992 152.927348 
L 177.779256 152.135524 
L 184.914521 151.429101 
L 192.049786 150.01211 
L 199.185051 149.200387 
L 206.320315 148.768407 
L 213.45558 148.419342 
L 220.590845 147.938443 
L 227.72611 147.582745 
L 234.861374 147.032199 
L 241.996639 146.73454 
L 249.131904 146.443513 
L 256.267168 146.117663 
L 263.402433 145.800934 
L 270.537698 144.606979 
L 277.672963 143.838371 
L 284.808227 143.5233 
L 291.943492 142.364999 
L 299.078757 141.88493 
L 306.214022 141.38579 
L 313.349286 141.103055 
L 320.484551 140.779693 
L 327.619816 140.276408 
L 334.755081 140.026838 
L 341.890345 139.69021 
L 349.02561 139.417424 
L 356.160875 139.215944 
L 363.296139 139.005344 
L 370.431404 138.829568 
L 377.566669 138.474698 
L 384.701934 138.348669 
L 391.837198 138.157139 
L 398.972463 137.929127 
L 406.107728 136.868664 
L 413.242993 136.568517 
L 420.378257 136.226084 
L 427.513522 135.891114 
L 434.648787 135.689634 
L 441.784052 135.362955 
L 448.919316 135.056175 
L 456.054581 134.895323 
L 463.189846 134.66814 
L 470.325111 134.581081 
L 477.460375 134.394525 
L 484.59564 134.195533 
L 491.730905 134.026389 
L 498.866169 133.872999 
L 506.001434 133.752775 
L 513.136699 133.58446 
L 520.271964 133.321625 
L 527.407228 133.272706 
L 534.542493 133.11517 
L 541.677758 132.884671 
L 548.813023 132.016566 
L 555.948287 131.859031 
L 563.083552 131.722223 
L 570.218817 131.538985 
L 577.354082 131.364037 
L 584.489346 131.172507 
L 591.624611 131.068036 
L 598.759876 130.9105 
L 605.89514 129.993477 
L 613.030405 129.058213 
L 620.16567 128.070713 
L 627.300935 127.64288 
L 634.436199 127.471249 
L 641.571464 126.614753 
L 648.706729 126.386741 
L 655.841994 126.213451 
L 662.977258 125.790593 
L 670.112523 125.484642 
L 677.247788 125.389291 
L 684.383053 125.282333 
L 691.518317 125.028618 
L 698.653582 124.813043 
L 705.788847 124.484705 
L 712.924112 124.262497 
L 720.059376 123.891045 
L 727.194641 123.538662 
L 734.329906 123.433362 
L 741.46517 123.116633 
" style="fill:none;stroke:#e377c2;stroke-linecap:square;stroke-width:1.5;"/>
   </g>
   <g id="line2d_25">
    <path clip-path="url(#p59e5ea5798)" d="M 92.15608 194.859186 
L 99.291344 186.507311 
L 106.426609 174.180562 
L 113.561874 165.639644 
L 120.697138 160.804958 
L 127.832403 158.499134 
L 134.967668 157.207342 
L 142.102933 156.469412 
L 149.238197 155.845074 
L 156.373462 154.75559 
L 163.508727 154.023464 
L 170.643992 153.729951 
L 177.779256 153.218374 
L 184.914521 152.74328 
L 192.049786 152.384265 
L 199.185051 152.174494 
L 206.320315 151.623948 
L 213.45558 151.094131 
L 220.590845 150.721849 
L 227.72611 150.438285 
L 234.861374 149.418449 
L 241.996639 148.87122 
L 249.131904 147.751059 
L 256.267168 147.550408 
L 263.402433 147.473299 
L 270.537698 147.298351 
L 277.672963 146.249496 
L 284.808227 144.298541 
L 291.943492 144.113644 
L 299.078757 143.878999 
L 306.214022 143.707368 
L 313.349286 143.351669 
L 320.484551 143.286168 
L 327.619816 143.232274 
L 334.755081 143.128632 
L 341.890345 142.945393 
L 349.02561 142.893158 
L 356.160875 142.583061 
L 363.296139 142.505123 
L 370.431404 142.480249 
L 377.566669 142.403968 
L 384.701934 142.245603 
L 391.837198 142.072314 
L 398.972463 141.906487 
L 406.107728 141.870834 
L 413.242993 141.763047 
L 420.378257 141.633702 
L 427.513522 141.407348 
L 434.648787 141.266395 
L 441.784052 140.968736 
L 448.919316 140.737407 
L 456.054581 140.606404 
L 463.189846 140.574067 
L 470.325111 140.550023 
L 477.460375 140.414044 
L 484.59564 140.352688 
L 491.730905 140.31289 
L 498.866169 140.283041 
L 506.001434 140.240755 
L 513.136699 140.200128 
L 520.271964 140.176912 
L 527.407228 140.147063 
L 534.542493 140.06332 
L 541.677758 139.930659 
L 548.813023 139.902468 
L 555.948287 139.805459 
L 563.083552 139.801314 
L 570.218817 139.762344 
L 577.354082 139.72835 
L 584.489346 139.653728 
L 591.624611 139.608125 
L 598.759876 139.587397 
L 605.89514 138.737534 
L 613.030405 138.691931 
L 620.16567 138.681982 
L 627.300935 138.66457 
L 634.436199 138.574194 
L 641.571464 138.51118 
L 648.706729 138.474698 
L 655.841994 138.434899 
L 662.977258 138.422462 
L 670.112523 138.416658 
L 677.247788 138.413342 
L 684.383053 138.404221 
L 691.518317 138.39593 
L 698.653582 138.394272 
L 705.788847 138.350328 
L 712.924112 138.254148 
L 720.059376 138.246686 
L 727.194641 138.235907 
L 734.329906 138.188646 
L 741.46517 138.140557 
" style="fill:none;stroke:#c5b0d5;stroke-linecap:square;stroke-width:1.5;"/>
   </g>
   <g id="line2d_26">
    <path clip-path="url(#p59e5ea5798)" d="M 92.15608 187.17891 
L 99.291344 178.096566 
L 106.426609 175.254292 
L 113.561874 171.92117 
L 120.697138 167.705848 
L 127.832403 165.43236 
L 134.967668 162.272527 
L 142.102933 159.68231 
L 149.238197 159.321636 
L 156.373462 157.84246 
L 163.508727 156.955285 
L 170.643992 156.472729 
L 177.779256 156.226476 
L 184.914521 155.898138 
L 192.049786 154.187633 
L 199.185051 153.793794 
L 206.320315 153.315383 
L 213.45558 152.883404 
L 220.590845 152.682753 
L 227.72611 152.404164 
L 234.861374 152.128891 
L 241.996639 151.72759 
L 249.131904 151.552642 
L 256.267168 151.247521 
L 263.402433 151.160462 
L 270.537698 150.90343 
L 277.672963 150.512078 
L 284.808227 150.394341 
L 291.943492 150.114093 
L 299.078757 149.715279 
L 306.214022 149.405183 
L 313.349286 149.022952 
L 320.484551 148.814839 
L 327.619816 148.768407 
L 334.755081 148.600093 
L 341.890345 148.052035 
L 349.02561 146.912804 
L 356.160875 146.770192 
L 363.296139 146.682304 
L 370.431404 146.336555 
L 377.566669 146.159949 
L 384.701934 146.018167 
L 391.837198 144.98009 
L 398.972463 144.94195 
L 406.107728 144.91293 
L 413.242993 144.856549 
L 420.378257 144.523237 
L 427.513522 144.383942 
L 434.648787 144.339169 
L 441.784052 144.212311 
L 448.919316 144.166709 
L 456.054581 144.137689 
L 463.189846 144.00254 
L 470.325111 143.919627 
L 477.460375 143.878999 
L 484.59564 143.582998 
L 491.730905 143.57139 
L 498.866169 143.519984 
L 506.001434 142.255553 
L 513.136699 142.203317 
L 520.271964 140.883335 
L 527.407228 140.819491 
L 534.542493 140.637911 
L 541.677758 140.545877 
L 548.813023 140.529294 
L 555.948287 140.473742 
L 563.083552 140.462963 
L 570.218817 140.45633 
L 577.354082 140.453843 
L 584.489346 140.399949 
L 591.624611 140.361809 
L 598.759876 140.166962 
L 605.89514 140.02518 
L 613.030405 139.990356 
L 620.16567 139.971286 
L 627.300935 139.916563 
L 634.436199 139.906614 
L 641.571464 139.887544 
L 648.706729 139.669481 
L 655.841994 139.627195 
L 662.977258 139.589884 
L 670.112523 139.504483 
L 677.247788 139.438153 
L 684.383053 139.429032 
L 691.518317 139.426545 
L 698.653582 139.422399 
L 705.788847 139.381771 
L 712.924112 139.284763 
L 720.059376 139.093233 
L 727.194641 138.993736 
L 734.329906 138.920772 
L 741.46517 138.966724 
" style="fill:none;stroke:#ff9896;stroke-linecap:square;stroke-width:1.5;"/>
   </g>
   <g id="line2d_27">
    <path clip-path="url(#p59e5ea5798)" d="M 92.15608 212.531367 
L 99.291344 197.858996 
L 106.426609 192.409922 
L 113.561874 190.007918 
L 120.697138 187.933423 
L 127.832403 185.965056 
L 134.967668 180.283824 
L 142.102933 178.331212 
L 149.238197 177.092484 
L 156.373462 175.695392 
L 163.508727 175.22776 
L 170.643992 174.502267 
L 177.779256 173.833155 
L 184.914521 173.354744 
L 192.049786 173.121757 
L 199.185051 172.910328 
L 206.320315 172.338225 
L 213.45558 171.961797 
L 220.590845 171.449392 
L 227.72611 170.929524 
L 234.861374 170.29192 
L 241.996639 169.949487 
L 249.131904 169.892277 
L 256.267168 169.261305 
L 263.402433 169.155176 
L 270.537698 167.935518 
L 277.672963 167.730722 
L 284.808227 167.554116 
L 291.943492 167.286306 
L 299.078757 166.760634 
L 306.214022 166.734102 
L 313.349286 166.656163 
L 320.484551 166.618852 
L 327.619816 166.356016 
L 334.755081 166.270616 
L 341.890345 166.186873 
L 349.02561 165.8063 
L 356.160875 165.608137 
L 363.296139 165.559218 
L 370.431404 165.308819 
L 377.566669 165.127239 
L 384.701934 164.138081 
L 391.837198 163.963133 
L 398.972463 163.839592 
L 406.107728 163.527008 
L 413.242993 162.742647 
L 420.378257 162.692069 
L 427.513522 162.618276 
L 434.648787 162.47069 
L 441.784052 162.429234 
L 448.919316 162.085143 
L 456.054581 161.40691 
L 463.189846 161.39779 
L 470.325111 161.126663 
L 477.460375 160.489887 
L 484.59564 160.47745 
L 491.730905 160.412778 
L 498.866169 160.41029 
L 506.001434 160.319085 
L 513.136699 160.29587 
L 520.271964 160.089415 
L 527.407228 159.014856 
L 534.542493 159.003248 
L 541.677758 157.740476 
L 548.813023 157.672487 
L 555.948287 157.669999 
L 563.083552 157.501685 
L 570.218817 157.341662 
L 577.354082 157.327567 
L 584.489346 156.927095 
L 591.624611 156.812674 
L 598.759876 156.268762 
L 605.89514 156.144391 
L 613.030405 156.038262 
L 620.16567 155.892334 
L 627.300935 155.515078 
L 634.436199 155.502641 
L 641.571464 155.398999 
L 648.706729 155.377442 
L 655.841994 155.286237 
L 662.977258 155.268825 
L 670.112523 155.140309 
L 677.247788 155.065687 
L 684.383053 154.964532 
L 691.518317 154.882448 
L 698.653582 154.834358 
L 705.788847 154.78461 
L 712.924112 154.771344 
L 720.059376 154.739837 
L 727.194641 154.645315 
L 734.329906 154.517629 
L 741.46517 154.246502 
" style="fill:none;stroke:#dbdb8d;stroke-linecap:square;stroke-width:1.5;"/>
   </g>
   <g id="line2d_28">
    <path clip-path="url(#p59e5ea5798)" d="M 92.15608 217.908307 
L 99.291344 202.028715 
L 106.426609 195.601262 
L 113.561874 192.657833 
L 120.697138 190.864414 
L 127.832403 189.150593 
L 134.967668 187.74438 
L 142.102933 187.137453 
L 149.238197 186.567008 
L 156.373462 185.689784 
L 163.508727 184.840749 
L 170.643992 182.201613 
L 177.779256 179.667777 
L 184.914521 175.966519 
L 192.049786 174.392821 
L 199.185051 172.795078 
L 206.320315 170.951911 
L 213.45558 170.432873 
L 220.590845 169.94617 
L 227.72611 168.593852 
L 234.861374 167.4455 
L 241.996639 166.874226 
L 249.131904 165.527711 
L 256.267168 165.331206 
L 263.402433 165.093244 
L 270.537698 164.707696 
L 277.672963 164.25333 
L 284.808227 163.892657 
L 291.943492 163.332991 
L 299.078757 163.004653 
L 306.214022 162.901841 
L 313.349286 162.789907 
L 320.484551 162.590086 
L 327.619816 162.263407 
L 334.755081 162.122454 
L 341.890345 161.990621 
L 349.02561 161.716178 
L 356.160875 161.510552 
L 363.296139 161.279224 
L 370.431404 161.207089 
L 377.566669 161.165632 
L 384.701934 159.448494 
L 391.837198 159.147518 
L 398.972463 159.009881 
L 406.107728 158.910385 
L 413.242993 158.824984 
L 420.378257 158.676569 
L 427.513522 158.621846 
L 434.648787 158.569611 
L 441.784052 158.47426 
L 448.919316 158.421196 
L 456.054581 158.38803 
L 463.189846 158.308433 
L 470.325111 158.14841 
L 477.460375 158.128511 
L 484.59564 158.08208 
L 491.730905 157.97595 
L 498.866169 157.917082 
L 506.001434 157.914594 
L 513.136699 157.876454 
L 520.271964 157.789395 
L 527.407228 157.605327 
L 534.542493 157.555579 
L 541.677758 158.094429 
L 548.813023 157.987951 
L 555.948287 157.911147 
L 563.083552 157.80205 
L 570.218817 157.483536 
L 577.354082 157.419048 
L 584.489346 157.279016 
L 591.624611 156.822233 
L 598.759876 156.811503 
L 605.89514 156.747124 
L 613.030405 157.111163 
L 620.16567 157.305308 
L 627.300935 157.189229 
L 634.436199 157.064221 
L 641.571464 156.102105 
L 648.706729 156.045448 
L 655.841994 155.277116 
L 662.977258 155.066064 
L 670.112523 155.119581 
L 677.247788 155.927526 
L 684.383053 157.484688 
L 691.518317 157.453595 
L 698.653582 157.407993 
L 705.788847 157.349953 
L 712.924112 157.308497 
L 720.059376 157.991941 
L 727.194641 157.958775 
L 734.329906 160.878751 
L 741.46517 163.933284 
" style="fill:none;stroke:#98df8a;stroke-linecap:square;stroke-width:1.5;"/>
   </g>
   <g id="line2d_29">
    <path clip-path="url(#p59e5ea5798)" d="M 92.15608 246.559062 
L 99.291344 234.316057 
L 106.426609 224.994922 
L 113.561874 212.169864 
L 120.697138 199.038026 
L 127.832403 195.782842 
L 134.967668 192.58404 
L 142.102933 190.648839 
L 149.238197 187.663954 
L 156.373462 186.431859 
L 163.508727 185.480012 
L 170.643992 185.082857 
L 177.779256 184.528166 
L 184.914521 184.004981 
L 192.049786 183.150973 
L 199.185051 182.982658 
L 206.320315 182.879845 
L 213.45558 182.6452 
L 220.590845 182.46362 
L 227.72611 182.15684 
L 234.861374 182.087193 
L 241.996639 181.539134 
L 249.131904 181.475291 
L 256.267168 181.292881 
L 263.402433 181.034191 
L 270.537698 180.85344 
L 277.672963 180.725753 
L 284.808227 180.645327 
L 291.943492 180.509349 
L 299.078757 180.396586 
L 306.214022 180.376687 
L 313.349286 180.189303 
L 320.484551 180.066591 
L 327.619816 179.957974 
L 334.755081 179.87589 
L 341.890345 179.764786 
L 349.02561 179.539261 
L 356.160875 179.297154 
L 363.296139 179.036805 
L 370.431404 178.733342 
L 377.566669 178.460557 
L 384.701934 178.399201 
L 391.837198 178.092421 
L 398.972463 178.061743 
L 406.107728 177.961417 
L 413.242993 177.520318 
L 420.378257 177.407555 
L 427.513522 177.240899 
L 434.648787 177.15384 
L 441.784052 177.138086 
L 448.919316 177.056831 
L 456.054581 177.03859 
L 463.189846 177.002108 
L 470.325111 176.575104 
L 477.460375 176.275786 
L 484.59564 176.207797 
L 491.730905 176.075136 
L 498.866169 175.903505 
L 506.001434 175.459917 
L 513.136699 175.041204 
L 520.271964 175.010526 
L 527.407228 174.960778 
L 534.542493 174.930929 
L 541.677758 174.551186 
L 548.813023 174.130814 
L 555.948287 173.556224 
L 563.083552 173.260223 
L 570.218817 172.819952 
L 577.354082 172.449329 
L 584.489346 172.299255 
L 591.624611 172.080364 
L 598.759876 170.501691 
L 605.89514 170.225589 
L 613.030405 170.059762 
L 620.16567 169.758786 
L 627.300935 169.689968 
L 634.436199 169.32349 
L 641.571464 169.153518 
L 648.706729 169.139422 
L 655.841994 169.110403 
L 662.977258 168.583902 
L 670.112523 168.282926 
L 677.247788 168.005166 
L 684.383053 167.709165 
L 691.518317 167.642834 
L 698.653582 167.574845 
L 705.788847 167.161106 
L 712.924112 167.088143 
L 720.059376 166.553351 
L 727.194641 166.398302 
L 734.329906 166.234134 
L 741.46517 166.774162 
" style="fill:none;stroke:#d62728;stroke-linecap:square;stroke-width:1.5;"/>
   </g>
   <g id="line2d_30"/>
   <g id="line2d_31"/>
   <g id="line2d_32"/>
   <g id="line2d_33"/>
   <g id="line2d_34"/>
   <g id="line2d_35"/>
   <g id="line2d_36"/>
   <g id="line2d_37"/>
   <g id="line2d_38"/>
   <g id="line2d_39"/>
   <g id="line2d_40">
    <path clip-path="url(#p59e5ea5798)" d="M 741.46517 288.430125 
L 741.46517 22.318125 
" style="fill:none;stroke:#ff0000;stroke-linecap:square;stroke-width:1.5;"/>
   </g>
   <g id="patch_3">
    <path d="M 59.690625 276.181564 
L 59.690625 44.023798 
" style="fill:none;stroke:#000000;stroke-linecap:square;stroke-linejoin:miter;stroke-width:0.8;"/>
   </g>
   <g id="patch_4">
    <path d="M 92.15608 288.430125 
L 693.896739 288.430125 
" style="fill:none;stroke:#000000;stroke-linecap:square;stroke-linejoin:miter;stroke-width:0.8;"/>
   </g>
   <g id="text_23">
    <!-- freetype2-2017 (23h, 3 trials/fuzzer) -->
    <g transform="translate(307.414688 16.318125)scale(0.12 -0.12)">
     <defs>
      <path d="M 37.109375 75.984375 
L 37.109375 68.5 
L 28.515625 68.5 
Q 23.6875 68.5 21.796875 66.546875 
Q 19.921875 64.59375 19.921875 59.515625 
L 19.921875 54.6875 
L 34.71875 54.6875 
L 34.71875 47.703125 
L 19.921875 47.703125 
L 19.921875 0 
L 10.890625 0 
L 10.890625 47.703125 
L 2.296875 47.703125 
L 2.296875 54.6875 
L 10.890625 54.6875 
L 10.890625 58.5 
Q 10.890625 67.625 15.140625 71.796875 
Q 19.390625 75.984375 28.609375 75.984375 
z
" id="DejaVuSans-102"/>
      <path d="M 32.171875 -5.078125 
Q 28.375 -14.84375 24.75 -17.8125 
Q 21.140625 -20.796875 15.09375 -20.796875 
L 7.90625 -20.796875 
L 7.90625 -13.28125 
L 13.1875 -13.28125 
Q 16.890625 -13.28125 18.9375 -11.515625 
Q 21 -9.765625 23.484375 -3.21875 
L 25.09375 0.875 
L 2.984375 54.6875 
L 12.5 54.6875 
L 29.59375 11.921875 
L 46.6875 54.6875 
L 56.203125 54.6875 
z
" id="DejaVuSans-121"/>
      <path d="M 18.109375 8.203125 
L 18.109375 -20.796875 
L 9.078125 -20.796875 
L 9.078125 54.6875 
L 18.109375 54.6875 
L 18.109375 46.390625 
Q 20.953125 51.265625 25.265625 53.625 
Q 29.59375 56 35.59375 56 
Q 45.5625 56 51.78125 48.09375 
Q 58.015625 40.1875 58.015625 27.296875 
Q 58.015625 14.40625 51.78125 6.484375 
Q 45.5625 -1.421875 35.59375 -1.421875 
Q 29.59375 -1.421875 25.265625 0.953125 
Q 20.953125 3.328125 18.109375 8.203125 
z
M 48.6875 27.296875 
Q 48.6875 37.203125 44.609375 42.84375 
Q 40.53125 48.484375 33.40625 48.484375 
Q 26.265625 48.484375 22.1875 42.84375 
Q 18.109375 37.203125 18.109375 27.296875 
Q 18.109375 17.390625 22.1875 11.75 
Q 26.265625 6.109375 33.40625 6.109375 
Q 40.53125 6.109375 44.609375 11.75 
Q 48.6875 17.390625 48.6875 27.296875 
z
" id="DejaVuSans-112"/>
      <path d="M 4.890625 31.390625 
L 31.203125 31.390625 
L 31.203125 23.390625 
L 4.890625 23.390625 
z
" id="DejaVuSans-45"/>
      <path d="M 11.71875 12.40625 
L 22.015625 12.40625 
L 22.015625 4 
L 14.015625 -11.625 
L 7.71875 -11.625 
L 11.71875 4 
z
" id="DejaVuSans-44"/>
      <path d="M 9.421875 75.984375 
L 18.40625 75.984375 
L 18.40625 0 
L 9.421875 0 
z
" id="DejaVuSans-108"/>
      <path d="M 44.28125 53.078125 
L 44.28125 44.578125 
Q 40.484375 46.53125 36.375 47.5 
Q 32.28125 48.484375 27.875 48.484375 
Q 21.1875 48.484375 17.84375 46.4375 
Q 14.5 44.390625 14.5 40.28125 
Q 14.5 37.15625 16.890625 35.375 
Q 19.28125 33.59375 26.515625 31.984375 
L 29.59375 31.296875 
Q 39.15625 29.25 43.1875 25.515625 
Q 47.21875 21.78125 47.21875 15.09375 
Q 47.21875 7.46875 41.1875 3.015625 
Q 35.15625 -1.421875 24.609375 -1.421875 
Q 20.21875 -1.421875 15.453125 -0.5625 
Q 10.6875 0.296875 5.421875 2 
L 5.421875 11.28125 
Q 10.40625 8.6875 15.234375 7.390625 
Q 20.0625 6.109375 24.8125 6.109375 
Q 31.15625 6.109375 34.5625 8.28125 
Q 37.984375 10.453125 37.984375 14.40625 
Q 37.984375 18.0625 35.515625 20.015625 
Q 33.0625 21.96875 24.703125 23.78125 
L 21.578125 24.515625 
Q 13.234375 26.265625 9.515625 29.90625 
Q 5.8125 33.546875 5.8125 39.890625 
Q 5.8125 47.609375 11.28125 51.796875 
Q 16.75 56 26.8125 56 
Q 31.78125 56 36.171875 55.265625 
Q 40.578125 54.546875 44.28125 53.078125 
z
" id="DejaVuSans-115"/>
      <path d="M 25.390625 72.90625 
L 33.6875 72.90625 
L 8.296875 -9.28125 
L 0 -9.28125 
z
" id="DejaVuSans-47"/>
      <path d="M 5.515625 54.6875 
L 48.1875 54.6875 
L 48.1875 46.484375 
L 14.40625 7.171875 
L 48.1875 7.171875 
L 48.1875 0 
L 4.296875 0 
L 4.296875 8.203125 
L 38.09375 47.515625 
L 5.515625 47.515625 
z
" id="DejaVuSans-122"/>
     </defs>
     <use xlink:href="#DejaVuSans-102"/>
     <use x="35.205078" xlink:href="#DejaVuSans-114"/>
     <use x="74.068359" xlink:href="#DejaVuSans-101"/>
     <use x="135.591797" xlink:href="#DejaVuSans-101"/>
     <use x="197.115234" xlink:href="#DejaVuSans-116"/>
     <use x="236.324219" xlink:href="#DejaVuSans-121"/>
     <use x="295.503906" xlink:href="#DejaVuSans-112"/>
     <use x="358.980469" xlink:href="#DejaVuSans-101"/>
     <use x="420.503906" xlink:href="#DejaVuSans-50"/>
     <use x="484.126953" xlink:href="#DejaVuSans-45"/>
     <use x="520.210938" xlink:href="#DejaVuSans-50"/>
     <use x="583.833984" xlink:href="#DejaVuSans-48"/>
     <use x="647.457031" xlink:href="#DejaVuSans-49"/>
     <use x="711.080078" xlink:href="#DejaVuSans-55"/>
     <use x="774.703125" xlink:href="#DejaVuSans-32"/>
     <use x="806.490234" xlink:href="#DejaVuSans-40"/>
     <use x="845.503906" xlink:href="#DejaVuSans-50"/>
     <use x="909.126953" xlink:href="#DejaVuSans-51"/>
     <use x="972.75" xlink:href="#DejaVuSans-104"/>
     <use x="1036.128906" xlink:href="#DejaVuSans-44"/>
     <use x="1067.916016" xlink:href="#DejaVuSans-32"/>
     <use x="1099.703125" xlink:href="#DejaVuSans-51"/>
     <use x="1163.326172" xlink:href="#DejaVuSans-32"/>
     <use x="1195.113281" xlink:href="#DejaVuSans-116"/>
     <use x="1234.322266" xlink:href="#DejaVuSans-114"/>
     <use x="1275.435547" xlink:href="#DejaVuSans-105"/>
     <use x="1303.21875" xlink:href="#DejaVuSans-97"/>
     <use x="1364.498047" xlink:href="#DejaVuSans-108"/>
     <use x="1392.28125" xlink:href="#DejaVuSans-115"/>
     <use x="1444.380859" xlink:href="#DejaVuSans-47"/>
     <use x="1478.072266" xlink:href="#DejaVuSans-102"/>
     <use x="1513.277344" xlink:href="#DejaVuSans-117"/>
     <use x="1576.65625" xlink:href="#DejaVuSans-122"/>
     <use x="1629.146484" xlink:href="#DejaVuSans-122"/>
     <use x="1681.636719" xlink:href="#DejaVuSans-101"/>
     <use x="1743.160156" xlink:href="#DejaVuSans-114"/>
     <use x="1784.273438" xlink:href="#DejaVuSans-41"/>
    </g>
   </g>
   <g id="legend_1">
    <g id="line2d_41">
     <path d="M 777.930625 30.416562 
L 797.930625 30.416562 
" style="fill:none;"/>
    </g>
    <g id="line2d_42"/>
    <g id="text_24">
     <!-- fuzzer -->
     <g transform="translate(805.930625 33.916562)scale(0.1 -0.1)">
      <use xlink:href="#DejaVuSans-102"/>
      <use x="35.205078" xlink:href="#DejaVuSans-117"/>
      <use x="98.583984" xlink:href="#DejaVuSans-122"/>
      <use x="151.074219" xlink:href="#DejaVuSans-122"/>
      <use x="203.564453" xlink:href="#DejaVuSans-101"/>
      <use x="265.087891" xlink:href="#DejaVuSans-114"/>
     </g>
    </g>
    <g id="line2d_43">
     <path d="M 777.930625 45.094688 
L 797.930625 45.094688 
" style="fill:none;stroke:#1f77b4;stroke-linecap:square;stroke-width:1.5;"/>
    </g>
    <g id="line2d_44"/>
    <g id="text_25">
     <!-- aflplusplus -->
     <g transform="translate(805.930625 48.594688)scale(0.1 -0.1)">
      <use xlink:href="#DejaVuSans-97"/>
      <use x="61.279297" xlink:href="#DejaVuSans-102"/>
      <use x="96.484375" xlink:href="#DejaVuSans-108"/>
      <use x="124.267578" xlink:href="#DejaVuSans-112"/>
      <use x="187.744141" xlink:href="#DejaVuSans-108"/>
      <use x="215.527344" xlink:href="#DejaVuSans-117"/>
      <use x="278.90625" xlink:href="#DejaVuSans-115"/>
      <use x="331.005859" xlink:href="#DejaVuSans-112"/>
      <use x="394.482422" xlink:href="#DejaVuSans-108"/>
      <use x="422.265625" xlink:href="#DejaVuSans-117"/>
      <use x="485.644531" xlink:href="#DejaVuSans-115"/>
     </g>
    </g>
    <g id="line2d_45">
     <path d="M 777.930625 59.772812 
L 797.930625 59.772812 
" style="fill:none;stroke:#ff7f0e;stroke-linecap:square;stroke-width:1.5;"/>
    </g>
    <g id="line2d_46"/>
    <g id="text_26">
     <!-- entropic -->
     <g transform="translate(805.930625 63.272812)scale(0.1 -0.1)">
      <use xlink:href="#DejaVuSans-101"/>
      <use x="61.523438" xlink:href="#DejaVuSans-110"/>
      <use x="124.902344" xlink:href="#DejaVuSans-116"/>
      <use x="164.111328" xlink:href="#DejaVuSans-114"/>
      <use x="202.974609" xlink:href="#DejaVuSans-111"/>
      <use x="264.15625" xlink:href="#DejaVuSans-112"/>
      <use x="327.632812" xlink:href="#DejaVuSans-105"/>
      <use x="355.416016" xlink:href="#DejaVuSans-99"/>
     </g>
    </g>
    <g id="line2d_47">
     <path d="M 777.930625 74.450938 
L 797.930625 74.450938 
" style="fill:none;stroke:#2ca02c;stroke-linecap:square;stroke-width:1.5;"/>
    </g>
    <g id="line2d_48"/>
    <g id="text_27">
     <!-- libfuzzer -->
     <g transform="translate(805.930625 77.950938)scale(0.1 -0.1)">
      <defs>
       <path d="M 48.6875 27.296875 
Q 48.6875 37.203125 44.609375 42.84375 
Q 40.53125 48.484375 33.40625 48.484375 
Q 26.265625 48.484375 22.1875 42.84375 
Q 18.109375 37.203125 18.109375 27.296875 
Q 18.109375 17.390625 22.1875 11.75 
Q 26.265625 6.109375 33.40625 6.109375 
Q 40.53125 6.109375 44.609375 11.75 
Q 48.6875 17.390625 48.6875 27.296875 
z
M 18.109375 46.390625 
Q 20.953125 51.265625 25.265625 53.625 
Q 29.59375 56 35.59375 56 
Q 45.5625 56 51.78125 48.09375 
Q 58.015625 40.1875 58.015625 27.296875 
Q 58.015625 14.40625 51.78125 6.484375 
Q 45.5625 -1.421875 35.59375 -1.421875 
Q 29.59375 -1.421875 25.265625 0.953125 
Q 20.953125 3.328125 18.109375 8.203125 
L 18.109375 0 
L 9.078125 0 
L 9.078125 75.984375 
L 18.109375 75.984375 
z
" id="DejaVuSans-98"/>
      </defs>
      <use xlink:href="#DejaVuSans-108"/>
      <use x="27.783203" xlink:href="#DejaVuSans-105"/>
      <use x="55.566406" xlink:href="#DejaVuSans-98"/>
      <use x="119.042969" xlink:href="#DejaVuSans-102"/>
      <use x="154.248047" xlink:href="#DejaVuSans-117"/>
      <use x="217.626953" xlink:href="#DejaVuSans-122"/>
      <use x="270.117188" xlink:href="#DejaVuSans-122"/>
      <use x="322.607422" xlink:href="#DejaVuSans-101"/>
      <use x="384.130859" xlink:href="#DejaVuSans-114"/>
     </g>
    </g>
    <g id="line2d_49">
     <path d="M 777.930625 89.129063 
L 797.930625 89.129063 
" style="fill:none;stroke:#e377c2;stroke-linecap:square;stroke-width:1.5;"/>
    </g>
    <g id="line2d_50"/>
    <g id="text_28">
     <!-- honggfuzz -->
     <g transform="translate(805.930625 92.629063)scale(0.1 -0.1)">
      <use xlink:href="#DejaVuSans-104"/>
      <use x="63.378906" xlink:href="#DejaVuSans-111"/>
      <use x="124.560547" xlink:href="#DejaVuSans-110"/>
      <use x="187.939453" xlink:href="#DejaVuSans-103"/>
      <use x="251.416016" xlink:href="#DejaVuSans-103"/>
      <use x="314.892578" xlink:href="#DejaVuSans-102"/>
      <use x="350.097656" xlink:href="#DejaVuSans-117"/>
      <use x="413.476562" xlink:href="#DejaVuSans-122"/>
      <use x="465.966797" xlink:href="#DejaVuSans-122"/>
     </g>
    </g>
    <g id="line2d_51">
     <path d="M 777.930625 103.807187 
L 797.930625 103.807187 
" style="fill:none;stroke:#c5b0d5;stroke-linecap:square;stroke-width:1.5;"/>
    </g>
    <g id="line2d_52"/>
    <g id="text_29">
     <!-- mopt -->
     <g transform="translate(805.930625 107.307187)scale(0.1 -0.1)">
      <use xlink:href="#DejaVuSans-109"/>
      <use x="97.412109" xlink:href="#DejaVuSans-111"/>
      <use x="158.59375" xlink:href="#DejaVuSans-112"/>
      <use x="222.070312" xlink:href="#DejaVuSans-116"/>
     </g>
    </g>
    <g id="line2d_53">
     <path d="M 777.930625 118.485313 
L 797.930625 118.485313 
" style="fill:none;stroke:#ff9896;stroke-linecap:square;stroke-width:1.5;"/>
    </g>
    <g id="line2d_54"/>
    <g id="text_30">
     <!-- fairfuzz -->
     <g transform="translate(805.930625 121.985313)scale(0.1 -0.1)">
      <use xlink:href="#DejaVuSans-102"/>
      <use x="35.205078" xlink:href="#DejaVuSans-97"/>
      <use x="96.484375" xlink:href="#DejaVuSans-105"/>
      <use x="124.267578" xlink:href="#DejaVuSans-114"/>
      <use x="165.380859" xlink:href="#DejaVuSans-102"/>
      <use x="200.585938" xlink:href="#DejaVuSans-117"/>
      <use x="263.964844" xlink:href="#DejaVuSans-122"/>
      <use x="316.455078" xlink:href="#DejaVuSans-122"/>
     </g>
    </g>
    <g id="line2d_55">
     <path d="M 777.930625 133.163437 
L 797.930625 133.163437 
" style="fill:none;stroke:#dbdb8d;stroke-linecap:square;stroke-width:1.5;"/>
    </g>
    <g id="line2d_56"/>
    <g id="text_31">
     <!-- lafintel -->
     <g transform="translate(805.930625 136.663437)scale(0.1 -0.1)">
      <use xlink:href="#DejaVuSans-108"/>
      <use x="27.783203" xlink:href="#DejaVuSans-97"/>
      <use x="89.0625" xlink:href="#DejaVuSans-102"/>
      <use x="124.267578" xlink:href="#DejaVuSans-105"/>
      <use x="152.050781" xlink:href="#DejaVuSans-110"/>
      <use x="215.429688" xlink:href="#DejaVuSans-116"/>
      <use x="254.638672" xlink:href="#DejaVuSans-101"/>
      <use x="316.162109" xlink:href="#DejaVuSans-108"/>
     </g>
    </g>
    <g id="line2d_57">
     <path d="M 777.930625 147.841563 
L 797.930625 147.841563 
" style="fill:none;stroke:#98df8a;stroke-linecap:square;stroke-width:1.5;"/>
    </g>
    <g id="line2d_58"/>
    <g id="text_32">
     <!-- aflplusplus_flat -->
     <g transform="translate(805.930625 151.341563)scale(0.1 -0.1)">
      <defs>
       <path d="M 50.984375 -16.609375 
L 50.984375 -23.578125 
L -0.984375 -23.578125 
L -0.984375 -16.609375 
z
" id="DejaVuSans-95"/>
      </defs>
      <use xlink:href="#DejaVuSans-97"/>
      <use x="61.279297" xlink:href="#DejaVuSans-102"/>
      <use x="96.484375" xlink:href="#DejaVuSans-108"/>
      <use x="124.267578" xlink:href="#DejaVuSans-112"/>
      <use x="187.744141" xlink:href="#DejaVuSans-108"/>
      <use x="215.527344" xlink:href="#DejaVuSans-117"/>
      <use x="278.90625" xlink:href="#DejaVuSans-115"/>
      <use x="331.005859" xlink:href="#DejaVuSans-112"/>
      <use x="394.482422" xlink:href="#DejaVuSans-108"/>
      <use x="422.265625" xlink:href="#DejaVuSans-117"/>
      <use x="485.644531" xlink:href="#DejaVuSans-115"/>
      <use x="537.744141" xlink:href="#DejaVuSans-95"/>
      <use x="587.744141" xlink:href="#DejaVuSans-102"/>
      <use x="622.949219" xlink:href="#DejaVuSans-108"/>
      <use x="650.732422" xlink:href="#DejaVuSans-97"/>
      <use x="712.011719" xlink:href="#DejaVuSans-116"/>
     </g>
    </g>
    <g id="line2d_59">
     <path d="M 777.930625 162.797812 
L 797.930625 162.797812 
" style="fill:none;stroke:#d62728;stroke-linecap:square;stroke-width:1.5;"/>
    </g>
    <g id="line2d_60"/>
    <g id="text_33">
     <!-- aflplusplus_qemu -->
     <g transform="translate(805.930625 166.297812)scale(0.1 -0.1)">
      <defs>
       <path d="M 14.796875 27.296875 
Q 14.796875 17.390625 18.875 11.75 
Q 22.953125 6.109375 30.078125 6.109375 
Q 37.203125 6.109375 41.296875 11.75 
Q 45.40625 17.390625 45.40625 27.296875 
Q 45.40625 37.203125 41.296875 42.84375 
Q 37.203125 48.484375 30.078125 48.484375 
Q 22.953125 48.484375 18.875 42.84375 
Q 14.796875 37.203125 14.796875 27.296875 
z
M 45.40625 8.203125 
Q 42.578125 3.328125 38.25 0.953125 
Q 33.9375 -1.421875 27.875 -1.421875 
Q 17.96875 -1.421875 11.734375 6.484375 
Q 5.515625 14.40625 5.515625 27.296875 
Q 5.515625 40.1875 11.734375 48.09375 
Q 17.96875 56 27.875 56 
Q 33.9375 56 38.25 53.625 
Q 42.578125 51.265625 45.40625 46.390625 
L 45.40625 54.6875 
L 54.390625 54.6875 
L 54.390625 -20.796875 
L 45.40625 -20.796875 
z
" id="DejaVuSans-113"/>
      </defs>
      <use xlink:href="#DejaVuSans-97"/>
      <use x="61.279297" xlink:href="#DejaVuSans-102"/>
      <use x="96.484375" xlink:href="#DejaVuSans-108"/>
      <use x="124.267578" xlink:href="#DejaVuSans-112"/>
      <use x="187.744141" xlink:href="#DejaVuSans-108"/>
      <use x="215.527344" xlink:href="#DejaVuSans-117"/>
      <use x="278.90625" xlink:href="#DejaVuSans-115"/>
      <use x="331.005859" xlink:href="#DejaVuSans-112"/>
      <use x="394.482422" xlink:href="#DejaVuSans-108"/>
      <use x="422.265625" xlink:href="#DejaVuSans-117"/>
      <use x="485.644531" xlink:href="#DejaVuSans-115"/>
      <use x="537.744141" xlink:href="#DejaVuSans-95"/>
      <use x="587.744141" xlink:href="#DejaVuSans-113"/>
      <use x="651.220703" xlink:href="#DejaVuSans-101"/>
      <use x="712.744141" xlink:href="#DejaVuSans-109"/>
      <use x="810.15625" xlink:href="#DejaVuSans-117"/>
     </g>
    </g>
   </g>
  </g>
 </g>
 <defs>
  <clipPath id="p59e5ea5798">
   <rect height="266.112" width="714.24" x="59.690625" y="22.318125"/>
  </clipPath>
 </defs>
</svg>
