<?xml version="1.0" encoding="utf-8" standalone="no"?>
<!DOCTYPE svg PUBLIC "-//W3C//DTD SVG 1.1//EN"
  "http://www.w3.org/Graphics/SVG/1.1/DTD/svg11.dtd">
<!-- Created with matplotlib (https://matplotlib.org/) -->
<svg height="325.986375pt" version="1.1" viewBox="0 0 898.12125 325.986375" width="898.12125pt" xmlns="http://www.w3.org/2000/svg" xmlns:xlink="http://www.w3.org/1999/xlink">
 <metadata>
  <rdf:RDF xmlns:cc="http://creativecommons.org/ns#" xmlns:dc="http://purl.org/dc/elements/1.1/" xmlns:rdf="http://www.w3.org/1999/02/22-rdf-syntax-ns#">
   <cc:Work>
    <dc:type rdf:resource="http://purl.org/dc/dcmitype/StillImage"/>
    <dc:date>2020-12-06T10:28:53.235568</dc:date>
    <dc:format>image/svg+xml</dc:format>
    <dc:creator>
     <cc:Agent>
      <dc:title>Matplotlib v3.3.3, https://matplotlib.org/</dc:title>
     </cc:Agent>
    </dc:creator>
   </cc:Work>
  </rdf:RDF>
 </metadata>
 <defs>
  <style type="text/css">*{stroke-linecap:butt;stroke-linejoin:round;}</style>
 </defs>
 <g id="figure_1">
  <g id="patch_1">
   <path d="M 0 325.986375 
L 898.12125 325.986375 
L 898.12125 0 
L 0 0 
z
" style="fill:#ffffff;"/>
  </g>
  <g id="axes_1">
   <g id="patch_2">
    <path d="M 53.328125 288.430125 
L 767.568125 288.430125 
L 767.568125 22.318125 
L 53.328125 22.318125 
z
" style="fill:#ffffff;"/>
   </g>
   <g id="matplotlib.axis_1">
    <g id="xtick_1">
     <g id="line2d_1">
      <defs>
       <path d="M 0 0 
L 0 3.5 
" id="mc15d83d243" style="stroke:#000000;stroke-width:0.8;"/>
      </defs>
      <g>
       <use style="stroke:#000000;stroke-width:0.8;" x="85.79358" xlink:href="#mc15d83d243" y="288.430125"/>
      </g>
     </g>
     <g id="text_1">
      <!-- 14m -->
      <g transform="translate(74.560767 303.028562)scale(0.1 -0.1)">
       <defs>
        <path d="M 12.40625 8.296875 
L 28.515625 8.296875 
L 28.515625 63.921875 
L 10.984375 60.40625 
L 10.984375 69.390625 
L 28.421875 72.90625 
L 38.28125 72.90625 
L 38.28125 8.296875 
L 54.390625 8.296875 
L 54.390625 0 
L 12.40625 0 
z
" id="DejaVuSans-49"/>
        <path d="M 37.796875 64.3125 
L 12.890625 25.390625 
L 37.796875 25.390625 
z
M 35.203125 72.90625 
L 47.609375 72.90625 
L 47.609375 25.390625 
L 58.015625 25.390625 
L 58.015625 17.1875 
L 47.609375 17.1875 
L 47.609375 0 
L 37.796875 0 
L 37.796875 17.1875 
L 4.890625 17.1875 
L 4.890625 26.703125 
z
" id="DejaVuSans-52"/>
        <path d="M 52 44.1875 
Q 55.375 50.25 60.0625 53.125 
Q 64.75 56 71.09375 56 
Q 79.640625 56 84.28125 50.015625 
Q 88.921875 44.046875 88.921875 33.015625 
L 88.921875 0 
L 79.890625 0 
L 79.890625 32.71875 
Q 79.890625 40.578125 77.09375 44.375 
Q 74.3125 48.1875 68.609375 48.1875 
Q 61.625 48.1875 57.5625 43.546875 
Q 53.515625 38.921875 53.515625 30.90625 
L 53.515625 0 
L 44.484375 0 
L 44.484375 32.71875 
Q 44.484375 40.625 41.703125 44.40625 
Q 38.921875 48.1875 33.109375 48.1875 
Q 26.21875 48.1875 22.15625 43.53125 
Q 18.109375 38.875 18.109375 30.90625 
L 18.109375 0 
L 9.078125 0 
L 9.078125 54.6875 
L 18.109375 54.6875 
L 18.109375 46.1875 
Q 21.1875 51.21875 25.484375 53.609375 
Q 29.78125 56 35.6875 56 
Q 41.65625 56 45.828125 52.96875 
Q 50 49.953125 52 44.1875 
z
" id="DejaVuSans-109"/>
       </defs>
       <use xlink:href="#DejaVuSans-49"/>
       <use x="63.623047" xlink:href="#DejaVuSans-52"/>
       <use x="127.246094" xlink:href="#DejaVuSans-109"/>
      </g>
     </g>
    </g>
    <g id="xtick_2">
     <g id="line2d_2">
      <g>
       <use style="stroke:#000000;stroke-width:0.8;" x="144.821836" xlink:href="#mc15d83d243" y="288.430125"/>
      </g>
     </g>
     <g id="text_2">
      <!-- 22m -->
      <g transform="translate(133.589024 303.028562)scale(0.1 -0.1)">
       <defs>
        <path d="M 19.1875 8.296875 
L 53.609375 8.296875 
L 53.609375 0 
L 7.328125 0 
L 7.328125 8.296875 
Q 12.9375 14.109375 22.625 23.890625 
Q 32.328125 33.6875 34.8125 36.53125 
Q 39.546875 41.84375 41.421875 45.53125 
Q 43.3125 49.21875 43.3125 52.78125 
Q 43.3125 58.59375 39.234375 62.25 
Q 35.15625 65.921875 28.609375 65.921875 
Q 23.96875 65.921875 18.8125 64.3125 
Q 13.671875 62.703125 7.8125 59.421875 
L 7.8125 69.390625 
Q 13.765625 71.78125 18.9375 73 
Q 24.125 74.21875 28.421875 74.21875 
Q 39.75 74.21875 46.484375 68.546875 
Q 53.21875 62.890625 53.21875 53.421875 
Q 53.21875 48.921875 51.53125 44.890625 
Q 49.859375 40.875 45.40625 35.40625 
Q 44.1875 33.984375 37.640625 27.21875 
Q 31.109375 20.453125 19.1875 8.296875 
z
" id="DejaVuSans-50"/>
       </defs>
       <use xlink:href="#DejaVuSans-50"/>
       <use x="63.623047" xlink:href="#DejaVuSans-50"/>
       <use x="127.246094" xlink:href="#DejaVuSans-109"/>
      </g>
     </g>
    </g>
    <g id="xtick_3">
     <g id="line2d_3">
      <g>
       <use style="stroke:#000000;stroke-width:0.8;" x="203.850093" xlink:href="#mc15d83d243" y="288.430125"/>
      </g>
     </g>
     <g id="text_3">
      <!-- 34m -->
      <g transform="translate(192.617281 303.028562)scale(0.1 -0.1)">
       <defs>
        <path d="M 40.578125 39.3125 
Q 47.65625 37.796875 51.625 33 
Q 55.609375 28.21875 55.609375 21.1875 
Q 55.609375 10.40625 48.1875 4.484375 
Q 40.765625 -1.421875 27.09375 -1.421875 
Q 22.515625 -1.421875 17.65625 -0.515625 
Q 12.796875 0.390625 7.625 2.203125 
L 7.625 11.71875 
Q 11.71875 9.328125 16.59375 8.109375 
Q 21.484375 6.890625 26.8125 6.890625 
Q 36.078125 6.890625 40.9375 10.546875 
Q 45.796875 14.203125 45.796875 21.1875 
Q 45.796875 27.640625 41.28125 31.265625 
Q 36.765625 34.90625 28.71875 34.90625 
L 20.21875 34.90625 
L 20.21875 43.015625 
L 29.109375 43.015625 
Q 36.375 43.015625 40.234375 45.921875 
Q 44.09375 48.828125 44.09375 54.296875 
Q 44.09375 59.90625 40.109375 62.90625 
Q 36.140625 65.921875 28.71875 65.921875 
Q 24.65625 65.921875 20.015625 65.03125 
Q 15.375 64.15625 9.8125 62.3125 
L 9.8125 71.09375 
Q 15.4375 72.65625 20.34375 73.4375 
Q 25.25 74.21875 29.59375 74.21875 
Q 40.828125 74.21875 47.359375 69.109375 
Q 53.90625 64.015625 53.90625 55.328125 
Q 53.90625 49.265625 50.4375 45.09375 
Q 46.96875 40.921875 40.578125 39.3125 
z
" id="DejaVuSans-51"/>
       </defs>
       <use xlink:href="#DejaVuSans-51"/>
       <use x="63.623047" xlink:href="#DejaVuSans-52"/>
       <use x="127.246094" xlink:href="#DejaVuSans-109"/>
      </g>
     </g>
    </g>
    <g id="xtick_4">
     <g id="line2d_4">
      <g>
       <use style="stroke:#000000;stroke-width:0.8;" x="262.87835" xlink:href="#mc15d83d243" y="288.430125"/>
      </g>
     </g>
     <g id="text_4">
      <!-- 51m -->
      <g transform="translate(251.645538 303.028562)scale(0.1 -0.1)">
       <defs>
        <path d="M 10.796875 72.90625 
L 49.515625 72.90625 
L 49.515625 64.59375 
L 19.828125 64.59375 
L 19.828125 46.734375 
Q 21.96875 47.46875 24.109375 47.828125 
Q 26.265625 48.1875 28.421875 48.1875 
Q 40.625 48.1875 47.75 41.5 
Q 54.890625 34.8125 54.890625 23.390625 
Q 54.890625 11.625 47.5625 5.09375 
Q 40.234375 -1.421875 26.90625 -1.421875 
Q 22.3125 -1.421875 17.546875 -0.640625 
Q 12.796875 0.140625 7.71875 1.703125 
L 7.71875 11.625 
Q 12.109375 9.234375 16.796875 8.0625 
Q 21.484375 6.890625 26.703125 6.890625 
Q 35.15625 6.890625 40.078125 11.328125 
Q 45.015625 15.765625 45.015625 23.390625 
Q 45.015625 31 40.078125 35.4375 
Q 35.15625 39.890625 26.703125 39.890625 
Q 22.75 39.890625 18.8125 39.015625 
Q 14.890625 38.140625 10.796875 36.28125 
z
" id="DejaVuSans-53"/>
       </defs>
       <use xlink:href="#DejaVuSans-53"/>
       <use x="63.623047" xlink:href="#DejaVuSans-49"/>
       <use x="127.246094" xlink:href="#DejaVuSans-109"/>
      </g>
     </g>
    </g>
    <g id="xtick_5">
     <g id="line2d_5">
      <g>
       <use style="stroke:#000000;stroke-width:0.8;" x="321.906607" xlink:href="#mc15d83d243" y="288.430125"/>
      </g>
     </g>
     <g id="text_5">
      <!-- 1h:17m -->
      <g transform="translate(302.639419 303.028562)scale(0.1 -0.1)">
       <defs>
        <path d="M 54.890625 33.015625 
L 54.890625 0 
L 45.90625 0 
L 45.90625 32.71875 
Q 45.90625 40.484375 42.875 44.328125 
Q 39.84375 48.1875 33.796875 48.1875 
Q 26.515625 48.1875 22.3125 43.546875 
Q 18.109375 38.921875 18.109375 30.90625 
L 18.109375 0 
L 9.078125 0 
L 9.078125 75.984375 
L 18.109375 75.984375 
L 18.109375 46.1875 
Q 21.34375 51.125 25.703125 53.5625 
Q 30.078125 56 35.796875 56 
Q 45.21875 56 50.046875 50.171875 
Q 54.890625 44.34375 54.890625 33.015625 
z
" id="DejaVuSans-104"/>
        <path d="M 11.71875 12.40625 
L 22.015625 12.40625 
L 22.015625 0 
L 11.71875 0 
z
M 11.71875 51.703125 
L 22.015625 51.703125 
L 22.015625 39.3125 
L 11.71875 39.3125 
z
" id="DejaVuSans-58"/>
        <path d="M 8.203125 72.90625 
L 55.078125 72.90625 
L 55.078125 68.703125 
L 28.609375 0 
L 18.3125 0 
L 43.21875 64.59375 
L 8.203125 64.59375 
z
" id="DejaVuSans-55"/>
       </defs>
       <use xlink:href="#DejaVuSans-49"/>
       <use x="63.623047" xlink:href="#DejaVuSans-104"/>
       <use x="127.001953" xlink:href="#DejaVuSans-58"/>
       <use x="160.693359" xlink:href="#DejaVuSans-49"/>
       <use x="224.316406" xlink:href="#DejaVuSans-55"/>
       <use x="287.939453" xlink:href="#DejaVuSans-109"/>
      </g>
     </g>
    </g>
    <g id="xtick_6">
     <g id="line2d_6">
      <g>
       <use style="stroke:#000000;stroke-width:0.8;" x="380.934864" xlink:href="#mc15d83d243" y="288.430125"/>
      </g>
     </g>
     <g id="text_6">
      <!-- 1h:57m -->
      <g transform="translate(361.667676 303.028562)scale(0.1 -0.1)">
       <use xlink:href="#DejaVuSans-49"/>
       <use x="63.623047" xlink:href="#DejaVuSans-104"/>
       <use x="127.001953" xlink:href="#DejaVuSans-58"/>
       <use x="160.693359" xlink:href="#DejaVuSans-53"/>
       <use x="224.316406" xlink:href="#DejaVuSans-55"/>
       <use x="287.939453" xlink:href="#DejaVuSans-109"/>
      </g>
     </g>
    </g>
    <g id="xtick_7">
     <g id="line2d_7">
      <g>
       <use style="stroke:#000000;stroke-width:0.8;" x="439.963121" xlink:href="#mc15d83d243" y="288.430125"/>
      </g>
     </g>
     <g id="text_7">
      <!-- 2h:56m -->
      <g transform="translate(420.695933 303.028562)scale(0.1 -0.1)">
       <defs>
        <path d="M 33.015625 40.375 
Q 26.375 40.375 22.484375 35.828125 
Q 18.609375 31.296875 18.609375 23.390625 
Q 18.609375 15.53125 22.484375 10.953125 
Q 26.375 6.390625 33.015625 6.390625 
Q 39.65625 6.390625 43.53125 10.953125 
Q 47.40625 15.53125 47.40625 23.390625 
Q 47.40625 31.296875 43.53125 35.828125 
Q 39.65625 40.375 33.015625 40.375 
z
M 52.59375 71.296875 
L 52.59375 62.3125 
Q 48.875 64.0625 45.09375 64.984375 
Q 41.3125 65.921875 37.59375 65.921875 
Q 27.828125 65.921875 22.671875 59.328125 
Q 17.53125 52.734375 16.796875 39.40625 
Q 19.671875 43.65625 24.015625 45.921875 
Q 28.375 48.1875 33.59375 48.1875 
Q 44.578125 48.1875 50.953125 41.515625 
Q 57.328125 34.859375 57.328125 23.390625 
Q 57.328125 12.15625 50.6875 5.359375 
Q 44.046875 -1.421875 33.015625 -1.421875 
Q 20.359375 -1.421875 13.671875 8.265625 
Q 6.984375 17.96875 6.984375 36.375 
Q 6.984375 53.65625 15.1875 63.9375 
Q 23.390625 74.21875 37.203125 74.21875 
Q 40.921875 74.21875 44.703125 73.484375 
Q 48.484375 72.75 52.59375 71.296875 
z
" id="DejaVuSans-54"/>
       </defs>
       <use xlink:href="#DejaVuSans-50"/>
       <use x="63.623047" xlink:href="#DejaVuSans-104"/>
       <use x="127.001953" xlink:href="#DejaVuSans-58"/>
       <use x="160.693359" xlink:href="#DejaVuSans-53"/>
       <use x="224.316406" xlink:href="#DejaVuSans-54"/>
       <use x="287.939453" xlink:href="#DejaVuSans-109"/>
      </g>
     </g>
    </g>
    <g id="xtick_8">
     <g id="line2d_8">
      <g>
       <use style="stroke:#000000;stroke-width:0.8;" x="498.991377" xlink:href="#mc15d83d243" y="288.430125"/>
      </g>
     </g>
     <g id="text_8">
      <!-- 4h:26m -->
      <g transform="translate(479.72419 303.028562)scale(0.1 -0.1)">
       <use xlink:href="#DejaVuSans-52"/>
       <use x="63.623047" xlink:href="#DejaVuSans-104"/>
       <use x="127.001953" xlink:href="#DejaVuSans-58"/>
       <use x="160.693359" xlink:href="#DejaVuSans-50"/>
       <use x="224.316406" xlink:href="#DejaVuSans-54"/>
       <use x="287.939453" xlink:href="#DejaVuSans-109"/>
      </g>
     </g>
    </g>
    <g id="xtick_9">
     <g id="line2d_9">
      <g>
       <use style="stroke:#000000;stroke-width:0.8;" x="558.019634" xlink:href="#mc15d83d243" y="288.430125"/>
      </g>
     </g>
     <g id="text_9">
      <!-- 6h:42m -->
      <g transform="translate(538.752447 303.028562)scale(0.1 -0.1)">
       <use xlink:href="#DejaVuSans-54"/>
       <use x="63.623047" xlink:href="#DejaVuSans-104"/>
       <use x="127.001953" xlink:href="#DejaVuSans-58"/>
       <use x="160.693359" xlink:href="#DejaVuSans-52"/>
       <use x="224.316406" xlink:href="#DejaVuSans-50"/>
       <use x="287.939453" xlink:href="#DejaVuSans-109"/>
      </g>
     </g>
    </g>
    <g id="xtick_10">
     <g id="line2d_10">
      <g>
       <use style="stroke:#000000;stroke-width:0.8;" x="617.047891" xlink:href="#mc15d83d243" y="288.430125"/>
      </g>
     </g>
     <g id="text_10">
      <!-- 10h:6m -->
      <g transform="translate(597.780704 303.028562)scale(0.1 -0.1)">
       <defs>
        <path d="M 31.78125 66.40625 
Q 24.171875 66.40625 20.328125 58.90625 
Q 16.5 51.421875 16.5 36.375 
Q 16.5 21.390625 20.328125 13.890625 
Q 24.171875 6.390625 31.78125 6.390625 
Q 39.453125 6.390625 43.28125 13.890625 
Q 47.125 21.390625 47.125 36.375 
Q 47.125 51.421875 43.28125 58.90625 
Q 39.453125 66.40625 31.78125 66.40625 
z
M 31.78125 74.21875 
Q 44.046875 74.21875 50.515625 64.515625 
Q 56.984375 54.828125 56.984375 36.375 
Q 56.984375 17.96875 50.515625 8.265625 
Q 44.046875 -1.421875 31.78125 -1.421875 
Q 19.53125 -1.421875 13.0625 8.265625 
Q 6.59375 17.96875 6.59375 36.375 
Q 6.59375 54.828125 13.0625 64.515625 
Q 19.53125 74.21875 31.78125 74.21875 
z
" id="DejaVuSans-48"/>
       </defs>
       <use xlink:href="#DejaVuSans-49"/>
       <use x="63.623047" xlink:href="#DejaVuSans-48"/>
       <use x="127.246094" xlink:href="#DejaVuSans-104"/>
       <use x="190.625" xlink:href="#DejaVuSans-58"/>
       <use x="224.316406" xlink:href="#DejaVuSans-54"/>
       <use x="287.939453" xlink:href="#DejaVuSans-109"/>
      </g>
     </g>
    </g>
    <g id="xtick_11">
     <g id="line2d_11">
      <g>
       <use style="stroke:#000000;stroke-width:0.8;" x="676.076148" xlink:href="#mc15d83d243" y="288.430125"/>
      </g>
     </g>
     <g id="text_11">
      <!-- 15h:14m -->
      <g transform="translate(653.62771 303.028562)scale(0.1 -0.1)">
       <use xlink:href="#DejaVuSans-49"/>
       <use x="63.623047" xlink:href="#DejaVuSans-53"/>
       <use x="127.246094" xlink:href="#DejaVuSans-104"/>
       <use x="190.625" xlink:href="#DejaVuSans-58"/>
       <use x="224.316406" xlink:href="#DejaVuSans-49"/>
       <use x="287.939453" xlink:href="#DejaVuSans-52"/>
       <use x="351.5625" xlink:href="#DejaVuSans-109"/>
      </g>
     </g>
    </g>
    <g id="xtick_12">
     <g id="line2d_12">
      <g>
       <use style="stroke:#000000;stroke-width:0.8;" x="735.104405" xlink:href="#mc15d83d243" y="288.430125"/>
      </g>
     </g>
     <g id="text_12">
      <!-- 23h -->
      <g transform="translate(725.573155 303.028562)scale(0.1 -0.1)">
       <use xlink:href="#DejaVuSans-50"/>
       <use x="63.623047" xlink:href="#DejaVuSans-51"/>
       <use x="127.246094" xlink:href="#DejaVuSans-104"/>
      </g>
     </g>
    </g>
    <g id="xtick_13">
     <g id="line2d_13">
      <defs>
       <path d="M 0 0 
L 0 2 
" id="m3d611f3e1f" style="stroke:#000000;stroke-width:0.6;"/>
      </defs>
      <g>
       <use style="stroke:#000000;stroke-width:0.6;" x="68.88045" xlink:href="#m3d611f3e1f" y="288.430125"/>
      </g>
     </g>
    </g>
    <g id="xtick_14">
     <g id="line2d_14">
      <g>
       <use style="stroke:#000000;stroke-width:0.6;" x="200.455797" xlink:href="#m3d611f3e1f" y="288.430125"/>
      </g>
     </g>
    </g>
    <g id="xtick_15">
     <g id="line2d_15">
      <g>
       <use style="stroke:#000000;stroke-width:0.6;" x="258.678816" xlink:href="#m3d611f3e1f" y="288.430125"/>
      </g>
     </g>
    </g>
    <g id="xtick_16">
     <g id="line2d_16">
      <g>
       <use style="stroke:#000000;stroke-width:0.6;" x="299.988705" xlink:href="#m3d611f3e1f" y="288.430125"/>
      </g>
     </g>
    </g>
    <g id="xtick_17">
     <g id="line2d_17">
      <g>
       <use style="stroke:#000000;stroke-width:0.6;" x="332.031144" xlink:href="#m3d611f3e1f" y="288.430125"/>
      </g>
     </g>
    </g>
    <g id="xtick_18">
     <g id="line2d_18">
      <g>
       <use style="stroke:#000000;stroke-width:0.6;" x="358.211724" xlink:href="#m3d611f3e1f" y="288.430125"/>
      </g>
     </g>
    </g>
    <g id="xtick_19">
     <g id="line2d_19">
      <g>
       <use style="stroke:#000000;stroke-width:0.6;" x="380.347088" xlink:href="#m3d611f3e1f" y="288.430125"/>
      </g>
     </g>
    </g>
    <g id="xtick_20">
     <g id="line2d_20">
      <g>
       <use style="stroke:#000000;stroke-width:0.6;" x="399.521613" xlink:href="#m3d611f3e1f" y="288.430125"/>
      </g>
     </g>
    </g>
    <g id="xtick_21">
     <g id="line2d_21">
      <g>
       <use style="stroke:#000000;stroke-width:0.6;" x="416.434742" xlink:href="#m3d611f3e1f" y="288.430125"/>
      </g>
     </g>
    </g>
    <g id="xtick_22">
     <g id="line2d_22">
      <g>
       <use style="stroke:#000000;stroke-width:0.6;" x="531.09696" xlink:href="#m3d611f3e1f" y="288.430125"/>
      </g>
     </g>
    </g>
    <g id="xtick_23">
     <g id="line2d_23">
      <g>
       <use style="stroke:#000000;stroke-width:0.6;" x="589.319979" xlink:href="#m3d611f3e1f" y="288.430125"/>
      </g>
     </g>
    </g>
    <g id="xtick_24">
     <g id="line2d_24">
      <g>
       <use style="stroke:#000000;stroke-width:0.6;" x="630.629868" xlink:href="#m3d611f3e1f" y="288.430125"/>
      </g>
     </g>
    </g>
    <g id="xtick_25">
     <g id="line2d_25">
      <g>
       <use style="stroke:#000000;stroke-width:0.6;" x="662.672307" xlink:href="#m3d611f3e1f" y="288.430125"/>
      </g>
     </g>
    </g>
    <g id="xtick_26">
     <g id="line2d_26">
      <g>
       <use style="stroke:#000000;stroke-width:0.6;" x="688.852887" xlink:href="#m3d611f3e1f" y="288.430125"/>
      </g>
     </g>
    </g>
    <g id="xtick_27">
     <g id="line2d_27">
      <g>
       <use style="stroke:#000000;stroke-width:0.6;" x="710.988251" xlink:href="#m3d611f3e1f" y="288.430125"/>
      </g>
     </g>
    </g>
    <g id="xtick_28">
     <g id="line2d_28">
      <g>
       <use style="stroke:#000000;stroke-width:0.6;" x="730.162776" xlink:href="#m3d611f3e1f" y="288.430125"/>
      </g>
     </g>
    </g>
    <g id="xtick_29">
     <g id="line2d_29">
      <g>
       <use style="stroke:#000000;stroke-width:0.6;" x="747.075905" xlink:href="#m3d611f3e1f" y="288.430125"/>
      </g>
     </g>
    </g>
    <g id="text_13">
     <!-- Time (hour:minute) -->
     <g transform="translate(362.041094 316.706687)scale(0.1 -0.1)">
      <defs>
       <path d="M -0.296875 72.90625 
L 61.375 72.90625 
L 61.375 64.59375 
L 35.5 64.59375 
L 35.5 0 
L 25.59375 0 
L 25.59375 64.59375 
L -0.296875 64.59375 
z
" id="DejaVuSans-84"/>
       <path d="M 9.421875 54.6875 
L 18.40625 54.6875 
L 18.40625 0 
L 9.421875 0 
z
M 9.421875 75.984375 
L 18.40625 75.984375 
L 18.40625 64.59375 
L 9.421875 64.59375 
z
" id="DejaVuSans-105"/>
       <path d="M 56.203125 29.59375 
L 56.203125 25.203125 
L 14.890625 25.203125 
Q 15.484375 15.921875 20.484375 11.0625 
Q 25.484375 6.203125 34.421875 6.203125 
Q 39.59375 6.203125 44.453125 7.46875 
Q 49.3125 8.734375 54.109375 11.28125 
L 54.109375 2.78125 
Q 49.265625 0.734375 44.1875 -0.34375 
Q 39.109375 -1.421875 33.890625 -1.421875 
Q 20.796875 -1.421875 13.15625 6.1875 
Q 5.515625 13.8125 5.515625 26.8125 
Q 5.515625 40.234375 12.765625 48.109375 
Q 20.015625 56 32.328125 56 
Q 43.359375 56 49.78125 48.890625 
Q 56.203125 41.796875 56.203125 29.59375 
z
M 47.21875 32.234375 
Q 47.125 39.59375 43.09375 43.984375 
Q 39.0625 48.390625 32.421875 48.390625 
Q 24.90625 48.390625 20.390625 44.140625 
Q 15.875 39.890625 15.1875 32.171875 
z
" id="DejaVuSans-101"/>
       <path id="DejaVuSans-32"/>
       <path d="M 31 75.875 
Q 24.46875 64.65625 21.28125 53.65625 
Q 18.109375 42.671875 18.109375 31.390625 
Q 18.109375 20.125 21.3125 9.0625 
Q 24.515625 -2 31 -13.1875 
L 23.1875 -13.1875 
Q 15.875 -1.703125 12.234375 9.375 
Q 8.59375 20.453125 8.59375 31.390625 
Q 8.59375 42.28125 12.203125 53.3125 
Q 15.828125 64.359375 23.1875 75.875 
z
" id="DejaVuSans-40"/>
       <path d="M 30.609375 48.390625 
Q 23.390625 48.390625 19.1875 42.75 
Q 14.984375 37.109375 14.984375 27.296875 
Q 14.984375 17.484375 19.15625 11.84375 
Q 23.34375 6.203125 30.609375 6.203125 
Q 37.796875 6.203125 41.984375 11.859375 
Q 46.1875 17.53125 46.1875 27.296875 
Q 46.1875 37.015625 41.984375 42.703125 
Q 37.796875 48.390625 30.609375 48.390625 
z
M 30.609375 56 
Q 42.328125 56 49.015625 48.375 
Q 55.71875 40.765625 55.71875 27.296875 
Q 55.71875 13.875 49.015625 6.21875 
Q 42.328125 -1.421875 30.609375 -1.421875 
Q 18.84375 -1.421875 12.171875 6.21875 
Q 5.515625 13.875 5.515625 27.296875 
Q 5.515625 40.765625 12.171875 48.375 
Q 18.84375 56 30.609375 56 
z
" id="DejaVuSans-111"/>
       <path d="M 8.5 21.578125 
L 8.5 54.6875 
L 17.484375 54.6875 
L 17.484375 21.921875 
Q 17.484375 14.15625 20.5 10.265625 
Q 23.53125 6.390625 29.59375 6.390625 
Q 36.859375 6.390625 41.078125 11.03125 
Q 45.3125 15.671875 45.3125 23.6875 
L 45.3125 54.6875 
L 54.296875 54.6875 
L 54.296875 0 
L 45.3125 0 
L 45.3125 8.40625 
Q 42.046875 3.421875 37.71875 1 
Q 33.40625 -1.421875 27.6875 -1.421875 
Q 18.265625 -1.421875 13.375 4.4375 
Q 8.5 10.296875 8.5 21.578125 
z
M 31.109375 56 
z
" id="DejaVuSans-117"/>
       <path d="M 41.109375 46.296875 
Q 39.59375 47.171875 37.8125 47.578125 
Q 36.03125 48 33.890625 48 
Q 26.265625 48 22.1875 43.046875 
Q 18.109375 38.09375 18.109375 28.8125 
L 18.109375 0 
L 9.078125 0 
L 9.078125 54.6875 
L 18.109375 54.6875 
L 18.109375 46.1875 
Q 20.953125 51.171875 25.484375 53.578125 
Q 30.03125 56 36.53125 56 
Q 37.453125 56 38.578125 55.875 
Q 39.703125 55.765625 41.0625 55.515625 
z
" id="DejaVuSans-114"/>
       <path d="M 54.890625 33.015625 
L 54.890625 0 
L 45.90625 0 
L 45.90625 32.71875 
Q 45.90625 40.484375 42.875 44.328125 
Q 39.84375 48.1875 33.796875 48.1875 
Q 26.515625 48.1875 22.3125 43.546875 
Q 18.109375 38.921875 18.109375 30.90625 
L 18.109375 0 
L 9.078125 0 
L 9.078125 54.6875 
L 18.109375 54.6875 
L 18.109375 46.1875 
Q 21.34375 51.125 25.703125 53.5625 
Q 30.078125 56 35.796875 56 
Q 45.21875 56 50.046875 50.171875 
Q 54.890625 44.34375 54.890625 33.015625 
z
" id="DejaVuSans-110"/>
       <path d="M 18.3125 70.21875 
L 18.3125 54.6875 
L 36.8125 54.6875 
L 36.8125 47.703125 
L 18.3125 47.703125 
L 18.3125 18.015625 
Q 18.3125 11.328125 20.140625 9.421875 
Q 21.96875 7.515625 27.59375 7.515625 
L 36.8125 7.515625 
L 36.8125 0 
L 27.59375 0 
Q 17.1875 0 13.234375 3.875 
Q 9.28125 7.765625 9.28125 18.015625 
L 9.28125 47.703125 
L 2.6875 47.703125 
L 2.6875 54.6875 
L 9.28125 54.6875 
L 9.28125 70.21875 
z
" id="DejaVuSans-116"/>
       <path d="M 8.015625 75.875 
L 15.828125 75.875 
Q 23.140625 64.359375 26.78125 53.3125 
Q 30.421875 42.28125 30.421875 31.390625 
Q 30.421875 20.453125 26.78125 9.375 
Q 23.140625 -1.703125 15.828125 -13.1875 
L 8.015625 -13.1875 
Q 14.5 -2 17.703125 9.0625 
Q 20.90625 20.125 20.90625 31.390625 
Q 20.90625 42.671875 17.703125 53.65625 
Q 14.5 64.65625 8.015625 75.875 
z
" id="DejaVuSans-41"/>
      </defs>
      <use xlink:href="#DejaVuSans-84"/>
      <use x="57.958984" xlink:href="#DejaVuSans-105"/>
      <use x="85.742188" xlink:href="#DejaVuSans-109"/>
      <use x="183.154297" xlink:href="#DejaVuSans-101"/>
      <use x="244.677734" xlink:href="#DejaVuSans-32"/>
      <use x="276.464844" xlink:href="#DejaVuSans-40"/>
      <use x="315.478516" xlink:href="#DejaVuSans-104"/>
      <use x="378.857422" xlink:href="#DejaVuSans-111"/>
      <use x="440.039062" xlink:href="#DejaVuSans-117"/>
      <use x="503.417969" xlink:href="#DejaVuSans-114"/>
      <use x="542.78125" xlink:href="#DejaVuSans-58"/>
      <use x="576.472656" xlink:href="#DejaVuSans-109"/>
      <use x="673.884766" xlink:href="#DejaVuSans-105"/>
      <use x="701.667969" xlink:href="#DejaVuSans-110"/>
      <use x="765.046875" xlink:href="#DejaVuSans-117"/>
      <use x="828.425781" xlink:href="#DejaVuSans-116"/>
      <use x="867.634766" xlink:href="#DejaVuSans-101"/>
      <use x="929.158203" xlink:href="#DejaVuSans-41"/>
     </g>
    </g>
   </g>
   <g id="matplotlib.axis_2">
    <g id="ytick_1">
     <g id="line2d_30">
      <defs>
       <path d="M 0 0 
L -3.5 0 
" id="m69d031ba63" style="stroke:#000000;stroke-width:0.8;"/>
      </defs>
      <g>
       <use style="stroke:#000000;stroke-width:0.8;" x="53.328125" xlink:href="#m69d031ba63" y="239.166931"/>
      </g>
     </g>
     <g id="text_14">
      <!-- 7000 -->
      <g transform="translate(20.878125 242.96615)scale(0.1 -0.1)">
       <use xlink:href="#DejaVuSans-55"/>
       <use x="63.623047" xlink:href="#DejaVuSans-48"/>
       <use x="127.246094" xlink:href="#DejaVuSans-48"/>
       <use x="190.869141" xlink:href="#DejaVuSans-48"/>
      </g>
     </g>
    </g>
    <g id="ytick_2">
     <g id="line2d_31">
      <g>
       <use style="stroke:#000000;stroke-width:0.8;" x="53.328125" xlink:href="#m69d031ba63" y="183.627191"/>
      </g>
     </g>
     <g id="text_15">
      <!-- 7500 -->
      <g transform="translate(20.878125 187.42641)scale(0.1 -0.1)">
       <use xlink:href="#DejaVuSans-55"/>
       <use x="63.623047" xlink:href="#DejaVuSans-53"/>
       <use x="127.246094" xlink:href="#DejaVuSans-48"/>
       <use x="190.869141" xlink:href="#DejaVuSans-48"/>
      </g>
     </g>
    </g>
    <g id="ytick_3">
     <g id="line2d_32">
      <g>
       <use style="stroke:#000000;stroke-width:0.8;" x="53.328125" xlink:href="#m69d031ba63" y="128.087451"/>
      </g>
     </g>
     <g id="text_16">
      <!-- 8000 -->
      <g transform="translate(20.878125 131.886669)scale(0.1 -0.1)">
       <defs>
        <path d="M 31.78125 34.625 
Q 24.75 34.625 20.71875 30.859375 
Q 16.703125 27.09375 16.703125 20.515625 
Q 16.703125 13.921875 20.71875 10.15625 
Q 24.75 6.390625 31.78125 6.390625 
Q 38.8125 6.390625 42.859375 10.171875 
Q 46.921875 13.96875 46.921875 20.515625 
Q 46.921875 27.09375 42.890625 30.859375 
Q 38.875 34.625 31.78125 34.625 
z
M 21.921875 38.8125 
Q 15.578125 40.375 12.03125 44.71875 
Q 8.5 49.078125 8.5 55.328125 
Q 8.5 64.0625 14.71875 69.140625 
Q 20.953125 74.21875 31.78125 74.21875 
Q 42.671875 74.21875 48.875 69.140625 
Q 55.078125 64.0625 55.078125 55.328125 
Q 55.078125 49.078125 51.53125 44.71875 
Q 48 40.375 41.703125 38.8125 
Q 48.828125 37.15625 52.796875 32.3125 
Q 56.78125 27.484375 56.78125 20.515625 
Q 56.78125 9.90625 50.3125 4.234375 
Q 43.84375 -1.421875 31.78125 -1.421875 
Q 19.734375 -1.421875 13.25 4.234375 
Q 6.78125 9.90625 6.78125 20.515625 
Q 6.78125 27.484375 10.78125 32.3125 
Q 14.796875 37.15625 21.921875 38.8125 
z
M 18.3125 54.390625 
Q 18.3125 48.734375 21.84375 45.5625 
Q 25.390625 42.390625 31.78125 42.390625 
Q 38.140625 42.390625 41.71875 45.5625 
Q 45.3125 48.734375 45.3125 54.390625 
Q 45.3125 60.0625 41.71875 63.234375 
Q 38.140625 66.40625 31.78125 66.40625 
Q 25.390625 66.40625 21.84375 63.234375 
Q 18.3125 60.0625 18.3125 54.390625 
z
" id="DejaVuSans-56"/>
       </defs>
       <use xlink:href="#DejaVuSans-56"/>
       <use x="63.623047" xlink:href="#DejaVuSans-48"/>
       <use x="127.246094" xlink:href="#DejaVuSans-48"/>
       <use x="190.869141" xlink:href="#DejaVuSans-48"/>
      </g>
     </g>
    </g>
    <g id="ytick_4">
     <g id="line2d_33">
      <g>
       <use style="stroke:#000000;stroke-width:0.8;" x="53.328125" xlink:href="#m69d031ba63" y="72.547711"/>
      </g>
     </g>
     <g id="text_17">
      <!-- 8500 -->
      <g transform="translate(20.878125 76.346929)scale(0.1 -0.1)">
       <use xlink:href="#DejaVuSans-56"/>
       <use x="63.623047" xlink:href="#DejaVuSans-53"/>
       <use x="127.246094" xlink:href="#DejaVuSans-48"/>
       <use x="190.869141" xlink:href="#DejaVuSans-48"/>
      </g>
     </g>
    </g>
    <g id="text_18">
     <!-- Edge coverage -->
     <g transform="translate(14.798438 192.762406)rotate(-90)scale(0.1 -0.1)">
      <defs>
       <path d="M 9.8125 72.90625 
L 55.90625 72.90625 
L 55.90625 64.59375 
L 19.671875 64.59375 
L 19.671875 43.015625 
L 54.390625 43.015625 
L 54.390625 34.71875 
L 19.671875 34.71875 
L 19.671875 8.296875 
L 56.78125 8.296875 
L 56.78125 0 
L 9.8125 0 
z
" id="DejaVuSans-69"/>
       <path d="M 45.40625 46.390625 
L 45.40625 75.984375 
L 54.390625 75.984375 
L 54.390625 0 
L 45.40625 0 
L 45.40625 8.203125 
Q 42.578125 3.328125 38.25 0.953125 
Q 33.9375 -1.421875 27.875 -1.421875 
Q 17.96875 -1.421875 11.734375 6.484375 
Q 5.515625 14.40625 5.515625 27.296875 
Q 5.515625 40.1875 11.734375 48.09375 
Q 17.96875 56 27.875 56 
Q 33.9375 56 38.25 53.625 
Q 42.578125 51.265625 45.40625 46.390625 
z
M 14.796875 27.296875 
Q 14.796875 17.390625 18.875 11.75 
Q 22.953125 6.109375 30.078125 6.109375 
Q 37.203125 6.109375 41.296875 11.75 
Q 45.40625 17.390625 45.40625 27.296875 
Q 45.40625 37.203125 41.296875 42.84375 
Q 37.203125 48.484375 30.078125 48.484375 
Q 22.953125 48.484375 18.875 42.84375 
Q 14.796875 37.203125 14.796875 27.296875 
z
" id="DejaVuSans-100"/>
       <path d="M 45.40625 27.984375 
Q 45.40625 37.75 41.375 43.109375 
Q 37.359375 48.484375 30.078125 48.484375 
Q 22.859375 48.484375 18.828125 43.109375 
Q 14.796875 37.75 14.796875 27.984375 
Q 14.796875 18.265625 18.828125 12.890625 
Q 22.859375 7.515625 30.078125 7.515625 
Q 37.359375 7.515625 41.375 12.890625 
Q 45.40625 18.265625 45.40625 27.984375 
z
M 54.390625 6.78125 
Q 54.390625 -7.171875 48.1875 -13.984375 
Q 42 -20.796875 29.203125 -20.796875 
Q 24.46875 -20.796875 20.265625 -20.09375 
Q 16.0625 -19.390625 12.109375 -17.921875 
L 12.109375 -9.1875 
Q 16.0625 -11.328125 19.921875 -12.34375 
Q 23.78125 -13.375 27.78125 -13.375 
Q 36.625 -13.375 41.015625 -8.765625 
Q 45.40625 -4.15625 45.40625 5.171875 
L 45.40625 9.625 
Q 42.625 4.78125 38.28125 2.390625 
Q 33.9375 0 27.875 0 
Q 17.828125 0 11.671875 7.65625 
Q 5.515625 15.328125 5.515625 27.984375 
Q 5.515625 40.671875 11.671875 48.328125 
Q 17.828125 56 27.875 56 
Q 33.9375 56 38.28125 53.609375 
Q 42.625 51.21875 45.40625 46.390625 
L 45.40625 54.6875 
L 54.390625 54.6875 
z
" id="DejaVuSans-103"/>
       <path d="M 48.78125 52.59375 
L 48.78125 44.1875 
Q 44.96875 46.296875 41.140625 47.34375 
Q 37.3125 48.390625 33.40625 48.390625 
Q 24.65625 48.390625 19.8125 42.84375 
Q 14.984375 37.3125 14.984375 27.296875 
Q 14.984375 17.28125 19.8125 11.734375 
Q 24.65625 6.203125 33.40625 6.203125 
Q 37.3125 6.203125 41.140625 7.25 
Q 44.96875 8.296875 48.78125 10.40625 
L 48.78125 2.09375 
Q 45.015625 0.34375 40.984375 -0.53125 
Q 36.96875 -1.421875 32.421875 -1.421875 
Q 20.0625 -1.421875 12.78125 6.34375 
Q 5.515625 14.109375 5.515625 27.296875 
Q 5.515625 40.671875 12.859375 48.328125 
Q 20.21875 56 33.015625 56 
Q 37.15625 56 41.109375 55.140625 
Q 45.0625 54.296875 48.78125 52.59375 
z
" id="DejaVuSans-99"/>
       <path d="M 2.984375 54.6875 
L 12.5 54.6875 
L 29.59375 8.796875 
L 46.6875 54.6875 
L 56.203125 54.6875 
L 35.6875 0 
L 23.484375 0 
z
" id="DejaVuSans-118"/>
       <path d="M 34.28125 27.484375 
Q 23.390625 27.484375 19.1875 25 
Q 14.984375 22.515625 14.984375 16.5 
Q 14.984375 11.71875 18.140625 8.90625 
Q 21.296875 6.109375 26.703125 6.109375 
Q 34.1875 6.109375 38.703125 11.40625 
Q 43.21875 16.703125 43.21875 25.484375 
L 43.21875 27.484375 
z
M 52.203125 31.203125 
L 52.203125 0 
L 43.21875 0 
L 43.21875 8.296875 
Q 40.140625 3.328125 35.546875 0.953125 
Q 30.953125 -1.421875 24.3125 -1.421875 
Q 15.921875 -1.421875 10.953125 3.296875 
Q 6 8.015625 6 15.921875 
Q 6 25.140625 12.171875 29.828125 
Q 18.359375 34.515625 30.609375 34.515625 
L 43.21875 34.515625 
L 43.21875 35.40625 
Q 43.21875 41.609375 39.140625 45 
Q 35.0625 48.390625 27.6875 48.390625 
Q 23 48.390625 18.546875 47.265625 
Q 14.109375 46.140625 10.015625 43.890625 
L 10.015625 52.203125 
Q 14.9375 54.109375 19.578125 55.046875 
Q 24.21875 56 28.609375 56 
Q 40.484375 56 46.34375 49.84375 
Q 52.203125 43.703125 52.203125 31.203125 
z
" id="DejaVuSans-97"/>
      </defs>
      <use xlink:href="#DejaVuSans-69"/>
      <use x="63.183594" xlink:href="#DejaVuSans-100"/>
      <use x="126.660156" xlink:href="#DejaVuSans-103"/>
      <use x="190.136719" xlink:href="#DejaVuSans-101"/>
      <use x="251.660156" xlink:href="#DejaVuSans-32"/>
      <use x="283.447266" xlink:href="#DejaVuSans-99"/>
      <use x="338.427734" xlink:href="#DejaVuSans-111"/>
      <use x="399.609375" xlink:href="#DejaVuSans-118"/>
      <use x="458.789062" xlink:href="#DejaVuSans-101"/>
      <use x="520.3125" xlink:href="#DejaVuSans-114"/>
      <use x="561.425781" xlink:href="#DejaVuSans-97"/>
      <use x="622.705078" xlink:href="#DejaVuSans-103"/>
      <use x="686.181641" xlink:href="#DejaVuSans-101"/>
     </g>
    </g>
   </g>
   <g id="line2d_34">
    <path clip-path="url(#p9a57629e64)" d="M 85.79358 144.732711 
L 185.326487 111.975372 
L 243.549506 96.496447 
L 284.859395 90.353751 
L 316.901835 84.166624 
L 343.082414 81.117492 
L 365.217778 77.757338 
L 384.392303 73.49744 
L 401.305433 69.826263 
L 416.434742 67.560242 
L 430.120868 66.738254 
L 442.615322 63.866849 
L 454.109105 62.878242 
L 464.750686 62.556111 
L 474.657761 61.950728 
L 483.925211 60.61222 
L 492.630642 60.062377 
L 500.83834 57.407577 
L 508.602157 56.246797 
L 515.96765 53.230989 
L 522.973705 52.497864 
L 529.653776 51.775848 
L 536.036855 51.348192 
L 542.14823 51.070493 
L 548.01009 50.859442 
L 553.642013 49.882207 
L 559.061359 50.326261 
L 564.283594 50.05967 
L 569.322554 50.00413 
L 574.190669 49.887497 
L 578.899144 49.731985 
L 583.458119 49.493164 
L 587.876794 49.315437 
L 592.16355 49.171034 
L 596.326033 48.909997 
L 600.371248 48.826688 
L 604.305621 48.721162 
L 608.135065 48.582313 
L 611.865031 46.455141 
L 615.500558 44.327969 
L 619.046309 44.227997 
L 622.506613 43.916975 
L 625.885489 41.662061 
L 629.186684 41.428794 
L 632.413688 41.062232 
L 635.569763 40.906721 
L 638.65796 40.64013 
L 641.681137 40.456849 
L 644.641977 40.301337 
L 647.542997 40.23469 
L 650.386568 40.20692 
L 653.174921 40.12361 
L 655.910158 39.483052 
L 658.594267 37.377831 
L 661.229123 37.28791 
L 663.816502 37.139804 
L 666.358084 37.596552 
L 668.855462 37.590998 
L 671.310148 37.479919 
L 673.723577 36.885908 
L 676.097112 37.218882 
L 678.432052 37.102248 
L 680.729631 37.063371 
L 682.991027 36.930075 
L 685.21736 36.01843 
L 687.409702 36.513527 
L 689.569076 36.507973 
L 691.696457 36.358016 
L 693.792781 36.152519 
L 695.858941 35.730417 
L 697.895793 35.713755 
L 699.904156 35.713755 
L 701.884817 35.652661 
L 703.838529 35.641553 
L 705.766016 35.424948 
L 707.667973 34.955241 
L 709.545067 35.336085 
L 711.397939 34.780687 
L 713.227208 35.208343 
L 715.033466 35.113926 
L 716.817286 35.0084 
L 718.579217 34.886213 
L 720.319792 34.819565 
L 722.03952 34.819565 
L 723.738897 34.775133 
L 725.418397 34.764025 
L 727.078481 34.764025 
L 728.719591 34.764025 
L 730.342158 34.741809 
L 731.946595 34.458557 
L 733.533304 34.425233 
L 735.10267 34.414125 
" style="fill:none;stroke:#1f77b4;stroke-linecap:square;stroke-width:1.5;"/>
   </g>
   <g id="line2d_35">
    <path clip-path="url(#p9a57629e64)" d="M 85.79358 276.334125 
L 185.326487 135.407588 
L 243.549506 104.105391 
L 284.859395 94.88024 
L 316.901835 89.553979 
L 343.082414 85.08303 
L 365.217778 81.023075 
L 384.392303 77.624043 
L 401.305433 75.096985 
L 416.434742 72.858733 
L 430.120868 70.63159 
L 442.615322 68.343352 
L 454.109105 66.921535 
L 464.750686 65.805186 
L 474.657761 64.599974 
L 483.925211 63.511395 
L 492.630642 62.961551 
L 500.83834 62.222873 
L 508.602157 61.461978 
L 515.96765 60.962121 
L 522.973705 60.540019 
L 529.653776 59.956851 
L 536.036855 59.595843 
L 542.14823 58.762747 
L 548.01009 58.146256 
L 553.642013 57.052123 
L 559.061359 56.807748 
L 564.283594 56.130163 
L 569.322554 55.66363 
L 574.190669 55.280405 
L 578.899144 54.669468 
L 583.458119 54.441755 
L 587.876794 54.214042 
L 592.16355 53.964114 
L 596.326033 53.575335 
L 600.371248 52.758901 
L 604.305621 52.586728 
L 608.135065 51.981345 
L 611.865031 51.703646 
L 615.500558 51.27599 
L 619.046309 50.970522 
L 622.506613 50.715039 
L 625.885489 50.659499 
L 629.186684 50.576189 
L 632.413688 50.365138 
L 635.569763 50.309599 
L 638.65796 50.081886 
L 641.681137 50.009684 
L 644.641977 49.643122 
L 647.542997 47.749217 
L 650.386568 47.149387 
L 653.174921 46.954998 
L 655.910158 46.460695 
L 658.594267 46.232982 
L 661.229123 46.038593 
L 663.816502 45.927513 
L 666.358084 45.794218 
L 668.855462 45.716462 
L 671.310148 45.666476 
L 673.723577 45.522073 
L 676.097112 45.333238 
L 678.432052 45.227712 
L 680.729631 45.199943 
L 682.991027 45.088863 
L 685.21736 44.777841 
L 687.409702 44.705639 
L 689.569076 44.627883 
L 691.696457 44.561236 
L 693.792781 44.494588 
L 695.858941 44.416832 
L 697.895793 44.366846 
L 699.904156 44.327969 
L 701.884817 44.311307 
L 703.838529 44.183565 
L 705.766016 44.128026 
L 707.667973 44.011392 
L 709.545067 43.811449 
L 711.397939 43.783679 
L 713.227208 43.711477 
L 715.033466 43.689262 
L 716.817286 43.64483 
L 718.579217 43.522642 
L 720.319792 43.383793 
L 722.03952 43.172742 
L 723.738897 42.767302 
L 725.418397 42.628453 
L 727.078481 42.300768 
L 728.719591 42.245228 
L 730.342158 42.111933 
L 731.946595 42.050839 
L 733.533304 42.006407 
L 735.10267 41.734263 
" style="fill:none;stroke:#ff7f0e;stroke-linecap:square;stroke-width:1.5;"/>
   </g>
   <g id="line2d_36">
    <path clip-path="url(#p9a57629e64)" d="M 85.79358 232.985358 
L 185.326487 154.468827 
L 243.549506 134.802205 
L 284.859395 125.027211 
L 316.901835 116.113083 
L 343.082414 110.60354 
L 365.217778 104.966257 
L 384.392303 100.872978 
L 401.305433 97.812738 
L 416.434742 96.013251 
L 430.120868 93.52507 
L 442.615322 92.103253 
L 454.109105 89.798354 
L 464.750686 88.043298 
L 474.657761 86.182717 
L 483.925211 84.438769 
L 492.630642 82.53931 
L 500.83834 81.572918 
L 508.602157 80.656513 
L 515.96765 78.995874 
L 522.973705 78.434923 
L 529.653776 77.579611 
L 536.036855 77.04643 
L 542.14823 76.352183 
L 548.01009 75.796785 
L 553.642013 75.31359 
L 559.061359 74.808178 
L 564.283594 74.36386 
L 569.322554 73.652951 
L 574.190669 73.291943 
L 578.899144 72.869841 
L 583.458119 72.22558 
L 587.876794 71.7646 
L 592.16355 71.181433 
L 596.326033 70.875964 
L 600.371248 70.409431 
L 604.305621 69.981775 
L 608.135065 69.720738 
L 611.865031 69.359729 
L 615.500558 69.270866 
L 619.046309 68.665483 
L 622.506613 68.360014 
L 625.885489 67.960128 
L 629.186684 67.704645 
L 632.413688 67.388069 
L 635.569763 67.065938 
L 638.65796 66.821563 
L 641.681137 66.416123 
L 644.641977 66.077331 
L 647.542997 65.855172 
L 650.386568 65.449732 
L 653.174921 65.094277 
L 655.910158 64.777701 
L 658.594267 64.344491 
L 661.229123 63.833525 
L 663.816502 63.661352 
L 666.358084 63.394761 
L 668.855462 63.150387 
L 671.310148 62.950443 
L 673.723577 62.706069 
L 676.097112 62.567219 
L 678.432052 62.0507 
L 680.729631 61.978498 
L 682.991027 61.689691 
L 685.21736 61.539734 
L 687.409702 61.473086 
L 689.569076 61.312021 
L 691.696457 61.200942 
L 693.792781 60.906581 
L 695.858941 60.784394 
L 697.895793 60.645544 
L 699.904156 60.516049 
L 701.884817 60.387431 
L 703.838529 60.29389 
L 705.766016 60.188657 
L 707.667973 60.054192 
L 709.545067 59.867111 
L 711.397939 59.68003 
L 713.227208 59.598182 
L 715.033466 59.288328 
L 716.817286 59.101247 
L 718.579217 58.914166 
L 720.319792 58.732931 
L 722.03952 58.692007 
L 723.738897 58.627698 
L 725.418397 58.499079 
L 727.078481 58.440617 
L 728.719591 58.323691 
L 730.342158 58.253535 
L 731.946595 57.961221 
L 733.533304 57.861834 
L 735.10267 57.832603 
" style="fill:none;stroke:#2ca02c;stroke-linecap:square;stroke-width:1.5;"/>
   </g>
   <g id="line2d_37">
    <path clip-path="url(#p9a57629e64)" d="M 85.79358 161.644562 
L 185.326487 139.800782 
L 243.549506 126.771159 
L 284.859395 119.473237 
L 316.901835 113.974803 
L 343.082414 110.647972 
L 365.217778 108.048712 
L 384.392303 105.266171 
L 401.305433 103.205647 
L 416.434742 101.333958 
L 430.120868 99.651104 
L 442.615322 98.001573 
L 454.109105 96.813023 
L 464.750686 95.724444 
L 474.657761 94.88024 
L 483.925211 94.374828 
L 492.630642 93.802769 
L 500.83834 92.914133 
L 508.602157 92.33652 
L 515.96765 91.869986 
L 522.973705 91.292373 
L 529.653776 91.003566 
L 536.036855 90.481493 
L 542.14823 89.853894 
L 548.01009 89.076337 
L 553.642013 88.287673 
L 559.061359 87.687844 
L 564.283594 87.076907 
L 569.322554 86.110515 
L 574.190669 85.338513 
L 578.899144 84.888641 
L 583.458119 84.111084 
L 587.876794 83.583457 
L 592.16355 82.755915 
L 596.326033 82.217179 
L 600.371248 81.72843 
L 604.305621 81.1286 
L 608.135065 80.506555 
L 611.865031 79.990036 
L 615.500558 79.329113 
L 619.046309 79.151386 
L 622.506613 78.862579 
L 625.885489 78.162778 
L 629.186684 77.757338 
L 632.413688 77.4241 
L 635.569763 77.129739 
L 638.65796 76.940904 
L 641.681137 76.774285 
L 644.641977 76.568788 
L 647.542997 76.085592 
L 650.386568 75.863433 
L 653.174921 75.491317 
L 655.910158 75.269158 
L 658.594267 75.024783 
L 661.229123 74.630451 
L 663.816502 74.436062 
L 666.358084 74.219457 
L 668.855462 74.136147 
L 671.310148 74.025068 
L 673.723577 73.636289 
L 676.097112 73.003136 
L 678.432052 72.614358 
L 680.729631 72.331106 
L 682.991027 71.842356 
L 685.21736 71.33139 
L 687.409702 70.848195 
L 689.569076 70.537172 
L 691.696457 70.326121 
L 693.792781 69.781832 
L 695.858941 69.692968 
L 697.895793 69.415269 
L 699.904156 69.326406 
L 701.884817 68.948735 
L 703.838529 68.659929 
L 705.766016 68.387784 
L 707.667973 67.915696 
L 709.545067 67.687983 
L 711.397939 67.54358 
L 713.227208 67.4325 
L 715.033466 67.210342 
L 716.817286 67.004845 
L 718.579217 66.67716 
L 720.319792 66.566081 
L 722.03952 66.155086 
L 723.738897 65.888496 
L 725.418397 65.766308 
L 727.078481 65.705215 
L 728.719591 65.477502 
L 730.342158 65.227573 
L 731.946595 65.194249 
L 733.533304 65.044292 
L 735.10267 64.938766 
" style="fill:none;stroke:#e377c2;stroke-linecap:square;stroke-width:1.5;"/>
   </g>
   <g id="line2d_38">
    <path clip-path="url(#p9a57629e64)" d="M 85.79358 185.326707 
L 185.326487 144.38281 
L 243.549506 129.387081 
L 284.859395 119.273294 
L 316.901835 114.224732 
L 343.082414 111.208924 
L 365.217778 109.159507 
L 384.392303 107.701099 
L 401.305433 106.779793 
L 416.434742 105.963032 
L 430.120868 105.394566 
L 442.615322 104.087749 
L 454.109105 102.349682 
L 464.750686 101.389171 
L 474.657761 99.984342 
L 483.925211 99.670706 
L 492.630642 97.808491 
L 500.83834 97.115878 
L 508.602157 96.338322 
L 515.96765 95.946276 
L 522.973705 95.397413 
L 529.653776 93.901107 
L 536.036855 93.639744 
L 542.14823 93.326107 
L 548.01009 92.757642 
L 553.642013 92.41011 
L 559.061359 91.653381 
L 564.283594 90.957283 
L 569.322554 88.691262 
L 574.190669 88.432076 
L 578.899144 89.320712 
L 583.458119 89.138224 
L 587.876794 88.860526 
L 592.16355 88.257523 
L 596.326033 87.717994 
L 600.371248 87.067385 
L 604.305621 86.662739 
L 608.135065 86.583396 
L 611.865031 86.456448 
L 615.500558 85.290114 
L 619.046309 84.385609 
L 622.506613 83.854015 
L 625.885489 83.798475 
L 629.186684 83.544579 
L 632.413688 83.441434 
L 635.569763 83.362091 
L 638.65796 82.901905 
L 641.681137 82.878102 
L 644.641977 82.854299 
L 647.542997 82.751154 
L 650.386568 82.37031 
L 653.174921 81.799044 
L 655.910158 81.386463 
L 658.594267 80.616841 
L 661.229123 81.254633 
L 663.816502 81.21191 
L 666.358084 80.998296 
L 668.855462 80.870127 
L 671.310148 82.054263 
L 673.723577 81.989466 
L 676.097112 81.730281 
L 678.432052 81.341503 
L 680.729631 80.924955 
L 682.991027 80.924955 
L 685.21736 80.749079 
L 687.409702 80.721309 
L 689.569076 80.230708 
L 691.696457 80.230708 
L 693.792781 80.202938 
L 695.858941 80.119628 
L 697.895793 79.925239 
L 699.904156 79.915983 
L 701.884817 79.906726 
L 703.838529 79.777133 
L 705.766016 79.75862 
L 707.667973 78.101685 
L 709.545067 77.777703 
L 711.397939 77.666623 
L 713.227208 77.185279 
L 715.033466 77.166766 
L 716.817286 76.815014 
L 718.579217 76.750218 
L 720.319792 76.639138 
L 722.03952 76.518802 
L 723.738897 76.27813 
L 725.418397 76.148537 
L 727.078481 76.065227 
L 728.719591 75.731989 
L 730.342158 75.694963 
L 731.946595 75.694963 
L 733.533304 75.694963 
L 735.10267 75.657936 
" style="fill:none;stroke:#d62728;stroke-linecap:square;stroke-width:1.5;"/>
   </g>
   <g id="line2d_39">
    <path clip-path="url(#p9a57629e64)" d="M 85.79358 131.803059 
L 185.326487 121.966971 
L 243.549506 113.713766 
L 284.859395 110.087021 
L 316.901835 108.459707 
L 343.082414 106.421398 
L 365.217778 103.400036 
L 384.392303 102.267026 
L 401.305433 100.323135 
L 416.434742 99.173462 
L 430.120868 95.457853 
L 442.615322 94.641419 
L 454.109105 94.208209 
L 464.750686 93.802769 
L 474.657761 93.236264 
L 483.925211 92.669758 
L 492.630642 92.542017 
L 500.83834 91.586733 
L 508.602157 91.242387 
L 515.96765 90.731421 
L 522.973705 90.031621 
L 529.653776 88.226579 
L 536.036855 88.08773 
L 542.14823 86.404876 
L 548.01009 85.810601 
L 553.642013 85.599549 
L 559.061359 85.244095 
L 564.283594 85.099692 
L 569.322554 84.18884 
L 574.190669 83.916695 
L 578.899144 83.561241 
L 583.458119 83.483485 
L 587.876794 83.411284 
L 592.16355 83.139139 
L 596.326033 83.005844 
L 600.371248 82.605957 
L 604.305621 82.42823 
L 608.135065 82.200517 
L 611.865031 82.139424 
L 615.500558 82.07833 
L 619.046309 81.989466 
L 622.506613 81.878387 
L 625.885489 81.733984 
L 629.186684 81.550702 
L 632.413688 80.973089 
L 635.569763 80.573203 
L 638.65796 80.445462 
L 641.681137 80.128885 
L 644.641977 80.112223 
L 647.542997 80.101115 
L 650.386568 80.067791 
L 653.174921 79.99559 
L 655.910158 79.945604 
L 658.594267 79.851186 
L 661.229123 79.745661 
L 663.816502 79.734553 
L 666.358084 79.712337 
L 668.855462 79.623473 
L 671.310148 79.351329 
L 673.723577 79.340221 
L 676.097112 79.318005 
L 678.432052 79.318005 
L 680.729631 79.312451 
L 682.991027 79.268019 
L 685.21736 79.256911 
L 687.409702 78.357167 
L 689.569076 78.284966 
L 691.696457 78.090577 
L 693.792781 78.079469 
L 695.858941 78.035037 
L 697.895793 78.012821 
L 699.904156 77.724014 
L 701.884817 77.590719 
L 703.838529 77.507409 
L 705.766016 77.490747 
L 707.667973 77.412992 
L 709.545067 77.301912 
L 711.397939 77.301912 
L 713.227208 77.301912 
L 715.033466 77.290804 
L 716.817286 77.268588 
L 718.579217 77.263034 
L 720.319792 77.263034 
L 722.03952 77.251927 
L 723.738897 77.251927 
L 725.418397 77.251927 
L 727.078481 77.240819 
L 728.719591 77.007552 
L 730.342158 77.007552 
L 731.946595 76.96312 
L 733.533304 76.868702 
L 735.10267 76.863148 
" style="fill:none;stroke:#ff9896;stroke-linecap:square;stroke-width:1.5;"/>
   </g>
   <g id="line2d_40">
    <path clip-path="url(#p9a57629e64)" d="M 85.79358 131.864153 
L 185.326487 119.862015 
L 243.549506 115.246663 
L 284.859395 112.552985 
L 316.901835 110.498015 
L 343.082414 108.704081 
L 365.217778 107.1934 
L 384.392303 105.521654 
L 401.305433 104.533047 
L 416.434742 103.500008 
L 430.120868 102.522508 
L 442.615322 100.34535 
L 454.109105 99.217894 
L 464.750686 98.929087 
L 474.657761 98.529201 
L 483.925211 97.868278 
L 492.630642 96.596418 
L 500.83834 95.913279 
L 508.602157 95.174601 
L 515.96765 94.241533 
L 522.973705 93.819431 
L 529.653776 92.836378 
L 536.036855 92.319858 
L 542.14823 91.614503 
L 548.01009 91.547856 
L 553.642013 91.38679 
L 559.061359 91.00912 
L 564.283594 90.864717 
L 569.322554 90.825839 
L 574.190669 90.781407 
L 578.899144 90.492601 
L 583.458119 90.464831 
L 587.876794 90.192686 
L 592.16355 90.026067 
L 596.326033 89.987189 
L 600.371248 89.914987 
L 604.305621 89.648397 
L 608.135065 89.354036 
L 611.865031 89.254064 
L 615.500558 89.026351 
L 619.046309 88.920826 
L 622.506613 88.84307 
L 625.885489 88.820854 
L 629.186684 88.731991 
L 632.413688 88.404306 
L 635.569763 88.359875 
L 638.65796 88.209917 
L 641.681137 88.015528 
L 644.641977 87.826693 
L 647.542997 87.760045 
L 650.386568 87.715614 
L 653.174921 87.632304 
L 655.910158 87.482347 
L 658.594267 87.443469 
L 661.229123 87.321281 
L 663.816502 87.271296 
L 666.358084 87.071353 
L 668.855462 87.004705 
L 671.310148 86.799208 
L 673.723577 86.754776 
L 676.097112 86.721452 
L 678.432052 86.693682 
L 680.729631 86.343782 
L 682.991027 86.060529 
L 685.21736 85.955004 
L 687.409702 85.943896 
L 689.569076 85.277419 
L 691.696457 85.277419 
L 693.792781 85.038598 
L 695.858941 84.844209 
L 697.895793 84.716468 
L 699.904156 84.699806 
L 701.884817 84.599834 
L 703.838529 84.577618 
L 705.766016 84.483201 
L 707.667973 84.366567 
L 709.545067 84.366567 
L 711.397939 84.333243 
L 713.227208 84.311028 
L 715.033466 84.238826 
L 716.817286 84.183286 
L 718.579217 84.111084 
L 720.319792 84.027775 
L 722.03952 83.977789 
L 723.738897 83.933357 
L 725.418397 83.83894 
L 727.078481 83.833386 
L 728.719591 83.800062 
L 730.342158 83.70009 
L 731.946595 83.622335 
L 733.533304 83.572349 
L 735.10267 83.494593 
" style="fill:none;stroke:#c5b0d5;stroke-linecap:square;stroke-width:1.5;"/>
   </g>
   <g id="line2d_41">
    <path clip-path="url(#p9a57629e64)" d="M 85.79358 181.777717 
L 185.326487 147.148689 
L 243.549506 128.054127 
L 284.859395 121.083889 
L 316.901835 117.979218 
L 343.082414 116.268594 
L 365.217778 114.713481 
L 384.392303 113.563809 
L 401.305433 111.825415 
L 416.434742 110.970103 
L 430.120868 109.775998 
L 442.615322 109.259479 
L 454.109105 108.765175 
L 464.750686 107.926525 
L 474.657761 107.632164 
L 483.925211 106.904594 
L 492.630642 106.399182 
L 500.83834 105.849339 
L 508.602157 105.421683 
L 515.96765 104.688558 
L 522.973705 103.255633 
L 529.653776 102.772437 
L 536.036855 102.428091 
L 542.14823 102.333673 
L 548.01009 102.022651 
L 553.642013 101.872693 
L 559.061359 100.411998 
L 564.283594 99.234556 
L 569.322554 98.77913 
L 574.190669 98.518093 
L 578.899144 98.145977 
L 583.458119 97.696105 
L 587.876794 97.36604 
L 592.16355 96.452015 
L 596.326033 95.896617 
L 600.371248 95.391206 
L 604.305621 94.802484 
L 608.135065 94.596987 
L 611.865031 94.402598 
L 615.500558 94.263749 
L 619.046309 94.113792 
L 622.506613 94.09713 
L 625.885489 94.01382 
L 629.186684 93.774999 
L 632.413688 93.458423 
L 635.569763 93.347343 
L 638.65796 93.241818 
L 641.681137 93.141846 
L 644.641977 93.008551 
L 647.542997 92.975227 
L 650.386568 92.930795 
L 653.174921 92.747514 
L 655.910158 92.508693 
L 658.594267 92.464261 
L 661.229123 92.28098 
L 663.816502 92.081037 
L 666.358084 91.853324 
L 668.855462 91.775569 
L 671.310148 91.558964 
L 673.723577 91.531194 
L 676.097112 91.44233 
L 678.432052 91.359021 
L 680.729631 91.314589 
L 682.991027 90.748083 
L 685.21736 90.709206 
L 687.409702 90.475939 
L 689.569076 90.437061 
L 691.696457 90.214902 
L 693.792781 90.187132 
L 695.858941 90.076053 
L 697.895793 90.009405 
L 699.904156 89.887217 
L 701.884817 89.703936 
L 703.838529 89.698382 
L 705.766016 89.376252 
L 707.667973 89.137431 
L 709.545067 88.14327 
L 711.397939 88.026636 
L 713.227208 87.971096 
L 715.033466 87.898895 
L 716.817286 87.848909 
L 718.579217 87.743383 
L 720.319792 87.643412 
L 722.03952 87.57121 
L 723.738897 87.460131 
L 725.418397 87.215756 
L 727.078481 87.160216 
L 728.719591 86.971381 
L 730.342158 86.893625 
L 731.946595 86.893625 
L 733.533304 86.876964 
L 735.10267 86.87141 
" style="fill:none;stroke:#dbdb8d;stroke-linecap:square;stroke-width:1.5;"/>
   </g>
   <g id="line2d_42">
    <path clip-path="url(#p9a57629e64)" d="M 85.79358 176.562536 
L 185.326487 147.615223 
L 243.549506 130.625617 
L 284.859395 120.978364 
L 316.901835 115.185569 
L 343.082414 112.819576 
L 365.217778 110.186992 
L 384.392303 108.515246 
L 401.305433 106.999011 
L 416.434742 106.099268 
L 430.120868 105.343927 
L 442.615322 104.721882 
L 454.109105 104.24424 
L 464.750686 103.383374 
L 474.657761 102.317011 
L 483.925211 101.245094 
L 492.630642 100.995165 
L 500.83834 100.550848 
L 508.602157 100.05099 
L 515.96765 99.378959 
L 522.973705 98.951303 
L 529.653776 98.64028 
L 536.036855 98.112653 
L 542.14823 97.740537 
L 548.01009 97.351759 
L 553.642013 96.763037 
L 559.061359 96.518662 
L 564.283594 96.324273 
L 569.322554 96.163208 
L 574.190669 95.935495 
L 578.899144 95.524501 
L 583.458119 95.42453 
L 587.876794 95.330112 
L 592.16355 95.052413 
L 596.326033 94.891348 
L 600.371248 94.508124 
L 604.305621 94.036036 
L 608.135065 93.797215 
L 611.865031 93.641704 
L 615.500558 93.55284 
L 619.046309 93.436207 
L 622.506613 93.325127 
L 625.885489 93.25848 
L 629.186684 93.075199 
L 632.413688 92.958565 
L 635.569763 92.830824 
L 638.65796 92.708636 
L 641.681137 92.630881 
L 644.641977 92.403168 
L 647.542997 92.247656 
L 650.386568 92.036605 
L 653.174921 91.781123 
L 655.910158 91.564518 
L 658.594267 91.436776 
L 661.229123 91.170185 
L 663.816502 90.98135 
L 666.358084 91.343528 
L 668.855462 91.133061 
L 671.310148 90.834901 
L 673.723577 90.776438 
L 676.097112 90.624434 
L 678.432052 90.589357 
L 680.729631 90.474704 
L 682.991027 90.320427 
L 685.21736 90.246374 
L 687.409702 90.110611 
L 689.569076 89.758859 
L 691.696457 89.70949 
L 693.792781 89.690977 
L 695.858941 89.573726 
L 697.895793 89.339225 
L 699.904156 89.271343 
L 701.884817 89.039746 
L 703.838529 88.924991 
L 705.766016 88.869452 
L 707.667973 88.730602 
L 709.545067 88.817152 
L 711.397939 88.794936 
L 713.227208 88.908131 
L 715.033466 89.013107 
L 716.817286 88.996018 
L 718.579217 88.944751 
L 720.319792 89.200376 
L 722.03952 89.482282 
L 723.738897 89.487331 
L 725.418397 89.370081 
L 727.078481 88.827026 
L 728.719591 88.629551 
L 730.342158 88.604867 
L 731.946595 88.407392 
L 733.533304 88.407392 
L 735.10267 88.81292 
" style="fill:none;stroke:#98df8a;stroke-linecap:square;stroke-width:1.5;"/>
   </g>
   <g id="line2d_43"/>
   <g id="line2d_44"/>
   <g id="line2d_45"/>
   <g id="line2d_46"/>
   <g id="line2d_47"/>
   <g id="line2d_48"/>
   <g id="line2d_49"/>
   <g id="line2d_50"/>
   <g id="line2d_51"/>
   <g id="line2d_52"/>
   <g id="line2d_53">
    <path clip-path="url(#p9a57629e64)" d="M 735.10267 288.430125 
L 735.10267 22.318125 
" style="fill:none;stroke:#ff0000;stroke-linecap:square;stroke-width:1.5;"/>
   </g>
   <g id="patch_3">
    <path d="M 53.328125 239.166931 
L 53.328125 72.547711 
" style="fill:none;stroke:#000000;stroke-linecap:square;stroke-linejoin:miter;stroke-width:0.8;"/>
   </g>
   <g id="patch_4">
    <path d="M 85.79358 288.430125 
L 735.104405 288.430125 
" style="fill:none;stroke:#000000;stroke-linecap:square;stroke-linejoin:miter;stroke-width:0.8;"/>
   </g>
   <g id="text_19">
    <!-- harfbuzz-1.3.2 (23h, 7 trials/fuzzer) -->
    <g transform="translate(304.1375 16.318125)scale(0.12 -0.12)">
     <defs>
      <path d="M 37.109375 75.984375 
L 37.109375 68.5 
L 28.515625 68.5 
Q 23.6875 68.5 21.796875 66.546875 
Q 19.921875 64.59375 19.921875 59.515625 
L 19.921875 54.6875 
L 34.71875 54.6875 
L 34.71875 47.703125 
L 19.921875 47.703125 
L 19.921875 0 
L 10.890625 0 
L 10.890625 47.703125 
L 2.296875 47.703125 
L 2.296875 54.6875 
L 10.890625 54.6875 
L 10.890625 58.5 
Q 10.890625 67.625 15.140625 71.796875 
Q 19.390625 75.984375 28.609375 75.984375 
z
" id="DejaVuSans-102"/>
      <path d="M 48.6875 27.296875 
Q 48.6875 37.203125 44.609375 42.84375 
Q 40.53125 48.484375 33.40625 48.484375 
Q 26.265625 48.484375 22.1875 42.84375 
Q 18.109375 37.203125 18.109375 27.296875 
Q 18.109375 17.390625 22.1875 11.75 
Q 26.265625 6.109375 33.40625 6.109375 
Q 40.53125 6.109375 44.609375 11.75 
Q 48.6875 17.390625 48.6875 27.296875 
z
M 18.109375 46.390625 
Q 20.953125 51.265625 25.265625 53.625 
Q 29.59375 56 35.59375 56 
Q 45.5625 56 51.78125 48.09375 
Q 58.015625 40.1875 58.015625 27.296875 
Q 58.015625 14.40625 51.78125 6.484375 
Q 45.5625 -1.421875 35.59375 -1.421875 
Q 29.59375 -1.421875 25.265625 0.953125 
Q 20.953125 3.328125 18.109375 8.203125 
L 18.109375 0 
L 9.078125 0 
L 9.078125 75.984375 
L 18.109375 75.984375 
z
" id="DejaVuSans-98"/>
      <path d="M 5.515625 54.6875 
L 48.1875 54.6875 
L 48.1875 46.484375 
L 14.40625 7.171875 
L 48.1875 7.171875 
L 48.1875 0 
L 4.296875 0 
L 4.296875 8.203125 
L 38.09375 47.515625 
L 5.515625 47.515625 
z
" id="DejaVuSans-122"/>
      <path d="M 4.890625 31.390625 
L 31.203125 31.390625 
L 31.203125 23.390625 
L 4.890625 23.390625 
z
" id="DejaVuSans-45"/>
      <path d="M 10.6875 12.40625 
L 21 12.40625 
L 21 0 
L 10.6875 0 
z
" id="DejaVuSans-46"/>
      <path d="M 11.71875 12.40625 
L 22.015625 12.40625 
L 22.015625 4 
L 14.015625 -11.625 
L 7.71875 -11.625 
L 11.71875 4 
z
" id="DejaVuSans-44"/>
      <path d="M 9.421875 75.984375 
L 18.40625 75.984375 
L 18.40625 0 
L 9.421875 0 
z
" id="DejaVuSans-108"/>
      <path d="M 44.28125 53.078125 
L 44.28125 44.578125 
Q 40.484375 46.53125 36.375 47.5 
Q 32.28125 48.484375 27.875 48.484375 
Q 21.1875 48.484375 17.84375 46.4375 
Q 14.5 44.390625 14.5 40.28125 
Q 14.5 37.15625 16.890625 35.375 
Q 19.28125 33.59375 26.515625 31.984375 
L 29.59375 31.296875 
Q 39.15625 29.25 43.1875 25.515625 
Q 47.21875 21.78125 47.21875 15.09375 
Q 47.21875 7.46875 41.1875 3.015625 
Q 35.15625 -1.421875 24.609375 -1.421875 
Q 20.21875 -1.421875 15.453125 -0.5625 
Q 10.6875 0.296875 5.421875 2 
L 5.421875 11.28125 
Q 10.40625 8.6875 15.234375 7.390625 
Q 20.0625 6.109375 24.8125 6.109375 
Q 31.15625 6.109375 34.5625 8.28125 
Q 37.984375 10.453125 37.984375 14.40625 
Q 37.984375 18.0625 35.515625 20.015625 
Q 33.0625 21.96875 24.703125 23.78125 
L 21.578125 24.515625 
Q 13.234375 26.265625 9.515625 29.90625 
Q 5.8125 33.546875 5.8125 39.890625 
Q 5.8125 47.609375 11.28125 51.796875 
Q 16.75 56 26.8125 56 
Q 31.78125 56 36.171875 55.265625 
Q 40.578125 54.546875 44.28125 53.078125 
z
" id="DejaVuSans-115"/>
      <path d="M 25.390625 72.90625 
L 33.6875 72.90625 
L 8.296875 -9.28125 
L 0 -9.28125 
z
" id="DejaVuSans-47"/>
     </defs>
     <use xlink:href="#DejaVuSans-104"/>
     <use x="63.378906" xlink:href="#DejaVuSans-97"/>
     <use x="124.658203" xlink:href="#DejaVuSans-114"/>
     <use x="165.771484" xlink:href="#DejaVuSans-102"/>
     <use x="200.976562" xlink:href="#DejaVuSans-98"/>
     <use x="264.453125" xlink:href="#DejaVuSans-117"/>
     <use x="327.832031" xlink:href="#DejaVuSans-122"/>
     <use x="380.322266" xlink:href="#DejaVuSans-122"/>
     <use x="432.8125" xlink:href="#DejaVuSans-45"/>
     <use x="468.896484" xlink:href="#DejaVuSans-49"/>
     <use x="532.519531" xlink:href="#DejaVuSans-46"/>
     <use x="564.306641" xlink:href="#DejaVuSans-51"/>
     <use x="627.929688" xlink:href="#DejaVuSans-46"/>
     <use x="659.716797" xlink:href="#DejaVuSans-50"/>
     <use x="723.339844" xlink:href="#DejaVuSans-32"/>
     <use x="755.126953" xlink:href="#DejaVuSans-40"/>
     <use x="794.140625" xlink:href="#DejaVuSans-50"/>
     <use x="857.763672" xlink:href="#DejaVuSans-51"/>
     <use x="921.386719" xlink:href="#DejaVuSans-104"/>
     <use x="984.765625" xlink:href="#DejaVuSans-44"/>
     <use x="1016.552734" xlink:href="#DejaVuSans-32"/>
     <use x="1048.339844" xlink:href="#DejaVuSans-55"/>
     <use x="1111.962891" xlink:href="#DejaVuSans-32"/>
     <use x="1143.75" xlink:href="#DejaVuSans-116"/>
     <use x="1182.958984" xlink:href="#DejaVuSans-114"/>
     <use x="1224.072266" xlink:href="#DejaVuSans-105"/>
     <use x="1251.855469" xlink:href="#DejaVuSans-97"/>
     <use x="1313.134766" xlink:href="#DejaVuSans-108"/>
     <use x="1340.917969" xlink:href="#DejaVuSans-115"/>
     <use x="1393.017578" xlink:href="#DejaVuSans-47"/>
     <use x="1426.708984" xlink:href="#DejaVuSans-102"/>
     <use x="1461.914062" xlink:href="#DejaVuSans-117"/>
     <use x="1525.292969" xlink:href="#DejaVuSans-122"/>
     <use x="1577.783203" xlink:href="#DejaVuSans-122"/>
     <use x="1630.273438" xlink:href="#DejaVuSans-101"/>
     <use x="1691.796875" xlink:href="#DejaVuSans-114"/>
     <use x="1732.910156" xlink:href="#DejaVuSans-41"/>
    </g>
   </g>
   <g id="legend_1">
    <g id="line2d_54">
     <path d="M 771.568125 30.416562 
L 791.568125 30.416562 
" style="fill:none;"/>
    </g>
    <g id="line2d_55"/>
    <g id="text_20">
     <!-- fuzzer -->
     <g transform="translate(799.568125 33.916562)scale(0.1 -0.1)">
      <use xlink:href="#DejaVuSans-102"/>
      <use x="35.205078" xlink:href="#DejaVuSans-117"/>
      <use x="98.583984" xlink:href="#DejaVuSans-122"/>
      <use x="151.074219" xlink:href="#DejaVuSans-122"/>
      <use x="203.564453" xlink:href="#DejaVuSans-101"/>
      <use x="265.087891" xlink:href="#DejaVuSans-114"/>
     </g>
    </g>
    <g id="line2d_56">
     <path d="M 771.568125 45.094688 
L 791.568125 45.094688 
" style="fill:none;stroke:#1f77b4;stroke-linecap:square;stroke-width:1.5;"/>
    </g>
    <g id="line2d_57"/>
    <g id="text_21">
     <!-- aflplusplus -->
     <g transform="translate(799.568125 48.594688)scale(0.1 -0.1)">
      <defs>
       <path d="M 18.109375 8.203125 
L 18.109375 -20.796875 
L 9.078125 -20.796875 
L 9.078125 54.6875 
L 18.109375 54.6875 
L 18.109375 46.390625 
Q 20.953125 51.265625 25.265625 53.625 
Q 29.59375 56 35.59375 56 
Q 45.5625 56 51.78125 48.09375 
Q 58.015625 40.1875 58.015625 27.296875 
Q 58.015625 14.40625 51.78125 6.484375 
Q 45.5625 -1.421875 35.59375 -1.421875 
Q 29.59375 -1.421875 25.265625 0.953125 
Q 20.953125 3.328125 18.109375 8.203125 
z
M 48.6875 27.296875 
Q 48.6875 37.203125 44.609375 42.84375 
Q 40.53125 48.484375 33.40625 48.484375 
Q 26.265625 48.484375 22.1875 42.84375 
Q 18.109375 37.203125 18.109375 27.296875 
Q 18.109375 17.390625 22.1875 11.75 
Q 26.265625 6.109375 33.40625 6.109375 
Q 40.53125 6.109375 44.609375 11.75 
Q 48.6875 17.390625 48.6875 27.296875 
z
" id="DejaVuSans-112"/>
      </defs>
      <use xlink:href="#DejaVuSans-97"/>
      <use x="61.279297" xlink:href="#DejaVuSans-102"/>
      <use x="96.484375" xlink:href="#DejaVuSans-108"/>
      <use x="124.267578" xlink:href="#DejaVuSans-112"/>
      <use x="187.744141" xlink:href="#DejaVuSans-108"/>
      <use x="215.527344" xlink:href="#DejaVuSans-117"/>
      <use x="278.90625" xlink:href="#DejaVuSans-115"/>
      <use x="331.005859" xlink:href="#DejaVuSans-112"/>
      <use x="394.482422" xlink:href="#DejaVuSans-108"/>
      <use x="422.265625" xlink:href="#DejaVuSans-117"/>
      <use x="485.644531" xlink:href="#DejaVuSans-115"/>
     </g>
    </g>
    <g id="line2d_58">
     <path d="M 771.568125 59.772812 
L 791.568125 59.772812 
" style="fill:none;stroke:#ff7f0e;stroke-linecap:square;stroke-width:1.5;"/>
    </g>
    <g id="line2d_59"/>
    <g id="text_22">
     <!-- entropic -->
     <g transform="translate(799.568125 63.272812)scale(0.1 -0.1)">
      <use xlink:href="#DejaVuSans-101"/>
      <use x="61.523438" xlink:href="#DejaVuSans-110"/>
      <use x="124.902344" xlink:href="#DejaVuSans-116"/>
      <use x="164.111328" xlink:href="#DejaVuSans-114"/>
      <use x="202.974609" xlink:href="#DejaVuSans-111"/>
      <use x="264.15625" xlink:href="#DejaVuSans-112"/>
      <use x="327.632812" xlink:href="#DejaVuSans-105"/>
      <use x="355.416016" xlink:href="#DejaVuSans-99"/>
     </g>
    </g>
    <g id="line2d_60">
     <path d="M 771.568125 74.450938 
L 791.568125 74.450938 
" style="fill:none;stroke:#2ca02c;stroke-linecap:square;stroke-width:1.5;"/>
    </g>
    <g id="line2d_61"/>
    <g id="text_23">
     <!-- libfuzzer -->
     <g transform="translate(799.568125 77.950938)scale(0.1 -0.1)">
      <use xlink:href="#DejaVuSans-108"/>
      <use x="27.783203" xlink:href="#DejaVuSans-105"/>
      <use x="55.566406" xlink:href="#DejaVuSans-98"/>
      <use x="119.042969" xlink:href="#DejaVuSans-102"/>
      <use x="154.248047" xlink:href="#DejaVuSans-117"/>
      <use x="217.626953" xlink:href="#DejaVuSans-122"/>
      <use x="270.117188" xlink:href="#DejaVuSans-122"/>
      <use x="322.607422" xlink:href="#DejaVuSans-101"/>
      <use x="384.130859" xlink:href="#DejaVuSans-114"/>
     </g>
    </g>
    <g id="line2d_62">
     <path d="M 771.568125 89.129063 
L 791.568125 89.129063 
" style="fill:none;stroke:#e377c2;stroke-linecap:square;stroke-width:1.5;"/>
    </g>
    <g id="line2d_63"/>
    <g id="text_24">
     <!-- honggfuzz -->
     <g transform="translate(799.568125 92.629063)scale(0.1 -0.1)">
      <use xlink:href="#DejaVuSans-104"/>
      <use x="63.378906" xlink:href="#DejaVuSans-111"/>
      <use x="124.560547" xlink:href="#DejaVuSans-110"/>
      <use x="187.939453" xlink:href="#DejaVuSans-103"/>
      <use x="251.416016" xlink:href="#DejaVuSans-103"/>
      <use x="314.892578" xlink:href="#DejaVuSans-102"/>
      <use x="350.097656" xlink:href="#DejaVuSans-117"/>
      <use x="413.476562" xlink:href="#DejaVuSans-122"/>
      <use x="465.966797" xlink:href="#DejaVuSans-122"/>
     </g>
    </g>
    <g id="line2d_64">
     <path d="M 771.568125 103.807187 
L 791.568125 103.807187 
" style="fill:none;stroke:#d62728;stroke-linecap:square;stroke-width:1.5;"/>
    </g>
    <g id="line2d_65"/>
    <g id="text_25">
     <!-- aflplusplus_qemu -->
     <g transform="translate(799.568125 107.307187)scale(0.1 -0.1)">
      <defs>
       <path d="M 50.984375 -16.609375 
L 50.984375 -23.578125 
L -0.984375 -23.578125 
L -0.984375 -16.609375 
z
" id="DejaVuSans-95"/>
       <path d="M 14.796875 27.296875 
Q 14.796875 17.390625 18.875 11.75 
Q 22.953125 6.109375 30.078125 6.109375 
Q 37.203125 6.109375 41.296875 11.75 
Q 45.40625 17.390625 45.40625 27.296875 
Q 45.40625 37.203125 41.296875 42.84375 
Q 37.203125 48.484375 30.078125 48.484375 
Q 22.953125 48.484375 18.875 42.84375 
Q 14.796875 37.203125 14.796875 27.296875 
z
M 45.40625 8.203125 
Q 42.578125 3.328125 38.25 0.953125 
Q 33.9375 -1.421875 27.875 -1.421875 
Q 17.96875 -1.421875 11.734375 6.484375 
Q 5.515625 14.40625 5.515625 27.296875 
Q 5.515625 40.1875 11.734375 48.09375 
Q 17.96875 56 27.875 56 
Q 33.9375 56 38.25 53.625 
Q 42.578125 51.265625 45.40625 46.390625 
L 45.40625 54.6875 
L 54.390625 54.6875 
L 54.390625 -20.796875 
L 45.40625 -20.796875 
z
" id="DejaVuSans-113"/>
      </defs>
      <use xlink:href="#DejaVuSans-97"/>
      <use x="61.279297" xlink:href="#DejaVuSans-102"/>
      <use x="96.484375" xlink:href="#DejaVuSans-108"/>
      <use x="124.267578" xlink:href="#DejaVuSans-112"/>
      <use x="187.744141" xlink:href="#DejaVuSans-108"/>
      <use x="215.527344" xlink:href="#DejaVuSans-117"/>
      <use x="278.90625" xlink:href="#DejaVuSans-115"/>
      <use x="331.005859" xlink:href="#DejaVuSans-112"/>
      <use x="394.482422" xlink:href="#DejaVuSans-108"/>
      <use x="422.265625" xlink:href="#DejaVuSans-117"/>
      <use x="485.644531" xlink:href="#DejaVuSans-115"/>
      <use x="537.744141" xlink:href="#DejaVuSans-95"/>
      <use x="587.744141" xlink:href="#DejaVuSans-113"/>
      <use x="651.220703" xlink:href="#DejaVuSans-101"/>
      <use x="712.744141" xlink:href="#DejaVuSans-109"/>
      <use x="810.15625" xlink:href="#DejaVuSans-117"/>
     </g>
    </g>
    <g id="line2d_66">
     <path d="M 771.568125 118.763438 
L 791.568125 118.763438 
" style="fill:none;stroke:#ff9896;stroke-linecap:square;stroke-width:1.5;"/>
    </g>
    <g id="line2d_67"/>
    <g id="text_26">
     <!-- fairfuzz -->
     <g transform="translate(799.568125 122.263438)scale(0.1 -0.1)">
      <use xlink:href="#DejaVuSans-102"/>
      <use x="35.205078" xlink:href="#DejaVuSans-97"/>
      <use x="96.484375" xlink:href="#DejaVuSans-105"/>
      <use x="124.267578" xlink:href="#DejaVuSans-114"/>
      <use x="165.380859" xlink:href="#DejaVuSans-102"/>
      <use x="200.585938" xlink:href="#DejaVuSans-117"/>
      <use x="263.964844" xlink:href="#DejaVuSans-122"/>
      <use x="316.455078" xlink:href="#DejaVuSans-122"/>
     </g>
    </g>
    <g id="line2d_68">
     <path d="M 771.568125 133.441563 
L 791.568125 133.441563 
" style="fill:none;stroke:#c5b0d5;stroke-linecap:square;stroke-width:1.5;"/>
    </g>
    <g id="line2d_69"/>
    <g id="text_27">
     <!-- mopt -->
     <g transform="translate(799.568125 136.941563)scale(0.1 -0.1)">
      <use xlink:href="#DejaVuSans-109"/>
      <use x="97.412109" xlink:href="#DejaVuSans-111"/>
      <use x="158.59375" xlink:href="#DejaVuSans-112"/>
      <use x="222.070312" xlink:href="#DejaVuSans-116"/>
     </g>
    </g>
    <g id="line2d_70">
     <path d="M 771.568125 148.119687 
L 791.568125 148.119687 
" style="fill:none;stroke:#dbdb8d;stroke-linecap:square;stroke-width:1.5;"/>
    </g>
    <g id="line2d_71"/>
    <g id="text_28">
     <!-- lafintel -->
     <g transform="translate(799.568125 151.619687)scale(0.1 -0.1)">
      <use xlink:href="#DejaVuSans-108"/>
      <use x="27.783203" xlink:href="#DejaVuSans-97"/>
      <use x="89.0625" xlink:href="#DejaVuSans-102"/>
      <use x="124.267578" xlink:href="#DejaVuSans-105"/>
      <use x="152.050781" xlink:href="#DejaVuSans-110"/>
      <use x="215.429688" xlink:href="#DejaVuSans-116"/>
      <use x="254.638672" xlink:href="#DejaVuSans-101"/>
      <use x="316.162109" xlink:href="#DejaVuSans-108"/>
     </g>
    </g>
    <g id="line2d_72">
     <path d="M 771.568125 162.797812 
L 791.568125 162.797812 
" style="fill:none;stroke:#98df8a;stroke-linecap:square;stroke-width:1.5;"/>
    </g>
    <g id="line2d_73"/>
    <g id="text_29">
     <!-- aflplusplus_flat -->
     <g transform="translate(799.568125 166.297812)scale(0.1 -0.1)">
      <use xlink:href="#DejaVuSans-97"/>
      <use x="61.279297" xlink:href="#DejaVuSans-102"/>
      <use x="96.484375" xlink:href="#DejaVuSans-108"/>
      <use x="124.267578" xlink:href="#DejaVuSans-112"/>
      <use x="187.744141" xlink:href="#DejaVuSans-108"/>
      <use x="215.527344" xlink:href="#DejaVuSans-117"/>
      <use x="278.90625" xlink:href="#DejaVuSans-115"/>
      <use x="331.005859" xlink:href="#DejaVuSans-112"/>
      <use x="394.482422" xlink:href="#DejaVuSans-108"/>
      <use x="422.265625" xlink:href="#DejaVuSans-117"/>
      <use x="485.644531" xlink:href="#DejaVuSans-115"/>
      <use x="537.744141" xlink:href="#DejaVuSans-95"/>
      <use x="587.744141" xlink:href="#DejaVuSans-102"/>
      <use x="622.949219" xlink:href="#DejaVuSans-108"/>
      <use x="650.732422" xlink:href="#DejaVuSans-97"/>
      <use x="712.011719" xlink:href="#DejaVuSans-116"/>
     </g>
    </g>
   </g>
  </g>
 </g>
 <defs>
  <clipPath id="p9a57629e64">
   <rect height="266.112" width="714.24" x="53.328125" y="22.318125"/>
  </clipPath>
 </defs>
</svg>
