<?xml version="1.0" encoding="utf-8" standalone="no"?>
<!DOCTYPE svg PUBLIC "-//W3C//DTD SVG 1.1//EN"
  "http://www.w3.org/Graphics/SVG/1.1/DTD/svg11.dtd">
<!-- Created with matplotlib (https://matplotlib.org/) -->
<svg height="368.607178pt" version="1.1" viewBox="0 0 417.648125 368.607178" width="417.648125pt" xmlns="http://www.w3.org/2000/svg" xmlns:xlink="http://www.w3.org/1999/xlink">
 <metadata>
  <rdf:RDF xmlns:cc="http://creativecommons.org/ns#" xmlns:dc="http://purl.org/dc/elements/1.1/" xmlns:rdf="http://www.w3.org/1999/02/22-rdf-syntax-ns#">
   <cc:Work>
    <dc:type rdf:resource="http://purl.org/dc/dcmitype/StillImage"/>
    <dc:date>2020-12-06T10:28:52.556303</dc:date>
    <dc:format>image/svg+xml</dc:format>
    <dc:creator>
     <cc:Agent>
      <dc:title>Matplotlib v3.3.3, https://matplotlib.org/</dc:title>
     </cc:Agent>
    </dc:creator>
   </cc:Work>
  </rdf:RDF>
 </metadata>
 <defs>
  <style type="text/css">*{stroke-linecap:butt;stroke-linejoin:round;}</style>
 </defs>
 <g id="figure_1">
  <g id="patch_1">
   <path d="M 0 368.607178 
L 417.648125 368.607178 
L 417.648125 0 
L 0 0 
z
" style="fill:#ffffff;"/>
  </g>
  <g id="axes_1">
   <g id="patch_2">
    <path d="M 53.328125 288.430125 
L 410.448125 288.430125 
L 410.448125 22.318125 
L 53.328125 22.318125 
z
" style="fill:#ffffff;"/>
   </g>
   <g id="PolyCollection_1">
    <defs>
     <path d="M 73.230845 -172.731217 
L 73.105405 -172.731217 
L 73.088942 -174.012887 
L 73.06959 -175.294556 
L 73.047261 -176.576226 
L 73.021993 -177.857895 
L 72.993968 -179.139565 
L 72.96353 -180.421235 
L 72.931198 -181.702904 
L 72.89766 -182.984574 
L 72.863751 -184.266244 
L 72.830428 -185.547913 
L 72.798714 -186.829583 
L 72.769645 -188.111253 
L 72.744197 -189.392922 
L 72.723216 -190.674592 
L 72.70735 -191.956261 
L 72.696984 -193.237931 
L 72.692199 -194.519601 
L 72.692737 -195.80127 
L 72.698003 -197.08294 
L 72.707076 -198.36461 
L 72.718753 -199.646279 
L 72.731612 -200.927949 
L 72.744086 -202.209619 
L 72.754557 -203.491288 
L 72.761451 -204.772958 
L 72.763328 -206.054627 
L 72.758979 -207.336297 
L 72.747495 -208.617967 
L 72.728331 -209.899636 
L 72.701337 -211.181306 
L 72.666778 -212.462976 
L 72.625311 -213.744645 
L 72.577944 -215.026315 
L 72.525964 -216.307985 
L 72.470834 -217.589654 
L 72.414076 -218.871324 
L 72.357133 -220.152993 
L 72.301218 -221.434663 
L 72.247176 -222.716333 
L 72.195348 -223.998002 
L 72.145463 -225.279672 
L 72.096565 -226.561342 
L 72.046981 -227.843011 
L 71.99434 -229.124681 
L 71.935653 -230.406351 
L 71.867435 -231.68802 
L 71.785886 -232.96969 
L 71.687114 -234.251359 
L 71.567377 -235.533029 
L 71.423353 -236.814699 
L 71.252396 -238.096368 
L 71.052779 -239.378038 
L 70.823898 -240.659708 
L 70.566428 -241.941377 
L 70.282413 -243.223047 
L 69.975292 -244.504717 
L 69.649844 -245.786386 
L 69.312068 -247.068056 
L 68.96899 -248.349725 
L 68.628409 -249.631395 
L 68.298605 -250.913065 
L 67.988002 -252.194734 
L 67.704825 -253.476404 
L 67.456759 -254.758074 
L 67.25062 -256.039743 
L 67.092071 -257.321413 
L 66.985391 -258.603083 
L 66.933307 -259.884752 
L 66.936905 -261.166422 
L 66.99562 -262.448091 
L 67.107306 -263.729761 
L 67.268384 -265.011431 
L 67.474047 -266.2931 
L 67.718521 -267.57477 
L 67.995356 -268.85644 
L 68.297719 -270.138109 
L 68.618686 -271.419779 
L 68.951507 -272.701449 
L 69.289827 -273.983118 
L 69.627859 -275.264788 
L 69.960503 -276.546457 
L 70.283415 -277.828127 
L 70.593026 -279.109797 
L 70.886523 -280.391466 
L 71.161806 -281.673136 
L 71.417418 -282.954806 
L 71.652475 -284.236475 
L 71.866589 -285.518145 
L 72.059798 -286.799814 
L 72.232495 -288.081484 
L 72.385374 -289.363154 
L 72.519373 -290.644823 
L 72.635629 -291.926493 
L 72.735426 -293.208163 
L 72.820161 -294.489832 
L 72.891293 -295.771502 
L 72.950309 -297.053172 
L 72.998682 -298.334841 
L 73.037841 -299.616511 
L 73.298409 -299.616511 
L 73.298409 -299.616511 
L 73.337568 -298.334841 
L 73.385941 -297.053172 
L 73.444957 -295.771502 
L 73.516089 -294.489832 
L 73.600824 -293.208163 
L 73.700621 -291.926493 
L 73.816877 -290.644823 
L 73.950876 -289.363154 
L 74.103755 -288.081484 
L 74.276452 -286.799814 
L 74.469661 -285.518145 
L 74.683775 -284.236475 
L 74.918832 -282.954806 
L 75.174444 -281.673136 
L 75.449727 -280.391466 
L 75.743224 -279.109797 
L 76.052835 -277.828127 
L 76.375747 -276.546457 
L 76.708391 -275.264788 
L 77.046423 -273.983118 
L 77.384743 -272.701449 
L 77.717564 -271.419779 
L 78.038531 -270.138109 
L 78.340894 -268.85644 
L 78.617729 -267.57477 
L 78.862203 -266.2931 
L 79.067866 -265.011431 
L 79.228944 -263.729761 
L 79.34063 -262.448091 
L 79.399345 -261.166422 
L 79.402943 -259.884752 
L 79.350859 -258.603083 
L 79.244179 -257.321413 
L 79.08563 -256.039743 
L 78.879491 -254.758074 
L 78.631425 -253.476404 
L 78.348248 -252.194734 
L 78.037645 -250.913065 
L 77.707841 -249.631395 
L 77.36726 -248.349725 
L 77.024182 -247.068056 
L 76.686406 -245.786386 
L 76.360958 -244.504717 
L 76.053837 -243.223047 
L 75.769822 -241.941377 
L 75.512352 -240.659708 
L 75.283471 -239.378038 
L 75.083854 -238.096368 
L 74.912897 -236.814699 
L 74.768873 -235.533029 
L 74.649136 -234.251359 
L 74.550364 -232.96969 
L 74.468815 -231.68802 
L 74.400597 -230.406351 
L 74.34191 -229.124681 
L 74.289269 -227.843011 
L 74.239685 -226.561342 
L 74.190787 -225.279672 
L 74.140902 -223.998002 
L 74.089074 -222.716333 
L 74.035032 -221.434663 
L 73.979117 -220.152993 
L 73.922174 -218.871324 
L 73.865416 -217.589654 
L 73.810286 -216.307985 
L 73.758306 -215.026315 
L 73.710939 -213.744645 
L 73.669472 -212.462976 
L 73.634913 -211.181306 
L 73.607919 -209.899636 
L 73.588755 -208.617967 
L 73.577271 -207.336297 
L 73.572922 -206.054627 
L 73.574799 -204.772958 
L 73.581693 -203.491288 
L 73.592164 -202.209619 
L 73.604638 -200.927949 
L 73.617497 -199.646279 
L 73.629174 -198.36461 
L 73.638247 -197.08294 
L 73.643513 -195.80127 
L 73.644051 -194.519601 
L 73.639266 -193.237931 
L 73.6289 -191.956261 
L 73.613034 -190.674592 
L 73.592053 -189.392922 
L 73.566605 -188.111253 
L 73.537536 -186.829583 
L 73.505822 -185.547913 
L 73.472499 -184.266244 
L 73.43859 -182.984574 
L 73.405052 -181.702904 
L 73.37272 -180.421235 
L 73.342282 -179.139565 
L 73.314257 -177.857895 
L 73.288989 -176.576226 
L 73.26666 -175.294556 
L 73.247308 -174.012887 
L 73.230845 -172.731217 
z
" id="m7c20296be3" style="stroke:#3d3d3d;stroke-width:1.5;"/>
    </defs>
    <g clip-path="url(#pb5fcccb60b)">
     <use style="fill:#3274a1;stroke:#3d3d3d;stroke-width:1.5;" x="0" xlink:href="#m7c20296be3" y="368.607178"/>
    </g>
   </g>
   <g id="PolyCollection_2">
    <defs>
     <path d="M 113.262931 -205.591602 
L 112.433319 -205.591602 
L 112.321754 -206.890607 
L 112.187297 -208.189611 
L 112.027312 -209.488616 
L 111.839408 -210.78762 
L 111.621609 -212.086625 
L 111.372532 -213.385629 
L 111.091578 -214.684634 
L 110.779109 -215.983639 
L 110.436614 -217.282643 
L 110.06683 -218.581648 
L 109.673819 -219.880652 
L 109.262992 -221.179657 
L 108.841044 -222.478661 
L 108.415829 -223.777666 
L 107.996151 -225.07667 
L 107.591476 -226.375675 
L 107.211599 -227.67468 
L 106.866247 -228.973684 
L 106.564673 -230.272689 
L 106.315243 -231.571693 
L 106.125046 -232.870698 
L 105.999569 -234.169702 
L 105.942425 -235.468707 
L 105.955187 -236.767711 
L 106.037314 -238.066716 
L 106.18619 -239.365721 
L 106.397261 -240.664725 
L 106.664263 -241.96373 
L 106.979531 -243.262734 
L 107.334365 -244.561739 
L 107.719417 -245.860743 
L 108.125096 -247.159748 
L 108.541954 -248.458752 
L 108.961034 -249.757757 
L 109.374159 -251.056762 
L 109.774168 -252.355766 
L 110.15507 -253.654771 
L 110.512127 -254.953775 
L 110.841876 -256.25278 
L 111.142078 -257.551784 
L 111.411627 -258.850789 
L 111.650415 -260.149793 
L 111.859174 -261.448798 
L 112.039304 -262.747803 
L 112.192699 -264.046807 
L 112.321586 -265.345812 
L 112.428365 -266.644816 
L 112.515488 -267.943821 
L 112.585346 -269.242825 
L 112.640182 -270.54183 
L 112.682041 -271.840834 
L 112.71272 -273.139839 
L 112.733756 -274.438843 
L 112.746425 -275.737848 
L 112.751749 -277.036853 
L 112.750525 -278.335857 
L 112.743353 -279.634862 
L 112.730679 -280.933866 
L 112.71283 -282.232871 
L 112.690067 -283.531875 
L 112.662619 -284.83088 
L 112.630734 -286.129884 
L 112.594711 -287.428889 
L 112.554935 -288.727894 
L 112.511904 -290.026898 
L 112.466242 -291.325903 
L 112.418708 -292.624907 
L 112.370194 -293.923912 
L 112.321708 -295.222916 
L 112.274347 -296.521921 
L 112.229269 -297.820925 
L 112.187645 -299.11993 
L 112.150612 -300.418935 
L 112.119228 -301.717939 
L 112.094419 -303.016944 
L 112.076937 -304.315948 
L 112.067321 -305.614953 
L 112.06587 -306.913957 
L 112.072632 -308.212962 
L 112.087394 -309.511966 
L 112.109701 -310.810971 
L 112.138874 -312.109976 
L 112.174045 -313.40898 
L 112.214202 -314.707985 
L 112.258234 -316.006989 
L 112.304985 -317.305994 
L 112.3533 -318.604998 
L 112.402072 -319.904003 
L 112.450284 -321.203007 
L 112.497038 -322.502012 
L 112.54158 -323.801017 
L 112.583311 -325.100021 
L 112.621792 -326.399026 
L 112.656741 -327.69803 
L 112.68802 -328.997035 
L 112.715617 -330.296039 
L 112.739632 -331.595044 
L 112.760247 -332.894048 
L 112.77771 -334.193053 
L 112.91854 -334.193053 
L 112.91854 -334.193053 
L 112.936003 -332.894048 
L 112.956618 -331.595044 
L 112.980633 -330.296039 
L 113.00823 -328.997035 
L 113.039509 -327.69803 
L 113.074458 -326.399026 
L 113.112939 -325.100021 
L 113.15467 -323.801017 
L 113.199212 -322.502012 
L 113.245966 -321.203007 
L 113.294178 -319.904003 
L 113.34295 -318.604998 
L 113.391265 -317.305994 
L 113.438016 -316.006989 
L 113.482048 -314.707985 
L 113.522205 -313.40898 
L 113.557376 -312.109976 
L 113.586549 -310.810971 
L 113.608856 -309.511966 
L 113.623618 -308.212962 
L 113.63038 -306.913957 
L 113.628929 -305.614953 
L 113.619313 -304.315948 
L 113.601831 -303.016944 
L 113.577022 -301.717939 
L 113.545638 -300.418935 
L 113.508605 -299.11993 
L 113.466981 -297.820925 
L 113.421903 -296.521921 
L 113.374542 -295.222916 
L 113.326056 -293.923912 
L 113.277542 -292.624907 
L 113.230008 -291.325903 
L 113.184346 -290.026898 
L 113.141315 -288.727894 
L 113.101539 -287.428889 
L 113.065516 -286.129884 
L 113.033631 -284.83088 
L 113.006183 -283.531875 
L 112.98342 -282.232871 
L 112.965571 -280.933866 
L 112.952897 -279.634862 
L 112.945725 -278.335857 
L 112.944501 -277.036853 
L 112.949825 -275.737848 
L 112.962494 -274.438843 
L 112.98353 -273.139839 
L 113.014209 -271.840834 
L 113.056068 -270.54183 
L 113.110904 -269.242825 
L 113.180762 -267.943821 
L 113.267885 -266.644816 
L 113.374664 -265.345812 
L 113.503551 -264.046807 
L 113.656946 -262.747803 
L 113.837076 -261.448798 
L 114.045835 -260.149793 
L 114.284623 -258.850789 
L 114.554172 -257.551784 
L 114.854374 -256.25278 
L 115.184123 -254.953775 
L 115.54118 -253.654771 
L 115.922082 -252.355766 
L 116.322091 -251.056762 
L 116.735216 -249.757757 
L 117.154296 -248.458752 
L 117.571154 -247.159748 
L 117.976833 -245.860743 
L 118.361885 -244.561739 
L 118.716719 -243.262734 
L 119.031987 -241.96373 
L 119.298989 -240.664725 
L 119.51006 -239.365721 
L 119.658936 -238.066716 
L 119.741063 -236.767711 
L 119.753825 -235.468707 
L 119.696681 -234.169702 
L 119.571204 -232.870698 
L 119.381007 -231.571693 
L 119.131577 -230.272689 
L 118.830003 -228.973684 
L 118.484651 -227.67468 
L 118.104774 -226.375675 
L 117.700099 -225.07667 
L 117.280421 -223.777666 
L 116.855206 -222.478661 
L 116.433258 -221.179657 
L 116.022431 -219.880652 
L 115.62942 -218.581648 
L 115.259636 -217.282643 
L 114.917141 -215.983639 
L 114.604672 -214.684634 
L 114.323718 -213.385629 
L 114.074641 -212.086625 
L 113.856842 -210.78762 
L 113.668938 -209.488616 
L 113.508953 -208.189611 
L 113.374496 -206.890607 
L 113.262931 -205.591602 
z
" id="m15fb167dc9" style="stroke:#3d3d3d;stroke-width:1.5;"/>
    </defs>
    <g clip-path="url(#pb5fcccb60b)">
     <use style="fill:#e1812c;stroke:#3d3d3d;stroke-width:1.5;" x="0" xlink:href="#m15fb167dc9" y="368.607178"/>
    </g>
   </g>
   <g id="PolyCollection_3">
    <defs>
     <path d="M 152.663075 -181.500889 
L 152.393175 -181.500889 
L 152.359812 -182.111272 
L 152.320482 -182.721656 
L 152.274718 -183.332039 
L 152.22215 -183.942423 
L 152.162548 -184.552807 
L 152.095841 -185.16319 
L 152.022143 -185.773574 
L 151.941768 -186.383957 
L 151.855237 -186.994341 
L 151.763268 -187.604724 
L 151.666767 -188.215108 
L 151.566794 -188.825491 
L 151.46453 -189.435875 
L 151.361233 -190.046259 
L 151.258193 -190.656642 
L 151.156679 -191.267026 
L 151.057897 -191.877409 
L 150.962946 -192.487793 
L 150.872786 -193.098176 
L 150.788213 -193.70856 
L 150.709839 -194.318943 
L 150.638088 -194.929327 
L 150.573189 -195.539711 
L 150.515181 -196.150094 
L 150.463912 -196.760478 
L 150.419046 -197.370861 
L 150.380056 -197.981245 
L 150.34622 -198.591628 
L 150.316612 -199.202012 
L 150.290082 -199.812395 
L 150.265241 -200.422779 
L 150.240441 -201.033163 
L 150.213758 -201.643546 
L 150.182989 -202.25393 
L 150.145647 -202.864313 
L 150.098988 -203.474697 
L 150.040039 -204.08508 
L 149.965659 -204.695464 
L 149.872616 -205.305847 
L 149.757686 -205.916231 
L 149.617772 -206.526615 
L 149.450038 -207.136998 
L 149.252052 -207.747382 
L 149.021934 -208.357765 
L 148.758498 -208.968149 
L 148.461377 -209.578532 
L 148.131133 -210.188916 
L 147.769322 -210.799299 
L 147.378536 -211.409683 
L 146.962389 -212.020066 
L 146.525464 -212.63045 
L 146.073219 -213.240834 
L 145.611843 -213.851217 
L 145.148091 -214.461601 
L 144.689089 -215.071984 
L 144.242134 -215.682368 
L 143.814487 -216.292751 
L 143.413188 -216.903135 
L 143.044878 -217.513518 
L 142.715665 -218.123902 
L 142.431001 -218.734286 
L 142.195608 -219.344669 
L 142.013413 -219.955053 
L 141.887521 -220.565436 
L 141.820188 -221.17582 
L 141.812821 -221.786203 
L 141.865967 -222.396587 
L 141.979311 -223.00697 
L 142.151681 -223.617354 
L 142.381042 -224.227738 
L 142.664511 -224.838121 
L 142.998374 -225.448505 
L 143.37813 -226.058888 
L 143.798547 -226.669272 
L 144.253752 -227.279655 
L 144.737346 -227.890039 
L 145.242543 -228.500422 
L 145.762329 -229.110806 
L 146.28964 -229.72119 
L 146.81754 -230.331573 
L 147.339404 -230.941957 
L 147.84908 -231.55234 
L 148.341038 -232.162724 
L 148.81049 -232.773107 
L 149.253468 -233.383491 
L 149.666884 -233.993874 
L 150.048539 -234.604258 
L 150.397104 -235.214642 
L 150.712072 -235.825025 
L 150.993683 -236.435409 
L 151.242829 -237.045792 
L 151.46095 -237.656176 
L 151.649915 -238.266559 
L 151.811914 -238.876943 
L 151.949344 -239.487326 
L 152.064712 -240.09771 
L 152.160544 -240.708094 
L 152.239309 -241.318477 
L 152.303363 -241.928861 
L 152.752887 -241.928861 
L 152.752887 -241.928861 
L 152.816941 -241.318477 
L 152.895706 -240.708094 
L 152.991538 -240.09771 
L 153.106906 -239.487326 
L 153.244336 -238.876943 
L 153.406335 -238.266559 
L 153.5953 -237.656176 
L 153.813421 -237.045792 
L 154.062567 -236.435409 
L 154.344178 -235.825025 
L 154.659146 -235.214642 
L 155.007711 -234.604258 
L 155.389366 -233.993874 
L 155.802782 -233.383491 
L 156.24576 -232.773107 
L 156.715212 -232.162724 
L 157.20717 -231.55234 
L 157.716846 -230.941957 
L 158.23871 -230.331573 
L 158.76661 -229.72119 
L 159.293921 -229.110806 
L 159.813707 -228.500422 
L 160.318904 -227.890039 
L 160.802498 -227.279655 
L 161.257703 -226.669272 
L 161.67812 -226.058888 
L 162.057876 -225.448505 
L 162.391739 -224.838121 
L 162.675208 -224.227738 
L 162.904569 -223.617354 
L 163.076939 -223.00697 
L 163.190283 -222.396587 
L 163.243429 -221.786203 
L 163.236062 -221.17582 
L 163.168729 -220.565436 
L 163.042837 -219.955053 
L 162.860642 -219.344669 
L 162.625249 -218.734286 
L 162.340585 -218.123902 
L 162.011372 -217.513518 
L 161.643062 -216.903135 
L 161.241763 -216.292751 
L 160.814116 -215.682368 
L 160.367161 -215.071984 
L 159.908159 -214.461601 
L 159.444407 -213.851217 
L 158.983031 -213.240834 
L 158.530786 -212.63045 
L 158.093861 -212.020066 
L 157.677714 -211.409683 
L 157.286928 -210.799299 
L 156.925117 -210.188916 
L 156.594873 -209.578532 
L 156.297752 -208.968149 
L 156.034316 -208.357765 
L 155.804198 -207.747382 
L 155.606212 -207.136998 
L 155.438478 -206.526615 
L 155.298564 -205.916231 
L 155.183634 -205.305847 
L 155.090591 -204.695464 
L 155.016211 -204.08508 
L 154.957262 -203.474697 
L 154.910603 -202.864313 
L 154.873261 -202.25393 
L 154.842492 -201.643546 
L 154.815809 -201.033163 
L 154.791009 -200.422779 
L 154.766168 -199.812395 
L 154.739638 -199.202012 
L 154.71003 -198.591628 
L 154.676194 -197.981245 
L 154.637204 -197.370861 
L 154.592338 -196.760478 
L 154.541069 -196.150094 
L 154.483061 -195.539711 
L 154.418162 -194.929327 
L 154.346411 -194.318943 
L 154.268037 -193.70856 
L 154.183464 -193.098176 
L 154.093304 -192.487793 
L 153.998353 -191.877409 
L 153.899571 -191.267026 
L 153.798057 -190.656642 
L 153.695017 -190.046259 
L 153.59172 -189.435875 
L 153.489456 -188.825491 
L 153.389483 -188.215108 
L 153.292982 -187.604724 
L 153.201013 -186.994341 
L 153.114482 -186.383957 
L 153.034107 -185.773574 
L 152.960409 -185.16319 
L 152.893702 -184.552807 
L 152.8341 -183.942423 
L 152.781532 -183.332039 
L 152.735768 -182.721656 
L 152.696438 -182.111272 
L 152.663075 -181.500889 
z
" id="m57400ceb4f" style="stroke:#3d3d3d;stroke-width:1.5;"/>
    </defs>
    <g clip-path="url(#pb5fcccb60b)">
     <use style="fill:#3a923a;stroke:#3d3d3d;stroke-width:1.5;" x="0" xlink:href="#m57400ceb4f" y="368.607178"/>
    </g>
   </g>
   <g id="PolyCollection_4">
    <defs>
     <path d="M 192.319366 -154.959915 
L 192.096884 -154.959915 
L 192.066349 -155.712948 
L 192.030243 -156.465981 
L 191.988411 -157.219014 
L 191.940963 -157.972046 
L 191.88832 -158.725079 
L 191.831257 -159.478112 
L 191.770919 -160.231145 
L 191.708808 -160.984177 
L 191.64674 -161.73721 
L 191.586773 -162.490243 
L 191.531093 -163.243276 
L 191.481894 -163.996308 
L 191.441231 -164.749341 
L 191.410879 -165.502374 
L 191.392204 -166.255407 
L 191.38606 -167.008439 
L 191.39272 -167.761472 
L 191.411855 -168.514505 
L 191.442552 -169.267538 
L 191.483382 -170.020571 
L 191.532497 -170.773603 
L 191.587757 -171.526636 
L 191.64686 -172.279669 
L 191.707482 -173.032702 
L 191.767388 -173.785734 
L 191.824533 -174.538767 
L 191.877123 -175.2918 
L 191.923648 -176.044833 
L 191.962893 -176.797865 
L 191.993911 -177.550898 
L 192.015994 -178.303931 
L 192.028625 -179.056964 
L 192.031444 -179.809996 
L 192.024203 -180.563029 
L 192.006749 -181.316062 
L 191.979007 -182.069095 
L 191.940978 -182.822127 
L 191.892736 -183.57516 
L 191.834432 -184.328193 
L 191.766272 -185.081226 
L 191.688493 -185.834258 
L 191.601303 -186.587291 
L 191.504795 -187.340324 
L 191.398842 -188.093357 
L 191.282964 -188.846389 
L 191.156189 -189.599422 
L 191.016926 -190.352455 
L 190.862851 -191.105488 
L 190.690852 -191.858521 
L 190.497029 -192.611553 
L 190.276782 -193.364586 
L 190.024985 -194.117619 
L 189.736265 -194.870652 
L 189.40537 -195.623684 
L 189.027612 -196.376717 
L 188.599371 -197.12975 
L 188.11861 -197.882783 
L 187.585378 -198.635815 
L 187.002234 -199.388848 
L 186.374569 -200.141881 
L 185.710754 -200.894914 
L 185.022109 -201.647946 
L 184.32265 -202.400979 
L 183.628616 -203.154012 
L 182.957807 -203.907045 
L 182.328748 -204.660077 
L 181.759758 -205.41311 
L 181.267981 -206.166143 
L 180.868465 -206.919176 
L 180.573361 -207.672208 
L 180.391311 -208.425241 
L 180.327065 -209.178274 
L 180.381358 -209.931307 
L 180.551047 -210.68434 
L 180.829461 -211.437372 
L 181.20694 -212.190405 
L 181.671492 -212.943438 
L 182.209496 -213.696471 
L 182.806407 -214.449503 
L 183.447397 -215.202536 
L 184.117907 -215.955569 
L 184.804093 -216.708602 
L 185.493156 -217.461634 
L 186.17357 -218.214667 
L 186.835229 -218.9677 
L 187.469523 -219.720733 
L 188.069372 -220.473765 
L 188.629215 -221.226798 
L 189.144986 -221.979831 
L 189.614052 -222.732864 
L 190.035137 -223.485896 
L 190.408216 -224.238929 
L 190.734383 -224.991962 
L 191.015696 -225.744995 
L 191.254995 -226.498027 
L 191.455716 -227.25106 
L 191.621689 -228.004093 
L 191.756955 -228.757126 
L 191.865584 -229.510158 
L 192.550666 -229.510158 
L 192.550666 -229.510158 
L 192.659295 -228.757126 
L 192.794561 -228.004093 
L 192.960534 -227.25106 
L 193.161255 -226.498027 
L 193.400554 -225.744995 
L 193.681867 -224.991962 
L 194.008034 -224.238929 
L 194.381113 -223.485896 
L 194.802198 -222.732864 
L 195.271264 -221.979831 
L 195.787035 -221.226798 
L 196.346878 -220.473765 
L 196.946727 -219.720733 
L 197.581021 -218.9677 
L 198.24268 -218.214667 
L 198.923094 -217.461634 
L 199.612157 -216.708602 
L 200.298343 -215.955569 
L 200.968853 -215.202536 
L 201.609843 -214.449503 
L 202.206754 -213.696471 
L 202.744758 -212.943438 
L 203.20931 -212.190405 
L 203.586789 -211.437372 
L 203.865203 -210.68434 
L 204.034892 -209.931307 
L 204.089185 -209.178274 
L 204.024939 -208.425241 
L 203.842889 -207.672208 
L 203.547785 -206.919176 
L 203.148269 -206.166143 
L 202.656492 -205.41311 
L 202.087502 -204.660077 
L 201.458443 -203.907045 
L 200.787634 -203.154012 
L 200.0936 -202.400979 
L 199.394141 -201.647946 
L 198.705496 -200.894914 
L 198.041681 -200.141881 
L 197.414016 -199.388848 
L 196.830872 -198.635815 
L 196.29764 -197.882783 
L 195.816879 -197.12975 
L 195.388638 -196.376717 
L 195.01088 -195.623684 
L 194.679985 -194.870652 
L 194.391265 -194.117619 
L 194.139468 -193.364586 
L 193.919221 -192.611553 
L 193.725398 -191.858521 
L 193.553399 -191.105488 
L 193.399324 -190.352455 
L 193.260061 -189.599422 
L 193.133286 -188.846389 
L 193.017408 -188.093357 
L 192.911455 -187.340324 
L 192.814947 -186.587291 
L 192.727757 -185.834258 
L 192.649978 -185.081226 
L 192.581818 -184.328193 
L 192.523514 -183.57516 
L 192.475272 -182.822127 
L 192.437243 -182.069095 
L 192.409501 -181.316062 
L 192.392047 -180.563029 
L 192.384806 -179.809996 
L 192.387625 -179.056964 
L 192.400256 -178.303931 
L 192.422339 -177.550898 
L 192.453357 -176.797865 
L 192.492602 -176.044833 
L 192.539127 -175.2918 
L 192.591717 -174.538767 
L 192.648862 -173.785734 
L 192.708768 -173.032702 
L 192.76939 -172.279669 
L 192.828493 -171.526636 
L 192.883753 -170.773603 
L 192.932868 -170.020571 
L 192.973698 -169.267538 
L 193.004395 -168.514505 
L 193.02353 -167.761472 
L 193.03019 -167.008439 
L 193.024046 -166.255407 
L 193.005371 -165.502374 
L 192.975019 -164.749341 
L 192.934356 -163.996308 
L 192.885157 -163.243276 
L 192.829477 -162.490243 
L 192.76951 -161.73721 
L 192.707442 -160.984177 
L 192.645331 -160.231145 
L 192.584993 -159.478112 
L 192.52793 -158.725079 
L 192.475287 -157.972046 
L 192.427839 -157.219014 
L 192.386007 -156.465981 
L 192.349901 -155.712948 
L 192.319366 -154.959915 
z
" id="mf9d11ec23b" style="stroke:#3d3d3d;stroke-width:1.5;"/>
    </defs>
    <g clip-path="url(#pb5fcccb60b)">
     <use style="fill:#d684bd;stroke:#3d3d3d;stroke-width:1.5;" x="0" xlink:href="#mf9d11ec23b" y="368.607178"/>
    </g>
   </g>
   <g id="PolyCollection_5">
    <defs>
     <path d="M 231.940447 -92.273053 
L 231.835803 -92.273053 
L 231.822866 -93.838954 
L 231.807585 -95.404856 
L 231.789759 -96.970758 
L 231.769229 -98.536659 
L 231.745884 -100.102561 
L 231.719676 -101.668462 
L 231.690634 -103.234364 
L 231.658871 -104.800265 
L 231.624592 -106.366167 
L 231.588092 -107.932068 
L 231.549758 -109.49797 
L 231.510058 -111.063871 
L 231.469528 -112.629773 
L 231.428758 -114.195674 
L 231.388367 -115.761576 
L 231.348984 -117.327478 
L 231.311216 -118.893379 
L 231.27563 -120.459281 
L 231.242725 -122.025182 
L 231.212913 -123.591084 
L 231.186501 -125.156985 
L 231.163678 -126.722887 
L 231.144508 -128.288788 
L 231.128929 -129.85469 
L 231.116748 -131.420591 
L 231.107654 -132.986493 
L 231.101221 -134.552394 
L 231.096918 -136.118296 
L 231.094122 -137.684197 
L 231.092128 -139.250099 
L 231.09016 -140.816001 
L 231.087382 -142.381902 
L 231.082911 -143.947804 
L 231.075831 -145.513705 
L 231.065202 -147.079607 
L 231.050084 -148.645508 
L 231.029548 -150.21141 
L 231.002703 -151.777311 
L 230.968715 -153.343213 
L 230.926833 -154.909114 
L 230.876414 -156.475016 
L 230.816942 -158.040917 
L 230.748048 -159.606819 
L 230.669524 -161.172721 
L 230.581327 -162.738622 
L 230.483581 -164.304524 
L 230.376567 -165.870425 
L 230.260711 -167.436327 
L 230.13657 -169.002228 
L 230.004808 -170.56813 
L 229.866185 -172.134031 
L 229.72154 -173.699933 
L 229.571792 -175.265834 
L 229.417935 -176.831736 
L 229.261059 -178.397637 
L 229.102361 -179.963539 
L 228.943178 -181.529441 
L 228.785006 -183.095342 
L 228.629528 -184.661244 
L 228.478627 -186.227145 
L 228.334388 -187.793047 
L 228.199083 -189.358948 
L 228.075135 -190.92485 
L 227.965061 -192.490751 
L 227.8714 -194.056653 
L 227.796616 -195.622554 
L 227.742999 -197.188456 
L 227.712557 -198.754357 
L 227.706912 -200.320259 
L 227.727205 -201.88616 
L 227.774021 -203.452062 
L 227.847339 -205.017964 
L 227.946504 -206.583865 
L 228.070235 -208.149767 
L 228.216656 -209.715668 
L 228.38336 -211.28157 
L 228.567491 -212.847471 
L 228.765849 -214.413373 
L 228.975003 -215.979274 
L 229.191407 -217.545176 
L 229.411525 -219.111077 
L 229.631934 -220.676979 
L 229.849432 -222.24288 
L 230.061115 -223.808782 
L 230.264446 -225.374684 
L 230.457301 -226.940585 
L 230.637996 -228.506487 
L 230.805292 -230.072388 
L 230.958386 -231.63829 
L 231.096885 -233.204191 
L 231.220771 -234.770093 
L 231.330349 -236.335994 
L 231.4262 -237.901896 
L 231.509119 -239.467797 
L 231.580064 -241.033699 
L 231.640097 -242.5996 
L 231.690341 -244.165502 
L 231.73193 -245.731404 
L 231.765977 -247.297305 
L 232.010273 -247.297305 
L 232.010273 -247.297305 
L 232.04432 -245.731404 
L 232.085909 -244.165502 
L 232.136153 -242.5996 
L 232.196186 -241.033699 
L 232.267131 -239.467797 
L 232.35005 -237.901896 
L 232.445901 -236.335994 
L 232.555479 -234.770093 
L 232.679365 -233.204191 
L 232.817864 -231.63829 
L 232.970958 -230.072388 
L 233.138254 -228.506487 
L 233.318949 -226.940585 
L 233.511804 -225.374684 
L 233.715135 -223.808782 
L 233.926818 -222.24288 
L 234.144316 -220.676979 
L 234.364725 -219.111077 
L 234.584843 -217.545176 
L 234.801247 -215.979274 
L 235.010401 -214.413373 
L 235.208759 -212.847471 
L 235.39289 -211.28157 
L 235.559594 -209.715668 
L 235.706015 -208.149767 
L 235.829746 -206.583865 
L 235.928911 -205.017964 
L 236.002229 -203.452062 
L 236.049045 -201.88616 
L 236.069338 -200.320259 
L 236.063693 -198.754357 
L 236.033251 -197.188456 
L 235.979634 -195.622554 
L 235.90485 -194.056653 
L 235.811189 -192.490751 
L 235.701115 -190.92485 
L 235.577167 -189.358948 
L 235.441862 -187.793047 
L 235.297623 -186.227145 
L 235.146722 -184.661244 
L 234.991244 -183.095342 
L 234.833072 -181.529441 
L 234.673889 -179.963539 
L 234.515191 -178.397637 
L 234.358315 -176.831736 
L 234.204458 -175.265834 
L 234.05471 -173.699933 
L 233.910065 -172.134031 
L 233.771442 -170.56813 
L 233.63968 -169.002228 
L 233.515539 -167.436327 
L 233.399683 -165.870425 
L 233.292669 -164.304524 
L 233.194923 -162.738622 
L 233.106726 -161.172721 
L 233.028202 -159.606819 
L 232.959308 -158.040917 
L 232.899836 -156.475016 
L 232.849417 -154.909114 
L 232.807535 -153.343213 
L 232.773547 -151.777311 
L 232.746702 -150.21141 
L 232.726166 -148.645508 
L 232.711048 -147.079607 
L 232.700419 -145.513705 
L 232.693339 -143.947804 
L 232.688868 -142.381902 
L 232.68609 -140.816001 
L 232.684122 -139.250099 
L 232.682128 -137.684197 
L 232.679332 -136.118296 
L 232.675029 -134.552394 
L 232.668596 -132.986493 
L 232.659502 -131.420591 
L 232.647321 -129.85469 
L 232.631742 -128.288788 
L 232.612572 -126.722887 
L 232.589749 -125.156985 
L 232.563337 -123.591084 
L 232.533525 -122.025182 
L 232.50062 -120.459281 
L 232.465034 -118.893379 
L 232.427266 -117.327478 
L 232.387883 -115.761576 
L 232.347492 -114.195674 
L 232.306722 -112.629773 
L 232.266192 -111.063871 
L 232.226492 -109.49797 
L 232.188158 -107.932068 
L 232.151658 -106.366167 
L 232.117379 -104.800265 
L 232.085616 -103.234364 
L 232.056574 -101.668462 
L 232.030366 -100.102561 
L 232.007021 -98.536659 
L 231.986491 -96.970758 
L 231.968665 -95.404856 
L 231.953384 -93.838954 
L 231.940447 -92.273053 
z
" id="m57472f1d5a" style="stroke:#3d3d3d;stroke-width:1.5;"/>
    </defs>
    <g clip-path="url(#pb5fcccb60b)">
     <use style="fill:#f2a5a3;stroke:#3d3d3d;stroke-width:1.5;" x="0" xlink:href="#m57472f1d5a" y="368.607178"/>
    </g>
   </g>
   <g id="PolyCollection_6">
    <defs>
     <path d="M 271.659045 -126.187701 
L 271.477205 -126.187701 
L 271.455096 -127.631403 
L 271.42881 -129.075105 
L 271.397842 -130.518807 
L 271.361683 -131.962509 
L 271.319825 -133.406211 
L 271.271775 -134.849914 
L 271.217064 -136.293616 
L 271.155259 -137.737318 
L 271.085971 -139.18102 
L 271.008874 -140.624722 
L 270.923711 -142.068424 
L 270.830315 -143.512126 
L 270.728621 -144.955828 
L 270.618684 -146.399531 
L 270.500698 -147.843233 
L 270.375015 -149.286935 
L 270.242162 -150.730637 
L 270.102854 -152.174339 
L 269.958005 -153.618041 
L 269.80873 -155.061743 
L 269.656335 -156.505445 
L 269.5023 -157.949148 
L 269.348244 -159.39285 
L 269.195882 -160.836552 
L 269.046961 -162.280254 
L 268.9032 -163.723956 
L 268.766213 -165.167658 
L 268.637431 -166.61136 
L 268.518038 -168.055062 
L 268.408912 -169.498765 
L 268.310578 -170.942467 
L 268.223198 -172.386169 
L 268.146567 -173.829871 
L 268.080154 -175.273573 
L 268.023157 -176.717275 
L 267.974585 -178.160977 
L 267.933356 -179.604679 
L 267.898407 -181.048382 
L 267.868804 -182.492084 
L 267.843843 -183.935786 
L 267.823134 -185.379488 
L 267.806666 -186.82319 
L 267.794832 -188.266892 
L 267.78843 -189.710594 
L 267.78862 -191.154296 
L 267.796857 -192.597999 
L 267.814786 -194.041701 
L 267.844124 -195.485403 
L 267.886525 -196.929105 
L 267.94344 -198.372807 
L 268.015994 -199.816509 
L 268.104863 -201.260211 
L 268.210199 -202.703913 
L 268.331563 -204.147616 
L 268.467913 -205.591318 
L 268.617619 -207.03502 
L 268.778516 -208.478722 
L 268.947993 -209.922424 
L 269.123103 -211.366126 
L 269.300695 -212.809828 
L 269.477557 -214.25353 
L 269.650555 -215.697232 
L 269.816774 -217.140935 
L 269.97363 -218.584637 
L 270.118979 -220.028339 
L 270.251181 -221.472041 
L 270.369146 -222.915743 
L 270.472354 -224.359445 
L 270.560832 -225.803147 
L 270.635122 -227.246849 
L 270.696215 -228.690552 
L 270.745472 -230.134254 
L 270.784536 -231.577956 
L 270.815228 -233.021658 
L 270.839458 -234.46536 
L 270.859123 -235.909062 
L 270.876025 -237.352764 
L 270.891798 -238.796466 
L 270.907851 -240.240169 
L 270.925323 -241.683871 
L 270.945066 -243.127573 
L 270.96763 -244.571275 
L 270.993281 -246.014977 
L 271.022019 -247.458679 
L 271.053614 -248.902381 
L 271.087648 -250.346083 
L 271.123563 -251.789786 
L 271.160713 -253.233488 
L 271.198406 -254.67719 
L 271.235951 -256.120892 
L 271.272696 -257.564594 
L 271.308057 -259.008296 
L 271.341539 -260.451998 
L 271.372754 -261.8957 
L 271.401419 -263.339403 
L 271.427362 -264.783105 
L 271.45051 -266.226807 
L 271.470881 -267.670509 
L 271.488568 -269.114211 
L 271.647682 -269.114211 
L 271.647682 -269.114211 
L 271.665369 -267.670509 
L 271.68574 -266.226807 
L 271.708888 -264.783105 
L 271.734831 -263.339403 
L 271.763496 -261.8957 
L 271.794711 -260.451998 
L 271.828193 -259.008296 
L 271.863554 -257.564594 
L 271.900299 -256.120892 
L 271.937844 -254.67719 
L 271.975537 -253.233488 
L 272.012687 -251.789786 
L 272.048602 -250.346083 
L 272.082636 -248.902381 
L 272.114231 -247.458679 
L 272.142969 -246.014977 
L 272.16862 -244.571275 
L 272.191184 -243.127573 
L 272.210927 -241.683871 
L 272.228399 -240.240169 
L 272.244452 -238.796466 
L 272.260225 -237.352764 
L 272.277127 -235.909062 
L 272.296792 -234.46536 
L 272.321022 -233.021658 
L 272.351714 -231.577956 
L 272.390778 -230.134254 
L 272.440035 -228.690552 
L 272.501128 -227.246849 
L 272.575418 -225.803147 
L 272.663896 -224.359445 
L 272.767104 -222.915743 
L 272.885069 -221.472041 
L 273.017271 -220.028339 
L 273.16262 -218.584637 
L 273.319476 -217.140935 
L 273.485695 -215.697232 
L 273.658693 -214.25353 
L 273.835555 -212.809828 
L 274.013147 -211.366126 
L 274.188257 -209.922424 
L 274.357734 -208.478722 
L 274.518631 -207.03502 
L 274.668337 -205.591318 
L 274.804687 -204.147616 
L 274.926051 -202.703913 
L 275.031387 -201.260211 
L 275.120256 -199.816509 
L 275.19281 -198.372807 
L 275.249725 -196.929105 
L 275.292126 -195.485403 
L 275.321464 -194.041701 
L 275.339393 -192.597999 
L 275.34763 -191.154296 
L 275.34782 -189.710594 
L 275.341418 -188.266892 
L 275.329584 -186.82319 
L 275.313116 -185.379488 
L 275.292407 -183.935786 
L 275.267446 -182.492084 
L 275.237843 -181.048382 
L 275.202894 -179.604679 
L 275.161665 -178.160977 
L 275.113093 -176.717275 
L 275.056096 -175.273573 
L 274.989683 -173.829871 
L 274.913052 -172.386169 
L 274.825672 -170.942467 
L 274.727338 -169.498765 
L 274.618212 -168.055062 
L 274.498819 -166.61136 
L 274.370037 -165.167658 
L 274.23305 -163.723956 
L 274.089289 -162.280254 
L 273.940368 -160.836552 
L 273.788006 -159.39285 
L 273.63395 -157.949148 
L 273.479915 -156.505445 
L 273.32752 -155.061743 
L 273.178245 -153.618041 
L 273.033396 -152.174339 
L 272.894088 -150.730637 
L 272.761235 -149.286935 
L 272.635552 -147.843233 
L 272.517566 -146.399531 
L 272.407629 -144.955828 
L 272.305935 -143.512126 
L 272.212539 -142.068424 
L 272.127376 -140.624722 
L 272.050279 -139.18102 
L 271.980991 -137.737318 
L 271.919186 -136.293616 
L 271.864475 -134.849914 
L 271.816425 -133.406211 
L 271.774567 -131.962509 
L 271.738408 -130.518807 
L 271.70744 -129.075105 
L 271.681154 -127.631403 
L 271.659045 -126.187701 
z
" id="m99be850697" style="stroke:#3d3d3d;stroke-width:1.5;"/>
    </defs>
    <g clip-path="url(#pb5fcccb60b)">
     <use style="fill:#c03d3e;stroke:#3d3d3d;stroke-width:1.5;" x="0" xlink:href="#m99be850697" y="368.607178"/>
    </g>
   </g>
   <g id="PolyCollection_7">
    <defs>
     <path d="M 311.550083 -141.735528 
L 310.946167 -141.735528 
L 310.877122 -142.531601 
L 310.79571 -143.327674 
L 310.70056 -144.123747 
L 310.590345 -144.91982 
L 310.463823 -145.715893 
L 310.319899 -146.511966 
L 310.157685 -147.308039 
L 309.976559 -148.104112 
L 309.776229 -148.900185 
L 309.556798 -149.696257 
L 309.318808 -150.49233 
L 309.063295 -151.288403 
L 308.791813 -152.084476 
L 308.506454 -152.880549 
L 308.209846 -153.676622 
L 307.905127 -154.472695 
L 307.595907 -155.268768 
L 307.286198 -156.064841 
L 306.980332 -156.860914 
L 306.682859 -157.656987 
L 306.398425 -158.45306 
L 306.131645 -159.249133 
L 305.886969 -160.045206 
L 305.668543 -160.841278 
L 305.480082 -161.637351 
L 305.324743 -162.433424 
L 305.205026 -163.229497 
L 305.122683 -164.02557 
L 305.07866 -164.821643 
L 305.07306 -165.617716 
L 305.105133 -166.413789 
L 305.173301 -167.209862 
L 305.275198 -168.005935 
L 305.407748 -168.802008 
L 305.567252 -169.598081 
L 305.749505 -170.394154 
L 305.949914 -171.190227 
L 306.163634 -171.9863 
L 306.385704 -172.782372 
L 306.611176 -173.578445 
L 306.83525 -174.374518 
L 307.053388 -175.170591 
L 307.261422 -175.966664 
L 307.455639 -176.762737 
L 307.632858 -177.55881 
L 307.790477 -178.354883 
L 307.926513 -179.150956 
L 308.039611 -179.947029 
L 308.129045 -180.743102 
L 308.194701 -181.539175 
L 308.237043 -182.335248 
L 308.257068 -183.131321 
L 308.256257 -183.927394 
L 308.236512 -184.723466 
L 308.200095 -185.519539 
L 308.149556 -186.315612 
L 308.087668 -187.111685 
L 308.017362 -187.907758 
L 307.941655 -188.703831 
L 307.86359 -189.499904 
L 307.786178 -190.295977 
L 307.712336 -191.09205 
L 307.644836 -191.888123 
L 307.586257 -192.684196 
L 307.538937 -193.480269 
L 307.504936 -194.276342 
L 307.485999 -195.072415 
L 307.483526 -195.868487 
L 307.498548 -196.66456 
L 307.531716 -197.460633 
L 307.583288 -198.256706 
L 307.653129 -199.052779 
L 307.740727 -199.848852 
L 307.845203 -200.644925 
L 307.965346 -201.440998 
L 308.099645 -202.237071 
L 308.246334 -203.033144 
L 308.403442 -203.829217 
L 308.568849 -204.62529 
L 308.740343 -205.421363 
L 308.915681 -206.217436 
L 309.092642 -207.013509 
L 309.269088 -207.809581 
L 309.44301 -208.605654 
L 309.612572 -209.401727 
L 309.776145 -210.1978 
L 309.932335 -210.993873 
L 310.079998 -211.789946 
L 310.21825 -212.586019 
L 310.346462 -213.382092 
L 310.464256 -214.178165 
L 310.571483 -214.974238 
L 310.668207 -215.770311 
L 310.754672 -216.566384 
L 310.83128 -217.362457 
L 310.898556 -218.15853 
L 310.957119 -218.954603 
L 311.007653 -219.750675 
L 311.050881 -220.546748 
L 311.445369 -220.546748 
L 311.445369 -220.546748 
L 311.488597 -219.750675 
L 311.539131 -218.954603 
L 311.597694 -218.15853 
L 311.66497 -217.362457 
L 311.741578 -216.566384 
L 311.828043 -215.770311 
L 311.924767 -214.974238 
L 312.031994 -214.178165 
L 312.149788 -213.382092 
L 312.278 -212.586019 
L 312.416252 -211.789946 
L 312.563915 -210.993873 
L 312.720105 -210.1978 
L 312.883678 -209.401727 
L 313.05324 -208.605654 
L 313.227162 -207.809581 
L 313.403608 -207.013509 
L 313.580569 -206.217436 
L 313.755907 -205.421363 
L 313.927401 -204.62529 
L 314.092808 -203.829217 
L 314.249916 -203.033144 
L 314.396605 -202.237071 
L 314.530904 -201.440998 
L 314.651047 -200.644925 
L 314.755523 -199.848852 
L 314.843121 -199.052779 
L 314.912962 -198.256706 
L 314.964534 -197.460633 
L 314.997702 -196.66456 
L 315.012724 -195.868487 
L 315.010251 -195.072415 
L 314.991314 -194.276342 
L 314.957313 -193.480269 
L 314.909993 -192.684196 
L 314.851414 -191.888123 
L 314.783914 -191.09205 
L 314.710072 -190.295977 
L 314.63266 -189.499904 
L 314.554595 -188.703831 
L 314.478888 -187.907758 
L 314.408582 -187.111685 
L 314.346694 -186.315612 
L 314.296155 -185.519539 
L 314.259738 -184.723466 
L 314.239993 -183.927394 
L 314.239182 -183.131321 
L 314.259207 -182.335248 
L 314.301549 -181.539175 
L 314.367205 -180.743102 
L 314.456639 -179.947029 
L 314.569737 -179.150956 
L 314.705773 -178.354883 
L 314.863392 -177.55881 
L 315.040611 -176.762737 
L 315.234828 -175.966664 
L 315.442862 -175.170591 
L 315.661 -174.374518 
L 315.885074 -173.578445 
L 316.110546 -172.782372 
L 316.332616 -171.9863 
L 316.546336 -171.190227 
L 316.746745 -170.394154 
L 316.928998 -169.598081 
L 317.088502 -168.802008 
L 317.221052 -168.005935 
L 317.322949 -167.209862 
L 317.391117 -166.413789 
L 317.42319 -165.617716 
L 317.41759 -164.821643 
L 317.373567 -164.02557 
L 317.291224 -163.229497 
L 317.171507 -162.433424 
L 317.016168 -161.637351 
L 316.827707 -160.841278 
L 316.609281 -160.045206 
L 316.364605 -159.249133 
L 316.097825 -158.45306 
L 315.813391 -157.656987 
L 315.515918 -156.860914 
L 315.210052 -156.064841 
L 314.900343 -155.268768 
L 314.591123 -154.472695 
L 314.286404 -153.676622 
L 313.989796 -152.880549 
L 313.704437 -152.084476 
L 313.432955 -151.288403 
L 313.177442 -150.49233 
L 312.939452 -149.696257 
L 312.720021 -148.900185 
L 312.519691 -148.104112 
L 312.338565 -147.308039 
L 312.176351 -146.511966 
L 312.032427 -145.715893 
L 311.905905 -144.91982 
L 311.79569 -144.123747 
L 311.70054 -143.327674 
L 311.619128 -142.531601 
L 311.550083 -141.735528 
z
" id="ma8f7665331" style="stroke:#3d3d3d;stroke-width:1.5;"/>
    </defs>
    <g clip-path="url(#pb5fcccb60b)">
     <use style="fill:#c4b5d0;stroke:#3d3d3d;stroke-width:1.5;" x="0" xlink:href="#ma8f7665331" y="368.607178"/>
    </g>
   </g>
   <g id="PolyCollection_8">
    <defs>
     <path d="M 351.691758 -155.249737 
L 350.164492 -155.249737 
L 350.021166 -155.53103 
L 349.857721 -155.812322 
L 349.672741 -156.093614 
L 349.464976 -156.374906 
L 349.233405 -156.656199 
L 348.977281 -156.937491 
L 348.696192 -157.218783 
L 348.390102 -157.500075 
L 348.059392 -157.781368 
L 347.704887 -158.06266 
L 347.32787 -158.343952 
L 346.930078 -158.625244 
L 346.513687 -158.906537 
L 346.081269 -159.187829 
L 345.635739 -159.469121 
L 345.180281 -159.750413 
L 344.718259 -160.031706 
L 344.253116 -160.312998 
L 343.788269 -160.59429 
L 343.326991 -160.875583 
L 342.872308 -161.156875 
L 342.4269 -161.438167 
L 341.993008 -161.719459 
L 341.572373 -162.000752 
L 341.166194 -162.282044 
L 340.77511 -162.563336 
L 340.399217 -162.844628 
L 340.038109 -163.125921 
L 339.690956 -163.407213 
L 339.356596 -163.688505 
L 339.033656 -163.969797 
L 338.720683 -164.25109 
L 338.416278 -164.532382 
L 338.119239 -164.813674 
L 337.828678 -165.094966 
L 337.544133 -165.376259 
L 337.265651 -165.657551 
L 336.993837 -165.938843 
L 336.729872 -166.220136 
L 336.475497 -166.501428 
L 336.232955 -166.78272 
L 336.004906 -167.064012 
L 335.794313 -167.345305 
L 335.604308 -167.626597 
L 335.438041 -167.907889 
L 335.298532 -168.189181 
L 335.188522 -168.470474 
L 335.110343 -168.751766 
L 335.065808 -169.033058 
L 335.056125 -169.31435 
L 335.081855 -169.595643 
L 335.142894 -169.876935 
L 335.238494 -170.158227 
L 335.36732 -170.439519 
L 335.527532 -170.720812 
L 335.71689 -171.002104 
L 335.932877 -171.283396 
L 336.172827 -171.564688 
L 336.434051 -171.845981 
L 336.713964 -172.127273 
L 337.01018 -172.408565 
L 337.320603 -172.689858 
L 337.643479 -172.97115 
L 337.977431 -173.252442 
L 338.321458 -173.533734 
L 338.674912 -173.815027 
L 339.037448 -174.096319 
L 339.408963 -174.377611 
L 339.789505 -174.658903 
L 340.179191 -174.940196 
L 340.578115 -175.221488 
L 340.986257 -175.50278 
L 341.403409 -175.784072 
L 341.829112 -176.065365 
L 342.262606 -176.346657 
L 342.702806 -176.627949 
L 343.148294 -176.909241 
L 343.597335 -177.190534 
L 344.047904 -177.471826 
L 344.49774 -177.753118 
L 344.944401 -178.034411 
L 345.38534 -178.315703 
L 345.817973 -178.596995 
L 346.239758 -178.878287 
L 346.648271 -179.15958 
L 347.041267 -179.440872 
L 347.416742 -179.722164 
L 347.772979 -180.003456 
L 348.108585 -180.284749 
L 348.422508 -180.566041 
L 348.714054 -180.847333 
L 348.982873 -181.128625 
L 349.228956 -181.409918 
L 349.452602 -181.69121 
L 349.654393 -181.972502 
L 349.835151 -182.253794 
L 349.995902 -182.535087 
L 350.137832 -182.816379 
L 350.262245 -183.097671 
L 351.594005 -183.097671 
L 351.594005 -183.097671 
L 351.718418 -182.816379 
L 351.860348 -182.535087 
L 352.021099 -182.253794 
L 352.201857 -181.972502 
L 352.403648 -181.69121 
L 352.627294 -181.409918 
L 352.873377 -181.128625 
L 353.142196 -180.847333 
L 353.433742 -180.566041 
L 353.747665 -180.284749 
L 354.083271 -180.003456 
L 354.439508 -179.722164 
L 354.814983 -179.440872 
L 355.207979 -179.15958 
L 355.616492 -178.878287 
L 356.038277 -178.596995 
L 356.47091 -178.315703 
L 356.911849 -178.034411 
L 357.35851 -177.753118 
L 357.808346 -177.471826 
L 358.258915 -177.190534 
L 358.707956 -176.909241 
L 359.153444 -176.627949 
L 359.593644 -176.346657 
L 360.027138 -176.065365 
L 360.452841 -175.784072 
L 360.869993 -175.50278 
L 361.278135 -175.221488 
L 361.677059 -174.940196 
L 362.066745 -174.658903 
L 362.447287 -174.377611 
L 362.818802 -174.096319 
L 363.181338 -173.815027 
L 363.534792 -173.533734 
L 363.878819 -173.252442 
L 364.212771 -172.97115 
L 364.535647 -172.689858 
L 364.84607 -172.408565 
L 365.142286 -172.127273 
L 365.422199 -171.845981 
L 365.683423 -171.564688 
L 365.923373 -171.283396 
L 366.13936 -171.002104 
L 366.328718 -170.720812 
L 366.48893 -170.439519 
L 366.617756 -170.158227 
L 366.713356 -169.876935 
L 366.774395 -169.595643 
L 366.800125 -169.31435 
L 366.790442 -169.033058 
L 366.745907 -168.751766 
L 366.667728 -168.470474 
L 366.557718 -168.189181 
L 366.418209 -167.907889 
L 366.251942 -167.626597 
L 366.061937 -167.345305 
L 365.851344 -167.064012 
L 365.623295 -166.78272 
L 365.380753 -166.501428 
L 365.126378 -166.220136 
L 364.862413 -165.938843 
L 364.590599 -165.657551 
L 364.312117 -165.376259 
L 364.027572 -165.094966 
L 363.737011 -164.813674 
L 363.439972 -164.532382 
L 363.135567 -164.25109 
L 362.822594 -163.969797 
L 362.499654 -163.688505 
L 362.165294 -163.407213 
L 361.818141 -163.125921 
L 361.457033 -162.844628 
L 361.08114 -162.563336 
L 360.690056 -162.282044 
L 360.283877 -162.000752 
L 359.863242 -161.719459 
L 359.42935 -161.438167 
L 358.983942 -161.156875 
L 358.529259 -160.875583 
L 358.067981 -160.59429 
L 357.603134 -160.312998 
L 357.137991 -160.031706 
L 356.675969 -159.750413 
L 356.220511 -159.469121 
L 355.774981 -159.187829 
L 355.342563 -158.906537 
L 354.926172 -158.625244 
L 354.52838 -158.343952 
L 354.151363 -158.06266 
L 353.796858 -157.781368 
L 353.466148 -157.500075 
L 353.160058 -157.218783 
L 352.878969 -156.937491 
L 352.622845 -156.656199 
L 352.391274 -156.374906 
L 352.183509 -156.093614 
L 351.998529 -155.812322 
L 351.835084 -155.53103 
L 351.691758 -155.249737 
z
" id="m8a9a4b8694" style="stroke:#3d3d3d;stroke-width:1.5;"/>
    </defs>
    <g clip-path="url(#pb5fcccb60b)">
     <use style="fill:#9fd495;stroke:#3d3d3d;stroke-width:1.5;" x="0" xlink:href="#m8a9a4b8694" y="368.607178"/>
    </g>
   </g>
   <g id="PolyCollection_9">
    <defs>
     <path d="M 390.857289 -137.072117 
L 390.358961 -137.072117 
L 390.296152 -137.909459 
L 390.220967 -138.746801 
L 390.131876 -139.584143 
L 390.027375 -140.421484 
L 389.906036 -141.258826 
L 389.766574 -142.096168 
L 389.607904 -142.933509 
L 389.429216 -143.770851 
L 389.230037 -144.608193 
L 389.010295 -145.445535 
L 388.770374 -146.282876 
L 388.511159 -147.120218 
L 388.234066 -147.95756 
L 387.94106 -148.794901 
L 387.634651 -149.632243 
L 387.317876 -150.469585 
L 386.994253 -151.306927 
L 386.667731 -152.144268 
L 386.342603 -152.98161 
L 386.023419 -153.818952 
L 385.714881 -154.656293 
L 385.421718 -155.493635 
L 385.148566 -156.330977 
L 384.899839 -157.168319 
L 384.679597 -158.00566 
L 384.491423 -158.843002 
L 384.338308 -159.680344 
L 384.222552 -160.517685 
L 384.145674 -161.355027 
L 384.108358 -162.192369 
L 384.110413 -163.029711 
L 384.150766 -163.867052 
L 384.227484 -164.704394 
L 384.337829 -165.541736 
L 384.478331 -166.379077 
L 384.644899 -167.216419 
L 384.832947 -168.053761 
L 385.037534 -168.891103 
L 385.253519 -169.728444 
L 385.47572 -170.565786 
L 385.699064 -171.403128 
L 385.918738 -172.240469 
L 386.130317 -173.077811 
L 386.329884 -173.915153 
L 386.514121 -174.752495 
L 386.680386 -175.589836 
L 386.826756 -176.427178 
L 386.952059 -177.26452 
L 387.055871 -178.101861 
L 387.1385 -178.939203 
L 387.200944 -179.776545 
L 387.244831 -180.613887 
L 387.272341 -181.451228 
L 387.286114 -182.28857 
L 387.289137 -183.125912 
L 387.284636 -183.963253 
L 387.275948 -184.800595 
L 387.266394 -185.637937 
L 387.259164 -186.475279 
L 387.257198 -187.31262 
L 387.263089 -188.149962 
L 387.279002 -188.987304 
L 387.306611 -189.824645 
L 387.347066 -190.661987 
L 387.400984 -191.499329 
L 387.468464 -192.336671 
L 387.549122 -193.174012 
L 387.642155 -194.011354 
L 387.74641 -194.848696 
L 387.860465 -195.686037 
L 387.982718 -196.523379 
L 388.111469 -197.360721 
L 388.244998 -198.198063 
L 388.381628 -199.035404 
L 388.519784 -199.872746 
L 388.658024 -200.710088 
L 388.79507 -201.547429 
L 388.929815 -202.384771 
L 389.061319 -203.222113 
L 389.188807 -204.059455 
L 389.311647 -204.896796 
L 389.429335 -205.734138 
L 389.541473 -206.57148 
L 389.647756 -207.408821 
L 389.747953 -208.246163 
L 389.841899 -209.083505 
L 389.929487 -209.920847 
L 390.010663 -210.758188 
L 390.085425 -211.59553 
L 390.153824 -212.432872 
L 390.215964 -213.270213 
L 390.272001 -214.107555 
L 390.322144 -214.944897 
L 390.36665 -215.782239 
L 390.40582 -216.61958 
L 390.439994 -217.456922 
L 390.469542 -218.294264 
L 390.494855 -219.131605 
L 390.516336 -219.968947 
L 390.699914 -219.968947 
L 390.699914 -219.968947 
L 390.721395 -219.131605 
L 390.746708 -218.294264 
L 390.776256 -217.456922 
L 390.81043 -216.61958 
L 390.8496 -215.782239 
L 390.894106 -214.944897 
L 390.944249 -214.107555 
L 391.000286 -213.270213 
L 391.062426 -212.432872 
L 391.130825 -211.59553 
L 391.205587 -210.758188 
L 391.286763 -209.920847 
L 391.374351 -209.083505 
L 391.468297 -208.246163 
L 391.568494 -207.408821 
L 391.674777 -206.57148 
L 391.786915 -205.734138 
L 391.904603 -204.896796 
L 392.027443 -204.059455 
L 392.154931 -203.222113 
L 392.286435 -202.384771 
L 392.42118 -201.547429 
L 392.558226 -200.710088 
L 392.696466 -199.872746 
L 392.834622 -199.035404 
L 392.971252 -198.198063 
L 393.104781 -197.360721 
L 393.233532 -196.523379 
L 393.355785 -195.686037 
L 393.46984 -194.848696 
L 393.574095 -194.011354 
L 393.667128 -193.174012 
L 393.747786 -192.336671 
L 393.815266 -191.499329 
L 393.869184 -190.661987 
L 393.909639 -189.824645 
L 393.937248 -188.987304 
L 393.953161 -188.149962 
L 393.959052 -187.31262 
L 393.957086 -186.475279 
L 393.949856 -185.637937 
L 393.940302 -184.800595 
L 393.931614 -183.963253 
L 393.927113 -183.125912 
L 393.930136 -182.28857 
L 393.943909 -181.451228 
L 393.971419 -180.613887 
L 394.015306 -179.776545 
L 394.07775 -178.939203 
L 394.160379 -178.101861 
L 394.264191 -177.26452 
L 394.389494 -176.427178 
L 394.535864 -175.589836 
L 394.702129 -174.752495 
L 394.886366 -173.915153 
L 395.085933 -173.077811 
L 395.297512 -172.240469 
L 395.517186 -171.403128 
L 395.74053 -170.565786 
L 395.962731 -169.728444 
L 396.178716 -168.891103 
L 396.383303 -168.053761 
L 396.571351 -167.216419 
L 396.737919 -166.379077 
L 396.878421 -165.541736 
L 396.988766 -164.704394 
L 397.065484 -163.867052 
L 397.105837 -163.029711 
L 397.107892 -162.192369 
L 397.070576 -161.355027 
L 396.993698 -160.517685 
L 396.877942 -159.680344 
L 396.724827 -158.843002 
L 396.536653 -158.00566 
L 396.316411 -157.168319 
L 396.067684 -156.330977 
L 395.794532 -155.493635 
L 395.501369 -154.656293 
L 395.192831 -153.818952 
L 394.873647 -152.98161 
L 394.548519 -152.144268 
L 394.221997 -151.306927 
L 393.898374 -150.469585 
L 393.581599 -149.632243 
L 393.27519 -148.794901 
L 392.982184 -147.95756 
L 392.705091 -147.120218 
L 392.445876 -146.282876 
L 392.205955 -145.445535 
L 391.986213 -144.608193 
L 391.787034 -143.770851 
L 391.608346 -142.933509 
L 391.449676 -142.096168 
L 391.310214 -141.258826 
L 391.188875 -140.421484 
L 391.084374 -139.584143 
L 390.995283 -138.746801 
L 390.920098 -137.909459 
L 390.857289 -137.072117 
z
" id="me5c96f852b" style="stroke:#3d3d3d;stroke-width:1.5;"/>
    </defs>
    <g clip-path="url(#pb5fcccb60b)">
     <use style="fill:#d1d197;stroke:#3d3d3d;stroke-width:1.5;" x="0" xlink:href="#me5c96f852b" y="368.607178"/>
    </g>
   </g>
   <g id="matplotlib.axis_1">
    <g id="xtick_1">
     <g id="line2d_1">
      <defs>
       <path d="M 0 0 
L 0 3.5 
" id="mfcd55d4b05" style="stroke:#000000;stroke-width:0.8;"/>
      </defs>
      <g>
       <use style="stroke:#000000;stroke-width:0.8;" x="73.168125" xlink:href="#mfcd55d4b05" y="288.430125"/>
      </g>
     </g>
     <g id="text_1">
      <!-- aflplusplus -->
      <g transform="translate(25.559118 328.897284)rotate(-30)scale(0.1 -0.1)">
       <defs>
        <path d="M 34.28125 27.484375 
Q 23.390625 27.484375 19.1875 25 
Q 14.984375 22.515625 14.984375 16.5 
Q 14.984375 11.71875 18.140625 8.90625 
Q 21.296875 6.109375 26.703125 6.109375 
Q 34.1875 6.109375 38.703125 11.40625 
Q 43.21875 16.703125 43.21875 25.484375 
L 43.21875 27.484375 
z
M 52.203125 31.203125 
L 52.203125 0 
L 43.21875 0 
L 43.21875 8.296875 
Q 40.140625 3.328125 35.546875 0.953125 
Q 30.953125 -1.421875 24.3125 -1.421875 
Q 15.921875 -1.421875 10.953125 3.296875 
Q 6 8.015625 6 15.921875 
Q 6 25.140625 12.171875 29.828125 
Q 18.359375 34.515625 30.609375 34.515625 
L 43.21875 34.515625 
L 43.21875 35.40625 
Q 43.21875 41.609375 39.140625 45 
Q 35.0625 48.390625 27.6875 48.390625 
Q 23 48.390625 18.546875 47.265625 
Q 14.109375 46.140625 10.015625 43.890625 
L 10.015625 52.203125 
Q 14.9375 54.109375 19.578125 55.046875 
Q 24.21875 56 28.609375 56 
Q 40.484375 56 46.34375 49.84375 
Q 52.203125 43.703125 52.203125 31.203125 
z
" id="DejaVuSans-97"/>
        <path d="M 37.109375 75.984375 
L 37.109375 68.5 
L 28.515625 68.5 
Q 23.6875 68.5 21.796875 66.546875 
Q 19.921875 64.59375 19.921875 59.515625 
L 19.921875 54.6875 
L 34.71875 54.6875 
L 34.71875 47.703125 
L 19.921875 47.703125 
L 19.921875 0 
L 10.890625 0 
L 10.890625 47.703125 
L 2.296875 47.703125 
L 2.296875 54.6875 
L 10.890625 54.6875 
L 10.890625 58.5 
Q 10.890625 67.625 15.140625 71.796875 
Q 19.390625 75.984375 28.609375 75.984375 
z
" id="DejaVuSans-102"/>
        <path d="M 9.421875 75.984375 
L 18.40625 75.984375 
L 18.40625 0 
L 9.421875 0 
z
" id="DejaVuSans-108"/>
        <path d="M 18.109375 8.203125 
L 18.109375 -20.796875 
L 9.078125 -20.796875 
L 9.078125 54.6875 
L 18.109375 54.6875 
L 18.109375 46.390625 
Q 20.953125 51.265625 25.265625 53.625 
Q 29.59375 56 35.59375 56 
Q 45.5625 56 51.78125 48.09375 
Q 58.015625 40.1875 58.015625 27.296875 
Q 58.015625 14.40625 51.78125 6.484375 
Q 45.5625 -1.421875 35.59375 -1.421875 
Q 29.59375 -1.421875 25.265625 0.953125 
Q 20.953125 3.328125 18.109375 8.203125 
z
M 48.6875 27.296875 
Q 48.6875 37.203125 44.609375 42.84375 
Q 40.53125 48.484375 33.40625 48.484375 
Q 26.265625 48.484375 22.1875 42.84375 
Q 18.109375 37.203125 18.109375 27.296875 
Q 18.109375 17.390625 22.1875 11.75 
Q 26.265625 6.109375 33.40625 6.109375 
Q 40.53125 6.109375 44.609375 11.75 
Q 48.6875 17.390625 48.6875 27.296875 
z
" id="DejaVuSans-112"/>
        <path d="M 8.5 21.578125 
L 8.5 54.6875 
L 17.484375 54.6875 
L 17.484375 21.921875 
Q 17.484375 14.15625 20.5 10.265625 
Q 23.53125 6.390625 29.59375 6.390625 
Q 36.859375 6.390625 41.078125 11.03125 
Q 45.3125 15.671875 45.3125 23.6875 
L 45.3125 54.6875 
L 54.296875 54.6875 
L 54.296875 0 
L 45.3125 0 
L 45.3125 8.40625 
Q 42.046875 3.421875 37.71875 1 
Q 33.40625 -1.421875 27.6875 -1.421875 
Q 18.265625 -1.421875 13.375 4.4375 
Q 8.5 10.296875 8.5 21.578125 
z
M 31.109375 56 
z
" id="DejaVuSans-117"/>
        <path d="M 44.28125 53.078125 
L 44.28125 44.578125 
Q 40.484375 46.53125 36.375 47.5 
Q 32.28125 48.484375 27.875 48.484375 
Q 21.1875 48.484375 17.84375 46.4375 
Q 14.5 44.390625 14.5 40.28125 
Q 14.5 37.15625 16.890625 35.375 
Q 19.28125 33.59375 26.515625 31.984375 
L 29.59375 31.296875 
Q 39.15625 29.25 43.1875 25.515625 
Q 47.21875 21.78125 47.21875 15.09375 
Q 47.21875 7.46875 41.1875 3.015625 
Q 35.15625 -1.421875 24.609375 -1.421875 
Q 20.21875 -1.421875 15.453125 -0.5625 
Q 10.6875 0.296875 5.421875 2 
L 5.421875 11.28125 
Q 10.40625 8.6875 15.234375 7.390625 
Q 20.0625 6.109375 24.8125 6.109375 
Q 31.15625 6.109375 34.5625 8.28125 
Q 37.984375 10.453125 37.984375 14.40625 
Q 37.984375 18.0625 35.515625 20.015625 
Q 33.0625 21.96875 24.703125 23.78125 
L 21.578125 24.515625 
Q 13.234375 26.265625 9.515625 29.90625 
Q 5.8125 33.546875 5.8125 39.890625 
Q 5.8125 47.609375 11.28125 51.796875 
Q 16.75 56 26.8125 56 
Q 31.78125 56 36.171875 55.265625 
Q 40.578125 54.546875 44.28125 53.078125 
z
" id="DejaVuSans-115"/>
       </defs>
       <use xlink:href="#DejaVuSans-97"/>
       <use x="61.279297" xlink:href="#DejaVuSans-102"/>
       <use x="96.484375" xlink:href="#DejaVuSans-108"/>
       <use x="124.267578" xlink:href="#DejaVuSans-112"/>
       <use x="187.744141" xlink:href="#DejaVuSans-108"/>
       <use x="215.527344" xlink:href="#DejaVuSans-117"/>
       <use x="278.90625" xlink:href="#DejaVuSans-115"/>
       <use x="331.005859" xlink:href="#DejaVuSans-112"/>
       <use x="394.482422" xlink:href="#DejaVuSans-108"/>
       <use x="422.265625" xlink:href="#DejaVuSans-117"/>
       <use x="485.644531" xlink:href="#DejaVuSans-115"/>
      </g>
     </g>
    </g>
    <g id="xtick_2">
     <g id="line2d_2">
      <g>
       <use style="stroke:#000000;stroke-width:0.8;" x="112.848125" xlink:href="#mfcd55d4b05" y="288.430125"/>
      </g>
     </g>
     <g id="text_2">
      <!-- entropic -->
      <g transform="translate(76.266057 322.530877)rotate(-30)scale(0.1 -0.1)">
       <defs>
        <path d="M 56.203125 29.59375 
L 56.203125 25.203125 
L 14.890625 25.203125 
Q 15.484375 15.921875 20.484375 11.0625 
Q 25.484375 6.203125 34.421875 6.203125 
Q 39.59375 6.203125 44.453125 7.46875 
Q 49.3125 8.734375 54.109375 11.28125 
L 54.109375 2.78125 
Q 49.265625 0.734375 44.1875 -0.34375 
Q 39.109375 -1.421875 33.890625 -1.421875 
Q 20.796875 -1.421875 13.15625 6.1875 
Q 5.515625 13.8125 5.515625 26.8125 
Q 5.515625 40.234375 12.765625 48.109375 
Q 20.015625 56 32.328125 56 
Q 43.359375 56 49.78125 48.890625 
Q 56.203125 41.796875 56.203125 29.59375 
z
M 47.21875 32.234375 
Q 47.125 39.59375 43.09375 43.984375 
Q 39.0625 48.390625 32.421875 48.390625 
Q 24.90625 48.390625 20.390625 44.140625 
Q 15.875 39.890625 15.1875 32.171875 
z
" id="DejaVuSans-101"/>
        <path d="M 54.890625 33.015625 
L 54.890625 0 
L 45.90625 0 
L 45.90625 32.71875 
Q 45.90625 40.484375 42.875 44.328125 
Q 39.84375 48.1875 33.796875 48.1875 
Q 26.515625 48.1875 22.3125 43.546875 
Q 18.109375 38.921875 18.109375 30.90625 
L 18.109375 0 
L 9.078125 0 
L 9.078125 54.6875 
L 18.109375 54.6875 
L 18.109375 46.1875 
Q 21.34375 51.125 25.703125 53.5625 
Q 30.078125 56 35.796875 56 
Q 45.21875 56 50.046875 50.171875 
Q 54.890625 44.34375 54.890625 33.015625 
z
" id="DejaVuSans-110"/>
        <path d="M 18.3125 70.21875 
L 18.3125 54.6875 
L 36.8125 54.6875 
L 36.8125 47.703125 
L 18.3125 47.703125 
L 18.3125 18.015625 
Q 18.3125 11.328125 20.140625 9.421875 
Q 21.96875 7.515625 27.59375 7.515625 
L 36.8125 7.515625 
L 36.8125 0 
L 27.59375 0 
Q 17.1875 0 13.234375 3.875 
Q 9.28125 7.765625 9.28125 18.015625 
L 9.28125 47.703125 
L 2.6875 47.703125 
L 2.6875 54.6875 
L 9.28125 54.6875 
L 9.28125 70.21875 
z
" id="DejaVuSans-116"/>
        <path d="M 41.109375 46.296875 
Q 39.59375 47.171875 37.8125 47.578125 
Q 36.03125 48 33.890625 48 
Q 26.265625 48 22.1875 43.046875 
Q 18.109375 38.09375 18.109375 28.8125 
L 18.109375 0 
L 9.078125 0 
L 9.078125 54.6875 
L 18.109375 54.6875 
L 18.109375 46.1875 
Q 20.953125 51.171875 25.484375 53.578125 
Q 30.03125 56 36.53125 56 
Q 37.453125 56 38.578125 55.875 
Q 39.703125 55.765625 41.0625 55.515625 
z
" id="DejaVuSans-114"/>
        <path d="M 30.609375 48.390625 
Q 23.390625 48.390625 19.1875 42.75 
Q 14.984375 37.109375 14.984375 27.296875 
Q 14.984375 17.484375 19.15625 11.84375 
Q 23.34375 6.203125 30.609375 6.203125 
Q 37.796875 6.203125 41.984375 11.859375 
Q 46.1875 17.53125 46.1875 27.296875 
Q 46.1875 37.015625 41.984375 42.703125 
Q 37.796875 48.390625 30.609375 48.390625 
z
M 30.609375 56 
Q 42.328125 56 49.015625 48.375 
Q 55.71875 40.765625 55.71875 27.296875 
Q 55.71875 13.875 49.015625 6.21875 
Q 42.328125 -1.421875 30.609375 -1.421875 
Q 18.84375 -1.421875 12.171875 6.21875 
Q 5.515625 13.875 5.515625 27.296875 
Q 5.515625 40.765625 12.171875 48.375 
Q 18.84375 56 30.609375 56 
z
" id="DejaVuSans-111"/>
        <path d="M 9.421875 54.6875 
L 18.40625 54.6875 
L 18.40625 0 
L 9.421875 0 
z
M 9.421875 75.984375 
L 18.40625 75.984375 
L 18.40625 64.59375 
L 9.421875 64.59375 
z
" id="DejaVuSans-105"/>
        <path d="M 48.78125 52.59375 
L 48.78125 44.1875 
Q 44.96875 46.296875 41.140625 47.34375 
Q 37.3125 48.390625 33.40625 48.390625 
Q 24.65625 48.390625 19.8125 42.84375 
Q 14.984375 37.3125 14.984375 27.296875 
Q 14.984375 17.28125 19.8125 11.734375 
Q 24.65625 6.203125 33.40625 6.203125 
Q 37.3125 6.203125 41.140625 7.25 
Q 44.96875 8.296875 48.78125 10.40625 
L 48.78125 2.09375 
Q 45.015625 0.34375 40.984375 -0.53125 
Q 36.96875 -1.421875 32.421875 -1.421875 
Q 20.0625 -1.421875 12.78125 6.34375 
Q 5.515625 14.109375 5.515625 27.296875 
Q 5.515625 40.671875 12.859375 48.328125 
Q 20.21875 56 33.015625 56 
Q 37.15625 56 41.109375 55.140625 
Q 45.0625 54.296875 48.78125 52.59375 
z
" id="DejaVuSans-99"/>
       </defs>
       <use xlink:href="#DejaVuSans-101"/>
       <use x="61.523438" xlink:href="#DejaVuSans-110"/>
       <use x="124.902344" xlink:href="#DejaVuSans-116"/>
       <use x="164.111328" xlink:href="#DejaVuSans-114"/>
       <use x="202.974609" xlink:href="#DejaVuSans-111"/>
       <use x="264.15625" xlink:href="#DejaVuSans-112"/>
       <use x="327.632812" xlink:href="#DejaVuSans-105"/>
       <use x="355.416016" xlink:href="#DejaVuSans-99"/>
      </g>
     </g>
    </g>
    <g id="xtick_3">
     <g id="line2d_3">
      <g>
       <use style="stroke:#000000;stroke-width:0.8;" x="152.528125" xlink:href="#mfcd55d4b05" y="288.430125"/>
      </g>
     </g>
     <g id="text_3">
      <!-- libfuzzer -->
      <g transform="translate(114.661904 323.272284)rotate(-30)scale(0.1 -0.1)">
       <defs>
        <path d="M 48.6875 27.296875 
Q 48.6875 37.203125 44.609375 42.84375 
Q 40.53125 48.484375 33.40625 48.484375 
Q 26.265625 48.484375 22.1875 42.84375 
Q 18.109375 37.203125 18.109375 27.296875 
Q 18.109375 17.390625 22.1875 11.75 
Q 26.265625 6.109375 33.40625 6.109375 
Q 40.53125 6.109375 44.609375 11.75 
Q 48.6875 17.390625 48.6875 27.296875 
z
M 18.109375 46.390625 
Q 20.953125 51.265625 25.265625 53.625 
Q 29.59375 56 35.59375 56 
Q 45.5625 56 51.78125 48.09375 
Q 58.015625 40.1875 58.015625 27.296875 
Q 58.015625 14.40625 51.78125 6.484375 
Q 45.5625 -1.421875 35.59375 -1.421875 
Q 29.59375 -1.421875 25.265625 0.953125 
Q 20.953125 3.328125 18.109375 8.203125 
L 18.109375 0 
L 9.078125 0 
L 9.078125 75.984375 
L 18.109375 75.984375 
z
" id="DejaVuSans-98"/>
        <path d="M 5.515625 54.6875 
L 48.1875 54.6875 
L 48.1875 46.484375 
L 14.40625 7.171875 
L 48.1875 7.171875 
L 48.1875 0 
L 4.296875 0 
L 4.296875 8.203125 
L 38.09375 47.515625 
L 5.515625 47.515625 
z
" id="DejaVuSans-122"/>
       </defs>
       <use xlink:href="#DejaVuSans-108"/>
       <use x="27.783203" xlink:href="#DejaVuSans-105"/>
       <use x="55.566406" xlink:href="#DejaVuSans-98"/>
       <use x="119.042969" xlink:href="#DejaVuSans-102"/>
       <use x="154.248047" xlink:href="#DejaVuSans-117"/>
       <use x="217.626953" xlink:href="#DejaVuSans-122"/>
       <use x="270.117188" xlink:href="#DejaVuSans-122"/>
       <use x="322.607422" xlink:href="#DejaVuSans-101"/>
       <use x="384.130859" xlink:href="#DejaVuSans-114"/>
      </g>
     </g>
    </g>
    <g id="xtick_4">
     <g id="line2d_4">
      <g>
       <use style="stroke:#000000;stroke-width:0.8;" x="192.208125" xlink:href="#mfcd55d4b05" y="288.430125"/>
      </g>
     </g>
     <g id="text_4">
      <!-- honggfuzz -->
      <g transform="translate(146.268924 327.933221)rotate(-30)scale(0.1 -0.1)">
       <defs>
        <path d="M 54.890625 33.015625 
L 54.890625 0 
L 45.90625 0 
L 45.90625 32.71875 
Q 45.90625 40.484375 42.875 44.328125 
Q 39.84375 48.1875 33.796875 48.1875 
Q 26.515625 48.1875 22.3125 43.546875 
Q 18.109375 38.921875 18.109375 30.90625 
L 18.109375 0 
L 9.078125 0 
L 9.078125 75.984375 
L 18.109375 75.984375 
L 18.109375 46.1875 
Q 21.34375 51.125 25.703125 53.5625 
Q 30.078125 56 35.796875 56 
Q 45.21875 56 50.046875 50.171875 
Q 54.890625 44.34375 54.890625 33.015625 
z
" id="DejaVuSans-104"/>
        <path d="M 45.40625 27.984375 
Q 45.40625 37.75 41.375 43.109375 
Q 37.359375 48.484375 30.078125 48.484375 
Q 22.859375 48.484375 18.828125 43.109375 
Q 14.796875 37.75 14.796875 27.984375 
Q 14.796875 18.265625 18.828125 12.890625 
Q 22.859375 7.515625 30.078125 7.515625 
Q 37.359375 7.515625 41.375 12.890625 
Q 45.40625 18.265625 45.40625 27.984375 
z
M 54.390625 6.78125 
Q 54.390625 -7.171875 48.1875 -13.984375 
Q 42 -20.796875 29.203125 -20.796875 
Q 24.46875 -20.796875 20.265625 -20.09375 
Q 16.0625 -19.390625 12.109375 -17.921875 
L 12.109375 -9.1875 
Q 16.0625 -11.328125 19.921875 -12.34375 
Q 23.78125 -13.375 27.78125 -13.375 
Q 36.625 -13.375 41.015625 -8.765625 
Q 45.40625 -4.15625 45.40625 5.171875 
L 45.40625 9.625 
Q 42.625 4.78125 38.28125 2.390625 
Q 33.9375 0 27.875 0 
Q 17.828125 0 11.671875 7.65625 
Q 5.515625 15.328125 5.515625 27.984375 
Q 5.515625 40.671875 11.671875 48.328125 
Q 17.828125 56 27.875 56 
Q 33.9375 56 38.28125 53.609375 
Q 42.625 51.21875 45.40625 46.390625 
L 45.40625 54.6875 
L 54.390625 54.6875 
z
" id="DejaVuSans-103"/>
       </defs>
       <use xlink:href="#DejaVuSans-104"/>
       <use x="63.378906" xlink:href="#DejaVuSans-111"/>
       <use x="124.560547" xlink:href="#DejaVuSans-110"/>
       <use x="187.939453" xlink:href="#DejaVuSans-103"/>
       <use x="251.416016" xlink:href="#DejaVuSans-103"/>
       <use x="314.892578" xlink:href="#DejaVuSans-102"/>
       <use x="350.097656" xlink:href="#DejaVuSans-117"/>
       <use x="413.476562" xlink:href="#DejaVuSans-122"/>
       <use x="465.966797" xlink:href="#DejaVuSans-122"/>
      </g>
     </g>
    </g>
    <g id="xtick_5">
     <g id="line2d_5">
      <g>
       <use style="stroke:#000000;stroke-width:0.8;" x="231.888125" xlink:href="#mfcd55d4b05" y="288.430125"/>
      </g>
     </g>
     <g id="text_5">
      <!-- fairfuzz -->
      <g transform="translate(198.89871 320.456659)rotate(-30)scale(0.1 -0.1)">
       <use xlink:href="#DejaVuSans-102"/>
       <use x="35.205078" xlink:href="#DejaVuSans-97"/>
       <use x="96.484375" xlink:href="#DejaVuSans-105"/>
       <use x="124.267578" xlink:href="#DejaVuSans-114"/>
       <use x="165.380859" xlink:href="#DejaVuSans-102"/>
       <use x="200.585938" xlink:href="#DejaVuSans-117"/>
       <use x="263.964844" xlink:href="#DejaVuSans-122"/>
       <use x="316.455078" xlink:href="#DejaVuSans-122"/>
      </g>
     </g>
    </g>
    <g id="xtick_6">
     <g id="line2d_6">
      <g>
       <use style="stroke:#000000;stroke-width:0.8;" x="271.568125" xlink:href="#mfcd55d4b05" y="288.430125"/>
      </g>
     </g>
     <g id="text_6">
      <!-- aflplusplus_qemu -->
      <g transform="translate(194.739193 345.687127)rotate(-30)scale(0.1 -0.1)">
       <defs>
        <path d="M 50.984375 -16.609375 
L 50.984375 -23.578125 
L -0.984375 -23.578125 
L -0.984375 -16.609375 
z
" id="DejaVuSans-95"/>
        <path d="M 14.796875 27.296875 
Q 14.796875 17.390625 18.875 11.75 
Q 22.953125 6.109375 30.078125 6.109375 
Q 37.203125 6.109375 41.296875 11.75 
Q 45.40625 17.390625 45.40625 27.296875 
Q 45.40625 37.203125 41.296875 42.84375 
Q 37.203125 48.484375 30.078125 48.484375 
Q 22.953125 48.484375 18.875 42.84375 
Q 14.796875 37.203125 14.796875 27.296875 
z
M 45.40625 8.203125 
Q 42.578125 3.328125 38.25 0.953125 
Q 33.9375 -1.421875 27.875 -1.421875 
Q 17.96875 -1.421875 11.734375 6.484375 
Q 5.515625 14.40625 5.515625 27.296875 
Q 5.515625 40.1875 11.734375 48.09375 
Q 17.96875 56 27.875 56 
Q 33.9375 56 38.25 53.625 
Q 42.578125 51.265625 45.40625 46.390625 
L 45.40625 54.6875 
L 54.390625 54.6875 
L 54.390625 -20.796875 
L 45.40625 -20.796875 
z
" id="DejaVuSans-113"/>
        <path d="M 52 44.1875 
Q 55.375 50.25 60.0625 53.125 
Q 64.75 56 71.09375 56 
Q 79.640625 56 84.28125 50.015625 
Q 88.921875 44.046875 88.921875 33.015625 
L 88.921875 0 
L 79.890625 0 
L 79.890625 32.71875 
Q 79.890625 40.578125 77.09375 44.375 
Q 74.3125 48.1875 68.609375 48.1875 
Q 61.625 48.1875 57.5625 43.546875 
Q 53.515625 38.921875 53.515625 30.90625 
L 53.515625 0 
L 44.484375 0 
L 44.484375 32.71875 
Q 44.484375 40.625 41.703125 44.40625 
Q 38.921875 48.1875 33.109375 48.1875 
Q 26.21875 48.1875 22.15625 43.53125 
Q 18.109375 38.875 18.109375 30.90625 
L 18.109375 0 
L 9.078125 0 
L 9.078125 54.6875 
L 18.109375 54.6875 
L 18.109375 46.1875 
Q 21.1875 51.21875 25.484375 53.609375 
Q 29.78125 56 35.6875 56 
Q 41.65625 56 45.828125 52.96875 
Q 50 49.953125 52 44.1875 
z
" id="DejaVuSans-109"/>
       </defs>
       <use xlink:href="#DejaVuSans-97"/>
       <use x="61.279297" xlink:href="#DejaVuSans-102"/>
       <use x="96.484375" xlink:href="#DejaVuSans-108"/>
       <use x="124.267578" xlink:href="#DejaVuSans-112"/>
       <use x="187.744141" xlink:href="#DejaVuSans-108"/>
       <use x="215.527344" xlink:href="#DejaVuSans-117"/>
       <use x="278.90625" xlink:href="#DejaVuSans-115"/>
       <use x="331.005859" xlink:href="#DejaVuSans-112"/>
       <use x="394.482422" xlink:href="#DejaVuSans-108"/>
       <use x="422.265625" xlink:href="#DejaVuSans-117"/>
       <use x="485.644531" xlink:href="#DejaVuSans-115"/>
       <use x="537.744141" xlink:href="#DejaVuSans-95"/>
       <use x="587.744141" xlink:href="#DejaVuSans-113"/>
       <use x="651.220703" xlink:href="#DejaVuSans-101"/>
       <use x="712.744141" xlink:href="#DejaVuSans-109"/>
       <use x="810.15625" xlink:href="#DejaVuSans-117"/>
      </g>
     </g>
    </g>
    <g id="xtick_7">
     <g id="line2d_7">
      <g>
       <use style="stroke:#000000;stroke-width:0.8;" x="311.248125" xlink:href="#mfcd55d4b05" y="288.430125"/>
      </g>
     </g>
     <g id="text_7">
      <!-- mopt -->
      <g transform="translate(287.580661 315.074627)rotate(-30)scale(0.1 -0.1)">
       <use xlink:href="#DejaVuSans-109"/>
       <use x="97.412109" xlink:href="#DejaVuSans-111"/>
       <use x="158.59375" xlink:href="#DejaVuSans-112"/>
       <use x="222.070312" xlink:href="#DejaVuSans-116"/>
      </g>
     </g>
    </g>
    <g id="xtick_8">
     <g id="line2d_8">
      <g>
       <use style="stroke:#000000;stroke-width:0.8;" x="350.928125" xlink:href="#mfcd55d4b05" y="288.430125"/>
      </g>
     </g>
     <g id="text_8">
      <!-- aflplusplus_flat -->
      <g transform="translate(284.69312 339.570721)rotate(-30)scale(0.1 -0.1)">
       <use xlink:href="#DejaVuSans-97"/>
       <use x="61.279297" xlink:href="#DejaVuSans-102"/>
       <use x="96.484375" xlink:href="#DejaVuSans-108"/>
       <use x="124.267578" xlink:href="#DejaVuSans-112"/>
       <use x="187.744141" xlink:href="#DejaVuSans-108"/>
       <use x="215.527344" xlink:href="#DejaVuSans-117"/>
       <use x="278.90625" xlink:href="#DejaVuSans-115"/>
       <use x="331.005859" xlink:href="#DejaVuSans-112"/>
       <use x="394.482422" xlink:href="#DejaVuSans-108"/>
       <use x="422.265625" xlink:href="#DejaVuSans-117"/>
       <use x="485.644531" xlink:href="#DejaVuSans-115"/>
       <use x="537.744141" xlink:href="#DejaVuSans-95"/>
       <use x="587.744141" xlink:href="#DejaVuSans-102"/>
       <use x="622.949219" xlink:href="#DejaVuSans-108"/>
       <use x="650.732422" xlink:href="#DejaVuSans-97"/>
       <use x="712.011719" xlink:href="#DejaVuSans-116"/>
      </g>
     </g>
    </g>
    <g id="xtick_9">
     <g id="line2d_9">
      <g>
       <use style="stroke:#000000;stroke-width:0.8;" x="390.608125" xlink:href="#mfcd55d4b05" y="288.430125"/>
      </g>
     </g>
     <g id="text_9">
      <!-- lafintel -->
      <g transform="translate(359.78242 319.20744)rotate(-30)scale(0.1 -0.1)">
       <use xlink:href="#DejaVuSans-108"/>
       <use x="27.783203" xlink:href="#DejaVuSans-97"/>
       <use x="89.0625" xlink:href="#DejaVuSans-102"/>
       <use x="124.267578" xlink:href="#DejaVuSans-105"/>
       <use x="152.050781" xlink:href="#DejaVuSans-110"/>
       <use x="215.429688" xlink:href="#DejaVuSans-116"/>
       <use x="254.638672" xlink:href="#DejaVuSans-101"/>
       <use x="316.162109" xlink:href="#DejaVuSans-108"/>
      </g>
     </g>
    </g>
    <g id="text_10">
     <!-- Fuzzer (highest median coverage on the left) -->
     <g transform="translate(119.270156 359.32749)scale(0.1 -0.1)">
      <defs>
       <path d="M 9.8125 72.90625 
L 51.703125 72.90625 
L 51.703125 64.59375 
L 19.671875 64.59375 
L 19.671875 43.109375 
L 48.578125 43.109375 
L 48.578125 34.8125 
L 19.671875 34.8125 
L 19.671875 0 
L 9.8125 0 
z
" id="DejaVuSans-70"/>
       <path id="DejaVuSans-32"/>
       <path d="M 31 75.875 
Q 24.46875 64.65625 21.28125 53.65625 
Q 18.109375 42.671875 18.109375 31.390625 
Q 18.109375 20.125 21.3125 9.0625 
Q 24.515625 -2 31 -13.1875 
L 23.1875 -13.1875 
Q 15.875 -1.703125 12.234375 9.375 
Q 8.59375 20.453125 8.59375 31.390625 
Q 8.59375 42.28125 12.203125 53.3125 
Q 15.828125 64.359375 23.1875 75.875 
z
" id="DejaVuSans-40"/>
       <path d="M 45.40625 46.390625 
L 45.40625 75.984375 
L 54.390625 75.984375 
L 54.390625 0 
L 45.40625 0 
L 45.40625 8.203125 
Q 42.578125 3.328125 38.25 0.953125 
Q 33.9375 -1.421875 27.875 -1.421875 
Q 17.96875 -1.421875 11.734375 6.484375 
Q 5.515625 14.40625 5.515625 27.296875 
Q 5.515625 40.1875 11.734375 48.09375 
Q 17.96875 56 27.875 56 
Q 33.9375 56 38.25 53.625 
Q 42.578125 51.265625 45.40625 46.390625 
z
M 14.796875 27.296875 
Q 14.796875 17.390625 18.875 11.75 
Q 22.953125 6.109375 30.078125 6.109375 
Q 37.203125 6.109375 41.296875 11.75 
Q 45.40625 17.390625 45.40625 27.296875 
Q 45.40625 37.203125 41.296875 42.84375 
Q 37.203125 48.484375 30.078125 48.484375 
Q 22.953125 48.484375 18.875 42.84375 
Q 14.796875 37.203125 14.796875 27.296875 
z
" id="DejaVuSans-100"/>
       <path d="M 2.984375 54.6875 
L 12.5 54.6875 
L 29.59375 8.796875 
L 46.6875 54.6875 
L 56.203125 54.6875 
L 35.6875 0 
L 23.484375 0 
z
" id="DejaVuSans-118"/>
       <path d="M 8.015625 75.875 
L 15.828125 75.875 
Q 23.140625 64.359375 26.78125 53.3125 
Q 30.421875 42.28125 30.421875 31.390625 
Q 30.421875 20.453125 26.78125 9.375 
Q 23.140625 -1.703125 15.828125 -13.1875 
L 8.015625 -13.1875 
Q 14.5 -2 17.703125 9.0625 
Q 20.90625 20.125 20.90625 31.390625 
Q 20.90625 42.671875 17.703125 53.65625 
Q 14.5 64.65625 8.015625 75.875 
z
" id="DejaVuSans-41"/>
      </defs>
      <use xlink:href="#DejaVuSans-70"/>
      <use x="52.019531" xlink:href="#DejaVuSans-117"/>
      <use x="115.398438" xlink:href="#DejaVuSans-122"/>
      <use x="167.888672" xlink:href="#DejaVuSans-122"/>
      <use x="220.378906" xlink:href="#DejaVuSans-101"/>
      <use x="281.902344" xlink:href="#DejaVuSans-114"/>
      <use x="323.015625" xlink:href="#DejaVuSans-32"/>
      <use x="354.802734" xlink:href="#DejaVuSans-40"/>
      <use x="393.816406" xlink:href="#DejaVuSans-104"/>
      <use x="457.195312" xlink:href="#DejaVuSans-105"/>
      <use x="484.978516" xlink:href="#DejaVuSans-103"/>
      <use x="548.455078" xlink:href="#DejaVuSans-104"/>
      <use x="611.833984" xlink:href="#DejaVuSans-101"/>
      <use x="673.357422" xlink:href="#DejaVuSans-115"/>
      <use x="725.457031" xlink:href="#DejaVuSans-116"/>
      <use x="764.666016" xlink:href="#DejaVuSans-32"/>
      <use x="796.453125" xlink:href="#DejaVuSans-109"/>
      <use x="893.865234" xlink:href="#DejaVuSans-101"/>
      <use x="955.388672" xlink:href="#DejaVuSans-100"/>
      <use x="1018.865234" xlink:href="#DejaVuSans-105"/>
      <use x="1046.648438" xlink:href="#DejaVuSans-97"/>
      <use x="1107.927734" xlink:href="#DejaVuSans-110"/>
      <use x="1171.306641" xlink:href="#DejaVuSans-32"/>
      <use x="1203.09375" xlink:href="#DejaVuSans-99"/>
      <use x="1258.074219" xlink:href="#DejaVuSans-111"/>
      <use x="1319.255859" xlink:href="#DejaVuSans-118"/>
      <use x="1378.435547" xlink:href="#DejaVuSans-101"/>
      <use x="1439.958984" xlink:href="#DejaVuSans-114"/>
      <use x="1481.072266" xlink:href="#DejaVuSans-97"/>
      <use x="1542.351562" xlink:href="#DejaVuSans-103"/>
      <use x="1605.828125" xlink:href="#DejaVuSans-101"/>
      <use x="1667.351562" xlink:href="#DejaVuSans-32"/>
      <use x="1699.138672" xlink:href="#DejaVuSans-111"/>
      <use x="1760.320312" xlink:href="#DejaVuSans-110"/>
      <use x="1823.699219" xlink:href="#DejaVuSans-32"/>
      <use x="1855.486328" xlink:href="#DejaVuSans-116"/>
      <use x="1894.695312" xlink:href="#DejaVuSans-104"/>
      <use x="1958.074219" xlink:href="#DejaVuSans-101"/>
      <use x="2019.597656" xlink:href="#DejaVuSans-32"/>
      <use x="2051.384766" xlink:href="#DejaVuSans-108"/>
      <use x="2079.167969" xlink:href="#DejaVuSans-101"/>
      <use x="2140.691406" xlink:href="#DejaVuSans-102"/>
      <use x="2174.146484" xlink:href="#DejaVuSans-116"/>
      <use x="2213.355469" xlink:href="#DejaVuSans-41"/>
     </g>
    </g>
   </g>
   <g id="matplotlib.axis_2">
    <g id="ytick_1">
     <g id="line2d_10">
      <defs>
       <path d="M 0 0 
L -3.5 0 
" id="m3f18a9a7a1" style="stroke:#000000;stroke-width:0.8;"/>
      </defs>
      <g>
       <use style="stroke:#000000;stroke-width:0.8;" x="53.328125" xlink:href="#m3f18a9a7a1" y="261.367128"/>
      </g>
     </g>
     <g id="text_11">
      <!-- 8000 -->
      <g transform="translate(20.878125 265.166347)scale(0.1 -0.1)">
       <defs>
        <path d="M 31.78125 34.625 
Q 24.75 34.625 20.71875 30.859375 
Q 16.703125 27.09375 16.703125 20.515625 
Q 16.703125 13.921875 20.71875 10.15625 
Q 24.75 6.390625 31.78125 6.390625 
Q 38.8125 6.390625 42.859375 10.171875 
Q 46.921875 13.96875 46.921875 20.515625 
Q 46.921875 27.09375 42.890625 30.859375 
Q 38.875 34.625 31.78125 34.625 
z
M 21.921875 38.8125 
Q 15.578125 40.375 12.03125 44.71875 
Q 8.5 49.078125 8.5 55.328125 
Q 8.5 64.0625 14.71875 69.140625 
Q 20.953125 74.21875 31.78125 74.21875 
Q 42.671875 74.21875 48.875 69.140625 
Q 55.078125 64.0625 55.078125 55.328125 
Q 55.078125 49.078125 51.53125 44.71875 
Q 48 40.375 41.703125 38.8125 
Q 48.828125 37.15625 52.796875 32.3125 
Q 56.78125 27.484375 56.78125 20.515625 
Q 56.78125 9.90625 50.3125 4.234375 
Q 43.84375 -1.421875 31.78125 -1.421875 
Q 19.734375 -1.421875 13.25 4.234375 
Q 6.78125 9.90625 6.78125 20.515625 
Q 6.78125 27.484375 10.78125 32.3125 
Q 14.796875 37.15625 21.921875 38.8125 
z
M 18.3125 54.390625 
Q 18.3125 48.734375 21.84375 45.5625 
Q 25.390625 42.390625 31.78125 42.390625 
Q 38.140625 42.390625 41.71875 45.5625 
Q 45.3125 48.734375 45.3125 54.390625 
Q 45.3125 60.0625 41.71875 63.234375 
Q 38.140625 66.40625 31.78125 66.40625 
Q 25.390625 66.40625 21.84375 63.234375 
Q 18.3125 60.0625 18.3125 54.390625 
z
" id="DejaVuSans-56"/>
        <path d="M 31.78125 66.40625 
Q 24.171875 66.40625 20.328125 58.90625 
Q 16.5 51.421875 16.5 36.375 
Q 16.5 21.390625 20.328125 13.890625 
Q 24.171875 6.390625 31.78125 6.390625 
Q 39.453125 6.390625 43.28125 13.890625 
Q 47.125 21.390625 47.125 36.375 
Q 47.125 51.421875 43.28125 58.90625 
Q 39.453125 66.40625 31.78125 66.40625 
z
M 31.78125 74.21875 
Q 44.046875 74.21875 50.515625 64.515625 
Q 56.984375 54.828125 56.984375 36.375 
Q 56.984375 17.96875 50.515625 8.265625 
Q 44.046875 -1.421875 31.78125 -1.421875 
Q 19.53125 -1.421875 13.0625 8.265625 
Q 6.59375 17.96875 6.59375 36.375 
Q 6.59375 54.828125 13.0625 64.515625 
Q 19.53125 74.21875 31.78125 74.21875 
z
" id="DejaVuSans-48"/>
       </defs>
       <use xlink:href="#DejaVuSans-56"/>
       <use x="63.623047" xlink:href="#DejaVuSans-48"/>
       <use x="127.246094" xlink:href="#DejaVuSans-48"/>
       <use x="190.869141" xlink:href="#DejaVuSans-48"/>
      </g>
     </g>
    </g>
    <g id="ytick_2">
     <g id="line2d_11">
      <g>
       <use style="stroke:#000000;stroke-width:0.8;" x="53.328125" xlink:href="#m3f18a9a7a1" y="226.425715"/>
      </g>
     </g>
     <g id="text_12">
      <!-- 8200 -->
      <g transform="translate(20.878125 230.224934)scale(0.1 -0.1)">
       <defs>
        <path d="M 19.1875 8.296875 
L 53.609375 8.296875 
L 53.609375 0 
L 7.328125 0 
L 7.328125 8.296875 
Q 12.9375 14.109375 22.625 23.890625 
Q 32.328125 33.6875 34.8125 36.53125 
Q 39.546875 41.84375 41.421875 45.53125 
Q 43.3125 49.21875 43.3125 52.78125 
Q 43.3125 58.59375 39.234375 62.25 
Q 35.15625 65.921875 28.609375 65.921875 
Q 23.96875 65.921875 18.8125 64.3125 
Q 13.671875 62.703125 7.8125 59.421875 
L 7.8125 69.390625 
Q 13.765625 71.78125 18.9375 73 
Q 24.125 74.21875 28.421875 74.21875 
Q 39.75 74.21875 46.484375 68.546875 
Q 53.21875 62.890625 53.21875 53.421875 
Q 53.21875 48.921875 51.53125 44.890625 
Q 49.859375 40.875 45.40625 35.40625 
Q 44.1875 33.984375 37.640625 27.21875 
Q 31.109375 20.453125 19.1875 8.296875 
z
" id="DejaVuSans-50"/>
       </defs>
       <use xlink:href="#DejaVuSans-56"/>
       <use x="63.623047" xlink:href="#DejaVuSans-50"/>
       <use x="127.246094" xlink:href="#DejaVuSans-48"/>
       <use x="190.869141" xlink:href="#DejaVuSans-48"/>
      </g>
     </g>
    </g>
    <g id="ytick_3">
     <g id="line2d_12">
      <g>
       <use style="stroke:#000000;stroke-width:0.8;" x="53.328125" xlink:href="#m3f18a9a7a1" y="191.484302"/>
      </g>
     </g>
     <g id="text_13">
      <!-- 8400 -->
      <g transform="translate(20.878125 195.283521)scale(0.1 -0.1)">
       <defs>
        <path d="M 37.796875 64.3125 
L 12.890625 25.390625 
L 37.796875 25.390625 
z
M 35.203125 72.90625 
L 47.609375 72.90625 
L 47.609375 25.390625 
L 58.015625 25.390625 
L 58.015625 17.1875 
L 47.609375 17.1875 
L 47.609375 0 
L 37.796875 0 
L 37.796875 17.1875 
L 4.890625 17.1875 
L 4.890625 26.703125 
z
" id="DejaVuSans-52"/>
       </defs>
       <use xlink:href="#DejaVuSans-56"/>
       <use x="63.623047" xlink:href="#DejaVuSans-52"/>
       <use x="127.246094" xlink:href="#DejaVuSans-48"/>
       <use x="190.869141" xlink:href="#DejaVuSans-48"/>
      </g>
     </g>
    </g>
    <g id="ytick_4">
     <g id="line2d_13">
      <g>
       <use style="stroke:#000000;stroke-width:0.8;" x="53.328125" xlink:href="#m3f18a9a7a1" y="156.542889"/>
      </g>
     </g>
     <g id="text_14">
      <!-- 8600 -->
      <g transform="translate(20.878125 160.342108)scale(0.1 -0.1)">
       <defs>
        <path d="M 33.015625 40.375 
Q 26.375 40.375 22.484375 35.828125 
Q 18.609375 31.296875 18.609375 23.390625 
Q 18.609375 15.53125 22.484375 10.953125 
Q 26.375 6.390625 33.015625 6.390625 
Q 39.65625 6.390625 43.53125 10.953125 
Q 47.40625 15.53125 47.40625 23.390625 
Q 47.40625 31.296875 43.53125 35.828125 
Q 39.65625 40.375 33.015625 40.375 
z
M 52.59375 71.296875 
L 52.59375 62.3125 
Q 48.875 64.0625 45.09375 64.984375 
Q 41.3125 65.921875 37.59375 65.921875 
Q 27.828125 65.921875 22.671875 59.328125 
Q 17.53125 52.734375 16.796875 39.40625 
Q 19.671875 43.65625 24.015625 45.921875 
Q 28.375 48.1875 33.59375 48.1875 
Q 44.578125 48.1875 50.953125 41.515625 
Q 57.328125 34.859375 57.328125 23.390625 
Q 57.328125 12.15625 50.6875 5.359375 
Q 44.046875 -1.421875 33.015625 -1.421875 
Q 20.359375 -1.421875 13.671875 8.265625 
Q 6.984375 17.96875 6.984375 36.375 
Q 6.984375 53.65625 15.1875 63.9375 
Q 23.390625 74.21875 37.203125 74.21875 
Q 40.921875 74.21875 44.703125 73.484375 
Q 48.484375 72.75 52.59375 71.296875 
z
" id="DejaVuSans-54"/>
       </defs>
       <use xlink:href="#DejaVuSans-56"/>
       <use x="63.623047" xlink:href="#DejaVuSans-54"/>
       <use x="127.246094" xlink:href="#DejaVuSans-48"/>
       <use x="190.869141" xlink:href="#DejaVuSans-48"/>
      </g>
     </g>
    </g>
    <g id="ytick_5">
     <g id="line2d_14">
      <g>
       <use style="stroke:#000000;stroke-width:0.8;" x="53.328125" xlink:href="#m3f18a9a7a1" y="121.601476"/>
      </g>
     </g>
     <g id="text_15">
      <!-- 8800 -->
      <g transform="translate(20.878125 125.400695)scale(0.1 -0.1)">
       <use xlink:href="#DejaVuSans-56"/>
       <use x="63.623047" xlink:href="#DejaVuSans-56"/>
       <use x="127.246094" xlink:href="#DejaVuSans-48"/>
       <use x="190.869141" xlink:href="#DejaVuSans-48"/>
      </g>
     </g>
    </g>
    <g id="ytick_6">
     <g id="line2d_15">
      <g>
       <use style="stroke:#000000;stroke-width:0.8;" x="53.328125" xlink:href="#m3f18a9a7a1" y="86.660063"/>
      </g>
     </g>
     <g id="text_16">
      <!-- 9000 -->
      <g transform="translate(20.878125 90.459282)scale(0.1 -0.1)">
       <defs>
        <path d="M 10.984375 1.515625 
L 10.984375 10.5 
Q 14.703125 8.734375 18.5 7.8125 
Q 22.3125 6.890625 25.984375 6.890625 
Q 35.75 6.890625 40.890625 13.453125 
Q 46.046875 20.015625 46.78125 33.40625 
Q 43.953125 29.203125 39.59375 26.953125 
Q 35.25 24.703125 29.984375 24.703125 
Q 19.046875 24.703125 12.671875 31.3125 
Q 6.296875 37.9375 6.296875 49.421875 
Q 6.296875 60.640625 12.9375 67.421875 
Q 19.578125 74.21875 30.609375 74.21875 
Q 43.265625 74.21875 49.921875 64.515625 
Q 56.59375 54.828125 56.59375 36.375 
Q 56.59375 19.140625 48.40625 8.859375 
Q 40.234375 -1.421875 26.421875 -1.421875 
Q 22.703125 -1.421875 18.890625 -0.6875 
Q 15.09375 0.046875 10.984375 1.515625 
z
M 30.609375 32.421875 
Q 37.25 32.421875 41.125 36.953125 
Q 45.015625 41.5 45.015625 49.421875 
Q 45.015625 57.28125 41.125 61.84375 
Q 37.25 66.40625 30.609375 66.40625 
Q 23.96875 66.40625 20.09375 61.84375 
Q 16.21875 57.28125 16.21875 49.421875 
Q 16.21875 41.5 20.09375 36.953125 
Q 23.96875 32.421875 30.609375 32.421875 
z
" id="DejaVuSans-57"/>
       </defs>
       <use xlink:href="#DejaVuSans-57"/>
       <use x="63.623047" xlink:href="#DejaVuSans-48"/>
       <use x="127.246094" xlink:href="#DejaVuSans-48"/>
       <use x="190.869141" xlink:href="#DejaVuSans-48"/>
      </g>
     </g>
    </g>
    <g id="ytick_7">
     <g id="line2d_16">
      <g>
       <use style="stroke:#000000;stroke-width:0.8;" x="53.328125" xlink:href="#m3f18a9a7a1" y="51.71865"/>
      </g>
     </g>
     <g id="text_17">
      <!-- 9200 -->
      <g transform="translate(20.878125 55.517869)scale(0.1 -0.1)">
       <use xlink:href="#DejaVuSans-57"/>
       <use x="63.623047" xlink:href="#DejaVuSans-50"/>
       <use x="127.246094" xlink:href="#DejaVuSans-48"/>
       <use x="190.869141" xlink:href="#DejaVuSans-48"/>
      </g>
     </g>
    </g>
    <g id="text_18">
     <!-- Reached region coverage -->
     <g transform="translate(14.798438 219.136625)rotate(-90)scale(0.1 -0.1)">
      <defs>
       <path d="M 44.390625 34.1875 
Q 47.5625 33.109375 50.5625 29.59375 
Q 53.5625 26.078125 56.59375 19.921875 
L 66.609375 0 
L 56 0 
L 46.6875 18.703125 
Q 43.0625 26.03125 39.671875 28.421875 
Q 36.28125 30.8125 30.421875 30.8125 
L 19.671875 30.8125 
L 19.671875 0 
L 9.8125 0 
L 9.8125 72.90625 
L 32.078125 72.90625 
Q 44.578125 72.90625 50.734375 67.671875 
Q 56.890625 62.453125 56.890625 51.90625 
Q 56.890625 45.015625 53.6875 40.46875 
Q 50.484375 35.9375 44.390625 34.1875 
z
M 19.671875 64.796875 
L 19.671875 38.921875 
L 32.078125 38.921875 
Q 39.203125 38.921875 42.84375 42.21875 
Q 46.484375 45.515625 46.484375 51.90625 
Q 46.484375 58.296875 42.84375 61.546875 
Q 39.203125 64.796875 32.078125 64.796875 
z
" id="DejaVuSans-82"/>
      </defs>
      <use xlink:href="#DejaVuSans-82"/>
      <use x="64.982422" xlink:href="#DejaVuSans-101"/>
      <use x="126.505859" xlink:href="#DejaVuSans-97"/>
      <use x="187.785156" xlink:href="#DejaVuSans-99"/>
      <use x="242.765625" xlink:href="#DejaVuSans-104"/>
      <use x="306.144531" xlink:href="#DejaVuSans-101"/>
      <use x="367.667969" xlink:href="#DejaVuSans-100"/>
      <use x="431.144531" xlink:href="#DejaVuSans-32"/>
      <use x="462.931641" xlink:href="#DejaVuSans-114"/>
      <use x="501.794922" xlink:href="#DejaVuSans-101"/>
      <use x="563.318359" xlink:href="#DejaVuSans-103"/>
      <use x="626.794922" xlink:href="#DejaVuSans-105"/>
      <use x="654.578125" xlink:href="#DejaVuSans-111"/>
      <use x="715.759766" xlink:href="#DejaVuSans-110"/>
      <use x="779.138672" xlink:href="#DejaVuSans-32"/>
      <use x="810.925781" xlink:href="#DejaVuSans-99"/>
      <use x="865.90625" xlink:href="#DejaVuSans-111"/>
      <use x="927.087891" xlink:href="#DejaVuSans-118"/>
      <use x="986.267578" xlink:href="#DejaVuSans-101"/>
      <use x="1047.791016" xlink:href="#DejaVuSans-114"/>
      <use x="1088.904297" xlink:href="#DejaVuSans-97"/>
      <use x="1150.183594" xlink:href="#DejaVuSans-103"/>
      <use x="1213.660156" xlink:href="#DejaVuSans-101"/>
     </g>
    </g>
   </g>
   <g id="line2d_17">
    <path clip-path="url(#pb5fcccb60b)" d="M 73.168125 119.504991 
L 73.168125 90.328911 
" style="fill:none;stroke:#3d3d3d;stroke-linecap:square;stroke-width:1.5;"/>
   </g>
   <g id="line2d_18">
    <path clip-path="url(#pb5fcccb60b)" d="M 73.168125 117.059092 
L 73.168125 103.781355 
" style="fill:none;stroke:#3d3d3d;stroke-linecap:square;stroke-width:4.5;"/>
   </g>
   <g id="line2d_19">
    <path clip-path="url(#pb5fcccb60b)" d="M 112.848125 138.722768 
L 112.848125 122.999132 
" style="fill:none;stroke:#3d3d3d;stroke-linecap:square;stroke-width:1.5;"/>
   </g>
   <g id="line2d_20">
    <path clip-path="url(#pb5fcccb60b)" d="M 112.848125 135.665395 
L 112.848125 128.589759 
" style="fill:none;stroke:#3d3d3d;stroke-linecap:square;stroke-width:4.5;"/>
   </g>
   <g id="line2d_21">
    <path clip-path="url(#pb5fcccb60b)" d="M 152.528125 164.754121 
L 152.528125 137.849233 
" style="fill:none;stroke:#3d3d3d;stroke-linecap:square;stroke-width:1.5;"/>
   </g>
   <g id="line2d_22">
    <path clip-path="url(#pb5fcccb60b)" d="M 152.528125 152.524627 
L 152.528125 143.70192 
" style="fill:none;stroke:#3d3d3d;stroke-linecap:square;stroke-width:4.5;"/>
   </g>
   <g id="line2d_23">
    <path clip-path="url(#pb5fcccb60b)" d="M 192.208125 168.248262 
L 192.208125 151.12697 
" style="fill:none;stroke:#3d3d3d;stroke-linecap:square;stroke-width:1.5;"/>
   </g>
   <g id="line2d_24">
    <path clip-path="url(#pb5fcccb60b)" d="M 192.208125 162.220869 
L 192.208125 157.023334 
" style="fill:none;stroke:#3d3d3d;stroke-linecap:square;stroke-width:4.5;"/>
   </g>
   <g id="line2d_25">
    <path clip-path="url(#pb5fcccb60b)" d="M 231.888125 218.738604 
L 231.888125 150.428142 
" style="fill:none;stroke:#3d3d3d;stroke-linecap:square;stroke-width:1.5;"/>
   </g>
   <g id="line2d_26">
    <path clip-path="url(#pb5fcccb60b)" d="M 231.888125 188.470605 
L 231.888125 165.627656 
" style="fill:none;stroke:#3d3d3d;stroke-linecap:square;stroke-width:4.5;"/>
   </g>
   <g id="line2d_27">
    <path clip-path="url(#pb5fcccb60b)" d="M 271.568125 214.370928 
L 271.568125 127.541516 
" style="fill:none;stroke:#3d3d3d;stroke-linecap:square;stroke-width:1.5;"/>
   </g>
   <g id="line2d_28">
    <path clip-path="url(#pb5fcccb60b)" d="M 271.568125 196.812868 
L 271.568125 165.103535 
" style="fill:none;stroke:#3d3d3d;stroke-linecap:square;stroke-width:4.5;"/>
   </g>
   <g id="line2d_29">
    <path clip-path="url(#pb5fcccb60b)" d="M 311.248125 209.304423 
L 311.248125 165.627656 
" style="fill:none;stroke:#3d3d3d;stroke-linecap:square;stroke-width:1.5;"/>
   </g>
   <g id="line2d_30">
    <path clip-path="url(#pb5fcccb60b)" d="M 311.248125 204.281595 
L 311.248125 174.275656 
" style="fill:none;stroke:#3d3d3d;stroke-linecap:square;stroke-width:4.5;"/>
   </g>
   <g id="line2d_31">
    <path clip-path="url(#pb5fcccb60b)" d="M 350.928125 206.50911 
L 350.928125 192.357838 
" style="fill:none;stroke:#3d3d3d;stroke-linecap:square;stroke-width:1.5;"/>
   </g>
   <g id="line2d_32">
    <path clip-path="url(#pb5fcccb60b)" d="M 350.928125 202.665554 
L 350.928125 196.725514 
" style="fill:none;stroke:#3d3d3d;stroke-linecap:square;stroke-width:4.5;"/>
   </g>
   <g id="line2d_33">
    <path clip-path="url(#pb5fcccb60b)" d="M 390.608125 214.895049 
L 390.608125 165.278242 
" style="fill:none;stroke:#3d3d3d;stroke-linecap:square;stroke-width:1.5;"/>
   </g>
   <g id="line2d_34">
    <path clip-path="url(#pb5fcccb60b)" d="M 390.608125 207.338968 
L 390.608125 181.132909 
" style="fill:none;stroke:#3d3d3d;stroke-linecap:square;stroke-width:4.5;"/>
   </g>
   <g id="patch_3">
    <path d="M 53.328125 261.367128 
L 53.328125 51.71865 
" style="fill:none;stroke:#000000;stroke-linecap:square;stroke-linejoin:miter;stroke-width:0.8;"/>
   </g>
   <g id="patch_4">
    <path d="M 73.168125 288.430125 
L 390.608125 288.430125 
" style="fill:none;stroke:#000000;stroke-linecap:square;stroke-linejoin:miter;stroke-width:0.8;"/>
   </g>
   <g id="PathCollection_1">
    <defs>
     <path d="M 0 1.5 
C 0.397805 1.5 0.77937 1.341951 1.06066 1.06066 
C 1.341951 0.77937 1.5 0.397805 1.5 0 
C 1.5 -0.397805 1.341951 -0.77937 1.06066 -1.06066 
C 0.77937 -1.341951 0.397805 -1.5 0 -1.5 
C -0.397805 -1.5 -0.77937 -1.341951 -1.06066 -1.06066 
C -1.341951 -0.77937 -1.5 -0.397805 -1.5 0 
C -1.5 0.397805 -1.341951 0.77937 -1.06066 1.06066 
C -0.77937 1.341951 -0.397805 1.5 0 1.5 
z
" id="m3819c00792" style="stroke:#3d3d3d;"/>
    </defs>
    <g clip-path="url(#pb5fcccb60b)">
     <use style="fill:#ffffff;stroke:#3d3d3d;" x="73.168125" xlink:href="#m3819c00792" y="109.284628"/>
    </g>
   </g>
   <g id="PathCollection_2">
    <g clip-path="url(#pb5fcccb60b)">
     <use style="fill:#ffffff;stroke:#3d3d3d;" x="112.848125" xlink:href="#m3819c00792" y="132.608021"/>
    </g>
   </g>
   <g id="PathCollection_3">
    <g clip-path="url(#pb5fcccb60b)">
     <use style="fill:#ffffff;stroke:#3d3d3d;" x="152.528125" xlink:href="#m3819c00792" y="148.681071"/>
    </g>
   </g>
   <g id="PathCollection_4">
    <g clip-path="url(#pb5fcccb60b)">
     <use style="fill:#ffffff;stroke:#3d3d3d;" x="192.208125" xlink:href="#m3819c00792" y="160.299091"/>
    </g>
   </g>
   <g id="PathCollection_5">
    <g clip-path="url(#pb5fcccb60b)">
     <use style="fill:#ffffff;stroke:#3d3d3d;" x="231.888125" xlink:href="#m3819c00792" y="170.781515"/>
    </g>
   </g>
   <g id="PathCollection_6">
    <g clip-path="url(#pb5fcccb60b)">
     <use style="fill:#ffffff;stroke:#3d3d3d;" x="271.568125" xlink:href="#m3819c00792" y="178.730686"/>
    </g>
   </g>
   <g id="PathCollection_7">
    <g clip-path="url(#pb5fcccb60b)">
     <use style="fill:#ffffff;stroke:#3d3d3d;" x="311.248125" xlink:href="#m3819c00792" y="197.948464"/>
    </g>
   </g>
   <g id="PathCollection_8">
    <g clip-path="url(#pb5fcccb60b)">
     <use style="fill:#ffffff;stroke:#3d3d3d;" x="350.928125" xlink:href="#m3819c00792" y="199.520827"/>
    </g>
   </g>
   <g id="PathCollection_9">
    <g clip-path="url(#pb5fcccb60b)">
     <use style="fill:#ffffff;stroke:#3d3d3d;" x="390.608125" xlink:href="#m3819c00792" y="202.752908"/>
    </g>
   </g>
   <g id="text_19">
    <!-- harfbuzz-1.3.2 (23h, 7 trials/fuzzer) -->
    <g transform="translate(125.5775 16.318125)scale(0.12 -0.12)">
     <defs>
      <path d="M 4.890625 31.390625 
L 31.203125 31.390625 
L 31.203125 23.390625 
L 4.890625 23.390625 
z
" id="DejaVuSans-45"/>
      <path d="M 12.40625 8.296875 
L 28.515625 8.296875 
L 28.515625 63.921875 
L 10.984375 60.40625 
L 10.984375 69.390625 
L 28.421875 72.90625 
L 38.28125 72.90625 
L 38.28125 8.296875 
L 54.390625 8.296875 
L 54.390625 0 
L 12.40625 0 
z
" id="DejaVuSans-49"/>
      <path d="M 10.6875 12.40625 
L 21 12.40625 
L 21 0 
L 10.6875 0 
z
" id="DejaVuSans-46"/>
      <path d="M 40.578125 39.3125 
Q 47.65625 37.796875 51.625 33 
Q 55.609375 28.21875 55.609375 21.1875 
Q 55.609375 10.40625 48.1875 4.484375 
Q 40.765625 -1.421875 27.09375 -1.421875 
Q 22.515625 -1.421875 17.65625 -0.515625 
Q 12.796875 0.390625 7.625 2.203125 
L 7.625 11.71875 
Q 11.71875 9.328125 16.59375 8.109375 
Q 21.484375 6.890625 26.8125 6.890625 
Q 36.078125 6.890625 40.9375 10.546875 
Q 45.796875 14.203125 45.796875 21.1875 
Q 45.796875 27.640625 41.28125 31.265625 
Q 36.765625 34.90625 28.71875 34.90625 
L 20.21875 34.90625 
L 20.21875 43.015625 
L 29.109375 43.015625 
Q 36.375 43.015625 40.234375 45.921875 
Q 44.09375 48.828125 44.09375 54.296875 
Q 44.09375 59.90625 40.109375 62.90625 
Q 36.140625 65.921875 28.71875 65.921875 
Q 24.65625 65.921875 20.015625 65.03125 
Q 15.375 64.15625 9.8125 62.3125 
L 9.8125 71.09375 
Q 15.4375 72.65625 20.34375 73.4375 
Q 25.25 74.21875 29.59375 74.21875 
Q 40.828125 74.21875 47.359375 69.109375 
Q 53.90625 64.015625 53.90625 55.328125 
Q 53.90625 49.265625 50.4375 45.09375 
Q 46.96875 40.921875 40.578125 39.3125 
z
" id="DejaVuSans-51"/>
      <path d="M 11.71875 12.40625 
L 22.015625 12.40625 
L 22.015625 4 
L 14.015625 -11.625 
L 7.71875 -11.625 
L 11.71875 4 
z
" id="DejaVuSans-44"/>
      <path d="M 8.203125 72.90625 
L 55.078125 72.90625 
L 55.078125 68.703125 
L 28.609375 0 
L 18.3125 0 
L 43.21875 64.59375 
L 8.203125 64.59375 
z
" id="DejaVuSans-55"/>
      <path d="M 25.390625 72.90625 
L 33.6875 72.90625 
L 8.296875 -9.28125 
L 0 -9.28125 
z
" id="DejaVuSans-47"/>
     </defs>
     <use xlink:href="#DejaVuSans-104"/>
     <use x="63.378906" xlink:href="#DejaVuSans-97"/>
     <use x="124.658203" xlink:href="#DejaVuSans-114"/>
     <use x="165.771484" xlink:href="#DejaVuSans-102"/>
     <use x="200.976562" xlink:href="#DejaVuSans-98"/>
     <use x="264.453125" xlink:href="#DejaVuSans-117"/>
     <use x="327.832031" xlink:href="#DejaVuSans-122"/>
     <use x="380.322266" xlink:href="#DejaVuSans-122"/>
     <use x="432.8125" xlink:href="#DejaVuSans-45"/>
     <use x="468.896484" xlink:href="#DejaVuSans-49"/>
     <use x="532.519531" xlink:href="#DejaVuSans-46"/>
     <use x="564.306641" xlink:href="#DejaVuSans-51"/>
     <use x="627.929688" xlink:href="#DejaVuSans-46"/>
     <use x="659.716797" xlink:href="#DejaVuSans-50"/>
     <use x="723.339844" xlink:href="#DejaVuSans-32"/>
     <use x="755.126953" xlink:href="#DejaVuSans-40"/>
     <use x="794.140625" xlink:href="#DejaVuSans-50"/>
     <use x="857.763672" xlink:href="#DejaVuSans-51"/>
     <use x="921.386719" xlink:href="#DejaVuSans-104"/>
     <use x="984.765625" xlink:href="#DejaVuSans-44"/>
     <use x="1016.552734" xlink:href="#DejaVuSans-32"/>
     <use x="1048.339844" xlink:href="#DejaVuSans-55"/>
     <use x="1111.962891" xlink:href="#DejaVuSans-32"/>
     <use x="1143.75" xlink:href="#DejaVuSans-116"/>
     <use x="1182.958984" xlink:href="#DejaVuSans-114"/>
     <use x="1224.072266" xlink:href="#DejaVuSans-105"/>
     <use x="1251.855469" xlink:href="#DejaVuSans-97"/>
     <use x="1313.134766" xlink:href="#DejaVuSans-108"/>
     <use x="1340.917969" xlink:href="#DejaVuSans-115"/>
     <use x="1393.017578" xlink:href="#DejaVuSans-47"/>
     <use x="1426.708984" xlink:href="#DejaVuSans-102"/>
     <use x="1461.914062" xlink:href="#DejaVuSans-117"/>
     <use x="1525.292969" xlink:href="#DejaVuSans-122"/>
     <use x="1577.783203" xlink:href="#DejaVuSans-122"/>
     <use x="1630.273438" xlink:href="#DejaVuSans-101"/>
     <use x="1691.796875" xlink:href="#DejaVuSans-114"/>
     <use x="1732.910156" xlink:href="#DejaVuSans-41"/>
    </g>
   </g>
  </g>
 </g>
 <defs>
  <clipPath id="pb5fcccb60b">
   <rect height="266.112" width="357.12" x="53.328125" y="22.318125"/>
  </clipPath>
 </defs>
</svg>
