<?xml version="1.0" encoding="utf-8" standalone="no"?>
<!DOCTYPE svg PUBLIC "-//W3C//DTD SVG 1.1//EN"
  "http://www.w3.org/Graphics/SVG/1.1/DTD/svg11.dtd">
<!-- Created with matplotlib (https://matplotlib.org/) -->
<svg height="368.607178pt" version="1.1" viewBox="0 0 417.648125 368.607178" width="417.648125pt" xmlns="http://www.w3.org/2000/svg" xmlns:xlink="http://www.w3.org/1999/xlink">
 <metadata>
  <rdf:RDF xmlns:cc="http://creativecommons.org/ns#" xmlns:dc="http://purl.org/dc/elements/1.1/" xmlns:rdf="http://www.w3.org/1999/02/22-rdf-syntax-ns#">
   <cc:Work>
    <dc:type rdf:resource="http://purl.org/dc/dcmitype/StillImage"/>
    <dc:date>2020-12-06T10:28:55.500107</dc:date>
    <dc:format>image/svg+xml</dc:format>
    <dc:creator>
     <cc:Agent>
      <dc:title>Matplotlib v3.3.3, https://matplotlib.org/</dc:title>
     </cc:Agent>
    </dc:creator>
   </cc:Work>
  </rdf:RDF>
 </metadata>
 <defs>
  <style type="text/css">*{stroke-linecap:butt;stroke-linejoin:round;}</style>
 </defs>
 <g id="figure_1">
  <g id="patch_1">
   <path d="M 0 368.607178 
L 417.648125 368.607178 
L 417.648125 0 
L 0 0 
z
" style="fill:#ffffff;"/>
  </g>
  <g id="axes_1">
   <g id="patch_2">
    <path d="M 53.328125 288.430125 
L 410.448125 288.430125 
L 410.448125 22.318125 
L 53.328125 22.318125 
z
" style="fill:#ffffff;"/>
   </g>
   <g id="PolyCollection_1">
    <defs>
     <path d="M 73.184476 -92.273053 
L 73.151774 -92.273053 
L 73.148566 -94.716689 
L 73.144914 -97.160326 
L 73.140797 -99.603962 
L 73.136205 -102.047598 
L 73.131135 -104.491235 
L 73.125598 -106.934871 
L 73.119619 -109.378507 
L 73.113236 -111.822144 
L 73.106504 -114.26578 
L 73.099492 -116.709417 
L 73.092287 -119.153053 
L 73.084987 -121.596689 
L 73.077704 -124.040326 
L 73.07056 -126.483962 
L 73.063683 -128.927598 
L 73.057204 -131.371235 
L 73.051253 -133.814871 
L 73.045955 -136.258507 
L 73.041425 -138.702144 
L 73.037764 -141.14578 
L 73.035054 -143.589417 
L 73.033359 -146.033053 
L 73.032716 -148.476689 
L 73.03314 -150.920326 
L 73.034617 -153.363962 
L 73.037109 -155.807598 
L 73.040553 -158.251235 
L 73.044864 -160.694871 
L 73.049937 -163.138507 
L 73.055649 -165.582144 
L 73.061866 -168.02578 
L 73.068443 -170.469417 
L 73.075229 -172.913053 
L 73.082074 -175.356689 
L 73.088823 -177.800326 
L 73.095328 -180.243962 
L 73.101444 -182.687598 
L 73.107031 -185.131235 
L 73.111955 -187.574871 
L 73.116087 -190.018507 
L 73.119304 -192.462144 
L 73.121485 -194.90578 
L 73.122514 -197.349417 
L 73.122274 -199.793053 
L 73.120653 -202.236689 
L 73.117537 -204.680326 
L 73.112816 -207.123962 
L 73.106386 -209.567598 
L 73.098148 -212.011235 
L 73.088013 -214.454871 
L 73.07591 -216.898507 
L 73.061786 -219.342144 
L 73.045617 -221.78578 
L 73.027414 -224.229417 
L 73.007224 -226.673053 
L 72.985143 -229.116689 
L 72.961316 -231.560326 
L 72.935943 -234.003962 
L 72.909282 -236.447598 
L 72.881644 -238.891235 
L 72.853396 -241.334871 
L 72.824953 -243.778507 
L 72.796768 -246.222144 
L 72.769328 -248.66578 
L 72.743135 -251.109417 
L 72.718695 -253.553053 
L 72.696503 -255.996689 
L 72.677025 -258.440326 
L 72.660683 -260.883962 
L 72.647842 -263.327598 
L 72.638791 -265.771235 
L 72.633741 -268.214871 
L 72.632809 -270.658507 
L 72.636017 -273.102144 
L 72.643292 -275.54578 
L 72.654469 -277.989417 
L 72.669292 -280.433053 
L 72.687432 -282.876689 
L 72.708494 -285.320326 
L 72.732031 -287.763962 
L 72.757562 -290.207598 
L 72.784587 -292.651235 
L 72.812605 -295.094871 
L 72.841124 -297.538507 
L 72.869683 -299.982144 
L 72.897854 -302.42578 
L 72.925259 -304.869417 
L 72.951574 -307.313053 
L 72.976532 -309.756689 
L 72.999925 -312.200326 
L 73.021604 -314.643962 
L 73.041476 -317.087598 
L 73.059501 -319.531235 
L 73.075681 -321.974871 
L 73.090059 -324.418507 
L 73.102712 -326.862144 
L 73.113738 -329.30578 
L 73.123255 -331.749417 
L 73.131394 -334.193053 
L 73.204856 -334.193053 
L 73.204856 -334.193053 
L 73.212995 -331.749417 
L 73.222512 -329.30578 
L 73.233538 -326.862144 
L 73.246191 -324.418507 
L 73.260569 -321.974871 
L 73.276749 -319.531235 
L 73.294774 -317.087598 
L 73.314646 -314.643962 
L 73.336325 -312.200326 
L 73.359718 -309.756689 
L 73.384676 -307.313053 
L 73.410991 -304.869417 
L 73.438396 -302.42578 
L 73.466567 -299.982144 
L 73.495126 -297.538507 
L 73.523645 -295.094871 
L 73.551663 -292.651235 
L 73.578688 -290.207598 
L 73.604219 -287.763962 
L 73.627756 -285.320326 
L 73.648818 -282.876689 
L 73.666958 -280.433053 
L 73.681781 -277.989417 
L 73.692958 -275.54578 
L 73.700233 -273.102144 
L 73.703441 -270.658507 
L 73.702509 -268.214871 
L 73.697459 -265.771235 
L 73.688408 -263.327598 
L 73.675567 -260.883962 
L 73.659225 -258.440326 
L 73.639747 -255.996689 
L 73.617555 -253.553053 
L 73.593115 -251.109417 
L 73.566922 -248.66578 
L 73.539482 -246.222144 
L 73.511297 -243.778507 
L 73.482854 -241.334871 
L 73.454606 -238.891235 
L 73.426968 -236.447598 
L 73.400307 -234.003962 
L 73.374934 -231.560326 
L 73.351107 -229.116689 
L 73.329026 -226.673053 
L 73.308836 -224.229417 
L 73.290633 -221.78578 
L 73.274464 -219.342144 
L 73.26034 -216.898507 
L 73.248237 -214.454871 
L 73.238102 -212.011235 
L 73.229864 -209.567598 
L 73.223434 -207.123962 
L 73.218713 -204.680326 
L 73.215597 -202.236689 
L 73.213976 -199.793053 
L 73.213736 -197.349417 
L 73.214765 -194.90578 
L 73.216946 -192.462144 
L 73.220163 -190.018507 
L 73.224295 -187.574871 
L 73.229219 -185.131235 
L 73.234806 -182.687598 
L 73.240922 -180.243962 
L 73.247427 -177.800326 
L 73.254176 -175.356689 
L 73.261021 -172.913053 
L 73.267807 -170.469417 
L 73.274384 -168.02578 
L 73.280601 -165.582144 
L 73.286313 -163.138507 
L 73.291386 -160.694871 
L 73.295697 -158.251235 
L 73.299141 -155.807598 
L 73.301633 -153.363962 
L 73.30311 -150.920326 
L 73.303534 -148.476689 
L 73.302891 -146.033053 
L 73.301196 -143.589417 
L 73.298486 -141.14578 
L 73.294825 -138.702144 
L 73.290295 -136.258507 
L 73.284997 -133.814871 
L 73.279046 -131.371235 
L 73.272567 -128.927598 
L 73.26569 -126.483962 
L 73.258546 -124.040326 
L 73.251263 -121.596689 
L 73.243963 -119.153053 
L 73.236758 -116.709417 
L 73.229746 -114.26578 
L 73.223014 -111.822144 
L 73.216631 -109.378507 
L 73.210652 -106.934871 
L 73.205115 -104.491235 
L 73.200045 -102.047598 
L 73.195453 -99.603962 
L 73.191336 -97.160326 
L 73.187684 -94.716689 
L 73.184476 -92.273053 
z
" id="mac0e88b78f" style="stroke:#3d3d3d;stroke-width:1.5;"/>
    </defs>
    <g clip-path="url(#p46b47ab409)">
     <use style="fill:#3274a1;stroke:#3d3d3d;stroke-width:1.5;" x="0" xlink:href="#mac0e88b78f" y="368.607178"/>
    </g>
   </g>
   <g id="PolyCollection_2">
    <defs>
     <path d="M 112.886758 -198.37128 
L 112.809492 -198.37128 
L 112.801289 -199.535309 
L 112.791819 -200.699339 
L 112.780996 -201.863368 
L 112.768756 -203.027398 
L 112.755057 -204.191427 
L 112.739888 -205.355457 
L 112.723275 -206.519487 
L 112.705282 -207.683516 
L 112.686014 -208.847546 
L 112.665623 -210.011575 
L 112.644303 -211.175605 
L 112.622291 -212.339634 
L 112.599863 -213.503664 
L 112.577325 -214.667694 
L 112.555008 -215.831723 
L 112.53326 -216.995753 
L 112.512429 -218.159782 
L 112.492857 -219.323812 
L 112.474867 -220.487841 
L 112.458747 -221.651871 
L 112.444743 -222.8159 
L 112.433047 -223.97993 
L 112.42379 -225.14396 
L 112.417032 -226.307989 
L 112.412763 -227.472019 
L 112.410902 -228.636048 
L 112.411292 -229.800078 
L 112.413711 -230.964107 
L 112.417873 -232.128137 
L 112.42344 -233.292166 
L 112.430028 -234.456196 
L 112.437221 -235.620226 
L 112.44458 -236.784255 
L 112.45166 -237.948285 
L 112.458015 -239.112314 
L 112.463215 -240.276344 
L 112.466856 -241.440373 
L 112.468573 -242.604403 
L 112.468043 -243.768433 
L 112.465002 -244.932462 
L 112.459243 -246.096492 
L 112.45063 -247.260521 
L 112.4391 -248.424551 
L 112.424662 -249.58858 
L 112.407403 -250.75261 
L 112.387486 -251.916639 
L 112.365149 -253.080669 
L 112.340698 -254.244699 
L 112.314504 -255.408728 
L 112.286995 -256.572758 
L 112.258646 -257.736787 
L 112.229968 -258.900817 
L 112.201497 -260.064846 
L 112.17378 -261.228876 
L 112.14736 -262.392905 
L 112.122766 -263.556935 
L 112.100495 -264.720965 
L 112.081003 -265.884994 
L 112.064693 -267.049024 
L 112.051903 -268.213053 
L 112.042902 -269.377083 
L 112.037885 -270.541112 
L 112.036968 -271.705142 
L 112.040188 -272.869172 
L 112.047509 -274.033201 
L 112.058822 -275.197231 
L 112.073951 -276.36126 
L 112.092665 -277.52529 
L 112.114681 -278.689319 
L 112.139677 -279.853349 
L 112.167298 -281.017378 
L 112.197167 -282.181408 
L 112.228894 -283.345438 
L 112.262084 -284.509467 
L 112.296343 -285.673497 
L 112.331285 -286.837526 
L 112.366541 -288.001556 
L 112.401758 -289.165585 
L 112.43661 -290.329615 
L 112.470797 -291.493644 
L 112.504047 -292.657674 
L 112.536123 -293.821704 
L 112.566821 -294.985733 
L 112.595969 -296.149763 
L 112.623434 -297.313792 
L 112.649112 -298.477822 
L 112.672939 -299.641851 
L 112.694877 -300.805881 
L 112.714922 -301.96991 
L 112.733096 -303.13394 
L 112.749446 -304.29797 
L 112.76404 -305.461999 
L 112.776965 -306.626029 
L 112.788319 -307.790058 
L 112.798215 -308.954088 
L 112.80677 -310.118117 
L 112.814106 -311.282147 
L 112.820345 -312.446177 
L 112.825607 -313.610206 
L 112.870643 -313.610206 
L 112.870643 -313.610206 
L 112.875905 -312.446177 
L 112.882144 -311.282147 
L 112.88948 -310.118117 
L 112.898035 -308.954088 
L 112.907931 -307.790058 
L 112.919285 -306.626029 
L 112.93221 -305.461999 
L 112.946804 -304.29797 
L 112.963154 -303.13394 
L 112.981328 -301.96991 
L 113.001373 -300.805881 
L 113.023311 -299.641851 
L 113.047138 -298.477822 
L 113.072816 -297.313792 
L 113.100281 -296.149763 
L 113.129429 -294.985733 
L 113.160127 -293.821704 
L 113.192203 -292.657674 
L 113.225453 -291.493644 
L 113.25964 -290.329615 
L 113.294492 -289.165585 
L 113.329709 -288.001556 
L 113.364965 -286.837526 
L 113.399907 -285.673497 
L 113.434166 -284.509467 
L 113.467356 -283.345438 
L 113.499083 -282.181408 
L 113.528952 -281.017378 
L 113.556573 -279.853349 
L 113.581569 -278.689319 
L 113.603585 -277.52529 
L 113.622299 -276.36126 
L 113.637428 -275.197231 
L 113.648741 -274.033201 
L 113.656062 -272.869172 
L 113.659282 -271.705142 
L 113.658365 -270.541112 
L 113.653348 -269.377083 
L 113.644347 -268.213053 
L 113.631557 -267.049024 
L 113.615247 -265.884994 
L 113.595755 -264.720965 
L 113.573484 -263.556935 
L 113.54889 -262.392905 
L 113.52247 -261.228876 
L 113.494753 -260.064846 
L 113.466282 -258.900817 
L 113.437604 -257.736787 
L 113.409255 -256.572758 
L 113.381746 -255.408728 
L 113.355552 -254.244699 
L 113.331101 -253.080669 
L 113.308764 -251.916639 
L 113.288847 -250.75261 
L 113.271588 -249.58858 
L 113.25715 -248.424551 
L 113.24562 -247.260521 
L 113.237007 -246.096492 
L 113.231248 -244.932462 
L 113.228207 -243.768433 
L 113.227677 -242.604403 
L 113.229394 -241.440373 
L 113.233035 -240.276344 
L 113.238235 -239.112314 
L 113.24459 -237.948285 
L 113.25167 -236.784255 
L 113.259029 -235.620226 
L 113.266222 -234.456196 
L 113.27281 -233.292166 
L 113.278377 -232.128137 
L 113.282539 -230.964107 
L 113.284958 -229.800078 
L 113.285348 -228.636048 
L 113.283487 -227.472019 
L 113.279218 -226.307989 
L 113.27246 -225.14396 
L 113.263203 -223.97993 
L 113.251507 -222.8159 
L 113.237503 -221.651871 
L 113.221383 -220.487841 
L 113.203393 -219.323812 
L 113.183821 -218.159782 
L 113.16299 -216.995753 
L 113.141242 -215.831723 
L 113.118925 -214.667694 
L 113.096387 -213.503664 
L 113.073959 -212.339634 
L 113.051947 -211.175605 
L 113.030627 -210.011575 
L 113.010236 -208.847546 
L 112.990968 -207.683516 
L 112.972975 -206.519487 
L 112.956362 -205.355457 
L 112.941193 -204.191427 
L 112.927494 -203.027398 
L 112.915254 -201.863368 
L 112.904431 -200.699339 
L 112.894961 -199.535309 
L 112.886758 -198.37128 
z
" id="m3cd073ab00" style="stroke:#3d3d3d;stroke-width:1.5;"/>
    </defs>
    <g clip-path="url(#p46b47ab409)">
     <use style="fill:#e1812c;stroke:#3d3d3d;stroke-width:1.5;" x="0" xlink:href="#m3cd073ab00" y="368.607178"/>
    </g>
   </g>
   <g id="PolyCollection_3">
    <defs>
     <path d="M 152.559175 -192.482935 
L 152.497075 -192.482935 
L 152.489881 -193.581639 
L 152.481405 -194.680342 
L 152.471518 -195.779045 
L 152.460096 -196.877748 
L 152.447033 -197.976451 
L 152.432245 -199.075155 
L 152.415674 -200.173858 
L 152.397299 -201.272561 
L 152.377141 -202.371264 
L 152.355268 -203.469967 
L 152.331799 -204.568671 
L 152.306911 -205.667374 
L 152.280833 -206.766077 
L 152.253853 -207.86478 
L 152.226307 -208.963483 
L 152.198579 -210.062187 
L 152.171087 -211.16089 
L 152.144274 -212.259593 
L 152.118597 -213.358296 
L 152.094509 -214.456999 
L 152.072443 -215.555703 
L 152.052797 -216.654406 
L 152.035918 -217.753109 
L 152.022084 -218.851812 
L 152.011495 -219.950515 
L 152.004255 -221.049218 
L 152.000371 -222.147922 
L 151.999743 -223.246625 
L 152.002165 -224.345328 
L 152.007324 -225.444031 
L 152.014815 -226.542734 
L 152.024141 -227.641438 
L 152.034734 -228.740141 
L 152.045972 -229.838844 
L 152.057193 -230.937547 
L 152.067724 -232.03625 
L 152.076899 -233.134954 
L 152.084083 -234.233657 
L 152.088696 -235.33236 
L 152.090235 -236.431063 
L 152.088294 -237.529766 
L 152.082577 -238.62847 
L 152.07292 -239.727173 
L 152.059291 -240.825876 
L 152.0418 -241.924579 
L 152.0207 -243.023282 
L 151.996375 -244.121986 
L 151.969337 -245.220689 
L 151.940204 -246.319392 
L 151.909682 -247.418095 
L 151.878541 -248.516798 
L 151.84759 -249.615502 
L 151.817641 -250.714205 
L 151.78949 -251.812908 
L 151.763878 -252.911611 
L 151.741476 -254.010314 
L 151.722851 -255.109018 
L 151.708457 -256.207721 
L 151.698618 -257.306424 
L 151.693523 -258.405127 
L 151.693226 -259.50383 
L 151.697648 -260.602534 
L 151.706595 -261.701237 
L 151.719769 -262.79994 
L 151.73679 -263.898643 
L 151.757215 -264.997346 
L 151.780564 -266.096049 
L 151.806342 -267.194753 
L 151.834057 -268.293456 
L 151.863243 -269.392159 
L 151.893467 -270.490862 
L 151.924345 -271.589565 
L 151.955548 -272.688269 
L 151.986799 -273.786972 
L 152.017875 -274.885675 
L 152.048602 -275.984378 
L 152.078846 -277.083081 
L 152.108506 -278.181785 
L 152.137506 -279.280488 
L 152.165782 -280.379191 
L 152.193282 -281.477894 
L 152.219954 -282.576597 
L 152.245742 -283.675301 
L 152.270589 -284.774004 
L 152.294432 -285.872707 
L 152.317205 -286.97141 
L 152.33884 -288.070113 
L 152.359275 -289.168817 
L 152.37845 -290.26752 
L 152.396318 -291.366223 
L 152.412843 -292.464926 
L 152.428008 -293.563629 
L 152.441808 -294.662333 
L 152.454261 -295.761036 
L 152.465399 -296.859739 
L 152.475272 -297.958442 
L 152.483943 -299.057145 
L 152.491489 -300.155849 
L 152.497993 -301.254552 
L 152.558257 -301.254552 
L 152.558257 -301.254552 
L 152.564761 -300.155849 
L 152.572307 -299.057145 
L 152.580978 -297.958442 
L 152.590851 -296.859739 
L 152.601989 -295.761036 
L 152.614442 -294.662333 
L 152.628242 -293.563629 
L 152.643407 -292.464926 
L 152.659932 -291.366223 
L 152.6778 -290.26752 
L 152.696975 -289.168817 
L 152.71741 -288.070113 
L 152.739045 -286.97141 
L 152.761818 -285.872707 
L 152.785661 -284.774004 
L 152.810508 -283.675301 
L 152.836296 -282.576597 
L 152.862968 -281.477894 
L 152.890468 -280.379191 
L 152.918744 -279.280488 
L 152.947744 -278.181785 
L 152.977404 -277.083081 
L 153.007648 -275.984378 
L 153.038375 -274.885675 
L 153.069451 -273.786972 
L 153.100702 -272.688269 
L 153.131905 -271.589565 
L 153.162783 -270.490862 
L 153.193007 -269.392159 
L 153.222193 -268.293456 
L 153.249908 -267.194753 
L 153.275686 -266.096049 
L 153.299035 -264.997346 
L 153.31946 -263.898643 
L 153.336481 -262.79994 
L 153.349655 -261.701237 
L 153.358602 -260.602534 
L 153.363024 -259.50383 
L 153.362727 -258.405127 
L 153.357632 -257.306424 
L 153.347793 -256.207721 
L 153.333399 -255.109018 
L 153.314774 -254.010314 
L 153.292372 -252.911611 
L 153.26676 -251.812908 
L 153.238609 -250.714205 
L 153.20866 -249.615502 
L 153.177709 -248.516798 
L 153.146568 -247.418095 
L 153.116046 -246.319392 
L 153.086913 -245.220689 
L 153.059875 -244.121986 
L 153.03555 -243.023282 
L 153.01445 -241.924579 
L 152.996959 -240.825876 
L 152.98333 -239.727173 
L 152.973673 -238.62847 
L 152.967956 -237.529766 
L 152.966015 -236.431063 
L 152.967554 -235.33236 
L 152.972167 -234.233657 
L 152.979351 -233.134954 
L 152.988526 -232.03625 
L 152.999057 -230.937547 
L 153.010278 -229.838844 
L 153.021516 -228.740141 
L 153.032109 -227.641438 
L 153.041435 -226.542734 
L 153.048926 -225.444031 
L 153.054085 -224.345328 
L 153.056507 -223.246625 
L 153.055879 -222.147922 
L 153.051995 -221.049218 
L 153.044755 -219.950515 
L 153.034166 -218.851812 
L 153.020332 -217.753109 
L 153.003453 -216.654406 
L 152.983807 -215.555703 
L 152.961741 -214.456999 
L 152.937653 -213.358296 
L 152.911976 -212.259593 
L 152.885163 -211.16089 
L 152.857671 -210.062187 
L 152.829943 -208.963483 
L 152.802397 -207.86478 
L 152.775417 -206.766077 
L 152.749339 -205.667374 
L 152.724451 -204.568671 
L 152.700982 -203.469967 
L 152.679109 -202.371264 
L 152.658951 -201.272561 
L 152.640576 -200.173858 
L 152.624005 -199.075155 
L 152.609217 -197.976451 
L 152.596154 -196.877748 
L 152.584732 -195.779045 
L 152.574845 -194.680342 
L 152.566369 -193.581639 
L 152.559175 -192.482935 
z
" id="m01683d8433" style="stroke:#3d3d3d;stroke-width:1.5;"/>
    </defs>
    <g clip-path="url(#p46b47ab409)">
     <use style="fill:#3a923a;stroke:#3d3d3d;stroke-width:1.5;" x="0" xlink:href="#m01683d8433" y="368.607178"/>
    </g>
   </g>
   <g id="PolyCollection_4">
    <defs>
     <path d="M 192.368763 -214.258536 
L 192.047487 -214.258536 
L 192.013625 -214.517777 
L 191.974231 -214.777018 
L 191.928774 -215.036258 
L 191.876751 -215.295499 
L 191.817709 -215.55474 
L 191.751267 -215.813981 
L 191.67714 -216.073222 
L 191.595159 -216.332463 
L 191.505301 -216.591703 
L 191.407708 -216.850944 
L 191.302707 -217.110185 
L 191.190825 -217.369426 
L 191.072802 -217.628667 
L 190.949594 -217.887908 
L 190.822372 -218.147149 
L 190.69251 -218.406389 
L 190.561568 -218.66563 
L 190.431266 -218.924871 
L 190.303447 -219.184112 
L 190.180037 -219.443353 
L 190.062996 -219.702594 
L 189.954267 -219.961834 
L 189.855716 -220.221075 
L 189.769079 -220.480316 
L 189.695908 -220.739557 
L 189.637515 -220.998798 
L 189.594925 -221.258039 
L 189.568843 -221.517279 
L 189.559618 -221.77652 
L 189.567226 -222.035761 
L 189.59126 -222.295002 
L 189.630936 -222.554243 
L 189.6851 -222.813484 
L 189.752262 -223.072724 
L 189.830622 -223.331965 
L 189.918116 -223.591206 
L 190.012468 -223.850447 
L 190.111236 -224.109688 
L 190.211879 -224.368929 
L 190.311809 -224.62817 
L 190.408452 -224.88741 
L 190.499304 -225.146651 
L 190.581985 -225.405892 
L 190.654293 -225.665133 
L 190.714243 -225.924374 
L 190.760116 -226.183615 
L 190.790487 -226.442855 
L 190.804265 -226.702096 
L 190.800707 -226.961337 
L 190.779445 -227.220578 
L 190.740495 -227.479819 
L 190.684266 -227.73906 
L 190.611556 -227.9983 
L 190.523549 -228.257541 
L 190.421794 -228.516782 
L 190.308186 -228.776023 
L 190.184933 -229.035264 
L 190.054513 -229.294505 
L 189.91963 -229.553745 
L 189.783151 -229.812986 
L 189.648048 -230.072227 
L 189.517325 -230.331468 
L 189.393948 -230.590709 
L 189.280769 -230.84995 
L 189.180453 -231.10919 
L 189.095406 -231.368431 
L 189.027712 -231.627672 
L 188.979078 -231.886913 
L 188.950787 -232.146154 
L 188.943667 -232.405395 
L 188.958071 -232.664636 
L 188.993878 -232.923876 
L 189.050498 -233.183117 
L 189.126907 -233.442358 
L 189.221681 -233.701599 
L 189.33305 -233.96084 
L 189.458957 -234.220081 
L 189.597131 -234.479321 
L 189.745153 -234.738562 
L 189.900533 -234.997803 
L 190.060779 -235.257044 
L 190.223463 -235.516285 
L 190.386285 -235.775526 
L 190.547117 -236.034766 
L 190.70405 -236.294007 
L 190.855425 -236.553248 
L 190.999849 -236.812489 
L 191.136205 -237.07173 
L 191.263656 -237.330971 
L 191.381627 -237.590211 
L 191.489799 -237.849452 
L 191.588076 -238.108693 
L 191.676564 -238.367934 
L 191.755538 -238.627175 
L 191.825415 -238.886416 
L 191.886719 -239.145656 
L 191.940052 -239.404897 
L 191.986067 -239.664138 
L 192.025445 -239.923379 
L 192.390805 -239.923379 
L 192.390805 -239.923379 
L 192.430183 -239.664138 
L 192.476198 -239.404897 
L 192.529531 -239.145656 
L 192.590835 -238.886416 
L 192.660712 -238.627175 
L 192.739686 -238.367934 
L 192.828174 -238.108693 
L 192.926451 -237.849452 
L 193.034623 -237.590211 
L 193.152594 -237.330971 
L 193.280045 -237.07173 
L 193.416401 -236.812489 
L 193.560825 -236.553248 
L 193.7122 -236.294007 
L 193.869133 -236.034766 
L 194.029965 -235.775526 
L 194.192787 -235.516285 
L 194.355471 -235.257044 
L 194.515717 -234.997803 
L 194.671097 -234.738562 
L 194.819119 -234.479321 
L 194.957293 -234.220081 
L 195.0832 -233.96084 
L 195.194569 -233.701599 
L 195.289343 -233.442358 
L 195.365752 -233.183117 
L 195.422372 -232.923876 
L 195.458179 -232.664636 
L 195.472583 -232.405395 
L 195.465463 -232.146154 
L 195.437172 -231.886913 
L 195.388538 -231.627672 
L 195.320844 -231.368431 
L 195.235797 -231.10919 
L 195.135481 -230.84995 
L 195.022302 -230.590709 
L 194.898925 -230.331468 
L 194.768202 -230.072227 
L 194.633099 -229.812986 
L 194.49662 -229.553745 
L 194.361737 -229.294505 
L 194.231317 -229.035264 
L 194.108064 -228.776023 
L 193.994456 -228.516782 
L 193.892701 -228.257541 
L 193.804694 -227.9983 
L 193.731984 -227.73906 
L 193.675755 -227.479819 
L 193.636805 -227.220578 
L 193.615543 -226.961337 
L 193.611985 -226.702096 
L 193.625763 -226.442855 
L 193.656134 -226.183615 
L 193.702007 -225.924374 
L 193.761957 -225.665133 
L 193.834265 -225.405892 
L 193.916946 -225.146651 
L 194.007798 -224.88741 
L 194.104441 -224.62817 
L 194.204371 -224.368929 
L 194.305014 -224.109688 
L 194.403782 -223.850447 
L 194.498134 -223.591206 
L 194.585628 -223.331965 
L 194.663988 -223.072724 
L 194.73115 -222.813484 
L 194.785314 -222.554243 
L 194.82499 -222.295002 
L 194.849024 -222.035761 
L 194.856632 -221.77652 
L 194.847407 -221.517279 
L 194.821325 -221.258039 
L 194.778735 -220.998798 
L 194.720342 -220.739557 
L 194.647171 -220.480316 
L 194.560534 -220.221075 
L 194.461983 -219.961834 
L 194.353254 -219.702594 
L 194.236213 -219.443353 
L 194.112803 -219.184112 
L 193.984984 -218.924871 
L 193.854682 -218.66563 
L 193.72374 -218.406389 
L 193.593878 -218.147149 
L 193.466656 -217.887908 
L 193.343448 -217.628667 
L 193.225425 -217.369426 
L 193.113543 -217.110185 
L 193.008542 -216.850944 
L 192.910949 -216.591703 
L 192.821091 -216.332463 
L 192.73911 -216.073222 
L 192.664983 -215.813981 
L 192.598541 -215.55474 
L 192.539499 -215.295499 
L 192.487476 -215.036258 
L 192.442019 -214.777018 
L 192.402625 -214.517777 
L 192.368763 -214.258536 
z
" id="m550b45453a" style="stroke:#3d3d3d;stroke-width:1.5;"/>
    </defs>
    <g clip-path="url(#p46b47ab409)">
     <use style="fill:#d684bd;stroke:#3d3d3d;stroke-width:1.5;" x="0" xlink:href="#m550b45453a" y="368.607178"/>
    </g>
   </g>
   <g id="PolyCollection_5">
    <defs>
     <path d="M 232.031002 -210.743648 
L 231.745248 -210.743648 
L 231.712626 -210.999422 
L 231.67412 -211.255197 
L 231.629057 -211.510971 
L 231.576775 -211.766746 
L 231.516646 -212.02252 
L 231.448104 -212.278295 
L 231.370671 -212.534069 
L 231.283989 -212.789844 
L 231.187854 -213.045618 
L 231.082242 -213.301393 
L 230.96734 -213.557167 
L 230.843573 -213.812942 
L 230.71162 -214.068716 
L 230.572431 -214.324491 
L 230.427225 -214.580265 
L 230.277491 -214.83604 
L 230.124967 -215.091814 
L 229.971618 -215.347589 
L 229.819592 -215.603363 
L 229.671178 -215.859138 
L 229.528747 -216.114912 
L 229.394688 -216.370687 
L 229.271339 -216.626461 
L 229.160916 -216.882236 
L 229.065445 -217.13801 
L 228.986691 -217.393785 
L 228.926095 -217.649559 
L 228.884729 -217.905334 
L 228.863245 -218.161108 
L 228.861852 -218.416883 
L 228.880295 -218.672657 
L 228.917861 -218.928432 
L 228.973382 -219.184207 
L 229.045268 -219.439981 
L 229.131544 -219.695756 
L 229.229897 -219.95153 
L 229.337734 -220.207305 
L 229.452248 -220.463079 
L 229.570484 -220.718854 
L 229.689412 -220.974628 
L 229.805996 -221.230403 
L 229.917266 -221.486177 
L 230.020385 -221.741952 
L 230.112712 -221.997726 
L 230.191861 -222.253501 
L 230.255754 -222.509275 
L 230.302671 -222.76505 
L 230.331289 -223.020824 
L 230.340716 -223.276599 
L 230.330519 -223.532373 
L 230.300742 -223.788148 
L 230.251914 -224.043922 
L 230.185046 -224.299697 
L 230.101625 -224.555471 
L 230.003582 -224.811246 
L 229.893262 -225.06702 
L 229.773374 -225.322795 
L 229.646928 -225.578569 
L 229.517163 -225.834344 
L 229.387469 -226.090118 
L 229.26129 -226.345893 
L 229.142035 -226.601667 
L 229.032977 -226.857442 
L 228.937159 -227.113216 
L 228.857305 -227.368991 
L 228.795737 -227.624765 
L 228.754311 -227.88054 
L 228.734362 -228.136314 
L 228.73667 -228.392089 
L 228.76145 -228.647863 
L 228.808354 -228.903638 
L 228.8765 -229.159412 
L 228.964515 -229.415187 
L 229.070598 -229.670961 
L 229.192589 -229.926736 
L 229.328057 -230.18251 
L 229.474383 -230.438285 
L 229.628855 -230.694059 
L 229.788748 -230.949834 
L 229.951411 -231.205608 
L 230.114335 -231.461383 
L 230.275217 -231.717157 
L 230.432003 -231.972932 
L 230.582925 -232.228706 
L 230.726521 -232.484481 
L 230.861642 -232.740255 
L 230.98745 -232.99603 
L 231.103398 -233.251804 
L 231.209213 -233.507579 
L 231.304864 -233.763353 
L 231.390528 -234.019128 
L 231.466558 -234.274902 
L 231.533442 -234.530677 
L 231.591774 -234.786451 
L 231.642216 -235.042226 
L 231.685474 -235.298 
L 231.722265 -235.553775 
L 231.753305 -235.809549 
L 231.779283 -236.065324 
L 231.996967 -236.065324 
L 231.996967 -236.065324 
L 232.022945 -235.809549 
L 232.053985 -235.553775 
L 232.090776 -235.298 
L 232.134034 -235.042226 
L 232.184476 -234.786451 
L 232.242808 -234.530677 
L 232.309692 -234.274902 
L 232.385722 -234.019128 
L 232.471386 -233.763353 
L 232.567037 -233.507579 
L 232.672852 -233.251804 
L 232.7888 -232.99603 
L 232.914608 -232.740255 
L 233.049729 -232.484481 
L 233.193325 -232.228706 
L 233.344247 -231.972932 
L 233.501033 -231.717157 
L 233.661915 -231.461383 
L 233.824839 -231.205608 
L 233.987502 -230.949834 
L 234.147395 -230.694059 
L 234.301867 -230.438285 
L 234.448193 -230.18251 
L 234.583661 -229.926736 
L 234.705652 -229.670961 
L 234.811735 -229.415187 
L 234.89975 -229.159412 
L 234.967896 -228.903638 
L 235.0148 -228.647863 
L 235.03958 -228.392089 
L 235.041888 -228.136314 
L 235.021939 -227.88054 
L 234.980513 -227.624765 
L 234.918945 -227.368991 
L 234.839091 -227.113216 
L 234.743273 -226.857442 
L 234.634215 -226.601667 
L 234.51496 -226.345893 
L 234.388781 -226.090118 
L 234.259087 -225.834344 
L 234.129322 -225.578569 
L 234.002876 -225.322795 
L 233.882988 -225.06702 
L 233.772668 -224.811246 
L 233.674625 -224.555471 
L 233.591204 -224.299697 
L 233.524336 -224.043922 
L 233.475508 -223.788148 
L 233.445731 -223.532373 
L 233.435534 -223.276599 
L 233.444961 -223.020824 
L 233.473579 -222.76505 
L 233.520496 -222.509275 
L 233.584389 -222.253501 
L 233.663538 -221.997726 
L 233.755865 -221.741952 
L 233.858984 -221.486177 
L 233.970254 -221.230403 
L 234.086838 -220.974628 
L 234.205766 -220.718854 
L 234.324002 -220.463079 
L 234.438516 -220.207305 
L 234.546353 -219.95153 
L 234.644706 -219.695756 
L 234.730982 -219.439981 
L 234.802868 -219.184207 
L 234.858389 -218.928432 
L 234.895955 -218.672657 
L 234.914398 -218.416883 
L 234.913005 -218.161108 
L 234.891521 -217.905334 
L 234.850155 -217.649559 
L 234.789559 -217.393785 
L 234.710805 -217.13801 
L 234.615334 -216.882236 
L 234.504911 -216.626461 
L 234.381562 -216.370687 
L 234.247503 -216.114912 
L 234.105072 -215.859138 
L 233.956658 -215.603363 
L 233.804632 -215.347589 
L 233.651283 -215.091814 
L 233.498759 -214.83604 
L 233.349025 -214.580265 
L 233.203819 -214.324491 
L 233.06463 -214.068716 
L 232.932677 -213.812942 
L 232.80891 -213.557167 
L 232.694008 -213.301393 
L 232.588396 -213.045618 
L 232.492261 -212.789844 
L 232.405579 -212.534069 
L 232.328146 -212.278295 
L 232.259604 -212.02252 
L 232.199475 -211.766746 
L 232.147193 -211.510971 
L 232.10213 -211.255197 
L 232.063624 -210.999422 
L 232.031002 -210.743648 
z
" id="mc2a5a1c36f" style="stroke:#3d3d3d;stroke-width:1.5;"/>
    </defs>
    <g clip-path="url(#p46b47ab409)">
     <use style="fill:#c4b5d0;stroke:#3d3d3d;stroke-width:1.5;" x="0" xlink:href="#mc2a5a1c36f" y="368.607178"/>
    </g>
   </g>
   <g id="PolyCollection_6">
    <defs>
     <path d="M 271.580429 -141.165584 
L 271.555821 -141.165584 
L 271.552245 -142.513314 
L 271.547982 -143.861045 
L 271.543017 -145.208776 
L 271.537367 -146.556506 
L 271.531097 -147.904237 
L 271.524317 -149.251968 
L 271.51719 -150.599698 
L 271.509926 -151.947429 
L 271.502774 -153.295159 
L 271.496009 -154.64289 
L 271.489917 -155.990621 
L 271.484773 -157.338351 
L 271.480825 -158.686082 
L 271.478268 -160.033813 
L 271.477231 -161.381543 
L 271.477769 -162.729274 
L 271.479854 -164.077005 
L 271.483379 -165.424735 
L 271.488166 -166.772466 
L 271.493984 -168.120197 
L 271.500564 -169.467927 
L 271.507618 -170.815658 
L 271.514865 -172.163389 
L 271.522042 -173.511119 
L 271.52892 -174.85885 
L 271.535312 -176.206581 
L 271.541074 -177.554311 
L 271.546105 -178.902042 
L 271.550336 -180.249773 
L 271.553718 -181.597503 
L 271.556206 -182.945234 
L 271.557743 -184.292965 
L 271.558236 -185.640695 
L 271.557534 -186.988426 
L 271.555412 -188.336156 
L 271.551547 -189.683887 
L 271.5455 -191.031618 
L 271.536709 -192.379348 
L 271.524481 -193.727079 
L 271.508002 -195.07481 
L 271.486358 -196.42254 
L 271.458574 -197.770271 
L 271.423671 -199.118002 
L 271.380744 -200.465732 
L 271.329054 -201.813463 
L 271.268126 -203.161194 
L 271.197861 -204.508924 
L 271.118625 -205.856655 
L 271.031327 -207.204386 
L 270.937462 -208.552116 
L 270.839104 -209.899847 
L 270.738854 -211.247578 
L 270.639737 -212.595308 
L 270.545045 -213.943039 
L 270.458146 -215.29077 
L 270.382268 -216.6385 
L 270.320285 -217.986231 
L 270.274519 -219.333962 
L 270.246577 -220.681692 
L 270.237246 -222.029423 
L 270.246448 -223.377153 
L 270.273257 -224.724884 
L 270.315983 -226.072615 
L 270.372303 -227.420345 
L 270.439429 -228.768076 
L 270.514294 -230.115807 
L 270.593749 -231.463537 
L 270.674746 -232.811268 
L 270.754492 -234.158999 
L 270.830587 -235.506729 
L 270.901114 -236.85446 
L 270.964695 -238.202191 
L 271.020513 -239.549921 
L 271.068298 -240.897652 
L 271.108275 -242.245383 
L 271.141094 -243.593113 
L 271.167737 -244.940844 
L 271.189407 -246.288575 
L 271.207423 -247.636305 
L 271.223105 -248.984036 
L 271.237677 -250.331767 
L 271.252184 -251.679497 
L 271.267438 -253.027228 
L 271.283977 -254.374959 
L 271.302066 -255.722689 
L 271.321709 -257.07042 
L 271.342687 -258.418151 
L 271.364615 -259.765881 
L 271.386996 -261.113612 
L 271.409285 -262.461342 
L 271.430944 -263.809073 
L 271.451489 -265.156804 
L 271.470525 -266.504534 
L 271.487762 -267.852265 
L 271.503024 -269.199996 
L 271.516247 -270.547726 
L 271.527461 -271.895457 
L 271.536776 -273.243188 
L 271.544356 -274.590918 
L 271.591894 -274.590918 
L 271.591894 -274.590918 
L 271.599474 -273.243188 
L 271.608789 -271.895457 
L 271.620003 -270.547726 
L 271.633226 -269.199996 
L 271.648488 -267.852265 
L 271.665725 -266.504534 
L 271.684761 -265.156804 
L 271.705306 -263.809073 
L 271.726965 -262.461342 
L 271.749254 -261.113612 
L 271.771635 -259.765881 
L 271.793563 -258.418151 
L 271.814541 -257.07042 
L 271.834184 -255.722689 
L 271.852273 -254.374959 
L 271.868812 -253.027228 
L 271.884066 -251.679497 
L 271.898573 -250.331767 
L 271.913145 -248.984036 
L 271.928827 -247.636305 
L 271.946843 -246.288575 
L 271.968513 -244.940844 
L 271.995156 -243.593113 
L 272.027975 -242.245383 
L 272.067952 -240.897652 
L 272.115737 -239.549921 
L 272.171555 -238.202191 
L 272.235136 -236.85446 
L 272.305663 -235.506729 
L 272.381758 -234.158999 
L 272.461504 -232.811268 
L 272.542501 -231.463537 
L 272.621956 -230.115807 
L 272.696821 -228.768076 
L 272.763947 -227.420345 
L 272.820267 -226.072615 
L 272.862993 -224.724884 
L 272.889802 -223.377153 
L 272.899004 -222.029423 
L 272.889673 -220.681692 
L 272.861731 -219.333962 
L 272.815965 -217.986231 
L 272.753982 -216.6385 
L 272.678104 -215.29077 
L 272.591205 -213.943039 
L 272.496513 -212.595308 
L 272.397396 -211.247578 
L 272.297146 -209.899847 
L 272.198788 -208.552116 
L 272.104923 -207.204386 
L 272.017625 -205.856655 
L 271.938389 -204.508924 
L 271.868124 -203.161194 
L 271.807196 -201.813463 
L 271.755506 -200.465732 
L 271.712579 -199.118002 
L 271.677676 -197.770271 
L 271.649892 -196.42254 
L 271.628248 -195.07481 
L 271.611769 -193.727079 
L 271.599541 -192.379348 
L 271.59075 -191.031618 
L 271.584703 -189.683887 
L 271.580838 -188.336156 
L 271.578716 -186.988426 
L 271.578014 -185.640695 
L 271.578507 -184.292965 
L 271.580044 -182.945234 
L 271.582532 -181.597503 
L 271.585914 -180.249773 
L 271.590145 -178.902042 
L 271.595176 -177.554311 
L 271.600938 -176.206581 
L 271.60733 -174.85885 
L 271.614208 -173.511119 
L 271.621385 -172.163389 
L 271.628632 -170.815658 
L 271.635686 -169.467927 
L 271.642266 -168.120197 
L 271.648084 -166.772466 
L 271.652871 -165.424735 
L 271.656396 -164.077005 
L 271.658481 -162.729274 
L 271.659019 -161.381543 
L 271.657982 -160.033813 
L 271.655425 -158.686082 
L 271.651477 -157.338351 
L 271.646333 -155.990621 
L 271.640241 -154.64289 
L 271.633476 -153.295159 
L 271.626324 -151.947429 
L 271.61906 -150.599698 
L 271.611933 -149.251968 
L 271.605153 -147.904237 
L 271.598883 -146.556506 
L 271.593233 -145.208776 
L 271.588268 -143.861045 
L 271.584005 -142.513314 
L 271.580429 -141.165584 
z
" id="m69c645b192" style="stroke:#3d3d3d;stroke-width:1.5;"/>
    </defs>
    <g clip-path="url(#p46b47ab409)">
     <use style="fill:#d1d197;stroke:#3d3d3d;stroke-width:1.5;" x="0" xlink:href="#m69c645b192" y="368.607178"/>
    </g>
   </g>
   <g id="PolyCollection_7">
    <defs>
     <path d="M 311.416526 -210.637031 
L 311.079724 -210.637031 
L 311.0342 -210.729159 
L 310.980476 -210.821287 
L 310.918317 -210.913415 
L 310.847858 -211.005543 
L 310.769675 -211.097672 
L 310.684841 -211.1898 
L 310.594948 -211.281928 
L 310.50209 -211.374056 
L 310.408802 -211.466185 
L 310.317948 -211.558313 
L 310.232572 -211.650441 
L 310.155707 -211.742569 
L 310.090169 -211.834697 
L 310.03834 -211.926826 
L 310.00197 -212.018954 
L 309.982015 -212.111082 
L 309.978521 -212.20321 
L 309.990579 -212.295338 
L 310.016349 -212.387467 
L 310.053153 -212.479595 
L 310.097642 -212.571723 
L 310.146006 -212.663851 
L 310.194227 -212.75598 
L 310.238347 -212.848108 
L 310.274725 -212.940236 
L 310.300269 -213.032364 
L 310.312621 -213.124492 
L 310.310281 -213.216621 
L 310.292648 -213.308749 
L 310.259994 -213.400877 
L 310.213347 -213.493005 
L 310.154297 -213.585133 
L 310.084744 -213.677262 
L 310.006584 -213.76939 
L 309.921381 -213.861518 
L 309.830013 -213.953646 
L 309.73236 -214.045775 
L 309.627031 -214.137903 
L 309.511166 -214.230031 
L 309.380346 -214.322159 
L 309.228621 -214.414287 
L 309.048666 -214.506416 
L 308.832081 -214.598544 
L 308.569818 -214.690672 
L 308.252728 -214.7828 
L 307.872209 -214.874929 
L 307.420901 -214.967057 
L 306.893416 -215.059185 
L 306.287017 -215.151313 
L 305.602228 -215.243441 
L 304.843284 -215.33557 
L 304.018392 -215.427698 
L 303.139743 -215.519826 
L 302.223255 -215.611954 
L 301.288027 -215.704082 
L 300.355532 -215.796211 
L 299.448579 -215.888339 
L 298.590128 -215.980467 
L 297.802038 -216.072595 
L 297.103866 -216.164724 
L 296.511818 -216.256852 
L 296.037941 -216.34898 
L 295.689659 -216.441108 
L 295.469654 -216.533236 
L 295.376125 -216.625365 
L 295.403369 -216.717493 
L 295.542609 -216.809621 
L 295.782968 -216.901749 
L 296.11248 -216.993877 
L 296.519022 -217.086006 
L 296.99107 -217.178134 
L 297.518234 -217.270262 
L 298.091517 -217.36239 
L 298.703336 -217.454519 
L 299.347321 -217.546647 
L 300.017973 -217.638775 
L 300.710253 -217.730903 
L 301.419171 -217.823031 
L 302.139451 -217.91516 
L 302.865316 -218.007288 
L 303.590415 -218.099416 
L 304.307884 -218.191544 
L 305.01055 -218.283672 
L 305.691203 -218.375801 
L 306.342934 -218.467929 
L 306.959462 -218.560057 
L 307.535434 -218.652185 
L 308.06666 -218.744314 
L 308.550257 -218.836442 
L 308.984709 -218.92857 
L 309.369836 -219.020698 
L 309.706683 -219.112826 
L 309.997356 -219.204955 
L 310.244814 -219.297083 
L 310.452644 -219.389211 
L 310.624837 -219.481339 
L 310.765572 -219.573467 
L 310.879036 -219.665596 
L 310.969268 -219.757724 
L 311.526982 -219.757724 
L 311.526982 -219.757724 
L 311.617214 -219.665596 
L 311.730678 -219.573467 
L 311.871413 -219.481339 
L 312.043606 -219.389211 
L 312.251436 -219.297083 
L 312.498894 -219.204955 
L 312.789567 -219.112826 
L 313.126414 -219.020698 
L 313.511541 -218.92857 
L 313.945993 -218.836442 
L 314.42959 -218.744314 
L 314.960816 -218.652185 
L 315.536788 -218.560057 
L 316.153316 -218.467929 
L 316.805047 -218.375801 
L 317.4857 -218.283672 
L 318.188366 -218.191544 
L 318.905835 -218.099416 
L 319.630934 -218.007288 
L 320.356799 -217.91516 
L 321.077079 -217.823031 
L 321.785997 -217.730903 
L 322.478277 -217.638775 
L 323.148929 -217.546647 
L 323.792914 -217.454519 
L 324.404733 -217.36239 
L 324.978016 -217.270262 
L 325.50518 -217.178134 
L 325.977228 -217.086006 
L 326.38377 -216.993877 
L 326.713282 -216.901749 
L 326.953641 -216.809621 
L 327.092881 -216.717493 
L 327.120125 -216.625365 
L 327.026596 -216.533236 
L 326.806591 -216.441108 
L 326.458309 -216.34898 
L 325.984432 -216.256852 
L 325.392384 -216.164724 
L 324.694212 -216.072595 
L 323.906122 -215.980467 
L 323.047671 -215.888339 
L 322.140718 -215.796211 
L 321.208223 -215.704082 
L 320.272995 -215.611954 
L 319.356507 -215.519826 
L 318.477858 -215.427698 
L 317.652966 -215.33557 
L 316.894022 -215.243441 
L 316.209233 -215.151313 
L 315.602834 -215.059185 
L 315.075349 -214.967057 
L 314.624041 -214.874929 
L 314.243522 -214.7828 
L 313.926432 -214.690672 
L 313.664169 -214.598544 
L 313.447584 -214.506416 
L 313.267629 -214.414287 
L 313.115904 -214.322159 
L 312.985084 -214.230031 
L 312.869219 -214.137903 
L 312.76389 -214.045775 
L 312.666237 -213.953646 
L 312.574869 -213.861518 
L 312.489666 -213.76939 
L 312.411506 -213.677262 
L 312.341953 -213.585133 
L 312.282903 -213.493005 
L 312.236256 -213.400877 
L 312.203602 -213.308749 
L 312.185969 -213.216621 
L 312.183629 -213.124492 
L 312.195981 -213.032364 
L 312.221525 -212.940236 
L 312.257903 -212.848108 
L 312.302023 -212.75598 
L 312.350244 -212.663851 
L 312.398608 -212.571723 
L 312.443097 -212.479595 
L 312.479901 -212.387467 
L 312.505671 -212.295338 
L 312.517729 -212.20321 
L 312.514235 -212.111082 
L 312.49428 -212.018954 
L 312.45791 -211.926826 
L 312.406081 -211.834697 
L 312.340543 -211.742569 
L 312.263678 -211.650441 
L 312.178302 -211.558313 
L 312.087448 -211.466185 
L 311.99416 -211.374056 
L 311.901302 -211.281928 
L 311.811409 -211.1898 
L 311.726575 -211.097672 
L 311.648392 -211.005543 
L 311.577933 -210.913415 
L 311.515774 -210.821287 
L 311.46205 -210.729159 
L 311.416526 -210.637031 
z
" id="mf5fc681e02" style="stroke:#3d3d3d;stroke-width:1.5;"/>
    </defs>
    <g clip-path="url(#p46b47ab409)">
     <use style="fill:#f2a5a3;stroke:#3d3d3d;stroke-width:1.5;" x="0" xlink:href="#mf5fc681e02" y="368.607178"/>
    </g>
   </g>
   <g id="PolyCollection_8">
    <defs>
     <path d="M 350.955261 -129.994702 
L 350.900989 -129.994702 
L 350.894809 -131.365342 
L 350.887614 -132.735981 
L 350.879341 -134.106621 
L 350.869943 -135.47726 
L 350.859404 -136.8479 
L 350.847737 -138.218539 
L 350.834995 -139.589179 
L 350.82127 -140.959819 
L 350.806702 -142.330458 
L 350.791474 -143.701098 
L 350.775815 -145.071737 
L 350.759991 -146.442377 
L 350.744307 -147.813016 
L 350.729088 -149.183656 
L 350.714677 -150.554296 
L 350.701417 -151.924935 
L 350.68964 -153.295575 
L 350.679652 -154.666214 
L 350.671721 -156.036854 
L 350.666061 -157.407493 
L 350.662825 -158.778133 
L 350.662095 -160.148773 
L 350.66388 -161.519412 
L 350.668108 -162.890052 
L 350.674634 -164.260691 
L 350.683241 -165.631331 
L 350.693648 -167.00197 
L 350.705516 -168.37261 
L 350.718466 -169.74325 
L 350.73208 -171.113889 
L 350.74592 -172.484529 
L 350.759532 -173.855168 
L 350.772458 -175.225808 
L 350.784241 -176.596448 
L 350.794433 -177.967087 
L 350.802596 -179.337727 
L 350.808306 -180.708366 
L 350.811153 -182.079006 
L 350.810751 -183.449645 
L 350.806731 -184.820285 
L 350.798753 -186.190925 
L 350.786512 -187.561564 
L 350.769746 -188.932204 
L 350.748249 -190.302843 
L 350.721887 -191.673483 
L 350.690611 -193.044122 
L 350.654478 -194.414762 
L 350.613665 -195.785402 
L 350.568484 -197.156041 
L 350.519394 -198.526681 
L 350.467002 -199.89732 
L 350.412072 -201.26796 
L 350.355505 -202.638599 
L 350.298331 -204.009239 
L 350.241679 -205.379879 
L 350.186744 -206.750518 
L 350.134751 -208.121158 
L 350.086906 -209.491797 
L 350.044355 -210.862437 
L 350.008129 -212.233076 
L 349.979112 -213.603716 
L 349.957995 -214.974356 
L 349.94525 -216.344995 
L 349.941112 -217.715635 
L 349.945572 -219.086274 
L 349.958382 -220.456914 
L 349.979069 -221.827553 
L 350.006964 -223.198193 
L 350.041234 -224.568833 
L 350.080927 -225.939472 
L 350.12501 -227.310112 
L 350.172419 -228.680751 
L 350.222099 -230.051391 
L 350.273037 -231.42203 
L 350.324303 -232.79267 
L 350.375065 -234.16331 
L 350.42461 -235.533949 
L 350.472351 -236.904589 
L 350.51783 -238.275228 
L 350.560708 -239.645868 
L 350.600763 -241.016507 
L 350.637869 -242.387147 
L 350.671987 -243.757787 
L 350.703144 -245.128426 
L 350.731423 -246.499066 
L 350.756944 -247.869705 
L 350.779854 -249.240345 
L 350.800317 -250.610984 
L 350.818505 -251.981624 
L 350.834593 -253.352264 
L 350.848752 -254.722903 
L 350.86115 -256.093543 
L 350.871947 -257.464182 
L 350.881298 -258.834822 
L 350.889346 -260.205461 
L 350.896228 -261.576101 
L 350.902075 -262.946741 
L 350.907005 -264.31738 
L 350.911132 -265.68802 
L 350.945118 -265.68802 
L 350.945118 -265.68802 
L 350.949245 -264.31738 
L 350.954175 -262.946741 
L 350.960022 -261.576101 
L 350.966904 -260.205461 
L 350.974952 -258.834822 
L 350.984303 -257.464182 
L 350.9951 -256.093543 
L 351.007498 -254.722903 
L 351.021657 -253.352264 
L 351.037745 -251.981624 
L 351.055933 -250.610984 
L 351.076396 -249.240345 
L 351.099306 -247.869705 
L 351.124827 -246.499066 
L 351.153106 -245.128426 
L 351.184263 -243.757787 
L 351.218381 -242.387147 
L 351.255487 -241.016507 
L 351.295542 -239.645868 
L 351.33842 -238.275228 
L 351.383899 -236.904589 
L 351.43164 -235.533949 
L 351.481185 -234.16331 
L 351.531947 -232.79267 
L 351.583213 -231.42203 
L 351.634151 -230.051391 
L 351.683831 -228.680751 
L 351.73124 -227.310112 
L 351.775323 -225.939472 
L 351.815016 -224.568833 
L 351.849286 -223.198193 
L 351.877181 -221.827553 
L 351.897868 -220.456914 
L 351.910678 -219.086274 
L 351.915138 -217.715635 
L 351.911 -216.344995 
L 351.898255 -214.974356 
L 351.877138 -213.603716 
L 351.848121 -212.233076 
L 351.811895 -210.862437 
L 351.769344 -209.491797 
L 351.721499 -208.121158 
L 351.669506 -206.750518 
L 351.614571 -205.379879 
L 351.557919 -204.009239 
L 351.500745 -202.638599 
L 351.444178 -201.26796 
L 351.389248 -199.89732 
L 351.336856 -198.526681 
L 351.287766 -197.156041 
L 351.242585 -195.785402 
L 351.201772 -194.414762 
L 351.165639 -193.044122 
L 351.134363 -191.673483 
L 351.108001 -190.302843 
L 351.086504 -188.932204 
L 351.069738 -187.561564 
L 351.057497 -186.190925 
L 351.049519 -184.820285 
L 351.045499 -183.449645 
L 351.045097 -182.079006 
L 351.047944 -180.708366 
L 351.053654 -179.337727 
L 351.061817 -177.967087 
L 351.072009 -176.596448 
L 351.083792 -175.225808 
L 351.096718 -173.855168 
L 351.11033 -172.484529 
L 351.12417 -171.113889 
L 351.137784 -169.74325 
L 351.150734 -168.37261 
L 351.162602 -167.00197 
L 351.173009 -165.631331 
L 351.181616 -164.260691 
L 351.188142 -162.890052 
L 351.19237 -161.519412 
L 351.194155 -160.148773 
L 351.193425 -158.778133 
L 351.190189 -157.407493 
L 351.184529 -156.036854 
L 351.176598 -154.666214 
L 351.16661 -153.295575 
L 351.154833 -151.924935 
L 351.141573 -150.554296 
L 351.127162 -149.183656 
L 351.111943 -147.813016 
L 351.096259 -146.442377 
L 351.080435 -145.071737 
L 351.064776 -143.701098 
L 351.049548 -142.330458 
L 351.03498 -140.959819 
L 351.021255 -139.589179 
L 351.008513 -138.218539 
L 350.996846 -136.8479 
L 350.986307 -135.47726 
L 350.976909 -134.106621 
L 350.968636 -132.735981 
L 350.961441 -131.365342 
L 350.955261 -129.994702 
z
" id="m2b3c12bb10" style="stroke:#3d3d3d;stroke-width:1.5;"/>
    </defs>
    <g clip-path="url(#p46b47ab409)">
     <use style="fill:#c03d3e;stroke:#3d3d3d;stroke-width:1.5;" x="0" xlink:href="#m2b3c12bb10" y="368.607178"/>
    </g>
   </g>
   <g id="PolyCollection_9">
    <defs>
     <path d="M 390.695896 -128.376504 
L 390.520354 -128.376504 
L 390.491411 -129.365062 
L 390.455146 -130.35362 
L 390.410462 -131.342179 
L 390.356327 -132.330737 
L 390.291851 -133.319295 
L 390.216371 -134.307853 
L 390.129544 -135.296411 
L 390.031429 -136.28497 
L 389.922565 -137.273528 
L 389.804027 -138.262086 
L 389.677453 -139.250644 
L 389.545043 -140.239202 
L 389.409519 -141.227761 
L 389.274047 -142.216319 
L 389.142125 -143.204877 
L 389.017441 -144.193435 
L 388.903706 -145.181994 
L 388.804479 -146.170552 
L 388.72299 -147.15911 
L 388.66197 -148.147668 
L 388.623511 -149.136226 
L 388.608952 -150.124785 
L 388.618805 -151.113343 
L 388.652728 -152.101901 
L 388.709548 -153.090459 
L 388.787315 -154.079017 
L 388.883417 -155.067576 
L 388.99471 -156.056134 
L 389.117684 -157.044692 
L 389.248641 -158.03325 
L 389.383869 -159.021808 
L 389.519814 -160.010367 
L 389.653225 -160.998925 
L 389.781278 -161.987483 
L 389.901656 -162.976041 
L 390.012602 -163.964599 
L 390.112927 -164.953158 
L 390.201989 -165.941716 
L 390.27964 -166.930274 
L 390.346154 -167.918832 
L 390.402145 -168.907391 
L 390.448471 -169.895949 
L 390.486153 -170.884507 
L 390.516287 -171.873065 
L 390.539982 -172.861623 
L 390.558305 -173.850182 
L 390.572237 -174.83874 
L 390.582655 -175.827298 
L 390.590315 -176.815856 
L 390.595853 -177.804414 
L 390.599788 -178.792973 
L 390.602531 -179.781531 
L 390.604404 -180.770089 
L 390.605648 -181.758647 
L 390.606438 -182.747205 
L 390.606897 -183.735764 
L 390.607106 -184.724322 
L 390.607109 -185.71288 
L 390.606924 -186.701438 
L 390.606546 -187.689996 
L 390.605948 -188.678555 
L 390.605085 -189.667113 
L 390.603897 -190.655671 
L 390.602312 -191.644229 
L 390.600246 -192.632788 
L 390.597609 -193.621346 
L 390.594311 -194.609904 
L 390.590269 -195.598462 
L 390.585415 -196.58702 
L 390.579706 -197.575579 
L 390.573134 -198.564137 
L 390.565737 -199.552695 
L 390.557603 -200.541253 
L 390.548878 -201.529811 
L 390.539767 -202.51837 
L 390.530525 -203.506928 
L 390.521452 -204.495486 
L 390.512879 -205.484044 
L 390.505143 -206.472602 
L 390.498574 -207.461161 
L 390.493463 -208.449719 
L 390.490047 -209.438277 
L 390.488489 -210.426835 
L 390.488863 -211.415394 
L 390.491151 -212.403952 
L 390.495244 -213.39251 
L 390.500949 -214.381068 
L 390.508005 -215.369626 
L 390.516103 -216.358185 
L 390.524909 -217.346743 
L 390.534085 -218.335301 
L 390.54331 -219.323859 
L 390.5523 -220.312417 
L 390.560818 -221.300976 
L 390.568682 -222.289534 
L 390.575769 -223.278092 
L 390.58201 -224.26665 
L 390.587386 -225.255208 
L 390.591922 -226.243767 
L 390.624328 -226.243767 
L 390.624328 -226.243767 
L 390.628864 -225.255208 
L 390.63424 -224.26665 
L 390.640481 -223.278092 
L 390.647568 -222.289534 
L 390.655432 -221.300976 
L 390.66395 -220.312417 
L 390.67294 -219.323859 
L 390.682165 -218.335301 
L 390.691341 -217.346743 
L 390.700147 -216.358185 
L 390.708245 -215.369626 
L 390.715301 -214.381068 
L 390.721006 -213.39251 
L 390.725099 -212.403952 
L 390.727387 -211.415394 
L 390.727761 -210.426835 
L 390.726203 -209.438277 
L 390.722787 -208.449719 
L 390.717676 -207.461161 
L 390.711107 -206.472602 
L 390.703371 -205.484044 
L 390.694798 -204.495486 
L 390.685725 -203.506928 
L 390.676483 -202.51837 
L 390.667372 -201.529811 
L 390.658647 -200.541253 
L 390.650513 -199.552695 
L 390.643116 -198.564137 
L 390.636544 -197.575579 
L 390.630835 -196.58702 
L 390.625981 -195.598462 
L 390.621939 -194.609904 
L 390.618641 -193.621346 
L 390.616004 -192.632788 
L 390.613938 -191.644229 
L 390.612353 -190.655671 
L 390.611165 -189.667113 
L 390.610302 -188.678555 
L 390.609704 -187.689996 
L 390.609326 -186.701438 
L 390.609141 -185.71288 
L 390.609144 -184.724322 
L 390.609353 -183.735764 
L 390.609812 -182.747205 
L 390.610602 -181.758647 
L 390.611846 -180.770089 
L 390.613719 -179.781531 
L 390.616462 -178.792973 
L 390.620397 -177.804414 
L 390.625935 -176.815856 
L 390.633595 -175.827298 
L 390.644013 -174.83874 
L 390.657945 -173.850182 
L 390.676268 -172.861623 
L 390.699963 -171.873065 
L 390.730097 -170.884507 
L 390.767779 -169.895949 
L 390.814105 -168.907391 
L 390.870096 -167.918832 
L 390.93661 -166.930274 
L 391.014261 -165.941716 
L 391.103323 -164.953158 
L 391.203648 -163.964599 
L 391.314594 -162.976041 
L 391.434972 -161.987483 
L 391.563025 -160.998925 
L 391.696436 -160.010367 
L 391.832381 -159.021808 
L 391.967609 -158.03325 
L 392.098566 -157.044692 
L 392.22154 -156.056134 
L 392.332833 -155.067576 
L 392.428935 -154.079017 
L 392.506702 -153.090459 
L 392.563522 -152.101901 
L 392.597445 -151.113343 
L 392.607298 -150.124785 
L 392.592739 -149.136226 
L 392.55428 -148.147668 
L 392.49326 -147.15911 
L 392.411771 -146.170552 
L 392.312544 -145.181994 
L 392.198809 -144.193435 
L 392.074125 -143.204877 
L 391.942203 -142.216319 
L 391.806731 -141.227761 
L 391.671207 -140.239202 
L 391.538797 -139.250644 
L 391.412223 -138.262086 
L 391.293685 -137.273528 
L 391.184821 -136.28497 
L 391.086706 -135.296411 
L 390.999879 -134.307853 
L 390.924399 -133.319295 
L 390.859923 -132.330737 
L 390.805788 -131.342179 
L 390.761104 -130.35362 
L 390.724839 -129.365062 
L 390.695896 -128.376504 
z
" id="m6fdcc90945" style="stroke:#3d3d3d;stroke-width:1.5;"/>
    </defs>
    <g clip-path="url(#p46b47ab409)">
     <use style="fill:#9fd495;stroke:#3d3d3d;stroke-width:1.5;" x="0" xlink:href="#m6fdcc90945" y="368.607178"/>
    </g>
   </g>
   <g id="matplotlib.axis_1">
    <g id="xtick_1">
     <g id="line2d_1">
      <defs>
       <path d="M 0 0 
L 0 3.5 
" id="m4e1aaa2428" style="stroke:#000000;stroke-width:0.8;"/>
      </defs>
      <g>
       <use style="stroke:#000000;stroke-width:0.8;" x="73.168125" xlink:href="#m4e1aaa2428" y="288.430125"/>
      </g>
     </g>
     <g id="text_1">
      <!-- aflplusplus -->
      <g transform="translate(25.559118 328.897284)rotate(-30)scale(0.1 -0.1)">
       <defs>
        <path d="M 34.28125 27.484375 
Q 23.390625 27.484375 19.1875 25 
Q 14.984375 22.515625 14.984375 16.5 
Q 14.984375 11.71875 18.140625 8.90625 
Q 21.296875 6.109375 26.703125 6.109375 
Q 34.1875 6.109375 38.703125 11.40625 
Q 43.21875 16.703125 43.21875 25.484375 
L 43.21875 27.484375 
z
M 52.203125 31.203125 
L 52.203125 0 
L 43.21875 0 
L 43.21875 8.296875 
Q 40.140625 3.328125 35.546875 0.953125 
Q 30.953125 -1.421875 24.3125 -1.421875 
Q 15.921875 -1.421875 10.953125 3.296875 
Q 6 8.015625 6 15.921875 
Q 6 25.140625 12.171875 29.828125 
Q 18.359375 34.515625 30.609375 34.515625 
L 43.21875 34.515625 
L 43.21875 35.40625 
Q 43.21875 41.609375 39.140625 45 
Q 35.0625 48.390625 27.6875 48.390625 
Q 23 48.390625 18.546875 47.265625 
Q 14.109375 46.140625 10.015625 43.890625 
L 10.015625 52.203125 
Q 14.9375 54.109375 19.578125 55.046875 
Q 24.21875 56 28.609375 56 
Q 40.484375 56 46.34375 49.84375 
Q 52.203125 43.703125 52.203125 31.203125 
z
" id="DejaVuSans-97"/>
        <path d="M 37.109375 75.984375 
L 37.109375 68.5 
L 28.515625 68.5 
Q 23.6875 68.5 21.796875 66.546875 
Q 19.921875 64.59375 19.921875 59.515625 
L 19.921875 54.6875 
L 34.71875 54.6875 
L 34.71875 47.703125 
L 19.921875 47.703125 
L 19.921875 0 
L 10.890625 0 
L 10.890625 47.703125 
L 2.296875 47.703125 
L 2.296875 54.6875 
L 10.890625 54.6875 
L 10.890625 58.5 
Q 10.890625 67.625 15.140625 71.796875 
Q 19.390625 75.984375 28.609375 75.984375 
z
" id="DejaVuSans-102"/>
        <path d="M 9.421875 75.984375 
L 18.40625 75.984375 
L 18.40625 0 
L 9.421875 0 
z
" id="DejaVuSans-108"/>
        <path d="M 18.109375 8.203125 
L 18.109375 -20.796875 
L 9.078125 -20.796875 
L 9.078125 54.6875 
L 18.109375 54.6875 
L 18.109375 46.390625 
Q 20.953125 51.265625 25.265625 53.625 
Q 29.59375 56 35.59375 56 
Q 45.5625 56 51.78125 48.09375 
Q 58.015625 40.1875 58.015625 27.296875 
Q 58.015625 14.40625 51.78125 6.484375 
Q 45.5625 -1.421875 35.59375 -1.421875 
Q 29.59375 -1.421875 25.265625 0.953125 
Q 20.953125 3.328125 18.109375 8.203125 
z
M 48.6875 27.296875 
Q 48.6875 37.203125 44.609375 42.84375 
Q 40.53125 48.484375 33.40625 48.484375 
Q 26.265625 48.484375 22.1875 42.84375 
Q 18.109375 37.203125 18.109375 27.296875 
Q 18.109375 17.390625 22.1875 11.75 
Q 26.265625 6.109375 33.40625 6.109375 
Q 40.53125 6.109375 44.609375 11.75 
Q 48.6875 17.390625 48.6875 27.296875 
z
" id="DejaVuSans-112"/>
        <path d="M 8.5 21.578125 
L 8.5 54.6875 
L 17.484375 54.6875 
L 17.484375 21.921875 
Q 17.484375 14.15625 20.5 10.265625 
Q 23.53125 6.390625 29.59375 6.390625 
Q 36.859375 6.390625 41.078125 11.03125 
Q 45.3125 15.671875 45.3125 23.6875 
L 45.3125 54.6875 
L 54.296875 54.6875 
L 54.296875 0 
L 45.3125 0 
L 45.3125 8.40625 
Q 42.046875 3.421875 37.71875 1 
Q 33.40625 -1.421875 27.6875 -1.421875 
Q 18.265625 -1.421875 13.375 4.4375 
Q 8.5 10.296875 8.5 21.578125 
z
M 31.109375 56 
z
" id="DejaVuSans-117"/>
        <path d="M 44.28125 53.078125 
L 44.28125 44.578125 
Q 40.484375 46.53125 36.375 47.5 
Q 32.28125 48.484375 27.875 48.484375 
Q 21.1875 48.484375 17.84375 46.4375 
Q 14.5 44.390625 14.5 40.28125 
Q 14.5 37.15625 16.890625 35.375 
Q 19.28125 33.59375 26.515625 31.984375 
L 29.59375 31.296875 
Q 39.15625 29.25 43.1875 25.515625 
Q 47.21875 21.78125 47.21875 15.09375 
Q 47.21875 7.46875 41.1875 3.015625 
Q 35.15625 -1.421875 24.609375 -1.421875 
Q 20.21875 -1.421875 15.453125 -0.5625 
Q 10.6875 0.296875 5.421875 2 
L 5.421875 11.28125 
Q 10.40625 8.6875 15.234375 7.390625 
Q 20.0625 6.109375 24.8125 6.109375 
Q 31.15625 6.109375 34.5625 8.28125 
Q 37.984375 10.453125 37.984375 14.40625 
Q 37.984375 18.0625 35.515625 20.015625 
Q 33.0625 21.96875 24.703125 23.78125 
L 21.578125 24.515625 
Q 13.234375 26.265625 9.515625 29.90625 
Q 5.8125 33.546875 5.8125 39.890625 
Q 5.8125 47.609375 11.28125 51.796875 
Q 16.75 56 26.8125 56 
Q 31.78125 56 36.171875 55.265625 
Q 40.578125 54.546875 44.28125 53.078125 
z
" id="DejaVuSans-115"/>
       </defs>
       <use xlink:href="#DejaVuSans-97"/>
       <use x="61.279297" xlink:href="#DejaVuSans-102"/>
       <use x="96.484375" xlink:href="#DejaVuSans-108"/>
       <use x="124.267578" xlink:href="#DejaVuSans-112"/>
       <use x="187.744141" xlink:href="#DejaVuSans-108"/>
       <use x="215.527344" xlink:href="#DejaVuSans-117"/>
       <use x="278.90625" xlink:href="#DejaVuSans-115"/>
       <use x="331.005859" xlink:href="#DejaVuSans-112"/>
       <use x="394.482422" xlink:href="#DejaVuSans-108"/>
       <use x="422.265625" xlink:href="#DejaVuSans-117"/>
       <use x="485.644531" xlink:href="#DejaVuSans-115"/>
      </g>
     </g>
    </g>
    <g id="xtick_2">
     <g id="line2d_2">
      <g>
       <use style="stroke:#000000;stroke-width:0.8;" x="112.848125" xlink:href="#m4e1aaa2428" y="288.430125"/>
      </g>
     </g>
     <g id="text_2">
      <!-- entropic -->
      <g transform="translate(76.266057 322.530877)rotate(-30)scale(0.1 -0.1)">
       <defs>
        <path d="M 56.203125 29.59375 
L 56.203125 25.203125 
L 14.890625 25.203125 
Q 15.484375 15.921875 20.484375 11.0625 
Q 25.484375 6.203125 34.421875 6.203125 
Q 39.59375 6.203125 44.453125 7.46875 
Q 49.3125 8.734375 54.109375 11.28125 
L 54.109375 2.78125 
Q 49.265625 0.734375 44.1875 -0.34375 
Q 39.109375 -1.421875 33.890625 -1.421875 
Q 20.796875 -1.421875 13.15625 6.1875 
Q 5.515625 13.8125 5.515625 26.8125 
Q 5.515625 40.234375 12.765625 48.109375 
Q 20.015625 56 32.328125 56 
Q 43.359375 56 49.78125 48.890625 
Q 56.203125 41.796875 56.203125 29.59375 
z
M 47.21875 32.234375 
Q 47.125 39.59375 43.09375 43.984375 
Q 39.0625 48.390625 32.421875 48.390625 
Q 24.90625 48.390625 20.390625 44.140625 
Q 15.875 39.890625 15.1875 32.171875 
z
" id="DejaVuSans-101"/>
        <path d="M 54.890625 33.015625 
L 54.890625 0 
L 45.90625 0 
L 45.90625 32.71875 
Q 45.90625 40.484375 42.875 44.328125 
Q 39.84375 48.1875 33.796875 48.1875 
Q 26.515625 48.1875 22.3125 43.546875 
Q 18.109375 38.921875 18.109375 30.90625 
L 18.109375 0 
L 9.078125 0 
L 9.078125 54.6875 
L 18.109375 54.6875 
L 18.109375 46.1875 
Q 21.34375 51.125 25.703125 53.5625 
Q 30.078125 56 35.796875 56 
Q 45.21875 56 50.046875 50.171875 
Q 54.890625 44.34375 54.890625 33.015625 
z
" id="DejaVuSans-110"/>
        <path d="M 18.3125 70.21875 
L 18.3125 54.6875 
L 36.8125 54.6875 
L 36.8125 47.703125 
L 18.3125 47.703125 
L 18.3125 18.015625 
Q 18.3125 11.328125 20.140625 9.421875 
Q 21.96875 7.515625 27.59375 7.515625 
L 36.8125 7.515625 
L 36.8125 0 
L 27.59375 0 
Q 17.1875 0 13.234375 3.875 
Q 9.28125 7.765625 9.28125 18.015625 
L 9.28125 47.703125 
L 2.6875 47.703125 
L 2.6875 54.6875 
L 9.28125 54.6875 
L 9.28125 70.21875 
z
" id="DejaVuSans-116"/>
        <path d="M 41.109375 46.296875 
Q 39.59375 47.171875 37.8125 47.578125 
Q 36.03125 48 33.890625 48 
Q 26.265625 48 22.1875 43.046875 
Q 18.109375 38.09375 18.109375 28.8125 
L 18.109375 0 
L 9.078125 0 
L 9.078125 54.6875 
L 18.109375 54.6875 
L 18.109375 46.1875 
Q 20.953125 51.171875 25.484375 53.578125 
Q 30.03125 56 36.53125 56 
Q 37.453125 56 38.578125 55.875 
Q 39.703125 55.765625 41.0625 55.515625 
z
" id="DejaVuSans-114"/>
        <path d="M 30.609375 48.390625 
Q 23.390625 48.390625 19.1875 42.75 
Q 14.984375 37.109375 14.984375 27.296875 
Q 14.984375 17.484375 19.15625 11.84375 
Q 23.34375 6.203125 30.609375 6.203125 
Q 37.796875 6.203125 41.984375 11.859375 
Q 46.1875 17.53125 46.1875 27.296875 
Q 46.1875 37.015625 41.984375 42.703125 
Q 37.796875 48.390625 30.609375 48.390625 
z
M 30.609375 56 
Q 42.328125 56 49.015625 48.375 
Q 55.71875 40.765625 55.71875 27.296875 
Q 55.71875 13.875 49.015625 6.21875 
Q 42.328125 -1.421875 30.609375 -1.421875 
Q 18.84375 -1.421875 12.171875 6.21875 
Q 5.515625 13.875 5.515625 27.296875 
Q 5.515625 40.765625 12.171875 48.375 
Q 18.84375 56 30.609375 56 
z
" id="DejaVuSans-111"/>
        <path d="M 9.421875 54.6875 
L 18.40625 54.6875 
L 18.40625 0 
L 9.421875 0 
z
M 9.421875 75.984375 
L 18.40625 75.984375 
L 18.40625 64.59375 
L 9.421875 64.59375 
z
" id="DejaVuSans-105"/>
        <path d="M 48.78125 52.59375 
L 48.78125 44.1875 
Q 44.96875 46.296875 41.140625 47.34375 
Q 37.3125 48.390625 33.40625 48.390625 
Q 24.65625 48.390625 19.8125 42.84375 
Q 14.984375 37.3125 14.984375 27.296875 
Q 14.984375 17.28125 19.8125 11.734375 
Q 24.65625 6.203125 33.40625 6.203125 
Q 37.3125 6.203125 41.140625 7.25 
Q 44.96875 8.296875 48.78125 10.40625 
L 48.78125 2.09375 
Q 45.015625 0.34375 40.984375 -0.53125 
Q 36.96875 -1.421875 32.421875 -1.421875 
Q 20.0625 -1.421875 12.78125 6.34375 
Q 5.515625 14.109375 5.515625 27.296875 
Q 5.515625 40.671875 12.859375 48.328125 
Q 20.21875 56 33.015625 56 
Q 37.15625 56 41.109375 55.140625 
Q 45.0625 54.296875 48.78125 52.59375 
z
" id="DejaVuSans-99"/>
       </defs>
       <use xlink:href="#DejaVuSans-101"/>
       <use x="61.523438" xlink:href="#DejaVuSans-110"/>
       <use x="124.902344" xlink:href="#DejaVuSans-116"/>
       <use x="164.111328" xlink:href="#DejaVuSans-114"/>
       <use x="202.974609" xlink:href="#DejaVuSans-111"/>
       <use x="264.15625" xlink:href="#DejaVuSans-112"/>
       <use x="327.632812" xlink:href="#DejaVuSans-105"/>
       <use x="355.416016" xlink:href="#DejaVuSans-99"/>
      </g>
     </g>
    </g>
    <g id="xtick_3">
     <g id="line2d_3">
      <g>
       <use style="stroke:#000000;stroke-width:0.8;" x="152.528125" xlink:href="#m4e1aaa2428" y="288.430125"/>
      </g>
     </g>
     <g id="text_3">
      <!-- libfuzzer -->
      <g transform="translate(114.661904 323.272284)rotate(-30)scale(0.1 -0.1)">
       <defs>
        <path d="M 48.6875 27.296875 
Q 48.6875 37.203125 44.609375 42.84375 
Q 40.53125 48.484375 33.40625 48.484375 
Q 26.265625 48.484375 22.1875 42.84375 
Q 18.109375 37.203125 18.109375 27.296875 
Q 18.109375 17.390625 22.1875 11.75 
Q 26.265625 6.109375 33.40625 6.109375 
Q 40.53125 6.109375 44.609375 11.75 
Q 48.6875 17.390625 48.6875 27.296875 
z
M 18.109375 46.390625 
Q 20.953125 51.265625 25.265625 53.625 
Q 29.59375 56 35.59375 56 
Q 45.5625 56 51.78125 48.09375 
Q 58.015625 40.1875 58.015625 27.296875 
Q 58.015625 14.40625 51.78125 6.484375 
Q 45.5625 -1.421875 35.59375 -1.421875 
Q 29.59375 -1.421875 25.265625 0.953125 
Q 20.953125 3.328125 18.109375 8.203125 
L 18.109375 0 
L 9.078125 0 
L 9.078125 75.984375 
L 18.109375 75.984375 
z
" id="DejaVuSans-98"/>
        <path d="M 5.515625 54.6875 
L 48.1875 54.6875 
L 48.1875 46.484375 
L 14.40625 7.171875 
L 48.1875 7.171875 
L 48.1875 0 
L 4.296875 0 
L 4.296875 8.203125 
L 38.09375 47.515625 
L 5.515625 47.515625 
z
" id="DejaVuSans-122"/>
       </defs>
       <use xlink:href="#DejaVuSans-108"/>
       <use x="27.783203" xlink:href="#DejaVuSans-105"/>
       <use x="55.566406" xlink:href="#DejaVuSans-98"/>
       <use x="119.042969" xlink:href="#DejaVuSans-102"/>
       <use x="154.248047" xlink:href="#DejaVuSans-117"/>
       <use x="217.626953" xlink:href="#DejaVuSans-122"/>
       <use x="270.117188" xlink:href="#DejaVuSans-122"/>
       <use x="322.607422" xlink:href="#DejaVuSans-101"/>
       <use x="384.130859" xlink:href="#DejaVuSans-114"/>
      </g>
     </g>
    </g>
    <g id="xtick_4">
     <g id="line2d_4">
      <g>
       <use style="stroke:#000000;stroke-width:0.8;" x="192.208125" xlink:href="#m4e1aaa2428" y="288.430125"/>
      </g>
     </g>
     <g id="text_4">
      <!-- honggfuzz -->
      <g transform="translate(146.268924 327.933221)rotate(-30)scale(0.1 -0.1)">
       <defs>
        <path d="M 54.890625 33.015625 
L 54.890625 0 
L 45.90625 0 
L 45.90625 32.71875 
Q 45.90625 40.484375 42.875 44.328125 
Q 39.84375 48.1875 33.796875 48.1875 
Q 26.515625 48.1875 22.3125 43.546875 
Q 18.109375 38.921875 18.109375 30.90625 
L 18.109375 0 
L 9.078125 0 
L 9.078125 75.984375 
L 18.109375 75.984375 
L 18.109375 46.1875 
Q 21.34375 51.125 25.703125 53.5625 
Q 30.078125 56 35.796875 56 
Q 45.21875 56 50.046875 50.171875 
Q 54.890625 44.34375 54.890625 33.015625 
z
" id="DejaVuSans-104"/>
        <path d="M 45.40625 27.984375 
Q 45.40625 37.75 41.375 43.109375 
Q 37.359375 48.484375 30.078125 48.484375 
Q 22.859375 48.484375 18.828125 43.109375 
Q 14.796875 37.75 14.796875 27.984375 
Q 14.796875 18.265625 18.828125 12.890625 
Q 22.859375 7.515625 30.078125 7.515625 
Q 37.359375 7.515625 41.375 12.890625 
Q 45.40625 18.265625 45.40625 27.984375 
z
M 54.390625 6.78125 
Q 54.390625 -7.171875 48.1875 -13.984375 
Q 42 -20.796875 29.203125 -20.796875 
Q 24.46875 -20.796875 20.265625 -20.09375 
Q 16.0625 -19.390625 12.109375 -17.921875 
L 12.109375 -9.1875 
Q 16.0625 -11.328125 19.921875 -12.34375 
Q 23.78125 -13.375 27.78125 -13.375 
Q 36.625 -13.375 41.015625 -8.765625 
Q 45.40625 -4.15625 45.40625 5.171875 
L 45.40625 9.625 
Q 42.625 4.78125 38.28125 2.390625 
Q 33.9375 0 27.875 0 
Q 17.828125 0 11.671875 7.65625 
Q 5.515625 15.328125 5.515625 27.984375 
Q 5.515625 40.671875 11.671875 48.328125 
Q 17.828125 56 27.875 56 
Q 33.9375 56 38.28125 53.609375 
Q 42.625 51.21875 45.40625 46.390625 
L 45.40625 54.6875 
L 54.390625 54.6875 
z
" id="DejaVuSans-103"/>
       </defs>
       <use xlink:href="#DejaVuSans-104"/>
       <use x="63.378906" xlink:href="#DejaVuSans-111"/>
       <use x="124.560547" xlink:href="#DejaVuSans-110"/>
       <use x="187.939453" xlink:href="#DejaVuSans-103"/>
       <use x="251.416016" xlink:href="#DejaVuSans-103"/>
       <use x="314.892578" xlink:href="#DejaVuSans-102"/>
       <use x="350.097656" xlink:href="#DejaVuSans-117"/>
       <use x="413.476562" xlink:href="#DejaVuSans-122"/>
       <use x="465.966797" xlink:href="#DejaVuSans-122"/>
      </g>
     </g>
    </g>
    <g id="xtick_5">
     <g id="line2d_5">
      <g>
       <use style="stroke:#000000;stroke-width:0.8;" x="231.888125" xlink:href="#m4e1aaa2428" y="288.430125"/>
      </g>
     </g>
     <g id="text_5">
      <!-- mopt -->
      <g transform="translate(208.220661 315.074627)rotate(-30)scale(0.1 -0.1)">
       <defs>
        <path d="M 52 44.1875 
Q 55.375 50.25 60.0625 53.125 
Q 64.75 56 71.09375 56 
Q 79.640625 56 84.28125 50.015625 
Q 88.921875 44.046875 88.921875 33.015625 
L 88.921875 0 
L 79.890625 0 
L 79.890625 32.71875 
Q 79.890625 40.578125 77.09375 44.375 
Q 74.3125 48.1875 68.609375 48.1875 
Q 61.625 48.1875 57.5625 43.546875 
Q 53.515625 38.921875 53.515625 30.90625 
L 53.515625 0 
L 44.484375 0 
L 44.484375 32.71875 
Q 44.484375 40.625 41.703125 44.40625 
Q 38.921875 48.1875 33.109375 48.1875 
Q 26.21875 48.1875 22.15625 43.53125 
Q 18.109375 38.875 18.109375 30.90625 
L 18.109375 0 
L 9.078125 0 
L 9.078125 54.6875 
L 18.109375 54.6875 
L 18.109375 46.1875 
Q 21.1875 51.21875 25.484375 53.609375 
Q 29.78125 56 35.6875 56 
Q 41.65625 56 45.828125 52.96875 
Q 50 49.953125 52 44.1875 
z
" id="DejaVuSans-109"/>
       </defs>
       <use xlink:href="#DejaVuSans-109"/>
       <use x="97.412109" xlink:href="#DejaVuSans-111"/>
       <use x="158.59375" xlink:href="#DejaVuSans-112"/>
       <use x="222.070312" xlink:href="#DejaVuSans-116"/>
      </g>
     </g>
    </g>
    <g id="xtick_6">
     <g id="line2d_6">
      <g>
       <use style="stroke:#000000;stroke-width:0.8;" x="271.568125" xlink:href="#m4e1aaa2428" y="288.430125"/>
      </g>
     </g>
     <g id="text_6">
      <!-- lafintel -->
      <g transform="translate(240.74242 319.20744)rotate(-30)scale(0.1 -0.1)">
       <use xlink:href="#DejaVuSans-108"/>
       <use x="27.783203" xlink:href="#DejaVuSans-97"/>
       <use x="89.0625" xlink:href="#DejaVuSans-102"/>
       <use x="124.267578" xlink:href="#DejaVuSans-105"/>
       <use x="152.050781" xlink:href="#DejaVuSans-110"/>
       <use x="215.429688" xlink:href="#DejaVuSans-116"/>
       <use x="254.638672" xlink:href="#DejaVuSans-101"/>
       <use x="316.162109" xlink:href="#DejaVuSans-108"/>
      </g>
     </g>
    </g>
    <g id="xtick_7">
     <g id="line2d_7">
      <g>
       <use style="stroke:#000000;stroke-width:0.8;" x="311.248125" xlink:href="#m4e1aaa2428" y="288.430125"/>
      </g>
     </g>
     <g id="text_7">
      <!-- fairfuzz -->
      <g transform="translate(278.25871 320.456659)rotate(-30)scale(0.1 -0.1)">
       <use xlink:href="#DejaVuSans-102"/>
       <use x="35.205078" xlink:href="#DejaVuSans-97"/>
       <use x="96.484375" xlink:href="#DejaVuSans-105"/>
       <use x="124.267578" xlink:href="#DejaVuSans-114"/>
       <use x="165.380859" xlink:href="#DejaVuSans-102"/>
       <use x="200.585938" xlink:href="#DejaVuSans-117"/>
       <use x="263.964844" xlink:href="#DejaVuSans-122"/>
       <use x="316.455078" xlink:href="#DejaVuSans-122"/>
      </g>
     </g>
    </g>
    <g id="xtick_8">
     <g id="line2d_8">
      <g>
       <use style="stroke:#000000;stroke-width:0.8;" x="350.928125" xlink:href="#m4e1aaa2428" y="288.430125"/>
      </g>
     </g>
     <g id="text_8">
      <!-- aflplusplus_qemu -->
      <g transform="translate(274.099193 345.687127)rotate(-30)scale(0.1 -0.1)">
       <defs>
        <path d="M 50.984375 -16.609375 
L 50.984375 -23.578125 
L -0.984375 -23.578125 
L -0.984375 -16.609375 
z
" id="DejaVuSans-95"/>
        <path d="M 14.796875 27.296875 
Q 14.796875 17.390625 18.875 11.75 
Q 22.953125 6.109375 30.078125 6.109375 
Q 37.203125 6.109375 41.296875 11.75 
Q 45.40625 17.390625 45.40625 27.296875 
Q 45.40625 37.203125 41.296875 42.84375 
Q 37.203125 48.484375 30.078125 48.484375 
Q 22.953125 48.484375 18.875 42.84375 
Q 14.796875 37.203125 14.796875 27.296875 
z
M 45.40625 8.203125 
Q 42.578125 3.328125 38.25 0.953125 
Q 33.9375 -1.421875 27.875 -1.421875 
Q 17.96875 -1.421875 11.734375 6.484375 
Q 5.515625 14.40625 5.515625 27.296875 
Q 5.515625 40.1875 11.734375 48.09375 
Q 17.96875 56 27.875 56 
Q 33.9375 56 38.25 53.625 
Q 42.578125 51.265625 45.40625 46.390625 
L 45.40625 54.6875 
L 54.390625 54.6875 
L 54.390625 -20.796875 
L 45.40625 -20.796875 
z
" id="DejaVuSans-113"/>
       </defs>
       <use xlink:href="#DejaVuSans-97"/>
       <use x="61.279297" xlink:href="#DejaVuSans-102"/>
       <use x="96.484375" xlink:href="#DejaVuSans-108"/>
       <use x="124.267578" xlink:href="#DejaVuSans-112"/>
       <use x="187.744141" xlink:href="#DejaVuSans-108"/>
       <use x="215.527344" xlink:href="#DejaVuSans-117"/>
       <use x="278.90625" xlink:href="#DejaVuSans-115"/>
       <use x="331.005859" xlink:href="#DejaVuSans-112"/>
       <use x="394.482422" xlink:href="#DejaVuSans-108"/>
       <use x="422.265625" xlink:href="#DejaVuSans-117"/>
       <use x="485.644531" xlink:href="#DejaVuSans-115"/>
       <use x="537.744141" xlink:href="#DejaVuSans-95"/>
       <use x="587.744141" xlink:href="#DejaVuSans-113"/>
       <use x="651.220703" xlink:href="#DejaVuSans-101"/>
       <use x="712.744141" xlink:href="#DejaVuSans-109"/>
       <use x="810.15625" xlink:href="#DejaVuSans-117"/>
      </g>
     </g>
    </g>
    <g id="xtick_9">
     <g id="line2d_9">
      <g>
       <use style="stroke:#000000;stroke-width:0.8;" x="390.608125" xlink:href="#m4e1aaa2428" y="288.430125"/>
      </g>
     </g>
     <g id="text_9">
      <!-- aflplusplus_flat -->
      <g transform="translate(324.37312 339.570721)rotate(-30)scale(0.1 -0.1)">
       <use xlink:href="#DejaVuSans-97"/>
       <use x="61.279297" xlink:href="#DejaVuSans-102"/>
       <use x="96.484375" xlink:href="#DejaVuSans-108"/>
       <use x="124.267578" xlink:href="#DejaVuSans-112"/>
       <use x="187.744141" xlink:href="#DejaVuSans-108"/>
       <use x="215.527344" xlink:href="#DejaVuSans-117"/>
       <use x="278.90625" xlink:href="#DejaVuSans-115"/>
       <use x="331.005859" xlink:href="#DejaVuSans-112"/>
       <use x="394.482422" xlink:href="#DejaVuSans-108"/>
       <use x="422.265625" xlink:href="#DejaVuSans-117"/>
       <use x="485.644531" xlink:href="#DejaVuSans-115"/>
       <use x="537.744141" xlink:href="#DejaVuSans-95"/>
       <use x="587.744141" xlink:href="#DejaVuSans-102"/>
       <use x="622.949219" xlink:href="#DejaVuSans-108"/>
       <use x="650.732422" xlink:href="#DejaVuSans-97"/>
       <use x="712.011719" xlink:href="#DejaVuSans-116"/>
      </g>
     </g>
    </g>
    <g id="text_10">
     <!-- Fuzzer (highest median coverage on the left) -->
     <g transform="translate(119.270156 359.32749)scale(0.1 -0.1)">
      <defs>
       <path d="M 9.8125 72.90625 
L 51.703125 72.90625 
L 51.703125 64.59375 
L 19.671875 64.59375 
L 19.671875 43.109375 
L 48.578125 43.109375 
L 48.578125 34.8125 
L 19.671875 34.8125 
L 19.671875 0 
L 9.8125 0 
z
" id="DejaVuSans-70"/>
       <path id="DejaVuSans-32"/>
       <path d="M 31 75.875 
Q 24.46875 64.65625 21.28125 53.65625 
Q 18.109375 42.671875 18.109375 31.390625 
Q 18.109375 20.125 21.3125 9.0625 
Q 24.515625 -2 31 -13.1875 
L 23.1875 -13.1875 
Q 15.875 -1.703125 12.234375 9.375 
Q 8.59375 20.453125 8.59375 31.390625 
Q 8.59375 42.28125 12.203125 53.3125 
Q 15.828125 64.359375 23.1875 75.875 
z
" id="DejaVuSans-40"/>
       <path d="M 45.40625 46.390625 
L 45.40625 75.984375 
L 54.390625 75.984375 
L 54.390625 0 
L 45.40625 0 
L 45.40625 8.203125 
Q 42.578125 3.328125 38.25 0.953125 
Q 33.9375 -1.421875 27.875 -1.421875 
Q 17.96875 -1.421875 11.734375 6.484375 
Q 5.515625 14.40625 5.515625 27.296875 
Q 5.515625 40.1875 11.734375 48.09375 
Q 17.96875 56 27.875 56 
Q 33.9375 56 38.25 53.625 
Q 42.578125 51.265625 45.40625 46.390625 
z
M 14.796875 27.296875 
Q 14.796875 17.390625 18.875 11.75 
Q 22.953125 6.109375 30.078125 6.109375 
Q 37.203125 6.109375 41.296875 11.75 
Q 45.40625 17.390625 45.40625 27.296875 
Q 45.40625 37.203125 41.296875 42.84375 
Q 37.203125 48.484375 30.078125 48.484375 
Q 22.953125 48.484375 18.875 42.84375 
Q 14.796875 37.203125 14.796875 27.296875 
z
" id="DejaVuSans-100"/>
       <path d="M 2.984375 54.6875 
L 12.5 54.6875 
L 29.59375 8.796875 
L 46.6875 54.6875 
L 56.203125 54.6875 
L 35.6875 0 
L 23.484375 0 
z
" id="DejaVuSans-118"/>
       <path d="M 8.015625 75.875 
L 15.828125 75.875 
Q 23.140625 64.359375 26.78125 53.3125 
Q 30.421875 42.28125 30.421875 31.390625 
Q 30.421875 20.453125 26.78125 9.375 
Q 23.140625 -1.703125 15.828125 -13.1875 
L 8.015625 -13.1875 
Q 14.5 -2 17.703125 9.0625 
Q 20.90625 20.125 20.90625 31.390625 
Q 20.90625 42.671875 17.703125 53.65625 
Q 14.5 64.65625 8.015625 75.875 
z
" id="DejaVuSans-41"/>
      </defs>
      <use xlink:href="#DejaVuSans-70"/>
      <use x="52.019531" xlink:href="#DejaVuSans-117"/>
      <use x="115.398438" xlink:href="#DejaVuSans-122"/>
      <use x="167.888672" xlink:href="#DejaVuSans-122"/>
      <use x="220.378906" xlink:href="#DejaVuSans-101"/>
      <use x="281.902344" xlink:href="#DejaVuSans-114"/>
      <use x="323.015625" xlink:href="#DejaVuSans-32"/>
      <use x="354.802734" xlink:href="#DejaVuSans-40"/>
      <use x="393.816406" xlink:href="#DejaVuSans-104"/>
      <use x="457.195312" xlink:href="#DejaVuSans-105"/>
      <use x="484.978516" xlink:href="#DejaVuSans-103"/>
      <use x="548.455078" xlink:href="#DejaVuSans-104"/>
      <use x="611.833984" xlink:href="#DejaVuSans-101"/>
      <use x="673.357422" xlink:href="#DejaVuSans-115"/>
      <use x="725.457031" xlink:href="#DejaVuSans-116"/>
      <use x="764.666016" xlink:href="#DejaVuSans-32"/>
      <use x="796.453125" xlink:href="#DejaVuSans-109"/>
      <use x="893.865234" xlink:href="#DejaVuSans-101"/>
      <use x="955.388672" xlink:href="#DejaVuSans-100"/>
      <use x="1018.865234" xlink:href="#DejaVuSans-105"/>
      <use x="1046.648438" xlink:href="#DejaVuSans-97"/>
      <use x="1107.927734" xlink:href="#DejaVuSans-110"/>
      <use x="1171.306641" xlink:href="#DejaVuSans-32"/>
      <use x="1203.09375" xlink:href="#DejaVuSans-99"/>
      <use x="1258.074219" xlink:href="#DejaVuSans-111"/>
      <use x="1319.255859" xlink:href="#DejaVuSans-118"/>
      <use x="1378.435547" xlink:href="#DejaVuSans-101"/>
      <use x="1439.958984" xlink:href="#DejaVuSans-114"/>
      <use x="1481.072266" xlink:href="#DejaVuSans-97"/>
      <use x="1542.351562" xlink:href="#DejaVuSans-103"/>
      <use x="1605.828125" xlink:href="#DejaVuSans-101"/>
      <use x="1667.351562" xlink:href="#DejaVuSans-32"/>
      <use x="1699.138672" xlink:href="#DejaVuSans-111"/>
      <use x="1760.320312" xlink:href="#DejaVuSans-110"/>
      <use x="1823.699219" xlink:href="#DejaVuSans-32"/>
      <use x="1855.486328" xlink:href="#DejaVuSans-116"/>
      <use x="1894.695312" xlink:href="#DejaVuSans-104"/>
      <use x="1958.074219" xlink:href="#DejaVuSans-101"/>
      <use x="2019.597656" xlink:href="#DejaVuSans-32"/>
      <use x="2051.384766" xlink:href="#DejaVuSans-108"/>
      <use x="2079.167969" xlink:href="#DejaVuSans-101"/>
      <use x="2140.691406" xlink:href="#DejaVuSans-102"/>
      <use x="2174.146484" xlink:href="#DejaVuSans-116"/>
      <use x="2213.355469" xlink:href="#DejaVuSans-41"/>
     </g>
    </g>
   </g>
   <g id="matplotlib.axis_2">
    <g id="ytick_1">
     <g id="line2d_10">
      <defs>
       <path d="M 0 0 
L -3.5 0 
" id="m037f249209" style="stroke:#000000;stroke-width:0.8;"/>
      </defs>
      <g>
       <use style="stroke:#000000;stroke-width:0.8;" x="53.328125" xlink:href="#m037f249209" y="283.324292"/>
      </g>
     </g>
     <g id="text_11">
      <!-- 0 -->
      <g transform="translate(39.965625 287.123511)scale(0.1 -0.1)">
       <defs>
        <path d="M 31.78125 66.40625 
Q 24.171875 66.40625 20.328125 58.90625 
Q 16.5 51.421875 16.5 36.375 
Q 16.5 21.390625 20.328125 13.890625 
Q 24.171875 6.390625 31.78125 6.390625 
Q 39.453125 6.390625 43.28125 13.890625 
Q 47.125 21.390625 47.125 36.375 
Q 47.125 51.421875 43.28125 58.90625 
Q 39.453125 66.40625 31.78125 66.40625 
z
M 31.78125 74.21875 
Q 44.046875 74.21875 50.515625 64.515625 
Q 56.984375 54.828125 56.984375 36.375 
Q 56.984375 17.96875 50.515625 8.265625 
Q 44.046875 -1.421875 31.78125 -1.421875 
Q 19.53125 -1.421875 13.0625 8.265625 
Q 6.59375 17.96875 6.59375 36.375 
Q 6.59375 54.828125 13.0625 64.515625 
Q 19.53125 74.21875 31.78125 74.21875 
z
" id="DejaVuSans-48"/>
       </defs>
       <use xlink:href="#DejaVuSans-48"/>
      </g>
     </g>
    </g>
    <g id="ytick_2">
     <g id="line2d_11">
      <g>
       <use style="stroke:#000000;stroke-width:0.8;" x="53.328125" xlink:href="#m037f249209" y="229.507187"/>
      </g>
     </g>
     <g id="text_12">
      <!-- 1000 -->
      <g transform="translate(20.878125 233.306406)scale(0.1 -0.1)">
       <defs>
        <path d="M 12.40625 8.296875 
L 28.515625 8.296875 
L 28.515625 63.921875 
L 10.984375 60.40625 
L 10.984375 69.390625 
L 28.421875 72.90625 
L 38.28125 72.90625 
L 38.28125 8.296875 
L 54.390625 8.296875 
L 54.390625 0 
L 12.40625 0 
z
" id="DejaVuSans-49"/>
       </defs>
       <use xlink:href="#DejaVuSans-49"/>
       <use x="63.623047" xlink:href="#DejaVuSans-48"/>
       <use x="127.246094" xlink:href="#DejaVuSans-48"/>
       <use x="190.869141" xlink:href="#DejaVuSans-48"/>
      </g>
     </g>
    </g>
    <g id="ytick_3">
     <g id="line2d_12">
      <g>
       <use style="stroke:#000000;stroke-width:0.8;" x="53.328125" xlink:href="#m037f249209" y="175.690082"/>
      </g>
     </g>
     <g id="text_13">
      <!-- 2000 -->
      <g transform="translate(20.878125 179.489301)scale(0.1 -0.1)">
       <defs>
        <path d="M 19.1875 8.296875 
L 53.609375 8.296875 
L 53.609375 0 
L 7.328125 0 
L 7.328125 8.296875 
Q 12.9375 14.109375 22.625 23.890625 
Q 32.328125 33.6875 34.8125 36.53125 
Q 39.546875 41.84375 41.421875 45.53125 
Q 43.3125 49.21875 43.3125 52.78125 
Q 43.3125 58.59375 39.234375 62.25 
Q 35.15625 65.921875 28.609375 65.921875 
Q 23.96875 65.921875 18.8125 64.3125 
Q 13.671875 62.703125 7.8125 59.421875 
L 7.8125 69.390625 
Q 13.765625 71.78125 18.9375 73 
Q 24.125 74.21875 28.421875 74.21875 
Q 39.75 74.21875 46.484375 68.546875 
Q 53.21875 62.890625 53.21875 53.421875 
Q 53.21875 48.921875 51.53125 44.890625 
Q 49.859375 40.875 45.40625 35.40625 
Q 44.1875 33.984375 37.640625 27.21875 
Q 31.109375 20.453125 19.1875 8.296875 
z
" id="DejaVuSans-50"/>
       </defs>
       <use xlink:href="#DejaVuSans-50"/>
       <use x="63.623047" xlink:href="#DejaVuSans-48"/>
       <use x="127.246094" xlink:href="#DejaVuSans-48"/>
       <use x="190.869141" xlink:href="#DejaVuSans-48"/>
      </g>
     </g>
    </g>
    <g id="ytick_4">
     <g id="line2d_13">
      <g>
       <use style="stroke:#000000;stroke-width:0.8;" x="53.328125" xlink:href="#m037f249209" y="121.872977"/>
      </g>
     </g>
     <g id="text_14">
      <!-- 3000 -->
      <g transform="translate(20.878125 125.672196)scale(0.1 -0.1)">
       <defs>
        <path d="M 40.578125 39.3125 
Q 47.65625 37.796875 51.625 33 
Q 55.609375 28.21875 55.609375 21.1875 
Q 55.609375 10.40625 48.1875 4.484375 
Q 40.765625 -1.421875 27.09375 -1.421875 
Q 22.515625 -1.421875 17.65625 -0.515625 
Q 12.796875 0.390625 7.625 2.203125 
L 7.625 11.71875 
Q 11.71875 9.328125 16.59375 8.109375 
Q 21.484375 6.890625 26.8125 6.890625 
Q 36.078125 6.890625 40.9375 10.546875 
Q 45.796875 14.203125 45.796875 21.1875 
Q 45.796875 27.640625 41.28125 31.265625 
Q 36.765625 34.90625 28.71875 34.90625 
L 20.21875 34.90625 
L 20.21875 43.015625 
L 29.109375 43.015625 
Q 36.375 43.015625 40.234375 45.921875 
Q 44.09375 48.828125 44.09375 54.296875 
Q 44.09375 59.90625 40.109375 62.90625 
Q 36.140625 65.921875 28.71875 65.921875 
Q 24.65625 65.921875 20.015625 65.03125 
Q 15.375 64.15625 9.8125 62.3125 
L 9.8125 71.09375 
Q 15.4375 72.65625 20.34375 73.4375 
Q 25.25 74.21875 29.59375 74.21875 
Q 40.828125 74.21875 47.359375 69.109375 
Q 53.90625 64.015625 53.90625 55.328125 
Q 53.90625 49.265625 50.4375 45.09375 
Q 46.96875 40.921875 40.578125 39.3125 
z
" id="DejaVuSans-51"/>
       </defs>
       <use xlink:href="#DejaVuSans-51"/>
       <use x="63.623047" xlink:href="#DejaVuSans-48"/>
       <use x="127.246094" xlink:href="#DejaVuSans-48"/>
       <use x="190.869141" xlink:href="#DejaVuSans-48"/>
      </g>
     </g>
    </g>
    <g id="ytick_5">
     <g id="line2d_14">
      <g>
       <use style="stroke:#000000;stroke-width:0.8;" x="53.328125" xlink:href="#m037f249209" y="68.055872"/>
      </g>
     </g>
     <g id="text_15">
      <!-- 4000 -->
      <g transform="translate(20.878125 71.855091)scale(0.1 -0.1)">
       <defs>
        <path d="M 37.796875 64.3125 
L 12.890625 25.390625 
L 37.796875 25.390625 
z
M 35.203125 72.90625 
L 47.609375 72.90625 
L 47.609375 25.390625 
L 58.015625 25.390625 
L 58.015625 17.1875 
L 47.609375 17.1875 
L 47.609375 0 
L 37.796875 0 
L 37.796875 17.1875 
L 4.890625 17.1875 
L 4.890625 26.703125 
z
" id="DejaVuSans-52"/>
       </defs>
       <use xlink:href="#DejaVuSans-52"/>
       <use x="63.623047" xlink:href="#DejaVuSans-48"/>
       <use x="127.246094" xlink:href="#DejaVuSans-48"/>
       <use x="190.869141" xlink:href="#DejaVuSans-48"/>
      </g>
     </g>
    </g>
    <g id="text_16">
     <!-- Reached region coverage -->
     <g transform="translate(14.798438 219.136625)rotate(-90)scale(0.1 -0.1)">
      <defs>
       <path d="M 44.390625 34.1875 
Q 47.5625 33.109375 50.5625 29.59375 
Q 53.5625 26.078125 56.59375 19.921875 
L 66.609375 0 
L 56 0 
L 46.6875 18.703125 
Q 43.0625 26.03125 39.671875 28.421875 
Q 36.28125 30.8125 30.421875 30.8125 
L 19.671875 30.8125 
L 19.671875 0 
L 9.8125 0 
L 9.8125 72.90625 
L 32.078125 72.90625 
Q 44.578125 72.90625 50.734375 67.671875 
Q 56.890625 62.453125 56.890625 51.90625 
Q 56.890625 45.015625 53.6875 40.46875 
Q 50.484375 35.9375 44.390625 34.1875 
z
M 19.671875 64.796875 
L 19.671875 38.921875 
L 32.078125 38.921875 
Q 39.203125 38.921875 42.84375 42.21875 
Q 46.484375 45.515625 46.484375 51.90625 
Q 46.484375 58.296875 42.84375 61.546875 
Q 39.203125 64.796875 32.078125 64.796875 
z
" id="DejaVuSans-82"/>
      </defs>
      <use xlink:href="#DejaVuSans-82"/>
      <use x="64.982422" xlink:href="#DejaVuSans-101"/>
      <use x="126.505859" xlink:href="#DejaVuSans-97"/>
      <use x="187.785156" xlink:href="#DejaVuSans-99"/>
      <use x="242.765625" xlink:href="#DejaVuSans-104"/>
      <use x="306.144531" xlink:href="#DejaVuSans-101"/>
      <use x="367.667969" xlink:href="#DejaVuSans-100"/>
      <use x="431.144531" xlink:href="#DejaVuSans-32"/>
      <use x="462.931641" xlink:href="#DejaVuSans-114"/>
      <use x="501.794922" xlink:href="#DejaVuSans-101"/>
      <use x="563.318359" xlink:href="#DejaVuSans-103"/>
      <use x="626.794922" xlink:href="#DejaVuSans-105"/>
      <use x="654.578125" xlink:href="#DejaVuSans-111"/>
      <use x="715.759766" xlink:href="#DejaVuSans-110"/>
      <use x="779.138672" xlink:href="#DejaVuSans-32"/>
      <use x="810.925781" xlink:href="#DejaVuSans-99"/>
      <use x="865.90625" xlink:href="#DejaVuSans-111"/>
      <use x="927.087891" xlink:href="#DejaVuSans-118"/>
      <use x="986.267578" xlink:href="#DejaVuSans-101"/>
      <use x="1047.791016" xlink:href="#DejaVuSans-114"/>
      <use x="1088.904297" xlink:href="#DejaVuSans-97"/>
      <use x="1150.183594" xlink:href="#DejaVuSans-103"/>
      <use x="1213.660156" xlink:href="#DejaVuSans-101"/>
     </g>
    </g>
   </g>
   <g id="line2d_15">
    <path clip-path="url(#p46b47ab409)" d="M 73.168125 109.441226 
L 73.168125 89.259811 
" style="fill:none;stroke:#3d3d3d;stroke-linecap:square;stroke-width:1.5;"/>
   </g>
   <g id="line2d_16">
    <path clip-path="url(#p46b47ab409)" d="M 73.168125 105.08204 
L 73.168125 97.292014 
" style="fill:none;stroke:#3d3d3d;stroke-linecap:square;stroke-width:4.5;"/>
   </g>
   <g id="line2d_17">
    <path clip-path="url(#p46b47ab409)" d="M 112.848125 145.391052 
L 112.848125 79.841818 
" style="fill:none;stroke:#3d3d3d;stroke-linecap:square;stroke-width:1.5;"/>
   </g>
   <g id="line2d_18">
    <path clip-path="url(#p46b47ab409)" d="M 112.848125 134.170186 
L 112.848125 94.829882 
" style="fill:none;stroke:#3d3d3d;stroke-linecap:square;stroke-width:4.5;"/>
   </g>
   <g id="line2d_19">
    <path clip-path="url(#p46b47ab409)" d="M 152.528125 152.925447 
L 152.528125 90.551422 
" style="fill:none;stroke:#3d3d3d;stroke-linecap:square;stroke-width:1.5;"/>
   </g>
   <g id="line2d_20">
    <path clip-path="url(#p46b47ab409)" d="M 152.528125 144.059079 
L 152.528125 107.019456 
" style="fill:none;stroke:#3d3d3d;stroke-linecap:square;stroke-width:4.5;"/>
   </g>
   <g id="line2d_21">
    <path clip-path="url(#p46b47ab409)" d="M 192.208125 148.297176 
L 192.208125 134.735265 
" style="fill:none;stroke:#3d3d3d;stroke-linecap:square;stroke-width:1.5;"/>
   </g>
   <g id="line2d_22">
    <path clip-path="url(#p46b47ab409)" d="M 192.208125 146.427031 
L 192.208125 136.080693 
" style="fill:none;stroke:#3d3d3d;stroke-linecap:square;stroke-width:4.5;"/>
   </g>
   <g id="line2d_23">
    <path clip-path="url(#p46b47ab409)" d="M 231.888125 152.11819 
L 231.888125 138.287194 
" style="fill:none;stroke:#3d3d3d;stroke-linecap:square;stroke-width:1.5;"/>
   </g>
   <g id="line2d_24">
    <path clip-path="url(#p46b47ab409)" d="M 231.888125 150.476768 
L 231.888125 140.574421 
" style="fill:none;stroke:#3d3d3d;stroke-linecap:square;stroke-width:4.5;"/>
   </g>
   <g id="line2d_25">
    <path clip-path="url(#p46b47ab409)" d="M 271.568125 150.07314 
L 271.568125 138.018109 
" style="fill:none;stroke:#3d3d3d;stroke-linecap:square;stroke-width:1.5;"/>
   </g>
   <g id="line2d_26">
    <path clip-path="url(#p46b47ab409)" d="M 271.568125 149.037161 
L 271.568125 138.448645 
" style="fill:none;stroke:#3d3d3d;stroke-linecap:square;stroke-width:4.5;"/>
   </g>
   <g id="line2d_27">
    <path clip-path="url(#p46b47ab409)" d="M 311.248125 153.033081 
L 311.248125 150.342226 
" style="fill:none;stroke:#3d3d3d;stroke-linecap:square;stroke-width:1.5;"/>
   </g>
   <g id="line2d_28">
    <path clip-path="url(#p46b47ab409)" d="M 311.248125 152.40073 
L 311.248125 151.136028 
" style="fill:none;stroke:#3d3d3d;stroke-linecap:square;stroke-width:4.5;"/>
   </g>
   <g id="line2d_29">
    <path clip-path="url(#p46b47ab409)" d="M 350.928125 154.486143 
L 350.928125 150.180774 
" style="fill:none;stroke:#3d3d3d;stroke-linecap:square;stroke-width:1.5;"/>
   </g>
   <g id="line2d_30">
    <path clip-path="url(#p46b47ab409)" d="M 350.928125 153.598161 
L 350.928125 150.813125 
" style="fill:none;stroke:#3d3d3d;stroke-linecap:square;stroke-width:4.5;"/>
   </g>
   <g id="line2d_31">
    <path clip-path="url(#p46b47ab409)" d="M 390.608125 224.717465 
L 390.608125 212.393348 
" style="fill:none;stroke:#3d3d3d;stroke-linecap:square;stroke-width:1.5;"/>
   </g>
   <g id="line2d_32">
    <path clip-path="url(#p46b47ab409)" d="M 390.608125 221.326987 
L 390.608125 214.061678 
" style="fill:none;stroke:#3d3d3d;stroke-linecap:square;stroke-width:4.5;"/>
   </g>
   <g id="patch_3">
    <path d="M 53.328125 283.324292 
L 53.328125 68.055872 
" style="fill:none;stroke:#000000;stroke-linecap:square;stroke-linejoin:miter;stroke-width:0.8;"/>
   </g>
   <g id="patch_4">
    <path d="M 73.168125 288.430125 
L 390.608125 288.430125 
" style="fill:none;stroke:#000000;stroke-linecap:square;stroke-linejoin:miter;stroke-width:0.8;"/>
   </g>
   <g id="PathCollection_1">
    <defs>
     <path d="M 0 1.5 
C 0.397805 1.5 0.77937 1.341951 1.06066 1.06066 
C 1.341951 0.77937 1.5 0.397805 1.5 0 
C 1.5 -0.397805 1.341951 -0.77937 1.06066 -1.06066 
C 0.77937 -1.341951 0.397805 -1.5 0 -1.5 
C -0.397805 -1.5 -0.77937 -1.341951 -1.06066 -1.06066 
C -1.341951 -0.77937 -1.5 -0.397805 -1.5 0 
C -1.5 0.397805 -1.341951 0.77937 -1.06066 1.06066 
C -0.77937 1.341951 -0.397805 1.5 0 1.5 
z
" id="md2d0cbeab8" style="stroke:#3d3d3d;"/>
    </defs>
    <g clip-path="url(#p46b47ab409)">
     <use style="fill:#ffffff;stroke:#3d3d3d;" x="73.168125" xlink:href="#md2d0cbeab8" y="98.785439"/>
    </g>
   </g>
   <g id="PathCollection_2">
    <g clip-path="url(#p46b47ab409)">
     <use style="fill:#ffffff;stroke:#3d3d3d;" x="112.848125" xlink:href="#md2d0cbeab8" y="102.229734"/>
    </g>
   </g>
   <g id="PathCollection_3">
    <g clip-path="url(#p46b47ab409)">
     <use style="fill:#ffffff;stroke:#3d3d3d;" x="152.528125" xlink:href="#md2d0cbeab8" y="114.311674"/>
    </g>
   </g>
   <g id="PathCollection_4">
    <g clip-path="url(#p46b47ab409)">
     <use style="fill:#ffffff;stroke:#3d3d3d;" x="192.208125" xlink:href="#md2d0cbeab8" y="137.372303"/>
    </g>
   </g>
   <g id="PathCollection_5">
    <g clip-path="url(#p46b47ab409)">
     <use style="fill:#ffffff;stroke:#3d3d3d;" x="231.888125" xlink:href="#md2d0cbeab8" y="144.637613"/>
    </g>
   </g>
   <g id="PathCollection_6">
    <g clip-path="url(#p46b47ab409)">
     <use style="fill:#ffffff;stroke:#3d3d3d;" x="271.568125" xlink:href="#md2d0cbeab8" y="148.135724"/>
    </g>
   </g>
   <g id="PathCollection_7">
    <g clip-path="url(#p46b47ab409)">
     <use style="fill:#ffffff;stroke:#3d3d3d;" x="311.248125" xlink:href="#md2d0cbeab8" y="152.172007"/>
    </g>
   </g>
   <g id="PathCollection_8">
    <g clip-path="url(#p46b47ab409)">
     <use style="fill:#ffffff;stroke:#3d3d3d;" x="350.928125" xlink:href="#md2d0cbeab8" y="152.629453"/>
    </g>
   </g>
   <g id="PathCollection_9">
    <g clip-path="url(#p46b47ab409)">
     <use style="fill:#ffffff;stroke:#3d3d3d;" x="390.608125" xlink:href="#md2d0cbeab8" y="218.393955"/>
    </g>
   </g>
   <g id="text_17">
    <!-- lcms-2017-03-21 (23h, 20 trials/fuzzer) -->
    <g transform="translate(114.18875 16.318125)scale(0.12 -0.12)">
     <defs>
      <path d="M 4.890625 31.390625 
L 31.203125 31.390625 
L 31.203125 23.390625 
L 4.890625 23.390625 
z
" id="DejaVuSans-45"/>
      <path d="M 8.203125 72.90625 
L 55.078125 72.90625 
L 55.078125 68.703125 
L 28.609375 0 
L 18.3125 0 
L 43.21875 64.59375 
L 8.203125 64.59375 
z
" id="DejaVuSans-55"/>
      <path d="M 11.71875 12.40625 
L 22.015625 12.40625 
L 22.015625 4 
L 14.015625 -11.625 
L 7.71875 -11.625 
L 11.71875 4 
z
" id="DejaVuSans-44"/>
      <path d="M 25.390625 72.90625 
L 33.6875 72.90625 
L 8.296875 -9.28125 
L 0 -9.28125 
z
" id="DejaVuSans-47"/>
     </defs>
     <use xlink:href="#DejaVuSans-108"/>
     <use x="27.783203" xlink:href="#DejaVuSans-99"/>
     <use x="82.763672" xlink:href="#DejaVuSans-109"/>
     <use x="180.175781" xlink:href="#DejaVuSans-115"/>
     <use x="232.275391" xlink:href="#DejaVuSans-45"/>
     <use x="268.359375" xlink:href="#DejaVuSans-50"/>
     <use x="331.982422" xlink:href="#DejaVuSans-48"/>
     <use x="395.605469" xlink:href="#DejaVuSans-49"/>
     <use x="459.228516" xlink:href="#DejaVuSans-55"/>
     <use x="522.851562" xlink:href="#DejaVuSans-45"/>
     <use x="558.935547" xlink:href="#DejaVuSans-48"/>
     <use x="622.558594" xlink:href="#DejaVuSans-51"/>
     <use x="686.181641" xlink:href="#DejaVuSans-45"/>
     <use x="722.265625" xlink:href="#DejaVuSans-50"/>
     <use x="785.888672" xlink:href="#DejaVuSans-49"/>
     <use x="849.511719" xlink:href="#DejaVuSans-32"/>
     <use x="881.298828" xlink:href="#DejaVuSans-40"/>
     <use x="920.3125" xlink:href="#DejaVuSans-50"/>
     <use x="983.935547" xlink:href="#DejaVuSans-51"/>
     <use x="1047.558594" xlink:href="#DejaVuSans-104"/>
     <use x="1110.9375" xlink:href="#DejaVuSans-44"/>
     <use x="1142.724609" xlink:href="#DejaVuSans-32"/>
     <use x="1174.511719" xlink:href="#DejaVuSans-50"/>
     <use x="1238.134766" xlink:href="#DejaVuSans-48"/>
     <use x="1301.757812" xlink:href="#DejaVuSans-32"/>
     <use x="1333.544922" xlink:href="#DejaVuSans-116"/>
     <use x="1372.753906" xlink:href="#DejaVuSans-114"/>
     <use x="1413.867188" xlink:href="#DejaVuSans-105"/>
     <use x="1441.650391" xlink:href="#DejaVuSans-97"/>
     <use x="1502.929688" xlink:href="#DejaVuSans-108"/>
     <use x="1530.712891" xlink:href="#DejaVuSans-115"/>
     <use x="1582.8125" xlink:href="#DejaVuSans-47"/>
     <use x="1616.503906" xlink:href="#DejaVuSans-102"/>
     <use x="1651.708984" xlink:href="#DejaVuSans-117"/>
     <use x="1715.087891" xlink:href="#DejaVuSans-122"/>
     <use x="1767.578125" xlink:href="#DejaVuSans-122"/>
     <use x="1820.068359" xlink:href="#DejaVuSans-101"/>
     <use x="1881.591797" xlink:href="#DejaVuSans-114"/>
     <use x="1922.705078" xlink:href="#DejaVuSans-41"/>
    </g>
   </g>
  </g>
 </g>
 <defs>
  <clipPath id="p46b47ab409">
   <rect height="266.112" width="357.12" x="53.328125" y="22.318125"/>
  </clipPath>
 </defs>
</svg>
