<?xml version="1.0" encoding="utf-8" standalone="no"?>
<!DOCTYPE svg PUBLIC "-//W3C//DTD SVG 1.1//EN"
  "http://www.w3.org/Graphics/SVG/1.1/DTD/svg11.dtd">
<!-- Created with matplotlib (https://matplotlib.org/) -->
<svg height="325.986375pt" version="1.1" viewBox="0 0 898.12125 325.986375" width="898.12125pt" xmlns="http://www.w3.org/2000/svg" xmlns:xlink="http://www.w3.org/1999/xlink">
 <metadata>
  <rdf:RDF xmlns:cc="http://creativecommons.org/ns#" xmlns:dc="http://purl.org/dc/elements/1.1/" xmlns:rdf="http://www.w3.org/1999/02/22-rdf-syntax-ns#">
   <cc:Work>
    <dc:type rdf:resource="http://purl.org/dc/dcmitype/StillImage"/>
    <dc:date>2020-12-06T10:28:56.175823</dc:date>
    <dc:format>image/svg+xml</dc:format>
    <dc:creator>
     <cc:Agent>
      <dc:title>Matplotlib v3.3.3, https://matplotlib.org/</dc:title>
     </cc:Agent>
    </dc:creator>
   </cc:Work>
  </rdf:RDF>
 </metadata>
 <defs>
  <style type="text/css">*{stroke-linecap:butt;stroke-linejoin:round;}</style>
 </defs>
 <g id="figure_1">
  <g id="patch_1">
   <path d="M 0 325.986375 
L 898.12125 325.986375 
L 898.12125 0 
L 0 0 
z
" style="fill:#ffffff;"/>
  </g>
  <g id="axes_1">
   <g id="patch_2">
    <path d="M 53.328125 288.430125 
L 767.568125 288.430125 
L 767.568125 22.318125 
L 53.328125 22.318125 
z
" style="fill:#ffffff;"/>
   </g>
   <g id="matplotlib.axis_1">
    <g id="xtick_1">
     <g id="line2d_1">
      <defs>
       <path d="M 0 0 
L 0 3.5 
" id="m61cb187dce" style="stroke:#000000;stroke-width:0.8;"/>
      </defs>
      <g>
       <use style="stroke:#000000;stroke-width:0.8;" x="85.79358" xlink:href="#m61cb187dce" y="288.430125"/>
      </g>
     </g>
     <g id="text_1">
      <!-- 14m -->
      <g transform="translate(74.560767 303.028562)scale(0.1 -0.1)">
       <defs>
        <path d="M 12.40625 8.296875 
L 28.515625 8.296875 
L 28.515625 63.921875 
L 10.984375 60.40625 
L 10.984375 69.390625 
L 28.421875 72.90625 
L 38.28125 72.90625 
L 38.28125 8.296875 
L 54.390625 8.296875 
L 54.390625 0 
L 12.40625 0 
z
" id="DejaVuSans-49"/>
        <path d="M 37.796875 64.3125 
L 12.890625 25.390625 
L 37.796875 25.390625 
z
M 35.203125 72.90625 
L 47.609375 72.90625 
L 47.609375 25.390625 
L 58.015625 25.390625 
L 58.015625 17.1875 
L 47.609375 17.1875 
L 47.609375 0 
L 37.796875 0 
L 37.796875 17.1875 
L 4.890625 17.1875 
L 4.890625 26.703125 
z
" id="DejaVuSans-52"/>
        <path d="M 52 44.1875 
Q 55.375 50.25 60.0625 53.125 
Q 64.75 56 71.09375 56 
Q 79.640625 56 84.28125 50.015625 
Q 88.921875 44.046875 88.921875 33.015625 
L 88.921875 0 
L 79.890625 0 
L 79.890625 32.71875 
Q 79.890625 40.578125 77.09375 44.375 
Q 74.3125 48.1875 68.609375 48.1875 
Q 61.625 48.1875 57.5625 43.546875 
Q 53.515625 38.921875 53.515625 30.90625 
L 53.515625 0 
L 44.484375 0 
L 44.484375 32.71875 
Q 44.484375 40.625 41.703125 44.40625 
Q 38.921875 48.1875 33.109375 48.1875 
Q 26.21875 48.1875 22.15625 43.53125 
Q 18.109375 38.875 18.109375 30.90625 
L 18.109375 0 
L 9.078125 0 
L 9.078125 54.6875 
L 18.109375 54.6875 
L 18.109375 46.1875 
Q 21.1875 51.21875 25.484375 53.609375 
Q 29.78125 56 35.6875 56 
Q 41.65625 56 45.828125 52.96875 
Q 50 49.953125 52 44.1875 
z
" id="DejaVuSans-109"/>
       </defs>
       <use xlink:href="#DejaVuSans-49"/>
       <use x="63.623047" xlink:href="#DejaVuSans-52"/>
       <use x="127.246094" xlink:href="#DejaVuSans-109"/>
      </g>
     </g>
    </g>
    <g id="xtick_2">
     <g id="line2d_2">
      <g>
       <use style="stroke:#000000;stroke-width:0.8;" x="144.821836" xlink:href="#m61cb187dce" y="288.430125"/>
      </g>
     </g>
     <g id="text_2">
      <!-- 22m -->
      <g transform="translate(133.589024 303.028562)scale(0.1 -0.1)">
       <defs>
        <path d="M 19.1875 8.296875 
L 53.609375 8.296875 
L 53.609375 0 
L 7.328125 0 
L 7.328125 8.296875 
Q 12.9375 14.109375 22.625 23.890625 
Q 32.328125 33.6875 34.8125 36.53125 
Q 39.546875 41.84375 41.421875 45.53125 
Q 43.3125 49.21875 43.3125 52.78125 
Q 43.3125 58.59375 39.234375 62.25 
Q 35.15625 65.921875 28.609375 65.921875 
Q 23.96875 65.921875 18.8125 64.3125 
Q 13.671875 62.703125 7.8125 59.421875 
L 7.8125 69.390625 
Q 13.765625 71.78125 18.9375 73 
Q 24.125 74.21875 28.421875 74.21875 
Q 39.75 74.21875 46.484375 68.546875 
Q 53.21875 62.890625 53.21875 53.421875 
Q 53.21875 48.921875 51.53125 44.890625 
Q 49.859375 40.875 45.40625 35.40625 
Q 44.1875 33.984375 37.640625 27.21875 
Q 31.109375 20.453125 19.1875 8.296875 
z
" id="DejaVuSans-50"/>
       </defs>
       <use xlink:href="#DejaVuSans-50"/>
       <use x="63.623047" xlink:href="#DejaVuSans-50"/>
       <use x="127.246094" xlink:href="#DejaVuSans-109"/>
      </g>
     </g>
    </g>
    <g id="xtick_3">
     <g id="line2d_3">
      <g>
       <use style="stroke:#000000;stroke-width:0.8;" x="203.850093" xlink:href="#m61cb187dce" y="288.430125"/>
      </g>
     </g>
     <g id="text_3">
      <!-- 34m -->
      <g transform="translate(192.617281 303.028562)scale(0.1 -0.1)">
       <defs>
        <path d="M 40.578125 39.3125 
Q 47.65625 37.796875 51.625 33 
Q 55.609375 28.21875 55.609375 21.1875 
Q 55.609375 10.40625 48.1875 4.484375 
Q 40.765625 -1.421875 27.09375 -1.421875 
Q 22.515625 -1.421875 17.65625 -0.515625 
Q 12.796875 0.390625 7.625 2.203125 
L 7.625 11.71875 
Q 11.71875 9.328125 16.59375 8.109375 
Q 21.484375 6.890625 26.8125 6.890625 
Q 36.078125 6.890625 40.9375 10.546875 
Q 45.796875 14.203125 45.796875 21.1875 
Q 45.796875 27.640625 41.28125 31.265625 
Q 36.765625 34.90625 28.71875 34.90625 
L 20.21875 34.90625 
L 20.21875 43.015625 
L 29.109375 43.015625 
Q 36.375 43.015625 40.234375 45.921875 
Q 44.09375 48.828125 44.09375 54.296875 
Q 44.09375 59.90625 40.109375 62.90625 
Q 36.140625 65.921875 28.71875 65.921875 
Q 24.65625 65.921875 20.015625 65.03125 
Q 15.375 64.15625 9.8125 62.3125 
L 9.8125 71.09375 
Q 15.4375 72.65625 20.34375 73.4375 
Q 25.25 74.21875 29.59375 74.21875 
Q 40.828125 74.21875 47.359375 69.109375 
Q 53.90625 64.015625 53.90625 55.328125 
Q 53.90625 49.265625 50.4375 45.09375 
Q 46.96875 40.921875 40.578125 39.3125 
z
" id="DejaVuSans-51"/>
       </defs>
       <use xlink:href="#DejaVuSans-51"/>
       <use x="63.623047" xlink:href="#DejaVuSans-52"/>
       <use x="127.246094" xlink:href="#DejaVuSans-109"/>
      </g>
     </g>
    </g>
    <g id="xtick_4">
     <g id="line2d_4">
      <g>
       <use style="stroke:#000000;stroke-width:0.8;" x="262.87835" xlink:href="#m61cb187dce" y="288.430125"/>
      </g>
     </g>
     <g id="text_4">
      <!-- 51m -->
      <g transform="translate(251.645538 303.028562)scale(0.1 -0.1)">
       <defs>
        <path d="M 10.796875 72.90625 
L 49.515625 72.90625 
L 49.515625 64.59375 
L 19.828125 64.59375 
L 19.828125 46.734375 
Q 21.96875 47.46875 24.109375 47.828125 
Q 26.265625 48.1875 28.421875 48.1875 
Q 40.625 48.1875 47.75 41.5 
Q 54.890625 34.8125 54.890625 23.390625 
Q 54.890625 11.625 47.5625 5.09375 
Q 40.234375 -1.421875 26.90625 -1.421875 
Q 22.3125 -1.421875 17.546875 -0.640625 
Q 12.796875 0.140625 7.71875 1.703125 
L 7.71875 11.625 
Q 12.109375 9.234375 16.796875 8.0625 
Q 21.484375 6.890625 26.703125 6.890625 
Q 35.15625 6.890625 40.078125 11.328125 
Q 45.015625 15.765625 45.015625 23.390625 
Q 45.015625 31 40.078125 35.4375 
Q 35.15625 39.890625 26.703125 39.890625 
Q 22.75 39.890625 18.8125 39.015625 
Q 14.890625 38.140625 10.796875 36.28125 
z
" id="DejaVuSans-53"/>
       </defs>
       <use xlink:href="#DejaVuSans-53"/>
       <use x="63.623047" xlink:href="#DejaVuSans-49"/>
       <use x="127.246094" xlink:href="#DejaVuSans-109"/>
      </g>
     </g>
    </g>
    <g id="xtick_5">
     <g id="line2d_5">
      <g>
       <use style="stroke:#000000;stroke-width:0.8;" x="321.906607" xlink:href="#m61cb187dce" y="288.430125"/>
      </g>
     </g>
     <g id="text_5">
      <!-- 1h:17m -->
      <g transform="translate(302.639419 303.028562)scale(0.1 -0.1)">
       <defs>
        <path d="M 54.890625 33.015625 
L 54.890625 0 
L 45.90625 0 
L 45.90625 32.71875 
Q 45.90625 40.484375 42.875 44.328125 
Q 39.84375 48.1875 33.796875 48.1875 
Q 26.515625 48.1875 22.3125 43.546875 
Q 18.109375 38.921875 18.109375 30.90625 
L 18.109375 0 
L 9.078125 0 
L 9.078125 75.984375 
L 18.109375 75.984375 
L 18.109375 46.1875 
Q 21.34375 51.125 25.703125 53.5625 
Q 30.078125 56 35.796875 56 
Q 45.21875 56 50.046875 50.171875 
Q 54.890625 44.34375 54.890625 33.015625 
z
" id="DejaVuSans-104"/>
        <path d="M 11.71875 12.40625 
L 22.015625 12.40625 
L 22.015625 0 
L 11.71875 0 
z
M 11.71875 51.703125 
L 22.015625 51.703125 
L 22.015625 39.3125 
L 11.71875 39.3125 
z
" id="DejaVuSans-58"/>
        <path d="M 8.203125 72.90625 
L 55.078125 72.90625 
L 55.078125 68.703125 
L 28.609375 0 
L 18.3125 0 
L 43.21875 64.59375 
L 8.203125 64.59375 
z
" id="DejaVuSans-55"/>
       </defs>
       <use xlink:href="#DejaVuSans-49"/>
       <use x="63.623047" xlink:href="#DejaVuSans-104"/>
       <use x="127.001953" xlink:href="#DejaVuSans-58"/>
       <use x="160.693359" xlink:href="#DejaVuSans-49"/>
       <use x="224.316406" xlink:href="#DejaVuSans-55"/>
       <use x="287.939453" xlink:href="#DejaVuSans-109"/>
      </g>
     </g>
    </g>
    <g id="xtick_6">
     <g id="line2d_6">
      <g>
       <use style="stroke:#000000;stroke-width:0.8;" x="380.934864" xlink:href="#m61cb187dce" y="288.430125"/>
      </g>
     </g>
     <g id="text_6">
      <!-- 1h:57m -->
      <g transform="translate(361.667676 303.028562)scale(0.1 -0.1)">
       <use xlink:href="#DejaVuSans-49"/>
       <use x="63.623047" xlink:href="#DejaVuSans-104"/>
       <use x="127.001953" xlink:href="#DejaVuSans-58"/>
       <use x="160.693359" xlink:href="#DejaVuSans-53"/>
       <use x="224.316406" xlink:href="#DejaVuSans-55"/>
       <use x="287.939453" xlink:href="#DejaVuSans-109"/>
      </g>
     </g>
    </g>
    <g id="xtick_7">
     <g id="line2d_7">
      <g>
       <use style="stroke:#000000;stroke-width:0.8;" x="439.963121" xlink:href="#m61cb187dce" y="288.430125"/>
      </g>
     </g>
     <g id="text_7">
      <!-- 2h:56m -->
      <g transform="translate(420.695933 303.028562)scale(0.1 -0.1)">
       <defs>
        <path d="M 33.015625 40.375 
Q 26.375 40.375 22.484375 35.828125 
Q 18.609375 31.296875 18.609375 23.390625 
Q 18.609375 15.53125 22.484375 10.953125 
Q 26.375 6.390625 33.015625 6.390625 
Q 39.65625 6.390625 43.53125 10.953125 
Q 47.40625 15.53125 47.40625 23.390625 
Q 47.40625 31.296875 43.53125 35.828125 
Q 39.65625 40.375 33.015625 40.375 
z
M 52.59375 71.296875 
L 52.59375 62.3125 
Q 48.875 64.0625 45.09375 64.984375 
Q 41.3125 65.921875 37.59375 65.921875 
Q 27.828125 65.921875 22.671875 59.328125 
Q 17.53125 52.734375 16.796875 39.40625 
Q 19.671875 43.65625 24.015625 45.921875 
Q 28.375 48.1875 33.59375 48.1875 
Q 44.578125 48.1875 50.953125 41.515625 
Q 57.328125 34.859375 57.328125 23.390625 
Q 57.328125 12.15625 50.6875 5.359375 
Q 44.046875 -1.421875 33.015625 -1.421875 
Q 20.359375 -1.421875 13.671875 8.265625 
Q 6.984375 17.96875 6.984375 36.375 
Q 6.984375 53.65625 15.1875 63.9375 
Q 23.390625 74.21875 37.203125 74.21875 
Q 40.921875 74.21875 44.703125 73.484375 
Q 48.484375 72.75 52.59375 71.296875 
z
" id="DejaVuSans-54"/>
       </defs>
       <use xlink:href="#DejaVuSans-50"/>
       <use x="63.623047" xlink:href="#DejaVuSans-104"/>
       <use x="127.001953" xlink:href="#DejaVuSans-58"/>
       <use x="160.693359" xlink:href="#DejaVuSans-53"/>
       <use x="224.316406" xlink:href="#DejaVuSans-54"/>
       <use x="287.939453" xlink:href="#DejaVuSans-109"/>
      </g>
     </g>
    </g>
    <g id="xtick_8">
     <g id="line2d_8">
      <g>
       <use style="stroke:#000000;stroke-width:0.8;" x="498.991377" xlink:href="#m61cb187dce" y="288.430125"/>
      </g>
     </g>
     <g id="text_8">
      <!-- 4h:26m -->
      <g transform="translate(479.72419 303.028562)scale(0.1 -0.1)">
       <use xlink:href="#DejaVuSans-52"/>
       <use x="63.623047" xlink:href="#DejaVuSans-104"/>
       <use x="127.001953" xlink:href="#DejaVuSans-58"/>
       <use x="160.693359" xlink:href="#DejaVuSans-50"/>
       <use x="224.316406" xlink:href="#DejaVuSans-54"/>
       <use x="287.939453" xlink:href="#DejaVuSans-109"/>
      </g>
     </g>
    </g>
    <g id="xtick_9">
     <g id="line2d_9">
      <g>
       <use style="stroke:#000000;stroke-width:0.8;" x="558.019634" xlink:href="#m61cb187dce" y="288.430125"/>
      </g>
     </g>
     <g id="text_9">
      <!-- 6h:42m -->
      <g transform="translate(538.752447 303.028562)scale(0.1 -0.1)">
       <use xlink:href="#DejaVuSans-54"/>
       <use x="63.623047" xlink:href="#DejaVuSans-104"/>
       <use x="127.001953" xlink:href="#DejaVuSans-58"/>
       <use x="160.693359" xlink:href="#DejaVuSans-52"/>
       <use x="224.316406" xlink:href="#DejaVuSans-50"/>
       <use x="287.939453" xlink:href="#DejaVuSans-109"/>
      </g>
     </g>
    </g>
    <g id="xtick_10">
     <g id="line2d_10">
      <g>
       <use style="stroke:#000000;stroke-width:0.8;" x="617.047891" xlink:href="#m61cb187dce" y="288.430125"/>
      </g>
     </g>
     <g id="text_10">
      <!-- 10h:6m -->
      <g transform="translate(597.780704 303.028562)scale(0.1 -0.1)">
       <defs>
        <path d="M 31.78125 66.40625 
Q 24.171875 66.40625 20.328125 58.90625 
Q 16.5 51.421875 16.5 36.375 
Q 16.5 21.390625 20.328125 13.890625 
Q 24.171875 6.390625 31.78125 6.390625 
Q 39.453125 6.390625 43.28125 13.890625 
Q 47.125 21.390625 47.125 36.375 
Q 47.125 51.421875 43.28125 58.90625 
Q 39.453125 66.40625 31.78125 66.40625 
z
M 31.78125 74.21875 
Q 44.046875 74.21875 50.515625 64.515625 
Q 56.984375 54.828125 56.984375 36.375 
Q 56.984375 17.96875 50.515625 8.265625 
Q 44.046875 -1.421875 31.78125 -1.421875 
Q 19.53125 -1.421875 13.0625 8.265625 
Q 6.59375 17.96875 6.59375 36.375 
Q 6.59375 54.828125 13.0625 64.515625 
Q 19.53125 74.21875 31.78125 74.21875 
z
" id="DejaVuSans-48"/>
       </defs>
       <use xlink:href="#DejaVuSans-49"/>
       <use x="63.623047" xlink:href="#DejaVuSans-48"/>
       <use x="127.246094" xlink:href="#DejaVuSans-104"/>
       <use x="190.625" xlink:href="#DejaVuSans-58"/>
       <use x="224.316406" xlink:href="#DejaVuSans-54"/>
       <use x="287.939453" xlink:href="#DejaVuSans-109"/>
      </g>
     </g>
    </g>
    <g id="xtick_11">
     <g id="line2d_11">
      <g>
       <use style="stroke:#000000;stroke-width:0.8;" x="676.076148" xlink:href="#m61cb187dce" y="288.430125"/>
      </g>
     </g>
     <g id="text_11">
      <!-- 15h:14m -->
      <g transform="translate(653.62771 303.028562)scale(0.1 -0.1)">
       <use xlink:href="#DejaVuSans-49"/>
       <use x="63.623047" xlink:href="#DejaVuSans-53"/>
       <use x="127.246094" xlink:href="#DejaVuSans-104"/>
       <use x="190.625" xlink:href="#DejaVuSans-58"/>
       <use x="224.316406" xlink:href="#DejaVuSans-49"/>
       <use x="287.939453" xlink:href="#DejaVuSans-52"/>
       <use x="351.5625" xlink:href="#DejaVuSans-109"/>
      </g>
     </g>
    </g>
    <g id="xtick_12">
     <g id="line2d_12">
      <g>
       <use style="stroke:#000000;stroke-width:0.8;" x="735.104405" xlink:href="#m61cb187dce" y="288.430125"/>
      </g>
     </g>
     <g id="text_12">
      <!-- 23h -->
      <g transform="translate(725.573155 303.028562)scale(0.1 -0.1)">
       <use xlink:href="#DejaVuSans-50"/>
       <use x="63.623047" xlink:href="#DejaVuSans-51"/>
       <use x="127.246094" xlink:href="#DejaVuSans-104"/>
      </g>
     </g>
    </g>
    <g id="xtick_13">
     <g id="line2d_13">
      <defs>
       <path d="M 0 0 
L 0 2 
" id="m5bb7cbb9be" style="stroke:#000000;stroke-width:0.6;"/>
      </defs>
      <g>
       <use style="stroke:#000000;stroke-width:0.6;" x="68.88045" xlink:href="#m5bb7cbb9be" y="288.430125"/>
      </g>
     </g>
    </g>
    <g id="xtick_14">
     <g id="line2d_14">
      <g>
       <use style="stroke:#000000;stroke-width:0.6;" x="200.455797" xlink:href="#m5bb7cbb9be" y="288.430125"/>
      </g>
     </g>
    </g>
    <g id="xtick_15">
     <g id="line2d_15">
      <g>
       <use style="stroke:#000000;stroke-width:0.6;" x="258.678816" xlink:href="#m5bb7cbb9be" y="288.430125"/>
      </g>
     </g>
    </g>
    <g id="xtick_16">
     <g id="line2d_16">
      <g>
       <use style="stroke:#000000;stroke-width:0.6;" x="299.988705" xlink:href="#m5bb7cbb9be" y="288.430125"/>
      </g>
     </g>
    </g>
    <g id="xtick_17">
     <g id="line2d_17">
      <g>
       <use style="stroke:#000000;stroke-width:0.6;" x="332.031144" xlink:href="#m5bb7cbb9be" y="288.430125"/>
      </g>
     </g>
    </g>
    <g id="xtick_18">
     <g id="line2d_18">
      <g>
       <use style="stroke:#000000;stroke-width:0.6;" x="358.211724" xlink:href="#m5bb7cbb9be" y="288.430125"/>
      </g>
     </g>
    </g>
    <g id="xtick_19">
     <g id="line2d_19">
      <g>
       <use style="stroke:#000000;stroke-width:0.6;" x="380.347088" xlink:href="#m5bb7cbb9be" y="288.430125"/>
      </g>
     </g>
    </g>
    <g id="xtick_20">
     <g id="line2d_20">
      <g>
       <use style="stroke:#000000;stroke-width:0.6;" x="399.521613" xlink:href="#m5bb7cbb9be" y="288.430125"/>
      </g>
     </g>
    </g>
    <g id="xtick_21">
     <g id="line2d_21">
      <g>
       <use style="stroke:#000000;stroke-width:0.6;" x="416.434742" xlink:href="#m5bb7cbb9be" y="288.430125"/>
      </g>
     </g>
    </g>
    <g id="xtick_22">
     <g id="line2d_22">
      <g>
       <use style="stroke:#000000;stroke-width:0.6;" x="531.09696" xlink:href="#m5bb7cbb9be" y="288.430125"/>
      </g>
     </g>
    </g>
    <g id="xtick_23">
     <g id="line2d_23">
      <g>
       <use style="stroke:#000000;stroke-width:0.6;" x="589.319979" xlink:href="#m5bb7cbb9be" y="288.430125"/>
      </g>
     </g>
    </g>
    <g id="xtick_24">
     <g id="line2d_24">
      <g>
       <use style="stroke:#000000;stroke-width:0.6;" x="630.629868" xlink:href="#m5bb7cbb9be" y="288.430125"/>
      </g>
     </g>
    </g>
    <g id="xtick_25">
     <g id="line2d_25">
      <g>
       <use style="stroke:#000000;stroke-width:0.6;" x="662.672307" xlink:href="#m5bb7cbb9be" y="288.430125"/>
      </g>
     </g>
    </g>
    <g id="xtick_26">
     <g id="line2d_26">
      <g>
       <use style="stroke:#000000;stroke-width:0.6;" x="688.852887" xlink:href="#m5bb7cbb9be" y="288.430125"/>
      </g>
     </g>
    </g>
    <g id="xtick_27">
     <g id="line2d_27">
      <g>
       <use style="stroke:#000000;stroke-width:0.6;" x="710.988251" xlink:href="#m5bb7cbb9be" y="288.430125"/>
      </g>
     </g>
    </g>
    <g id="xtick_28">
     <g id="line2d_28">
      <g>
       <use style="stroke:#000000;stroke-width:0.6;" x="730.162776" xlink:href="#m5bb7cbb9be" y="288.430125"/>
      </g>
     </g>
    </g>
    <g id="xtick_29">
     <g id="line2d_29">
      <g>
       <use style="stroke:#000000;stroke-width:0.6;" x="747.075905" xlink:href="#m5bb7cbb9be" y="288.430125"/>
      </g>
     </g>
    </g>
    <g id="text_13">
     <!-- Time (hour:minute) -->
     <g transform="translate(362.041094 316.706687)scale(0.1 -0.1)">
      <defs>
       <path d="M -0.296875 72.90625 
L 61.375 72.90625 
L 61.375 64.59375 
L 35.5 64.59375 
L 35.5 0 
L 25.59375 0 
L 25.59375 64.59375 
L -0.296875 64.59375 
z
" id="DejaVuSans-84"/>
       <path d="M 9.421875 54.6875 
L 18.40625 54.6875 
L 18.40625 0 
L 9.421875 0 
z
M 9.421875 75.984375 
L 18.40625 75.984375 
L 18.40625 64.59375 
L 9.421875 64.59375 
z
" id="DejaVuSans-105"/>
       <path d="M 56.203125 29.59375 
L 56.203125 25.203125 
L 14.890625 25.203125 
Q 15.484375 15.921875 20.484375 11.0625 
Q 25.484375 6.203125 34.421875 6.203125 
Q 39.59375 6.203125 44.453125 7.46875 
Q 49.3125 8.734375 54.109375 11.28125 
L 54.109375 2.78125 
Q 49.265625 0.734375 44.1875 -0.34375 
Q 39.109375 -1.421875 33.890625 -1.421875 
Q 20.796875 -1.421875 13.15625 6.1875 
Q 5.515625 13.8125 5.515625 26.8125 
Q 5.515625 40.234375 12.765625 48.109375 
Q 20.015625 56 32.328125 56 
Q 43.359375 56 49.78125 48.890625 
Q 56.203125 41.796875 56.203125 29.59375 
z
M 47.21875 32.234375 
Q 47.125 39.59375 43.09375 43.984375 
Q 39.0625 48.390625 32.421875 48.390625 
Q 24.90625 48.390625 20.390625 44.140625 
Q 15.875 39.890625 15.1875 32.171875 
z
" id="DejaVuSans-101"/>
       <path id="DejaVuSans-32"/>
       <path d="M 31 75.875 
Q 24.46875 64.65625 21.28125 53.65625 
Q 18.109375 42.671875 18.109375 31.390625 
Q 18.109375 20.125 21.3125 9.0625 
Q 24.515625 -2 31 -13.1875 
L 23.1875 -13.1875 
Q 15.875 -1.703125 12.234375 9.375 
Q 8.59375 20.453125 8.59375 31.390625 
Q 8.59375 42.28125 12.203125 53.3125 
Q 15.828125 64.359375 23.1875 75.875 
z
" id="DejaVuSans-40"/>
       <path d="M 30.609375 48.390625 
Q 23.390625 48.390625 19.1875 42.75 
Q 14.984375 37.109375 14.984375 27.296875 
Q 14.984375 17.484375 19.15625 11.84375 
Q 23.34375 6.203125 30.609375 6.203125 
Q 37.796875 6.203125 41.984375 11.859375 
Q 46.1875 17.53125 46.1875 27.296875 
Q 46.1875 37.015625 41.984375 42.703125 
Q 37.796875 48.390625 30.609375 48.390625 
z
M 30.609375 56 
Q 42.328125 56 49.015625 48.375 
Q 55.71875 40.765625 55.71875 27.296875 
Q 55.71875 13.875 49.015625 6.21875 
Q 42.328125 -1.421875 30.609375 -1.421875 
Q 18.84375 -1.421875 12.171875 6.21875 
Q 5.515625 13.875 5.515625 27.296875 
Q 5.515625 40.765625 12.171875 48.375 
Q 18.84375 56 30.609375 56 
z
" id="DejaVuSans-111"/>
       <path d="M 8.5 21.578125 
L 8.5 54.6875 
L 17.484375 54.6875 
L 17.484375 21.921875 
Q 17.484375 14.15625 20.5 10.265625 
Q 23.53125 6.390625 29.59375 6.390625 
Q 36.859375 6.390625 41.078125 11.03125 
Q 45.3125 15.671875 45.3125 23.6875 
L 45.3125 54.6875 
L 54.296875 54.6875 
L 54.296875 0 
L 45.3125 0 
L 45.3125 8.40625 
Q 42.046875 3.421875 37.71875 1 
Q 33.40625 -1.421875 27.6875 -1.421875 
Q 18.265625 -1.421875 13.375 4.4375 
Q 8.5 10.296875 8.5 21.578125 
z
M 31.109375 56 
z
" id="DejaVuSans-117"/>
       <path d="M 41.109375 46.296875 
Q 39.59375 47.171875 37.8125 47.578125 
Q 36.03125 48 33.890625 48 
Q 26.265625 48 22.1875 43.046875 
Q 18.109375 38.09375 18.109375 28.8125 
L 18.109375 0 
L 9.078125 0 
L 9.078125 54.6875 
L 18.109375 54.6875 
L 18.109375 46.1875 
Q 20.953125 51.171875 25.484375 53.578125 
Q 30.03125 56 36.53125 56 
Q 37.453125 56 38.578125 55.875 
Q 39.703125 55.765625 41.0625 55.515625 
z
" id="DejaVuSans-114"/>
       <path d="M 54.890625 33.015625 
L 54.890625 0 
L 45.90625 0 
L 45.90625 32.71875 
Q 45.90625 40.484375 42.875 44.328125 
Q 39.84375 48.1875 33.796875 48.1875 
Q 26.515625 48.1875 22.3125 43.546875 
Q 18.109375 38.921875 18.109375 30.90625 
L 18.109375 0 
L 9.078125 0 
L 9.078125 54.6875 
L 18.109375 54.6875 
L 18.109375 46.1875 
Q 21.34375 51.125 25.703125 53.5625 
Q 30.078125 56 35.796875 56 
Q 45.21875 56 50.046875 50.171875 
Q 54.890625 44.34375 54.890625 33.015625 
z
" id="DejaVuSans-110"/>
       <path d="M 18.3125 70.21875 
L 18.3125 54.6875 
L 36.8125 54.6875 
L 36.8125 47.703125 
L 18.3125 47.703125 
L 18.3125 18.015625 
Q 18.3125 11.328125 20.140625 9.421875 
Q 21.96875 7.515625 27.59375 7.515625 
L 36.8125 7.515625 
L 36.8125 0 
L 27.59375 0 
Q 17.1875 0 13.234375 3.875 
Q 9.28125 7.765625 9.28125 18.015625 
L 9.28125 47.703125 
L 2.6875 47.703125 
L 2.6875 54.6875 
L 9.28125 54.6875 
L 9.28125 70.21875 
z
" id="DejaVuSans-116"/>
       <path d="M 8.015625 75.875 
L 15.828125 75.875 
Q 23.140625 64.359375 26.78125 53.3125 
Q 30.421875 42.28125 30.421875 31.390625 
Q 30.421875 20.453125 26.78125 9.375 
Q 23.140625 -1.703125 15.828125 -13.1875 
L 8.015625 -13.1875 
Q 14.5 -2 17.703125 9.0625 
Q 20.90625 20.125 20.90625 31.390625 
Q 20.90625 42.671875 17.703125 53.65625 
Q 14.5 64.65625 8.015625 75.875 
z
" id="DejaVuSans-41"/>
      </defs>
      <use xlink:href="#DejaVuSans-84"/>
      <use x="57.958984" xlink:href="#DejaVuSans-105"/>
      <use x="85.742188" xlink:href="#DejaVuSans-109"/>
      <use x="183.154297" xlink:href="#DejaVuSans-101"/>
      <use x="244.677734" xlink:href="#DejaVuSans-32"/>
      <use x="276.464844" xlink:href="#DejaVuSans-40"/>
      <use x="315.478516" xlink:href="#DejaVuSans-104"/>
      <use x="378.857422" xlink:href="#DejaVuSans-111"/>
      <use x="440.039062" xlink:href="#DejaVuSans-117"/>
      <use x="503.417969" xlink:href="#DejaVuSans-114"/>
      <use x="542.78125" xlink:href="#DejaVuSans-58"/>
      <use x="576.472656" xlink:href="#DejaVuSans-109"/>
      <use x="673.884766" xlink:href="#DejaVuSans-105"/>
      <use x="701.667969" xlink:href="#DejaVuSans-110"/>
      <use x="765.046875" xlink:href="#DejaVuSans-117"/>
      <use x="828.425781" xlink:href="#DejaVuSans-116"/>
      <use x="867.634766" xlink:href="#DejaVuSans-101"/>
      <use x="929.158203" xlink:href="#DejaVuSans-41"/>
     </g>
    </g>
   </g>
   <g id="matplotlib.axis_2">
    <g id="ytick_1">
     <g id="line2d_30">
      <defs>
       <path d="M 0 0 
L -3.5 0 
" id="m11a1d425a3" style="stroke:#000000;stroke-width:0.8;"/>
      </defs>
      <g>
       <use style="stroke:#000000;stroke-width:0.8;" x="53.328125" xlink:href="#m11a1d425a3" y="286.934742"/>
      </g>
     </g>
     <g id="text_14">
      <!-- 1000 -->
      <g transform="translate(20.878125 290.733961)scale(0.1 -0.1)">
       <use xlink:href="#DejaVuSans-49"/>
       <use x="63.623047" xlink:href="#DejaVuSans-48"/>
       <use x="127.246094" xlink:href="#DejaVuSans-48"/>
       <use x="190.869141" xlink:href="#DejaVuSans-48"/>
      </g>
     </g>
    </g>
    <g id="ytick_2">
     <g id="line2d_31">
      <g>
       <use style="stroke:#000000;stroke-width:0.8;" x="53.328125" xlink:href="#m11a1d425a3" y="229.880829"/>
      </g>
     </g>
     <g id="text_15">
      <!-- 1500 -->
      <g transform="translate(20.878125 233.680048)scale(0.1 -0.1)">
       <use xlink:href="#DejaVuSans-49"/>
       <use x="63.623047" xlink:href="#DejaVuSans-53"/>
       <use x="127.246094" xlink:href="#DejaVuSans-48"/>
       <use x="190.869141" xlink:href="#DejaVuSans-48"/>
      </g>
     </g>
    </g>
    <g id="ytick_3">
     <g id="line2d_32">
      <g>
       <use style="stroke:#000000;stroke-width:0.8;" x="53.328125" xlink:href="#m11a1d425a3" y="172.826917"/>
      </g>
     </g>
     <g id="text_16">
      <!-- 2000 -->
      <g transform="translate(20.878125 176.626136)scale(0.1 -0.1)">
       <use xlink:href="#DejaVuSans-50"/>
       <use x="63.623047" xlink:href="#DejaVuSans-48"/>
       <use x="127.246094" xlink:href="#DejaVuSans-48"/>
       <use x="190.869141" xlink:href="#DejaVuSans-48"/>
      </g>
     </g>
    </g>
    <g id="ytick_4">
     <g id="line2d_33">
      <g>
       <use style="stroke:#000000;stroke-width:0.8;" x="53.328125" xlink:href="#m11a1d425a3" y="115.773004"/>
      </g>
     </g>
     <g id="text_17">
      <!-- 2500 -->
      <g transform="translate(20.878125 119.572223)scale(0.1 -0.1)">
       <use xlink:href="#DejaVuSans-50"/>
       <use x="63.623047" xlink:href="#DejaVuSans-53"/>
       <use x="127.246094" xlink:href="#DejaVuSans-48"/>
       <use x="190.869141" xlink:href="#DejaVuSans-48"/>
      </g>
     </g>
    </g>
    <g id="ytick_5">
     <g id="line2d_34">
      <g>
       <use style="stroke:#000000;stroke-width:0.8;" x="53.328125" xlink:href="#m11a1d425a3" y="58.719092"/>
      </g>
     </g>
     <g id="text_18">
      <!-- 3000 -->
      <g transform="translate(20.878125 62.51831)scale(0.1 -0.1)">
       <use xlink:href="#DejaVuSans-51"/>
       <use x="63.623047" xlink:href="#DejaVuSans-48"/>
       <use x="127.246094" xlink:href="#DejaVuSans-48"/>
       <use x="190.869141" xlink:href="#DejaVuSans-48"/>
      </g>
     </g>
    </g>
    <g id="text_19">
     <!-- Edge coverage -->
     <g transform="translate(14.798438 192.762406)rotate(-90)scale(0.1 -0.1)">
      <defs>
       <path d="M 9.8125 72.90625 
L 55.90625 72.90625 
L 55.90625 64.59375 
L 19.671875 64.59375 
L 19.671875 43.015625 
L 54.390625 43.015625 
L 54.390625 34.71875 
L 19.671875 34.71875 
L 19.671875 8.296875 
L 56.78125 8.296875 
L 56.78125 0 
L 9.8125 0 
z
" id="DejaVuSans-69"/>
       <path d="M 45.40625 46.390625 
L 45.40625 75.984375 
L 54.390625 75.984375 
L 54.390625 0 
L 45.40625 0 
L 45.40625 8.203125 
Q 42.578125 3.328125 38.25 0.953125 
Q 33.9375 -1.421875 27.875 -1.421875 
Q 17.96875 -1.421875 11.734375 6.484375 
Q 5.515625 14.40625 5.515625 27.296875 
Q 5.515625 40.1875 11.734375 48.09375 
Q 17.96875 56 27.875 56 
Q 33.9375 56 38.25 53.625 
Q 42.578125 51.265625 45.40625 46.390625 
z
M 14.796875 27.296875 
Q 14.796875 17.390625 18.875 11.75 
Q 22.953125 6.109375 30.078125 6.109375 
Q 37.203125 6.109375 41.296875 11.75 
Q 45.40625 17.390625 45.40625 27.296875 
Q 45.40625 37.203125 41.296875 42.84375 
Q 37.203125 48.484375 30.078125 48.484375 
Q 22.953125 48.484375 18.875 42.84375 
Q 14.796875 37.203125 14.796875 27.296875 
z
" id="DejaVuSans-100"/>
       <path d="M 45.40625 27.984375 
Q 45.40625 37.75 41.375 43.109375 
Q 37.359375 48.484375 30.078125 48.484375 
Q 22.859375 48.484375 18.828125 43.109375 
Q 14.796875 37.75 14.796875 27.984375 
Q 14.796875 18.265625 18.828125 12.890625 
Q 22.859375 7.515625 30.078125 7.515625 
Q 37.359375 7.515625 41.375 12.890625 
Q 45.40625 18.265625 45.40625 27.984375 
z
M 54.390625 6.78125 
Q 54.390625 -7.171875 48.1875 -13.984375 
Q 42 -20.796875 29.203125 -20.796875 
Q 24.46875 -20.796875 20.265625 -20.09375 
Q 16.0625 -19.390625 12.109375 -17.921875 
L 12.109375 -9.1875 
Q 16.0625 -11.328125 19.921875 -12.34375 
Q 23.78125 -13.375 27.78125 -13.375 
Q 36.625 -13.375 41.015625 -8.765625 
Q 45.40625 -4.15625 45.40625 5.171875 
L 45.40625 9.625 
Q 42.625 4.78125 38.28125 2.390625 
Q 33.9375 0 27.875 0 
Q 17.828125 0 11.671875 7.65625 
Q 5.515625 15.328125 5.515625 27.984375 
Q 5.515625 40.671875 11.671875 48.328125 
Q 17.828125 56 27.875 56 
Q 33.9375 56 38.28125 53.609375 
Q 42.625 51.21875 45.40625 46.390625 
L 45.40625 54.6875 
L 54.390625 54.6875 
z
" id="DejaVuSans-103"/>
       <path d="M 48.78125 52.59375 
L 48.78125 44.1875 
Q 44.96875 46.296875 41.140625 47.34375 
Q 37.3125 48.390625 33.40625 48.390625 
Q 24.65625 48.390625 19.8125 42.84375 
Q 14.984375 37.3125 14.984375 27.296875 
Q 14.984375 17.28125 19.8125 11.734375 
Q 24.65625 6.203125 33.40625 6.203125 
Q 37.3125 6.203125 41.140625 7.25 
Q 44.96875 8.296875 48.78125 10.40625 
L 48.78125 2.09375 
Q 45.015625 0.34375 40.984375 -0.53125 
Q 36.96875 -1.421875 32.421875 -1.421875 
Q 20.0625 -1.421875 12.78125 6.34375 
Q 5.515625 14.109375 5.515625 27.296875 
Q 5.515625 40.671875 12.859375 48.328125 
Q 20.21875 56 33.015625 56 
Q 37.15625 56 41.109375 55.140625 
Q 45.0625 54.296875 48.78125 52.59375 
z
" id="DejaVuSans-99"/>
       <path d="M 2.984375 54.6875 
L 12.5 54.6875 
L 29.59375 8.796875 
L 46.6875 54.6875 
L 56.203125 54.6875 
L 35.6875 0 
L 23.484375 0 
z
" id="DejaVuSans-118"/>
       <path d="M 34.28125 27.484375 
Q 23.390625 27.484375 19.1875 25 
Q 14.984375 22.515625 14.984375 16.5 
Q 14.984375 11.71875 18.140625 8.90625 
Q 21.296875 6.109375 26.703125 6.109375 
Q 34.1875 6.109375 38.703125 11.40625 
Q 43.21875 16.703125 43.21875 25.484375 
L 43.21875 27.484375 
z
M 52.203125 31.203125 
L 52.203125 0 
L 43.21875 0 
L 43.21875 8.296875 
Q 40.140625 3.328125 35.546875 0.953125 
Q 30.953125 -1.421875 24.3125 -1.421875 
Q 15.921875 -1.421875 10.953125 3.296875 
Q 6 8.015625 6 15.921875 
Q 6 25.140625 12.171875 29.828125 
Q 18.359375 34.515625 30.609375 34.515625 
L 43.21875 34.515625 
L 43.21875 35.40625 
Q 43.21875 41.609375 39.140625 45 
Q 35.0625 48.390625 27.6875 48.390625 
Q 23 48.390625 18.546875 47.265625 
Q 14.109375 46.140625 10.015625 43.890625 
L 10.015625 52.203125 
Q 14.9375 54.109375 19.578125 55.046875 
Q 24.21875 56 28.609375 56 
Q 40.484375 56 46.34375 49.84375 
Q 52.203125 43.703125 52.203125 31.203125 
z
" id="DejaVuSans-97"/>
      </defs>
      <use xlink:href="#DejaVuSans-69"/>
      <use x="63.183594" xlink:href="#DejaVuSans-100"/>
      <use x="126.660156" xlink:href="#DejaVuSans-103"/>
      <use x="190.136719" xlink:href="#DejaVuSans-101"/>
      <use x="251.660156" xlink:href="#DejaVuSans-32"/>
      <use x="283.447266" xlink:href="#DejaVuSans-99"/>
      <use x="338.427734" xlink:href="#DejaVuSans-111"/>
      <use x="399.609375" xlink:href="#DejaVuSans-118"/>
      <use x="458.789062" xlink:href="#DejaVuSans-101"/>
      <use x="520.3125" xlink:href="#DejaVuSans-114"/>
      <use x="561.425781" xlink:href="#DejaVuSans-97"/>
      <use x="622.705078" xlink:href="#DejaVuSans-103"/>
      <use x="686.181641" xlink:href="#DejaVuSans-101"/>
     </g>
    </g>
   </g>
   <g id="line2d_35">
    <path clip-path="url(#p1016d3e5d4)" d="M 85.79358 198.193086 
L 185.326487 168.239782 
L 243.549506 137.72735 
L 284.859395 119.977878 
L 316.901835 116.782859 
L 343.082414 105.794275 
L 365.217778 100.374153 
L 384.392303 98.325918 
L 401.305433 97.378823 
L 416.434742 95.58733 
L 430.120868 95.113783 
L 442.615322 93.870007 
L 454.109105 93.476335 
L 464.750686 92.768867 
L 474.657761 92.386606 
L 483.925211 91.970112 
L 492.630642 91.20559 
L 500.83834 90.714926 
L 508.602157 89.197292 
L 515.96765 87.263164 
L 522.973705 87.120529 
L 529.653776 83.275096 
L 536.036855 82.350822 
L 542.14823 82.173955 
L 548.01009 80.861715 
L 553.642013 79.600824 
L 559.061359 79.041695 
L 564.283594 76.913584 
L 569.322554 75.538585 
L 574.190669 75.059332 
L 578.899144 74.169291 
L 583.458119 71.168255 
L 587.876794 70.158401 
L 592.16355 69.080082 
L 596.326033 68.617946 
L 600.371248 67.533921 
L 604.305621 64.475832 
L 608.135065 60.7388 
L 611.865031 59.837348 
L 615.500558 58.827494 
L 619.046309 58.781851 
L 622.506613 58.741913 
L 625.885489 58.450938 
L 629.186684 57.247101 
L 632.413688 56.539632 
L 635.569763 56.471168 
L 638.65796 56.459757 
L 641.681137 56.362765 
L 644.641977 56.214425 
L 647.542997 55.929155 
L 650.386568 54.942123 
L 653.174921 54.919301 
L 655.910158 54.919301 
L 658.594267 54.691086 
L 661.229123 53.80675 
L 663.816502 53.795339 
L 666.358084 53.099281 
L 668.855462 53.007995 
L 671.310148 52.990879 
L 673.723577 52.950941 
L 676.097112 52.637145 
L 678.432052 52.397518 
L 680.729631 52.380402 
L 682.991027 52.294821 
L 685.21736 52.214946 
L 687.409702 52.180713 
L 689.569076 52.180713 
L 691.696457 52.180713 
L 693.792781 51.079573 
L 695.858941 50.95976 
L 697.895793 50.897 
L 699.904156 50.765776 
L 701.884817 44.535489 
L 703.838529 44.347211 
L 705.766016 43.502813 
L 707.667973 43.365884 
L 709.545067 42.304681 
L 711.397939 42.156341 
L 713.227208 41.734142 
L 715.033466 41.523043 
L 716.817286 41.465989 
L 718.579217 41.180719 
L 720.319792 41.11796 
L 722.03952 41.032379 
L 723.738897 40.986736 
L 725.418397 40.941093 
L 727.078481 38.35655 
L 728.719591 36.359663 
L 730.342158 36.102921 
L 731.946595 35.15012 
L 733.533304 34.921905 
L 735.10267 34.414125 
" style="fill:none;stroke:#ff7f0e;stroke-linecap:square;stroke-width:1.5;"/>
   </g>
   <g id="line2d_36">
    <path clip-path="url(#p1016d3e5d4)" d="M 85.79358 243.037462 
L 185.326487 227.815478 
L 243.549506 213.432186 
L 284.859395 205.667149 
L 316.901835 189.93168 
L 343.082414 179.770378 
L 365.217778 171.343515 
L 384.392303 167.760529 
L 401.305433 152.064998 
L 416.434742 149.902655 
L 430.120868 148.253797 
L 442.615322 147.426515 
L 454.109105 146.816038 
L 464.750686 144.539587 
L 474.657761 138.041146 
L 483.925211 130.504325 
L 492.630642 124.000178 
L 500.83834 123.532336 
L 508.602157 117.883999 
L 515.96765 116.794269 
L 522.973705 116.024042 
L 529.653776 115.750183 
L 536.036855 109.400082 
L 542.14823 108.595622 
L 548.01009 103.392305 
L 553.642013 102.536497 
L 559.061359 102.205584 
L 564.283594 101.880377 
L 569.322554 100.978925 
L 574.190669 100.887639 
L 578.899144 100.602369 
L 583.458119 99.991892 
L 587.876794 99.643863 
L 592.16355 99.518345 
L 596.326033 99.312951 
L 600.371248 99.176021 
L 604.305621 98.782349 
L 608.135065 98.634009 
L 611.865031 98.531312 
L 615.500558 92.997082 
L 619.046309 87.554139 
L 622.506613 87.28028 
L 625.885489 87.160467 
L 629.186684 87.023538 
L 632.413688 86.62416 
L 635.569763 85.648538 
L 638.65796 84.159431 
L 641.681137 83.839929 
L 644.641977 83.103934 
L 647.542997 82.424992 
L 650.386568 82.253831 
L 653.174921 81.169806 
L 655.910158 80.627794 
L 658.594267 79.891799 
L 661.229123 78.362754 
L 663.816502 77.444186 
L 666.358084 76.257464 
L 668.855462 75.572818 
L 671.310148 75.144913 
L 673.723577 74.945224 
L 676.097112 74.260578 
L 678.432052 73.901138 
L 680.729631 73.324893 
L 682.991027 72.372093 
L 685.21736 72.02977 
L 687.409702 71.328006 
L 689.569076 70.472198 
L 691.696457 68.960269 
L 693.792781 66.524067 
L 695.858941 66.318673 
L 697.895793 66.250208 
L 699.904156 65.308819 
L 701.884817 64.344608 
L 703.838529 64.298964 
L 705.766016 63.774068 
L 707.667973 63.625728 
L 709.545067 63.545853 
L 711.397939 62.615874 
L 713.227208 62.279256 
L 715.033466 62.267845 
L 716.817286 62.005397 
L 718.579217 61.82853 
L 720.319792 61.674484 
L 722.03952 60.310896 
L 723.738897 58.388179 
L 725.418397 57.600835 
L 727.078481 56.973242 
L 728.719591 56.756437 
L 730.342158 56.710794 
L 731.946595 56.648035 
L 733.533304 56.031852 
L 735.10267 55.77511 
" style="fill:none;stroke:#2ca02c;stroke-linecap:square;stroke-width:1.5;"/>
   </g>
   <g id="line2d_37">
    <path clip-path="url(#p1016d3e5d4)" d="M 85.79358 140.85961 
L 185.326487 128.826939 
L 243.549506 112.595101 
L 284.859395 109.422904 
L 316.901835 106.028196 
L 343.082414 103.557762 
L 365.217778 101.520937 
L 384.392303 96.933802 
L 401.305433 96.266272 
L 416.434742 93.539095 
L 430.120868 91.331108 
L 442.615322 89.180176 
L 454.109105 88.495529 
L 464.750686 88.061919 
L 474.657761 87.086297 
L 483.925211 86.515758 
L 492.630642 85.945219 
L 500.83834 85.31192 
L 508.602157 83.931216 
L 515.96765 83.372087 
L 522.973705 83.086818 
L 529.653776 82.938478 
L 536.036855 81.557773 
L 542.14823 81.529246 
L 548.01009 80.587856 
L 553.642013 80.171363 
L 559.061359 79.897504 
L 564.283594 76.537029 
L 569.322554 75.047922 
L 574.190669 74.540142 
L 578.899144 73.952486 
L 583.458119 73.062445 
L 587.876794 72.902694 
L 592.16355 72.891284 
L 596.326033 72.77147 
L 600.371248 72.668773 
L 604.305621 70.500725 
L 608.135065 69.456638 
L 611.865031 68.994501 
L 615.500558 68.435373 
L 619.046309 68.201452 
L 622.506613 68.098755 
L 625.885489 67.830602 
L 629.186684 67.819191 
L 632.413688 67.819191 
L 635.569763 67.619502 
L 638.65796 67.37417 
L 641.681137 67.014731 
L 644.641977 66.581121 
L 647.542997 66.427075 
L 650.386568 66.375727 
L 653.174921 66.352905 
L 655.910158 66.3472 
L 658.594267 66.341494 
L 661.229123 65.902179 
L 663.816502 65.902179 
L 666.358084 65.017844 
L 668.855462 64.875209 
L 671.310148 64.264732 
L 673.723577 64.162035 
L 676.097112 64.139213 
L 678.432052 64.070749 
L 680.729631 63.893882 
L 682.991027 63.808301 
L 685.21736 63.768363 
L 687.409702 63.739836 
L 689.569076 63.711309 
L 691.696457 63.711309 
L 693.792781 63.705604 
L 695.858941 63.51162 
L 697.895793 63.51162 
L 699.904156 63.351869 
L 701.884817 62.969608 
L 703.838529 62.570231 
L 705.766016 62.250729 
L 707.667973 62.233613 
L 709.545067 62.136621 
L 711.397939 62.079567 
L 713.227208 62.079567 
L 715.033466 62.073862 
L 716.817286 62.068156 
L 718.579217 62.045335 
L 720.319792 61.993986 
L 722.03952 61.982576 
L 723.738897 61.948343 
L 725.418397 61.491912 
L 727.078481 61.463385 
L 728.719591 61.451974 
L 730.342158 61.012659 
L 731.946595 60.944194 
L 733.533304 60.921373 
L 735.10267 60.88714 
" style="fill:none;stroke:#1f77b4;stroke-linecap:square;stroke-width:1.5;"/>
   </g>
   <g id="line2d_38">
    <path clip-path="url(#p1016d3e5d4)" d="M 85.79358 216.638616 
L 185.326487 177.670794 
L 243.549506 163.458664 
L 284.859395 144.088861 
L 316.901835 136.591977 
L 343.082414 136.010027 
L 365.217778 135.599239 
L 384.392303 123.429639 
L 401.305433 116.862734 
L 416.434742 116.451946 
L 430.120868 116.200909 
L 442.615322 114.905785 
L 454.109105 114.740328 
L 464.750686 114.643337 
L 474.657761 114.449354 
L 483.925211 114.209727 
L 492.630642 114.169789 
L 500.83834 113.981511 
L 508.602157 113.82176 
L 515.96765 113.776117 
L 522.973705 112.612218 
L 529.653776 112.566574 
L 536.036855 112.486699 
L 542.14823 112.429645 
L 548.01009 112.372591 
L 553.642013 112.304126 
L 559.061359 112.252778 
L 564.283594 112.161492 
L 569.322554 112.104438 
L 574.190669 112.007446 
L 578.899144 110.883484 
L 583.458119 110.706617 
L 587.876794 110.689501 
L 592.16355 110.689501 
L 596.326033 110.621036 
L 600.371248 110.575393 
L 604.305621 109.782343 
L 608.135065 109.759522 
L 611.865031 109.72529 
L 615.500558 109.72529 
L 619.046309 109.713879 
L 622.506613 109.280269 
L 625.885489 109.251742 
L 629.186684 109.188983 
L 632.413688 109.149045 
L 635.569763 109.131929 
L 638.65796 109.00641 
L 641.681137 107.796867 
L 644.641977 107.722697 
L 647.542997 107.62 
L 650.386568 106.51886 
L 653.174921 106.393341 
L 655.910158 106.319171 
L 658.594267 105.041163 
L 661.229123 105.041163 
L 663.816502 105.035458 
L 666.358084 104.989815 
L 668.855462 104.984109 
L 671.310148 104.972699 
L 673.723577 104.84718 
L 676.097112 104.841475 
L 678.432052 104.841475 
L 680.729631 104.801537 
L 682.991027 104.002782 
L 685.21736 103.694691 
L 687.409702 103.649048 
L 689.569076 103.649048 
L 691.696457 102.576434 
L 693.792781 102.576434 
L 695.858941 102.530791 
L 697.895793 102.502264 
L 699.904156 102.44521 
L 701.884817 102.279754 
L 703.838529 101.212846 
L 705.766016 101.19573 
L 707.667973 101.190024 
L 709.545067 101.093033 
L 711.397939 101.087327 
L 713.227208 101.075916 
L 715.033466 100.950398 
L 716.817286 100.893344 
L 718.579217 100.699361 
L 720.319792 100.562431 
L 722.03952 100.562431 
L 723.738897 100.55102 
L 725.418397 100.482556 
L 727.078481 99.660979 
L 728.719591 99.37571 
L 730.342158 99.37571 
L 731.946595 99.37571 
L 733.533304 99.37571 
L 735.10267 99.284424 
" style="fill:none;stroke:#e377c2;stroke-linecap:square;stroke-width:1.5;"/>
   </g>
   <g id="line2d_39">
    <path clip-path="url(#p1016d3e5d4)" d="M 85.79358 242.472628 
L 185.326487 218.521395 
L 243.549506 201.992877 
L 284.859395 195.203461 
L 316.901835 181.98407 
L 343.082414 169.723184 
L 365.217778 168.268309 
L 384.392303 167.241339 
L 401.305433 155.482527 
L 416.434742 154.997569 
L 430.120868 148.858568 
L 442.615322 142.445708 
L 454.109105 141.806705 
L 464.750686 141.743945 
L 474.657761 135.810338 
L 483.925211 135.131397 
L 492.630642 134.74343 
L 500.83834 134.37258 
L 508.602157 134.110132 
L 515.96765 133.687933 
L 522.973705 133.590941 
L 529.653776 133.145921 
L 536.036855 132.689489 
L 542.14823 132.581087 
L 548.01009 132.272996 
L 553.642013 131.976315 
L 559.061359 131.856502 
L 564.283594 131.719573 
L 569.322554 131.616876 
L 574.190669 131.616876 
L 578.899144 130.527146 
L 583.458119 130.167706 
L 587.876794 130.087831 
L 592.16355 129.92808 
L 596.326033 129.791151 
L 600.371248 129.56864 
L 604.305621 124.331091 
L 608.135065 124.040116 
L 611.865031 123.857544 
L 615.500558 123.275594 
L 619.046309 123.184308 
L 622.506613 123.115843 
L 625.885489 123.047378 
L 629.186684 122.978913 
L 632.413688 122.819162 
L 635.569763 121.700906 
L 638.65796 121.524039 
L 641.681137 121.501217 
L 644.641977 121.427047 
L 647.542997 121.358582 
L 650.386568 121.278707 
L 653.174921 120.457131 
L 655.910158 120.457131 
L 658.594267 120.440014 
L 661.229123 120.411487 
L 663.816502 120.348728 
L 666.358084 120.143334 
L 668.855462 119.173417 
L 671.310148 118.072277 
L 673.723577 117.718543 
L 676.097112 117.438979 
L 678.432052 115.288046 
L 680.729631 115.151117 
L 682.991027 114.534934 
L 685.21736 114.10703 
L 687.409702 114.055682 
L 689.569076 113.536491 
L 691.696457 113.513669 
L 693.792781 113.388151 
L 695.858941 112.355475 
L 697.895793 112.298421 
L 699.904156 112.298421 
L 701.884817 112.258483 
L 703.838529 112.098732 
L 705.766016 112.087322 
L 707.667973 112.087322 
L 709.545067 112.053089 
L 711.397939 112.053089 
L 713.227208 112.047384 
L 715.033466 110.233069 
L 716.817286 108.065021 
L 718.579217 107.97944 
L 720.319792 107.876743 
L 722.03952 107.819689 
L 723.738897 107.69417 
L 725.418397 107.602884 
L 727.078481 107.534419 
L 728.719591 107.534419 
L 730.342158 107.505892 
L 731.946595 107.426017 
L 733.533304 107.420312 
L 735.10267 107.386079 
" style="fill:none;stroke:#dbdb8d;stroke-linecap:square;stroke-width:1.5;"/>
   </g>
   <g id="line2d_40">
    <path clip-path="url(#p1016d3e5d4)" d="M 85.79358 228.077926 
L 185.326487 195.209167 
L 243.549506 189.606473 
L 284.859395 171.195175 
L 316.901835 166.887605 
L 343.082414 152.761056 
L 365.217778 152.247571 
L 384.392303 145.38969 
L 401.305433 135.051521 
L 416.434742 134.737725 
L 430.120868 134.349758 
L 442.615322 134.08731 
L 454.109105 133.807746 
L 464.750686 132.951937 
L 474.657761 132.546855 
L 483.925211 132.484095 
L 492.630642 132.449863 
L 500.83834 126.824347 
L 508.602157 126.755882 
L 515.96765 126.755882 
L 522.973705 126.49914 
L 529.653776 126.356505 
L 536.036855 126.322273 
L 542.14823 126.20246 
L 548.01009 126.20246 
L 553.642013 124.798933 
L 559.061359 124.730469 
L 564.283594 124.730469 
L 569.322554 124.701942 
L 574.190669 124.701942 
L 578.899144 124.627772 
L 583.458119 124.627772 
L 587.876794 124.565012 
L 592.16355 124.53078 
L 596.326033 124.53078 
L 600.371248 117.781302 
L 604.305621 116.685867 
L 608.135065 115.601843 
L 611.865031 115.590432 
L 615.500558 115.590432 
L 619.046309 115.584726 
L 622.506613 115.584726 
L 625.885489 115.584726 
L 629.186684 114.785972 
L 632.413688 114.506407 
L 635.569763 114.506407 
L 638.65796 114.31813 
L 641.681137 113.256927 
L 644.641977 113.256927 
L 647.542997 113.216989 
L 650.386568 112.150081 
L 653.174921 112.13867 
L 655.910158 111.938981 
L 658.594267 111.938981 
L 661.229123 111.938981 
L 663.816502 111.938981 
L 666.358084 110.854957 
L 668.855462 110.854957 
L 671.310148 110.832135 
L 673.723577 110.832135 
L 676.097112 110.832135 
L 678.432052 110.775082 
L 680.729631 110.649563 
L 682.991027 110.649563 
L 685.21736 110.643858 
L 687.409702 110.643858 
L 689.569076 110.643858 
L 691.696457 110.643858 
L 693.792781 110.643858 
L 695.858941 110.643858 
L 697.895793 110.643858 
L 699.904156 110.643858 
L 701.884817 110.643858 
L 703.838529 110.643858 
L 705.766016 110.643858 
L 707.667973 110.558277 
L 709.545067 110.558277 
L 711.397939 110.558277 
L 713.227208 110.558277 
L 715.033466 110.546866 
L 716.817286 110.541161 
L 718.579217 110.541161 
L 720.319792 110.541161 
L 722.03952 110.541161 
L 723.738897 110.541161 
L 725.418397 110.541161 
L 727.078481 110.535455 
L 728.719591 110.535455 
L 730.342158 109.474252 
L 731.946595 108.390228 
L 733.533304 108.373112 
L 735.10267 108.373112 
" style="fill:none;stroke:#c5b0d5;stroke-linecap:square;stroke-width:1.5;"/>
   </g>
   <g id="line2d_41">
    <path clip-path="url(#p1016d3e5d4)" d="M 85.79358 250.294719 
L 185.326487 224.118384 
L 243.549506 211.195673 
L 284.859395 210.71642 
L 316.901835 210.094533 
L 343.082414 198.193086 
L 365.217778 191.015704 
L 384.392303 178.224217 
L 401.305433 171.406274 
L 416.434742 171.172353 
L 430.120868 164.457108 
L 442.615322 164.388643 
L 454.109105 164.069141 
L 464.750686 164.029204 
L 474.657761 163.966444 
L 483.925211 163.840926 
L 492.630642 163.800988 
L 500.83834 163.584183 
L 508.602157 163.584183 
L 515.96765 163.510013 
L 522.973705 157.582111 
L 529.653776 157.547879 
L 536.036855 157.41095 
L 542.14823 151.317592 
L 548.01009 151.169252 
L 553.642013 151.077965 
L 559.061359 150.895393 
L 564.283594 150.895393 
L 569.322554 150.553069 
L 574.190669 150.518837 
L 578.899144 150.467489 
L 583.458119 149.891244 
L 587.876794 149.799958 
L 592.16355 149.708671 
L 596.326033 149.657323 
L 600.371248 149.645912 
L 604.305621 149.600269 
L 608.135065 149.600269 
L 611.865031 149.577447 
L 615.500558 149.577447 
L 619.046309 149.520394 
L 622.506613 149.520394 
L 625.885489 149.069668 
L 629.186684 149.069668 
L 632.413688 148.470602 
L 635.569763 148.470602 
L 638.65796 148.470602 
L 641.681137 148.430664 
L 644.641977 143.164588 
L 647.542997 142.656808 
L 650.386568 142.548405 
L 653.174921 142.548405 
L 655.910158 142.548405 
L 658.594267 142.548405 
L 661.229123 142.519879 
L 663.816502 142.508468 
L 666.358084 142.508468 
L 668.855462 142.508468 
L 671.310148 142.502762 
L 673.723577 142.502762 
L 676.097112 142.502762 
L 678.432052 142.502762 
L 680.729631 142.382949 
L 682.991027 142.382949 
L 685.21736 142.291663 
L 687.409702 142.291663 
L 689.569076 142.280252 
L 691.696457 142.263136 
L 693.792781 142.228904 
L 695.858941 142.228904 
L 697.895793 136.198305 
L 699.904156 130.122063 
L 701.884817 130.122063 
L 703.838529 130.122063 
L 705.766016 130.110653 
L 707.667973 130.110653 
L 709.545067 129.77974 
L 711.397939 129.77974 
L 713.227208 129.77974 
L 715.033466 129.77974 
L 716.817286 129.77974 
L 718.579217 129.77974 
L 720.319792 129.27196 
L 722.03952 129.260549 
L 723.738897 129.180674 
L 725.418397 129.180674 
L 727.078481 129.055155 
L 728.719591 129.038039 
L 730.342158 129.038039 
L 731.946595 129.038039 
L 733.533304 122.938976 
L 735.10267 122.904743 
" style="fill:none;stroke:#ff9896;stroke-linecap:square;stroke-width:1.5;"/>
   </g>
   <g id="line2d_42">
    <path clip-path="url(#p1016d3e5d4)" d="M 85.79358 274.474167 
L 185.326487 267.718984 
L 243.549506 262.030709 
L 284.859395 253.672311 
L 316.901835 238.501676 
L 343.082414 237.588813 
L 365.217778 236.270868 
L 384.392303 234.70759 
L 401.305433 234.256864 
L 416.434742 227.102304 
L 430.120868 220.352826 
L 442.615322 220.164548 
L 454.109105 214.202414 
L 464.750686 213.917145 
L 474.657761 208.890695 
L 483.925211 202.888623 
L 492.630642 196.350245 
L 500.83834 190.057198 
L 508.602157 183.438945 
L 515.96765 177.334176 
L 522.973705 177.020379 
L 529.653776 176.689467 
L 536.036855 176.387081 
L 542.14823 176.039052 
L 548.01009 175.936355 
L 553.642013 175.862185 
L 559.061359 169.957105 
L 564.283594 169.688952 
L 569.322554 169.626192 
L 574.190669 169.494968 
L 578.899144 163.424432 
L 583.458119 162.568623 
L 587.876794 156.429622 
L 592.16355 156.378274 
L 596.326033 156.201407 
L 600.371248 156.070183 
L 604.305621 155.956075 
L 608.135065 155.847672 
L 611.865031 155.784913 
L 615.500558 155.762092 
L 619.046309 155.716448 
L 622.506613 155.676511 
L 625.885489 155.676511 
L 629.186684 155.562403 
L 632.413688 149.714377 
L 635.569763 149.543215 
L 638.65796 149.406286 
L 641.681137 149.394875 
L 644.641977 149.377759 
L 647.542997 149.297883 
L 650.386568 149.286473 
L 653.174921 149.240829 
L 655.910158 149.189481 
L 658.594267 148.972676 
L 661.229123 147.997054 
L 663.816502 147.437926 
L 666.358084 147.403693 
L 668.855462 147.152656 
L 671.310148 146.947262 
L 673.723577 146.884503 
L 676.097112 146.7761 
L 678.432052 146.679109 
L 680.729631 146.650582 
L 682.991027 146.639171 
L 685.21736 146.502242 
L 687.409702 146.468009 
L 689.569076 146.439482 
L 691.696457 146.410955 
L 693.792781 146.296848 
L 695.858941 146.19415 
L 697.895793 144.145915 
L 699.904156 143.466973 
L 701.884817 143.404214 
L 703.838529 143.398509 
L 705.766016 143.381393 
L 707.667973 143.153177 
L 709.545067 143.136061 
L 711.397939 143.107534 
L 713.227208 143.101828 
L 715.033466 143.067596 
L 716.817286 143.044774 
L 718.579217 142.987721 
L 720.319792 142.810853 
L 722.03952 142.810853 
L 723.738897 142.810853 
L 725.418397 142.514173 
L 727.078481 142.514173 
L 728.719591 142.479941 
L 730.342158 142.479941 
L 731.946595 142.462825 
L 733.533304 142.388655 
L 735.10267 142.371538 
" style="fill:none;stroke:#d62728;stroke-linecap:square;stroke-width:1.5;"/>
   </g>
   <g id="line2d_43">
    <path clip-path="url(#p1016d3e5d4)" d="M 85.79358 276.334125 
L 185.326487 275.478316 
L 243.549506 275.107466 
L 284.859395 273.977798 
L 316.901835 273.578421 
L 343.082414 273.41867 
L 365.217778 273.361616 
L 384.392303 273.355911 
L 401.305433 272.534334 
L 416.434742 272.425932 
L 430.120868 272.414521 
L 442.615322 272.374583 
L 454.109105 272.25477 
L 464.750686 272.197716 
L 474.657761 272.089314 
L 483.925211 271.393256 
L 492.630642 271.250621 
L 500.83834 271.250621 
L 508.602157 270.623028 
L 515.96765 270.526037 
L 522.973705 270.463277 
L 529.653776 270.274999 
L 536.036855 270.274999 
L 542.14823 270.240767 
L 548.01009 270.149481 
L 553.642013 270.149481 
L 559.061359 270.018257 
L 564.283594 269.812863 
L 569.322554 269.807157 
L 574.190669 269.77863 
L 578.899144 269.664523 
L 583.458119 269.664523 
L 587.876794 269.305083 
L 592.16355 269.25944 
L 596.326033 268.837241 
L 600.371248 268.831535 
L 604.305621 268.831535 
L 608.135065 268.757365 
L 611.865031 268.757365 
L 615.500558 268.757365 
L 619.046309 268.757365 
L 622.506613 268.757365 
L 625.885489 268.591909 
L 629.186684 267.987138 
L 632.413688 267.987138 
L 635.569763 267.987138 
L 638.65796 267.987138 
L 641.681137 267.450831 
L 644.641977 267.382366 
L 647.542997 267.14274 
L 650.386568 267.131329 
L 653.174921 267.119918 
L 655.910158 267.102802 
L 658.594267 267.074275 
L 661.229123 267.074275 
L 663.816502 267.040043 
L 666.358084 266.851765 
L 668.855462 266.851765 
L 671.310148 266.851765 
L 673.723577 261.003739 
L 676.097112 260.986623 
L 678.432052 260.986623 
L 680.729631 260.912452 
L 682.991027 260.684237 
L 685.21736 260.279154 
L 687.409702 260.279154 
L 689.569076 260.279154 
L 691.696457 260.279154 
L 693.792781 259.737142 
L 695.858941 259.514632 
L 697.895793 259.075316 
L 699.904156 258.584653 
L 701.884817 258.584653 
L 703.838529 258.556126 
L 705.766016 258.424902 
L 707.667973 258.39067 
L 709.545067 258.39067 
L 711.397939 258.39067 
L 713.227208 258.39067 
L 715.033466 258.379259 
L 716.817286 258.379259 
L 718.579217 258.339321 
L 720.319792 258.1054 
L 722.03952 258.019819 
L 723.738897 257.768782 
L 725.418397 257.751666 
L 727.078481 257.751666 
L 728.719591 257.215359 
L 730.342158 257.124073 
L 731.946595 256.958616 
L 733.533304 256.958616 
L 735.10267 256.958616 
" style="fill:none;stroke:#98df8a;stroke-linecap:square;stroke-width:1.5;"/>
   </g>
   <g id="line2d_44"/>
   <g id="line2d_45"/>
   <g id="line2d_46"/>
   <g id="line2d_47"/>
   <g id="line2d_48"/>
   <g id="line2d_49"/>
   <g id="line2d_50"/>
   <g id="line2d_51"/>
   <g id="line2d_52"/>
   <g id="line2d_53"/>
   <g id="line2d_54">
    <path clip-path="url(#p1016d3e5d4)" d="M 735.10267 288.430125 
L 735.10267 22.318125 
" style="fill:none;stroke:#ff0000;stroke-linecap:square;stroke-width:1.5;"/>
   </g>
   <g id="patch_3">
    <path d="M 53.328125 286.934742 
L 53.328125 58.719092 
" style="fill:none;stroke:#000000;stroke-linecap:square;stroke-linejoin:miter;stroke-width:0.8;"/>
   </g>
   <g id="patch_4">
    <path d="M 85.79358 288.430125 
L 735.104405 288.430125 
" style="fill:none;stroke:#000000;stroke-linecap:square;stroke-linejoin:miter;stroke-width:0.8;"/>
   </g>
   <g id="text_20">
    <!-- lcms-2017-03-21 (23h, 20 trials/fuzzer) -->
    <g transform="translate(292.74875 16.318125)scale(0.12 -0.12)">
     <defs>
      <path d="M 9.421875 75.984375 
L 18.40625 75.984375 
L 18.40625 0 
L 9.421875 0 
z
" id="DejaVuSans-108"/>
      <path d="M 44.28125 53.078125 
L 44.28125 44.578125 
Q 40.484375 46.53125 36.375 47.5 
Q 32.28125 48.484375 27.875 48.484375 
Q 21.1875 48.484375 17.84375 46.4375 
Q 14.5 44.390625 14.5 40.28125 
Q 14.5 37.15625 16.890625 35.375 
Q 19.28125 33.59375 26.515625 31.984375 
L 29.59375 31.296875 
Q 39.15625 29.25 43.1875 25.515625 
Q 47.21875 21.78125 47.21875 15.09375 
Q 47.21875 7.46875 41.1875 3.015625 
Q 35.15625 -1.421875 24.609375 -1.421875 
Q 20.21875 -1.421875 15.453125 -0.5625 
Q 10.6875 0.296875 5.421875 2 
L 5.421875 11.28125 
Q 10.40625 8.6875 15.234375 7.390625 
Q 20.0625 6.109375 24.8125 6.109375 
Q 31.15625 6.109375 34.5625 8.28125 
Q 37.984375 10.453125 37.984375 14.40625 
Q 37.984375 18.0625 35.515625 20.015625 
Q 33.0625 21.96875 24.703125 23.78125 
L 21.578125 24.515625 
Q 13.234375 26.265625 9.515625 29.90625 
Q 5.8125 33.546875 5.8125 39.890625 
Q 5.8125 47.609375 11.28125 51.796875 
Q 16.75 56 26.8125 56 
Q 31.78125 56 36.171875 55.265625 
Q 40.578125 54.546875 44.28125 53.078125 
z
" id="DejaVuSans-115"/>
      <path d="M 4.890625 31.390625 
L 31.203125 31.390625 
L 31.203125 23.390625 
L 4.890625 23.390625 
z
" id="DejaVuSans-45"/>
      <path d="M 11.71875 12.40625 
L 22.015625 12.40625 
L 22.015625 4 
L 14.015625 -11.625 
L 7.71875 -11.625 
L 11.71875 4 
z
" id="DejaVuSans-44"/>
      <path d="M 25.390625 72.90625 
L 33.6875 72.90625 
L 8.296875 -9.28125 
L 0 -9.28125 
z
" id="DejaVuSans-47"/>
      <path d="M 37.109375 75.984375 
L 37.109375 68.5 
L 28.515625 68.5 
Q 23.6875 68.5 21.796875 66.546875 
Q 19.921875 64.59375 19.921875 59.515625 
L 19.921875 54.6875 
L 34.71875 54.6875 
L 34.71875 47.703125 
L 19.921875 47.703125 
L 19.921875 0 
L 10.890625 0 
L 10.890625 47.703125 
L 2.296875 47.703125 
L 2.296875 54.6875 
L 10.890625 54.6875 
L 10.890625 58.5 
Q 10.890625 67.625 15.140625 71.796875 
Q 19.390625 75.984375 28.609375 75.984375 
z
" id="DejaVuSans-102"/>
      <path d="M 5.515625 54.6875 
L 48.1875 54.6875 
L 48.1875 46.484375 
L 14.40625 7.171875 
L 48.1875 7.171875 
L 48.1875 0 
L 4.296875 0 
L 4.296875 8.203125 
L 38.09375 47.515625 
L 5.515625 47.515625 
z
" id="DejaVuSans-122"/>
     </defs>
     <use xlink:href="#DejaVuSans-108"/>
     <use x="27.783203" xlink:href="#DejaVuSans-99"/>
     <use x="82.763672" xlink:href="#DejaVuSans-109"/>
     <use x="180.175781" xlink:href="#DejaVuSans-115"/>
     <use x="232.275391" xlink:href="#DejaVuSans-45"/>
     <use x="268.359375" xlink:href="#DejaVuSans-50"/>
     <use x="331.982422" xlink:href="#DejaVuSans-48"/>
     <use x="395.605469" xlink:href="#DejaVuSans-49"/>
     <use x="459.228516" xlink:href="#DejaVuSans-55"/>
     <use x="522.851562" xlink:href="#DejaVuSans-45"/>
     <use x="558.935547" xlink:href="#DejaVuSans-48"/>
     <use x="622.558594" xlink:href="#DejaVuSans-51"/>
     <use x="686.181641" xlink:href="#DejaVuSans-45"/>
     <use x="722.265625" xlink:href="#DejaVuSans-50"/>
     <use x="785.888672" xlink:href="#DejaVuSans-49"/>
     <use x="849.511719" xlink:href="#DejaVuSans-32"/>
     <use x="881.298828" xlink:href="#DejaVuSans-40"/>
     <use x="920.3125" xlink:href="#DejaVuSans-50"/>
     <use x="983.935547" xlink:href="#DejaVuSans-51"/>
     <use x="1047.558594" xlink:href="#DejaVuSans-104"/>
     <use x="1110.9375" xlink:href="#DejaVuSans-44"/>
     <use x="1142.724609" xlink:href="#DejaVuSans-32"/>
     <use x="1174.511719" xlink:href="#DejaVuSans-50"/>
     <use x="1238.134766" xlink:href="#DejaVuSans-48"/>
     <use x="1301.757812" xlink:href="#DejaVuSans-32"/>
     <use x="1333.544922" xlink:href="#DejaVuSans-116"/>
     <use x="1372.753906" xlink:href="#DejaVuSans-114"/>
     <use x="1413.867188" xlink:href="#DejaVuSans-105"/>
     <use x="1441.650391" xlink:href="#DejaVuSans-97"/>
     <use x="1502.929688" xlink:href="#DejaVuSans-108"/>
     <use x="1530.712891" xlink:href="#DejaVuSans-115"/>
     <use x="1582.8125" xlink:href="#DejaVuSans-47"/>
     <use x="1616.503906" xlink:href="#DejaVuSans-102"/>
     <use x="1651.708984" xlink:href="#DejaVuSans-117"/>
     <use x="1715.087891" xlink:href="#DejaVuSans-122"/>
     <use x="1767.578125" xlink:href="#DejaVuSans-122"/>
     <use x="1820.068359" xlink:href="#DejaVuSans-101"/>
     <use x="1881.591797" xlink:href="#DejaVuSans-114"/>
     <use x="1922.705078" xlink:href="#DejaVuSans-41"/>
    </g>
   </g>
   <g id="legend_1">
    <g id="line2d_55">
     <path d="M 771.568125 30.416562 
L 791.568125 30.416562 
" style="fill:none;"/>
    </g>
    <g id="line2d_56"/>
    <g id="text_21">
     <!-- fuzzer -->
     <g transform="translate(799.568125 33.916562)scale(0.1 -0.1)">
      <use xlink:href="#DejaVuSans-102"/>
      <use x="35.205078" xlink:href="#DejaVuSans-117"/>
      <use x="98.583984" xlink:href="#DejaVuSans-122"/>
      <use x="151.074219" xlink:href="#DejaVuSans-122"/>
      <use x="203.564453" xlink:href="#DejaVuSans-101"/>
      <use x="265.087891" xlink:href="#DejaVuSans-114"/>
     </g>
    </g>
    <g id="line2d_57">
     <path d="M 771.568125 45.094688 
L 791.568125 45.094688 
" style="fill:none;stroke:#ff7f0e;stroke-linecap:square;stroke-width:1.5;"/>
    </g>
    <g id="line2d_58"/>
    <g id="text_22">
     <!-- entropic -->
     <g transform="translate(799.568125 48.594688)scale(0.1 -0.1)">
      <defs>
       <path d="M 18.109375 8.203125 
L 18.109375 -20.796875 
L 9.078125 -20.796875 
L 9.078125 54.6875 
L 18.109375 54.6875 
L 18.109375 46.390625 
Q 20.953125 51.265625 25.265625 53.625 
Q 29.59375 56 35.59375 56 
Q 45.5625 56 51.78125 48.09375 
Q 58.015625 40.1875 58.015625 27.296875 
Q 58.015625 14.40625 51.78125 6.484375 
Q 45.5625 -1.421875 35.59375 -1.421875 
Q 29.59375 -1.421875 25.265625 0.953125 
Q 20.953125 3.328125 18.109375 8.203125 
z
M 48.6875 27.296875 
Q 48.6875 37.203125 44.609375 42.84375 
Q 40.53125 48.484375 33.40625 48.484375 
Q 26.265625 48.484375 22.1875 42.84375 
Q 18.109375 37.203125 18.109375 27.296875 
Q 18.109375 17.390625 22.1875 11.75 
Q 26.265625 6.109375 33.40625 6.109375 
Q 40.53125 6.109375 44.609375 11.75 
Q 48.6875 17.390625 48.6875 27.296875 
z
" id="DejaVuSans-112"/>
      </defs>
      <use xlink:href="#DejaVuSans-101"/>
      <use x="61.523438" xlink:href="#DejaVuSans-110"/>
      <use x="124.902344" xlink:href="#DejaVuSans-116"/>
      <use x="164.111328" xlink:href="#DejaVuSans-114"/>
      <use x="202.974609" xlink:href="#DejaVuSans-111"/>
      <use x="264.15625" xlink:href="#DejaVuSans-112"/>
      <use x="327.632812" xlink:href="#DejaVuSans-105"/>
      <use x="355.416016" xlink:href="#DejaVuSans-99"/>
     </g>
    </g>
    <g id="line2d_59">
     <path d="M 771.568125 59.772812 
L 791.568125 59.772812 
" style="fill:none;stroke:#2ca02c;stroke-linecap:square;stroke-width:1.5;"/>
    </g>
    <g id="line2d_60"/>
    <g id="text_23">
     <!-- libfuzzer -->
     <g transform="translate(799.568125 63.272812)scale(0.1 -0.1)">
      <defs>
       <path d="M 48.6875 27.296875 
Q 48.6875 37.203125 44.609375 42.84375 
Q 40.53125 48.484375 33.40625 48.484375 
Q 26.265625 48.484375 22.1875 42.84375 
Q 18.109375 37.203125 18.109375 27.296875 
Q 18.109375 17.390625 22.1875 11.75 
Q 26.265625 6.109375 33.40625 6.109375 
Q 40.53125 6.109375 44.609375 11.75 
Q 48.6875 17.390625 48.6875 27.296875 
z
M 18.109375 46.390625 
Q 20.953125 51.265625 25.265625 53.625 
Q 29.59375 56 35.59375 56 
Q 45.5625 56 51.78125 48.09375 
Q 58.015625 40.1875 58.015625 27.296875 
Q 58.015625 14.40625 51.78125 6.484375 
Q 45.5625 -1.421875 35.59375 -1.421875 
Q 29.59375 -1.421875 25.265625 0.953125 
Q 20.953125 3.328125 18.109375 8.203125 
L 18.109375 0 
L 9.078125 0 
L 9.078125 75.984375 
L 18.109375 75.984375 
z
" id="DejaVuSans-98"/>
      </defs>
      <use xlink:href="#DejaVuSans-108"/>
      <use x="27.783203" xlink:href="#DejaVuSans-105"/>
      <use x="55.566406" xlink:href="#DejaVuSans-98"/>
      <use x="119.042969" xlink:href="#DejaVuSans-102"/>
      <use x="154.248047" xlink:href="#DejaVuSans-117"/>
      <use x="217.626953" xlink:href="#DejaVuSans-122"/>
      <use x="270.117188" xlink:href="#DejaVuSans-122"/>
      <use x="322.607422" xlink:href="#DejaVuSans-101"/>
      <use x="384.130859" xlink:href="#DejaVuSans-114"/>
     </g>
    </g>
    <g id="line2d_61">
     <path d="M 771.568125 74.450938 
L 791.568125 74.450938 
" style="fill:none;stroke:#1f77b4;stroke-linecap:square;stroke-width:1.5;"/>
    </g>
    <g id="line2d_62"/>
    <g id="text_24">
     <!-- aflplusplus -->
     <g transform="translate(799.568125 77.950938)scale(0.1 -0.1)">
      <use xlink:href="#DejaVuSans-97"/>
      <use x="61.279297" xlink:href="#DejaVuSans-102"/>
      <use x="96.484375" xlink:href="#DejaVuSans-108"/>
      <use x="124.267578" xlink:href="#DejaVuSans-112"/>
      <use x="187.744141" xlink:href="#DejaVuSans-108"/>
      <use x="215.527344" xlink:href="#DejaVuSans-117"/>
      <use x="278.90625" xlink:href="#DejaVuSans-115"/>
      <use x="331.005859" xlink:href="#DejaVuSans-112"/>
      <use x="394.482422" xlink:href="#DejaVuSans-108"/>
      <use x="422.265625" xlink:href="#DejaVuSans-117"/>
      <use x="485.644531" xlink:href="#DejaVuSans-115"/>
     </g>
    </g>
    <g id="line2d_63">
     <path d="M 771.568125 89.129063 
L 791.568125 89.129063 
" style="fill:none;stroke:#e377c2;stroke-linecap:square;stroke-width:1.5;"/>
    </g>
    <g id="line2d_64"/>
    <g id="text_25">
     <!-- honggfuzz -->
     <g transform="translate(799.568125 92.629063)scale(0.1 -0.1)">
      <use xlink:href="#DejaVuSans-104"/>
      <use x="63.378906" xlink:href="#DejaVuSans-111"/>
      <use x="124.560547" xlink:href="#DejaVuSans-110"/>
      <use x="187.939453" xlink:href="#DejaVuSans-103"/>
      <use x="251.416016" xlink:href="#DejaVuSans-103"/>
      <use x="314.892578" xlink:href="#DejaVuSans-102"/>
      <use x="350.097656" xlink:href="#DejaVuSans-117"/>
      <use x="413.476562" xlink:href="#DejaVuSans-122"/>
      <use x="465.966797" xlink:href="#DejaVuSans-122"/>
     </g>
    </g>
    <g id="line2d_65">
     <path d="M 771.568125 103.807187 
L 791.568125 103.807187 
" style="fill:none;stroke:#dbdb8d;stroke-linecap:square;stroke-width:1.5;"/>
    </g>
    <g id="line2d_66"/>
    <g id="text_26">
     <!-- lafintel -->
     <g transform="translate(799.568125 107.307187)scale(0.1 -0.1)">
      <use xlink:href="#DejaVuSans-108"/>
      <use x="27.783203" xlink:href="#DejaVuSans-97"/>
      <use x="89.0625" xlink:href="#DejaVuSans-102"/>
      <use x="124.267578" xlink:href="#DejaVuSans-105"/>
      <use x="152.050781" xlink:href="#DejaVuSans-110"/>
      <use x="215.429688" xlink:href="#DejaVuSans-116"/>
      <use x="254.638672" xlink:href="#DejaVuSans-101"/>
      <use x="316.162109" xlink:href="#DejaVuSans-108"/>
     </g>
    </g>
    <g id="line2d_67">
     <path d="M 771.568125 118.485313 
L 791.568125 118.485313 
" style="fill:none;stroke:#c5b0d5;stroke-linecap:square;stroke-width:1.5;"/>
    </g>
    <g id="line2d_68"/>
    <g id="text_27">
     <!-- mopt -->
     <g transform="translate(799.568125 121.985313)scale(0.1 -0.1)">
      <use xlink:href="#DejaVuSans-109"/>
      <use x="97.412109" xlink:href="#DejaVuSans-111"/>
      <use x="158.59375" xlink:href="#DejaVuSans-112"/>
      <use x="222.070312" xlink:href="#DejaVuSans-116"/>
     </g>
    </g>
    <g id="line2d_69">
     <path d="M 771.568125 133.163437 
L 791.568125 133.163437 
" style="fill:none;stroke:#ff9896;stroke-linecap:square;stroke-width:1.5;"/>
    </g>
    <g id="line2d_70"/>
    <g id="text_28">
     <!-- fairfuzz -->
     <g transform="translate(799.568125 136.663437)scale(0.1 -0.1)">
      <use xlink:href="#DejaVuSans-102"/>
      <use x="35.205078" xlink:href="#DejaVuSans-97"/>
      <use x="96.484375" xlink:href="#DejaVuSans-105"/>
      <use x="124.267578" xlink:href="#DejaVuSans-114"/>
      <use x="165.380859" xlink:href="#DejaVuSans-102"/>
      <use x="200.585938" xlink:href="#DejaVuSans-117"/>
      <use x="263.964844" xlink:href="#DejaVuSans-122"/>
      <use x="316.455078" xlink:href="#DejaVuSans-122"/>
     </g>
    </g>
    <g id="line2d_71">
     <path d="M 771.568125 147.841563 
L 791.568125 147.841563 
" style="fill:none;stroke:#d62728;stroke-linecap:square;stroke-width:1.5;"/>
    </g>
    <g id="line2d_72"/>
    <g id="text_29">
     <!-- aflplusplus_qemu -->
     <g transform="translate(799.568125 151.341563)scale(0.1 -0.1)">
      <defs>
       <path d="M 50.984375 -16.609375 
L 50.984375 -23.578125 
L -0.984375 -23.578125 
L -0.984375 -16.609375 
z
" id="DejaVuSans-95"/>
       <path d="M 14.796875 27.296875 
Q 14.796875 17.390625 18.875 11.75 
Q 22.953125 6.109375 30.078125 6.109375 
Q 37.203125 6.109375 41.296875 11.75 
Q 45.40625 17.390625 45.40625 27.296875 
Q 45.40625 37.203125 41.296875 42.84375 
Q 37.203125 48.484375 30.078125 48.484375 
Q 22.953125 48.484375 18.875 42.84375 
Q 14.796875 37.203125 14.796875 27.296875 
z
M 45.40625 8.203125 
Q 42.578125 3.328125 38.25 0.953125 
Q 33.9375 -1.421875 27.875 -1.421875 
Q 17.96875 -1.421875 11.734375 6.484375 
Q 5.515625 14.40625 5.515625 27.296875 
Q 5.515625 40.1875 11.734375 48.09375 
Q 17.96875 56 27.875 56 
Q 33.9375 56 38.25 53.625 
Q 42.578125 51.265625 45.40625 46.390625 
L 45.40625 54.6875 
L 54.390625 54.6875 
L 54.390625 -20.796875 
L 45.40625 -20.796875 
z
" id="DejaVuSans-113"/>
      </defs>
      <use xlink:href="#DejaVuSans-97"/>
      <use x="61.279297" xlink:href="#DejaVuSans-102"/>
      <use x="96.484375" xlink:href="#DejaVuSans-108"/>
      <use x="124.267578" xlink:href="#DejaVuSans-112"/>
      <use x="187.744141" xlink:href="#DejaVuSans-108"/>
      <use x="215.527344" xlink:href="#DejaVuSans-117"/>
      <use x="278.90625" xlink:href="#DejaVuSans-115"/>
      <use x="331.005859" xlink:href="#DejaVuSans-112"/>
      <use x="394.482422" xlink:href="#DejaVuSans-108"/>
      <use x="422.265625" xlink:href="#DejaVuSans-117"/>
      <use x="485.644531" xlink:href="#DejaVuSans-115"/>
      <use x="537.744141" xlink:href="#DejaVuSans-95"/>
      <use x="587.744141" xlink:href="#DejaVuSans-113"/>
      <use x="651.220703" xlink:href="#DejaVuSans-101"/>
      <use x="712.744141" xlink:href="#DejaVuSans-109"/>
      <use x="810.15625" xlink:href="#DejaVuSans-117"/>
     </g>
    </g>
    <g id="line2d_73">
     <path d="M 771.568125 162.797812 
L 791.568125 162.797812 
" style="fill:none;stroke:#98df8a;stroke-linecap:square;stroke-width:1.5;"/>
    </g>
    <g id="line2d_74"/>
    <g id="text_30">
     <!-- aflplusplus_flat -->
     <g transform="translate(799.568125 166.297812)scale(0.1 -0.1)">
      <use xlink:href="#DejaVuSans-97"/>
      <use x="61.279297" xlink:href="#DejaVuSans-102"/>
      <use x="96.484375" xlink:href="#DejaVuSans-108"/>
      <use x="124.267578" xlink:href="#DejaVuSans-112"/>
      <use x="187.744141" xlink:href="#DejaVuSans-108"/>
      <use x="215.527344" xlink:href="#DejaVuSans-117"/>
      <use x="278.90625" xlink:href="#DejaVuSans-115"/>
      <use x="331.005859" xlink:href="#DejaVuSans-112"/>
      <use x="394.482422" xlink:href="#DejaVuSans-108"/>
      <use x="422.265625" xlink:href="#DejaVuSans-117"/>
      <use x="485.644531" xlink:href="#DejaVuSans-115"/>
      <use x="537.744141" xlink:href="#DejaVuSans-95"/>
      <use x="587.744141" xlink:href="#DejaVuSans-102"/>
      <use x="622.949219" xlink:href="#DejaVuSans-108"/>
      <use x="650.732422" xlink:href="#DejaVuSans-97"/>
      <use x="712.011719" xlink:href="#DejaVuSans-116"/>
     </g>
    </g>
   </g>
  </g>
 </g>
 <defs>
  <clipPath id="p1016d3e5d4">
   <rect height="266.112" width="714.24" x="53.328125" y="22.318125"/>
  </clipPath>
 </defs>
</svg>
