<?xml version="1.0" encoding="utf-8" standalone="no"?>
<!DOCTYPE svg PUBLIC "-//W3C//DTD SVG 1.1//EN"
  "http://www.w3.org/Graphics/SVG/1.1/DTD/svg11.dtd">
<!-- Created with matplotlib (https://matplotlib.org/) -->
<svg height="368.607178pt" version="1.1" viewBox="0 0 417.648125 368.607178" width="417.648125pt" xmlns="http://www.w3.org/2000/svg" xmlns:xlink="http://www.w3.org/1999/xlink">
 <metadata>
  <rdf:RDF xmlns:cc="http://creativecommons.org/ns#" xmlns:dc="http://purl.org/dc/elements/1.1/" xmlns:rdf="http://www.w3.org/1999/02/22-rdf-syntax-ns#">
   <cc:Work>
    <dc:type rdf:resource="http://purl.org/dc/dcmitype/StillImage"/>
    <dc:date>2020-12-06T10:28:57.037401</dc:date>
    <dc:format>image/svg+xml</dc:format>
    <dc:creator>
     <cc:Agent>
      <dc:title>Matplotlib v3.3.3, https://matplotlib.org/</dc:title>
     </cc:Agent>
    </dc:creator>
   </cc:Work>
  </rdf:RDF>
 </metadata>
 <defs>
  <style type="text/css">*{stroke-linecap:butt;stroke-linejoin:round;}</style>
 </defs>
 <g id="figure_1">
  <g id="patch_1">
   <path d="M 0 368.607178 
L 417.648125 368.607178 
L 417.648125 0 
L 0 0 
z
" style="fill:#ffffff;"/>
  </g>
  <g id="axes_1">
   <g id="patch_2">
    <path d="M 53.328125 288.430125 
L 410.448125 288.430125 
L 410.448125 22.318125 
L 53.328125 22.318125 
z
" style="fill:#ffffff;"/>
   </g>
   <g id="PolyCollection_1">
    <defs>
     <path d="M 73.410509 -265.72202 
L 72.925741 -265.72202 
L 72.860422 -266.105104 
L 72.781953 -266.488188 
L 72.688983 -266.871273 
L 72.580375 -267.254357 
L 72.455309 -267.637441 
L 72.313388 -268.020525 
L 72.154749 -268.40361 
L 71.980155 -268.786694 
L 71.791061 -269.169778 
L 71.589661 -269.552862 
L 71.37889 -269.935946 
L 71.162369 -270.319031 
L 70.94432 -270.702115 
L 70.729412 -271.085199 
L 70.522567 -271.468283 
L 70.328726 -271.851368 
L 70.152582 -272.234452 
L 69.9983 -272.617536 
L 69.869244 -273.00062 
L 69.767718 -273.383704 
L 69.694747 -273.766789 
L 69.649919 -274.149873 
L 69.631281 -274.532957 
L 69.63533 -274.916041 
L 69.657066 -275.299125 
L 69.690138 -275.68221 
L 69.727059 -276.065294 
L 69.75949 -276.448378 
L 69.778572 -276.831462 
L 69.775301 -277.214547 
L 69.740923 -277.597631 
L 69.667332 -277.980715 
L 69.547462 -278.363799 
L 69.37565 -278.746883 
L 69.147964 -279.129968 
L 68.862469 -279.513052 
L 68.519441 -279.896136 
L 68.121495 -280.27922 
L 67.673635 -280.662304 
L 67.183204 -281.045389 
L 66.659745 -281.428473 
L 66.114746 -281.811557 
L 65.561296 -282.194641 
L 65.013643 -282.577726 
L 64.486669 -282.96081 
L 63.995306 -283.343894 
L 63.553919 -283.726978 
L 63.175675 -284.110062 
L 62.871958 -284.493147 
L 62.651838 -284.876231 
L 62.52165 -285.259315 
L 62.484705 -285.642399 
L 62.541152 -286.025484 
L 62.688015 -286.408568 
L 62.919388 -286.791652 
L 63.226794 -287.174736 
L 63.59967 -287.55782 
L 64.025947 -287.940905 
L 64.492694 -288.323989 
L 64.986763 -288.707073 
L 65.495406 -289.090157 
L 66.006819 -289.473241 
L 66.510585 -289.856326 
L 66.997987 -290.23941 
L 67.462196 -290.622494 
L 67.898314 -291.005578 
L 68.303312 -291.388663 
L 68.675864 -291.771747 
L 69.016104 -292.154831 
L 69.325345 -292.537915 
L 69.605775 -292.920999 
L 69.860169 -293.304084 
L 70.091614 -293.687168 
L 70.303281 -294.070252 
L 70.498245 -294.453336 
L 70.679341 -294.836421 
L 70.849078 -295.219505 
L 71.009584 -295.602589 
L 71.162584 -295.985673 
L 71.309405 -296.368757 
L 71.450993 -296.751842 
L 71.587952 -297.134926 
L 71.720578 -297.51801 
L 71.848911 -297.901094 
L 71.97278 -298.284178 
L 72.091857 -298.667263 
L 72.205705 -299.050347 
L 72.313832 -299.433431 
L 72.415737 -299.816515 
L 72.510953 -300.1996 
L 72.599088 -300.582684 
L 72.679852 -300.965768 
L 72.75308 -301.348852 
L 72.818742 -301.731936 
L 72.876948 -302.115021 
L 72.92794 -302.498105 
L 72.972073 -302.881189 
L 73.009804 -303.264273 
L 73.041661 -303.647358 
L 73.294589 -303.647358 
L 73.294589 -303.647358 
L 73.326446 -303.264273 
L 73.364177 -302.881189 
L 73.40831 -302.498105 
L 73.459302 -302.115021 
L 73.517508 -301.731936 
L 73.58317 -301.348852 
L 73.656398 -300.965768 
L 73.737162 -300.582684 
L 73.825297 -300.1996 
L 73.920513 -299.816515 
L 74.022418 -299.433431 
L 74.130545 -299.050347 
L 74.244393 -298.667263 
L 74.36347 -298.284178 
L 74.487339 -297.901094 
L 74.615672 -297.51801 
L 74.748298 -297.134926 
L 74.885257 -296.751842 
L 75.026845 -296.368757 
L 75.173666 -295.985673 
L 75.326666 -295.602589 
L 75.487172 -295.219505 
L 75.656909 -294.836421 
L 75.838005 -294.453336 
L 76.032969 -294.070252 
L 76.244636 -293.687168 
L 76.476081 -293.304084 
L 76.730475 -292.920999 
L 77.010905 -292.537915 
L 77.320146 -292.154831 
L 77.660386 -291.771747 
L 78.032938 -291.388663 
L 78.437936 -291.005578 
L 78.874054 -290.622494 
L 79.338263 -290.23941 
L 79.825665 -289.856326 
L 80.329431 -289.473241 
L 80.840844 -289.090157 
L 81.349487 -288.707073 
L 81.843556 -288.323989 
L 82.310303 -287.940905 
L 82.73658 -287.55782 
L 83.109456 -287.174736 
L 83.416862 -286.791652 
L 83.648235 -286.408568 
L 83.795098 -286.025484 
L 83.851545 -285.642399 
L 83.8146 -285.259315 
L 83.684412 -284.876231 
L 83.464292 -284.493147 
L 83.160575 -284.110062 
L 82.782331 -283.726978 
L 82.340944 -283.343894 
L 81.849581 -282.96081 
L 81.322607 -282.577726 
L 80.774954 -282.194641 
L 80.221504 -281.811557 
L 79.676505 -281.428473 
L 79.153046 -281.045389 
L 78.662615 -280.662304 
L 78.214755 -280.27922 
L 77.816809 -279.896136 
L 77.473781 -279.513052 
L 77.188286 -279.129968 
L 76.9606 -278.746883 
L 76.788788 -278.363799 
L 76.668918 -277.980715 
L 76.595327 -277.597631 
L 76.560949 -277.214547 
L 76.557678 -276.831462 
L 76.57676 -276.448378 
L 76.609191 -276.065294 
L 76.646112 -275.68221 
L 76.679184 -275.299125 
L 76.70092 -274.916041 
L 76.704969 -274.532957 
L 76.686331 -274.149873 
L 76.641503 -273.766789 
L 76.568532 -273.383704 
L 76.467006 -273.00062 
L 76.33795 -272.617536 
L 76.183668 -272.234452 
L 76.007524 -271.851368 
L 75.813683 -271.468283 
L 75.606838 -271.085199 
L 75.39193 -270.702115 
L 75.173881 -270.319031 
L 74.95736 -269.935946 
L 74.746589 -269.552862 
L 74.545189 -269.169778 
L 74.356095 -268.786694 
L 74.181501 -268.40361 
L 74.022862 -268.020525 
L 73.880941 -267.637441 
L 73.755875 -267.254357 
L 73.647267 -266.871273 
L 73.554297 -266.488188 
L 73.475828 -266.105104 
L 73.410509 -265.72202 
z
" id="mc2eac29410" style="stroke:#3d3d3d;stroke-width:1.5;"/>
    </defs>
    <g clip-path="url(#p89dc0225c4)">
     <use style="fill:#e1812c;stroke:#3d3d3d;stroke-width:1.5;" x="0" xlink:href="#mc2eac29410" y="368.607178"/>
    </g>
   </g>
   <g id="PolyCollection_2">
    <defs>
     <path d="M 113.087244 -272.347623 
L 112.609006 -272.347623 
L 112.546658 -272.569204 
L 112.471437 -272.790785 
L 112.381526 -273.012366 
L 112.275024 -273.233946 
L 112.149966 -273.455527 
L 112.00436 -273.677108 
L 111.836224 -273.898689 
L 111.643631 -274.120269 
L 111.42476 -274.34185 
L 111.17797 -274.563431 
L 110.901876 -274.785012 
L 110.595445 -275.006593 
L 110.258106 -275.228173 
L 109.889882 -275.449754 
L 109.491515 -275.671335 
L 109.064614 -275.892916 
L 108.611782 -276.114496 
L 108.136731 -276.336077 
L 107.644359 -276.557658 
L 107.140774 -276.779239 
L 106.633261 -277.00082 
L 106.130152 -277.2224 
L 105.640622 -277.443981 
L 105.174384 -277.665562 
L 104.741294 -277.887143 
L 104.350892 -278.108724 
L 104.011875 -278.330304 
L 103.731557 -278.551885 
L 103.515339 -278.773466 
L 103.366223 -278.995047 
L 103.284427 -279.216627 
L 103.267112 -279.438208 
L 103.308274 -279.659789 
L 103.398804 -279.88137 
L 103.52674 -280.102951 
L 103.677692 -280.324531 
L 103.835438 -280.546112 
L 103.982656 -280.767693 
L 104.101764 -280.989274 
L 104.175813 -281.210855 
L 104.189392 -281.432435 
L 104.129494 -281.654016 
L 103.986295 -281.875597 
L 103.753793 -282.097178 
L 103.430283 -282.318758 
L 103.018624 -282.540339 
L 102.526281 -282.76192 
L 101.965138 -282.983501 
L 101.351079 -283.205082 
L 100.703351 -283.426662 
L 100.043742 -283.648243 
L 99.395609 -283.869824 
L 98.782804 -284.091405 
L 98.228556 -284.312985 
L 97.754381 -284.534566 
L 97.37906 -284.756147 
L 97.117769 -284.977728 
L 96.981402 -285.199309 
L 96.976125 -285.420889 
L 97.103195 -285.64247 
L 97.359048 -285.864051 
L 97.735647 -286.085632 
L 98.221058 -286.307213 
L 98.800218 -286.528793 
L 99.455836 -286.750374 
L 100.169354 -286.971955 
L 100.92192 -287.193536 
L 101.695295 -287.415116 
L 102.472644 -287.636697 
L 103.23917 -287.858278 
L 103.982567 -288.079859 
L 104.693262 -288.30144 
L 105.364477 -288.52302 
L 105.992107 -288.744601 
L 106.574456 -288.966182 
L 107.111861 -289.187763 
L 107.60625 -289.409343 
L 108.060679 -289.630924 
L 108.478869 -289.852505 
L 108.864801 -290.074086 
L 109.222361 -290.295667 
L 109.555083 -290.517247 
L 109.865965 -290.738828 
L 110.157379 -290.960409 
L 110.43105 -291.18199 
L 110.688107 -291.403571 
L 110.929165 -291.625151 
L 111.154455 -291.846732 
L 111.363947 -292.068313 
L 111.557487 -292.289894 
L 111.734914 -292.511474 
L 111.896151 -292.733055 
L 112.04128 -292.954636 
L 112.170581 -293.176217 
L 112.284551 -293.397798 
L 112.3839 -293.619378 
L 112.469521 -293.840959 
L 112.542459 -294.06254 
L 112.603866 -294.284121 
L 113.092384 -294.284121 
L 113.092384 -294.284121 
L 113.153791 -294.06254 
L 113.226729 -293.840959 
L 113.31235 -293.619378 
L 113.411699 -293.397798 
L 113.525669 -293.176217 
L 113.65497 -292.954636 
L 113.800099 -292.733055 
L 113.961336 -292.511474 
L 114.138763 -292.289894 
L 114.332303 -292.068313 
L 114.541795 -291.846732 
L 114.767085 -291.625151 
L 115.008143 -291.403571 
L 115.2652 -291.18199 
L 115.538871 -290.960409 
L 115.830285 -290.738828 
L 116.141167 -290.517247 
L 116.473889 -290.295667 
L 116.831449 -290.074086 
L 117.217381 -289.852505 
L 117.635571 -289.630924 
L 118.09 -289.409343 
L 118.584389 -289.187763 
L 119.121794 -288.966182 
L 119.704143 -288.744601 
L 120.331773 -288.52302 
L 121.002988 -288.30144 
L 121.713683 -288.079859 
L 122.45708 -287.858278 
L 123.223606 -287.636697 
L 124.000955 -287.415116 
L 124.77433 -287.193536 
L 125.526896 -286.971955 
L 126.240414 -286.750374 
L 126.896032 -286.528793 
L 127.475192 -286.307213 
L 127.960603 -286.085632 
L 128.337202 -285.864051 
L 128.593055 -285.64247 
L 128.720125 -285.420889 
L 128.714848 -285.199309 
L 128.578481 -284.977728 
L 128.31719 -284.756147 
L 127.941869 -284.534566 
L 127.467694 -284.312985 
L 126.913446 -284.091405 
L 126.300641 -283.869824 
L 125.652508 -283.648243 
L 124.992899 -283.426662 
L 124.345171 -283.205082 
L 123.731112 -282.983501 
L 123.169969 -282.76192 
L 122.677626 -282.540339 
L 122.265967 -282.318758 
L 121.942457 -282.097178 
L 121.709955 -281.875597 
L 121.566756 -281.654016 
L 121.506858 -281.432435 
L 121.520437 -281.210855 
L 121.594486 -280.989274 
L 121.713594 -280.767693 
L 121.860812 -280.546112 
L 122.018558 -280.324531 
L 122.16951 -280.102951 
L 122.297446 -279.88137 
L 122.387976 -279.659789 
L 122.429138 -279.438208 
L 122.411823 -279.216627 
L 122.330027 -278.995047 
L 122.180911 -278.773466 
L 121.964693 -278.551885 
L 121.684375 -278.330304 
L 121.345358 -278.108724 
L 120.954956 -277.887143 
L 120.521866 -277.665562 
L 120.055628 -277.443981 
L 119.566098 -277.2224 
L 119.062989 -277.00082 
L 118.555476 -276.779239 
L 118.051891 -276.557658 
L 117.559519 -276.336077 
L 117.084468 -276.114496 
L 116.631636 -275.892916 
L 116.204735 -275.671335 
L 115.806368 -275.449754 
L 115.438144 -275.228173 
L 115.100805 -275.006593 
L 114.794374 -274.785012 
L 114.51828 -274.563431 
L 114.27149 -274.34185 
L 114.052619 -274.120269 
L 113.860026 -273.898689 
L 113.69189 -273.677108 
L 113.546284 -273.455527 
L 113.421226 -273.233946 
L 113.314724 -273.012366 
L 113.224813 -272.790785 
L 113.149592 -272.569204 
L 113.087244 -272.347623 
z
" id="md12a2eeec7" style="stroke:#3d3d3d;stroke-width:1.5;"/>
    </defs>
    <g clip-path="url(#p89dc0225c4)">
     <use style="fill:#3274a1;stroke:#3d3d3d;stroke-width:1.5;" x="0" xlink:href="#md12a2eeec7" y="368.607178"/>
    </g>
   </g>
   <g id="PolyCollection_3">
    <defs>
     <path d="M 152.566809 -176.363069 
L 152.489441 -176.363069 
L 152.479086 -177.663728 
L 152.466884 -178.964386 
L 152.452781 -180.265045 
L 152.436807 -181.565703 
L 152.41909 -182.866362 
L 152.39987 -184.16702 
L 152.379502 -185.467679 
L 152.358458 -186.768338 
L 152.337311 -188.068996 
L 152.316716 -189.369655 
L 152.297377 -190.670313 
L 152.280009 -191.970972 
L 152.265296 -193.271631 
L 152.253846 -194.572289 
L 152.246148 -195.872948 
L 152.242537 -197.173606 
L 152.243174 -198.474265 
L 152.248027 -199.774923 
L 152.256879 -201.075582 
L 152.269339 -202.376241 
L 152.284871 -203.676899 
L 152.302833 -204.977558 
L 152.322511 -206.278216 
L 152.343169 -207.578875 
L 152.364089 -208.879534 
L 152.384601 -210.180192 
L 152.40411 -211.480851 
L 152.422116 -212.781509 
L 152.438217 -214.082168 
L 152.452107 -215.382826 
L 152.463565 -216.683485 
L 152.472443 -217.984144 
L 152.478648 -219.284802 
L 152.482128 -220.585461 
L 152.482857 -221.886119 
L 152.480828 -223.186778 
L 152.476051 -224.487436 
L 152.468559 -225.788095 
L 152.458412 -227.088754 
L 152.445714 -228.389412 
L 152.430623 -229.690071 
L 152.413366 -230.990729 
L 152.394244 -232.291388 
L 152.373631 -233.592047 
L 152.351963 -234.892705 
L 152.329712 -236.193364 
L 152.307347 -237.494022 
L 152.285283 -238.794681 
L 152.263813 -240.095339 
L 152.243036 -241.395998 
L 152.222778 -242.696657 
L 152.202514 -243.997315 
L 152.181297 -245.297974 
L 152.157707 -246.598632 
L 152.129817 -247.899291 
L 152.095197 -249.199949 
L 152.050947 -250.500608 
L 151.993777 -251.801267 
L 151.920138 -253.101925 
L 151.82639 -254.402584 
L 151.709022 -255.703242 
L 151.564907 -257.003901 
L 151.39158 -258.30456 
L 151.187535 -259.605218 
L 150.952498 -260.905877 
L 150.687679 -262.206535 
L 150.39595 -263.507194 
L 150.08195 -264.807852 
L 149.75207 -266.108511 
L 149.414324 -267.40917 
L 149.078086 -268.709828 
L 148.753704 -270.010487 
L 148.452007 -271.311145 
L 148.183739 -272.611804 
L 147.958943 -273.912463 
L 147.786375 -275.213121 
L 147.672956 -276.51378 
L 147.623337 -277.814438 
L 147.639612 -279.115097 
L 147.721181 -280.415755 
L 147.864814 -281.716414 
L 148.064869 -283.017073 
L 148.313671 -284.317731 
L 148.602012 -285.61839 
L 148.919709 -286.919048 
L 149.256207 -288.219707 
L 149.601148 -289.520365 
L 149.944879 -290.821024 
L 150.278864 -292.121683 
L 150.595986 -293.422341 
L 150.890715 -294.723 
L 151.159159 -296.023658 
L 151.399011 -297.324317 
L 151.609396 -298.624976 
L 151.790674 -299.925634 
L 151.944185 -301.226293 
L 152.072001 -302.526951 
L 152.176672 -303.82761 
L 152.261001 -305.128268 
L 152.795249 -305.128268 
L 152.795249 -305.128268 
L 152.879578 -303.82761 
L 152.984249 -302.526951 
L 153.112065 -301.226293 
L 153.265576 -299.925634 
L 153.446854 -298.624976 
L 153.657239 -297.324317 
L 153.897091 -296.023658 
L 154.165535 -294.723 
L 154.460264 -293.422341 
L 154.777386 -292.121683 
L 155.111371 -290.821024 
L 155.455102 -289.520365 
L 155.800043 -288.219707 
L 156.136541 -286.919048 
L 156.454238 -285.61839 
L 156.742579 -284.317731 
L 156.991381 -283.017073 
L 157.191436 -281.716414 
L 157.335069 -280.415755 
L 157.416638 -279.115097 
L 157.432913 -277.814438 
L 157.383294 -276.51378 
L 157.269875 -275.213121 
L 157.097307 -273.912463 
L 156.872511 -272.611804 
L 156.604243 -271.311145 
L 156.302546 -270.010487 
L 155.978164 -268.709828 
L 155.641926 -267.40917 
L 155.30418 -266.108511 
L 154.9743 -264.807852 
L 154.6603 -263.507194 
L 154.368571 -262.206535 
L 154.103752 -260.905877 
L 153.868715 -259.605218 
L 153.66467 -258.30456 
L 153.491343 -257.003901 
L 153.347228 -255.703242 
L 153.22986 -254.402584 
L 153.136112 -253.101925 
L 153.062473 -251.801267 
L 153.005303 -250.500608 
L 152.961053 -249.199949 
L 152.926433 -247.899291 
L 152.898543 -246.598632 
L 152.874953 -245.297974 
L 152.853736 -243.997315 
L 152.833472 -242.696657 
L 152.813214 -241.395998 
L 152.792437 -240.095339 
L 152.770967 -238.794681 
L 152.748903 -237.494022 
L 152.726538 -236.193364 
L 152.704287 -234.892705 
L 152.682619 -233.592047 
L 152.662006 -232.291388 
L 152.642884 -230.990729 
L 152.625627 -229.690071 
L 152.610536 -228.389412 
L 152.597838 -227.088754 
L 152.587691 -225.788095 
L 152.580199 -224.487436 
L 152.575422 -223.186778 
L 152.573393 -221.886119 
L 152.574122 -220.585461 
L 152.577602 -219.284802 
L 152.583807 -217.984144 
L 152.592685 -216.683485 
L 152.604143 -215.382826 
L 152.618033 -214.082168 
L 152.634134 -212.781509 
L 152.65214 -211.480851 
L 152.671649 -210.180192 
L 152.692161 -208.879534 
L 152.713081 -207.578875 
L 152.733739 -206.278216 
L 152.753417 -204.977558 
L 152.771379 -203.676899 
L 152.786911 -202.376241 
L 152.799371 -201.075582 
L 152.808223 -199.774923 
L 152.813076 -198.474265 
L 152.813713 -197.173606 
L 152.810102 -195.872948 
L 152.802404 -194.572289 
L 152.790954 -193.271631 
L 152.776241 -191.970972 
L 152.758873 -190.670313 
L 152.739534 -189.369655 
L 152.718939 -188.068996 
L 152.697792 -186.768338 
L 152.676748 -185.467679 
L 152.65638 -184.16702 
L 152.63716 -182.866362 
L 152.619443 -181.565703 
L 152.603469 -180.265045 
L 152.589366 -178.964386 
L 152.577164 -177.663728 
L 152.566809 -176.363069 
z
" id="m25e2862331" style="stroke:#3d3d3d;stroke-width:1.5;"/>
    </defs>
    <g clip-path="url(#p89dc0225c4)">
     <use style="fill:#c4b5d0;stroke:#3d3d3d;stroke-width:1.5;" x="0" xlink:href="#m25e2862331" y="368.607178"/>
    </g>
   </g>
   <g id="PolyCollection_4">
    <defs>
     <path d="M 192.233549 -110.34023 
L 192.182701 -110.34023 
L 192.176953 -112.60137 
L 192.170147 -114.86251 
L 192.162145 -117.123649 
L 192.152805 -119.384789 
L 192.141979 -121.645928 
L 192.129524 -123.907068 
L 192.115299 -126.168208 
L 192.099173 -128.429347 
L 192.081031 -130.690487 
L 192.060776 -132.951626 
L 192.03834 -135.212766 
L 192.013688 -137.473906 
L 191.986824 -139.735045 
L 191.957799 -141.996185 
L 191.926714 -144.257325 
L 191.893729 -146.518464 
L 191.859061 -148.779604 
L 191.82299 -151.040743 
L 191.785857 -153.301883 
L 191.748065 -155.563023 
L 191.710067 -157.824162 
L 191.672369 -160.085302 
L 191.63551 -162.346442 
L 191.600058 -164.607581 
L 191.566593 -166.868721 
L 191.535691 -169.12986 
L 191.507904 -171.391 
L 191.483751 -173.65214 
L 191.46369 -175.913279 
L 191.448109 -178.174419 
L 191.437304 -180.435559 
L 191.431473 -182.696698 
L 191.4307 -184.957838 
L 191.434947 -187.218977 
L 191.444054 -189.480117 
L 191.457738 -191.741257 
L 191.475592 -194.002396 
L 191.497097 -196.263536 
L 191.521629 -198.524676 
L 191.548472 -200.785815 
L 191.576834 -203.046955 
L 191.605864 -205.308094 
L 191.634668 -207.569234 
L 191.662329 -209.830374 
L 191.687926 -212.091513 
L 191.710553 -214.352653 
L 191.729336 -216.613793 
L 191.743454 -218.874932 
L 191.752154 -221.136072 
L 191.754771 -223.397211 
L 191.750739 -225.658351 
L 191.739616 -227.919491 
L 191.721089 -230.18063 
L 191.694995 -232.44177 
L 191.661329 -234.70291 
L 191.620256 -236.964049 
L 191.572118 -239.225189 
L 191.517441 -241.486328 
L 191.456929 -243.747468 
L 191.391466 -246.008608 
L 191.3221 -248.269747 
L 191.250034 -250.530887 
L 191.176595 -252.792027 
L 191.103214 -255.053166 
L 191.031389 -257.314306 
L 190.962647 -259.575445 
L 190.898502 -261.836585 
L 190.840414 -264.097725 
L 190.789739 -266.358864 
L 190.747694 -268.620004 
L 190.715312 -270.881143 
L 190.69341 -273.142283 
L 190.682564 -275.403423 
L 190.683088 -277.664562 
L 190.695025 -279.925702 
L 190.718152 -282.186842 
L 190.751982 -284.447981 
L 190.795795 -286.709121 
L 190.848654 -288.97026 
L 190.909452 -291.2314 
L 190.976943 -293.49254 
L 191.04979 -295.753679 
L 191.126611 -298.014819 
L 191.206017 -300.275959 
L 191.28666 -302.537098 
L 191.367267 -304.798238 
L 191.446669 -307.059377 
L 191.52383 -309.320517 
L 191.597862 -311.581657 
L 191.668038 -313.842796 
L 191.733794 -316.103936 
L 191.794725 -318.365076 
L 191.850583 -320.626215 
L 191.901257 -322.887355 
L 191.946763 -325.148494 
L 191.987224 -327.409634 
L 192.02285 -329.670774 
L 192.053921 -331.931913 
L 192.080764 -334.193053 
L 192.335486 -334.193053 
L 192.335486 -334.193053 
L 192.362329 -331.931913 
L 192.3934 -329.670774 
L 192.429026 -327.409634 
L 192.469487 -325.148494 
L 192.514993 -322.887355 
L 192.565667 -320.626215 
L 192.621525 -318.365076 
L 192.682456 -316.103936 
L 192.748212 -313.842796 
L 192.818388 -311.581657 
L 192.89242 -309.320517 
L 192.969581 -307.059377 
L 193.048983 -304.798238 
L 193.12959 -302.537098 
L 193.210233 -300.275959 
L 193.289639 -298.014819 
L 193.36646 -295.753679 
L 193.439307 -293.49254 
L 193.506798 -291.2314 
L 193.567596 -288.97026 
L 193.620455 -286.709121 
L 193.664268 -284.447981 
L 193.698098 -282.186842 
L 193.721225 -279.925702 
L 193.733162 -277.664562 
L 193.733686 -275.403423 
L 193.72284 -273.142283 
L 193.700938 -270.881143 
L 193.668556 -268.620004 
L 193.626511 -266.358864 
L 193.575836 -264.097725 
L 193.517748 -261.836585 
L 193.453603 -259.575445 
L 193.384861 -257.314306 
L 193.313036 -255.053166 
L 193.239655 -252.792027 
L 193.166216 -250.530887 
L 193.09415 -248.269747 
L 193.024784 -246.008608 
L 192.959321 -243.747468 
L 192.898809 -241.486328 
L 192.844132 -239.225189 
L 192.795994 -236.964049 
L 192.754921 -234.70291 
L 192.721255 -232.44177 
L 192.695161 -230.18063 
L 192.676634 -227.919491 
L 192.665511 -225.658351 
L 192.661479 -223.397211 
L 192.664096 -221.136072 
L 192.672796 -218.874932 
L 192.686914 -216.613793 
L 192.705697 -214.352653 
L 192.728324 -212.091513 
L 192.753921 -209.830374 
L 192.781582 -207.569234 
L 192.810386 -205.308094 
L 192.839416 -203.046955 
L 192.867778 -200.785815 
L 192.894621 -198.524676 
L 192.919153 -196.263536 
L 192.940658 -194.002396 
L 192.958512 -191.741257 
L 192.972196 -189.480117 
L 192.981303 -187.218977 
L 192.98555 -184.957838 
L 192.984777 -182.696698 
L 192.978946 -180.435559 
L 192.968141 -178.174419 
L 192.95256 -175.913279 
L 192.932499 -173.65214 
L 192.908346 -171.391 
L 192.880559 -169.12986 
L 192.849657 -166.868721 
L 192.816192 -164.607581 
L 192.78074 -162.346442 
L 192.743881 -160.085302 
L 192.706183 -157.824162 
L 192.668185 -155.563023 
L 192.630393 -153.301883 
L 192.59326 -151.040743 
L 192.557189 -148.779604 
L 192.522521 -146.518464 
L 192.489536 -144.257325 
L 192.458451 -141.996185 
L 192.429426 -139.735045 
L 192.402562 -137.473906 
L 192.37791 -135.212766 
L 192.355474 -132.951626 
L 192.335219 -130.690487 
L 192.317077 -128.429347 
L 192.300951 -126.168208 
L 192.286726 -123.907068 
L 192.274271 -121.645928 
L 192.263445 -119.384789 
L 192.254105 -117.123649 
L 192.246103 -114.86251 
L 192.239297 -112.60137 
L 192.233549 -110.34023 
z
" id="m952ab5500a" style="stroke:#3d3d3d;stroke-width:1.5;"/>
    </defs>
    <g clip-path="url(#p89dc0225c4)">
     <use style="fill:#f2a5a3;stroke:#3d3d3d;stroke-width:1.5;" x="0" xlink:href="#m952ab5500a" y="368.607178"/>
    </g>
   </g>
   <g id="PolyCollection_5">
    <defs>
     <path d="M 231.946313 -133.729009 
L 231.829937 -133.729009 
L 231.817837 -135.747167 
L 231.803923 -137.765325 
L 231.788089 -139.783483 
L 231.770262 -141.80164 
L 231.750407 -143.819798 
L 231.728538 -145.837956 
L 231.704727 -147.856114 
L 231.679107 -149.874272 
L 231.651878 -151.89243 
L 231.623311 -153.910587 
L 231.593744 -155.928745 
L 231.563581 -157.946903 
L 231.533287 -159.965061 
L 231.503372 -161.983219 
L 231.474383 -164.001376 
L 231.446888 -166.019534 
L 231.421454 -168.037692 
L 231.398631 -170.05585 
L 231.378932 -172.074008 
L 231.362812 -174.092166 
L 231.350652 -176.110323 
L 231.342741 -178.128481 
L 231.339266 -180.146639 
L 231.340303 -182.164797 
L 231.345812 -184.182955 
L 231.355636 -186.201112 
L 231.36951 -188.21927 
L 231.387062 -190.237428 
L 231.407832 -192.255586 
L 231.431283 -194.273744 
L 231.456814 -196.291902 
L 231.483782 -198.310059 
L 231.511514 -200.328217 
L 231.539323 -202.346375 
L 231.56652 -204.364533 
L 231.592425 -206.382691 
L 231.616375 -208.400848 
L 231.637727 -210.419006 
L 231.655862 -212.437164 
L 231.670182 -214.455322 
L 231.68011 -216.47348 
L 231.685089 -218.491638 
L 231.68458 -220.509795 
L 231.678058 -222.527953 
L 231.665021 -224.546111 
L 231.644988 -226.564269 
L 231.617512 -228.582427 
L 231.582195 -230.600585 
L 231.538701 -232.618742 
L 231.486776 -234.6369 
L 231.42628 -236.655058 
L 231.357201 -238.673216 
L 231.279692 -240.691374 
L 231.194088 -242.709531 
L 231.100934 -244.727689 
L 231.000995 -246.745847 
L 230.895273 -248.764005 
L 230.785003 -250.782163 
L 230.671645 -252.800321 
L 230.556867 -254.818478 
L 230.442513 -256.836636 
L 230.330561 -258.854794 
L 230.223076 -260.872952 
L 230.122146 -262.89111 
L 230.029824 -264.909267 
L 229.948058 -266.927425 
L 229.878625 -268.945583 
L 229.82307 -270.963741 
L 229.782648 -272.981899 
L 229.758281 -275.000057 
L 229.750518 -277.018214 
L 229.759523 -279.036372 
L 229.785064 -281.05453 
L 229.826526 -283.072688 
L 229.882935 -285.090846 
L 229.952995 -287.109003 
L 230.035139 -289.127161 
L 230.127589 -291.145319 
L 230.228414 -293.163477 
L 230.335603 -295.181635 
L 230.447122 -297.199793 
L 230.560987 -299.21795 
L 230.675311 -301.236108 
L 230.788355 -303.254266 
L 230.898566 -305.272424 
L 231.004607 -307.290582 
L 231.105373 -309.308739 
L 231.199995 -311.326897 
L 231.287845 -313.345055 
L 231.368516 -315.363213 
L 231.441812 -317.381371 
L 231.507725 -319.399529 
L 231.566402 -321.417686 
L 231.618126 -323.435844 
L 231.663282 -325.454002 
L 231.702329 -327.47216 
L 231.73578 -329.490318 
L 231.764173 -331.508475 
L 231.788053 -333.526633 
L 231.988197 -333.526633 
L 231.988197 -333.526633 
L 232.012077 -331.508475 
L 232.04047 -329.490318 
L 232.073921 -327.47216 
L 232.112968 -325.454002 
L 232.158124 -323.435844 
L 232.209848 -321.417686 
L 232.268525 -319.399529 
L 232.334438 -317.381371 
L 232.407734 -315.363213 
L 232.488405 -313.345055 
L 232.576255 -311.326897 
L 232.670877 -309.308739 
L 232.771643 -307.290582 
L 232.877684 -305.272424 
L 232.987895 -303.254266 
L 233.100939 -301.236108 
L 233.215263 -299.21795 
L 233.329128 -297.199793 
L 233.440647 -295.181635 
L 233.547836 -293.163477 
L 233.648661 -291.145319 
L 233.741111 -289.127161 
L 233.823255 -287.109003 
L 233.893315 -285.090846 
L 233.949724 -283.072688 
L 233.991186 -281.05453 
L 234.016727 -279.036372 
L 234.025732 -277.018214 
L 234.017969 -275.000057 
L 233.993602 -272.981899 
L 233.95318 -270.963741 
L 233.897625 -268.945583 
L 233.828192 -266.927425 
L 233.746426 -264.909267 
L 233.654104 -262.89111 
L 233.553174 -260.872952 
L 233.445689 -258.854794 
L 233.333737 -256.836636 
L 233.219383 -254.818478 
L 233.104605 -252.800321 
L 232.991247 -250.782163 
L 232.880977 -248.764005 
L 232.775255 -246.745847 
L 232.675316 -244.727689 
L 232.582162 -242.709531 
L 232.496558 -240.691374 
L 232.419049 -238.673216 
L 232.34997 -236.655058 
L 232.289474 -234.6369 
L 232.237549 -232.618742 
L 232.194055 -230.600585 
L 232.158738 -228.582427 
L 232.131262 -226.564269 
L 232.111229 -224.546111 
L 232.098192 -222.527953 
L 232.09167 -220.509795 
L 232.091161 -218.491638 
L 232.09614 -216.47348 
L 232.106068 -214.455322 
L 232.120388 -212.437164 
L 232.138523 -210.419006 
L 232.159875 -208.400848 
L 232.183825 -206.382691 
L 232.20973 -204.364533 
L 232.236927 -202.346375 
L 232.264736 -200.328217 
L 232.292468 -198.310059 
L 232.319436 -196.291902 
L 232.344967 -194.273744 
L 232.368418 -192.255586 
L 232.389188 -190.237428 
L 232.40674 -188.21927 
L 232.420614 -186.201112 
L 232.430438 -184.182955 
L 232.435947 -182.164797 
L 232.436984 -180.146639 
L 232.433509 -178.128481 
L 232.425598 -176.110323 
L 232.413438 -174.092166 
L 232.397318 -172.074008 
L 232.377619 -170.05585 
L 232.354796 -168.037692 
L 232.329362 -166.019534 
L 232.301867 -164.001376 
L 232.272878 -161.983219 
L 232.242963 -159.965061 
L 232.212669 -157.946903 
L 232.182506 -155.928745 
L 232.152939 -153.910587 
L 232.124372 -151.89243 
L 232.097143 -149.874272 
L 232.071523 -147.856114 
L 232.047712 -145.837956 
L 232.025843 -143.819798 
L 232.005988 -141.80164 
L 231.988161 -139.783483 
L 231.972327 -137.765325 
L 231.958413 -135.747167 
L 231.946313 -133.729009 
z
" id="md6b1b00d36" style="stroke:#3d3d3d;stroke-width:1.5;"/>
    </defs>
    <g clip-path="url(#p89dc0225c4)">
     <use style="fill:#c03d3e;stroke:#3d3d3d;stroke-width:1.5;" x="0" xlink:href="#md6b1b00d36" y="368.607178"/>
    </g>
   </g>
   <g id="PolyCollection_6">
    <defs>
     <path d="M 271.592521 -123.067097 
L 271.543729 -123.067097 
L 271.537709 -124.979874 
L 271.530683 -126.89265 
L 271.522615 -128.805427 
L 271.513504 -130.718204 
L 271.50339 -132.630981 
L 271.49236 -134.543757 
L 271.48055 -136.456534 
L 271.468143 -138.369311 
L 271.455368 -140.282088 
L 271.442489 -142.194864 
L 271.429794 -144.107641 
L 271.417582 -146.020418 
L 271.406141 -147.933195 
L 271.395733 -149.845971 
L 271.386574 -151.758748 
L 271.378821 -153.671525 
L 271.372558 -155.584302 
L 271.367788 -157.497078 
L 271.364437 -159.409855 
L 271.362356 -161.322632 
L 271.361336 -163.235409 
L 271.361125 -165.148185 
L 271.361451 -167.060962 
L 271.362044 -168.973739 
L 271.362665 -170.886516 
L 271.363124 -172.799292 
L 271.363298 -174.712069 
L 271.363143 -176.624846 
L 271.362698 -178.537623 
L 271.362081 -180.450399 
L 271.361479 -182.363176 
L 271.361128 -184.275953 
L 271.361297 -186.18873 
L 271.362256 -188.101506 
L 271.364259 -190.014283 
L 271.367514 -191.92706 
L 271.37217 -193.839837 
L 271.378301 -195.752613 
L 271.385897 -197.66539 
L 271.394862 -199.578167 
L 271.405022 -201.490944 
L 271.416127 -203.40372 
L 271.427866 -205.316497 
L 271.439877 -207.229274 
L 271.451758 -209.142051 
L 271.463073 -211.054827 
L 271.473353 -212.967604 
L 271.482097 -214.880381 
L 271.48876 -216.793158 
L 271.492738 -218.705934 
L 271.493346 -220.618711 
L 271.489802 -222.531488 
L 271.481198 -224.444265 
L 271.466484 -226.357041 
L 271.444457 -228.269818 
L 271.413761 -230.182595 
L 271.372905 -232.095372 
L 271.320297 -234.008148 
L 271.254307 -235.920925 
L 271.173348 -237.833702 
L 271.075984 -239.746479 
L 270.961059 -241.659255 
L 270.827836 -243.572032 
L 270.676143 -245.484809 
L 270.506516 -247.397586 
L 270.320318 -249.310362 
L 270.119825 -251.223139 
L 269.908263 -253.135916 
L 269.689795 -255.048693 
L 269.469424 -256.961469 
L 269.252847 -258.874246 
L 269.046226 -260.787023 
L 268.855913 -262.6998 
L 268.688134 -264.612576 
L 268.548656 -266.525353 
L 268.442455 -268.43813 
L 268.373427 -270.350907 
L 268.344147 -272.263683 
L 268.355714 -274.17646 
L 268.407678 -276.089237 
L 268.498073 -278.002014 
L 268.623538 -279.91479 
L 268.779525 -281.827567 
L 268.960575 -283.740344 
L 269.16063 -285.653121 
L 269.373368 -287.565897 
L 269.592531 -289.478674 
L 269.812222 -291.391451 
L 270.027144 -293.304228 
L 270.232791 -295.217004 
L 270.425562 -297.129781 
L 270.602807 -299.042558 
L 270.762816 -300.955335 
L 270.904751 -302.868111 
L 271.028539 -304.780888 
L 271.134743 -306.693665 
L 271.224415 -308.606442 
L 271.298955 -310.519218 
L 271.359975 -312.431995 
L 271.776275 -312.431995 
L 271.776275 -312.431995 
L 271.837295 -310.519218 
L 271.911835 -308.606442 
L 272.001507 -306.693665 
L 272.107711 -304.780888 
L 272.231499 -302.868111 
L 272.373434 -300.955335 
L 272.533443 -299.042558 
L 272.710688 -297.129781 
L 272.903459 -295.217004 
L 273.109106 -293.304228 
L 273.324028 -291.391451 
L 273.543719 -289.478674 
L 273.762882 -287.565897 
L 273.97562 -285.653121 
L 274.175675 -283.740344 
L 274.356725 -281.827567 
L 274.512712 -279.91479 
L 274.638177 -278.002014 
L 274.728572 -276.089237 
L 274.780536 -274.17646 
L 274.792103 -272.263683 
L 274.762823 -270.350907 
L 274.693795 -268.43813 
L 274.587594 -266.525353 
L 274.448116 -264.612576 
L 274.280337 -262.6998 
L 274.090024 -260.787023 
L 273.883403 -258.874246 
L 273.666826 -256.961469 
L 273.446455 -255.048693 
L 273.227987 -253.135916 
L 273.016425 -251.223139 
L 272.815932 -249.310362 
L 272.629734 -247.397586 
L 272.460107 -245.484809 
L 272.308414 -243.572032 
L 272.175191 -241.659255 
L 272.060266 -239.746479 
L 271.962902 -237.833702 
L 271.881943 -235.920925 
L 271.815953 -234.008148 
L 271.763345 -232.095372 
L 271.722489 -230.182595 
L 271.691793 -228.269818 
L 271.669766 -226.357041 
L 271.655052 -224.444265 
L 271.646448 -222.531488 
L 271.642904 -220.618711 
L 271.643512 -218.705934 
L 271.64749 -216.793158 
L 271.654153 -214.880381 
L 271.662897 -212.967604 
L 271.673177 -211.054827 
L 271.684492 -209.142051 
L 271.696373 -207.229274 
L 271.708384 -205.316497 
L 271.720123 -203.40372 
L 271.731228 -201.490944 
L 271.741388 -199.578167 
L 271.750353 -197.66539 
L 271.757949 -195.752613 
L 271.76408 -193.839837 
L 271.768736 -191.92706 
L 271.771991 -190.014283 
L 271.773994 -188.101506 
L 271.774953 -186.18873 
L 271.775122 -184.275953 
L 271.774771 -182.363176 
L 271.774169 -180.450399 
L 271.773552 -178.537623 
L 271.773107 -176.624846 
L 271.772952 -174.712069 
L 271.773126 -172.799292 
L 271.773585 -170.886516 
L 271.774206 -168.973739 
L 271.774799 -167.060962 
L 271.775125 -165.148185 
L 271.774914 -163.235409 
L 271.773894 -161.322632 
L 271.771813 -159.409855 
L 271.768462 -157.497078 
L 271.763692 -155.584302 
L 271.757429 -153.671525 
L 271.749676 -151.758748 
L 271.740517 -149.845971 
L 271.730109 -147.933195 
L 271.718668 -146.020418 
L 271.706456 -144.107641 
L 271.693761 -142.194864 
L 271.680882 -140.282088 
L 271.668107 -138.369311 
L 271.6557 -136.456534 
L 271.64389 -134.543757 
L 271.63286 -132.630981 
L 271.622746 -130.718204 
L 271.613635 -128.805427 
L 271.605567 -126.89265 
L 271.598541 -124.979874 
L 271.592521 -123.067097 
z
" id="mc2e1b34851" style="stroke:#3d3d3d;stroke-width:1.5;"/>
    </defs>
    <g clip-path="url(#p89dc0225c4)">
     <use style="fill:#d684bd;stroke:#3d3d3d;stroke-width:1.5;" x="0" xlink:href="#mc2e1b34851" y="368.607178"/>
    </g>
   </g>
   <g id="PolyCollection_7">
    <defs>
     <path d="M 311.282235 -159.549584 
L 311.214015 -159.549584 
L 311.204328 -161.10695 
L 311.192821 -162.664316 
L 311.179445 -164.221683 
L 311.164246 -165.779049 
L 311.147377 -167.336416 
L 311.129117 -168.893782 
L 311.109874 -170.451148 
L 311.090176 -172.008515 
L 311.070656 -173.565881 
L 311.052023 -175.123247 
L 311.035017 -176.680614 
L 311.020368 -178.23798 
L 311.008739 -179.795346 
L 311.000677 -181.352713 
L 310.996574 -182.910079 
L 310.996632 -184.467445 
L 311.000847 -186.024812 
L 311.009008 -187.582178 
L 311.020716 -189.139544 
L 311.035415 -190.696911 
L 311.052431 -192.254277 
L 311.071026 -193.811644 
L 311.090442 -195.36901 
L 311.109953 -196.926376 
L 311.128896 -198.483743 
L 311.146704 -200.041109 
L 311.162917 -201.598475 
L 311.177187 -203.155842 
L 311.189267 -204.713208 
L 311.198997 -206.270574 
L 311.206285 -207.827941 
L 311.211085 -209.385307 
L 311.213376 -210.942673 
L 311.213149 -212.50004 
L 311.210398 -214.057406 
L 311.205124 -215.614772 
L 311.197332 -217.172139 
L 311.187052 -218.729505 
L 311.174347 -220.286872 
L 311.15933 -221.844238 
L 311.142172 -223.401604 
L 311.123105 -224.958971 
L 311.102404 -226.516337 
L 311.080365 -228.073703 
L 311.057256 -229.63107 
L 311.033248 -231.188436 
L 311.008344 -232.745802 
L 310.982279 -234.303169 
L 310.954437 -235.860535 
L 310.923761 -237.417901 
L 310.888692 -238.975268 
L 310.847138 -240.532634 
L 310.796492 -242.09 
L 310.733705 -243.647367 
L 310.655424 -245.204733 
L 310.558194 -246.7621 
L 310.438728 -248.319466 
L 310.294215 -249.876832 
L 310.122665 -251.434199 
L 309.92325 -252.991565 
L 309.696608 -254.548931 
L 309.445084 -256.106298 
L 309.172856 -257.663664 
L 308.885935 -259.22103 
L 308.592005 -260.778397 
L 308.300115 -262.335763 
L 308.020215 -263.893129 
L 307.762589 -265.450496 
L 307.537212 -267.007862 
L 307.3531 -268.565228 
L 307.217704 -270.122595 
L 307.136412 -271.679961 
L 307.112208 -273.237328 
L 307.145508 -274.794694 
L 307.234197 -276.35206 
L 307.373857 -277.909427 
L 307.558144 -279.466793 
L 307.77928 -281.024159 
L 308.02861 -282.581526 
L 308.297162 -284.138892 
L 308.576169 -285.696258 
L 308.857502 -287.253625 
L 309.13401 -288.810991 
L 309.399732 -290.368357 
L 309.650005 -291.925724 
L 309.881462 -293.48309 
L 310.09196 -295.040457 
L 310.280437 -296.597823 
L 310.446749 -298.155189 
L 310.591483 -299.712556 
L 310.715779 -301.269922 
L 310.821159 -302.827288 
L 310.909386 -304.384655 
L 310.98234 -305.942021 
L 311.041922 -307.499387 
L 311.089983 -309.056754 
L 311.128265 -310.61412 
L 311.158371 -312.171486 
L 311.181743 -313.728853 
L 311.314507 -313.728853 
L 311.314507 -313.728853 
L 311.337879 -312.171486 
L 311.367985 -310.61412 
L 311.406267 -309.056754 
L 311.454328 -307.499387 
L 311.51391 -305.942021 
L 311.586864 -304.384655 
L 311.675091 -302.827288 
L 311.780471 -301.269922 
L 311.904767 -299.712556 
L 312.049501 -298.155189 
L 312.215813 -296.597823 
L 312.40429 -295.040457 
L 312.614788 -293.48309 
L 312.846245 -291.925724 
L 313.096518 -290.368357 
L 313.36224 -288.810991 
L 313.638748 -287.253625 
L 313.920081 -285.696258 
L 314.199088 -284.138892 
L 314.46764 -282.581526 
L 314.71697 -281.024159 
L 314.938106 -279.466793 
L 315.122393 -277.909427 
L 315.262053 -276.35206 
L 315.350742 -274.794694 
L 315.384042 -273.237328 
L 315.359838 -271.679961 
L 315.278546 -270.122595 
L 315.14315 -268.565228 
L 314.959038 -267.007862 
L 314.733661 -265.450496 
L 314.476035 -263.893129 
L 314.196135 -262.335763 
L 313.904245 -260.778397 
L 313.610315 -259.22103 
L 313.323394 -257.663664 
L 313.051166 -256.106298 
L 312.799642 -254.548931 
L 312.573 -252.991565 
L 312.373585 -251.434199 
L 312.202035 -249.876832 
L 312.057522 -248.319466 
L 311.938056 -246.7621 
L 311.840826 -245.204733 
L 311.762545 -243.647367 
L 311.699758 -242.09 
L 311.649112 -240.532634 
L 311.607558 -238.975268 
L 311.572489 -237.417901 
L 311.541813 -235.860535 
L 311.513971 -234.303169 
L 311.487906 -232.745802 
L 311.463002 -231.188436 
L 311.438994 -229.63107 
L 311.415885 -228.073703 
L 311.393846 -226.516337 
L 311.373145 -224.958971 
L 311.354078 -223.401604 
L 311.33692 -221.844238 
L 311.321903 -220.286872 
L 311.309198 -218.729505 
L 311.298918 -217.172139 
L 311.291126 -215.614772 
L 311.285852 -214.057406 
L 311.283101 -212.50004 
L 311.282874 -210.942673 
L 311.285165 -209.385307 
L 311.289965 -207.827941 
L 311.297253 -206.270574 
L 311.306983 -204.713208 
L 311.319063 -203.155842 
L 311.333333 -201.598475 
L 311.349546 -200.041109 
L 311.367354 -198.483743 
L 311.386297 -196.926376 
L 311.405808 -195.36901 
L 311.425224 -193.811644 
L 311.443819 -192.254277 
L 311.460835 -190.696911 
L 311.475534 -189.139544 
L 311.487242 -187.582178 
L 311.495403 -186.024812 
L 311.499618 -184.467445 
L 311.499676 -182.910079 
L 311.495573 -181.352713 
L 311.487511 -179.795346 
L 311.475882 -178.23798 
L 311.461233 -176.680614 
L 311.444227 -175.123247 
L 311.425594 -173.565881 
L 311.406074 -172.008515 
L 311.386376 -170.451148 
L 311.367133 -168.893782 
L 311.348873 -167.336416 
L 311.332004 -165.779049 
L 311.316805 -164.221683 
L 311.303429 -162.664316 
L 311.291922 -161.10695 
L 311.282235 -159.549584 
z
" id="ma0c702262b" style="stroke:#3d3d3d;stroke-width:1.5;"/>
    </defs>
    <g clip-path="url(#p89dc0225c4)">
     <use style="fill:#3a923a;stroke:#3d3d3d;stroke-width:1.5;" x="0" xlink:href="#ma0c702262b" y="368.607178"/>
    </g>
   </g>
   <g id="PolyCollection_8">
    <defs>
     <path d="M 350.999822 -115.340792 
L 350.856428 -115.340792 
L 350.839227 -117.321166 
L 350.818774 -119.301541 
L 350.794663 -121.281915 
L 350.766486 -123.26229 
L 350.733837 -125.242664 
L 350.696324 -127.223039 
L 350.653585 -129.203414 
L 350.605296 -131.183788 
L 350.551192 -133.164163 
L 350.491078 -135.144537 
L 350.424848 -137.124912 
L 350.352503 -139.105286 
L 350.274165 -141.085661 
L 350.190097 -143.066035 
L 350.100714 -145.04641 
L 350.006604 -147.026785 
L 349.908528 -149.007159 
L 349.807433 -150.987534 
L 349.704451 -152.967908 
L 349.60089 -154.948283 
L 349.498222 -156.928657 
L 349.39806 -158.909032 
L 349.302123 -160.889406 
L 349.212197 -162.869781 
L 349.130085 -164.850156 
L 349.057548 -166.83053 
L 348.996246 -168.810905 
L 348.947671 -170.791279 
L 348.913086 -172.771654 
L 348.893463 -174.752028 
L 348.889436 -176.732403 
L 348.901262 -178.712777 
L 348.928791 -180.693152 
L 348.971463 -182.673527 
L 349.028317 -184.653901 
L 349.098012 -186.634276 
L 349.178877 -188.61465 
L 349.268968 -190.595025 
L 349.366133 -192.575399 
L 349.468094 -194.555774 
L 349.572529 -196.536149 
L 349.677149 -198.516523 
L 349.779777 -200.496898 
L 349.87842 -202.477272 
L 349.971322 -204.457647 
L 350.057012 -206.438021 
L 350.134339 -208.418396 
L 350.202482 -210.39877 
L 350.260959 -212.379145 
L 350.309615 -214.35952 
L 350.348596 -216.339894 
L 350.378325 -218.320269 
L 350.399457 -220.300643 
L 350.412836 -222.281018 
L 350.419448 -224.261392 
L 350.420373 -226.241767 
L 350.416736 -228.222141 
L 350.409665 -230.202516 
L 350.400251 -232.182891 
L 350.38951 -234.163265 
L 350.378363 -236.14364 
L 350.367608 -238.124014 
L 350.357916 -240.104389 
L 350.34982 -242.084763 
L 350.34372 -244.065138 
L 350.33989 -246.045512 
L 350.338494 -248.025887 
L 350.339598 -250.006262 
L 350.343193 -251.986636 
L 350.34921 -253.967011 
L 350.357542 -255.947385 
L 350.368056 -257.92776 
L 350.380609 -259.908134 
L 350.395053 -261.888509 
L 350.411247 -263.868883 
L 350.429051 -265.849258 
L 350.448328 -267.829633 
L 350.468944 -269.810007 
L 350.490756 -271.790382 
L 350.513615 -273.770756 
L 350.537354 -275.751131 
L 350.561791 -277.731505 
L 350.586725 -279.71188 
L 350.611939 -281.692254 
L 350.637201 -283.672629 
L 350.66227 -285.653004 
L 350.686907 -287.633378 
L 350.710876 -289.613753 
L 350.733957 -291.594127 
L 350.75595 -293.574502 
L 350.776685 -295.554876 
L 350.796023 -297.535251 
L 350.813865 -299.515625 
L 350.830146 -301.496 
L 350.844841 -303.476375 
L 350.857958 -305.456749 
L 350.869539 -307.437124 
L 350.879652 -309.417498 
L 350.888385 -311.397873 
L 350.967865 -311.397873 
L 350.967865 -311.397873 
L 350.976598 -309.417498 
L 350.986711 -307.437124 
L 350.998292 -305.456749 
L 351.011409 -303.476375 
L 351.026104 -301.496 
L 351.042385 -299.515625 
L 351.060227 -297.535251 
L 351.079565 -295.554876 
L 351.1003 -293.574502 
L 351.122293 -291.594127 
L 351.145374 -289.613753 
L 351.169343 -287.633378 
L 351.19398 -285.653004 
L 351.219049 -283.672629 
L 351.244311 -281.692254 
L 351.269525 -279.71188 
L 351.294459 -277.731505 
L 351.318896 -275.751131 
L 351.342635 -273.770756 
L 351.365494 -271.790382 
L 351.387306 -269.810007 
L 351.407922 -267.829633 
L 351.427199 -265.849258 
L 351.445003 -263.868883 
L 351.461197 -261.888509 
L 351.475641 -259.908134 
L 351.488194 -257.92776 
L 351.498708 -255.947385 
L 351.50704 -253.967011 
L 351.513057 -251.986636 
L 351.516652 -250.006262 
L 351.517756 -248.025887 
L 351.51636 -246.045512 
L 351.51253 -244.065138 
L 351.50643 -242.084763 
L 351.498334 -240.104389 
L 351.488642 -238.124014 
L 351.477887 -236.14364 
L 351.46674 -234.163265 
L 351.455999 -232.182891 
L 351.446585 -230.202516 
L 351.439514 -228.222141 
L 351.435877 -226.241767 
L 351.436802 -224.261392 
L 351.443414 -222.281018 
L 351.456793 -220.300643 
L 351.477925 -218.320269 
L 351.507654 -216.339894 
L 351.546635 -214.35952 
L 351.595291 -212.379145 
L 351.653768 -210.39877 
L 351.721911 -208.418396 
L 351.799238 -206.438021 
L 351.884928 -204.457647 
L 351.97783 -202.477272 
L 352.076473 -200.496898 
L 352.179101 -198.516523 
L 352.283721 -196.536149 
L 352.388156 -194.555774 
L 352.490117 -192.575399 
L 352.587282 -190.595025 
L 352.677373 -188.61465 
L 352.758238 -186.634276 
L 352.827933 -184.653901 
L 352.884787 -182.673527 
L 352.927459 -180.693152 
L 352.954988 -178.712777 
L 352.966814 -176.732403 
L 352.962787 -174.752028 
L 352.943164 -172.771654 
L 352.908579 -170.791279 
L 352.860004 -168.810905 
L 352.798702 -166.83053 
L 352.726165 -164.850156 
L 352.644053 -162.869781 
L 352.554127 -160.889406 
L 352.45819 -158.909032 
L 352.358028 -156.928657 
L 352.25536 -154.948283 
L 352.151799 -152.967908 
L 352.048817 -150.987534 
L 351.947722 -149.007159 
L 351.849646 -147.026785 
L 351.755536 -145.04641 
L 351.666153 -143.066035 
L 351.582085 -141.085661 
L 351.503747 -139.105286 
L 351.431402 -137.124912 
L 351.365172 -135.144537 
L 351.305058 -133.164163 
L 351.250954 -131.183788 
L 351.202665 -129.203414 
L 351.159926 -127.223039 
L 351.122413 -125.242664 
L 351.089764 -123.26229 
L 351.061587 -121.281915 
L 351.037476 -119.301541 
L 351.017023 -117.321166 
L 350.999822 -115.340792 
z
" id="m6fbfce0016" style="stroke:#3d3d3d;stroke-width:1.5;"/>
    </defs>
    <g clip-path="url(#p89dc0225c4)">
     <use style="fill:#d1d197;stroke:#3d3d3d;stroke-width:1.5;" x="0" xlink:href="#m6fbfce0016" y="368.607178"/>
    </g>
   </g>
   <g id="PolyCollection_9">
    <defs>
     <path d="M 390.689781 -92.273053 
L 390.526469 -92.273053 
L 390.505719 -94.595005 
L 390.480775 -96.916956 
L 390.45109 -99.238908 
L 390.416121 -101.560859 
L 390.375348 -103.882811 
L 390.328307 -106.204762 
L 390.274612 -108.526714 
L 390.213989 -110.848666 
L 390.146309 -113.170617 
L 390.071615 -115.492569 
L 389.990158 -117.81452 
L 389.902414 -120.136472 
L 389.809104 -122.458424 
L 389.711206 -124.780375 
L 389.609948 -127.102327 
L 389.506797 -129.424278 
L 389.403433 -131.74623 
L 389.30171 -134.068182 
L 389.203603 -136.390133 
L 389.111152 -138.712085 
L 389.026388 -141.034036 
L 388.951263 -143.355988 
L 388.887575 -145.677939 
L 388.836894 -147.999891 
L 388.800497 -150.321843 
L 388.779316 -152.643794 
L 388.773892 -154.965746 
L 388.784353 -157.287697 
L 388.810406 -159.609649 
L 388.851346 -161.931601 
L 388.906081 -164.253552 
L 388.973183 -166.575504 
L 389.050936 -168.897455 
L 389.137407 -171.219407 
L 389.230518 -173.541359 
L 389.328122 -175.86331 
L 389.428075 -178.185262 
L 389.528302 -180.507213 
L 389.626863 -182.829165 
L 389.722002 -185.151116 
L 389.812181 -187.473068 
L 389.896114 -189.79502 
L 389.972778 -192.116971 
L 390.041416 -194.438923 
L 390.101532 -196.760874 
L 390.15288 -199.082826 
L 390.195437 -201.404778 
L 390.229384 -203.726729 
L 390.255076 -206.048681 
L 390.273013 -208.370632 
L 390.283813 -210.692584 
L 390.288182 -213.014535 
L 390.286892 -215.336487 
L 390.280756 -217.658439 
L 390.270602 -219.98039 
L 390.257264 -222.302342 
L 390.241555 -224.624293 
L 390.224259 -226.946245 
L 390.206116 -229.268197 
L 390.187811 -231.590148 
L 390.169969 -233.9121 
L 390.153143 -236.234051 
L 390.137814 -238.556003 
L 390.124388 -240.877955 
L 390.113192 -243.199906 
L 390.10448 -245.521858 
L 390.098433 -247.843809 
L 390.095161 -250.165761 
L 390.094717 -252.487712 
L 390.097092 -254.809664 
L 390.102231 -257.131616 
L 390.110033 -259.453567 
L 390.120362 -261.775519 
L 390.133049 -264.09747 
L 390.147901 -266.419422 
L 390.164703 -268.741374 
L 390.183225 -271.063325 
L 390.203222 -273.385277 
L 390.224441 -275.707228 
L 390.246623 -278.02918 
L 390.269504 -280.351132 
L 390.292824 -282.673083 
L 390.316324 -284.995035 
L 390.339754 -287.316986 
L 390.362878 -289.638938 
L 390.385473 -291.960889 
L 390.407338 -294.282841 
L 390.428293 -296.604793 
L 390.448186 -298.926744 
L 390.466892 -301.248696 
L 390.484316 -303.570647 
L 390.500393 -305.892599 
L 390.515088 -308.214551 
L 390.528391 -310.536502 
L 390.540322 -312.858454 
L 390.550919 -315.180405 
L 390.560244 -317.502357 
L 390.56837 -319.824309 
L 390.575385 -322.14626 
L 390.640865 -322.14626 
L 390.640865 -322.14626 
L 390.64788 -319.824309 
L 390.656006 -317.502357 
L 390.665331 -315.180405 
L 390.675928 -312.858454 
L 390.687859 -310.536502 
L 390.701162 -308.214551 
L 390.715857 -305.892599 
L 390.731934 -303.570647 
L 390.749358 -301.248696 
L 390.768064 -298.926744 
L 390.787957 -296.604793 
L 390.808912 -294.282841 
L 390.830777 -291.960889 
L 390.853372 -289.638938 
L 390.876496 -287.316986 
L 390.899926 -284.995035 
L 390.923426 -282.673083 
L 390.946746 -280.351132 
L 390.969627 -278.02918 
L 390.991809 -275.707228 
L 391.013028 -273.385277 
L 391.033025 -271.063325 
L 391.051547 -268.741374 
L 391.068349 -266.419422 
L 391.083201 -264.09747 
L 391.095888 -261.775519 
L 391.106217 -259.453567 
L 391.114019 -257.131616 
L 391.119158 -254.809664 
L 391.121533 -252.487712 
L 391.121089 -250.165761 
L 391.117817 -247.843809 
L 391.11177 -245.521858 
L 391.103058 -243.199906 
L 391.091862 -240.877955 
L 391.078436 -238.556003 
L 391.063107 -236.234051 
L 391.046281 -233.9121 
L 391.028439 -231.590148 
L 391.010134 -229.268197 
L 390.991991 -226.946245 
L 390.974695 -224.624293 
L 390.958986 -222.302342 
L 390.945648 -219.98039 
L 390.935494 -217.658439 
L 390.929358 -215.336487 
L 390.928068 -213.014535 
L 390.932437 -210.692584 
L 390.943237 -208.370632 
L 390.961174 -206.048681 
L 390.986866 -203.726729 
L 391.020813 -201.404778 
L 391.06337 -199.082826 
L 391.114718 -196.760874 
L 391.174834 -194.438923 
L 391.243472 -192.116971 
L 391.320136 -189.79502 
L 391.404069 -187.473068 
L 391.494248 -185.151116 
L 391.589387 -182.829165 
L 391.687948 -180.507213 
L 391.788175 -178.185262 
L 391.888128 -175.86331 
L 391.985732 -173.541359 
L 392.078843 -171.219407 
L 392.165314 -168.897455 
L 392.243067 -166.575504 
L 392.310169 -164.253552 
L 392.364904 -161.931601 
L 392.405844 -159.609649 
L 392.431897 -157.287697 
L 392.442358 -154.965746 
L 392.436934 -152.643794 
L 392.415753 -150.321843 
L 392.379356 -147.999891 
L 392.328675 -145.677939 
L 392.264987 -143.355988 
L 392.189862 -141.034036 
L 392.105098 -138.712085 
L 392.012647 -136.390133 
L 391.91454 -134.068182 
L 391.812817 -131.74623 
L 391.709453 -129.424278 
L 391.606302 -127.102327 
L 391.505044 -124.780375 
L 391.407146 -122.458424 
L 391.313836 -120.136472 
L 391.226092 -117.81452 
L 391.144635 -115.492569 
L 391.069941 -113.170617 
L 391.002261 -110.848666 
L 390.941638 -108.526714 
L 390.887943 -106.204762 
L 390.840902 -103.882811 
L 390.800129 -101.560859 
L 390.76516 -99.238908 
L 390.735475 -96.916956 
L 390.710531 -94.595005 
L 390.689781 -92.273053 
z
" id="m18d4748250" style="stroke:#3d3d3d;stroke-width:1.5;"/>
    </defs>
    <g clip-path="url(#p89dc0225c4)">
     <use style="fill:#9fd495;stroke:#3d3d3d;stroke-width:1.5;" x="0" xlink:href="#m18d4748250" y="368.607178"/>
    </g>
   </g>
   <g id="matplotlib.axis_1">
    <g id="xtick_1">
     <g id="line2d_1">
      <defs>
       <path d="M 0 0 
L 0 3.5 
" id="m3bcec5d6e3" style="stroke:#000000;stroke-width:0.8;"/>
      </defs>
      <g>
       <use style="stroke:#000000;stroke-width:0.8;" x="73.168125" xlink:href="#m3bcec5d6e3" y="288.430125"/>
      </g>
     </g>
     <g id="text_1">
      <!-- entropic -->
      <g transform="translate(36.586057 322.530877)rotate(-30)scale(0.1 -0.1)">
       <defs>
        <path d="M 56.203125 29.59375 
L 56.203125 25.203125 
L 14.890625 25.203125 
Q 15.484375 15.921875 20.484375 11.0625 
Q 25.484375 6.203125 34.421875 6.203125 
Q 39.59375 6.203125 44.453125 7.46875 
Q 49.3125 8.734375 54.109375 11.28125 
L 54.109375 2.78125 
Q 49.265625 0.734375 44.1875 -0.34375 
Q 39.109375 -1.421875 33.890625 -1.421875 
Q 20.796875 -1.421875 13.15625 6.1875 
Q 5.515625 13.8125 5.515625 26.8125 
Q 5.515625 40.234375 12.765625 48.109375 
Q 20.015625 56 32.328125 56 
Q 43.359375 56 49.78125 48.890625 
Q 56.203125 41.796875 56.203125 29.59375 
z
M 47.21875 32.234375 
Q 47.125 39.59375 43.09375 43.984375 
Q 39.0625 48.390625 32.421875 48.390625 
Q 24.90625 48.390625 20.390625 44.140625 
Q 15.875 39.890625 15.1875 32.171875 
z
" id="DejaVuSans-101"/>
        <path d="M 54.890625 33.015625 
L 54.890625 0 
L 45.90625 0 
L 45.90625 32.71875 
Q 45.90625 40.484375 42.875 44.328125 
Q 39.84375 48.1875 33.796875 48.1875 
Q 26.515625 48.1875 22.3125 43.546875 
Q 18.109375 38.921875 18.109375 30.90625 
L 18.109375 0 
L 9.078125 0 
L 9.078125 54.6875 
L 18.109375 54.6875 
L 18.109375 46.1875 
Q 21.34375 51.125 25.703125 53.5625 
Q 30.078125 56 35.796875 56 
Q 45.21875 56 50.046875 50.171875 
Q 54.890625 44.34375 54.890625 33.015625 
z
" id="DejaVuSans-110"/>
        <path d="M 18.3125 70.21875 
L 18.3125 54.6875 
L 36.8125 54.6875 
L 36.8125 47.703125 
L 18.3125 47.703125 
L 18.3125 18.015625 
Q 18.3125 11.328125 20.140625 9.421875 
Q 21.96875 7.515625 27.59375 7.515625 
L 36.8125 7.515625 
L 36.8125 0 
L 27.59375 0 
Q 17.1875 0 13.234375 3.875 
Q 9.28125 7.765625 9.28125 18.015625 
L 9.28125 47.703125 
L 2.6875 47.703125 
L 2.6875 54.6875 
L 9.28125 54.6875 
L 9.28125 70.21875 
z
" id="DejaVuSans-116"/>
        <path d="M 41.109375 46.296875 
Q 39.59375 47.171875 37.8125 47.578125 
Q 36.03125 48 33.890625 48 
Q 26.265625 48 22.1875 43.046875 
Q 18.109375 38.09375 18.109375 28.8125 
L 18.109375 0 
L 9.078125 0 
L 9.078125 54.6875 
L 18.109375 54.6875 
L 18.109375 46.1875 
Q 20.953125 51.171875 25.484375 53.578125 
Q 30.03125 56 36.53125 56 
Q 37.453125 56 38.578125 55.875 
Q 39.703125 55.765625 41.0625 55.515625 
z
" id="DejaVuSans-114"/>
        <path d="M 30.609375 48.390625 
Q 23.390625 48.390625 19.1875 42.75 
Q 14.984375 37.109375 14.984375 27.296875 
Q 14.984375 17.484375 19.15625 11.84375 
Q 23.34375 6.203125 30.609375 6.203125 
Q 37.796875 6.203125 41.984375 11.859375 
Q 46.1875 17.53125 46.1875 27.296875 
Q 46.1875 37.015625 41.984375 42.703125 
Q 37.796875 48.390625 30.609375 48.390625 
z
M 30.609375 56 
Q 42.328125 56 49.015625 48.375 
Q 55.71875 40.765625 55.71875 27.296875 
Q 55.71875 13.875 49.015625 6.21875 
Q 42.328125 -1.421875 30.609375 -1.421875 
Q 18.84375 -1.421875 12.171875 6.21875 
Q 5.515625 13.875 5.515625 27.296875 
Q 5.515625 40.765625 12.171875 48.375 
Q 18.84375 56 30.609375 56 
z
" id="DejaVuSans-111"/>
        <path d="M 18.109375 8.203125 
L 18.109375 -20.796875 
L 9.078125 -20.796875 
L 9.078125 54.6875 
L 18.109375 54.6875 
L 18.109375 46.390625 
Q 20.953125 51.265625 25.265625 53.625 
Q 29.59375 56 35.59375 56 
Q 45.5625 56 51.78125 48.09375 
Q 58.015625 40.1875 58.015625 27.296875 
Q 58.015625 14.40625 51.78125 6.484375 
Q 45.5625 -1.421875 35.59375 -1.421875 
Q 29.59375 -1.421875 25.265625 0.953125 
Q 20.953125 3.328125 18.109375 8.203125 
z
M 48.6875 27.296875 
Q 48.6875 37.203125 44.609375 42.84375 
Q 40.53125 48.484375 33.40625 48.484375 
Q 26.265625 48.484375 22.1875 42.84375 
Q 18.109375 37.203125 18.109375 27.296875 
Q 18.109375 17.390625 22.1875 11.75 
Q 26.265625 6.109375 33.40625 6.109375 
Q 40.53125 6.109375 44.609375 11.75 
Q 48.6875 17.390625 48.6875 27.296875 
z
" id="DejaVuSans-112"/>
        <path d="M 9.421875 54.6875 
L 18.40625 54.6875 
L 18.40625 0 
L 9.421875 0 
z
M 9.421875 75.984375 
L 18.40625 75.984375 
L 18.40625 64.59375 
L 9.421875 64.59375 
z
" id="DejaVuSans-105"/>
        <path d="M 48.78125 52.59375 
L 48.78125 44.1875 
Q 44.96875 46.296875 41.140625 47.34375 
Q 37.3125 48.390625 33.40625 48.390625 
Q 24.65625 48.390625 19.8125 42.84375 
Q 14.984375 37.3125 14.984375 27.296875 
Q 14.984375 17.28125 19.8125 11.734375 
Q 24.65625 6.203125 33.40625 6.203125 
Q 37.3125 6.203125 41.140625 7.25 
Q 44.96875 8.296875 48.78125 10.40625 
L 48.78125 2.09375 
Q 45.015625 0.34375 40.984375 -0.53125 
Q 36.96875 -1.421875 32.421875 -1.421875 
Q 20.0625 -1.421875 12.78125 6.34375 
Q 5.515625 14.109375 5.515625 27.296875 
Q 5.515625 40.671875 12.859375 48.328125 
Q 20.21875 56 33.015625 56 
Q 37.15625 56 41.109375 55.140625 
Q 45.0625 54.296875 48.78125 52.59375 
z
" id="DejaVuSans-99"/>
       </defs>
       <use xlink:href="#DejaVuSans-101"/>
       <use x="61.523438" xlink:href="#DejaVuSans-110"/>
       <use x="124.902344" xlink:href="#DejaVuSans-116"/>
       <use x="164.111328" xlink:href="#DejaVuSans-114"/>
       <use x="202.974609" xlink:href="#DejaVuSans-111"/>
       <use x="264.15625" xlink:href="#DejaVuSans-112"/>
       <use x="327.632812" xlink:href="#DejaVuSans-105"/>
       <use x="355.416016" xlink:href="#DejaVuSans-99"/>
      </g>
     </g>
    </g>
    <g id="xtick_2">
     <g id="line2d_2">
      <g>
       <use style="stroke:#000000;stroke-width:0.8;" x="112.848125" xlink:href="#m3bcec5d6e3" y="288.430125"/>
      </g>
     </g>
     <g id="text_2">
      <!-- aflplusplus -->
      <g transform="translate(65.239118 328.897284)rotate(-30)scale(0.1 -0.1)">
       <defs>
        <path d="M 34.28125 27.484375 
Q 23.390625 27.484375 19.1875 25 
Q 14.984375 22.515625 14.984375 16.5 
Q 14.984375 11.71875 18.140625 8.90625 
Q 21.296875 6.109375 26.703125 6.109375 
Q 34.1875 6.109375 38.703125 11.40625 
Q 43.21875 16.703125 43.21875 25.484375 
L 43.21875 27.484375 
z
M 52.203125 31.203125 
L 52.203125 0 
L 43.21875 0 
L 43.21875 8.296875 
Q 40.140625 3.328125 35.546875 0.953125 
Q 30.953125 -1.421875 24.3125 -1.421875 
Q 15.921875 -1.421875 10.953125 3.296875 
Q 6 8.015625 6 15.921875 
Q 6 25.140625 12.171875 29.828125 
Q 18.359375 34.515625 30.609375 34.515625 
L 43.21875 34.515625 
L 43.21875 35.40625 
Q 43.21875 41.609375 39.140625 45 
Q 35.0625 48.390625 27.6875 48.390625 
Q 23 48.390625 18.546875 47.265625 
Q 14.109375 46.140625 10.015625 43.890625 
L 10.015625 52.203125 
Q 14.9375 54.109375 19.578125 55.046875 
Q 24.21875 56 28.609375 56 
Q 40.484375 56 46.34375 49.84375 
Q 52.203125 43.703125 52.203125 31.203125 
z
" id="DejaVuSans-97"/>
        <path d="M 37.109375 75.984375 
L 37.109375 68.5 
L 28.515625 68.5 
Q 23.6875 68.5 21.796875 66.546875 
Q 19.921875 64.59375 19.921875 59.515625 
L 19.921875 54.6875 
L 34.71875 54.6875 
L 34.71875 47.703125 
L 19.921875 47.703125 
L 19.921875 0 
L 10.890625 0 
L 10.890625 47.703125 
L 2.296875 47.703125 
L 2.296875 54.6875 
L 10.890625 54.6875 
L 10.890625 58.5 
Q 10.890625 67.625 15.140625 71.796875 
Q 19.390625 75.984375 28.609375 75.984375 
z
" id="DejaVuSans-102"/>
        <path d="M 9.421875 75.984375 
L 18.40625 75.984375 
L 18.40625 0 
L 9.421875 0 
z
" id="DejaVuSans-108"/>
        <path d="M 8.5 21.578125 
L 8.5 54.6875 
L 17.484375 54.6875 
L 17.484375 21.921875 
Q 17.484375 14.15625 20.5 10.265625 
Q 23.53125 6.390625 29.59375 6.390625 
Q 36.859375 6.390625 41.078125 11.03125 
Q 45.3125 15.671875 45.3125 23.6875 
L 45.3125 54.6875 
L 54.296875 54.6875 
L 54.296875 0 
L 45.3125 0 
L 45.3125 8.40625 
Q 42.046875 3.421875 37.71875 1 
Q 33.40625 -1.421875 27.6875 -1.421875 
Q 18.265625 -1.421875 13.375 4.4375 
Q 8.5 10.296875 8.5 21.578125 
z
M 31.109375 56 
z
" id="DejaVuSans-117"/>
        <path d="M 44.28125 53.078125 
L 44.28125 44.578125 
Q 40.484375 46.53125 36.375 47.5 
Q 32.28125 48.484375 27.875 48.484375 
Q 21.1875 48.484375 17.84375 46.4375 
Q 14.5 44.390625 14.5 40.28125 
Q 14.5 37.15625 16.890625 35.375 
Q 19.28125 33.59375 26.515625 31.984375 
L 29.59375 31.296875 
Q 39.15625 29.25 43.1875 25.515625 
Q 47.21875 21.78125 47.21875 15.09375 
Q 47.21875 7.46875 41.1875 3.015625 
Q 35.15625 -1.421875 24.609375 -1.421875 
Q 20.21875 -1.421875 15.453125 -0.5625 
Q 10.6875 0.296875 5.421875 2 
L 5.421875 11.28125 
Q 10.40625 8.6875 15.234375 7.390625 
Q 20.0625 6.109375 24.8125 6.109375 
Q 31.15625 6.109375 34.5625 8.28125 
Q 37.984375 10.453125 37.984375 14.40625 
Q 37.984375 18.0625 35.515625 20.015625 
Q 33.0625 21.96875 24.703125 23.78125 
L 21.578125 24.515625 
Q 13.234375 26.265625 9.515625 29.90625 
Q 5.8125 33.546875 5.8125 39.890625 
Q 5.8125 47.609375 11.28125 51.796875 
Q 16.75 56 26.8125 56 
Q 31.78125 56 36.171875 55.265625 
Q 40.578125 54.546875 44.28125 53.078125 
z
" id="DejaVuSans-115"/>
       </defs>
       <use xlink:href="#DejaVuSans-97"/>
       <use x="61.279297" xlink:href="#DejaVuSans-102"/>
       <use x="96.484375" xlink:href="#DejaVuSans-108"/>
       <use x="124.267578" xlink:href="#DejaVuSans-112"/>
       <use x="187.744141" xlink:href="#DejaVuSans-108"/>
       <use x="215.527344" xlink:href="#DejaVuSans-117"/>
       <use x="278.90625" xlink:href="#DejaVuSans-115"/>
       <use x="331.005859" xlink:href="#DejaVuSans-112"/>
       <use x="394.482422" xlink:href="#DejaVuSans-108"/>
       <use x="422.265625" xlink:href="#DejaVuSans-117"/>
       <use x="485.644531" xlink:href="#DejaVuSans-115"/>
      </g>
     </g>
    </g>
    <g id="xtick_3">
     <g id="line2d_3">
      <g>
       <use style="stroke:#000000;stroke-width:0.8;" x="152.528125" xlink:href="#m3bcec5d6e3" y="288.430125"/>
      </g>
     </g>
     <g id="text_3">
      <!-- mopt -->
      <g transform="translate(128.860661 315.074627)rotate(-30)scale(0.1 -0.1)">
       <defs>
        <path d="M 52 44.1875 
Q 55.375 50.25 60.0625 53.125 
Q 64.75 56 71.09375 56 
Q 79.640625 56 84.28125 50.015625 
Q 88.921875 44.046875 88.921875 33.015625 
L 88.921875 0 
L 79.890625 0 
L 79.890625 32.71875 
Q 79.890625 40.578125 77.09375 44.375 
Q 74.3125 48.1875 68.609375 48.1875 
Q 61.625 48.1875 57.5625 43.546875 
Q 53.515625 38.921875 53.515625 30.90625 
L 53.515625 0 
L 44.484375 0 
L 44.484375 32.71875 
Q 44.484375 40.625 41.703125 44.40625 
Q 38.921875 48.1875 33.109375 48.1875 
Q 26.21875 48.1875 22.15625 43.53125 
Q 18.109375 38.875 18.109375 30.90625 
L 18.109375 0 
L 9.078125 0 
L 9.078125 54.6875 
L 18.109375 54.6875 
L 18.109375 46.1875 
Q 21.1875 51.21875 25.484375 53.609375 
Q 29.78125 56 35.6875 56 
Q 41.65625 56 45.828125 52.96875 
Q 50 49.953125 52 44.1875 
z
" id="DejaVuSans-109"/>
       </defs>
       <use xlink:href="#DejaVuSans-109"/>
       <use x="97.412109" xlink:href="#DejaVuSans-111"/>
       <use x="158.59375" xlink:href="#DejaVuSans-112"/>
       <use x="222.070312" xlink:href="#DejaVuSans-116"/>
      </g>
     </g>
    </g>
    <g id="xtick_4">
     <g id="line2d_4">
      <g>
       <use style="stroke:#000000;stroke-width:0.8;" x="192.208125" xlink:href="#m3bcec5d6e3" y="288.430125"/>
      </g>
     </g>
     <g id="text_4">
      <!-- fairfuzz -->
      <g transform="translate(159.21871 320.456659)rotate(-30)scale(0.1 -0.1)">
       <defs>
        <path d="M 5.515625 54.6875 
L 48.1875 54.6875 
L 48.1875 46.484375 
L 14.40625 7.171875 
L 48.1875 7.171875 
L 48.1875 0 
L 4.296875 0 
L 4.296875 8.203125 
L 38.09375 47.515625 
L 5.515625 47.515625 
z
" id="DejaVuSans-122"/>
       </defs>
       <use xlink:href="#DejaVuSans-102"/>
       <use x="35.205078" xlink:href="#DejaVuSans-97"/>
       <use x="96.484375" xlink:href="#DejaVuSans-105"/>
       <use x="124.267578" xlink:href="#DejaVuSans-114"/>
       <use x="165.380859" xlink:href="#DejaVuSans-102"/>
       <use x="200.585938" xlink:href="#DejaVuSans-117"/>
       <use x="263.964844" xlink:href="#DejaVuSans-122"/>
       <use x="316.455078" xlink:href="#DejaVuSans-122"/>
      </g>
     </g>
    </g>
    <g id="xtick_5">
     <g id="line2d_5">
      <g>
       <use style="stroke:#000000;stroke-width:0.8;" x="231.888125" xlink:href="#m3bcec5d6e3" y="288.430125"/>
      </g>
     </g>
     <g id="text_5">
      <!-- aflplusplus_qemu -->
      <g transform="translate(155.059193 345.687127)rotate(-30)scale(0.1 -0.1)">
       <defs>
        <path d="M 50.984375 -16.609375 
L 50.984375 -23.578125 
L -0.984375 -23.578125 
L -0.984375 -16.609375 
z
" id="DejaVuSans-95"/>
        <path d="M 14.796875 27.296875 
Q 14.796875 17.390625 18.875 11.75 
Q 22.953125 6.109375 30.078125 6.109375 
Q 37.203125 6.109375 41.296875 11.75 
Q 45.40625 17.390625 45.40625 27.296875 
Q 45.40625 37.203125 41.296875 42.84375 
Q 37.203125 48.484375 30.078125 48.484375 
Q 22.953125 48.484375 18.875 42.84375 
Q 14.796875 37.203125 14.796875 27.296875 
z
M 45.40625 8.203125 
Q 42.578125 3.328125 38.25 0.953125 
Q 33.9375 -1.421875 27.875 -1.421875 
Q 17.96875 -1.421875 11.734375 6.484375 
Q 5.515625 14.40625 5.515625 27.296875 
Q 5.515625 40.1875 11.734375 48.09375 
Q 17.96875 56 27.875 56 
Q 33.9375 56 38.25 53.625 
Q 42.578125 51.265625 45.40625 46.390625 
L 45.40625 54.6875 
L 54.390625 54.6875 
L 54.390625 -20.796875 
L 45.40625 -20.796875 
z
" id="DejaVuSans-113"/>
       </defs>
       <use xlink:href="#DejaVuSans-97"/>
       <use x="61.279297" xlink:href="#DejaVuSans-102"/>
       <use x="96.484375" xlink:href="#DejaVuSans-108"/>
       <use x="124.267578" xlink:href="#DejaVuSans-112"/>
       <use x="187.744141" xlink:href="#DejaVuSans-108"/>
       <use x="215.527344" xlink:href="#DejaVuSans-117"/>
       <use x="278.90625" xlink:href="#DejaVuSans-115"/>
       <use x="331.005859" xlink:href="#DejaVuSans-112"/>
       <use x="394.482422" xlink:href="#DejaVuSans-108"/>
       <use x="422.265625" xlink:href="#DejaVuSans-117"/>
       <use x="485.644531" xlink:href="#DejaVuSans-115"/>
       <use x="537.744141" xlink:href="#DejaVuSans-95"/>
       <use x="587.744141" xlink:href="#DejaVuSans-113"/>
       <use x="651.220703" xlink:href="#DejaVuSans-101"/>
       <use x="712.744141" xlink:href="#DejaVuSans-109"/>
       <use x="810.15625" xlink:href="#DejaVuSans-117"/>
      </g>
     </g>
    </g>
    <g id="xtick_6">
     <g id="line2d_6">
      <g>
       <use style="stroke:#000000;stroke-width:0.8;" x="271.568125" xlink:href="#m3bcec5d6e3" y="288.430125"/>
      </g>
     </g>
     <g id="text_6">
      <!-- honggfuzz -->
      <g transform="translate(225.628924 327.933221)rotate(-30)scale(0.1 -0.1)">
       <defs>
        <path d="M 54.890625 33.015625 
L 54.890625 0 
L 45.90625 0 
L 45.90625 32.71875 
Q 45.90625 40.484375 42.875 44.328125 
Q 39.84375 48.1875 33.796875 48.1875 
Q 26.515625 48.1875 22.3125 43.546875 
Q 18.109375 38.921875 18.109375 30.90625 
L 18.109375 0 
L 9.078125 0 
L 9.078125 75.984375 
L 18.109375 75.984375 
L 18.109375 46.1875 
Q 21.34375 51.125 25.703125 53.5625 
Q 30.078125 56 35.796875 56 
Q 45.21875 56 50.046875 50.171875 
Q 54.890625 44.34375 54.890625 33.015625 
z
" id="DejaVuSans-104"/>
        <path d="M 45.40625 27.984375 
Q 45.40625 37.75 41.375 43.109375 
Q 37.359375 48.484375 30.078125 48.484375 
Q 22.859375 48.484375 18.828125 43.109375 
Q 14.796875 37.75 14.796875 27.984375 
Q 14.796875 18.265625 18.828125 12.890625 
Q 22.859375 7.515625 30.078125 7.515625 
Q 37.359375 7.515625 41.375 12.890625 
Q 45.40625 18.265625 45.40625 27.984375 
z
M 54.390625 6.78125 
Q 54.390625 -7.171875 48.1875 -13.984375 
Q 42 -20.796875 29.203125 -20.796875 
Q 24.46875 -20.796875 20.265625 -20.09375 
Q 16.0625 -19.390625 12.109375 -17.921875 
L 12.109375 -9.1875 
Q 16.0625 -11.328125 19.921875 -12.34375 
Q 23.78125 -13.375 27.78125 -13.375 
Q 36.625 -13.375 41.015625 -8.765625 
Q 45.40625 -4.15625 45.40625 5.171875 
L 45.40625 9.625 
Q 42.625 4.78125 38.28125 2.390625 
Q 33.9375 0 27.875 0 
Q 17.828125 0 11.671875 7.65625 
Q 5.515625 15.328125 5.515625 27.984375 
Q 5.515625 40.671875 11.671875 48.328125 
Q 17.828125 56 27.875 56 
Q 33.9375 56 38.28125 53.609375 
Q 42.625 51.21875 45.40625 46.390625 
L 45.40625 54.6875 
L 54.390625 54.6875 
z
" id="DejaVuSans-103"/>
       </defs>
       <use xlink:href="#DejaVuSans-104"/>
       <use x="63.378906" xlink:href="#DejaVuSans-111"/>
       <use x="124.560547" xlink:href="#DejaVuSans-110"/>
       <use x="187.939453" xlink:href="#DejaVuSans-103"/>
       <use x="251.416016" xlink:href="#DejaVuSans-103"/>
       <use x="314.892578" xlink:href="#DejaVuSans-102"/>
       <use x="350.097656" xlink:href="#DejaVuSans-117"/>
       <use x="413.476562" xlink:href="#DejaVuSans-122"/>
       <use x="465.966797" xlink:href="#DejaVuSans-122"/>
      </g>
     </g>
    </g>
    <g id="xtick_7">
     <g id="line2d_7">
      <g>
       <use style="stroke:#000000;stroke-width:0.8;" x="311.248125" xlink:href="#m3bcec5d6e3" y="288.430125"/>
      </g>
     </g>
     <g id="text_7">
      <!-- libfuzzer -->
      <g transform="translate(273.381904 323.272284)rotate(-30)scale(0.1 -0.1)">
       <defs>
        <path d="M 48.6875 27.296875 
Q 48.6875 37.203125 44.609375 42.84375 
Q 40.53125 48.484375 33.40625 48.484375 
Q 26.265625 48.484375 22.1875 42.84375 
Q 18.109375 37.203125 18.109375 27.296875 
Q 18.109375 17.390625 22.1875 11.75 
Q 26.265625 6.109375 33.40625 6.109375 
Q 40.53125 6.109375 44.609375 11.75 
Q 48.6875 17.390625 48.6875 27.296875 
z
M 18.109375 46.390625 
Q 20.953125 51.265625 25.265625 53.625 
Q 29.59375 56 35.59375 56 
Q 45.5625 56 51.78125 48.09375 
Q 58.015625 40.1875 58.015625 27.296875 
Q 58.015625 14.40625 51.78125 6.484375 
Q 45.5625 -1.421875 35.59375 -1.421875 
Q 29.59375 -1.421875 25.265625 0.953125 
Q 20.953125 3.328125 18.109375 8.203125 
L 18.109375 0 
L 9.078125 0 
L 9.078125 75.984375 
L 18.109375 75.984375 
z
" id="DejaVuSans-98"/>
       </defs>
       <use xlink:href="#DejaVuSans-108"/>
       <use x="27.783203" xlink:href="#DejaVuSans-105"/>
       <use x="55.566406" xlink:href="#DejaVuSans-98"/>
       <use x="119.042969" xlink:href="#DejaVuSans-102"/>
       <use x="154.248047" xlink:href="#DejaVuSans-117"/>
       <use x="217.626953" xlink:href="#DejaVuSans-122"/>
       <use x="270.117188" xlink:href="#DejaVuSans-122"/>
       <use x="322.607422" xlink:href="#DejaVuSans-101"/>
       <use x="384.130859" xlink:href="#DejaVuSans-114"/>
      </g>
     </g>
    </g>
    <g id="xtick_8">
     <g id="line2d_8">
      <g>
       <use style="stroke:#000000;stroke-width:0.8;" x="350.928125" xlink:href="#m3bcec5d6e3" y="288.430125"/>
      </g>
     </g>
     <g id="text_8">
      <!-- lafintel -->
      <g transform="translate(320.10242 319.20744)rotate(-30)scale(0.1 -0.1)">
       <use xlink:href="#DejaVuSans-108"/>
       <use x="27.783203" xlink:href="#DejaVuSans-97"/>
       <use x="89.0625" xlink:href="#DejaVuSans-102"/>
       <use x="124.267578" xlink:href="#DejaVuSans-105"/>
       <use x="152.050781" xlink:href="#DejaVuSans-110"/>
       <use x="215.429688" xlink:href="#DejaVuSans-116"/>
       <use x="254.638672" xlink:href="#DejaVuSans-101"/>
       <use x="316.162109" xlink:href="#DejaVuSans-108"/>
      </g>
     </g>
    </g>
    <g id="xtick_9">
     <g id="line2d_9">
      <g>
       <use style="stroke:#000000;stroke-width:0.8;" x="390.608125" xlink:href="#m3bcec5d6e3" y="288.430125"/>
      </g>
     </g>
     <g id="text_9">
      <!-- aflplusplus_flat -->
      <g transform="translate(324.37312 339.570721)rotate(-30)scale(0.1 -0.1)">
       <use xlink:href="#DejaVuSans-97"/>
       <use x="61.279297" xlink:href="#DejaVuSans-102"/>
       <use x="96.484375" xlink:href="#DejaVuSans-108"/>
       <use x="124.267578" xlink:href="#DejaVuSans-112"/>
       <use x="187.744141" xlink:href="#DejaVuSans-108"/>
       <use x="215.527344" xlink:href="#DejaVuSans-117"/>
       <use x="278.90625" xlink:href="#DejaVuSans-115"/>
       <use x="331.005859" xlink:href="#DejaVuSans-112"/>
       <use x="394.482422" xlink:href="#DejaVuSans-108"/>
       <use x="422.265625" xlink:href="#DejaVuSans-117"/>
       <use x="485.644531" xlink:href="#DejaVuSans-115"/>
       <use x="537.744141" xlink:href="#DejaVuSans-95"/>
       <use x="587.744141" xlink:href="#DejaVuSans-102"/>
       <use x="622.949219" xlink:href="#DejaVuSans-108"/>
       <use x="650.732422" xlink:href="#DejaVuSans-97"/>
       <use x="712.011719" xlink:href="#DejaVuSans-116"/>
      </g>
     </g>
    </g>
    <g id="text_10">
     <!-- Fuzzer (highest median coverage on the left) -->
     <g transform="translate(119.270156 359.32749)scale(0.1 -0.1)">
      <defs>
       <path d="M 9.8125 72.90625 
L 51.703125 72.90625 
L 51.703125 64.59375 
L 19.671875 64.59375 
L 19.671875 43.109375 
L 48.578125 43.109375 
L 48.578125 34.8125 
L 19.671875 34.8125 
L 19.671875 0 
L 9.8125 0 
z
" id="DejaVuSans-70"/>
       <path id="DejaVuSans-32"/>
       <path d="M 31 75.875 
Q 24.46875 64.65625 21.28125 53.65625 
Q 18.109375 42.671875 18.109375 31.390625 
Q 18.109375 20.125 21.3125 9.0625 
Q 24.515625 -2 31 -13.1875 
L 23.1875 -13.1875 
Q 15.875 -1.703125 12.234375 9.375 
Q 8.59375 20.453125 8.59375 31.390625 
Q 8.59375 42.28125 12.203125 53.3125 
Q 15.828125 64.359375 23.1875 75.875 
z
" id="DejaVuSans-40"/>
       <path d="M 45.40625 46.390625 
L 45.40625 75.984375 
L 54.390625 75.984375 
L 54.390625 0 
L 45.40625 0 
L 45.40625 8.203125 
Q 42.578125 3.328125 38.25 0.953125 
Q 33.9375 -1.421875 27.875 -1.421875 
Q 17.96875 -1.421875 11.734375 6.484375 
Q 5.515625 14.40625 5.515625 27.296875 
Q 5.515625 40.1875 11.734375 48.09375 
Q 17.96875 56 27.875 56 
Q 33.9375 56 38.25 53.625 
Q 42.578125 51.265625 45.40625 46.390625 
z
M 14.796875 27.296875 
Q 14.796875 17.390625 18.875 11.75 
Q 22.953125 6.109375 30.078125 6.109375 
Q 37.203125 6.109375 41.296875 11.75 
Q 45.40625 17.390625 45.40625 27.296875 
Q 45.40625 37.203125 41.296875 42.84375 
Q 37.203125 48.484375 30.078125 48.484375 
Q 22.953125 48.484375 18.875 42.84375 
Q 14.796875 37.203125 14.796875 27.296875 
z
" id="DejaVuSans-100"/>
       <path d="M 2.984375 54.6875 
L 12.5 54.6875 
L 29.59375 8.796875 
L 46.6875 54.6875 
L 56.203125 54.6875 
L 35.6875 0 
L 23.484375 0 
z
" id="DejaVuSans-118"/>
       <path d="M 8.015625 75.875 
L 15.828125 75.875 
Q 23.140625 64.359375 26.78125 53.3125 
Q 30.421875 42.28125 30.421875 31.390625 
Q 30.421875 20.453125 26.78125 9.375 
Q 23.140625 -1.703125 15.828125 -13.1875 
L 8.015625 -13.1875 
Q 14.5 -2 17.703125 9.0625 
Q 20.90625 20.125 20.90625 31.390625 
Q 20.90625 42.671875 17.703125 53.65625 
Q 14.5 64.65625 8.015625 75.875 
z
" id="DejaVuSans-41"/>
      </defs>
      <use xlink:href="#DejaVuSans-70"/>
      <use x="52.019531" xlink:href="#DejaVuSans-117"/>
      <use x="115.398438" xlink:href="#DejaVuSans-122"/>
      <use x="167.888672" xlink:href="#DejaVuSans-122"/>
      <use x="220.378906" xlink:href="#DejaVuSans-101"/>
      <use x="281.902344" xlink:href="#DejaVuSans-114"/>
      <use x="323.015625" xlink:href="#DejaVuSans-32"/>
      <use x="354.802734" xlink:href="#DejaVuSans-40"/>
      <use x="393.816406" xlink:href="#DejaVuSans-104"/>
      <use x="457.195312" xlink:href="#DejaVuSans-105"/>
      <use x="484.978516" xlink:href="#DejaVuSans-103"/>
      <use x="548.455078" xlink:href="#DejaVuSans-104"/>
      <use x="611.833984" xlink:href="#DejaVuSans-101"/>
      <use x="673.357422" xlink:href="#DejaVuSans-115"/>
      <use x="725.457031" xlink:href="#DejaVuSans-116"/>
      <use x="764.666016" xlink:href="#DejaVuSans-32"/>
      <use x="796.453125" xlink:href="#DejaVuSans-109"/>
      <use x="893.865234" xlink:href="#DejaVuSans-101"/>
      <use x="955.388672" xlink:href="#DejaVuSans-100"/>
      <use x="1018.865234" xlink:href="#DejaVuSans-105"/>
      <use x="1046.648438" xlink:href="#DejaVuSans-97"/>
      <use x="1107.927734" xlink:href="#DejaVuSans-110"/>
      <use x="1171.306641" xlink:href="#DejaVuSans-32"/>
      <use x="1203.09375" xlink:href="#DejaVuSans-99"/>
      <use x="1258.074219" xlink:href="#DejaVuSans-111"/>
      <use x="1319.255859" xlink:href="#DejaVuSans-118"/>
      <use x="1378.435547" xlink:href="#DejaVuSans-101"/>
      <use x="1439.958984" xlink:href="#DejaVuSans-114"/>
      <use x="1481.072266" xlink:href="#DejaVuSans-97"/>
      <use x="1542.351562" xlink:href="#DejaVuSans-103"/>
      <use x="1605.828125" xlink:href="#DejaVuSans-101"/>
      <use x="1667.351562" xlink:href="#DejaVuSans-32"/>
      <use x="1699.138672" xlink:href="#DejaVuSans-111"/>
      <use x="1760.320312" xlink:href="#DejaVuSans-110"/>
      <use x="1823.699219" xlink:href="#DejaVuSans-32"/>
      <use x="1855.486328" xlink:href="#DejaVuSans-116"/>
      <use x="1894.695312" xlink:href="#DejaVuSans-104"/>
      <use x="1958.074219" xlink:href="#DejaVuSans-101"/>
      <use x="2019.597656" xlink:href="#DejaVuSans-32"/>
      <use x="2051.384766" xlink:href="#DejaVuSans-108"/>
      <use x="2079.167969" xlink:href="#DejaVuSans-101"/>
      <use x="2140.691406" xlink:href="#DejaVuSans-102"/>
      <use x="2174.146484" xlink:href="#DejaVuSans-116"/>
      <use x="2213.355469" xlink:href="#DejaVuSans-41"/>
     </g>
    </g>
   </g>
   <g id="matplotlib.axis_2">
    <g id="ytick_1">
     <g id="line2d_10">
      <defs>
       <path d="M 0 0 
L -3.5 0 
" id="mae7f3c117b" style="stroke:#000000;stroke-width:0.8;"/>
      </defs>
      <g>
       <use style="stroke:#000000;stroke-width:0.8;" x="53.328125" xlink:href="#mae7f3c117b" y="248.454271"/>
      </g>
     </g>
     <g id="text_11">
      <!-- 3200 -->
      <g transform="translate(20.878125 252.25349)scale(0.1 -0.1)">
       <defs>
        <path d="M 40.578125 39.3125 
Q 47.65625 37.796875 51.625 33 
Q 55.609375 28.21875 55.609375 21.1875 
Q 55.609375 10.40625 48.1875 4.484375 
Q 40.765625 -1.421875 27.09375 -1.421875 
Q 22.515625 -1.421875 17.65625 -0.515625 
Q 12.796875 0.390625 7.625 2.203125 
L 7.625 11.71875 
Q 11.71875 9.328125 16.59375 8.109375 
Q 21.484375 6.890625 26.8125 6.890625 
Q 36.078125 6.890625 40.9375 10.546875 
Q 45.796875 14.203125 45.796875 21.1875 
Q 45.796875 27.640625 41.28125 31.265625 
Q 36.765625 34.90625 28.71875 34.90625 
L 20.21875 34.90625 
L 20.21875 43.015625 
L 29.109375 43.015625 
Q 36.375 43.015625 40.234375 45.921875 
Q 44.09375 48.828125 44.09375 54.296875 
Q 44.09375 59.90625 40.109375 62.90625 
Q 36.140625 65.921875 28.71875 65.921875 
Q 24.65625 65.921875 20.015625 65.03125 
Q 15.375 64.15625 9.8125 62.3125 
L 9.8125 71.09375 
Q 15.4375 72.65625 20.34375 73.4375 
Q 25.25 74.21875 29.59375 74.21875 
Q 40.828125 74.21875 47.359375 69.109375 
Q 53.90625 64.015625 53.90625 55.328125 
Q 53.90625 49.265625 50.4375 45.09375 
Q 46.96875 40.921875 40.578125 39.3125 
z
" id="DejaVuSans-51"/>
        <path d="M 19.1875 8.296875 
L 53.609375 8.296875 
L 53.609375 0 
L 7.328125 0 
L 7.328125 8.296875 
Q 12.9375 14.109375 22.625 23.890625 
Q 32.328125 33.6875 34.8125 36.53125 
Q 39.546875 41.84375 41.421875 45.53125 
Q 43.3125 49.21875 43.3125 52.78125 
Q 43.3125 58.59375 39.234375 62.25 
Q 35.15625 65.921875 28.609375 65.921875 
Q 23.96875 65.921875 18.8125 64.3125 
Q 13.671875 62.703125 7.8125 59.421875 
L 7.8125 69.390625 
Q 13.765625 71.78125 18.9375 73 
Q 24.125 74.21875 28.421875 74.21875 
Q 39.75 74.21875 46.484375 68.546875 
Q 53.21875 62.890625 53.21875 53.421875 
Q 53.21875 48.921875 51.53125 44.890625 
Q 49.859375 40.875 45.40625 35.40625 
Q 44.1875 33.984375 37.640625 27.21875 
Q 31.109375 20.453125 19.1875 8.296875 
z
" id="DejaVuSans-50"/>
        <path d="M 31.78125 66.40625 
Q 24.171875 66.40625 20.328125 58.90625 
Q 16.5 51.421875 16.5 36.375 
Q 16.5 21.390625 20.328125 13.890625 
Q 24.171875 6.390625 31.78125 6.390625 
Q 39.453125 6.390625 43.28125 13.890625 
Q 47.125 21.390625 47.125 36.375 
Q 47.125 51.421875 43.28125 58.90625 
Q 39.453125 66.40625 31.78125 66.40625 
z
M 31.78125 74.21875 
Q 44.046875 74.21875 50.515625 64.515625 
Q 56.984375 54.828125 56.984375 36.375 
Q 56.984375 17.96875 50.515625 8.265625 
Q 44.046875 -1.421875 31.78125 -1.421875 
Q 19.53125 -1.421875 13.0625 8.265625 
Q 6.59375 17.96875 6.59375 36.375 
Q 6.59375 54.828125 13.0625 64.515625 
Q 19.53125 74.21875 31.78125 74.21875 
z
" id="DejaVuSans-48"/>
       </defs>
       <use xlink:href="#DejaVuSans-51"/>
       <use x="63.623047" xlink:href="#DejaVuSans-50"/>
       <use x="127.246094" xlink:href="#DejaVuSans-48"/>
       <use x="190.869141" xlink:href="#DejaVuSans-48"/>
      </g>
     </g>
    </g>
    <g id="ytick_2">
     <g id="line2d_11">
      <g>
       <use style="stroke:#000000;stroke-width:0.8;" x="53.328125" xlink:href="#mae7f3c117b" y="193.701598"/>
      </g>
     </g>
     <g id="text_12">
      <!-- 3400 -->
      <g transform="translate(20.878125 197.500817)scale(0.1 -0.1)">
       <defs>
        <path d="M 37.796875 64.3125 
L 12.890625 25.390625 
L 37.796875 25.390625 
z
M 35.203125 72.90625 
L 47.609375 72.90625 
L 47.609375 25.390625 
L 58.015625 25.390625 
L 58.015625 17.1875 
L 47.609375 17.1875 
L 47.609375 0 
L 37.796875 0 
L 37.796875 17.1875 
L 4.890625 17.1875 
L 4.890625 26.703125 
z
" id="DejaVuSans-52"/>
       </defs>
       <use xlink:href="#DejaVuSans-51"/>
       <use x="63.623047" xlink:href="#DejaVuSans-52"/>
       <use x="127.246094" xlink:href="#DejaVuSans-48"/>
       <use x="190.869141" xlink:href="#DejaVuSans-48"/>
      </g>
     </g>
    </g>
    <g id="ytick_3">
     <g id="line2d_12">
      <g>
       <use style="stroke:#000000;stroke-width:0.8;" x="53.328125" xlink:href="#mae7f3c117b" y="138.948925"/>
      </g>
     </g>
     <g id="text_13">
      <!-- 3600 -->
      <g transform="translate(20.878125 142.748144)scale(0.1 -0.1)">
       <defs>
        <path d="M 33.015625 40.375 
Q 26.375 40.375 22.484375 35.828125 
Q 18.609375 31.296875 18.609375 23.390625 
Q 18.609375 15.53125 22.484375 10.953125 
Q 26.375 6.390625 33.015625 6.390625 
Q 39.65625 6.390625 43.53125 10.953125 
Q 47.40625 15.53125 47.40625 23.390625 
Q 47.40625 31.296875 43.53125 35.828125 
Q 39.65625 40.375 33.015625 40.375 
z
M 52.59375 71.296875 
L 52.59375 62.3125 
Q 48.875 64.0625 45.09375 64.984375 
Q 41.3125 65.921875 37.59375 65.921875 
Q 27.828125 65.921875 22.671875 59.328125 
Q 17.53125 52.734375 16.796875 39.40625 
Q 19.671875 43.65625 24.015625 45.921875 
Q 28.375 48.1875 33.59375 48.1875 
Q 44.578125 48.1875 50.953125 41.515625 
Q 57.328125 34.859375 57.328125 23.390625 
Q 57.328125 12.15625 50.6875 5.359375 
Q 44.046875 -1.421875 33.015625 -1.421875 
Q 20.359375 -1.421875 13.671875 8.265625 
Q 6.984375 17.96875 6.984375 36.375 
Q 6.984375 53.65625 15.1875 63.9375 
Q 23.390625 74.21875 37.203125 74.21875 
Q 40.921875 74.21875 44.703125 73.484375 
Q 48.484375 72.75 52.59375 71.296875 
z
" id="DejaVuSans-54"/>
       </defs>
       <use xlink:href="#DejaVuSans-51"/>
       <use x="63.623047" xlink:href="#DejaVuSans-54"/>
       <use x="127.246094" xlink:href="#DejaVuSans-48"/>
       <use x="190.869141" xlink:href="#DejaVuSans-48"/>
      </g>
     </g>
    </g>
    <g id="ytick_4">
     <g id="line2d_13">
      <g>
       <use style="stroke:#000000;stroke-width:0.8;" x="53.328125" xlink:href="#mae7f3c117b" y="84.196253"/>
      </g>
     </g>
     <g id="text_14">
      <!-- 3800 -->
      <g transform="translate(20.878125 87.995471)scale(0.1 -0.1)">
       <defs>
        <path d="M 31.78125 34.625 
Q 24.75 34.625 20.71875 30.859375 
Q 16.703125 27.09375 16.703125 20.515625 
Q 16.703125 13.921875 20.71875 10.15625 
Q 24.75 6.390625 31.78125 6.390625 
Q 38.8125 6.390625 42.859375 10.171875 
Q 46.921875 13.96875 46.921875 20.515625 
Q 46.921875 27.09375 42.890625 30.859375 
Q 38.875 34.625 31.78125 34.625 
z
M 21.921875 38.8125 
Q 15.578125 40.375 12.03125 44.71875 
Q 8.5 49.078125 8.5 55.328125 
Q 8.5 64.0625 14.71875 69.140625 
Q 20.953125 74.21875 31.78125 74.21875 
Q 42.671875 74.21875 48.875 69.140625 
Q 55.078125 64.0625 55.078125 55.328125 
Q 55.078125 49.078125 51.53125 44.71875 
Q 48 40.375 41.703125 38.8125 
Q 48.828125 37.15625 52.796875 32.3125 
Q 56.78125 27.484375 56.78125 20.515625 
Q 56.78125 9.90625 50.3125 4.234375 
Q 43.84375 -1.421875 31.78125 -1.421875 
Q 19.734375 -1.421875 13.25 4.234375 
Q 6.78125 9.90625 6.78125 20.515625 
Q 6.78125 27.484375 10.78125 32.3125 
Q 14.796875 37.15625 21.921875 38.8125 
z
M 18.3125 54.390625 
Q 18.3125 48.734375 21.84375 45.5625 
Q 25.390625 42.390625 31.78125 42.390625 
Q 38.140625 42.390625 41.71875 45.5625 
Q 45.3125 48.734375 45.3125 54.390625 
Q 45.3125 60.0625 41.71875 63.234375 
Q 38.140625 66.40625 31.78125 66.40625 
Q 25.390625 66.40625 21.84375 63.234375 
Q 18.3125 60.0625 18.3125 54.390625 
z
" id="DejaVuSans-56"/>
       </defs>
       <use xlink:href="#DejaVuSans-51"/>
       <use x="63.623047" xlink:href="#DejaVuSans-56"/>
       <use x="127.246094" xlink:href="#DejaVuSans-48"/>
       <use x="190.869141" xlink:href="#DejaVuSans-48"/>
      </g>
     </g>
    </g>
    <g id="ytick_5">
     <g id="line2d_14">
      <g>
       <use style="stroke:#000000;stroke-width:0.8;" x="53.328125" xlink:href="#mae7f3c117b" y="29.44358"/>
      </g>
     </g>
     <g id="text_15">
      <!-- 4000 -->
      <g transform="translate(20.878125 33.242798)scale(0.1 -0.1)">
       <use xlink:href="#DejaVuSans-52"/>
       <use x="63.623047" xlink:href="#DejaVuSans-48"/>
       <use x="127.246094" xlink:href="#DejaVuSans-48"/>
       <use x="190.869141" xlink:href="#DejaVuSans-48"/>
      </g>
     </g>
    </g>
    <g id="text_16">
     <!-- Reached region coverage -->
     <g transform="translate(14.798438 219.136625)rotate(-90)scale(0.1 -0.1)">
      <defs>
       <path d="M 44.390625 34.1875 
Q 47.5625 33.109375 50.5625 29.59375 
Q 53.5625 26.078125 56.59375 19.921875 
L 66.609375 0 
L 56 0 
L 46.6875 18.703125 
Q 43.0625 26.03125 39.671875 28.421875 
Q 36.28125 30.8125 30.421875 30.8125 
L 19.671875 30.8125 
L 19.671875 0 
L 9.8125 0 
L 9.8125 72.90625 
L 32.078125 72.90625 
Q 44.578125 72.90625 50.734375 67.671875 
Q 56.890625 62.453125 56.890625 51.90625 
Q 56.890625 45.015625 53.6875 40.46875 
Q 50.484375 35.9375 44.390625 34.1875 
z
M 19.671875 64.796875 
L 19.671875 38.921875 
L 32.078125 38.921875 
Q 39.203125 38.921875 42.84375 42.21875 
Q 46.484375 45.515625 46.484375 51.90625 
Q 46.484375 58.296875 42.84375 61.546875 
Q 39.203125 64.796875 32.078125 64.796875 
z
" id="DejaVuSans-82"/>
      </defs>
      <use xlink:href="#DejaVuSans-82"/>
      <use x="64.982422" xlink:href="#DejaVuSans-101"/>
      <use x="126.505859" xlink:href="#DejaVuSans-97"/>
      <use x="187.785156" xlink:href="#DejaVuSans-99"/>
      <use x="242.765625" xlink:href="#DejaVuSans-104"/>
      <use x="306.144531" xlink:href="#DejaVuSans-101"/>
      <use x="367.667969" xlink:href="#DejaVuSans-100"/>
      <use x="431.144531" xlink:href="#DejaVuSans-32"/>
      <use x="462.931641" xlink:href="#DejaVuSans-114"/>
      <use x="501.794922" xlink:href="#DejaVuSans-101"/>
      <use x="563.318359" xlink:href="#DejaVuSans-103"/>
      <use x="626.794922" xlink:href="#DejaVuSans-105"/>
      <use x="654.578125" xlink:href="#DejaVuSans-111"/>
      <use x="715.759766" xlink:href="#DejaVuSans-110"/>
      <use x="779.138672" xlink:href="#DejaVuSans-32"/>
      <use x="810.925781" xlink:href="#DejaVuSans-99"/>
      <use x="865.90625" xlink:href="#DejaVuSans-111"/>
      <use x="927.087891" xlink:href="#DejaVuSans-118"/>
      <use x="986.267578" xlink:href="#DejaVuSans-101"/>
      <use x="1047.791016" xlink:href="#DejaVuSans-114"/>
      <use x="1088.904297" xlink:href="#DejaVuSans-97"/>
      <use x="1150.183594" xlink:href="#DejaVuSans-103"/>
      <use x="1213.660156" xlink:href="#DejaVuSans-101"/>
     </g>
    </g>
   </g>
   <g id="line2d_15">
    <path clip-path="url(#p89dc0225c4)" d="M 73.168125 86.933886 
L 73.168125 76.257115 
" style="fill:none;stroke:#3d3d3d;stroke-linecap:square;stroke-width:1.5;"/>
   </g>
   <g id="line2d_16">
    <path clip-path="url(#p89dc0225c4)" d="M 73.168125 85.701951 
L 73.168125 81.800823 
" style="fill:none;stroke:#3d3d3d;stroke-linecap:square;stroke-width:4.5;"/>
   </g>
   <g id="line2d_17">
    <path clip-path="url(#p89dc0225c4)" d="M 112.848125 92.13539 
L 112.848125 78.447222 
" style="fill:none;stroke:#3d3d3d;stroke-linecap:square;stroke-width:1.5;"/>
   </g>
   <g id="line2d_18">
    <path clip-path="url(#p89dc0225c4)" d="M 112.848125 89.123993 
L 112.848125 82.827436 
" style="fill:none;stroke:#3d3d3d;stroke-linecap:square;stroke-width:4.5;"/>
   </g>
   <g id="line2d_19">
    <path clip-path="url(#p89dc0225c4)" d="M 152.528125 95.146787 
L 152.528125 84.743779 
" style="fill:none;stroke:#3d3d3d;stroke-linecap:square;stroke-width:1.5;"/>
   </g>
   <g id="line2d_20">
    <path clip-path="url(#p89dc0225c4)" d="M 152.528125 94.873024 
L 152.528125 89.329316 
" style="fill:none;stroke:#3d3d3d;stroke-linecap:square;stroke-width:4.5;"/>
   </g>
   <g id="line2d_21">
    <path clip-path="url(#p89dc0225c4)" d="M 192.208125 207.389767 
L 192.208125 85.291306 
" style="fill:none;stroke:#3d3d3d;stroke-linecap:square;stroke-width:1.5;"/>
   </g>
   <g id="line2d_22">
    <path clip-path="url(#p89dc0225c4)" d="M 192.208125 180.424075 
L 192.208125 90.150606 
" style="fill:none;stroke:#3d3d3d;stroke-linecap:square;stroke-width:4.5;"/>
   </g>
   <g id="line2d_23">
    <path clip-path="url(#p89dc0225c4)" d="M 231.888125 97.610657 
L 231.888125 82.279909 
" style="fill:none;stroke:#3d3d3d;stroke-linecap:square;stroke-width:1.5;"/>
   </g>
   <g id="line2d_24">
    <path clip-path="url(#p89dc0225c4)" d="M 231.888125 97.200012 
L 231.888125 90.013724 
" style="fill:none;stroke:#3d3d3d;stroke-linecap:square;stroke-width:4.5;"/>
   </g>
   <g id="line2d_25">
    <path clip-path="url(#p89dc0225c4)" d="M 271.568125 97.336894 
L 271.568125 95.42055 
" style="fill:none;stroke:#3d3d3d;stroke-linecap:square;stroke-width:1.5;"/>
   </g>
   <g id="line2d_26">
    <path clip-path="url(#p89dc0225c4)" d="M 271.568125 96.789367 
L 271.568125 96.104959 
" style="fill:none;stroke:#3d3d3d;stroke-linecap:square;stroke-width:4.5;"/>
   </g>
   <g id="line2d_27">
    <path clip-path="url(#p89dc0225c4)" d="M 311.248125 101.169581 
L 311.248125 91.3141 
" style="fill:none;stroke:#3d3d3d;stroke-linecap:square;stroke-width:1.5;"/>
   </g>
   <g id="line2d_28">
    <path clip-path="url(#p89dc0225c4)" d="M 311.248125 98.226625 
L 311.248125 94.59926 
" style="fill:none;stroke:#3d3d3d;stroke-linecap:square;stroke-width:4.5;"/>
   </g>
   <g id="line2d_29">
    <path clip-path="url(#p89dc0225c4)" d="M 350.928125 213.138797 
L 350.928125 183.846117 
" style="fill:none;stroke:#3d3d3d;stroke-linecap:square;stroke-width:1.5;"/>
   </g>
   <g id="line2d_30">
    <path clip-path="url(#p89dc0225c4)" d="M 350.928125 191.306169 
L 350.928125 170.021067 
" style="fill:none;stroke:#3d3d3d;stroke-linecap:square;stroke-width:4.5;"/>
   </g>
   <g id="line2d_31">
    <path clip-path="url(#p89dc0225c4)" d="M 390.608125 227.100729 
L 390.608125 210.94869 
" style="fill:none;stroke:#3d3d3d;stroke-linecap:square;stroke-width:1.5;"/>
   </g>
   <g id="line2d_32">
    <path clip-path="url(#p89dc0225c4)" d="M 390.608125 213.754765 
L 390.608125 190.621761 
" style="fill:none;stroke:#3d3d3d;stroke-linecap:square;stroke-width:4.5;"/>
   </g>
   <g id="patch_3">
    <path d="M 53.328125 248.454271 
L 53.328125 29.44358 
" style="fill:none;stroke:#000000;stroke-linecap:square;stroke-linejoin:miter;stroke-width:0.8;"/>
   </g>
   <g id="patch_4">
    <path d="M 73.168125 288.430125 
L 390.608125 288.430125 
" style="fill:none;stroke:#000000;stroke-linecap:square;stroke-linejoin:miter;stroke-width:0.8;"/>
   </g>
   <g id="PathCollection_1">
    <defs>
     <path d="M 0 1.5 
C 0.397805 1.5 0.77937 1.341951 1.06066 1.06066 
C 1.341951 0.77937 1.5 0.397805 1.5 0 
C 1.5 -0.397805 1.341951 -0.77937 1.06066 -1.06066 
C 0.77937 -1.341951 0.397805 -1.5 0 -1.5 
C -0.397805 -1.5 -0.77937 -1.341951 -1.06066 -1.06066 
C -1.341951 -0.77937 -1.5 -0.397805 -1.5 0 
C -1.5 0.397805 -1.341951 0.77937 -1.06066 1.06066 
C -0.77937 1.341951 -0.397805 1.5 0 1.5 
z
" id="m09dbe6863b" style="stroke:#3d3d3d;"/>
    </defs>
    <g clip-path="url(#p89dc0225c4)">
     <use style="fill:#ffffff;stroke:#3d3d3d;" x="73.168125" xlink:href="#m09dbe6863b" y="83.238081"/>
    </g>
   </g>
   <g id="PathCollection_2">
    <g clip-path="url(#p89dc0225c4)">
     <use style="fill:#ffffff;stroke:#3d3d3d;" x="112.848125" xlink:href="#m09dbe6863b" y="83.785607"/>
    </g>
   </g>
   <g id="PathCollection_3">
    <g clip-path="url(#p89dc0225c4)">
     <use style="fill:#ffffff;stroke:#3d3d3d;" x="152.528125" xlink:href="#m09dbe6863b" y="90.903455"/>
    </g>
   </g>
   <g id="PathCollection_4">
    <g clip-path="url(#p89dc0225c4)">
     <use style="fill:#ffffff;stroke:#3d3d3d;" x="192.208125" xlink:href="#m09dbe6863b" y="95.283669"/>
    </g>
   </g>
   <g id="PathCollection_5">
    <g clip-path="url(#p89dc0225c4)">
     <use style="fill:#ffffff;stroke:#3d3d3d;" x="231.888125" xlink:href="#m09dbe6863b" y="95.831196"/>
    </g>
   </g>
   <g id="PathCollection_6">
    <g clip-path="url(#p89dc0225c4)">
     <use style="fill:#ffffff;stroke:#3d3d3d;" x="271.568125" xlink:href="#m09dbe6863b" y="96.241841"/>
    </g>
   </g>
   <g id="PathCollection_7">
    <g clip-path="url(#p89dc0225c4)">
     <use style="fill:#ffffff;stroke:#3d3d3d;" x="311.248125" xlink:href="#m09dbe6863b" y="96.926249"/>
    </g>
   </g>
   <g id="PathCollection_8">
    <g clip-path="url(#p89dc0225c4)">
     <use style="fill:#ffffff;stroke:#3d3d3d;" x="350.928125" xlink:href="#m09dbe6863b" y="188.226331"/>
    </g>
   </g>
   <g id="PathCollection_9">
    <g clip-path="url(#p89dc0225c4)">
     <use style="fill:#ffffff;stroke:#3d3d3d;" x="390.608125" xlink:href="#m09dbe6863b" y="213.001916"/>
    </g>
   </g>
   <g id="text_17">
    <!-- libjpeg-turbo-07-2017 (23h, 20 trials/fuzzer) -->
    <g transform="translate(99.425938 16.318125)scale(0.12 -0.12)">
     <defs>
      <path d="M 9.421875 54.6875 
L 18.40625 54.6875 
L 18.40625 -0.984375 
Q 18.40625 -11.421875 14.421875 -16.109375 
Q 10.453125 -20.796875 1.609375 -20.796875 
L -1.8125 -20.796875 
L -1.8125 -13.1875 
L 0.59375 -13.1875 
Q 5.71875 -13.1875 7.5625 -10.8125 
Q 9.421875 -8.453125 9.421875 -0.984375 
z
M 9.421875 75.984375 
L 18.40625 75.984375 
L 18.40625 64.59375 
L 9.421875 64.59375 
z
" id="DejaVuSans-106"/>
      <path d="M 4.890625 31.390625 
L 31.203125 31.390625 
L 31.203125 23.390625 
L 4.890625 23.390625 
z
" id="DejaVuSans-45"/>
      <path d="M 8.203125 72.90625 
L 55.078125 72.90625 
L 55.078125 68.703125 
L 28.609375 0 
L 18.3125 0 
L 43.21875 64.59375 
L 8.203125 64.59375 
z
" id="DejaVuSans-55"/>
      <path d="M 12.40625 8.296875 
L 28.515625 8.296875 
L 28.515625 63.921875 
L 10.984375 60.40625 
L 10.984375 69.390625 
L 28.421875 72.90625 
L 38.28125 72.90625 
L 38.28125 8.296875 
L 54.390625 8.296875 
L 54.390625 0 
L 12.40625 0 
z
" id="DejaVuSans-49"/>
      <path d="M 11.71875 12.40625 
L 22.015625 12.40625 
L 22.015625 4 
L 14.015625 -11.625 
L 7.71875 -11.625 
L 11.71875 4 
z
" id="DejaVuSans-44"/>
      <path d="M 25.390625 72.90625 
L 33.6875 72.90625 
L 8.296875 -9.28125 
L 0 -9.28125 
z
" id="DejaVuSans-47"/>
     </defs>
     <use xlink:href="#DejaVuSans-108"/>
     <use x="27.783203" xlink:href="#DejaVuSans-105"/>
     <use x="55.566406" xlink:href="#DejaVuSans-98"/>
     <use x="119.042969" xlink:href="#DejaVuSans-106"/>
     <use x="146.826172" xlink:href="#DejaVuSans-112"/>
     <use x="210.302734" xlink:href="#DejaVuSans-101"/>
     <use x="271.826172" xlink:href="#DejaVuSans-103"/>
     <use x="335.302734" xlink:href="#DejaVuSans-45"/>
     <use x="371.386719" xlink:href="#DejaVuSans-116"/>
     <use x="410.595703" xlink:href="#DejaVuSans-117"/>
     <use x="473.974609" xlink:href="#DejaVuSans-114"/>
     <use x="515.087891" xlink:href="#DejaVuSans-98"/>
     <use x="578.564453" xlink:href="#DejaVuSans-111"/>
     <use x="641.621094" xlink:href="#DejaVuSans-45"/>
     <use x="677.705078" xlink:href="#DejaVuSans-48"/>
     <use x="741.328125" xlink:href="#DejaVuSans-55"/>
     <use x="804.951172" xlink:href="#DejaVuSans-45"/>
     <use x="841.035156" xlink:href="#DejaVuSans-50"/>
     <use x="904.658203" xlink:href="#DejaVuSans-48"/>
     <use x="968.28125" xlink:href="#DejaVuSans-49"/>
     <use x="1031.904297" xlink:href="#DejaVuSans-55"/>
     <use x="1095.527344" xlink:href="#DejaVuSans-32"/>
     <use x="1127.314453" xlink:href="#DejaVuSans-40"/>
     <use x="1166.328125" xlink:href="#DejaVuSans-50"/>
     <use x="1229.951172" xlink:href="#DejaVuSans-51"/>
     <use x="1293.574219" xlink:href="#DejaVuSans-104"/>
     <use x="1356.953125" xlink:href="#DejaVuSans-44"/>
     <use x="1388.740234" xlink:href="#DejaVuSans-32"/>
     <use x="1420.527344" xlink:href="#DejaVuSans-50"/>
     <use x="1484.150391" xlink:href="#DejaVuSans-48"/>
     <use x="1547.773438" xlink:href="#DejaVuSans-32"/>
     <use x="1579.560547" xlink:href="#DejaVuSans-116"/>
     <use x="1618.769531" xlink:href="#DejaVuSans-114"/>
     <use x="1659.882812" xlink:href="#DejaVuSans-105"/>
     <use x="1687.666016" xlink:href="#DejaVuSans-97"/>
     <use x="1748.945312" xlink:href="#DejaVuSans-108"/>
     <use x="1776.728516" xlink:href="#DejaVuSans-115"/>
     <use x="1828.828125" xlink:href="#DejaVuSans-47"/>
     <use x="1862.519531" xlink:href="#DejaVuSans-102"/>
     <use x="1897.724609" xlink:href="#DejaVuSans-117"/>
     <use x="1961.103516" xlink:href="#DejaVuSans-122"/>
     <use x="2013.59375" xlink:href="#DejaVuSans-122"/>
     <use x="2066.083984" xlink:href="#DejaVuSans-101"/>
     <use x="2127.607422" xlink:href="#DejaVuSans-114"/>
     <use x="2168.720703" xlink:href="#DejaVuSans-41"/>
    </g>
   </g>
  </g>
 </g>
 <defs>
  <clipPath id="p89dc0225c4">
   <rect height="266.112" width="357.12" x="53.328125" y="22.318125"/>
  </clipPath>
 </defs>
</svg>
