<?xml version="1.0" encoding="utf-8" standalone="no"?>
<!DOCTYPE svg PUBLIC "-//W3C//DTD SVG 1.1//EN"
  "http://www.w3.org/Graphics/SVG/1.1/DTD/svg11.dtd">
<!-- Created with matplotlib (https://matplotlib.org/) -->
<svg height="325.986375pt" version="1.1" viewBox="0 0 898.12125 325.986375" width="898.12125pt" xmlns="http://www.w3.org/2000/svg" xmlns:xlink="http://www.w3.org/1999/xlink">
 <metadata>
  <rdf:RDF xmlns:cc="http://creativecommons.org/ns#" xmlns:dc="http://purl.org/dc/elements/1.1/" xmlns:rdf="http://www.w3.org/1999/02/22-rdf-syntax-ns#">
   <cc:Work>
    <dc:type rdf:resource="http://purl.org/dc/dcmitype/StillImage"/>
    <dc:date>2020-12-06T10:28:57.286645</dc:date>
    <dc:format>image/svg+xml</dc:format>
    <dc:creator>
     <cc:Agent>
      <dc:title>Matplotlib v3.3.3, https://matplotlib.org/</dc:title>
     </cc:Agent>
    </dc:creator>
   </cc:Work>
  </rdf:RDF>
 </metadata>
 <defs>
  <style type="text/css">*{stroke-linecap:butt;stroke-linejoin:round;}</style>
 </defs>
 <g id="figure_1">
  <g id="patch_1">
   <path d="M 0 325.986375 
L 898.12125 325.986375 
L 898.12125 0 
L 0 0 
z
" style="fill:#ffffff;"/>
  </g>
  <g id="axes_1">
   <g id="patch_2">
    <path d="M 53.328125 288.430125 
L 767.568125 288.430125 
L 767.568125 22.318125 
L 53.328125 22.318125 
z
" style="fill:#ffffff;"/>
   </g>
   <g id="matplotlib.axis_1">
    <g id="xtick_1">
     <g id="line2d_1">
      <defs>
       <path d="M 0 0 
L 0 3.5 
" id="mfb5dd13ff2" style="stroke:#000000;stroke-width:0.8;"/>
      </defs>
      <g>
       <use style="stroke:#000000;stroke-width:0.8;" x="85.79358" xlink:href="#mfb5dd13ff2" y="288.430125"/>
      </g>
     </g>
     <g id="text_1">
      <!-- 15m -->
      <g transform="translate(74.560767 303.028562)scale(0.1 -0.1)">
       <defs>
        <path d="M 12.40625 8.296875 
L 28.515625 8.296875 
L 28.515625 63.921875 
L 10.984375 60.40625 
L 10.984375 69.390625 
L 28.421875 72.90625 
L 38.28125 72.90625 
L 38.28125 8.296875 
L 54.390625 8.296875 
L 54.390625 0 
L 12.40625 0 
z
" id="DejaVuSans-49"/>
        <path d="M 10.796875 72.90625 
L 49.515625 72.90625 
L 49.515625 64.59375 
L 19.828125 64.59375 
L 19.828125 46.734375 
Q 21.96875 47.46875 24.109375 47.828125 
Q 26.265625 48.1875 28.421875 48.1875 
Q 40.625 48.1875 47.75 41.5 
Q 54.890625 34.8125 54.890625 23.390625 
Q 54.890625 11.625 47.5625 5.09375 
Q 40.234375 -1.421875 26.90625 -1.421875 
Q 22.3125 -1.421875 17.546875 -0.640625 
Q 12.796875 0.140625 7.71875 1.703125 
L 7.71875 11.625 
Q 12.109375 9.234375 16.796875 8.0625 
Q 21.484375 6.890625 26.703125 6.890625 
Q 35.15625 6.890625 40.078125 11.328125 
Q 45.015625 15.765625 45.015625 23.390625 
Q 45.015625 31 40.078125 35.4375 
Q 35.15625 39.890625 26.703125 39.890625 
Q 22.75 39.890625 18.8125 39.015625 
Q 14.890625 38.140625 10.796875 36.28125 
z
" id="DejaVuSans-53"/>
        <path d="M 52 44.1875 
Q 55.375 50.25 60.0625 53.125 
Q 64.75 56 71.09375 56 
Q 79.640625 56 84.28125 50.015625 
Q 88.921875 44.046875 88.921875 33.015625 
L 88.921875 0 
L 79.890625 0 
L 79.890625 32.71875 
Q 79.890625 40.578125 77.09375 44.375 
Q 74.3125 48.1875 68.609375 48.1875 
Q 61.625 48.1875 57.5625 43.546875 
Q 53.515625 38.921875 53.515625 30.90625 
L 53.515625 0 
L 44.484375 0 
L 44.484375 32.71875 
Q 44.484375 40.625 41.703125 44.40625 
Q 38.921875 48.1875 33.109375 48.1875 
Q 26.21875 48.1875 22.15625 43.53125 
Q 18.109375 38.875 18.109375 30.90625 
L 18.109375 0 
L 9.078125 0 
L 9.078125 54.6875 
L 18.109375 54.6875 
L 18.109375 46.1875 
Q 21.1875 51.21875 25.484375 53.609375 
Q 29.78125 56 35.6875 56 
Q 41.65625 56 45.828125 52.96875 
Q 50 49.953125 52 44.1875 
z
" id="DejaVuSans-109"/>
       </defs>
       <use xlink:href="#DejaVuSans-49"/>
       <use x="63.623047" xlink:href="#DejaVuSans-53"/>
       <use x="127.246094" xlink:href="#DejaVuSans-109"/>
      </g>
     </g>
    </g>
    <g id="xtick_2">
     <g id="line2d_2">
      <g>
       <use style="stroke:#000000;stroke-width:0.8;" x="140.497276" xlink:href="#mfb5dd13ff2" y="288.430125"/>
      </g>
     </g>
     <g id="text_2">
      <!-- 2h:10m -->
      <g transform="translate(121.230088 303.028562)scale(0.1 -0.1)">
       <defs>
        <path d="M 19.1875 8.296875 
L 53.609375 8.296875 
L 53.609375 0 
L 7.328125 0 
L 7.328125 8.296875 
Q 12.9375 14.109375 22.625 23.890625 
Q 32.328125 33.6875 34.8125 36.53125 
Q 39.546875 41.84375 41.421875 45.53125 
Q 43.3125 49.21875 43.3125 52.78125 
Q 43.3125 58.59375 39.234375 62.25 
Q 35.15625 65.921875 28.609375 65.921875 
Q 23.96875 65.921875 18.8125 64.3125 
Q 13.671875 62.703125 7.8125 59.421875 
L 7.8125 69.390625 
Q 13.765625 71.78125 18.9375 73 
Q 24.125 74.21875 28.421875 74.21875 
Q 39.75 74.21875 46.484375 68.546875 
Q 53.21875 62.890625 53.21875 53.421875 
Q 53.21875 48.921875 51.53125 44.890625 
Q 49.859375 40.875 45.40625 35.40625 
Q 44.1875 33.984375 37.640625 27.21875 
Q 31.109375 20.453125 19.1875 8.296875 
z
" id="DejaVuSans-50"/>
        <path d="M 54.890625 33.015625 
L 54.890625 0 
L 45.90625 0 
L 45.90625 32.71875 
Q 45.90625 40.484375 42.875 44.328125 
Q 39.84375 48.1875 33.796875 48.1875 
Q 26.515625 48.1875 22.3125 43.546875 
Q 18.109375 38.921875 18.109375 30.90625 
L 18.109375 0 
L 9.078125 0 
L 9.078125 75.984375 
L 18.109375 75.984375 
L 18.109375 46.1875 
Q 21.34375 51.125 25.703125 53.5625 
Q 30.078125 56 35.796875 56 
Q 45.21875 56 50.046875 50.171875 
Q 54.890625 44.34375 54.890625 33.015625 
z
" id="DejaVuSans-104"/>
        <path d="M 11.71875 12.40625 
L 22.015625 12.40625 
L 22.015625 0 
L 11.71875 0 
z
M 11.71875 51.703125 
L 22.015625 51.703125 
L 22.015625 39.3125 
L 11.71875 39.3125 
z
" id="DejaVuSans-58"/>
        <path d="M 31.78125 66.40625 
Q 24.171875 66.40625 20.328125 58.90625 
Q 16.5 51.421875 16.5 36.375 
Q 16.5 21.390625 20.328125 13.890625 
Q 24.171875 6.390625 31.78125 6.390625 
Q 39.453125 6.390625 43.28125 13.890625 
Q 47.125 21.390625 47.125 36.375 
Q 47.125 51.421875 43.28125 58.90625 
Q 39.453125 66.40625 31.78125 66.40625 
z
M 31.78125 74.21875 
Q 44.046875 74.21875 50.515625 64.515625 
Q 56.984375 54.828125 56.984375 36.375 
Q 56.984375 17.96875 50.515625 8.265625 
Q 44.046875 -1.421875 31.78125 -1.421875 
Q 19.53125 -1.421875 13.0625 8.265625 
Q 6.59375 17.96875 6.59375 36.375 
Q 6.59375 54.828125 13.0625 64.515625 
Q 19.53125 74.21875 31.78125 74.21875 
z
" id="DejaVuSans-48"/>
       </defs>
       <use xlink:href="#DejaVuSans-50"/>
       <use x="63.623047" xlink:href="#DejaVuSans-104"/>
       <use x="127.001953" xlink:href="#DejaVuSans-58"/>
       <use x="160.693359" xlink:href="#DejaVuSans-49"/>
       <use x="224.316406" xlink:href="#DejaVuSans-48"/>
       <use x="287.939453" xlink:href="#DejaVuSans-109"/>
      </g>
     </g>
    </g>
    <g id="xtick_3">
     <g id="line2d_3">
      <g>
       <use style="stroke:#000000;stroke-width:0.8;" x="195.200972" xlink:href="#mfb5dd13ff2" y="288.430125"/>
      </g>
     </g>
     <g id="text_3">
      <!-- 4h:5m -->
      <g transform="translate(179.115035 303.028562)scale(0.1 -0.1)">
       <defs>
        <path d="M 37.796875 64.3125 
L 12.890625 25.390625 
L 37.796875 25.390625 
z
M 35.203125 72.90625 
L 47.609375 72.90625 
L 47.609375 25.390625 
L 58.015625 25.390625 
L 58.015625 17.1875 
L 47.609375 17.1875 
L 47.609375 0 
L 37.796875 0 
L 37.796875 17.1875 
L 4.890625 17.1875 
L 4.890625 26.703125 
z
" id="DejaVuSans-52"/>
       </defs>
       <use xlink:href="#DejaVuSans-52"/>
       <use x="63.623047" xlink:href="#DejaVuSans-104"/>
       <use x="127.001953" xlink:href="#DejaVuSans-58"/>
       <use x="160.693359" xlink:href="#DejaVuSans-53"/>
       <use x="224.316406" xlink:href="#DejaVuSans-109"/>
      </g>
     </g>
    </g>
    <g id="xtick_4">
     <g id="line2d_4">
      <g>
       <use style="stroke:#000000;stroke-width:0.8;" x="249.904668" xlink:href="#mfb5dd13ff2" y="288.430125"/>
      </g>
     </g>
     <g id="text_4">
      <!-- 6h -->
      <g transform="translate(243.554668 303.028562)scale(0.1 -0.1)">
       <defs>
        <path d="M 33.015625 40.375 
Q 26.375 40.375 22.484375 35.828125 
Q 18.609375 31.296875 18.609375 23.390625 
Q 18.609375 15.53125 22.484375 10.953125 
Q 26.375 6.390625 33.015625 6.390625 
Q 39.65625 6.390625 43.53125 10.953125 
Q 47.40625 15.53125 47.40625 23.390625 
Q 47.40625 31.296875 43.53125 35.828125 
Q 39.65625 40.375 33.015625 40.375 
z
M 52.59375 71.296875 
L 52.59375 62.3125 
Q 48.875 64.0625 45.09375 64.984375 
Q 41.3125 65.921875 37.59375 65.921875 
Q 27.828125 65.921875 22.671875 59.328125 
Q 17.53125 52.734375 16.796875 39.40625 
Q 19.671875 43.65625 24.015625 45.921875 
Q 28.375 48.1875 33.59375 48.1875 
Q 44.578125 48.1875 50.953125 41.515625 
Q 57.328125 34.859375 57.328125 23.390625 
Q 57.328125 12.15625 50.6875 5.359375 
Q 44.046875 -1.421875 33.015625 -1.421875 
Q 20.359375 -1.421875 13.671875 8.265625 
Q 6.984375 17.96875 6.984375 36.375 
Q 6.984375 53.65625 15.1875 63.9375 
Q 23.390625 74.21875 37.203125 74.21875 
Q 40.921875 74.21875 44.703125 73.484375 
Q 48.484375 72.75 52.59375 71.296875 
z
" id="DejaVuSans-54"/>
       </defs>
       <use xlink:href="#DejaVuSans-54"/>
       <use x="63.623047" xlink:href="#DejaVuSans-104"/>
      </g>
     </g>
    </g>
    <g id="xtick_5">
     <g id="line2d_5">
      <g>
       <use style="stroke:#000000;stroke-width:0.8;" x="304.608365" xlink:href="#mfb5dd13ff2" y="288.430125"/>
      </g>
     </g>
     <g id="text_5">
      <!-- 7h:55m -->
      <g transform="translate(285.341177 303.028562)scale(0.1 -0.1)">
       <defs>
        <path d="M 8.203125 72.90625 
L 55.078125 72.90625 
L 55.078125 68.703125 
L 28.609375 0 
L 18.3125 0 
L 43.21875 64.59375 
L 8.203125 64.59375 
z
" id="DejaVuSans-55"/>
       </defs>
       <use xlink:href="#DejaVuSans-55"/>
       <use x="63.623047" xlink:href="#DejaVuSans-104"/>
       <use x="127.001953" xlink:href="#DejaVuSans-58"/>
       <use x="160.693359" xlink:href="#DejaVuSans-53"/>
       <use x="224.316406" xlink:href="#DejaVuSans-53"/>
       <use x="287.939453" xlink:href="#DejaVuSans-109"/>
      </g>
     </g>
    </g>
    <g id="xtick_6">
     <g id="line2d_6">
      <g>
       <use style="stroke:#000000;stroke-width:0.8;" x="359.312061" xlink:href="#mfb5dd13ff2" y="288.430125"/>
      </g>
     </g>
     <g id="text_6">
      <!-- 9h:50m -->
      <g transform="translate(340.044874 303.028562)scale(0.1 -0.1)">
       <defs>
        <path d="M 10.984375 1.515625 
L 10.984375 10.5 
Q 14.703125 8.734375 18.5 7.8125 
Q 22.3125 6.890625 25.984375 6.890625 
Q 35.75 6.890625 40.890625 13.453125 
Q 46.046875 20.015625 46.78125 33.40625 
Q 43.953125 29.203125 39.59375 26.953125 
Q 35.25 24.703125 29.984375 24.703125 
Q 19.046875 24.703125 12.671875 31.3125 
Q 6.296875 37.9375 6.296875 49.421875 
Q 6.296875 60.640625 12.9375 67.421875 
Q 19.578125 74.21875 30.609375 74.21875 
Q 43.265625 74.21875 49.921875 64.515625 
Q 56.59375 54.828125 56.59375 36.375 
Q 56.59375 19.140625 48.40625 8.859375 
Q 40.234375 -1.421875 26.421875 -1.421875 
Q 22.703125 -1.421875 18.890625 -0.6875 
Q 15.09375 0.046875 10.984375 1.515625 
z
M 30.609375 32.421875 
Q 37.25 32.421875 41.125 36.953125 
Q 45.015625 41.5 45.015625 49.421875 
Q 45.015625 57.28125 41.125 61.84375 
Q 37.25 66.40625 30.609375 66.40625 
Q 23.96875 66.40625 20.09375 61.84375 
Q 16.21875 57.28125 16.21875 49.421875 
Q 16.21875 41.5 20.09375 36.953125 
Q 23.96875 32.421875 30.609375 32.421875 
z
" id="DejaVuSans-57"/>
       </defs>
       <use xlink:href="#DejaVuSans-57"/>
       <use x="63.623047" xlink:href="#DejaVuSans-104"/>
       <use x="127.001953" xlink:href="#DejaVuSans-58"/>
       <use x="160.693359" xlink:href="#DejaVuSans-53"/>
       <use x="224.316406" xlink:href="#DejaVuSans-48"/>
       <use x="287.939453" xlink:href="#DejaVuSans-109"/>
      </g>
     </g>
    </g>
    <g id="xtick_7">
     <g id="line2d_7">
      <g>
       <use style="stroke:#000000;stroke-width:0.8;" x="414.015757" xlink:href="#mfb5dd13ff2" y="288.430125"/>
      </g>
     </g>
     <g id="text_7">
      <!-- 11h:45m -->
      <g transform="translate(391.56732 303.028562)scale(0.1 -0.1)">
       <use xlink:href="#DejaVuSans-49"/>
       <use x="63.623047" xlink:href="#DejaVuSans-49"/>
       <use x="127.246094" xlink:href="#DejaVuSans-104"/>
       <use x="190.625" xlink:href="#DejaVuSans-58"/>
       <use x="224.316406" xlink:href="#DejaVuSans-52"/>
       <use x="287.939453" xlink:href="#DejaVuSans-53"/>
       <use x="351.5625" xlink:href="#DejaVuSans-109"/>
      </g>
     </g>
    </g>
    <g id="xtick_8">
     <g id="line2d_8">
      <g>
       <use style="stroke:#000000;stroke-width:0.8;" x="468.719454" xlink:href="#mfb5dd13ff2" y="288.430125"/>
      </g>
     </g>
     <g id="text_8">
      <!-- 13h:40m -->
      <g transform="translate(446.271016 303.028562)scale(0.1 -0.1)">
       <defs>
        <path d="M 40.578125 39.3125 
Q 47.65625 37.796875 51.625 33 
Q 55.609375 28.21875 55.609375 21.1875 
Q 55.609375 10.40625 48.1875 4.484375 
Q 40.765625 -1.421875 27.09375 -1.421875 
Q 22.515625 -1.421875 17.65625 -0.515625 
Q 12.796875 0.390625 7.625 2.203125 
L 7.625 11.71875 
Q 11.71875 9.328125 16.59375 8.109375 
Q 21.484375 6.890625 26.8125 6.890625 
Q 36.078125 6.890625 40.9375 10.546875 
Q 45.796875 14.203125 45.796875 21.1875 
Q 45.796875 27.640625 41.28125 31.265625 
Q 36.765625 34.90625 28.71875 34.90625 
L 20.21875 34.90625 
L 20.21875 43.015625 
L 29.109375 43.015625 
Q 36.375 43.015625 40.234375 45.921875 
Q 44.09375 48.828125 44.09375 54.296875 
Q 44.09375 59.90625 40.109375 62.90625 
Q 36.140625 65.921875 28.71875 65.921875 
Q 24.65625 65.921875 20.015625 65.03125 
Q 15.375 64.15625 9.8125 62.3125 
L 9.8125 71.09375 
Q 15.4375 72.65625 20.34375 73.4375 
Q 25.25 74.21875 29.59375 74.21875 
Q 40.828125 74.21875 47.359375 69.109375 
Q 53.90625 64.015625 53.90625 55.328125 
Q 53.90625 49.265625 50.4375 45.09375 
Q 46.96875 40.921875 40.578125 39.3125 
z
" id="DejaVuSans-51"/>
       </defs>
       <use xlink:href="#DejaVuSans-49"/>
       <use x="63.623047" xlink:href="#DejaVuSans-51"/>
       <use x="127.246094" xlink:href="#DejaVuSans-104"/>
       <use x="190.625" xlink:href="#DejaVuSans-58"/>
       <use x="224.316406" xlink:href="#DejaVuSans-52"/>
       <use x="287.939453" xlink:href="#DejaVuSans-48"/>
       <use x="351.5625" xlink:href="#DejaVuSans-109"/>
      </g>
     </g>
    </g>
    <g id="xtick_9">
     <g id="line2d_9">
      <g>
       <use style="stroke:#000000;stroke-width:0.8;" x="523.42315" xlink:href="#mfb5dd13ff2" y="288.430125"/>
      </g>
     </g>
     <g id="text_9">
      <!-- 15h:35m -->
      <g transform="translate(500.974712 303.028562)scale(0.1 -0.1)">
       <use xlink:href="#DejaVuSans-49"/>
       <use x="63.623047" xlink:href="#DejaVuSans-53"/>
       <use x="127.246094" xlink:href="#DejaVuSans-104"/>
       <use x="190.625" xlink:href="#DejaVuSans-58"/>
       <use x="224.316406" xlink:href="#DejaVuSans-51"/>
       <use x="287.939453" xlink:href="#DejaVuSans-53"/>
       <use x="351.5625" xlink:href="#DejaVuSans-109"/>
      </g>
     </g>
    </g>
    <g id="xtick_10">
     <g id="line2d_10">
      <g>
       <use style="stroke:#000000;stroke-width:0.8;" x="578.126846" xlink:href="#mfb5dd13ff2" y="288.430125"/>
      </g>
     </g>
     <g id="text_10">
      <!-- 17h:30m -->
      <g transform="translate(555.678409 303.028562)scale(0.1 -0.1)">
       <use xlink:href="#DejaVuSans-49"/>
       <use x="63.623047" xlink:href="#DejaVuSans-55"/>
       <use x="127.246094" xlink:href="#DejaVuSans-104"/>
       <use x="190.625" xlink:href="#DejaVuSans-58"/>
       <use x="224.316406" xlink:href="#DejaVuSans-51"/>
       <use x="287.939453" xlink:href="#DejaVuSans-48"/>
       <use x="351.5625" xlink:href="#DejaVuSans-109"/>
      </g>
     </g>
    </g>
    <g id="xtick_11">
     <g id="line2d_11">
      <g>
       <use style="stroke:#000000;stroke-width:0.8;" x="632.830543" xlink:href="#mfb5dd13ff2" y="288.430125"/>
      </g>
     </g>
     <g id="text_11">
      <!-- 19h:25m -->
      <g transform="translate(610.382105 303.028562)scale(0.1 -0.1)">
       <use xlink:href="#DejaVuSans-49"/>
       <use x="63.623047" xlink:href="#DejaVuSans-57"/>
       <use x="127.246094" xlink:href="#DejaVuSans-104"/>
       <use x="190.625" xlink:href="#DejaVuSans-58"/>
       <use x="224.316406" xlink:href="#DejaVuSans-50"/>
       <use x="287.939453" xlink:href="#DejaVuSans-53"/>
       <use x="351.5625" xlink:href="#DejaVuSans-109"/>
      </g>
     </g>
    </g>
    <g id="xtick_12">
     <g id="line2d_12">
      <g>
       <use style="stroke:#000000;stroke-width:0.8;" x="687.534239" xlink:href="#mfb5dd13ff2" y="288.430125"/>
      </g>
     </g>
     <g id="text_12">
      <!-- 21h:20m -->
      <g transform="translate(665.085801 303.028562)scale(0.1 -0.1)">
       <use xlink:href="#DejaVuSans-50"/>
       <use x="63.623047" xlink:href="#DejaVuSans-49"/>
       <use x="127.246094" xlink:href="#DejaVuSans-104"/>
       <use x="190.625" xlink:href="#DejaVuSans-58"/>
       <use x="224.316406" xlink:href="#DejaVuSans-50"/>
       <use x="287.939453" xlink:href="#DejaVuSans-48"/>
       <use x="351.5625" xlink:href="#DejaVuSans-109"/>
      </g>
     </g>
    </g>
    <g id="text_13">
     <!-- Time (hour:minute) -->
     <g transform="translate(362.041094 316.706687)scale(0.1 -0.1)">
      <defs>
       <path d="M -0.296875 72.90625 
L 61.375 72.90625 
L 61.375 64.59375 
L 35.5 64.59375 
L 35.5 0 
L 25.59375 0 
L 25.59375 64.59375 
L -0.296875 64.59375 
z
" id="DejaVuSans-84"/>
       <path d="M 9.421875 54.6875 
L 18.40625 54.6875 
L 18.40625 0 
L 9.421875 0 
z
M 9.421875 75.984375 
L 18.40625 75.984375 
L 18.40625 64.59375 
L 9.421875 64.59375 
z
" id="DejaVuSans-105"/>
       <path d="M 56.203125 29.59375 
L 56.203125 25.203125 
L 14.890625 25.203125 
Q 15.484375 15.921875 20.484375 11.0625 
Q 25.484375 6.203125 34.421875 6.203125 
Q 39.59375 6.203125 44.453125 7.46875 
Q 49.3125 8.734375 54.109375 11.28125 
L 54.109375 2.78125 
Q 49.265625 0.734375 44.1875 -0.34375 
Q 39.109375 -1.421875 33.890625 -1.421875 
Q 20.796875 -1.421875 13.15625 6.1875 
Q 5.515625 13.8125 5.515625 26.8125 
Q 5.515625 40.234375 12.765625 48.109375 
Q 20.015625 56 32.328125 56 
Q 43.359375 56 49.78125 48.890625 
Q 56.203125 41.796875 56.203125 29.59375 
z
M 47.21875 32.234375 
Q 47.125 39.59375 43.09375 43.984375 
Q 39.0625 48.390625 32.421875 48.390625 
Q 24.90625 48.390625 20.390625 44.140625 
Q 15.875 39.890625 15.1875 32.171875 
z
" id="DejaVuSans-101"/>
       <path id="DejaVuSans-32"/>
       <path d="M 31 75.875 
Q 24.46875 64.65625 21.28125 53.65625 
Q 18.109375 42.671875 18.109375 31.390625 
Q 18.109375 20.125 21.3125 9.0625 
Q 24.515625 -2 31 -13.1875 
L 23.1875 -13.1875 
Q 15.875 -1.703125 12.234375 9.375 
Q 8.59375 20.453125 8.59375 31.390625 
Q 8.59375 42.28125 12.203125 53.3125 
Q 15.828125 64.359375 23.1875 75.875 
z
" id="DejaVuSans-40"/>
       <path d="M 30.609375 48.390625 
Q 23.390625 48.390625 19.1875 42.75 
Q 14.984375 37.109375 14.984375 27.296875 
Q 14.984375 17.484375 19.15625 11.84375 
Q 23.34375 6.203125 30.609375 6.203125 
Q 37.796875 6.203125 41.984375 11.859375 
Q 46.1875 17.53125 46.1875 27.296875 
Q 46.1875 37.015625 41.984375 42.703125 
Q 37.796875 48.390625 30.609375 48.390625 
z
M 30.609375 56 
Q 42.328125 56 49.015625 48.375 
Q 55.71875 40.765625 55.71875 27.296875 
Q 55.71875 13.875 49.015625 6.21875 
Q 42.328125 -1.421875 30.609375 -1.421875 
Q 18.84375 -1.421875 12.171875 6.21875 
Q 5.515625 13.875 5.515625 27.296875 
Q 5.515625 40.765625 12.171875 48.375 
Q 18.84375 56 30.609375 56 
z
" id="DejaVuSans-111"/>
       <path d="M 8.5 21.578125 
L 8.5 54.6875 
L 17.484375 54.6875 
L 17.484375 21.921875 
Q 17.484375 14.15625 20.5 10.265625 
Q 23.53125 6.390625 29.59375 6.390625 
Q 36.859375 6.390625 41.078125 11.03125 
Q 45.3125 15.671875 45.3125 23.6875 
L 45.3125 54.6875 
L 54.296875 54.6875 
L 54.296875 0 
L 45.3125 0 
L 45.3125 8.40625 
Q 42.046875 3.421875 37.71875 1 
Q 33.40625 -1.421875 27.6875 -1.421875 
Q 18.265625 -1.421875 13.375 4.4375 
Q 8.5 10.296875 8.5 21.578125 
z
M 31.109375 56 
z
" id="DejaVuSans-117"/>
       <path d="M 41.109375 46.296875 
Q 39.59375 47.171875 37.8125 47.578125 
Q 36.03125 48 33.890625 48 
Q 26.265625 48 22.1875 43.046875 
Q 18.109375 38.09375 18.109375 28.8125 
L 18.109375 0 
L 9.078125 0 
L 9.078125 54.6875 
L 18.109375 54.6875 
L 18.109375 46.1875 
Q 20.953125 51.171875 25.484375 53.578125 
Q 30.03125 56 36.53125 56 
Q 37.453125 56 38.578125 55.875 
Q 39.703125 55.765625 41.0625 55.515625 
z
" id="DejaVuSans-114"/>
       <path d="M 54.890625 33.015625 
L 54.890625 0 
L 45.90625 0 
L 45.90625 32.71875 
Q 45.90625 40.484375 42.875 44.328125 
Q 39.84375 48.1875 33.796875 48.1875 
Q 26.515625 48.1875 22.3125 43.546875 
Q 18.109375 38.921875 18.109375 30.90625 
L 18.109375 0 
L 9.078125 0 
L 9.078125 54.6875 
L 18.109375 54.6875 
L 18.109375 46.1875 
Q 21.34375 51.125 25.703125 53.5625 
Q 30.078125 56 35.796875 56 
Q 45.21875 56 50.046875 50.171875 
Q 54.890625 44.34375 54.890625 33.015625 
z
" id="DejaVuSans-110"/>
       <path d="M 18.3125 70.21875 
L 18.3125 54.6875 
L 36.8125 54.6875 
L 36.8125 47.703125 
L 18.3125 47.703125 
L 18.3125 18.015625 
Q 18.3125 11.328125 20.140625 9.421875 
Q 21.96875 7.515625 27.59375 7.515625 
L 36.8125 7.515625 
L 36.8125 0 
L 27.59375 0 
Q 17.1875 0 13.234375 3.875 
Q 9.28125 7.765625 9.28125 18.015625 
L 9.28125 47.703125 
L 2.6875 47.703125 
L 2.6875 54.6875 
L 9.28125 54.6875 
L 9.28125 70.21875 
z
" id="DejaVuSans-116"/>
       <path d="M 8.015625 75.875 
L 15.828125 75.875 
Q 23.140625 64.359375 26.78125 53.3125 
Q 30.421875 42.28125 30.421875 31.390625 
Q 30.421875 20.453125 26.78125 9.375 
Q 23.140625 -1.703125 15.828125 -13.1875 
L 8.015625 -13.1875 
Q 14.5 -2 17.703125 9.0625 
Q 20.90625 20.125 20.90625 31.390625 
Q 20.90625 42.671875 17.703125 53.65625 
Q 14.5 64.65625 8.015625 75.875 
z
" id="DejaVuSans-41"/>
      </defs>
      <use xlink:href="#DejaVuSans-84"/>
      <use x="57.958984" xlink:href="#DejaVuSans-105"/>
      <use x="85.742188" xlink:href="#DejaVuSans-109"/>
      <use x="183.154297" xlink:href="#DejaVuSans-101"/>
      <use x="244.677734" xlink:href="#DejaVuSans-32"/>
      <use x="276.464844" xlink:href="#DejaVuSans-40"/>
      <use x="315.478516" xlink:href="#DejaVuSans-104"/>
      <use x="378.857422" xlink:href="#DejaVuSans-111"/>
      <use x="440.039062" xlink:href="#DejaVuSans-117"/>
      <use x="503.417969" xlink:href="#DejaVuSans-114"/>
      <use x="542.78125" xlink:href="#DejaVuSans-58"/>
      <use x="576.472656" xlink:href="#DejaVuSans-109"/>
      <use x="673.884766" xlink:href="#DejaVuSans-105"/>
      <use x="701.667969" xlink:href="#DejaVuSans-110"/>
      <use x="765.046875" xlink:href="#DejaVuSans-117"/>
      <use x="828.425781" xlink:href="#DejaVuSans-116"/>
      <use x="867.634766" xlink:href="#DejaVuSans-101"/>
      <use x="929.158203" xlink:href="#DejaVuSans-41"/>
     </g>
    </g>
   </g>
   <g id="matplotlib.axis_2">
    <g id="ytick_1">
     <g id="line2d_13">
      <defs>
       <path d="M 0 0 
L -3.5 0 
" id="mee5bc0edcb" style="stroke:#000000;stroke-width:0.8;"/>
      </defs>
      <g>
       <use style="stroke:#000000;stroke-width:0.8;" x="53.328125" xlink:href="#mee5bc0edcb" y="258.847623"/>
      </g>
     </g>
     <g id="text_14">
      <!-- 3000 -->
      <g transform="translate(20.878125 262.646842)scale(0.1 -0.1)">
       <use xlink:href="#DejaVuSans-51"/>
       <use x="63.623047" xlink:href="#DejaVuSans-48"/>
       <use x="127.246094" xlink:href="#DejaVuSans-48"/>
       <use x="190.869141" xlink:href="#DejaVuSans-48"/>
      </g>
     </g>
    </g>
    <g id="ytick_2">
     <g id="line2d_14">
      <g>
       <use style="stroke:#000000;stroke-width:0.8;" x="53.328125" xlink:href="#mee5bc0edcb" y="202.71118"/>
      </g>
     </g>
     <g id="text_15">
      <!-- 3200 -->
      <g transform="translate(20.878125 206.510399)scale(0.1 -0.1)">
       <use xlink:href="#DejaVuSans-51"/>
       <use x="63.623047" xlink:href="#DejaVuSans-50"/>
       <use x="127.246094" xlink:href="#DejaVuSans-48"/>
       <use x="190.869141" xlink:href="#DejaVuSans-48"/>
      </g>
     </g>
    </g>
    <g id="ytick_3">
     <g id="line2d_15">
      <g>
       <use style="stroke:#000000;stroke-width:0.8;" x="53.328125" xlink:href="#mee5bc0edcb" y="146.574738"/>
      </g>
     </g>
     <g id="text_16">
      <!-- 3400 -->
      <g transform="translate(20.878125 150.373956)scale(0.1 -0.1)">
       <use xlink:href="#DejaVuSans-51"/>
       <use x="63.623047" xlink:href="#DejaVuSans-52"/>
       <use x="127.246094" xlink:href="#DejaVuSans-48"/>
       <use x="190.869141" xlink:href="#DejaVuSans-48"/>
      </g>
     </g>
    </g>
    <g id="ytick_4">
     <g id="line2d_16">
      <g>
       <use style="stroke:#000000;stroke-width:0.8;" x="53.328125" xlink:href="#mee5bc0edcb" y="90.438295"/>
      </g>
     </g>
     <g id="text_17">
      <!-- 3600 -->
      <g transform="translate(20.878125 94.237514)scale(0.1 -0.1)">
       <use xlink:href="#DejaVuSans-51"/>
       <use x="63.623047" xlink:href="#DejaVuSans-54"/>
       <use x="127.246094" xlink:href="#DejaVuSans-48"/>
       <use x="190.869141" xlink:href="#DejaVuSans-48"/>
      </g>
     </g>
    </g>
    <g id="ytick_5">
     <g id="line2d_17">
      <g>
       <use style="stroke:#000000;stroke-width:0.8;" x="53.328125" xlink:href="#mee5bc0edcb" y="34.301852"/>
      </g>
     </g>
     <g id="text_18">
      <!-- 3800 -->
      <g transform="translate(20.878125 38.101071)scale(0.1 -0.1)">
       <defs>
        <path d="M 31.78125 34.625 
Q 24.75 34.625 20.71875 30.859375 
Q 16.703125 27.09375 16.703125 20.515625 
Q 16.703125 13.921875 20.71875 10.15625 
Q 24.75 6.390625 31.78125 6.390625 
Q 38.8125 6.390625 42.859375 10.171875 
Q 46.921875 13.96875 46.921875 20.515625 
Q 46.921875 27.09375 42.890625 30.859375 
Q 38.875 34.625 31.78125 34.625 
z
M 21.921875 38.8125 
Q 15.578125 40.375 12.03125 44.71875 
Q 8.5 49.078125 8.5 55.328125 
Q 8.5 64.0625 14.71875 69.140625 
Q 20.953125 74.21875 31.78125 74.21875 
Q 42.671875 74.21875 48.875 69.140625 
Q 55.078125 64.0625 55.078125 55.328125 
Q 55.078125 49.078125 51.53125 44.71875 
Q 48 40.375 41.703125 38.8125 
Q 48.828125 37.15625 52.796875 32.3125 
Q 56.78125 27.484375 56.78125 20.515625 
Q 56.78125 9.90625 50.3125 4.234375 
Q 43.84375 -1.421875 31.78125 -1.421875 
Q 19.734375 -1.421875 13.25 4.234375 
Q 6.78125 9.90625 6.78125 20.515625 
Q 6.78125 27.484375 10.78125 32.3125 
Q 14.796875 37.15625 21.921875 38.8125 
z
M 18.3125 54.390625 
Q 18.3125 48.734375 21.84375 45.5625 
Q 25.390625 42.390625 31.78125 42.390625 
Q 38.140625 42.390625 41.71875 45.5625 
Q 45.3125 48.734375 45.3125 54.390625 
Q 45.3125 60.0625 41.71875 63.234375 
Q 38.140625 66.40625 31.78125 66.40625 
Q 25.390625 66.40625 21.84375 63.234375 
Q 18.3125 60.0625 18.3125 54.390625 
z
" id="DejaVuSans-56"/>
       </defs>
       <use xlink:href="#DejaVuSans-51"/>
       <use x="63.623047" xlink:href="#DejaVuSans-56"/>
       <use x="127.246094" xlink:href="#DejaVuSans-48"/>
       <use x="190.869141" xlink:href="#DejaVuSans-48"/>
      </g>
     </g>
    </g>
    <g id="text_19">
     <!-- Edge coverage -->
     <g transform="translate(14.798438 192.762406)rotate(-90)scale(0.1 -0.1)">
      <defs>
       <path d="M 9.8125 72.90625 
L 55.90625 72.90625 
L 55.90625 64.59375 
L 19.671875 64.59375 
L 19.671875 43.015625 
L 54.390625 43.015625 
L 54.390625 34.71875 
L 19.671875 34.71875 
L 19.671875 8.296875 
L 56.78125 8.296875 
L 56.78125 0 
L 9.8125 0 
z
" id="DejaVuSans-69"/>
       <path d="M 45.40625 46.390625 
L 45.40625 75.984375 
L 54.390625 75.984375 
L 54.390625 0 
L 45.40625 0 
L 45.40625 8.203125 
Q 42.578125 3.328125 38.25 0.953125 
Q 33.9375 -1.421875 27.875 -1.421875 
Q 17.96875 -1.421875 11.734375 6.484375 
Q 5.515625 14.40625 5.515625 27.296875 
Q 5.515625 40.1875 11.734375 48.09375 
Q 17.96875 56 27.875 56 
Q 33.9375 56 38.25 53.625 
Q 42.578125 51.265625 45.40625 46.390625 
z
M 14.796875 27.296875 
Q 14.796875 17.390625 18.875 11.75 
Q 22.953125 6.109375 30.078125 6.109375 
Q 37.203125 6.109375 41.296875 11.75 
Q 45.40625 17.390625 45.40625 27.296875 
Q 45.40625 37.203125 41.296875 42.84375 
Q 37.203125 48.484375 30.078125 48.484375 
Q 22.953125 48.484375 18.875 42.84375 
Q 14.796875 37.203125 14.796875 27.296875 
z
" id="DejaVuSans-100"/>
       <path d="M 45.40625 27.984375 
Q 45.40625 37.75 41.375 43.109375 
Q 37.359375 48.484375 30.078125 48.484375 
Q 22.859375 48.484375 18.828125 43.109375 
Q 14.796875 37.75 14.796875 27.984375 
Q 14.796875 18.265625 18.828125 12.890625 
Q 22.859375 7.515625 30.078125 7.515625 
Q 37.359375 7.515625 41.375 12.890625 
Q 45.40625 18.265625 45.40625 27.984375 
z
M 54.390625 6.78125 
Q 54.390625 -7.171875 48.1875 -13.984375 
Q 42 -20.796875 29.203125 -20.796875 
Q 24.46875 -20.796875 20.265625 -20.09375 
Q 16.0625 -19.390625 12.109375 -17.921875 
L 12.109375 -9.1875 
Q 16.0625 -11.328125 19.921875 -12.34375 
Q 23.78125 -13.375 27.78125 -13.375 
Q 36.625 -13.375 41.015625 -8.765625 
Q 45.40625 -4.15625 45.40625 5.171875 
L 45.40625 9.625 
Q 42.625 4.78125 38.28125 2.390625 
Q 33.9375 0 27.875 0 
Q 17.828125 0 11.671875 7.65625 
Q 5.515625 15.328125 5.515625 27.984375 
Q 5.515625 40.671875 11.671875 48.328125 
Q 17.828125 56 27.875 56 
Q 33.9375 56 38.28125 53.609375 
Q 42.625 51.21875 45.40625 46.390625 
L 45.40625 54.6875 
L 54.390625 54.6875 
z
" id="DejaVuSans-103"/>
       <path d="M 48.78125 52.59375 
L 48.78125 44.1875 
Q 44.96875 46.296875 41.140625 47.34375 
Q 37.3125 48.390625 33.40625 48.390625 
Q 24.65625 48.390625 19.8125 42.84375 
Q 14.984375 37.3125 14.984375 27.296875 
Q 14.984375 17.28125 19.8125 11.734375 
Q 24.65625 6.203125 33.40625 6.203125 
Q 37.3125 6.203125 41.140625 7.25 
Q 44.96875 8.296875 48.78125 10.40625 
L 48.78125 2.09375 
Q 45.015625 0.34375 40.984375 -0.53125 
Q 36.96875 -1.421875 32.421875 -1.421875 
Q 20.0625 -1.421875 12.78125 6.34375 
Q 5.515625 14.109375 5.515625 27.296875 
Q 5.515625 40.671875 12.859375 48.328125 
Q 20.21875 56 33.015625 56 
Q 37.15625 56 41.109375 55.140625 
Q 45.0625 54.296875 48.78125 52.59375 
z
" id="DejaVuSans-99"/>
       <path d="M 2.984375 54.6875 
L 12.5 54.6875 
L 29.59375 8.796875 
L 46.6875 54.6875 
L 56.203125 54.6875 
L 35.6875 0 
L 23.484375 0 
z
" id="DejaVuSans-118"/>
       <path d="M 34.28125 27.484375 
Q 23.390625 27.484375 19.1875 25 
Q 14.984375 22.515625 14.984375 16.5 
Q 14.984375 11.71875 18.140625 8.90625 
Q 21.296875 6.109375 26.703125 6.109375 
Q 34.1875 6.109375 38.703125 11.40625 
Q 43.21875 16.703125 43.21875 25.484375 
L 43.21875 27.484375 
z
M 52.203125 31.203125 
L 52.203125 0 
L 43.21875 0 
L 43.21875 8.296875 
Q 40.140625 3.328125 35.546875 0.953125 
Q 30.953125 -1.421875 24.3125 -1.421875 
Q 15.921875 -1.421875 10.953125 3.296875 
Q 6 8.015625 6 15.921875 
Q 6 25.140625 12.171875 29.828125 
Q 18.359375 34.515625 30.609375 34.515625 
L 43.21875 34.515625 
L 43.21875 35.40625 
Q 43.21875 41.609375 39.140625 45 
Q 35.0625 48.390625 27.6875 48.390625 
Q 23 48.390625 18.546875 47.265625 
Q 14.109375 46.140625 10.015625 43.890625 
L 10.015625 52.203125 
Q 14.9375 54.109375 19.578125 55.046875 
Q 24.21875 56 28.609375 56 
Q 40.484375 56 46.34375 49.84375 
Q 52.203125 43.703125 52.203125 31.203125 
z
" id="DejaVuSans-97"/>
      </defs>
      <use xlink:href="#DejaVuSans-69"/>
      <use x="63.183594" xlink:href="#DejaVuSans-100"/>
      <use x="126.660156" xlink:href="#DejaVuSans-103"/>
      <use x="190.136719" xlink:href="#DejaVuSans-101"/>
      <use x="251.660156" xlink:href="#DejaVuSans-32"/>
      <use x="283.447266" xlink:href="#DejaVuSans-99"/>
      <use x="338.427734" xlink:href="#DejaVuSans-111"/>
      <use x="399.609375" xlink:href="#DejaVuSans-118"/>
      <use x="458.789062" xlink:href="#DejaVuSans-101"/>
      <use x="520.3125" xlink:href="#DejaVuSans-114"/>
      <use x="561.425781" xlink:href="#DejaVuSans-97"/>
      <use x="622.705078" xlink:href="#DejaVuSans-103"/>
      <use x="686.181641" xlink:href="#DejaVuSans-101"/>
     </g>
    </g>
   </g>
   <g id="line2d_18">
    <path clip-path="url(#p7d72a48af5)" d="M 85.79358 169.085451 
L 92.928844 125.07448 
L 100.064109 104.430303 
L 107.199374 93.399492 
L 114.334638 87.715677 
L 121.469903 79.140836 
L 128.605168 71.281734 
L 135.740433 68.081957 
L 142.875697 63.815587 
L 150.010962 62.97354 
L 157.146227 61.008765 
L 164.281492 57.654612 
L 171.416756 56.784497 
L 178.552021 56.714327 
L 185.687286 56.700293 
L 192.822551 56.377508 
L 199.957815 56.251201 
L 207.09308 47.718462 
L 214.228345 46.778177 
L 221.36361 46.764142 
L 228.498874 46.750108 
L 235.634139 46.595733 
L 242.769404 46.41329 
L 249.904668 46.146642 
L 257.039933 46.132607 
L 264.175198 46.118573 
L 271.310463 46.090505 
L 278.445727 41.487317 
L 285.580992 41.304873 
L 292.716257 41.276805 
L 299.851522 40.841748 
L 306.986786 40.841748 
L 314.122051 40.448793 
L 321.257316 40.40669 
L 328.392581 40.350554 
L 335.527845 38.694529 
L 342.66311 38.427881 
L 349.798375 38.329642 
L 356.933639 38.315608 
L 364.068904 38.301574 
L 371.204169 38.301574 
L 378.339434 38.189301 
L 385.474698 38.189301 
L 392.609963 38.161233 
L 399.745228 38.133164 
L 406.880493 38.133164 
L 414.015757 38.11913 
L 421.151022 38.020891 
L 428.286287 37.585834 
L 435.421552 37.543732 
L 442.556816 36.827992 
L 449.692081 36.659583 
L 456.827346 36.659583 
L 463.962611 36.659583 
L 471.097875 36.659583 
L 478.23314 36.659583 
L 485.368405 36.659583 
L 492.503669 36.659583 
L 499.638934 36.659583 
L 506.774199 36.659583 
L 513.909464 36.659583 
L 521.044728 36.631514 
L 528.179993 36.61748 
L 535.315258 36.61748 
L 542.450523 36.61748 
L 549.585787 36.61748 
L 556.721052 36.561344 
L 563.856317 36.54731 
L 570.991582 36.449071 
L 578.126846 36.336798 
L 585.262111 36.182423 
L 592.397376 36.182423 
L 599.53264 36.042082 
L 606.667905 35.985945 
L 613.80317 35.382479 
L 620.938435 35.28424 
L 628.073699 35.28424 
L 635.208964 35.28424 
L 642.344229 35.28424 
L 649.479494 35.28424 
L 656.614758 35.129865 
L 663.750023 34.989524 
L 670.885288 34.989524 
L 678.020553 34.975489 
L 685.155817 34.708841 
L 692.291082 34.708841 
L 699.426347 34.694807 
L 706.561612 34.680773 
L 713.696876 34.680773 
L 720.832141 34.624637 
L 727.967406 34.526398 
L 735.10267 34.414125 
" style="fill:none;stroke:#ff7f0e;stroke-linecap:square;stroke-width:1.5;"/>
   </g>
   <g id="line2d_19">
    <path clip-path="url(#p7d72a48af5)" d="M 85.79358 251.788465 
L 92.928844 241.136575 
L 100.064109 210.794828 
L 107.199374 171.134431 
L 114.334638 151.683154 
L 121.469903 138.954215 
L 128.605168 129.354884 
L 135.740433 118.745096 
L 142.875697 110.577244 
L 150.010962 97.1466 
L 157.146227 95.139722 
L 164.281492 94.311709 
L 171.416756 93.83455 
L 178.552021 84.319423 
L 185.687286 82.803739 
L 192.822551 82.509022 
L 199.957815 82.130101 
L 207.09308 81.821351 
L 214.228345 76.853276 
L 221.36361 76.418218 
L 228.498874 76.31998 
L 235.634139 75.91299 
L 242.769404 71.043154 
L 249.904668 71.043154 
L 257.039933 70.972983 
L 264.175198 70.916847 
L 271.310463 70.86071 
L 278.445727 70.776506 
L 285.580992 70.706335 
L 292.716257 69.83622 
L 299.851522 69.83622 
L 306.986786 69.822186 
L 314.122051 65.401441 
L 321.257316 60.770185 
L 328.392581 60.559673 
L 335.527845 60.545639 
L 342.66311 60.461434 
L 349.798375 60.461434 
L 356.933639 60.4474 
L 364.068904 60.433366 
L 371.204169 60.37723 
L 378.339434 55.830178 
L 385.474698 55.703871 
L 392.609963 55.703871 
L 399.745228 55.675803 
L 406.880493 55.591598 
L 414.015757 55.591598 
L 421.151022 55.296882 
L 428.286287 55.296882 
L 435.421552 50.721762 
L 442.556816 50.651591 
L 449.692081 50.469148 
L 456.827346 45.964198 
L 463.962611 45.711584 
L 471.097875 45.711584 
L 478.23314 45.711584 
L 485.368405 45.641414 
L 492.503669 45.613345 
L 499.638934 45.515107 
L 506.774199 45.473004 
L 513.909464 45.444936 
L 521.044728 45.3888 
L 528.179993 45.332663 
L 535.315258 45.332663 
L 542.450523 45.122151 
L 549.585787 45.122151 
L 556.721052 45.094083 
L 563.856317 45.080049 
L 570.991582 45.080049 
L 578.126846 40.378622 
L 585.262111 40.350554 
L 592.397376 40.126008 
L 599.53264 40.069872 
L 606.667905 40.069872 
L 613.80317 40.069872 
L 620.938435 40.069872 
L 628.073699 40.069872 
L 635.208964 40.069872 
L 642.344229 40.069872 
L 649.479494 40.069872 
L 656.614758 40.069872 
L 663.750023 39.775155 
L 670.885288 39.775155 
L 678.020553 39.775155 
L 685.155817 39.775155 
L 692.291082 39.775155 
L 699.426347 35.382479 
L 706.561612 35.368445 
L 713.696876 35.326342 
L 720.832141 35.326342 
L 727.967406 35.326342 
L 735.10267 35.298274 
" style="fill:none;stroke:#1f77b4;stroke-linecap:square;stroke-width:1.5;"/>
   </g>
   <g id="line2d_20">
    <path clip-path="url(#p7d72a48af5)" d="M 85.79358 164.019137 
L 92.928844 162.840272 
L 100.064109 162.096464 
L 107.199374 160.27203 
L 114.334638 155.177647 
L 121.469903 150.16747 
L 128.605168 147.781671 
L 135.740433 145.339736 
L 142.875697 135.852677 
L 150.010962 134.786085 
L 157.146227 127.432211 
L 164.281492 122.829022 
L 171.416756 122.520272 
L 178.552021 121.144929 
L 185.687286 120.709872 
L 192.822551 118.155663 
L 199.957815 118.113561 
L 207.09308 115.236568 
L 214.228345 109.777299 
L 221.36361 102.465528 
L 228.498874 99.616603 
L 235.634139 99.392057 
L 242.769404 91.280341 
L 249.904668 89.483975 
L 257.039933 85.217606 
L 264.175198 81.217884 
L 271.310463 81.175782 
L 278.445727 80.740724 
L 285.580992 79.491689 
L 292.716257 74.607818 
L 299.851522 74.481511 
L 306.986786 74.34117 
L 314.122051 74.158726 
L 321.257316 74.116624 
L 328.392581 74.018385 
L 335.527845 73.990317 
L 342.66311 71.941337 
L 349.798375 69.373095 
L 356.933639 68.643321 
L 364.068904 68.138093 
L 371.204169 66.187352 
L 378.339434 65.233032 
L 385.474698 65.233032 
L 392.609963 65.218998 
L 399.745228 63.703314 
L 406.880493 63.562973 
L 414.015757 63.198086 
L 421.151022 62.66479 
L 428.286287 62.089391 
L 435.421552 61.850811 
L 442.556816 61.429788 
L 449.692081 61.429788 
L 456.827346 61.415754 
L 463.962611 61.40172 
L 471.097875 57.542339 
L 478.23314 56.545918 
L 485.368405 56.475747 
L 492.503669 54.861824 
L 499.638934 54.749551 
L 506.774199 54.749551 
L 513.909464 54.707449 
L 521.044728 54.707449 
L 528.179993 54.707449 
L 535.315258 54.707449 
L 542.450523 53.093526 
L 549.585787 52.686537 
L 556.721052 52.588298 
L 563.856317 48.490338 
L 570.991582 48.069315 
L 578.126846 48.069315 
L 585.262111 48.013178 
L 592.397376 47.971076 
L 599.53264 47.788632 
L 606.667905 47.760564 
L 613.80317 47.74653 
L 620.938435 47.718462 
L 628.073699 47.690394 
L 635.208964 47.521984 
L 642.344229 47.325507 
L 649.479494 47.26937 
L 656.614758 47.157098 
L 663.750023 47.030791 
L 670.885288 47.030791 
L 678.020553 46.862381 
L 685.155817 46.679938 
L 692.291082 46.679938 
L 699.426347 46.665904 
L 706.561612 46.48346 
L 713.696876 46.48346 
L 720.832141 46.48346 
L 727.967406 46.469426 
L 735.10267 46.469426 
" style="fill:none;stroke:#c5b0d5;stroke-linecap:square;stroke-width:1.5;"/>
   </g>
   <g id="line2d_21">
    <path clip-path="url(#p7d72a48af5)" d="M 85.79358 212.998183 
L 92.928844 164.187547 
L 100.064109 158.391459 
L 107.199374 151.795427 
L 114.334638 148.567581 
L 121.469903 146.897522 
L 128.605168 145.550248 
L 135.740433 140.483934 
L 142.875697 134.519437 
L 150.010962 132.610797 
L 157.146227 130.660056 
L 164.281492 129.635566 
L 171.416756 129.200509 
L 178.552021 128.849656 
L 185.687286 123.376353 
L 192.822551 117.341685 
L 199.957815 113.678782 
L 207.09308 113.299861 
L 214.228345 110.142186 
L 221.36361 109.665026 
L 228.498874 105.665305 
L 235.634139 100.416548 
L 242.769404 96.753645 
L 249.904668 96.613304 
L 257.039933 96.613304 
L 264.175198 92.108354 
L 271.310463 92.010115 
L 278.445727 91.982047 
L 285.580992 91.869774 
L 292.716257 91.813638 
L 299.851522 91.743467 
L 306.986786 91.645228 
L 314.122051 91.476819 
L 321.257316 90.761079 
L 328.392581 89.638351 
L 335.527845 89.301532 
L 342.66311 84.44573 
L 349.798375 83.547547 
L 356.933639 82.284477 
L 364.068904 80.8951 
L 371.204169 80.389872 
L 378.339434 80.291633 
L 385.474698 80.263565 
L 392.609963 80.263565 
L 399.745228 80.263565 
L 406.880493 80.221462 
L 414.015757 79.056631 
L 421.151022 77.17606 
L 428.286287 75.351626 
L 435.421552 72.586906 
L 442.556816 72.236053 
L 449.692081 72.011508 
L 456.827346 72.011508 
L 463.962611 71.969405 
L 471.097875 71.81503 
L 478.23314 71.81503 
L 485.368405 70.537926 
L 492.503669 69.83622 
L 499.638934 67.646899 
L 506.774199 65.920703 
L 513.909464 65.513714 
L 521.044728 65.49968 
L 528.179993 65.42951 
L 535.315258 65.401441 
L 542.450523 65.387407 
L 549.585787 65.176896 
L 556.721052 64.152406 
L 563.856317 62.412176 
L 570.991582 62.327971 
L 578.126846 62.299903 
L 585.262111 60.770185 
L 592.397376 56.068758 
L 599.53264 54.06188 
L 606.667905 53.668925 
L 613.80317 53.612788 
L 620.938435 53.542618 
L 628.073699 53.430345 
L 635.208964 53.374209 
L 642.344229 53.191765 
L 649.479494 53.149663 
L 656.614758 53.149663 
L 663.750023 53.051424 
L 670.885288 52.953185 
L 678.020553 52.939151 
L 685.155817 52.925117 
L 692.291082 52.897049 
L 699.426347 52.883015 
L 706.561612 52.868981 
L 713.696876 52.840912 
L 720.832141 52.812844 
L 727.967406 52.349718 
L 735.10267 51.381365 
" style="fill:none;stroke:#2ca02c;stroke-linecap:square;stroke-width:1.5;"/>
   </g>
   <g id="line2d_22">
    <path clip-path="url(#p7d72a48af5)" d="M 85.79358 176.902451 
L 92.928844 173.267616 
L 100.064109 171.751932 
L 107.199374 165.857606 
L 114.334638 157.100321 
L 121.469903 151.73929 
L 128.605168 144.39945 
L 135.740433 136.596485 
L 142.875697 131.86699 
L 150.010962 131.684546 
L 157.146227 129.326816 
L 164.281492 127.474313 
L 171.416756 126.758573 
L 178.552021 126.127038 
L 185.687286 125.958629 
L 192.822551 115.910206 
L 199.957815 112.37361 
L 207.09308 111.236847 
L 214.228345 110.3948 
L 221.36361 104.430303 
L 228.498874 103.939109 
L 235.634139 103.911041 
L 242.769404 102.044504 
L 249.904668 100.907741 
L 257.039933 98.690352 
L 264.175198 98.297397 
L 271.310463 96.43086 
L 278.445727 93.946823 
L 285.580992 93.750345 
L 292.716257 93.708243 
L 299.851522 93.652106 
L 306.986786 93.371424 
L 314.122051 92.09432 
L 321.257316 89.315566 
L 328.392581 87.266586 
L 335.527845 87.084142 
L 342.66311 86.340335 
L 349.798375 85.610561 
L 356.933639 83.982604 
L 364.068904 79.800439 
L 371.204169 79.365382 
L 378.339434 77.793561 
L 385.474698 77.470777 
L 392.609963 77.442708 
L 399.745228 77.372538 
L 406.880493 72.881622 
L 414.015757 72.797418 
L 421.151022 72.797418 
L 428.286287 72.76935 
L 435.421552 72.76935 
L 442.556816 72.741281 
L 449.692081 72.741281 
L 456.827346 72.713213 
L 463.962611 68.222298 
L 471.097875 68.222298 
L 478.23314 68.222298 
L 485.368405 63.717348 
L 492.503669 62.566551 
L 499.638934 62.482346 
L 506.774199 62.398142 
L 513.909464 62.398142 
L 521.044728 61.359618 
L 528.179993 60.952628 
L 535.315258 60.559673 
L 542.450523 60.37723 
L 549.585787 60.307059 
L 556.721052 60.250923 
L 563.856317 59.240467 
L 570.991582 58.833478 
L 578.126846 58.693136 
L 585.262111 58.608932 
L 592.397376 58.608932 
L 599.53264 58.608932 
L 606.667905 58.580864 
L 613.80317 58.300181 
L 620.938435 58.230011 
L 628.073699 57.430067 
L 635.208964 57.009043 
L 642.344229 56.672225 
L 649.479494 56.602054 
L 656.614758 56.602054 
L 663.750023 56.602054 
L 670.885288 56.419611 
L 678.020553 56.419611 
L 685.155817 56.419611 
L 692.291082 56.419611 
L 699.426347 56.419611 
L 706.561612 56.377508 
L 713.696876 56.377508 
L 720.832141 56.377508 
L 727.967406 56.363474 
L 735.10267 56.34944 
" style="fill:none;stroke:#e377c2;stroke-linecap:square;stroke-width:1.5;"/>
   </g>
   <g id="line2d_23">
    <path clip-path="url(#p7d72a48af5)" d="M 85.79358 245.276638 
L 92.928844 234.624748 
L 100.064109 230.049628 
L 107.199374 220.043307 
L 114.334638 193.308326 
L 121.469903 189.308605 
L 128.605168 179.204045 
L 135.740433 158.447595 
L 142.875697 145.367804 
L 150.010962 137.410463 
L 157.146227 126.000731 
L 164.281492 114.89975 
L 171.416756 110.549175 
L 178.552021 107.307296 
L 185.687286 102.072573 
L 192.822551 101.00598 
L 199.957815 100.93581 
L 207.09308 100.669162 
L 214.228345 95.995803 
L 221.36361 95.757223 
L 228.498874 95.546711 
L 235.634139 95.518643 
L 242.769404 95.378302 
L 249.904668 94.985347 
L 257.039933 94.676596 
L 264.175198 94.648528 
L 271.310463 90.255851 
L 278.445727 88.684031 
L 285.580992 88.515622 
L 292.716257 84.052774 
L 299.851522 83.744024 
L 306.986786 83.744024 
L 314.122051 83.701922 
L 321.257316 83.701922 
L 328.392581 83.673854 
L 335.527845 83.645785 
L 342.66311 83.631751 
L 349.798375 79.126802 
L 356.933639 78.846119 
L 364.068904 78.832085 
L 371.204169 78.705778 
L 378.339434 73.821908 
L 385.474698 73.723669 
L 392.609963 73.723669 
L 399.745228 73.513157 
L 406.880493 73.513157 
L 414.015757 73.485089 
L 421.151022 70.622131 
L 428.286287 68.067922 
L 435.421552 63.633143 
L 442.556816 63.352461 
L 449.692081 63.352461 
L 456.827346 63.310359 
L 463.962611 63.310359 
L 471.097875 63.310359 
L 478.23314 63.310359 
L 485.368405 63.310359 
L 492.503669 63.282291 
L 499.638934 63.282291 
L 506.774199 63.226154 
L 513.909464 63.226154 
L 521.044728 63.198086 
L 528.179993 63.198086 
L 535.315258 63.14195 
L 542.450523 63.14195 
L 549.585787 63.071779 
L 556.721052 63.029677 
L 563.856317 63.015643 
L 570.991582 62.692858 
L 578.126846 62.692858 
L 585.262111 62.692858 
L 592.397376 62.692858 
L 599.53264 62.356039 
L 606.667905 62.356039 
L 613.80317 62.285869 
L 620.938435 62.075357 
L 628.073699 62.075357 
L 635.208964 62.075357 
L 642.344229 62.047289 
L 649.479494 62.047289 
L 656.614758 62.047289 
L 663.750023 62.047289 
L 670.885288 61.780641 
L 678.020553 61.780641 
L 685.155817 61.780641 
L 692.291082 61.780641 
L 699.426347 61.752573 
L 706.561612 61.612232 
L 713.696876 61.612232 
L 720.832141 61.598197 
L 727.967406 61.598197 
L 735.10267 61.570129 
" style="fill:none;stroke:#d62728;stroke-linecap:square;stroke-width:1.5;"/>
   </g>
   <g id="line2d_24">
    <path clip-path="url(#p7d72a48af5)" d="M 85.79358 170.895851 
L 92.928844 157.03015 
L 100.064109 148.876332 
L 107.199374 141.522458 
L 114.334638 139.052454 
L 121.469903 138.617397 
L 128.605168 137.129781 
L 135.740433 136.905235 
L 142.875697 132.259945 
L 150.010962 128.161984 
L 157.146227 123.432489 
L 164.281492 120.148507 
L 171.416756 120.092371 
L 178.552021 113.299861 
L 185.687286 113.229691 
L 192.822551 112.977077 
L 199.957815 108.570366 
L 207.09308 107.152921 
L 214.228345 107.068716 
L 221.36361 105.945987 
L 228.498874 105.931953 
L 235.634139 104.72502 
L 242.769404 104.72502 
L 249.904668 104.710985 
L 257.039933 104.710985 
L 264.175198 104.48644 
L 271.310463 104.374167 
L 278.445727 99.448194 
L 285.580992 98.802625 
L 292.716257 97.918476 
L 299.851522 97.637794 
L 306.986786 97.637794 
L 314.122051 97.637794 
L 321.257316 97.637794 
L 328.392581 97.427282 
L 335.527845 97.427282 
L 342.66311 97.38518 
L 349.798375 97.315009 
L 356.933639 96.557167 
L 364.068904 96.557167 
L 371.204169 95.841427 
L 378.339434 95.448472 
L 385.474698 95.434438 
L 392.609963 95.434438 
L 399.745228 95.434438 
L 406.880493 95.420404 
L 414.015757 95.40637 
L 421.151022 95.16779 
L 428.286287 95.153756 
L 435.421552 95.153756 
L 442.556816 95.153756 
L 449.692081 95.153756 
L 456.827346 95.139722 
L 463.962611 86.340335 
L 471.097875 81.835385 
L 478.23314 81.386293 
L 485.368405 81.316123 
L 492.503669 81.302089 
L 499.638934 81.288055 
L 506.774199 77.007651 
L 513.909464 76.797139 
L 521.044728 76.797139 
L 528.179993 76.797139 
L 535.315258 76.670832 
L 542.450523 76.670832 
L 549.585787 76.670832 
L 556.721052 76.670832 
L 563.856317 76.670832 
L 570.991582 76.670832 
L 578.126846 76.670832 
L 585.262111 76.642764 
L 592.397376 76.642764 
L 599.53264 76.642764 
L 606.667905 76.642764 
L 613.80317 76.39015 
L 620.938435 76.39015 
L 628.073699 76.179638 
L 635.208964 76.179638 
L 642.344229 76.15157 
L 649.479494 76.15157 
L 656.614758 76.15157 
L 663.750023 75.941059 
L 670.885288 75.941059 
L 678.020553 75.941059 
L 685.155817 75.941059 
L 692.291082 75.941059 
L 699.426347 75.941059 
L 706.561612 75.941059 
L 713.696876 75.941059 
L 720.832141 75.927024 
L 727.967406 75.927024 
L 735.10267 75.927024 
" style="fill:none;stroke:#ff9896;stroke-linecap:square;stroke-width:1.5;"/>
   </g>
   <g id="line2d_25">
    <path clip-path="url(#p7d72a48af5)" d="M 85.79358 218.89251 
L 92.928844 168.060961 
L 100.064109 167.429426 
L 107.199374 166.461072 
L 114.334638 165.969879 
L 121.469903 164.748911 
L 128.605168 163.064818 
L 135.740433 162.938511 
L 142.875697 162.55959 
L 150.010962 160.959701 
L 157.146227 160.959701 
L 164.281492 159.86504 
L 171.416756 156.00566 
L 178.552021 153.17077 
L 185.687286 151.065653 
L 192.822551 149.030707 
L 199.957815 148.581615 
L 207.09308 148.42724 
L 214.228345 147.108034 
L 221.36361 146.294055 
L 228.498874 146.041441 
L 235.634139 145.718657 
L 242.769404 145.704623 
L 249.904668 145.676555 
L 257.039933 144.511723 
L 264.175198 144.39945 
L 271.310463 144.39945 
L 278.445727 144.371382 
L 285.580992 144.371382 
L 292.716257 144.32928 
L 299.851522 144.32928 
L 306.986786 143.431097 
L 314.122051 142.982005 
L 321.257316 142.982005 
L 328.392581 142.982005 
L 335.527845 142.982005 
L 342.66311 142.982005 
L 349.798375 142.982005 
L 356.933639 142.967971 
L 364.068904 142.715357 
L 371.204169 142.603084 
L 378.339434 142.575016 
L 385.474698 141.831208 
L 392.609963 141.747004 
L 399.745228 141.508424 
L 406.880493 141.49439 
L 414.015757 141.396151 
L 421.151022 141.382117 
L 428.286287 137.115747 
L 435.421552 137.045576 
L 442.556816 136.961372 
L 449.692081 136.933304 
L 456.827346 136.764894 
L 463.962611 136.764894 
L 471.097875 136.764894 
L 478.23314 136.764894 
L 485.368405 136.764894 
L 492.503669 136.764894 
L 499.638934 136.764894 
L 506.774199 135.72637 
L 513.909464 135.72637 
L 521.044728 135.72637 
L 528.179993 135.72637 
L 535.315258 135.72637 
L 542.450523 135.712336 
L 549.585787 135.712336 
L 556.721052 135.684268 
L 563.856317 135.684268 
L 570.991582 135.684268 
L 578.126846 135.684268 
L 585.262111 135.684268 
L 592.397376 135.642165 
L 599.53264 135.571995 
L 606.667905 135.403585 
L 613.80317 134.238754 
L 620.938435 134.196652 
L 628.073699 133.845799 
L 635.208964 131.62841 
L 642.344229 129.312781 
L 649.479494 129.060167 
L 656.614758 128.975963 
L 663.750023 128.947895 
L 670.885288 128.947895 
L 678.020553 128.947895 
L 685.155817 128.428632 
L 692.291082 127.754995 
L 699.426347 127.712893 
L 706.561612 127.712893 
L 713.696876 126.955051 
L 720.832141 126.955051 
L 727.967406 126.828744 
L 735.10267 126.828744 
" style="fill:none;stroke:#dbdb8d;stroke-linecap:square;stroke-width:1.5;"/>
   </g>
   <g id="line2d_26">
    <path clip-path="url(#p7d72a48af5)" d="M 85.79358 276.334125 
L 92.928844 224.000926 
L 100.064109 200.886746 
L 107.199374 188.129739 
L 114.334638 174.979778 
L 121.469903 172.664149 
L 128.605168 171.064261 
L 135.740433 167.836415 
L 142.875697 167.471528 
L 150.010962 167.429426 
L 157.146227 167.401358 
L 164.281492 167.37329 
L 171.416756 167.218914 
L 178.552021 167.218914 
L 185.687286 167.050505 
L 192.822551 165.997947 
L 199.957815 165.492719 
L 207.09308 165.352378 
L 214.228345 161.633338 
L 221.36361 161.212315 
L 228.498874 159.935211 
L 235.634139 156.384581 
L 242.769404 153.563725 
L 249.904668 153.47952 
L 257.039933 153.269008 
L 264.175198 153.17077 
L 271.310463 153.100599 
L 278.445727 153.058497 
L 285.580992 153.016394 
L 292.716257 152.988326 
L 299.851522 152.988326 
L 306.986786 152.988326 
L 314.122051 151.963836 
L 321.257316 151.963836 
L 328.392581 151.935768 
L 335.527845 151.935768 
L 342.66311 151.935768 
L 349.798375 150.546391 
L 356.933639 150.40605 
L 364.068904 149.311389 
L 371.204169 149.002639 
L 378.339434 148.721957 
L 385.474698 148.553547 
L 392.609963 148.42724 
L 399.745228 148.35707 
L 406.880493 148.244797 
L 414.015757 147.416784 
L 421.151022 147.150136 
L 428.286287 147.150136 
L 435.421552 146.841386 
L 442.556816 146.799283 
L 449.692081 146.799283 
L 456.827346 146.771215 
L 463.962611 146.771215 
L 471.097875 146.771215 
L 478.23314 146.490533 
L 485.368405 146.476499 
L 492.503669 145.494111 
L 499.638934 145.269565 
L 506.774199 145.227463 
L 513.909464 145.213429 
L 521.044728 145.073088 
L 528.179993 145.073088 
L 535.315258 145.016951 
L 542.450523 145.016951 
L 549.585787 145.002917 
L 556.721052 145.002917 
L 563.856317 144.960815 
L 570.991582 144.960815 
L 578.126846 144.87661 
L 585.262111 144.87661 
L 592.397376 144.87661 
L 599.53264 144.820474 
L 606.667905 144.820474 
L 613.80317 144.820474 
L 620.938435 144.820474 
L 628.073699 144.820474 
L 635.208964 144.820474 
L 642.344229 144.820474 
L 649.479494 144.820474 
L 656.614758 144.792406 
L 663.750023 144.750303 
L 670.885288 144.750303 
L 678.020553 144.750303 
L 685.155817 143.978427 
L 692.291082 142.645187 
L 699.426347 142.196095 
L 706.561612 142.153993 
L 713.696876 142.153993 
L 720.832141 142.153993 
L 727.967406 142.153993 
L 735.10267 142.153993 
" style="fill:none;stroke:#98df8a;stroke-linecap:square;stroke-width:1.5;"/>
   </g>
   <g id="line2d_27"/>
   <g id="line2d_28"/>
   <g id="line2d_29"/>
   <g id="line2d_30"/>
   <g id="line2d_31"/>
   <g id="line2d_32"/>
   <g id="line2d_33"/>
   <g id="line2d_34"/>
   <g id="line2d_35"/>
   <g id="line2d_36"/>
   <g id="line2d_37">
    <path clip-path="url(#p7d72a48af5)" d="M 735.10267 288.430125 
L 735.10267 22.318125 
" style="fill:none;stroke:#ff0000;stroke-linecap:square;stroke-width:1.5;"/>
   </g>
   <g id="patch_3">
    <path d="M 53.328125 258.847623 
L 53.328125 34.301852 
" style="fill:none;stroke:#000000;stroke-linecap:square;stroke-linejoin:miter;stroke-width:0.8;"/>
   </g>
   <g id="patch_4">
    <path d="M 85.79358 288.430125 
L 687.534239 288.430125 
" style="fill:none;stroke:#000000;stroke-linecap:square;stroke-linejoin:miter;stroke-width:0.8;"/>
   </g>
   <g id="text_20">
    <!-- libjpeg-turbo-07-2017 (23h, 20 trials/fuzzer) -->
    <g transform="translate(277.985938 16.318125)scale(0.12 -0.12)">
     <defs>
      <path d="M 9.421875 75.984375 
L 18.40625 75.984375 
L 18.40625 0 
L 9.421875 0 
z
" id="DejaVuSans-108"/>
      <path d="M 48.6875 27.296875 
Q 48.6875 37.203125 44.609375 42.84375 
Q 40.53125 48.484375 33.40625 48.484375 
Q 26.265625 48.484375 22.1875 42.84375 
Q 18.109375 37.203125 18.109375 27.296875 
Q 18.109375 17.390625 22.1875 11.75 
Q 26.265625 6.109375 33.40625 6.109375 
Q 40.53125 6.109375 44.609375 11.75 
Q 48.6875 17.390625 48.6875 27.296875 
z
M 18.109375 46.390625 
Q 20.953125 51.265625 25.265625 53.625 
Q 29.59375 56 35.59375 56 
Q 45.5625 56 51.78125 48.09375 
Q 58.015625 40.1875 58.015625 27.296875 
Q 58.015625 14.40625 51.78125 6.484375 
Q 45.5625 -1.421875 35.59375 -1.421875 
Q 29.59375 -1.421875 25.265625 0.953125 
Q 20.953125 3.328125 18.109375 8.203125 
L 18.109375 0 
L 9.078125 0 
L 9.078125 75.984375 
L 18.109375 75.984375 
z
" id="DejaVuSans-98"/>
      <path d="M 9.421875 54.6875 
L 18.40625 54.6875 
L 18.40625 -0.984375 
Q 18.40625 -11.421875 14.421875 -16.109375 
Q 10.453125 -20.796875 1.609375 -20.796875 
L -1.8125 -20.796875 
L -1.8125 -13.1875 
L 0.59375 -13.1875 
Q 5.71875 -13.1875 7.5625 -10.8125 
Q 9.421875 -8.453125 9.421875 -0.984375 
z
M 9.421875 75.984375 
L 18.40625 75.984375 
L 18.40625 64.59375 
L 9.421875 64.59375 
z
" id="DejaVuSans-106"/>
      <path d="M 18.109375 8.203125 
L 18.109375 -20.796875 
L 9.078125 -20.796875 
L 9.078125 54.6875 
L 18.109375 54.6875 
L 18.109375 46.390625 
Q 20.953125 51.265625 25.265625 53.625 
Q 29.59375 56 35.59375 56 
Q 45.5625 56 51.78125 48.09375 
Q 58.015625 40.1875 58.015625 27.296875 
Q 58.015625 14.40625 51.78125 6.484375 
Q 45.5625 -1.421875 35.59375 -1.421875 
Q 29.59375 -1.421875 25.265625 0.953125 
Q 20.953125 3.328125 18.109375 8.203125 
z
M 48.6875 27.296875 
Q 48.6875 37.203125 44.609375 42.84375 
Q 40.53125 48.484375 33.40625 48.484375 
Q 26.265625 48.484375 22.1875 42.84375 
Q 18.109375 37.203125 18.109375 27.296875 
Q 18.109375 17.390625 22.1875 11.75 
Q 26.265625 6.109375 33.40625 6.109375 
Q 40.53125 6.109375 44.609375 11.75 
Q 48.6875 17.390625 48.6875 27.296875 
z
" id="DejaVuSans-112"/>
      <path d="M 4.890625 31.390625 
L 31.203125 31.390625 
L 31.203125 23.390625 
L 4.890625 23.390625 
z
" id="DejaVuSans-45"/>
      <path d="M 11.71875 12.40625 
L 22.015625 12.40625 
L 22.015625 4 
L 14.015625 -11.625 
L 7.71875 -11.625 
L 11.71875 4 
z
" id="DejaVuSans-44"/>
      <path d="M 44.28125 53.078125 
L 44.28125 44.578125 
Q 40.484375 46.53125 36.375 47.5 
Q 32.28125 48.484375 27.875 48.484375 
Q 21.1875 48.484375 17.84375 46.4375 
Q 14.5 44.390625 14.5 40.28125 
Q 14.5 37.15625 16.890625 35.375 
Q 19.28125 33.59375 26.515625 31.984375 
L 29.59375 31.296875 
Q 39.15625 29.25 43.1875 25.515625 
Q 47.21875 21.78125 47.21875 15.09375 
Q 47.21875 7.46875 41.1875 3.015625 
Q 35.15625 -1.421875 24.609375 -1.421875 
Q 20.21875 -1.421875 15.453125 -0.5625 
Q 10.6875 0.296875 5.421875 2 
L 5.421875 11.28125 
Q 10.40625 8.6875 15.234375 7.390625 
Q 20.0625 6.109375 24.8125 6.109375 
Q 31.15625 6.109375 34.5625 8.28125 
Q 37.984375 10.453125 37.984375 14.40625 
Q 37.984375 18.0625 35.515625 20.015625 
Q 33.0625 21.96875 24.703125 23.78125 
L 21.578125 24.515625 
Q 13.234375 26.265625 9.515625 29.90625 
Q 5.8125 33.546875 5.8125 39.890625 
Q 5.8125 47.609375 11.28125 51.796875 
Q 16.75 56 26.8125 56 
Q 31.78125 56 36.171875 55.265625 
Q 40.578125 54.546875 44.28125 53.078125 
z
" id="DejaVuSans-115"/>
      <path d="M 25.390625 72.90625 
L 33.6875 72.90625 
L 8.296875 -9.28125 
L 0 -9.28125 
z
" id="DejaVuSans-47"/>
      <path d="M 37.109375 75.984375 
L 37.109375 68.5 
L 28.515625 68.5 
Q 23.6875 68.5 21.796875 66.546875 
Q 19.921875 64.59375 19.921875 59.515625 
L 19.921875 54.6875 
L 34.71875 54.6875 
L 34.71875 47.703125 
L 19.921875 47.703125 
L 19.921875 0 
L 10.890625 0 
L 10.890625 47.703125 
L 2.296875 47.703125 
L 2.296875 54.6875 
L 10.890625 54.6875 
L 10.890625 58.5 
Q 10.890625 67.625 15.140625 71.796875 
Q 19.390625 75.984375 28.609375 75.984375 
z
" id="DejaVuSans-102"/>
      <path d="M 5.515625 54.6875 
L 48.1875 54.6875 
L 48.1875 46.484375 
L 14.40625 7.171875 
L 48.1875 7.171875 
L 48.1875 0 
L 4.296875 0 
L 4.296875 8.203125 
L 38.09375 47.515625 
L 5.515625 47.515625 
z
" id="DejaVuSans-122"/>
     </defs>
     <use xlink:href="#DejaVuSans-108"/>
     <use x="27.783203" xlink:href="#DejaVuSans-105"/>
     <use x="55.566406" xlink:href="#DejaVuSans-98"/>
     <use x="119.042969" xlink:href="#DejaVuSans-106"/>
     <use x="146.826172" xlink:href="#DejaVuSans-112"/>
     <use x="210.302734" xlink:href="#DejaVuSans-101"/>
     <use x="271.826172" xlink:href="#DejaVuSans-103"/>
     <use x="335.302734" xlink:href="#DejaVuSans-45"/>
     <use x="371.386719" xlink:href="#DejaVuSans-116"/>
     <use x="410.595703" xlink:href="#DejaVuSans-117"/>
     <use x="473.974609" xlink:href="#DejaVuSans-114"/>
     <use x="515.087891" xlink:href="#DejaVuSans-98"/>
     <use x="578.564453" xlink:href="#DejaVuSans-111"/>
     <use x="641.621094" xlink:href="#DejaVuSans-45"/>
     <use x="677.705078" xlink:href="#DejaVuSans-48"/>
     <use x="741.328125" xlink:href="#DejaVuSans-55"/>
     <use x="804.951172" xlink:href="#DejaVuSans-45"/>
     <use x="841.035156" xlink:href="#DejaVuSans-50"/>
     <use x="904.658203" xlink:href="#DejaVuSans-48"/>
     <use x="968.28125" xlink:href="#DejaVuSans-49"/>
     <use x="1031.904297" xlink:href="#DejaVuSans-55"/>
     <use x="1095.527344" xlink:href="#DejaVuSans-32"/>
     <use x="1127.314453" xlink:href="#DejaVuSans-40"/>
     <use x="1166.328125" xlink:href="#DejaVuSans-50"/>
     <use x="1229.951172" xlink:href="#DejaVuSans-51"/>
     <use x="1293.574219" xlink:href="#DejaVuSans-104"/>
     <use x="1356.953125" xlink:href="#DejaVuSans-44"/>
     <use x="1388.740234" xlink:href="#DejaVuSans-32"/>
     <use x="1420.527344" xlink:href="#DejaVuSans-50"/>
     <use x="1484.150391" xlink:href="#DejaVuSans-48"/>
     <use x="1547.773438" xlink:href="#DejaVuSans-32"/>
     <use x="1579.560547" xlink:href="#DejaVuSans-116"/>
     <use x="1618.769531" xlink:href="#DejaVuSans-114"/>
     <use x="1659.882812" xlink:href="#DejaVuSans-105"/>
     <use x="1687.666016" xlink:href="#DejaVuSans-97"/>
     <use x="1748.945312" xlink:href="#DejaVuSans-108"/>
     <use x="1776.728516" xlink:href="#DejaVuSans-115"/>
     <use x="1828.828125" xlink:href="#DejaVuSans-47"/>
     <use x="1862.519531" xlink:href="#DejaVuSans-102"/>
     <use x="1897.724609" xlink:href="#DejaVuSans-117"/>
     <use x="1961.103516" xlink:href="#DejaVuSans-122"/>
     <use x="2013.59375" xlink:href="#DejaVuSans-122"/>
     <use x="2066.083984" xlink:href="#DejaVuSans-101"/>
     <use x="2127.607422" xlink:href="#DejaVuSans-114"/>
     <use x="2168.720703" xlink:href="#DejaVuSans-41"/>
    </g>
   </g>
   <g id="legend_1">
    <g id="line2d_38">
     <path d="M 771.568125 30.416562 
L 791.568125 30.416562 
" style="fill:none;"/>
    </g>
    <g id="line2d_39"/>
    <g id="text_21">
     <!-- fuzzer -->
     <g transform="translate(799.568125 33.916562)scale(0.1 -0.1)">
      <use xlink:href="#DejaVuSans-102"/>
      <use x="35.205078" xlink:href="#DejaVuSans-117"/>
      <use x="98.583984" xlink:href="#DejaVuSans-122"/>
      <use x="151.074219" xlink:href="#DejaVuSans-122"/>
      <use x="203.564453" xlink:href="#DejaVuSans-101"/>
      <use x="265.087891" xlink:href="#DejaVuSans-114"/>
     </g>
    </g>
    <g id="line2d_40">
     <path d="M 771.568125 45.094688 
L 791.568125 45.094688 
" style="fill:none;stroke:#ff7f0e;stroke-linecap:square;stroke-width:1.5;"/>
    </g>
    <g id="line2d_41"/>
    <g id="text_22">
     <!-- entropic -->
     <g transform="translate(799.568125 48.594688)scale(0.1 -0.1)">
      <use xlink:href="#DejaVuSans-101"/>
      <use x="61.523438" xlink:href="#DejaVuSans-110"/>
      <use x="124.902344" xlink:href="#DejaVuSans-116"/>
      <use x="164.111328" xlink:href="#DejaVuSans-114"/>
      <use x="202.974609" xlink:href="#DejaVuSans-111"/>
      <use x="264.15625" xlink:href="#DejaVuSans-112"/>
      <use x="327.632812" xlink:href="#DejaVuSans-105"/>
      <use x="355.416016" xlink:href="#DejaVuSans-99"/>
     </g>
    </g>
    <g id="line2d_42">
     <path d="M 771.568125 59.772812 
L 791.568125 59.772812 
" style="fill:none;stroke:#1f77b4;stroke-linecap:square;stroke-width:1.5;"/>
    </g>
    <g id="line2d_43"/>
    <g id="text_23">
     <!-- aflplusplus -->
     <g transform="translate(799.568125 63.272812)scale(0.1 -0.1)">
      <use xlink:href="#DejaVuSans-97"/>
      <use x="61.279297" xlink:href="#DejaVuSans-102"/>
      <use x="96.484375" xlink:href="#DejaVuSans-108"/>
      <use x="124.267578" xlink:href="#DejaVuSans-112"/>
      <use x="187.744141" xlink:href="#DejaVuSans-108"/>
      <use x="215.527344" xlink:href="#DejaVuSans-117"/>
      <use x="278.90625" xlink:href="#DejaVuSans-115"/>
      <use x="331.005859" xlink:href="#DejaVuSans-112"/>
      <use x="394.482422" xlink:href="#DejaVuSans-108"/>
      <use x="422.265625" xlink:href="#DejaVuSans-117"/>
      <use x="485.644531" xlink:href="#DejaVuSans-115"/>
     </g>
    </g>
    <g id="line2d_44">
     <path d="M 771.568125 74.450938 
L 791.568125 74.450938 
" style="fill:none;stroke:#c5b0d5;stroke-linecap:square;stroke-width:1.5;"/>
    </g>
    <g id="line2d_45"/>
    <g id="text_24">
     <!-- mopt -->
     <g transform="translate(799.568125 77.950938)scale(0.1 -0.1)">
      <use xlink:href="#DejaVuSans-109"/>
      <use x="97.412109" xlink:href="#DejaVuSans-111"/>
      <use x="158.59375" xlink:href="#DejaVuSans-112"/>
      <use x="222.070312" xlink:href="#DejaVuSans-116"/>
     </g>
    </g>
    <g id="line2d_46">
     <path d="M 771.568125 89.129063 
L 791.568125 89.129063 
" style="fill:none;stroke:#2ca02c;stroke-linecap:square;stroke-width:1.5;"/>
    </g>
    <g id="line2d_47"/>
    <g id="text_25">
     <!-- libfuzzer -->
     <g transform="translate(799.568125 92.629063)scale(0.1 -0.1)">
      <use xlink:href="#DejaVuSans-108"/>
      <use x="27.783203" xlink:href="#DejaVuSans-105"/>
      <use x="55.566406" xlink:href="#DejaVuSans-98"/>
      <use x="119.042969" xlink:href="#DejaVuSans-102"/>
      <use x="154.248047" xlink:href="#DejaVuSans-117"/>
      <use x="217.626953" xlink:href="#DejaVuSans-122"/>
      <use x="270.117188" xlink:href="#DejaVuSans-122"/>
      <use x="322.607422" xlink:href="#DejaVuSans-101"/>
      <use x="384.130859" xlink:href="#DejaVuSans-114"/>
     </g>
    </g>
    <g id="line2d_48">
     <path d="M 771.568125 103.807187 
L 791.568125 103.807187 
" style="fill:none;stroke:#e377c2;stroke-linecap:square;stroke-width:1.5;"/>
    </g>
    <g id="line2d_49"/>
    <g id="text_26">
     <!-- honggfuzz -->
     <g transform="translate(799.568125 107.307187)scale(0.1 -0.1)">
      <use xlink:href="#DejaVuSans-104"/>
      <use x="63.378906" xlink:href="#DejaVuSans-111"/>
      <use x="124.560547" xlink:href="#DejaVuSans-110"/>
      <use x="187.939453" xlink:href="#DejaVuSans-103"/>
      <use x="251.416016" xlink:href="#DejaVuSans-103"/>
      <use x="314.892578" xlink:href="#DejaVuSans-102"/>
      <use x="350.097656" xlink:href="#DejaVuSans-117"/>
      <use x="413.476562" xlink:href="#DejaVuSans-122"/>
      <use x="465.966797" xlink:href="#DejaVuSans-122"/>
     </g>
    </g>
    <g id="line2d_50">
     <path d="M 771.568125 118.485313 
L 791.568125 118.485313 
" style="fill:none;stroke:#d62728;stroke-linecap:square;stroke-width:1.5;"/>
    </g>
    <g id="line2d_51"/>
    <g id="text_27">
     <!-- aflplusplus_qemu -->
     <g transform="translate(799.568125 121.985313)scale(0.1 -0.1)">
      <defs>
       <path d="M 50.984375 -16.609375 
L 50.984375 -23.578125 
L -0.984375 -23.578125 
L -0.984375 -16.609375 
z
" id="DejaVuSans-95"/>
       <path d="M 14.796875 27.296875 
Q 14.796875 17.390625 18.875 11.75 
Q 22.953125 6.109375 30.078125 6.109375 
Q 37.203125 6.109375 41.296875 11.75 
Q 45.40625 17.390625 45.40625 27.296875 
Q 45.40625 37.203125 41.296875 42.84375 
Q 37.203125 48.484375 30.078125 48.484375 
Q 22.953125 48.484375 18.875 42.84375 
Q 14.796875 37.203125 14.796875 27.296875 
z
M 45.40625 8.203125 
Q 42.578125 3.328125 38.25 0.953125 
Q 33.9375 -1.421875 27.875 -1.421875 
Q 17.96875 -1.421875 11.734375 6.484375 
Q 5.515625 14.40625 5.515625 27.296875 
Q 5.515625 40.1875 11.734375 48.09375 
Q 17.96875 56 27.875 56 
Q 33.9375 56 38.25 53.625 
Q 42.578125 51.265625 45.40625 46.390625 
L 45.40625 54.6875 
L 54.390625 54.6875 
L 54.390625 -20.796875 
L 45.40625 -20.796875 
z
" id="DejaVuSans-113"/>
      </defs>
      <use xlink:href="#DejaVuSans-97"/>
      <use x="61.279297" xlink:href="#DejaVuSans-102"/>
      <use x="96.484375" xlink:href="#DejaVuSans-108"/>
      <use x="124.267578" xlink:href="#DejaVuSans-112"/>
      <use x="187.744141" xlink:href="#DejaVuSans-108"/>
      <use x="215.527344" xlink:href="#DejaVuSans-117"/>
      <use x="278.90625" xlink:href="#DejaVuSans-115"/>
      <use x="331.005859" xlink:href="#DejaVuSans-112"/>
      <use x="394.482422" xlink:href="#DejaVuSans-108"/>
      <use x="422.265625" xlink:href="#DejaVuSans-117"/>
      <use x="485.644531" xlink:href="#DejaVuSans-115"/>
      <use x="537.744141" xlink:href="#DejaVuSans-95"/>
      <use x="587.744141" xlink:href="#DejaVuSans-113"/>
      <use x="651.220703" xlink:href="#DejaVuSans-101"/>
      <use x="712.744141" xlink:href="#DejaVuSans-109"/>
      <use x="810.15625" xlink:href="#DejaVuSans-117"/>
     </g>
    </g>
    <g id="line2d_52">
     <path d="M 771.568125 133.441563 
L 791.568125 133.441563 
" style="fill:none;stroke:#ff9896;stroke-linecap:square;stroke-width:1.5;"/>
    </g>
    <g id="line2d_53"/>
    <g id="text_28">
     <!-- fairfuzz -->
     <g transform="translate(799.568125 136.941563)scale(0.1 -0.1)">
      <use xlink:href="#DejaVuSans-102"/>
      <use x="35.205078" xlink:href="#DejaVuSans-97"/>
      <use x="96.484375" xlink:href="#DejaVuSans-105"/>
      <use x="124.267578" xlink:href="#DejaVuSans-114"/>
      <use x="165.380859" xlink:href="#DejaVuSans-102"/>
      <use x="200.585938" xlink:href="#DejaVuSans-117"/>
      <use x="263.964844" xlink:href="#DejaVuSans-122"/>
      <use x="316.455078" xlink:href="#DejaVuSans-122"/>
     </g>
    </g>
    <g id="line2d_54">
     <path d="M 771.568125 148.119687 
L 791.568125 148.119687 
" style="fill:none;stroke:#dbdb8d;stroke-linecap:square;stroke-width:1.5;"/>
    </g>
    <g id="line2d_55"/>
    <g id="text_29">
     <!-- lafintel -->
     <g transform="translate(799.568125 151.619687)scale(0.1 -0.1)">
      <use xlink:href="#DejaVuSans-108"/>
      <use x="27.783203" xlink:href="#DejaVuSans-97"/>
      <use x="89.0625" xlink:href="#DejaVuSans-102"/>
      <use x="124.267578" xlink:href="#DejaVuSans-105"/>
      <use x="152.050781" xlink:href="#DejaVuSans-110"/>
      <use x="215.429688" xlink:href="#DejaVuSans-116"/>
      <use x="254.638672" xlink:href="#DejaVuSans-101"/>
      <use x="316.162109" xlink:href="#DejaVuSans-108"/>
     </g>
    </g>
    <g id="line2d_56">
     <path d="M 771.568125 162.797812 
L 791.568125 162.797812 
" style="fill:none;stroke:#98df8a;stroke-linecap:square;stroke-width:1.5;"/>
    </g>
    <g id="line2d_57"/>
    <g id="text_30">
     <!-- aflplusplus_flat -->
     <g transform="translate(799.568125 166.297812)scale(0.1 -0.1)">
      <use xlink:href="#DejaVuSans-97"/>
      <use x="61.279297" xlink:href="#DejaVuSans-102"/>
      <use x="96.484375" xlink:href="#DejaVuSans-108"/>
      <use x="124.267578" xlink:href="#DejaVuSans-112"/>
      <use x="187.744141" xlink:href="#DejaVuSans-108"/>
      <use x="215.527344" xlink:href="#DejaVuSans-117"/>
      <use x="278.90625" xlink:href="#DejaVuSans-115"/>
      <use x="331.005859" xlink:href="#DejaVuSans-112"/>
      <use x="394.482422" xlink:href="#DejaVuSans-108"/>
      <use x="422.265625" xlink:href="#DejaVuSans-117"/>
      <use x="485.644531" xlink:href="#DejaVuSans-115"/>
      <use x="537.744141" xlink:href="#DejaVuSans-95"/>
      <use x="587.744141" xlink:href="#DejaVuSans-102"/>
      <use x="622.949219" xlink:href="#DejaVuSans-108"/>
      <use x="650.732422" xlink:href="#DejaVuSans-97"/>
      <use x="712.011719" xlink:href="#DejaVuSans-116"/>
     </g>
    </g>
   </g>
  </g>
 </g>
 <defs>
  <clipPath id="p7d72a48af5">
   <rect height="266.112" width="714.24" x="53.328125" y="22.318125"/>
  </clipPath>
 </defs>
</svg>
