<?xml version="1.0" encoding="utf-8" standalone="no"?>
<!DOCTYPE svg PUBLIC "-//W3C//DTD SVG 1.1//EN"
  "http://www.w3.org/Graphics/SVG/1.1/DTD/svg11.dtd">
<!-- Created with matplotlib (https://matplotlib.org/) -->
<svg height="368.607178pt" version="1.1" viewBox="0 0 424.010625 368.607178" width="424.010625pt" xmlns="http://www.w3.org/2000/svg" xmlns:xlink="http://www.w3.org/1999/xlink">
 <metadata>
  <rdf:RDF xmlns:cc="http://creativecommons.org/ns#" xmlns:dc="http://purl.org/dc/elements/1.1/" xmlns:rdf="http://www.w3.org/1999/02/22-rdf-syntax-ns#">
   <cc:Work>
    <dc:type rdf:resource="http://purl.org/dc/dcmitype/StillImage"/>
    <dc:date>2020-12-06T10:29:01.651086</dc:date>
    <dc:format>image/svg+xml</dc:format>
    <dc:creator>
     <cc:Agent>
      <dc:title>Matplotlib v3.3.3, https://matplotlib.org/</dc:title>
     </cc:Agent>
    </dc:creator>
   </cc:Work>
  </rdf:RDF>
 </metadata>
 <defs>
  <style type="text/css">*{stroke-linecap:butt;stroke-linejoin:round;}</style>
 </defs>
 <g id="figure_1">
  <g id="patch_1">
   <path d="M 0 368.607178 
L 424.010625 368.607178 
L 424.010625 0 
L 0 0 
z
" style="fill:#ffffff;"/>
  </g>
  <g id="axes_1">
   <g id="patch_2">
    <path d="M 59.690625 288.430125 
L 416.810625 288.430125 
L 416.810625 22.318125 
L 59.690625 22.318125 
z
" style="fill:#ffffff;"/>
   </g>
   <g id="PolyCollection_1">
    <defs>
     <path d="M 79.596133 -261.890398 
L 79.465117 -261.890398 
L 79.448646 -262.620728 
L 79.429063 -263.351058 
L 79.406055 -264.081388 
L 79.379343 -264.811718 
L 79.348699 -265.542048 
L 79.313964 -266.272377 
L 79.275064 -267.002707 
L 79.232027 -267.733037 
L 79.184992 -268.463367 
L 79.134218 -269.193697 
L 79.080088 -269.924027 
L 79.023102 -270.654357 
L 78.963868 -271.384686 
L 78.903089 -272.115016 
L 78.841535 -272.845346 
L 78.78002 -273.575676 
L 78.719366 -274.306006 
L 78.660373 -275.036336 
L 78.603781 -275.766665 
L 78.550234 -276.496995 
L 78.500251 -277.227325 
L 78.454195 -277.957655 
L 78.412249 -278.687985 
L 78.374398 -279.418315 
L 78.340421 -280.148645 
L 78.309883 -280.878974 
L 78.282143 -281.609304 
L 78.25636 -282.339634 
L 78.231521 -283.069964 
L 78.206457 -283.800294 
L 78.179887 -284.530624 
L 78.150453 -285.260953 
L 78.116772 -285.991283 
L 78.077484 -286.721613 
L 78.031314 -287.451943 
L 77.977129 -288.182273 
L 77.913994 -288.912603 
L 77.841233 -289.642932 
L 77.758471 -290.373262 
L 77.665677 -291.103592 
L 77.563186 -291.833922 
L 77.451712 -292.564252 
L 77.332332 -293.294582 
L 77.206466 -294.024912 
L 77.075822 -294.755241 
L 76.94234 -295.485571 
L 76.80811 -296.215901 
L 76.675292 -296.946231 
L 76.546024 -297.676561 
L 76.422343 -298.406891 
L 76.306103 -299.13722 
L 76.198922 -299.86755 
L 76.102133 -300.59788 
L 76.016766 -301.32821 
L 75.943545 -302.05854 
L 75.882909 -302.78887 
L 75.835048 -303.519199 
L 75.799949 -304.249529 
L 75.777451 -304.979859 
L 75.767302 -305.710189 
L 75.769208 -306.440519 
L 75.782877 -307.170849 
L 75.808045 -307.901179 
L 75.844494 -308.631508 
L 75.892051 -309.361838 
L 75.950578 -310.092168 
L 76.019945 -310.822498 
L 76.100002 -311.552828 
L 76.190547 -312.283158 
L 76.291289 -313.013487 
L 76.401819 -313.743817 
L 76.521588 -314.474147 
L 76.649892 -315.204477 
L 76.785863 -315.934807 
L 76.928479 -316.665137 
L 77.07657 -317.395467 
L 77.228845 -318.125796 
L 77.38392 -318.856126 
L 77.540344 -319.586456 
L 77.696644 -320.316786 
L 77.851356 -321.047116 
L 78.003066 -321.777446 
L 78.150441 -322.507775 
L 78.292265 -323.238105 
L 78.427466 -323.968435 
L 78.555133 -324.698765 
L 78.67454 -325.429095 
L 78.78515 -326.159425 
L 78.88662 -326.889754 
L 78.978795 -327.620084 
L 79.0617 -328.350414 
L 79.135524 -329.080744 
L 79.2006 -329.811074 
L 79.257382 -330.541404 
L 79.306417 -331.271734 
L 79.348325 -332.002063 
L 79.383767 -332.732393 
L 79.413425 -333.462723 
L 79.43798 -334.193053 
L 79.62327 -334.193053 
L 79.62327 -334.193053 
L 79.647825 -333.462723 
L 79.677483 -332.732393 
L 79.712925 -332.002063 
L 79.754833 -331.271734 
L 79.803868 -330.541404 
L 79.86065 -329.811074 
L 79.925726 -329.080744 
L 79.99955 -328.350414 
L 80.082455 -327.620084 
L 80.17463 -326.889754 
L 80.2761 -326.159425 
L 80.38671 -325.429095 
L 80.506117 -324.698765 
L 80.633784 -323.968435 
L 80.768985 -323.238105 
L 80.910809 -322.507775 
L 81.058184 -321.777446 
L 81.209894 -321.047116 
L 81.364606 -320.316786 
L 81.520906 -319.586456 
L 81.67733 -318.856126 
L 81.832405 -318.125796 
L 81.98468 -317.395467 
L 82.132771 -316.665137 
L 82.275387 -315.934807 
L 82.411358 -315.204477 
L 82.539662 -314.474147 
L 82.659431 -313.743817 
L 82.769961 -313.013487 
L 82.870703 -312.283158 
L 82.961248 -311.552828 
L 83.041305 -310.822498 
L 83.110672 -310.092168 
L 83.169199 -309.361838 
L 83.216756 -308.631508 
L 83.253205 -307.901179 
L 83.278373 -307.170849 
L 83.292042 -306.440519 
L 83.293948 -305.710189 
L 83.283799 -304.979859 
L 83.261301 -304.249529 
L 83.226202 -303.519199 
L 83.178341 -302.78887 
L 83.117705 -302.05854 
L 83.044484 -301.32821 
L 82.959117 -300.59788 
L 82.862328 -299.86755 
L 82.755147 -299.13722 
L 82.638907 -298.406891 
L 82.515226 -297.676561 
L 82.385958 -296.946231 
L 82.25314 -296.215901 
L 82.11891 -295.485571 
L 81.985428 -294.755241 
L 81.854784 -294.024912 
L 81.728918 -293.294582 
L 81.609538 -292.564252 
L 81.498064 -291.833922 
L 81.395573 -291.103592 
L 81.302779 -290.373262 
L 81.220017 -289.642932 
L 81.147256 -288.912603 
L 81.084121 -288.182273 
L 81.029936 -287.451943 
L 80.983766 -286.721613 
L 80.944478 -285.991283 
L 80.910797 -285.260953 
L 80.881363 -284.530624 
L 80.854793 -283.800294 
L 80.829729 -283.069964 
L 80.80489 -282.339634 
L 80.779107 -281.609304 
L 80.751367 -280.878974 
L 80.720829 -280.148645 
L 80.686852 -279.418315 
L 80.649001 -278.687985 
L 80.607055 -277.957655 
L 80.560999 -277.227325 
L 80.511016 -276.496995 
L 80.457469 -275.766665 
L 80.400877 -275.036336 
L 80.341884 -274.306006 
L 80.28123 -273.575676 
L 80.219715 -272.845346 
L 80.158161 -272.115016 
L 80.097382 -271.384686 
L 80.038148 -270.654357 
L 79.981162 -269.924027 
L 79.927032 -269.193697 
L 79.876258 -268.463367 
L 79.829223 -267.733037 
L 79.786186 -267.002707 
L 79.747286 -266.272377 
L 79.712551 -265.542048 
L 79.681907 -264.811718 
L 79.655195 -264.081388 
L 79.632187 -263.351058 
L 79.612604 -262.620728 
L 79.596133 -261.890398 
z
" id="m7bb26f46e4" style="stroke:#3d3d3d;stroke-width:1.5;"/>
    </defs>
    <g clip-path="url(#p536d32f20f)">
     <use style="fill:#3274a1;stroke:#3d3d3d;stroke-width:1.5;" x="0" xlink:href="#m7bb26f46e4" y="368.607178"/>
    </g>
   </g>
   <g id="PolyCollection_2">
    <defs>
     <path d="M 119.258992 -184.605923 
L 119.162258 -184.605923 
L 119.151199 -185.958531 
L 119.138262 -187.311139 
L 119.123287 -188.663747 
L 119.10614 -190.016354 
L 119.086714 -191.368962 
L 119.064945 -192.72157 
L 119.040814 -194.074178 
L 119.014356 -195.426786 
L 118.985666 -196.779394 
L 118.9549 -198.132002 
L 118.922277 -199.48461 
L 118.888071 -200.837218 
L 118.852613 -202.189826 
L 118.816274 -203.542434 
L 118.779458 -204.895042 
L 118.742584 -206.24765 
L 118.70607 -207.600258 
L 118.670319 -208.952866 
L 118.635696 -210.305474 
L 118.602513 -211.658081 
L 118.571012 -213.010689 
L 118.541355 -214.363297 
L 118.51361 -215.715905 
L 118.487746 -217.068513 
L 118.463635 -218.421121 
L 118.44105 -219.773729 
L 118.419677 -221.126337 
L 118.399123 -222.478945 
L 118.378939 -223.831553 
L 118.358637 -225.184161 
L 118.337711 -226.536769 
L 118.315667 -227.889377 
L 118.292045 -229.241985 
L 118.266446 -230.594593 
L 118.238552 -231.947201 
L 118.208147 -233.299809 
L 118.175135 -234.652416 
L 118.139541 -236.005024 
L 118.101519 -237.357632 
L 118.061347 -238.71024 
L 118.01941 -240.062848 
L 117.976189 -241.415456 
L 117.932232 -242.768064 
L 117.888126 -244.120672 
L 117.844469 -245.47328 
L 117.801841 -246.825888 
L 117.760771 -248.178496 
L 117.721717 -249.531104 
L 117.685045 -250.883712 
L 117.651023 -252.23632 
L 117.619814 -253.588928 
L 117.591481 -254.941536 
L 117.566006 -256.294143 
L 117.543308 -257.646751 
L 117.523264 -258.999359 
L 117.505744 -260.351967 
L 117.490634 -261.704575 
L 117.477862 -263.057183 
L 117.467423 -264.409791 
L 117.459391 -265.762399 
L 117.453925 -267.115007 
L 117.451273 -268.467615 
L 117.451761 -269.820223 
L 117.455777 -271.172831 
L 117.463746 -272.525439 
L 117.476111 -273.878047 
L 117.493298 -275.230655 
L 117.515687 -276.583263 
L 117.543589 -277.93587 
L 117.57722 -279.288478 
L 117.616681 -280.641086 
L 117.661945 -281.993694 
L 117.712854 -283.346302 
L 117.769112 -284.69891 
L 117.830297 -286.051518 
L 117.89587 -287.404126 
L 117.965189 -288.756734 
L 118.037532 -290.109342 
L 118.112115 -291.46195 
L 118.18812 -292.814558 
L 118.264715 -294.167166 
L 118.341078 -295.519774 
L 118.41642 -296.872382 
L 118.490001 -298.22499 
L 118.56115 -299.577597 
L 118.629277 -300.930205 
L 118.693885 -302.282813 
L 118.754573 -303.635421 
L 118.81104 -304.988029 
L 118.863087 -306.340637 
L 118.910611 -307.693245 
L 118.953601 -309.045853 
L 118.992126 -310.398461 
L 119.026327 -311.751069 
L 119.056405 -313.103677 
L 119.08261 -314.456285 
L 119.105224 -315.808893 
L 119.124557 -317.161501 
L 119.140927 -318.514109 
L 119.280323 -318.514109 
L 119.280323 -318.514109 
L 119.296693 -317.161501 
L 119.316026 -315.808893 
L 119.33864 -314.456285 
L 119.364845 -313.103677 
L 119.394923 -311.751069 
L 119.429124 -310.398461 
L 119.467649 -309.045853 
L 119.510639 -307.693245 
L 119.558163 -306.340637 
L 119.61021 -304.988029 
L 119.666677 -303.635421 
L 119.727365 -302.282813 
L 119.791973 -300.930205 
L 119.8601 -299.577597 
L 119.931249 -298.22499 
L 120.00483 -296.872382 
L 120.080172 -295.519774 
L 120.156535 -294.167166 
L 120.23313 -292.814558 
L 120.309135 -291.46195 
L 120.383718 -290.109342 
L 120.456061 -288.756734 
L 120.52538 -287.404126 
L 120.590953 -286.051518 
L 120.652138 -284.69891 
L 120.708396 -283.346302 
L 120.759305 -281.993694 
L 120.804569 -280.641086 
L 120.84403 -279.288478 
L 120.877661 -277.93587 
L 120.905563 -276.583263 
L 120.927952 -275.230655 
L 120.945139 -273.878047 
L 120.957504 -272.525439 
L 120.965473 -271.172831 
L 120.969489 -269.820223 
L 120.969977 -268.467615 
L 120.967325 -267.115007 
L 120.961859 -265.762399 
L 120.953827 -264.409791 
L 120.943388 -263.057183 
L 120.930616 -261.704575 
L 120.915506 -260.351967 
L 120.897986 -258.999359 
L 120.877942 -257.646751 
L 120.855244 -256.294143 
L 120.829769 -254.941536 
L 120.801436 -253.588928 
L 120.770227 -252.23632 
L 120.736205 -250.883712 
L 120.699533 -249.531104 
L 120.660479 -248.178496 
L 120.619409 -246.825888 
L 120.576781 -245.47328 
L 120.533124 -244.120672 
L 120.489018 -242.768064 
L 120.445061 -241.415456 
L 120.40184 -240.062848 
L 120.359903 -238.71024 
L 120.319731 -237.357632 
L 120.281709 -236.005024 
L 120.246115 -234.652416 
L 120.213103 -233.299809 
L 120.182698 -231.947201 
L 120.154804 -230.594593 
L 120.129205 -229.241985 
L 120.105583 -227.889377 
L 120.083539 -226.536769 
L 120.062613 -225.184161 
L 120.042311 -223.831553 
L 120.022127 -222.478945 
L 120.001573 -221.126337 
L 119.9802 -219.773729 
L 119.957615 -218.421121 
L 119.933504 -217.068513 
L 119.90764 -215.715905 
L 119.879895 -214.363297 
L 119.850238 -213.010689 
L 119.818737 -211.658081 
L 119.785554 -210.305474 
L 119.750931 -208.952866 
L 119.71518 -207.600258 
L 119.678666 -206.24765 
L 119.641792 -204.895042 
L 119.604976 -203.542434 
L 119.568637 -202.189826 
L 119.533179 -200.837218 
L 119.498973 -199.48461 
L 119.46635 -198.132002 
L 119.435584 -196.779394 
L 119.406894 -195.426786 
L 119.380436 -194.074178 
L 119.356305 -192.72157 
L 119.334536 -191.368962 
L 119.31511 -190.016354 
L 119.297963 -188.663747 
L 119.282988 -187.311139 
L 119.270051 -185.958531 
L 119.258992 -184.605923 
z
" id="mbbb614e630" style="stroke:#3d3d3d;stroke-width:1.5;"/>
    </defs>
    <g clip-path="url(#p536d32f20f)">
     <use style="fill:#e1812c;stroke:#3d3d3d;stroke-width:1.5;" x="0" xlink:href="#mbbb614e630" y="368.607178"/>
    </g>
   </g>
   <g id="PolyCollection_3">
    <defs>
     <path d="M 158.923689 -115.463501 
L 158.857561 -115.463501 
L 158.849705 -117.508597 
L 158.840472 -119.553694 
L 158.829749 -121.59879 
L 158.817443 -123.643886 
L 158.803495 -125.688982 
L 158.787879 -127.734078 
L 158.770621 -129.779175 
L 158.751794 -131.824271 
L 158.731531 -133.869367 
L 158.710023 -135.914463 
L 158.687522 -137.959559 
L 158.664332 -140.004656 
L 158.640808 -142.049752 
L 158.617342 -144.094848 
L 158.594349 -146.139944 
L 158.572255 -148.18504 
L 158.551474 -150.230137 
L 158.532393 -152.275233 
L 158.515352 -154.320329 
L 158.500629 -156.365425 
L 158.488421 -158.410522 
L 158.478836 -160.455618 
L 158.471883 -162.500714 
L 158.467469 -164.54581 
L 158.4654 -166.590906 
L 158.465387 -168.636003 
L 158.467052 -170.681099 
L 158.469945 -172.726195 
L 158.473553 -174.771291 
L 158.47732 -176.816387 
L 158.480666 -178.861484 
L 158.482998 -180.90658 
L 158.483734 -182.951676 
L 158.482316 -184.996772 
L 158.478225 -187.041868 
L 158.470995 -189.086965 
L 158.460224 -191.132061 
L 158.445587 -193.177157 
L 158.426845 -195.222253 
L 158.403848 -197.267349 
L 158.376546 -199.312446 
L 158.344989 -201.357542 
L 158.309329 -203.402638 
L 158.269816 -205.447734 
L 158.226797 -207.492831 
L 158.180706 -209.537927 
L 158.132054 -211.583023 
L 158.081414 -213.628119 
L 158.029409 -215.673215 
L 157.976696 -217.718312 
L 157.923943 -219.763408 
L 157.871819 -221.808504 
L 157.820975 -223.8536 
L 157.772032 -225.898696 
L 157.725569 -227.943793 
L 157.682119 -229.988889 
L 157.642162 -232.033985 
L 157.606127 -234.079081 
L 157.574392 -236.124177 
L 157.547287 -238.169274 
L 157.525101 -240.21437 
L 157.508084 -242.259466 
L 157.496453 -244.304562 
L 157.490389 -246.349659 
L 157.490042 -248.394755 
L 157.495523 -250.439851 
L 157.506902 -252.484947 
L 157.524199 -254.530043 
L 157.547377 -256.57514 
L 157.57633 -258.620236 
L 157.610879 -260.665332 
L 157.650765 -262.710428 
L 157.695643 -264.755524 
L 157.745085 -266.800621 
L 157.798582 -268.845717 
L 157.855552 -270.890813 
L 157.915349 -272.935909 
L 157.977282 -274.981005 
L 158.040626 -277.026102 
L 158.104645 -279.071198 
L 158.168609 -281.116294 
L 158.231814 -283.16139 
L 158.293601 -285.206486 
L 158.353368 -287.251583 
L 158.410587 -289.296679 
L 158.464813 -291.341775 
L 158.515688 -293.386871 
L 158.562948 -295.431968 
L 158.606419 -297.477064 
L 158.646016 -299.52216 
L 158.681734 -301.567256 
L 158.713642 -303.612352 
L 158.741873 -305.657449 
L 158.766611 -307.702545 
L 158.788079 -309.747641 
L 158.806531 -311.792737 
L 158.822238 -313.837833 
L 158.83548 -315.88293 
L 158.846536 -317.928026 
L 158.934714 -317.928026 
L 158.934714 -317.928026 
L 158.94577 -315.88293 
L 158.959012 -313.837833 
L 158.974719 -311.792737 
L 158.993171 -309.747641 
L 159.014639 -307.702545 
L 159.039377 -305.657449 
L 159.067608 -303.612352 
L 159.099516 -301.567256 
L 159.135234 -299.52216 
L 159.174831 -297.477064 
L 159.218302 -295.431968 
L 159.265562 -293.386871 
L 159.316437 -291.341775 
L 159.370663 -289.296679 
L 159.427882 -287.251583 
L 159.487649 -285.206486 
L 159.549436 -283.16139 
L 159.612641 -281.116294 
L 159.676605 -279.071198 
L 159.740624 -277.026102 
L 159.803968 -274.981005 
L 159.865901 -272.935909 
L 159.925698 -270.890813 
L 159.982668 -268.845717 
L 160.036165 -266.800621 
L 160.085607 -264.755524 
L 160.130485 -262.710428 
L 160.170371 -260.665332 
L 160.20492 -258.620236 
L 160.233873 -256.57514 
L 160.257051 -254.530043 
L 160.274348 -252.484947 
L 160.285727 -250.439851 
L 160.291208 -248.394755 
L 160.290861 -246.349659 
L 160.284797 -244.304562 
L 160.273166 -242.259466 
L 160.256149 -240.21437 
L 160.233963 -238.169274 
L 160.206858 -236.124177 
L 160.175123 -234.079081 
L 160.139088 -232.033985 
L 160.099131 -229.988889 
L 160.055681 -227.943793 
L 160.009218 -225.898696 
L 159.960275 -223.8536 
L 159.909431 -221.808504 
L 159.857307 -219.763408 
L 159.804554 -217.718312 
L 159.751841 -215.673215 
L 159.699836 -213.628119 
L 159.649196 -211.583023 
L 159.600544 -209.537927 
L 159.554453 -207.492831 
L 159.511434 -205.447734 
L 159.471921 -203.402638 
L 159.436261 -201.357542 
L 159.404704 -199.312446 
L 159.377402 -197.267349 
L 159.354405 -195.222253 
L 159.335663 -193.177157 
L 159.321026 -191.132061 
L 159.310255 -189.086965 
L 159.303025 -187.041868 
L 159.298934 -184.996772 
L 159.297516 -182.951676 
L 159.298252 -180.90658 
L 159.300584 -178.861484 
L 159.30393 -176.816387 
L 159.307697 -174.771291 
L 159.311305 -172.726195 
L 159.314198 -170.681099 
L 159.315863 -168.636003 
L 159.31585 -166.590906 
L 159.313781 -164.54581 
L 159.309367 -162.500714 
L 159.302414 -160.455618 
L 159.292829 -158.410522 
L 159.280621 -156.365425 
L 159.265898 -154.320329 
L 159.248857 -152.275233 
L 159.229776 -150.230137 
L 159.208995 -148.18504 
L 159.186901 -146.139944 
L 159.163908 -144.094848 
L 159.140442 -142.049752 
L 159.116918 -140.004656 
L 159.093728 -137.959559 
L 159.071227 -135.914463 
L 159.049719 -133.869367 
L 159.029456 -131.824271 
L 159.010629 -129.779175 
L 158.993371 -127.734078 
L 158.977755 -125.688982 
L 158.963807 -123.643886 
L 158.951501 -121.59879 
L 158.940778 -119.553694 
L 158.931545 -117.508597 
L 158.923689 -115.463501 
z
" id="m8e436283ac" style="stroke:#3d3d3d;stroke-width:1.5;"/>
    </defs>
    <g clip-path="url(#p536d32f20f)">
     <use style="fill:#c03d3e;stroke:#3d3d3d;stroke-width:1.5;" x="0" xlink:href="#m8e436283ac" y="368.607178"/>
    </g>
   </g>
   <g id="PolyCollection_4">
    <defs>
     <path d="M 198.5964 -141.157518 
L 198.54485 -141.157518 
L 198.538579 -142.630509 
L 198.531261 -144.103499 
L 198.522848 -145.57649 
L 198.513323 -147.04948 
L 198.502703 -148.522471 
L 198.491044 -149.995462 
L 198.478442 -151.468452 
L 198.465029 -152.941443 
L 198.450971 -154.414433 
L 198.436455 -155.887424 
L 198.421678 -157.360414 
L 198.406832 -158.833405 
L 198.392085 -160.306395 
L 198.377564 -161.779386 
L 198.36334 -163.252377 
L 198.349412 -164.725367 
L 198.335703 -166.198358 
L 198.322057 -167.671348 
L 198.308244 -169.144339 
L 198.293976 -170.617329 
L 198.278928 -172.09032 
L 198.262764 -173.56331 
L 198.24517 -175.036301 
L 198.225888 -176.509292 
L 198.204745 -177.982282 
L 198.181676 -179.455273 
L 198.156749 -180.928263 
L 198.130163 -182.401254 
L 198.102245 -183.874244 
L 198.073431 -185.347235 
L 198.044234 -186.820225 
L 198.015197 -188.293216 
L 197.986848 -189.766207 
L 197.959645 -191.239197 
L 197.933922 -192.712188 
L 197.909846 -194.185178 
L 197.88738 -195.658169 
L 197.866262 -197.131159 
L 197.846006 -198.60415 
L 197.825911 -200.07714 
L 197.805097 -201.550131 
L 197.782555 -203.023121 
L 197.757204 -204.496112 
L 197.727963 -205.969103 
L 197.693826 -207.442093 
L 197.653926 -208.915084 
L 197.607602 -210.388074 
L 197.554453 -211.861065 
L 197.49437 -213.334055 
L 197.427559 -214.807046 
L 197.354543 -216.280036 
L 197.276144 -217.753027 
L 197.19346 -219.226018 
L 197.107812 -220.699008 
L 197.020702 -222.171999 
L 196.933744 -223.644989 
L 196.84861 -225.11798 
L 196.766968 -226.59097 
L 196.690428 -228.063961 
L 196.620492 -229.536951 
L 196.558512 -231.009942 
L 196.505665 -232.482933 
L 196.462927 -233.955923 
L 196.431061 -235.428914 
L 196.410617 -236.901904 
L 196.401933 -238.374895 
L 196.405144 -239.847885 
L 196.420196 -241.320876 
L 196.446862 -242.793866 
L 196.484754 -244.266857 
L 196.533343 -245.739848 
L 196.591972 -247.212838 
L 196.659868 -248.685829 
L 196.736156 -250.158819 
L 196.819865 -251.63181 
L 196.909949 -253.1048 
L 197.005286 -254.577791 
L 197.104704 -256.050781 
L 197.206988 -257.523772 
L 197.310904 -258.996762 
L 197.415219 -260.469753 
L 197.518726 -261.942744 
L 197.620271 -263.415734 
L 197.718776 -264.888725 
L 197.813271 -266.361715 
L 197.90291 -267.834706 
L 197.986995 -269.307696 
L 198.064984 -270.780687 
L 198.136504 -272.253677 
L 198.201345 -273.726668 
L 198.259458 -275.199659 
L 198.310942 -276.672649 
L 198.356023 -278.14564 
L 198.395037 -279.61863 
L 198.428405 -281.091621 
L 198.456607 -282.564611 
L 198.480161 -284.037602 
L 198.499599 -285.510592 
L 198.515449 -286.983583 
L 198.625801 -286.983583 
L 198.625801 -286.983583 
L 198.641651 -285.510592 
L 198.661089 -284.037602 
L 198.684643 -282.564611 
L 198.712845 -281.091621 
L 198.746213 -279.61863 
L 198.785227 -278.14564 
L 198.830308 -276.672649 
L 198.881792 -275.199659 
L 198.939905 -273.726668 
L 199.004746 -272.253677 
L 199.076266 -270.780687 
L 199.154255 -269.307696 
L 199.23834 -267.834706 
L 199.327979 -266.361715 
L 199.422474 -264.888725 
L 199.520979 -263.415734 
L 199.622524 -261.942744 
L 199.726031 -260.469753 
L 199.830346 -258.996762 
L 199.934262 -257.523772 
L 200.036546 -256.050781 
L 200.135964 -254.577791 
L 200.231301 -253.1048 
L 200.321385 -251.63181 
L 200.405094 -250.158819 
L 200.481382 -248.685829 
L 200.549278 -247.212838 
L 200.607907 -245.739848 
L 200.656496 -244.266857 
L 200.694388 -242.793866 
L 200.721054 -241.320876 
L 200.736106 -239.847885 
L 200.739317 -238.374895 
L 200.730633 -236.901904 
L 200.710189 -235.428914 
L 200.678323 -233.955923 
L 200.635585 -232.482933 
L 200.582738 -231.009942 
L 200.520758 -229.536951 
L 200.450822 -228.063961 
L 200.374282 -226.59097 
L 200.29264 -225.11798 
L 200.207506 -223.644989 
L 200.120548 -222.171999 
L 200.033438 -220.699008 
L 199.94779 -219.226018 
L 199.865106 -217.753027 
L 199.786707 -216.280036 
L 199.713691 -214.807046 
L 199.64688 -213.334055 
L 199.586797 -211.861065 
L 199.533648 -210.388074 
L 199.487324 -208.915084 
L 199.447424 -207.442093 
L 199.413287 -205.969103 
L 199.384046 -204.496112 
L 199.358695 -203.023121 
L 199.336153 -201.550131 
L 199.315339 -200.07714 
L 199.295244 -198.60415 
L 199.274988 -197.131159 
L 199.25387 -195.658169 
L 199.231404 -194.185178 
L 199.207328 -192.712188 
L 199.181605 -191.239197 
L 199.154402 -189.766207 
L 199.126053 -188.293216 
L 199.097016 -186.820225 
L 199.067819 -185.347235 
L 199.039005 -183.874244 
L 199.011087 -182.401254 
L 198.984501 -180.928263 
L 198.959574 -179.455273 
L 198.936505 -177.982282 
L 198.915362 -176.509292 
L 198.89608 -175.036301 
L 198.878486 -173.56331 
L 198.862322 -172.09032 
L 198.847274 -170.617329 
L 198.833006 -169.144339 
L 198.819193 -167.671348 
L 198.805547 -166.198358 
L 198.791838 -164.725367 
L 198.77791 -163.252377 
L 198.763686 -161.779386 
L 198.749165 -160.306395 
L 198.734418 -158.833405 
L 198.719572 -157.360414 
L 198.704795 -155.887424 
L 198.690279 -154.414433 
L 198.676221 -152.941443 
L 198.662808 -151.468452 
L 198.650206 -149.995462 
L 198.638547 -148.522471 
L 198.627927 -147.04948 
L 198.618402 -145.57649 
L 198.609989 -144.103499 
L 198.602671 -142.630509 
L 198.5964 -141.157518 
z
" id="me4a6d17ecf" style="stroke:#3d3d3d;stroke-width:1.5;"/>
    </defs>
    <g clip-path="url(#p536d32f20f)">
     <use style="fill:#c4b5d0;stroke:#3d3d3d;stroke-width:1.5;" x="0" xlink:href="#me4a6d17ecf" y="368.607178"/>
    </g>
   </g>
   <g id="PolyCollection_5">
    <defs>
     <path d="M 238.316417 -122.783664 
L 238.184833 -122.783664 
L 238.168614 -124.546972 
L 238.14928 -126.31028 
L 238.126465 -128.073587 
L 238.099817 -129.836895 
L 238.069009 -131.600203 
L 238.033764 -133.363511 
L 237.993861 -135.126818 
L 237.949165 -136.890126 
L 237.899639 -138.653434 
L 237.845357 -140.416742 
L 237.786528 -142.180049 
L 237.723493 -143.943357 
L 237.656741 -145.706665 
L 237.586903 -147.469973 
L 237.514747 -149.23328 
L 237.441167 -150.996588 
L 237.367162 -152.759896 
L 237.293812 -154.523204 
L 237.222249 -156.286511 
L 237.153625 -158.049819 
L 237.089074 -159.813127 
L 237.029675 -161.576435 
L 236.976418 -163.339742 
L 236.930168 -165.10305 
L 236.89164 -166.866358 
L 236.861367 -168.629666 
L 236.839688 -170.392974 
L 236.826736 -172.156281 
L 236.822432 -173.919589 
L 236.826488 -175.682897 
L 236.838421 -177.446205 
L 236.857567 -179.209512 
L 236.883105 -180.97282 
L 236.914084 -182.736128 
L 236.949456 -184.499436 
L 236.988104 -186.262743 
L 237.028883 -188.026051 
L 237.070652 -189.789359 
L 237.112307 -191.552667 
L 237.152813 -193.315974 
L 237.191235 -195.079282 
L 237.226763 -196.84259 
L 237.258731 -198.605898 
L 237.286636 -200.369205 
L 237.310144 -202.132513 
L 237.329099 -203.895821 
L 237.34352 -205.659129 
L 237.353594 -207.422436 
L 237.359661 -209.185744 
L 237.362197 -210.949052 
L 237.361794 -212.71236 
L 237.359126 -214.475667 
L 237.354927 -216.238975 
L 237.349959 -218.002283 
L 237.344976 -219.765591 
L 237.340704 -221.528898 
L 237.337806 -223.292206 
L 237.336866 -225.055514 
L 237.338367 -226.818822 
L 237.342682 -228.582129 
L 237.350067 -230.345437 
L 237.360657 -232.108745 
L 237.374477 -233.872053 
L 237.39145 -235.63536 
L 237.411407 -237.398668 
L 237.434111 -239.161976 
L 237.459269 -240.925284 
L 237.486555 -242.688591 
L 237.515625 -244.451899 
L 237.546135 -246.215207 
L 237.577754 -247.978515 
L 237.610171 -249.741822 
L 237.643105 -251.50513 
L 237.676308 -253.268438 
L 237.709562 -255.031746 
L 237.742679 -256.795053 
L 237.775498 -258.558361 
L 237.807876 -260.321669 
L 237.839688 -262.084977 
L 237.870816 -263.848284 
L 237.901148 -265.611592 
L 237.930578 -267.3749 
L 237.958998 -269.138208 
L 237.986304 -270.901516 
L 238.012395 -272.664823 
L 238.037176 -274.428131 
L 238.06056 -276.191439 
L 238.082474 -277.954747 
L 238.102859 -279.718054 
L 238.121674 -281.481362 
L 238.138901 -283.24467 
L 238.154541 -285.007978 
L 238.168618 -286.771285 
L 238.181174 -288.534593 
L 238.192273 -290.297901 
L 238.201993 -292.061209 
L 238.210425 -293.824516 
L 238.21767 -295.587824 
L 238.223837 -297.351132 
L 238.277413 -297.351132 
L 238.277413 -297.351132 
L 238.28358 -295.587824 
L 238.290825 -293.824516 
L 238.299257 -292.061209 
L 238.308977 -290.297901 
L 238.320076 -288.534593 
L 238.332632 -286.771285 
L 238.346709 -285.007978 
L 238.362349 -283.24467 
L 238.379576 -281.481362 
L 238.398391 -279.718054 
L 238.418776 -277.954747 
L 238.44069 -276.191439 
L 238.464074 -274.428131 
L 238.488855 -272.664823 
L 238.514946 -270.901516 
L 238.542252 -269.138208 
L 238.570672 -267.3749 
L 238.600102 -265.611592 
L 238.630434 -263.848284 
L 238.661562 -262.084977 
L 238.693374 -260.321669 
L 238.725752 -258.558361 
L 238.758571 -256.795053 
L 238.791688 -255.031746 
L 238.824942 -253.268438 
L 238.858145 -251.50513 
L 238.891079 -249.741822 
L 238.923496 -247.978515 
L 238.955115 -246.215207 
L 238.985625 -244.451899 
L 239.014695 -242.688591 
L 239.041981 -240.925284 
L 239.067139 -239.161976 
L 239.089843 -237.398668 
L 239.1098 -235.63536 
L 239.126773 -233.872053 
L 239.140593 -232.108745 
L 239.151183 -230.345437 
L 239.158568 -228.582129 
L 239.162883 -226.818822 
L 239.164384 -225.055514 
L 239.163444 -223.292206 
L 239.160546 -221.528898 
L 239.156274 -219.765591 
L 239.151291 -218.002283 
L 239.146323 -216.238975 
L 239.142124 -214.475667 
L 239.139456 -212.71236 
L 239.139053 -210.949052 
L 239.141589 -209.185744 
L 239.147656 -207.422436 
L 239.15773 -205.659129 
L 239.172151 -203.895821 
L 239.191106 -202.132513 
L 239.214614 -200.369205 
L 239.242519 -198.605898 
L 239.274487 -196.84259 
L 239.310015 -195.079282 
L 239.348437 -193.315974 
L 239.388943 -191.552667 
L 239.430598 -189.789359 
L 239.472367 -188.026051 
L 239.513146 -186.262743 
L 239.551794 -184.499436 
L 239.587166 -182.736128 
L 239.618145 -180.97282 
L 239.643683 -179.209512 
L 239.662829 -177.446205 
L 239.674762 -175.682897 
L 239.678818 -173.919589 
L 239.674514 -172.156281 
L 239.661562 -170.392974 
L 239.639883 -168.629666 
L 239.60961 -166.866358 
L 239.571082 -165.10305 
L 239.524832 -163.339742 
L 239.471575 -161.576435 
L 239.412176 -159.813127 
L 239.347625 -158.049819 
L 239.279001 -156.286511 
L 239.207438 -154.523204 
L 239.134088 -152.759896 
L 239.060083 -150.996588 
L 238.986503 -149.23328 
L 238.914347 -147.469973 
L 238.844509 -145.706665 
L 238.777757 -143.943357 
L 238.714722 -142.180049 
L 238.655893 -140.416742 
L 238.601611 -138.653434 
L 238.552085 -136.890126 
L 238.507389 -135.126818 
L 238.467486 -133.363511 
L 238.432241 -131.600203 
L 238.401433 -129.836895 
L 238.374785 -128.073587 
L 238.35197 -126.31028 
L 238.332636 -124.546972 
L 238.316417 -122.783664 
z
" id="maf0a387aae" style="stroke:#3d3d3d;stroke-width:1.5;"/>
    </defs>
    <g clip-path="url(#p536d32f20f)">
     <use style="fill:#d684bd;stroke:#3d3d3d;stroke-width:1.5;" x="0" xlink:href="#maf0a387aae" y="368.607178"/>
    </g>
   </g>
   <g id="PolyCollection_6">
    <defs>
     <path d="M 278.142206 -142.349514 
L 277.719044 -142.349514 
L 277.678586 -143.118094 
L 277.632378 -143.886673 
L 277.580024 -144.655252 
L 277.521183 -145.423831 
L 277.455587 -146.19241 
L 277.383057 -146.960989 
L 277.303522 -147.729568 
L 277.217035 -148.498147 
L 277.123783 -149.266726 
L 277.024099 -150.035305 
L 276.91847 -150.803884 
L 276.807536 -151.572463 
L 276.692088 -152.341042 
L 276.573064 -153.109621 
L 276.451529 -153.8782 
L 276.328663 -154.646779 
L 276.20574 -155.415358 
L 276.084095 -156.183937 
L 275.965104 -156.952516 
L 275.850151 -157.721096 
L 275.740595 -158.489675 
L 275.637744 -159.258254 
L 275.542823 -160.026833 
L 275.456953 -160.795412 
L 275.381123 -161.563991 
L 275.316176 -162.33257 
L 275.262795 -163.101149 
L 275.221488 -163.869728 
L 275.192589 -164.638307 
L 275.176252 -165.406886 
L 275.172454 -166.175465 
L 275.180999 -166.944044 
L 275.201525 -167.712623 
L 275.23351 -168.481202 
L 275.276284 -169.249781 
L 275.329036 -170.01836 
L 275.390823 -170.786939 
L 275.460585 -171.555518 
L 275.53715 -172.324097 
L 275.619248 -173.092677 
L 275.705524 -173.861256 
L 275.794551 -174.629835 
L 275.884845 -175.398414 
L 275.974887 -176.166993 
L 276.063137 -176.935572 
L 276.148064 -177.704151 
L 276.228167 -178.47273 
L 276.302005 -179.241309 
L 276.368229 -180.009888 
L 276.425608 -180.778467 
L 276.473067 -181.547046 
L 276.509713 -182.315625 
L 276.534866 -183.084204 
L 276.548084 -183.852783 
L 276.549188 -184.621362 
L 276.538274 -185.389941 
L 276.515727 -186.15852 
L 276.48222 -186.927099 
L 276.438712 -187.695679 
L 276.386429 -188.464258 
L 276.326849 -189.232837 
L 276.261661 -190.001416 
L 276.192735 -190.769995 
L 276.122068 -191.538574 
L 276.051739 -192.307153 
L 275.983848 -193.075732 
L 275.920461 -193.844311 
L 275.863548 -194.61289 
L 275.814933 -195.381469 
L 275.776237 -196.150048 
L 275.748833 -196.918627 
L 275.733808 -197.687206 
L 275.731937 -198.455785 
L 275.743664 -199.224364 
L 275.769093 -199.992943 
L 275.807996 -200.761522 
L 275.859828 -201.530101 
L 275.923753 -202.298681 
L 275.998679 -203.06726 
L 276.083301 -203.835839 
L 276.176146 -204.604418 
L 276.275626 -205.372997 
L 276.38009 -206.141576 
L 276.487872 -206.910155 
L 276.59734 -207.678734 
L 276.706941 -208.447313 
L 276.815233 -209.215892 
L 276.920921 -209.984471 
L 277.022873 -210.75305 
L 277.12014 -211.521629 
L 277.211962 -212.290208 
L 277.297765 -213.058787 
L 277.377158 -213.827366 
L 277.449924 -214.595945 
L 277.515996 -215.364524 
L 277.57545 -216.133103 
L 277.628474 -216.901683 
L 277.675351 -217.670262 
L 277.716442 -218.438841 
L 278.144808 -218.438841 
L 278.144808 -218.438841 
L 278.185899 -217.670262 
L 278.232776 -216.901683 
L 278.2858 -216.133103 
L 278.345254 -215.364524 
L 278.411326 -214.595945 
L 278.484092 -213.827366 
L 278.563485 -213.058787 
L 278.649288 -212.290208 
L 278.74111 -211.521629 
L 278.838377 -210.75305 
L 278.940329 -209.984471 
L 279.046017 -209.215892 
L 279.154309 -208.447313 
L 279.26391 -207.678734 
L 279.373378 -206.910155 
L 279.48116 -206.141576 
L 279.585624 -205.372997 
L 279.685104 -204.604418 
L 279.777949 -203.835839 
L 279.862571 -203.06726 
L 279.937497 -202.298681 
L 280.001422 -201.530101 
L 280.053254 -200.761522 
L 280.092157 -199.992943 
L 280.117586 -199.224364 
L 280.129313 -198.455785 
L 280.127442 -197.687206 
L 280.112417 -196.918627 
L 280.085013 -196.150048 
L 280.046317 -195.381469 
L 279.997702 -194.61289 
L 279.940789 -193.844311 
L 279.877402 -193.075732 
L 279.809511 -192.307153 
L 279.739182 -191.538574 
L 279.668515 -190.769995 
L 279.599589 -190.001416 
L 279.534401 -189.232837 
L 279.474821 -188.464258 
L 279.422538 -187.695679 
L 279.37903 -186.927099 
L 279.345523 -186.15852 
L 279.322976 -185.389941 
L 279.312062 -184.621362 
L 279.313166 -183.852783 
L 279.326384 -183.084204 
L 279.351537 -182.315625 
L 279.388183 -181.547046 
L 279.435642 -180.778467 
L 279.493021 -180.009888 
L 279.559245 -179.241309 
L 279.633083 -178.47273 
L 279.713186 -177.704151 
L 279.798113 -176.935572 
L 279.886363 -176.166993 
L 279.976405 -175.398414 
L 280.066699 -174.629835 
L 280.155726 -173.861256 
L 280.242002 -173.092677 
L 280.3241 -172.324097 
L 280.400665 -171.555518 
L 280.470427 -170.786939 
L 280.532214 -170.01836 
L 280.584966 -169.249781 
L 280.62774 -168.481202 
L 280.659725 -167.712623 
L 280.680251 -166.944044 
L 280.688796 -166.175465 
L 280.684998 -165.406886 
L 280.668661 -164.638307 
L 280.639762 -163.869728 
L 280.598455 -163.101149 
L 280.545074 -162.33257 
L 280.480127 -161.563991 
L 280.404297 -160.795412 
L 280.318427 -160.026833 
L 280.223506 -159.258254 
L 280.120655 -158.489675 
L 280.011099 -157.721096 
L 279.896146 -156.952516 
L 279.777155 -156.183937 
L 279.65551 -155.415358 
L 279.532587 -154.646779 
L 279.409721 -153.8782 
L 279.288186 -153.109621 
L 279.169162 -152.341042 
L 279.053714 -151.572463 
L 278.94278 -150.803884 
L 278.837151 -150.035305 
L 278.737467 -149.266726 
L 278.644215 -148.498147 
L 278.557728 -147.729568 
L 278.478193 -146.960989 
L 278.405663 -146.19241 
L 278.340067 -145.423831 
L 278.281226 -144.655252 
L 278.228872 -143.886673 
L 278.182664 -143.118094 
L 278.142206 -142.349514 
z
" id="md2b1ce6b72" style="stroke:#3d3d3d;stroke-width:1.5;"/>
    </defs>
    <g clip-path="url(#p536d32f20f)">
     <use style="fill:#3a923a;stroke:#3d3d3d;stroke-width:1.5;" x="0" xlink:href="#md2b1ce6b72" y="368.607178"/>
    </g>
   </g>
   <g id="PolyCollection_7">
    <defs>
     <path d="M 318.045349 -138.774313 
L 317.175901 -138.774313 
L 317.100197 -139.270994 
L 317.014701 -139.767674 
L 316.918809 -140.264354 
L 316.812009 -140.761035 
L 316.693898 -141.257715 
L 316.56421 -141.754395 
L 316.422841 -142.251076 
L 316.269871 -142.747756 
L 316.105588 -143.244436 
L 315.930498 -143.741117 
L 315.745346 -144.237797 
L 315.551113 -144.734477 
L 315.349026 -145.231158 
L 315.140542 -145.727838 
L 314.927341 -146.224519 
L 314.711299 -146.721199 
L 314.494462 -147.217879 
L 314.279009 -147.71456 
L 314.067207 -148.21124 
L 313.861369 -148.70792 
L 313.6638 -149.204601 
L 313.476746 -149.701281 
L 313.302339 -150.197961 
L 313.14255 -150.694642 
L 312.999138 -151.191322 
L 312.873608 -151.688003 
L 312.767179 -152.184683 
L 312.680752 -152.681363 
L 312.614892 -153.178044 
L 312.569822 -153.674724 
L 312.545423 -154.171404 
L 312.541242 -154.668085 
L 312.556515 -155.164765 
L 312.590192 -155.661445 
L 312.640975 -156.158126 
L 312.707357 -156.654806 
L 312.787667 -157.151486 
L 312.880114 -157.648167 
L 312.982838 -158.144847 
L 313.093955 -158.641528 
L 313.211597 -159.138208 
L 313.333957 -159.634888 
L 313.459317 -160.131569 
L 313.586083 -160.628249 
L 313.712804 -161.124929 
L 313.83819 -161.62161 
L 313.961123 -162.11829 
L 314.080658 -162.61497 
L 314.196032 -163.111651 
L 314.30665 -163.608331 
L 314.412081 -164.105011 
L 314.51205 -164.601692 
L 314.606422 -165.098372 
L 314.69519 -165.595053 
L 314.778463 -166.091733 
L 314.856448 -166.588413 
L 314.929441 -167.085094 
L 314.997813 -167.581774 
L 315.061997 -168.078454 
L 315.122478 -168.575135 
L 315.179779 -169.071815 
L 315.234457 -169.568495 
L 315.287087 -170.065176 
L 315.33825 -170.561856 
L 315.388532 -171.058537 
L 315.438501 -171.555217 
L 315.488705 -172.051897 
L 315.539656 -172.548578 
L 315.591823 -173.045258 
L 315.645615 -173.541938 
L 315.701379 -174.038619 
L 315.759385 -174.535299 
L 315.819825 -175.031979 
L 315.882801 -175.52866 
L 315.948328 -176.02534 
L 316.016332 -176.52202 
L 316.08665 -177.018701 
L 316.159039 -177.515381 
L 316.233179 -178.012062 
L 316.308687 -178.508742 
L 316.385125 -179.005422 
L 316.462014 -179.502103 
L 316.538851 -179.998783 
L 316.615117 -180.495463 
L 316.690299 -180.992144 
L 316.763895 -181.488824 
L 316.835434 -181.985504 
L 316.904486 -182.482185 
L 316.970664 -182.978865 
L 317.033642 -183.475545 
L 317.093151 -183.972226 
L 317.148986 -184.468906 
L 317.201007 -184.965587 
L 317.249136 -185.462267 
L 317.293353 -185.958947 
L 317.333695 -186.455628 
L 317.370248 -186.952308 
L 317.403141 -187.448988 
L 317.432537 -187.945669 
L 317.788713 -187.945669 
L 317.788713 -187.945669 
L 317.818109 -187.448988 
L 317.851002 -186.952308 
L 317.887555 -186.455628 
L 317.927897 -185.958947 
L 317.972114 -185.462267 
L 318.020243 -184.965587 
L 318.072264 -184.468906 
L 318.128099 -183.972226 
L 318.187608 -183.475545 
L 318.250586 -182.978865 
L 318.316764 -182.482185 
L 318.385816 -181.985504 
L 318.457355 -181.488824 
L 318.530951 -180.992144 
L 318.606133 -180.495463 
L 318.682399 -179.998783 
L 318.759236 -179.502103 
L 318.836125 -179.005422 
L 318.912563 -178.508742 
L 318.988071 -178.012062 
L 319.062211 -177.515381 
L 319.1346 -177.018701 
L 319.204918 -176.52202 
L 319.272922 -176.02534 
L 319.338449 -175.52866 
L 319.401425 -175.031979 
L 319.461865 -174.535299 
L 319.519871 -174.038619 
L 319.575635 -173.541938 
L 319.629427 -173.045258 
L 319.681594 -172.548578 
L 319.732545 -172.051897 
L 319.782749 -171.555217 
L 319.832718 -171.058537 
L 319.883 -170.561856 
L 319.934163 -170.065176 
L 319.986793 -169.568495 
L 320.041471 -169.071815 
L 320.098772 -168.575135 
L 320.159253 -168.078454 
L 320.223437 -167.581774 
L 320.291809 -167.085094 
L 320.364802 -166.588413 
L 320.442787 -166.091733 
L 320.52606 -165.595053 
L 320.614828 -165.098372 
L 320.7092 -164.601692 
L 320.809169 -164.105011 
L 320.9146 -163.608331 
L 321.025218 -163.111651 
L 321.140592 -162.61497 
L 321.260127 -162.11829 
L 321.38306 -161.62161 
L 321.508446 -161.124929 
L 321.635167 -160.628249 
L 321.761933 -160.131569 
L 321.887293 -159.634888 
L 322.009653 -159.138208 
L 322.127295 -158.641528 
L 322.238412 -158.144847 
L 322.341136 -157.648167 
L 322.433583 -157.151486 
L 322.513893 -156.654806 
L 322.580275 -156.158126 
L 322.631058 -155.661445 
L 322.664735 -155.164765 
L 322.680008 -154.668085 
L 322.675827 -154.171404 
L 322.651428 -153.674724 
L 322.606358 -153.178044 
L 322.540498 -152.681363 
L 322.454071 -152.184683 
L 322.347642 -151.688003 
L 322.222112 -151.191322 
L 322.0787 -150.694642 
L 321.918911 -150.197961 
L 321.744504 -149.701281 
L 321.55745 -149.204601 
L 321.359881 -148.70792 
L 321.154043 -148.21124 
L 320.942241 -147.71456 
L 320.726788 -147.217879 
L 320.509951 -146.721199 
L 320.293909 -146.224519 
L 320.080708 -145.727838 
L 319.872224 -145.231158 
L 319.670137 -144.734477 
L 319.475904 -144.237797 
L 319.290752 -143.741117 
L 319.115662 -143.244436 
L 318.951379 -142.747756 
L 318.798409 -142.251076 
L 318.65704 -141.754395 
L 318.527352 -141.257715 
L 318.409241 -140.761035 
L 318.302441 -140.264354 
L 318.206549 -139.767674 
L 318.121053 -139.270994 
L 318.045349 -138.774313 
z
" id="m68d4a05b01" style="stroke:#3d3d3d;stroke-width:1.5;"/>
    </defs>
    <g clip-path="url(#p536d32f20f)">
     <use style="fill:#9fd495;stroke:#3d3d3d;stroke-width:1.5;" x="0" xlink:href="#m68d4a05b01" y="368.607178"/>
    </g>
   </g>
   <g id="PolyCollection_8">
    <defs>
     <path d="M 357.454855 -143.840685 
L 357.126395 -143.840685 
L 357.076817 -144.122706 
L 357.016386 -144.404727 
L 356.943872 -144.686748 
L 356.85811 -144.968769 
L 356.757979 -145.250789 
L 356.642343 -145.53281 
L 356.509935 -145.814831 
L 356.359199 -146.096852 
L 356.188086 -146.378873 
L 355.993836 -146.660894 
L 355.772767 -146.942914 
L 355.52013 -147.224935 
L 355.230054 -147.506956 
L 354.895643 -147.788977 
L 354.509252 -148.070998 
L 354.06296 -148.353019 
L 353.549237 -148.635039 
L 352.961769 -148.91706 
L 352.296385 -149.199081 
L 351.551988 -149.481102 
L 350.731408 -149.763123 
L 349.842054 -150.045144 
L 348.896271 -150.327165 
L 347.911339 -150.609185 
L 346.90905 -150.891206 
L 345.914884 -151.173227 
L 344.956817 -151.455248 
L 344.063836 -151.737269 
L 343.264298 -152.01929 
L 342.584249 -152.30131 
L 342.045854 -152.583331 
L 341.666067 -152.865352 
L 341.455652 -153.147373 
L 341.418625 -153.429394 
L 341.552158 -153.711415 
L 341.846937 -153.993435 
L 342.287925 -154.275456 
L 342.855463 -154.557477 
L 343.526606 -154.839498 
L 344.276571 -155.121519 
L 345.080202 -155.40354 
L 345.913334 -155.68556 
L 346.753957 -155.967581 
L 347.583128 -156.249602 
L 348.385579 -156.531623 
L 349.14999 -156.813644 
L 349.868973 -157.095665 
L 350.538764 -157.377685 
L 351.158701 -157.659706 
L 351.730554 -157.941727 
L 352.257774 -158.223748 
L 352.744743 -158.505769 
L 353.196094 -158.78779 
L 353.616141 -159.06981 
L 354.008474 -159.351831 
L 354.375718 -159.633852 
L 354.719456 -159.915873 
L 355.040296 -160.197894 
L 355.338042 -160.479915 
L 355.611932 -160.761935 
L 355.860904 -161.043956 
L 356.083836 -161.325977 
L 356.279761 -161.607998 
L 356.448006 -161.890019 
L 356.588287 -162.17204 
L 356.70073 -162.45406 
L 356.785869 -162.736081 
L 356.844602 -163.018102 
L 356.878162 -163.300123 
L 356.88808 -163.582144 
L 356.876183 -163.864165 
L 356.844603 -164.146185 
L 356.795807 -164.428206 
L 356.73263 -164.710227 
L 356.658294 -164.992248 
L 356.576398 -165.274269 
L 356.490871 -165.55629 
L 356.405867 -165.83831 
L 356.32561 -166.120331 
L 356.254197 -166.402352 
L 356.195376 -166.684373 
L 356.15231 -166.966394 
L 356.127375 -167.248415 
L 356.121996 -167.530436 
L 356.136553 -167.812456 
L 356.170365 -168.094477 
L 356.221767 -168.376498 
L 356.288255 -168.658519 
L 356.366697 -168.94054 
L 356.453582 -169.222561 
L 356.545285 -169.504581 
L 356.638309 -169.786602 
L 356.729503 -170.068623 
L 356.816217 -170.350644 
L 356.896402 -170.632665 
L 356.968646 -170.914686 
L 357.032157 -171.196706 
L 357.086694 -171.478727 
L 357.132481 -171.760748 
L 357.448769 -171.760748 
L 357.448769 -171.760748 
L 357.494556 -171.478727 
L 357.549093 -171.196706 
L 357.612604 -170.914686 
L 357.684848 -170.632665 
L 357.765033 -170.350644 
L 357.851747 -170.068623 
L 357.942941 -169.786602 
L 358.035965 -169.504581 
L 358.127668 -169.222561 
L 358.214553 -168.94054 
L 358.292995 -168.658519 
L 358.359483 -168.376498 
L 358.410885 -168.094477 
L 358.444697 -167.812456 
L 358.459254 -167.530436 
L 358.453875 -167.248415 
L 358.42894 -166.966394 
L 358.385874 -166.684373 
L 358.327053 -166.402352 
L 358.25564 -166.120331 
L 358.175383 -165.83831 
L 358.090379 -165.55629 
L 358.004852 -165.274269 
L 357.922956 -164.992248 
L 357.84862 -164.710227 
L 357.785443 -164.428206 
L 357.736647 -164.146185 
L 357.705067 -163.864165 
L 357.69317 -163.582144 
L 357.703088 -163.300123 
L 357.736648 -163.018102 
L 357.795381 -162.736081 
L 357.88052 -162.45406 
L 357.992963 -162.17204 
L 358.133244 -161.890019 
L 358.301489 -161.607998 
L 358.497414 -161.325977 
L 358.720346 -161.043956 
L 358.969318 -160.761935 
L 359.243208 -160.479915 
L 359.540954 -160.197894 
L 359.861794 -159.915873 
L 360.205532 -159.633852 
L 360.572776 -159.351831 
L 360.965109 -159.06981 
L 361.385156 -158.78779 
L 361.836507 -158.505769 
L 362.323476 -158.223748 
L 362.850696 -157.941727 
L 363.422549 -157.659706 
L 364.042486 -157.377685 
L 364.712277 -157.095665 
L 365.43126 -156.813644 
L 366.195671 -156.531623 
L 366.998122 -156.249602 
L 367.827293 -155.967581 
L 368.667916 -155.68556 
L 369.501048 -155.40354 
L 370.304679 -155.121519 
L 371.054644 -154.839498 
L 371.725787 -154.557477 
L 372.293325 -154.275456 
L 372.734313 -153.993435 
L 373.029092 -153.711415 
L 373.162625 -153.429394 
L 373.125598 -153.147373 
L 372.915183 -152.865352 
L 372.535396 -152.583331 
L 371.997001 -152.30131 
L 371.316952 -152.01929 
L 370.517414 -151.737269 
L 369.624433 -151.455248 
L 368.666366 -151.173227 
L 367.6722 -150.891206 
L 366.669911 -150.609185 
L 365.684979 -150.327165 
L 364.739196 -150.045144 
L 363.849842 -149.763123 
L 363.029262 -149.481102 
L 362.284865 -149.199081 
L 361.619481 -148.91706 
L 361.032013 -148.635039 
L 360.51829 -148.353019 
L 360.071998 -148.070998 
L 359.685607 -147.788977 
L 359.351196 -147.506956 
L 359.06112 -147.224935 
L 358.808483 -146.942914 
L 358.587414 -146.660894 
L 358.393164 -146.378873 
L 358.222051 -146.096852 
L 358.071315 -145.814831 
L 357.938907 -145.53281 
L 357.823271 -145.250789 
L 357.72314 -144.968769 
L 357.637378 -144.686748 
L 357.564864 -144.404727 
L 357.504433 -144.122706 
L 357.454855 -143.840685 
z
" id="m0d1d77ff48" style="stroke:#3d3d3d;stroke-width:1.5;"/>
    </defs>
    <g clip-path="url(#p536d32f20f)">
     <use style="fill:#d1d197;stroke:#3d3d3d;stroke-width:1.5;" x="0" xlink:href="#m0d1d77ff48" y="368.607178"/>
    </g>
   </g>
   <g id="PolyCollection_9">
    <defs>
     <path d="M 397.017769 -92.273053 
L 396.923481 -92.273053 
L 396.911131 -94.062157 
L 396.896218 -95.851261 
L 396.878388 -97.640364 
L 396.857282 -99.429468 
L 396.832539 -101.218572 
L 396.803811 -103.007676 
L 396.770774 -104.79678 
L 396.733139 -106.585884 
L 396.690667 -108.374987 
L 396.643181 -110.164091 
L 396.590578 -111.953195 
L 396.532846 -113.742299 
L 396.470069 -115.531403 
L 396.402442 -117.320507 
L 396.330276 -119.10961 
L 396.254008 -120.898714 
L 396.174203 -122.687818 
L 396.091555 -124.476922 
L 396.006883 -126.266026 
L 395.921129 -128.05513 
L 395.835342 -129.844233 
L 395.750665 -131.633337 
L 395.668315 -133.422441 
L 395.589551 -135.211545 
L 395.515649 -137.000649 
L 395.447861 -138.789753 
L 395.38738 -140.578857 
L 395.335296 -142.36796 
L 395.292556 -144.157064 
L 395.259927 -145.946168 
L 395.237961 -147.735272 
L 395.226969 -149.524376 
L 395.227004 -151.31348 
L 395.237855 -153.102583 
L 395.259049 -154.891687 
L 395.289871 -156.680791 
L 395.32939 -158.469895 
L 395.376501 -160.258999 
L 395.429964 -162.048103 
L 395.48846 -163.837206 
L 395.550645 -165.62631 
L 395.615197 -167.415414 
L 395.680867 -169.204518 
L 395.746518 -170.993622 
L 395.811158 -172.782726 
L 395.87396 -174.571829 
L 395.934269 -176.360933 
L 395.991607 -178.150037 
L 396.045656 -179.939141 
L 396.096242 -181.728245 
L 396.143313 -183.517349 
L 396.186905 -185.306452 
L 396.22712 -187.095556 
L 396.264095 -188.88466 
L 396.297981 -190.673764 
L 396.328925 -192.462868 
L 396.357058 -194.251972 
L 396.382489 -196.041075 
L 396.405308 -197.830179 
L 396.425591 -199.619283 
L 396.44341 -201.408387 
L 396.458844 -203.197491 
L 396.471995 -204.986595 
L 396.482998 -206.775698 
L 396.492028 -208.564802 
L 396.499314 -210.353906 
L 396.505131 -212.14301 
L 396.509806 -213.932114 
L 396.513707 -215.721218 
L 396.517229 -217.510321 
L 396.520786 -219.299425 
L 396.52479 -221.088529 
L 396.529636 -222.877633 
L 396.53568 -224.666737 
L 396.543229 -226.455841 
L 396.552521 -228.244944 
L 396.56372 -230.034048 
L 396.576905 -231.823152 
L 396.592071 -233.612256 
L 396.609127 -235.40136 
L 396.627907 -237.190464 
L 396.648175 -238.979567 
L 396.669642 -240.768671 
L 396.691977 -242.557775 
L 396.714826 -244.346879 
L 396.737828 -246.135983 
L 396.760629 -247.925087 
L 396.782897 -249.714191 
L 396.804334 -251.503294 
L 396.824685 -253.292398 
L 396.843744 -255.081502 
L 396.861357 -256.870606 
L 396.877424 -258.65971 
L 396.891895 -260.448814 
L 396.904764 -262.237917 
L 396.916068 -264.027021 
L 396.925876 -265.816125 
L 396.934284 -267.605229 
L 396.941405 -269.394333 
L 396.999845 -269.394333 
L 396.999845 -269.394333 
L 397.006966 -267.605229 
L 397.015374 -265.816125 
L 397.025182 -264.027021 
L 397.036486 -262.237917 
L 397.049355 -260.448814 
L 397.063826 -258.65971 
L 397.079893 -256.870606 
L 397.097506 -255.081502 
L 397.116565 -253.292398 
L 397.136916 -251.503294 
L 397.158353 -249.714191 
L 397.180621 -247.925087 
L 397.203422 -246.135983 
L 397.226424 -244.346879 
L 397.249273 -242.557775 
L 397.271608 -240.768671 
L 397.293075 -238.979567 
L 397.313343 -237.190464 
L 397.332123 -235.40136 
L 397.349179 -233.612256 
L 397.364345 -231.823152 
L 397.37753 -230.034048 
L 397.388729 -228.244944 
L 397.398021 -226.455841 
L 397.40557 -224.666737 
L 397.411614 -222.877633 
L 397.41646 -221.088529 
L 397.420464 -219.299425 
L 397.424021 -217.510321 
L 397.427543 -215.721218 
L 397.431444 -213.932114 
L 397.436119 -212.14301 
L 397.441936 -210.353906 
L 397.449222 -208.564802 
L 397.458252 -206.775698 
L 397.469255 -204.986595 
L 397.482406 -203.197491 
L 397.49784 -201.408387 
L 397.515659 -199.619283 
L 397.535942 -197.830179 
L 397.558761 -196.041075 
L 397.584192 -194.251972 
L 397.612325 -192.462868 
L 397.643269 -190.673764 
L 397.677155 -188.88466 
L 397.71413 -187.095556 
L 397.754345 -185.306452 
L 397.797937 -183.517349 
L 397.845008 -181.728245 
L 397.895594 -179.939141 
L 397.949643 -178.150037 
L 398.006981 -176.360933 
L 398.06729 -174.571829 
L 398.130092 -172.782726 
L 398.194732 -170.993622 
L 398.260383 -169.204518 
L 398.326053 -167.415414 
L 398.390605 -165.62631 
L 398.45279 -163.837206 
L 398.511286 -162.048103 
L 398.564749 -160.258999 
L 398.61186 -158.469895 
L 398.651379 -156.680791 
L 398.682201 -154.891687 
L 398.703395 -153.102583 
L 398.714246 -151.31348 
L 398.714281 -149.524376 
L 398.703289 -147.735272 
L 398.681323 -145.946168 
L 398.648694 -144.157064 
L 398.605954 -142.36796 
L 398.55387 -140.578857 
L 398.493389 -138.789753 
L 398.425601 -137.000649 
L 398.351699 -135.211545 
L 398.272935 -133.422441 
L 398.190585 -131.633337 
L 398.105908 -129.844233 
L 398.020121 -128.05513 
L 397.934367 -126.266026 
L 397.849695 -124.476922 
L 397.767047 -122.687818 
L 397.687242 -120.898714 
L 397.610974 -119.10961 
L 397.538808 -117.320507 
L 397.471181 -115.531403 
L 397.408404 -113.742299 
L 397.350672 -111.953195 
L 397.298069 -110.164091 
L 397.250583 -108.374987 
L 397.208111 -106.585884 
L 397.170476 -104.79678 
L 397.137439 -103.007676 
L 397.108711 -101.218572 
L 397.083968 -99.429468 
L 397.062862 -97.640364 
L 397.045032 -95.851261 
L 397.030119 -94.062157 
L 397.017769 -92.273053 
z
" id="m3adf3c5f59" style="stroke:#3d3d3d;stroke-width:1.5;"/>
    </defs>
    <g clip-path="url(#p536d32f20f)">
     <use style="fill:#f2a5a3;stroke:#3d3d3d;stroke-width:1.5;" x="0" xlink:href="#m3adf3c5f59" y="368.607178"/>
    </g>
   </g>
   <g id="matplotlib.axis_1">
    <g id="xtick_1">
     <g id="line2d_1">
      <defs>
       <path d="M 0 0 
L 0 3.5 
" id="m0efcd9aaa7" style="stroke:#000000;stroke-width:0.8;"/>
      </defs>
      <g>
       <use style="stroke:#000000;stroke-width:0.8;" x="79.530625" xlink:href="#m0efcd9aaa7" y="288.430125"/>
      </g>
     </g>
     <g id="text_1">
      <!-- aflplusplus -->
      <g transform="translate(31.921618 328.897284)rotate(-30)scale(0.1 -0.1)">
       <defs>
        <path d="M 34.28125 27.484375 
Q 23.390625 27.484375 19.1875 25 
Q 14.984375 22.515625 14.984375 16.5 
Q 14.984375 11.71875 18.140625 8.90625 
Q 21.296875 6.109375 26.703125 6.109375 
Q 34.1875 6.109375 38.703125 11.40625 
Q 43.21875 16.703125 43.21875 25.484375 
L 43.21875 27.484375 
z
M 52.203125 31.203125 
L 52.203125 0 
L 43.21875 0 
L 43.21875 8.296875 
Q 40.140625 3.328125 35.546875 0.953125 
Q 30.953125 -1.421875 24.3125 -1.421875 
Q 15.921875 -1.421875 10.953125 3.296875 
Q 6 8.015625 6 15.921875 
Q 6 25.140625 12.171875 29.828125 
Q 18.359375 34.515625 30.609375 34.515625 
L 43.21875 34.515625 
L 43.21875 35.40625 
Q 43.21875 41.609375 39.140625 45 
Q 35.0625 48.390625 27.6875 48.390625 
Q 23 48.390625 18.546875 47.265625 
Q 14.109375 46.140625 10.015625 43.890625 
L 10.015625 52.203125 
Q 14.9375 54.109375 19.578125 55.046875 
Q 24.21875 56 28.609375 56 
Q 40.484375 56 46.34375 49.84375 
Q 52.203125 43.703125 52.203125 31.203125 
z
" id="DejaVuSans-97"/>
        <path d="M 37.109375 75.984375 
L 37.109375 68.5 
L 28.515625 68.5 
Q 23.6875 68.5 21.796875 66.546875 
Q 19.921875 64.59375 19.921875 59.515625 
L 19.921875 54.6875 
L 34.71875 54.6875 
L 34.71875 47.703125 
L 19.921875 47.703125 
L 19.921875 0 
L 10.890625 0 
L 10.890625 47.703125 
L 2.296875 47.703125 
L 2.296875 54.6875 
L 10.890625 54.6875 
L 10.890625 58.5 
Q 10.890625 67.625 15.140625 71.796875 
Q 19.390625 75.984375 28.609375 75.984375 
z
" id="DejaVuSans-102"/>
        <path d="M 9.421875 75.984375 
L 18.40625 75.984375 
L 18.40625 0 
L 9.421875 0 
z
" id="DejaVuSans-108"/>
        <path d="M 18.109375 8.203125 
L 18.109375 -20.796875 
L 9.078125 -20.796875 
L 9.078125 54.6875 
L 18.109375 54.6875 
L 18.109375 46.390625 
Q 20.953125 51.265625 25.265625 53.625 
Q 29.59375 56 35.59375 56 
Q 45.5625 56 51.78125 48.09375 
Q 58.015625 40.1875 58.015625 27.296875 
Q 58.015625 14.40625 51.78125 6.484375 
Q 45.5625 -1.421875 35.59375 -1.421875 
Q 29.59375 -1.421875 25.265625 0.953125 
Q 20.953125 3.328125 18.109375 8.203125 
z
M 48.6875 27.296875 
Q 48.6875 37.203125 44.609375 42.84375 
Q 40.53125 48.484375 33.40625 48.484375 
Q 26.265625 48.484375 22.1875 42.84375 
Q 18.109375 37.203125 18.109375 27.296875 
Q 18.109375 17.390625 22.1875 11.75 
Q 26.265625 6.109375 33.40625 6.109375 
Q 40.53125 6.109375 44.609375 11.75 
Q 48.6875 17.390625 48.6875 27.296875 
z
" id="DejaVuSans-112"/>
        <path d="M 8.5 21.578125 
L 8.5 54.6875 
L 17.484375 54.6875 
L 17.484375 21.921875 
Q 17.484375 14.15625 20.5 10.265625 
Q 23.53125 6.390625 29.59375 6.390625 
Q 36.859375 6.390625 41.078125 11.03125 
Q 45.3125 15.671875 45.3125 23.6875 
L 45.3125 54.6875 
L 54.296875 54.6875 
L 54.296875 0 
L 45.3125 0 
L 45.3125 8.40625 
Q 42.046875 3.421875 37.71875 1 
Q 33.40625 -1.421875 27.6875 -1.421875 
Q 18.265625 -1.421875 13.375 4.4375 
Q 8.5 10.296875 8.5 21.578125 
z
M 31.109375 56 
z
" id="DejaVuSans-117"/>
        <path d="M 44.28125 53.078125 
L 44.28125 44.578125 
Q 40.484375 46.53125 36.375 47.5 
Q 32.28125 48.484375 27.875 48.484375 
Q 21.1875 48.484375 17.84375 46.4375 
Q 14.5 44.390625 14.5 40.28125 
Q 14.5 37.15625 16.890625 35.375 
Q 19.28125 33.59375 26.515625 31.984375 
L 29.59375 31.296875 
Q 39.15625 29.25 43.1875 25.515625 
Q 47.21875 21.78125 47.21875 15.09375 
Q 47.21875 7.46875 41.1875 3.015625 
Q 35.15625 -1.421875 24.609375 -1.421875 
Q 20.21875 -1.421875 15.453125 -0.5625 
Q 10.6875 0.296875 5.421875 2 
L 5.421875 11.28125 
Q 10.40625 8.6875 15.234375 7.390625 
Q 20.0625 6.109375 24.8125 6.109375 
Q 31.15625 6.109375 34.5625 8.28125 
Q 37.984375 10.453125 37.984375 14.40625 
Q 37.984375 18.0625 35.515625 20.015625 
Q 33.0625 21.96875 24.703125 23.78125 
L 21.578125 24.515625 
Q 13.234375 26.265625 9.515625 29.90625 
Q 5.8125 33.546875 5.8125 39.890625 
Q 5.8125 47.609375 11.28125 51.796875 
Q 16.75 56 26.8125 56 
Q 31.78125 56 36.171875 55.265625 
Q 40.578125 54.546875 44.28125 53.078125 
z
" id="DejaVuSans-115"/>
       </defs>
       <use xlink:href="#DejaVuSans-97"/>
       <use x="61.279297" xlink:href="#DejaVuSans-102"/>
       <use x="96.484375" xlink:href="#DejaVuSans-108"/>
       <use x="124.267578" xlink:href="#DejaVuSans-112"/>
       <use x="187.744141" xlink:href="#DejaVuSans-108"/>
       <use x="215.527344" xlink:href="#DejaVuSans-117"/>
       <use x="278.90625" xlink:href="#DejaVuSans-115"/>
       <use x="331.005859" xlink:href="#DejaVuSans-112"/>
       <use x="394.482422" xlink:href="#DejaVuSans-108"/>
       <use x="422.265625" xlink:href="#DejaVuSans-117"/>
       <use x="485.644531" xlink:href="#DejaVuSans-115"/>
      </g>
     </g>
    </g>
    <g id="xtick_2">
     <g id="line2d_2">
      <g>
       <use style="stroke:#000000;stroke-width:0.8;" x="119.210625" xlink:href="#m0efcd9aaa7" y="288.430125"/>
      </g>
     </g>
     <g id="text_2">
      <!-- entropic -->
      <g transform="translate(82.628557 322.530877)rotate(-30)scale(0.1 -0.1)">
       <defs>
        <path d="M 56.203125 29.59375 
L 56.203125 25.203125 
L 14.890625 25.203125 
Q 15.484375 15.921875 20.484375 11.0625 
Q 25.484375 6.203125 34.421875 6.203125 
Q 39.59375 6.203125 44.453125 7.46875 
Q 49.3125 8.734375 54.109375 11.28125 
L 54.109375 2.78125 
Q 49.265625 0.734375 44.1875 -0.34375 
Q 39.109375 -1.421875 33.890625 -1.421875 
Q 20.796875 -1.421875 13.15625 6.1875 
Q 5.515625 13.8125 5.515625 26.8125 
Q 5.515625 40.234375 12.765625 48.109375 
Q 20.015625 56 32.328125 56 
Q 43.359375 56 49.78125 48.890625 
Q 56.203125 41.796875 56.203125 29.59375 
z
M 47.21875 32.234375 
Q 47.125 39.59375 43.09375 43.984375 
Q 39.0625 48.390625 32.421875 48.390625 
Q 24.90625 48.390625 20.390625 44.140625 
Q 15.875 39.890625 15.1875 32.171875 
z
" id="DejaVuSans-101"/>
        <path d="M 54.890625 33.015625 
L 54.890625 0 
L 45.90625 0 
L 45.90625 32.71875 
Q 45.90625 40.484375 42.875 44.328125 
Q 39.84375 48.1875 33.796875 48.1875 
Q 26.515625 48.1875 22.3125 43.546875 
Q 18.109375 38.921875 18.109375 30.90625 
L 18.109375 0 
L 9.078125 0 
L 9.078125 54.6875 
L 18.109375 54.6875 
L 18.109375 46.1875 
Q 21.34375 51.125 25.703125 53.5625 
Q 30.078125 56 35.796875 56 
Q 45.21875 56 50.046875 50.171875 
Q 54.890625 44.34375 54.890625 33.015625 
z
" id="DejaVuSans-110"/>
        <path d="M 18.3125 70.21875 
L 18.3125 54.6875 
L 36.8125 54.6875 
L 36.8125 47.703125 
L 18.3125 47.703125 
L 18.3125 18.015625 
Q 18.3125 11.328125 20.140625 9.421875 
Q 21.96875 7.515625 27.59375 7.515625 
L 36.8125 7.515625 
L 36.8125 0 
L 27.59375 0 
Q 17.1875 0 13.234375 3.875 
Q 9.28125 7.765625 9.28125 18.015625 
L 9.28125 47.703125 
L 2.6875 47.703125 
L 2.6875 54.6875 
L 9.28125 54.6875 
L 9.28125 70.21875 
z
" id="DejaVuSans-116"/>
        <path d="M 41.109375 46.296875 
Q 39.59375 47.171875 37.8125 47.578125 
Q 36.03125 48 33.890625 48 
Q 26.265625 48 22.1875 43.046875 
Q 18.109375 38.09375 18.109375 28.8125 
L 18.109375 0 
L 9.078125 0 
L 9.078125 54.6875 
L 18.109375 54.6875 
L 18.109375 46.1875 
Q 20.953125 51.171875 25.484375 53.578125 
Q 30.03125 56 36.53125 56 
Q 37.453125 56 38.578125 55.875 
Q 39.703125 55.765625 41.0625 55.515625 
z
" id="DejaVuSans-114"/>
        <path d="M 30.609375 48.390625 
Q 23.390625 48.390625 19.1875 42.75 
Q 14.984375 37.109375 14.984375 27.296875 
Q 14.984375 17.484375 19.15625 11.84375 
Q 23.34375 6.203125 30.609375 6.203125 
Q 37.796875 6.203125 41.984375 11.859375 
Q 46.1875 17.53125 46.1875 27.296875 
Q 46.1875 37.015625 41.984375 42.703125 
Q 37.796875 48.390625 30.609375 48.390625 
z
M 30.609375 56 
Q 42.328125 56 49.015625 48.375 
Q 55.71875 40.765625 55.71875 27.296875 
Q 55.71875 13.875 49.015625 6.21875 
Q 42.328125 -1.421875 30.609375 -1.421875 
Q 18.84375 -1.421875 12.171875 6.21875 
Q 5.515625 13.875 5.515625 27.296875 
Q 5.515625 40.765625 12.171875 48.375 
Q 18.84375 56 30.609375 56 
z
" id="DejaVuSans-111"/>
        <path d="M 9.421875 54.6875 
L 18.40625 54.6875 
L 18.40625 0 
L 9.421875 0 
z
M 9.421875 75.984375 
L 18.40625 75.984375 
L 18.40625 64.59375 
L 9.421875 64.59375 
z
" id="DejaVuSans-105"/>
        <path d="M 48.78125 52.59375 
L 48.78125 44.1875 
Q 44.96875 46.296875 41.140625 47.34375 
Q 37.3125 48.390625 33.40625 48.390625 
Q 24.65625 48.390625 19.8125 42.84375 
Q 14.984375 37.3125 14.984375 27.296875 
Q 14.984375 17.28125 19.8125 11.734375 
Q 24.65625 6.203125 33.40625 6.203125 
Q 37.3125 6.203125 41.140625 7.25 
Q 44.96875 8.296875 48.78125 10.40625 
L 48.78125 2.09375 
Q 45.015625 0.34375 40.984375 -0.53125 
Q 36.96875 -1.421875 32.421875 -1.421875 
Q 20.0625 -1.421875 12.78125 6.34375 
Q 5.515625 14.109375 5.515625 27.296875 
Q 5.515625 40.671875 12.859375 48.328125 
Q 20.21875 56 33.015625 56 
Q 37.15625 56 41.109375 55.140625 
Q 45.0625 54.296875 48.78125 52.59375 
z
" id="DejaVuSans-99"/>
       </defs>
       <use xlink:href="#DejaVuSans-101"/>
       <use x="61.523438" xlink:href="#DejaVuSans-110"/>
       <use x="124.902344" xlink:href="#DejaVuSans-116"/>
       <use x="164.111328" xlink:href="#DejaVuSans-114"/>
       <use x="202.974609" xlink:href="#DejaVuSans-111"/>
       <use x="264.15625" xlink:href="#DejaVuSans-112"/>
       <use x="327.632812" xlink:href="#DejaVuSans-105"/>
       <use x="355.416016" xlink:href="#DejaVuSans-99"/>
      </g>
     </g>
    </g>
    <g id="xtick_3">
     <g id="line2d_3">
      <g>
       <use style="stroke:#000000;stroke-width:0.8;" x="158.890625" xlink:href="#m0efcd9aaa7" y="288.430125"/>
      </g>
     </g>
     <g id="text_3">
      <!-- aflplusplus_qemu -->
      <g transform="translate(82.061693 345.687127)rotate(-30)scale(0.1 -0.1)">
       <defs>
        <path d="M 50.984375 -16.609375 
L 50.984375 -23.578125 
L -0.984375 -23.578125 
L -0.984375 -16.609375 
z
" id="DejaVuSans-95"/>
        <path d="M 14.796875 27.296875 
Q 14.796875 17.390625 18.875 11.75 
Q 22.953125 6.109375 30.078125 6.109375 
Q 37.203125 6.109375 41.296875 11.75 
Q 45.40625 17.390625 45.40625 27.296875 
Q 45.40625 37.203125 41.296875 42.84375 
Q 37.203125 48.484375 30.078125 48.484375 
Q 22.953125 48.484375 18.875 42.84375 
Q 14.796875 37.203125 14.796875 27.296875 
z
M 45.40625 8.203125 
Q 42.578125 3.328125 38.25 0.953125 
Q 33.9375 -1.421875 27.875 -1.421875 
Q 17.96875 -1.421875 11.734375 6.484375 
Q 5.515625 14.40625 5.515625 27.296875 
Q 5.515625 40.1875 11.734375 48.09375 
Q 17.96875 56 27.875 56 
Q 33.9375 56 38.25 53.625 
Q 42.578125 51.265625 45.40625 46.390625 
L 45.40625 54.6875 
L 54.390625 54.6875 
L 54.390625 -20.796875 
L 45.40625 -20.796875 
z
" id="DejaVuSans-113"/>
        <path d="M 52 44.1875 
Q 55.375 50.25 60.0625 53.125 
Q 64.75 56 71.09375 56 
Q 79.640625 56 84.28125 50.015625 
Q 88.921875 44.046875 88.921875 33.015625 
L 88.921875 0 
L 79.890625 0 
L 79.890625 32.71875 
Q 79.890625 40.578125 77.09375 44.375 
Q 74.3125 48.1875 68.609375 48.1875 
Q 61.625 48.1875 57.5625 43.546875 
Q 53.515625 38.921875 53.515625 30.90625 
L 53.515625 0 
L 44.484375 0 
L 44.484375 32.71875 
Q 44.484375 40.625 41.703125 44.40625 
Q 38.921875 48.1875 33.109375 48.1875 
Q 26.21875 48.1875 22.15625 43.53125 
Q 18.109375 38.875 18.109375 30.90625 
L 18.109375 0 
L 9.078125 0 
L 9.078125 54.6875 
L 18.109375 54.6875 
L 18.109375 46.1875 
Q 21.1875 51.21875 25.484375 53.609375 
Q 29.78125 56 35.6875 56 
Q 41.65625 56 45.828125 52.96875 
Q 50 49.953125 52 44.1875 
z
" id="DejaVuSans-109"/>
       </defs>
       <use xlink:href="#DejaVuSans-97"/>
       <use x="61.279297" xlink:href="#DejaVuSans-102"/>
       <use x="96.484375" xlink:href="#DejaVuSans-108"/>
       <use x="124.267578" xlink:href="#DejaVuSans-112"/>
       <use x="187.744141" xlink:href="#DejaVuSans-108"/>
       <use x="215.527344" xlink:href="#DejaVuSans-117"/>
       <use x="278.90625" xlink:href="#DejaVuSans-115"/>
       <use x="331.005859" xlink:href="#DejaVuSans-112"/>
       <use x="394.482422" xlink:href="#DejaVuSans-108"/>
       <use x="422.265625" xlink:href="#DejaVuSans-117"/>
       <use x="485.644531" xlink:href="#DejaVuSans-115"/>
       <use x="537.744141" xlink:href="#DejaVuSans-95"/>
       <use x="587.744141" xlink:href="#DejaVuSans-113"/>
       <use x="651.220703" xlink:href="#DejaVuSans-101"/>
       <use x="712.744141" xlink:href="#DejaVuSans-109"/>
       <use x="810.15625" xlink:href="#DejaVuSans-117"/>
      </g>
     </g>
    </g>
    <g id="xtick_4">
     <g id="line2d_4">
      <g>
       <use style="stroke:#000000;stroke-width:0.8;" x="198.570625" xlink:href="#m0efcd9aaa7" y="288.430125"/>
      </g>
     </g>
     <g id="text_4">
      <!-- mopt -->
      <g transform="translate(174.903161 315.074627)rotate(-30)scale(0.1 -0.1)">
       <use xlink:href="#DejaVuSans-109"/>
       <use x="97.412109" xlink:href="#DejaVuSans-111"/>
       <use x="158.59375" xlink:href="#DejaVuSans-112"/>
       <use x="222.070312" xlink:href="#DejaVuSans-116"/>
      </g>
     </g>
    </g>
    <g id="xtick_5">
     <g id="line2d_5">
      <g>
       <use style="stroke:#000000;stroke-width:0.8;" x="238.250625" xlink:href="#m0efcd9aaa7" y="288.430125"/>
      </g>
     </g>
     <g id="text_5">
      <!-- honggfuzz -->
      <g transform="translate(192.311424 327.933221)rotate(-30)scale(0.1 -0.1)">
       <defs>
        <path d="M 54.890625 33.015625 
L 54.890625 0 
L 45.90625 0 
L 45.90625 32.71875 
Q 45.90625 40.484375 42.875 44.328125 
Q 39.84375 48.1875 33.796875 48.1875 
Q 26.515625 48.1875 22.3125 43.546875 
Q 18.109375 38.921875 18.109375 30.90625 
L 18.109375 0 
L 9.078125 0 
L 9.078125 75.984375 
L 18.109375 75.984375 
L 18.109375 46.1875 
Q 21.34375 51.125 25.703125 53.5625 
Q 30.078125 56 35.796875 56 
Q 45.21875 56 50.046875 50.171875 
Q 54.890625 44.34375 54.890625 33.015625 
z
" id="DejaVuSans-104"/>
        <path d="M 45.40625 27.984375 
Q 45.40625 37.75 41.375 43.109375 
Q 37.359375 48.484375 30.078125 48.484375 
Q 22.859375 48.484375 18.828125 43.109375 
Q 14.796875 37.75 14.796875 27.984375 
Q 14.796875 18.265625 18.828125 12.890625 
Q 22.859375 7.515625 30.078125 7.515625 
Q 37.359375 7.515625 41.375 12.890625 
Q 45.40625 18.265625 45.40625 27.984375 
z
M 54.390625 6.78125 
Q 54.390625 -7.171875 48.1875 -13.984375 
Q 42 -20.796875 29.203125 -20.796875 
Q 24.46875 -20.796875 20.265625 -20.09375 
Q 16.0625 -19.390625 12.109375 -17.921875 
L 12.109375 -9.1875 
Q 16.0625 -11.328125 19.921875 -12.34375 
Q 23.78125 -13.375 27.78125 -13.375 
Q 36.625 -13.375 41.015625 -8.765625 
Q 45.40625 -4.15625 45.40625 5.171875 
L 45.40625 9.625 
Q 42.625 4.78125 38.28125 2.390625 
Q 33.9375 0 27.875 0 
Q 17.828125 0 11.671875 7.65625 
Q 5.515625 15.328125 5.515625 27.984375 
Q 5.515625 40.671875 11.671875 48.328125 
Q 17.828125 56 27.875 56 
Q 33.9375 56 38.28125 53.609375 
Q 42.625 51.21875 45.40625 46.390625 
L 45.40625 54.6875 
L 54.390625 54.6875 
z
" id="DejaVuSans-103"/>
        <path d="M 5.515625 54.6875 
L 48.1875 54.6875 
L 48.1875 46.484375 
L 14.40625 7.171875 
L 48.1875 7.171875 
L 48.1875 0 
L 4.296875 0 
L 4.296875 8.203125 
L 38.09375 47.515625 
L 5.515625 47.515625 
z
" id="DejaVuSans-122"/>
       </defs>
       <use xlink:href="#DejaVuSans-104"/>
       <use x="63.378906" xlink:href="#DejaVuSans-111"/>
       <use x="124.560547" xlink:href="#DejaVuSans-110"/>
       <use x="187.939453" xlink:href="#DejaVuSans-103"/>
       <use x="251.416016" xlink:href="#DejaVuSans-103"/>
       <use x="314.892578" xlink:href="#DejaVuSans-102"/>
       <use x="350.097656" xlink:href="#DejaVuSans-117"/>
       <use x="413.476562" xlink:href="#DejaVuSans-122"/>
       <use x="465.966797" xlink:href="#DejaVuSans-122"/>
      </g>
     </g>
    </g>
    <g id="xtick_6">
     <g id="line2d_6">
      <g>
       <use style="stroke:#000000;stroke-width:0.8;" x="277.930625" xlink:href="#m0efcd9aaa7" y="288.430125"/>
      </g>
     </g>
     <g id="text_6">
      <!-- libfuzzer -->
      <g transform="translate(240.064404 323.272284)rotate(-30)scale(0.1 -0.1)">
       <defs>
        <path d="M 48.6875 27.296875 
Q 48.6875 37.203125 44.609375 42.84375 
Q 40.53125 48.484375 33.40625 48.484375 
Q 26.265625 48.484375 22.1875 42.84375 
Q 18.109375 37.203125 18.109375 27.296875 
Q 18.109375 17.390625 22.1875 11.75 
Q 26.265625 6.109375 33.40625 6.109375 
Q 40.53125 6.109375 44.609375 11.75 
Q 48.6875 17.390625 48.6875 27.296875 
z
M 18.109375 46.390625 
Q 20.953125 51.265625 25.265625 53.625 
Q 29.59375 56 35.59375 56 
Q 45.5625 56 51.78125 48.09375 
Q 58.015625 40.1875 58.015625 27.296875 
Q 58.015625 14.40625 51.78125 6.484375 
Q 45.5625 -1.421875 35.59375 -1.421875 
Q 29.59375 -1.421875 25.265625 0.953125 
Q 20.953125 3.328125 18.109375 8.203125 
L 18.109375 0 
L 9.078125 0 
L 9.078125 75.984375 
L 18.109375 75.984375 
z
" id="DejaVuSans-98"/>
       </defs>
       <use xlink:href="#DejaVuSans-108"/>
       <use x="27.783203" xlink:href="#DejaVuSans-105"/>
       <use x="55.566406" xlink:href="#DejaVuSans-98"/>
       <use x="119.042969" xlink:href="#DejaVuSans-102"/>
       <use x="154.248047" xlink:href="#DejaVuSans-117"/>
       <use x="217.626953" xlink:href="#DejaVuSans-122"/>
       <use x="270.117188" xlink:href="#DejaVuSans-122"/>
       <use x="322.607422" xlink:href="#DejaVuSans-101"/>
       <use x="384.130859" xlink:href="#DejaVuSans-114"/>
      </g>
     </g>
    </g>
    <g id="xtick_7">
     <g id="line2d_7">
      <g>
       <use style="stroke:#000000;stroke-width:0.8;" x="317.610625" xlink:href="#m0efcd9aaa7" y="288.430125"/>
      </g>
     </g>
     <g id="text_7">
      <!-- aflplusplus_flat -->
      <g transform="translate(251.37562 339.570721)rotate(-30)scale(0.1 -0.1)">
       <use xlink:href="#DejaVuSans-97"/>
       <use x="61.279297" xlink:href="#DejaVuSans-102"/>
       <use x="96.484375" xlink:href="#DejaVuSans-108"/>
       <use x="124.267578" xlink:href="#DejaVuSans-112"/>
       <use x="187.744141" xlink:href="#DejaVuSans-108"/>
       <use x="215.527344" xlink:href="#DejaVuSans-117"/>
       <use x="278.90625" xlink:href="#DejaVuSans-115"/>
       <use x="331.005859" xlink:href="#DejaVuSans-112"/>
       <use x="394.482422" xlink:href="#DejaVuSans-108"/>
       <use x="422.265625" xlink:href="#DejaVuSans-117"/>
       <use x="485.644531" xlink:href="#DejaVuSans-115"/>
       <use x="537.744141" xlink:href="#DejaVuSans-95"/>
       <use x="587.744141" xlink:href="#DejaVuSans-102"/>
       <use x="622.949219" xlink:href="#DejaVuSans-108"/>
       <use x="650.732422" xlink:href="#DejaVuSans-97"/>
       <use x="712.011719" xlink:href="#DejaVuSans-116"/>
      </g>
     </g>
    </g>
    <g id="xtick_8">
     <g id="line2d_8">
      <g>
       <use style="stroke:#000000;stroke-width:0.8;" x="357.290625" xlink:href="#m0efcd9aaa7" y="288.430125"/>
      </g>
     </g>
     <g id="text_8">
      <!-- lafintel -->
      <g transform="translate(326.46492 319.20744)rotate(-30)scale(0.1 -0.1)">
       <use xlink:href="#DejaVuSans-108"/>
       <use x="27.783203" xlink:href="#DejaVuSans-97"/>
       <use x="89.0625" xlink:href="#DejaVuSans-102"/>
       <use x="124.267578" xlink:href="#DejaVuSans-105"/>
       <use x="152.050781" xlink:href="#DejaVuSans-110"/>
       <use x="215.429688" xlink:href="#DejaVuSans-116"/>
       <use x="254.638672" xlink:href="#DejaVuSans-101"/>
       <use x="316.162109" xlink:href="#DejaVuSans-108"/>
      </g>
     </g>
    </g>
    <g id="xtick_9">
     <g id="line2d_9">
      <g>
       <use style="stroke:#000000;stroke-width:0.8;" x="396.970625" xlink:href="#m0efcd9aaa7" y="288.430125"/>
      </g>
     </g>
     <g id="text_9">
      <!-- fairfuzz -->
      <g transform="translate(363.98121 320.456659)rotate(-30)scale(0.1 -0.1)">
       <use xlink:href="#DejaVuSans-102"/>
       <use x="35.205078" xlink:href="#DejaVuSans-97"/>
       <use x="96.484375" xlink:href="#DejaVuSans-105"/>
       <use x="124.267578" xlink:href="#DejaVuSans-114"/>
       <use x="165.380859" xlink:href="#DejaVuSans-102"/>
       <use x="200.585938" xlink:href="#DejaVuSans-117"/>
       <use x="263.964844" xlink:href="#DejaVuSans-122"/>
       <use x="316.455078" xlink:href="#DejaVuSans-122"/>
      </g>
     </g>
    </g>
    <g id="text_10">
     <!-- Fuzzer (highest median coverage on the left) -->
     <g transform="translate(125.632656 359.32749)scale(0.1 -0.1)">
      <defs>
       <path d="M 9.8125 72.90625 
L 51.703125 72.90625 
L 51.703125 64.59375 
L 19.671875 64.59375 
L 19.671875 43.109375 
L 48.578125 43.109375 
L 48.578125 34.8125 
L 19.671875 34.8125 
L 19.671875 0 
L 9.8125 0 
z
" id="DejaVuSans-70"/>
       <path id="DejaVuSans-32"/>
       <path d="M 31 75.875 
Q 24.46875 64.65625 21.28125 53.65625 
Q 18.109375 42.671875 18.109375 31.390625 
Q 18.109375 20.125 21.3125 9.0625 
Q 24.515625 -2 31 -13.1875 
L 23.1875 -13.1875 
Q 15.875 -1.703125 12.234375 9.375 
Q 8.59375 20.453125 8.59375 31.390625 
Q 8.59375 42.28125 12.203125 53.3125 
Q 15.828125 64.359375 23.1875 75.875 
z
" id="DejaVuSans-40"/>
       <path d="M 45.40625 46.390625 
L 45.40625 75.984375 
L 54.390625 75.984375 
L 54.390625 0 
L 45.40625 0 
L 45.40625 8.203125 
Q 42.578125 3.328125 38.25 0.953125 
Q 33.9375 -1.421875 27.875 -1.421875 
Q 17.96875 -1.421875 11.734375 6.484375 
Q 5.515625 14.40625 5.515625 27.296875 
Q 5.515625 40.1875 11.734375 48.09375 
Q 17.96875 56 27.875 56 
Q 33.9375 56 38.25 53.625 
Q 42.578125 51.265625 45.40625 46.390625 
z
M 14.796875 27.296875 
Q 14.796875 17.390625 18.875 11.75 
Q 22.953125 6.109375 30.078125 6.109375 
Q 37.203125 6.109375 41.296875 11.75 
Q 45.40625 17.390625 45.40625 27.296875 
Q 45.40625 37.203125 41.296875 42.84375 
Q 37.203125 48.484375 30.078125 48.484375 
Q 22.953125 48.484375 18.875 42.84375 
Q 14.796875 37.203125 14.796875 27.296875 
z
" id="DejaVuSans-100"/>
       <path d="M 2.984375 54.6875 
L 12.5 54.6875 
L 29.59375 8.796875 
L 46.6875 54.6875 
L 56.203125 54.6875 
L 35.6875 0 
L 23.484375 0 
z
" id="DejaVuSans-118"/>
       <path d="M 8.015625 75.875 
L 15.828125 75.875 
Q 23.140625 64.359375 26.78125 53.3125 
Q 30.421875 42.28125 30.421875 31.390625 
Q 30.421875 20.453125 26.78125 9.375 
Q 23.140625 -1.703125 15.828125 -13.1875 
L 8.015625 -13.1875 
Q 14.5 -2 17.703125 9.0625 
Q 20.90625 20.125 20.90625 31.390625 
Q 20.90625 42.671875 17.703125 53.65625 
Q 14.5 64.65625 8.015625 75.875 
z
" id="DejaVuSans-41"/>
      </defs>
      <use xlink:href="#DejaVuSans-70"/>
      <use x="52.019531" xlink:href="#DejaVuSans-117"/>
      <use x="115.398438" xlink:href="#DejaVuSans-122"/>
      <use x="167.888672" xlink:href="#DejaVuSans-122"/>
      <use x="220.378906" xlink:href="#DejaVuSans-101"/>
      <use x="281.902344" xlink:href="#DejaVuSans-114"/>
      <use x="323.015625" xlink:href="#DejaVuSans-32"/>
      <use x="354.802734" xlink:href="#DejaVuSans-40"/>
      <use x="393.816406" xlink:href="#DejaVuSans-104"/>
      <use x="457.195312" xlink:href="#DejaVuSans-105"/>
      <use x="484.978516" xlink:href="#DejaVuSans-103"/>
      <use x="548.455078" xlink:href="#DejaVuSans-104"/>
      <use x="611.833984" xlink:href="#DejaVuSans-101"/>
      <use x="673.357422" xlink:href="#DejaVuSans-115"/>
      <use x="725.457031" xlink:href="#DejaVuSans-116"/>
      <use x="764.666016" xlink:href="#DejaVuSans-32"/>
      <use x="796.453125" xlink:href="#DejaVuSans-109"/>
      <use x="893.865234" xlink:href="#DejaVuSans-101"/>
      <use x="955.388672" xlink:href="#DejaVuSans-100"/>
      <use x="1018.865234" xlink:href="#DejaVuSans-105"/>
      <use x="1046.648438" xlink:href="#DejaVuSans-97"/>
      <use x="1107.927734" xlink:href="#DejaVuSans-110"/>
      <use x="1171.306641" xlink:href="#DejaVuSans-32"/>
      <use x="1203.09375" xlink:href="#DejaVuSans-99"/>
      <use x="1258.074219" xlink:href="#DejaVuSans-111"/>
      <use x="1319.255859" xlink:href="#DejaVuSans-118"/>
      <use x="1378.435547" xlink:href="#DejaVuSans-101"/>
      <use x="1439.958984" xlink:href="#DejaVuSans-114"/>
      <use x="1481.072266" xlink:href="#DejaVuSans-97"/>
      <use x="1542.351562" xlink:href="#DejaVuSans-103"/>
      <use x="1605.828125" xlink:href="#DejaVuSans-101"/>
      <use x="1667.351562" xlink:href="#DejaVuSans-32"/>
      <use x="1699.138672" xlink:href="#DejaVuSans-111"/>
      <use x="1760.320312" xlink:href="#DejaVuSans-110"/>
      <use x="1823.699219" xlink:href="#DejaVuSans-32"/>
      <use x="1855.486328" xlink:href="#DejaVuSans-116"/>
      <use x="1894.695312" xlink:href="#DejaVuSans-104"/>
      <use x="1958.074219" xlink:href="#DejaVuSans-101"/>
      <use x="2019.597656" xlink:href="#DejaVuSans-32"/>
      <use x="2051.384766" xlink:href="#DejaVuSans-108"/>
      <use x="2079.167969" xlink:href="#DejaVuSans-101"/>
      <use x="2140.691406" xlink:href="#DejaVuSans-102"/>
      <use x="2174.146484" xlink:href="#DejaVuSans-116"/>
      <use x="2213.355469" xlink:href="#DejaVuSans-41"/>
     </g>
    </g>
   </g>
   <g id="matplotlib.axis_2">
    <g id="ytick_1">
     <g id="line2d_10">
      <defs>
       <path d="M 0 0 
L -3.5 0 
" id="m5e617ddd2c" style="stroke:#000000;stroke-width:0.8;"/>
      </defs>
      <g>
       <use style="stroke:#000000;stroke-width:0.8;" x="59.690625" xlink:href="#m5e617ddd2c" y="266.803083"/>
      </g>
     </g>
     <g id="text_11">
      <!-- 4000 -->
      <g transform="translate(27.240625 270.602302)scale(0.1 -0.1)">
       <defs>
        <path d="M 37.796875 64.3125 
L 12.890625 25.390625 
L 37.796875 25.390625 
z
M 35.203125 72.90625 
L 47.609375 72.90625 
L 47.609375 25.390625 
L 58.015625 25.390625 
L 58.015625 17.1875 
L 47.609375 17.1875 
L 47.609375 0 
L 37.796875 0 
L 37.796875 17.1875 
L 4.890625 17.1875 
L 4.890625 26.703125 
z
" id="DejaVuSans-52"/>
        <path d="M 31.78125 66.40625 
Q 24.171875 66.40625 20.328125 58.90625 
Q 16.5 51.421875 16.5 36.375 
Q 16.5 21.390625 20.328125 13.890625 
Q 24.171875 6.390625 31.78125 6.390625 
Q 39.453125 6.390625 43.28125 13.890625 
Q 47.125 21.390625 47.125 36.375 
Q 47.125 51.421875 43.28125 58.90625 
Q 39.453125 66.40625 31.78125 66.40625 
z
M 31.78125 74.21875 
Q 44.046875 74.21875 50.515625 64.515625 
Q 56.984375 54.828125 56.984375 36.375 
Q 56.984375 17.96875 50.515625 8.265625 
Q 44.046875 -1.421875 31.78125 -1.421875 
Q 19.53125 -1.421875 13.0625 8.265625 
Q 6.59375 17.96875 6.59375 36.375 
Q 6.59375 54.828125 13.0625 64.515625 
Q 19.53125 74.21875 31.78125 74.21875 
z
" id="DejaVuSans-48"/>
       </defs>
       <use xlink:href="#DejaVuSans-52"/>
       <use x="63.623047" xlink:href="#DejaVuSans-48"/>
       <use x="127.246094" xlink:href="#DejaVuSans-48"/>
       <use x="190.869141" xlink:href="#DejaVuSans-48"/>
      </g>
     </g>
    </g>
    <g id="ytick_2">
     <g id="line2d_11">
      <g>
       <use style="stroke:#000000;stroke-width:0.8;" x="59.690625" xlink:href="#m5e617ddd2c" y="219.287918"/>
      </g>
     </g>
     <g id="text_12">
      <!-- 6000 -->
      <g transform="translate(27.240625 223.087137)scale(0.1 -0.1)">
       <defs>
        <path d="M 33.015625 40.375 
Q 26.375 40.375 22.484375 35.828125 
Q 18.609375 31.296875 18.609375 23.390625 
Q 18.609375 15.53125 22.484375 10.953125 
Q 26.375 6.390625 33.015625 6.390625 
Q 39.65625 6.390625 43.53125 10.953125 
Q 47.40625 15.53125 47.40625 23.390625 
Q 47.40625 31.296875 43.53125 35.828125 
Q 39.65625 40.375 33.015625 40.375 
z
M 52.59375 71.296875 
L 52.59375 62.3125 
Q 48.875 64.0625 45.09375 64.984375 
Q 41.3125 65.921875 37.59375 65.921875 
Q 27.828125 65.921875 22.671875 59.328125 
Q 17.53125 52.734375 16.796875 39.40625 
Q 19.671875 43.65625 24.015625 45.921875 
Q 28.375 48.1875 33.59375 48.1875 
Q 44.578125 48.1875 50.953125 41.515625 
Q 57.328125 34.859375 57.328125 23.390625 
Q 57.328125 12.15625 50.6875 5.359375 
Q 44.046875 -1.421875 33.015625 -1.421875 
Q 20.359375 -1.421875 13.671875 8.265625 
Q 6.984375 17.96875 6.984375 36.375 
Q 6.984375 53.65625 15.1875 63.9375 
Q 23.390625 74.21875 37.203125 74.21875 
Q 40.921875 74.21875 44.703125 73.484375 
Q 48.484375 72.75 52.59375 71.296875 
z
" id="DejaVuSans-54"/>
       </defs>
       <use xlink:href="#DejaVuSans-54"/>
       <use x="63.623047" xlink:href="#DejaVuSans-48"/>
       <use x="127.246094" xlink:href="#DejaVuSans-48"/>
       <use x="190.869141" xlink:href="#DejaVuSans-48"/>
      </g>
     </g>
    </g>
    <g id="ytick_3">
     <g id="line2d_12">
      <g>
       <use style="stroke:#000000;stroke-width:0.8;" x="59.690625" xlink:href="#m5e617ddd2c" y="171.772753"/>
      </g>
     </g>
     <g id="text_13">
      <!-- 8000 -->
      <g transform="translate(27.240625 175.571972)scale(0.1 -0.1)">
       <defs>
        <path d="M 31.78125 34.625 
Q 24.75 34.625 20.71875 30.859375 
Q 16.703125 27.09375 16.703125 20.515625 
Q 16.703125 13.921875 20.71875 10.15625 
Q 24.75 6.390625 31.78125 6.390625 
Q 38.8125 6.390625 42.859375 10.171875 
Q 46.921875 13.96875 46.921875 20.515625 
Q 46.921875 27.09375 42.890625 30.859375 
Q 38.875 34.625 31.78125 34.625 
z
M 21.921875 38.8125 
Q 15.578125 40.375 12.03125 44.71875 
Q 8.5 49.078125 8.5 55.328125 
Q 8.5 64.0625 14.71875 69.140625 
Q 20.953125 74.21875 31.78125 74.21875 
Q 42.671875 74.21875 48.875 69.140625 
Q 55.078125 64.0625 55.078125 55.328125 
Q 55.078125 49.078125 51.53125 44.71875 
Q 48 40.375 41.703125 38.8125 
Q 48.828125 37.15625 52.796875 32.3125 
Q 56.78125 27.484375 56.78125 20.515625 
Q 56.78125 9.90625 50.3125 4.234375 
Q 43.84375 -1.421875 31.78125 -1.421875 
Q 19.734375 -1.421875 13.25 4.234375 
Q 6.78125 9.90625 6.78125 20.515625 
Q 6.78125 27.484375 10.78125 32.3125 
Q 14.796875 37.15625 21.921875 38.8125 
z
M 18.3125 54.390625 
Q 18.3125 48.734375 21.84375 45.5625 
Q 25.390625 42.390625 31.78125 42.390625 
Q 38.140625 42.390625 41.71875 45.5625 
Q 45.3125 48.734375 45.3125 54.390625 
Q 45.3125 60.0625 41.71875 63.234375 
Q 38.140625 66.40625 31.78125 66.40625 
Q 25.390625 66.40625 21.84375 63.234375 
Q 18.3125 60.0625 18.3125 54.390625 
z
" id="DejaVuSans-56"/>
       </defs>
       <use xlink:href="#DejaVuSans-56"/>
       <use x="63.623047" xlink:href="#DejaVuSans-48"/>
       <use x="127.246094" xlink:href="#DejaVuSans-48"/>
       <use x="190.869141" xlink:href="#DejaVuSans-48"/>
      </g>
     </g>
    </g>
    <g id="ytick_4">
     <g id="line2d_13">
      <g>
       <use style="stroke:#000000;stroke-width:0.8;" x="59.690625" xlink:href="#m5e617ddd2c" y="124.257589"/>
      </g>
     </g>
     <g id="text_14">
      <!-- 10000 -->
      <g transform="translate(20.878125 128.056807)scale(0.1 -0.1)">
       <defs>
        <path d="M 12.40625 8.296875 
L 28.515625 8.296875 
L 28.515625 63.921875 
L 10.984375 60.40625 
L 10.984375 69.390625 
L 28.421875 72.90625 
L 38.28125 72.90625 
L 38.28125 8.296875 
L 54.390625 8.296875 
L 54.390625 0 
L 12.40625 0 
z
" id="DejaVuSans-49"/>
       </defs>
       <use xlink:href="#DejaVuSans-49"/>
       <use x="63.623047" xlink:href="#DejaVuSans-48"/>
       <use x="127.246094" xlink:href="#DejaVuSans-48"/>
       <use x="190.869141" xlink:href="#DejaVuSans-48"/>
       <use x="254.492188" xlink:href="#DejaVuSans-48"/>
      </g>
     </g>
    </g>
    <g id="ytick_5">
     <g id="line2d_14">
      <g>
       <use style="stroke:#000000;stroke-width:0.8;" x="59.690625" xlink:href="#m5e617ddd2c" y="76.742424"/>
      </g>
     </g>
     <g id="text_15">
      <!-- 12000 -->
      <g transform="translate(20.878125 80.541642)scale(0.1 -0.1)">
       <defs>
        <path d="M 19.1875 8.296875 
L 53.609375 8.296875 
L 53.609375 0 
L 7.328125 0 
L 7.328125 8.296875 
Q 12.9375 14.109375 22.625 23.890625 
Q 32.328125 33.6875 34.8125 36.53125 
Q 39.546875 41.84375 41.421875 45.53125 
Q 43.3125 49.21875 43.3125 52.78125 
Q 43.3125 58.59375 39.234375 62.25 
Q 35.15625 65.921875 28.609375 65.921875 
Q 23.96875 65.921875 18.8125 64.3125 
Q 13.671875 62.703125 7.8125 59.421875 
L 7.8125 69.390625 
Q 13.765625 71.78125 18.9375 73 
Q 24.125 74.21875 28.421875 74.21875 
Q 39.75 74.21875 46.484375 68.546875 
Q 53.21875 62.890625 53.21875 53.421875 
Q 53.21875 48.921875 51.53125 44.890625 
Q 49.859375 40.875 45.40625 35.40625 
Q 44.1875 33.984375 37.640625 27.21875 
Q 31.109375 20.453125 19.1875 8.296875 
z
" id="DejaVuSans-50"/>
       </defs>
       <use xlink:href="#DejaVuSans-49"/>
       <use x="63.623047" xlink:href="#DejaVuSans-50"/>
       <use x="127.246094" xlink:href="#DejaVuSans-48"/>
       <use x="190.869141" xlink:href="#DejaVuSans-48"/>
       <use x="254.492188" xlink:href="#DejaVuSans-48"/>
      </g>
     </g>
    </g>
    <g id="ytick_6">
     <g id="line2d_15">
      <g>
       <use style="stroke:#000000;stroke-width:0.8;" x="59.690625" xlink:href="#m5e617ddd2c" y="29.227259"/>
      </g>
     </g>
     <g id="text_16">
      <!-- 14000 -->
      <g transform="translate(20.878125 33.026478)scale(0.1 -0.1)">
       <use xlink:href="#DejaVuSans-49"/>
       <use x="63.623047" xlink:href="#DejaVuSans-52"/>
       <use x="127.246094" xlink:href="#DejaVuSans-48"/>
       <use x="190.869141" xlink:href="#DejaVuSans-48"/>
       <use x="254.492188" xlink:href="#DejaVuSans-48"/>
      </g>
     </g>
    </g>
    <g id="text_17">
     <!-- Reached region coverage -->
     <g transform="translate(14.798438 219.136625)rotate(-90)scale(0.1 -0.1)">
      <defs>
       <path d="M 44.390625 34.1875 
Q 47.5625 33.109375 50.5625 29.59375 
Q 53.5625 26.078125 56.59375 19.921875 
L 66.609375 0 
L 56 0 
L 46.6875 18.703125 
Q 43.0625 26.03125 39.671875 28.421875 
Q 36.28125 30.8125 30.421875 30.8125 
L 19.671875 30.8125 
L 19.671875 0 
L 9.8125 0 
L 9.8125 72.90625 
L 32.078125 72.90625 
Q 44.578125 72.90625 50.734375 67.671875 
Q 56.890625 62.453125 56.890625 51.90625 
Q 56.890625 45.015625 53.6875 40.46875 
Q 50.484375 35.9375 44.390625 34.1875 
z
M 19.671875 64.796875 
L 19.671875 38.921875 
L 32.078125 38.921875 
Q 39.203125 38.921875 42.84375 42.21875 
Q 46.484375 45.515625 46.484375 51.90625 
Q 46.484375 58.296875 42.84375 61.546875 
Q 39.203125 64.796875 32.078125 64.796875 
z
" id="DejaVuSans-82"/>
      </defs>
      <use xlink:href="#DejaVuSans-82"/>
      <use x="64.982422" xlink:href="#DejaVuSans-101"/>
      <use x="126.505859" xlink:href="#DejaVuSans-97"/>
      <use x="187.785156" xlink:href="#DejaVuSans-99"/>
      <use x="242.765625" xlink:href="#DejaVuSans-104"/>
      <use x="306.144531" xlink:href="#DejaVuSans-101"/>
      <use x="367.667969" xlink:href="#DejaVuSans-100"/>
      <use x="431.144531" xlink:href="#DejaVuSans-32"/>
      <use x="462.931641" xlink:href="#DejaVuSans-114"/>
      <use x="501.794922" xlink:href="#DejaVuSans-101"/>
      <use x="563.318359" xlink:href="#DejaVuSans-103"/>
      <use x="626.794922" xlink:href="#DejaVuSans-105"/>
      <use x="654.578125" xlink:href="#DejaVuSans-111"/>
      <use x="715.759766" xlink:href="#DejaVuSans-110"/>
      <use x="779.138672" xlink:href="#DejaVuSans-32"/>
      <use x="810.925781" xlink:href="#DejaVuSans-99"/>
      <use x="865.90625" xlink:href="#DejaVuSans-111"/>
      <use x="927.087891" xlink:href="#DejaVuSans-118"/>
      <use x="986.267578" xlink:href="#DejaVuSans-101"/>
      <use x="1047.791016" xlink:href="#DejaVuSans-114"/>
      <use x="1088.904297" xlink:href="#DejaVuSans-97"/>
      <use x="1150.183594" xlink:href="#DejaVuSans-103"/>
      <use x="1213.660156" xlink:href="#DejaVuSans-101"/>
     </g>
    </g>
   </g>
   <g id="line2d_16">
    <path clip-path="url(#p536d32f20f)" d="M 79.530625 84.677456 
L 79.530625 48.18581 
" style="fill:none;stroke:#3d3d3d;stroke-linecap:square;stroke-width:1.5;"/>
   </g>
   <g id="line2d_17">
    <path clip-path="url(#p536d32f20f)" d="M 79.530625 70.39321 
L 79.530625 58.253085 
" style="fill:none;stroke:#3d3d3d;stroke-linecap:square;stroke-width:4.5;"/>
   </g>
   <g id="line2d_18">
    <path clip-path="url(#p536d32f20f)" d="M 119.210625 156.47287 
L 119.210625 77.621454 
" style="fill:none;stroke:#3d3d3d;stroke-linecap:square;stroke-width:1.5;"/>
   </g>
   <g id="line2d_19">
    <path clip-path="url(#p536d32f20f)" d="M 119.210625 120.628618 
L 119.210625 92.475883 
" style="fill:none;stroke:#3d3d3d;stroke-linecap:square;stroke-width:4.5;"/>
   </g>
   <g id="line2d_20">
    <path clip-path="url(#p536d32f20f)" d="M 158.890625 177.99724 
L 158.890625 91.377094 
" style="fill:none;stroke:#3d3d3d;stroke-linecap:square;stroke-width:1.5;"/>
   </g>
   <g id="line2d_21">
    <path clip-path="url(#p536d32f20f)" d="M 158.890625 145.847292 
L 158.890625 111.208736 
" style="fill:none;stroke:#3d3d3d;stroke-linecap:square;stroke-width:4.5;"/>
   </g>
   <g id="line2d_22">
    <path clip-path="url(#p536d32f20f)" d="M 198.570625 175.170088 
L 198.570625 108.078675 
" style="fill:none;stroke:#3d3d3d;stroke-linecap:square;stroke-width:1.5;"/>
   </g>
   <g id="line2d_23">
    <path clip-path="url(#p536d32f20f)" d="M 198.570625 146.756019 
L 198.570625 123.46171 
" style="fill:none;stroke:#3d3d3d;stroke-linecap:square;stroke-width:4.5;"/>
   </g>
   <g id="line2d_24">
    <path clip-path="url(#p536d32f20f)" d="M 238.250625 209.666097 
L 238.250625 107.413463 
" style="fill:none;stroke:#3d3d3d;stroke-linecap:square;stroke-width:1.5;"/>
   </g>
   <g id="line2d_25">
    <path clip-path="url(#p536d32f20f)" d="M 238.250625 198.981125 
L 238.250625 140.549351 
" style="fill:none;stroke:#3d3d3d;stroke-linecap:square;stroke-width:4.5;"/>
   </g>
   <g id="line2d_26">
    <path clip-path="url(#p536d32f20f)" d="M 277.930625 207.860521 
L 277.930625 168.56548 
" style="fill:none;stroke:#3d3d3d;stroke-linecap:square;stroke-width:1.5;"/>
   </g>
   <g id="line2d_27">
    <path clip-path="url(#p536d32f20f)" d="M 277.930625 206.155915 
L 277.930625 170.400753 
" style="fill:none;stroke:#3d3d3d;stroke-linecap:square;stroke-width:4.5;"/>
   </g>
   <g id="line2d_28">
    <path clip-path="url(#p536d32f20f)" d="M 317.610625 216.888402 
L 317.610625 193.605972 
" style="fill:none;stroke:#3d3d3d;stroke-linecap:square;stroke-width:1.5;"/>
   </g>
   <g id="line2d_29">
    <path clip-path="url(#p536d32f20f)" d="M 317.610625 215.819311 
L 317.610625 204.849247 
" style="fill:none;stroke:#3d3d3d;stroke-linecap:square;stroke-width:4.5;"/>
   </g>
   <g id="line2d_30">
    <path clip-path="url(#p536d32f20f)" d="M 357.290625 220.475797 
L 357.290625 209.547309 
" style="fill:none;stroke:#3d3d3d;stroke-linecap:square;stroke-width:1.5;"/>
   </g>
   <g id="line2d_31">
    <path clip-path="url(#p536d32f20f)" d="M 357.290625 216.41919 
L 357.290625 213.330704 
" style="fill:none;stroke:#3d3d3d;stroke-linecap:square;stroke-width:4.5;"/>
   </g>
   <g id="line2d_32">
    <path clip-path="url(#p536d32f20f)" d="M 396.970625 241.833864 
L 396.970625 133.713106 
" style="fill:none;stroke:#3d3d3d;stroke-linecap:square;stroke-width:1.5;"/>
   </g>
   <g id="line2d_33">
    <path clip-path="url(#p536d32f20f)" d="M 396.970625 222.328889 
L 396.970625 186.223303 
" style="fill:none;stroke:#3d3d3d;stroke-linecap:square;stroke-width:4.5;"/>
   </g>
   <g id="patch_3">
    <path d="M 59.690625 266.803083 
L 59.690625 29.227259 
" style="fill:none;stroke:#000000;stroke-linecap:square;stroke-linejoin:miter;stroke-width:0.8;"/>
   </g>
   <g id="patch_4">
    <path d="M 79.530625 288.430125 
L 396.970625 288.430125 
" style="fill:none;stroke:#000000;stroke-linecap:square;stroke-linejoin:miter;stroke-width:0.8;"/>
   </g>
   <g id="PathCollection_1">
    <defs>
     <path d="M 0 1.5 
C 0.397805 1.5 0.77937 1.341951 1.06066 1.06066 
C 1.341951 0.77937 1.5 0.397805 1.5 0 
C 1.5 -0.397805 1.341951 -0.77937 1.06066 -1.06066 
C 0.77937 -1.341951 0.397805 -1.5 0 -1.5 
C -0.397805 -1.5 -0.77937 -1.341951 -1.06066 -1.06066 
C -1.341951 -0.77937 -1.5 -0.397805 -1.5 0 
C -1.5 0.397805 -1.341951 0.77937 -1.06066 1.06066 
C -0.77937 1.341951 -0.397805 1.5 0 1.5 
z
" id="mf5c806bb35" style="stroke:#3d3d3d;"/>
    </defs>
    <g clip-path="url(#p536d32f20f)">
     <use style="fill:#ffffff;stroke:#3d3d3d;" x="79.530625" xlink:href="#mf5c806bb35" y="65.588239"/>
    </g>
   </g>
   <g id="PathCollection_2">
    <g clip-path="url(#p536d32f20f)">
     <use style="fill:#ffffff;stroke:#3d3d3d;" x="119.210625" xlink:href="#mf5c806bb35" y="110.300009"/>
    </g>
   </g>
   <g id="PathCollection_3">
    <g clip-path="url(#p536d32f20f)">
     <use style="fill:#ffffff;stroke:#3d3d3d;" x="158.890625" xlink:href="#mf5c806bb35" y="131.824379"/>
    </g>
   </g>
   <g id="PathCollection_4">
    <g clip-path="url(#p536d32f20f)">
     <use style="fill:#ffffff;stroke:#3d3d3d;" x="198.570625" xlink:href="#mf5c806bb35" y="134.081349"/>
    </g>
   </g>
   <g id="PathCollection_5">
    <g clip-path="url(#p536d32f20f)">
     <use style="fill:#ffffff;stroke:#3d3d3d;" x="238.250625" xlink:href="#mf5c806bb35" y="182.095423"/>
    </g>
   </g>
   <g id="PathCollection_6">
    <g clip-path="url(#p536d32f20f)">
     <use style="fill:#ffffff;stroke:#3d3d3d;" x="277.930625" xlink:href="#mf5c806bb35" y="195.744154"/>
    </g>
   </g>
   <g id="PathCollection_7">
    <g clip-path="url(#p536d32f20f)">
     <use style="fill:#ffffff;stroke:#3d3d3d;" x="317.610625" xlink:href="#mf5c806bb35" y="213.051553"/>
    </g>
   </g>
   <g id="PathCollection_8">
    <g clip-path="url(#p536d32f20f)">
     <use style="fill:#ffffff;stroke:#3d3d3d;" x="357.290625" xlink:href="#mf5c806bb35" y="214.928402"/>
    </g>
   </g>
   <g id="PathCollection_9">
    <g clip-path="url(#p536d32f20f)">
     <use style="fill:#ffffff;stroke:#3d3d3d;" x="396.970625" xlink:href="#mf5c806bb35" y="216.009372"/>
    </g>
   </g>
   <g id="text_18">
    <!-- libxml2-v2.9.2 (23h, 6 trials/fuzzer) -->
    <g transform="translate(132.49125 16.318125)scale(0.12 -0.12)">
     <defs>
      <path d="M 54.890625 54.6875 
L 35.109375 28.078125 
L 55.90625 0 
L 45.3125 0 
L 29.390625 21.484375 
L 13.484375 0 
L 2.875 0 
L 24.125 28.609375 
L 4.6875 54.6875 
L 15.28125 54.6875 
L 29.78125 35.203125 
L 44.28125 54.6875 
z
" id="DejaVuSans-120"/>
      <path d="M 4.890625 31.390625 
L 31.203125 31.390625 
L 31.203125 23.390625 
L 4.890625 23.390625 
z
" id="DejaVuSans-45"/>
      <path d="M 10.6875 12.40625 
L 21 12.40625 
L 21 0 
L 10.6875 0 
z
" id="DejaVuSans-46"/>
      <path d="M 10.984375 1.515625 
L 10.984375 10.5 
Q 14.703125 8.734375 18.5 7.8125 
Q 22.3125 6.890625 25.984375 6.890625 
Q 35.75 6.890625 40.890625 13.453125 
Q 46.046875 20.015625 46.78125 33.40625 
Q 43.953125 29.203125 39.59375 26.953125 
Q 35.25 24.703125 29.984375 24.703125 
Q 19.046875 24.703125 12.671875 31.3125 
Q 6.296875 37.9375 6.296875 49.421875 
Q 6.296875 60.640625 12.9375 67.421875 
Q 19.578125 74.21875 30.609375 74.21875 
Q 43.265625 74.21875 49.921875 64.515625 
Q 56.59375 54.828125 56.59375 36.375 
Q 56.59375 19.140625 48.40625 8.859375 
Q 40.234375 -1.421875 26.421875 -1.421875 
Q 22.703125 -1.421875 18.890625 -0.6875 
Q 15.09375 0.046875 10.984375 1.515625 
z
M 30.609375 32.421875 
Q 37.25 32.421875 41.125 36.953125 
Q 45.015625 41.5 45.015625 49.421875 
Q 45.015625 57.28125 41.125 61.84375 
Q 37.25 66.40625 30.609375 66.40625 
Q 23.96875 66.40625 20.09375 61.84375 
Q 16.21875 57.28125 16.21875 49.421875 
Q 16.21875 41.5 20.09375 36.953125 
Q 23.96875 32.421875 30.609375 32.421875 
z
" id="DejaVuSans-57"/>
      <path d="M 40.578125 39.3125 
Q 47.65625 37.796875 51.625 33 
Q 55.609375 28.21875 55.609375 21.1875 
Q 55.609375 10.40625 48.1875 4.484375 
Q 40.765625 -1.421875 27.09375 -1.421875 
Q 22.515625 -1.421875 17.65625 -0.515625 
Q 12.796875 0.390625 7.625 2.203125 
L 7.625 11.71875 
Q 11.71875 9.328125 16.59375 8.109375 
Q 21.484375 6.890625 26.8125 6.890625 
Q 36.078125 6.890625 40.9375 10.546875 
Q 45.796875 14.203125 45.796875 21.1875 
Q 45.796875 27.640625 41.28125 31.265625 
Q 36.765625 34.90625 28.71875 34.90625 
L 20.21875 34.90625 
L 20.21875 43.015625 
L 29.109375 43.015625 
Q 36.375 43.015625 40.234375 45.921875 
Q 44.09375 48.828125 44.09375 54.296875 
Q 44.09375 59.90625 40.109375 62.90625 
Q 36.140625 65.921875 28.71875 65.921875 
Q 24.65625 65.921875 20.015625 65.03125 
Q 15.375 64.15625 9.8125 62.3125 
L 9.8125 71.09375 
Q 15.4375 72.65625 20.34375 73.4375 
Q 25.25 74.21875 29.59375 74.21875 
Q 40.828125 74.21875 47.359375 69.109375 
Q 53.90625 64.015625 53.90625 55.328125 
Q 53.90625 49.265625 50.4375 45.09375 
Q 46.96875 40.921875 40.578125 39.3125 
z
" id="DejaVuSans-51"/>
      <path d="M 11.71875 12.40625 
L 22.015625 12.40625 
L 22.015625 4 
L 14.015625 -11.625 
L 7.71875 -11.625 
L 11.71875 4 
z
" id="DejaVuSans-44"/>
      <path d="M 25.390625 72.90625 
L 33.6875 72.90625 
L 8.296875 -9.28125 
L 0 -9.28125 
z
" id="DejaVuSans-47"/>
     </defs>
     <use xlink:href="#DejaVuSans-108"/>
     <use x="27.783203" xlink:href="#DejaVuSans-105"/>
     <use x="55.566406" xlink:href="#DejaVuSans-98"/>
     <use x="119.042969" xlink:href="#DejaVuSans-120"/>
     <use x="178.222656" xlink:href="#DejaVuSans-109"/>
     <use x="275.634766" xlink:href="#DejaVuSans-108"/>
     <use x="303.417969" xlink:href="#DejaVuSans-50"/>
     <use x="367.041016" xlink:href="#DejaVuSans-45"/>
     <use x="400.5" xlink:href="#DejaVuSans-118"/>
     <use x="459.679688" xlink:href="#DejaVuSans-50"/>
     <use x="523.302734" xlink:href="#DejaVuSans-46"/>
     <use x="555.089844" xlink:href="#DejaVuSans-57"/>
     <use x="618.712891" xlink:href="#DejaVuSans-46"/>
     <use x="650.5" xlink:href="#DejaVuSans-50"/>
     <use x="714.123047" xlink:href="#DejaVuSans-32"/>
     <use x="745.910156" xlink:href="#DejaVuSans-40"/>
     <use x="784.923828" xlink:href="#DejaVuSans-50"/>
     <use x="848.546875" xlink:href="#DejaVuSans-51"/>
     <use x="912.169922" xlink:href="#DejaVuSans-104"/>
     <use x="975.548828" xlink:href="#DejaVuSans-44"/>
     <use x="1007.335938" xlink:href="#DejaVuSans-32"/>
     <use x="1039.123047" xlink:href="#DejaVuSans-54"/>
     <use x="1102.746094" xlink:href="#DejaVuSans-32"/>
     <use x="1134.533203" xlink:href="#DejaVuSans-116"/>
     <use x="1173.742188" xlink:href="#DejaVuSans-114"/>
     <use x="1214.855469" xlink:href="#DejaVuSans-105"/>
     <use x="1242.638672" xlink:href="#DejaVuSans-97"/>
     <use x="1303.917969" xlink:href="#DejaVuSans-108"/>
     <use x="1331.701172" xlink:href="#DejaVuSans-115"/>
     <use x="1383.800781" xlink:href="#DejaVuSans-47"/>
     <use x="1417.492188" xlink:href="#DejaVuSans-102"/>
     <use x="1452.697266" xlink:href="#DejaVuSans-117"/>
     <use x="1516.076172" xlink:href="#DejaVuSans-122"/>
     <use x="1568.566406" xlink:href="#DejaVuSans-122"/>
     <use x="1621.056641" xlink:href="#DejaVuSans-101"/>
     <use x="1682.580078" xlink:href="#DejaVuSans-114"/>
     <use x="1723.693359" xlink:href="#DejaVuSans-41"/>
    </g>
   </g>
  </g>
 </g>
 <defs>
  <clipPath id="p536d32f20f">
   <rect height="266.112" width="357.12" x="59.690625" y="22.318125"/>
  </clipPath>
 </defs>
</svg>
