<?xml version="1.0" encoding="utf-8" standalone="no"?>
<!DOCTYPE svg PUBLIC "-//W3C//DTD SVG 1.1//EN"
  "http://www.w3.org/Graphics/SVG/1.1/DTD/svg11.dtd">
<!-- Created with matplotlib (https://matplotlib.org/) -->
<svg height="325.986375pt" version="1.1" viewBox="0 0 904.48375 325.986375" width="904.48375pt" xmlns="http://www.w3.org/2000/svg" xmlns:xlink="http://www.w3.org/1999/xlink">
 <metadata>
  <rdf:RDF xmlns:cc="http://creativecommons.org/ns#" xmlns:dc="http://purl.org/dc/elements/1.1/" xmlns:rdf="http://www.w3.org/1999/02/22-rdf-syntax-ns#">
   <cc:Work>
    <dc:type rdf:resource="http://purl.org/dc/dcmitype/StillImage"/>
    <dc:date>2020-12-06T10:29:01.909165</dc:date>
    <dc:format>image/svg+xml</dc:format>
    <dc:creator>
     <cc:Agent>
      <dc:title>Matplotlib v3.3.3, https://matplotlib.org/</dc:title>
     </cc:Agent>
    </dc:creator>
   </cc:Work>
  </rdf:RDF>
 </metadata>
 <defs>
  <style type="text/css">*{stroke-linecap:butt;stroke-linejoin:round;}</style>
 </defs>
 <g id="figure_1">
  <g id="patch_1">
   <path d="M 0 325.986375 
L 904.48375 325.986375 
L 904.48375 0 
L 0 0 
z
" style="fill:#ffffff;"/>
  </g>
  <g id="axes_1">
   <g id="patch_2">
    <path d="M 59.690625 288.430125 
L 773.930625 288.430125 
L 773.930625 22.318125 
L 59.690625 22.318125 
z
" style="fill:#ffffff;"/>
   </g>
   <g id="matplotlib.axis_1">
    <g id="xtick_1">
     <g id="line2d_1">
      <defs>
       <path d="M 0 0 
L 0 3.5 
" id="m29795b9b08" style="stroke:#000000;stroke-width:0.8;"/>
      </defs>
      <g>
       <use style="stroke:#000000;stroke-width:0.8;" x="92.15608" xlink:href="#m29795b9b08" y="288.430125"/>
      </g>
     </g>
     <g id="text_1">
      <!-- 15m -->
      <g transform="translate(80.923267 303.028562)scale(0.1 -0.1)">
       <defs>
        <path d="M 12.40625 8.296875 
L 28.515625 8.296875 
L 28.515625 63.921875 
L 10.984375 60.40625 
L 10.984375 69.390625 
L 28.421875 72.90625 
L 38.28125 72.90625 
L 38.28125 8.296875 
L 54.390625 8.296875 
L 54.390625 0 
L 12.40625 0 
z
" id="DejaVuSans-49"/>
        <path d="M 10.796875 72.90625 
L 49.515625 72.90625 
L 49.515625 64.59375 
L 19.828125 64.59375 
L 19.828125 46.734375 
Q 21.96875 47.46875 24.109375 47.828125 
Q 26.265625 48.1875 28.421875 48.1875 
Q 40.625 48.1875 47.75 41.5 
Q 54.890625 34.8125 54.890625 23.390625 
Q 54.890625 11.625 47.5625 5.09375 
Q 40.234375 -1.421875 26.90625 -1.421875 
Q 22.3125 -1.421875 17.546875 -0.640625 
Q 12.796875 0.140625 7.71875 1.703125 
L 7.71875 11.625 
Q 12.109375 9.234375 16.796875 8.0625 
Q 21.484375 6.890625 26.703125 6.890625 
Q 35.15625 6.890625 40.078125 11.328125 
Q 45.015625 15.765625 45.015625 23.390625 
Q 45.015625 31 40.078125 35.4375 
Q 35.15625 39.890625 26.703125 39.890625 
Q 22.75 39.890625 18.8125 39.015625 
Q 14.890625 38.140625 10.796875 36.28125 
z
" id="DejaVuSans-53"/>
        <path d="M 52 44.1875 
Q 55.375 50.25 60.0625 53.125 
Q 64.75 56 71.09375 56 
Q 79.640625 56 84.28125 50.015625 
Q 88.921875 44.046875 88.921875 33.015625 
L 88.921875 0 
L 79.890625 0 
L 79.890625 32.71875 
Q 79.890625 40.578125 77.09375 44.375 
Q 74.3125 48.1875 68.609375 48.1875 
Q 61.625 48.1875 57.5625 43.546875 
Q 53.515625 38.921875 53.515625 30.90625 
L 53.515625 0 
L 44.484375 0 
L 44.484375 32.71875 
Q 44.484375 40.625 41.703125 44.40625 
Q 38.921875 48.1875 33.109375 48.1875 
Q 26.21875 48.1875 22.15625 43.53125 
Q 18.109375 38.875 18.109375 30.90625 
L 18.109375 0 
L 9.078125 0 
L 9.078125 54.6875 
L 18.109375 54.6875 
L 18.109375 46.1875 
Q 21.1875 51.21875 25.484375 53.609375 
Q 29.78125 56 35.6875 56 
Q 41.65625 56 45.828125 52.96875 
Q 50 49.953125 52 44.1875 
z
" id="DejaVuSans-109"/>
       </defs>
       <use xlink:href="#DejaVuSans-49"/>
       <use x="63.623047" xlink:href="#DejaVuSans-53"/>
       <use x="127.246094" xlink:href="#DejaVuSans-109"/>
      </g>
     </g>
    </g>
    <g id="xtick_2">
     <g id="line2d_2">
      <g>
       <use style="stroke:#000000;stroke-width:0.8;" x="146.859776" xlink:href="#m29795b9b08" y="288.430125"/>
      </g>
     </g>
     <g id="text_2">
      <!-- 2h:10m -->
      <g transform="translate(127.592588 303.028562)scale(0.1 -0.1)">
       <defs>
        <path d="M 19.1875 8.296875 
L 53.609375 8.296875 
L 53.609375 0 
L 7.328125 0 
L 7.328125 8.296875 
Q 12.9375 14.109375 22.625 23.890625 
Q 32.328125 33.6875 34.8125 36.53125 
Q 39.546875 41.84375 41.421875 45.53125 
Q 43.3125 49.21875 43.3125 52.78125 
Q 43.3125 58.59375 39.234375 62.25 
Q 35.15625 65.921875 28.609375 65.921875 
Q 23.96875 65.921875 18.8125 64.3125 
Q 13.671875 62.703125 7.8125 59.421875 
L 7.8125 69.390625 
Q 13.765625 71.78125 18.9375 73 
Q 24.125 74.21875 28.421875 74.21875 
Q 39.75 74.21875 46.484375 68.546875 
Q 53.21875 62.890625 53.21875 53.421875 
Q 53.21875 48.921875 51.53125 44.890625 
Q 49.859375 40.875 45.40625 35.40625 
Q 44.1875 33.984375 37.640625 27.21875 
Q 31.109375 20.453125 19.1875 8.296875 
z
" id="DejaVuSans-50"/>
        <path d="M 54.890625 33.015625 
L 54.890625 0 
L 45.90625 0 
L 45.90625 32.71875 
Q 45.90625 40.484375 42.875 44.328125 
Q 39.84375 48.1875 33.796875 48.1875 
Q 26.515625 48.1875 22.3125 43.546875 
Q 18.109375 38.921875 18.109375 30.90625 
L 18.109375 0 
L 9.078125 0 
L 9.078125 75.984375 
L 18.109375 75.984375 
L 18.109375 46.1875 
Q 21.34375 51.125 25.703125 53.5625 
Q 30.078125 56 35.796875 56 
Q 45.21875 56 50.046875 50.171875 
Q 54.890625 44.34375 54.890625 33.015625 
z
" id="DejaVuSans-104"/>
        <path d="M 11.71875 12.40625 
L 22.015625 12.40625 
L 22.015625 0 
L 11.71875 0 
z
M 11.71875 51.703125 
L 22.015625 51.703125 
L 22.015625 39.3125 
L 11.71875 39.3125 
z
" id="DejaVuSans-58"/>
        <path d="M 31.78125 66.40625 
Q 24.171875 66.40625 20.328125 58.90625 
Q 16.5 51.421875 16.5 36.375 
Q 16.5 21.390625 20.328125 13.890625 
Q 24.171875 6.390625 31.78125 6.390625 
Q 39.453125 6.390625 43.28125 13.890625 
Q 47.125 21.390625 47.125 36.375 
Q 47.125 51.421875 43.28125 58.90625 
Q 39.453125 66.40625 31.78125 66.40625 
z
M 31.78125 74.21875 
Q 44.046875 74.21875 50.515625 64.515625 
Q 56.984375 54.828125 56.984375 36.375 
Q 56.984375 17.96875 50.515625 8.265625 
Q 44.046875 -1.421875 31.78125 -1.421875 
Q 19.53125 -1.421875 13.0625 8.265625 
Q 6.59375 17.96875 6.59375 36.375 
Q 6.59375 54.828125 13.0625 64.515625 
Q 19.53125 74.21875 31.78125 74.21875 
z
" id="DejaVuSans-48"/>
       </defs>
       <use xlink:href="#DejaVuSans-50"/>
       <use x="63.623047" xlink:href="#DejaVuSans-104"/>
       <use x="127.001953" xlink:href="#DejaVuSans-58"/>
       <use x="160.693359" xlink:href="#DejaVuSans-49"/>
       <use x="224.316406" xlink:href="#DejaVuSans-48"/>
       <use x="287.939453" xlink:href="#DejaVuSans-109"/>
      </g>
     </g>
    </g>
    <g id="xtick_3">
     <g id="line2d_3">
      <g>
       <use style="stroke:#000000;stroke-width:0.8;" x="201.563472" xlink:href="#m29795b9b08" y="288.430125"/>
      </g>
     </g>
     <g id="text_3">
      <!-- 4h:5m -->
      <g transform="translate(185.477535 303.028562)scale(0.1 -0.1)">
       <defs>
        <path d="M 37.796875 64.3125 
L 12.890625 25.390625 
L 37.796875 25.390625 
z
M 35.203125 72.90625 
L 47.609375 72.90625 
L 47.609375 25.390625 
L 58.015625 25.390625 
L 58.015625 17.1875 
L 47.609375 17.1875 
L 47.609375 0 
L 37.796875 0 
L 37.796875 17.1875 
L 4.890625 17.1875 
L 4.890625 26.703125 
z
" id="DejaVuSans-52"/>
       </defs>
       <use xlink:href="#DejaVuSans-52"/>
       <use x="63.623047" xlink:href="#DejaVuSans-104"/>
       <use x="127.001953" xlink:href="#DejaVuSans-58"/>
       <use x="160.693359" xlink:href="#DejaVuSans-53"/>
       <use x="224.316406" xlink:href="#DejaVuSans-109"/>
      </g>
     </g>
    </g>
    <g id="xtick_4">
     <g id="line2d_4">
      <g>
       <use style="stroke:#000000;stroke-width:0.8;" x="256.267168" xlink:href="#m29795b9b08" y="288.430125"/>
      </g>
     </g>
     <g id="text_4">
      <!-- 6h -->
      <g transform="translate(249.917168 303.028562)scale(0.1 -0.1)">
       <defs>
        <path d="M 33.015625 40.375 
Q 26.375 40.375 22.484375 35.828125 
Q 18.609375 31.296875 18.609375 23.390625 
Q 18.609375 15.53125 22.484375 10.953125 
Q 26.375 6.390625 33.015625 6.390625 
Q 39.65625 6.390625 43.53125 10.953125 
Q 47.40625 15.53125 47.40625 23.390625 
Q 47.40625 31.296875 43.53125 35.828125 
Q 39.65625 40.375 33.015625 40.375 
z
M 52.59375 71.296875 
L 52.59375 62.3125 
Q 48.875 64.0625 45.09375 64.984375 
Q 41.3125 65.921875 37.59375 65.921875 
Q 27.828125 65.921875 22.671875 59.328125 
Q 17.53125 52.734375 16.796875 39.40625 
Q 19.671875 43.65625 24.015625 45.921875 
Q 28.375 48.1875 33.59375 48.1875 
Q 44.578125 48.1875 50.953125 41.515625 
Q 57.328125 34.859375 57.328125 23.390625 
Q 57.328125 12.15625 50.6875 5.359375 
Q 44.046875 -1.421875 33.015625 -1.421875 
Q 20.359375 -1.421875 13.671875 8.265625 
Q 6.984375 17.96875 6.984375 36.375 
Q 6.984375 53.65625 15.1875 63.9375 
Q 23.390625 74.21875 37.203125 74.21875 
Q 40.921875 74.21875 44.703125 73.484375 
Q 48.484375 72.75 52.59375 71.296875 
z
" id="DejaVuSans-54"/>
       </defs>
       <use xlink:href="#DejaVuSans-54"/>
       <use x="63.623047" xlink:href="#DejaVuSans-104"/>
      </g>
     </g>
    </g>
    <g id="xtick_5">
     <g id="line2d_5">
      <g>
       <use style="stroke:#000000;stroke-width:0.8;" x="310.970865" xlink:href="#m29795b9b08" y="288.430125"/>
      </g>
     </g>
     <g id="text_5">
      <!-- 7h:55m -->
      <g transform="translate(291.703677 303.028562)scale(0.1 -0.1)">
       <defs>
        <path d="M 8.203125 72.90625 
L 55.078125 72.90625 
L 55.078125 68.703125 
L 28.609375 0 
L 18.3125 0 
L 43.21875 64.59375 
L 8.203125 64.59375 
z
" id="DejaVuSans-55"/>
       </defs>
       <use xlink:href="#DejaVuSans-55"/>
       <use x="63.623047" xlink:href="#DejaVuSans-104"/>
       <use x="127.001953" xlink:href="#DejaVuSans-58"/>
       <use x="160.693359" xlink:href="#DejaVuSans-53"/>
       <use x="224.316406" xlink:href="#DejaVuSans-53"/>
       <use x="287.939453" xlink:href="#DejaVuSans-109"/>
      </g>
     </g>
    </g>
    <g id="xtick_6">
     <g id="line2d_6">
      <g>
       <use style="stroke:#000000;stroke-width:0.8;" x="365.674561" xlink:href="#m29795b9b08" y="288.430125"/>
      </g>
     </g>
     <g id="text_6">
      <!-- 9h:50m -->
      <g transform="translate(346.407374 303.028562)scale(0.1 -0.1)">
       <defs>
        <path d="M 10.984375 1.515625 
L 10.984375 10.5 
Q 14.703125 8.734375 18.5 7.8125 
Q 22.3125 6.890625 25.984375 6.890625 
Q 35.75 6.890625 40.890625 13.453125 
Q 46.046875 20.015625 46.78125 33.40625 
Q 43.953125 29.203125 39.59375 26.953125 
Q 35.25 24.703125 29.984375 24.703125 
Q 19.046875 24.703125 12.671875 31.3125 
Q 6.296875 37.9375 6.296875 49.421875 
Q 6.296875 60.640625 12.9375 67.421875 
Q 19.578125 74.21875 30.609375 74.21875 
Q 43.265625 74.21875 49.921875 64.515625 
Q 56.59375 54.828125 56.59375 36.375 
Q 56.59375 19.140625 48.40625 8.859375 
Q 40.234375 -1.421875 26.421875 -1.421875 
Q 22.703125 -1.421875 18.890625 -0.6875 
Q 15.09375 0.046875 10.984375 1.515625 
z
M 30.609375 32.421875 
Q 37.25 32.421875 41.125 36.953125 
Q 45.015625 41.5 45.015625 49.421875 
Q 45.015625 57.28125 41.125 61.84375 
Q 37.25 66.40625 30.609375 66.40625 
Q 23.96875 66.40625 20.09375 61.84375 
Q 16.21875 57.28125 16.21875 49.421875 
Q 16.21875 41.5 20.09375 36.953125 
Q 23.96875 32.421875 30.609375 32.421875 
z
" id="DejaVuSans-57"/>
       </defs>
       <use xlink:href="#DejaVuSans-57"/>
       <use x="63.623047" xlink:href="#DejaVuSans-104"/>
       <use x="127.001953" xlink:href="#DejaVuSans-58"/>
       <use x="160.693359" xlink:href="#DejaVuSans-53"/>
       <use x="224.316406" xlink:href="#DejaVuSans-48"/>
       <use x="287.939453" xlink:href="#DejaVuSans-109"/>
      </g>
     </g>
    </g>
    <g id="xtick_7">
     <g id="line2d_7">
      <g>
       <use style="stroke:#000000;stroke-width:0.8;" x="420.378257" xlink:href="#m29795b9b08" y="288.430125"/>
      </g>
     </g>
     <g id="text_7">
      <!-- 11h:45m -->
      <g transform="translate(397.92982 303.028562)scale(0.1 -0.1)">
       <use xlink:href="#DejaVuSans-49"/>
       <use x="63.623047" xlink:href="#DejaVuSans-49"/>
       <use x="127.246094" xlink:href="#DejaVuSans-104"/>
       <use x="190.625" xlink:href="#DejaVuSans-58"/>
       <use x="224.316406" xlink:href="#DejaVuSans-52"/>
       <use x="287.939453" xlink:href="#DejaVuSans-53"/>
       <use x="351.5625" xlink:href="#DejaVuSans-109"/>
      </g>
     </g>
    </g>
    <g id="xtick_8">
     <g id="line2d_8">
      <g>
       <use style="stroke:#000000;stroke-width:0.8;" x="475.081954" xlink:href="#m29795b9b08" y="288.430125"/>
      </g>
     </g>
     <g id="text_8">
      <!-- 13h:40m -->
      <g transform="translate(452.633516 303.028562)scale(0.1 -0.1)">
       <defs>
        <path d="M 40.578125 39.3125 
Q 47.65625 37.796875 51.625 33 
Q 55.609375 28.21875 55.609375 21.1875 
Q 55.609375 10.40625 48.1875 4.484375 
Q 40.765625 -1.421875 27.09375 -1.421875 
Q 22.515625 -1.421875 17.65625 -0.515625 
Q 12.796875 0.390625 7.625 2.203125 
L 7.625 11.71875 
Q 11.71875 9.328125 16.59375 8.109375 
Q 21.484375 6.890625 26.8125 6.890625 
Q 36.078125 6.890625 40.9375 10.546875 
Q 45.796875 14.203125 45.796875 21.1875 
Q 45.796875 27.640625 41.28125 31.265625 
Q 36.765625 34.90625 28.71875 34.90625 
L 20.21875 34.90625 
L 20.21875 43.015625 
L 29.109375 43.015625 
Q 36.375 43.015625 40.234375 45.921875 
Q 44.09375 48.828125 44.09375 54.296875 
Q 44.09375 59.90625 40.109375 62.90625 
Q 36.140625 65.921875 28.71875 65.921875 
Q 24.65625 65.921875 20.015625 65.03125 
Q 15.375 64.15625 9.8125 62.3125 
L 9.8125 71.09375 
Q 15.4375 72.65625 20.34375 73.4375 
Q 25.25 74.21875 29.59375 74.21875 
Q 40.828125 74.21875 47.359375 69.109375 
Q 53.90625 64.015625 53.90625 55.328125 
Q 53.90625 49.265625 50.4375 45.09375 
Q 46.96875 40.921875 40.578125 39.3125 
z
" id="DejaVuSans-51"/>
       </defs>
       <use xlink:href="#DejaVuSans-49"/>
       <use x="63.623047" xlink:href="#DejaVuSans-51"/>
       <use x="127.246094" xlink:href="#DejaVuSans-104"/>
       <use x="190.625" xlink:href="#DejaVuSans-58"/>
       <use x="224.316406" xlink:href="#DejaVuSans-52"/>
       <use x="287.939453" xlink:href="#DejaVuSans-48"/>
       <use x="351.5625" xlink:href="#DejaVuSans-109"/>
      </g>
     </g>
    </g>
    <g id="xtick_9">
     <g id="line2d_9">
      <g>
       <use style="stroke:#000000;stroke-width:0.8;" x="529.78565" xlink:href="#m29795b9b08" y="288.430125"/>
      </g>
     </g>
     <g id="text_9">
      <!-- 15h:35m -->
      <g transform="translate(507.337212 303.028562)scale(0.1 -0.1)">
       <use xlink:href="#DejaVuSans-49"/>
       <use x="63.623047" xlink:href="#DejaVuSans-53"/>
       <use x="127.246094" xlink:href="#DejaVuSans-104"/>
       <use x="190.625" xlink:href="#DejaVuSans-58"/>
       <use x="224.316406" xlink:href="#DejaVuSans-51"/>
       <use x="287.939453" xlink:href="#DejaVuSans-53"/>
       <use x="351.5625" xlink:href="#DejaVuSans-109"/>
      </g>
     </g>
    </g>
    <g id="xtick_10">
     <g id="line2d_10">
      <g>
       <use style="stroke:#000000;stroke-width:0.8;" x="584.489346" xlink:href="#m29795b9b08" y="288.430125"/>
      </g>
     </g>
     <g id="text_10">
      <!-- 17h:30m -->
      <g transform="translate(562.040909 303.028562)scale(0.1 -0.1)">
       <use xlink:href="#DejaVuSans-49"/>
       <use x="63.623047" xlink:href="#DejaVuSans-55"/>
       <use x="127.246094" xlink:href="#DejaVuSans-104"/>
       <use x="190.625" xlink:href="#DejaVuSans-58"/>
       <use x="224.316406" xlink:href="#DejaVuSans-51"/>
       <use x="287.939453" xlink:href="#DejaVuSans-48"/>
       <use x="351.5625" xlink:href="#DejaVuSans-109"/>
      </g>
     </g>
    </g>
    <g id="xtick_11">
     <g id="line2d_11">
      <g>
       <use style="stroke:#000000;stroke-width:0.8;" x="639.193043" xlink:href="#m29795b9b08" y="288.430125"/>
      </g>
     </g>
     <g id="text_11">
      <!-- 19h:25m -->
      <g transform="translate(616.744605 303.028562)scale(0.1 -0.1)">
       <use xlink:href="#DejaVuSans-49"/>
       <use x="63.623047" xlink:href="#DejaVuSans-57"/>
       <use x="127.246094" xlink:href="#DejaVuSans-104"/>
       <use x="190.625" xlink:href="#DejaVuSans-58"/>
       <use x="224.316406" xlink:href="#DejaVuSans-50"/>
       <use x="287.939453" xlink:href="#DejaVuSans-53"/>
       <use x="351.5625" xlink:href="#DejaVuSans-109"/>
      </g>
     </g>
    </g>
    <g id="xtick_12">
     <g id="line2d_12">
      <g>
       <use style="stroke:#000000;stroke-width:0.8;" x="693.896739" xlink:href="#m29795b9b08" y="288.430125"/>
      </g>
     </g>
     <g id="text_12">
      <!-- 21h:20m -->
      <g transform="translate(671.448301 303.028562)scale(0.1 -0.1)">
       <use xlink:href="#DejaVuSans-50"/>
       <use x="63.623047" xlink:href="#DejaVuSans-49"/>
       <use x="127.246094" xlink:href="#DejaVuSans-104"/>
       <use x="190.625" xlink:href="#DejaVuSans-58"/>
       <use x="224.316406" xlink:href="#DejaVuSans-50"/>
       <use x="287.939453" xlink:href="#DejaVuSans-48"/>
       <use x="351.5625" xlink:href="#DejaVuSans-109"/>
      </g>
     </g>
    </g>
    <g id="text_13">
     <!-- Time (hour:minute) -->
     <g transform="translate(368.403594 316.706687)scale(0.1 -0.1)">
      <defs>
       <path d="M -0.296875 72.90625 
L 61.375 72.90625 
L 61.375 64.59375 
L 35.5 64.59375 
L 35.5 0 
L 25.59375 0 
L 25.59375 64.59375 
L -0.296875 64.59375 
z
" id="DejaVuSans-84"/>
       <path d="M 9.421875 54.6875 
L 18.40625 54.6875 
L 18.40625 0 
L 9.421875 0 
z
M 9.421875 75.984375 
L 18.40625 75.984375 
L 18.40625 64.59375 
L 9.421875 64.59375 
z
" id="DejaVuSans-105"/>
       <path d="M 56.203125 29.59375 
L 56.203125 25.203125 
L 14.890625 25.203125 
Q 15.484375 15.921875 20.484375 11.0625 
Q 25.484375 6.203125 34.421875 6.203125 
Q 39.59375 6.203125 44.453125 7.46875 
Q 49.3125 8.734375 54.109375 11.28125 
L 54.109375 2.78125 
Q 49.265625 0.734375 44.1875 -0.34375 
Q 39.109375 -1.421875 33.890625 -1.421875 
Q 20.796875 -1.421875 13.15625 6.1875 
Q 5.515625 13.8125 5.515625 26.8125 
Q 5.515625 40.234375 12.765625 48.109375 
Q 20.015625 56 32.328125 56 
Q 43.359375 56 49.78125 48.890625 
Q 56.203125 41.796875 56.203125 29.59375 
z
M 47.21875 32.234375 
Q 47.125 39.59375 43.09375 43.984375 
Q 39.0625 48.390625 32.421875 48.390625 
Q 24.90625 48.390625 20.390625 44.140625 
Q 15.875 39.890625 15.1875 32.171875 
z
" id="DejaVuSans-101"/>
       <path id="DejaVuSans-32"/>
       <path d="M 31 75.875 
Q 24.46875 64.65625 21.28125 53.65625 
Q 18.109375 42.671875 18.109375 31.390625 
Q 18.109375 20.125 21.3125 9.0625 
Q 24.515625 -2 31 -13.1875 
L 23.1875 -13.1875 
Q 15.875 -1.703125 12.234375 9.375 
Q 8.59375 20.453125 8.59375 31.390625 
Q 8.59375 42.28125 12.203125 53.3125 
Q 15.828125 64.359375 23.1875 75.875 
z
" id="DejaVuSans-40"/>
       <path d="M 30.609375 48.390625 
Q 23.390625 48.390625 19.1875 42.75 
Q 14.984375 37.109375 14.984375 27.296875 
Q 14.984375 17.484375 19.15625 11.84375 
Q 23.34375 6.203125 30.609375 6.203125 
Q 37.796875 6.203125 41.984375 11.859375 
Q 46.1875 17.53125 46.1875 27.296875 
Q 46.1875 37.015625 41.984375 42.703125 
Q 37.796875 48.390625 30.609375 48.390625 
z
M 30.609375 56 
Q 42.328125 56 49.015625 48.375 
Q 55.71875 40.765625 55.71875 27.296875 
Q 55.71875 13.875 49.015625 6.21875 
Q 42.328125 -1.421875 30.609375 -1.421875 
Q 18.84375 -1.421875 12.171875 6.21875 
Q 5.515625 13.875 5.515625 27.296875 
Q 5.515625 40.765625 12.171875 48.375 
Q 18.84375 56 30.609375 56 
z
" id="DejaVuSans-111"/>
       <path d="M 8.5 21.578125 
L 8.5 54.6875 
L 17.484375 54.6875 
L 17.484375 21.921875 
Q 17.484375 14.15625 20.5 10.265625 
Q 23.53125 6.390625 29.59375 6.390625 
Q 36.859375 6.390625 41.078125 11.03125 
Q 45.3125 15.671875 45.3125 23.6875 
L 45.3125 54.6875 
L 54.296875 54.6875 
L 54.296875 0 
L 45.3125 0 
L 45.3125 8.40625 
Q 42.046875 3.421875 37.71875 1 
Q 33.40625 -1.421875 27.6875 -1.421875 
Q 18.265625 -1.421875 13.375 4.4375 
Q 8.5 10.296875 8.5 21.578125 
z
M 31.109375 56 
z
" id="DejaVuSans-117"/>
       <path d="M 41.109375 46.296875 
Q 39.59375 47.171875 37.8125 47.578125 
Q 36.03125 48 33.890625 48 
Q 26.265625 48 22.1875 43.046875 
Q 18.109375 38.09375 18.109375 28.8125 
L 18.109375 0 
L 9.078125 0 
L 9.078125 54.6875 
L 18.109375 54.6875 
L 18.109375 46.1875 
Q 20.953125 51.171875 25.484375 53.578125 
Q 30.03125 56 36.53125 56 
Q 37.453125 56 38.578125 55.875 
Q 39.703125 55.765625 41.0625 55.515625 
z
" id="DejaVuSans-114"/>
       <path d="M 54.890625 33.015625 
L 54.890625 0 
L 45.90625 0 
L 45.90625 32.71875 
Q 45.90625 40.484375 42.875 44.328125 
Q 39.84375 48.1875 33.796875 48.1875 
Q 26.515625 48.1875 22.3125 43.546875 
Q 18.109375 38.921875 18.109375 30.90625 
L 18.109375 0 
L 9.078125 0 
L 9.078125 54.6875 
L 18.109375 54.6875 
L 18.109375 46.1875 
Q 21.34375 51.125 25.703125 53.5625 
Q 30.078125 56 35.796875 56 
Q 45.21875 56 50.046875 50.171875 
Q 54.890625 44.34375 54.890625 33.015625 
z
" id="DejaVuSans-110"/>
       <path d="M 18.3125 70.21875 
L 18.3125 54.6875 
L 36.8125 54.6875 
L 36.8125 47.703125 
L 18.3125 47.703125 
L 18.3125 18.015625 
Q 18.3125 11.328125 20.140625 9.421875 
Q 21.96875 7.515625 27.59375 7.515625 
L 36.8125 7.515625 
L 36.8125 0 
L 27.59375 0 
Q 17.1875 0 13.234375 3.875 
Q 9.28125 7.765625 9.28125 18.015625 
L 9.28125 47.703125 
L 2.6875 47.703125 
L 2.6875 54.6875 
L 9.28125 54.6875 
L 9.28125 70.21875 
z
" id="DejaVuSans-116"/>
       <path d="M 8.015625 75.875 
L 15.828125 75.875 
Q 23.140625 64.359375 26.78125 53.3125 
Q 30.421875 42.28125 30.421875 31.390625 
Q 30.421875 20.453125 26.78125 9.375 
Q 23.140625 -1.703125 15.828125 -13.1875 
L 8.015625 -13.1875 
Q 14.5 -2 17.703125 9.0625 
Q 20.90625 20.125 20.90625 31.390625 
Q 20.90625 42.671875 17.703125 53.65625 
Q 14.5 64.65625 8.015625 75.875 
z
" id="DejaVuSans-41"/>
      </defs>
      <use xlink:href="#DejaVuSans-84"/>
      <use x="57.958984" xlink:href="#DejaVuSans-105"/>
      <use x="85.742188" xlink:href="#DejaVuSans-109"/>
      <use x="183.154297" xlink:href="#DejaVuSans-101"/>
      <use x="244.677734" xlink:href="#DejaVuSans-32"/>
      <use x="276.464844" xlink:href="#DejaVuSans-40"/>
      <use x="315.478516" xlink:href="#DejaVuSans-104"/>
      <use x="378.857422" xlink:href="#DejaVuSans-111"/>
      <use x="440.039062" xlink:href="#DejaVuSans-117"/>
      <use x="503.417969" xlink:href="#DejaVuSans-114"/>
      <use x="542.78125" xlink:href="#DejaVuSans-58"/>
      <use x="576.472656" xlink:href="#DejaVuSans-109"/>
      <use x="673.884766" xlink:href="#DejaVuSans-105"/>
      <use x="701.667969" xlink:href="#DejaVuSans-110"/>
      <use x="765.046875" xlink:href="#DejaVuSans-117"/>
      <use x="828.425781" xlink:href="#DejaVuSans-116"/>
      <use x="867.634766" xlink:href="#DejaVuSans-101"/>
      <use x="929.158203" xlink:href="#DejaVuSans-41"/>
     </g>
    </g>
   </g>
   <g id="matplotlib.axis_2">
    <g id="ytick_1">
     <g id="line2d_13">
      <defs>
       <path d="M 0 0 
L -3.5 0 
" id="m2036b83d20" style="stroke:#000000;stroke-width:0.8;"/>
      </defs>
      <g>
       <use style="stroke:#000000;stroke-width:0.8;" x="59.690625" xlink:href="#m2036b83d20" y="281.690281"/>
      </g>
     </g>
     <g id="text_14">
      <!-- 5000 -->
      <g transform="translate(27.240625 285.4895)scale(0.1 -0.1)">
       <use xlink:href="#DejaVuSans-53"/>
       <use x="63.623047" xlink:href="#DejaVuSans-48"/>
       <use x="127.246094" xlink:href="#DejaVuSans-48"/>
       <use x="190.869141" xlink:href="#DejaVuSans-48"/>
      </g>
     </g>
    </g>
    <g id="ytick_2">
     <g id="line2d_14">
      <g>
       <use style="stroke:#000000;stroke-width:0.8;" x="59.690625" xlink:href="#m2036b83d20" y="248.432559"/>
      </g>
     </g>
     <g id="text_15">
      <!-- 6000 -->
      <g transform="translate(27.240625 252.231777)scale(0.1 -0.1)">
       <use xlink:href="#DejaVuSans-54"/>
       <use x="63.623047" xlink:href="#DejaVuSans-48"/>
       <use x="127.246094" xlink:href="#DejaVuSans-48"/>
       <use x="190.869141" xlink:href="#DejaVuSans-48"/>
      </g>
     </g>
    </g>
    <g id="ytick_3">
     <g id="line2d_15">
      <g>
       <use style="stroke:#000000;stroke-width:0.8;" x="59.690625" xlink:href="#m2036b83d20" y="215.174836"/>
      </g>
     </g>
     <g id="text_16">
      <!-- 7000 -->
      <g transform="translate(27.240625 218.974055)scale(0.1 -0.1)">
       <use xlink:href="#DejaVuSans-55"/>
       <use x="63.623047" xlink:href="#DejaVuSans-48"/>
       <use x="127.246094" xlink:href="#DejaVuSans-48"/>
       <use x="190.869141" xlink:href="#DejaVuSans-48"/>
      </g>
     </g>
    </g>
    <g id="ytick_4">
     <g id="line2d_16">
      <g>
       <use style="stroke:#000000;stroke-width:0.8;" x="59.690625" xlink:href="#m2036b83d20" y="181.917113"/>
      </g>
     </g>
     <g id="text_17">
      <!-- 8000 -->
      <g transform="translate(27.240625 185.716332)scale(0.1 -0.1)">
       <defs>
        <path d="M 31.78125 34.625 
Q 24.75 34.625 20.71875 30.859375 
Q 16.703125 27.09375 16.703125 20.515625 
Q 16.703125 13.921875 20.71875 10.15625 
Q 24.75 6.390625 31.78125 6.390625 
Q 38.8125 6.390625 42.859375 10.171875 
Q 46.921875 13.96875 46.921875 20.515625 
Q 46.921875 27.09375 42.890625 30.859375 
Q 38.875 34.625 31.78125 34.625 
z
M 21.921875 38.8125 
Q 15.578125 40.375 12.03125 44.71875 
Q 8.5 49.078125 8.5 55.328125 
Q 8.5 64.0625 14.71875 69.140625 
Q 20.953125 74.21875 31.78125 74.21875 
Q 42.671875 74.21875 48.875 69.140625 
Q 55.078125 64.0625 55.078125 55.328125 
Q 55.078125 49.078125 51.53125 44.71875 
Q 48 40.375 41.703125 38.8125 
Q 48.828125 37.15625 52.796875 32.3125 
Q 56.78125 27.484375 56.78125 20.515625 
Q 56.78125 9.90625 50.3125 4.234375 
Q 43.84375 -1.421875 31.78125 -1.421875 
Q 19.734375 -1.421875 13.25 4.234375 
Q 6.78125 9.90625 6.78125 20.515625 
Q 6.78125 27.484375 10.78125 32.3125 
Q 14.796875 37.15625 21.921875 38.8125 
z
M 18.3125 54.390625 
Q 18.3125 48.734375 21.84375 45.5625 
Q 25.390625 42.390625 31.78125 42.390625 
Q 38.140625 42.390625 41.71875 45.5625 
Q 45.3125 48.734375 45.3125 54.390625 
Q 45.3125 60.0625 41.71875 63.234375 
Q 38.140625 66.40625 31.78125 66.40625 
Q 25.390625 66.40625 21.84375 63.234375 
Q 18.3125 60.0625 18.3125 54.390625 
z
" id="DejaVuSans-56"/>
       </defs>
       <use xlink:href="#DejaVuSans-56"/>
       <use x="63.623047" xlink:href="#DejaVuSans-48"/>
       <use x="127.246094" xlink:href="#DejaVuSans-48"/>
       <use x="190.869141" xlink:href="#DejaVuSans-48"/>
      </g>
     </g>
    </g>
    <g id="ytick_5">
     <g id="line2d_17">
      <g>
       <use style="stroke:#000000;stroke-width:0.8;" x="59.690625" xlink:href="#m2036b83d20" y="148.659391"/>
      </g>
     </g>
     <g id="text_18">
      <!-- 9000 -->
      <g transform="translate(27.240625 152.45861)scale(0.1 -0.1)">
       <use xlink:href="#DejaVuSans-57"/>
       <use x="63.623047" xlink:href="#DejaVuSans-48"/>
       <use x="127.246094" xlink:href="#DejaVuSans-48"/>
       <use x="190.869141" xlink:href="#DejaVuSans-48"/>
      </g>
     </g>
    </g>
    <g id="ytick_6">
     <g id="line2d_18">
      <g>
       <use style="stroke:#000000;stroke-width:0.8;" x="59.690625" xlink:href="#m2036b83d20" y="115.401668"/>
      </g>
     </g>
     <g id="text_19">
      <!-- 10000 -->
      <g transform="translate(20.878125 119.200887)scale(0.1 -0.1)">
       <use xlink:href="#DejaVuSans-49"/>
       <use x="63.623047" xlink:href="#DejaVuSans-48"/>
       <use x="127.246094" xlink:href="#DejaVuSans-48"/>
       <use x="190.869141" xlink:href="#DejaVuSans-48"/>
       <use x="254.492188" xlink:href="#DejaVuSans-48"/>
      </g>
     </g>
    </g>
    <g id="ytick_7">
     <g id="line2d_19">
      <g>
       <use style="stroke:#000000;stroke-width:0.8;" x="59.690625" xlink:href="#m2036b83d20" y="82.143946"/>
      </g>
     </g>
     <g id="text_20">
      <!-- 11000 -->
      <g transform="translate(20.878125 85.943164)scale(0.1 -0.1)">
       <use xlink:href="#DejaVuSans-49"/>
       <use x="63.623047" xlink:href="#DejaVuSans-49"/>
       <use x="127.246094" xlink:href="#DejaVuSans-48"/>
       <use x="190.869141" xlink:href="#DejaVuSans-48"/>
       <use x="254.492188" xlink:href="#DejaVuSans-48"/>
      </g>
     </g>
    </g>
    <g id="ytick_8">
     <g id="line2d_20">
      <g>
       <use style="stroke:#000000;stroke-width:0.8;" x="59.690625" xlink:href="#m2036b83d20" y="48.886223"/>
      </g>
     </g>
     <g id="text_21">
      <!-- 12000 -->
      <g transform="translate(20.878125 52.685442)scale(0.1 -0.1)">
       <use xlink:href="#DejaVuSans-49"/>
       <use x="63.623047" xlink:href="#DejaVuSans-50"/>
       <use x="127.246094" xlink:href="#DejaVuSans-48"/>
       <use x="190.869141" xlink:href="#DejaVuSans-48"/>
       <use x="254.492188" xlink:href="#DejaVuSans-48"/>
      </g>
     </g>
    </g>
    <g id="text_22">
     <!-- Edge coverage -->
     <g transform="translate(14.798437 192.762406)rotate(-90)scale(0.1 -0.1)">
      <defs>
       <path d="M 9.8125 72.90625 
L 55.90625 72.90625 
L 55.90625 64.59375 
L 19.671875 64.59375 
L 19.671875 43.015625 
L 54.390625 43.015625 
L 54.390625 34.71875 
L 19.671875 34.71875 
L 19.671875 8.296875 
L 56.78125 8.296875 
L 56.78125 0 
L 9.8125 0 
z
" id="DejaVuSans-69"/>
       <path d="M 45.40625 46.390625 
L 45.40625 75.984375 
L 54.390625 75.984375 
L 54.390625 0 
L 45.40625 0 
L 45.40625 8.203125 
Q 42.578125 3.328125 38.25 0.953125 
Q 33.9375 -1.421875 27.875 -1.421875 
Q 17.96875 -1.421875 11.734375 6.484375 
Q 5.515625 14.40625 5.515625 27.296875 
Q 5.515625 40.1875 11.734375 48.09375 
Q 17.96875 56 27.875 56 
Q 33.9375 56 38.25 53.625 
Q 42.578125 51.265625 45.40625 46.390625 
z
M 14.796875 27.296875 
Q 14.796875 17.390625 18.875 11.75 
Q 22.953125 6.109375 30.078125 6.109375 
Q 37.203125 6.109375 41.296875 11.75 
Q 45.40625 17.390625 45.40625 27.296875 
Q 45.40625 37.203125 41.296875 42.84375 
Q 37.203125 48.484375 30.078125 48.484375 
Q 22.953125 48.484375 18.875 42.84375 
Q 14.796875 37.203125 14.796875 27.296875 
z
" id="DejaVuSans-100"/>
       <path d="M 45.40625 27.984375 
Q 45.40625 37.75 41.375 43.109375 
Q 37.359375 48.484375 30.078125 48.484375 
Q 22.859375 48.484375 18.828125 43.109375 
Q 14.796875 37.75 14.796875 27.984375 
Q 14.796875 18.265625 18.828125 12.890625 
Q 22.859375 7.515625 30.078125 7.515625 
Q 37.359375 7.515625 41.375 12.890625 
Q 45.40625 18.265625 45.40625 27.984375 
z
M 54.390625 6.78125 
Q 54.390625 -7.171875 48.1875 -13.984375 
Q 42 -20.796875 29.203125 -20.796875 
Q 24.46875 -20.796875 20.265625 -20.09375 
Q 16.0625 -19.390625 12.109375 -17.921875 
L 12.109375 -9.1875 
Q 16.0625 -11.328125 19.921875 -12.34375 
Q 23.78125 -13.375 27.78125 -13.375 
Q 36.625 -13.375 41.015625 -8.765625 
Q 45.40625 -4.15625 45.40625 5.171875 
L 45.40625 9.625 
Q 42.625 4.78125 38.28125 2.390625 
Q 33.9375 0 27.875 0 
Q 17.828125 0 11.671875 7.65625 
Q 5.515625 15.328125 5.515625 27.984375 
Q 5.515625 40.671875 11.671875 48.328125 
Q 17.828125 56 27.875 56 
Q 33.9375 56 38.28125 53.609375 
Q 42.625 51.21875 45.40625 46.390625 
L 45.40625 54.6875 
L 54.390625 54.6875 
z
" id="DejaVuSans-103"/>
       <path d="M 48.78125 52.59375 
L 48.78125 44.1875 
Q 44.96875 46.296875 41.140625 47.34375 
Q 37.3125 48.390625 33.40625 48.390625 
Q 24.65625 48.390625 19.8125 42.84375 
Q 14.984375 37.3125 14.984375 27.296875 
Q 14.984375 17.28125 19.8125 11.734375 
Q 24.65625 6.203125 33.40625 6.203125 
Q 37.3125 6.203125 41.140625 7.25 
Q 44.96875 8.296875 48.78125 10.40625 
L 48.78125 2.09375 
Q 45.015625 0.34375 40.984375 -0.53125 
Q 36.96875 -1.421875 32.421875 -1.421875 
Q 20.0625 -1.421875 12.78125 6.34375 
Q 5.515625 14.109375 5.515625 27.296875 
Q 5.515625 40.671875 12.859375 48.328125 
Q 20.21875 56 33.015625 56 
Q 37.15625 56 41.109375 55.140625 
Q 45.0625 54.296875 48.78125 52.59375 
z
" id="DejaVuSans-99"/>
       <path d="M 2.984375 54.6875 
L 12.5 54.6875 
L 29.59375 8.796875 
L 46.6875 54.6875 
L 56.203125 54.6875 
L 35.6875 0 
L 23.484375 0 
z
" id="DejaVuSans-118"/>
       <path d="M 34.28125 27.484375 
Q 23.390625 27.484375 19.1875 25 
Q 14.984375 22.515625 14.984375 16.5 
Q 14.984375 11.71875 18.140625 8.90625 
Q 21.296875 6.109375 26.703125 6.109375 
Q 34.1875 6.109375 38.703125 11.40625 
Q 43.21875 16.703125 43.21875 25.484375 
L 43.21875 27.484375 
z
M 52.203125 31.203125 
L 52.203125 0 
L 43.21875 0 
L 43.21875 8.296875 
Q 40.140625 3.328125 35.546875 0.953125 
Q 30.953125 -1.421875 24.3125 -1.421875 
Q 15.921875 -1.421875 10.953125 3.296875 
Q 6 8.015625 6 15.921875 
Q 6 25.140625 12.171875 29.828125 
Q 18.359375 34.515625 30.609375 34.515625 
L 43.21875 34.515625 
L 43.21875 35.40625 
Q 43.21875 41.609375 39.140625 45 
Q 35.0625 48.390625 27.6875 48.390625 
Q 23 48.390625 18.546875 47.265625 
Q 14.109375 46.140625 10.015625 43.890625 
L 10.015625 52.203125 
Q 14.9375 54.109375 19.578125 55.046875 
Q 24.21875 56 28.609375 56 
Q 40.484375 56 46.34375 49.84375 
Q 52.203125 43.703125 52.203125 31.203125 
z
" id="DejaVuSans-97"/>
      </defs>
      <use xlink:href="#DejaVuSans-69"/>
      <use x="63.183594" xlink:href="#DejaVuSans-100"/>
      <use x="126.660156" xlink:href="#DejaVuSans-103"/>
      <use x="190.136719" xlink:href="#DejaVuSans-101"/>
      <use x="251.660156" xlink:href="#DejaVuSans-32"/>
      <use x="283.447266" xlink:href="#DejaVuSans-99"/>
      <use x="338.427734" xlink:href="#DejaVuSans-111"/>
      <use x="399.609375" xlink:href="#DejaVuSans-118"/>
      <use x="458.789062" xlink:href="#DejaVuSans-101"/>
      <use x="520.3125" xlink:href="#DejaVuSans-114"/>
      <use x="561.425781" xlink:href="#DejaVuSans-97"/>
      <use x="622.705078" xlink:href="#DejaVuSans-103"/>
      <use x="686.181641" xlink:href="#DejaVuSans-101"/>
     </g>
    </g>
   </g>
   <g id="line2d_21">
    <path clip-path="url(#p332da5d4ba)" d="M 92.15608 169.468748 
L 99.291344 152.743439 
L 106.426609 146.485999 
L 113.561874 133.076485 
L 120.697138 129.667568 
L 127.832403 124.672258 
L 134.967668 122.181255 
L 142.102933 118.211946 
L 149.238197 114.388971 
L 156.373462 112.529864 
L 163.508727 107.704168 
L 170.643992 99.52942 
L 177.779256 97.788378 
L 184.914521 96.025719 
L 192.049786 95.445372 
L 199.185051 93.689364 
L 206.320315 89.61363 
L 213.45558 86.246286 
L 220.590845 81.250976 
L 227.72611 80.645685 
L 234.861374 80.131853 
L 241.996639 79.973879 
L 249.131904 77.772218 
L 256.267168 73.312357 
L 263.402433 71.715987 
L 270.537698 71.494823 
L 277.672963 71.288625 
L 284.808227 69.426192 
L 291.943492 68.169051 
L 299.078757 65.308886 
L 306.214022 65.042825 
L 313.349286 61.816826 
L 320.484551 57.433458 
L 327.619816 55.961803 
L 334.755081 55.160292 
L 341.890345 55.067171 
L 349.02561 54.382062 
L 356.160875 53.577225 
L 363.296139 53.332781 
L 370.431404 52.873824 
L 377.566669 52.650997 
L 384.701934 52.207007 
L 391.837198 52.128851 
L 398.972463 52.022426 
L 406.107728 51.493628 
L 413.242993 50.238149 
L 420.378257 50.033614 
L 427.513522 49.594612 
L 434.648787 49.501491 
L 441.784052 49.320236 
L 448.919316 48.52704 
L 456.054581 48.448884 
L 463.189846 48.184485 
L 470.325111 47.737169 
L 477.460375 47.718877 
L 484.59564 47.665665 
L 491.730905 47.545937 
L 498.866169 47.459467 
L 506.001434 47.40958 
L 513.136699 47.389625 
L 520.271964 47.133541 
L 527.407228 46.882445 
L 534.542493 46.874131 
L 541.677758 46.862491 
L 548.813023 46.736111 
L 555.948287 46.633012 
L 563.083552 46.14745 
L 570.218817 45.666875 
L 577.354082 45.638606 
L 584.489346 45.475644 
L 591.624611 45.246165 
L 598.759876 44.709053 
L 605.89514 44.562719 
L 613.030405 44.531124 
L 620.16567 44.146998 
L 627.300935 43.574965 
L 634.436199 40.021377 
L 641.571464 37.15955 
L 648.706729 36.599157 
L 655.841994 36.165144 
L 662.977258 36.027125 
L 670.112523 35.945643 
L 677.247788 35.776029 
L 684.383053 35.727805 
L 691.518317 35.611403 
L 698.653582 35.488349 
L 705.788847 35.478372 
L 712.924112 35.139143 
L 720.059376 34.776634 
L 727.194641 34.746702 
L 734.329906 34.425765 
L 741.46517 34.414125 
" style="fill:none;stroke:#1f77b4;stroke-linecap:square;stroke-width:1.5;"/>
   </g>
   <g id="line2d_22">
    <path clip-path="url(#p332da5d4ba)" d="M 92.15608 274.090892 
L 99.291344 249.473525 
L 106.426609 244.132335 
L 113.561874 238.59825 
L 120.697138 235.807927 
L 127.832403 235.071269 
L 134.967668 233.735971 
L 142.102933 233.376788 
L 149.238197 232.851316 
L 156.373462 232.199464 
L 163.508727 231.945043 
L 170.643992 230.73945 
L 177.779256 229.663563 
L 184.914521 226.808387 
L 192.049786 224.852833 
L 199.185051 219.920713 
L 206.320315 218.312702 
L 213.45558 212.816863 
L 220.590845 210.568641 
L 227.72611 209.106965 
L 234.861374 205.293967 
L 241.996639 203.203719 
L 249.131904 199.585279 
L 256.267168 195.885357 
L 263.402433 193.376062 
L 270.537698 192.102291 
L 277.672963 189.386798 
L 284.808227 187.639105 
L 291.943492 185.961252 
L 299.078757 184.820513 
L 306.214022 184.359893 
L 313.349286 183.099425 
L 320.484551 180.856192 
L 327.619816 177.575318 
L 334.755081 175.172447 
L 341.890345 171.494143 
L 349.02561 168.805256 
L 356.160875 166.033225 
L 363.296139 160.563993 
L 370.431404 157.366263 
L 377.566669 157.042 
L 384.701934 155.041548 
L 391.837198 154.76052 
L 398.972463 154.303226 
L 406.107728 151.526206 
L 413.242993 147.576852 
L 420.378257 146.183353 
L 427.513522 143.59424 
L 434.648787 142.470129 
L 441.784052 137.168848 
L 448.919316 135.131812 
L 456.054581 132.768851 
L 463.189846 131.749502 
L 470.325111 130.066661 
L 477.460375 127.407706 
L 484.59564 126.203777 
L 491.730905 125.26092 
L 498.866169 124.76538 
L 506.001434 123.578079 
L 513.136699 121.324869 
L 520.271964 120.709601 
L 527.407228 119.874832 
L 534.542493 118.072788 
L 541.677758 117.892497 
L 548.813023 117.110065 
L 555.948287 116.595445 
L 563.083552 116.553436 
L 570.218817 116.420405 
L 577.354082 116.35739 
L 584.489346 115.305396 
L 591.624611 114.141376 
L 598.759876 112.844519 
L 605.89514 112.510094 
L 613.030405 112.401083 
L 620.16567 112.048181 
L 627.300935 110.847208 
L 634.436199 108.460042 
L 641.571464 105.023411 
L 648.706729 103.824285 
L 655.841994 103.15174 
L 662.977258 103.064901 
L 670.112523 101.28746 
L 677.247788 100.145612 
L 684.383053 99.402856 
L 691.518317 99.386227 
L 698.653582 99.131251 
L 705.788847 98.988982 
L 712.924112 98.724768 
L 720.059376 98.283179 
L 727.194641 97.087749 
L 734.329906 96.596274 
L 741.46517 96.588883 
" style="fill:none;stroke:#ff7f0e;stroke-linecap:square;stroke-width:1.5;"/>
   </g>
   <g id="line2d_23">
    <path clip-path="url(#p332da5d4ba)" d="M 92.15608 258.802317 
L 99.291344 250.268385 
L 106.426609 245.640573 
L 113.561874 243.59356 
L 120.697138 238.8693 
L 127.832403 236.185402 
L 134.967668 232.70997 
L 142.102933 229.836503 
L 149.238197 225.281858 
L 156.373462 222.740968 
L 163.508727 220.820334 
L 170.643992 217.758961 
L 177.779256 214.115578 
L 184.914521 210.277636 
L 192.049786 206.359877 
L 199.185051 203.883839 
L 206.320315 198.73887 
L 213.45558 196.572129 
L 220.590845 195.424737 
L 227.72611 193.883242 
L 234.861374 193.632146 
L 241.996639 193.096697 
L 249.131904 191.521944 
L 256.267168 189.830789 
L 263.402433 187.343111 
L 270.537698 182.583931 
L 277.672963 180.495346 
L 284.808227 179.951582 
L 291.943492 179.181666 
L 299.078757 177.28265 
L 306.214022 176.817042 
L 313.349286 176.690662 
L 320.484551 176.507745 
L 327.619816 174.956272 
L 334.755081 174.437452 
L 341.890345 174.040022 
L 349.02561 173.316666 
L 356.160875 172.832766 
L 363.296139 172.229139 
L 370.431404 172.147657 
L 377.566669 171.773508 
L 384.701934 171.479177 
L 391.837198 169.987568 
L 398.972463 167.870714 
L 406.107728 166.851365 
L 413.242993 164.91244 
L 420.378257 163.765048 
L 427.513522 162.714104 
L 434.648787 161.225821 
L 441.784052 160.680395 
L 448.919316 160.184855 
L 456.054581 159.89385 
L 463.189846 159.123933 
L 470.325111 159.082361 
L 477.460375 158.432173 
L 484.59564 157.747064 
L 491.730905 157.165053 
L 498.866169 156.948878 
L 506.001434 155.626884 
L 513.136699 155.09476 
L 520.271964 154.908517 
L 527.407228 153.887505 
L 534.542493 153.071028 
L 541.677758 152.548881 
L 548.813023 152.19635 
L 555.948287 152.063319 
L 563.083552 150.636562 
L 570.218817 149.850017 
L 577.354082 149.805119 
L 584.489346 149.697032 
L 591.624611 149.650471 
L 598.759876 149.608899 
L 605.89514 149.256367 
L 613.030405 147.255915 
L 620.16567 146.150096 
L 627.300935 145.864079 
L 634.436199 145.484941 
L 641.571464 145.335281 
L 648.706729 144.759923 
L 655.841994 144.1247 
L 662.977258 143.316538 
L 670.112523 143.171867 
L 677.247788 143.120317 
L 684.383053 142.410265 
L 691.518317 142.263931 
L 698.653582 142.180786 
L 705.788847 139.960833 
L 712.924112 138.113367 
L 720.059376 137.059097 
L 727.194641 136.011479 
L 734.329906 135.452749 
L 741.46517 133.532116 
" style="fill:none;stroke:#d62728;stroke-linecap:square;stroke-width:1.5;"/>
   </g>
   <g id="line2d_24">
    <path clip-path="url(#p332da5d4ba)" d="M 92.15608 256.595667 
L 99.291344 251.402473 
L 106.426609 246.882749 
L 113.561874 244.055842 
L 120.697138 240.542164 
L 127.832403 239.040578 
L 134.967668 238.870963 
L 142.102933 237.969679 
L 149.238197 235.862802 
L 156.373462 235.482001 
L 163.508727 235.332342 
L 170.643992 234.233174 
L 177.779256 233.998707 
L 184.914521 232.658421 
L 192.049786 232.058119 
L 199.185051 231.737182 
L 206.320315 230.940659 
L 213.45558 227.817759 
L 220.590845 226.670368 
L 227.72611 226.188131 
L 234.861374 224.967572 
L 241.996639 224.696522 
L 249.131904 222.7709 
L 256.267168 221.384053 
L 263.402433 220.507712 
L 270.537698 218.302725 
L 277.672963 217.381486 
L 284.808227 214.361685 
L 291.943492 213.578465 
L 299.078757 212.765314 
L 306.214022 211.797514 
L 313.349286 208.317094 
L 320.484551 206.117095 
L 327.619816 205.603263 
L 334.755081 204.464186 
L 341.890345 200.837432 
L 349.02561 200.375149 
L 356.160875 198.572581 
L 363.296139 197.260564 
L 370.431404 195.502893 
L 377.566669 195.17863 
L 384.701934 193.529047 
L 391.837198 192.624437 
L 398.972463 190.713781 
L 406.107728 189.702746 
L 413.242993 186.61643 
L 420.378257 184.838804 
L 427.513522 183.012955 
L 434.648787 182.432608 
L 441.784052 181.356721 
L 448.919316 180.1927 
L 456.054581 178.629588 
L 463.189846 175.539945 
L 470.325111 172.31062 
L 477.460375 170.91047 
L 484.59564 169.847886 
L 491.730905 169.591801 
L 498.866169 168.394523 
L 506.001434 168.321356 
L 513.136699 167.915612 
L 520.271964 165.738894 
L 527.407228 164.446832 
L 534.542493 163.164747 
L 541.677758 161.88765 
L 548.813023 160.324537 
L 555.948287 158.327411 
L 563.083552 156.729377 
L 570.218817 155.063165 
L 577.354082 153.558253 
L 584.489346 153.400279 
L 591.624611 152.87647 
L 598.759876 151.707461 
L 605.89514 151.349941 
L 613.030405 151.15372 
L 620.16567 150.07617 
L 627.300935 149.936487 
L 634.436199 148.513057 
L 641.571464 147.921069 
L 648.706729 147.85788 
L 655.841994 146.487662 
L 662.977258 145.619635 
L 670.112523 145.503233 
L 677.247788 145.250474 
L 684.383053 143.85365 
L 691.518317 143.409659 
L 698.653582 141.07663 
L 705.788847 139.155997 
L 712.924112 138.841711 
L 720.059376 138.723646 
L 727.194641 136.66333 
L 734.329906 136.631735 
L 741.46517 136.561894 
" style="fill:none;stroke:#c5b0d5;stroke-linecap:square;stroke-width:1.5;"/>
   </g>
   <g id="line2d_25">
    <path clip-path="url(#p332da5d4ba)" d="M 92.15608 255.020913 
L 99.291344 250.108748 
L 106.426609 248.010186 
L 113.561874 246.724775 
L 120.697138 245.509205 
L 127.832403 245.106786 
L 134.967668 244.714345 
L 142.102933 243.641784 
L 149.238197 241.978898 
L 156.373462 240.542164 
L 163.508727 240.138083 
L 170.643992 239.765596 
L 177.779256 238.849346 
L 184.914521 238.283965 
L 192.049786 237.834985 
L 199.185051 236.907095 
L 206.320315 236.47807 
L 213.45558 236.077315 
L 220.590845 234.835139 
L 227.72611 233.428337 
L 234.861374 232.089714 
L 241.996639 230.810954 
L 249.131904 230.310426 
L 256.267168 228.574372 
L 263.402433 227.362128 
L 270.537698 226.336128 
L 277.672963 225.835599 
L 284.808227 224.325698 
L 291.943492 222.616251 
L 299.078757 220.118596 
L 306.214022 218.926307 
L 313.349286 218.194637 
L 320.484551 217.379823 
L 327.619816 215.597209 
L 334.755081 214.812327 
L 341.890345 214.286855 
L 349.02561 214.103937 
L 356.160875 214.077331 
L 363.296139 211.153977 
L 370.431404 209.649065 
L 377.566669 209.42125 
L 384.701934 209.198423 
L 391.837198 208.405227 
L 398.972463 206.652545 
L 406.107728 206.281721 
L 413.242993 206.05058 
L 420.378257 205.852696 
L 427.513522 205.666453 
L 434.648787 205.651487 
L 441.784052 205.583309 
L 448.919316 205.425335 
L 456.054581 205.119364 
L 463.189846 205.032894 
L 470.325111 204.331156 
L 477.460375 204.121632 
L 484.59564 202.849524 
L 491.730905 202.568496 
L 498.866169 201.876736 
L 506.001434 200.326926 
L 513.136699 199.352474 
L 520.271964 198.697297 
L 527.407228 198.002211 
L 534.542493 196.849831 
L 541.677758 196.119824 
L 548.813023 195.288381 
L 555.948287 195.128744 
L 563.083552 194.826098 
L 570.218817 194.397074 
L 577.354082 193.356107 
L 584.489346 192.275231 
L 591.624611 191.20267 
L 598.759876 190.905013 
L 605.89514 190.74205 
L 613.030405 190.244847 
L 620.16567 190.130108 
L 627.300935 188.660117 
L 634.436199 188.204486 
L 641.571464 187.828674 
L 648.706729 186.220663 
L 655.841994 184.827164 
L 662.977258 184.374859 
L 670.112523 183.611594 
L 677.247788 183.491867 
L 684.383053 183.338881 
L 691.518317 183.066168 
L 698.653582 182.695344 
L 705.788847 182.532381 
L 712.924112 181.363372 
L 720.059376 180.350675 
L 727.194641 180.249239 
L 734.329906 180.067984 
L 741.46517 179.908347 
" style="fill:none;stroke:#e377c2;stroke-linecap:square;stroke-width:1.5;"/>
   </g>
   <g id="line2d_26">
    <path clip-path="url(#p332da5d4ba)" d="M 92.15608 271.817726 
L 99.291344 252.065965 
L 106.426609 248.332785 
L 113.561874 246.837851 
L 120.697138 245.441026 
L 127.832403 243.527045 
L 134.967668 242.622434 
L 142.102933 241.701196 
L 149.238197 240.301045 
L 156.373462 239.3532 
L 163.508727 237.894849 
L 170.643992 235.580112 
L 177.779256 232.53703 
L 184.914521 229.613676 
L 192.049786 228.220178 
L 199.185051 226.876566 
L 206.320315 226.023505 
L 213.45558 225.449809 
L 220.590845 225.165456 
L 227.72611 224.563491 
L 234.861374 224.377248 
L 241.996639 224.232577 
L 249.131904 224.10786 
L 256.267168 223.908314 
L 263.402433 223.770294 
L 270.537698 223.569085 
L 277.672963 223.532502 
L 284.808227 223.459335 
L 291.943492 223.346258 
L 299.078757 223.317989 
L 306.214022 223.299698 
L 313.349286 223.293046 
L 320.484551 223.140061 
L 327.619816 223.040287 
L 334.755081 223.035299 
L 341.890345 223.008693 
L 349.02561 222.985412 
L 356.160875 222.948829 
L 363.296139 222.9322 
L 370.431404 222.900605 
L 377.566669 222.434997 
L 384.701934 221.177855 
L 391.837198 221.03651 
L 398.972463 220.981634 
L 406.107728 220.955028 
L 413.242993 220.787077 
L 420.378257 220.376344 
L 427.513522 220.231673 
L 434.648787 219.847546 
L 441.784052 219.792671 
L 448.919316 219.072641 
L 456.054581 219.041046 
L 463.189846 218.937947 
L 470.325111 218.493957 
L 477.460375 217.175288 
L 484.59564 215.96637 
L 491.730905 215.690331 
L 498.866169 215.605524 
L 506.001434 214.852236 
L 513.136699 214.311798 
L 520.271964 213.433794 
L 527.407228 213.159418 
L 534.542493 213.02805 
L 541.677758 212.983152 
L 548.813023 211.948837 
L 555.948287 211.709381 
L 563.083552 211.523138 
L 570.218817 210.897893 
L 577.354082 210.728279 
L 584.489346 210.691695 
L 591.624611 210.578619 
L 598.759876 210.566979 
L 605.89514 209.918453 
L 613.030405 209.848612 
L 620.16567 209.244984 
L 627.300935 209.133571 
L 634.436199 208.993888 
L 641.571464 208.574841 
L 648.706729 207.221252 
L 655.841994 207.06494 
L 662.977258 207.043323 
L 670.112523 206.993436 
L 677.247788 206.985122 
L 684.383053 206.837125 
L 691.518317 206.823822 
L 698.653582 206.810519 
L 705.788847 206.71906 
L 712.924112 206.634253 
L 720.059376 206.629264 
L 727.194641 206.622613 
L 734.329906 206.53448 
L 741.46517 206.53448 
" style="fill:none;stroke:#2ca02c;stroke-linecap:square;stroke-width:1.5;"/>
   </g>
   <g id="line2d_27">
    <path clip-path="url(#p332da5d4ba)" d="M 92.15608 233.413371 
L 99.291344 227.129324 
L 106.426609 225.794027 
L 113.561874 225.774072 
L 120.697138 225.774072 
L 127.832403 225.774072 
L 134.967668 225.774072 
L 142.102933 225.774072 
L 149.238197 225.774072 
L 156.373462 225.774072 
L 163.508727 225.774072 
L 170.643992 225.774072 
L 177.779256 225.774072 
L 184.914521 225.774072 
L 192.049786 225.774072 
L 199.185051 225.774072 
L 206.320315 225.774072 
L 213.45558 225.774072 
L 220.590845 225.774072 
L 227.72611 225.774072 
L 234.861374 225.774072 
L 241.996639 225.774072 
L 249.131904 225.774072 
L 256.267168 225.774072 
L 263.402433 225.774072 
L 270.537698 225.774072 
L 277.672963 225.774072 
L 284.808227 225.774072 
L 291.943492 225.774072 
L 299.078757 225.774072 
L 306.214022 225.774072 
L 313.349286 225.774072 
L 320.484551 225.774072 
L 327.619816 225.774072 
L 334.755081 225.774072 
L 341.890345 225.774072 
L 349.02561 225.774072 
L 356.160875 225.774072 
L 363.296139 225.774072 
L 370.431404 225.774072 
L 377.566669 225.774072 
L 384.701934 225.774072 
L 391.837198 225.774072 
L 398.972463 225.774072 
L 406.107728 225.774072 
L 413.242993 225.774072 
L 420.378257 225.774072 
L 427.513522 225.774072 
L 434.648787 225.774072 
L 441.784052 225.774072 
L 448.919316 225.774072 
L 456.054581 225.774072 
L 463.189846 225.774072 
L 470.325111 225.774072 
L 477.460375 225.774072 
L 484.59564 225.774072 
L 491.730905 225.774072 
L 498.866169 225.774072 
L 506.001434 225.774072 
L 513.136699 225.774072 
L 520.271964 225.774072 
L 527.407228 225.774072 
L 534.542493 225.774072 
L 541.677758 225.774072 
L 548.813023 225.774072 
L 555.948287 225.774072 
L 563.083552 225.774072 
L 570.218817 225.774072 
L 577.354082 225.774072 
L 584.489346 225.774072 
L 591.624611 225.774072 
L 598.759876 225.774072 
L 605.89514 225.774072 
L 613.030405 225.774072 
L 620.16567 225.774072 
L 627.300935 225.774072 
L 634.436199 225.774072 
L 641.571464 225.774072 
L 648.706729 225.774072 
L 655.841994 225.774072 
L 662.977258 225.774072 
L 670.112523 225.774072 
L 677.247788 225.774072 
L 684.383053 225.774072 
L 691.518317 225.774072 
L 698.653582 225.774072 
L 705.788847 225.774072 
L 712.924112 225.774072 
L 720.059376 225.774072 
L 727.194641 225.774072 
L 734.329906 225.774072 
L 741.46517 225.774072 
" style="fill:none;stroke:#ff9896;stroke-linecap:square;stroke-width:1.5;"/>
   </g>
   <g id="line2d_28">
    <path clip-path="url(#p332da5d4ba)" d="M 92.15608 276.334125 
L 99.291344 260.545021 
L 106.426609 256.595667 
L 113.561874 254.630135 
L 120.697138 253.567551 
L 127.832403 251.61366 
L 134.967668 250.482897 
L 142.102933 249.761205 
L 149.238197 249.528401 
L 156.373462 247.94367 
L 163.508727 247.258561 
L 170.643992 247.178742 
L 177.779256 247.123867 
L 184.914521 246.969219 
L 192.049786 246.12281 
L 199.185051 245.780255 
L 206.320315 245.648887 
L 213.45558 245.622281 
L 220.590845 245.294692 
L 227.72611 244.935509 
L 234.861374 244.739289 
L 241.996639 244.351836 
L 249.131904 244.286983 
L 256.267168 244.235434 
L 263.402433 244.15229 
L 270.537698 244.090763 
L 277.672963 243.86461 
L 284.808227 243.847982 
L 291.943492 243.809735 
L 299.078757 243.701648 
L 306.214022 243.666727 
L 313.349286 243.610189 
L 320.484551 243.571942 
L 327.619816 243.533696 
L 334.755081 243.465518 
L 341.890345 243.40898 
L 349.02561 243.300892 
L 356.160875 243.056448 
L 363.296139 243.004898 
L 370.431404 242.993258 
L 377.566669 242.883508 
L 384.701934 242.826969 
L 391.837198 242.604143 
L 398.972463 242.559245 
L 406.107728 242.529313 
L 413.242993 242.439517 
L 420.378257 242.416237 
L 427.513522 242.298172 
L 434.648787 242.284869 
L 441.784052 242.273228 
L 448.919316 242.126894 
L 456.054581 242.010492 
L 463.189846 241.952291 
L 470.325111 241.919034 
L 477.460375 241.905731 
L 484.59564 241.875799 
L 491.730905 241.797643 
L 498.866169 241.68623 
L 506.001434 241.460077 
L 513.136699 241.152443 
L 520.271964 240.936268 
L 527.407228 240.838158 
L 534.542493 240.823192 
L 541.677758 240.808226 
L 548.813023 240.796586 
L 555.948287 240.791597 
L 563.083552 240.131431 
L 570.218817 239.396435 
L 577.354082 239.290011 
L 584.489346 239.276708 
L 591.624611 239.268393 
L 598.759876 239.268393 
L 605.89514 239.26673 
L 613.030405 239.26673 
L 620.16567 239.260079 
L 627.300935 239.250101 
L 634.436199 239.128711 
L 641.571464 238.435287 
L 648.706729 237.984645 
L 655.841994 237.982982 
L 662.977258 237.982982 
L 670.112523 237.963028 
L 677.247788 237.959702 
L 684.383053 237.958039 
L 691.518317 237.79175 
L 698.653582 237.403248 
L 705.788847 237.401497 
L 712.924112 237.399747 
L 720.059376 237.387494 
L 727.194641 237.20623 
L 734.329906 237.829214 
L 741.46517 234.370085 
" style="fill:none;stroke:#98df8a;stroke-linecap:square;stroke-width:1.5;"/>
   </g>
   <g id="line2d_29">
    <path clip-path="url(#p332da5d4ba)" d="M 92.15608 259.733533 
L 99.291344 256.577375 
L 106.426609 254.771481 
L 113.561874 254.164527 
L 120.697138 252.448429 
L 127.832403 251.492269 
L 134.967668 250.948505 
L 142.102933 249.771182 
L 149.238197 249.062792 
L 156.373462 248.924773 
L 163.508727 248.582218 
L 170.643992 248.507388 
L 177.779256 248.469142 
L 184.914521 248.410941 
L 192.049786 248.311168 
L 199.185051 248.281236 
L 206.320315 248.221372 
L 213.45558 248.103307 
L 220.590845 247.973602 
L 227.72611 247.767404 
L 234.861374 247.720843 
L 241.996639 247.682597 
L 249.131904 247.660979 
L 256.267168 247.642688 
L 263.402433 247.333391 
L 270.537698 247.198697 
L 277.672963 247.12553 
L 284.808227 246.769672 
L 291.943492 246.743066 
L 299.078757 246.708146 
L 306.214022 246.673225 
L 313.349286 246.644956 
L 320.484551 246.613361 
L 327.619816 246.583429 
L 334.755081 246.576778 
L 341.890345 246.219257 
L 349.02561 246.174359 
L 356.160875 246.171033 
L 363.296139 245.660527 
L 370.431404 245.396129 
L 377.566669 245.386151 
L 384.701934 245.349568 
L 391.837198 245.169976 
L 398.972463 245.048585 
L 406.107728 245.031956 
L 413.242993 245.025305 
L 420.378257 244.942161 
L 427.513522 244.373454 
L 434.648787 244.160604 
L 441.784052 244.137324 
L 448.919316 244.124021 
L 456.054581 244.010944 
L 463.189846 244.007619 
L 470.325111 243.776477 
L 477.460375 243.75486 
L 484.59564 243.749871 
L 491.730905 243.497113 
L 498.866169 243.485472 
L 506.001434 243.478821 
L 513.136699 243.467181 
L 520.271964 243.450552 
L 527.407228 243.418957 
L 534.542493 243.415631 
L 541.677758 243.403991 
L 548.813023 243.387362 
L 555.948287 243.304218 
L 563.083552 243.295903 
L 570.218817 243.290915 
L 577.354082 243.289252 
L 584.489346 243.20777 
L 591.624611 243.20777 
L 598.759876 243.202782 
L 605.89514 243.197793 
L 613.030405 243.197793 
L 620.16567 243.19613 
L 627.300935 243.194467 
L 634.436199 243.174513 
L 641.571464 242.92508 
L 648.706729 242.582525 
L 655.841994 242.572548 
L 662.977258 242.572548 
L 670.112523 242.564233 
L 677.247788 242.530976 
L 684.383053 242.524324 
L 691.518317 241.877461 
L 698.653582 241.78434 
L 705.788847 241.7727 
L 712.924112 241.7727 
L 720.059376 241.395225 
L 727.194641 241.365293 
L 734.329906 241.348664 
L 741.46517 241.333698 
" style="fill:none;stroke:#dbdb8d;stroke-linecap:square;stroke-width:1.5;"/>
   </g>
   <g id="line2d_30"/>
   <g id="line2d_31"/>
   <g id="line2d_32"/>
   <g id="line2d_33"/>
   <g id="line2d_34"/>
   <g id="line2d_35"/>
   <g id="line2d_36"/>
   <g id="line2d_37"/>
   <g id="line2d_38"/>
   <g id="line2d_39"/>
   <g id="line2d_40">
    <path clip-path="url(#p332da5d4ba)" d="M 741.46517 288.430125 
L 741.46517 22.318125 
" style="fill:none;stroke:#ff0000;stroke-linecap:square;stroke-width:1.5;"/>
   </g>
   <g id="patch_3">
    <path d="M 59.690625 281.690281 
L 59.690625 48.886223 
" style="fill:none;stroke:#000000;stroke-linecap:square;stroke-linejoin:miter;stroke-width:0.8;"/>
   </g>
   <g id="patch_4">
    <path d="M 92.15608 288.430125 
L 693.896739 288.430125 
" style="fill:none;stroke:#000000;stroke-linecap:square;stroke-linejoin:miter;stroke-width:0.8;"/>
   </g>
   <g id="text_23">
    <!-- libxml2-v2.9.2 (23h, 6 trials/fuzzer) -->
    <g transform="translate(311.05125 16.318125)scale(0.12 -0.12)">
     <defs>
      <path d="M 9.421875 75.984375 
L 18.40625 75.984375 
L 18.40625 0 
L 9.421875 0 
z
" id="DejaVuSans-108"/>
      <path d="M 48.6875 27.296875 
Q 48.6875 37.203125 44.609375 42.84375 
Q 40.53125 48.484375 33.40625 48.484375 
Q 26.265625 48.484375 22.1875 42.84375 
Q 18.109375 37.203125 18.109375 27.296875 
Q 18.109375 17.390625 22.1875 11.75 
Q 26.265625 6.109375 33.40625 6.109375 
Q 40.53125 6.109375 44.609375 11.75 
Q 48.6875 17.390625 48.6875 27.296875 
z
M 18.109375 46.390625 
Q 20.953125 51.265625 25.265625 53.625 
Q 29.59375 56 35.59375 56 
Q 45.5625 56 51.78125 48.09375 
Q 58.015625 40.1875 58.015625 27.296875 
Q 58.015625 14.40625 51.78125 6.484375 
Q 45.5625 -1.421875 35.59375 -1.421875 
Q 29.59375 -1.421875 25.265625 0.953125 
Q 20.953125 3.328125 18.109375 8.203125 
L 18.109375 0 
L 9.078125 0 
L 9.078125 75.984375 
L 18.109375 75.984375 
z
" id="DejaVuSans-98"/>
      <path d="M 54.890625 54.6875 
L 35.109375 28.078125 
L 55.90625 0 
L 45.3125 0 
L 29.390625 21.484375 
L 13.484375 0 
L 2.875 0 
L 24.125 28.609375 
L 4.6875 54.6875 
L 15.28125 54.6875 
L 29.78125 35.203125 
L 44.28125 54.6875 
z
" id="DejaVuSans-120"/>
      <path d="M 4.890625 31.390625 
L 31.203125 31.390625 
L 31.203125 23.390625 
L 4.890625 23.390625 
z
" id="DejaVuSans-45"/>
      <path d="M 10.6875 12.40625 
L 21 12.40625 
L 21 0 
L 10.6875 0 
z
" id="DejaVuSans-46"/>
      <path d="M 11.71875 12.40625 
L 22.015625 12.40625 
L 22.015625 4 
L 14.015625 -11.625 
L 7.71875 -11.625 
L 11.71875 4 
z
" id="DejaVuSans-44"/>
      <path d="M 44.28125 53.078125 
L 44.28125 44.578125 
Q 40.484375 46.53125 36.375 47.5 
Q 32.28125 48.484375 27.875 48.484375 
Q 21.1875 48.484375 17.84375 46.4375 
Q 14.5 44.390625 14.5 40.28125 
Q 14.5 37.15625 16.890625 35.375 
Q 19.28125 33.59375 26.515625 31.984375 
L 29.59375 31.296875 
Q 39.15625 29.25 43.1875 25.515625 
Q 47.21875 21.78125 47.21875 15.09375 
Q 47.21875 7.46875 41.1875 3.015625 
Q 35.15625 -1.421875 24.609375 -1.421875 
Q 20.21875 -1.421875 15.453125 -0.5625 
Q 10.6875 0.296875 5.421875 2 
L 5.421875 11.28125 
Q 10.40625 8.6875 15.234375 7.390625 
Q 20.0625 6.109375 24.8125 6.109375 
Q 31.15625 6.109375 34.5625 8.28125 
Q 37.984375 10.453125 37.984375 14.40625 
Q 37.984375 18.0625 35.515625 20.015625 
Q 33.0625 21.96875 24.703125 23.78125 
L 21.578125 24.515625 
Q 13.234375 26.265625 9.515625 29.90625 
Q 5.8125 33.546875 5.8125 39.890625 
Q 5.8125 47.609375 11.28125 51.796875 
Q 16.75 56 26.8125 56 
Q 31.78125 56 36.171875 55.265625 
Q 40.578125 54.546875 44.28125 53.078125 
z
" id="DejaVuSans-115"/>
      <path d="M 25.390625 72.90625 
L 33.6875 72.90625 
L 8.296875 -9.28125 
L 0 -9.28125 
z
" id="DejaVuSans-47"/>
      <path d="M 37.109375 75.984375 
L 37.109375 68.5 
L 28.515625 68.5 
Q 23.6875 68.5 21.796875 66.546875 
Q 19.921875 64.59375 19.921875 59.515625 
L 19.921875 54.6875 
L 34.71875 54.6875 
L 34.71875 47.703125 
L 19.921875 47.703125 
L 19.921875 0 
L 10.890625 0 
L 10.890625 47.703125 
L 2.296875 47.703125 
L 2.296875 54.6875 
L 10.890625 54.6875 
L 10.890625 58.5 
Q 10.890625 67.625 15.140625 71.796875 
Q 19.390625 75.984375 28.609375 75.984375 
z
" id="DejaVuSans-102"/>
      <path d="M 5.515625 54.6875 
L 48.1875 54.6875 
L 48.1875 46.484375 
L 14.40625 7.171875 
L 48.1875 7.171875 
L 48.1875 0 
L 4.296875 0 
L 4.296875 8.203125 
L 38.09375 47.515625 
L 5.515625 47.515625 
z
" id="DejaVuSans-122"/>
     </defs>
     <use xlink:href="#DejaVuSans-108"/>
     <use x="27.783203" xlink:href="#DejaVuSans-105"/>
     <use x="55.566406" xlink:href="#DejaVuSans-98"/>
     <use x="119.042969" xlink:href="#DejaVuSans-120"/>
     <use x="178.222656" xlink:href="#DejaVuSans-109"/>
     <use x="275.634766" xlink:href="#DejaVuSans-108"/>
     <use x="303.417969" xlink:href="#DejaVuSans-50"/>
     <use x="367.041016" xlink:href="#DejaVuSans-45"/>
     <use x="400.5" xlink:href="#DejaVuSans-118"/>
     <use x="459.679688" xlink:href="#DejaVuSans-50"/>
     <use x="523.302734" xlink:href="#DejaVuSans-46"/>
     <use x="555.089844" xlink:href="#DejaVuSans-57"/>
     <use x="618.712891" xlink:href="#DejaVuSans-46"/>
     <use x="650.5" xlink:href="#DejaVuSans-50"/>
     <use x="714.123047" xlink:href="#DejaVuSans-32"/>
     <use x="745.910156" xlink:href="#DejaVuSans-40"/>
     <use x="784.923828" xlink:href="#DejaVuSans-50"/>
     <use x="848.546875" xlink:href="#DejaVuSans-51"/>
     <use x="912.169922" xlink:href="#DejaVuSans-104"/>
     <use x="975.548828" xlink:href="#DejaVuSans-44"/>
     <use x="1007.335938" xlink:href="#DejaVuSans-32"/>
     <use x="1039.123047" xlink:href="#DejaVuSans-54"/>
     <use x="1102.746094" xlink:href="#DejaVuSans-32"/>
     <use x="1134.533203" xlink:href="#DejaVuSans-116"/>
     <use x="1173.742188" xlink:href="#DejaVuSans-114"/>
     <use x="1214.855469" xlink:href="#DejaVuSans-105"/>
     <use x="1242.638672" xlink:href="#DejaVuSans-97"/>
     <use x="1303.917969" xlink:href="#DejaVuSans-108"/>
     <use x="1331.701172" xlink:href="#DejaVuSans-115"/>
     <use x="1383.800781" xlink:href="#DejaVuSans-47"/>
     <use x="1417.492188" xlink:href="#DejaVuSans-102"/>
     <use x="1452.697266" xlink:href="#DejaVuSans-117"/>
     <use x="1516.076172" xlink:href="#DejaVuSans-122"/>
     <use x="1568.566406" xlink:href="#DejaVuSans-122"/>
     <use x="1621.056641" xlink:href="#DejaVuSans-101"/>
     <use x="1682.580078" xlink:href="#DejaVuSans-114"/>
     <use x="1723.693359" xlink:href="#DejaVuSans-41"/>
    </g>
   </g>
   <g id="legend_1">
    <g id="line2d_41">
     <path d="M 777.930625 30.416562 
L 797.930625 30.416562 
" style="fill:none;"/>
    </g>
    <g id="line2d_42"/>
    <g id="text_24">
     <!-- fuzzer -->
     <g transform="translate(805.930625 33.916562)scale(0.1 -0.1)">
      <use xlink:href="#DejaVuSans-102"/>
      <use x="35.205078" xlink:href="#DejaVuSans-117"/>
      <use x="98.583984" xlink:href="#DejaVuSans-122"/>
      <use x="151.074219" xlink:href="#DejaVuSans-122"/>
      <use x="203.564453" xlink:href="#DejaVuSans-101"/>
      <use x="265.087891" xlink:href="#DejaVuSans-114"/>
     </g>
    </g>
    <g id="line2d_43">
     <path d="M 777.930625 45.094688 
L 797.930625 45.094688 
" style="fill:none;stroke:#1f77b4;stroke-linecap:square;stroke-width:1.5;"/>
    </g>
    <g id="line2d_44"/>
    <g id="text_25">
     <!-- aflplusplus -->
     <g transform="translate(805.930625 48.594688)scale(0.1 -0.1)">
      <defs>
       <path d="M 18.109375 8.203125 
L 18.109375 -20.796875 
L 9.078125 -20.796875 
L 9.078125 54.6875 
L 18.109375 54.6875 
L 18.109375 46.390625 
Q 20.953125 51.265625 25.265625 53.625 
Q 29.59375 56 35.59375 56 
Q 45.5625 56 51.78125 48.09375 
Q 58.015625 40.1875 58.015625 27.296875 
Q 58.015625 14.40625 51.78125 6.484375 
Q 45.5625 -1.421875 35.59375 -1.421875 
Q 29.59375 -1.421875 25.265625 0.953125 
Q 20.953125 3.328125 18.109375 8.203125 
z
M 48.6875 27.296875 
Q 48.6875 37.203125 44.609375 42.84375 
Q 40.53125 48.484375 33.40625 48.484375 
Q 26.265625 48.484375 22.1875 42.84375 
Q 18.109375 37.203125 18.109375 27.296875 
Q 18.109375 17.390625 22.1875 11.75 
Q 26.265625 6.109375 33.40625 6.109375 
Q 40.53125 6.109375 44.609375 11.75 
Q 48.6875 17.390625 48.6875 27.296875 
z
" id="DejaVuSans-112"/>
      </defs>
      <use xlink:href="#DejaVuSans-97"/>
      <use x="61.279297" xlink:href="#DejaVuSans-102"/>
      <use x="96.484375" xlink:href="#DejaVuSans-108"/>
      <use x="124.267578" xlink:href="#DejaVuSans-112"/>
      <use x="187.744141" xlink:href="#DejaVuSans-108"/>
      <use x="215.527344" xlink:href="#DejaVuSans-117"/>
      <use x="278.90625" xlink:href="#DejaVuSans-115"/>
      <use x="331.005859" xlink:href="#DejaVuSans-112"/>
      <use x="394.482422" xlink:href="#DejaVuSans-108"/>
      <use x="422.265625" xlink:href="#DejaVuSans-117"/>
      <use x="485.644531" xlink:href="#DejaVuSans-115"/>
     </g>
    </g>
    <g id="line2d_45">
     <path d="M 777.930625 59.772812 
L 797.930625 59.772812 
" style="fill:none;stroke:#ff7f0e;stroke-linecap:square;stroke-width:1.5;"/>
    </g>
    <g id="line2d_46"/>
    <g id="text_26">
     <!-- entropic -->
     <g transform="translate(805.930625 63.272812)scale(0.1 -0.1)">
      <use xlink:href="#DejaVuSans-101"/>
      <use x="61.523438" xlink:href="#DejaVuSans-110"/>
      <use x="124.902344" xlink:href="#DejaVuSans-116"/>
      <use x="164.111328" xlink:href="#DejaVuSans-114"/>
      <use x="202.974609" xlink:href="#DejaVuSans-111"/>
      <use x="264.15625" xlink:href="#DejaVuSans-112"/>
      <use x="327.632812" xlink:href="#DejaVuSans-105"/>
      <use x="355.416016" xlink:href="#DejaVuSans-99"/>
     </g>
    </g>
    <g id="line2d_47">
     <path d="M 777.930625 74.450938 
L 797.930625 74.450938 
" style="fill:none;stroke:#d62728;stroke-linecap:square;stroke-width:1.5;"/>
    </g>
    <g id="line2d_48"/>
    <g id="text_27">
     <!-- aflplusplus_qemu -->
     <g transform="translate(805.930625 77.950938)scale(0.1 -0.1)">
      <defs>
       <path d="M 50.984375 -16.609375 
L 50.984375 -23.578125 
L -0.984375 -23.578125 
L -0.984375 -16.609375 
z
" id="DejaVuSans-95"/>
       <path d="M 14.796875 27.296875 
Q 14.796875 17.390625 18.875 11.75 
Q 22.953125 6.109375 30.078125 6.109375 
Q 37.203125 6.109375 41.296875 11.75 
Q 45.40625 17.390625 45.40625 27.296875 
Q 45.40625 37.203125 41.296875 42.84375 
Q 37.203125 48.484375 30.078125 48.484375 
Q 22.953125 48.484375 18.875 42.84375 
Q 14.796875 37.203125 14.796875 27.296875 
z
M 45.40625 8.203125 
Q 42.578125 3.328125 38.25 0.953125 
Q 33.9375 -1.421875 27.875 -1.421875 
Q 17.96875 -1.421875 11.734375 6.484375 
Q 5.515625 14.40625 5.515625 27.296875 
Q 5.515625 40.1875 11.734375 48.09375 
Q 17.96875 56 27.875 56 
Q 33.9375 56 38.25 53.625 
Q 42.578125 51.265625 45.40625 46.390625 
L 45.40625 54.6875 
L 54.390625 54.6875 
L 54.390625 -20.796875 
L 45.40625 -20.796875 
z
" id="DejaVuSans-113"/>
      </defs>
      <use xlink:href="#DejaVuSans-97"/>
      <use x="61.279297" xlink:href="#DejaVuSans-102"/>
      <use x="96.484375" xlink:href="#DejaVuSans-108"/>
      <use x="124.267578" xlink:href="#DejaVuSans-112"/>
      <use x="187.744141" xlink:href="#DejaVuSans-108"/>
      <use x="215.527344" xlink:href="#DejaVuSans-117"/>
      <use x="278.90625" xlink:href="#DejaVuSans-115"/>
      <use x="331.005859" xlink:href="#DejaVuSans-112"/>
      <use x="394.482422" xlink:href="#DejaVuSans-108"/>
      <use x="422.265625" xlink:href="#DejaVuSans-117"/>
      <use x="485.644531" xlink:href="#DejaVuSans-115"/>
      <use x="537.744141" xlink:href="#DejaVuSans-95"/>
      <use x="587.744141" xlink:href="#DejaVuSans-113"/>
      <use x="651.220703" xlink:href="#DejaVuSans-101"/>
      <use x="712.744141" xlink:href="#DejaVuSans-109"/>
      <use x="810.15625" xlink:href="#DejaVuSans-117"/>
     </g>
    </g>
    <g id="line2d_49">
     <path d="M 777.930625 89.407188 
L 797.930625 89.407188 
" style="fill:none;stroke:#c5b0d5;stroke-linecap:square;stroke-width:1.5;"/>
    </g>
    <g id="line2d_50"/>
    <g id="text_28">
     <!-- mopt -->
     <g transform="translate(805.930625 92.907188)scale(0.1 -0.1)">
      <use xlink:href="#DejaVuSans-109"/>
      <use x="97.412109" xlink:href="#DejaVuSans-111"/>
      <use x="158.59375" xlink:href="#DejaVuSans-112"/>
      <use x="222.070312" xlink:href="#DejaVuSans-116"/>
     </g>
    </g>
    <g id="line2d_51">
     <path d="M 777.930625 104.085313 
L 797.930625 104.085313 
" style="fill:none;stroke:#e377c2;stroke-linecap:square;stroke-width:1.5;"/>
    </g>
    <g id="line2d_52"/>
    <g id="text_29">
     <!-- honggfuzz -->
     <g transform="translate(805.930625 107.585313)scale(0.1 -0.1)">
      <use xlink:href="#DejaVuSans-104"/>
      <use x="63.378906" xlink:href="#DejaVuSans-111"/>
      <use x="124.560547" xlink:href="#DejaVuSans-110"/>
      <use x="187.939453" xlink:href="#DejaVuSans-103"/>
      <use x="251.416016" xlink:href="#DejaVuSans-103"/>
      <use x="314.892578" xlink:href="#DejaVuSans-102"/>
      <use x="350.097656" xlink:href="#DejaVuSans-117"/>
      <use x="413.476562" xlink:href="#DejaVuSans-122"/>
      <use x="465.966797" xlink:href="#DejaVuSans-122"/>
     </g>
    </g>
    <g id="line2d_53">
     <path d="M 777.930625 118.763438 
L 797.930625 118.763438 
" style="fill:none;stroke:#2ca02c;stroke-linecap:square;stroke-width:1.5;"/>
    </g>
    <g id="line2d_54"/>
    <g id="text_30">
     <!-- libfuzzer -->
     <g transform="translate(805.930625 122.263438)scale(0.1 -0.1)">
      <use xlink:href="#DejaVuSans-108"/>
      <use x="27.783203" xlink:href="#DejaVuSans-105"/>
      <use x="55.566406" xlink:href="#DejaVuSans-98"/>
      <use x="119.042969" xlink:href="#DejaVuSans-102"/>
      <use x="154.248047" xlink:href="#DejaVuSans-117"/>
      <use x="217.626953" xlink:href="#DejaVuSans-122"/>
      <use x="270.117188" xlink:href="#DejaVuSans-122"/>
      <use x="322.607422" xlink:href="#DejaVuSans-101"/>
      <use x="384.130859" xlink:href="#DejaVuSans-114"/>
     </g>
    </g>
    <g id="line2d_55">
     <path d="M 777.930625 133.441563 
L 797.930625 133.441563 
" style="fill:none;stroke:#ff9896;stroke-linecap:square;stroke-width:1.5;"/>
    </g>
    <g id="line2d_56"/>
    <g id="text_31">
     <!-- fairfuzz -->
     <g transform="translate(805.930625 136.941563)scale(0.1 -0.1)">
      <use xlink:href="#DejaVuSans-102"/>
      <use x="35.205078" xlink:href="#DejaVuSans-97"/>
      <use x="96.484375" xlink:href="#DejaVuSans-105"/>
      <use x="124.267578" xlink:href="#DejaVuSans-114"/>
      <use x="165.380859" xlink:href="#DejaVuSans-102"/>
      <use x="200.585938" xlink:href="#DejaVuSans-117"/>
      <use x="263.964844" xlink:href="#DejaVuSans-122"/>
      <use x="316.455078" xlink:href="#DejaVuSans-122"/>
     </g>
    </g>
    <g id="line2d_57">
     <path d="M 777.930625 148.119687 
L 797.930625 148.119687 
" style="fill:none;stroke:#98df8a;stroke-linecap:square;stroke-width:1.5;"/>
    </g>
    <g id="line2d_58"/>
    <g id="text_32">
     <!-- aflplusplus_flat -->
     <g transform="translate(805.930625 151.619687)scale(0.1 -0.1)">
      <use xlink:href="#DejaVuSans-97"/>
      <use x="61.279297" xlink:href="#DejaVuSans-102"/>
      <use x="96.484375" xlink:href="#DejaVuSans-108"/>
      <use x="124.267578" xlink:href="#DejaVuSans-112"/>
      <use x="187.744141" xlink:href="#DejaVuSans-108"/>
      <use x="215.527344" xlink:href="#DejaVuSans-117"/>
      <use x="278.90625" xlink:href="#DejaVuSans-115"/>
      <use x="331.005859" xlink:href="#DejaVuSans-112"/>
      <use x="394.482422" xlink:href="#DejaVuSans-108"/>
      <use x="422.265625" xlink:href="#DejaVuSans-117"/>
      <use x="485.644531" xlink:href="#DejaVuSans-115"/>
      <use x="537.744141" xlink:href="#DejaVuSans-95"/>
      <use x="587.744141" xlink:href="#DejaVuSans-102"/>
      <use x="622.949219" xlink:href="#DejaVuSans-108"/>
      <use x="650.732422" xlink:href="#DejaVuSans-97"/>
      <use x="712.011719" xlink:href="#DejaVuSans-116"/>
     </g>
    </g>
    <g id="line2d_59">
     <path d="M 777.930625 163.075938 
L 797.930625 163.075938 
" style="fill:none;stroke:#dbdb8d;stroke-linecap:square;stroke-width:1.5;"/>
    </g>
    <g id="line2d_60"/>
    <g id="text_33">
     <!-- lafintel -->
     <g transform="translate(805.930625 166.575938)scale(0.1 -0.1)">
      <use xlink:href="#DejaVuSans-108"/>
      <use x="27.783203" xlink:href="#DejaVuSans-97"/>
      <use x="89.0625" xlink:href="#DejaVuSans-102"/>
      <use x="124.267578" xlink:href="#DejaVuSans-105"/>
      <use x="152.050781" xlink:href="#DejaVuSans-110"/>
      <use x="215.429688" xlink:href="#DejaVuSans-116"/>
      <use x="254.638672" xlink:href="#DejaVuSans-101"/>
      <use x="316.162109" xlink:href="#DejaVuSans-108"/>
     </g>
    </g>
   </g>
  </g>
 </g>
 <defs>
  <clipPath id="p332da5d4ba">
   <rect height="266.112" width="714.24" x="59.690625" y="22.318125"/>
  </clipPath>
 </defs>
</svg>
