<?xml version="1.0" encoding="utf-8" standalone="no"?>
<!DOCTYPE svg PUBLIC "-//W3C//DTD SVG 1.1//EN"
  "http://www.w3.org/Graphics/SVG/1.1/DTD/svg11.dtd">
<!-- Created with matplotlib (https://matplotlib.org/) -->
<svg height="362.490772pt" version="1.1" viewBox="0 0 424.010625 362.490772" width="424.010625pt" xmlns="http://www.w3.org/2000/svg" xmlns:xlink="http://www.w3.org/1999/xlink">
 <metadata>
  <rdf:RDF xmlns:cc="http://creativecommons.org/ns#" xmlns:dc="http://purl.org/dc/elements/1.1/" xmlns:rdf="http://www.w3.org/1999/02/22-rdf-syntax-ns#">
   <cc:Work>
    <dc:type rdf:resource="http://purl.org/dc/dcmitype/StillImage"/>
    <dc:date>2020-12-06T10:29:03.080018</dc:date>
    <dc:format>image/svg+xml</dc:format>
    <dc:creator>
     <cc:Agent>
      <dc:title>Matplotlib v3.3.3, https://matplotlib.org/</dc:title>
     </cc:Agent>
    </dc:creator>
   </cc:Work>
  </rdf:RDF>
 </metadata>
 <defs>
  <style type="text/css">*{stroke-linecap:butt;stroke-linejoin:round;}</style>
 </defs>
 <g id="figure_1">
  <g id="patch_1">
   <path d="M 0 362.490772 
L 424.010625 362.490772 
L 424.010625 -0 
L 0 -0 
z
" style="fill:#ffffff;"/>
  </g>
  <g id="axes_1">
   <g id="patch_2">
    <path d="M 59.690625 288.430125 
L 416.810625 288.430125 
L 416.810625 22.318125 
L 59.690625 22.318125 
z
" style="fill:#ffffff;"/>
   </g>
   <g id="PolyCollection_1">
    <defs>
     <path d="M 82.243468 -262.481611 
L 81.777782 -262.481611 
L 81.721336 -262.762026 
L 81.654735 -263.04244 
L 81.57702 -263.322855 
L 81.487319 -263.603269 
L 81.384879 -263.883684 
L 81.26909 -264.164098 
L 81.139511 -264.444513 
L 80.995877 -264.724927 
L 80.8381 -265.005342 
L 80.666259 -265.285756 
L 80.480575 -265.566171 
L 80.281388 -265.846586 
L 80.069113 -266.127 
L 79.844206 -266.407415 
L 79.607129 -266.687829 
L 79.358312 -266.968244 
L 79.098136 -267.248658 
L 78.826913 -267.529073 
L 78.544888 -267.809487 
L 78.25224 -268.089902 
L 77.949094 -268.370316 
L 77.635539 -268.650731 
L 77.311638 -268.931145 
L 76.977439 -269.21156 
L 76.632976 -269.491974 
L 76.278262 -269.772389 
L 75.913275 -270.052803 
L 75.537938 -270.333218 
L 75.152107 -270.613633 
L 74.755554 -270.894047 
L 74.347977 -271.174462 
L 73.929025 -271.454876 
L 73.498349 -271.735291 
L 73.055689 -272.015705 
L 72.600975 -272.29612 
L 72.134466 -272.576534 
L 71.656898 -272.856949 
L 71.169631 -273.137363 
L 70.674799 -273.417778 
L 70.175422 -273.698192 
L 69.675489 -273.978607 
L 69.179986 -274.259021 
L 68.694863 -274.539436 
L 68.22694 -274.81985 
L 67.783734 -275.100265 
L 67.373236 -275.380679 
L 67.003621 -275.661094 
L 66.682923 -275.941509 
L 66.41868 -276.221923 
L 66.217576 -276.502338 
L 66.085087 -276.782752 
L 66.025176 -277.063167 
L 66.040021 -277.343581 
L 66.12983 -277.623996 
L 66.292733 -277.90441 
L 66.524764 -278.184825 
L 66.819951 -278.465239 
L 67.170506 -278.745654 
L 67.567101 -279.026068 
L 67.999248 -279.306483 
L 68.455732 -279.586897 
L 68.925101 -279.867312 
L 69.396191 -280.147726 
L 69.85863 -280.428141 
L 70.303333 -280.708555 
L 70.722919 -280.98897 
L 71.112057 -281.269385 
L 71.467687 -281.549799 
L 71.789129 -281.830214 
L 72.078043 -282.110628 
L 72.338256 -282.391043 
L 72.575462 -282.671457 
L 72.796803 -282.951872 
L 73.010371 -283.232286 
L 73.224653 -283.512701 
L 73.447964 -283.793115 
L 73.6879 -284.07353 
L 73.950854 -284.353944 
L 74.241626 -284.634359 
L 74.563146 -284.914773 
L 74.916334 -285.195188 
L 75.300098 -285.475602 
L 75.711459 -285.756017 
L 76.145797 -286.036432 
L 76.59718 -286.316846 
L 77.058767 -286.597261 
L 77.523226 -286.877675 
L 77.983161 -287.15809 
L 78.4315 -287.438504 
L 78.861828 -287.718919 
L 79.268653 -287.999333 
L 79.647582 -288.279748 
L 79.995416 -288.560162 
L 80.310165 -288.840577 
L 80.590996 -289.120991 
L 80.838117 -289.401406 
L 81.052627 -289.68182 
L 81.236342 -289.962235 
L 81.391606 -290.242649 
L 82.629644 -290.242649 
L 82.629644 -290.242649 
L 82.784908 -289.962235 
L 82.968623 -289.68182 
L 83.183133 -289.401406 
L 83.430254 -289.120991 
L 83.711085 -288.840577 
L 84.025834 -288.560162 
L 84.373668 -288.279748 
L 84.752597 -287.999333 
L 85.159422 -287.718919 
L 85.58975 -287.438504 
L 86.038089 -287.15809 
L 86.498024 -286.877675 
L 86.962483 -286.597261 
L 87.42407 -286.316846 
L 87.875453 -286.036432 
L 88.309791 -285.756017 
L 88.721152 -285.475602 
L 89.104916 -285.195188 
L 89.458104 -284.914773 
L 89.779624 -284.634359 
L 90.070396 -284.353944 
L 90.33335 -284.07353 
L 90.573286 -283.793115 
L 90.796597 -283.512701 
L 91.010879 -283.232286 
L 91.224447 -282.951872 
L 91.445788 -282.671457 
L 91.682994 -282.391043 
L 91.943207 -282.110628 
L 92.232121 -281.830214 
L 92.553563 -281.549799 
L 92.909193 -281.269385 
L 93.298331 -280.98897 
L 93.717917 -280.708555 
L 94.16262 -280.428141 
L 94.625059 -280.147726 
L 95.096149 -279.867312 
L 95.565518 -279.586897 
L 96.022002 -279.306483 
L 96.454149 -279.026068 
L 96.850744 -278.745654 
L 97.201299 -278.465239 
L 97.496486 -278.184825 
L 97.728517 -277.90441 
L 97.89142 -277.623996 
L 97.981229 -277.343581 
L 97.996074 -277.063167 
L 97.936163 -276.782752 
L 97.803674 -276.502338 
L 97.60257 -276.221923 
L 97.338327 -275.941509 
L 97.017629 -275.661094 
L 96.648014 -275.380679 
L 96.237516 -275.100265 
L 95.79431 -274.81985 
L 95.326387 -274.539436 
L 94.841264 -274.259021 
L 94.345761 -273.978607 
L 93.845828 -273.698192 
L 93.346451 -273.417778 
L 92.851619 -273.137363 
L 92.364352 -272.856949 
L 91.886784 -272.576534 
L 91.420275 -272.29612 
L 90.965561 -272.015705 
L 90.522901 -271.735291 
L 90.092225 -271.454876 
L 89.673273 -271.174462 
L 89.265696 -270.894047 
L 88.869143 -270.613633 
L 88.483312 -270.333218 
L 88.107975 -270.052803 
L 87.742988 -269.772389 
L 87.388274 -269.491974 
L 87.043811 -269.21156 
L 86.709612 -268.931145 
L 86.385711 -268.650731 
L 86.072156 -268.370316 
L 85.76901 -268.089902 
L 85.476362 -267.809487 
L 85.194337 -267.529073 
L 84.923114 -267.248658 
L 84.662938 -266.968244 
L 84.414121 -266.687829 
L 84.177044 -266.407415 
L 83.952137 -266.127 
L 83.739862 -265.846586 
L 83.540675 -265.566171 
L 83.354991 -265.285756 
L 83.18315 -265.005342 
L 83.025373 -264.724927 
L 82.881739 -264.444513 
L 82.75216 -264.164098 
L 82.636371 -263.883684 
L 82.533931 -263.603269 
L 82.44423 -263.322855 
L 82.366515 -263.04244 
L 82.299914 -262.762026 
L 82.243468 -262.481611 
z
" id="m43682875ac" style="stroke:#3d3d3d;stroke-width:1.5;"/>
    </defs>
    <g clip-path="url(#pa24f848fd4)">
     <use style="fill:#e1812c;stroke:#3d3d3d;stroke-width:1.5;" x="0" xlink:href="#m43682875ac" y="362.490772"/>
    </g>
   </g>
   <g id="PolyCollection_2">
    <defs>
     <path d="M 126.956833 -259.62626 
L 126.344417 -259.62626 
L 126.269945 -259.921264 
L 126.182155 -260.216269 
L 126.079907 -260.511273 
L 125.96225 -260.806278 
L 125.828484 -261.101282 
L 125.678223 -261.396286 
L 125.511436 -261.691291 
L 125.328484 -261.986295 
L 125.130125 -262.281299 
L 124.917501 -262.576304 
L 124.692099 -262.871308 
L 124.455681 -263.166312 
L 124.210199 -263.461317 
L 123.957685 -263.756321 
L 123.700146 -264.051325 
L 123.439449 -264.34633 
L 123.177224 -264.641334 
L 122.914793 -264.936338 
L 122.653128 -265.231343 
L 122.392845 -265.526347 
L 122.134241 -265.821352 
L 121.87737 -266.116356 
L 121.622141 -266.41136 
L 121.368445 -266.706365 
L 121.116275 -267.001369 
L 120.865845 -267.296373 
L 120.617668 -267.591378 
L 120.372605 -267.886382 
L 120.131844 -268.181386 
L 119.896839 -268.476391 
L 119.669179 -268.771395 
L 119.450414 -269.066399 
L 119.241845 -269.361404 
L 119.044303 -269.656408 
L 118.857933 -269.951412 
L 118.682008 -270.246417 
L 118.514802 -270.541421 
L 118.353529 -270.836426 
L 118.194371 -271.13143 
L 118.032592 -271.426434 
L 117.86275 -271.721439 
L 117.678977 -272.016443 
L 117.475328 -272.311447 
L 117.246173 -272.606452 
L 116.986604 -272.901456 
L 116.692829 -273.19646 
L 116.362532 -273.491465 
L 115.99517 -273.786469 
L 115.592185 -274.081473 
L 115.157121 -274.376478 
L 114.695628 -274.671482 
L 114.215353 -274.966486 
L 113.725722 -275.261491 
L 113.23762 -275.556495 
L 112.762982 -275.8515 
L 112.314317 -276.146504 
L 111.904196 -276.441508 
L 111.544718 -276.736513 
L 111.246995 -277.031517 
L 111.020679 -277.326521 
L 110.873565 -277.621526 
L 110.811278 -277.91653 
L 110.837084 -278.211534 
L 110.951811 -278.506539 
L 111.153897 -278.801543 
L 111.439562 -279.096547 
L 111.803065 -279.391552 
L 112.237062 -279.686556 
L 112.732999 -279.98156 
L 113.281543 -280.276565 
L 113.873003 -280.571569 
L 114.497715 -280.866574 
L 115.146382 -281.161578 
L 115.810333 -281.456582 
L 116.481712 -281.751587 
L 117.153581 -282.046591 
L 117.819949 -282.341595 
L 118.475742 -282.6366 
L 119.116721 -282.931604 
L 119.739375 -283.226608 
L 120.3408 -283.521613 
L 120.918581 -283.816617 
L 121.470694 -284.111621 
L 121.995424 -284.406626 
L 122.491322 -284.70163 
L 122.957181 -284.996634 
L 123.392038 -285.291639 
L 123.795195 -285.586643 
L 124.166244 -285.881648 
L 124.5051 -286.176652 
L 124.812023 -286.471656 
L 125.087627 -286.766661 
L 125.332883 -287.061665 
L 125.549091 -287.356669 
L 125.737853 -287.651674 
L 125.901016 -287.946678 
L 126.04062 -288.241682 
L 126.158831 -288.536687 
L 126.257872 -288.831691 
L 127.043378 -288.831691 
L 127.043378 -288.831691 
L 127.142419 -288.536687 
L 127.26063 -288.241682 
L 127.400234 -287.946678 
L 127.563397 -287.651674 
L 127.752159 -287.356669 
L 127.968367 -287.061665 
L 128.213623 -286.766661 
L 128.489227 -286.471656 
L 128.79615 -286.176652 
L 129.135006 -285.881648 
L 129.506055 -285.586643 
L 129.909212 -285.291639 
L 130.344069 -284.996634 
L 130.809928 -284.70163 
L 131.305826 -284.406626 
L 131.830556 -284.111621 
L 132.382669 -283.816617 
L 132.96045 -283.521613 
L 133.561875 -283.226608 
L 134.184529 -282.931604 
L 134.825508 -282.6366 
L 135.481301 -282.341595 
L 136.147669 -282.046591 
L 136.819538 -281.751587 
L 137.490917 -281.456582 
L 138.154868 -281.161578 
L 138.803535 -280.866574 
L 139.428247 -280.571569 
L 140.019707 -280.276565 
L 140.568251 -279.98156 
L 141.064188 -279.686556 
L 141.498185 -279.391552 
L 141.861688 -279.096547 
L 142.147353 -278.801543 
L 142.349439 -278.506539 
L 142.464166 -278.211534 
L 142.489972 -277.91653 
L 142.427685 -277.621526 
L 142.280571 -277.326521 
L 142.054255 -277.031517 
L 141.756532 -276.736513 
L 141.397054 -276.441508 
L 140.986933 -276.146504 
L 140.538268 -275.8515 
L 140.06363 -275.556495 
L 139.575528 -275.261491 
L 139.085897 -274.966486 
L 138.605622 -274.671482 
L 138.144129 -274.376478 
L 137.709065 -274.081473 
L 137.30608 -273.786469 
L 136.938718 -273.491465 
L 136.608421 -273.19646 
L 136.314646 -272.901456 
L 136.055077 -272.606452 
L 135.825922 -272.311447 
L 135.622273 -272.016443 
L 135.4385 -271.721439 
L 135.268658 -271.426434 
L 135.106879 -271.13143 
L 134.947721 -270.836426 
L 134.786448 -270.541421 
L 134.619242 -270.246417 
L 134.443317 -269.951412 
L 134.256947 -269.656408 
L 134.059405 -269.361404 
L 133.850836 -269.066399 
L 133.632071 -268.771395 
L 133.404411 -268.476391 
L 133.169406 -268.181386 
L 132.928645 -267.886382 
L 132.683582 -267.591378 
L 132.435405 -267.296373 
L 132.184975 -267.001369 
L 131.932805 -266.706365 
L 131.679109 -266.41136 
L 131.42388 -266.116356 
L 131.167009 -265.821352 
L 130.908405 -265.526347 
L 130.648122 -265.231343 
L 130.386457 -264.936338 
L 130.124026 -264.641334 
L 129.861801 -264.34633 
L 129.601104 -264.051325 
L 129.343565 -263.756321 
L 129.091051 -263.461317 
L 128.845569 -263.166312 
L 128.609151 -262.871308 
L 128.383749 -262.576304 
L 128.171125 -262.281299 
L 127.972766 -261.986295 
L 127.789814 -261.691291 
L 127.623027 -261.396286 
L 127.472766 -261.101282 
L 127.339 -260.806278 
L 127.221343 -260.511273 
L 127.119095 -260.216269 
L 127.031305 -259.921264 
L 126.956833 -259.62626 
z
" id="m1e804ace17" style="stroke:#3d3d3d;stroke-width:1.5;"/>
    </defs>
    <g clip-path="url(#pa24f848fd4)">
     <use style="fill:#d684bd;stroke:#3d3d3d;stroke-width:1.5;" x="0" xlink:href="#m1e804ace17" y="362.490772"/>
    </g>
   </g>
   <g id="PolyCollection_3">
    <defs>
     <path d="M 171.470791 -245.913236 
L 171.110459 -245.913236 
L 171.064581 -246.506487 
L 171.009519 -247.099738 
L 170.94411 -247.692988 
L 170.867214 -248.286239 
L 170.777754 -248.87949 
L 170.674774 -249.47274 
L 170.557491 -250.065991 
L 170.425356 -250.659242 
L 170.27811 -251.252492 
L 170.115842 -251.845743 
L 169.939027 -252.438994 
L 169.748563 -253.032244 
L 169.545784 -253.625495 
L 169.332459 -254.218746 
L 169.11076 -254.811996 
L 168.883216 -255.405247 
L 168.65264 -255.998498 
L 168.422031 -256.591748 
L 168.194462 -257.184999 
L 167.972955 -257.77825 
L 167.760346 -258.3715 
L 167.559155 -258.964751 
L 167.371464 -259.558002 
L 167.198807 -260.151252 
L 167.042093 -260.744503 
L 166.901556 -261.337754 
L 166.776734 -261.931004 
L 166.666497 -262.524255 
L 166.569103 -263.117506 
L 166.482297 -263.710756 
L 166.403433 -264.304007 
L 166.329626 -264.897258 
L 166.25792 -265.490508 
L 166.185458 -266.083759 
L 166.109653 -266.67701 
L 166.028348 -267.27026 
L 165.939949 -267.863511 
L 165.843533 -268.456762 
L 165.738924 -269.050012 
L 165.626723 -269.643263 
L 165.508304 -270.236513 
L 165.385763 -270.829764 
L 165.261836 -271.423015 
L 165.139774 -272.016265 
L 165.023193 -272.609516 
L 164.915907 -273.202767 
L 164.821736 -273.796017 
L 164.744323 -274.389268 
L 164.686946 -274.982519 
L 164.652352 -275.575769 
L 164.642611 -276.16902 
L 164.659005 -276.762271 
L 164.701954 -277.355521 
L 164.770988 -277.948772 
L 164.864762 -278.542023 
L 164.981121 -279.135273 
L 165.117209 -279.728524 
L 165.269611 -280.321775 
L 165.43453 -280.915025 
L 165.607985 -281.508276 
L 165.786014 -282.101527 
L 165.964878 -282.694777 
L 166.141246 -283.288028 
L 166.312355 -283.881279 
L 166.476134 -284.474529 
L 166.631278 -285.06778 
L 166.777283 -285.661031 
L 166.914422 -286.254281 
L 167.043677 -286.847532 
L 167.166632 -287.440783 
L 167.285327 -288.034033 
L 167.402089 -288.627284 
L 167.519358 -289.220535 
L 167.639504 -289.813785 
L 167.764664 -290.407036 
L 167.896597 -291.000287 
L 168.036577 -291.593537 
L 168.185313 -292.186788 
L 168.342921 -292.780039 
L 168.508924 -293.373289 
L 168.682297 -293.96654 
L 168.86154 -294.55979 
L 169.044779 -295.153041 
L 169.229873 -295.746292 
L 169.414542 -296.339542 
L 169.596486 -296.932793 
L 169.773492 -297.526044 
L 169.943536 -298.119294 
L 170.104857 -298.712545 
L 170.256015 -299.305796 
L 170.395923 -299.899046 
L 170.523857 -300.492297 
L 170.639449 -301.085548 
L 170.742661 -301.678798 
L 170.833748 -302.272049 
L 170.913211 -302.8653 
L 170.981746 -303.45855 
L 171.04019 -304.051801 
L 171.089473 -304.645052 
L 171.491777 -304.645052 
L 171.491777 -304.645052 
L 171.54106 -304.051801 
L 171.599504 -303.45855 
L 171.668039 -302.8653 
L 171.747502 -302.272049 
L 171.838589 -301.678798 
L 171.941801 -301.085548 
L 172.057393 -300.492297 
L 172.185327 -299.899046 
L 172.325235 -299.305796 
L 172.476393 -298.712545 
L 172.637714 -298.119294 
L 172.807758 -297.526044 
L 172.984764 -296.932793 
L 173.166708 -296.339542 
L 173.351377 -295.746292 
L 173.536471 -295.153041 
L 173.71971 -294.55979 
L 173.898953 -293.96654 
L 174.072326 -293.373289 
L 174.238329 -292.780039 
L 174.395937 -292.186788 
L 174.544673 -291.593537 
L 174.684653 -291.000287 
L 174.816586 -290.407036 
L 174.941746 -289.813785 
L 175.061892 -289.220535 
L 175.179161 -288.627284 
L 175.295923 -288.034033 
L 175.414618 -287.440783 
L 175.537573 -286.847532 
L 175.666828 -286.254281 
L 175.803967 -285.661031 
L 175.949972 -285.06778 
L 176.105116 -284.474529 
L 176.268895 -283.881279 
L 176.440004 -283.288028 
L 176.616372 -282.694777 
L 176.795236 -282.101527 
L 176.973265 -281.508276 
L 177.14672 -280.915025 
L 177.311639 -280.321775 
L 177.464041 -279.728524 
L 177.600129 -279.135273 
L 177.716488 -278.542023 
L 177.810262 -277.948772 
L 177.879296 -277.355521 
L 177.922245 -276.762271 
L 177.938639 -276.16902 
L 177.928898 -275.575769 
L 177.894304 -274.982519 
L 177.836927 -274.389268 
L 177.759514 -273.796017 
L 177.665343 -273.202767 
L 177.558057 -272.609516 
L 177.441476 -272.016265 
L 177.319414 -271.423015 
L 177.195487 -270.829764 
L 177.072946 -270.236513 
L 176.954527 -269.643263 
L 176.842326 -269.050012 
L 176.737717 -268.456762 
L 176.641301 -267.863511 
L 176.552902 -267.27026 
L 176.471597 -266.67701 
L 176.395792 -266.083759 
L 176.32333 -265.490508 
L 176.251624 -264.897258 
L 176.177817 -264.304007 
L 176.098953 -263.710756 
L 176.012147 -263.117506 
L 175.914753 -262.524255 
L 175.804516 -261.931004 
L 175.679694 -261.337754 
L 175.539157 -260.744503 
L 175.382443 -260.151252 
L 175.209786 -259.558002 
L 175.022095 -258.964751 
L 174.820904 -258.3715 
L 174.608295 -257.77825 
L 174.386788 -257.184999 
L 174.159219 -256.591748 
L 173.92861 -255.998498 
L 173.698034 -255.405247 
L 173.47049 -254.811996 
L 173.248791 -254.218746 
L 173.035466 -253.625495 
L 172.832687 -253.032244 
L 172.642223 -252.438994 
L 172.465408 -251.845743 
L 172.30314 -251.252492 
L 172.155894 -250.659242 
L 172.023759 -250.065991 
L 171.906476 -249.47274 
L 171.803496 -248.87949 
L 171.714036 -248.286239 
L 171.63714 -247.692988 
L 171.571731 -247.099738 
L 171.516669 -246.506487 
L 171.470791 -245.913236 
z
" id="maf2e42c519" style="stroke:#3d3d3d;stroke-width:1.5;"/>
    </defs>
    <g clip-path="url(#pa24f848fd4)">
     <use style="fill:#3274a1;stroke:#3d3d3d;stroke-width:1.5;" x="0" xlink:href="#maf2e42c519" y="362.490772"/>
    </g>
   </g>
   <g id="PolyCollection_4">
    <defs>
     <path d="M 215.961455 -108.049543 
L 215.899795 -108.049543 
L 215.892031 -110.187474 
L 215.882952 -112.325404 
L 215.872519 -114.463335 
L 215.860741 -116.601265 
L 215.847691 -118.739196 
L 215.833506 -120.877127 
L 215.818398 -123.015057 
L 215.802651 -125.152988 
L 215.786614 -127.290918 
L 215.770691 -129.428849 
L 215.755322 -131.566779 
L 215.74096 -133.70471 
L 215.728046 -135.842641 
L 215.716978 -137.980571 
L 215.708078 -140.118502 
L 215.701574 -142.256432 
L 215.697567 -144.394363 
L 215.696019 -146.532293 
L 215.696747 -148.670224 
L 215.699419 -150.808155 
L 215.703566 -152.946085 
L 215.708604 -155.084016 
L 215.713859 -157.221946 
L 215.718605 -159.359877 
L 215.722104 -161.497807 
L 215.723649 -163.635738 
L 215.722604 -165.773668 
L 215.718451 -167.911599 
L 215.710824 -170.04953 
L 215.699536 -172.18746 
L 215.684602 -174.325391 
L 215.666245 -176.463321 
L 215.644893 -178.601252 
L 215.621158 -180.739182 
L 215.595808 -182.877113 
L 215.569717 -185.015044 
L 215.543815 -187.152974 
L 215.519015 -189.290905 
L 215.496148 -191.428835 
L 215.47589 -193.566766 
L 215.458698 -195.704696 
L 215.444748 -197.842627 
L 215.433895 -199.980558 
L 215.425642 -202.118488 
L 215.419136 -204.256419 
L 215.413179 -206.394349 
L 215.406268 -208.53228 
L 215.396643 -210.67021 
L 215.382366 -212.808141 
L 215.361397 -214.946072 
L 215.331696 -217.084002 
L 215.291313 -219.221933 
L 215.238486 -221.359863 
L 215.171735 -223.497794 
L 215.089936 -225.635724 
L 214.992401 -227.773655 
L 214.878927 -229.911585 
L 214.74984 -232.049516 
L 214.60602 -234.187447 
L 214.448909 -236.325377 
L 214.280505 -238.463308 
L 214.10333 -240.601238 
L 213.920395 -242.739169 
L 213.735138 -244.877099 
L 213.551345 -247.01503 
L 213.373058 -249.152961 
L 213.204464 -251.290891 
L 213.049768 -253.428822 
L 212.913054 -255.566752 
L 212.798143 -257.704683 
L 212.708435 -259.842613 
L 212.646773 -261.980544 
L 212.615303 -264.118475 
L 212.615368 -266.256405 
L 212.647424 -268.394336 
L 212.710996 -270.532266 
L 212.804679 -272.670197 
L 212.926181 -274.808127 
L 213.072413 -276.946058 
L 213.23962 -279.083988 
L 213.423544 -281.221919 
L 213.619613 -283.35985 
L 213.82314 -285.49778 
L 214.029515 -287.635711 
L 214.234395 -289.773641 
L 214.433858 -291.911572 
L 214.624526 -294.049502 
L 214.80365 -296.187433 
L 214.969157 -298.325364 
L 215.119651 -300.463294 
L 215.254382 -302.601225 
L 215.373188 -304.739155 
L 215.476409 -306.877086 
L 215.564792 -309.015016 
L 215.639395 -311.152947 
L 215.701483 -313.290878 
L 215.75244 -315.428808 
L 215.793687 -317.566739 
L 215.826622 -319.704669 
L 216.034628 -319.704669 
L 216.034628 -319.704669 
L 216.067563 -317.566739 
L 216.10881 -315.428808 
L 216.159767 -313.290878 
L 216.221855 -311.152947 
L 216.296458 -309.015016 
L 216.384841 -306.877086 
L 216.488062 -304.739155 
L 216.606868 -302.601225 
L 216.741599 -300.463294 
L 216.892093 -298.325364 
L 217.0576 -296.187433 
L 217.236724 -294.049502 
L 217.427392 -291.911572 
L 217.626855 -289.773641 
L 217.831735 -287.635711 
L 218.03811 -285.49778 
L 218.241637 -283.35985 
L 218.437706 -281.221919 
L 218.62163 -279.083988 
L 218.788837 -276.946058 
L 218.935069 -274.808127 
L 219.056571 -272.670197 
L 219.150254 -270.532266 
L 219.213826 -268.394336 
L 219.245882 -266.256405 
L 219.245947 -264.118475 
L 219.214477 -261.980544 
L 219.152815 -259.842613 
L 219.063107 -257.704683 
L 218.948196 -255.566752 
L 218.811482 -253.428822 
L 218.656786 -251.290891 
L 218.488192 -249.152961 
L 218.309905 -247.01503 
L 218.126112 -244.877099 
L 217.940855 -242.739169 
L 217.75792 -240.601238 
L 217.580745 -238.463308 
L 217.412341 -236.325377 
L 217.25523 -234.187447 
L 217.11141 -232.049516 
L 216.982323 -229.911585 
L 216.868849 -227.773655 
L 216.771314 -225.635724 
L 216.689515 -223.497794 
L 216.622764 -221.359863 
L 216.569937 -219.221933 
L 216.529554 -217.084002 
L 216.499853 -214.946072 
L 216.478884 -212.808141 
L 216.464607 -210.67021 
L 216.454982 -208.53228 
L 216.448071 -206.394349 
L 216.442114 -204.256419 
L 216.435608 -202.118488 
L 216.427355 -199.980558 
L 216.416502 -197.842627 
L 216.402552 -195.704696 
L 216.38536 -193.566766 
L 216.365102 -191.428835 
L 216.342235 -189.290905 
L 216.317435 -187.152974 
L 216.291533 -185.015044 
L 216.265442 -182.877113 
L 216.240092 -180.739182 
L 216.216357 -178.601252 
L 216.195005 -176.463321 
L 216.176648 -174.325391 
L 216.161714 -172.18746 
L 216.150426 -170.04953 
L 216.142799 -167.911599 
L 216.138646 -165.773668 
L 216.137601 -163.635738 
L 216.139146 -161.497807 
L 216.142645 -159.359877 
L 216.147391 -157.221946 
L 216.152646 -155.084016 
L 216.157684 -152.946085 
L 216.161831 -150.808155 
L 216.164503 -148.670224 
L 216.165231 -146.532293 
L 216.163683 -144.394363 
L 216.159676 -142.256432 
L 216.153172 -140.118502 
L 216.144272 -137.980571 
L 216.133204 -135.842641 
L 216.12029 -133.70471 
L 216.105928 -131.566779 
L 216.090559 -129.428849 
L 216.074636 -127.290918 
L 216.058599 -125.152988 
L 216.042852 -123.015057 
L 216.027744 -120.877127 
L 216.013559 -118.739196 
L 216.000509 -116.601265 
L 215.988731 -114.463335 
L 215.978298 -112.325404 
L 215.969219 -110.187474 
L 215.961455 -108.049543 
z
" id="m8db2ccc656" style="stroke:#3d3d3d;stroke-width:1.5;"/>
    </defs>
    <g clip-path="url(#pa24f848fd4)">
     <use style="fill:#f2a5a3;stroke:#3d3d3d;stroke-width:1.5;" x="0" xlink:href="#m8db2ccc656" y="362.490772"/>
    </g>
   </g>
   <g id="PolyCollection_5">
    <defs>
     <path d="M 260.802082 -234.484786 
L 260.339168 -234.484786 
L 260.282903 -234.760625 
L 260.21712 -235.036465 
L 260.141304 -235.312305 
L 260.055171 -235.588145 
L 259.95872 -235.863984 
L 259.852259 -236.139824 
L 259.736425 -236.415664 
L 259.612166 -236.691504 
L 259.480712 -236.967343 
L 259.3435 -237.243183 
L 259.202087 -237.519023 
L 259.058035 -237.794863 
L 258.912775 -238.070702 
L 258.767479 -238.346542 
L 258.622928 -238.622382 
L 258.479409 -238.898221 
L 258.336629 -239.174061 
L 258.19369 -239.449901 
L 258.049092 -239.725741 
L 257.900804 -240.00158 
L 257.746374 -240.27742 
L 257.583085 -240.55326 
L 257.408142 -240.8291 
L 257.218879 -241.104939 
L 257.012966 -241.380779 
L 256.788598 -241.656619 
L 256.544653 -241.932459 
L 256.280802 -242.208298 
L 255.997563 -242.484138 
L 255.696286 -242.759978 
L 255.379076 -243.035818 
L 255.048644 -243.311657 
L 254.708118 -243.587497 
L 254.360789 -243.863337 
L 254.009852 -244.139176 
L 253.658121 -244.415016 
L 253.30777 -244.690856 
L 252.960096 -244.966696 
L 252.615346 -245.242535 
L 252.272613 -245.518375 
L 251.92982 -245.794215 
L 251.583813 -246.070055 
L 251.230541 -246.345894 
L 250.865355 -246.621734 
L 250.48338 -246.897574 
L 250.079966 -247.173414 
L 249.651171 -247.449253 
L 249.194246 -247.725093 
L 248.708094 -248.000933 
L 248.193634 -248.276772 
L 247.654064 -248.552612 
L 247.094968 -248.828452 
L 246.524254 -249.104292 
L 245.951915 -249.380131 
L 245.389626 -249.655971 
L 244.850185 -249.931811 
L 244.346861 -250.207651 
L 243.892677 -250.48349 
L 243.499698 -250.75933 
L 243.178379 -251.03517 
L 242.937025 -251.31101 
L 242.781419 -251.586849 
L 242.714625 -251.862689 
L 242.737 -252.138529 
L 242.846391 -252.414369 
L 243.038497 -252.690208 
L 243.307348 -252.966048 
L 243.645864 -253.241888 
L 244.046412 -253.517727 
L 244.501334 -253.793567 
L 245.003376 -254.069407 
L 245.545999 -254.345247 
L 246.123549 -254.621086 
L 246.731277 -254.896926 
L 247.365237 -255.172766 
L 248.022077 -255.448606 
L 248.698769 -255.724445 
L 249.392313 -256.000285 
L 250.099464 -256.276125 
L 250.816505 -256.551965 
L 251.539112 -256.827804 
L 252.262301 -257.103644 
L 252.980489 -257.379484 
L 253.687628 -257.655324 
L 254.377432 -257.931163 
L 255.043631 -258.207003 
L 255.680261 -258.482843 
L 256.281932 -258.758682 
L 256.844075 -259.034522 
L 257.363124 -259.310362 
L 257.836639 -259.586202 
L 258.263353 -259.862041 
L 258.643153 -260.137881 
L 258.976994 -260.413721 
L 259.266769 -260.689561 
L 259.515137 -260.9654 
L 259.725334 -261.24124 
L 259.900987 -261.51708 
L 260.045922 -261.79292 
L 261.095328 -261.79292 
L 261.095328 -261.79292 
L 261.240263 -261.51708 
L 261.415916 -261.24124 
L 261.626113 -260.9654 
L 261.874481 -260.689561 
L 262.164256 -260.413721 
L 262.498097 -260.137881 
L 262.877897 -259.862041 
L 263.304611 -259.586202 
L 263.778126 -259.310362 
L 264.297175 -259.034522 
L 264.859318 -258.758682 
L 265.460989 -258.482843 
L 266.097619 -258.207003 
L 266.763818 -257.931163 
L 267.453622 -257.655324 
L 268.160761 -257.379484 
L 268.878949 -257.103644 
L 269.602138 -256.827804 
L 270.324745 -256.551965 
L 271.041786 -256.276125 
L 271.748937 -256.000285 
L 272.442481 -255.724445 
L 273.119173 -255.448606 
L 273.776013 -255.172766 
L 274.409973 -254.896926 
L 275.017701 -254.621086 
L 275.595251 -254.345247 
L 276.137874 -254.069407 
L 276.639916 -253.793567 
L 277.094838 -253.517727 
L 277.495386 -253.241888 
L 277.833902 -252.966048 
L 278.102753 -252.690208 
L 278.294859 -252.414369 
L 278.40425 -252.138529 
L 278.426625 -251.862689 
L 278.359831 -251.586849 
L 278.204225 -251.31101 
L 277.962871 -251.03517 
L 277.641552 -250.75933 
L 277.248573 -250.48349 
L 276.794389 -250.207651 
L 276.291065 -249.931811 
L 275.751624 -249.655971 
L 275.189335 -249.380131 
L 274.616996 -249.104292 
L 274.046282 -248.828452 
L 273.487186 -248.552612 
L 272.947616 -248.276772 
L 272.433156 -248.000933 
L 271.947004 -247.725093 
L 271.490079 -247.449253 
L 271.061284 -247.173414 
L 270.65787 -246.897574 
L 270.275895 -246.621734 
L 269.910709 -246.345894 
L 269.557437 -246.070055 
L 269.21143 -245.794215 
L 268.868637 -245.518375 
L 268.525904 -245.242535 
L 268.181154 -244.966696 
L 267.83348 -244.690856 
L 267.483129 -244.415016 
L 267.131398 -244.139176 
L 266.780461 -243.863337 
L 266.433132 -243.587497 
L 266.092606 -243.311657 
L 265.762174 -243.035818 
L 265.444964 -242.759978 
L 265.143687 -242.484138 
L 264.860448 -242.208298 
L 264.596597 -241.932459 
L 264.352652 -241.656619 
L 264.128284 -241.380779 
L 263.922371 -241.104939 
L 263.733108 -240.8291 
L 263.558165 -240.55326 
L 263.394876 -240.27742 
L 263.240446 -240.00158 
L 263.092158 -239.725741 
L 262.94756 -239.449901 
L 262.804621 -239.174061 
L 262.661841 -238.898221 
L 262.518322 -238.622382 
L 262.373771 -238.346542 
L 262.228475 -238.070702 
L 262.083215 -237.794863 
L 261.939163 -237.519023 
L 261.79775 -237.243183 
L 261.660538 -236.967343 
L 261.529084 -236.691504 
L 261.404825 -236.415664 
L 261.288991 -236.139824 
L 261.18253 -235.863984 
L 261.086079 -235.588145 
L 260.999946 -235.312305 
L 260.92413 -235.036465 
L 260.858347 -234.760625 
L 260.802082 -234.484786 
z
" id="ma1af62cae8" style="stroke:#3d3d3d;stroke-width:1.5;"/>
    </defs>
    <g clip-path="url(#pa24f848fd4)">
     <use style="fill:#c4b5d0;stroke:#3d3d3d;stroke-width:1.5;" x="0" xlink:href="#ma1af62cae8" y="362.490772"/>
    </g>
   </g>
   <g id="PolyCollection_6">
    <defs>
     <path d="M 305.242426 -86.156647 
L 305.178824 -86.156647 
L 305.171275 -88.600283 
L 305.162337 -91.043919 
L 305.151853 -93.487556 
L 305.139677 -95.931192 
L 305.12567 -98.374828 
L 305.109715 -100.818465 
L 305.09172 -103.262101 
L 305.071628 -105.705738 
L 305.049422 -108.149374 
L 305.025134 -110.59301 
L 304.998852 -113.036647 
L 304.970724 -115.480283 
L 304.94096 -117.923919 
L 304.909839 -120.367556 
L 304.877702 -122.811192 
L 304.844953 -125.254828 
L 304.812054 -127.698465 
L 304.77951 -130.142101 
L 304.747863 -132.585738 
L 304.717677 -135.029374 
L 304.689521 -137.47301 
L 304.663947 -139.916647 
L 304.641477 -142.360283 
L 304.622579 -144.803919 
L 304.607651 -147.247556 
L 304.597 -149.691192 
L 304.590826 -152.134828 
L 304.589214 -154.578465 
L 304.592118 -157.022101 
L 304.599363 -159.465738 
L 304.610636 -161.909374 
L 304.625497 -164.35301 
L 304.643382 -166.796647 
L 304.663616 -169.240283 
L 304.685429 -171.683919 
L 304.707971 -174.127556 
L 304.730332 -176.571192 
L 304.751564 -179.014828 
L 304.7707 -181.458465 
L 304.786772 -183.902101 
L 304.798833 -186.345738 
L 304.805974 -188.789374 
L 304.807337 -191.23301 
L 304.802135 -193.676647 
L 304.789661 -196.120283 
L 304.769303 -198.563919 
L 304.740556 -201.007556 
L 304.703034 -203.451192 
L 304.656483 -205.894828 
L 304.600792 -208.338465 
L 304.536006 -210.782101 
L 304.46234 -213.225738 
L 304.380187 -215.669374 
L 304.29013 -218.11301 
L 304.192949 -220.556647 
L 304.089623 -223.000283 
L 303.981328 -225.443919 
L 303.869428 -227.887556 
L 303.755464 -230.331192 
L 303.641129 -232.774828 
L 303.528238 -235.218465 
L 303.418694 -237.662101 
L 303.314445 -240.105738 
L 303.217432 -242.549374 
L 303.129542 -244.99301 
L 303.05255 -247.436647 
L 302.988069 -249.880283 
L 302.937499 -252.323919 
L 302.901979 -254.767556 
L 302.882351 -257.211192 
L 302.879129 -259.654828 
L 302.892481 -262.098465 
L 302.922223 -264.542101 
L 302.967818 -266.985738 
L 303.028399 -269.429374 
L 303.102794 -271.87301 
L 303.189561 -274.316647 
L 303.287041 -276.760283 
L 303.393407 -279.203919 
L 303.506719 -281.647556 
L 303.624988 -284.091192 
L 303.746232 -286.534828 
L 303.868531 -288.978465 
L 303.990076 -291.422101 
L 304.109214 -293.865738 
L 304.224481 -296.309374 
L 304.334627 -298.75301 
L 304.438635 -301.196647 
L 304.535722 -303.640283 
L 304.62534 -306.083919 
L 304.707166 -308.527556 
L 304.781081 -310.971192 
L 304.847151 -313.414828 
L 304.905598 -315.858465 
L 304.956774 -318.302101 
L 305.00113 -320.745738 
L 305.03919 -323.189374 
L 305.071523 -325.63301 
L 305.098718 -328.076647 
L 305.322532 -328.076647 
L 305.322532 -328.076647 
L 305.349727 -325.63301 
L 305.38206 -323.189374 
L 305.42012 -320.745738 
L 305.464476 -318.302101 
L 305.515652 -315.858465 
L 305.574099 -313.414828 
L 305.640169 -310.971192 
L 305.714084 -308.527556 
L 305.79591 -306.083919 
L 305.885528 -303.640283 
L 305.982615 -301.196647 
L 306.086623 -298.75301 
L 306.196769 -296.309374 
L 306.312036 -293.865738 
L 306.431174 -291.422101 
L 306.552719 -288.978465 
L 306.675018 -286.534828 
L 306.796262 -284.091192 
L 306.914531 -281.647556 
L 307.027843 -279.203919 
L 307.134209 -276.760283 
L 307.231689 -274.316647 
L 307.318456 -271.87301 
L 307.392851 -269.429374 
L 307.453432 -266.985738 
L 307.499027 -264.542101 
L 307.528769 -262.098465 
L 307.542121 -259.654828 
L 307.538899 -257.211192 
L 307.519271 -254.767556 
L 307.483751 -252.323919 
L 307.433181 -249.880283 
L 307.3687 -247.436647 
L 307.291708 -244.99301 
L 307.203818 -242.549374 
L 307.106805 -240.105738 
L 307.002556 -237.662101 
L 306.893012 -235.218465 
L 306.780121 -232.774828 
L 306.665786 -230.331192 
L 306.551822 -227.887556 
L 306.439922 -225.443919 
L 306.331627 -223.000283 
L 306.228301 -220.556647 
L 306.13112 -218.11301 
L 306.041063 -215.669374 
L 305.95891 -213.225738 
L 305.885244 -210.782101 
L 305.820458 -208.338465 
L 305.764767 -205.894828 
L 305.718216 -203.451192 
L 305.680694 -201.007556 
L 305.651947 -198.563919 
L 305.631589 -196.120283 
L 305.619115 -193.676647 
L 305.613913 -191.23301 
L 305.615276 -188.789374 
L 305.622417 -186.345738 
L 305.634478 -183.902101 
L 305.65055 -181.458465 
L 305.669686 -179.014828 
L 305.690918 -176.571192 
L 305.713279 -174.127556 
L 305.735821 -171.683919 
L 305.757634 -169.240283 
L 305.777868 -166.796647 
L 305.795753 -164.35301 
L 305.810614 -161.909374 
L 305.821887 -159.465738 
L 305.829132 -157.022101 
L 305.832036 -154.578465 
L 305.830424 -152.134828 
L 305.82425 -149.691192 
L 305.813599 -147.247556 
L 305.798671 -144.803919 
L 305.779773 -142.360283 
L 305.757303 -139.916647 
L 305.731729 -137.47301 
L 305.703573 -135.029374 
L 305.673387 -132.585738 
L 305.64174 -130.142101 
L 305.609196 -127.698465 
L 305.576297 -125.254828 
L 305.543548 -122.811192 
L 305.511411 -120.367556 
L 305.48029 -117.923919 
L 305.450526 -115.480283 
L 305.422398 -113.036647 
L 305.396116 -110.59301 
L 305.371828 -108.149374 
L 305.349622 -105.705738 
L 305.32953 -103.262101 
L 305.311535 -100.818465 
L 305.29558 -98.374828 
L 305.281573 -95.931192 
L 305.269397 -93.487556 
L 305.258913 -91.043919 
L 305.249975 -88.600283 
L 305.242426 -86.156647 
z
" id="meadfa7b2e0" style="stroke:#3d3d3d;stroke-width:1.5;"/>
    </defs>
    <g clip-path="url(#pa24f848fd4)">
     <use style="fill:#3a923a;stroke:#3d3d3d;stroke-width:1.5;" x="0" xlink:href="#meadfa7b2e0" y="362.490772"/>
    </g>
   </g>
   <g id="PolyCollection_7">
    <defs>
     <path d="M 349.977322 -202.89095 
L 349.723928 -202.89095 
L 349.692669 -203.568364 
L 349.655563 -204.245777 
L 349.612012 -204.92319 
L 349.561477 -205.600604 
L 349.503511 -206.278017 
L 349.437797 -206.95543 
L 349.364174 -207.632844 
L 349.282677 -208.310257 
L 349.193557 -208.987671 
L 349.097302 -209.665084 
L 348.994644 -210.342497 
L 348.886556 -211.019911 
L 348.774229 -211.697324 
L 348.65904 -212.374737 
L 348.5425 -213.052151 
L 348.426193 -213.729564 
L 348.311703 -214.406977 
L 348.200527 -215.084391 
L 348.093994 -215.761804 
L 347.993183 -216.439217 
L 347.898848 -217.116631 
L 347.811359 -217.794044 
L 347.730662 -218.471457 
L 347.65626 -219.148871 
L 347.587221 -219.826284 
L 347.522217 -220.503697 
L 347.459576 -221.181111 
L 347.39737 -221.858524 
L 347.33351 -222.535937 
L 347.26586 -223.213351 
L 347.192349 -223.890764 
L 347.111081 -224.568177 
L 347.020439 -225.245591 
L 346.919165 -225.923004 
L 346.806426 -226.600417 
L 346.681855 -227.277831 
L 346.54556 -227.955244 
L 346.398119 -228.632657 
L 346.240545 -229.310071 
L 346.074239 -229.987484 
L 345.900927 -230.664897 
L 345.722587 -231.342311 
L 345.541375 -232.019724 
L 345.35955 -232.697137 
L 345.179398 -233.374551 
L 345.003172 -234.051964 
L 344.833023 -234.729377 
L 344.670953 -235.406791 
L 344.518762 -236.084204 
L 344.378018 -236.761617 
L 344.250021 -237.439031 
L 344.13578 -238.116444 
L 344.036006 -238.793857 
L 343.951107 -239.471271 
L 343.881199 -240.148684 
L 343.826128 -240.826097 
L 343.78551 -241.503511 
L 343.758779 -242.180924 
L 343.745245 -242.858337 
L 343.744164 -243.535751 
L 343.75481 -244.213164 
L 343.776546 -244.890577 
L 343.808885 -245.567991 
L 343.851548 -246.245404 
L 343.904494 -246.922817 
L 343.967938 -247.600231 
L 344.04234 -248.277644 
L 344.128369 -248.955057 
L 344.226855 -249.632471 
L 344.338705 -250.309884 
L 344.464818 -250.987297 
L 344.605985 -251.664711 
L 344.762794 -252.342124 
L 344.935531 -253.019537 
L 345.124108 -253.696951 
L 345.328005 -254.374364 
L 345.546233 -255.051777 
L 345.777331 -255.729191 
L 346.019389 -256.406604 
L 346.270101 -257.084017 
L 346.526834 -257.761431 
L 346.786725 -258.438844 
L 347.046786 -259.116257 
L 347.304015 -259.793671 
L 347.555509 -260.471084 
L 347.798565 -261.148497 
L 348.030768 -261.825911 
L 348.250067 -262.503324 
L 348.454819 -263.180737 
L 348.643821 -263.858151 
L 348.816317 -264.535564 
L 348.971979 -265.212977 
L 349.11088 -265.890391 
L 349.233445 -266.567804 
L 349.340396 -267.245217 
L 349.432693 -267.922631 
L 349.511467 -268.600044 
L 349.577963 -269.277457 
L 349.633482 -269.954871 
L 350.067768 -269.954871 
L 350.067768 -269.954871 
L 350.123287 -269.277457 
L 350.189783 -268.600044 
L 350.268557 -267.922631 
L 350.360854 -267.245217 
L 350.467805 -266.567804 
L 350.59037 -265.890391 
L 350.729271 -265.212977 
L 350.884933 -264.535564 
L 351.057429 -263.858151 
L 351.246431 -263.180737 
L 351.451183 -262.503324 
L 351.670482 -261.825911 
L 351.902685 -261.148497 
L 352.145741 -260.471084 
L 352.397235 -259.793671 
L 352.654464 -259.116257 
L 352.914525 -258.438844 
L 353.174416 -257.761431 
L 353.431149 -257.084017 
L 353.681861 -256.406604 
L 353.923919 -255.729191 
L 354.155017 -255.051777 
L 354.373245 -254.374364 
L 354.577142 -253.696951 
L 354.765719 -253.019537 
L 354.938456 -252.342124 
L 355.095265 -251.664711 
L 355.236432 -250.987297 
L 355.362545 -250.309884 
L 355.474395 -249.632471 
L 355.572881 -248.955057 
L 355.65891 -248.277644 
L 355.733312 -247.600231 
L 355.796756 -246.922817 
L 355.849702 -246.245404 
L 355.892365 -245.567991 
L 355.924704 -244.890577 
L 355.94644 -244.213164 
L 355.957086 -243.535751 
L 355.956005 -242.858337 
L 355.942471 -242.180924 
L 355.91574 -241.503511 
L 355.875122 -240.826097 
L 355.820051 -240.148684 
L 355.750143 -239.471271 
L 355.665244 -238.793857 
L 355.56547 -238.116444 
L 355.451229 -237.439031 
L 355.323232 -236.761617 
L 355.182488 -236.084204 
L 355.030297 -235.406791 
L 354.868227 -234.729377 
L 354.698078 -234.051964 
L 354.521852 -233.374551 
L 354.3417 -232.697137 
L 354.159875 -232.019724 
L 353.978663 -231.342311 
L 353.800323 -230.664897 
L 353.627011 -229.987484 
L 353.460705 -229.310071 
L 353.303131 -228.632657 
L 353.15569 -227.955244 
L 353.019395 -227.277831 
L 352.894824 -226.600417 
L 352.782085 -225.923004 
L 352.680811 -225.245591 
L 352.590169 -224.568177 
L 352.508901 -223.890764 
L 352.43539 -223.213351 
L 352.36774 -222.535937 
L 352.30388 -221.858524 
L 352.241674 -221.181111 
L 352.179033 -220.503697 
L 352.114029 -219.826284 
L 352.04499 -219.148871 
L 351.970588 -218.471457 
L 351.889891 -217.794044 
L 351.802402 -217.116631 
L 351.708067 -216.439217 
L 351.607256 -215.761804 
L 351.500723 -215.084391 
L 351.389547 -214.406977 
L 351.275057 -213.729564 
L 351.15875 -213.052151 
L 351.04221 -212.374737 
L 350.927021 -211.697324 
L 350.814694 -211.019911 
L 350.706606 -210.342497 
L 350.603948 -209.665084 
L 350.507693 -208.987671 
L 350.418573 -208.310257 
L 350.337076 -207.632844 
L 350.263453 -206.95543 
L 350.197739 -206.278017 
L 350.139773 -205.600604 
L 350.089238 -204.92319 
L 350.045687 -204.245777 
L 350.008581 -203.568364 
L 349.977322 -202.89095 
z
" id="mb9ee5a07e3" style="stroke:#3d3d3d;stroke-width:1.5;"/>
    </defs>
    <g clip-path="url(#pa24f848fd4)">
     <use style="fill:#d1d197;stroke:#3d3d3d;stroke-width:1.5;" x="0" xlink:href="#mb9ee5a07e3" y="362.490772"/>
    </g>
   </g>
   <g id="PolyCollection_8">
    <defs>
     <path d="M 395.798199 -92.635501 
L 393.183051 -92.635501 
L 393.026617 -92.885705 
L 392.856594 -93.135908 
L 392.672515 -93.386112 
L 392.473989 -93.636316 
L 392.260716 -93.886519 
L 392.0325 -94.136723 
L 391.789259 -94.386927 
L 391.531036 -94.63713 
L 391.258005 -94.887334 
L 390.970483 -95.137537 
L 390.668932 -95.387741 
L 390.353967 -95.637945 
L 390.026349 -95.888148 
L 389.686993 -96.138352 
L 389.336958 -96.388556 
L 388.977439 -96.638759 
L 388.609764 -96.888963 
L 388.235375 -97.139166 
L 387.855816 -97.38937 
L 387.472716 -97.639574 
L 387.087767 -97.889777 
L 386.702708 -98.139981 
L 386.319298 -98.390185 
L 385.939295 -98.640388 
L 385.564432 -98.890592 
L 385.196395 -99.140795 
L 384.8368 -99.390999 
L 384.487172 -99.641203 
L 384.148928 -99.891406 
L 383.823358 -100.14161 
L 383.511613 -100.391814 
L 383.214697 -100.642017 
L 382.933456 -100.892221 
L 382.66858 -101.142424 
L 382.420598 -101.392628 
L 382.189891 -101.642832 
L 381.976691 -101.893035 
L 381.781102 -102.143239 
L 381.603108 -102.393442 
L 381.442592 -102.643646 
L 381.299358 -102.89385 
L 381.173147 -103.144053 
L 381.063662 -103.394257 
L 380.970584 -103.644461 
L 380.893601 -103.894664 
L 380.832416 -104.144868 
L 380.786772 -104.395071 
L 380.756463 -104.645275 
L 380.741346 -104.895479 
L 380.741346 -105.145682 
L 380.756463 -105.395886 
L 380.786772 -105.64609 
L 380.832416 -105.896293 
L 380.893601 -106.146497 
L 380.970584 -106.3967 
L 381.063662 -106.646904 
L 381.173147 -106.897108 
L 381.299358 -107.147311 
L 381.442592 -107.397515 
L 381.603108 -107.647719 
L 381.781102 -107.897922 
L 381.976691 -108.148126 
L 382.189891 -108.398329 
L 382.420598 -108.648533 
L 382.66858 -108.898737 
L 382.933456 -109.14894 
L 383.214697 -109.399144 
L 383.511613 -109.649347 
L 383.823358 -109.899551 
L 384.148928 -110.149755 
L 384.487172 -110.399958 
L 384.8368 -110.650162 
L 385.196395 -110.900366 
L 385.564432 -111.150569 
L 385.939295 -111.400773 
L 386.319298 -111.650976 
L 386.702708 -111.90118 
L 387.087767 -112.151384 
L 387.472716 -112.401587 
L 387.855816 -112.651791 
L 388.235375 -112.901995 
L 388.609764 -113.152198 
L 388.977439 -113.402402 
L 389.336958 -113.652605 
L 389.686993 -113.902809 
L 390.026349 -114.153013 
L 390.353967 -114.403216 
L 390.668932 -114.65342 
L 390.970483 -114.903624 
L 391.258005 -115.153827 
L 391.531036 -115.404031 
L 391.789259 -115.654234 
L 392.0325 -115.904438 
L 392.260716 -116.154642 
L 392.473989 -116.404845 
L 392.672515 -116.655049 
L 392.856594 -116.905253 
L 393.026617 -117.155456 
L 393.183051 -117.40566 
L 395.798199 -117.40566 
L 395.798199 -117.40566 
L 395.954633 -117.155456 
L 396.124656 -116.905253 
L 396.308735 -116.655049 
L 396.507261 -116.404845 
L 396.720534 -116.154642 
L 396.94875 -115.904438 
L 397.191991 -115.654234 
L 397.450214 -115.404031 
L 397.723245 -115.153827 
L 398.010767 -114.903624 
L 398.312318 -114.65342 
L 398.627283 -114.403216 
L 398.954901 -114.153013 
L 399.294257 -113.902809 
L 399.644292 -113.652605 
L 400.003811 -113.402402 
L 400.371486 -113.152198 
L 400.745875 -112.901995 
L 401.125434 -112.651791 
L 401.508534 -112.401587 
L 401.893483 -112.151384 
L 402.278542 -111.90118 
L 402.661952 -111.650976 
L 403.041955 -111.400773 
L 403.416818 -111.150569 
L 403.784855 -110.900366 
L 404.14445 -110.650162 
L 404.494078 -110.399958 
L 404.832322 -110.149755 
L 405.157892 -109.899551 
L 405.469637 -109.649347 
L 405.766553 -109.399144 
L 406.047794 -109.14894 
L 406.31267 -108.898737 
L 406.560652 -108.648533 
L 406.791359 -108.398329 
L 407.004559 -108.148126 
L 407.200148 -107.897922 
L 407.378142 -107.647719 
L 407.538658 -107.397515 
L 407.681892 -107.147311 
L 407.808103 -106.897108 
L 407.917588 -106.646904 
L 408.010666 -106.3967 
L 408.087649 -106.146497 
L 408.148834 -105.896293 
L 408.194478 -105.64609 
L 408.224787 -105.395886 
L 408.239904 -105.145682 
L 408.239904 -104.895479 
L 408.224787 -104.645275 
L 408.194478 -104.395071 
L 408.148834 -104.144868 
L 408.087649 -103.894664 
L 408.010666 -103.644461 
L 407.917588 -103.394257 
L 407.808103 -103.144053 
L 407.681892 -102.89385 
L 407.538658 -102.643646 
L 407.378142 -102.393442 
L 407.200148 -102.143239 
L 407.004559 -101.893035 
L 406.791359 -101.642832 
L 406.560652 -101.392628 
L 406.31267 -101.142424 
L 406.047794 -100.892221 
L 405.766553 -100.642017 
L 405.469637 -100.391814 
L 405.157892 -100.14161 
L 404.832322 -99.891406 
L 404.494078 -99.641203 
L 404.14445 -99.390999 
L 403.784855 -99.140795 
L 403.416818 -98.890592 
L 403.041955 -98.640388 
L 402.661952 -98.390185 
L 402.278542 -98.139981 
L 401.893483 -97.889777 
L 401.508534 -97.639574 
L 401.125434 -97.38937 
L 400.745875 -97.139166 
L 400.371486 -96.888963 
L 400.003811 -96.638759 
L 399.644292 -96.388556 
L 399.294257 -96.138352 
L 398.954901 -95.888148 
L 398.627283 -95.637945 
L 398.312318 -95.387741 
L 398.010767 -95.137537 
L 397.723245 -94.887334 
L 397.450214 -94.63713 
L 397.191991 -94.386927 
L 396.94875 -94.136723 
L 396.720534 -93.886519 
L 396.507261 -93.636316 
L 396.308735 -93.386112 
L 396.124656 -93.135908 
L 395.954633 -92.885705 
L 395.798199 -92.635501 
z
" id="mb7b25dbd8c" style="stroke:#3d3d3d;stroke-width:1.5;"/>
    </defs>
    <g clip-path="url(#pa24f848fd4)">
     <use style="fill:#9fd495;stroke:#3d3d3d;stroke-width:1.5;" x="0" xlink:href="#mb7b25dbd8c" y="362.490772"/>
    </g>
   </g>
   <g id="matplotlib.axis_1">
    <g id="xtick_1">
     <g id="line2d_1">
      <defs>
       <path d="M 0 0 
L 0 3.5 
" id="md7040889e0" style="stroke:#000000;stroke-width:0.8;"/>
      </defs>
      <g>
       <use style="stroke:#000000;stroke-width:0.8;" x="82.010625" xlink:href="#md7040889e0" y="288.430125"/>
      </g>
     </g>
     <g id="text_1">
      <!-- entropic -->
      <g transform="translate(45.428557 322.530877)rotate(-30)scale(0.1 -0.1)">
       <defs>
        <path d="M 56.203125 29.59375 
L 56.203125 25.203125 
L 14.890625 25.203125 
Q 15.484375 15.921875 20.484375 11.0625 
Q 25.484375 6.203125 34.421875 6.203125 
Q 39.59375 6.203125 44.453125 7.46875 
Q 49.3125 8.734375 54.109375 11.28125 
L 54.109375 2.78125 
Q 49.265625 0.734375 44.1875 -0.34375 
Q 39.109375 -1.421875 33.890625 -1.421875 
Q 20.796875 -1.421875 13.15625 6.1875 
Q 5.515625 13.8125 5.515625 26.8125 
Q 5.515625 40.234375 12.765625 48.109375 
Q 20.015625 56 32.328125 56 
Q 43.359375 56 49.78125 48.890625 
Q 56.203125 41.796875 56.203125 29.59375 
z
M 47.21875 32.234375 
Q 47.125 39.59375 43.09375 43.984375 
Q 39.0625 48.390625 32.421875 48.390625 
Q 24.90625 48.390625 20.390625 44.140625 
Q 15.875 39.890625 15.1875 32.171875 
z
" id="DejaVuSans-101"/>
        <path d="M 54.890625 33.015625 
L 54.890625 0 
L 45.90625 0 
L 45.90625 32.71875 
Q 45.90625 40.484375 42.875 44.328125 
Q 39.84375 48.1875 33.796875 48.1875 
Q 26.515625 48.1875 22.3125 43.546875 
Q 18.109375 38.921875 18.109375 30.90625 
L 18.109375 0 
L 9.078125 0 
L 9.078125 54.6875 
L 18.109375 54.6875 
L 18.109375 46.1875 
Q 21.34375 51.125 25.703125 53.5625 
Q 30.078125 56 35.796875 56 
Q 45.21875 56 50.046875 50.171875 
Q 54.890625 44.34375 54.890625 33.015625 
z
" id="DejaVuSans-110"/>
        <path d="M 18.3125 70.21875 
L 18.3125 54.6875 
L 36.8125 54.6875 
L 36.8125 47.703125 
L 18.3125 47.703125 
L 18.3125 18.015625 
Q 18.3125 11.328125 20.140625 9.421875 
Q 21.96875 7.515625 27.59375 7.515625 
L 36.8125 7.515625 
L 36.8125 0 
L 27.59375 0 
Q 17.1875 0 13.234375 3.875 
Q 9.28125 7.765625 9.28125 18.015625 
L 9.28125 47.703125 
L 2.6875 47.703125 
L 2.6875 54.6875 
L 9.28125 54.6875 
L 9.28125 70.21875 
z
" id="DejaVuSans-116"/>
        <path d="M 41.109375 46.296875 
Q 39.59375 47.171875 37.8125 47.578125 
Q 36.03125 48 33.890625 48 
Q 26.265625 48 22.1875 43.046875 
Q 18.109375 38.09375 18.109375 28.8125 
L 18.109375 0 
L 9.078125 0 
L 9.078125 54.6875 
L 18.109375 54.6875 
L 18.109375 46.1875 
Q 20.953125 51.171875 25.484375 53.578125 
Q 30.03125 56 36.53125 56 
Q 37.453125 56 38.578125 55.875 
Q 39.703125 55.765625 41.0625 55.515625 
z
" id="DejaVuSans-114"/>
        <path d="M 30.609375 48.390625 
Q 23.390625 48.390625 19.1875 42.75 
Q 14.984375 37.109375 14.984375 27.296875 
Q 14.984375 17.484375 19.15625 11.84375 
Q 23.34375 6.203125 30.609375 6.203125 
Q 37.796875 6.203125 41.984375 11.859375 
Q 46.1875 17.53125 46.1875 27.296875 
Q 46.1875 37.015625 41.984375 42.703125 
Q 37.796875 48.390625 30.609375 48.390625 
z
M 30.609375 56 
Q 42.328125 56 49.015625 48.375 
Q 55.71875 40.765625 55.71875 27.296875 
Q 55.71875 13.875 49.015625 6.21875 
Q 42.328125 -1.421875 30.609375 -1.421875 
Q 18.84375 -1.421875 12.171875 6.21875 
Q 5.515625 13.875 5.515625 27.296875 
Q 5.515625 40.765625 12.171875 48.375 
Q 18.84375 56 30.609375 56 
z
" id="DejaVuSans-111"/>
        <path d="M 18.109375 8.203125 
L 18.109375 -20.796875 
L 9.078125 -20.796875 
L 9.078125 54.6875 
L 18.109375 54.6875 
L 18.109375 46.390625 
Q 20.953125 51.265625 25.265625 53.625 
Q 29.59375 56 35.59375 56 
Q 45.5625 56 51.78125 48.09375 
Q 58.015625 40.1875 58.015625 27.296875 
Q 58.015625 14.40625 51.78125 6.484375 
Q 45.5625 -1.421875 35.59375 -1.421875 
Q 29.59375 -1.421875 25.265625 0.953125 
Q 20.953125 3.328125 18.109375 8.203125 
z
M 48.6875 27.296875 
Q 48.6875 37.203125 44.609375 42.84375 
Q 40.53125 48.484375 33.40625 48.484375 
Q 26.265625 48.484375 22.1875 42.84375 
Q 18.109375 37.203125 18.109375 27.296875 
Q 18.109375 17.390625 22.1875 11.75 
Q 26.265625 6.109375 33.40625 6.109375 
Q 40.53125 6.109375 44.609375 11.75 
Q 48.6875 17.390625 48.6875 27.296875 
z
" id="DejaVuSans-112"/>
        <path d="M 9.421875 54.6875 
L 18.40625 54.6875 
L 18.40625 0 
L 9.421875 0 
z
M 9.421875 75.984375 
L 18.40625 75.984375 
L 18.40625 64.59375 
L 9.421875 64.59375 
z
" id="DejaVuSans-105"/>
        <path d="M 48.78125 52.59375 
L 48.78125 44.1875 
Q 44.96875 46.296875 41.140625 47.34375 
Q 37.3125 48.390625 33.40625 48.390625 
Q 24.65625 48.390625 19.8125 42.84375 
Q 14.984375 37.3125 14.984375 27.296875 
Q 14.984375 17.28125 19.8125 11.734375 
Q 24.65625 6.203125 33.40625 6.203125 
Q 37.3125 6.203125 41.140625 7.25 
Q 44.96875 8.296875 48.78125 10.40625 
L 48.78125 2.09375 
Q 45.015625 0.34375 40.984375 -0.53125 
Q 36.96875 -1.421875 32.421875 -1.421875 
Q 20.0625 -1.421875 12.78125 6.34375 
Q 5.515625 14.109375 5.515625 27.296875 
Q 5.515625 40.671875 12.859375 48.328125 
Q 20.21875 56 33.015625 56 
Q 37.15625 56 41.109375 55.140625 
Q 45.0625 54.296875 48.78125 52.59375 
z
" id="DejaVuSans-99"/>
       </defs>
       <use xlink:href="#DejaVuSans-101"/>
       <use x="61.523438" xlink:href="#DejaVuSans-110"/>
       <use x="124.902344" xlink:href="#DejaVuSans-116"/>
       <use x="164.111328" xlink:href="#DejaVuSans-114"/>
       <use x="202.974609" xlink:href="#DejaVuSans-111"/>
       <use x="264.15625" xlink:href="#DejaVuSans-112"/>
       <use x="327.632812" xlink:href="#DejaVuSans-105"/>
       <use x="355.416016" xlink:href="#DejaVuSans-99"/>
      </g>
     </g>
    </g>
    <g id="xtick_2">
     <g id="line2d_2">
      <g>
       <use style="stroke:#000000;stroke-width:0.8;" x="126.650625" xlink:href="#md7040889e0" y="288.430125"/>
      </g>
     </g>
     <g id="text_2">
      <!-- honggfuzz -->
      <g transform="translate(80.711424 327.933221)rotate(-30)scale(0.1 -0.1)">
       <defs>
        <path d="M 54.890625 33.015625 
L 54.890625 0 
L 45.90625 0 
L 45.90625 32.71875 
Q 45.90625 40.484375 42.875 44.328125 
Q 39.84375 48.1875 33.796875 48.1875 
Q 26.515625 48.1875 22.3125 43.546875 
Q 18.109375 38.921875 18.109375 30.90625 
L 18.109375 0 
L 9.078125 0 
L 9.078125 75.984375 
L 18.109375 75.984375 
L 18.109375 46.1875 
Q 21.34375 51.125 25.703125 53.5625 
Q 30.078125 56 35.796875 56 
Q 45.21875 56 50.046875 50.171875 
Q 54.890625 44.34375 54.890625 33.015625 
z
" id="DejaVuSans-104"/>
        <path d="M 45.40625 27.984375 
Q 45.40625 37.75 41.375 43.109375 
Q 37.359375 48.484375 30.078125 48.484375 
Q 22.859375 48.484375 18.828125 43.109375 
Q 14.796875 37.75 14.796875 27.984375 
Q 14.796875 18.265625 18.828125 12.890625 
Q 22.859375 7.515625 30.078125 7.515625 
Q 37.359375 7.515625 41.375 12.890625 
Q 45.40625 18.265625 45.40625 27.984375 
z
M 54.390625 6.78125 
Q 54.390625 -7.171875 48.1875 -13.984375 
Q 42 -20.796875 29.203125 -20.796875 
Q 24.46875 -20.796875 20.265625 -20.09375 
Q 16.0625 -19.390625 12.109375 -17.921875 
L 12.109375 -9.1875 
Q 16.0625 -11.328125 19.921875 -12.34375 
Q 23.78125 -13.375 27.78125 -13.375 
Q 36.625 -13.375 41.015625 -8.765625 
Q 45.40625 -4.15625 45.40625 5.171875 
L 45.40625 9.625 
Q 42.625 4.78125 38.28125 2.390625 
Q 33.9375 0 27.875 0 
Q 17.828125 0 11.671875 7.65625 
Q 5.515625 15.328125 5.515625 27.984375 
Q 5.515625 40.671875 11.671875 48.328125 
Q 17.828125 56 27.875 56 
Q 33.9375 56 38.28125 53.609375 
Q 42.625 51.21875 45.40625 46.390625 
L 45.40625 54.6875 
L 54.390625 54.6875 
z
" id="DejaVuSans-103"/>
        <path d="M 37.109375 75.984375 
L 37.109375 68.5 
L 28.515625 68.5 
Q 23.6875 68.5 21.796875 66.546875 
Q 19.921875 64.59375 19.921875 59.515625 
L 19.921875 54.6875 
L 34.71875 54.6875 
L 34.71875 47.703125 
L 19.921875 47.703125 
L 19.921875 0 
L 10.890625 0 
L 10.890625 47.703125 
L 2.296875 47.703125 
L 2.296875 54.6875 
L 10.890625 54.6875 
L 10.890625 58.5 
Q 10.890625 67.625 15.140625 71.796875 
Q 19.390625 75.984375 28.609375 75.984375 
z
" id="DejaVuSans-102"/>
        <path d="M 8.5 21.578125 
L 8.5 54.6875 
L 17.484375 54.6875 
L 17.484375 21.921875 
Q 17.484375 14.15625 20.5 10.265625 
Q 23.53125 6.390625 29.59375 6.390625 
Q 36.859375 6.390625 41.078125 11.03125 
Q 45.3125 15.671875 45.3125 23.6875 
L 45.3125 54.6875 
L 54.296875 54.6875 
L 54.296875 0 
L 45.3125 0 
L 45.3125 8.40625 
Q 42.046875 3.421875 37.71875 1 
Q 33.40625 -1.421875 27.6875 -1.421875 
Q 18.265625 -1.421875 13.375 4.4375 
Q 8.5 10.296875 8.5 21.578125 
z
M 31.109375 56 
z
" id="DejaVuSans-117"/>
        <path d="M 5.515625 54.6875 
L 48.1875 54.6875 
L 48.1875 46.484375 
L 14.40625 7.171875 
L 48.1875 7.171875 
L 48.1875 0 
L 4.296875 0 
L 4.296875 8.203125 
L 38.09375 47.515625 
L 5.515625 47.515625 
z
" id="DejaVuSans-122"/>
       </defs>
       <use xlink:href="#DejaVuSans-104"/>
       <use x="63.378906" xlink:href="#DejaVuSans-111"/>
       <use x="124.560547" xlink:href="#DejaVuSans-110"/>
       <use x="187.939453" xlink:href="#DejaVuSans-103"/>
       <use x="251.416016" xlink:href="#DejaVuSans-103"/>
       <use x="314.892578" xlink:href="#DejaVuSans-102"/>
       <use x="350.097656" xlink:href="#DejaVuSans-117"/>
       <use x="413.476562" xlink:href="#DejaVuSans-122"/>
       <use x="465.966797" xlink:href="#DejaVuSans-122"/>
      </g>
     </g>
    </g>
    <g id="xtick_3">
     <g id="line2d_3">
      <g>
       <use style="stroke:#000000;stroke-width:0.8;" x="171.290625" xlink:href="#md7040889e0" y="288.430125"/>
      </g>
     </g>
     <g id="text_3">
      <!-- aflplusplus -->
      <g transform="translate(123.681618 328.897284)rotate(-30)scale(0.1 -0.1)">
       <defs>
        <path d="M 34.28125 27.484375 
Q 23.390625 27.484375 19.1875 25 
Q 14.984375 22.515625 14.984375 16.5 
Q 14.984375 11.71875 18.140625 8.90625 
Q 21.296875 6.109375 26.703125 6.109375 
Q 34.1875 6.109375 38.703125 11.40625 
Q 43.21875 16.703125 43.21875 25.484375 
L 43.21875 27.484375 
z
M 52.203125 31.203125 
L 52.203125 0 
L 43.21875 0 
L 43.21875 8.296875 
Q 40.140625 3.328125 35.546875 0.953125 
Q 30.953125 -1.421875 24.3125 -1.421875 
Q 15.921875 -1.421875 10.953125 3.296875 
Q 6 8.015625 6 15.921875 
Q 6 25.140625 12.171875 29.828125 
Q 18.359375 34.515625 30.609375 34.515625 
L 43.21875 34.515625 
L 43.21875 35.40625 
Q 43.21875 41.609375 39.140625 45 
Q 35.0625 48.390625 27.6875 48.390625 
Q 23 48.390625 18.546875 47.265625 
Q 14.109375 46.140625 10.015625 43.890625 
L 10.015625 52.203125 
Q 14.9375 54.109375 19.578125 55.046875 
Q 24.21875 56 28.609375 56 
Q 40.484375 56 46.34375 49.84375 
Q 52.203125 43.703125 52.203125 31.203125 
z
" id="DejaVuSans-97"/>
        <path d="M 9.421875 75.984375 
L 18.40625 75.984375 
L 18.40625 0 
L 9.421875 0 
z
" id="DejaVuSans-108"/>
        <path d="M 44.28125 53.078125 
L 44.28125 44.578125 
Q 40.484375 46.53125 36.375 47.5 
Q 32.28125 48.484375 27.875 48.484375 
Q 21.1875 48.484375 17.84375 46.4375 
Q 14.5 44.390625 14.5 40.28125 
Q 14.5 37.15625 16.890625 35.375 
Q 19.28125 33.59375 26.515625 31.984375 
L 29.59375 31.296875 
Q 39.15625 29.25 43.1875 25.515625 
Q 47.21875 21.78125 47.21875 15.09375 
Q 47.21875 7.46875 41.1875 3.015625 
Q 35.15625 -1.421875 24.609375 -1.421875 
Q 20.21875 -1.421875 15.453125 -0.5625 
Q 10.6875 0.296875 5.421875 2 
L 5.421875 11.28125 
Q 10.40625 8.6875 15.234375 7.390625 
Q 20.0625 6.109375 24.8125 6.109375 
Q 31.15625 6.109375 34.5625 8.28125 
Q 37.984375 10.453125 37.984375 14.40625 
Q 37.984375 18.0625 35.515625 20.015625 
Q 33.0625 21.96875 24.703125 23.78125 
L 21.578125 24.515625 
Q 13.234375 26.265625 9.515625 29.90625 
Q 5.8125 33.546875 5.8125 39.890625 
Q 5.8125 47.609375 11.28125 51.796875 
Q 16.75 56 26.8125 56 
Q 31.78125 56 36.171875 55.265625 
Q 40.578125 54.546875 44.28125 53.078125 
z
" id="DejaVuSans-115"/>
       </defs>
       <use xlink:href="#DejaVuSans-97"/>
       <use x="61.279297" xlink:href="#DejaVuSans-102"/>
       <use x="96.484375" xlink:href="#DejaVuSans-108"/>
       <use x="124.267578" xlink:href="#DejaVuSans-112"/>
       <use x="187.744141" xlink:href="#DejaVuSans-108"/>
       <use x="215.527344" xlink:href="#DejaVuSans-117"/>
       <use x="278.90625" xlink:href="#DejaVuSans-115"/>
       <use x="331.005859" xlink:href="#DejaVuSans-112"/>
       <use x="394.482422" xlink:href="#DejaVuSans-108"/>
       <use x="422.265625" xlink:href="#DejaVuSans-117"/>
       <use x="485.644531" xlink:href="#DejaVuSans-115"/>
      </g>
     </g>
    </g>
    <g id="xtick_4">
     <g id="line2d_4">
      <g>
       <use style="stroke:#000000;stroke-width:0.8;" x="215.930625" xlink:href="#md7040889e0" y="288.430125"/>
      </g>
     </g>
     <g id="text_4">
      <!-- fairfuzz -->
      <g transform="translate(182.94121 320.456659)rotate(-30)scale(0.1 -0.1)">
       <use xlink:href="#DejaVuSans-102"/>
       <use x="35.205078" xlink:href="#DejaVuSans-97"/>
       <use x="96.484375" xlink:href="#DejaVuSans-105"/>
       <use x="124.267578" xlink:href="#DejaVuSans-114"/>
       <use x="165.380859" xlink:href="#DejaVuSans-102"/>
       <use x="200.585938" xlink:href="#DejaVuSans-117"/>
       <use x="263.964844" xlink:href="#DejaVuSans-122"/>
       <use x="316.455078" xlink:href="#DejaVuSans-122"/>
      </g>
     </g>
    </g>
    <g id="xtick_5">
     <g id="line2d_5">
      <g>
       <use style="stroke:#000000;stroke-width:0.8;" x="260.570625" xlink:href="#md7040889e0" y="288.430125"/>
      </g>
     </g>
     <g id="text_5">
      <!-- mopt -->
      <g transform="translate(236.903161 315.074627)rotate(-30)scale(0.1 -0.1)">
       <defs>
        <path d="M 52 44.1875 
Q 55.375 50.25 60.0625 53.125 
Q 64.75 56 71.09375 56 
Q 79.640625 56 84.28125 50.015625 
Q 88.921875 44.046875 88.921875 33.015625 
L 88.921875 0 
L 79.890625 0 
L 79.890625 32.71875 
Q 79.890625 40.578125 77.09375 44.375 
Q 74.3125 48.1875 68.609375 48.1875 
Q 61.625 48.1875 57.5625 43.546875 
Q 53.515625 38.921875 53.515625 30.90625 
L 53.515625 0 
L 44.484375 0 
L 44.484375 32.71875 
Q 44.484375 40.625 41.703125 44.40625 
Q 38.921875 48.1875 33.109375 48.1875 
Q 26.21875 48.1875 22.15625 43.53125 
Q 18.109375 38.875 18.109375 30.90625 
L 18.109375 0 
L 9.078125 0 
L 9.078125 54.6875 
L 18.109375 54.6875 
L 18.109375 46.1875 
Q 21.1875 51.21875 25.484375 53.609375 
Q 29.78125 56 35.6875 56 
Q 41.65625 56 45.828125 52.96875 
Q 50 49.953125 52 44.1875 
z
" id="DejaVuSans-109"/>
       </defs>
       <use xlink:href="#DejaVuSans-109"/>
       <use x="97.412109" xlink:href="#DejaVuSans-111"/>
       <use x="158.59375" xlink:href="#DejaVuSans-112"/>
       <use x="222.070312" xlink:href="#DejaVuSans-116"/>
      </g>
     </g>
    </g>
    <g id="xtick_6">
     <g id="line2d_6">
      <g>
       <use style="stroke:#000000;stroke-width:0.8;" x="305.210625" xlink:href="#md7040889e0" y="288.430125"/>
      </g>
     </g>
     <g id="text_6">
      <!-- libfuzzer -->
      <g transform="translate(267.344404 323.272284)rotate(-30)scale(0.1 -0.1)">
       <defs>
        <path d="M 48.6875 27.296875 
Q 48.6875 37.203125 44.609375 42.84375 
Q 40.53125 48.484375 33.40625 48.484375 
Q 26.265625 48.484375 22.1875 42.84375 
Q 18.109375 37.203125 18.109375 27.296875 
Q 18.109375 17.390625 22.1875 11.75 
Q 26.265625 6.109375 33.40625 6.109375 
Q 40.53125 6.109375 44.609375 11.75 
Q 48.6875 17.390625 48.6875 27.296875 
z
M 18.109375 46.390625 
Q 20.953125 51.265625 25.265625 53.625 
Q 29.59375 56 35.59375 56 
Q 45.5625 56 51.78125 48.09375 
Q 58.015625 40.1875 58.015625 27.296875 
Q 58.015625 14.40625 51.78125 6.484375 
Q 45.5625 -1.421875 35.59375 -1.421875 
Q 29.59375 -1.421875 25.265625 0.953125 
Q 20.953125 3.328125 18.109375 8.203125 
L 18.109375 0 
L 9.078125 0 
L 9.078125 75.984375 
L 18.109375 75.984375 
z
" id="DejaVuSans-98"/>
       </defs>
       <use xlink:href="#DejaVuSans-108"/>
       <use x="27.783203" xlink:href="#DejaVuSans-105"/>
       <use x="55.566406" xlink:href="#DejaVuSans-98"/>
       <use x="119.042969" xlink:href="#DejaVuSans-102"/>
       <use x="154.248047" xlink:href="#DejaVuSans-117"/>
       <use x="217.626953" xlink:href="#DejaVuSans-122"/>
       <use x="270.117188" xlink:href="#DejaVuSans-122"/>
       <use x="322.607422" xlink:href="#DejaVuSans-101"/>
       <use x="384.130859" xlink:href="#DejaVuSans-114"/>
      </g>
     </g>
    </g>
    <g id="xtick_7">
     <g id="line2d_7">
      <g>
       <use style="stroke:#000000;stroke-width:0.8;" x="349.850625" xlink:href="#md7040889e0" y="288.430125"/>
      </g>
     </g>
     <g id="text_7">
      <!-- lafintel -->
      <g transform="translate(319.02492 319.20744)rotate(-30)scale(0.1 -0.1)">
       <use xlink:href="#DejaVuSans-108"/>
       <use x="27.783203" xlink:href="#DejaVuSans-97"/>
       <use x="89.0625" xlink:href="#DejaVuSans-102"/>
       <use x="124.267578" xlink:href="#DejaVuSans-105"/>
       <use x="152.050781" xlink:href="#DejaVuSans-110"/>
       <use x="215.429688" xlink:href="#DejaVuSans-116"/>
       <use x="254.638672" xlink:href="#DejaVuSans-101"/>
       <use x="316.162109" xlink:href="#DejaVuSans-108"/>
      </g>
     </g>
    </g>
    <g id="xtick_8">
     <g id="line2d_8">
      <g>
       <use style="stroke:#000000;stroke-width:0.8;" x="394.490625" xlink:href="#md7040889e0" y="288.430125"/>
      </g>
     </g>
     <g id="text_8">
      <!-- aflplusplus_flat -->
      <g transform="translate(328.25562 339.570721)rotate(-30)scale(0.1 -0.1)">
       <defs>
        <path d="M 50.984375 -16.609375 
L 50.984375 -23.578125 
L -0.984375 -23.578125 
L -0.984375 -16.609375 
z
" id="DejaVuSans-95"/>
       </defs>
       <use xlink:href="#DejaVuSans-97"/>
       <use x="61.279297" xlink:href="#DejaVuSans-102"/>
       <use x="96.484375" xlink:href="#DejaVuSans-108"/>
       <use x="124.267578" xlink:href="#DejaVuSans-112"/>
       <use x="187.744141" xlink:href="#DejaVuSans-108"/>
       <use x="215.527344" xlink:href="#DejaVuSans-117"/>
       <use x="278.90625" xlink:href="#DejaVuSans-115"/>
       <use x="331.005859" xlink:href="#DejaVuSans-112"/>
       <use x="394.482422" xlink:href="#DejaVuSans-108"/>
       <use x="422.265625" xlink:href="#DejaVuSans-117"/>
       <use x="485.644531" xlink:href="#DejaVuSans-115"/>
       <use x="537.744141" xlink:href="#DejaVuSans-95"/>
       <use x="587.744141" xlink:href="#DejaVuSans-102"/>
       <use x="622.949219" xlink:href="#DejaVuSans-108"/>
       <use x="650.732422" xlink:href="#DejaVuSans-97"/>
       <use x="712.011719" xlink:href="#DejaVuSans-116"/>
      </g>
     </g>
    </g>
    <g id="text_9">
     <!-- Fuzzer (highest median coverage on the left) -->
     <g transform="translate(125.632656 353.211084)scale(0.1 -0.1)">
      <defs>
       <path d="M 9.8125 72.90625 
L 51.703125 72.90625 
L 51.703125 64.59375 
L 19.671875 64.59375 
L 19.671875 43.109375 
L 48.578125 43.109375 
L 48.578125 34.8125 
L 19.671875 34.8125 
L 19.671875 0 
L 9.8125 0 
z
" id="DejaVuSans-70"/>
       <path id="DejaVuSans-32"/>
       <path d="M 31 75.875 
Q 24.46875 64.65625 21.28125 53.65625 
Q 18.109375 42.671875 18.109375 31.390625 
Q 18.109375 20.125 21.3125 9.0625 
Q 24.515625 -2 31 -13.1875 
L 23.1875 -13.1875 
Q 15.875 -1.703125 12.234375 9.375 
Q 8.59375 20.453125 8.59375 31.390625 
Q 8.59375 42.28125 12.203125 53.3125 
Q 15.828125 64.359375 23.1875 75.875 
z
" id="DejaVuSans-40"/>
       <path d="M 45.40625 46.390625 
L 45.40625 75.984375 
L 54.390625 75.984375 
L 54.390625 0 
L 45.40625 0 
L 45.40625 8.203125 
Q 42.578125 3.328125 38.25 0.953125 
Q 33.9375 -1.421875 27.875 -1.421875 
Q 17.96875 -1.421875 11.734375 6.484375 
Q 5.515625 14.40625 5.515625 27.296875 
Q 5.515625 40.1875 11.734375 48.09375 
Q 17.96875 56 27.875 56 
Q 33.9375 56 38.25 53.625 
Q 42.578125 51.265625 45.40625 46.390625 
z
M 14.796875 27.296875 
Q 14.796875 17.390625 18.875 11.75 
Q 22.953125 6.109375 30.078125 6.109375 
Q 37.203125 6.109375 41.296875 11.75 
Q 45.40625 17.390625 45.40625 27.296875 
Q 45.40625 37.203125 41.296875 42.84375 
Q 37.203125 48.484375 30.078125 48.484375 
Q 22.953125 48.484375 18.875 42.84375 
Q 14.796875 37.203125 14.796875 27.296875 
z
" id="DejaVuSans-100"/>
       <path d="M 2.984375 54.6875 
L 12.5 54.6875 
L 29.59375 8.796875 
L 46.6875 54.6875 
L 56.203125 54.6875 
L 35.6875 0 
L 23.484375 0 
z
" id="DejaVuSans-118"/>
       <path d="M 8.015625 75.875 
L 15.828125 75.875 
Q 23.140625 64.359375 26.78125 53.3125 
Q 30.421875 42.28125 30.421875 31.390625 
Q 30.421875 20.453125 26.78125 9.375 
Q 23.140625 -1.703125 15.828125 -13.1875 
L 8.015625 -13.1875 
Q 14.5 -2 17.703125 9.0625 
Q 20.90625 20.125 20.90625 31.390625 
Q 20.90625 42.671875 17.703125 53.65625 
Q 14.5 64.65625 8.015625 75.875 
z
" id="DejaVuSans-41"/>
      </defs>
      <use xlink:href="#DejaVuSans-70"/>
      <use x="52.019531" xlink:href="#DejaVuSans-117"/>
      <use x="115.398438" xlink:href="#DejaVuSans-122"/>
      <use x="167.888672" xlink:href="#DejaVuSans-122"/>
      <use x="220.378906" xlink:href="#DejaVuSans-101"/>
      <use x="281.902344" xlink:href="#DejaVuSans-114"/>
      <use x="323.015625" xlink:href="#DejaVuSans-32"/>
      <use x="354.802734" xlink:href="#DejaVuSans-40"/>
      <use x="393.816406" xlink:href="#DejaVuSans-104"/>
      <use x="457.195312" xlink:href="#DejaVuSans-105"/>
      <use x="484.978516" xlink:href="#DejaVuSans-103"/>
      <use x="548.455078" xlink:href="#DejaVuSans-104"/>
      <use x="611.833984" xlink:href="#DejaVuSans-101"/>
      <use x="673.357422" xlink:href="#DejaVuSans-115"/>
      <use x="725.457031" xlink:href="#DejaVuSans-116"/>
      <use x="764.666016" xlink:href="#DejaVuSans-32"/>
      <use x="796.453125" xlink:href="#DejaVuSans-109"/>
      <use x="893.865234" xlink:href="#DejaVuSans-101"/>
      <use x="955.388672" xlink:href="#DejaVuSans-100"/>
      <use x="1018.865234" xlink:href="#DejaVuSans-105"/>
      <use x="1046.648438" xlink:href="#DejaVuSans-97"/>
      <use x="1107.927734" xlink:href="#DejaVuSans-110"/>
      <use x="1171.306641" xlink:href="#DejaVuSans-32"/>
      <use x="1203.09375" xlink:href="#DejaVuSans-99"/>
      <use x="1258.074219" xlink:href="#DejaVuSans-111"/>
      <use x="1319.255859" xlink:href="#DejaVuSans-118"/>
      <use x="1378.435547" xlink:href="#DejaVuSans-101"/>
      <use x="1439.958984" xlink:href="#DejaVuSans-114"/>
      <use x="1481.072266" xlink:href="#DejaVuSans-97"/>
      <use x="1542.351562" xlink:href="#DejaVuSans-103"/>
      <use x="1605.828125" xlink:href="#DejaVuSans-101"/>
      <use x="1667.351562" xlink:href="#DejaVuSans-32"/>
      <use x="1699.138672" xlink:href="#DejaVuSans-111"/>
      <use x="1760.320312" xlink:href="#DejaVuSans-110"/>
      <use x="1823.699219" xlink:href="#DejaVuSans-32"/>
      <use x="1855.486328" xlink:href="#DejaVuSans-116"/>
      <use x="1894.695312" xlink:href="#DejaVuSans-104"/>
      <use x="1958.074219" xlink:href="#DejaVuSans-101"/>
      <use x="2019.597656" xlink:href="#DejaVuSans-32"/>
      <use x="2051.384766" xlink:href="#DejaVuSans-108"/>
      <use x="2079.167969" xlink:href="#DejaVuSans-101"/>
      <use x="2140.691406" xlink:href="#DejaVuSans-102"/>
      <use x="2174.146484" xlink:href="#DejaVuSans-116"/>
      <use x="2213.355469" xlink:href="#DejaVuSans-41"/>
     </g>
    </g>
   </g>
   <g id="matplotlib.axis_2">
    <g id="ytick_1">
     <g id="line2d_9">
      <defs>
       <path d="M 0 0 
L -3.5 0 
" id="mfd02b84ec4" style="stroke:#000000;stroke-width:0.8;"/>
      </defs>
      <g>
       <use style="stroke:#000000;stroke-width:0.8;" x="59.690625" xlink:href="#mfd02b84ec4" y="287.301539"/>
      </g>
     </g>
     <g id="text_10">
      <!-- 16000 -->
      <g transform="translate(20.878125 291.100758)scale(0.1 -0.1)">
       <defs>
        <path d="M 12.40625 8.296875 
L 28.515625 8.296875 
L 28.515625 63.921875 
L 10.984375 60.40625 
L 10.984375 69.390625 
L 28.421875 72.90625 
L 38.28125 72.90625 
L 38.28125 8.296875 
L 54.390625 8.296875 
L 54.390625 0 
L 12.40625 0 
z
" id="DejaVuSans-49"/>
        <path d="M 33.015625 40.375 
Q 26.375 40.375 22.484375 35.828125 
Q 18.609375 31.296875 18.609375 23.390625 
Q 18.609375 15.53125 22.484375 10.953125 
Q 26.375 6.390625 33.015625 6.390625 
Q 39.65625 6.390625 43.53125 10.953125 
Q 47.40625 15.53125 47.40625 23.390625 
Q 47.40625 31.296875 43.53125 35.828125 
Q 39.65625 40.375 33.015625 40.375 
z
M 52.59375 71.296875 
L 52.59375 62.3125 
Q 48.875 64.0625 45.09375 64.984375 
Q 41.3125 65.921875 37.59375 65.921875 
Q 27.828125 65.921875 22.671875 59.328125 
Q 17.53125 52.734375 16.796875 39.40625 
Q 19.671875 43.65625 24.015625 45.921875 
Q 28.375 48.1875 33.59375 48.1875 
Q 44.578125 48.1875 50.953125 41.515625 
Q 57.328125 34.859375 57.328125 23.390625 
Q 57.328125 12.15625 50.6875 5.359375 
Q 44.046875 -1.421875 33.015625 -1.421875 
Q 20.359375 -1.421875 13.671875 8.265625 
Q 6.984375 17.96875 6.984375 36.375 
Q 6.984375 53.65625 15.1875 63.9375 
Q 23.390625 74.21875 37.203125 74.21875 
Q 40.921875 74.21875 44.703125 73.484375 
Q 48.484375 72.75 52.59375 71.296875 
z
" id="DejaVuSans-54"/>
        <path d="M 31.78125 66.40625 
Q 24.171875 66.40625 20.328125 58.90625 
Q 16.5 51.421875 16.5 36.375 
Q 16.5 21.390625 20.328125 13.890625 
Q 24.171875 6.390625 31.78125 6.390625 
Q 39.453125 6.390625 43.28125 13.890625 
Q 47.125 21.390625 47.125 36.375 
Q 47.125 51.421875 43.28125 58.90625 
Q 39.453125 66.40625 31.78125 66.40625 
z
M 31.78125 74.21875 
Q 44.046875 74.21875 50.515625 64.515625 
Q 56.984375 54.828125 56.984375 36.375 
Q 56.984375 17.96875 50.515625 8.265625 
Q 44.046875 -1.421875 31.78125 -1.421875 
Q 19.53125 -1.421875 13.0625 8.265625 
Q 6.59375 17.96875 6.59375 36.375 
Q 6.59375 54.828125 13.0625 64.515625 
Q 19.53125 74.21875 31.78125 74.21875 
z
" id="DejaVuSans-48"/>
       </defs>
       <use xlink:href="#DejaVuSans-49"/>
       <use x="63.623047" xlink:href="#DejaVuSans-54"/>
       <use x="127.246094" xlink:href="#DejaVuSans-48"/>
       <use x="190.869141" xlink:href="#DejaVuSans-48"/>
       <use x="254.492188" xlink:href="#DejaVuSans-48"/>
      </g>
     </g>
    </g>
    <g id="ytick_2">
     <g id="line2d_10">
      <g>
       <use style="stroke:#000000;stroke-width:0.8;" x="59.690625" xlink:href="#mfd02b84ec4" y="254.483775"/>
      </g>
     </g>
     <g id="text_11">
      <!-- 16500 -->
      <g transform="translate(20.878125 258.282993)scale(0.1 -0.1)">
       <defs>
        <path d="M 10.796875 72.90625 
L 49.515625 72.90625 
L 49.515625 64.59375 
L 19.828125 64.59375 
L 19.828125 46.734375 
Q 21.96875 47.46875 24.109375 47.828125 
Q 26.265625 48.1875 28.421875 48.1875 
Q 40.625 48.1875 47.75 41.5 
Q 54.890625 34.8125 54.890625 23.390625 
Q 54.890625 11.625 47.5625 5.09375 
Q 40.234375 -1.421875 26.90625 -1.421875 
Q 22.3125 -1.421875 17.546875 -0.640625 
Q 12.796875 0.140625 7.71875 1.703125 
L 7.71875 11.625 
Q 12.109375 9.234375 16.796875 8.0625 
Q 21.484375 6.890625 26.703125 6.890625 
Q 35.15625 6.890625 40.078125 11.328125 
Q 45.015625 15.765625 45.015625 23.390625 
Q 45.015625 31 40.078125 35.4375 
Q 35.15625 39.890625 26.703125 39.890625 
Q 22.75 39.890625 18.8125 39.015625 
Q 14.890625 38.140625 10.796875 36.28125 
z
" id="DejaVuSans-53"/>
       </defs>
       <use xlink:href="#DejaVuSans-49"/>
       <use x="63.623047" xlink:href="#DejaVuSans-54"/>
       <use x="127.246094" xlink:href="#DejaVuSans-53"/>
       <use x="190.869141" xlink:href="#DejaVuSans-48"/>
       <use x="254.492188" xlink:href="#DejaVuSans-48"/>
      </g>
     </g>
    </g>
    <g id="ytick_3">
     <g id="line2d_11">
      <g>
       <use style="stroke:#000000;stroke-width:0.8;" x="59.690625" xlink:href="#mfd02b84ec4" y="221.66601"/>
      </g>
     </g>
     <g id="text_12">
      <!-- 17000 -->
      <g transform="translate(20.878125 225.465229)scale(0.1 -0.1)">
       <defs>
        <path d="M 8.203125 72.90625 
L 55.078125 72.90625 
L 55.078125 68.703125 
L 28.609375 0 
L 18.3125 0 
L 43.21875 64.59375 
L 8.203125 64.59375 
z
" id="DejaVuSans-55"/>
       </defs>
       <use xlink:href="#DejaVuSans-49"/>
       <use x="63.623047" xlink:href="#DejaVuSans-55"/>
       <use x="127.246094" xlink:href="#DejaVuSans-48"/>
       <use x="190.869141" xlink:href="#DejaVuSans-48"/>
       <use x="254.492188" xlink:href="#DejaVuSans-48"/>
      </g>
     </g>
    </g>
    <g id="ytick_4">
     <g id="line2d_12">
      <g>
       <use style="stroke:#000000;stroke-width:0.8;" x="59.690625" xlink:href="#mfd02b84ec4" y="188.848245"/>
      </g>
     </g>
     <g id="text_13">
      <!-- 17500 -->
      <g transform="translate(20.878125 192.647464)scale(0.1 -0.1)">
       <use xlink:href="#DejaVuSans-49"/>
       <use x="63.623047" xlink:href="#DejaVuSans-55"/>
       <use x="127.246094" xlink:href="#DejaVuSans-53"/>
       <use x="190.869141" xlink:href="#DejaVuSans-48"/>
       <use x="254.492188" xlink:href="#DejaVuSans-48"/>
      </g>
     </g>
    </g>
    <g id="ytick_5">
     <g id="line2d_13">
      <g>
       <use style="stroke:#000000;stroke-width:0.8;" x="59.690625" xlink:href="#mfd02b84ec4" y="156.03048"/>
      </g>
     </g>
     <g id="text_14">
      <!-- 18000 -->
      <g transform="translate(20.878125 159.829699)scale(0.1 -0.1)">
       <defs>
        <path d="M 31.78125 34.625 
Q 24.75 34.625 20.71875 30.859375 
Q 16.703125 27.09375 16.703125 20.515625 
Q 16.703125 13.921875 20.71875 10.15625 
Q 24.75 6.390625 31.78125 6.390625 
Q 38.8125 6.390625 42.859375 10.171875 
Q 46.921875 13.96875 46.921875 20.515625 
Q 46.921875 27.09375 42.890625 30.859375 
Q 38.875 34.625 31.78125 34.625 
z
M 21.921875 38.8125 
Q 15.578125 40.375 12.03125 44.71875 
Q 8.5 49.078125 8.5 55.328125 
Q 8.5 64.0625 14.71875 69.140625 
Q 20.953125 74.21875 31.78125 74.21875 
Q 42.671875 74.21875 48.875 69.140625 
Q 55.078125 64.0625 55.078125 55.328125 
Q 55.078125 49.078125 51.53125 44.71875 
Q 48 40.375 41.703125 38.8125 
Q 48.828125 37.15625 52.796875 32.3125 
Q 56.78125 27.484375 56.78125 20.515625 
Q 56.78125 9.90625 50.3125 4.234375 
Q 43.84375 -1.421875 31.78125 -1.421875 
Q 19.734375 -1.421875 13.25 4.234375 
Q 6.78125 9.90625 6.78125 20.515625 
Q 6.78125 27.484375 10.78125 32.3125 
Q 14.796875 37.15625 21.921875 38.8125 
z
M 18.3125 54.390625 
Q 18.3125 48.734375 21.84375 45.5625 
Q 25.390625 42.390625 31.78125 42.390625 
Q 38.140625 42.390625 41.71875 45.5625 
Q 45.3125 48.734375 45.3125 54.390625 
Q 45.3125 60.0625 41.71875 63.234375 
Q 38.140625 66.40625 31.78125 66.40625 
Q 25.390625 66.40625 21.84375 63.234375 
Q 18.3125 60.0625 18.3125 54.390625 
z
" id="DejaVuSans-56"/>
       </defs>
       <use xlink:href="#DejaVuSans-49"/>
       <use x="63.623047" xlink:href="#DejaVuSans-56"/>
       <use x="127.246094" xlink:href="#DejaVuSans-48"/>
       <use x="190.869141" xlink:href="#DejaVuSans-48"/>
       <use x="254.492188" xlink:href="#DejaVuSans-48"/>
      </g>
     </g>
    </g>
    <g id="ytick_6">
     <g id="line2d_14">
      <g>
       <use style="stroke:#000000;stroke-width:0.8;" x="59.690625" xlink:href="#mfd02b84ec4" y="123.212716"/>
      </g>
     </g>
     <g id="text_15">
      <!-- 18500 -->
      <g transform="translate(20.878125 127.011934)scale(0.1 -0.1)">
       <use xlink:href="#DejaVuSans-49"/>
       <use x="63.623047" xlink:href="#DejaVuSans-56"/>
       <use x="127.246094" xlink:href="#DejaVuSans-53"/>
       <use x="190.869141" xlink:href="#DejaVuSans-48"/>
       <use x="254.492188" xlink:href="#DejaVuSans-48"/>
      </g>
     </g>
    </g>
    <g id="ytick_7">
     <g id="line2d_15">
      <g>
       <use style="stroke:#000000;stroke-width:0.8;" x="59.690625" xlink:href="#mfd02b84ec4" y="90.394951"/>
      </g>
     </g>
     <g id="text_16">
      <!-- 19000 -->
      <g transform="translate(20.878125 94.19417)scale(0.1 -0.1)">
       <defs>
        <path d="M 10.984375 1.515625 
L 10.984375 10.5 
Q 14.703125 8.734375 18.5 7.8125 
Q 22.3125 6.890625 25.984375 6.890625 
Q 35.75 6.890625 40.890625 13.453125 
Q 46.046875 20.015625 46.78125 33.40625 
Q 43.953125 29.203125 39.59375 26.953125 
Q 35.25 24.703125 29.984375 24.703125 
Q 19.046875 24.703125 12.671875 31.3125 
Q 6.296875 37.9375 6.296875 49.421875 
Q 6.296875 60.640625 12.9375 67.421875 
Q 19.578125 74.21875 30.609375 74.21875 
Q 43.265625 74.21875 49.921875 64.515625 
Q 56.59375 54.828125 56.59375 36.375 
Q 56.59375 19.140625 48.40625 8.859375 
Q 40.234375 -1.421875 26.421875 -1.421875 
Q 22.703125 -1.421875 18.890625 -0.6875 
Q 15.09375 0.046875 10.984375 1.515625 
z
M 30.609375 32.421875 
Q 37.25 32.421875 41.125 36.953125 
Q 45.015625 41.5 45.015625 49.421875 
Q 45.015625 57.28125 41.125 61.84375 
Q 37.25 66.40625 30.609375 66.40625 
Q 23.96875 66.40625 20.09375 61.84375 
Q 16.21875 57.28125 16.21875 49.421875 
Q 16.21875 41.5 20.09375 36.953125 
Q 23.96875 32.421875 30.609375 32.421875 
z
" id="DejaVuSans-57"/>
       </defs>
       <use xlink:href="#DejaVuSans-49"/>
       <use x="63.623047" xlink:href="#DejaVuSans-57"/>
       <use x="127.246094" xlink:href="#DejaVuSans-48"/>
       <use x="190.869141" xlink:href="#DejaVuSans-48"/>
       <use x="254.492188" xlink:href="#DejaVuSans-48"/>
      </g>
     </g>
    </g>
    <g id="ytick_8">
     <g id="line2d_16">
      <g>
       <use style="stroke:#000000;stroke-width:0.8;" x="59.690625" xlink:href="#mfd02b84ec4" y="57.577186"/>
      </g>
     </g>
     <g id="text_17">
      <!-- 19500 -->
      <g transform="translate(20.878125 61.376405)scale(0.1 -0.1)">
       <use xlink:href="#DejaVuSans-49"/>
       <use x="63.623047" xlink:href="#DejaVuSans-57"/>
       <use x="127.246094" xlink:href="#DejaVuSans-53"/>
       <use x="190.869141" xlink:href="#DejaVuSans-48"/>
       <use x="254.492188" xlink:href="#DejaVuSans-48"/>
      </g>
     </g>
    </g>
    <g id="ytick_9">
     <g id="line2d_17">
      <g>
       <use style="stroke:#000000;stroke-width:0.8;" x="59.690625" xlink:href="#mfd02b84ec4" y="24.759421"/>
      </g>
     </g>
     <g id="text_18">
      <!-- 20000 -->
      <g transform="translate(20.878125 28.55864)scale(0.1 -0.1)">
       <defs>
        <path d="M 19.1875 8.296875 
L 53.609375 8.296875 
L 53.609375 0 
L 7.328125 0 
L 7.328125 8.296875 
Q 12.9375 14.109375 22.625 23.890625 
Q 32.328125 33.6875 34.8125 36.53125 
Q 39.546875 41.84375 41.421875 45.53125 
Q 43.3125 49.21875 43.3125 52.78125 
Q 43.3125 58.59375 39.234375 62.25 
Q 35.15625 65.921875 28.609375 65.921875 
Q 23.96875 65.921875 18.8125 64.3125 
Q 13.671875 62.703125 7.8125 59.421875 
L 7.8125 69.390625 
Q 13.765625 71.78125 18.9375 73 
Q 24.125 74.21875 28.421875 74.21875 
Q 39.75 74.21875 46.484375 68.546875 
Q 53.21875 62.890625 53.21875 53.421875 
Q 53.21875 48.921875 51.53125 44.890625 
Q 49.859375 40.875 45.40625 35.40625 
Q 44.1875 33.984375 37.640625 27.21875 
Q 31.109375 20.453125 19.1875 8.296875 
z
" id="DejaVuSans-50"/>
       </defs>
       <use xlink:href="#DejaVuSans-50"/>
       <use x="63.623047" xlink:href="#DejaVuSans-48"/>
       <use x="127.246094" xlink:href="#DejaVuSans-48"/>
       <use x="190.869141" xlink:href="#DejaVuSans-48"/>
       <use x="254.492188" xlink:href="#DejaVuSans-48"/>
      </g>
     </g>
    </g>
    <g id="text_19">
     <!-- Reached region coverage -->
     <g transform="translate(14.798438 219.136625)rotate(-90)scale(0.1 -0.1)">
      <defs>
       <path d="M 44.390625 34.1875 
Q 47.5625 33.109375 50.5625 29.59375 
Q 53.5625 26.078125 56.59375 19.921875 
L 66.609375 0 
L 56 0 
L 46.6875 18.703125 
Q 43.0625 26.03125 39.671875 28.421875 
Q 36.28125 30.8125 30.421875 30.8125 
L 19.671875 30.8125 
L 19.671875 0 
L 9.8125 0 
L 9.8125 72.90625 
L 32.078125 72.90625 
Q 44.578125 72.90625 50.734375 67.671875 
Q 56.890625 62.453125 56.890625 51.90625 
Q 56.890625 45.015625 53.6875 40.46875 
Q 50.484375 35.9375 44.390625 34.1875 
z
M 19.671875 64.796875 
L 19.671875 38.921875 
L 32.078125 38.921875 
Q 39.203125 38.921875 42.84375 42.21875 
Q 46.484375 45.515625 46.484375 51.90625 
Q 46.484375 58.296875 42.84375 61.546875 
Q 39.203125 64.796875 32.078125 64.796875 
z
" id="DejaVuSans-82"/>
      </defs>
      <use xlink:href="#DejaVuSans-82"/>
      <use x="64.982422" xlink:href="#DejaVuSans-101"/>
      <use x="126.505859" xlink:href="#DejaVuSans-97"/>
      <use x="187.785156" xlink:href="#DejaVuSans-99"/>
      <use x="242.765625" xlink:href="#DejaVuSans-104"/>
      <use x="306.144531" xlink:href="#DejaVuSans-101"/>
      <use x="367.667969" xlink:href="#DejaVuSans-100"/>
      <use x="431.144531" xlink:href="#DejaVuSans-32"/>
      <use x="462.931641" xlink:href="#DejaVuSans-114"/>
      <use x="501.794922" xlink:href="#DejaVuSans-101"/>
      <use x="563.318359" xlink:href="#DejaVuSans-103"/>
      <use x="626.794922" xlink:href="#DejaVuSans-105"/>
      <use x="654.578125" xlink:href="#DejaVuSans-111"/>
      <use x="715.759766" xlink:href="#DejaVuSans-110"/>
      <use x="779.138672" xlink:href="#DejaVuSans-32"/>
      <use x="810.925781" xlink:href="#DejaVuSans-99"/>
      <use x="865.90625" xlink:href="#DejaVuSans-111"/>
      <use x="927.087891" xlink:href="#DejaVuSans-118"/>
      <use x="986.267578" xlink:href="#DejaVuSans-101"/>
      <use x="1047.791016" xlink:href="#DejaVuSans-114"/>
      <use x="1088.904297" xlink:href="#DejaVuSans-97"/>
      <use x="1150.183594" xlink:href="#DejaVuSans-103"/>
      <use x="1213.660156" xlink:href="#DejaVuSans-101"/>
     </g>
    </g>
   </g>
   <g id="line2d_18">
    <path clip-path="url(#pa24f848fd4)" d="M 82.010625 94.726896 
L 82.010625 77.530387 
" style="fill:none;stroke:#3d3d3d;stroke-linecap:square;stroke-width:1.5;"/>
   </g>
   <g id="line2d_19">
    <path clip-path="url(#pa24f848fd4)" d="M 82.010625 87.556214 
L 82.010625 82.420234 
" style="fill:none;stroke:#3d3d3d;stroke-linecap:square;stroke-width:4.5;"/>
   </g>
   <g id="line2d_20">
    <path clip-path="url(#pa24f848fd4)" d="M 126.650625 97.221046 
L 126.650625 79.302546 
" style="fill:none;stroke:#3d3d3d;stroke-linecap:square;stroke-width:1.5;"/>
   </g>
   <g id="line2d_21">
    <path clip-path="url(#pa24f848fd4)" d="M 126.650625 91.198986 
L 126.650625 84.061122 
" style="fill:none;stroke:#3d3d3d;stroke-linecap:square;stroke-width:4.5;"/>
   </g>
   <g id="line2d_22">
    <path clip-path="url(#pa24f848fd4)" d="M 171.290625 104.769132 
L 171.290625 69.654123 
" style="fill:none;stroke:#3d3d3d;stroke-linecap:square;stroke-width:1.5;"/>
   </g>
   <g id="line2d_23">
    <path clip-path="url(#pa24f848fd4)" d="M 171.290625 96.384193 
L 171.290625 81.796696 
" style="fill:none;stroke:#3d3d3d;stroke-linecap:square;stroke-width:4.5;"/>
   </g>
   <g id="line2d_24">
    <path clip-path="url(#pa24f848fd4)" d="M 215.930625 117.896238 
L 215.930625 79.761995 
" style="fill:none;stroke:#3d3d3d;stroke-linecap:square;stroke-width:1.5;"/>
   </g>
   <g id="line2d_25">
    <path clip-path="url(#pa24f848fd4)" d="M 215.930625 112.776666 
L 215.930625 91.067715 
" style="fill:none;stroke:#3d3d3d;stroke-linecap:square;stroke-width:4.5;"/>
   </g>
   <g id="line2d_26">
    <path clip-path="url(#pa24f848fd4)" d="M 260.570625 123.015809 
L 260.570625 105.688029 
" style="fill:none;stroke:#3d3d3d;stroke-linecap:square;stroke-width:1.5;"/>
   </g>
   <g id="line2d_27">
    <path clip-path="url(#pa24f848fd4)" d="M 260.570625 114.959048 
L 260.570625 109.297983 
" style="fill:none;stroke:#3d3d3d;stroke-linecap:square;stroke-width:4.5;"/>
   </g>
   <g id="line2d_28">
    <path clip-path="url(#pa24f848fd4)" d="M 305.210625 138.899607 
L 305.210625 84.290847 
" style="fill:none;stroke:#3d3d3d;stroke-linecap:square;stroke-width:1.5;"/>
   </g>
   <g id="line2d_29">
    <path clip-path="url(#pa24f848fd4)" d="M 305.210625 124.377746 
L 305.210625 97.434361 
" style="fill:none;stroke:#3d3d3d;stroke-linecap:square;stroke-width:4.5;"/>
   </g>
   <g id="line2d_30">
    <path clip-path="url(#pa24f848fd4)" d="M 349.850625 146.382057 
L 349.850625 105.753665 
" style="fill:none;stroke:#3d3d3d;stroke-linecap:square;stroke-width:1.5;"/>
   </g>
   <g id="line2d_31">
    <path clip-path="url(#pa24f848fd4)" d="M 349.850625 130.104446 
L 349.850625 113.334568 
" style="fill:none;stroke:#3d3d3d;stroke-linecap:square;stroke-width:4.5;"/>
   </g>
   <g id="line2d_32">
    <path clip-path="url(#pa24f848fd4)" d="M 394.490625 261.047328 
L 394.490625 253.893055 
" style="fill:none;stroke:#3d3d3d;stroke-linecap:square;stroke-width:1.5;"/>
   </g>
   <g id="line2d_33">
    <path clip-path="url(#pa24f848fd4)" d="M 394.490625 259.258759 
L 394.490625 255.681623 
" style="fill:none;stroke:#3d3d3d;stroke-linecap:square;stroke-width:4.5;"/>
   </g>
   <g id="patch_3">
    <path d="M 59.690625 287.301539 
L 59.690625 24.759421 
" style="fill:none;stroke:#000000;stroke-linecap:square;stroke-linejoin:miter;stroke-width:0.8;"/>
   </g>
   <g id="patch_4">
    <path d="M 82.010625 288.430125 
L 394.490625 288.430125 
" style="fill:none;stroke:#000000;stroke-linecap:square;stroke-linejoin:miter;stroke-width:0.8;"/>
   </g>
   <g id="PathCollection_1">
    <defs>
     <path d="M 0 1.5 
C 0.397805 1.5 0.77937 1.341951 1.06066 1.06066 
C 1.341951 0.77937 1.5 0.397805 1.5 0 
C 1.5 -0.397805 1.341951 -0.77937 1.06066 -1.06066 
C 0.77937 -1.341951 0.397805 -1.5 0 -1.5 
C -0.397805 -1.5 -0.77937 -1.341951 -1.06066 -1.06066 
C -1.341951 -0.77937 -1.5 -0.397805 -1.5 0 
C -1.5 0.397805 -1.341951 0.77937 -1.06066 1.06066 
C -0.77937 1.341951 -0.397805 1.5 0 1.5 
z
" id="mb875ed0158" style="stroke:#3d3d3d;"/>
    </defs>
    <g clip-path="url(#pa24f848fd4)">
     <use style="fill:#ffffff;stroke:#3d3d3d;" x="82.010625" xlink:href="#mb875ed0158" y="85.045655"/>
    </g>
   </g>
   <g id="PathCollection_2">
    <g clip-path="url(#pa24f848fd4)">
     <use style="fill:#ffffff;stroke:#3d3d3d;" x="126.650625" xlink:href="#mb875ed0158" y="85.111291"/>
    </g>
   </g>
   <g id="PathCollection_3">
    <g clip-path="url(#pa24f848fd4)">
     <use style="fill:#ffffff;stroke:#3d3d3d;" x="171.290625" xlink:href="#mb875ed0158" y="86.063006"/>
    </g>
   </g>
   <g id="PathCollection_4">
    <g clip-path="url(#pa24f848fd4)">
     <use style="fill:#ffffff;stroke:#3d3d3d;" x="215.930625" xlink:href="#mb875ed0158" y="98.271214"/>
    </g>
   </g>
   <g id="PathCollection_5">
    <g clip-path="url(#pa24f848fd4)">
     <use style="fill:#ffffff;stroke:#3d3d3d;" x="260.570625" xlink:href="#mb875ed0158" y="111.332685"/>
    </g>
   </g>
   <g id="PathCollection_6">
    <g clip-path="url(#pa24f848fd4)">
     <use style="fill:#ffffff;stroke:#3d3d3d;" x="305.210625" xlink:href="#mb875ed0158" y="111.726498"/>
    </g>
   </g>
   <g id="PathCollection_7">
    <g clip-path="url(#pa24f848fd4)">
     <use style="fill:#ffffff;stroke:#3d3d3d;" x="349.850625" xlink:href="#mb875ed0158" y="121.670281"/>
    </g>
   </g>
   <g id="PathCollection_8">
    <g clip-path="url(#pa24f848fd4)">
     <use style="fill:#ffffff;stroke:#3d3d3d;" x="394.490625" xlink:href="#mb875ed0158" y="257.470191"/>
    </g>
   </g>
   <g id="text_20">
    <!-- libxslt_xpath (23h, 2 trials/fuzzer) -->
    <g transform="translate(137.308125 16.318125)scale(0.12 -0.12)">
     <defs>
      <path d="M 54.890625 54.6875 
L 35.109375 28.078125 
L 55.90625 0 
L 45.3125 0 
L 29.390625 21.484375 
L 13.484375 0 
L 2.875 0 
L 24.125 28.609375 
L 4.6875 54.6875 
L 15.28125 54.6875 
L 29.78125 35.203125 
L 44.28125 54.6875 
z
" id="DejaVuSans-120"/>
      <path d="M 40.578125 39.3125 
Q 47.65625 37.796875 51.625 33 
Q 55.609375 28.21875 55.609375 21.1875 
Q 55.609375 10.40625 48.1875 4.484375 
Q 40.765625 -1.421875 27.09375 -1.421875 
Q 22.515625 -1.421875 17.65625 -0.515625 
Q 12.796875 0.390625 7.625 2.203125 
L 7.625 11.71875 
Q 11.71875 9.328125 16.59375 8.109375 
Q 21.484375 6.890625 26.8125 6.890625 
Q 36.078125 6.890625 40.9375 10.546875 
Q 45.796875 14.203125 45.796875 21.1875 
Q 45.796875 27.640625 41.28125 31.265625 
Q 36.765625 34.90625 28.71875 34.90625 
L 20.21875 34.90625 
L 20.21875 43.015625 
L 29.109375 43.015625 
Q 36.375 43.015625 40.234375 45.921875 
Q 44.09375 48.828125 44.09375 54.296875 
Q 44.09375 59.90625 40.109375 62.90625 
Q 36.140625 65.921875 28.71875 65.921875 
Q 24.65625 65.921875 20.015625 65.03125 
Q 15.375 64.15625 9.8125 62.3125 
L 9.8125 71.09375 
Q 15.4375 72.65625 20.34375 73.4375 
Q 25.25 74.21875 29.59375 74.21875 
Q 40.828125 74.21875 47.359375 69.109375 
Q 53.90625 64.015625 53.90625 55.328125 
Q 53.90625 49.265625 50.4375 45.09375 
Q 46.96875 40.921875 40.578125 39.3125 
z
" id="DejaVuSans-51"/>
      <path d="M 11.71875 12.40625 
L 22.015625 12.40625 
L 22.015625 4 
L 14.015625 -11.625 
L 7.71875 -11.625 
L 11.71875 4 
z
" id="DejaVuSans-44"/>
      <path d="M 25.390625 72.90625 
L 33.6875 72.90625 
L 8.296875 -9.28125 
L 0 -9.28125 
z
" id="DejaVuSans-47"/>
     </defs>
     <use xlink:href="#DejaVuSans-108"/>
     <use x="27.783203" xlink:href="#DejaVuSans-105"/>
     <use x="55.566406" xlink:href="#DejaVuSans-98"/>
     <use x="119.042969" xlink:href="#DejaVuSans-120"/>
     <use x="178.222656" xlink:href="#DejaVuSans-115"/>
     <use x="230.322266" xlink:href="#DejaVuSans-108"/>
     <use x="258.105469" xlink:href="#DejaVuSans-116"/>
     <use x="297.314453" xlink:href="#DejaVuSans-95"/>
     <use x="347.314453" xlink:href="#DejaVuSans-120"/>
     <use x="406.494141" xlink:href="#DejaVuSans-112"/>
     <use x="469.970703" xlink:href="#DejaVuSans-97"/>
     <use x="531.25" xlink:href="#DejaVuSans-116"/>
     <use x="570.458984" xlink:href="#DejaVuSans-104"/>
     <use x="633.837891" xlink:href="#DejaVuSans-32"/>
     <use x="665.625" xlink:href="#DejaVuSans-40"/>
     <use x="704.638672" xlink:href="#DejaVuSans-50"/>
     <use x="768.261719" xlink:href="#DejaVuSans-51"/>
     <use x="831.884766" xlink:href="#DejaVuSans-104"/>
     <use x="895.263672" xlink:href="#DejaVuSans-44"/>
     <use x="927.050781" xlink:href="#DejaVuSans-32"/>
     <use x="958.837891" xlink:href="#DejaVuSans-50"/>
     <use x="1022.460938" xlink:href="#DejaVuSans-32"/>
     <use x="1054.248047" xlink:href="#DejaVuSans-116"/>
     <use x="1093.457031" xlink:href="#DejaVuSans-114"/>
     <use x="1134.570312" xlink:href="#DejaVuSans-105"/>
     <use x="1162.353516" xlink:href="#DejaVuSans-97"/>
     <use x="1223.632812" xlink:href="#DejaVuSans-108"/>
     <use x="1251.416016" xlink:href="#DejaVuSans-115"/>
     <use x="1303.515625" xlink:href="#DejaVuSans-47"/>
     <use x="1337.207031" xlink:href="#DejaVuSans-102"/>
     <use x="1372.412109" xlink:href="#DejaVuSans-117"/>
     <use x="1435.791016" xlink:href="#DejaVuSans-122"/>
     <use x="1488.28125" xlink:href="#DejaVuSans-122"/>
     <use x="1540.771484" xlink:href="#DejaVuSans-101"/>
     <use x="1602.294922" xlink:href="#DejaVuSans-114"/>
     <use x="1643.408203" xlink:href="#DejaVuSans-41"/>
    </g>
   </g>
  </g>
 </g>
 <defs>
  <clipPath id="pa24f848fd4">
   <rect height="266.112" width="357.12" x="59.690625" y="22.318125"/>
  </clipPath>
 </defs>
</svg>
