<?xml version="1.0" encoding="utf-8" standalone="no"?>
<!DOCTYPE svg PUBLIC "-//W3C//DTD SVG 1.1//EN"
  "http://www.w3.org/Graphics/SVG/1.1/DTD/svg11.dtd">
<!-- Created with matplotlib (https://matplotlib.org/) -->
<svg height="325.986375pt" version="1.1" viewBox="0 0 898.12125 325.986375" width="898.12125pt" xmlns="http://www.w3.org/2000/svg" xmlns:xlink="http://www.w3.org/1999/xlink">
 <metadata>
  <rdf:RDF xmlns:cc="http://creativecommons.org/ns#" xmlns:dc="http://purl.org/dc/elements/1.1/" xmlns:rdf="http://www.w3.org/1999/02/22-rdf-syntax-ns#">
   <cc:Work>
    <dc:type rdf:resource="http://purl.org/dc/dcmitype/StillImage"/>
    <dc:date>2020-12-06T10:29:04.852729</dc:date>
    <dc:format>image/svg+xml</dc:format>
    <dc:creator>
     <cc:Agent>
      <dc:title>Matplotlib v3.3.3, https://matplotlib.org/</dc:title>
     </cc:Agent>
    </dc:creator>
   </cc:Work>
  </rdf:RDF>
 </metadata>
 <defs>
  <style type="text/css">*{stroke-linecap:butt;stroke-linejoin:round;}</style>
 </defs>
 <g id="figure_1">
  <g id="patch_1">
   <path d="M 0 325.986375 
L 898.12125 325.986375 
L 898.12125 0 
L 0 0 
z
" style="fill:#ffffff;"/>
  </g>
  <g id="axes_1">
   <g id="patch_2">
    <path d="M 53.328125 288.430125 
L 767.568125 288.430125 
L 767.568125 22.318125 
L 53.328125 22.318125 
z
" style="fill:#ffffff;"/>
   </g>
   <g id="matplotlib.axis_1">
    <g id="xtick_1">
     <g id="line2d_1">
      <defs>
       <path d="M 0 0 
L 0 3.5 
" id="m97870c1837" style="stroke:#000000;stroke-width:0.8;"/>
      </defs>
      <g>
       <use style="stroke:#000000;stroke-width:0.8;" x="85.79358" xlink:href="#m97870c1837" y="288.430125"/>
      </g>
     </g>
     <g id="text_1">
      <!-- 15m -->
      <g transform="translate(74.560767 303.028562)scale(0.1 -0.1)">
       <defs>
        <path d="M 12.40625 8.296875 
L 28.515625 8.296875 
L 28.515625 63.921875 
L 10.984375 60.40625 
L 10.984375 69.390625 
L 28.421875 72.90625 
L 38.28125 72.90625 
L 38.28125 8.296875 
L 54.390625 8.296875 
L 54.390625 0 
L 12.40625 0 
z
" id="DejaVuSans-49"/>
        <path d="M 10.796875 72.90625 
L 49.515625 72.90625 
L 49.515625 64.59375 
L 19.828125 64.59375 
L 19.828125 46.734375 
Q 21.96875 47.46875 24.109375 47.828125 
Q 26.265625 48.1875 28.421875 48.1875 
Q 40.625 48.1875 47.75 41.5 
Q 54.890625 34.8125 54.890625 23.390625 
Q 54.890625 11.625 47.5625 5.09375 
Q 40.234375 -1.421875 26.90625 -1.421875 
Q 22.3125 -1.421875 17.546875 -0.640625 
Q 12.796875 0.140625 7.71875 1.703125 
L 7.71875 11.625 
Q 12.109375 9.234375 16.796875 8.0625 
Q 21.484375 6.890625 26.703125 6.890625 
Q 35.15625 6.890625 40.078125 11.328125 
Q 45.015625 15.765625 45.015625 23.390625 
Q 45.015625 31 40.078125 35.4375 
Q 35.15625 39.890625 26.703125 39.890625 
Q 22.75 39.890625 18.8125 39.015625 
Q 14.890625 38.140625 10.796875 36.28125 
z
" id="DejaVuSans-53"/>
        <path d="M 52 44.1875 
Q 55.375 50.25 60.0625 53.125 
Q 64.75 56 71.09375 56 
Q 79.640625 56 84.28125 50.015625 
Q 88.921875 44.046875 88.921875 33.015625 
L 88.921875 0 
L 79.890625 0 
L 79.890625 32.71875 
Q 79.890625 40.578125 77.09375 44.375 
Q 74.3125 48.1875 68.609375 48.1875 
Q 61.625 48.1875 57.5625 43.546875 
Q 53.515625 38.921875 53.515625 30.90625 
L 53.515625 0 
L 44.484375 0 
L 44.484375 32.71875 
Q 44.484375 40.625 41.703125 44.40625 
Q 38.921875 48.1875 33.109375 48.1875 
Q 26.21875 48.1875 22.15625 43.53125 
Q 18.109375 38.875 18.109375 30.90625 
L 18.109375 0 
L 9.078125 0 
L 9.078125 54.6875 
L 18.109375 54.6875 
L 18.109375 46.1875 
Q 21.1875 51.21875 25.484375 53.609375 
Q 29.78125 56 35.6875 56 
Q 41.65625 56 45.828125 52.96875 
Q 50 49.953125 52 44.1875 
z
" id="DejaVuSans-109"/>
       </defs>
       <use xlink:href="#DejaVuSans-49"/>
       <use x="63.623047" xlink:href="#DejaVuSans-53"/>
       <use x="127.246094" xlink:href="#DejaVuSans-109"/>
      </g>
     </g>
    </g>
    <g id="xtick_2">
     <g id="line2d_2">
      <g>
       <use style="stroke:#000000;stroke-width:0.8;" x="140.497276" xlink:href="#m97870c1837" y="288.430125"/>
      </g>
     </g>
     <g id="text_2">
      <!-- 2h:10m -->
      <g transform="translate(121.230088 303.028562)scale(0.1 -0.1)">
       <defs>
        <path d="M 19.1875 8.296875 
L 53.609375 8.296875 
L 53.609375 0 
L 7.328125 0 
L 7.328125 8.296875 
Q 12.9375 14.109375 22.625 23.890625 
Q 32.328125 33.6875 34.8125 36.53125 
Q 39.546875 41.84375 41.421875 45.53125 
Q 43.3125 49.21875 43.3125 52.78125 
Q 43.3125 58.59375 39.234375 62.25 
Q 35.15625 65.921875 28.609375 65.921875 
Q 23.96875 65.921875 18.8125 64.3125 
Q 13.671875 62.703125 7.8125 59.421875 
L 7.8125 69.390625 
Q 13.765625 71.78125 18.9375 73 
Q 24.125 74.21875 28.421875 74.21875 
Q 39.75 74.21875 46.484375 68.546875 
Q 53.21875 62.890625 53.21875 53.421875 
Q 53.21875 48.921875 51.53125 44.890625 
Q 49.859375 40.875 45.40625 35.40625 
Q 44.1875 33.984375 37.640625 27.21875 
Q 31.109375 20.453125 19.1875 8.296875 
z
" id="DejaVuSans-50"/>
        <path d="M 54.890625 33.015625 
L 54.890625 0 
L 45.90625 0 
L 45.90625 32.71875 
Q 45.90625 40.484375 42.875 44.328125 
Q 39.84375 48.1875 33.796875 48.1875 
Q 26.515625 48.1875 22.3125 43.546875 
Q 18.109375 38.921875 18.109375 30.90625 
L 18.109375 0 
L 9.078125 0 
L 9.078125 75.984375 
L 18.109375 75.984375 
L 18.109375 46.1875 
Q 21.34375 51.125 25.703125 53.5625 
Q 30.078125 56 35.796875 56 
Q 45.21875 56 50.046875 50.171875 
Q 54.890625 44.34375 54.890625 33.015625 
z
" id="DejaVuSans-104"/>
        <path d="M 11.71875 12.40625 
L 22.015625 12.40625 
L 22.015625 0 
L 11.71875 0 
z
M 11.71875 51.703125 
L 22.015625 51.703125 
L 22.015625 39.3125 
L 11.71875 39.3125 
z
" id="DejaVuSans-58"/>
        <path d="M 31.78125 66.40625 
Q 24.171875 66.40625 20.328125 58.90625 
Q 16.5 51.421875 16.5 36.375 
Q 16.5 21.390625 20.328125 13.890625 
Q 24.171875 6.390625 31.78125 6.390625 
Q 39.453125 6.390625 43.28125 13.890625 
Q 47.125 21.390625 47.125 36.375 
Q 47.125 51.421875 43.28125 58.90625 
Q 39.453125 66.40625 31.78125 66.40625 
z
M 31.78125 74.21875 
Q 44.046875 74.21875 50.515625 64.515625 
Q 56.984375 54.828125 56.984375 36.375 
Q 56.984375 17.96875 50.515625 8.265625 
Q 44.046875 -1.421875 31.78125 -1.421875 
Q 19.53125 -1.421875 13.0625 8.265625 
Q 6.59375 17.96875 6.59375 36.375 
Q 6.59375 54.828125 13.0625 64.515625 
Q 19.53125 74.21875 31.78125 74.21875 
z
" id="DejaVuSans-48"/>
       </defs>
       <use xlink:href="#DejaVuSans-50"/>
       <use x="63.623047" xlink:href="#DejaVuSans-104"/>
       <use x="127.001953" xlink:href="#DejaVuSans-58"/>
       <use x="160.693359" xlink:href="#DejaVuSans-49"/>
       <use x="224.316406" xlink:href="#DejaVuSans-48"/>
       <use x="287.939453" xlink:href="#DejaVuSans-109"/>
      </g>
     </g>
    </g>
    <g id="xtick_3">
     <g id="line2d_3">
      <g>
       <use style="stroke:#000000;stroke-width:0.8;" x="195.200972" xlink:href="#m97870c1837" y="288.430125"/>
      </g>
     </g>
     <g id="text_3">
      <!-- 4h:5m -->
      <g transform="translate(179.115035 303.028562)scale(0.1 -0.1)">
       <defs>
        <path d="M 37.796875 64.3125 
L 12.890625 25.390625 
L 37.796875 25.390625 
z
M 35.203125 72.90625 
L 47.609375 72.90625 
L 47.609375 25.390625 
L 58.015625 25.390625 
L 58.015625 17.1875 
L 47.609375 17.1875 
L 47.609375 0 
L 37.796875 0 
L 37.796875 17.1875 
L 4.890625 17.1875 
L 4.890625 26.703125 
z
" id="DejaVuSans-52"/>
       </defs>
       <use xlink:href="#DejaVuSans-52"/>
       <use x="63.623047" xlink:href="#DejaVuSans-104"/>
       <use x="127.001953" xlink:href="#DejaVuSans-58"/>
       <use x="160.693359" xlink:href="#DejaVuSans-53"/>
       <use x="224.316406" xlink:href="#DejaVuSans-109"/>
      </g>
     </g>
    </g>
    <g id="xtick_4">
     <g id="line2d_4">
      <g>
       <use style="stroke:#000000;stroke-width:0.8;" x="249.904668" xlink:href="#m97870c1837" y="288.430125"/>
      </g>
     </g>
     <g id="text_4">
      <!-- 6h -->
      <g transform="translate(243.554668 303.028562)scale(0.1 -0.1)">
       <defs>
        <path d="M 33.015625 40.375 
Q 26.375 40.375 22.484375 35.828125 
Q 18.609375 31.296875 18.609375 23.390625 
Q 18.609375 15.53125 22.484375 10.953125 
Q 26.375 6.390625 33.015625 6.390625 
Q 39.65625 6.390625 43.53125 10.953125 
Q 47.40625 15.53125 47.40625 23.390625 
Q 47.40625 31.296875 43.53125 35.828125 
Q 39.65625 40.375 33.015625 40.375 
z
M 52.59375 71.296875 
L 52.59375 62.3125 
Q 48.875 64.0625 45.09375 64.984375 
Q 41.3125 65.921875 37.59375 65.921875 
Q 27.828125 65.921875 22.671875 59.328125 
Q 17.53125 52.734375 16.796875 39.40625 
Q 19.671875 43.65625 24.015625 45.921875 
Q 28.375 48.1875 33.59375 48.1875 
Q 44.578125 48.1875 50.953125 41.515625 
Q 57.328125 34.859375 57.328125 23.390625 
Q 57.328125 12.15625 50.6875 5.359375 
Q 44.046875 -1.421875 33.015625 -1.421875 
Q 20.359375 -1.421875 13.671875 8.265625 
Q 6.984375 17.96875 6.984375 36.375 
Q 6.984375 53.65625 15.1875 63.9375 
Q 23.390625 74.21875 37.203125 74.21875 
Q 40.921875 74.21875 44.703125 73.484375 
Q 48.484375 72.75 52.59375 71.296875 
z
" id="DejaVuSans-54"/>
       </defs>
       <use xlink:href="#DejaVuSans-54"/>
       <use x="63.623047" xlink:href="#DejaVuSans-104"/>
      </g>
     </g>
    </g>
    <g id="xtick_5">
     <g id="line2d_5">
      <g>
       <use style="stroke:#000000;stroke-width:0.8;" x="304.608365" xlink:href="#m97870c1837" y="288.430125"/>
      </g>
     </g>
     <g id="text_5">
      <!-- 7h:55m -->
      <g transform="translate(285.341177 303.028562)scale(0.1 -0.1)">
       <defs>
        <path d="M 8.203125 72.90625 
L 55.078125 72.90625 
L 55.078125 68.703125 
L 28.609375 0 
L 18.3125 0 
L 43.21875 64.59375 
L 8.203125 64.59375 
z
" id="DejaVuSans-55"/>
       </defs>
       <use xlink:href="#DejaVuSans-55"/>
       <use x="63.623047" xlink:href="#DejaVuSans-104"/>
       <use x="127.001953" xlink:href="#DejaVuSans-58"/>
       <use x="160.693359" xlink:href="#DejaVuSans-53"/>
       <use x="224.316406" xlink:href="#DejaVuSans-53"/>
       <use x="287.939453" xlink:href="#DejaVuSans-109"/>
      </g>
     </g>
    </g>
    <g id="xtick_6">
     <g id="line2d_6">
      <g>
       <use style="stroke:#000000;stroke-width:0.8;" x="359.312061" xlink:href="#m97870c1837" y="288.430125"/>
      </g>
     </g>
     <g id="text_6">
      <!-- 9h:50m -->
      <g transform="translate(340.044874 303.028562)scale(0.1 -0.1)">
       <defs>
        <path d="M 10.984375 1.515625 
L 10.984375 10.5 
Q 14.703125 8.734375 18.5 7.8125 
Q 22.3125 6.890625 25.984375 6.890625 
Q 35.75 6.890625 40.890625 13.453125 
Q 46.046875 20.015625 46.78125 33.40625 
Q 43.953125 29.203125 39.59375 26.953125 
Q 35.25 24.703125 29.984375 24.703125 
Q 19.046875 24.703125 12.671875 31.3125 
Q 6.296875 37.9375 6.296875 49.421875 
Q 6.296875 60.640625 12.9375 67.421875 
Q 19.578125 74.21875 30.609375 74.21875 
Q 43.265625 74.21875 49.921875 64.515625 
Q 56.59375 54.828125 56.59375 36.375 
Q 56.59375 19.140625 48.40625 8.859375 
Q 40.234375 -1.421875 26.421875 -1.421875 
Q 22.703125 -1.421875 18.890625 -0.6875 
Q 15.09375 0.046875 10.984375 1.515625 
z
M 30.609375 32.421875 
Q 37.25 32.421875 41.125 36.953125 
Q 45.015625 41.5 45.015625 49.421875 
Q 45.015625 57.28125 41.125 61.84375 
Q 37.25 66.40625 30.609375 66.40625 
Q 23.96875 66.40625 20.09375 61.84375 
Q 16.21875 57.28125 16.21875 49.421875 
Q 16.21875 41.5 20.09375 36.953125 
Q 23.96875 32.421875 30.609375 32.421875 
z
" id="DejaVuSans-57"/>
       </defs>
       <use xlink:href="#DejaVuSans-57"/>
       <use x="63.623047" xlink:href="#DejaVuSans-104"/>
       <use x="127.001953" xlink:href="#DejaVuSans-58"/>
       <use x="160.693359" xlink:href="#DejaVuSans-53"/>
       <use x="224.316406" xlink:href="#DejaVuSans-48"/>
       <use x="287.939453" xlink:href="#DejaVuSans-109"/>
      </g>
     </g>
    </g>
    <g id="xtick_7">
     <g id="line2d_7">
      <g>
       <use style="stroke:#000000;stroke-width:0.8;" x="414.015757" xlink:href="#m97870c1837" y="288.430125"/>
      </g>
     </g>
     <g id="text_7">
      <!-- 11h:45m -->
      <g transform="translate(391.56732 303.028562)scale(0.1 -0.1)">
       <use xlink:href="#DejaVuSans-49"/>
       <use x="63.623047" xlink:href="#DejaVuSans-49"/>
       <use x="127.246094" xlink:href="#DejaVuSans-104"/>
       <use x="190.625" xlink:href="#DejaVuSans-58"/>
       <use x="224.316406" xlink:href="#DejaVuSans-52"/>
       <use x="287.939453" xlink:href="#DejaVuSans-53"/>
       <use x="351.5625" xlink:href="#DejaVuSans-109"/>
      </g>
     </g>
    </g>
    <g id="xtick_8">
     <g id="line2d_8">
      <g>
       <use style="stroke:#000000;stroke-width:0.8;" x="468.719454" xlink:href="#m97870c1837" y="288.430125"/>
      </g>
     </g>
     <g id="text_8">
      <!-- 13h:40m -->
      <g transform="translate(446.271016 303.028562)scale(0.1 -0.1)">
       <defs>
        <path d="M 40.578125 39.3125 
Q 47.65625 37.796875 51.625 33 
Q 55.609375 28.21875 55.609375 21.1875 
Q 55.609375 10.40625 48.1875 4.484375 
Q 40.765625 -1.421875 27.09375 -1.421875 
Q 22.515625 -1.421875 17.65625 -0.515625 
Q 12.796875 0.390625 7.625 2.203125 
L 7.625 11.71875 
Q 11.71875 9.328125 16.59375 8.109375 
Q 21.484375 6.890625 26.8125 6.890625 
Q 36.078125 6.890625 40.9375 10.546875 
Q 45.796875 14.203125 45.796875 21.1875 
Q 45.796875 27.640625 41.28125 31.265625 
Q 36.765625 34.90625 28.71875 34.90625 
L 20.21875 34.90625 
L 20.21875 43.015625 
L 29.109375 43.015625 
Q 36.375 43.015625 40.234375 45.921875 
Q 44.09375 48.828125 44.09375 54.296875 
Q 44.09375 59.90625 40.109375 62.90625 
Q 36.140625 65.921875 28.71875 65.921875 
Q 24.65625 65.921875 20.015625 65.03125 
Q 15.375 64.15625 9.8125 62.3125 
L 9.8125 71.09375 
Q 15.4375 72.65625 20.34375 73.4375 
Q 25.25 74.21875 29.59375 74.21875 
Q 40.828125 74.21875 47.359375 69.109375 
Q 53.90625 64.015625 53.90625 55.328125 
Q 53.90625 49.265625 50.4375 45.09375 
Q 46.96875 40.921875 40.578125 39.3125 
z
" id="DejaVuSans-51"/>
       </defs>
       <use xlink:href="#DejaVuSans-49"/>
       <use x="63.623047" xlink:href="#DejaVuSans-51"/>
       <use x="127.246094" xlink:href="#DejaVuSans-104"/>
       <use x="190.625" xlink:href="#DejaVuSans-58"/>
       <use x="224.316406" xlink:href="#DejaVuSans-52"/>
       <use x="287.939453" xlink:href="#DejaVuSans-48"/>
       <use x="351.5625" xlink:href="#DejaVuSans-109"/>
      </g>
     </g>
    </g>
    <g id="xtick_9">
     <g id="line2d_9">
      <g>
       <use style="stroke:#000000;stroke-width:0.8;" x="523.42315" xlink:href="#m97870c1837" y="288.430125"/>
      </g>
     </g>
     <g id="text_9">
      <!-- 15h:35m -->
      <g transform="translate(500.974712 303.028562)scale(0.1 -0.1)">
       <use xlink:href="#DejaVuSans-49"/>
       <use x="63.623047" xlink:href="#DejaVuSans-53"/>
       <use x="127.246094" xlink:href="#DejaVuSans-104"/>
       <use x="190.625" xlink:href="#DejaVuSans-58"/>
       <use x="224.316406" xlink:href="#DejaVuSans-51"/>
       <use x="287.939453" xlink:href="#DejaVuSans-53"/>
       <use x="351.5625" xlink:href="#DejaVuSans-109"/>
      </g>
     </g>
    </g>
    <g id="xtick_10">
     <g id="line2d_10">
      <g>
       <use style="stroke:#000000;stroke-width:0.8;" x="578.126846" xlink:href="#m97870c1837" y="288.430125"/>
      </g>
     </g>
     <g id="text_10">
      <!-- 17h:30m -->
      <g transform="translate(555.678409 303.028562)scale(0.1 -0.1)">
       <use xlink:href="#DejaVuSans-49"/>
       <use x="63.623047" xlink:href="#DejaVuSans-55"/>
       <use x="127.246094" xlink:href="#DejaVuSans-104"/>
       <use x="190.625" xlink:href="#DejaVuSans-58"/>
       <use x="224.316406" xlink:href="#DejaVuSans-51"/>
       <use x="287.939453" xlink:href="#DejaVuSans-48"/>
       <use x="351.5625" xlink:href="#DejaVuSans-109"/>
      </g>
     </g>
    </g>
    <g id="xtick_11">
     <g id="line2d_11">
      <g>
       <use style="stroke:#000000;stroke-width:0.8;" x="632.830543" xlink:href="#m97870c1837" y="288.430125"/>
      </g>
     </g>
     <g id="text_11">
      <!-- 19h:25m -->
      <g transform="translate(610.382105 303.028562)scale(0.1 -0.1)">
       <use xlink:href="#DejaVuSans-49"/>
       <use x="63.623047" xlink:href="#DejaVuSans-57"/>
       <use x="127.246094" xlink:href="#DejaVuSans-104"/>
       <use x="190.625" xlink:href="#DejaVuSans-58"/>
       <use x="224.316406" xlink:href="#DejaVuSans-50"/>
       <use x="287.939453" xlink:href="#DejaVuSans-53"/>
       <use x="351.5625" xlink:href="#DejaVuSans-109"/>
      </g>
     </g>
    </g>
    <g id="xtick_12">
     <g id="line2d_12">
      <g>
       <use style="stroke:#000000;stroke-width:0.8;" x="687.534239" xlink:href="#m97870c1837" y="288.430125"/>
      </g>
     </g>
     <g id="text_12">
      <!-- 21h:20m -->
      <g transform="translate(665.085801 303.028562)scale(0.1 -0.1)">
       <use xlink:href="#DejaVuSans-50"/>
       <use x="63.623047" xlink:href="#DejaVuSans-49"/>
       <use x="127.246094" xlink:href="#DejaVuSans-104"/>
       <use x="190.625" xlink:href="#DejaVuSans-58"/>
       <use x="224.316406" xlink:href="#DejaVuSans-50"/>
       <use x="287.939453" xlink:href="#DejaVuSans-48"/>
       <use x="351.5625" xlink:href="#DejaVuSans-109"/>
      </g>
     </g>
    </g>
    <g id="text_13">
     <!-- Time (hour:minute) -->
     <g transform="translate(362.041094 316.706687)scale(0.1 -0.1)">
      <defs>
       <path d="M -0.296875 72.90625 
L 61.375 72.90625 
L 61.375 64.59375 
L 35.5 64.59375 
L 35.5 0 
L 25.59375 0 
L 25.59375 64.59375 
L -0.296875 64.59375 
z
" id="DejaVuSans-84"/>
       <path d="M 9.421875 54.6875 
L 18.40625 54.6875 
L 18.40625 0 
L 9.421875 0 
z
M 9.421875 75.984375 
L 18.40625 75.984375 
L 18.40625 64.59375 
L 9.421875 64.59375 
z
" id="DejaVuSans-105"/>
       <path d="M 56.203125 29.59375 
L 56.203125 25.203125 
L 14.890625 25.203125 
Q 15.484375 15.921875 20.484375 11.0625 
Q 25.484375 6.203125 34.421875 6.203125 
Q 39.59375 6.203125 44.453125 7.46875 
Q 49.3125 8.734375 54.109375 11.28125 
L 54.109375 2.78125 
Q 49.265625 0.734375 44.1875 -0.34375 
Q 39.109375 -1.421875 33.890625 -1.421875 
Q 20.796875 -1.421875 13.15625 6.1875 
Q 5.515625 13.8125 5.515625 26.8125 
Q 5.515625 40.234375 12.765625 48.109375 
Q 20.015625 56 32.328125 56 
Q 43.359375 56 49.78125 48.890625 
Q 56.203125 41.796875 56.203125 29.59375 
z
M 47.21875 32.234375 
Q 47.125 39.59375 43.09375 43.984375 
Q 39.0625 48.390625 32.421875 48.390625 
Q 24.90625 48.390625 20.390625 44.140625 
Q 15.875 39.890625 15.1875 32.171875 
z
" id="DejaVuSans-101"/>
       <path id="DejaVuSans-32"/>
       <path d="M 31 75.875 
Q 24.46875 64.65625 21.28125 53.65625 
Q 18.109375 42.671875 18.109375 31.390625 
Q 18.109375 20.125 21.3125 9.0625 
Q 24.515625 -2 31 -13.1875 
L 23.1875 -13.1875 
Q 15.875 -1.703125 12.234375 9.375 
Q 8.59375 20.453125 8.59375 31.390625 
Q 8.59375 42.28125 12.203125 53.3125 
Q 15.828125 64.359375 23.1875 75.875 
z
" id="DejaVuSans-40"/>
       <path d="M 30.609375 48.390625 
Q 23.390625 48.390625 19.1875 42.75 
Q 14.984375 37.109375 14.984375 27.296875 
Q 14.984375 17.484375 19.15625 11.84375 
Q 23.34375 6.203125 30.609375 6.203125 
Q 37.796875 6.203125 41.984375 11.859375 
Q 46.1875 17.53125 46.1875 27.296875 
Q 46.1875 37.015625 41.984375 42.703125 
Q 37.796875 48.390625 30.609375 48.390625 
z
M 30.609375 56 
Q 42.328125 56 49.015625 48.375 
Q 55.71875 40.765625 55.71875 27.296875 
Q 55.71875 13.875 49.015625 6.21875 
Q 42.328125 -1.421875 30.609375 -1.421875 
Q 18.84375 -1.421875 12.171875 6.21875 
Q 5.515625 13.875 5.515625 27.296875 
Q 5.515625 40.765625 12.171875 48.375 
Q 18.84375 56 30.609375 56 
z
" id="DejaVuSans-111"/>
       <path d="M 8.5 21.578125 
L 8.5 54.6875 
L 17.484375 54.6875 
L 17.484375 21.921875 
Q 17.484375 14.15625 20.5 10.265625 
Q 23.53125 6.390625 29.59375 6.390625 
Q 36.859375 6.390625 41.078125 11.03125 
Q 45.3125 15.671875 45.3125 23.6875 
L 45.3125 54.6875 
L 54.296875 54.6875 
L 54.296875 0 
L 45.3125 0 
L 45.3125 8.40625 
Q 42.046875 3.421875 37.71875 1 
Q 33.40625 -1.421875 27.6875 -1.421875 
Q 18.265625 -1.421875 13.375 4.4375 
Q 8.5 10.296875 8.5 21.578125 
z
M 31.109375 56 
z
" id="DejaVuSans-117"/>
       <path d="M 41.109375 46.296875 
Q 39.59375 47.171875 37.8125 47.578125 
Q 36.03125 48 33.890625 48 
Q 26.265625 48 22.1875 43.046875 
Q 18.109375 38.09375 18.109375 28.8125 
L 18.109375 0 
L 9.078125 0 
L 9.078125 54.6875 
L 18.109375 54.6875 
L 18.109375 46.1875 
Q 20.953125 51.171875 25.484375 53.578125 
Q 30.03125 56 36.53125 56 
Q 37.453125 56 38.578125 55.875 
Q 39.703125 55.765625 41.0625 55.515625 
z
" id="DejaVuSans-114"/>
       <path d="M 54.890625 33.015625 
L 54.890625 0 
L 45.90625 0 
L 45.90625 32.71875 
Q 45.90625 40.484375 42.875 44.328125 
Q 39.84375 48.1875 33.796875 48.1875 
Q 26.515625 48.1875 22.3125 43.546875 
Q 18.109375 38.921875 18.109375 30.90625 
L 18.109375 0 
L 9.078125 0 
L 9.078125 54.6875 
L 18.109375 54.6875 
L 18.109375 46.1875 
Q 21.34375 51.125 25.703125 53.5625 
Q 30.078125 56 35.796875 56 
Q 45.21875 56 50.046875 50.171875 
Q 54.890625 44.34375 54.890625 33.015625 
z
" id="DejaVuSans-110"/>
       <path d="M 18.3125 70.21875 
L 18.3125 54.6875 
L 36.8125 54.6875 
L 36.8125 47.703125 
L 18.3125 47.703125 
L 18.3125 18.015625 
Q 18.3125 11.328125 20.140625 9.421875 
Q 21.96875 7.515625 27.59375 7.515625 
L 36.8125 7.515625 
L 36.8125 0 
L 27.59375 0 
Q 17.1875 0 13.234375 3.875 
Q 9.28125 7.765625 9.28125 18.015625 
L 9.28125 47.703125 
L 2.6875 47.703125 
L 2.6875 54.6875 
L 9.28125 54.6875 
L 9.28125 70.21875 
z
" id="DejaVuSans-116"/>
       <path d="M 8.015625 75.875 
L 15.828125 75.875 
Q 23.140625 64.359375 26.78125 53.3125 
Q 30.421875 42.28125 30.421875 31.390625 
Q 30.421875 20.453125 26.78125 9.375 
Q 23.140625 -1.703125 15.828125 -13.1875 
L 8.015625 -13.1875 
Q 14.5 -2 17.703125 9.0625 
Q 20.90625 20.125 20.90625 31.390625 
Q 20.90625 42.671875 17.703125 53.65625 
Q 14.5 64.65625 8.015625 75.875 
z
" id="DejaVuSans-41"/>
      </defs>
      <use xlink:href="#DejaVuSans-84"/>
      <use x="57.958984" xlink:href="#DejaVuSans-105"/>
      <use x="85.742188" xlink:href="#DejaVuSans-109"/>
      <use x="183.154297" xlink:href="#DejaVuSans-101"/>
      <use x="244.677734" xlink:href="#DejaVuSans-32"/>
      <use x="276.464844" xlink:href="#DejaVuSans-40"/>
      <use x="315.478516" xlink:href="#DejaVuSans-104"/>
      <use x="378.857422" xlink:href="#DejaVuSans-111"/>
      <use x="440.039062" xlink:href="#DejaVuSans-117"/>
      <use x="503.417969" xlink:href="#DejaVuSans-114"/>
      <use x="542.78125" xlink:href="#DejaVuSans-58"/>
      <use x="576.472656" xlink:href="#DejaVuSans-109"/>
      <use x="673.884766" xlink:href="#DejaVuSans-105"/>
      <use x="701.667969" xlink:href="#DejaVuSans-110"/>
      <use x="765.046875" xlink:href="#DejaVuSans-117"/>
      <use x="828.425781" xlink:href="#DejaVuSans-116"/>
      <use x="867.634766" xlink:href="#DejaVuSans-101"/>
      <use x="929.158203" xlink:href="#DejaVuSans-41"/>
     </g>
    </g>
   </g>
   <g id="matplotlib.axis_2">
    <g id="ytick_1">
     <g id="line2d_13">
      <defs>
       <path d="M 0 0 
L -3.5 0 
" id="mc0caece062" style="stroke:#000000;stroke-width:0.8;"/>
      </defs>
      <g>
       <use style="stroke:#000000;stroke-width:0.8;" x="53.328125" xlink:href="#mc0caece062" y="266.970624"/>
      </g>
     </g>
     <g id="text_14">
      <!-- 7600 -->
      <g transform="translate(20.878125 270.769842)scale(0.1 -0.1)">
       <use xlink:href="#DejaVuSans-55"/>
       <use x="63.623047" xlink:href="#DejaVuSans-54"/>
       <use x="127.246094" xlink:href="#DejaVuSans-48"/>
       <use x="190.869141" xlink:href="#DejaVuSans-48"/>
      </g>
     </g>
    </g>
    <g id="ytick_2">
     <g id="line2d_14">
      <g>
       <use style="stroke:#000000;stroke-width:0.8;" x="53.328125" xlink:href="#mc0caece062" y="234.738261"/>
      </g>
     </g>
     <g id="text_15">
      <!-- 7700 -->
      <g transform="translate(20.878125 238.537479)scale(0.1 -0.1)">
       <use xlink:href="#DejaVuSans-55"/>
       <use x="63.623047" xlink:href="#DejaVuSans-55"/>
       <use x="127.246094" xlink:href="#DejaVuSans-48"/>
       <use x="190.869141" xlink:href="#DejaVuSans-48"/>
      </g>
     </g>
    </g>
    <g id="ytick_3">
     <g id="line2d_15">
      <g>
       <use style="stroke:#000000;stroke-width:0.8;" x="53.328125" xlink:href="#mc0caece062" y="202.505898"/>
      </g>
     </g>
     <g id="text_16">
      <!-- 7800 -->
      <g transform="translate(20.878125 206.305116)scale(0.1 -0.1)">
       <defs>
        <path d="M 31.78125 34.625 
Q 24.75 34.625 20.71875 30.859375 
Q 16.703125 27.09375 16.703125 20.515625 
Q 16.703125 13.921875 20.71875 10.15625 
Q 24.75 6.390625 31.78125 6.390625 
Q 38.8125 6.390625 42.859375 10.171875 
Q 46.921875 13.96875 46.921875 20.515625 
Q 46.921875 27.09375 42.890625 30.859375 
Q 38.875 34.625 31.78125 34.625 
z
M 21.921875 38.8125 
Q 15.578125 40.375 12.03125 44.71875 
Q 8.5 49.078125 8.5 55.328125 
Q 8.5 64.0625 14.71875 69.140625 
Q 20.953125 74.21875 31.78125 74.21875 
Q 42.671875 74.21875 48.875 69.140625 
Q 55.078125 64.0625 55.078125 55.328125 
Q 55.078125 49.078125 51.53125 44.71875 
Q 48 40.375 41.703125 38.8125 
Q 48.828125 37.15625 52.796875 32.3125 
Q 56.78125 27.484375 56.78125 20.515625 
Q 56.78125 9.90625 50.3125 4.234375 
Q 43.84375 -1.421875 31.78125 -1.421875 
Q 19.734375 -1.421875 13.25 4.234375 
Q 6.78125 9.90625 6.78125 20.515625 
Q 6.78125 27.484375 10.78125 32.3125 
Q 14.796875 37.15625 21.921875 38.8125 
z
M 18.3125 54.390625 
Q 18.3125 48.734375 21.84375 45.5625 
Q 25.390625 42.390625 31.78125 42.390625 
Q 38.140625 42.390625 41.71875 45.5625 
Q 45.3125 48.734375 45.3125 54.390625 
Q 45.3125 60.0625 41.71875 63.234375 
Q 38.140625 66.40625 31.78125 66.40625 
Q 25.390625 66.40625 21.84375 63.234375 
Q 18.3125 60.0625 18.3125 54.390625 
z
" id="DejaVuSans-56"/>
       </defs>
       <use xlink:href="#DejaVuSans-55"/>
       <use x="63.623047" xlink:href="#DejaVuSans-56"/>
       <use x="127.246094" xlink:href="#DejaVuSans-48"/>
       <use x="190.869141" xlink:href="#DejaVuSans-48"/>
      </g>
     </g>
    </g>
    <g id="ytick_4">
     <g id="line2d_16">
      <g>
       <use style="stroke:#000000;stroke-width:0.8;" x="53.328125" xlink:href="#mc0caece062" y="170.273535"/>
      </g>
     </g>
     <g id="text_17">
      <!-- 7900 -->
      <g transform="translate(20.878125 174.072754)scale(0.1 -0.1)">
       <use xlink:href="#DejaVuSans-55"/>
       <use x="63.623047" xlink:href="#DejaVuSans-57"/>
       <use x="127.246094" xlink:href="#DejaVuSans-48"/>
       <use x="190.869141" xlink:href="#DejaVuSans-48"/>
      </g>
     </g>
    </g>
    <g id="ytick_5">
     <g id="line2d_17">
      <g>
       <use style="stroke:#000000;stroke-width:0.8;" x="53.328125" xlink:href="#mc0caece062" y="138.041172"/>
      </g>
     </g>
     <g id="text_18">
      <!-- 8000 -->
      <g transform="translate(20.878125 141.840391)scale(0.1 -0.1)">
       <use xlink:href="#DejaVuSans-56"/>
       <use x="63.623047" xlink:href="#DejaVuSans-48"/>
       <use x="127.246094" xlink:href="#DejaVuSans-48"/>
       <use x="190.869141" xlink:href="#DejaVuSans-48"/>
      </g>
     </g>
    </g>
    <g id="ytick_6">
     <g id="line2d_18">
      <g>
       <use style="stroke:#000000;stroke-width:0.8;" x="53.328125" xlink:href="#mc0caece062" y="105.808809"/>
      </g>
     </g>
     <g id="text_19">
      <!-- 8100 -->
      <g transform="translate(20.878125 109.608028)scale(0.1 -0.1)">
       <use xlink:href="#DejaVuSans-56"/>
       <use x="63.623047" xlink:href="#DejaVuSans-49"/>
       <use x="127.246094" xlink:href="#DejaVuSans-48"/>
       <use x="190.869141" xlink:href="#DejaVuSans-48"/>
      </g>
     </g>
    </g>
    <g id="ytick_7">
     <g id="line2d_19">
      <g>
       <use style="stroke:#000000;stroke-width:0.8;" x="53.328125" xlink:href="#mc0caece062" y="73.576446"/>
      </g>
     </g>
     <g id="text_20">
      <!-- 8200 -->
      <g transform="translate(20.878125 77.375665)scale(0.1 -0.1)">
       <use xlink:href="#DejaVuSans-56"/>
       <use x="63.623047" xlink:href="#DejaVuSans-50"/>
       <use x="127.246094" xlink:href="#DejaVuSans-48"/>
       <use x="190.869141" xlink:href="#DejaVuSans-48"/>
      </g>
     </g>
    </g>
    <g id="ytick_8">
     <g id="line2d_20">
      <g>
       <use style="stroke:#000000;stroke-width:0.8;" x="53.328125" xlink:href="#mc0caece062" y="41.344083"/>
      </g>
     </g>
     <g id="text_21">
      <!-- 8300 -->
      <g transform="translate(20.878125 45.143302)scale(0.1 -0.1)">
       <use xlink:href="#DejaVuSans-56"/>
       <use x="63.623047" xlink:href="#DejaVuSans-51"/>
       <use x="127.246094" xlink:href="#DejaVuSans-48"/>
       <use x="190.869141" xlink:href="#DejaVuSans-48"/>
      </g>
     </g>
    </g>
    <g id="text_22">
     <!-- Edge coverage -->
     <g transform="translate(14.798438 192.762406)rotate(-90)scale(0.1 -0.1)">
      <defs>
       <path d="M 9.8125 72.90625 
L 55.90625 72.90625 
L 55.90625 64.59375 
L 19.671875 64.59375 
L 19.671875 43.015625 
L 54.390625 43.015625 
L 54.390625 34.71875 
L 19.671875 34.71875 
L 19.671875 8.296875 
L 56.78125 8.296875 
L 56.78125 0 
L 9.8125 0 
z
" id="DejaVuSans-69"/>
       <path d="M 45.40625 46.390625 
L 45.40625 75.984375 
L 54.390625 75.984375 
L 54.390625 0 
L 45.40625 0 
L 45.40625 8.203125 
Q 42.578125 3.328125 38.25 0.953125 
Q 33.9375 -1.421875 27.875 -1.421875 
Q 17.96875 -1.421875 11.734375 6.484375 
Q 5.515625 14.40625 5.515625 27.296875 
Q 5.515625 40.1875 11.734375 48.09375 
Q 17.96875 56 27.875 56 
Q 33.9375 56 38.25 53.625 
Q 42.578125 51.265625 45.40625 46.390625 
z
M 14.796875 27.296875 
Q 14.796875 17.390625 18.875 11.75 
Q 22.953125 6.109375 30.078125 6.109375 
Q 37.203125 6.109375 41.296875 11.75 
Q 45.40625 17.390625 45.40625 27.296875 
Q 45.40625 37.203125 41.296875 42.84375 
Q 37.203125 48.484375 30.078125 48.484375 
Q 22.953125 48.484375 18.875 42.84375 
Q 14.796875 37.203125 14.796875 27.296875 
z
" id="DejaVuSans-100"/>
       <path d="M 45.40625 27.984375 
Q 45.40625 37.75 41.375 43.109375 
Q 37.359375 48.484375 30.078125 48.484375 
Q 22.859375 48.484375 18.828125 43.109375 
Q 14.796875 37.75 14.796875 27.984375 
Q 14.796875 18.265625 18.828125 12.890625 
Q 22.859375 7.515625 30.078125 7.515625 
Q 37.359375 7.515625 41.375 12.890625 
Q 45.40625 18.265625 45.40625 27.984375 
z
M 54.390625 6.78125 
Q 54.390625 -7.171875 48.1875 -13.984375 
Q 42 -20.796875 29.203125 -20.796875 
Q 24.46875 -20.796875 20.265625 -20.09375 
Q 16.0625 -19.390625 12.109375 -17.921875 
L 12.109375 -9.1875 
Q 16.0625 -11.328125 19.921875 -12.34375 
Q 23.78125 -13.375 27.78125 -13.375 
Q 36.625 -13.375 41.015625 -8.765625 
Q 45.40625 -4.15625 45.40625 5.171875 
L 45.40625 9.625 
Q 42.625 4.78125 38.28125 2.390625 
Q 33.9375 0 27.875 0 
Q 17.828125 0 11.671875 7.65625 
Q 5.515625 15.328125 5.515625 27.984375 
Q 5.515625 40.671875 11.671875 48.328125 
Q 17.828125 56 27.875 56 
Q 33.9375 56 38.28125 53.609375 
Q 42.625 51.21875 45.40625 46.390625 
L 45.40625 54.6875 
L 54.390625 54.6875 
z
" id="DejaVuSans-103"/>
       <path d="M 48.78125 52.59375 
L 48.78125 44.1875 
Q 44.96875 46.296875 41.140625 47.34375 
Q 37.3125 48.390625 33.40625 48.390625 
Q 24.65625 48.390625 19.8125 42.84375 
Q 14.984375 37.3125 14.984375 27.296875 
Q 14.984375 17.28125 19.8125 11.734375 
Q 24.65625 6.203125 33.40625 6.203125 
Q 37.3125 6.203125 41.140625 7.25 
Q 44.96875 8.296875 48.78125 10.40625 
L 48.78125 2.09375 
Q 45.015625 0.34375 40.984375 -0.53125 
Q 36.96875 -1.421875 32.421875 -1.421875 
Q 20.0625 -1.421875 12.78125 6.34375 
Q 5.515625 14.109375 5.515625 27.296875 
Q 5.515625 40.671875 12.859375 48.328125 
Q 20.21875 56 33.015625 56 
Q 37.15625 56 41.109375 55.140625 
Q 45.0625 54.296875 48.78125 52.59375 
z
" id="DejaVuSans-99"/>
       <path d="M 2.984375 54.6875 
L 12.5 54.6875 
L 29.59375 8.796875 
L 46.6875 54.6875 
L 56.203125 54.6875 
L 35.6875 0 
L 23.484375 0 
z
" id="DejaVuSans-118"/>
       <path d="M 34.28125 27.484375 
Q 23.390625 27.484375 19.1875 25 
Q 14.984375 22.515625 14.984375 16.5 
Q 14.984375 11.71875 18.140625 8.90625 
Q 21.296875 6.109375 26.703125 6.109375 
Q 34.1875 6.109375 38.703125 11.40625 
Q 43.21875 16.703125 43.21875 25.484375 
L 43.21875 27.484375 
z
M 52.203125 31.203125 
L 52.203125 0 
L 43.21875 0 
L 43.21875 8.296875 
Q 40.140625 3.328125 35.546875 0.953125 
Q 30.953125 -1.421875 24.3125 -1.421875 
Q 15.921875 -1.421875 10.953125 3.296875 
Q 6 8.015625 6 15.921875 
Q 6 25.140625 12.171875 29.828125 
Q 18.359375 34.515625 30.609375 34.515625 
L 43.21875 34.515625 
L 43.21875 35.40625 
Q 43.21875 41.609375 39.140625 45 
Q 35.0625 48.390625 27.6875 48.390625 
Q 23 48.390625 18.546875 47.265625 
Q 14.109375 46.140625 10.015625 43.890625 
L 10.015625 52.203125 
Q 14.9375 54.109375 19.578125 55.046875 
Q 24.21875 56 28.609375 56 
Q 40.484375 56 46.34375 49.84375 
Q 52.203125 43.703125 52.203125 31.203125 
z
" id="DejaVuSans-97"/>
      </defs>
      <use xlink:href="#DejaVuSans-69"/>
      <use x="63.183594" xlink:href="#DejaVuSans-100"/>
      <use x="126.660156" xlink:href="#DejaVuSans-103"/>
      <use x="190.136719" xlink:href="#DejaVuSans-101"/>
      <use x="251.660156" xlink:href="#DejaVuSans-32"/>
      <use x="283.447266" xlink:href="#DejaVuSans-99"/>
      <use x="338.427734" xlink:href="#DejaVuSans-111"/>
      <use x="399.609375" xlink:href="#DejaVuSans-118"/>
      <use x="458.789062" xlink:href="#DejaVuSans-101"/>
      <use x="520.3125" xlink:href="#DejaVuSans-114"/>
      <use x="561.425781" xlink:href="#DejaVuSans-97"/>
      <use x="622.705078" xlink:href="#DejaVuSans-103"/>
      <use x="686.181641" xlink:href="#DejaVuSans-101"/>
     </g>
    </g>
   </g>
   <g id="line2d_21">
    <path clip-path="url(#pc491dc878f)" d="M 85.79358 208.275491 
L 92.928844 171.723991 
L 100.064109 157.219428 
L 107.199374 150.273354 
L 114.334638 140.958201 
L 121.469903 132.867878 
L 128.605168 128.822716 
L 135.740433 123.182053 
L 142.875697 117.62197 
L 150.010962 91.868312 
L 157.146227 87.984312 
L 164.281492 82.440346 
L 171.416756 80.167964 
L 178.552021 77.573259 
L 185.687286 72.67394 
L 192.822551 71.304064 
L 199.957815 70.852811 
L 207.09308 67.758504 
L 214.228345 66.582023 
L 221.36361 64.938173 
L 228.498874 63.987318 
L 235.634139 63.294322 
L 242.769404 63.13316 
L 249.904668 62.601326 
L 257.039933 61.843866 
L 264.175198 61.440961 
L 271.310463 59.990505 
L 278.445727 58.878488 
L 285.580992 57.573078 
L 292.716257 57.315219 
L 299.851522 56.686688 
L 306.986786 54.994489 
L 314.122051 53.72131 
L 321.257316 51.352232 
L 328.392581 49.611684 
L 335.527845 49.498871 
L 342.66311 49.273244 
L 349.798375 49.144315 
L 356.933639 48.693062 
L 364.068904 48.112879 
L 371.204169 47.30707 
L 378.339434 47.210373 
L 385.474698 46.678539 
L 392.609963 46.54961 
L 399.745228 46.517377 
L 406.880493 45.260315 
L 414.015757 45.018572 
L 421.151022 44.857411 
L 428.286287 42.891236 
L 435.421552 42.601145 
L 442.556816 42.504448 
L 449.692081 42.423867 
L 456.827346 42.423867 
L 463.962611 42.278822 
L 471.097875 42.278822 
L 478.23314 42.230473 
L 485.368405 42.069311 
L 492.503669 42.069311 
L 499.638934 42.069311 
L 506.774199 41.827568 
L 513.909464 41.795336 
L 521.044728 41.795336 
L 528.179993 41.601942 
L 535.315258 41.118456 
L 542.450523 41.005643 
L 549.585787 40.989527 
L 556.721052 40.844481 
L 563.856317 40.296531 
L 570.991582 40.296531 
L 578.126846 40.296531 
L 585.262111 40.248183 
L 592.397376 40.087021 
L 599.53264 39.893627 
L 606.667905 39.506838 
L 613.80317 39.506838 
L 620.938435 38.975004 
L 628.073699 38.862191 
L 635.208964 36.444764 
L 642.344229 36.12244 
L 649.479494 36.090208 
L 656.614758 36.090208 
L 663.750023 35.929046 
L 670.885288 35.929046 
L 678.020553 35.767884 
L 685.155817 35.542258 
L 692.291082 35.381096 
L 699.426347 35.02654 
L 706.561612 35.02654 
L 713.696876 34.81703 
L 720.832141 34.81703 
L 727.967406 34.655868 
L 735.10267 34.414125 
" style="fill:none;stroke:#ff9896;stroke-linecap:square;stroke-width:1.5;"/>
   </g>
   <g id="line2d_22">
    <path clip-path="url(#pc491dc878f)" d="M 85.79358 236.220949 
L 92.928844 189.983625 
L 100.064109 168.661917 
L 107.199374 155.382183 
L 114.334638 144.326483 
L 121.469903 132.255463 
L 128.605168 127.597886 
L 135.740433 123.101472 
L 142.875697 117.702551 
L 150.010962 111.513937 
L 157.146227 107.243149 
L 164.281492 105.76046 
L 171.416756 104.438933 
L 178.552021 103.197988 
L 185.687286 101.860344 
L 192.822551 99.265639 
L 199.957815 98.314785 
L 207.09308 94.930386 
L 214.228345 94.398552 
L 221.36361 94.221274 
L 228.498874 93.624976 
L 235.634139 93.27042 
L 242.769404 92.496843 
L 249.904668 92.271216 
L 257.039933 89.72486 
L 264.175198 89.209142 
L 271.310463 88.919051 
L 278.445727 88.83847 
L 285.580992 88.354984 
L 292.716257 88.322752 
L 299.851522 88.242171 
L 306.986786 87.130155 
L 314.122051 86.920644 
L 321.257316 85.002819 
L 328.392581 84.922238 
L 335.527845 84.422636 
L 342.66311 84.213126 
L 349.798375 84.06808 
L 356.933639 83.745756 
L 364.068904 83.697408 
L 371.204169 83.52013 
L 378.339434 83.439549 
L 385.474698 83.278387 
L 392.609963 82.923831 
L 399.745228 82.891599 
L 406.880493 82.762669 
L 414.015757 81.489491 
L 421.151022 81.183284 
L 428.286287 80.055151 
L 435.421552 79.797292 
L 442.556816 79.603898 
L 449.692081 79.08818 
L 456.827346 52.915501 
L 463.962611 52.238622 
L 471.097875 51.851833 
L 478.23314 51.223302 
L 485.368405 51.046024 
L 492.503669 50.610887 
L 499.638934 50.256331 
L 506.774199 50.159634 
L 513.909464 50.079053 
L 521.044728 49.998472 
L 528.179993 49.869543 
L 535.315258 49.869543 
L 542.450523 49.869543 
L 549.585787 49.869543 
L 556.721052 49.869543 
L 563.856317 49.676149 
L 570.991582 49.482755 
L 578.126846 49.241012 
L 585.262111 49.144315 
L 592.397376 49.095966 
L 599.53264 49.07985 
L 606.667905 47.935601 
L 613.80317 47.742207 
L 620.938435 47.742207 
L 628.073699 47.709975 
L 635.208964 47.709975 
L 642.344229 47.564929 
L 649.479494 47.564929 
L 656.614758 47.436 
L 663.750023 47.30707 
L 670.885288 47.30707 
L 678.020553 47.258722 
L 685.155817 47.242605 
L 692.291082 46.662423 
L 699.426347 46.581842 
L 706.561612 45.743801 
L 713.696876 45.550406 
L 720.832141 45.292547 
L 727.967406 45.276431 
L 735.10267 45.276431 
" style="fill:none;stroke:#ff7f0e;stroke-linecap:square;stroke-width:1.5;"/>
   </g>
   <g id="line2d_23">
    <path clip-path="url(#pc491dc878f)" d="M 85.79358 212.900835 
L 92.928844 176.816704 
L 100.064109 153.544938 
L 107.199374 138.08952 
L 114.334638 127.211098 
L 121.469903 119.104659 
L 128.605168 112.432559 
L 135.740433 109.09651 
L 142.875697 105.518718 
L 150.010962 101.554137 
L 157.146227 98.669341 
L 164.281492 96.042403 
L 171.416756 94.49525 
L 178.552021 93.737789 
L 185.687286 92.819167 
L 192.822551 91.594337 
L 199.957815 90.917457 
L 207.09308 89.72486 
L 214.228345 88.564495 
L 221.36361 88.145474 
L 228.498874 85.760279 
L 235.634139 85.566885 
L 242.769404 84.632146 
L 249.904668 82.988296 
L 257.039933 80.52252 
L 264.175198 79.249342 
L 271.310463 78.298487 
L 278.445727 77.976164 
L 285.580992 77.299284 
L 292.716257 76.751334 
L 299.851522 75.655433 
L 306.986786 73.415284 
L 314.122051 72.802869 
L 321.257316 72.512778 
L 328.392581 72.206571 
L 335.527845 72.158222 
L 342.66311 71.932595 
L 349.798375 71.78755 
L 356.933639 71.755317 
L 364.068904 70.90116 
L 371.204169 70.723882 
L 378.339434 70.675533 
L 385.474698 70.546604 
L 392.609963 69.33789 
L 399.745228 68.822172 
L 406.880493 68.306455 
L 414.015757 67.452297 
L 421.151022 66.791534 
L 428.286287 66.791534 
L 435.421552 66.436978 
L 442.556816 65.518355 
L 449.692081 65.437774 
L 456.827346 64.857592 
L 463.962611 64.567501 
L 471.097875 64.325758 
L 478.23314 63.81004 
L 485.368405 63.664994 
L 492.503669 63.294322 
L 499.638934 62.633559 
L 506.774199 62.472397 
L 513.909464 62.472397 
L 521.044728 62.407932 
L 528.179993 62.407932 
L 535.315258 61.618239 
L 542.450523 61.553775 
L 549.585787 61.215335 
L 556.721052 60.81243 
L 563.856317 60.200015 
L 570.991582 60.135551 
L 578.126846 59.764878 
L 585.262111 59.700414 
L 592.397376 59.603717 
L 599.53264 59.184696 
L 606.667905 59.007418 
L 613.80317 58.975186 
L 620.938435 58.942953 
L 628.073699 58.910721 
L 635.208964 58.266074 
L 642.344229 57.879285 
L 649.479494 57.653659 
L 656.614758 56.928431 
L 663.750023 56.928431 
L 670.885288 56.896198 
L 678.020553 56.896198 
L 685.155817 56.735036 
L 692.291082 55.719717 
L 699.426347 55.687485 
L 706.561612 55.026721 
L 713.696876 55.026721 
L 720.832141 55.026721 
L 727.967406 53.882472 
L 735.10267 53.624613 
" style="fill:none;stroke:#c5b0d5;stroke-linecap:square;stroke-width:1.5;"/>
   </g>
   <g id="line2d_24">
    <path clip-path="url(#pc491dc878f)" d="M 85.79358 276.334125 
L 92.928844 262.168001 
L 100.064109 248.388666 
L 107.199374 224.875158 
L 114.334638 204.020819 
L 121.469903 197.01028 
L 128.605168 184.858679 
L 135.740433 172.336406 
L 142.875697 162.715046 
L 150.010962 150.982466 
L 157.146227 143.633487 
L 164.281492 134.8824 
L 171.416756 126.437521 
L 178.552021 123.504376 
L 185.687286 116.300443 
L 192.822551 111.658983 
L 199.957815 107.694402 
L 207.09308 104.648444 
L 214.228345 103.23022 
L 221.36361 101.924809 
L 228.498874 100.184262 
L 235.634139 99.056129 
L 242.769404 97.944112 
L 249.904668 97.009374 
L 257.039933 96.461424 
L 264.175198 94.140694 
L 271.310463 93.802254 
L 278.445727 93.496046 
L 285.580992 92.142287 
L 292.716257 91.626569 
L 299.851522 90.530669 
L 306.986786 89.869905 
L 314.122051 88.209939 
L 321.257316 87.678105 
L 328.392581 86.985109 
L 335.527845 86.195416 
L 342.66311 85.856976 
L 349.798375 84.06808 
L 356.933639 83.439549 
L 364.068904 82.617624 
L 371.204169 82.488694 
L 378.339434 80.812611 
L 385.474698 78.814205 
L 392.609963 77.557143 
L 399.745228 76.654637 
L 406.880493 75.719898 
L 414.015757 75.445923 
L 421.151022 75.252529 
L 428.286287 74.672346 
L 435.421552 74.043815 
L 442.556816 73.931002 
L 449.692081 73.592562 
L 456.827346 72.528894 
L 463.962611 72.399965 
L 471.097875 72.093757 
L 478.23314 71.932595 
L 485.368405 71.819782 
L 492.503669 71.594156 
L 499.638934 70.90116 
L 506.774199 70.77223 
L 513.909464 70.77223 
L 521.044728 70.659417 
L 528.179993 70.175932 
L 535.315258 69.982537 
L 542.450523 69.708562 
L 549.585787 69.627982 
L 556.721052 68.322571 
L 563.856317 68.193641 
L 570.991582 67.371716 
L 578.126846 67.275019 
L 585.262111 66.67872 
L 592.397376 66.420861 
L 599.53264 66.404745 
L 606.667905 66.356397 
L 613.80317 66.356397 
L 620.938435 66.275816 
L 628.073699 66.146886 
L 635.208964 64.374106 
L 642.344229 63.713343 
L 649.479494 63.487716 
L 656.614758 63.391019 
L 663.750023 62.601326 
L 670.885288 62.601326 
L 678.020553 62.601326 
L 685.155817 61.972795 
L 692.291082 61.892214 
L 699.426347 61.843866 
L 706.561612 61.457078 
L 713.696876 61.408729 
L 720.832141 61.376497 
L 727.967406 61.376497 
L 735.10267 61.312032 
" style="fill:none;stroke:#1f77b4;stroke-linecap:square;stroke-width:1.5;"/>
   </g>
   <g id="line2d_25">
    <path clip-path="url(#pc491dc878f)" d="M 85.79358 262.651487 
L 92.928844 221.249017 
L 100.064109 202.602595 
L 107.199374 185.261584 
L 114.334638 170.128489 
L 121.469903 152.658548 
L 128.605168 144.036391 
L 135.740433 138.041172 
L 142.875697 131.111214 
L 150.010962 126.630915 
L 157.146227 122.553521 
L 164.281492 119.024078 
L 171.416756 117.331879 
L 178.552021 113.705738 
L 185.687286 112.400327 
L 192.822551 110.160178 
L 199.957815 108.75807 
L 207.09308 105.470369 
L 214.228345 104.003797 
L 221.36361 101.344627 
L 228.498874 98.45983 
L 235.634139 97.815183 
L 242.769404 96.864328 
L 249.904668 93.931183 
L 257.039933 92.416262 
L 264.175198 91.223665 
L 271.310463 90.885225 
L 278.445727 89.853789 
L 285.580992 88.387217 
L 292.716257 87.935964 
L 299.851522 87.178503 
L 306.986786 86.243765 
L 314.122051 85.325142 
L 321.257316 84.890005 
L 328.392581 84.358171 
L 335.527845 84.051964 
L 342.66311 83.713524 
L 349.798375 83.358968 
L 356.933639 82.923831 
L 364.068904 82.391997 
L 371.204169 82.263068 
L 378.339434 81.827931 
L 385.474698 81.602304 
L 392.609963 81.489491 
L 399.745228 81.231632 
L 406.880493 80.780379 
L 414.015757 80.151848 
L 421.151022 79.877873 
L 428.286287 79.458852 
L 435.421552 78.298487 
L 442.556816 77.766653 
L 449.692081 77.073657 
L 456.827346 76.654637 
L 463.962611 76.267848 
L 471.097875 75.848828 
L 478.23314 75.268645 
L 485.368405 75.010786 
L 492.503669 73.753724 
L 499.638934 72.931799 
L 506.774199 71.99706 
L 513.909464 71.529691 
L 521.044728 70.949508 
L 528.179993 70.208164 
L 535.315258 69.756911 
L 542.450523 69.46682 
L 549.585787 69.192845 
L 556.721052 69.080031 
L 563.856317 69.031683 
L 570.991582 69.031683 
L 578.126846 68.983334 
L 585.262111 68.91887 
L 592.397376 68.870521 
L 599.53264 68.725475 
L 606.667905 68.612662 
L 613.80317 68.515965 
L 620.938435 68.515965 
L 628.073699 68.435384 
L 635.208964 68.177525 
L 642.344229 67.629575 
L 649.479494 67.597343 
L 656.614758 66.872114 
L 663.750023 66.775417 
L 670.885288 66.775417 
L 678.020553 66.388629 
L 685.155817 65.937376 
L 692.291082 65.92126 
L 699.426347 65.905144 
L 706.561612 65.840679 
L 713.696876 65.840679 
L 720.832141 65.566704 
L 727.967406 65.421658 
L 735.10267 65.357193 
" style="fill:none;stroke:#2ca02c;stroke-linecap:square;stroke-width:1.5;"/>
   </g>
   <g id="line2d_26">
    <path clip-path="url(#pc491dc878f)" d="M 85.79358 249.146127 
L 92.928844 225.213597 
L 100.064109 202.812105 
L 107.199374 194.592853 
L 114.334638 186.228554 
L 121.469903 173.319493 
L 128.605168 168.790846 
L 135.740433 161.586913 
L 142.875697 156.574781 
L 150.010962 150.724607 
L 157.146227 147.050117 
L 164.281492 141.506151 
L 171.416756 138.395728 
L 178.552021 136.31674 
L 185.687286 132.464973 
L 192.822551 130.643845 
L 199.957815 129.483479 
L 207.09308 128.887181 
L 214.228345 126.389173 
L 221.36361 125.099878 
L 228.498874 123.69777 
L 235.634139 122.037804 
L 242.769404 120.055513 
L 249.904668 119.974932 
L 257.039933 119.040194 
L 264.175198 117.815364 
L 271.310463 117.009555 
L 278.445727 114.930568 
L 285.580992 113.8669 
L 292.716257 113.286717 
L 299.851522 112.819348 
L 306.986786 111.707331 
L 314.122051 110.160178 
L 321.257316 108.870883 
L 328.392581 108.725838 
L 335.527845 108.661373 
L 342.66311 107.388195 
L 349.798375 106.550153 
L 356.933639 106.002203 
L 364.068904 105.776577 
L 371.204169 105.599299 
L 378.339434 105.293091 
L 385.474698 105.131929 
L 392.609963 105.019116 
L 399.745228 104.890187 
L 406.880493 104.600095 
L 414.015757 104.374469 
L 421.151022 104.11661 
L 428.286287 103.713705 
L 435.421552 102.2149 
L 442.556816 102.198784 
L 449.692081 102.021506 
L 456.827346 101.811996 
L 463.962611 101.521905 
L 471.097875 101.441324 
L 478.23314 100.764444 
L 485.368405 100.619398 
L 492.503669 100.603282 
L 499.638934 99.217291 
L 506.774199 98.79827 
L 513.909464 98.637108 
L 521.044728 98.524295 
L 528.179993 98.363133 
L 535.315258 98.024693 
L 542.450523 98.024693 
L 549.585787 97.541208 
L 556.721052 97.073839 
L 563.856317 96.751515 
L 570.991582 96.429191 
L 578.126846 96.380843 
L 585.262111 96.380843 
L 592.397376 96.268029 
L 599.53264 96.268029 
L 606.667905 95.961822 
L 613.80317 95.849009 
L 620.938435 95.558917 
L 628.073699 95.284942 
L 635.208964 95.010967 
L 642.344229 94.849806 
L 649.479494 94.656411 
L 656.614758 94.350204 
L 663.750023 93.318768 
L 670.885288 93.109258 
L 678.020553 93.109258 
L 685.155817 93.060909 
L 692.291082 92.545192 
L 699.426347 92.545192 
L 706.561612 92.077822 
L 713.696876 90.901341 
L 720.832141 90.788528 
L 727.967406 90.143881 
L 735.10267 89.805441 
" style="fill:none;stroke:#dbdb8d;stroke-linecap:square;stroke-width:1.5;"/>
   </g>
   <g id="line2d_27">
    <path clip-path="url(#pc491dc878f)" d="M 85.79358 249.742426 
L 92.928844 215.334378 
L 100.064109 196.446213 
L 107.199374 179.846547 
L 114.334638 171.901269 
L 121.469903 166.808556 
L 128.605168 159.15337 
L 135.740433 156.687594 
L 142.875697 154.431328 
L 150.010962 149.677055 
L 157.146227 146.147611 
L 164.281492 144.664922 
L 171.416756 144.036391 
L 178.552021 140.313553 
L 185.687286 137.686616 
L 192.822551 136.187811 
L 199.957815 134.318334 
L 207.09308 133.077388 
L 214.228345 130.869471 
L 221.36361 130.03143 
L 228.498874 129.386782 
L 235.634139 128.000791 
L 242.769404 126.324708 
L 249.904668 125.26104 
L 257.039933 123.520492 
L 264.175198 123.037007 
L 271.310463 121.667131 
L 278.445727 121.0386 
L 285.580992 120.200559 
L 292.716257 119.346401 
L 299.851522 118.750103 
L 306.986786 118.524476 
L 314.122051 118.282733 
L 321.257316 117.219065 
L 328.392581 117.041787 
L 335.527845 116.542186 
L 342.66311 115.462402 
L 349.798375 114.205339 
L 356.933639 113.367298 
L 364.068904 113.335066 
L 371.204169 112.126352 
L 378.339434 111.530053 
L 385.474698 111.368892 
L 392.609963 110.546966 
L 399.745228 110.434153 
L 406.880493 109.741157 
L 414.015757 109.741157 
L 421.151022 109.531647 
L 428.286287 109.241556 
L 435.421552 108.806419 
L 442.556816 108.387398 
L 449.692081 108.339049 
L 456.827346 108.048958 
L 463.962611 107.613821 
L 471.097875 105.244743 
L 478.23314 104.841838 
L 485.368405 104.761257 
L 492.503669 103.858751 
L 499.638934 103.762054 
L 506.774199 103.713705 
L 513.909464 103.536427 
L 521.044728 103.246336 
L 528.179993 102.972361 
L 535.315258 102.875664 
L 542.450523 102.746734 
L 549.585787 102.263249 
L 556.721052 102.069855 
L 563.856317 102.00539 
L 570.991582 101.924809 
L 578.126846 101.892577 
L 585.262111 101.683066 
L 592.397376 101.24793 
L 599.53264 101.24793 
L 606.667905 100.732212 
L 613.80317 100.699979 
L 620.938435 100.619398 
L 628.073699 99.668544 
L 635.208964 99.636311 
L 642.344229 99.34622 
L 649.479494 99.297872 
L 656.614758 99.249523 
L 663.750023 99.104477 
L 670.885288 97.927996 
L 678.020553 97.863531 
L 685.155817 97.734602 
L 692.291082 97.57344 
L 699.426347 97.525092 
L 706.561612 97.525092 
L 713.696876 97.525092 
L 720.832141 97.492859 
L 727.967406 97.396162 
L 735.10267 97.267233 
" style="fill:none;stroke:#98df8a;stroke-linecap:square;stroke-width:1.5;"/>
   </g>
   <g id="line2d_28">
    <path clip-path="url(#pc491dc878f)" d="M 85.79358 231.740651 
L 92.928844 208.694511 
L 100.064109 195.44701 
L 107.199374 187.840173 
L 114.334638 181.683791 
L 121.469903 175.382364 
L 128.605168 167.324274 
L 135.740433 160.394316 
L 142.875697 155.26937 
L 150.010962 154.076772 
L 157.146227 148.323296 
L 164.281492 144.052508 
L 171.416756 142.956607 
L 178.552021 140.426367 
L 185.687286 139.588325 
L 192.822551 138.830865 
L 199.957815 136.703529 
L 207.09308 136.220043 
L 214.228345 134.012126 
L 221.36361 132.142649 
L 228.498874 130.853355 
L 235.634139 129.048343 
L 242.769404 127.871861 
L 249.904668 127.275563 
L 257.039933 126.260243 
L 264.175198 124.874252 
L 271.310463 124.455231 
L 278.445727 123.069239 
L 285.580992 120.506766 
L 292.716257 120.410069 
L 299.851522 120.119978 
L 306.986786 119.330285 
L 314.122051 119.330285 
L 321.257316 119.330285 
L 328.392581 118.443895 
L 335.527845 118.443895 
L 342.66311 118.266617 
L 349.798375 116.316559 
L 356.933639 115.140078 
L 364.068904 114.156991 
L 371.204169 112.448676 
L 378.339434 112.351979 
L 385.474698 112.319746 
L 392.609963 112.206933 
L 399.745228 112.174701 
L 406.880493 112.142468 
L 414.015757 112.078003 
L 421.151022 111.868493 
L 428.286287 111.787912 
L 435.421552 110.837058 
L 442.556816 110.804825 
L 449.692081 110.756477 
L 456.827346 110.546966 
L 463.962611 110.546966 
L 471.097875 110.546966 
L 478.23314 110.482502 
L 485.368405 110.385804 
L 492.503669 110.176294 
L 499.638934 110.160178 
L 506.774199 110.111829 
L 513.909464 109.451066 
L 521.044728 109.386601 
L 528.179993 107.936145 
L 535.315258 107.887796 
L 542.450523 107.839448 
L 549.585787 107.162568 
L 556.721052 106.501805 
L 563.856317 106.501805 
L 570.991582 106.388991 
L 578.126846 106.388991 
L 585.262111 105.712112 
L 592.397376 105.712112 
L 599.53264 105.663763 
L 606.667905 105.631531 
L 613.80317 105.567066 
L 620.938435 105.438137 
L 628.073699 105.438137 
L 635.208964 105.422021 
L 642.344229 105.422021 
L 649.479494 105.422021 
L 656.614758 105.389788 
L 663.750023 104.793489 
L 670.885288 104.729025 
L 678.020553 104.438933 
L 685.155817 102.650037 
L 692.291082 102.376062 
L 699.426347 102.376062 
L 706.561612 102.198784 
L 713.696876 101.957042 
L 720.832141 101.811996 
L 727.967406 100.812793 
L 735.10267 100.538818 
" style="fill:none;stroke:#d62728;stroke-linecap:square;stroke-width:1.5;"/>
   </g>
   <g id="line2d_29">
    <path clip-path="url(#pc491dc878f)" d="M 85.79358 221.36183 
L 92.928844 197.542114 
L 100.064109 179.604804 
L 107.199374 166.550697 
L 114.334638 160.24927 
L 121.469903 158.009121 
L 128.605168 153.528822 
L 135.740433 150.515096 
L 142.875697 149.161337 
L 150.010962 147.130698 
L 157.146227 144.503761 
L 164.281492 140.893736 
L 171.416756 138.42796 
L 178.552021 137.380408 
L 185.687286 136.397321 
L 192.822551 135.059678 
L 199.957815 133.802616 
L 207.09308 133.44806 
L 214.228345 132.6906 
L 221.36361 132.303811 
L 228.498874 131.288492 
L 235.634139 131.062865 
L 242.769404 129.773571 
L 249.904668 129.757455 
L 257.039933 129.628525 
L 264.175198 129.322318 
L 271.310463 128.693787 
L 278.445727 128.435928 
L 285.580992 128.371463 
L 292.716257 127.726816 
L 299.851522 127.37226 
L 306.986786 126.550334 
L 314.122051 126.550334 
L 321.257316 126.228011 
L 328.392581 126.082965 
L 335.527845 126.082965 
L 342.66311 125.357737 
L 349.798375 124.197372 
L 356.933639 124.132907 
L 364.068904 124.068443 
L 371.204169 123.14982 
L 378.339434 123.053123 
L 385.474698 122.972542 
L 392.609963 122.94031 
L 399.745228 122.295663 
L 406.880493 122.26343 
L 414.015757 122.198965 
L 421.151022 121.876642 
L 428.286287 121.876642 
L 435.421552 120.845206 
L 442.556816 120.812974 
L 449.692081 120.812974 
L 456.827346 120.764625 
L 463.962611 120.764625 
L 471.097875 120.635696 
L 478.23314 120.200559 
L 485.368405 120.055513 
L 492.503669 119.991049 
L 499.638934 118.927381 
L 506.774199 118.927381 
L 513.909464 117.783132 
L 521.044728 117.767016 
L 528.179993 117.767016 
L 535.315258 117.686435 
L 542.450523 117.638086 
L 549.585787 117.638086 
L 556.721052 117.638086 
L 563.856317 117.638086 
L 570.991582 117.638086 
L 578.126846 116.542186 
L 585.262111 116.542186 
L 592.397376 115.607447 
L 599.53264 115.462402 
L 606.667905 115.365705 
L 613.80317 115.285124 
L 620.938435 115.252891 
L 628.073699 115.252891 
L 635.208964 114.978916 
L 642.344229 114.978916 
L 649.479494 114.978916 
L 656.614758 114.9628 
L 663.750023 114.9628 
L 670.885288 114.930568 
L 678.020553 114.914451 
L 685.155817 114.898335 
L 692.291082 114.688825 
L 699.426347 114.656593 
L 706.561612 114.62436 
L 713.696876 114.62436 
L 720.832141 114.62436 
L 727.967406 114.62436 
L 735.10267 114.608244 
" style="fill:none;stroke:#e377c2;stroke-linecap:square;stroke-width:1.5;"/>
   </g>
   <g id="line2d_30"/>
   <g id="line2d_31"/>
   <g id="line2d_32"/>
   <g id="line2d_33"/>
   <g id="line2d_34"/>
   <g id="line2d_35"/>
   <g id="line2d_36"/>
   <g id="line2d_37"/>
   <g id="line2d_38"/>
   <g id="line2d_39"/>
   <g id="line2d_40">
    <path clip-path="url(#pc491dc878f)" d="M 735.10267 288.430125 
L 735.10267 22.318125 
" style="fill:none;stroke:#ff0000;stroke-linecap:square;stroke-width:1.5;"/>
   </g>
   <g id="patch_3">
    <path d="M 53.328125 266.970624 
L 53.328125 41.344083 
" style="fill:none;stroke:#000000;stroke-linecap:square;stroke-linejoin:miter;stroke-width:0.8;"/>
   </g>
   <g id="patch_4">
    <path d="M 85.79358 288.430125 
L 687.534239 288.430125 
" style="fill:none;stroke:#000000;stroke-linecap:square;stroke-linejoin:miter;stroke-width:0.8;"/>
   </g>
   <g id="text_23">
    <!-- mbedtls_fuzz_dtlsclient (23h, 20 trials/fuzzer) -->
    <g transform="translate(273.77375 16.318125)scale(0.12 -0.12)">
     <defs>
      <path d="M 48.6875 27.296875 
Q 48.6875 37.203125 44.609375 42.84375 
Q 40.53125 48.484375 33.40625 48.484375 
Q 26.265625 48.484375 22.1875 42.84375 
Q 18.109375 37.203125 18.109375 27.296875 
Q 18.109375 17.390625 22.1875 11.75 
Q 26.265625 6.109375 33.40625 6.109375 
Q 40.53125 6.109375 44.609375 11.75 
Q 48.6875 17.390625 48.6875 27.296875 
z
M 18.109375 46.390625 
Q 20.953125 51.265625 25.265625 53.625 
Q 29.59375 56 35.59375 56 
Q 45.5625 56 51.78125 48.09375 
Q 58.015625 40.1875 58.015625 27.296875 
Q 58.015625 14.40625 51.78125 6.484375 
Q 45.5625 -1.421875 35.59375 -1.421875 
Q 29.59375 -1.421875 25.265625 0.953125 
Q 20.953125 3.328125 18.109375 8.203125 
L 18.109375 0 
L 9.078125 0 
L 9.078125 75.984375 
L 18.109375 75.984375 
z
" id="DejaVuSans-98"/>
      <path d="M 9.421875 75.984375 
L 18.40625 75.984375 
L 18.40625 0 
L 9.421875 0 
z
" id="DejaVuSans-108"/>
      <path d="M 44.28125 53.078125 
L 44.28125 44.578125 
Q 40.484375 46.53125 36.375 47.5 
Q 32.28125 48.484375 27.875 48.484375 
Q 21.1875 48.484375 17.84375 46.4375 
Q 14.5 44.390625 14.5 40.28125 
Q 14.5 37.15625 16.890625 35.375 
Q 19.28125 33.59375 26.515625 31.984375 
L 29.59375 31.296875 
Q 39.15625 29.25 43.1875 25.515625 
Q 47.21875 21.78125 47.21875 15.09375 
Q 47.21875 7.46875 41.1875 3.015625 
Q 35.15625 -1.421875 24.609375 -1.421875 
Q 20.21875 -1.421875 15.453125 -0.5625 
Q 10.6875 0.296875 5.421875 2 
L 5.421875 11.28125 
Q 10.40625 8.6875 15.234375 7.390625 
Q 20.0625 6.109375 24.8125 6.109375 
Q 31.15625 6.109375 34.5625 8.28125 
Q 37.984375 10.453125 37.984375 14.40625 
Q 37.984375 18.0625 35.515625 20.015625 
Q 33.0625 21.96875 24.703125 23.78125 
L 21.578125 24.515625 
Q 13.234375 26.265625 9.515625 29.90625 
Q 5.8125 33.546875 5.8125 39.890625 
Q 5.8125 47.609375 11.28125 51.796875 
Q 16.75 56 26.8125 56 
Q 31.78125 56 36.171875 55.265625 
Q 40.578125 54.546875 44.28125 53.078125 
z
" id="DejaVuSans-115"/>
      <path d="M 50.984375 -16.609375 
L 50.984375 -23.578125 
L -0.984375 -23.578125 
L -0.984375 -16.609375 
z
" id="DejaVuSans-95"/>
      <path d="M 37.109375 75.984375 
L 37.109375 68.5 
L 28.515625 68.5 
Q 23.6875 68.5 21.796875 66.546875 
Q 19.921875 64.59375 19.921875 59.515625 
L 19.921875 54.6875 
L 34.71875 54.6875 
L 34.71875 47.703125 
L 19.921875 47.703125 
L 19.921875 0 
L 10.890625 0 
L 10.890625 47.703125 
L 2.296875 47.703125 
L 2.296875 54.6875 
L 10.890625 54.6875 
L 10.890625 58.5 
Q 10.890625 67.625 15.140625 71.796875 
Q 19.390625 75.984375 28.609375 75.984375 
z
" id="DejaVuSans-102"/>
      <path d="M 5.515625 54.6875 
L 48.1875 54.6875 
L 48.1875 46.484375 
L 14.40625 7.171875 
L 48.1875 7.171875 
L 48.1875 0 
L 4.296875 0 
L 4.296875 8.203125 
L 38.09375 47.515625 
L 5.515625 47.515625 
z
" id="DejaVuSans-122"/>
      <path d="M 11.71875 12.40625 
L 22.015625 12.40625 
L 22.015625 4 
L 14.015625 -11.625 
L 7.71875 -11.625 
L 11.71875 4 
z
" id="DejaVuSans-44"/>
      <path d="M 25.390625 72.90625 
L 33.6875 72.90625 
L 8.296875 -9.28125 
L 0 -9.28125 
z
" id="DejaVuSans-47"/>
     </defs>
     <use xlink:href="#DejaVuSans-109"/>
     <use x="97.412109" xlink:href="#DejaVuSans-98"/>
     <use x="160.888672" xlink:href="#DejaVuSans-101"/>
     <use x="222.412109" xlink:href="#DejaVuSans-100"/>
     <use x="285.888672" xlink:href="#DejaVuSans-116"/>
     <use x="325.097656" xlink:href="#DejaVuSans-108"/>
     <use x="352.880859" xlink:href="#DejaVuSans-115"/>
     <use x="404.980469" xlink:href="#DejaVuSans-95"/>
     <use x="454.980469" xlink:href="#DejaVuSans-102"/>
     <use x="490.185547" xlink:href="#DejaVuSans-117"/>
     <use x="553.564453" xlink:href="#DejaVuSans-122"/>
     <use x="606.054688" xlink:href="#DejaVuSans-122"/>
     <use x="658.544922" xlink:href="#DejaVuSans-95"/>
     <use x="708.544922" xlink:href="#DejaVuSans-100"/>
     <use x="772.021484" xlink:href="#DejaVuSans-116"/>
     <use x="811.230469" xlink:href="#DejaVuSans-108"/>
     <use x="839.013672" xlink:href="#DejaVuSans-115"/>
     <use x="891.113281" xlink:href="#DejaVuSans-99"/>
     <use x="946.09375" xlink:href="#DejaVuSans-108"/>
     <use x="973.876953" xlink:href="#DejaVuSans-105"/>
     <use x="1001.660156" xlink:href="#DejaVuSans-101"/>
     <use x="1063.183594" xlink:href="#DejaVuSans-110"/>
     <use x="1126.5625" xlink:href="#DejaVuSans-116"/>
     <use x="1165.771484" xlink:href="#DejaVuSans-32"/>
     <use x="1197.558594" xlink:href="#DejaVuSans-40"/>
     <use x="1236.572266" xlink:href="#DejaVuSans-50"/>
     <use x="1300.195312" xlink:href="#DejaVuSans-51"/>
     <use x="1363.818359" xlink:href="#DejaVuSans-104"/>
     <use x="1427.197266" xlink:href="#DejaVuSans-44"/>
     <use x="1458.984375" xlink:href="#DejaVuSans-32"/>
     <use x="1490.771484" xlink:href="#DejaVuSans-50"/>
     <use x="1554.394531" xlink:href="#DejaVuSans-48"/>
     <use x="1618.017578" xlink:href="#DejaVuSans-32"/>
     <use x="1649.804688" xlink:href="#DejaVuSans-116"/>
     <use x="1689.013672" xlink:href="#DejaVuSans-114"/>
     <use x="1730.126953" xlink:href="#DejaVuSans-105"/>
     <use x="1757.910156" xlink:href="#DejaVuSans-97"/>
     <use x="1819.189453" xlink:href="#DejaVuSans-108"/>
     <use x="1846.972656" xlink:href="#DejaVuSans-115"/>
     <use x="1899.072266" xlink:href="#DejaVuSans-47"/>
     <use x="1932.763672" xlink:href="#DejaVuSans-102"/>
     <use x="1967.96875" xlink:href="#DejaVuSans-117"/>
     <use x="2031.347656" xlink:href="#DejaVuSans-122"/>
     <use x="2083.837891" xlink:href="#DejaVuSans-122"/>
     <use x="2136.328125" xlink:href="#DejaVuSans-101"/>
     <use x="2197.851562" xlink:href="#DejaVuSans-114"/>
     <use x="2238.964844" xlink:href="#DejaVuSans-41"/>
    </g>
   </g>
   <g id="legend_1">
    <g id="line2d_41">
     <path d="M 771.568125 30.416562 
L 791.568125 30.416562 
" style="fill:none;"/>
    </g>
    <g id="line2d_42"/>
    <g id="text_24">
     <!-- fuzzer -->
     <g transform="translate(799.568125 33.916562)scale(0.1 -0.1)">
      <use xlink:href="#DejaVuSans-102"/>
      <use x="35.205078" xlink:href="#DejaVuSans-117"/>
      <use x="98.583984" xlink:href="#DejaVuSans-122"/>
      <use x="151.074219" xlink:href="#DejaVuSans-122"/>
      <use x="203.564453" xlink:href="#DejaVuSans-101"/>
      <use x="265.087891" xlink:href="#DejaVuSans-114"/>
     </g>
    </g>
    <g id="line2d_43">
     <path d="M 771.568125 45.094688 
L 791.568125 45.094688 
" style="fill:none;stroke:#ff9896;stroke-linecap:square;stroke-width:1.5;"/>
    </g>
    <g id="line2d_44"/>
    <g id="text_25">
     <!-- fairfuzz -->
     <g transform="translate(799.568125 48.594688)scale(0.1 -0.1)">
      <use xlink:href="#DejaVuSans-102"/>
      <use x="35.205078" xlink:href="#DejaVuSans-97"/>
      <use x="96.484375" xlink:href="#DejaVuSans-105"/>
      <use x="124.267578" xlink:href="#DejaVuSans-114"/>
      <use x="165.380859" xlink:href="#DejaVuSans-102"/>
      <use x="200.585938" xlink:href="#DejaVuSans-117"/>
      <use x="263.964844" xlink:href="#DejaVuSans-122"/>
      <use x="316.455078" xlink:href="#DejaVuSans-122"/>
     </g>
    </g>
    <g id="line2d_45">
     <path d="M 771.568125 59.772812 
L 791.568125 59.772812 
" style="fill:none;stroke:#ff7f0e;stroke-linecap:square;stroke-width:1.5;"/>
    </g>
    <g id="line2d_46"/>
    <g id="text_26">
     <!-- entropic -->
     <g transform="translate(799.568125 63.272812)scale(0.1 -0.1)">
      <defs>
       <path d="M 18.109375 8.203125 
L 18.109375 -20.796875 
L 9.078125 -20.796875 
L 9.078125 54.6875 
L 18.109375 54.6875 
L 18.109375 46.390625 
Q 20.953125 51.265625 25.265625 53.625 
Q 29.59375 56 35.59375 56 
Q 45.5625 56 51.78125 48.09375 
Q 58.015625 40.1875 58.015625 27.296875 
Q 58.015625 14.40625 51.78125 6.484375 
Q 45.5625 -1.421875 35.59375 -1.421875 
Q 29.59375 -1.421875 25.265625 0.953125 
Q 20.953125 3.328125 18.109375 8.203125 
z
M 48.6875 27.296875 
Q 48.6875 37.203125 44.609375 42.84375 
Q 40.53125 48.484375 33.40625 48.484375 
Q 26.265625 48.484375 22.1875 42.84375 
Q 18.109375 37.203125 18.109375 27.296875 
Q 18.109375 17.390625 22.1875 11.75 
Q 26.265625 6.109375 33.40625 6.109375 
Q 40.53125 6.109375 44.609375 11.75 
Q 48.6875 17.390625 48.6875 27.296875 
z
" id="DejaVuSans-112"/>
      </defs>
      <use xlink:href="#DejaVuSans-101"/>
      <use x="61.523438" xlink:href="#DejaVuSans-110"/>
      <use x="124.902344" xlink:href="#DejaVuSans-116"/>
      <use x="164.111328" xlink:href="#DejaVuSans-114"/>
      <use x="202.974609" xlink:href="#DejaVuSans-111"/>
      <use x="264.15625" xlink:href="#DejaVuSans-112"/>
      <use x="327.632812" xlink:href="#DejaVuSans-105"/>
      <use x="355.416016" xlink:href="#DejaVuSans-99"/>
     </g>
    </g>
    <g id="line2d_47">
     <path d="M 771.568125 74.450938 
L 791.568125 74.450938 
" style="fill:none;stroke:#c5b0d5;stroke-linecap:square;stroke-width:1.5;"/>
    </g>
    <g id="line2d_48"/>
    <g id="text_27">
     <!-- mopt -->
     <g transform="translate(799.568125 77.950938)scale(0.1 -0.1)">
      <use xlink:href="#DejaVuSans-109"/>
      <use x="97.412109" xlink:href="#DejaVuSans-111"/>
      <use x="158.59375" xlink:href="#DejaVuSans-112"/>
      <use x="222.070312" xlink:href="#DejaVuSans-116"/>
     </g>
    </g>
    <g id="line2d_49">
     <path d="M 771.568125 89.129063 
L 791.568125 89.129063 
" style="fill:none;stroke:#1f77b4;stroke-linecap:square;stroke-width:1.5;"/>
    </g>
    <g id="line2d_50"/>
    <g id="text_28">
     <!-- aflplusplus -->
     <g transform="translate(799.568125 92.629063)scale(0.1 -0.1)">
      <use xlink:href="#DejaVuSans-97"/>
      <use x="61.279297" xlink:href="#DejaVuSans-102"/>
      <use x="96.484375" xlink:href="#DejaVuSans-108"/>
      <use x="124.267578" xlink:href="#DejaVuSans-112"/>
      <use x="187.744141" xlink:href="#DejaVuSans-108"/>
      <use x="215.527344" xlink:href="#DejaVuSans-117"/>
      <use x="278.90625" xlink:href="#DejaVuSans-115"/>
      <use x="331.005859" xlink:href="#DejaVuSans-112"/>
      <use x="394.482422" xlink:href="#DejaVuSans-108"/>
      <use x="422.265625" xlink:href="#DejaVuSans-117"/>
      <use x="485.644531" xlink:href="#DejaVuSans-115"/>
     </g>
    </g>
    <g id="line2d_51">
     <path d="M 771.568125 103.807187 
L 791.568125 103.807187 
" style="fill:none;stroke:#2ca02c;stroke-linecap:square;stroke-width:1.5;"/>
    </g>
    <g id="line2d_52"/>
    <g id="text_29">
     <!-- libfuzzer -->
     <g transform="translate(799.568125 107.307187)scale(0.1 -0.1)">
      <use xlink:href="#DejaVuSans-108"/>
      <use x="27.783203" xlink:href="#DejaVuSans-105"/>
      <use x="55.566406" xlink:href="#DejaVuSans-98"/>
      <use x="119.042969" xlink:href="#DejaVuSans-102"/>
      <use x="154.248047" xlink:href="#DejaVuSans-117"/>
      <use x="217.626953" xlink:href="#DejaVuSans-122"/>
      <use x="270.117188" xlink:href="#DejaVuSans-122"/>
      <use x="322.607422" xlink:href="#DejaVuSans-101"/>
      <use x="384.130859" xlink:href="#DejaVuSans-114"/>
     </g>
    </g>
    <g id="line2d_53">
     <path d="M 771.568125 118.485313 
L 791.568125 118.485313 
" style="fill:none;stroke:#dbdb8d;stroke-linecap:square;stroke-width:1.5;"/>
    </g>
    <g id="line2d_54"/>
    <g id="text_30">
     <!-- lafintel -->
     <g transform="translate(799.568125 121.985313)scale(0.1 -0.1)">
      <use xlink:href="#DejaVuSans-108"/>
      <use x="27.783203" xlink:href="#DejaVuSans-97"/>
      <use x="89.0625" xlink:href="#DejaVuSans-102"/>
      <use x="124.267578" xlink:href="#DejaVuSans-105"/>
      <use x="152.050781" xlink:href="#DejaVuSans-110"/>
      <use x="215.429688" xlink:href="#DejaVuSans-116"/>
      <use x="254.638672" xlink:href="#DejaVuSans-101"/>
      <use x="316.162109" xlink:href="#DejaVuSans-108"/>
     </g>
    </g>
    <g id="line2d_55">
     <path d="M 771.568125 133.163437 
L 791.568125 133.163437 
" style="fill:none;stroke:#98df8a;stroke-linecap:square;stroke-width:1.5;"/>
    </g>
    <g id="line2d_56"/>
    <g id="text_31">
     <!-- aflplusplus_flat -->
     <g transform="translate(799.568125 136.663437)scale(0.1 -0.1)">
      <use xlink:href="#DejaVuSans-97"/>
      <use x="61.279297" xlink:href="#DejaVuSans-102"/>
      <use x="96.484375" xlink:href="#DejaVuSans-108"/>
      <use x="124.267578" xlink:href="#DejaVuSans-112"/>
      <use x="187.744141" xlink:href="#DejaVuSans-108"/>
      <use x="215.527344" xlink:href="#DejaVuSans-117"/>
      <use x="278.90625" xlink:href="#DejaVuSans-115"/>
      <use x="331.005859" xlink:href="#DejaVuSans-112"/>
      <use x="394.482422" xlink:href="#DejaVuSans-108"/>
      <use x="422.265625" xlink:href="#DejaVuSans-117"/>
      <use x="485.644531" xlink:href="#DejaVuSans-115"/>
      <use x="537.744141" xlink:href="#DejaVuSans-95"/>
      <use x="587.744141" xlink:href="#DejaVuSans-102"/>
      <use x="622.949219" xlink:href="#DejaVuSans-108"/>
      <use x="650.732422" xlink:href="#DejaVuSans-97"/>
      <use x="712.011719" xlink:href="#DejaVuSans-116"/>
     </g>
    </g>
    <g id="line2d_57">
     <path d="M 771.568125 148.119687 
L 791.568125 148.119687 
" style="fill:none;stroke:#d62728;stroke-linecap:square;stroke-width:1.5;"/>
    </g>
    <g id="line2d_58"/>
    <g id="text_32">
     <!-- aflplusplus_qemu -->
     <g transform="translate(799.568125 151.619687)scale(0.1 -0.1)">
      <defs>
       <path d="M 14.796875 27.296875 
Q 14.796875 17.390625 18.875 11.75 
Q 22.953125 6.109375 30.078125 6.109375 
Q 37.203125 6.109375 41.296875 11.75 
Q 45.40625 17.390625 45.40625 27.296875 
Q 45.40625 37.203125 41.296875 42.84375 
Q 37.203125 48.484375 30.078125 48.484375 
Q 22.953125 48.484375 18.875 42.84375 
Q 14.796875 37.203125 14.796875 27.296875 
z
M 45.40625 8.203125 
Q 42.578125 3.328125 38.25 0.953125 
Q 33.9375 -1.421875 27.875 -1.421875 
Q 17.96875 -1.421875 11.734375 6.484375 
Q 5.515625 14.40625 5.515625 27.296875 
Q 5.515625 40.1875 11.734375 48.09375 
Q 17.96875 56 27.875 56 
Q 33.9375 56 38.25 53.625 
Q 42.578125 51.265625 45.40625 46.390625 
L 45.40625 54.6875 
L 54.390625 54.6875 
L 54.390625 -20.796875 
L 45.40625 -20.796875 
z
" id="DejaVuSans-113"/>
      </defs>
      <use xlink:href="#DejaVuSans-97"/>
      <use x="61.279297" xlink:href="#DejaVuSans-102"/>
      <use x="96.484375" xlink:href="#DejaVuSans-108"/>
      <use x="124.267578" xlink:href="#DejaVuSans-112"/>
      <use x="187.744141" xlink:href="#DejaVuSans-108"/>
      <use x="215.527344" xlink:href="#DejaVuSans-117"/>
      <use x="278.90625" xlink:href="#DejaVuSans-115"/>
      <use x="331.005859" xlink:href="#DejaVuSans-112"/>
      <use x="394.482422" xlink:href="#DejaVuSans-108"/>
      <use x="422.265625" xlink:href="#DejaVuSans-117"/>
      <use x="485.644531" xlink:href="#DejaVuSans-115"/>
      <use x="537.744141" xlink:href="#DejaVuSans-95"/>
      <use x="587.744141" xlink:href="#DejaVuSans-113"/>
      <use x="651.220703" xlink:href="#DejaVuSans-101"/>
      <use x="712.744141" xlink:href="#DejaVuSans-109"/>
      <use x="810.15625" xlink:href="#DejaVuSans-117"/>
     </g>
    </g>
    <g id="line2d_59">
     <path d="M 771.568125 163.075937 
L 791.568125 163.075937 
" style="fill:none;stroke:#e377c2;stroke-linecap:square;stroke-width:1.5;"/>
    </g>
    <g id="line2d_60"/>
    <g id="text_33">
     <!-- honggfuzz -->
     <g transform="translate(799.568125 166.575937)scale(0.1 -0.1)">
      <use xlink:href="#DejaVuSans-104"/>
      <use x="63.378906" xlink:href="#DejaVuSans-111"/>
      <use x="124.560547" xlink:href="#DejaVuSans-110"/>
      <use x="187.939453" xlink:href="#DejaVuSans-103"/>
      <use x="251.416016" xlink:href="#DejaVuSans-103"/>
      <use x="314.892578" xlink:href="#DejaVuSans-102"/>
      <use x="350.097656" xlink:href="#DejaVuSans-117"/>
      <use x="413.476562" xlink:href="#DejaVuSans-122"/>
      <use x="465.966797" xlink:href="#DejaVuSans-122"/>
     </g>
    </g>
   </g>
  </g>
 </g>
 <defs>
  <clipPath id="pc491dc878f">
   <rect height="266.112" width="714.24" x="53.328125" y="22.318125"/>
  </clipPath>
 </defs>
</svg>
