<?xml version="1.0" encoding="utf-8" standalone="no"?>
<!DOCTYPE svg PUBLIC "-//W3C//DTD SVG 1.1//EN"
  "http://www.w3.org/Graphics/SVG/1.1/DTD/svg11.dtd">
<!-- Created with matplotlib (https://matplotlib.org/) -->
<svg height="368.607178pt" version="1.1" viewBox="0 0 424.010625 368.607178" width="424.010625pt" xmlns="http://www.w3.org/2000/svg" xmlns:xlink="http://www.w3.org/1999/xlink">
 <metadata>
  <rdf:RDF xmlns:cc="http://creativecommons.org/ns#" xmlns:dc="http://purl.org/dc/elements/1.1/" xmlns:rdf="http://www.w3.org/1999/02/22-rdf-syntax-ns#">
   <cc:Work>
    <dc:type rdf:resource="http://purl.org/dc/dcmitype/StillImage"/>
    <dc:date>2020-12-06T10:29:04.577405</dc:date>
    <dc:format>image/svg+xml</dc:format>
    <dc:creator>
     <cc:Agent>
      <dc:title>Matplotlib v3.3.3, https://matplotlib.org/</dc:title>
     </cc:Agent>
    </dc:creator>
   </cc:Work>
  </rdf:RDF>
 </metadata>
 <defs>
  <style type="text/css">*{stroke-linecap:butt;stroke-linejoin:round;}</style>
 </defs>
 <g id="figure_1">
  <g id="patch_1">
   <path d="M 0 368.607178 
L 424.010625 368.607178 
L 424.010625 0 
L 0 0 
z
" style="fill:#ffffff;"/>
  </g>
  <g id="axes_1">
   <g id="patch_2">
    <path d="M 59.690625 288.430125 
L 416.810625 288.430125 
L 416.810625 22.318125 
L 59.690625 22.318125 
z
" style="fill:#ffffff;"/>
   </g>
   <g id="PolyCollection_1">
    <defs>
     <path d="M 79.664864 -134.675489 
L 79.396386 -134.675489 
L 79.360112 -134.916501 
L 79.316267 -135.157513 
L 79.263893 -135.398525 
L 79.202061 -135.639537 
L 79.129908 -135.880549 
L 79.04668 -136.12156 
L 78.951768 -136.362572 
L 78.844748 -136.603584 
L 78.725405 -136.844596 
L 78.59376 -137.085608 
L 78.450076 -137.32662 
L 78.294854 -137.567632 
L 78.128822 -137.808644 
L 77.952903 -138.049656 
L 77.768179 -138.290668 
L 77.57585 -138.53168 
L 77.377187 -138.772691 
L 77.17349 -139.013703 
L 76.966054 -139.254715 
L 76.756143 -139.495727 
L 76.544984 -139.736739 
L 76.33376 -139.977751 
L 76.123633 -140.218763 
L 75.91576 -140.459775 
L 75.711323 -140.700787 
L 75.511546 -140.941799 
L 75.317712 -141.182811 
L 75.13116 -141.423822 
L 74.953263 -141.664834 
L 74.785394 -141.905846 
L 74.628863 -142.146858 
L 74.484849 -142.38787 
L 74.354323 -142.628882 
L 74.237973 -142.869894 
L 74.136143 -143.110906 
L 74.048793 -143.351918 
L 73.975496 -143.59293 
L 73.915458 -143.833942 
L 73.867589 -144.074953 
L 73.830593 -144.315965 
L 73.803096 -144.556977 
L 73.783785 -144.797989 
L 73.771542 -145.039001 
L 73.765576 -145.280013 
L 73.765524 -145.521025 
L 73.771506 -145.762037 
L 73.784144 -146.003049 
L 73.804522 -146.244061 
L 73.8341 -146.485073 
L 73.874586 -146.726084 
L 73.927773 -146.967096 
L 73.995365 -147.208108 
L 74.078801 -147.44912 
L 74.179093 -147.690132 
L 74.296699 -147.931144 
L 74.431442 -148.172156 
L 74.582475 -148.413168 
L 74.7483 -148.65418 
L 74.926845 -148.895192 
L 75.115571 -149.136204 
L 75.311622 -149.377215 
L 75.511988 -149.618227 
L 75.713673 -149.859239 
L 75.913851 -150.100251 
L 76.110006 -150.341263 
L 76.300034 -150.582275 
L 76.482312 -150.823287 
L 76.655734 -151.064299 
L 76.819703 -151.305311 
L 76.974094 -151.546323 
L 77.119197 -151.787335 
L 77.255634 -152.028346 
L 77.384267 -152.269358 
L 77.506113 -152.51037 
L 77.622247 -152.751382 
L 77.733725 -152.992394 
L 77.841516 -153.233406 
L 77.946449 -153.474418 
L 78.049172 -153.71543 
L 78.150134 -153.956442 
L 78.249573 -154.197454 
L 78.347525 -154.438466 
L 78.443843 -154.679477 
L 78.53822 -154.920489 
L 78.630227 -155.161501 
L 78.71935 -155.402513 
L 78.805029 -155.643525 
L 78.886702 -155.884537 
L 78.963839 -156.125549 
L 79.035976 -156.366561 
L 79.102737 -156.607573 
L 79.16386 -156.848585 
L 79.219199 -157.089597 
L 79.268731 -157.330608 
L 79.312553 -157.57162 
L 79.350864 -157.812632 
L 79.38396 -158.053644 
L 79.412205 -158.294656 
L 79.436018 -158.535668 
L 79.625232 -158.535668 
L 79.625232 -158.535668 
L 79.649045 -158.294656 
L 79.67729 -158.053644 
L 79.710386 -157.812632 
L 79.748697 -157.57162 
L 79.792519 -157.330608 
L 79.842051 -157.089597 
L 79.89739 -156.848585 
L 79.958513 -156.607573 
L 80.025274 -156.366561 
L 80.097411 -156.125549 
L 80.174548 -155.884537 
L 80.256221 -155.643525 
L 80.3419 -155.402513 
L 80.431023 -155.161501 
L 80.52303 -154.920489 
L 80.617407 -154.679477 
L 80.713725 -154.438466 
L 80.811677 -154.197454 
L 80.911116 -153.956442 
L 81.012078 -153.71543 
L 81.114801 -153.474418 
L 81.219734 -153.233406 
L 81.327525 -152.992394 
L 81.439003 -152.751382 
L 81.555137 -152.51037 
L 81.676983 -152.269358 
L 81.805616 -152.028346 
L 81.942053 -151.787335 
L 82.087156 -151.546323 
L 82.241547 -151.305311 
L 82.405516 -151.064299 
L 82.578938 -150.823287 
L 82.761216 -150.582275 
L 82.951244 -150.341263 
L 83.147399 -150.100251 
L 83.347577 -149.859239 
L 83.549262 -149.618227 
L 83.749628 -149.377215 
L 83.945679 -149.136204 
L 84.134405 -148.895192 
L 84.31295 -148.65418 
L 84.478775 -148.413168 
L 84.629808 -148.172156 
L 84.764551 -147.931144 
L 84.882157 -147.690132 
L 84.982449 -147.44912 
L 85.065885 -147.208108 
L 85.133477 -146.967096 
L 85.186664 -146.726084 
L 85.22715 -146.485073 
L 85.256728 -146.244061 
L 85.277106 -146.003049 
L 85.289744 -145.762037 
L 85.295726 -145.521025 
L 85.295674 -145.280013 
L 85.289708 -145.039001 
L 85.277465 -144.797989 
L 85.258154 -144.556977 
L 85.230657 -144.315965 
L 85.193661 -144.074953 
L 85.145792 -143.833942 
L 85.085754 -143.59293 
L 85.012457 -143.351918 
L 84.925107 -143.110906 
L 84.823277 -142.869894 
L 84.706927 -142.628882 
L 84.576401 -142.38787 
L 84.432387 -142.146858 
L 84.275856 -141.905846 
L 84.107987 -141.664834 
L 83.93009 -141.423822 
L 83.743538 -141.182811 
L 83.549704 -140.941799 
L 83.349927 -140.700787 
L 83.14549 -140.459775 
L 82.937617 -140.218763 
L 82.72749 -139.977751 
L 82.516266 -139.736739 
L 82.305107 -139.495727 
L 82.095196 -139.254715 
L 81.88776 -139.013703 
L 81.684063 -138.772691 
L 81.4854 -138.53168 
L 81.293071 -138.290668 
L 81.108347 -138.049656 
L 80.932428 -137.808644 
L 80.766396 -137.567632 
L 80.611174 -137.32662 
L 80.46749 -137.085608 
L 80.335845 -136.844596 
L 80.216502 -136.603584 
L 80.109482 -136.362572 
L 80.01457 -136.12156 
L 79.931342 -135.880549 
L 79.859189 -135.639537 
L 79.797357 -135.398525 
L 79.744983 -135.157513 
L 79.701138 -134.916501 
L 79.664864 -134.675489 
z
" id="m6dd3e4442d" style="stroke:#3d3d3d;stroke-width:1.5;"/>
    </defs>
    <g clip-path="url(#p3d745dcd7e)">
     <use style="fill:#c4b5d0;stroke:#3d3d3d;stroke-width:1.5;" x="0" xlink:href="#m6dd3e4442d" y="368.607178"/>
    </g>
   </g>
   <g id="PolyCollection_2">
    <defs>
     <path d="M 119.271051 -106.608969 
L 119.150199 -106.608969 
L 119.128486 -108.416821 
L 119.100613 -110.224674 
L 119.065447 -112.032527 
L 119.02185 -113.840379 
L 118.968757 -115.648232 
L 118.905263 -117.456084 
L 118.830727 -119.263937 
L 118.744886 -121.071789 
L 118.647953 -122.879642 
L 118.540717 -124.687494 
L 118.424607 -126.495347 
L 118.301719 -128.303199 
L 118.174804 -130.111052 
L 118.047194 -131.918904 
L 117.922685 -133.726757 
L 117.805353 -135.53461 
L 117.699352 -137.342462 
L 117.608666 -139.150315 
L 117.536863 -140.958167 
L 117.486871 -142.76602 
L 117.460771 -144.573872 
L 117.459663 -146.381725 
L 117.483583 -148.189577 
L 117.531508 -149.99743 
L 117.601423 -151.805282 
L 117.690466 -153.613135 
L 117.795115 -155.420987 
L 117.911425 -157.22884 
L 118.035265 -159.036693 
L 118.16256 -160.844545 
L 118.289504 -162.652398 
L 118.412733 -164.46025 
L 118.529456 -166.268103 
L 118.637521 -168.075955 
L 118.73544 -169.883808 
L 118.822364 -171.69166 
L 118.89802 -173.499513 
L 118.962621 -175.307365 
L 119.016764 -177.115218 
L 119.061323 -178.92307 
L 119.097342 -180.730923 
L 119.125948 -182.538776 
L 119.148275 -184.346628 
L 119.165402 -186.154481 
L 119.178317 -187.962333 
L 119.187891 -189.770186 
L 119.19487 -191.578038 
L 119.199871 -193.385891 
L 119.203394 -195.193743 
L 119.205834 -197.001596 
L 119.207493 -198.809448 
L 119.208598 -200.617301 
L 119.209316 -202.425154 
L 119.209764 -204.233006 
L 119.210023 -206.040859 
L 119.210142 -207.848711 
L 119.210152 -209.656564 
L 119.210062 -211.464416 
L 119.209868 -213.272269 
L 119.209552 -215.080121 
L 119.209086 -216.887974 
L 119.208427 -218.695826 
L 119.207525 -220.503679 
L 119.206316 -222.311531 
L 119.204729 -224.119384 
L 119.20269 -225.927237 
L 119.200119 -227.735089 
L 119.196944 -229.542942 
L 119.193101 -231.350794 
L 119.188546 -233.158647 
L 119.183265 -234.966499 
L 119.177277 -236.774352 
L 119.170646 -238.582204 
L 119.163483 -240.390057 
L 119.15595 -242.197909 
L 119.148254 -244.005762 
L 119.140642 -245.813614 
L 119.133391 -247.621467 
L 119.126788 -249.42932 
L 119.121115 -251.237172 
L 119.116627 -253.045025 
L 119.113534 -254.852877 
L 119.111986 -256.66073 
L 119.112058 -258.468582 
L 119.113748 -260.276435 
L 119.116972 -262.084287 
L 119.121575 -263.89214 
L 119.127342 -265.699992 
L 119.134014 -267.507845 
L 119.141309 -269.315697 
L 119.148939 -271.12355 
L 119.15663 -272.931403 
L 119.164138 -274.739255 
L 119.171259 -276.547108 
L 119.177837 -278.35496 
L 119.183764 -280.162813 
L 119.188981 -281.970665 
L 119.193471 -283.778518 
L 119.197253 -285.58637 
L 119.223997 -285.58637 
L 119.223997 -285.58637 
L 119.227779 -283.778518 
L 119.232269 -281.970665 
L 119.237486 -280.162813 
L 119.243413 -278.35496 
L 119.249991 -276.547108 
L 119.257112 -274.739255 
L 119.26462 -272.931403 
L 119.272311 -271.12355 
L 119.279941 -269.315697 
L 119.287236 -267.507845 
L 119.293908 -265.699992 
L 119.299675 -263.89214 
L 119.304278 -262.084287 
L 119.307502 -260.276435 
L 119.309192 -258.468582 
L 119.309264 -256.66073 
L 119.307716 -254.852877 
L 119.304623 -253.045025 
L 119.300135 -251.237172 
L 119.294462 -249.42932 
L 119.287859 -247.621467 
L 119.280608 -245.813614 
L 119.272996 -244.005762 
L 119.2653 -242.197909 
L 119.257767 -240.390057 
L 119.250604 -238.582204 
L 119.243973 -236.774352 
L 119.237985 -234.966499 
L 119.232704 -233.158647 
L 119.228149 -231.350794 
L 119.224306 -229.542942 
L 119.221131 -227.735089 
L 119.21856 -225.927237 
L 119.216521 -224.119384 
L 119.214934 -222.311531 
L 119.213725 -220.503679 
L 119.212823 -218.695826 
L 119.212164 -216.887974 
L 119.211698 -215.080121 
L 119.211382 -213.272269 
L 119.211188 -211.464416 
L 119.211098 -209.656564 
L 119.211108 -207.848711 
L 119.211227 -206.040859 
L 119.211486 -204.233006 
L 119.211934 -202.425154 
L 119.212652 -200.617301 
L 119.213757 -198.809448 
L 119.215416 -197.001596 
L 119.217856 -195.193743 
L 119.221379 -193.385891 
L 119.22638 -191.578038 
L 119.233359 -189.770186 
L 119.242933 -187.962333 
L 119.255848 -186.154481 
L 119.272975 -184.346628 
L 119.295302 -182.538776 
L 119.323908 -180.730923 
L 119.359927 -178.92307 
L 119.404486 -177.115218 
L 119.458629 -175.307365 
L 119.52323 -173.499513 
L 119.598886 -171.69166 
L 119.68581 -169.883808 
L 119.783729 -168.075955 
L 119.891794 -166.268103 
L 120.008517 -164.46025 
L 120.131746 -162.652398 
L 120.25869 -160.844545 
L 120.385985 -159.036693 
L 120.509825 -157.22884 
L 120.626135 -155.420987 
L 120.730784 -153.613135 
L 120.819827 -151.805282 
L 120.889742 -149.99743 
L 120.937667 -148.189577 
L 120.961587 -146.381725 
L 120.960479 -144.573872 
L 120.934379 -142.76602 
L 120.884387 -140.958167 
L 120.812584 -139.150315 
L 120.721898 -137.342462 
L 120.615897 -135.53461 
L 120.498565 -133.726757 
L 120.374056 -131.918904 
L 120.246446 -130.111052 
L 120.119531 -128.303199 
L 119.996643 -126.495347 
L 119.880533 -124.687494 
L 119.773297 -122.879642 
L 119.676364 -121.071789 
L 119.590523 -119.263937 
L 119.515987 -117.456084 
L 119.452493 -115.648232 
L 119.3994 -113.840379 
L 119.355803 -112.032527 
L 119.320637 -110.224674 
L 119.292764 -108.416821 
L 119.271051 -106.608969 
z
" id="m2edb1adf54" style="stroke:#3d3d3d;stroke-width:1.5;"/>
    </defs>
    <g clip-path="url(#p3d745dcd7e)">
     <use style="fill:#f2a5a3;stroke:#3d3d3d;stroke-width:1.5;" x="0" xlink:href="#m2edb1adf54" y="368.607178"/>
    </g>
   </g>
   <g id="PolyCollection_3">
    <defs>
     <path d="M 159.01501 -132.503901 
L 158.76624 -132.503901 
L 158.728154 -132.747354 
L 158.681053 -132.990806 
L 158.623604 -133.234259 
L 158.554481 -133.477711 
L 158.472414 -133.721164 
L 158.376247 -133.964616 
L 158.264991 -134.208069 
L 158.137871 -134.451521 
L 157.994376 -134.694974 
L 157.83429 -134.938426 
L 157.657713 -135.181879 
L 157.465068 -135.425332 
L 157.257094 -135.668784 
L 157.03483 -135.912237 
L 156.799581 -136.155689 
L 156.552883 -136.399142 
L 156.296462 -136.642594 
L 156.032188 -136.886047 
L 155.762034 -137.129499 
L 155.488035 -137.372952 
L 155.212243 -137.616404 
L 154.936694 -137.859857 
L 154.66336 -138.103309 
L 154.394106 -138.346762 
L 154.130646 -138.590214 
L 153.874492 -138.833667 
L 153.626909 -139.077119 
L 153.38888 -139.320572 
L 153.161084 -139.564024 
L 152.943907 -139.807477 
L 152.737483 -140.050929 
L 152.541768 -140.294382 
L 152.356667 -140.537835 
L 152.182184 -140.781287 
L 152.018593 -141.02474 
L 151.866615 -141.268192 
L 151.727576 -141.511645 
L 151.603508 -141.755097 
L 151.497199 -141.99855 
L 151.412143 -142.242002 
L 151.352407 -142.485455 
L 151.322406 -142.728907 
L 151.326608 -142.97236 
L 151.369185 -143.215812 
L 151.453657 -143.459265 
L 151.582555 -143.702717 
L 151.757137 -143.94617 
L 151.977193 -144.189622 
L 152.240959 -144.433075 
L 152.545133 -144.676527 
L 152.88501 -144.91998 
L 153.254704 -145.163433 
L 153.647437 -145.406885 
L 154.055872 -145.650338 
L 154.472454 -145.89379 
L 154.889737 -146.137243 
L 155.300674 -146.380695 
L 155.698847 -146.624148 
L 156.078643 -146.8676 
L 156.435369 -147.111053 
L 156.765297 -147.354505 
L 157.065673 -147.597958 
L 157.334671 -147.84141 
L 157.571332 -148.084863 
L 157.775471 -148.328315 
L 157.947587 -148.571768 
L 158.088763 -148.81522 
L 158.200578 -149.058673 
L 158.285025 -149.302125 
L 158.344443 -149.545578 
L 158.381456 -149.789031 
L 158.398921 -150.032483 
L 158.39988 -150.275936 
L 158.38751 -150.519388 
L 158.365072 -150.762841 
L 158.335841 -151.006293 
L 158.303034 -151.249746 
L 158.269727 -151.493198 
L 158.238754 -151.736651 
L 158.212618 -151.980103 
L 158.193401 -152.223556 
L 158.182684 -152.467008 
L 158.181501 -152.710461 
L 158.190309 -152.953913 
L 158.208999 -153.197366 
L 158.236938 -153.440818 
L 158.273045 -153.684271 
L 158.315888 -153.927723 
L 158.363799 -154.171176 
L 158.414997 -154.414628 
L 158.467706 -154.658081 
L 158.520262 -154.901534 
L 158.571198 -155.144986 
L 158.619301 -155.388439 
L 158.663653 -155.631891 
L 158.703633 -155.875344 
L 158.738906 -156.118796 
L 158.769392 -156.362249 
L 158.79522 -156.605701 
L 158.98603 -156.605701 
L 158.98603 -156.605701 
L 159.011858 -156.362249 
L 159.042344 -156.118796 
L 159.077617 -155.875344 
L 159.117597 -155.631891 
L 159.161949 -155.388439 
L 159.210052 -155.144986 
L 159.260988 -154.901534 
L 159.313544 -154.658081 
L 159.366253 -154.414628 
L 159.417451 -154.171176 
L 159.465362 -153.927723 
L 159.508205 -153.684271 
L 159.544312 -153.440818 
L 159.572251 -153.197366 
L 159.590941 -152.953913 
L 159.599749 -152.710461 
L 159.598566 -152.467008 
L 159.587849 -152.223556 
L 159.568632 -151.980103 
L 159.542496 -151.736651 
L 159.511523 -151.493198 
L 159.478216 -151.249746 
L 159.445409 -151.006293 
L 159.416178 -150.762841 
L 159.39374 -150.519388 
L 159.38137 -150.275936 
L 159.382329 -150.032483 
L 159.399794 -149.789031 
L 159.436807 -149.545578 
L 159.496225 -149.302125 
L 159.580672 -149.058673 
L 159.692487 -148.81522 
L 159.833663 -148.571768 
L 160.005779 -148.328315 
L 160.209918 -148.084863 
L 160.446579 -147.84141 
L 160.715577 -147.597958 
L 161.015953 -147.354505 
L 161.345881 -147.111053 
L 161.702607 -146.8676 
L 162.082403 -146.624148 
L 162.480576 -146.380695 
L 162.891513 -146.137243 
L 163.308796 -145.89379 
L 163.725378 -145.650338 
L 164.133813 -145.406885 
L 164.526546 -145.163433 
L 164.89624 -144.91998 
L 165.236117 -144.676527 
L 165.540291 -144.433075 
L 165.804057 -144.189622 
L 166.024113 -143.94617 
L 166.198695 -143.702717 
L 166.327593 -143.459265 
L 166.412065 -143.215812 
L 166.454642 -142.97236 
L 166.458844 -142.728907 
L 166.428843 -142.485455 
L 166.369107 -142.242002 
L 166.284051 -141.99855 
L 166.177742 -141.755097 
L 166.053674 -141.511645 
L 165.914635 -141.268192 
L 165.762657 -141.02474 
L 165.599066 -140.781287 
L 165.424583 -140.537835 
L 165.239482 -140.294382 
L 165.043767 -140.050929 
L 164.837343 -139.807477 
L 164.620166 -139.564024 
L 164.39237 -139.320572 
L 164.154341 -139.077119 
L 163.906758 -138.833667 
L 163.650604 -138.590214 
L 163.387144 -138.346762 
L 163.11789 -138.103309 
L 162.844556 -137.859857 
L 162.569007 -137.616404 
L 162.293215 -137.372952 
L 162.019216 -137.129499 
L 161.749062 -136.886047 
L 161.484788 -136.642594 
L 161.228367 -136.399142 
L 160.981669 -136.155689 
L 160.74642 -135.912237 
L 160.524156 -135.668784 
L 160.316182 -135.425332 
L 160.123537 -135.181879 
L 159.94696 -134.938426 
L 159.786874 -134.694974 
L 159.643379 -134.451521 
L 159.516259 -134.208069 
L 159.405003 -133.964616 
L 159.308836 -133.721164 
L 159.226769 -133.477711 
L 159.157646 -133.234259 
L 159.100197 -132.990806 
L 159.053096 -132.747354 
L 159.01501 -132.503901 
z
" id="mff21db691d" style="stroke:#3d3d3d;stroke-width:1.5;"/>
    </defs>
    <g clip-path="url(#p3d745dcd7e)">
     <use style="fill:#3a923a;stroke:#3d3d3d;stroke-width:1.5;" x="0" xlink:href="#mff21db691d" y="368.607178"/>
    </g>
   </g>
   <g id="PolyCollection_4">
    <defs>
     <path d="M 198.675089 -130.230743 
L 198.466161 -130.230743 
L 198.439353 -130.499863 
L 198.407124 -130.768983 
L 198.368763 -131.038104 
L 198.323559 -131.307224 
L 198.270821 -131.576344 
L 198.209904 -131.845465 
L 198.140239 -132.114585 
L 198.061361 -132.383705 
L 197.972941 -132.652826 
L 197.874811 -132.921946 
L 197.766989 -133.191066 
L 197.6497 -133.460187 
L 197.523389 -133.729307 
L 197.388718 -133.998427 
L 197.246565 -134.267548 
L 197.097999 -134.536668 
L 196.944256 -134.805788 
L 196.786695 -135.074909 
L 196.626748 -135.344029 
L 196.465867 -135.613149 
L 196.30546 -135.88227 
L 196.146835 -136.15139 
L 195.991143 -136.42051 
L 195.839337 -136.689631 
L 195.692135 -136.958751 
L 195.55001 -137.227871 
L 195.413192 -137.496992 
L 195.281687 -137.766112 
L 195.155324 -138.035232 
L 195.033805 -138.304353 
L 194.916776 -138.573473 
L 194.803895 -138.842593 
L 194.694901 -139.111714 
L 194.589676 -139.380834 
L 194.48829 -139.649954 
L 194.391029 -139.919075 
L 194.298396 -140.188195 
L 194.211093 -140.457315 
L 194.129984 -140.726436 
L 194.056033 -140.995556 
L 193.990239 -141.264676 
L 193.933559 -141.533797 
L 193.886837 -141.802917 
L 193.850745 -142.072037 
L 193.825731 -142.341158 
L 193.811993 -142.610278 
L 193.809471 -142.879398 
L 193.817851 -143.148519 
L 193.8366 -143.417639 
L 193.864998 -143.686759 
L 193.90219 -143.955879 
L 193.94723 -144.225 
L 193.999132 -144.49412 
L 194.05691 -144.76324 
L 194.11961 -145.032361 
L 194.186336 -145.301481 
L 194.25627 -145.570601 
L 194.328685 -145.839722 
L 194.402951 -146.108842 
L 194.478549 -146.377962 
L 194.55508 -146.647083 
L 194.632273 -146.916203 
L 194.71 -147.185323 
L 194.788288 -147.454444 
L 194.867323 -147.723564 
L 194.947456 -147.992684 
L 195.029194 -148.261805 
L 195.11318 -148.530925 
L 195.200166 -148.800045 
L 195.290968 -149.069166 
L 195.386415 -149.338286 
L 195.487284 -149.607406 
L 195.594243 -149.876527 
L 195.707788 -150.145647 
L 195.828187 -150.414767 
L 195.955437 -150.683888 
L 196.089244 -150.953008 
L 196.229006 -151.222128 
L 196.37383 -151.491249 
L 196.522558 -151.760369 
L 196.673813 -152.029489 
L 196.826058 -152.29861 
L 196.977664 -152.56773 
L 197.126978 -152.83685 
L 197.272396 -153.105971 
L 197.412425 -153.375091 
L 197.54574 -153.644211 
L 197.671223 -153.913332 
L 197.787998 -154.182452 
L 197.895444 -154.451572 
L 197.993195 -154.720693 
L 198.081132 -154.989813 
L 198.159361 -155.258933 
L 198.228185 -155.528054 
L 198.288068 -155.797174 
L 198.339603 -156.066294 
L 198.383471 -156.335415 
L 198.420408 -156.604535 
L 198.451176 -156.873655 
L 198.690074 -156.873655 
L 198.690074 -156.873655 
L 198.720842 -156.604535 
L 198.757779 -156.335415 
L 198.801647 -156.066294 
L 198.853182 -155.797174 
L 198.913065 -155.528054 
L 198.981889 -155.258933 
L 199.060118 -154.989813 
L 199.148055 -154.720693 
L 199.245806 -154.451572 
L 199.353252 -154.182452 
L 199.470027 -153.913332 
L 199.59551 -153.644211 
L 199.728825 -153.375091 
L 199.868854 -153.105971 
L 200.014272 -152.83685 
L 200.163586 -152.56773 
L 200.315192 -152.29861 
L 200.467437 -152.029489 
L 200.618692 -151.760369 
L 200.76742 -151.491249 
L 200.912244 -151.222128 
L 201.052006 -150.953008 
L 201.185813 -150.683888 
L 201.313063 -150.414767 
L 201.433462 -150.145647 
L 201.547007 -149.876527 
L 201.653966 -149.607406 
L 201.754835 -149.338286 
L 201.850282 -149.069166 
L 201.941084 -148.800045 
L 202.02807 -148.530925 
L 202.112056 -148.261805 
L 202.193794 -147.992684 
L 202.273927 -147.723564 
L 202.352962 -147.454444 
L 202.43125 -147.185323 
L 202.508977 -146.916203 
L 202.58617 -146.647083 
L 202.662701 -146.377962 
L 202.738299 -146.108842 
L 202.812565 -145.839722 
L 202.88498 -145.570601 
L 202.954914 -145.301481 
L 203.02164 -145.032361 
L 203.08434 -144.76324 
L 203.142118 -144.49412 
L 203.19402 -144.225 
L 203.23906 -143.955879 
L 203.276252 -143.686759 
L 203.30465 -143.417639 
L 203.323399 -143.148519 
L 203.331779 -142.879398 
L 203.329257 -142.610278 
L 203.315519 -142.341158 
L 203.290505 -142.072037 
L 203.254413 -141.802917 
L 203.207691 -141.533797 
L 203.151011 -141.264676 
L 203.085217 -140.995556 
L 203.011266 -140.726436 
L 202.930157 -140.457315 
L 202.842854 -140.188195 
L 202.750221 -139.919075 
L 202.65296 -139.649954 
L 202.551574 -139.380834 
L 202.446349 -139.111714 
L 202.337355 -138.842593 
L 202.224474 -138.573473 
L 202.107445 -138.304353 
L 201.985926 -138.035232 
L 201.859563 -137.766112 
L 201.728058 -137.496992 
L 201.59124 -137.227871 
L 201.449115 -136.958751 
L 201.301913 -136.689631 
L 201.150107 -136.42051 
L 200.994415 -136.15139 
L 200.83579 -135.88227 
L 200.675383 -135.613149 
L 200.514502 -135.344029 
L 200.354555 -135.074909 
L 200.196994 -134.805788 
L 200.043251 -134.536668 
L 199.894685 -134.267548 
L 199.752532 -133.998427 
L 199.617861 -133.729307 
L 199.49155 -133.460187 
L 199.374261 -133.191066 
L 199.266439 -132.921946 
L 199.168309 -132.652826 
L 199.079889 -132.383705 
L 199.001011 -132.114585 
L 198.931346 -131.845465 
L 198.870429 -131.576344 
L 198.817691 -131.307224 
L 198.772487 -131.038104 
L 198.734126 -130.768983 
L 198.701897 -130.499863 
L 198.675089 -130.230743 
z
" id="md79d4afe84" style="stroke:#3d3d3d;stroke-width:1.5;"/>
    </defs>
    <g clip-path="url(#p3d745dcd7e)">
     <use style="fill:#3274a1;stroke:#3d3d3d;stroke-width:1.5;" x="0" xlink:href="#md79d4afe84" y="368.607178"/>
    </g>
   </g>
   <g id="PolyCollection_5">
    <defs>
     <path d="M 238.320491 -92.273053 
L 238.180759 -92.273053 
L 238.15697 -94.716689 
L 238.126989 -97.160326 
L 238.089895 -99.603962 
L 238.044853 -102.047598 
L 237.9912 -104.491235 
L 237.928539 -106.934871 
L 237.856833 -109.378507 
L 237.776499 -111.822144 
L 237.688475 -114.26578 
L 237.594262 -116.709417 
L 237.495935 -119.153053 
L 237.396095 -121.596689 
L 237.297781 -124.040326 
L 237.20433 -126.483962 
L 237.119193 -128.927598 
L 237.045733 -131.371235 
L 236.987 -133.814871 
L 236.945523 -136.258507 
L 236.923127 -138.702144 
L 236.920802 -141.14578 
L 236.938625 -143.589417 
L 236.975762 -146.033053 
L 237.030528 -148.476689 
L 237.100516 -150.920326 
L 237.182773 -153.363962 
L 237.274004 -155.807598 
L 237.370792 -158.251235 
L 237.469803 -160.694871 
L 237.567973 -163.138507 
L 237.662643 -165.582144 
L 237.751664 -168.02578 
L 237.833438 -170.469417 
L 237.906924 -172.913053 
L 237.971601 -175.356689 
L 238.027402 -177.800326 
L 238.074631 -180.243962 
L 238.113868 -182.687598 
L 238.145884 -185.131235 
L 238.171551 -187.574871 
L 238.191779 -190.018507 
L 238.207453 -192.462144 
L 238.219399 -194.90578 
L 238.228357 -197.349417 
L 238.234967 -199.793053 
L 238.239769 -202.236689 
L 238.243203 -204.680326 
L 238.24562 -207.123962 
L 238.247295 -209.567598 
L 238.248438 -212.011235 
L 238.249205 -214.454871 
L 238.249709 -216.898507 
L 238.250031 -219.342144 
L 238.250228 -221.78578 
L 238.250336 -224.229417 
L 238.250378 -226.673053 
L 238.250364 -229.116689 
L 238.250297 -231.560326 
L 238.250171 -234.003962 
L 238.249973 -236.447598 
L 238.249683 -238.891235 
L 238.249274 -241.334871 
L 238.248712 -243.778507 
L 238.247956 -246.222144 
L 238.246958 -248.66578 
L 238.245668 -251.109417 
L 238.24403 -253.553053 
L 238.241991 -255.996689 
L 238.239501 -258.440326 
L 238.236523 -260.883962 
L 238.233032 -263.327598 
L 238.229029 -265.771235 
L 238.224537 -268.214871 
L 238.219614 -270.658507 
L 238.214352 -273.102144 
L 238.208873 -275.54578 
L 238.203335 -277.989417 
L 238.197918 -280.433053 
L 238.192818 -282.876689 
L 238.188237 -285.320326 
L 238.184368 -287.763962 
L 238.181383 -290.207598 
L 238.17942 -292.651235 
L 238.17857 -295.094871 
L 238.178874 -297.538507 
L 238.180318 -299.982144 
L 238.182833 -302.42578 
L 238.186302 -304.869417 
L 238.190568 -307.313053 
L 238.195447 -309.756689 
L 238.200739 -312.200326 
L 238.206244 -314.643962 
L 238.211772 -317.087598 
L 238.217154 -319.531235 
L 238.222251 -321.974871 
L 238.226957 -324.418507 
L 238.231197 -326.862144 
L 238.234932 -329.30578 
L 238.238152 -331.749417 
L 238.240869 -334.193053 
L 238.260381 -334.193053 
L 238.260381 -334.193053 
L 238.263098 -331.749417 
L 238.266318 -329.30578 
L 238.270053 -326.862144 
L 238.274293 -324.418507 
L 238.278999 -321.974871 
L 238.284096 -319.531235 
L 238.289478 -317.087598 
L 238.295006 -314.643962 
L 238.300511 -312.200326 
L 238.305803 -309.756689 
L 238.310682 -307.313053 
L 238.314948 -304.869417 
L 238.318417 -302.42578 
L 238.320932 -299.982144 
L 238.322376 -297.538507 
L 238.32268 -295.094871 
L 238.32183 -292.651235 
L 238.319867 -290.207598 
L 238.316882 -287.763962 
L 238.313013 -285.320326 
L 238.308432 -282.876689 
L 238.303332 -280.433053 
L 238.297915 -277.989417 
L 238.292377 -275.54578 
L 238.286898 -273.102144 
L 238.281636 -270.658507 
L 238.276713 -268.214871 
L 238.272221 -265.771235 
L 238.268218 -263.327598 
L 238.264727 -260.883962 
L 238.261749 -258.440326 
L 238.259259 -255.996689 
L 238.25722 -253.553053 
L 238.255582 -251.109417 
L 238.254292 -248.66578 
L 238.253294 -246.222144 
L 238.252538 -243.778507 
L 238.251976 -241.334871 
L 238.251567 -238.891235 
L 238.251277 -236.447598 
L 238.251079 -234.003962 
L 238.250953 -231.560326 
L 238.250886 -229.116689 
L 238.250872 -226.673053 
L 238.250914 -224.229417 
L 238.251022 -221.78578 
L 238.251219 -219.342144 
L 238.251541 -216.898507 
L 238.252045 -214.454871 
L 238.252812 -212.011235 
L 238.253955 -209.567598 
L 238.25563 -207.123962 
L 238.258047 -204.680326 
L 238.261481 -202.236689 
L 238.266283 -199.793053 
L 238.272893 -197.349417 
L 238.281851 -194.90578 
L 238.293797 -192.462144 
L 238.309471 -190.018507 
L 238.329699 -187.574871 
L 238.355366 -185.131235 
L 238.387382 -182.687598 
L 238.426619 -180.243962 
L 238.473848 -177.800326 
L 238.529649 -175.356689 
L 238.594326 -172.913053 
L 238.667812 -170.469417 
L 238.749586 -168.02578 
L 238.838607 -165.582144 
L 238.933277 -163.138507 
L 239.031447 -160.694871 
L 239.130458 -158.251235 
L 239.227246 -155.807598 
L 239.318477 -153.363962 
L 239.400734 -150.920326 
L 239.470722 -148.476689 
L 239.525488 -146.033053 
L 239.562625 -143.589417 
L 239.580448 -141.14578 
L 239.578123 -138.702144 
L 239.555727 -136.258507 
L 239.51425 -133.814871 
L 239.455517 -131.371235 
L 239.382057 -128.927598 
L 239.29692 -126.483962 
L 239.203469 -124.040326 
L 239.105155 -121.596689 
L 239.005315 -119.153053 
L 238.906988 -116.709417 
L 238.812775 -114.26578 
L 238.724751 -111.822144 
L 238.644417 -109.378507 
L 238.572711 -106.934871 
L 238.51005 -104.491235 
L 238.456397 -102.047598 
L 238.411355 -99.603962 
L 238.374261 -97.160326 
L 238.34428 -94.716689 
L 238.320491 -92.273053 
z
" id="m568c13f95f" style="stroke:#3d3d3d;stroke-width:1.5;"/>
    </defs>
    <g clip-path="url(#p3d745dcd7e)">
     <use style="fill:#e1812c;stroke:#3d3d3d;stroke-width:1.5;" x="0" xlink:href="#m568c13f95f" y="368.607178"/>
    </g>
   </g>
   <g id="PolyCollection_6">
    <defs>
     <path d="M 278.108577 -128.672044 
L 277.752673 -128.672044 
L 277.708271 -128.804172 
L 277.655488 -128.9363 
L 277.593431 -129.068427 
L 277.521259 -129.200555 
L 277.438215 -129.332683 
L 277.343661 -129.464811 
L 277.2371 -129.596939 
L 277.118201 -129.729067 
L 276.986814 -129.861194 
L 276.842971 -129.993322 
L 276.686885 -130.12545 
L 276.51893 -130.257578 
L 276.339619 -130.389706 
L 276.149566 -130.521834 
L 275.949443 -130.653961 
L 275.739941 -130.786089 
L 275.521718 -130.918217 
L 275.295359 -131.050345 
L 275.06134 -131.182473 
L 274.82 -131.314601 
L 274.571528 -131.446728 
L 274.315958 -131.578856 
L 274.053185 -131.710984 
L 273.782992 -131.843112 
L 273.505094 -131.97524 
L 273.219186 -132.107367 
L 272.925012 -132.239495 
L 272.622429 -132.371623 
L 272.311483 -132.503751 
L 271.992472 -132.635879 
L 271.666017 -132.768007 
L 271.333108 -132.900134 
L 270.995142 -133.032262 
L 270.653949 -133.16439 
L 270.311785 -133.296518 
L 269.971316 -133.428646 
L 269.635576 -133.560774 
L 269.307904 -133.692901 
L 268.991868 -133.825029 
L 268.691172 -133.957157 
L 268.409555 -134.089285 
L 268.150689 -134.221413 
L 267.918066 -134.353541 
L 267.714894 -134.485668 
L 267.544002 -134.617796 
L 267.407742 -134.749924 
L 267.307912 -134.882052 
L 267.245685 -135.01418 
L 267.221551 -135.146308 
L 267.235281 -135.278435 
L 267.285903 -135.410563 
L 267.371705 -135.542691 
L 267.490263 -135.674819 
L 267.638495 -135.806947 
L 267.812745 -135.939075 
L 268.0089 -136.071202 
L 268.222534 -136.20333 
L 268.449072 -136.335458 
L 268.683974 -136.467586 
L 268.922929 -136.599714 
L 269.162032 -136.731842 
L 269.397964 -136.863969 
L 269.628123 -136.996097 
L 269.850731 -137.128225 
L 270.064891 -137.260353 
L 270.270593 -137.392481 
L 270.468663 -137.524609 
L 270.660674 -137.656736 
L 270.848809 -137.788864 
L 271.03569 -137.920992 
L 271.224188 -138.05312 
L 271.417225 -138.185248 
L 271.61758 -138.317375 
L 271.827708 -138.449503 
L 272.049586 -138.581631 
L 272.284589 -138.713759 
L 272.533409 -138.845887 
L 272.796012 -138.978015 
L 273.071631 -139.110142 
L 273.358808 -139.24227 
L 273.655464 -139.374398 
L 273.958995 -139.506526 
L 274.266401 -139.638654 
L 274.574417 -139.770782 
L 274.879664 -139.902909 
L 275.178787 -140.035037 
L 275.468589 -140.167165 
L 275.746155 -140.299293 
L 276.008949 -140.431421 
L 276.254888 -140.563549 
L 276.48239 -140.695676 
L 276.6904 -140.827804 
L 276.878379 -140.959932 
L 277.046281 -141.09206 
L 277.194505 -141.224188 
L 277.323831 -141.356316 
L 277.435354 -141.488443 
L 277.5304 -141.620571 
L 277.610457 -141.752699 
L 278.250793 -141.752699 
L 278.250793 -141.752699 
L 278.33085 -141.620571 
L 278.425896 -141.488443 
L 278.537419 -141.356316 
L 278.666745 -141.224188 
L 278.814969 -141.09206 
L 278.982871 -140.959932 
L 279.17085 -140.827804 
L 279.37886 -140.695676 
L 279.606362 -140.563549 
L 279.852301 -140.431421 
L 280.115095 -140.299293 
L 280.392661 -140.167165 
L 280.682463 -140.035037 
L 280.981586 -139.902909 
L 281.286833 -139.770782 
L 281.594849 -139.638654 
L 281.902255 -139.506526 
L 282.205786 -139.374398 
L 282.502442 -139.24227 
L 282.789619 -139.110142 
L 283.065238 -138.978015 
L 283.327841 -138.845887 
L 283.576661 -138.713759 
L 283.811664 -138.581631 
L 284.033542 -138.449503 
L 284.24367 -138.317375 
L 284.444025 -138.185248 
L 284.637062 -138.05312 
L 284.82556 -137.920992 
L 285.012441 -137.788864 
L 285.200576 -137.656736 
L 285.392587 -137.524609 
L 285.590657 -137.392481 
L 285.796359 -137.260353 
L 286.010519 -137.128225 
L 286.233127 -136.996097 
L 286.463286 -136.863969 
L 286.699218 -136.731842 
L 286.938321 -136.599714 
L 287.177276 -136.467586 
L 287.412178 -136.335458 
L 287.638716 -136.20333 
L 287.85235 -136.071202 
L 288.048505 -135.939075 
L 288.222755 -135.806947 
L 288.370987 -135.674819 
L 288.489545 -135.542691 
L 288.575347 -135.410563 
L 288.625969 -135.278435 
L 288.639699 -135.146308 
L 288.615565 -135.01418 
L 288.553338 -134.882052 
L 288.453508 -134.749924 
L 288.317248 -134.617796 
L 288.146356 -134.485668 
L 287.943184 -134.353541 
L 287.710561 -134.221413 
L 287.451695 -134.089285 
L 287.170078 -133.957157 
L 286.869382 -133.825029 
L 286.553346 -133.692901 
L 286.225674 -133.560774 
L 285.889934 -133.428646 
L 285.549465 -133.296518 
L 285.207301 -133.16439 
L 284.866108 -133.032262 
L 284.528142 -132.900134 
L 284.195233 -132.768007 
L 283.868778 -132.635879 
L 283.549767 -132.503751 
L 283.238821 -132.371623 
L 282.936238 -132.239495 
L 282.642064 -132.107367 
L 282.356156 -131.97524 
L 282.078258 -131.843112 
L 281.808065 -131.710984 
L 281.545292 -131.578856 
L 281.289722 -131.446728 
L 281.04125 -131.314601 
L 280.79991 -131.182473 
L 280.565891 -131.050345 
L 280.339532 -130.918217 
L 280.121309 -130.786089 
L 279.911807 -130.653961 
L 279.711684 -130.521834 
L 279.521631 -130.389706 
L 279.34232 -130.257578 
L 279.174365 -130.12545 
L 279.018279 -129.993322 
L 278.874436 -129.861194 
L 278.743049 -129.729067 
L 278.62415 -129.596939 
L 278.517589 -129.464811 
L 278.423035 -129.332683 
L 278.339991 -129.200555 
L 278.267819 -129.068427 
L 278.205762 -128.9363 
L 278.152979 -128.804172 
L 278.108577 -128.672044 
z
" id="m3bdca9b99d" style="stroke:#3d3d3d;stroke-width:1.5;"/>
    </defs>
    <g clip-path="url(#p3d745dcd7e)">
     <use style="fill:#d1d197;stroke:#3d3d3d;stroke-width:1.5;" x="0" xlink:href="#m3bdca9b99d" y="368.607178"/>
    </g>
   </g>
   <g id="PolyCollection_7">
    <defs>
     <path d="M 317.754912 -118.845939 
L 317.466338 -118.845939 
L 317.429004 -119.101079 
L 317.384915 -119.35622 
L 317.33368 -119.611361 
L 317.275109 -119.866501 
L 317.209269 -120.121642 
L 317.136525 -120.376783 
L 317.05757 -120.631923 
L 316.973443 -120.887064 
L 316.885513 -121.142204 
L 316.795441 -121.397345 
L 316.705122 -121.652486 
L 316.61659 -121.907626 
L 316.531914 -122.162767 
L 316.453068 -122.417908 
L 316.381808 -122.673048 
L 316.319543 -122.928189 
L 316.267233 -123.183329 
L 316.225301 -123.43847 
L 316.193583 -123.693611 
L 316.171317 -123.948751 
L 316.157162 -124.203892 
L 316.149261 -124.459033 
L 316.145329 -124.714173 
L 316.142762 -124.969314 
L 316.138764 -125.224454 
L 316.130467 -125.479595 
L 316.115051 -125.734736 
L 316.089844 -125.989876 
L 316.052404 -126.245017 
L 316.000581 -126.500157 
L 315.932554 -126.755298 
L 315.846849 -127.010439 
L 315.742349 -127.265579 
L 315.618291 -127.52072 
L 315.474252 -127.775861 
L 315.310149 -128.031001 
L 315.12623 -128.286142 
L 314.92307 -128.541282 
L 314.701575 -128.796423 
L 314.462982 -129.051564 
L 314.208859 -129.306704 
L 313.941109 -129.561845 
L 313.661958 -129.816986 
L 313.373949 -130.072126 
L 313.079923 -130.327267 
L 312.782996 -130.582407 
L 312.486533 -130.837548 
L 312.194114 -131.092689 
L 311.909498 -131.347829 
L 311.636585 -131.60297 
L 311.37937 -131.858111 
L 311.14189 -132.113251 
L 310.928166 -132.368392 
L 310.742135 -132.623532 
L 310.587564 -132.878673 
L 310.46796 -133.133814 
L 310.38646 -133.388954 
L 310.345717 -133.644095 
L 310.347778 -133.899235 
L 310.393963 -134.154376 
L 310.484754 -134.409517 
L 310.619707 -134.664657 
L 310.797384 -134.919798 
L 311.015332 -135.174939 
L 311.270104 -135.430079 
L 311.55733 -135.68522 
L 311.871841 -135.94036 
L 312.207839 -136.195501 
L 312.559111 -136.450642 
L 312.919266 -136.705782 
L 313.281991 -136.960923 
L 313.641299 -137.216064 
L 313.991759 -137.471204 
L 314.328683 -137.726345 
L 314.64827 -137.981485 
L 314.947688 -138.236626 
L 315.22509 -138.491767 
L 315.479577 -138.746907 
L 315.711106 -139.002048 
L 315.920354 -139.257189 
L 316.108556 -139.512329 
L 316.277339 -139.76747 
L 316.428544 -140.02261 
L 316.564081 -140.277751 
L 316.685796 -140.532892 
L 316.79538 -140.788032 
L 316.894307 -141.043173 
L 316.983807 -141.298314 
L 317.064865 -141.553454 
L 317.138247 -141.808595 
L 317.204536 -142.063735 
L 317.26418 -142.318876 
L 317.317538 -142.574017 
L 317.364922 -142.829157 
L 317.406633 -143.084298 
L 317.442986 -143.339438 
L 317.474324 -143.594579 
L 317.501024 -143.84972 
L 317.523492 -144.10486 
L 317.697758 -144.10486 
L 317.697758 -144.10486 
L 317.720226 -143.84972 
L 317.746926 -143.594579 
L 317.778264 -143.339438 
L 317.814617 -143.084298 
L 317.856328 -142.829157 
L 317.903712 -142.574017 
L 317.95707 -142.318876 
L 318.016714 -142.063735 
L 318.083003 -141.808595 
L 318.156385 -141.553454 
L 318.237443 -141.298314 
L 318.326943 -141.043173 
L 318.42587 -140.788032 
L 318.535454 -140.532892 
L 318.657169 -140.277751 
L 318.792706 -140.02261 
L 318.943911 -139.76747 
L 319.112694 -139.512329 
L 319.300896 -139.257189 
L 319.510144 -139.002048 
L 319.741673 -138.746907 
L 319.99616 -138.491767 
L 320.273562 -138.236626 
L 320.57298 -137.981485 
L 320.892567 -137.726345 
L 321.229491 -137.471204 
L 321.579951 -137.216064 
L 321.939259 -136.960923 
L 322.301984 -136.705782 
L 322.662139 -136.450642 
L 323.013411 -136.195501 
L 323.349409 -135.94036 
L 323.66392 -135.68522 
L 323.951146 -135.430079 
L 324.205918 -135.174939 
L 324.423866 -134.919798 
L 324.601543 -134.664657 
L 324.736496 -134.409517 
L 324.827287 -134.154376 
L 324.873472 -133.899235 
L 324.875533 -133.644095 
L 324.83479 -133.388954 
L 324.75329 -133.133814 
L 324.633686 -132.878673 
L 324.479115 -132.623532 
L 324.293084 -132.368392 
L 324.07936 -132.113251 
L 323.84188 -131.858111 
L 323.584665 -131.60297 
L 323.311752 -131.347829 
L 323.027136 -131.092689 
L 322.734717 -130.837548 
L 322.438254 -130.582407 
L 322.141327 -130.327267 
L 321.847301 -130.072126 
L 321.559292 -129.816986 
L 321.280141 -129.561845 
L 321.012391 -129.306704 
L 320.758268 -129.051564 
L 320.519675 -128.796423 
L 320.29818 -128.541282 
L 320.09502 -128.286142 
L 319.911101 -128.031001 
L 319.746998 -127.775861 
L 319.602959 -127.52072 
L 319.478901 -127.265579 
L 319.374401 -127.010439 
L 319.288696 -126.755298 
L 319.220669 -126.500157 
L 319.168846 -126.245017 
L 319.131406 -125.989876 
L 319.106199 -125.734736 
L 319.090783 -125.479595 
L 319.082486 -125.224454 
L 319.078488 -124.969314 
L 319.075921 -124.714173 
L 319.071989 -124.459033 
L 319.064088 -124.203892 
L 319.049933 -123.948751 
L 319.027667 -123.693611 
L 318.995949 -123.43847 
L 318.954017 -123.183329 
L 318.901707 -122.928189 
L 318.839442 -122.673048 
L 318.768182 -122.417908 
L 318.689336 -122.162767 
L 318.60466 -121.907626 
L 318.516128 -121.652486 
L 318.425809 -121.397345 
L 318.335737 -121.142204 
L 318.247807 -120.887064 
L 318.16368 -120.631923 
L 318.084725 -120.376783 
L 318.011981 -120.121642 
L 317.946141 -119.866501 
L 317.88757 -119.611361 
L 317.836335 -119.35622 
L 317.792246 -119.101079 
L 317.754912 -118.845939 
z
" id="mcd237ca383" style="stroke:#3d3d3d;stroke-width:1.5;"/>
    </defs>
    <g clip-path="url(#p3d745dcd7e)">
     <use style="fill:#c03d3e;stroke:#3d3d3d;stroke-width:1.5;" x="0" xlink:href="#mcd237ca383" y="368.607178"/>
    </g>
   </g>
   <g id="PolyCollection_8">
    <defs>
     <path d="M 357.403098 -122.365058 
L 357.178152 -122.365058 
L 357.14999 -122.573963 
L 357.116604 -122.782868 
L 357.077503 -122.991773 
L 357.032264 -123.200679 
L 356.980556 -123.409584 
L 356.922165 -123.618489 
L 356.857019 -123.827394 
L 356.785197 -124.036299 
L 356.706948 -124.245205 
L 356.622683 -124.45411 
L 356.532964 -124.663015 
L 356.438487 -124.87192 
L 356.340043 -125.080826 
L 356.238472 -125.289731 
L 356.134615 -125.498636 
L 356.029246 -125.707541 
L 355.923014 -125.916446 
L 355.816375 -126.125352 
L 355.709534 -126.334257 
L 355.602395 -126.543162 
L 355.49452 -126.752067 
L 355.385111 -126.960973 
L 355.273004 -127.169878 
L 355.156688 -127.378783 
L 355.034356 -127.587688 
L 354.903964 -127.796593 
L 354.76333 -128.005499 
L 354.610243 -128.214404 
L 354.442597 -128.423309 
L 354.258528 -128.632214 
L 354.056569 -128.841119 
L 353.835788 -129.050025 
L 353.59593 -129.25893 
L 353.337525 -129.467835 
L 353.061974 -129.67674 
L 352.771596 -129.885646 
L 352.469629 -130.094551 
L 352.160187 -130.303456 
L 351.848161 -130.512361 
L 351.539076 -130.721266 
L 351.238904 -130.930172 
L 350.953838 -131.139077 
L 350.690046 -131.347982 
L 350.453412 -131.556887 
L 350.249276 -131.765792 
L 350.082193 -131.974698 
L 349.955726 -132.183603 
L 349.872281 -132.392508 
L 349.832988 -132.601413 
L 349.837656 -132.810319 
L 349.884777 -133.019224 
L 349.9716 -133.228129 
L 350.094265 -133.437034 
L 350.247978 -133.645939 
L 350.427238 -133.854845 
L 350.626079 -134.06375 
L 350.83834 -134.272655 
L 351.057919 -134.48156 
L 351.279031 -134.690466 
L 351.49643 -134.899371 
L 351.705602 -135.108276 
L 351.902912 -135.317181 
L 352.085714 -135.526086 
L 352.252396 -135.734992 
L 352.402392 -135.943897 
L 352.536139 -136.152802 
L 352.654989 -136.361707 
L 352.761089 -136.570612 
L 352.857229 -136.779518 
L 352.946664 -136.988423 
L 353.032923 -137.197328 
L 353.119618 -137.406233 
L 353.210244 -137.615139 
L 353.308005 -137.824044 
L 353.415646 -138.032949 
L 353.535328 -138.241854 
L 353.668524 -138.450759 
L 353.815959 -138.659665 
L 353.977592 -138.86857 
L 354.152639 -139.077475 
L 354.339626 -139.28638 
L 354.536492 -139.495285 
L 354.740705 -139.704191 
L 354.949402 -139.913096 
L 355.159543 -140.122001 
L 355.368058 -140.330906 
L 355.571993 -140.539812 
L 355.76863 -140.748717 
L 355.955593 -140.957622 
L 356.130923 -141.166527 
L 356.293123 -141.375432 
L 356.441178 -141.584338 
L 356.574542 -141.793243 
L 356.69311 -142.002148 
L 356.797165 -142.211053 
L 356.887319 -142.419958 
L 356.964441 -142.628864 
L 357.029585 -142.837769 
L 357.083927 -143.046674 
L 357.497323 -143.046674 
L 357.497323 -143.046674 
L 357.551665 -142.837769 
L 357.616809 -142.628864 
L 357.693931 -142.419958 
L 357.784085 -142.211053 
L 357.88814 -142.002148 
L 358.006708 -141.793243 
L 358.140072 -141.584338 
L 358.288127 -141.375432 
L 358.450327 -141.166527 
L 358.625657 -140.957622 
L 358.81262 -140.748717 
L 359.009257 -140.539812 
L 359.213192 -140.330906 
L 359.421707 -140.122001 
L 359.631848 -139.913096 
L 359.840545 -139.704191 
L 360.044758 -139.495285 
L 360.241624 -139.28638 
L 360.428611 -139.077475 
L 360.603658 -138.86857 
L 360.765291 -138.659665 
L 360.912726 -138.450759 
L 361.045922 -138.241854 
L 361.165604 -138.032949 
L 361.273245 -137.824044 
L 361.371006 -137.615139 
L 361.461632 -137.406233 
L 361.548327 -137.197328 
L 361.634586 -136.988423 
L 361.724021 -136.779518 
L 361.820161 -136.570612 
L 361.926261 -136.361707 
L 362.045111 -136.152802 
L 362.178858 -135.943897 
L 362.328854 -135.734992 
L 362.495536 -135.526086 
L 362.678338 -135.317181 
L 362.875648 -135.108276 
L 363.08482 -134.899371 
L 363.302219 -134.690466 
L 363.523331 -134.48156 
L 363.74291 -134.272655 
L 363.955171 -134.06375 
L 364.154012 -133.854845 
L 364.333272 -133.645939 
L 364.486985 -133.437034 
L 364.60965 -133.228129 
L 364.696473 -133.019224 
L 364.743594 -132.810319 
L 364.748262 -132.601413 
L 364.708969 -132.392508 
L 364.625524 -132.183603 
L 364.499057 -131.974698 
L 364.331974 -131.765792 
L 364.127838 -131.556887 
L 363.891204 -131.347982 
L 363.627412 -131.139077 
L 363.342346 -130.930172 
L 363.042174 -130.721266 
L 362.733089 -130.512361 
L 362.421063 -130.303456 
L 362.111621 -130.094551 
L 361.809654 -129.885646 
L 361.519276 -129.67674 
L 361.243725 -129.467835 
L 360.98532 -129.25893 
L 360.745462 -129.050025 
L 360.524681 -128.841119 
L 360.322722 -128.632214 
L 360.138653 -128.423309 
L 359.971007 -128.214404 
L 359.81792 -128.005499 
L 359.677286 -127.796593 
L 359.546894 -127.587688 
L 359.424562 -127.378783 
L 359.308246 -127.169878 
L 359.196139 -126.960973 
L 359.08673 -126.752067 
L 358.978855 -126.543162 
L 358.871716 -126.334257 
L 358.764875 -126.125352 
L 358.658236 -125.916446 
L 358.552004 -125.707541 
L 358.446635 -125.498636 
L 358.342778 -125.289731 
L 358.241207 -125.080826 
L 358.142763 -124.87192 
L 358.048286 -124.663015 
L 357.958567 -124.45411 
L 357.874302 -124.245205 
L 357.796053 -124.036299 
L 357.724231 -123.827394 
L 357.659085 -123.618489 
L 357.600694 -123.409584 
L 357.548986 -123.200679 
L 357.503747 -122.991773 
L 357.464646 -122.782868 
L 357.43126 -122.573963 
L 357.403098 -122.365058 
z
" id="m6edcb2cca3" style="stroke:#3d3d3d;stroke-width:1.5;"/>
    </defs>
    <g clip-path="url(#p3d745dcd7e)">
     <use style="fill:#9fd495;stroke:#3d3d3d;stroke-width:1.5;" x="0" xlink:href="#m6edcb2cca3" y="368.607178"/>
    </g>
   </g>
   <g id="PolyCollection_9">
    <defs>
     <path d="M 397.196406 -121.023717 
L 396.744844 -121.023717 
L 396.68955 -121.14832 
L 396.623814 -121.272923 
L 396.546473 -121.397526 
L 396.456431 -121.522128 
L 396.352705 -121.646731 
L 396.234492 -121.771334 
L 396.101224 -121.895937 
L 395.952638 -122.020539 
L 395.788834 -122.145142 
L 395.610329 -122.269745 
L 395.41811 -122.394348 
L 395.213662 -122.51895 
L 394.998987 -122.643553 
L 394.776602 -122.768156 
L 394.549514 -122.892759 
L 394.321173 -123.017361 
L 394.0954 -123.141964 
L 393.87629 -123.266567 
L 393.6681 -123.39117 
L 393.475115 -123.515772 
L 393.301503 -123.640375 
L 393.151164 -123.764978 
L 393.027576 -123.889581 
L 392.933655 -124.014183 
L 392.871616 -124.138786 
L 392.842865 -124.263389 
L 392.847911 -124.387992 
L 392.886304 -124.512595 
L 392.956609 -124.637197 
L 393.056408 -124.7618 
L 393.182332 -124.886403 
L 393.330121 -125.011006 
L 393.494711 -125.135608 
L 393.670332 -125.260211 
L 393.850623 -125.384814 
L 394.028755 -125.509417 
L 394.197553 -125.634019 
L 394.34962 -125.758622 
L 394.47746 -125.883225 
L 394.573597 -126.007828 
L 394.630695 -126.13243 
L 394.641679 -126.257033 
L 394.599867 -126.381636 
L 394.499108 -126.506239 
L 394.333938 -126.630841 
L 394.099755 -126.755444 
L 393.793 -126.880047 
L 393.411363 -127.00465 
L 392.953981 -127.129252 
L 392.421644 -127.253855 
L 391.816974 -127.378458 
L 391.144572 -127.503061 
L 390.411117 -127.627663 
L 389.625402 -127.752266 
L 388.798278 -127.876869 
L 387.942526 -128.001472 
L 387.072616 -128.126074 
L 386.204383 -128.250677 
L 385.354607 -128.37528 
L 384.540525 -128.499883 
L 383.779289 -128.624485 
L 383.087391 -128.749088 
L 382.480091 -128.873691 
L 381.970884 -128.998294 
L 381.571013 -129.122896 
L 381.289079 -129.247499 
L 381.130755 -129.372102 
L 381.098625 -129.496705 
L 381.192148 -129.621307 
L 381.407753 -129.74591 
L 381.739058 -129.870513 
L 382.177182 -129.995116 
L 382.711148 -130.119719 
L 383.328348 -130.244321 
L 384.015025 -130.368924 
L 384.756778 -130.493527 
L 385.53904 -130.61813 
L 386.347519 -130.742732 
L 387.168584 -130.867335 
L 387.98959 -130.991938 
L 388.799123 -131.116541 
L 389.587185 -131.241143 
L 390.345292 -131.365746 
L 391.066523 -131.490349 
L 391.745498 -131.614952 
L 392.378325 -131.739554 
L 392.962493 -131.864157 
L 393.496746 -131.98876 
L 393.980941 -132.113363 
L 394.415892 -132.237965 
L 394.803205 -132.362568 
L 395.145128 -132.487171 
L 395.444398 -132.611774 
L 395.704098 -132.736376 
L 395.927537 -132.860979 
L 396.118131 -132.985582 
L 396.279309 -133.110185 
L 396.414428 -133.234787 
L 396.526714 -133.35939 
L 397.414536 -133.35939 
L 397.414536 -133.35939 
L 397.526822 -133.234787 
L 397.661941 -133.110185 
L 397.823119 -132.985582 
L 398.013713 -132.860979 
L 398.237152 -132.736376 
L 398.496852 -132.611774 
L 398.796122 -132.487171 
L 399.138045 -132.362568 
L 399.525358 -132.237965 
L 399.960309 -132.113363 
L 400.444504 -131.98876 
L 400.978757 -131.864157 
L 401.562925 -131.739554 
L 402.195752 -131.614952 
L 402.874727 -131.490349 
L 403.595958 -131.365746 
L 404.354065 -131.241143 
L 405.142127 -131.116541 
L 405.95166 -130.991938 
L 406.772666 -130.867335 
L 407.593731 -130.742732 
L 408.40221 -130.61813 
L 409.184472 -130.493527 
L 409.926225 -130.368924 
L 410.612902 -130.244321 
L 411.230102 -130.119719 
L 411.764068 -129.995116 
L 412.202192 -129.870513 
L 412.533497 -129.74591 
L 412.749102 -129.621307 
L 412.842625 -129.496705 
L 412.810495 -129.372102 
L 412.652171 -129.247499 
L 412.370237 -129.122896 
L 411.970366 -128.998294 
L 411.461159 -128.873691 
L 410.853859 -128.749088 
L 410.161961 -128.624485 
L 409.400725 -128.499883 
L 408.586643 -128.37528 
L 407.736867 -128.250677 
L 406.868634 -128.126074 
L 405.998724 -128.001472 
L 405.142972 -127.876869 
L 404.315848 -127.752266 
L 403.530133 -127.627663 
L 402.796678 -127.503061 
L 402.124276 -127.378458 
L 401.519606 -127.253855 
L 400.987269 -127.129252 
L 400.529887 -127.00465 
L 400.14825 -126.880047 
L 399.841495 -126.755444 
L 399.607312 -126.630841 
L 399.442142 -126.506239 
L 399.341383 -126.381636 
L 399.299571 -126.257033 
L 399.310555 -126.13243 
L 399.367653 -126.007828 
L 399.46379 -125.883225 
L 399.59163 -125.758622 
L 399.743697 -125.634019 
L 399.912495 -125.509417 
L 400.090627 -125.384814 
L 400.270918 -125.260211 
L 400.446539 -125.135608 
L 400.611129 -125.011006 
L 400.758918 -124.886403 
L 400.884842 -124.7618 
L 400.984641 -124.637197 
L 401.054946 -124.512595 
L 401.093339 -124.387992 
L 401.098385 -124.263389 
L 401.069634 -124.138786 
L 401.007595 -124.014183 
L 400.913674 -123.889581 
L 400.790086 -123.764978 
L 400.639747 -123.640375 
L 400.466135 -123.515772 
L 400.27315 -123.39117 
L 400.06496 -123.266567 
L 399.84585 -123.141964 
L 399.620077 -123.017361 
L 399.391736 -122.892759 
L 399.164648 -122.768156 
L 398.942263 -122.643553 
L 398.727588 -122.51895 
L 398.52314 -122.394348 
L 398.330921 -122.269745 
L 398.152416 -122.145142 
L 397.988612 -122.020539 
L 397.840026 -121.895937 
L 397.706758 -121.771334 
L 397.588545 -121.646731 
L 397.484819 -121.522128 
L 397.394777 -121.397526 
L 397.317436 -121.272923 
L 397.2517 -121.14832 
L 397.196406 -121.023717 
z
" id="m647cef77b9" style="stroke:#3d3d3d;stroke-width:1.5;"/>
    </defs>
    <g clip-path="url(#p3d745dcd7e)">
     <use style="fill:#d684bd;stroke:#3d3d3d;stroke-width:1.5;" x="0" xlink:href="#m647cef77b9" y="368.607178"/>
    </g>
   </g>
   <g id="matplotlib.axis_1">
    <g id="xtick_1">
     <g id="line2d_1">
      <defs>
       <path d="M 0 0 
L 0 3.5 
" id="mbbd37f252b" style="stroke:#000000;stroke-width:0.8;"/>
      </defs>
      <g>
       <use style="stroke:#000000;stroke-width:0.8;" x="79.530625" xlink:href="#mbbd37f252b" y="288.430125"/>
      </g>
     </g>
     <g id="text_1">
      <!-- mopt -->
      <g transform="translate(55.863161 315.074627)rotate(-30)scale(0.1 -0.1)">
       <defs>
        <path d="M 52 44.1875 
Q 55.375 50.25 60.0625 53.125 
Q 64.75 56 71.09375 56 
Q 79.640625 56 84.28125 50.015625 
Q 88.921875 44.046875 88.921875 33.015625 
L 88.921875 0 
L 79.890625 0 
L 79.890625 32.71875 
Q 79.890625 40.578125 77.09375 44.375 
Q 74.3125 48.1875 68.609375 48.1875 
Q 61.625 48.1875 57.5625 43.546875 
Q 53.515625 38.921875 53.515625 30.90625 
L 53.515625 0 
L 44.484375 0 
L 44.484375 32.71875 
Q 44.484375 40.625 41.703125 44.40625 
Q 38.921875 48.1875 33.109375 48.1875 
Q 26.21875 48.1875 22.15625 43.53125 
Q 18.109375 38.875 18.109375 30.90625 
L 18.109375 0 
L 9.078125 0 
L 9.078125 54.6875 
L 18.109375 54.6875 
L 18.109375 46.1875 
Q 21.1875 51.21875 25.484375 53.609375 
Q 29.78125 56 35.6875 56 
Q 41.65625 56 45.828125 52.96875 
Q 50 49.953125 52 44.1875 
z
" id="DejaVuSans-109"/>
        <path d="M 30.609375 48.390625 
Q 23.390625 48.390625 19.1875 42.75 
Q 14.984375 37.109375 14.984375 27.296875 
Q 14.984375 17.484375 19.15625 11.84375 
Q 23.34375 6.203125 30.609375 6.203125 
Q 37.796875 6.203125 41.984375 11.859375 
Q 46.1875 17.53125 46.1875 27.296875 
Q 46.1875 37.015625 41.984375 42.703125 
Q 37.796875 48.390625 30.609375 48.390625 
z
M 30.609375 56 
Q 42.328125 56 49.015625 48.375 
Q 55.71875 40.765625 55.71875 27.296875 
Q 55.71875 13.875 49.015625 6.21875 
Q 42.328125 -1.421875 30.609375 -1.421875 
Q 18.84375 -1.421875 12.171875 6.21875 
Q 5.515625 13.875 5.515625 27.296875 
Q 5.515625 40.765625 12.171875 48.375 
Q 18.84375 56 30.609375 56 
z
" id="DejaVuSans-111"/>
        <path d="M 18.109375 8.203125 
L 18.109375 -20.796875 
L 9.078125 -20.796875 
L 9.078125 54.6875 
L 18.109375 54.6875 
L 18.109375 46.390625 
Q 20.953125 51.265625 25.265625 53.625 
Q 29.59375 56 35.59375 56 
Q 45.5625 56 51.78125 48.09375 
Q 58.015625 40.1875 58.015625 27.296875 
Q 58.015625 14.40625 51.78125 6.484375 
Q 45.5625 -1.421875 35.59375 -1.421875 
Q 29.59375 -1.421875 25.265625 0.953125 
Q 20.953125 3.328125 18.109375 8.203125 
z
M 48.6875 27.296875 
Q 48.6875 37.203125 44.609375 42.84375 
Q 40.53125 48.484375 33.40625 48.484375 
Q 26.265625 48.484375 22.1875 42.84375 
Q 18.109375 37.203125 18.109375 27.296875 
Q 18.109375 17.390625 22.1875 11.75 
Q 26.265625 6.109375 33.40625 6.109375 
Q 40.53125 6.109375 44.609375 11.75 
Q 48.6875 17.390625 48.6875 27.296875 
z
" id="DejaVuSans-112"/>
        <path d="M 18.3125 70.21875 
L 18.3125 54.6875 
L 36.8125 54.6875 
L 36.8125 47.703125 
L 18.3125 47.703125 
L 18.3125 18.015625 
Q 18.3125 11.328125 20.140625 9.421875 
Q 21.96875 7.515625 27.59375 7.515625 
L 36.8125 7.515625 
L 36.8125 0 
L 27.59375 0 
Q 17.1875 0 13.234375 3.875 
Q 9.28125 7.765625 9.28125 18.015625 
L 9.28125 47.703125 
L 2.6875 47.703125 
L 2.6875 54.6875 
L 9.28125 54.6875 
L 9.28125 70.21875 
z
" id="DejaVuSans-116"/>
       </defs>
       <use xlink:href="#DejaVuSans-109"/>
       <use x="97.412109" xlink:href="#DejaVuSans-111"/>
       <use x="158.59375" xlink:href="#DejaVuSans-112"/>
       <use x="222.070312" xlink:href="#DejaVuSans-116"/>
      </g>
     </g>
    </g>
    <g id="xtick_2">
     <g id="line2d_2">
      <g>
       <use style="stroke:#000000;stroke-width:0.8;" x="119.210625" xlink:href="#mbbd37f252b" y="288.430125"/>
      </g>
     </g>
     <g id="text_2">
      <!-- fairfuzz -->
      <g transform="translate(86.22121 320.456659)rotate(-30)scale(0.1 -0.1)">
       <defs>
        <path d="M 37.109375 75.984375 
L 37.109375 68.5 
L 28.515625 68.5 
Q 23.6875 68.5 21.796875 66.546875 
Q 19.921875 64.59375 19.921875 59.515625 
L 19.921875 54.6875 
L 34.71875 54.6875 
L 34.71875 47.703125 
L 19.921875 47.703125 
L 19.921875 0 
L 10.890625 0 
L 10.890625 47.703125 
L 2.296875 47.703125 
L 2.296875 54.6875 
L 10.890625 54.6875 
L 10.890625 58.5 
Q 10.890625 67.625 15.140625 71.796875 
Q 19.390625 75.984375 28.609375 75.984375 
z
" id="DejaVuSans-102"/>
        <path d="M 34.28125 27.484375 
Q 23.390625 27.484375 19.1875 25 
Q 14.984375 22.515625 14.984375 16.5 
Q 14.984375 11.71875 18.140625 8.90625 
Q 21.296875 6.109375 26.703125 6.109375 
Q 34.1875 6.109375 38.703125 11.40625 
Q 43.21875 16.703125 43.21875 25.484375 
L 43.21875 27.484375 
z
M 52.203125 31.203125 
L 52.203125 0 
L 43.21875 0 
L 43.21875 8.296875 
Q 40.140625 3.328125 35.546875 0.953125 
Q 30.953125 -1.421875 24.3125 -1.421875 
Q 15.921875 -1.421875 10.953125 3.296875 
Q 6 8.015625 6 15.921875 
Q 6 25.140625 12.171875 29.828125 
Q 18.359375 34.515625 30.609375 34.515625 
L 43.21875 34.515625 
L 43.21875 35.40625 
Q 43.21875 41.609375 39.140625 45 
Q 35.0625 48.390625 27.6875 48.390625 
Q 23 48.390625 18.546875 47.265625 
Q 14.109375 46.140625 10.015625 43.890625 
L 10.015625 52.203125 
Q 14.9375 54.109375 19.578125 55.046875 
Q 24.21875 56 28.609375 56 
Q 40.484375 56 46.34375 49.84375 
Q 52.203125 43.703125 52.203125 31.203125 
z
" id="DejaVuSans-97"/>
        <path d="M 9.421875 54.6875 
L 18.40625 54.6875 
L 18.40625 0 
L 9.421875 0 
z
M 9.421875 75.984375 
L 18.40625 75.984375 
L 18.40625 64.59375 
L 9.421875 64.59375 
z
" id="DejaVuSans-105"/>
        <path d="M 41.109375 46.296875 
Q 39.59375 47.171875 37.8125 47.578125 
Q 36.03125 48 33.890625 48 
Q 26.265625 48 22.1875 43.046875 
Q 18.109375 38.09375 18.109375 28.8125 
L 18.109375 0 
L 9.078125 0 
L 9.078125 54.6875 
L 18.109375 54.6875 
L 18.109375 46.1875 
Q 20.953125 51.171875 25.484375 53.578125 
Q 30.03125 56 36.53125 56 
Q 37.453125 56 38.578125 55.875 
Q 39.703125 55.765625 41.0625 55.515625 
z
" id="DejaVuSans-114"/>
        <path d="M 8.5 21.578125 
L 8.5 54.6875 
L 17.484375 54.6875 
L 17.484375 21.921875 
Q 17.484375 14.15625 20.5 10.265625 
Q 23.53125 6.390625 29.59375 6.390625 
Q 36.859375 6.390625 41.078125 11.03125 
Q 45.3125 15.671875 45.3125 23.6875 
L 45.3125 54.6875 
L 54.296875 54.6875 
L 54.296875 0 
L 45.3125 0 
L 45.3125 8.40625 
Q 42.046875 3.421875 37.71875 1 
Q 33.40625 -1.421875 27.6875 -1.421875 
Q 18.265625 -1.421875 13.375 4.4375 
Q 8.5 10.296875 8.5 21.578125 
z
M 31.109375 56 
z
" id="DejaVuSans-117"/>
        <path d="M 5.515625 54.6875 
L 48.1875 54.6875 
L 48.1875 46.484375 
L 14.40625 7.171875 
L 48.1875 7.171875 
L 48.1875 0 
L 4.296875 0 
L 4.296875 8.203125 
L 38.09375 47.515625 
L 5.515625 47.515625 
z
" id="DejaVuSans-122"/>
       </defs>
       <use xlink:href="#DejaVuSans-102"/>
       <use x="35.205078" xlink:href="#DejaVuSans-97"/>
       <use x="96.484375" xlink:href="#DejaVuSans-105"/>
       <use x="124.267578" xlink:href="#DejaVuSans-114"/>
       <use x="165.380859" xlink:href="#DejaVuSans-102"/>
       <use x="200.585938" xlink:href="#DejaVuSans-117"/>
       <use x="263.964844" xlink:href="#DejaVuSans-122"/>
       <use x="316.455078" xlink:href="#DejaVuSans-122"/>
      </g>
     </g>
    </g>
    <g id="xtick_3">
     <g id="line2d_3">
      <g>
       <use style="stroke:#000000;stroke-width:0.8;" x="158.890625" xlink:href="#mbbd37f252b" y="288.430125"/>
      </g>
     </g>
     <g id="text_3">
      <!-- libfuzzer -->
      <g transform="translate(121.024404 323.272284)rotate(-30)scale(0.1 -0.1)">
       <defs>
        <path d="M 9.421875 75.984375 
L 18.40625 75.984375 
L 18.40625 0 
L 9.421875 0 
z
" id="DejaVuSans-108"/>
        <path d="M 48.6875 27.296875 
Q 48.6875 37.203125 44.609375 42.84375 
Q 40.53125 48.484375 33.40625 48.484375 
Q 26.265625 48.484375 22.1875 42.84375 
Q 18.109375 37.203125 18.109375 27.296875 
Q 18.109375 17.390625 22.1875 11.75 
Q 26.265625 6.109375 33.40625 6.109375 
Q 40.53125 6.109375 44.609375 11.75 
Q 48.6875 17.390625 48.6875 27.296875 
z
M 18.109375 46.390625 
Q 20.953125 51.265625 25.265625 53.625 
Q 29.59375 56 35.59375 56 
Q 45.5625 56 51.78125 48.09375 
Q 58.015625 40.1875 58.015625 27.296875 
Q 58.015625 14.40625 51.78125 6.484375 
Q 45.5625 -1.421875 35.59375 -1.421875 
Q 29.59375 -1.421875 25.265625 0.953125 
Q 20.953125 3.328125 18.109375 8.203125 
L 18.109375 0 
L 9.078125 0 
L 9.078125 75.984375 
L 18.109375 75.984375 
z
" id="DejaVuSans-98"/>
        <path d="M 56.203125 29.59375 
L 56.203125 25.203125 
L 14.890625 25.203125 
Q 15.484375 15.921875 20.484375 11.0625 
Q 25.484375 6.203125 34.421875 6.203125 
Q 39.59375 6.203125 44.453125 7.46875 
Q 49.3125 8.734375 54.109375 11.28125 
L 54.109375 2.78125 
Q 49.265625 0.734375 44.1875 -0.34375 
Q 39.109375 -1.421875 33.890625 -1.421875 
Q 20.796875 -1.421875 13.15625 6.1875 
Q 5.515625 13.8125 5.515625 26.8125 
Q 5.515625 40.234375 12.765625 48.109375 
Q 20.015625 56 32.328125 56 
Q 43.359375 56 49.78125 48.890625 
Q 56.203125 41.796875 56.203125 29.59375 
z
M 47.21875 32.234375 
Q 47.125 39.59375 43.09375 43.984375 
Q 39.0625 48.390625 32.421875 48.390625 
Q 24.90625 48.390625 20.390625 44.140625 
Q 15.875 39.890625 15.1875 32.171875 
z
" id="DejaVuSans-101"/>
       </defs>
       <use xlink:href="#DejaVuSans-108"/>
       <use x="27.783203" xlink:href="#DejaVuSans-105"/>
       <use x="55.566406" xlink:href="#DejaVuSans-98"/>
       <use x="119.042969" xlink:href="#DejaVuSans-102"/>
       <use x="154.248047" xlink:href="#DejaVuSans-117"/>
       <use x="217.626953" xlink:href="#DejaVuSans-122"/>
       <use x="270.117188" xlink:href="#DejaVuSans-122"/>
       <use x="322.607422" xlink:href="#DejaVuSans-101"/>
       <use x="384.130859" xlink:href="#DejaVuSans-114"/>
      </g>
     </g>
    </g>
    <g id="xtick_4">
     <g id="line2d_4">
      <g>
       <use style="stroke:#000000;stroke-width:0.8;" x="198.570625" xlink:href="#mbbd37f252b" y="288.430125"/>
      </g>
     </g>
     <g id="text_4">
      <!-- aflplusplus -->
      <g transform="translate(150.961618 328.897284)rotate(-30)scale(0.1 -0.1)">
       <defs>
        <path d="M 44.28125 53.078125 
L 44.28125 44.578125 
Q 40.484375 46.53125 36.375 47.5 
Q 32.28125 48.484375 27.875 48.484375 
Q 21.1875 48.484375 17.84375 46.4375 
Q 14.5 44.390625 14.5 40.28125 
Q 14.5 37.15625 16.890625 35.375 
Q 19.28125 33.59375 26.515625 31.984375 
L 29.59375 31.296875 
Q 39.15625 29.25 43.1875 25.515625 
Q 47.21875 21.78125 47.21875 15.09375 
Q 47.21875 7.46875 41.1875 3.015625 
Q 35.15625 -1.421875 24.609375 -1.421875 
Q 20.21875 -1.421875 15.453125 -0.5625 
Q 10.6875 0.296875 5.421875 2 
L 5.421875 11.28125 
Q 10.40625 8.6875 15.234375 7.390625 
Q 20.0625 6.109375 24.8125 6.109375 
Q 31.15625 6.109375 34.5625 8.28125 
Q 37.984375 10.453125 37.984375 14.40625 
Q 37.984375 18.0625 35.515625 20.015625 
Q 33.0625 21.96875 24.703125 23.78125 
L 21.578125 24.515625 
Q 13.234375 26.265625 9.515625 29.90625 
Q 5.8125 33.546875 5.8125 39.890625 
Q 5.8125 47.609375 11.28125 51.796875 
Q 16.75 56 26.8125 56 
Q 31.78125 56 36.171875 55.265625 
Q 40.578125 54.546875 44.28125 53.078125 
z
" id="DejaVuSans-115"/>
       </defs>
       <use xlink:href="#DejaVuSans-97"/>
       <use x="61.279297" xlink:href="#DejaVuSans-102"/>
       <use x="96.484375" xlink:href="#DejaVuSans-108"/>
       <use x="124.267578" xlink:href="#DejaVuSans-112"/>
       <use x="187.744141" xlink:href="#DejaVuSans-108"/>
       <use x="215.527344" xlink:href="#DejaVuSans-117"/>
       <use x="278.90625" xlink:href="#DejaVuSans-115"/>
       <use x="331.005859" xlink:href="#DejaVuSans-112"/>
       <use x="394.482422" xlink:href="#DejaVuSans-108"/>
       <use x="422.265625" xlink:href="#DejaVuSans-117"/>
       <use x="485.644531" xlink:href="#DejaVuSans-115"/>
      </g>
     </g>
    </g>
    <g id="xtick_5">
     <g id="line2d_5">
      <g>
       <use style="stroke:#000000;stroke-width:0.8;" x="238.250625" xlink:href="#mbbd37f252b" y="288.430125"/>
      </g>
     </g>
     <g id="text_5">
      <!-- entropic -->
      <g transform="translate(201.668557 322.530877)rotate(-30)scale(0.1 -0.1)">
       <defs>
        <path d="M 54.890625 33.015625 
L 54.890625 0 
L 45.90625 0 
L 45.90625 32.71875 
Q 45.90625 40.484375 42.875 44.328125 
Q 39.84375 48.1875 33.796875 48.1875 
Q 26.515625 48.1875 22.3125 43.546875 
Q 18.109375 38.921875 18.109375 30.90625 
L 18.109375 0 
L 9.078125 0 
L 9.078125 54.6875 
L 18.109375 54.6875 
L 18.109375 46.1875 
Q 21.34375 51.125 25.703125 53.5625 
Q 30.078125 56 35.796875 56 
Q 45.21875 56 50.046875 50.171875 
Q 54.890625 44.34375 54.890625 33.015625 
z
" id="DejaVuSans-110"/>
        <path d="M 48.78125 52.59375 
L 48.78125 44.1875 
Q 44.96875 46.296875 41.140625 47.34375 
Q 37.3125 48.390625 33.40625 48.390625 
Q 24.65625 48.390625 19.8125 42.84375 
Q 14.984375 37.3125 14.984375 27.296875 
Q 14.984375 17.28125 19.8125 11.734375 
Q 24.65625 6.203125 33.40625 6.203125 
Q 37.3125 6.203125 41.140625 7.25 
Q 44.96875 8.296875 48.78125 10.40625 
L 48.78125 2.09375 
Q 45.015625 0.34375 40.984375 -0.53125 
Q 36.96875 -1.421875 32.421875 -1.421875 
Q 20.0625 -1.421875 12.78125 6.34375 
Q 5.515625 14.109375 5.515625 27.296875 
Q 5.515625 40.671875 12.859375 48.328125 
Q 20.21875 56 33.015625 56 
Q 37.15625 56 41.109375 55.140625 
Q 45.0625 54.296875 48.78125 52.59375 
z
" id="DejaVuSans-99"/>
       </defs>
       <use xlink:href="#DejaVuSans-101"/>
       <use x="61.523438" xlink:href="#DejaVuSans-110"/>
       <use x="124.902344" xlink:href="#DejaVuSans-116"/>
       <use x="164.111328" xlink:href="#DejaVuSans-114"/>
       <use x="202.974609" xlink:href="#DejaVuSans-111"/>
       <use x="264.15625" xlink:href="#DejaVuSans-112"/>
       <use x="327.632812" xlink:href="#DejaVuSans-105"/>
       <use x="355.416016" xlink:href="#DejaVuSans-99"/>
      </g>
     </g>
    </g>
    <g id="xtick_6">
     <g id="line2d_6">
      <g>
       <use style="stroke:#000000;stroke-width:0.8;" x="277.930625" xlink:href="#mbbd37f252b" y="288.430125"/>
      </g>
     </g>
     <g id="text_6">
      <!-- lafintel -->
      <g transform="translate(247.10492 319.20744)rotate(-30)scale(0.1 -0.1)">
       <use xlink:href="#DejaVuSans-108"/>
       <use x="27.783203" xlink:href="#DejaVuSans-97"/>
       <use x="89.0625" xlink:href="#DejaVuSans-102"/>
       <use x="124.267578" xlink:href="#DejaVuSans-105"/>
       <use x="152.050781" xlink:href="#DejaVuSans-110"/>
       <use x="215.429688" xlink:href="#DejaVuSans-116"/>
       <use x="254.638672" xlink:href="#DejaVuSans-101"/>
       <use x="316.162109" xlink:href="#DejaVuSans-108"/>
      </g>
     </g>
    </g>
    <g id="xtick_7">
     <g id="line2d_7">
      <g>
       <use style="stroke:#000000;stroke-width:0.8;" x="317.610625" xlink:href="#mbbd37f252b" y="288.430125"/>
      </g>
     </g>
     <g id="text_7">
      <!-- aflplusplus_qemu -->
      <g transform="translate(240.781693 345.687127)rotate(-30)scale(0.1 -0.1)">
       <defs>
        <path d="M 50.984375 -16.609375 
L 50.984375 -23.578125 
L -0.984375 -23.578125 
L -0.984375 -16.609375 
z
" id="DejaVuSans-95"/>
        <path d="M 14.796875 27.296875 
Q 14.796875 17.390625 18.875 11.75 
Q 22.953125 6.109375 30.078125 6.109375 
Q 37.203125 6.109375 41.296875 11.75 
Q 45.40625 17.390625 45.40625 27.296875 
Q 45.40625 37.203125 41.296875 42.84375 
Q 37.203125 48.484375 30.078125 48.484375 
Q 22.953125 48.484375 18.875 42.84375 
Q 14.796875 37.203125 14.796875 27.296875 
z
M 45.40625 8.203125 
Q 42.578125 3.328125 38.25 0.953125 
Q 33.9375 -1.421875 27.875 -1.421875 
Q 17.96875 -1.421875 11.734375 6.484375 
Q 5.515625 14.40625 5.515625 27.296875 
Q 5.515625 40.1875 11.734375 48.09375 
Q 17.96875 56 27.875 56 
Q 33.9375 56 38.25 53.625 
Q 42.578125 51.265625 45.40625 46.390625 
L 45.40625 54.6875 
L 54.390625 54.6875 
L 54.390625 -20.796875 
L 45.40625 -20.796875 
z
" id="DejaVuSans-113"/>
       </defs>
       <use xlink:href="#DejaVuSans-97"/>
       <use x="61.279297" xlink:href="#DejaVuSans-102"/>
       <use x="96.484375" xlink:href="#DejaVuSans-108"/>
       <use x="124.267578" xlink:href="#DejaVuSans-112"/>
       <use x="187.744141" xlink:href="#DejaVuSans-108"/>
       <use x="215.527344" xlink:href="#DejaVuSans-117"/>
       <use x="278.90625" xlink:href="#DejaVuSans-115"/>
       <use x="331.005859" xlink:href="#DejaVuSans-112"/>
       <use x="394.482422" xlink:href="#DejaVuSans-108"/>
       <use x="422.265625" xlink:href="#DejaVuSans-117"/>
       <use x="485.644531" xlink:href="#DejaVuSans-115"/>
       <use x="537.744141" xlink:href="#DejaVuSans-95"/>
       <use x="587.744141" xlink:href="#DejaVuSans-113"/>
       <use x="651.220703" xlink:href="#DejaVuSans-101"/>
       <use x="712.744141" xlink:href="#DejaVuSans-109"/>
       <use x="810.15625" xlink:href="#DejaVuSans-117"/>
      </g>
     </g>
    </g>
    <g id="xtick_8">
     <g id="line2d_8">
      <g>
       <use style="stroke:#000000;stroke-width:0.8;" x="357.290625" xlink:href="#mbbd37f252b" y="288.430125"/>
      </g>
     </g>
     <g id="text_8">
      <!-- aflplusplus_flat -->
      <g transform="translate(291.05562 339.570721)rotate(-30)scale(0.1 -0.1)">
       <use xlink:href="#DejaVuSans-97"/>
       <use x="61.279297" xlink:href="#DejaVuSans-102"/>
       <use x="96.484375" xlink:href="#DejaVuSans-108"/>
       <use x="124.267578" xlink:href="#DejaVuSans-112"/>
       <use x="187.744141" xlink:href="#DejaVuSans-108"/>
       <use x="215.527344" xlink:href="#DejaVuSans-117"/>
       <use x="278.90625" xlink:href="#DejaVuSans-115"/>
       <use x="331.005859" xlink:href="#DejaVuSans-112"/>
       <use x="394.482422" xlink:href="#DejaVuSans-108"/>
       <use x="422.265625" xlink:href="#DejaVuSans-117"/>
       <use x="485.644531" xlink:href="#DejaVuSans-115"/>
       <use x="537.744141" xlink:href="#DejaVuSans-95"/>
       <use x="587.744141" xlink:href="#DejaVuSans-102"/>
       <use x="622.949219" xlink:href="#DejaVuSans-108"/>
       <use x="650.732422" xlink:href="#DejaVuSans-97"/>
       <use x="712.011719" xlink:href="#DejaVuSans-116"/>
      </g>
     </g>
    </g>
    <g id="xtick_9">
     <g id="line2d_9">
      <g>
       <use style="stroke:#000000;stroke-width:0.8;" x="396.970625" xlink:href="#mbbd37f252b" y="288.430125"/>
      </g>
     </g>
     <g id="text_9">
      <!-- honggfuzz -->
      <g transform="translate(351.031424 327.933221)rotate(-30)scale(0.1 -0.1)">
       <defs>
        <path d="M 54.890625 33.015625 
L 54.890625 0 
L 45.90625 0 
L 45.90625 32.71875 
Q 45.90625 40.484375 42.875 44.328125 
Q 39.84375 48.1875 33.796875 48.1875 
Q 26.515625 48.1875 22.3125 43.546875 
Q 18.109375 38.921875 18.109375 30.90625 
L 18.109375 0 
L 9.078125 0 
L 9.078125 75.984375 
L 18.109375 75.984375 
L 18.109375 46.1875 
Q 21.34375 51.125 25.703125 53.5625 
Q 30.078125 56 35.796875 56 
Q 45.21875 56 50.046875 50.171875 
Q 54.890625 44.34375 54.890625 33.015625 
z
" id="DejaVuSans-104"/>
        <path d="M 45.40625 27.984375 
Q 45.40625 37.75 41.375 43.109375 
Q 37.359375 48.484375 30.078125 48.484375 
Q 22.859375 48.484375 18.828125 43.109375 
Q 14.796875 37.75 14.796875 27.984375 
Q 14.796875 18.265625 18.828125 12.890625 
Q 22.859375 7.515625 30.078125 7.515625 
Q 37.359375 7.515625 41.375 12.890625 
Q 45.40625 18.265625 45.40625 27.984375 
z
M 54.390625 6.78125 
Q 54.390625 -7.171875 48.1875 -13.984375 
Q 42 -20.796875 29.203125 -20.796875 
Q 24.46875 -20.796875 20.265625 -20.09375 
Q 16.0625 -19.390625 12.109375 -17.921875 
L 12.109375 -9.1875 
Q 16.0625 -11.328125 19.921875 -12.34375 
Q 23.78125 -13.375 27.78125 -13.375 
Q 36.625 -13.375 41.015625 -8.765625 
Q 45.40625 -4.15625 45.40625 5.171875 
L 45.40625 9.625 
Q 42.625 4.78125 38.28125 2.390625 
Q 33.9375 0 27.875 0 
Q 17.828125 0 11.671875 7.65625 
Q 5.515625 15.328125 5.515625 27.984375 
Q 5.515625 40.671875 11.671875 48.328125 
Q 17.828125 56 27.875 56 
Q 33.9375 56 38.28125 53.609375 
Q 42.625 51.21875 45.40625 46.390625 
L 45.40625 54.6875 
L 54.390625 54.6875 
z
" id="DejaVuSans-103"/>
       </defs>
       <use xlink:href="#DejaVuSans-104"/>
       <use x="63.378906" xlink:href="#DejaVuSans-111"/>
       <use x="124.560547" xlink:href="#DejaVuSans-110"/>
       <use x="187.939453" xlink:href="#DejaVuSans-103"/>
       <use x="251.416016" xlink:href="#DejaVuSans-103"/>
       <use x="314.892578" xlink:href="#DejaVuSans-102"/>
       <use x="350.097656" xlink:href="#DejaVuSans-117"/>
       <use x="413.476562" xlink:href="#DejaVuSans-122"/>
       <use x="465.966797" xlink:href="#DejaVuSans-122"/>
      </g>
     </g>
    </g>
    <g id="text_10">
     <!-- Fuzzer (highest median coverage on the left) -->
     <g transform="translate(125.632656 359.32749)scale(0.1 -0.1)">
      <defs>
       <path d="M 9.8125 72.90625 
L 51.703125 72.90625 
L 51.703125 64.59375 
L 19.671875 64.59375 
L 19.671875 43.109375 
L 48.578125 43.109375 
L 48.578125 34.8125 
L 19.671875 34.8125 
L 19.671875 0 
L 9.8125 0 
z
" id="DejaVuSans-70"/>
       <path id="DejaVuSans-32"/>
       <path d="M 31 75.875 
Q 24.46875 64.65625 21.28125 53.65625 
Q 18.109375 42.671875 18.109375 31.390625 
Q 18.109375 20.125 21.3125 9.0625 
Q 24.515625 -2 31 -13.1875 
L 23.1875 -13.1875 
Q 15.875 -1.703125 12.234375 9.375 
Q 8.59375 20.453125 8.59375 31.390625 
Q 8.59375 42.28125 12.203125 53.3125 
Q 15.828125 64.359375 23.1875 75.875 
z
" id="DejaVuSans-40"/>
       <path d="M 45.40625 46.390625 
L 45.40625 75.984375 
L 54.390625 75.984375 
L 54.390625 0 
L 45.40625 0 
L 45.40625 8.203125 
Q 42.578125 3.328125 38.25 0.953125 
Q 33.9375 -1.421875 27.875 -1.421875 
Q 17.96875 -1.421875 11.734375 6.484375 
Q 5.515625 14.40625 5.515625 27.296875 
Q 5.515625 40.1875 11.734375 48.09375 
Q 17.96875 56 27.875 56 
Q 33.9375 56 38.25 53.625 
Q 42.578125 51.265625 45.40625 46.390625 
z
M 14.796875 27.296875 
Q 14.796875 17.390625 18.875 11.75 
Q 22.953125 6.109375 30.078125 6.109375 
Q 37.203125 6.109375 41.296875 11.75 
Q 45.40625 17.390625 45.40625 27.296875 
Q 45.40625 37.203125 41.296875 42.84375 
Q 37.203125 48.484375 30.078125 48.484375 
Q 22.953125 48.484375 18.875 42.84375 
Q 14.796875 37.203125 14.796875 27.296875 
z
" id="DejaVuSans-100"/>
       <path d="M 2.984375 54.6875 
L 12.5 54.6875 
L 29.59375 8.796875 
L 46.6875 54.6875 
L 56.203125 54.6875 
L 35.6875 0 
L 23.484375 0 
z
" id="DejaVuSans-118"/>
       <path d="M 8.015625 75.875 
L 15.828125 75.875 
Q 23.140625 64.359375 26.78125 53.3125 
Q 30.421875 42.28125 30.421875 31.390625 
Q 30.421875 20.453125 26.78125 9.375 
Q 23.140625 -1.703125 15.828125 -13.1875 
L 8.015625 -13.1875 
Q 14.5 -2 17.703125 9.0625 
Q 20.90625 20.125 20.90625 31.390625 
Q 20.90625 42.671875 17.703125 53.65625 
Q 14.5 64.65625 8.015625 75.875 
z
" id="DejaVuSans-41"/>
      </defs>
      <use xlink:href="#DejaVuSans-70"/>
      <use x="52.019531" xlink:href="#DejaVuSans-117"/>
      <use x="115.398438" xlink:href="#DejaVuSans-122"/>
      <use x="167.888672" xlink:href="#DejaVuSans-122"/>
      <use x="220.378906" xlink:href="#DejaVuSans-101"/>
      <use x="281.902344" xlink:href="#DejaVuSans-114"/>
      <use x="323.015625" xlink:href="#DejaVuSans-32"/>
      <use x="354.802734" xlink:href="#DejaVuSans-40"/>
      <use x="393.816406" xlink:href="#DejaVuSans-104"/>
      <use x="457.195312" xlink:href="#DejaVuSans-105"/>
      <use x="484.978516" xlink:href="#DejaVuSans-103"/>
      <use x="548.455078" xlink:href="#DejaVuSans-104"/>
      <use x="611.833984" xlink:href="#DejaVuSans-101"/>
      <use x="673.357422" xlink:href="#DejaVuSans-115"/>
      <use x="725.457031" xlink:href="#DejaVuSans-116"/>
      <use x="764.666016" xlink:href="#DejaVuSans-32"/>
      <use x="796.453125" xlink:href="#DejaVuSans-109"/>
      <use x="893.865234" xlink:href="#DejaVuSans-101"/>
      <use x="955.388672" xlink:href="#DejaVuSans-100"/>
      <use x="1018.865234" xlink:href="#DejaVuSans-105"/>
      <use x="1046.648438" xlink:href="#DejaVuSans-97"/>
      <use x="1107.927734" xlink:href="#DejaVuSans-110"/>
      <use x="1171.306641" xlink:href="#DejaVuSans-32"/>
      <use x="1203.09375" xlink:href="#DejaVuSans-99"/>
      <use x="1258.074219" xlink:href="#DejaVuSans-111"/>
      <use x="1319.255859" xlink:href="#DejaVuSans-118"/>
      <use x="1378.435547" xlink:href="#DejaVuSans-101"/>
      <use x="1439.958984" xlink:href="#DejaVuSans-114"/>
      <use x="1481.072266" xlink:href="#DejaVuSans-97"/>
      <use x="1542.351562" xlink:href="#DejaVuSans-103"/>
      <use x="1605.828125" xlink:href="#DejaVuSans-101"/>
      <use x="1667.351562" xlink:href="#DejaVuSans-32"/>
      <use x="1699.138672" xlink:href="#DejaVuSans-111"/>
      <use x="1760.320312" xlink:href="#DejaVuSans-110"/>
      <use x="1823.699219" xlink:href="#DejaVuSans-32"/>
      <use x="1855.486328" xlink:href="#DejaVuSans-116"/>
      <use x="1894.695312" xlink:href="#DejaVuSans-104"/>
      <use x="1958.074219" xlink:href="#DejaVuSans-101"/>
      <use x="2019.597656" xlink:href="#DejaVuSans-32"/>
      <use x="2051.384766" xlink:href="#DejaVuSans-108"/>
      <use x="2079.167969" xlink:href="#DejaVuSans-101"/>
      <use x="2140.691406" xlink:href="#DejaVuSans-102"/>
      <use x="2174.146484" xlink:href="#DejaVuSans-116"/>
      <use x="2213.355469" xlink:href="#DejaVuSans-41"/>
     </g>
    </g>
   </g>
   <g id="matplotlib.axis_2">
    <g id="ytick_1">
     <g id="line2d_10">
      <defs>
       <path d="M 0 0 
L -3.5 0 
" id="mc43a83f31d" style="stroke:#000000;stroke-width:0.8;"/>
      </defs>
      <g>
       <use style="stroke:#000000;stroke-width:0.8;" x="59.690625" xlink:href="#mc43a83f31d" y="246.747645"/>
      </g>
     </g>
     <g id="text_11">
      <!-- 8000 -->
      <g transform="translate(27.240625 250.546864)scale(0.1 -0.1)">
       <defs>
        <path d="M 31.78125 34.625 
Q 24.75 34.625 20.71875 30.859375 
Q 16.703125 27.09375 16.703125 20.515625 
Q 16.703125 13.921875 20.71875 10.15625 
Q 24.75 6.390625 31.78125 6.390625 
Q 38.8125 6.390625 42.859375 10.171875 
Q 46.921875 13.96875 46.921875 20.515625 
Q 46.921875 27.09375 42.890625 30.859375 
Q 38.875 34.625 31.78125 34.625 
z
M 21.921875 38.8125 
Q 15.578125 40.375 12.03125 44.71875 
Q 8.5 49.078125 8.5 55.328125 
Q 8.5 64.0625 14.71875 69.140625 
Q 20.953125 74.21875 31.78125 74.21875 
Q 42.671875 74.21875 48.875 69.140625 
Q 55.078125 64.0625 55.078125 55.328125 
Q 55.078125 49.078125 51.53125 44.71875 
Q 48 40.375 41.703125 38.8125 
Q 48.828125 37.15625 52.796875 32.3125 
Q 56.78125 27.484375 56.78125 20.515625 
Q 56.78125 9.90625 50.3125 4.234375 
Q 43.84375 -1.421875 31.78125 -1.421875 
Q 19.734375 -1.421875 13.25 4.234375 
Q 6.78125 9.90625 6.78125 20.515625 
Q 6.78125 27.484375 10.78125 32.3125 
Q 14.796875 37.15625 21.921875 38.8125 
z
M 18.3125 54.390625 
Q 18.3125 48.734375 21.84375 45.5625 
Q 25.390625 42.390625 31.78125 42.390625 
Q 38.140625 42.390625 41.71875 45.5625 
Q 45.3125 48.734375 45.3125 54.390625 
Q 45.3125 60.0625 41.71875 63.234375 
Q 38.140625 66.40625 31.78125 66.40625 
Q 25.390625 66.40625 21.84375 63.234375 
Q 18.3125 60.0625 18.3125 54.390625 
z
" id="DejaVuSans-56"/>
        <path d="M 31.78125 66.40625 
Q 24.171875 66.40625 20.328125 58.90625 
Q 16.5 51.421875 16.5 36.375 
Q 16.5 21.390625 20.328125 13.890625 
Q 24.171875 6.390625 31.78125 6.390625 
Q 39.453125 6.390625 43.28125 13.890625 
Q 47.125 21.390625 47.125 36.375 
Q 47.125 51.421875 43.28125 58.90625 
Q 39.453125 66.40625 31.78125 66.40625 
z
M 31.78125 74.21875 
Q 44.046875 74.21875 50.515625 64.515625 
Q 56.984375 54.828125 56.984375 36.375 
Q 56.984375 17.96875 50.515625 8.265625 
Q 44.046875 -1.421875 31.78125 -1.421875 
Q 19.53125 -1.421875 13.0625 8.265625 
Q 6.59375 17.96875 6.59375 36.375 
Q 6.59375 54.828125 13.0625 64.515625 
Q 19.53125 74.21875 31.78125 74.21875 
z
" id="DejaVuSans-48"/>
       </defs>
       <use xlink:href="#DejaVuSans-56"/>
       <use x="63.623047" xlink:href="#DejaVuSans-48"/>
       <use x="127.246094" xlink:href="#DejaVuSans-48"/>
       <use x="190.869141" xlink:href="#DejaVuSans-48"/>
      </g>
     </g>
    </g>
    <g id="ytick_2">
     <g id="line2d_11">
      <g>
       <use style="stroke:#000000;stroke-width:0.8;" x="59.690625" xlink:href="#mc43a83f31d" y="201.174817"/>
      </g>
     </g>
     <g id="text_12">
      <!-- 8500 -->
      <g transform="translate(27.240625 204.974036)scale(0.1 -0.1)">
       <defs>
        <path d="M 10.796875 72.90625 
L 49.515625 72.90625 
L 49.515625 64.59375 
L 19.828125 64.59375 
L 19.828125 46.734375 
Q 21.96875 47.46875 24.109375 47.828125 
Q 26.265625 48.1875 28.421875 48.1875 
Q 40.625 48.1875 47.75 41.5 
Q 54.890625 34.8125 54.890625 23.390625 
Q 54.890625 11.625 47.5625 5.09375 
Q 40.234375 -1.421875 26.90625 -1.421875 
Q 22.3125 -1.421875 17.546875 -0.640625 
Q 12.796875 0.140625 7.71875 1.703125 
L 7.71875 11.625 
Q 12.109375 9.234375 16.796875 8.0625 
Q 21.484375 6.890625 26.703125 6.890625 
Q 35.15625 6.890625 40.078125 11.328125 
Q 45.015625 15.765625 45.015625 23.390625 
Q 45.015625 31 40.078125 35.4375 
Q 35.15625 39.890625 26.703125 39.890625 
Q 22.75 39.890625 18.8125 39.015625 
Q 14.890625 38.140625 10.796875 36.28125 
z
" id="DejaVuSans-53"/>
       </defs>
       <use xlink:href="#DejaVuSans-56"/>
       <use x="63.623047" xlink:href="#DejaVuSans-53"/>
       <use x="127.246094" xlink:href="#DejaVuSans-48"/>
       <use x="190.869141" xlink:href="#DejaVuSans-48"/>
      </g>
     </g>
    </g>
    <g id="ytick_3">
     <g id="line2d_12">
      <g>
       <use style="stroke:#000000;stroke-width:0.8;" x="59.690625" xlink:href="#mc43a83f31d" y="155.601989"/>
      </g>
     </g>
     <g id="text_13">
      <!-- 9000 -->
      <g transform="translate(27.240625 159.401208)scale(0.1 -0.1)">
       <defs>
        <path d="M 10.984375 1.515625 
L 10.984375 10.5 
Q 14.703125 8.734375 18.5 7.8125 
Q 22.3125 6.890625 25.984375 6.890625 
Q 35.75 6.890625 40.890625 13.453125 
Q 46.046875 20.015625 46.78125 33.40625 
Q 43.953125 29.203125 39.59375 26.953125 
Q 35.25 24.703125 29.984375 24.703125 
Q 19.046875 24.703125 12.671875 31.3125 
Q 6.296875 37.9375 6.296875 49.421875 
Q 6.296875 60.640625 12.9375 67.421875 
Q 19.578125 74.21875 30.609375 74.21875 
Q 43.265625 74.21875 49.921875 64.515625 
Q 56.59375 54.828125 56.59375 36.375 
Q 56.59375 19.140625 48.40625 8.859375 
Q 40.234375 -1.421875 26.421875 -1.421875 
Q 22.703125 -1.421875 18.890625 -0.6875 
Q 15.09375 0.046875 10.984375 1.515625 
z
M 30.609375 32.421875 
Q 37.25 32.421875 41.125 36.953125 
Q 45.015625 41.5 45.015625 49.421875 
Q 45.015625 57.28125 41.125 61.84375 
Q 37.25 66.40625 30.609375 66.40625 
Q 23.96875 66.40625 20.09375 61.84375 
Q 16.21875 57.28125 16.21875 49.421875 
Q 16.21875 41.5 20.09375 36.953125 
Q 23.96875 32.421875 30.609375 32.421875 
z
" id="DejaVuSans-57"/>
       </defs>
       <use xlink:href="#DejaVuSans-57"/>
       <use x="63.623047" xlink:href="#DejaVuSans-48"/>
       <use x="127.246094" xlink:href="#DejaVuSans-48"/>
       <use x="190.869141" xlink:href="#DejaVuSans-48"/>
      </g>
     </g>
    </g>
    <g id="ytick_4">
     <g id="line2d_13">
      <g>
       <use style="stroke:#000000;stroke-width:0.8;" x="59.690625" xlink:href="#mc43a83f31d" y="110.029161"/>
      </g>
     </g>
     <g id="text_14">
      <!-- 9500 -->
      <g transform="translate(27.240625 113.82838)scale(0.1 -0.1)">
       <use xlink:href="#DejaVuSans-57"/>
       <use x="63.623047" xlink:href="#DejaVuSans-53"/>
       <use x="127.246094" xlink:href="#DejaVuSans-48"/>
       <use x="190.869141" xlink:href="#DejaVuSans-48"/>
      </g>
     </g>
    </g>
    <g id="ytick_5">
     <g id="line2d_14">
      <g>
       <use style="stroke:#000000;stroke-width:0.8;" x="59.690625" xlink:href="#mc43a83f31d" y="64.456333"/>
      </g>
     </g>
     <g id="text_15">
      <!-- 10000 -->
      <g transform="translate(20.878125 68.255552)scale(0.1 -0.1)">
       <defs>
        <path d="M 12.40625 8.296875 
L 28.515625 8.296875 
L 28.515625 63.921875 
L 10.984375 60.40625 
L 10.984375 69.390625 
L 28.421875 72.90625 
L 38.28125 72.90625 
L 38.28125 8.296875 
L 54.390625 8.296875 
L 54.390625 0 
L 12.40625 0 
z
" id="DejaVuSans-49"/>
       </defs>
       <use xlink:href="#DejaVuSans-49"/>
       <use x="63.623047" xlink:href="#DejaVuSans-48"/>
       <use x="127.246094" xlink:href="#DejaVuSans-48"/>
       <use x="190.869141" xlink:href="#DejaVuSans-48"/>
       <use x="254.492188" xlink:href="#DejaVuSans-48"/>
      </g>
     </g>
    </g>
    <g id="text_16">
     <!-- Reached region coverage -->
     <g transform="translate(14.798438 219.136625)rotate(-90)scale(0.1 -0.1)">
      <defs>
       <path d="M 44.390625 34.1875 
Q 47.5625 33.109375 50.5625 29.59375 
Q 53.5625 26.078125 56.59375 19.921875 
L 66.609375 0 
L 56 0 
L 46.6875 18.703125 
Q 43.0625 26.03125 39.671875 28.421875 
Q 36.28125 30.8125 30.421875 30.8125 
L 19.671875 30.8125 
L 19.671875 0 
L 9.8125 0 
L 9.8125 72.90625 
L 32.078125 72.90625 
Q 44.578125 72.90625 50.734375 67.671875 
Q 56.890625 62.453125 56.890625 51.90625 
Q 56.890625 45.015625 53.6875 40.46875 
Q 50.484375 35.9375 44.390625 34.1875 
z
M 19.671875 64.796875 
L 19.671875 38.921875 
L 32.078125 38.921875 
Q 39.203125 38.921875 42.84375 42.21875 
Q 46.484375 45.515625 46.484375 51.90625 
Q 46.484375 58.296875 42.84375 61.546875 
Q 39.203125 64.796875 32.078125 64.796875 
z
" id="DejaVuSans-82"/>
      </defs>
      <use xlink:href="#DejaVuSans-82"/>
      <use x="64.982422" xlink:href="#DejaVuSans-101"/>
      <use x="126.505859" xlink:href="#DejaVuSans-97"/>
      <use x="187.785156" xlink:href="#DejaVuSans-99"/>
      <use x="242.765625" xlink:href="#DejaVuSans-104"/>
      <use x="306.144531" xlink:href="#DejaVuSans-101"/>
      <use x="367.667969" xlink:href="#DejaVuSans-100"/>
      <use x="431.144531" xlink:href="#DejaVuSans-32"/>
      <use x="462.931641" xlink:href="#DejaVuSans-114"/>
      <use x="501.794922" xlink:href="#DejaVuSans-101"/>
      <use x="563.318359" xlink:href="#DejaVuSans-103"/>
      <use x="626.794922" xlink:href="#DejaVuSans-105"/>
      <use x="654.578125" xlink:href="#DejaVuSans-111"/>
      <use x="715.759766" xlink:href="#DejaVuSans-110"/>
      <use x="779.138672" xlink:href="#DejaVuSans-32"/>
      <use x="810.925781" xlink:href="#DejaVuSans-99"/>
      <use x="865.90625" xlink:href="#DejaVuSans-111"/>
      <use x="927.087891" xlink:href="#DejaVuSans-118"/>
      <use x="986.267578" xlink:href="#DejaVuSans-101"/>
      <use x="1047.791016" xlink:href="#DejaVuSans-114"/>
      <use x="1088.904297" xlink:href="#DejaVuSans-97"/>
      <use x="1150.183594" xlink:href="#DejaVuSans-103"/>
      <use x="1213.660156" xlink:href="#DejaVuSans-101"/>
     </g>
    </g>
   </g>
   <g id="line2d_15">
    <path clip-path="url(#p3d745dcd7e)" d="M 79.530625 229.521116 
L 79.530625 214.482083 
" style="fill:none;stroke:#3d3d3d;stroke-linecap:square;stroke-width:1.5;"/>
   </g>
   <g id="line2d_16">
    <path clip-path="url(#p3d745dcd7e)" d="M 79.530625 225.601853 
L 79.530625 220.657201 
" style="fill:none;stroke:#3d3d3d;stroke-linecap:square;stroke-width:4.5;"/>
   </g>
   <g id="line2d_17">
    <path clip-path="url(#p3d745dcd7e)" d="M 119.210625 233.896108 
L 119.210625 214.75552 
" style="fill:none;stroke:#3d3d3d;stroke-linecap:square;stroke-width:1.5;"/>
   </g>
   <g id="line2d_18">
    <path clip-path="url(#p3d745dcd7e)" d="M 119.210625 226.718387 
L 119.210625 218.492492 
" style="fill:none;stroke:#3d3d3d;stroke-linecap:square;stroke-width:4.5;"/>
   </g>
   <g id="line2d_19">
    <path clip-path="url(#p3d745dcd7e)" d="M 158.890625 232.16434 
L 158.890625 222.411755 
" style="fill:none;stroke:#3d3d3d;stroke-linecap:square;stroke-width:1.5;"/>
   </g>
   <g id="line2d_20">
    <path clip-path="url(#p3d745dcd7e)" d="M 158.890625 228.381795 
L 158.890625 224.485319 
" style="fill:none;stroke:#3d3d3d;stroke-linecap:square;stroke-width:4.5;"/>
   </g>
   <g id="line2d_21">
    <path clip-path="url(#p3d745dcd7e)" d="M 198.570625 233.166942 
L 198.570625 216.943016 
" style="fill:none;stroke:#3d3d3d;stroke-linecap:square;stroke-width:1.5;"/>
   </g>
   <g id="line2d_22">
    <path clip-path="url(#p3d745dcd7e)" d="M 198.570625 227.948854 
L 198.570625 222.047172 
" style="fill:none;stroke:#3d3d3d;stroke-linecap:square;stroke-width:4.5;"/>
   </g>
   <g id="line2d_23">
    <path clip-path="url(#p3d745dcd7e)" d="M 238.250625 231.708612 
L 238.250625 224.599251 
" style="fill:none;stroke:#3d3d3d;stroke-linecap:square;stroke-width:1.5;"/>
   </g>
   <g id="line2d_24">
    <path clip-path="url(#p3d745dcd7e)" d="M 238.250625 229.908485 
L 238.250625 225.989222 
" style="fill:none;stroke:#3d3d3d;stroke-linecap:square;stroke-width:4.5;"/>
   </g>
   <g id="line2d_25">
    <path clip-path="url(#p3d745dcd7e)" d="M 277.930625 237.450788 
L 277.930625 229.338825 
" style="fill:none;stroke:#3d3d3d;stroke-linecap:square;stroke-width:1.5;"/>
   </g>
   <g id="line2d_26">
    <path clip-path="url(#p3d745dcd7e)" d="M 277.930625 234.397409 
L 277.930625 231.549107 
" style="fill:none;stroke:#3d3d3d;stroke-linecap:square;stroke-width:4.5;"/>
   </g>
   <g id="line2d_27">
    <path clip-path="url(#p3d745dcd7e)" d="M 317.610625 241.18776 
L 317.610625 228.974242 
" style="fill:none;stroke:#3d3d3d;stroke-linecap:square;stroke-width:1.5;"/>
   </g>
   <g id="line2d_28">
    <path clip-path="url(#p3d745dcd7e)" d="M 317.610625 237.541934 
L 317.610625 233.212515 
" style="fill:none;stroke:#3d3d3d;stroke-linecap:square;stroke-width:4.5;"/>
   </g>
   <g id="line2d_29">
    <path clip-path="url(#p3d745dcd7e)" d="M 357.290625 242.372654 
L 357.290625 229.42997 
" style="fill:none;stroke:#3d3d3d;stroke-linecap:square;stroke-width:1.5;"/>
   </g>
   <g id="line2d_30">
    <path clip-path="url(#p3d745dcd7e)" d="M 357.290625 237.063419 
L 357.290625 232.620068 
" style="fill:none;stroke:#3d3d3d;stroke-linecap:square;stroke-width:4.5;"/>
   </g>
   <g id="line2d_31">
    <path clip-path="url(#p3d745dcd7e)" d="M 396.970625 240.002866 
L 396.970625 237.724225 
" style="fill:none;stroke:#3d3d3d;stroke-linecap:square;stroke-width:1.5;"/>
   </g>
   <g id="line2d_32">
    <path clip-path="url(#p3d745dcd7e)" d="M 396.970625 239.866148 
L 396.970625 238.795187 
" style="fill:none;stroke:#3d3d3d;stroke-linecap:square;stroke-width:4.5;"/>
   </g>
   <g id="patch_3">
    <path d="M 59.690625 246.747645 
L 59.690625 64.456333 
" style="fill:none;stroke:#000000;stroke-linecap:square;stroke-linejoin:miter;stroke-width:0.8;"/>
   </g>
   <g id="patch_4">
    <path d="M 79.530625 288.430125 
L 396.970625 288.430125 
" style="fill:none;stroke:#000000;stroke-linecap:square;stroke-linejoin:miter;stroke-width:0.8;"/>
   </g>
   <g id="PathCollection_1">
    <defs>
     <path d="M 0 1.5 
C 0.397805 1.5 0.77937 1.341951 1.06066 1.06066 
C 1.341951 0.77937 1.5 0.397805 1.5 0 
C 1.5 -0.397805 1.341951 -0.77937 1.06066 -1.06066 
C 0.77937 -1.341951 0.397805 -1.5 0 -1.5 
C -0.397805 -1.5 -0.77937 -1.341951 -1.06066 -1.06066 
C -1.341951 -0.77937 -1.5 -0.397805 -1.5 0 
C -1.5 0.397805 -1.341951 0.77937 -1.06066 1.06066 
C -0.77937 1.341951 -0.397805 1.5 0 1.5 
z
" id="m946ebab680" style="stroke:#3d3d3d;"/>
    </defs>
    <g clip-path="url(#p3d745dcd7e)">
     <use style="fill:#ffffff;stroke:#3d3d3d;" x="79.530625" xlink:href="#m946ebab680" y="223.049774"/>
    </g>
   </g>
   <g id="PathCollection_2">
    <g clip-path="url(#p3d745dcd7e)">
     <use style="fill:#ffffff;stroke:#3d3d3d;" x="119.210625" xlink:href="#m946ebab680" y="223.870085"/>
    </g>
   </g>
   <g id="PathCollection_3">
    <g clip-path="url(#p3d745dcd7e)">
     <use style="fill:#ffffff;stroke:#3d3d3d;" x="158.890625" xlink:href="#m946ebab680" y="225.87529"/>
    </g>
   </g>
   <g id="PathCollection_4">
    <g clip-path="url(#p3d745dcd7e)">
     <use style="fill:#ffffff;stroke:#3d3d3d;" x="198.570625" xlink:href="#m946ebab680" y="225.920863"/>
    </g>
   </g>
   <g id="PathCollection_5">
    <g clip-path="url(#p3d745dcd7e)">
     <use style="fill:#ffffff;stroke:#3d3d3d;" x="238.250625" xlink:href="#m946ebab680" y="228.564087"/>
    </g>
   </g>
   <g id="PathCollection_6">
    <g clip-path="url(#p3d745dcd7e)">
     <use style="fill:#ffffff;stroke:#3d3d3d;" x="277.930625" xlink:href="#m946ebab680" y="233.030224"/>
    </g>
   </g>
   <g id="PathCollection_7">
    <g clip-path="url(#p3d745dcd7e)">
     <use style="fill:#ffffff;stroke:#3d3d3d;" x="317.610625" xlink:href="#m946ebab680" y="235.21772"/>
    </g>
   </g>
   <g id="PathCollection_8">
    <g clip-path="url(#p3d745dcd7e)">
     <use style="fill:#ffffff;stroke:#3d3d3d;" x="357.290625" xlink:href="#m946ebab680" y="235.582302"/>
    </g>
   </g>
   <g id="PathCollection_9">
    <g clip-path="url(#p3d745dcd7e)">
     <use style="fill:#ffffff;stroke:#3d3d3d;" x="396.970625" xlink:href="#m946ebab680" y="239.364847"/>
    </g>
   </g>
   <g id="text_17">
    <!-- mbedtls_fuzz_dtlsclient (23h, 20 trials/fuzzer) -->
    <g transform="translate(101.57625 16.318125)scale(0.12 -0.12)">
     <defs>
      <path d="M 19.1875 8.296875 
L 53.609375 8.296875 
L 53.609375 0 
L 7.328125 0 
L 7.328125 8.296875 
Q 12.9375 14.109375 22.625 23.890625 
Q 32.328125 33.6875 34.8125 36.53125 
Q 39.546875 41.84375 41.421875 45.53125 
Q 43.3125 49.21875 43.3125 52.78125 
Q 43.3125 58.59375 39.234375 62.25 
Q 35.15625 65.921875 28.609375 65.921875 
Q 23.96875 65.921875 18.8125 64.3125 
Q 13.671875 62.703125 7.8125 59.421875 
L 7.8125 69.390625 
Q 13.765625 71.78125 18.9375 73 
Q 24.125 74.21875 28.421875 74.21875 
Q 39.75 74.21875 46.484375 68.546875 
Q 53.21875 62.890625 53.21875 53.421875 
Q 53.21875 48.921875 51.53125 44.890625 
Q 49.859375 40.875 45.40625 35.40625 
Q 44.1875 33.984375 37.640625 27.21875 
Q 31.109375 20.453125 19.1875 8.296875 
z
" id="DejaVuSans-50"/>
      <path d="M 40.578125 39.3125 
Q 47.65625 37.796875 51.625 33 
Q 55.609375 28.21875 55.609375 21.1875 
Q 55.609375 10.40625 48.1875 4.484375 
Q 40.765625 -1.421875 27.09375 -1.421875 
Q 22.515625 -1.421875 17.65625 -0.515625 
Q 12.796875 0.390625 7.625 2.203125 
L 7.625 11.71875 
Q 11.71875 9.328125 16.59375 8.109375 
Q 21.484375 6.890625 26.8125 6.890625 
Q 36.078125 6.890625 40.9375 10.546875 
Q 45.796875 14.203125 45.796875 21.1875 
Q 45.796875 27.640625 41.28125 31.265625 
Q 36.765625 34.90625 28.71875 34.90625 
L 20.21875 34.90625 
L 20.21875 43.015625 
L 29.109375 43.015625 
Q 36.375 43.015625 40.234375 45.921875 
Q 44.09375 48.828125 44.09375 54.296875 
Q 44.09375 59.90625 40.109375 62.90625 
Q 36.140625 65.921875 28.71875 65.921875 
Q 24.65625 65.921875 20.015625 65.03125 
Q 15.375 64.15625 9.8125 62.3125 
L 9.8125 71.09375 
Q 15.4375 72.65625 20.34375 73.4375 
Q 25.25 74.21875 29.59375 74.21875 
Q 40.828125 74.21875 47.359375 69.109375 
Q 53.90625 64.015625 53.90625 55.328125 
Q 53.90625 49.265625 50.4375 45.09375 
Q 46.96875 40.921875 40.578125 39.3125 
z
" id="DejaVuSans-51"/>
      <path d="M 11.71875 12.40625 
L 22.015625 12.40625 
L 22.015625 4 
L 14.015625 -11.625 
L 7.71875 -11.625 
L 11.71875 4 
z
" id="DejaVuSans-44"/>
      <path d="M 25.390625 72.90625 
L 33.6875 72.90625 
L 8.296875 -9.28125 
L 0 -9.28125 
z
" id="DejaVuSans-47"/>
     </defs>
     <use xlink:href="#DejaVuSans-109"/>
     <use x="97.412109" xlink:href="#DejaVuSans-98"/>
     <use x="160.888672" xlink:href="#DejaVuSans-101"/>
     <use x="222.412109" xlink:href="#DejaVuSans-100"/>
     <use x="285.888672" xlink:href="#DejaVuSans-116"/>
     <use x="325.097656" xlink:href="#DejaVuSans-108"/>
     <use x="352.880859" xlink:href="#DejaVuSans-115"/>
     <use x="404.980469" xlink:href="#DejaVuSans-95"/>
     <use x="454.980469" xlink:href="#DejaVuSans-102"/>
     <use x="490.185547" xlink:href="#DejaVuSans-117"/>
     <use x="553.564453" xlink:href="#DejaVuSans-122"/>
     <use x="606.054688" xlink:href="#DejaVuSans-122"/>
     <use x="658.544922" xlink:href="#DejaVuSans-95"/>
     <use x="708.544922" xlink:href="#DejaVuSans-100"/>
     <use x="772.021484" xlink:href="#DejaVuSans-116"/>
     <use x="811.230469" xlink:href="#DejaVuSans-108"/>
     <use x="839.013672" xlink:href="#DejaVuSans-115"/>
     <use x="891.113281" xlink:href="#DejaVuSans-99"/>
     <use x="946.09375" xlink:href="#DejaVuSans-108"/>
     <use x="973.876953" xlink:href="#DejaVuSans-105"/>
     <use x="1001.660156" xlink:href="#DejaVuSans-101"/>
     <use x="1063.183594" xlink:href="#DejaVuSans-110"/>
     <use x="1126.5625" xlink:href="#DejaVuSans-116"/>
     <use x="1165.771484" xlink:href="#DejaVuSans-32"/>
     <use x="1197.558594" xlink:href="#DejaVuSans-40"/>
     <use x="1236.572266" xlink:href="#DejaVuSans-50"/>
     <use x="1300.195312" xlink:href="#DejaVuSans-51"/>
     <use x="1363.818359" xlink:href="#DejaVuSans-104"/>
     <use x="1427.197266" xlink:href="#DejaVuSans-44"/>
     <use x="1458.984375" xlink:href="#DejaVuSans-32"/>
     <use x="1490.771484" xlink:href="#DejaVuSans-50"/>
     <use x="1554.394531" xlink:href="#DejaVuSans-48"/>
     <use x="1618.017578" xlink:href="#DejaVuSans-32"/>
     <use x="1649.804688" xlink:href="#DejaVuSans-116"/>
     <use x="1689.013672" xlink:href="#DejaVuSans-114"/>
     <use x="1730.126953" xlink:href="#DejaVuSans-105"/>
     <use x="1757.910156" xlink:href="#DejaVuSans-97"/>
     <use x="1819.189453" xlink:href="#DejaVuSans-108"/>
     <use x="1846.972656" xlink:href="#DejaVuSans-115"/>
     <use x="1899.072266" xlink:href="#DejaVuSans-47"/>
     <use x="1932.763672" xlink:href="#DejaVuSans-102"/>
     <use x="1967.96875" xlink:href="#DejaVuSans-117"/>
     <use x="2031.347656" xlink:href="#DejaVuSans-122"/>
     <use x="2083.837891" xlink:href="#DejaVuSans-122"/>
     <use x="2136.328125" xlink:href="#DejaVuSans-101"/>
     <use x="2197.851562" xlink:href="#DejaVuSans-114"/>
     <use x="2238.964844" xlink:href="#DejaVuSans-41"/>
    </g>
   </g>
  </g>
 </g>
 <defs>
  <clipPath id="p3d745dcd7e">
   <rect height="266.112" width="357.12" x="59.690625" y="22.318125"/>
  </clipPath>
 </defs>
</svg>
