<?xml version="1.0" encoding="utf-8" standalone="no"?>
<!DOCTYPE svg PUBLIC "-//W3C//DTD SVG 1.1//EN"
  "http://www.w3.org/Graphics/SVG/1.1/DTD/svg11.dtd">
<!-- Created with matplotlib (https://matplotlib.org/) -->
<svg height="325.986375pt" version="1.1" viewBox="0 0 904.48375 325.986375" width="904.48375pt" xmlns="http://www.w3.org/2000/svg" xmlns:xlink="http://www.w3.org/1999/xlink">
 <metadata>
  <rdf:RDF xmlns:cc="http://creativecommons.org/ns#" xmlns:dc="http://purl.org/dc/elements/1.1/" xmlns:rdf="http://www.w3.org/1999/02/22-rdf-syntax-ns#">
   <cc:Work>
    <dc:type rdf:resource="http://purl.org/dc/dcmitype/StillImage"/>
    <dc:date>2020-12-06T10:29:06.759407</dc:date>
    <dc:format>image/svg+xml</dc:format>
    <dc:creator>
     <cc:Agent>
      <dc:title>Matplotlib v3.3.3, https://matplotlib.org/</dc:title>
     </cc:Agent>
    </dc:creator>
   </cc:Work>
  </rdf:RDF>
 </metadata>
 <defs>
  <style type="text/css">*{stroke-linecap:butt;stroke-linejoin:round;}</style>
 </defs>
 <g id="figure_1">
  <g id="patch_1">
   <path d="M 0 325.986375 
L 904.48375 325.986375 
L 904.48375 0 
L 0 0 
z
" style="fill:#ffffff;"/>
  </g>
  <g id="axes_1">
   <g id="patch_2">
    <path d="M 59.690625 288.430125 
L 773.930625 288.430125 
L 773.930625 22.318125 
L 59.690625 22.318125 
z
" style="fill:#ffffff;"/>
   </g>
   <g id="matplotlib.axis_1">
    <g id="xtick_1">
     <g id="line2d_1">
      <defs>
       <path d="M 0 0 
L 0 3.5 
" id="m95380ce06b" style="stroke:#000000;stroke-width:0.8;"/>
      </defs>
      <g>
       <use style="stroke:#000000;stroke-width:0.8;" x="92.15608" xlink:href="#m95380ce06b" y="288.430125"/>
      </g>
     </g>
     <g id="text_1">
      <!-- 14m -->
      <g transform="translate(80.923267 303.028562)scale(0.1 -0.1)">
       <defs>
        <path d="M 12.40625 8.296875 
L 28.515625 8.296875 
L 28.515625 63.921875 
L 10.984375 60.40625 
L 10.984375 69.390625 
L 28.421875 72.90625 
L 38.28125 72.90625 
L 38.28125 8.296875 
L 54.390625 8.296875 
L 54.390625 0 
L 12.40625 0 
z
" id="DejaVuSans-49"/>
        <path d="M 37.796875 64.3125 
L 12.890625 25.390625 
L 37.796875 25.390625 
z
M 35.203125 72.90625 
L 47.609375 72.90625 
L 47.609375 25.390625 
L 58.015625 25.390625 
L 58.015625 17.1875 
L 47.609375 17.1875 
L 47.609375 0 
L 37.796875 0 
L 37.796875 17.1875 
L 4.890625 17.1875 
L 4.890625 26.703125 
z
" id="DejaVuSans-52"/>
        <path d="M 52 44.1875 
Q 55.375 50.25 60.0625 53.125 
Q 64.75 56 71.09375 56 
Q 79.640625 56 84.28125 50.015625 
Q 88.921875 44.046875 88.921875 33.015625 
L 88.921875 0 
L 79.890625 0 
L 79.890625 32.71875 
Q 79.890625 40.578125 77.09375 44.375 
Q 74.3125 48.1875 68.609375 48.1875 
Q 61.625 48.1875 57.5625 43.546875 
Q 53.515625 38.921875 53.515625 30.90625 
L 53.515625 0 
L 44.484375 0 
L 44.484375 32.71875 
Q 44.484375 40.625 41.703125 44.40625 
Q 38.921875 48.1875 33.109375 48.1875 
Q 26.21875 48.1875 22.15625 43.53125 
Q 18.109375 38.875 18.109375 30.90625 
L 18.109375 0 
L 9.078125 0 
L 9.078125 54.6875 
L 18.109375 54.6875 
L 18.109375 46.1875 
Q 21.1875 51.21875 25.484375 53.609375 
Q 29.78125 56 35.6875 56 
Q 41.65625 56 45.828125 52.96875 
Q 50 49.953125 52 44.1875 
z
" id="DejaVuSans-109"/>
       </defs>
       <use xlink:href="#DejaVuSans-49"/>
       <use x="63.623047" xlink:href="#DejaVuSans-52"/>
       <use x="127.246094" xlink:href="#DejaVuSans-109"/>
      </g>
     </g>
    </g>
    <g id="xtick_2">
     <g id="line2d_2">
      <g>
       <use style="stroke:#000000;stroke-width:0.8;" x="151.184336" xlink:href="#m95380ce06b" y="288.430125"/>
      </g>
     </g>
     <g id="text_2">
      <!-- 22m -->
      <g transform="translate(139.951524 303.028562)scale(0.1 -0.1)">
       <defs>
        <path d="M 19.1875 8.296875 
L 53.609375 8.296875 
L 53.609375 0 
L 7.328125 0 
L 7.328125 8.296875 
Q 12.9375 14.109375 22.625 23.890625 
Q 32.328125 33.6875 34.8125 36.53125 
Q 39.546875 41.84375 41.421875 45.53125 
Q 43.3125 49.21875 43.3125 52.78125 
Q 43.3125 58.59375 39.234375 62.25 
Q 35.15625 65.921875 28.609375 65.921875 
Q 23.96875 65.921875 18.8125 64.3125 
Q 13.671875 62.703125 7.8125 59.421875 
L 7.8125 69.390625 
Q 13.765625 71.78125 18.9375 73 
Q 24.125 74.21875 28.421875 74.21875 
Q 39.75 74.21875 46.484375 68.546875 
Q 53.21875 62.890625 53.21875 53.421875 
Q 53.21875 48.921875 51.53125 44.890625 
Q 49.859375 40.875 45.40625 35.40625 
Q 44.1875 33.984375 37.640625 27.21875 
Q 31.109375 20.453125 19.1875 8.296875 
z
" id="DejaVuSans-50"/>
       </defs>
       <use xlink:href="#DejaVuSans-50"/>
       <use x="63.623047" xlink:href="#DejaVuSans-50"/>
       <use x="127.246094" xlink:href="#DejaVuSans-109"/>
      </g>
     </g>
    </g>
    <g id="xtick_3">
     <g id="line2d_3">
      <g>
       <use style="stroke:#000000;stroke-width:0.8;" x="210.212593" xlink:href="#m95380ce06b" y="288.430125"/>
      </g>
     </g>
     <g id="text_3">
      <!-- 34m -->
      <g transform="translate(198.979781 303.028562)scale(0.1 -0.1)">
       <defs>
        <path d="M 40.578125 39.3125 
Q 47.65625 37.796875 51.625 33 
Q 55.609375 28.21875 55.609375 21.1875 
Q 55.609375 10.40625 48.1875 4.484375 
Q 40.765625 -1.421875 27.09375 -1.421875 
Q 22.515625 -1.421875 17.65625 -0.515625 
Q 12.796875 0.390625 7.625 2.203125 
L 7.625 11.71875 
Q 11.71875 9.328125 16.59375 8.109375 
Q 21.484375 6.890625 26.8125 6.890625 
Q 36.078125 6.890625 40.9375 10.546875 
Q 45.796875 14.203125 45.796875 21.1875 
Q 45.796875 27.640625 41.28125 31.265625 
Q 36.765625 34.90625 28.71875 34.90625 
L 20.21875 34.90625 
L 20.21875 43.015625 
L 29.109375 43.015625 
Q 36.375 43.015625 40.234375 45.921875 
Q 44.09375 48.828125 44.09375 54.296875 
Q 44.09375 59.90625 40.109375 62.90625 
Q 36.140625 65.921875 28.71875 65.921875 
Q 24.65625 65.921875 20.015625 65.03125 
Q 15.375 64.15625 9.8125 62.3125 
L 9.8125 71.09375 
Q 15.4375 72.65625 20.34375 73.4375 
Q 25.25 74.21875 29.59375 74.21875 
Q 40.828125 74.21875 47.359375 69.109375 
Q 53.90625 64.015625 53.90625 55.328125 
Q 53.90625 49.265625 50.4375 45.09375 
Q 46.96875 40.921875 40.578125 39.3125 
z
" id="DejaVuSans-51"/>
       </defs>
       <use xlink:href="#DejaVuSans-51"/>
       <use x="63.623047" xlink:href="#DejaVuSans-52"/>
       <use x="127.246094" xlink:href="#DejaVuSans-109"/>
      </g>
     </g>
    </g>
    <g id="xtick_4">
     <g id="line2d_4">
      <g>
       <use style="stroke:#000000;stroke-width:0.8;" x="269.24085" xlink:href="#m95380ce06b" y="288.430125"/>
      </g>
     </g>
     <g id="text_4">
      <!-- 51m -->
      <g transform="translate(258.008038 303.028562)scale(0.1 -0.1)">
       <defs>
        <path d="M 10.796875 72.90625 
L 49.515625 72.90625 
L 49.515625 64.59375 
L 19.828125 64.59375 
L 19.828125 46.734375 
Q 21.96875 47.46875 24.109375 47.828125 
Q 26.265625 48.1875 28.421875 48.1875 
Q 40.625 48.1875 47.75 41.5 
Q 54.890625 34.8125 54.890625 23.390625 
Q 54.890625 11.625 47.5625 5.09375 
Q 40.234375 -1.421875 26.90625 -1.421875 
Q 22.3125 -1.421875 17.546875 -0.640625 
Q 12.796875 0.140625 7.71875 1.703125 
L 7.71875 11.625 
Q 12.109375 9.234375 16.796875 8.0625 
Q 21.484375 6.890625 26.703125 6.890625 
Q 35.15625 6.890625 40.078125 11.328125 
Q 45.015625 15.765625 45.015625 23.390625 
Q 45.015625 31 40.078125 35.4375 
Q 35.15625 39.890625 26.703125 39.890625 
Q 22.75 39.890625 18.8125 39.015625 
Q 14.890625 38.140625 10.796875 36.28125 
z
" id="DejaVuSans-53"/>
       </defs>
       <use xlink:href="#DejaVuSans-53"/>
       <use x="63.623047" xlink:href="#DejaVuSans-49"/>
       <use x="127.246094" xlink:href="#DejaVuSans-109"/>
      </g>
     </g>
    </g>
    <g id="xtick_5">
     <g id="line2d_5">
      <g>
       <use style="stroke:#000000;stroke-width:0.8;" x="328.269107" xlink:href="#m95380ce06b" y="288.430125"/>
      </g>
     </g>
     <g id="text_5">
      <!-- 1h:17m -->
      <g transform="translate(309.001919 303.028562)scale(0.1 -0.1)">
       <defs>
        <path d="M 54.890625 33.015625 
L 54.890625 0 
L 45.90625 0 
L 45.90625 32.71875 
Q 45.90625 40.484375 42.875 44.328125 
Q 39.84375 48.1875 33.796875 48.1875 
Q 26.515625 48.1875 22.3125 43.546875 
Q 18.109375 38.921875 18.109375 30.90625 
L 18.109375 0 
L 9.078125 0 
L 9.078125 75.984375 
L 18.109375 75.984375 
L 18.109375 46.1875 
Q 21.34375 51.125 25.703125 53.5625 
Q 30.078125 56 35.796875 56 
Q 45.21875 56 50.046875 50.171875 
Q 54.890625 44.34375 54.890625 33.015625 
z
" id="DejaVuSans-104"/>
        <path d="M 11.71875 12.40625 
L 22.015625 12.40625 
L 22.015625 0 
L 11.71875 0 
z
M 11.71875 51.703125 
L 22.015625 51.703125 
L 22.015625 39.3125 
L 11.71875 39.3125 
z
" id="DejaVuSans-58"/>
        <path d="M 8.203125 72.90625 
L 55.078125 72.90625 
L 55.078125 68.703125 
L 28.609375 0 
L 18.3125 0 
L 43.21875 64.59375 
L 8.203125 64.59375 
z
" id="DejaVuSans-55"/>
       </defs>
       <use xlink:href="#DejaVuSans-49"/>
       <use x="63.623047" xlink:href="#DejaVuSans-104"/>
       <use x="127.001953" xlink:href="#DejaVuSans-58"/>
       <use x="160.693359" xlink:href="#DejaVuSans-49"/>
       <use x="224.316406" xlink:href="#DejaVuSans-55"/>
       <use x="287.939453" xlink:href="#DejaVuSans-109"/>
      </g>
     </g>
    </g>
    <g id="xtick_6">
     <g id="line2d_6">
      <g>
       <use style="stroke:#000000;stroke-width:0.8;" x="387.297364" xlink:href="#m95380ce06b" y="288.430125"/>
      </g>
     </g>
     <g id="text_6">
      <!-- 1h:57m -->
      <g transform="translate(368.030176 303.028562)scale(0.1 -0.1)">
       <use xlink:href="#DejaVuSans-49"/>
       <use x="63.623047" xlink:href="#DejaVuSans-104"/>
       <use x="127.001953" xlink:href="#DejaVuSans-58"/>
       <use x="160.693359" xlink:href="#DejaVuSans-53"/>
       <use x="224.316406" xlink:href="#DejaVuSans-55"/>
       <use x="287.939453" xlink:href="#DejaVuSans-109"/>
      </g>
     </g>
    </g>
    <g id="xtick_7">
     <g id="line2d_7">
      <g>
       <use style="stroke:#000000;stroke-width:0.8;" x="446.325621" xlink:href="#m95380ce06b" y="288.430125"/>
      </g>
     </g>
     <g id="text_7">
      <!-- 2h:56m -->
      <g transform="translate(427.058433 303.028562)scale(0.1 -0.1)">
       <defs>
        <path d="M 33.015625 40.375 
Q 26.375 40.375 22.484375 35.828125 
Q 18.609375 31.296875 18.609375 23.390625 
Q 18.609375 15.53125 22.484375 10.953125 
Q 26.375 6.390625 33.015625 6.390625 
Q 39.65625 6.390625 43.53125 10.953125 
Q 47.40625 15.53125 47.40625 23.390625 
Q 47.40625 31.296875 43.53125 35.828125 
Q 39.65625 40.375 33.015625 40.375 
z
M 52.59375 71.296875 
L 52.59375 62.3125 
Q 48.875 64.0625 45.09375 64.984375 
Q 41.3125 65.921875 37.59375 65.921875 
Q 27.828125 65.921875 22.671875 59.328125 
Q 17.53125 52.734375 16.796875 39.40625 
Q 19.671875 43.65625 24.015625 45.921875 
Q 28.375 48.1875 33.59375 48.1875 
Q 44.578125 48.1875 50.953125 41.515625 
Q 57.328125 34.859375 57.328125 23.390625 
Q 57.328125 12.15625 50.6875 5.359375 
Q 44.046875 -1.421875 33.015625 -1.421875 
Q 20.359375 -1.421875 13.671875 8.265625 
Q 6.984375 17.96875 6.984375 36.375 
Q 6.984375 53.65625 15.1875 63.9375 
Q 23.390625 74.21875 37.203125 74.21875 
Q 40.921875 74.21875 44.703125 73.484375 
Q 48.484375 72.75 52.59375 71.296875 
z
" id="DejaVuSans-54"/>
       </defs>
       <use xlink:href="#DejaVuSans-50"/>
       <use x="63.623047" xlink:href="#DejaVuSans-104"/>
       <use x="127.001953" xlink:href="#DejaVuSans-58"/>
       <use x="160.693359" xlink:href="#DejaVuSans-53"/>
       <use x="224.316406" xlink:href="#DejaVuSans-54"/>
       <use x="287.939453" xlink:href="#DejaVuSans-109"/>
      </g>
     </g>
    </g>
    <g id="xtick_8">
     <g id="line2d_8">
      <g>
       <use style="stroke:#000000;stroke-width:0.8;" x="505.353877" xlink:href="#m95380ce06b" y="288.430125"/>
      </g>
     </g>
     <g id="text_8">
      <!-- 4h:26m -->
      <g transform="translate(486.08669 303.028562)scale(0.1 -0.1)">
       <use xlink:href="#DejaVuSans-52"/>
       <use x="63.623047" xlink:href="#DejaVuSans-104"/>
       <use x="127.001953" xlink:href="#DejaVuSans-58"/>
       <use x="160.693359" xlink:href="#DejaVuSans-50"/>
       <use x="224.316406" xlink:href="#DejaVuSans-54"/>
       <use x="287.939453" xlink:href="#DejaVuSans-109"/>
      </g>
     </g>
    </g>
    <g id="xtick_9">
     <g id="line2d_9">
      <g>
       <use style="stroke:#000000;stroke-width:0.8;" x="564.382134" xlink:href="#m95380ce06b" y="288.430125"/>
      </g>
     </g>
     <g id="text_9">
      <!-- 6h:42m -->
      <g transform="translate(545.114947 303.028562)scale(0.1 -0.1)">
       <use xlink:href="#DejaVuSans-54"/>
       <use x="63.623047" xlink:href="#DejaVuSans-104"/>
       <use x="127.001953" xlink:href="#DejaVuSans-58"/>
       <use x="160.693359" xlink:href="#DejaVuSans-52"/>
       <use x="224.316406" xlink:href="#DejaVuSans-50"/>
       <use x="287.939453" xlink:href="#DejaVuSans-109"/>
      </g>
     </g>
    </g>
    <g id="xtick_10">
     <g id="line2d_10">
      <g>
       <use style="stroke:#000000;stroke-width:0.8;" x="623.410391" xlink:href="#m95380ce06b" y="288.430125"/>
      </g>
     </g>
     <g id="text_10">
      <!-- 10h:6m -->
      <g transform="translate(604.143204 303.028562)scale(0.1 -0.1)">
       <defs>
        <path d="M 31.78125 66.40625 
Q 24.171875 66.40625 20.328125 58.90625 
Q 16.5 51.421875 16.5 36.375 
Q 16.5 21.390625 20.328125 13.890625 
Q 24.171875 6.390625 31.78125 6.390625 
Q 39.453125 6.390625 43.28125 13.890625 
Q 47.125 21.390625 47.125 36.375 
Q 47.125 51.421875 43.28125 58.90625 
Q 39.453125 66.40625 31.78125 66.40625 
z
M 31.78125 74.21875 
Q 44.046875 74.21875 50.515625 64.515625 
Q 56.984375 54.828125 56.984375 36.375 
Q 56.984375 17.96875 50.515625 8.265625 
Q 44.046875 -1.421875 31.78125 -1.421875 
Q 19.53125 -1.421875 13.0625 8.265625 
Q 6.59375 17.96875 6.59375 36.375 
Q 6.59375 54.828125 13.0625 64.515625 
Q 19.53125 74.21875 31.78125 74.21875 
z
" id="DejaVuSans-48"/>
       </defs>
       <use xlink:href="#DejaVuSans-49"/>
       <use x="63.623047" xlink:href="#DejaVuSans-48"/>
       <use x="127.246094" xlink:href="#DejaVuSans-104"/>
       <use x="190.625" xlink:href="#DejaVuSans-58"/>
       <use x="224.316406" xlink:href="#DejaVuSans-54"/>
       <use x="287.939453" xlink:href="#DejaVuSans-109"/>
      </g>
     </g>
    </g>
    <g id="xtick_11">
     <g id="line2d_11">
      <g>
       <use style="stroke:#000000;stroke-width:0.8;" x="682.438648" xlink:href="#m95380ce06b" y="288.430125"/>
      </g>
     </g>
     <g id="text_11">
      <!-- 15h:14m -->
      <g transform="translate(659.99021 303.028562)scale(0.1 -0.1)">
       <use xlink:href="#DejaVuSans-49"/>
       <use x="63.623047" xlink:href="#DejaVuSans-53"/>
       <use x="127.246094" xlink:href="#DejaVuSans-104"/>
       <use x="190.625" xlink:href="#DejaVuSans-58"/>
       <use x="224.316406" xlink:href="#DejaVuSans-49"/>
       <use x="287.939453" xlink:href="#DejaVuSans-52"/>
       <use x="351.5625" xlink:href="#DejaVuSans-109"/>
      </g>
     </g>
    </g>
    <g id="xtick_12">
     <g id="line2d_12">
      <g>
       <use style="stroke:#000000;stroke-width:0.8;" x="741.466905" xlink:href="#m95380ce06b" y="288.430125"/>
      </g>
     </g>
     <g id="text_12">
      <!-- 23h -->
      <g transform="translate(731.935655 303.028562)scale(0.1 -0.1)">
       <use xlink:href="#DejaVuSans-50"/>
       <use x="63.623047" xlink:href="#DejaVuSans-51"/>
       <use x="127.246094" xlink:href="#DejaVuSans-104"/>
      </g>
     </g>
    </g>
    <g id="xtick_13">
     <g id="line2d_13">
      <defs>
       <path d="M 0 0 
L 0 2 
" id="m5c257cbb51" style="stroke:#000000;stroke-width:0.6;"/>
      </defs>
      <g>
       <use style="stroke:#000000;stroke-width:0.6;" x="75.24295" xlink:href="#m5c257cbb51" y="288.430125"/>
      </g>
     </g>
    </g>
    <g id="xtick_14">
     <g id="line2d_14">
      <g>
       <use style="stroke:#000000;stroke-width:0.6;" x="206.818297" xlink:href="#m5c257cbb51" y="288.430125"/>
      </g>
     </g>
    </g>
    <g id="xtick_15">
     <g id="line2d_15">
      <g>
       <use style="stroke:#000000;stroke-width:0.6;" x="265.041316" xlink:href="#m5c257cbb51" y="288.430125"/>
      </g>
     </g>
    </g>
    <g id="xtick_16">
     <g id="line2d_16">
      <g>
       <use style="stroke:#000000;stroke-width:0.6;" x="306.351205" xlink:href="#m5c257cbb51" y="288.430125"/>
      </g>
     </g>
    </g>
    <g id="xtick_17">
     <g id="line2d_17">
      <g>
       <use style="stroke:#000000;stroke-width:0.6;" x="338.393644" xlink:href="#m5c257cbb51" y="288.430125"/>
      </g>
     </g>
    </g>
    <g id="xtick_18">
     <g id="line2d_18">
      <g>
       <use style="stroke:#000000;stroke-width:0.6;" x="364.574224" xlink:href="#m5c257cbb51" y="288.430125"/>
      </g>
     </g>
    </g>
    <g id="xtick_19">
     <g id="line2d_19">
      <g>
       <use style="stroke:#000000;stroke-width:0.6;" x="386.709588" xlink:href="#m5c257cbb51" y="288.430125"/>
      </g>
     </g>
    </g>
    <g id="xtick_20">
     <g id="line2d_20">
      <g>
       <use style="stroke:#000000;stroke-width:0.6;" x="405.884113" xlink:href="#m5c257cbb51" y="288.430125"/>
      </g>
     </g>
    </g>
    <g id="xtick_21">
     <g id="line2d_21">
      <g>
       <use style="stroke:#000000;stroke-width:0.6;" x="422.797242" xlink:href="#m5c257cbb51" y="288.430125"/>
      </g>
     </g>
    </g>
    <g id="xtick_22">
     <g id="line2d_22">
      <g>
       <use style="stroke:#000000;stroke-width:0.6;" x="537.45946" xlink:href="#m5c257cbb51" y="288.430125"/>
      </g>
     </g>
    </g>
    <g id="xtick_23">
     <g id="line2d_23">
      <g>
       <use style="stroke:#000000;stroke-width:0.6;" x="595.682479" xlink:href="#m5c257cbb51" y="288.430125"/>
      </g>
     </g>
    </g>
    <g id="xtick_24">
     <g id="line2d_24">
      <g>
       <use style="stroke:#000000;stroke-width:0.6;" x="636.992368" xlink:href="#m5c257cbb51" y="288.430125"/>
      </g>
     </g>
    </g>
    <g id="xtick_25">
     <g id="line2d_25">
      <g>
       <use style="stroke:#000000;stroke-width:0.6;" x="669.034807" xlink:href="#m5c257cbb51" y="288.430125"/>
      </g>
     </g>
    </g>
    <g id="xtick_26">
     <g id="line2d_26">
      <g>
       <use style="stroke:#000000;stroke-width:0.6;" x="695.215387" xlink:href="#m5c257cbb51" y="288.430125"/>
      </g>
     </g>
    </g>
    <g id="xtick_27">
     <g id="line2d_27">
      <g>
       <use style="stroke:#000000;stroke-width:0.6;" x="717.350751" xlink:href="#m5c257cbb51" y="288.430125"/>
      </g>
     </g>
    </g>
    <g id="xtick_28">
     <g id="line2d_28">
      <g>
       <use style="stroke:#000000;stroke-width:0.6;" x="736.525276" xlink:href="#m5c257cbb51" y="288.430125"/>
      </g>
     </g>
    </g>
    <g id="xtick_29">
     <g id="line2d_29">
      <g>
       <use style="stroke:#000000;stroke-width:0.6;" x="753.438405" xlink:href="#m5c257cbb51" y="288.430125"/>
      </g>
     </g>
    </g>
    <g id="text_13">
     <!-- Time (hour:minute) -->
     <g transform="translate(368.403594 316.706687)scale(0.1 -0.1)">
      <defs>
       <path d="M -0.296875 72.90625 
L 61.375 72.90625 
L 61.375 64.59375 
L 35.5 64.59375 
L 35.5 0 
L 25.59375 0 
L 25.59375 64.59375 
L -0.296875 64.59375 
z
" id="DejaVuSans-84"/>
       <path d="M 9.421875 54.6875 
L 18.40625 54.6875 
L 18.40625 0 
L 9.421875 0 
z
M 9.421875 75.984375 
L 18.40625 75.984375 
L 18.40625 64.59375 
L 9.421875 64.59375 
z
" id="DejaVuSans-105"/>
       <path d="M 56.203125 29.59375 
L 56.203125 25.203125 
L 14.890625 25.203125 
Q 15.484375 15.921875 20.484375 11.0625 
Q 25.484375 6.203125 34.421875 6.203125 
Q 39.59375 6.203125 44.453125 7.46875 
Q 49.3125 8.734375 54.109375 11.28125 
L 54.109375 2.78125 
Q 49.265625 0.734375 44.1875 -0.34375 
Q 39.109375 -1.421875 33.890625 -1.421875 
Q 20.796875 -1.421875 13.15625 6.1875 
Q 5.515625 13.8125 5.515625 26.8125 
Q 5.515625 40.234375 12.765625 48.109375 
Q 20.015625 56 32.328125 56 
Q 43.359375 56 49.78125 48.890625 
Q 56.203125 41.796875 56.203125 29.59375 
z
M 47.21875 32.234375 
Q 47.125 39.59375 43.09375 43.984375 
Q 39.0625 48.390625 32.421875 48.390625 
Q 24.90625 48.390625 20.390625 44.140625 
Q 15.875 39.890625 15.1875 32.171875 
z
" id="DejaVuSans-101"/>
       <path id="DejaVuSans-32"/>
       <path d="M 31 75.875 
Q 24.46875 64.65625 21.28125 53.65625 
Q 18.109375 42.671875 18.109375 31.390625 
Q 18.109375 20.125 21.3125 9.0625 
Q 24.515625 -2 31 -13.1875 
L 23.1875 -13.1875 
Q 15.875 -1.703125 12.234375 9.375 
Q 8.59375 20.453125 8.59375 31.390625 
Q 8.59375 42.28125 12.203125 53.3125 
Q 15.828125 64.359375 23.1875 75.875 
z
" id="DejaVuSans-40"/>
       <path d="M 30.609375 48.390625 
Q 23.390625 48.390625 19.1875 42.75 
Q 14.984375 37.109375 14.984375 27.296875 
Q 14.984375 17.484375 19.15625 11.84375 
Q 23.34375 6.203125 30.609375 6.203125 
Q 37.796875 6.203125 41.984375 11.859375 
Q 46.1875 17.53125 46.1875 27.296875 
Q 46.1875 37.015625 41.984375 42.703125 
Q 37.796875 48.390625 30.609375 48.390625 
z
M 30.609375 56 
Q 42.328125 56 49.015625 48.375 
Q 55.71875 40.765625 55.71875 27.296875 
Q 55.71875 13.875 49.015625 6.21875 
Q 42.328125 -1.421875 30.609375 -1.421875 
Q 18.84375 -1.421875 12.171875 6.21875 
Q 5.515625 13.875 5.515625 27.296875 
Q 5.515625 40.765625 12.171875 48.375 
Q 18.84375 56 30.609375 56 
z
" id="DejaVuSans-111"/>
       <path d="M 8.5 21.578125 
L 8.5 54.6875 
L 17.484375 54.6875 
L 17.484375 21.921875 
Q 17.484375 14.15625 20.5 10.265625 
Q 23.53125 6.390625 29.59375 6.390625 
Q 36.859375 6.390625 41.078125 11.03125 
Q 45.3125 15.671875 45.3125 23.6875 
L 45.3125 54.6875 
L 54.296875 54.6875 
L 54.296875 0 
L 45.3125 0 
L 45.3125 8.40625 
Q 42.046875 3.421875 37.71875 1 
Q 33.40625 -1.421875 27.6875 -1.421875 
Q 18.265625 -1.421875 13.375 4.4375 
Q 8.5 10.296875 8.5 21.578125 
z
M 31.109375 56 
z
" id="DejaVuSans-117"/>
       <path d="M 41.109375 46.296875 
Q 39.59375 47.171875 37.8125 47.578125 
Q 36.03125 48 33.890625 48 
Q 26.265625 48 22.1875 43.046875 
Q 18.109375 38.09375 18.109375 28.8125 
L 18.109375 0 
L 9.078125 0 
L 9.078125 54.6875 
L 18.109375 54.6875 
L 18.109375 46.1875 
Q 20.953125 51.171875 25.484375 53.578125 
Q 30.03125 56 36.53125 56 
Q 37.453125 56 38.578125 55.875 
Q 39.703125 55.765625 41.0625 55.515625 
z
" id="DejaVuSans-114"/>
       <path d="M 54.890625 33.015625 
L 54.890625 0 
L 45.90625 0 
L 45.90625 32.71875 
Q 45.90625 40.484375 42.875 44.328125 
Q 39.84375 48.1875 33.796875 48.1875 
Q 26.515625 48.1875 22.3125 43.546875 
Q 18.109375 38.921875 18.109375 30.90625 
L 18.109375 0 
L 9.078125 0 
L 9.078125 54.6875 
L 18.109375 54.6875 
L 18.109375 46.1875 
Q 21.34375 51.125 25.703125 53.5625 
Q 30.078125 56 35.796875 56 
Q 45.21875 56 50.046875 50.171875 
Q 54.890625 44.34375 54.890625 33.015625 
z
" id="DejaVuSans-110"/>
       <path d="M 18.3125 70.21875 
L 18.3125 54.6875 
L 36.8125 54.6875 
L 36.8125 47.703125 
L 18.3125 47.703125 
L 18.3125 18.015625 
Q 18.3125 11.328125 20.140625 9.421875 
Q 21.96875 7.515625 27.59375 7.515625 
L 36.8125 7.515625 
L 36.8125 0 
L 27.59375 0 
Q 17.1875 0 13.234375 3.875 
Q 9.28125 7.765625 9.28125 18.015625 
L 9.28125 47.703125 
L 2.6875 47.703125 
L 2.6875 54.6875 
L 9.28125 54.6875 
L 9.28125 70.21875 
z
" id="DejaVuSans-116"/>
       <path d="M 8.015625 75.875 
L 15.828125 75.875 
Q 23.140625 64.359375 26.78125 53.3125 
Q 30.421875 42.28125 30.421875 31.390625 
Q 30.421875 20.453125 26.78125 9.375 
Q 23.140625 -1.703125 15.828125 -13.1875 
L 8.015625 -13.1875 
Q 14.5 -2 17.703125 9.0625 
Q 20.90625 20.125 20.90625 31.390625 
Q 20.90625 42.671875 17.703125 53.65625 
Q 14.5 64.65625 8.015625 75.875 
z
" id="DejaVuSans-41"/>
      </defs>
      <use xlink:href="#DejaVuSans-84"/>
      <use x="57.958984" xlink:href="#DejaVuSans-105"/>
      <use x="85.742188" xlink:href="#DejaVuSans-109"/>
      <use x="183.154297" xlink:href="#DejaVuSans-101"/>
      <use x="244.677734" xlink:href="#DejaVuSans-32"/>
      <use x="276.464844" xlink:href="#DejaVuSans-40"/>
      <use x="315.478516" xlink:href="#DejaVuSans-104"/>
      <use x="378.857422" xlink:href="#DejaVuSans-111"/>
      <use x="440.039062" xlink:href="#DejaVuSans-117"/>
      <use x="503.417969" xlink:href="#DejaVuSans-114"/>
      <use x="542.78125" xlink:href="#DejaVuSans-58"/>
      <use x="576.472656" xlink:href="#DejaVuSans-109"/>
      <use x="673.884766" xlink:href="#DejaVuSans-105"/>
      <use x="701.667969" xlink:href="#DejaVuSans-110"/>
      <use x="765.046875" xlink:href="#DejaVuSans-117"/>
      <use x="828.425781" xlink:href="#DejaVuSans-116"/>
      <use x="867.634766" xlink:href="#DejaVuSans-101"/>
      <use x="929.158203" xlink:href="#DejaVuSans-41"/>
     </g>
    </g>
   </g>
   <g id="matplotlib.axis_2">
    <g id="ytick_1">
     <g id="line2d_30">
      <defs>
       <path d="M 0 0 
L -3.5 0 
" id="m2743e3b97b" style="stroke:#000000;stroke-width:0.8;"/>
      </defs>
      <g>
       <use style="stroke:#000000;stroke-width:0.8;" x="59.690625" xlink:href="#m2743e3b97b" y="258.418899"/>
      </g>
     </g>
     <g id="text_14">
      <!-- 13700 -->
      <g transform="translate(20.878125 262.218117)scale(0.1 -0.1)">
       <use xlink:href="#DejaVuSans-49"/>
       <use x="63.623047" xlink:href="#DejaVuSans-51"/>
       <use x="127.246094" xlink:href="#DejaVuSans-55"/>
       <use x="190.869141" xlink:href="#DejaVuSans-48"/>
       <use x="254.492188" xlink:href="#DejaVuSans-48"/>
      </g>
     </g>
    </g>
    <g id="ytick_2">
     <g id="line2d_31">
      <g>
       <use style="stroke:#000000;stroke-width:0.8;" x="59.690625" xlink:href="#m2743e3b97b" y="206.86429"/>
      </g>
     </g>
     <g id="text_15">
      <!-- 13720 -->
      <g transform="translate(20.878125 210.663509)scale(0.1 -0.1)">
       <use xlink:href="#DejaVuSans-49"/>
       <use x="63.623047" xlink:href="#DejaVuSans-51"/>
       <use x="127.246094" xlink:href="#DejaVuSans-55"/>
       <use x="190.869141" xlink:href="#DejaVuSans-50"/>
       <use x="254.492188" xlink:href="#DejaVuSans-48"/>
      </g>
     </g>
    </g>
    <g id="ytick_3">
     <g id="line2d_32">
      <g>
       <use style="stroke:#000000;stroke-width:0.8;" x="59.690625" xlink:href="#m2743e3b97b" y="155.309682"/>
      </g>
     </g>
     <g id="text_16">
      <!-- 13740 -->
      <g transform="translate(20.878125 159.1089)scale(0.1 -0.1)">
       <use xlink:href="#DejaVuSans-49"/>
       <use x="63.623047" xlink:href="#DejaVuSans-51"/>
       <use x="127.246094" xlink:href="#DejaVuSans-55"/>
       <use x="190.869141" xlink:href="#DejaVuSans-52"/>
       <use x="254.492188" xlink:href="#DejaVuSans-48"/>
      </g>
     </g>
    </g>
    <g id="ytick_4">
     <g id="line2d_33">
      <g>
       <use style="stroke:#000000;stroke-width:0.8;" x="59.690625" xlink:href="#m2743e3b97b" y="103.755073"/>
      </g>
     </g>
     <g id="text_17">
      <!-- 13760 -->
      <g transform="translate(20.878125 107.554292)scale(0.1 -0.1)">
       <use xlink:href="#DejaVuSans-49"/>
       <use x="63.623047" xlink:href="#DejaVuSans-51"/>
       <use x="127.246094" xlink:href="#DejaVuSans-55"/>
       <use x="190.869141" xlink:href="#DejaVuSans-54"/>
       <use x="254.492188" xlink:href="#DejaVuSans-48"/>
      </g>
     </g>
    </g>
    <g id="ytick_5">
     <g id="line2d_34">
      <g>
       <use style="stroke:#000000;stroke-width:0.8;" x="59.690625" xlink:href="#m2743e3b97b" y="52.200465"/>
      </g>
     </g>
     <g id="text_18">
      <!-- 13780 -->
      <g transform="translate(20.878125 55.999684)scale(0.1 -0.1)">
       <defs>
        <path d="M 31.78125 34.625 
Q 24.75 34.625 20.71875 30.859375 
Q 16.703125 27.09375 16.703125 20.515625 
Q 16.703125 13.921875 20.71875 10.15625 
Q 24.75 6.390625 31.78125 6.390625 
Q 38.8125 6.390625 42.859375 10.171875 
Q 46.921875 13.96875 46.921875 20.515625 
Q 46.921875 27.09375 42.890625 30.859375 
Q 38.875 34.625 31.78125 34.625 
z
M 21.921875 38.8125 
Q 15.578125 40.375 12.03125 44.71875 
Q 8.5 49.078125 8.5 55.328125 
Q 8.5 64.0625 14.71875 69.140625 
Q 20.953125 74.21875 31.78125 74.21875 
Q 42.671875 74.21875 48.875 69.140625 
Q 55.078125 64.0625 55.078125 55.328125 
Q 55.078125 49.078125 51.53125 44.71875 
Q 48 40.375 41.703125 38.8125 
Q 48.828125 37.15625 52.796875 32.3125 
Q 56.78125 27.484375 56.78125 20.515625 
Q 56.78125 9.90625 50.3125 4.234375 
Q 43.84375 -1.421875 31.78125 -1.421875 
Q 19.734375 -1.421875 13.25 4.234375 
Q 6.78125 9.90625 6.78125 20.515625 
Q 6.78125 27.484375 10.78125 32.3125 
Q 14.796875 37.15625 21.921875 38.8125 
z
M 18.3125 54.390625 
Q 18.3125 48.734375 21.84375 45.5625 
Q 25.390625 42.390625 31.78125 42.390625 
Q 38.140625 42.390625 41.71875 45.5625 
Q 45.3125 48.734375 45.3125 54.390625 
Q 45.3125 60.0625 41.71875 63.234375 
Q 38.140625 66.40625 31.78125 66.40625 
Q 25.390625 66.40625 21.84375 63.234375 
Q 18.3125 60.0625 18.3125 54.390625 
z
" id="DejaVuSans-56"/>
       </defs>
       <use xlink:href="#DejaVuSans-49"/>
       <use x="63.623047" xlink:href="#DejaVuSans-51"/>
       <use x="127.246094" xlink:href="#DejaVuSans-55"/>
       <use x="190.869141" xlink:href="#DejaVuSans-56"/>
       <use x="254.492188" xlink:href="#DejaVuSans-48"/>
      </g>
     </g>
    </g>
    <g id="text_19">
     <!-- Edge coverage -->
     <g transform="translate(14.798437 192.762406)rotate(-90)scale(0.1 -0.1)">
      <defs>
       <path d="M 9.8125 72.90625 
L 55.90625 72.90625 
L 55.90625 64.59375 
L 19.671875 64.59375 
L 19.671875 43.015625 
L 54.390625 43.015625 
L 54.390625 34.71875 
L 19.671875 34.71875 
L 19.671875 8.296875 
L 56.78125 8.296875 
L 56.78125 0 
L 9.8125 0 
z
" id="DejaVuSans-69"/>
       <path d="M 45.40625 46.390625 
L 45.40625 75.984375 
L 54.390625 75.984375 
L 54.390625 0 
L 45.40625 0 
L 45.40625 8.203125 
Q 42.578125 3.328125 38.25 0.953125 
Q 33.9375 -1.421875 27.875 -1.421875 
Q 17.96875 -1.421875 11.734375 6.484375 
Q 5.515625 14.40625 5.515625 27.296875 
Q 5.515625 40.1875 11.734375 48.09375 
Q 17.96875 56 27.875 56 
Q 33.9375 56 38.25 53.625 
Q 42.578125 51.265625 45.40625 46.390625 
z
M 14.796875 27.296875 
Q 14.796875 17.390625 18.875 11.75 
Q 22.953125 6.109375 30.078125 6.109375 
Q 37.203125 6.109375 41.296875 11.75 
Q 45.40625 17.390625 45.40625 27.296875 
Q 45.40625 37.203125 41.296875 42.84375 
Q 37.203125 48.484375 30.078125 48.484375 
Q 22.953125 48.484375 18.875 42.84375 
Q 14.796875 37.203125 14.796875 27.296875 
z
" id="DejaVuSans-100"/>
       <path d="M 45.40625 27.984375 
Q 45.40625 37.75 41.375 43.109375 
Q 37.359375 48.484375 30.078125 48.484375 
Q 22.859375 48.484375 18.828125 43.109375 
Q 14.796875 37.75 14.796875 27.984375 
Q 14.796875 18.265625 18.828125 12.890625 
Q 22.859375 7.515625 30.078125 7.515625 
Q 37.359375 7.515625 41.375 12.890625 
Q 45.40625 18.265625 45.40625 27.984375 
z
M 54.390625 6.78125 
Q 54.390625 -7.171875 48.1875 -13.984375 
Q 42 -20.796875 29.203125 -20.796875 
Q 24.46875 -20.796875 20.265625 -20.09375 
Q 16.0625 -19.390625 12.109375 -17.921875 
L 12.109375 -9.1875 
Q 16.0625 -11.328125 19.921875 -12.34375 
Q 23.78125 -13.375 27.78125 -13.375 
Q 36.625 -13.375 41.015625 -8.765625 
Q 45.40625 -4.15625 45.40625 5.171875 
L 45.40625 9.625 
Q 42.625 4.78125 38.28125 2.390625 
Q 33.9375 0 27.875 0 
Q 17.828125 0 11.671875 7.65625 
Q 5.515625 15.328125 5.515625 27.984375 
Q 5.515625 40.671875 11.671875 48.328125 
Q 17.828125 56 27.875 56 
Q 33.9375 56 38.28125 53.609375 
Q 42.625 51.21875 45.40625 46.390625 
L 45.40625 54.6875 
L 54.390625 54.6875 
z
" id="DejaVuSans-103"/>
       <path d="M 48.78125 52.59375 
L 48.78125 44.1875 
Q 44.96875 46.296875 41.140625 47.34375 
Q 37.3125 48.390625 33.40625 48.390625 
Q 24.65625 48.390625 19.8125 42.84375 
Q 14.984375 37.3125 14.984375 27.296875 
Q 14.984375 17.28125 19.8125 11.734375 
Q 24.65625 6.203125 33.40625 6.203125 
Q 37.3125 6.203125 41.140625 7.25 
Q 44.96875 8.296875 48.78125 10.40625 
L 48.78125 2.09375 
Q 45.015625 0.34375 40.984375 -0.53125 
Q 36.96875 -1.421875 32.421875 -1.421875 
Q 20.0625 -1.421875 12.78125 6.34375 
Q 5.515625 14.109375 5.515625 27.296875 
Q 5.515625 40.671875 12.859375 48.328125 
Q 20.21875 56 33.015625 56 
Q 37.15625 56 41.109375 55.140625 
Q 45.0625 54.296875 48.78125 52.59375 
z
" id="DejaVuSans-99"/>
       <path d="M 2.984375 54.6875 
L 12.5 54.6875 
L 29.59375 8.796875 
L 46.6875 54.6875 
L 56.203125 54.6875 
L 35.6875 0 
L 23.484375 0 
z
" id="DejaVuSans-118"/>
       <path d="M 34.28125 27.484375 
Q 23.390625 27.484375 19.1875 25 
Q 14.984375 22.515625 14.984375 16.5 
Q 14.984375 11.71875 18.140625 8.90625 
Q 21.296875 6.109375 26.703125 6.109375 
Q 34.1875 6.109375 38.703125 11.40625 
Q 43.21875 16.703125 43.21875 25.484375 
L 43.21875 27.484375 
z
M 52.203125 31.203125 
L 52.203125 0 
L 43.21875 0 
L 43.21875 8.296875 
Q 40.140625 3.328125 35.546875 0.953125 
Q 30.953125 -1.421875 24.3125 -1.421875 
Q 15.921875 -1.421875 10.953125 3.296875 
Q 6 8.015625 6 15.921875 
Q 6 25.140625 12.171875 29.828125 
Q 18.359375 34.515625 30.609375 34.515625 
L 43.21875 34.515625 
L 43.21875 35.40625 
Q 43.21875 41.609375 39.140625 45 
Q 35.0625 48.390625 27.6875 48.390625 
Q 23 48.390625 18.546875 47.265625 
Q 14.109375 46.140625 10.015625 43.890625 
L 10.015625 52.203125 
Q 14.9375 54.109375 19.578125 55.046875 
Q 24.21875 56 28.609375 56 
Q 40.484375 56 46.34375 49.84375 
Q 52.203125 43.703125 52.203125 31.203125 
z
" id="DejaVuSans-97"/>
      </defs>
      <use xlink:href="#DejaVuSans-69"/>
      <use x="63.183594" xlink:href="#DejaVuSans-100"/>
      <use x="126.660156" xlink:href="#DejaVuSans-103"/>
      <use x="190.136719" xlink:href="#DejaVuSans-101"/>
      <use x="251.660156" xlink:href="#DejaVuSans-32"/>
      <use x="283.447266" xlink:href="#DejaVuSans-99"/>
      <use x="338.427734" xlink:href="#DejaVuSans-111"/>
      <use x="399.609375" xlink:href="#DejaVuSans-118"/>
      <use x="458.789062" xlink:href="#DejaVuSans-101"/>
      <use x="520.3125" xlink:href="#DejaVuSans-114"/>
      <use x="561.425781" xlink:href="#DejaVuSans-97"/>
      <use x="622.705078" xlink:href="#DejaVuSans-103"/>
      <use x="686.181641" xlink:href="#DejaVuSans-101"/>
     </g>
    </g>
   </g>
   <g id="line2d_35">
    <path clip-path="url(#pb96678cfa1)" d="M 92.15608 176.447071 
L 191.688987 137.265569 
L 249.912006 120.896981 
L 291.221895 113.034903 
L 323.264335 110.457172 
L 349.444914 105.430598 
L 371.580278 102.337322 
L 390.754803 98.986272 
L 407.667933 96.408542 
L 422.797242 96.021882 
L 436.483368 96.021882 
L 448.977822 96.021882 
L 460.471605 96.021882 
L 471.113186 96.021882 
L 481.020261 87.773145 
L 490.287711 85.582074 
L 498.993142 85.066528 
L 507.20084 85.066528 
L 514.964657 81.973251 
L 522.33015 81.973251 
L 529.336205 81.844365 
L 536.016276 78.493315 
L 542.399355 75.271152 
L 548.51073 72.177876 
L 554.37259 72.177876 
L 560.004513 72.048989 
L 565.423859 72.048989 
L 570.646094 72.048989 
L 575.685054 68.955713 
L 580.553169 65.862436 
L 585.261644 65.862436 
L 589.820619 65.862436 
L 594.239294 65.862436 
L 598.52605 65.862436 
L 602.688533 65.862436 
L 606.733748 65.862436 
L 610.668121 59.675883 
L 614.497565 59.675883 
L 618.227531 59.675883 
L 621.863058 59.675883 
L 625.408809 59.675883 
L 628.869113 59.675883 
L 632.247989 59.675883 
L 635.549184 59.675883 
L 638.776188 58.773677 
L 641.932263 55.680401 
L 645.02046 55.680401 
L 648.043637 55.680401 
L 651.004477 55.680401 
L 653.905497 55.422628 
L 656.749068 55.422628 
L 659.537421 54.520422 
L 662.272658 54.520422 
L 664.956767 54.520422 
L 667.591623 51.427146 
L 670.179002 51.427146 
L 672.720584 51.427146 
L 675.217962 51.427146 
L 677.672648 51.427146 
L 680.086077 51.427146 
L 682.459612 51.427146 
L 684.794552 51.427146 
L 687.092131 51.427146 
L 689.353527 51.169373 
L 691.57986 51.169373 
L 693.772202 51.169373 
L 695.931576 51.169373 
L 698.058957 51.169373 
L 700.155281 51.169373 
L 702.221441 50.9116 
L 704.258293 50.9116 
L 706.266656 50.9116 
L 708.247317 50.9116 
L 710.201029 50.9116 
L 712.128516 50.9116 
L 714.030473 50.9116 
L 715.907567 50.9116 
L 717.760439 50.9116 
L 719.589708 50.9116 
L 721.395966 39.182926 
L 723.179786 38.66738 
L 724.941717 38.409607 
L 726.682292 37.507402 
L 728.40202 34.414125 
L 730.101397 34.414125 
L 731.780897 34.414125 
L 733.440981 34.414125 
L 735.082091 34.414125 
L 736.704658 34.414125 
L 738.309095 34.414125 
L 739.895804 34.414125 
L 741.46517 34.414125 
" style="fill:none;stroke:#ff7f0e;stroke-linecap:square;stroke-width:1.5;"/>
   </g>
   <g id="line2d_36">
    <path clip-path="url(#pb96678cfa1)" d="M 92.15608 211.504205 
L 191.688987 194.491184 
L 249.912006 171.67827 
L 291.221895 161.625121 
L 323.264335 150.92754 
L 349.444914 140.487732 
L 371.580278 131.336789 
L 390.754803 123.732484 
L 407.667933 120.768094 
L 422.797242 113.034903 
L 436.483368 108.137215 
L 448.977822 104.399506 
L 460.471605 100.91957 
L 471.113186 100.53291 
L 481.020261 92.928606 
L 490.287711 89.706443 
L 498.993142 86.613166 
L 507.20084 86.613166 
L 514.964657 82.231024 
L 522.33015 75.915585 
L 529.336205 71.404557 
L 536.016276 71.146783 
L 542.399355 70.88901 
L 548.51073 69.986805 
L 554.37259 69.986805 
L 560.004513 69.986805 
L 565.423859 67.92462 
L 570.646094 67.022415 
L 575.685054 67.022415 
L 580.553169 65.862436 
L 585.261644 64.702457 
L 589.820619 64.702457 
L 594.239294 64.702457 
L 598.52605 64.444684 
L 602.688533 64.444684 
L 606.733748 63.284706 
L 610.668121 62.3825 
L 614.497565 62.124727 
L 618.227531 60.964748 
L 621.863058 60.964748 
L 625.408809 60.964748 
L 628.869113 60.964748 
L 632.247989 60.964748 
L 635.549184 60.964748 
L 638.776188 57.871472 
L 641.932263 57.871472 
L 645.02046 56.969266 
L 648.043637 56.711493 
L 651.004477 56.711493 
L 653.905497 56.711493 
L 656.749068 56.711493 
L 659.537421 55.680401 
L 662.272658 55.551514 
L 664.956767 55.551514 
L 667.591623 55.551514 
L 670.179002 55.551514 
L 672.720584 52.458238 
L 675.217962 51.298259 
L 677.672648 51.298259 
L 680.086077 51.298259 
L 682.459612 48.204983 
L 684.794552 45.111706 
L 687.092131 45.111706 
L 689.353527 45.111706 
L 691.57986 45.111706 
L 693.772202 45.111706 
L 695.931576 45.111706 
L 698.058957 45.111706 
L 700.155281 45.111706 
L 702.221441 45.111706 
L 704.258293 45.111706 
L 706.266656 45.111706 
L 708.247317 45.111706 
L 710.201029 45.111706 
L 712.128516 45.111706 
L 714.030473 45.111706 
L 715.907567 45.111706 
L 717.760439 45.111706 
L 719.589708 45.111706 
L 721.395966 45.111706 
L 723.179786 45.111706 
L 724.941717 45.111706 
L 726.682292 45.111706 
L 728.40202 45.111706 
L 730.101397 45.111706 
L 731.780897 45.111706 
L 733.440981 45.111706 
L 735.082091 45.111706 
L 736.704658 45.111706 
L 738.309095 45.111706 
L 739.895804 45.111706 
L 741.46517 45.111706 
" style="fill:none;stroke:#c5b0d5;stroke-linecap:square;stroke-width:1.5;"/>
   </g>
   <g id="line2d_37">
    <path clip-path="url(#pb96678cfa1)" d="M 92.15608 212.148638 
L 191.688987 181.086986 
L 249.912006 155.438568 
L 291.221895 153.247497 
L 323.264335 146.416512 
L 349.444914 143.065462 
L 371.580278 138.425547 
L 390.754803 130.692356 
L 407.667933 127.083534 
L 422.797242 123.861371 
L 436.483368 121.6703 
L 448.977822 119.865888 
L 460.471605 114.710428 
L 471.113186 110.843832 
L 481.020261 109.81274 
L 490.287711 108.652761 
L 498.993142 102.337322 
L 507.20084 101.821776 
L 514.964657 98.212953 
L 522.33015 97.95518 
L 529.336205 94.99079 
L 536.016276 94.99079 
L 542.399355 94.088584 
L 548.51073 94.088584 
L 554.37259 93.830811 
L 560.004513 90.737535 
L 565.423859 90.737535 
L 570.646094 90.350875 
L 575.685054 89.190896 
L 580.553169 88.159804 
L 585.261644 85.066528 
L 589.820619 84.550982 
L 594.239294 81.457705 
L 598.52605 80.426613 
L 602.688533 80.426613 
L 606.733748 79.266634 
L 610.668121 79.266634 
L 614.497565 78.364429 
L 618.227531 78.364429 
L 621.863058 78.106656 
L 625.408809 78.106656 
L 628.869113 77.20445 
L 632.247989 76.173358 
L 635.549184 75.915585 
L 638.776188 72.822308 
L 641.932263 72.822308 
L 645.02046 71.66233 
L 648.043637 70.631237 
L 651.004477 70.631237 
L 653.905497 69.729032 
L 656.749068 67.280188 
L 659.537421 67.280188 
L 662.272658 66.249096 
L 664.956767 65.089117 
L 667.591623 65.089117 
L 670.179002 65.089117 
L 672.720584 65.089117 
L 675.217962 64.058025 
L 677.672648 63.929138 
L 680.086077 63.929138 
L 682.459612 62.76916 
L 684.794552 61.738067 
L 687.092131 61.738067 
L 689.353527 60.706975 
L 691.57986 59.80477 
L 693.772202 58.773677 
L 695.931576 58.773677 
L 698.058957 58.773677 
L 700.155281 58.773677 
L 702.221441 57.742585 
L 704.258293 57.742585 
L 706.266656 57.742585 
L 708.247317 57.742585 
L 710.201029 57.742585 
L 712.128516 56.582607 
L 714.030473 56.582607 
L 715.907567 56.45372 
L 717.760439 56.45372 
L 719.589708 56.45372 
L 721.395966 56.45372 
L 723.179786 56.45372 
L 724.941717 56.45372 
L 726.682292 56.45372 
L 728.40202 56.45372 
L 730.101397 54.262649 
L 731.780897 53.87599 
L 733.440981 53.87599 
L 735.082091 53.87599 
L 736.704658 53.87599 
L 738.309095 53.618217 
L 739.895804 53.618217 
L 741.46517 53.618217 
" style="fill:none;stroke:#d62728;stroke-linecap:square;stroke-width:1.5;"/>
   </g>
   <g id="line2d_38">
    <path clip-path="url(#pb96678cfa1)" d="M 92.15608 206.993177 
L 191.688987 150.54088 
L 249.912006 132.110108 
L 291.221895 122.443619 
L 323.264335 120.510321 
L 349.444914 113.550449 
L 371.580278 112.39047 
L 390.754803 109.941626 
L 407.667933 109.683853 
L 422.797242 105.817258 
L 436.483368 104.270619 
L 448.977822 102.981754 
L 460.471605 101.950662 
L 471.113186 101.435116 
L 481.020261 100.275137 
L 490.287711 99.630705 
L 498.993142 99.372932 
L 507.20084 95.764109 
L 514.964657 95.635222 
L 522.33015 92.413059 
L 529.336205 92.413059 
L 536.016276 92.155286 
L 542.399355 91.768627 
L 548.51073 88.67535 
L 554.37259 88.417577 
L 560.004513 88.288691 
L 565.423859 88.288691 
L 570.646094 88.288691 
L 575.685054 86.999826 
L 580.553169 86.999826 
L 585.261644 86.870939 
L 589.820619 86.09762 
L 594.239294 85.968733 
L 598.52605 85.71096 
L 602.688533 84.808755 
L 606.733748 84.808755 
L 610.668121 84.808755 
L 614.497565 84.550982 
L 618.227531 84.550982 
L 621.863058 84.550982 
L 625.408809 84.550982 
L 628.869113 81.457705 
L 632.247989 75.271152 
L 635.549184 72.177876 
L 638.776188 72.177876 
L 641.932263 72.177876 
L 645.02046 72.177876 
L 648.043637 72.177876 
L 651.004477 72.177876 
L 653.905497 72.177876 
L 656.749068 72.177876 
L 659.537421 72.177876 
L 662.272658 72.177876 
L 664.956767 72.177876 
L 667.591623 72.177876 
L 670.179002 72.177876 
L 672.720584 72.177876 
L 675.217962 72.177876 
L 677.672648 71.404557 
L 680.086077 71.404557 
L 682.459612 71.146783 
L 684.794552 70.244578 
L 687.092131 70.244578 
L 689.353527 70.244578 
L 691.57986 67.151301 
L 693.772202 67.151301 
L 695.931576 63.155819 
L 698.058957 63.155819 
L 700.155281 63.155819 
L 702.221441 63.155819 
L 704.258293 62.898046 
L 706.266656 62.898046 
L 708.247317 62.898046 
L 710.201029 62.898046 
L 712.128516 62.898046 
L 714.030473 62.898046 
L 715.907567 59.80477 
L 717.760439 59.80477 
L 719.589708 59.80477 
L 721.395966 59.80477 
L 723.179786 59.546997 
L 724.941717 59.546997 
L 726.682292 59.546997 
L 728.40202 59.289224 
L 730.101397 59.289224 
L 731.780897 59.289224 
L 733.440981 56.195947 
L 735.082091 56.195947 
L 736.704658 53.102671 
L 738.309095 53.102671 
L 739.895804 53.102671 
L 741.46517 53.828505 
" style="fill:none;stroke:#2ca02c;stroke-linecap:square;stroke-width:1.5;"/>
   </g>
   <g id="line2d_39">
    <path clip-path="url(#pb96678cfa1)" d="M 92.15608 255.970055 
L 191.688987 248.881296 
L 249.912006 233.5438 
L 291.221895 220.526261 
L 323.264335 216.917439 
L 349.444914 209.055361 
L 371.580278 200.677737 
L 390.754803 195.264503 
L 407.667933 189.593496 
L 422.797242 180.18478 
L 436.483368 179.411461 
L 448.977822 174.900433 
L 460.471605 172.838249 
L 471.113186 167.038355 
L 481.020261 163.687306 
L 490.287711 159.562937 
L 498.993142 155.696341 
L 507.20084 151.443086 
L 514.964657 148.34981 
L 522.33015 148.220923 
L 529.336205 143.323235 
L 536.016276 142.42103 
L 542.399355 141.132164 
L 548.51073 141.132164 
L 554.37259 136.878909 
L 560.004513 136.621136 
L 565.423859 134.816725 
L 570.646094 134.558952 
L 575.685054 133.656746 
L 580.553169 130.56347 
L 585.261644 127.470193 
L 589.820619 126.181328 
L 594.239294 120.510321 
L 598.52605 114.194882 
L 602.688533 110.972719 
L 606.733748 109.81274 
L 610.668121 109.81274 
L 614.497565 107.750555 
L 618.227531 107.750555 
L 621.863058 103.755073 
L 625.408809 103.755073 
L 628.869113 101.435116 
L 632.247989 101.435116 
L 635.549184 97.439634 
L 638.776188 97.310747 
L 641.932263 97.181861 
L 645.02046 95.248563 
L 648.043637 95.119676 
L 651.004477 94.861903 
L 653.905497 94.346357 
L 656.749068 94.346357 
L 659.537421 94.346357 
L 662.272658 94.346357 
L 664.956767 91.253081 
L 667.591623 90.221989 
L 670.179002 89.190896 
L 672.720584 89.190896 
L 675.217962 89.190896 
L 677.672648 88.933123 
L 680.086077 87.902031 
L 682.459612 87.644258 
L 684.794552 86.613166 
L 687.092131 82.617684 
L 689.353527 82.488797 
L 691.57986 82.102138 
L 693.772202 79.008861 
L 695.931576 75.915585 
L 698.058957 75.786698 
L 700.155281 75.786698 
L 702.221441 74.884493 
L 704.258293 74.884493 
L 706.266656 74.884493 
L 708.247317 74.884493 
L 710.201029 74.62672 
L 712.128516 74.368947 
L 714.030473 74.368947 
L 715.907567 74.368947 
L 717.760439 74.368947 
L 719.589708 74.368947 
L 721.395966 73.208968 
L 723.179786 73.208968 
L 724.941717 73.208968 
L 726.682292 73.208968 
L 728.40202 73.080081 
L 730.101397 69.986805 
L 731.780897 69.986805 
L 733.440981 66.893528 
L 735.082091 66.893528 
L 736.704658 66.893528 
L 738.309095 66.893528 
L 739.895804 66.893528 
L 741.46517 66.893528 
" style="fill:none;stroke:#dbdb8d;stroke-linecap:square;stroke-width:1.5;"/>
   </g>
   <g id="line2d_40">
    <path clip-path="url(#pb96678cfa1)" d="M 92.15608 230.321637 
L 191.688987 200.548851 
L 249.912006 182.246965 
L 291.221895 172.838249 
L 323.264335 170.389405 
L 349.444914 166.007263 
L 371.580278 160.465143 
L 390.754803 158.531845 
L 407.667933 157.758526 
L 422.797242 152.345292 
L 436.483368 152.345292 
L 448.977822 149.252015 
L 460.471605 144.740987 
L 471.113186 142.678803 
L 481.020261 141.518824 
L 490.287711 140.616618 
L 498.993142 137.007796 
L 507.20084 134.816725 
L 514.964657 133.914519 
L 522.33015 132.110108 
L 529.336205 128.887945 
L 536.016276 128.630172 
L 542.399355 126.696874 
L 548.51073 123.732484 
L 554.37259 121.6703 
L 560.004513 118.70591 
L 565.423859 116.257066 
L 570.646094 116.257066 
L 575.685054 114.968201 
L 580.553169 114.968201 
L 585.261644 113.937108 
L 589.820619 113.808222 
L 594.239294 107.621669 
L 598.52605 107.621669 
L 602.688533 107.621669 
L 606.733748 107.363896 
L 610.668121 105.172825 
L 614.497565 105.043939 
L 618.227531 101.564002 
L 621.863058 100.53291 
L 625.408809 98.084066 
L 628.869113 95.635222 
L 632.247989 95.635222 
L 635.549184 94.217471 
L 638.776188 93.573038 
L 641.932263 92.413059 
L 645.02046 92.155286 
L 648.043637 91.897513 
L 651.004477 91.63974 
L 653.905497 87.644258 
L 656.749068 87.386485 
L 659.537421 87.386485 
L 662.272658 87.386485 
L 664.956767 81.199932 
L 667.591623 81.199932 
L 670.179002 81.199932 
L 672.720584 79.008861 
L 675.217962 79.008861 
L 677.672648 78.879975 
L 680.086077 78.879975 
L 682.459612 75.786698 
L 684.794552 75.657812 
L 687.092131 75.657812 
L 689.353527 75.657812 
L 691.57986 75.657812 
L 693.772202 72.564535 
L 695.931576 72.564535 
L 698.058957 72.306762 
L 700.155281 72.306762 
L 702.221441 72.306762 
L 704.258293 72.306762 
L 706.266656 72.306762 
L 708.247317 72.306762 
L 710.201029 72.306762 
L 712.128516 72.306762 
L 714.030473 72.306762 
L 715.907567 72.306762 
L 717.760439 72.306762 
L 719.589708 72.306762 
L 721.395966 72.306762 
L 723.179786 72.048989 
L 724.941717 72.048989 
L 726.682292 72.048989 
L 728.40202 72.048989 
L 730.101397 72.048989 
L 731.780897 72.048989 
L 733.440981 72.048989 
L 735.082091 68.955713 
L 736.704658 68.955713 
L 738.309095 68.955713 
L 739.895804 68.955713 
L 741.46517 68.955713 
" style="fill:none;stroke:#1f77b4;stroke-linecap:square;stroke-width:1.5;"/>
   </g>
   <g id="line2d_41">
    <path clip-path="url(#pb96678cfa1)" d="M 92.15608 196.682255 
L 191.688987 177.478163 
L 249.912006 159.691823 
L 291.221895 147.57649 
L 323.264335 146.803171 
L 349.444914 130.17681 
L 371.580278 130.17681 
L 390.754803 126.696874 
L 407.667933 123.603598 
L 422.797242 123.603598 
L 436.483368 122.701392 
L 448.977822 113.421562 
L 460.471605 109.168307 
L 471.113186 108.008329 
L 481.020261 107.106123 
L 490.287711 106.590577 
L 498.993142 106.590577 
L 507.20084 106.590577 
L 514.964657 106.590577 
L 522.33015 105.688371 
L 529.336205 105.688371 
L 536.016276 105.688371 
L 542.399355 104.528392 
L 548.51073 104.528392 
L 554.37259 104.528392 
L 560.004513 103.368414 
L 565.423859 100.275137 
L 570.646094 100.275137 
L 575.685054 100.275137 
L 580.553169 100.275137 
L 585.261644 98.212953 
L 589.820619 98.212953 
L 594.239294 98.212953 
L 598.52605 98.212953 
L 602.688533 98.212953 
L 606.733748 98.212953 
L 610.668121 98.212953 
L 614.497565 97.95518 
L 618.227531 97.95518 
L 621.863058 97.95518 
L 625.408809 97.95518 
L 628.869113 97.95518 
L 632.247989 96.795201 
L 635.549184 95.892996 
L 638.776188 94.99079 
L 641.932263 94.088584 
L 645.02046 88.933123 
L 648.043637 88.417577 
L 651.004477 87.257599 
L 653.905497 87.257599 
L 656.749068 86.999826 
L 659.537421 86.09762 
L 662.272658 86.09762 
L 664.956767 86.09762 
L 667.591623 86.09762 
L 670.179002 86.09762 
L 672.720584 85.839847 
L 675.217962 85.839847 
L 677.672648 85.839847 
L 680.086077 85.839847 
L 682.459612 85.839847 
L 684.794552 85.839847 
L 687.092131 85.582074 
L 689.353527 85.582074 
L 691.57986 85.582074 
L 693.772202 85.582074 
L 695.931576 85.582074 
L 698.058957 85.582074 
L 700.155281 85.582074 
L 702.221441 85.582074 
L 704.258293 85.582074 
L 706.266656 84.679868 
L 708.247317 84.679868 
L 710.201029 84.679868 
L 712.128516 84.679868 
L 714.030473 84.679868 
L 715.907567 84.679868 
L 717.760439 84.679868 
L 719.589708 84.679868 
L 721.395966 84.679868 
L 723.179786 82.875457 
L 724.941717 82.875457 
L 726.682292 82.875457 
L 728.40202 81.973251 
L 730.101397 81.973251 
L 731.780897 80.813273 
L 733.440981 80.813273 
L 735.082091 80.813273 
L 736.704658 80.813273 
L 738.309095 80.813273 
L 739.895804 80.813273 
L 741.46517 80.5555 
" style="fill:none;stroke:#ff9896;stroke-linecap:square;stroke-width:1.5;"/>
   </g>
   <g id="line2d_42">
    <path clip-path="url(#pb96678cfa1)" d="M 92.15608 276.334125 
L 191.688987 273.498622 
L 249.912006 265.249884 
L 291.221895 257.387806 
L 323.264335 252.619005 
L 349.444914 252.361232 
L 371.580278 248.623523 
L 390.754803 247.721317 
L 407.667933 240.632559 
L 422.797242 238.570374 
L 436.483368 237.925942 
L 448.977822 235.734871 
L 460.471605 226.068382 
L 471.113186 225.03729 
L 481.020261 220.784034 
L 490.287711 216.14412 
L 498.993142 216.015233 
L 507.20084 215.75746 
L 514.964657 208.024269 
L 522.33015 202.353262 
L 529.336205 201.451056 
L 536.016276 198.486666 
L 542.399355 195.00673 
L 548.51073 195.00673 
L 554.37259 193.975638 
L 560.004513 190.495702 
L 565.423859 189.980156 
L 570.646094 182.891397 
L 575.685054 177.993709 
L 580.553169 177.864823 
L 585.261644 172.838249 
L 589.820619 172.838249 
L 594.239294 172.709362 
L 598.52605 171.162724 
L 602.688533 168.584993 
L 606.733748 168.584993 
L 610.668121 168.584993 
L 614.497565 168.584993 
L 618.227531 164.589511 
L 621.863058 164.589511 
L 625.408809 160.594029 
L 628.869113 159.562937 
L 632.247989 159.562937 
L 635.549184 159.562937 
L 638.776188 159.562937 
L 641.932263 156.727433 
L 645.02046 155.567455 
L 648.043637 152.603065 
L 651.004477 152.603065 
L 653.905497 151.700859 
L 656.749068 150.154221 
L 659.537421 142.163257 
L 662.272658 142.163257 
L 664.956767 142.163257 
L 667.591623 140.487732 
L 670.179002 137.394455 
L 672.720584 136.363363 
L 675.217962 136.234477 
L 677.672648 135.203384 
L 680.086077 135.203384 
L 682.459612 135.203384 
L 684.794552 134.945611 
L 687.092131 134.816725 
L 689.353527 133.270087 
L 691.57986 131.723448 
L 693.772202 131.723448 
L 695.931576 130.821243 
L 698.058957 130.821243 
L 700.155281 130.821243 
L 702.221441 130.692356 
L 704.258293 129.532378 
L 706.266656 128.501285 
L 708.247317 125.408009 
L 710.201029 124.505803 
L 712.128516 124.505803 
L 714.030473 124.505803 
L 715.907567 124.505803 
L 717.760439 124.505803 
L 719.589708 124.505803 
L 721.395966 124.505803 
L 723.179786 124.376917 
L 724.941717 122.185846 
L 726.682292 122.185846 
L 728.40202 122.056959 
L 730.101397 120.896981 
L 731.780897 120.896981 
L 733.440981 120.896981 
L 735.082091 119.737002 
L 736.704658 119.092569 
L 738.309095 119.092569 
L 739.895804 119.092569 
L 741.46517 119.092569 
" style="fill:none;stroke:#98df8a;stroke-linecap:square;stroke-width:1.5;"/>
   </g>
   <g id="line2d_43">
    <path clip-path="url(#pb96678cfa1)" d="M 92.15608 228.130566 
L 191.688987 205.446538 
L 249.912006 197.842234 
L 291.221895 194.620071 
L 323.264335 193.846752 
L 349.444914 193.717865 
L 371.580278 188.046858 
L 390.754803 188.046858 
L 407.667933 182.762511 
L 422.797242 180.313667 
L 436.483368 175.029319 
L 448.977822 175.029319 
L 460.471605 175.029319 
L 471.113186 172.064929 
L 481.020261 172.064929 
L 490.287711 171.29161 
L 498.993142 171.033837 
L 507.20084 168.069447 
L 514.964657 168.069447 
L 522.33015 168.069447 
L 529.336205 168.069447 
L 536.016276 168.069447 
L 542.399355 168.069447 
L 548.51073 168.069447 
L 554.37259 168.069447 
L 560.004513 167.940561 
L 565.423859 167.940561 
L 570.646094 167.940561 
L 575.685054 167.811674 
L 580.553169 167.682788 
L 585.261644 167.682788 
L 589.820619 167.682788 
L 594.239294 167.682788 
L 598.52605 167.553901 
L 602.688533 167.553901 
L 606.733748 164.460625 
L 610.668121 164.460625 
L 614.497565 164.460625 
L 618.227531 164.202852 
L 621.863058 164.202852 
L 625.408809 164.202852 
L 628.869113 164.202852 
L 632.247989 164.202852 
L 635.549184 164.202852 
L 638.776188 164.202852 
L 641.932263 164.202852 
L 645.02046 163.429533 
L 648.043637 163.429533 
L 651.004477 163.429533 
L 653.905497 163.429533 
L 656.749068 163.300646 
L 659.537421 163.300646 
L 662.272658 162.39844 
L 664.956767 162.39844 
L 667.591623 162.269554 
L 670.179002 162.140667 
L 672.720584 162.140667 
L 675.217962 162.011781 
L 677.672648 162.011781 
L 680.086077 162.011781 
L 682.459612 162.011781 
L 684.794552 162.011781 
L 687.092131 161.882894 
L 689.353527 158.789618 
L 691.57986 157.887412 
L 693.772202 157.887412 
L 695.931576 157.887412 
L 698.058957 157.887412 
L 700.155281 157.887412 
L 702.221441 157.887412 
L 704.258293 157.887412 
L 706.266656 157.887412 
L 708.247317 157.887412 
L 710.201029 157.887412 
L 712.128516 157.887412 
L 714.030473 157.887412 
L 715.907567 157.887412 
L 717.760439 157.887412 
L 719.589708 157.887412 
L 721.395966 156.85632 
L 723.179786 156.85632 
L 724.941717 156.85632 
L 726.682292 156.727433 
L 728.40202 156.598547 
L 730.101397 156.598547 
L 731.780897 156.598547 
L 733.440981 156.598547 
L 735.082091 156.46966 
L 736.704658 156.46966 
L 738.309095 156.46966 
L 739.895804 156.46966 
L 741.46517 156.340774 
" style="fill:none;stroke:#e377c2;stroke-linecap:square;stroke-width:1.5;"/>
   </g>
   <g id="line2d_44"/>
   <g id="line2d_45"/>
   <g id="line2d_46"/>
   <g id="line2d_47"/>
   <g id="line2d_48"/>
   <g id="line2d_49"/>
   <g id="line2d_50"/>
   <g id="line2d_51"/>
   <g id="line2d_52"/>
   <g id="line2d_53"/>
   <g id="line2d_54">
    <path clip-path="url(#pb96678cfa1)" d="M 741.46517 288.430125 
L 741.46517 22.318125 
" style="fill:none;stroke:#ff0000;stroke-linecap:square;stroke-width:1.5;"/>
   </g>
   <g id="patch_3">
    <path d="M 59.690625 258.418899 
L 59.690625 52.200465 
" style="fill:none;stroke:#000000;stroke-linecap:square;stroke-linejoin:miter;stroke-width:0.8;"/>
   </g>
   <g id="patch_4">
    <path d="M 92.15608 288.430125 
L 741.466905 288.430125 
" style="fill:none;stroke:#000000;stroke-linecap:square;stroke-linejoin:miter;stroke-width:0.8;"/>
   </g>
   <g id="text_20">
    <!-- openssl_x509 (23h, 19 trials/fuzzer) -->
    <g transform="translate(309.184688 16.318125)scale(0.12 -0.12)">
     <defs>
      <path d="M 18.109375 8.203125 
L 18.109375 -20.796875 
L 9.078125 -20.796875 
L 9.078125 54.6875 
L 18.109375 54.6875 
L 18.109375 46.390625 
Q 20.953125 51.265625 25.265625 53.625 
Q 29.59375 56 35.59375 56 
Q 45.5625 56 51.78125 48.09375 
Q 58.015625 40.1875 58.015625 27.296875 
Q 58.015625 14.40625 51.78125 6.484375 
Q 45.5625 -1.421875 35.59375 -1.421875 
Q 29.59375 -1.421875 25.265625 0.953125 
Q 20.953125 3.328125 18.109375 8.203125 
z
M 48.6875 27.296875 
Q 48.6875 37.203125 44.609375 42.84375 
Q 40.53125 48.484375 33.40625 48.484375 
Q 26.265625 48.484375 22.1875 42.84375 
Q 18.109375 37.203125 18.109375 27.296875 
Q 18.109375 17.390625 22.1875 11.75 
Q 26.265625 6.109375 33.40625 6.109375 
Q 40.53125 6.109375 44.609375 11.75 
Q 48.6875 17.390625 48.6875 27.296875 
z
" id="DejaVuSans-112"/>
      <path d="M 44.28125 53.078125 
L 44.28125 44.578125 
Q 40.484375 46.53125 36.375 47.5 
Q 32.28125 48.484375 27.875 48.484375 
Q 21.1875 48.484375 17.84375 46.4375 
Q 14.5 44.390625 14.5 40.28125 
Q 14.5 37.15625 16.890625 35.375 
Q 19.28125 33.59375 26.515625 31.984375 
L 29.59375 31.296875 
Q 39.15625 29.25 43.1875 25.515625 
Q 47.21875 21.78125 47.21875 15.09375 
Q 47.21875 7.46875 41.1875 3.015625 
Q 35.15625 -1.421875 24.609375 -1.421875 
Q 20.21875 -1.421875 15.453125 -0.5625 
Q 10.6875 0.296875 5.421875 2 
L 5.421875 11.28125 
Q 10.40625 8.6875 15.234375 7.390625 
Q 20.0625 6.109375 24.8125 6.109375 
Q 31.15625 6.109375 34.5625 8.28125 
Q 37.984375 10.453125 37.984375 14.40625 
Q 37.984375 18.0625 35.515625 20.015625 
Q 33.0625 21.96875 24.703125 23.78125 
L 21.578125 24.515625 
Q 13.234375 26.265625 9.515625 29.90625 
Q 5.8125 33.546875 5.8125 39.890625 
Q 5.8125 47.609375 11.28125 51.796875 
Q 16.75 56 26.8125 56 
Q 31.78125 56 36.171875 55.265625 
Q 40.578125 54.546875 44.28125 53.078125 
z
" id="DejaVuSans-115"/>
      <path d="M 9.421875 75.984375 
L 18.40625 75.984375 
L 18.40625 0 
L 9.421875 0 
z
" id="DejaVuSans-108"/>
      <path d="M 50.984375 -16.609375 
L 50.984375 -23.578125 
L -0.984375 -23.578125 
L -0.984375 -16.609375 
z
" id="DejaVuSans-95"/>
      <path d="M 54.890625 54.6875 
L 35.109375 28.078125 
L 55.90625 0 
L 45.3125 0 
L 29.390625 21.484375 
L 13.484375 0 
L 2.875 0 
L 24.125 28.609375 
L 4.6875 54.6875 
L 15.28125 54.6875 
L 29.78125 35.203125 
L 44.28125 54.6875 
z
" id="DejaVuSans-120"/>
      <path d="M 10.984375 1.515625 
L 10.984375 10.5 
Q 14.703125 8.734375 18.5 7.8125 
Q 22.3125 6.890625 25.984375 6.890625 
Q 35.75 6.890625 40.890625 13.453125 
Q 46.046875 20.015625 46.78125 33.40625 
Q 43.953125 29.203125 39.59375 26.953125 
Q 35.25 24.703125 29.984375 24.703125 
Q 19.046875 24.703125 12.671875 31.3125 
Q 6.296875 37.9375 6.296875 49.421875 
Q 6.296875 60.640625 12.9375 67.421875 
Q 19.578125 74.21875 30.609375 74.21875 
Q 43.265625 74.21875 49.921875 64.515625 
Q 56.59375 54.828125 56.59375 36.375 
Q 56.59375 19.140625 48.40625 8.859375 
Q 40.234375 -1.421875 26.421875 -1.421875 
Q 22.703125 -1.421875 18.890625 -0.6875 
Q 15.09375 0.046875 10.984375 1.515625 
z
M 30.609375 32.421875 
Q 37.25 32.421875 41.125 36.953125 
Q 45.015625 41.5 45.015625 49.421875 
Q 45.015625 57.28125 41.125 61.84375 
Q 37.25 66.40625 30.609375 66.40625 
Q 23.96875 66.40625 20.09375 61.84375 
Q 16.21875 57.28125 16.21875 49.421875 
Q 16.21875 41.5 20.09375 36.953125 
Q 23.96875 32.421875 30.609375 32.421875 
z
" id="DejaVuSans-57"/>
      <path d="M 11.71875 12.40625 
L 22.015625 12.40625 
L 22.015625 4 
L 14.015625 -11.625 
L 7.71875 -11.625 
L 11.71875 4 
z
" id="DejaVuSans-44"/>
      <path d="M 25.390625 72.90625 
L 33.6875 72.90625 
L 8.296875 -9.28125 
L 0 -9.28125 
z
" id="DejaVuSans-47"/>
      <path d="M 37.109375 75.984375 
L 37.109375 68.5 
L 28.515625 68.5 
Q 23.6875 68.5 21.796875 66.546875 
Q 19.921875 64.59375 19.921875 59.515625 
L 19.921875 54.6875 
L 34.71875 54.6875 
L 34.71875 47.703125 
L 19.921875 47.703125 
L 19.921875 0 
L 10.890625 0 
L 10.890625 47.703125 
L 2.296875 47.703125 
L 2.296875 54.6875 
L 10.890625 54.6875 
L 10.890625 58.5 
Q 10.890625 67.625 15.140625 71.796875 
Q 19.390625 75.984375 28.609375 75.984375 
z
" id="DejaVuSans-102"/>
      <path d="M 5.515625 54.6875 
L 48.1875 54.6875 
L 48.1875 46.484375 
L 14.40625 7.171875 
L 48.1875 7.171875 
L 48.1875 0 
L 4.296875 0 
L 4.296875 8.203125 
L 38.09375 47.515625 
L 5.515625 47.515625 
z
" id="DejaVuSans-122"/>
     </defs>
     <use xlink:href="#DejaVuSans-111"/>
     <use x="61.181641" xlink:href="#DejaVuSans-112"/>
     <use x="124.658203" xlink:href="#DejaVuSans-101"/>
     <use x="186.181641" xlink:href="#DejaVuSans-110"/>
     <use x="249.560547" xlink:href="#DejaVuSans-115"/>
     <use x="301.660156" xlink:href="#DejaVuSans-115"/>
     <use x="353.759766" xlink:href="#DejaVuSans-108"/>
     <use x="381.542969" xlink:href="#DejaVuSans-95"/>
     <use x="431.542969" xlink:href="#DejaVuSans-120"/>
     <use x="490.722656" xlink:href="#DejaVuSans-53"/>
     <use x="554.345703" xlink:href="#DejaVuSans-48"/>
     <use x="617.96875" xlink:href="#DejaVuSans-57"/>
     <use x="681.591797" xlink:href="#DejaVuSans-32"/>
     <use x="713.378906" xlink:href="#DejaVuSans-40"/>
     <use x="752.392578" xlink:href="#DejaVuSans-50"/>
     <use x="816.015625" xlink:href="#DejaVuSans-51"/>
     <use x="879.638672" xlink:href="#DejaVuSans-104"/>
     <use x="943.017578" xlink:href="#DejaVuSans-44"/>
     <use x="974.804688" xlink:href="#DejaVuSans-32"/>
     <use x="1006.591797" xlink:href="#DejaVuSans-49"/>
     <use x="1070.214844" xlink:href="#DejaVuSans-57"/>
     <use x="1133.837891" xlink:href="#DejaVuSans-32"/>
     <use x="1165.625" xlink:href="#DejaVuSans-116"/>
     <use x="1204.833984" xlink:href="#DejaVuSans-114"/>
     <use x="1245.947266" xlink:href="#DejaVuSans-105"/>
     <use x="1273.730469" xlink:href="#DejaVuSans-97"/>
     <use x="1335.009766" xlink:href="#DejaVuSans-108"/>
     <use x="1362.792969" xlink:href="#DejaVuSans-115"/>
     <use x="1414.892578" xlink:href="#DejaVuSans-47"/>
     <use x="1448.583984" xlink:href="#DejaVuSans-102"/>
     <use x="1483.789062" xlink:href="#DejaVuSans-117"/>
     <use x="1547.167969" xlink:href="#DejaVuSans-122"/>
     <use x="1599.658203" xlink:href="#DejaVuSans-122"/>
     <use x="1652.148438" xlink:href="#DejaVuSans-101"/>
     <use x="1713.671875" xlink:href="#DejaVuSans-114"/>
     <use x="1754.785156" xlink:href="#DejaVuSans-41"/>
    </g>
   </g>
   <g id="legend_1">
    <g id="line2d_55">
     <path d="M 777.930625 30.416562 
L 797.930625 30.416562 
" style="fill:none;"/>
    </g>
    <g id="line2d_56"/>
    <g id="text_21">
     <!-- fuzzer -->
     <g transform="translate(805.930625 33.916562)scale(0.1 -0.1)">
      <use xlink:href="#DejaVuSans-102"/>
      <use x="35.205078" xlink:href="#DejaVuSans-117"/>
      <use x="98.583984" xlink:href="#DejaVuSans-122"/>
      <use x="151.074219" xlink:href="#DejaVuSans-122"/>
      <use x="203.564453" xlink:href="#DejaVuSans-101"/>
      <use x="265.087891" xlink:href="#DejaVuSans-114"/>
     </g>
    </g>
    <g id="line2d_57">
     <path d="M 777.930625 45.094688 
L 797.930625 45.094688 
" style="fill:none;stroke:#ff7f0e;stroke-linecap:square;stroke-width:1.5;"/>
    </g>
    <g id="line2d_58"/>
    <g id="text_22">
     <!-- entropic -->
     <g transform="translate(805.930625 48.594688)scale(0.1 -0.1)">
      <use xlink:href="#DejaVuSans-101"/>
      <use x="61.523438" xlink:href="#DejaVuSans-110"/>
      <use x="124.902344" xlink:href="#DejaVuSans-116"/>
      <use x="164.111328" xlink:href="#DejaVuSans-114"/>
      <use x="202.974609" xlink:href="#DejaVuSans-111"/>
      <use x="264.15625" xlink:href="#DejaVuSans-112"/>
      <use x="327.632812" xlink:href="#DejaVuSans-105"/>
      <use x="355.416016" xlink:href="#DejaVuSans-99"/>
     </g>
    </g>
    <g id="line2d_59">
     <path d="M 777.930625 59.772812 
L 797.930625 59.772812 
" style="fill:none;stroke:#c5b0d5;stroke-linecap:square;stroke-width:1.5;"/>
    </g>
    <g id="line2d_60"/>
    <g id="text_23">
     <!-- mopt -->
     <g transform="translate(805.930625 63.272812)scale(0.1 -0.1)">
      <use xlink:href="#DejaVuSans-109"/>
      <use x="97.412109" xlink:href="#DejaVuSans-111"/>
      <use x="158.59375" xlink:href="#DejaVuSans-112"/>
      <use x="222.070312" xlink:href="#DejaVuSans-116"/>
     </g>
    </g>
    <g id="line2d_61">
     <path d="M 777.930625 74.450938 
L 797.930625 74.450938 
" style="fill:none;stroke:#d62728;stroke-linecap:square;stroke-width:1.5;"/>
    </g>
    <g id="line2d_62"/>
    <g id="text_24">
     <!-- aflplusplus_qemu -->
     <g transform="translate(805.930625 77.950938)scale(0.1 -0.1)">
      <defs>
       <path d="M 14.796875 27.296875 
Q 14.796875 17.390625 18.875 11.75 
Q 22.953125 6.109375 30.078125 6.109375 
Q 37.203125 6.109375 41.296875 11.75 
Q 45.40625 17.390625 45.40625 27.296875 
Q 45.40625 37.203125 41.296875 42.84375 
Q 37.203125 48.484375 30.078125 48.484375 
Q 22.953125 48.484375 18.875 42.84375 
Q 14.796875 37.203125 14.796875 27.296875 
z
M 45.40625 8.203125 
Q 42.578125 3.328125 38.25 0.953125 
Q 33.9375 -1.421875 27.875 -1.421875 
Q 17.96875 -1.421875 11.734375 6.484375 
Q 5.515625 14.40625 5.515625 27.296875 
Q 5.515625 40.1875 11.734375 48.09375 
Q 17.96875 56 27.875 56 
Q 33.9375 56 38.25 53.625 
Q 42.578125 51.265625 45.40625 46.390625 
L 45.40625 54.6875 
L 54.390625 54.6875 
L 54.390625 -20.796875 
L 45.40625 -20.796875 
z
" id="DejaVuSans-113"/>
      </defs>
      <use xlink:href="#DejaVuSans-97"/>
      <use x="61.279297" xlink:href="#DejaVuSans-102"/>
      <use x="96.484375" xlink:href="#DejaVuSans-108"/>
      <use x="124.267578" xlink:href="#DejaVuSans-112"/>
      <use x="187.744141" xlink:href="#DejaVuSans-108"/>
      <use x="215.527344" xlink:href="#DejaVuSans-117"/>
      <use x="278.90625" xlink:href="#DejaVuSans-115"/>
      <use x="331.005859" xlink:href="#DejaVuSans-112"/>
      <use x="394.482422" xlink:href="#DejaVuSans-108"/>
      <use x="422.265625" xlink:href="#DejaVuSans-117"/>
      <use x="485.644531" xlink:href="#DejaVuSans-115"/>
      <use x="537.744141" xlink:href="#DejaVuSans-95"/>
      <use x="587.744141" xlink:href="#DejaVuSans-113"/>
      <use x="651.220703" xlink:href="#DejaVuSans-101"/>
      <use x="712.744141" xlink:href="#DejaVuSans-109"/>
      <use x="810.15625" xlink:href="#DejaVuSans-117"/>
     </g>
    </g>
    <g id="line2d_63">
     <path d="M 777.930625 89.407188 
L 797.930625 89.407188 
" style="fill:none;stroke:#2ca02c;stroke-linecap:square;stroke-width:1.5;"/>
    </g>
    <g id="line2d_64"/>
    <g id="text_25">
     <!-- libfuzzer -->
     <g transform="translate(805.930625 92.907188)scale(0.1 -0.1)">
      <defs>
       <path d="M 48.6875 27.296875 
Q 48.6875 37.203125 44.609375 42.84375 
Q 40.53125 48.484375 33.40625 48.484375 
Q 26.265625 48.484375 22.1875 42.84375 
Q 18.109375 37.203125 18.109375 27.296875 
Q 18.109375 17.390625 22.1875 11.75 
Q 26.265625 6.109375 33.40625 6.109375 
Q 40.53125 6.109375 44.609375 11.75 
Q 48.6875 17.390625 48.6875 27.296875 
z
M 18.109375 46.390625 
Q 20.953125 51.265625 25.265625 53.625 
Q 29.59375 56 35.59375 56 
Q 45.5625 56 51.78125 48.09375 
Q 58.015625 40.1875 58.015625 27.296875 
Q 58.015625 14.40625 51.78125 6.484375 
Q 45.5625 -1.421875 35.59375 -1.421875 
Q 29.59375 -1.421875 25.265625 0.953125 
Q 20.953125 3.328125 18.109375 8.203125 
L 18.109375 0 
L 9.078125 0 
L 9.078125 75.984375 
L 18.109375 75.984375 
z
" id="DejaVuSans-98"/>
      </defs>
      <use xlink:href="#DejaVuSans-108"/>
      <use x="27.783203" xlink:href="#DejaVuSans-105"/>
      <use x="55.566406" xlink:href="#DejaVuSans-98"/>
      <use x="119.042969" xlink:href="#DejaVuSans-102"/>
      <use x="154.248047" xlink:href="#DejaVuSans-117"/>
      <use x="217.626953" xlink:href="#DejaVuSans-122"/>
      <use x="270.117188" xlink:href="#DejaVuSans-122"/>
      <use x="322.607422" xlink:href="#DejaVuSans-101"/>
      <use x="384.130859" xlink:href="#DejaVuSans-114"/>
     </g>
    </g>
    <g id="line2d_65">
     <path d="M 777.930625 104.085313 
L 797.930625 104.085313 
" style="fill:none;stroke:#dbdb8d;stroke-linecap:square;stroke-width:1.5;"/>
    </g>
    <g id="line2d_66"/>
    <g id="text_26">
     <!-- lafintel -->
     <g transform="translate(805.930625 107.585313)scale(0.1 -0.1)">
      <use xlink:href="#DejaVuSans-108"/>
      <use x="27.783203" xlink:href="#DejaVuSans-97"/>
      <use x="89.0625" xlink:href="#DejaVuSans-102"/>
      <use x="124.267578" xlink:href="#DejaVuSans-105"/>
      <use x="152.050781" xlink:href="#DejaVuSans-110"/>
      <use x="215.429688" xlink:href="#DejaVuSans-116"/>
      <use x="254.638672" xlink:href="#DejaVuSans-101"/>
      <use x="316.162109" xlink:href="#DejaVuSans-108"/>
     </g>
    </g>
    <g id="line2d_67">
     <path d="M 777.930625 118.763438 
L 797.930625 118.763438 
" style="fill:none;stroke:#1f77b4;stroke-linecap:square;stroke-width:1.5;"/>
    </g>
    <g id="line2d_68"/>
    <g id="text_27">
     <!-- aflplusplus -->
     <g transform="translate(805.930625 122.263438)scale(0.1 -0.1)">
      <use xlink:href="#DejaVuSans-97"/>
      <use x="61.279297" xlink:href="#DejaVuSans-102"/>
      <use x="96.484375" xlink:href="#DejaVuSans-108"/>
      <use x="124.267578" xlink:href="#DejaVuSans-112"/>
      <use x="187.744141" xlink:href="#DejaVuSans-108"/>
      <use x="215.527344" xlink:href="#DejaVuSans-117"/>
      <use x="278.90625" xlink:href="#DejaVuSans-115"/>
      <use x="331.005859" xlink:href="#DejaVuSans-112"/>
      <use x="394.482422" xlink:href="#DejaVuSans-108"/>
      <use x="422.265625" xlink:href="#DejaVuSans-117"/>
      <use x="485.644531" xlink:href="#DejaVuSans-115"/>
     </g>
    </g>
    <g id="line2d_69">
     <path d="M 777.930625 133.441563 
L 797.930625 133.441563 
" style="fill:none;stroke:#ff9896;stroke-linecap:square;stroke-width:1.5;"/>
    </g>
    <g id="line2d_70"/>
    <g id="text_28">
     <!-- fairfuzz -->
     <g transform="translate(805.930625 136.941563)scale(0.1 -0.1)">
      <use xlink:href="#DejaVuSans-102"/>
      <use x="35.205078" xlink:href="#DejaVuSans-97"/>
      <use x="96.484375" xlink:href="#DejaVuSans-105"/>
      <use x="124.267578" xlink:href="#DejaVuSans-114"/>
      <use x="165.380859" xlink:href="#DejaVuSans-102"/>
      <use x="200.585938" xlink:href="#DejaVuSans-117"/>
      <use x="263.964844" xlink:href="#DejaVuSans-122"/>
      <use x="316.455078" xlink:href="#DejaVuSans-122"/>
     </g>
    </g>
    <g id="line2d_71">
     <path d="M 777.930625 148.119687 
L 797.930625 148.119687 
" style="fill:none;stroke:#98df8a;stroke-linecap:square;stroke-width:1.5;"/>
    </g>
    <g id="line2d_72"/>
    <g id="text_29">
     <!-- aflplusplus_flat -->
     <g transform="translate(805.930625 151.619687)scale(0.1 -0.1)">
      <use xlink:href="#DejaVuSans-97"/>
      <use x="61.279297" xlink:href="#DejaVuSans-102"/>
      <use x="96.484375" xlink:href="#DejaVuSans-108"/>
      <use x="124.267578" xlink:href="#DejaVuSans-112"/>
      <use x="187.744141" xlink:href="#DejaVuSans-108"/>
      <use x="215.527344" xlink:href="#DejaVuSans-117"/>
      <use x="278.90625" xlink:href="#DejaVuSans-115"/>
      <use x="331.005859" xlink:href="#DejaVuSans-112"/>
      <use x="394.482422" xlink:href="#DejaVuSans-108"/>
      <use x="422.265625" xlink:href="#DejaVuSans-117"/>
      <use x="485.644531" xlink:href="#DejaVuSans-115"/>
      <use x="537.744141" xlink:href="#DejaVuSans-95"/>
      <use x="587.744141" xlink:href="#DejaVuSans-102"/>
      <use x="622.949219" xlink:href="#DejaVuSans-108"/>
      <use x="650.732422" xlink:href="#DejaVuSans-97"/>
      <use x="712.011719" xlink:href="#DejaVuSans-116"/>
     </g>
    </g>
    <g id="line2d_73">
     <path d="M 777.930625 163.075938 
L 797.930625 163.075938 
" style="fill:none;stroke:#e377c2;stroke-linecap:square;stroke-width:1.5;"/>
    </g>
    <g id="line2d_74"/>
    <g id="text_30">
     <!-- honggfuzz -->
     <g transform="translate(805.930625 166.575938)scale(0.1 -0.1)">
      <use xlink:href="#DejaVuSans-104"/>
      <use x="63.378906" xlink:href="#DejaVuSans-111"/>
      <use x="124.560547" xlink:href="#DejaVuSans-110"/>
      <use x="187.939453" xlink:href="#DejaVuSans-103"/>
      <use x="251.416016" xlink:href="#DejaVuSans-103"/>
      <use x="314.892578" xlink:href="#DejaVuSans-102"/>
      <use x="350.097656" xlink:href="#DejaVuSans-117"/>
      <use x="413.476562" xlink:href="#DejaVuSans-122"/>
      <use x="465.966797" xlink:href="#DejaVuSans-122"/>
     </g>
    </g>
   </g>
  </g>
 </g>
 <defs>
  <clipPath id="pb96678cfa1">
   <rect height="266.112" width="714.24" x="59.690625" y="22.318125"/>
  </clipPath>
 </defs>
</svg>
