<?xml version="1.0" encoding="utf-8" standalone="no"?>
<!DOCTYPE svg PUBLIC "-//W3C//DTD SVG 1.1//EN"
  "http://www.w3.org/Graphics/SVG/1.1/DTD/svg11.dtd">
<!-- Created with matplotlib (https://matplotlib.org/) -->
<svg height="368.607178pt" version="1.1" viewBox="0 0 424.010625 368.607178" width="424.010625pt" xmlns="http://www.w3.org/2000/svg" xmlns:xlink="http://www.w3.org/1999/xlink">
 <metadata>
  <rdf:RDF xmlns:cc="http://creativecommons.org/ns#" xmlns:dc="http://purl.org/dc/elements/1.1/" xmlns:rdf="http://www.w3.org/1999/02/22-rdf-syntax-ns#">
   <cc:Work>
    <dc:type rdf:resource="http://purl.org/dc/dcmitype/StillImage"/>
    <dc:date>2020-12-06T10:29:06.158850</dc:date>
    <dc:format>image/svg+xml</dc:format>
    <dc:creator>
     <cc:Agent>
      <dc:title>Matplotlib v3.3.3, https://matplotlib.org/</dc:title>
     </cc:Agent>
    </dc:creator>
   </cc:Work>
  </rdf:RDF>
 </metadata>
 <defs>
  <style type="text/css">*{stroke-linecap:butt;stroke-linejoin:round;}</style>
 </defs>
 <g id="figure_1">
  <g id="patch_1">
   <path d="M 0 368.607178 
L 424.010625 368.607178 
L 424.010625 0 
L 0 0 
z
" style="fill:#ffffff;"/>
  </g>
  <g id="axes_1">
   <g id="patch_2">
    <path d="M 59.690625 288.430125 
L 416.810625 288.430125 
L 416.810625 22.318125 
L 59.690625 22.318125 
z
" style="fill:#ffffff;"/>
   </g>
   <g id="PolyCollection_1">
    <defs>
     <path d="M 79.709179 -146.826436 
L 79.352071 -146.826436 
L 79.311682 -147.57832 
L 79.264548 -148.330205 
L 79.210133 -149.08209 
L 79.147999 -149.833975 
L 79.077838 -150.58586 
L 78.999504 -151.337745 
L 78.913046 -152.08963 
L 78.81874 -152.841515 
L 78.717105 -153.593399 
L 78.608923 -154.345284 
L 78.49524 -155.097169 
L 78.377358 -155.849054 
L 78.256819 -156.600939 
L 78.135368 -157.352824 
L 78.014914 -158.104709 
L 77.897472 -158.856594 
L 77.7851 -159.608478 
L 77.679835 -160.360363 
L 77.583616 -161.112248 
L 77.498213 -161.864133 
L 77.425163 -162.616018 
L 77.365709 -163.367903 
L 77.320745 -164.119788 
L 77.290776 -164.871673 
L 77.275895 -165.623557 
L 77.27576 -166.375442 
L 77.289599 -167.127327 
L 77.316215 -167.879212 
L 77.354008 -168.631097 
L 77.401004 -169.382982 
L 77.454898 -170.134867 
L 77.513094 -170.886752 
L 77.572761 -171.638636 
L 77.630888 -172.390521 
L 77.684352 -173.142406 
L 77.729982 -173.894291 
L 77.764634 -174.646176 
L 77.785276 -175.398061 
L 77.78907 -176.149946 
L 77.773461 -176.901831 
L 77.736277 -177.653715 
L 77.675816 -178.4056 
L 77.590943 -179.157485 
L 77.481172 -179.90937 
L 77.346737 -180.661255 
L 77.18865 -181.41314 
L 77.008732 -182.165025 
L 76.809613 -182.91691 
L 76.59471 -183.668795 
L 76.368162 -184.420679 
L 76.134729 -185.172564 
L 75.899666 -185.924449 
L 75.668557 -186.676334 
L 75.447131 -187.428219 
L 75.24106 -188.180104 
L 75.055751 -188.931989 
L 74.896143 -189.683874 
L 74.76652 -190.435758 
L 74.670346 -191.187643 
L 74.610144 -191.939528 
L 74.587409 -192.691413 
L 74.60257 -193.443298 
L 74.655004 -194.195183 
L 74.743095 -194.947068 
L 74.86433 -195.698953 
L 75.015441 -196.450837 
L 75.192564 -197.202722 
L 75.39142 -197.954607 
L 75.607496 -198.706492 
L 75.836228 -199.458377 
L 76.073159 -200.210262 
L 76.314088 -200.962147 
L 76.555183 -201.714032 
L 76.793061 -202.465916 
L 77.024849 -203.217801 
L 77.248196 -203.969686 
L 77.461281 -204.721571 
L 77.662775 -205.473456 
L 77.851803 -206.225341 
L 78.027886 -206.977226 
L 78.190878 -207.729111 
L 78.340901 -208.480995 
L 78.478287 -209.23288 
L 78.603515 -209.984765 
L 78.717172 -210.73665 
L 78.819903 -211.488535 
L 78.912388 -212.24042 
L 78.995313 -212.992305 
L 79.069358 -213.74419 
L 79.135187 -214.496074 
L 79.19344 -215.247959 
L 79.244734 -215.999844 
L 79.289659 -216.751729 
L 79.328782 -217.503614 
L 79.362644 -218.255499 
L 79.391762 -219.007384 
L 79.416629 -219.759269 
L 79.437714 -220.511153 
L 79.455457 -221.263038 
L 79.605793 -221.263038 
L 79.605793 -221.263038 
L 79.623536 -220.511153 
L 79.644621 -219.759269 
L 79.669488 -219.007384 
L 79.698606 -218.255499 
L 79.732468 -217.503614 
L 79.771591 -216.751729 
L 79.816516 -215.999844 
L 79.86781 -215.247959 
L 79.926063 -214.496074 
L 79.991892 -213.74419 
L 80.065937 -212.992305 
L 80.148862 -212.24042 
L 80.241347 -211.488535 
L 80.344078 -210.73665 
L 80.457735 -209.984765 
L 80.582963 -209.23288 
L 80.720349 -208.480995 
L 80.870372 -207.729111 
L 81.033364 -206.977226 
L 81.209447 -206.225341 
L 81.398475 -205.473456 
L 81.599969 -204.721571 
L 81.813054 -203.969686 
L 82.036401 -203.217801 
L 82.268189 -202.465916 
L 82.506067 -201.714032 
L 82.747162 -200.962147 
L 82.988091 -200.210262 
L 83.225022 -199.458377 
L 83.453754 -198.706492 
L 83.66983 -197.954607 
L 83.868686 -197.202722 
L 84.045809 -196.450837 
L 84.19692 -195.698953 
L 84.318155 -194.947068 
L 84.406246 -194.195183 
L 84.45868 -193.443298 
L 84.473841 -192.691413 
L 84.451106 -191.939528 
L 84.390904 -191.187643 
L 84.29473 -190.435758 
L 84.165107 -189.683874 
L 84.005499 -188.931989 
L 83.82019 -188.180104 
L 83.614119 -187.428219 
L 83.392693 -186.676334 
L 83.161584 -185.924449 
L 82.926521 -185.172564 
L 82.693088 -184.420679 
L 82.46654 -183.668795 
L 82.251637 -182.91691 
L 82.052518 -182.165025 
L 81.8726 -181.41314 
L 81.714513 -180.661255 
L 81.580078 -179.90937 
L 81.470307 -179.157485 
L 81.385434 -178.4056 
L 81.324973 -177.653715 
L 81.287789 -176.901831 
L 81.27218 -176.149946 
L 81.275974 -175.398061 
L 81.296616 -174.646176 
L 81.331268 -173.894291 
L 81.376898 -173.142406 
L 81.430362 -172.390521 
L 81.488489 -171.638636 
L 81.548156 -170.886752 
L 81.606352 -170.134867 
L 81.660246 -169.382982 
L 81.707242 -168.631097 
L 81.745035 -167.879212 
L 81.771651 -167.127327 
L 81.78549 -166.375442 
L 81.785355 -165.623557 
L 81.770474 -164.871673 
L 81.740505 -164.119788 
L 81.695541 -163.367903 
L 81.636087 -162.616018 
L 81.563037 -161.864133 
L 81.477634 -161.112248 
L 81.381415 -160.360363 
L 81.27615 -159.608478 
L 81.163778 -158.856594 
L 81.046336 -158.104709 
L 80.925882 -157.352824 
L 80.804431 -156.600939 
L 80.683892 -155.849054 
L 80.56601 -155.097169 
L 80.452327 -154.345284 
L 80.344145 -153.593399 
L 80.24251 -152.841515 
L 80.148204 -152.08963 
L 80.061746 -151.337745 
L 79.983412 -150.58586 
L 79.913251 -149.833975 
L 79.851117 -149.08209 
L 79.796702 -148.330205 
L 79.749568 -147.57832 
L 79.709179 -146.826436 
z
" id="m5ddd8fae70" style="stroke:#3d3d3d;stroke-width:1.5;"/>
    </defs>
    <g clip-path="url(#p19e57aea72)">
     <use style="fill:#3a923a;stroke:#3d3d3d;stroke-width:1.5;" x="0" xlink:href="#m5ddd8fae70" y="368.607178"/>
    </g>
   </g>
   <g id="PolyCollection_2">
    <defs>
     <path d="M 119.292304 -130.937003 
L 119.128946 -130.937003 
L 119.103768 -132.990094 
L 119.073026 -135.043186 
L 119.036179 -137.096277 
L 118.992819 -139.149369 
L 118.942705 -141.20246 
L 118.885788 -143.255551 
L 118.822213 -145.308643 
L 118.752298 -147.361734 
L 118.676478 -149.414826 
L 118.595234 -151.467917 
L 118.508992 -153.521009 
L 118.418023 -155.5741 
L 118.322353 -157.627191 
L 118.221696 -159.680283 
L 118.115445 -161.733374 
L 118.002718 -163.786466 
L 117.882483 -165.839557 
L 117.753748 -167.892648 
L 117.615805 -169.94574 
L 117.468514 -171.998831 
L 117.312571 -174.051923 
L 117.14974 -176.105014 
L 116.982999 -178.158105 
L 116.816566 -180.211197 
L 116.655783 -182.264288 
L 116.506861 -184.31738 
L 116.376488 -186.370471 
L 116.271342 -188.423563 
L 116.197551 -190.476654 
L 116.160171 -192.529745 
L 116.16272 -194.582837 
L 116.20684 -196.635928 
L 116.292116 -198.68902 
L 116.416078 -200.742111 
L 116.574372 -202.795202 
L 116.761101 -204.848294 
L 116.969264 -206.901385 
L 117.191274 -208.954477 
L 117.419482 -211.007568 
L 117.646659 -213.06066 
L 117.866399 -215.113751 
L 118.073415 -217.166842 
L 118.263704 -219.219934 
L 118.434598 -221.273025 
L 118.584706 -223.326117 
L 118.713772 -225.379208 
L 118.822475 -227.432299 
L 118.912207 -229.485391 
L 118.984836 -231.538482 
L 119.042501 -233.591574 
L 119.087424 -235.644665 
L 119.121769 -237.697756 
L 119.147541 -239.750848 
L 119.166518 -241.803939 
L 119.180223 -243.857031 
L 119.189913 -245.910122 
L 119.196595 -247.963214 
L 119.201048 -250.016305 
L 119.203851 -252.069396 
L 119.205415 -254.122488 
L 119.20601 -256.175579 
L 119.205793 -258.228671 
L 119.20483 -260.281762 
L 119.203112 -262.334853 
L 119.200573 -264.387945 
L 119.197108 -266.441036 
L 119.192582 -268.494128 
L 119.186853 -270.547219 
L 119.179783 -272.600311 
L 119.171263 -274.653402 
L 119.161229 -276.706493 
L 119.149684 -278.759585 
L 119.136717 -280.812676 
L 119.122515 -282.865768 
L 119.107371 -284.918859 
L 119.091683 -286.97195 
L 119.075945 -289.025042 
L 119.06072 -291.078133 
L 119.046615 -293.131225 
L 119.034237 -295.184316 
L 119.024154 -297.237407 
L 119.016852 -299.290499 
L 119.012691 -301.34359 
L 119.011883 -303.396682 
L 119.014469 -305.449773 
L 119.020317 -307.502865 
L 119.029134 -309.555956 
L 119.04049 -311.609047 
L 119.05385 -313.662139 
L 119.06862 -315.71523 
L 119.084189 -317.768322 
L 119.099967 -319.821413 
L 119.115425 -321.874504 
L 119.130118 -323.927596 
L 119.143702 -325.980687 
L 119.155942 -328.033779 
L 119.166703 -330.08687 
L 119.175947 -332.139962 
L 119.183712 -334.193053 
L 119.237538 -334.193053 
L 119.237538 -334.193053 
L 119.245303 -332.139962 
L 119.254547 -330.08687 
L 119.265308 -328.033779 
L 119.277548 -325.980687 
L 119.291132 -323.927596 
L 119.305825 -321.874504 
L 119.321283 -319.821413 
L 119.337061 -317.768322 
L 119.35263 -315.71523 
L 119.3674 -313.662139 
L 119.38076 -311.609047 
L 119.392116 -309.555956 
L 119.400933 -307.502865 
L 119.406781 -305.449773 
L 119.409367 -303.396682 
L 119.408559 -301.34359 
L 119.404398 -299.290499 
L 119.397096 -297.237407 
L 119.387013 -295.184316 
L 119.374635 -293.131225 
L 119.36053 -291.078133 
L 119.345305 -289.025042 
L 119.329567 -286.97195 
L 119.313879 -284.918859 
L 119.298735 -282.865768 
L 119.284533 -280.812676 
L 119.271566 -278.759585 
L 119.260021 -276.706493 
L 119.249987 -274.653402 
L 119.241467 -272.600311 
L 119.234397 -270.547219 
L 119.228668 -268.494128 
L 119.224142 -266.441036 
L 119.220677 -264.387945 
L 119.218138 -262.334853 
L 119.21642 -260.281762 
L 119.215457 -258.228671 
L 119.21524 -256.175579 
L 119.215835 -254.122488 
L 119.217399 -252.069396 
L 119.220202 -250.016305 
L 119.224655 -247.963214 
L 119.231337 -245.910122 
L 119.241027 -243.857031 
L 119.254732 -241.803939 
L 119.273709 -239.750848 
L 119.299481 -237.697756 
L 119.333826 -235.644665 
L 119.378749 -233.591574 
L 119.436414 -231.538482 
L 119.509043 -229.485391 
L 119.598775 -227.432299 
L 119.707478 -225.379208 
L 119.836544 -223.326117 
L 119.986652 -221.273025 
L 120.157546 -219.219934 
L 120.347835 -217.166842 
L 120.554851 -215.113751 
L 120.774591 -213.06066 
L 121.001768 -211.007568 
L 121.229976 -208.954477 
L 121.451986 -206.901385 
L 121.660149 -204.848294 
L 121.846878 -202.795202 
L 122.005172 -200.742111 
L 122.129134 -198.68902 
L 122.21441 -196.635928 
L 122.25853 -194.582837 
L 122.261079 -192.529745 
L 122.223699 -190.476654 
L 122.149908 -188.423563 
L 122.044762 -186.370471 
L 121.914389 -184.31738 
L 121.765467 -182.264288 
L 121.604684 -180.211197 
L 121.438251 -178.158105 
L 121.27151 -176.105014 
L 121.108679 -174.051923 
L 120.952736 -171.998831 
L 120.805445 -169.94574 
L 120.667502 -167.892648 
L 120.538767 -165.839557 
L 120.418532 -163.786466 
L 120.305805 -161.733374 
L 120.199554 -159.680283 
L 120.098897 -157.627191 
L 120.003227 -155.5741 
L 119.912258 -153.521009 
L 119.826016 -151.467917 
L 119.744772 -149.414826 
L 119.668952 -147.361734 
L 119.599037 -145.308643 
L 119.535462 -143.255551 
L 119.478545 -141.20246 
L 119.428431 -139.149369 
L 119.385071 -137.096277 
L 119.348224 -135.043186 
L 119.317482 -132.990094 
L 119.292304 -130.937003 
z
" id="md6845c70b7" style="stroke:#3d3d3d;stroke-width:1.5;"/>
    </defs>
    <g clip-path="url(#p19e57aea72)">
     <use style="fill:#e1812c;stroke:#3d3d3d;stroke-width:1.5;" x="0" xlink:href="#md6845c70b7" y="368.607178"/>
    </g>
   </g>
   <g id="PolyCollection_3">
    <defs>
     <path d="M 159.005338 -153.676987 
L 158.775912 -153.676987 
L 158.744238 -154.139676 
L 158.706755 -154.602365 
L 158.663303 -155.065053 
L 158.614002 -155.527742 
L 158.559298 -155.990431 
L 158.500016 -156.453119 
L 158.437364 -156.915808 
L 158.372931 -157.378497 
L 158.308634 -157.841186 
L 158.246635 -158.303874 
L 158.189232 -158.766563 
L 158.138721 -159.229252 
L 158.097243 -159.69194 
L 158.066635 -160.154629 
L 158.048299 -160.617318 
L 158.04309 -161.080006 
L 158.051254 -161.542695 
L 158.072406 -162.005384 
L 158.105562 -162.468072 
L 158.149215 -162.930761 
L 158.201447 -163.39345 
L 158.260069 -163.856138 
L 158.322774 -164.318827 
L 158.387281 -164.781516 
L 158.451473 -165.244204 
L 158.513502 -165.706893 
L 158.57186 -166.169582 
L 158.625423 -166.63227 
L 158.673453 -167.094959 
L 158.71558 -167.557648 
L 158.751754 -168.020336 
L 158.782183 -168.483025 
L 158.807276 -168.945714 
L 158.827568 -169.408402 
L 158.843669 -169.871091 
L 158.856205 -170.33378 
L 158.865786 -170.796468 
L 158.872972 -171.259157 
L 158.878258 -171.721846 
L 158.882065 -172.184534 
L 158.884734 -172.647223 
L 158.886531 -173.109912 
L 158.887646 -173.5726 
L 158.888198 -174.035289 
L 158.888227 -174.497978 
L 158.887696 -174.960666 
L 158.886464 -175.423355 
L 158.88427 -175.886044 
L 158.880689 -176.348732 
L 158.875075 -176.811421 
L 158.866493 -177.27411 
L 158.853621 -177.736798 
L 158.834636 -178.199487 
L 158.807082 -178.662176 
L 158.767719 -179.124864 
L 158.712372 -179.587553 
L 158.635784 -180.050242 
L 158.531502 -180.512931 
L 158.391822 -180.975619 
L 158.20781 -181.438308 
L 157.969457 -181.900997 
L 157.665979 -182.363685 
L 157.286295 -182.826374 
L 156.819704 -183.289063 
L 156.256748 -183.751751 
L 155.590227 -184.21444 
L 154.816325 -184.677129 
L 153.935739 -185.139817 
L 152.954717 -185.602506 
L 151.885862 -186.065195 
L 150.748585 -186.527883 
L 149.569068 -186.990572 
L 148.379678 -187.453261 
L 147.217764 -187.915949 
L 146.123894 -188.378638 
L 145.139608 -188.841327 
L 144.304854 -189.304015 
L 143.655319 -189.766704 
L 143.219911 -190.229393 
L 143.018625 -190.692081 
L 143.061018 -191.15477 
L 143.34546 -191.617459 
L 143.859237 -192.080147 
L 144.579491 -192.542836 
L 145.474921 -193.005525 
L 146.508041 -193.468213 
L 147.637788 -193.930902 
L 148.822215 -194.393591 
L 150.021035 -194.856279 
L 151.197794 -195.318968 
L 152.321531 -195.781657 
L 153.367833 -196.244345 
L 154.319288 -196.707034 
L 155.165359 -197.169723 
L 155.90181 -197.632411 
L 156.52978 -198.0951 
L 157.054673 -198.557789 
L 157.484965 -199.020477 
L 157.831069 -199.483166 
L 159.950181 -199.483166 
L 159.950181 -199.483166 
L 160.296285 -199.020477 
L 160.726577 -198.557789 
L 161.25147 -198.0951 
L 161.87944 -197.632411 
L 162.615891 -197.169723 
L 163.461962 -196.707034 
L 164.413417 -196.244345 
L 165.459719 -195.781657 
L 166.583456 -195.318968 
L 167.760215 -194.856279 
L 168.959035 -194.393591 
L 170.143462 -193.930902 
L 171.273209 -193.468213 
L 172.306329 -193.005525 
L 173.201759 -192.542836 
L 173.922013 -192.080147 
L 174.43579 -191.617459 
L 174.720232 -191.15477 
L 174.762625 -190.692081 
L 174.561339 -190.229393 
L 174.125931 -189.766704 
L 173.476396 -189.304015 
L 172.641642 -188.841327 
L 171.657356 -188.378638 
L 170.563486 -187.915949 
L 169.401572 -187.453261 
L 168.212182 -186.990572 
L 167.032665 -186.527883 
L 165.895388 -186.065195 
L 164.826533 -185.602506 
L 163.845511 -185.139817 
L 162.964925 -184.677129 
L 162.191023 -184.21444 
L 161.524502 -183.751751 
L 160.961546 -183.289063 
L 160.494955 -182.826374 
L 160.115271 -182.363685 
L 159.811793 -181.900997 
L 159.57344 -181.438308 
L 159.389428 -180.975619 
L 159.249748 -180.512931 
L 159.145466 -180.050242 
L 159.068878 -179.587553 
L 159.013531 -179.124864 
L 158.974168 -178.662176 
L 158.946614 -178.199487 
L 158.927629 -177.736798 
L 158.914757 -177.27411 
L 158.906175 -176.811421 
L 158.900561 -176.348732 
L 158.89698 -175.886044 
L 158.894786 -175.423355 
L 158.893554 -174.960666 
L 158.893023 -174.497978 
L 158.893052 -174.035289 
L 158.893604 -173.5726 
L 158.894719 -173.109912 
L 158.896516 -172.647223 
L 158.899185 -172.184534 
L 158.902992 -171.721846 
L 158.908278 -171.259157 
L 158.915464 -170.796468 
L 158.925045 -170.33378 
L 158.937581 -169.871091 
L 158.953682 -169.408402 
L 158.973974 -168.945714 
L 158.999067 -168.483025 
L 159.029496 -168.020336 
L 159.06567 -167.557648 
L 159.107797 -167.094959 
L 159.155827 -166.63227 
L 159.20939 -166.169582 
L 159.267748 -165.706893 
L 159.329777 -165.244204 
L 159.393969 -164.781516 
L 159.458476 -164.318827 
L 159.521181 -163.856138 
L 159.579803 -163.39345 
L 159.632035 -162.930761 
L 159.675688 -162.468072 
L 159.708844 -162.005384 
L 159.729996 -161.542695 
L 159.73816 -161.080006 
L 159.732951 -160.617318 
L 159.714615 -160.154629 
L 159.684007 -159.69194 
L 159.642529 -159.229252 
L 159.592018 -158.766563 
L 159.534615 -158.303874 
L 159.472616 -157.841186 
L 159.408319 -157.378497 
L 159.343886 -156.915808 
L 159.281234 -156.453119 
L 159.221952 -155.990431 
L 159.167248 -155.527742 
L 159.117947 -155.065053 
L 159.074495 -154.602365 
L 159.037012 -154.139676 
L 159.005338 -153.676987 
z
" id="mba0ef6bc36" style="stroke:#3d3d3d;stroke-width:1.5;"/>
    </defs>
    <g clip-path="url(#p19e57aea72)">
     <use style="fill:#c4b5d0;stroke:#3d3d3d;stroke-width:1.5;" x="0" xlink:href="#mba0ef6bc36" y="368.607178"/>
    </g>
   </g>
   <g id="PolyCollection_4">
    <defs>
     <path d="M 198.65351 -149.494867 
L 198.48774 -149.494867 
L 198.468916 -150.029476 
L 198.447101 -150.564085 
L 198.42214 -151.098694 
L 198.393939 -151.633303 
L 198.36248 -152.167913 
L 198.327834 -152.702522 
L 198.290158 -153.237131 
L 198.249704 -153.77174 
L 198.206803 -154.306349 
L 198.161861 -154.840959 
L 198.115333 -155.375568 
L 198.067705 -155.910177 
L 198.019457 -156.444786 
L 197.971043 -156.979395 
L 197.922856 -157.514005 
L 197.875207 -158.048614 
L 197.828304 -158.583223 
L 197.782243 -159.117832 
L 197.737011 -159.652441 
L 197.692496 -160.187051 
L 197.648513 -160.72166 
L 197.60483 -161.256269 
L 197.561211 -161.790878 
L 197.517454 -162.325487 
L 197.473429 -162.860097 
L 197.429108 -163.394706 
L 197.384588 -163.929315 
L 197.340095 -164.463924 
L 197.295979 -164.998533 
L 197.252685 -165.533143 
L 197.210714 -166.067752 
L 197.170574 -166.602361 
L 197.132716 -167.13697 
L 197.097482 -167.671579 
L 197.065044 -168.206188 
L 197.035363 -168.740798 
L 197.008165 -169.275407 
L 196.982927 -169.810016 
L 196.958895 -170.344625 
L 196.935118 -170.879234 
L 196.910496 -171.413844 
L 196.883844 -171.948453 
L 196.853957 -172.483062 
L 196.819677 -173.017671 
L 196.779941 -173.55228 
L 196.733816 -174.08689 
L 196.680505 -174.621499 
L 196.619332 -175.156108 
L 196.549694 -175.690717 
L 196.470994 -176.225326 
L 196.382559 -176.759936 
L 196.283548 -177.294545 
L 196.172874 -177.829154 
L 196.049138 -178.363763 
L 195.910608 -178.898372 
L 195.755232 -179.432982 
L 195.58071 -179.967591 
L 195.384628 -180.5022 
L 195.164635 -181.036809 
L 194.918684 -181.571418 
L 194.645293 -182.106027 
L 194.343831 -182.640637 
L 194.014795 -183.175246 
L 193.660054 -183.709855 
L 193.283032 -184.244464 
L 192.888814 -184.779073 
L 192.484149 -185.313683 
L 192.077341 -185.848292 
L 191.678023 -186.382901 
L 191.29682 -186.91751 
L 190.944916 -187.452119 
L 190.633551 -187.986729 
L 190.373477 -188.521338 
L 190.174403 -189.055947 
L 190.044484 -189.590556 
L 189.989872 -190.125165 
L 190.014367 -190.659775 
L 190.119205 -191.194384 
L 190.302972 -191.728993 
L 190.561678 -192.263602 
L 190.888962 -192.798211 
L 191.276425 -193.332821 
L 191.714054 -193.86743 
L 192.19072 -194.402039 
L 192.694707 -194.936648 
L 193.21423 -195.471257 
L 193.737928 -196.005867 
L 194.255294 -196.540476 
L 194.757014 -197.075085 
L 195.235223 -197.609694 
L 195.683648 -198.144303 
L 196.097669 -198.678912 
L 196.474277 -199.213522 
L 196.81197 -199.748131 
L 197.110581 -200.28274 
L 197.37108 -200.817349 
L 197.595341 -201.351958 
L 197.785917 -201.886568 
L 197.945818 -202.421177 
L 199.195432 -202.421177 
L 199.195432 -202.421177 
L 199.355333 -201.886568 
L 199.545909 -201.351958 
L 199.77017 -200.817349 
L 200.030669 -200.28274 
L 200.32928 -199.748131 
L 200.666973 -199.213522 
L 201.043581 -198.678912 
L 201.457602 -198.144303 
L 201.906027 -197.609694 
L 202.384236 -197.075085 
L 202.885956 -196.540476 
L 203.403322 -196.005867 
L 203.92702 -195.471257 
L 204.446543 -194.936648 
L 204.95053 -194.402039 
L 205.427196 -193.86743 
L 205.864825 -193.332821 
L 206.252288 -192.798211 
L 206.579572 -192.263602 
L 206.838278 -191.728993 
L 207.022045 -191.194384 
L 207.126883 -190.659775 
L 207.151378 -190.125165 
L 207.096766 -189.590556 
L 206.966847 -189.055947 
L 206.767773 -188.521338 
L 206.507699 -187.986729 
L 206.196334 -187.452119 
L 205.84443 -186.91751 
L 205.463227 -186.382901 
L 205.063909 -185.848292 
L 204.657101 -185.313683 
L 204.252436 -184.779073 
L 203.858218 -184.244464 
L 203.481196 -183.709855 
L 203.126455 -183.175246 
L 202.797419 -182.640637 
L 202.495957 -182.106027 
L 202.222566 -181.571418 
L 201.976615 -181.036809 
L 201.756622 -180.5022 
L 201.56054 -179.967591 
L 201.386018 -179.432982 
L 201.230642 -178.898372 
L 201.092112 -178.363763 
L 200.968376 -177.829154 
L 200.857702 -177.294545 
L 200.758691 -176.759936 
L 200.670256 -176.225326 
L 200.591556 -175.690717 
L 200.521918 -175.156108 
L 200.460745 -174.621499 
L 200.407434 -174.08689 
L 200.361309 -173.55228 
L 200.321573 -173.017671 
L 200.287293 -172.483062 
L 200.257406 -171.948453 
L 200.230754 -171.413844 
L 200.206132 -170.879234 
L 200.182355 -170.344625 
L 200.158323 -169.810016 
L 200.133085 -169.275407 
L 200.105887 -168.740798 
L 200.076206 -168.206188 
L 200.043768 -167.671579 
L 200.008534 -167.13697 
L 199.970676 -166.602361 
L 199.930536 -166.067752 
L 199.888565 -165.533143 
L 199.845271 -164.998533 
L 199.801155 -164.463924 
L 199.756662 -163.929315 
L 199.712142 -163.394706 
L 199.667821 -162.860097 
L 199.623796 -162.325487 
L 199.580039 -161.790878 
L 199.53642 -161.256269 
L 199.492737 -160.72166 
L 199.448754 -160.187051 
L 199.404239 -159.652441 
L 199.359007 -159.117832 
L 199.312946 -158.583223 
L 199.266043 -158.048614 
L 199.218394 -157.514005 
L 199.170207 -156.979395 
L 199.121793 -156.444786 
L 199.073545 -155.910177 
L 199.025917 -155.375568 
L 198.979389 -154.840959 
L 198.934447 -154.306349 
L 198.891546 -153.77174 
L 198.851092 -153.237131 
L 198.813416 -152.702522 
L 198.77877 -152.167913 
L 198.747311 -151.633303 
L 198.71911 -151.098694 
L 198.694149 -150.564085 
L 198.672334 -150.029476 
L 198.65351 -149.494867 
z
" id="m830101f147" style="stroke:#3d3d3d;stroke-width:1.5;"/>
    </defs>
    <g clip-path="url(#p19e57aea72)">
     <use style="fill:#c03d3e;stroke:#3d3d3d;stroke-width:1.5;" x="0" xlink:href="#m830101f147" y="368.607178"/>
    </g>
   </g>
   <g id="PolyCollection_5">
    <defs>
     <path d="M 238.2989 -111.212326 
L 238.20235 -111.212326 
L 238.190406 -112.206151 
L 238.176472 -113.199976 
L 238.160488 -114.1938 
L 238.142468 -115.187625 
L 238.122515 -116.18145 
L 238.100831 -117.175274 
L 238.07773 -118.169099 
L 238.053631 -119.162924 
L 238.029056 -120.156748 
L 238.004617 -121.150573 
L 237.980988 -122.144398 
L 237.958879 -123.138222 
L 237.938996 -124.132047 
L 237.922009 -125.125871 
L 237.908504 -126.119696 
L 237.898949 -127.113521 
L 237.89366 -128.107345 
L 237.892778 -129.10117 
L 237.896248 -130.094995 
L 237.903816 -131.088819 
L 237.915033 -132.082644 
L 237.929272 -133.076469 
L 237.945747 -134.070293 
L 237.963543 -135.064118 
L 237.981648 -136.057943 
L 237.99899 -137.051767 
L 238.014467 -138.045592 
L 238.026978 -139.039417 
L 238.035452 -140.033241 
L 238.038873 -141.027066 
L 238.036304 -142.02089 
L 238.026902 -143.014715 
L 238.009942 -144.00854 
L 237.984835 -145.002364 
L 237.951144 -145.996189 
L 237.908606 -146.990014 
L 237.857147 -147.983838 
L 237.796899 -148.977663 
L 237.72821 -149.971488 
L 237.651645 -150.965312 
L 237.56799 -151.959137 
L 237.478226 -152.952962 
L 237.383512 -153.946786 
L 237.285141 -154.940611 
L 237.184492 -155.934436 
L 237.082967 -156.92826 
L 236.981927 -157.922085 
L 236.882615 -158.915909 
L 236.786084 -159.909734 
L 236.693127 -160.903559 
L 236.604214 -161.897383 
L 236.519439 -162.891208 
L 236.438486 -163.885033 
L 236.360612 -164.878857 
L 236.284657 -165.872682 
L 236.209073 -166.866507 
L 236.131985 -167.860331 
L 236.051277 -168.854156 
L 235.964709 -169.847981 
L 235.870046 -170.841805 
L 235.765224 -171.83563 
L 235.648511 -172.829455 
L 235.518687 -173.823279 
L 235.375204 -174.817104 
L 235.21834 -175.810928 
L 235.049311 -176.804753 
L 234.87035 -177.798578 
L 234.684721 -178.792402 
L 234.496677 -179.786227 
L 234.311347 -180.780052 
L 234.13455 -181.773876 
L 233.972554 -182.767701 
L 233.831775 -183.761526 
L 233.718446 -184.75535 
L 233.638265 -185.749175 
L 233.596062 -186.743 
L 233.595492 -187.736824 
L 233.638798 -188.730649 
L 233.72664 -189.724474 
L 233.858034 -190.718298 
L 234.030377 -191.712123 
L 234.239582 -192.705948 
L 234.480297 -193.699772 
L 234.746193 -194.693597 
L 235.030312 -195.687421 
L 235.325422 -196.681246 
L 235.624381 -197.675071 
L 235.920462 -198.668895 
L 236.207632 -199.66272 
L 236.480763 -200.656545 
L 236.73577 -201.650369 
L 236.969673 -202.644194 
L 237.180586 -203.638019 
L 237.367649 -204.631843 
L 237.530909 -205.625668 
L 237.671171 -206.619493 
L 237.789831 -207.613317 
L 237.888705 -208.607142 
L 237.969873 -209.600967 
L 238.531377 -209.600967 
L 238.531377 -209.600967 
L 238.612545 -208.607142 
L 238.711419 -207.613317 
L 238.830079 -206.619493 
L 238.970341 -205.625668 
L 239.133601 -204.631843 
L 239.320664 -203.638019 
L 239.531577 -202.644194 
L 239.76548 -201.650369 
L 240.020487 -200.656545 
L 240.293618 -199.66272 
L 240.580788 -198.668895 
L 240.876869 -197.675071 
L 241.175828 -196.681246 
L 241.470938 -195.687421 
L 241.755057 -194.693597 
L 242.020953 -193.699772 
L 242.261668 -192.705948 
L 242.470873 -191.712123 
L 242.643216 -190.718298 
L 242.77461 -189.724474 
L 242.862452 -188.730649 
L 242.905758 -187.736824 
L 242.905188 -186.743 
L 242.862985 -185.749175 
L 242.782804 -184.75535 
L 242.669475 -183.761526 
L 242.528696 -182.767701 
L 242.3667 -181.773876 
L 242.189903 -180.780052 
L 242.004573 -179.786227 
L 241.816529 -178.792402 
L 241.6309 -177.798578 
L 241.451939 -176.804753 
L 241.28291 -175.810928 
L 241.126046 -174.817104 
L 240.982563 -173.823279 
L 240.852739 -172.829455 
L 240.736026 -171.83563 
L 240.631204 -170.841805 
L 240.536541 -169.847981 
L 240.449973 -168.854156 
L 240.369265 -167.860331 
L 240.292177 -166.866507 
L 240.216593 -165.872682 
L 240.140638 -164.878857 
L 240.062764 -163.885033 
L 239.981811 -162.891208 
L 239.897036 -161.897383 
L 239.808123 -160.903559 
L 239.715166 -159.909734 
L 239.618635 -158.915909 
L 239.519323 -157.922085 
L 239.418283 -156.92826 
L 239.316758 -155.934436 
L 239.216109 -154.940611 
L 239.117738 -153.946786 
L 239.023024 -152.952962 
L 238.93326 -151.959137 
L 238.849605 -150.965312 
L 238.77304 -149.971488 
L 238.704351 -148.977663 
L 238.644103 -147.983838 
L 238.592644 -146.990014 
L 238.550106 -145.996189 
L 238.516415 -145.002364 
L 238.491308 -144.00854 
L 238.474348 -143.014715 
L 238.464946 -142.02089 
L 238.462377 -141.027066 
L 238.465798 -140.033241 
L 238.474272 -139.039417 
L 238.486783 -138.045592 
L 238.50226 -137.051767 
L 238.519602 -136.057943 
L 238.537707 -135.064118 
L 238.555503 -134.070293 
L 238.571978 -133.076469 
L 238.586217 -132.082644 
L 238.597434 -131.088819 
L 238.605002 -130.094995 
L 238.608472 -129.10117 
L 238.60759 -128.107345 
L 238.602301 -127.113521 
L 238.592746 -126.119696 
L 238.579241 -125.125871 
L 238.562254 -124.132047 
L 238.542371 -123.138222 
L 238.520262 -122.144398 
L 238.496633 -121.150573 
L 238.472194 -120.156748 
L 238.447619 -119.162924 
L 238.42352 -118.169099 
L 238.400419 -117.175274 
L 238.378735 -116.18145 
L 238.358782 -115.187625 
L 238.340762 -114.1938 
L 238.324778 -113.199976 
L 238.310844 -112.206151 
L 238.2989 -111.212326 
z
" id="m778e3f66f6" style="stroke:#3d3d3d;stroke-width:1.5;"/>
    </defs>
    <g clip-path="url(#p19e57aea72)">
     <use style="fill:#d1d197;stroke:#3d3d3d;stroke-width:1.5;" x="0" xlink:href="#m778e3f66f6" y="368.607178"/>
    </g>
   </g>
   <g id="PolyCollection_6">
    <defs>
     <path d="M 278.323733 -144.75733 
L 277.537517 -144.75733 
L 277.469128 -145.41278 
L 277.392287 -146.068231 
L 277.306641 -146.723682 
L 277.211958 -147.379132 
L 277.108152 -148.034583 
L 276.995308 -148.690033 
L 276.873699 -149.345484 
L 276.74381 -150.000934 
L 276.606343 -150.656385 
L 276.462233 -151.311835 
L 276.312639 -151.967286 
L 276.158943 -152.622736 
L 276.002733 -153.278187 
L 275.845775 -153.933638 
L 275.689986 -154.589088 
L 275.537394 -155.244539 
L 275.390087 -155.899989 
L 275.250169 -156.55544 
L 275.1197 -157.21089 
L 275.000643 -157.866341 
L 274.894805 -158.521791 
L 274.803786 -159.177242 
L 274.728933 -159.832692 
L 274.671293 -160.488143 
L 274.631582 -161.143593 
L 274.610161 -161.799044 
L 274.607024 -162.454495 
L 274.621791 -163.109945 
L 274.653722 -163.765396 
L 274.701729 -164.420846 
L 274.76441 -165.076297 
L 274.840081 -165.731747 
L 274.926822 -166.387198 
L 275.022519 -167.042648 
L 275.124918 -167.698099 
L 275.231677 -168.353549 
L 275.34041 -169.009 
L 275.448742 -169.664451 
L 275.554348 -170.319901 
L 275.654996 -170.975352 
L 275.748581 -171.630802 
L 275.833157 -172.286253 
L 275.906961 -172.941703 
L 275.968433 -173.597154 
L 276.016235 -174.252604 
L 276.049261 -174.908055 
L 276.066655 -175.563505 
L 276.067812 -176.218956 
L 276.052392 -176.874407 
L 276.020325 -177.529857 
L 275.971813 -178.185308 
L 275.907341 -178.840758 
L 275.827674 -179.496209 
L 275.73386 -180.151659 
L 275.627226 -180.80711 
L 275.509371 -181.46256 
L 275.382153 -182.118011 
L 275.247669 -182.773461 
L 275.108233 -183.428912 
L 274.966337 -184.084363 
L 274.824616 -184.739813 
L 274.685796 -185.395264 
L 274.552643 -186.050714 
L 274.427901 -186.706165 
L 274.314233 -187.361615 
L 274.214151 -188.017066 
L 274.12996 -188.672516 
L 274.06369 -189.327967 
L 274.017047 -189.983417 
L 273.991362 -190.638868 
L 273.987557 -191.294318 
L 274.006119 -191.949769 
L 274.047086 -192.60522 
L 274.11005 -193.26067 
L 274.194171 -193.916121 
L 274.298206 -194.571571 
L 274.420545 -195.227022 
L 274.559267 -195.882472 
L 274.712195 -196.537923 
L 274.876961 -197.193373 
L 275.051071 -197.848824 
L 275.231981 -198.504274 
L 275.417152 -199.159725 
L 275.604124 -199.815176 
L 275.790563 -200.470626 
L 275.974315 -201.126077 
L 276.153442 -201.781527 
L 276.32625 -202.436978 
L 276.491314 -203.092428 
L 276.64748 -203.747879 
L 276.793874 -204.403329 
L 276.929884 -205.05878 
L 277.055153 -205.71423 
L 277.169554 -206.369681 
L 277.273166 -207.025132 
L 277.366246 -207.680582 
L 277.449197 -208.336033 
L 277.522542 -208.991483 
L 277.586892 -209.646934 
L 278.274358 -209.646934 
L 278.274358 -209.646934 
L 278.338708 -208.991483 
L 278.412053 -208.336033 
L 278.495004 -207.680582 
L 278.588084 -207.025132 
L 278.691696 -206.369681 
L 278.806097 -205.71423 
L 278.931366 -205.05878 
L 279.067376 -204.403329 
L 279.21377 -203.747879 
L 279.369936 -203.092428 
L 279.535 -202.436978 
L 279.707808 -201.781527 
L 279.886935 -201.126077 
L 280.070687 -200.470626 
L 280.257126 -199.815176 
L 280.444098 -199.159725 
L 280.629269 -198.504274 
L 280.810179 -197.848824 
L 280.984289 -197.193373 
L 281.149055 -196.537923 
L 281.301983 -195.882472 
L 281.440705 -195.227022 
L 281.563044 -194.571571 
L 281.667079 -193.916121 
L 281.7512 -193.26067 
L 281.814164 -192.60522 
L 281.855131 -191.949769 
L 281.873693 -191.294318 
L 281.869888 -190.638868 
L 281.844203 -189.983417 
L 281.79756 -189.327967 
L 281.73129 -188.672516 
L 281.647099 -188.017066 
L 281.547017 -187.361615 
L 281.433349 -186.706165 
L 281.308607 -186.050714 
L 281.175454 -185.395264 
L 281.036634 -184.739813 
L 280.894913 -184.084363 
L 280.753017 -183.428912 
L 280.613581 -182.773461 
L 280.479097 -182.118011 
L 280.351879 -181.46256 
L 280.234024 -180.80711 
L 280.12739 -180.151659 
L 280.033576 -179.496209 
L 279.953909 -178.840758 
L 279.889437 -178.185308 
L 279.840925 -177.529857 
L 279.808858 -176.874407 
L 279.793438 -176.218956 
L 279.794595 -175.563505 
L 279.811989 -174.908055 
L 279.845015 -174.252604 
L 279.892817 -173.597154 
L 279.954289 -172.941703 
L 280.028093 -172.286253 
L 280.112669 -171.630802 
L 280.206254 -170.975352 
L 280.306902 -170.319901 
L 280.412508 -169.664451 
L 280.52084 -169.009 
L 280.629573 -168.353549 
L 280.736332 -167.698099 
L 280.838731 -167.042648 
L 280.934428 -166.387198 
L 281.021169 -165.731747 
L 281.09684 -165.076297 
L 281.159521 -164.420846 
L 281.207528 -163.765396 
L 281.239459 -163.109945 
L 281.254226 -162.454495 
L 281.251089 -161.799044 
L 281.229668 -161.143593 
L 281.189957 -160.488143 
L 281.132317 -159.832692 
L 281.057464 -159.177242 
L 280.966445 -158.521791 
L 280.860607 -157.866341 
L 280.74155 -157.21089 
L 280.611081 -156.55544 
L 280.471163 -155.899989 
L 280.323856 -155.244539 
L 280.171264 -154.589088 
L 280.015475 -153.933638 
L 279.858517 -153.278187 
L 279.702307 -152.622736 
L 279.548611 -151.967286 
L 279.399017 -151.311835 
L 279.254907 -150.656385 
L 279.11744 -150.000934 
L 278.987551 -149.345484 
L 278.865942 -148.690033 
L 278.753098 -148.034583 
L 278.649292 -147.379132 
L 278.554609 -146.723682 
L 278.468963 -146.068231 
L 278.392122 -145.41278 
L 278.323733 -144.75733 
z
" id="m7f8b8839e2" style="stroke:#3d3d3d;stroke-width:1.5;"/>
    </defs>
    <g clip-path="url(#p19e57aea72)">
     <use style="fill:#3274a1;stroke:#3d3d3d;stroke-width:1.5;" x="0" xlink:href="#m7f8b8839e2" y="368.607178"/>
    </g>
   </g>
   <g id="PolyCollection_7">
    <defs>
     <path d="M 317.843592 -145.80146 
L 317.377658 -145.80146 
L 317.322861 -146.372983 
L 317.258439 -146.944507 
L 317.183533 -147.51603 
L 317.097402 -148.087553 
L 316.999472 -148.659076 
L 316.889384 -149.230599 
L 316.767036 -149.802122 
L 316.632629 -150.373645 
L 316.486689 -150.945169 
L 316.330085 -151.516692 
L 316.164028 -152.088215 
L 315.990053 -152.659738 
L 315.80998 -153.231261 
L 315.625854 -153.802784 
L 315.439879 -154.374308 
L 315.254329 -154.945831 
L 315.071451 -155.517354 
L 314.893376 -156.088877 
L 314.722024 -156.6604 
L 314.559024 -157.231923 
L 314.405654 -157.803447 
L 314.262799 -158.37497 
L 314.130936 -158.946493 
L 314.010147 -159.518016 
L 313.900154 -160.089539 
L 313.80038 -160.661062 
L 313.710025 -161.232586 
L 313.628153 -161.804109 
L 313.55378 -162.375632 
L 313.485956 -162.947155 
L 313.42384 -163.518678 
L 313.366749 -164.090201 
L 313.314188 -164.661725 
L 313.26586 -165.233248 
L 313.221645 -165.804771 
L 313.181571 -166.376294 
L 313.145762 -166.947817 
L 313.114382 -167.51934 
L 313.087585 -168.090864 
L 313.065464 -168.662387 
L 313.048016 -169.23391 
L 313.035131 -169.805433 
L 313.026589 -170.376956 
L 313.022082 -170.948479 
L 313.021253 -171.520003 
L 313.023742 -172.091526 
L 313.02924 -172.663049 
L 313.037538 -173.234572 
L 313.04857 -173.806095 
L 313.062443 -174.377618 
L 313.079448 -174.949141 
L 313.100053 -175.520665 
L 313.124873 -176.092188 
L 313.15463 -176.663711 
L 313.190098 -177.235234 
L 313.232037 -177.806757 
L 313.281134 -178.37828 
L 313.337948 -178.949804 
L 313.40286 -179.521327 
L 313.476044 -180.09285 
L 313.557458 -180.664373 
L 313.646844 -181.235896 
L 313.743751 -181.807419 
L 313.847571 -182.378943 
L 313.957583 -182.950466 
L 314.073 -183.521989 
L 314.193023 -184.093512 
L 314.316878 -184.665035 
L 314.443852 -185.236558 
L 314.57332 -185.808082 
L 314.704752 -186.379605 
L 314.837707 -186.951128 
L 314.971828 -187.522651 
L 315.106812 -188.094174 
L 315.242386 -188.665697 
L 315.378276 -189.237221 
L 315.514179 -189.808744 
L 315.649738 -190.380267 
L 315.784527 -190.95179 
L 315.918044 -191.523313 
L 316.049709 -192.094836 
L 316.178875 -192.66636 
L 316.304848 -193.237883 
L 316.426909 -193.809406 
L 316.544342 -194.380929 
L 316.656465 -194.952452 
L 316.762657 -195.523975 
L 316.862383 -196.095498 
L 316.955218 -196.667022 
L 317.040856 -197.238545 
L 317.119125 -197.810068 
L 317.189984 -198.381591 
L 317.25352 -198.953114 
L 317.309937 -199.524637 
L 317.359541 -200.096161 
L 317.402726 -200.667684 
L 317.439949 -201.239207 
L 317.471713 -201.81073 
L 317.498548 -202.382253 
L 317.722702 -202.382253 
L 317.722702 -202.382253 
L 317.749537 -201.81073 
L 317.781301 -201.239207 
L 317.818524 -200.667684 
L 317.861709 -200.096161 
L 317.911313 -199.524637 
L 317.96773 -198.953114 
L 318.031266 -198.381591 
L 318.102125 -197.810068 
L 318.180394 -197.238545 
L 318.266032 -196.667022 
L 318.358867 -196.095498 
L 318.458593 -195.523975 
L 318.564785 -194.952452 
L 318.676908 -194.380929 
L 318.794341 -193.809406 
L 318.916402 -193.237883 
L 319.042375 -192.66636 
L 319.171541 -192.094836 
L 319.303206 -191.523313 
L 319.436723 -190.95179 
L 319.571512 -190.380267 
L 319.707071 -189.808744 
L 319.842974 -189.237221 
L 319.978864 -188.665697 
L 320.114438 -188.094174 
L 320.249422 -187.522651 
L 320.383543 -186.951128 
L 320.516498 -186.379605 
L 320.64793 -185.808082 
L 320.777398 -185.236558 
L 320.904372 -184.665035 
L 321.028227 -184.093512 
L 321.14825 -183.521989 
L 321.263667 -182.950466 
L 321.373679 -182.378943 
L 321.477499 -181.807419 
L 321.574406 -181.235896 
L 321.663792 -180.664373 
L 321.745206 -180.09285 
L 321.81839 -179.521327 
L 321.883302 -178.949804 
L 321.940116 -178.37828 
L 321.989213 -177.806757 
L 322.031152 -177.235234 
L 322.06662 -176.663711 
L 322.096377 -176.092188 
L 322.121197 -175.520665 
L 322.141802 -174.949141 
L 322.158807 -174.377618 
L 322.17268 -173.806095 
L 322.183712 -173.234572 
L 322.19201 -172.663049 
L 322.197508 -172.091526 
L 322.199997 -171.520003 
L 322.199168 -170.948479 
L 322.194661 -170.376956 
L 322.186119 -169.805433 
L 322.173234 -169.23391 
L 322.155786 -168.662387 
L 322.133665 -168.090864 
L 322.106868 -167.51934 
L 322.075488 -166.947817 
L 322.039679 -166.376294 
L 321.999605 -165.804771 
L 321.95539 -165.233248 
L 321.907062 -164.661725 
L 321.854501 -164.090201 
L 321.79741 -163.518678 
L 321.735294 -162.947155 
L 321.66747 -162.375632 
L 321.593097 -161.804109 
L 321.511225 -161.232586 
L 321.42087 -160.661062 
L 321.321096 -160.089539 
L 321.211103 -159.518016 
L 321.090314 -158.946493 
L 320.958451 -158.37497 
L 320.815596 -157.803447 
L 320.662226 -157.231923 
L 320.499226 -156.6604 
L 320.327874 -156.088877 
L 320.149799 -155.517354 
L 319.966921 -154.945831 
L 319.781371 -154.374308 
L 319.595396 -153.802784 
L 319.41127 -153.231261 
L 319.231197 -152.659738 
L 319.057222 -152.088215 
L 318.891165 -151.516692 
L 318.734561 -150.945169 
L 318.588621 -150.373645 
L 318.454214 -149.802122 
L 318.331866 -149.230599 
L 318.221778 -148.659076 
L 318.123848 -148.087553 
L 318.037717 -147.51603 
L 317.962811 -146.944507 
L 317.898389 -146.372983 
L 317.843592 -145.80146 
z
" id="ma86eb44f93" style="stroke:#3d3d3d;stroke-width:1.5;"/>
    </defs>
    <g clip-path="url(#p19e57aea72)">
     <use style="fill:#f2a5a3;stroke:#3d3d3d;stroke-width:1.5;" x="0" xlink:href="#ma86eb44f93" y="368.607178"/>
    </g>
   </g>
   <g id="PolyCollection_8">
    <defs>
     <path d="M 357.332993 -92.273053 
L 357.248257 -92.273053 
L 357.238479 -93.33532 
L 357.227107 -94.397587 
L 357.214047 -95.459854 
L 357.199233 -96.522121 
L 357.182633 -97.584388 
L 357.164256 -98.646655 
L 357.144152 -99.708922 
L 357.122409 -100.771189 
L 357.099147 -101.833456 
L 357.074512 -102.895723 
L 357.048661 -103.95799 
L 357.021748 -105.020257 
L 356.993904 -106.082524 
L 356.965222 -107.144791 
L 356.935735 -108.207058 
L 356.905405 -109.269325 
L 356.874111 -110.331593 
L 356.84164 -111.39386 
L 356.807691 -112.456127 
L 356.77188 -113.518394 
L 356.733759 -114.580661 
L 356.692834 -115.642928 
L 356.648596 -116.705195 
L 356.600548 -117.767462 
L 356.548243 -118.829729 
L 356.491314 -119.891996 
L 356.429502 -120.954263 
L 356.362686 -122.01653 
L 356.290898 -123.078797 
L 356.214334 -124.141064 
L 356.133356 -125.203331 
L 356.048486 -126.265598 
L 355.960392 -127.327865 
L 355.869867 -128.390132 
L 355.777798 -129.452399 
L 355.685138 -130.514666 
L 355.592872 -131.576933 
L 355.501982 -132.6392 
L 355.413416 -133.701467 
L 355.328052 -134.763734 
L 355.246676 -135.826001 
L 355.169961 -136.888268 
L 355.098444 -137.950535 
L 355.032522 -139.012802 
L 354.972441 -140.075069 
L 354.918305 -141.137337 
L 354.870076 -142.199604 
L 354.82759 -143.261871 
L 354.790574 -144.324138 
L 354.758664 -145.386405 
L 354.731427 -146.448672 
L 354.708383 -147.510939 
L 354.689028 -148.573206 
L 354.672853 -149.635473 
L 354.659363 -150.69774 
L 354.648093 -151.760007 
L 354.638624 -152.822274 
L 354.630589 -153.884541 
L 354.623691 -154.946808 
L 354.61771 -156.009075 
L 354.612509 -157.071342 
L 354.608052 -158.133609 
L 354.604411 -159.195876 
L 354.601775 -160.258143 
L 354.600466 -161.32041 
L 354.600935 -162.382677 
L 354.603772 -163.444944 
L 354.609699 -164.507211 
L 354.619552 -165.569478 
L 354.634264 -166.631745 
L 354.654823 -167.694012 
L 354.682239 -168.756279 
L 354.717485 -169.818546 
L 354.761446 -170.880813 
L 354.814857 -171.94308 
L 354.878251 -173.005348 
L 354.951909 -174.067615 
L 355.035819 -175.129882 
L 355.129656 -176.192149 
L 355.232769 -177.254416 
L 355.344196 -178.316683 
L 355.462686 -179.37895 
L 355.586748 -180.441217 
L 355.714707 -181.503484 
L 355.84477 -182.565751 
L 355.975098 -183.628018 
L 356.103883 -184.690285 
L 356.229414 -185.752552 
L 356.35014 -186.814819 
L 356.464718 -187.877086 
L 356.572053 -188.939353 
L 356.671317 -190.00162 
L 356.761955 -191.063887 
L 356.843682 -192.126154 
L 356.91646 -193.188421 
L 356.980472 -194.250688 
L 357.036088 -195.312955 
L 357.083823 -196.375222 
L 357.124302 -197.437489 
L 357.456948 -197.437489 
L 357.456948 -197.437489 
L 357.497427 -196.375222 
L 357.545162 -195.312955 
L 357.600778 -194.250688 
L 357.66479 -193.188421 
L 357.737568 -192.126154 
L 357.819295 -191.063887 
L 357.909933 -190.00162 
L 358.009197 -188.939353 
L 358.116532 -187.877086 
L 358.23111 -186.814819 
L 358.351836 -185.752552 
L 358.477367 -184.690285 
L 358.606152 -183.628018 
L 358.73648 -182.565751 
L 358.866543 -181.503484 
L 358.994502 -180.441217 
L 359.118564 -179.37895 
L 359.237054 -178.316683 
L 359.348481 -177.254416 
L 359.451594 -176.192149 
L 359.545431 -175.129882 
L 359.629341 -174.067615 
L 359.702999 -173.005348 
L 359.766393 -171.94308 
L 359.819804 -170.880813 
L 359.863765 -169.818546 
L 359.899011 -168.756279 
L 359.926427 -167.694012 
L 359.946986 -166.631745 
L 359.961698 -165.569478 
L 359.971551 -164.507211 
L 359.977478 -163.444944 
L 359.980315 -162.382677 
L 359.980784 -161.32041 
L 359.979475 -160.258143 
L 359.976839 -159.195876 
L 359.973198 -158.133609 
L 359.968741 -157.071342 
L 359.96354 -156.009075 
L 359.957559 -154.946808 
L 359.950661 -153.884541 
L 359.942626 -152.822274 
L 359.933157 -151.760007 
L 359.921887 -150.69774 
L 359.908397 -149.635473 
L 359.892222 -148.573206 
L 359.872867 -147.510939 
L 359.849823 -146.448672 
L 359.822586 -145.386405 
L 359.790676 -144.324138 
L 359.75366 -143.261871 
L 359.711174 -142.199604 
L 359.662945 -141.137337 
L 359.608809 -140.075069 
L 359.548728 -139.012802 
L 359.482806 -137.950535 
L 359.411289 -136.888268 
L 359.334574 -135.826001 
L 359.253198 -134.763734 
L 359.167834 -133.701467 
L 359.079268 -132.6392 
L 358.988378 -131.576933 
L 358.896112 -130.514666 
L 358.803452 -129.452399 
L 358.711383 -128.390132 
L 358.620858 -127.327865 
L 358.532764 -126.265598 
L 358.447894 -125.203331 
L 358.366916 -124.141064 
L 358.290352 -123.078797 
L 358.218564 -122.01653 
L 358.151748 -120.954263 
L 358.089936 -119.891996 
L 358.033007 -118.829729 
L 357.980702 -117.767462 
L 357.932654 -116.705195 
L 357.888416 -115.642928 
L 357.847491 -114.580661 
L 357.80937 -113.518394 
L 357.773559 -112.456127 
L 357.73961 -111.39386 
L 357.707139 -110.331593 
L 357.675845 -109.269325 
L 357.645515 -108.207058 
L 357.616028 -107.144791 
L 357.587346 -106.082524 
L 357.559502 -105.020257 
L 357.532589 -103.95799 
L 357.506738 -102.895723 
L 357.482103 -101.833456 
L 357.458841 -100.771189 
L 357.437098 -99.708922 
L 357.416994 -98.646655 
L 357.398617 -97.584388 
L 357.382017 -96.522121 
L 357.367203 -95.459854 
L 357.354143 -94.397587 
L 357.342771 -93.33532 
L 357.332993 -92.273053 
z
" id="mf6265a56f9" style="stroke:#3d3d3d;stroke-width:1.5;"/>
    </defs>
    <g clip-path="url(#p19e57aea72)">
     <use style="fill:#9fd495;stroke:#3d3d3d;stroke-width:1.5;" x="0" xlink:href="#mf6265a56f9" y="368.607178"/>
    </g>
   </g>
   <g id="PolyCollection_9">
    <defs>
     <path d="M 397.482921 -117.064423 
L 396.458329 -117.064423 
L 396.314536 -117.713821 
L 396.140208 -118.36322 
L 395.931822 -119.012619 
L 395.686267 -119.662017 
L 395.401095 -120.311416 
L 395.074794 -120.960815 
L 394.707057 -121.610213 
L 394.299028 -122.259612 
L 393.853506 -122.909011 
L 393.375079 -123.558409 
L 392.870173 -124.207808 
L 392.346987 -124.857207 
L 391.815327 -125.506605 
L 391.28631 -126.156004 
L 390.771974 -126.805403 
L 390.28479 -127.454801 
L 389.837124 -128.1042 
L 389.440669 -128.753598 
L 389.105891 -129.402997 
L 388.841533 -130.052396 
L 388.654206 -130.701794 
L 388.548099 -131.351193 
L 388.524829 -132.000592 
L 388.583437 -132.64999 
L 388.720522 -133.299389 
L 388.9305 -133.948788 
L 389.205968 -134.598186 
L 389.538134 -135.247585 
L 389.917276 -135.896984 
L 390.333205 -136.546382 
L 390.775702 -137.195781 
L 391.23489 -137.84518 
L 391.701546 -138.494578 
L 392.167326 -139.143977 
L 392.62492 -139.793376 
L 393.068122 -140.442774 
L 393.491847 -141.092173 
L 393.892093 -141.741572 
L 394.265869 -142.39097 
L 394.611097 -143.040369 
L 394.926504 -143.689768 
L 395.211513 -144.339166 
L 395.466135 -144.988565 
L 395.690865 -145.637964 
L 395.886598 -146.287362 
L 396.054543 -146.936761 
L 396.196157 -147.58616 
L 396.313082 -148.235558 
L 396.407097 -148.884957 
L 396.480077 -149.534356 
L 396.533953 -150.183754 
L 396.570695 -150.833153 
L 396.592278 -151.482552 
L 396.600674 -152.13195 
L 396.597831 -152.781349 
L 396.585657 -153.430747 
L 396.566008 -154.080146 
L 396.540662 -154.729545 
L 396.511301 -155.378943 
L 396.479488 -156.028342 
L 396.446634 -156.677741 
L 396.413982 -157.327139 
L 396.382578 -157.976538 
L 396.353257 -158.625937 
L 396.32664 -159.275335 
L 396.303135 -159.924734 
L 396.282953 -160.574133 
L 396.266138 -161.223531 
L 396.252602 -161.87293 
L 396.242175 -162.522329 
L 396.234645 -163.171727 
L 396.229812 -163.821126 
L 396.227522 -164.470525 
L 396.227695 -165.119923 
L 396.230347 -165.769322 
L 396.235584 -166.418721 
L 396.243592 -167.068119 
L 396.254608 -167.717518 
L 396.268884 -168.366917 
L 396.286648 -169.016315 
L 396.308059 -169.665714 
L 396.333174 -170.315113 
L 396.361917 -170.964511 
L 396.394067 -171.61391 
L 396.429251 -172.263309 
L 396.46696 -172.912707 
L 396.506569 -173.562106 
L 396.54737 -174.211505 
L 396.588612 -174.860903 
L 396.629541 -175.510302 
L 396.66944 -176.159701 
L 396.707662 -176.809099 
L 396.743659 -177.458498 
L 396.777001 -178.107896 
L 396.807385 -178.757295 
L 396.834631 -179.406694 
L 396.858684 -180.056092 
L 396.879592 -180.705491 
L 396.897489 -181.35489 
L 397.043761 -181.35489 
L 397.043761 -181.35489 
L 397.061658 -180.705491 
L 397.082566 -180.056092 
L 397.106619 -179.406694 
L 397.133865 -178.757295 
L 397.164249 -178.107896 
L 397.197591 -177.458498 
L 397.233588 -176.809099 
L 397.27181 -176.159701 
L 397.311709 -175.510302 
L 397.352638 -174.860903 
L 397.39388 -174.211505 
L 397.434681 -173.562106 
L 397.47429 -172.912707 
L 397.511999 -172.263309 
L 397.547183 -171.61391 
L 397.579333 -170.964511 
L 397.608076 -170.315113 
L 397.633191 -169.665714 
L 397.654602 -169.016315 
L 397.672366 -168.366917 
L 397.686642 -167.717518 
L 397.697658 -167.068119 
L 397.705666 -166.418721 
L 397.710903 -165.769322 
L 397.713555 -165.119923 
L 397.713728 -164.470525 
L 397.711438 -163.821126 
L 397.706605 -163.171727 
L 397.699075 -162.522329 
L 397.688648 -161.87293 
L 397.675112 -161.223531 
L 397.658297 -160.574133 
L 397.638115 -159.924734 
L 397.61461 -159.275335 
L 397.587993 -158.625937 
L 397.558672 -157.976538 
L 397.527268 -157.327139 
L 397.494616 -156.677741 
L 397.461762 -156.028342 
L 397.429949 -155.378943 
L 397.400588 -154.729545 
L 397.375242 -154.080146 
L 397.355593 -153.430747 
L 397.343419 -152.781349 
L 397.340576 -152.13195 
L 397.348972 -151.482552 
L 397.370555 -150.833153 
L 397.407297 -150.183754 
L 397.461173 -149.534356 
L 397.534153 -148.884957 
L 397.628168 -148.235558 
L 397.745093 -147.58616 
L 397.886707 -146.936761 
L 398.054652 -146.287362 
L 398.250385 -145.637964 
L 398.475115 -144.988565 
L 398.729737 -144.339166 
L 399.014746 -143.689768 
L 399.330153 -143.040369 
L 399.675381 -142.39097 
L 400.049157 -141.741572 
L 400.449403 -141.092173 
L 400.873128 -140.442774 
L 401.31633 -139.793376 
L 401.773924 -139.143977 
L 402.239704 -138.494578 
L 402.70636 -137.84518 
L 403.165548 -137.195781 
L 403.608045 -136.546382 
L 404.023974 -135.896984 
L 404.403116 -135.247585 
L 404.735282 -134.598186 
L 405.01075 -133.948788 
L 405.220728 -133.299389 
L 405.357813 -132.64999 
L 405.416421 -132.000592 
L 405.393151 -131.351193 
L 405.287044 -130.701794 
L 405.099717 -130.052396 
L 404.835359 -129.402997 
L 404.500581 -128.753598 
L 404.104126 -128.1042 
L 403.65646 -127.454801 
L 403.169276 -126.805403 
L 402.65494 -126.156004 
L 402.125923 -125.506605 
L 401.594263 -124.857207 
L 401.071077 -124.207808 
L 400.566171 -123.558409 
L 400.087744 -122.909011 
L 399.642222 -122.259612 
L 399.234193 -121.610213 
L 398.866456 -120.960815 
L 398.540155 -120.311416 
L 398.254983 -119.662017 
L 398.009428 -119.012619 
L 397.801042 -118.36322 
L 397.626714 -117.713821 
L 397.482921 -117.064423 
z
" id="m21f7f26f03" style="stroke:#3d3d3d;stroke-width:1.5;"/>
    </defs>
    <g clip-path="url(#p19e57aea72)">
     <use style="fill:#d684bd;stroke:#3d3d3d;stroke-width:1.5;" x="0" xlink:href="#m21f7f26f03" y="368.607178"/>
    </g>
   </g>
   <g id="matplotlib.axis_1">
    <g id="xtick_1">
     <g id="line2d_1">
      <defs>
       <path d="M 0 0 
L 0 3.5 
" id="m74b13adad4" style="stroke:#000000;stroke-width:0.8;"/>
      </defs>
      <g>
       <use style="stroke:#000000;stroke-width:0.8;" x="79.530625" xlink:href="#m74b13adad4" y="288.430125"/>
      </g>
     </g>
     <g id="text_1">
      <!-- libfuzzer -->
      <g transform="translate(41.664404 323.272284)rotate(-30)scale(0.1 -0.1)">
       <defs>
        <path d="M 9.421875 75.984375 
L 18.40625 75.984375 
L 18.40625 0 
L 9.421875 0 
z
" id="DejaVuSans-108"/>
        <path d="M 9.421875 54.6875 
L 18.40625 54.6875 
L 18.40625 0 
L 9.421875 0 
z
M 9.421875 75.984375 
L 18.40625 75.984375 
L 18.40625 64.59375 
L 9.421875 64.59375 
z
" id="DejaVuSans-105"/>
        <path d="M 48.6875 27.296875 
Q 48.6875 37.203125 44.609375 42.84375 
Q 40.53125 48.484375 33.40625 48.484375 
Q 26.265625 48.484375 22.1875 42.84375 
Q 18.109375 37.203125 18.109375 27.296875 
Q 18.109375 17.390625 22.1875 11.75 
Q 26.265625 6.109375 33.40625 6.109375 
Q 40.53125 6.109375 44.609375 11.75 
Q 48.6875 17.390625 48.6875 27.296875 
z
M 18.109375 46.390625 
Q 20.953125 51.265625 25.265625 53.625 
Q 29.59375 56 35.59375 56 
Q 45.5625 56 51.78125 48.09375 
Q 58.015625 40.1875 58.015625 27.296875 
Q 58.015625 14.40625 51.78125 6.484375 
Q 45.5625 -1.421875 35.59375 -1.421875 
Q 29.59375 -1.421875 25.265625 0.953125 
Q 20.953125 3.328125 18.109375 8.203125 
L 18.109375 0 
L 9.078125 0 
L 9.078125 75.984375 
L 18.109375 75.984375 
z
" id="DejaVuSans-98"/>
        <path d="M 37.109375 75.984375 
L 37.109375 68.5 
L 28.515625 68.5 
Q 23.6875 68.5 21.796875 66.546875 
Q 19.921875 64.59375 19.921875 59.515625 
L 19.921875 54.6875 
L 34.71875 54.6875 
L 34.71875 47.703125 
L 19.921875 47.703125 
L 19.921875 0 
L 10.890625 0 
L 10.890625 47.703125 
L 2.296875 47.703125 
L 2.296875 54.6875 
L 10.890625 54.6875 
L 10.890625 58.5 
Q 10.890625 67.625 15.140625 71.796875 
Q 19.390625 75.984375 28.609375 75.984375 
z
" id="DejaVuSans-102"/>
        <path d="M 8.5 21.578125 
L 8.5 54.6875 
L 17.484375 54.6875 
L 17.484375 21.921875 
Q 17.484375 14.15625 20.5 10.265625 
Q 23.53125 6.390625 29.59375 6.390625 
Q 36.859375 6.390625 41.078125 11.03125 
Q 45.3125 15.671875 45.3125 23.6875 
L 45.3125 54.6875 
L 54.296875 54.6875 
L 54.296875 0 
L 45.3125 0 
L 45.3125 8.40625 
Q 42.046875 3.421875 37.71875 1 
Q 33.40625 -1.421875 27.6875 -1.421875 
Q 18.265625 -1.421875 13.375 4.4375 
Q 8.5 10.296875 8.5 21.578125 
z
M 31.109375 56 
z
" id="DejaVuSans-117"/>
        <path d="M 5.515625 54.6875 
L 48.1875 54.6875 
L 48.1875 46.484375 
L 14.40625 7.171875 
L 48.1875 7.171875 
L 48.1875 0 
L 4.296875 0 
L 4.296875 8.203125 
L 38.09375 47.515625 
L 5.515625 47.515625 
z
" id="DejaVuSans-122"/>
        <path d="M 56.203125 29.59375 
L 56.203125 25.203125 
L 14.890625 25.203125 
Q 15.484375 15.921875 20.484375 11.0625 
Q 25.484375 6.203125 34.421875 6.203125 
Q 39.59375 6.203125 44.453125 7.46875 
Q 49.3125 8.734375 54.109375 11.28125 
L 54.109375 2.78125 
Q 49.265625 0.734375 44.1875 -0.34375 
Q 39.109375 -1.421875 33.890625 -1.421875 
Q 20.796875 -1.421875 13.15625 6.1875 
Q 5.515625 13.8125 5.515625 26.8125 
Q 5.515625 40.234375 12.765625 48.109375 
Q 20.015625 56 32.328125 56 
Q 43.359375 56 49.78125 48.890625 
Q 56.203125 41.796875 56.203125 29.59375 
z
M 47.21875 32.234375 
Q 47.125 39.59375 43.09375 43.984375 
Q 39.0625 48.390625 32.421875 48.390625 
Q 24.90625 48.390625 20.390625 44.140625 
Q 15.875 39.890625 15.1875 32.171875 
z
" id="DejaVuSans-101"/>
        <path d="M 41.109375 46.296875 
Q 39.59375 47.171875 37.8125 47.578125 
Q 36.03125 48 33.890625 48 
Q 26.265625 48 22.1875 43.046875 
Q 18.109375 38.09375 18.109375 28.8125 
L 18.109375 0 
L 9.078125 0 
L 9.078125 54.6875 
L 18.109375 54.6875 
L 18.109375 46.1875 
Q 20.953125 51.171875 25.484375 53.578125 
Q 30.03125 56 36.53125 56 
Q 37.453125 56 38.578125 55.875 
Q 39.703125 55.765625 41.0625 55.515625 
z
" id="DejaVuSans-114"/>
       </defs>
       <use xlink:href="#DejaVuSans-108"/>
       <use x="27.783203" xlink:href="#DejaVuSans-105"/>
       <use x="55.566406" xlink:href="#DejaVuSans-98"/>
       <use x="119.042969" xlink:href="#DejaVuSans-102"/>
       <use x="154.248047" xlink:href="#DejaVuSans-117"/>
       <use x="217.626953" xlink:href="#DejaVuSans-122"/>
       <use x="270.117188" xlink:href="#DejaVuSans-122"/>
       <use x="322.607422" xlink:href="#DejaVuSans-101"/>
       <use x="384.130859" xlink:href="#DejaVuSans-114"/>
      </g>
     </g>
    </g>
    <g id="xtick_2">
     <g id="line2d_2">
      <g>
       <use style="stroke:#000000;stroke-width:0.8;" x="119.210625" xlink:href="#m74b13adad4" y="288.430125"/>
      </g>
     </g>
     <g id="text_2">
      <!-- entropic -->
      <g transform="translate(82.628557 322.530877)rotate(-30)scale(0.1 -0.1)">
       <defs>
        <path d="M 54.890625 33.015625 
L 54.890625 0 
L 45.90625 0 
L 45.90625 32.71875 
Q 45.90625 40.484375 42.875 44.328125 
Q 39.84375 48.1875 33.796875 48.1875 
Q 26.515625 48.1875 22.3125 43.546875 
Q 18.109375 38.921875 18.109375 30.90625 
L 18.109375 0 
L 9.078125 0 
L 9.078125 54.6875 
L 18.109375 54.6875 
L 18.109375 46.1875 
Q 21.34375 51.125 25.703125 53.5625 
Q 30.078125 56 35.796875 56 
Q 45.21875 56 50.046875 50.171875 
Q 54.890625 44.34375 54.890625 33.015625 
z
" id="DejaVuSans-110"/>
        <path d="M 18.3125 70.21875 
L 18.3125 54.6875 
L 36.8125 54.6875 
L 36.8125 47.703125 
L 18.3125 47.703125 
L 18.3125 18.015625 
Q 18.3125 11.328125 20.140625 9.421875 
Q 21.96875 7.515625 27.59375 7.515625 
L 36.8125 7.515625 
L 36.8125 0 
L 27.59375 0 
Q 17.1875 0 13.234375 3.875 
Q 9.28125 7.765625 9.28125 18.015625 
L 9.28125 47.703125 
L 2.6875 47.703125 
L 2.6875 54.6875 
L 9.28125 54.6875 
L 9.28125 70.21875 
z
" id="DejaVuSans-116"/>
        <path d="M 30.609375 48.390625 
Q 23.390625 48.390625 19.1875 42.75 
Q 14.984375 37.109375 14.984375 27.296875 
Q 14.984375 17.484375 19.15625 11.84375 
Q 23.34375 6.203125 30.609375 6.203125 
Q 37.796875 6.203125 41.984375 11.859375 
Q 46.1875 17.53125 46.1875 27.296875 
Q 46.1875 37.015625 41.984375 42.703125 
Q 37.796875 48.390625 30.609375 48.390625 
z
M 30.609375 56 
Q 42.328125 56 49.015625 48.375 
Q 55.71875 40.765625 55.71875 27.296875 
Q 55.71875 13.875 49.015625 6.21875 
Q 42.328125 -1.421875 30.609375 -1.421875 
Q 18.84375 -1.421875 12.171875 6.21875 
Q 5.515625 13.875 5.515625 27.296875 
Q 5.515625 40.765625 12.171875 48.375 
Q 18.84375 56 30.609375 56 
z
" id="DejaVuSans-111"/>
        <path d="M 18.109375 8.203125 
L 18.109375 -20.796875 
L 9.078125 -20.796875 
L 9.078125 54.6875 
L 18.109375 54.6875 
L 18.109375 46.390625 
Q 20.953125 51.265625 25.265625 53.625 
Q 29.59375 56 35.59375 56 
Q 45.5625 56 51.78125 48.09375 
Q 58.015625 40.1875 58.015625 27.296875 
Q 58.015625 14.40625 51.78125 6.484375 
Q 45.5625 -1.421875 35.59375 -1.421875 
Q 29.59375 -1.421875 25.265625 0.953125 
Q 20.953125 3.328125 18.109375 8.203125 
z
M 48.6875 27.296875 
Q 48.6875 37.203125 44.609375 42.84375 
Q 40.53125 48.484375 33.40625 48.484375 
Q 26.265625 48.484375 22.1875 42.84375 
Q 18.109375 37.203125 18.109375 27.296875 
Q 18.109375 17.390625 22.1875 11.75 
Q 26.265625 6.109375 33.40625 6.109375 
Q 40.53125 6.109375 44.609375 11.75 
Q 48.6875 17.390625 48.6875 27.296875 
z
" id="DejaVuSans-112"/>
        <path d="M 48.78125 52.59375 
L 48.78125 44.1875 
Q 44.96875 46.296875 41.140625 47.34375 
Q 37.3125 48.390625 33.40625 48.390625 
Q 24.65625 48.390625 19.8125 42.84375 
Q 14.984375 37.3125 14.984375 27.296875 
Q 14.984375 17.28125 19.8125 11.734375 
Q 24.65625 6.203125 33.40625 6.203125 
Q 37.3125 6.203125 41.140625 7.25 
Q 44.96875 8.296875 48.78125 10.40625 
L 48.78125 2.09375 
Q 45.015625 0.34375 40.984375 -0.53125 
Q 36.96875 -1.421875 32.421875 -1.421875 
Q 20.0625 -1.421875 12.78125 6.34375 
Q 5.515625 14.109375 5.515625 27.296875 
Q 5.515625 40.671875 12.859375 48.328125 
Q 20.21875 56 33.015625 56 
Q 37.15625 56 41.109375 55.140625 
Q 45.0625 54.296875 48.78125 52.59375 
z
" id="DejaVuSans-99"/>
       </defs>
       <use xlink:href="#DejaVuSans-101"/>
       <use x="61.523438" xlink:href="#DejaVuSans-110"/>
       <use x="124.902344" xlink:href="#DejaVuSans-116"/>
       <use x="164.111328" xlink:href="#DejaVuSans-114"/>
       <use x="202.974609" xlink:href="#DejaVuSans-111"/>
       <use x="264.15625" xlink:href="#DejaVuSans-112"/>
       <use x="327.632812" xlink:href="#DejaVuSans-105"/>
       <use x="355.416016" xlink:href="#DejaVuSans-99"/>
      </g>
     </g>
    </g>
    <g id="xtick_3">
     <g id="line2d_3">
      <g>
       <use style="stroke:#000000;stroke-width:0.8;" x="158.890625" xlink:href="#m74b13adad4" y="288.430125"/>
      </g>
     </g>
     <g id="text_3">
      <!-- mopt -->
      <g transform="translate(135.223161 315.074627)rotate(-30)scale(0.1 -0.1)">
       <defs>
        <path d="M 52 44.1875 
Q 55.375 50.25 60.0625 53.125 
Q 64.75 56 71.09375 56 
Q 79.640625 56 84.28125 50.015625 
Q 88.921875 44.046875 88.921875 33.015625 
L 88.921875 0 
L 79.890625 0 
L 79.890625 32.71875 
Q 79.890625 40.578125 77.09375 44.375 
Q 74.3125 48.1875 68.609375 48.1875 
Q 61.625 48.1875 57.5625 43.546875 
Q 53.515625 38.921875 53.515625 30.90625 
L 53.515625 0 
L 44.484375 0 
L 44.484375 32.71875 
Q 44.484375 40.625 41.703125 44.40625 
Q 38.921875 48.1875 33.109375 48.1875 
Q 26.21875 48.1875 22.15625 43.53125 
Q 18.109375 38.875 18.109375 30.90625 
L 18.109375 0 
L 9.078125 0 
L 9.078125 54.6875 
L 18.109375 54.6875 
L 18.109375 46.1875 
Q 21.1875 51.21875 25.484375 53.609375 
Q 29.78125 56 35.6875 56 
Q 41.65625 56 45.828125 52.96875 
Q 50 49.953125 52 44.1875 
z
" id="DejaVuSans-109"/>
       </defs>
       <use xlink:href="#DejaVuSans-109"/>
       <use x="97.412109" xlink:href="#DejaVuSans-111"/>
       <use x="158.59375" xlink:href="#DejaVuSans-112"/>
       <use x="222.070312" xlink:href="#DejaVuSans-116"/>
      </g>
     </g>
    </g>
    <g id="xtick_4">
     <g id="line2d_4">
      <g>
       <use style="stroke:#000000;stroke-width:0.8;" x="198.570625" xlink:href="#m74b13adad4" y="288.430125"/>
      </g>
     </g>
     <g id="text_4">
      <!-- aflplusplus_qemu -->
      <g transform="translate(121.741693 345.687127)rotate(-30)scale(0.1 -0.1)">
       <defs>
        <path d="M 34.28125 27.484375 
Q 23.390625 27.484375 19.1875 25 
Q 14.984375 22.515625 14.984375 16.5 
Q 14.984375 11.71875 18.140625 8.90625 
Q 21.296875 6.109375 26.703125 6.109375 
Q 34.1875 6.109375 38.703125 11.40625 
Q 43.21875 16.703125 43.21875 25.484375 
L 43.21875 27.484375 
z
M 52.203125 31.203125 
L 52.203125 0 
L 43.21875 0 
L 43.21875 8.296875 
Q 40.140625 3.328125 35.546875 0.953125 
Q 30.953125 -1.421875 24.3125 -1.421875 
Q 15.921875 -1.421875 10.953125 3.296875 
Q 6 8.015625 6 15.921875 
Q 6 25.140625 12.171875 29.828125 
Q 18.359375 34.515625 30.609375 34.515625 
L 43.21875 34.515625 
L 43.21875 35.40625 
Q 43.21875 41.609375 39.140625 45 
Q 35.0625 48.390625 27.6875 48.390625 
Q 23 48.390625 18.546875 47.265625 
Q 14.109375 46.140625 10.015625 43.890625 
L 10.015625 52.203125 
Q 14.9375 54.109375 19.578125 55.046875 
Q 24.21875 56 28.609375 56 
Q 40.484375 56 46.34375 49.84375 
Q 52.203125 43.703125 52.203125 31.203125 
z
" id="DejaVuSans-97"/>
        <path d="M 44.28125 53.078125 
L 44.28125 44.578125 
Q 40.484375 46.53125 36.375 47.5 
Q 32.28125 48.484375 27.875 48.484375 
Q 21.1875 48.484375 17.84375 46.4375 
Q 14.5 44.390625 14.5 40.28125 
Q 14.5 37.15625 16.890625 35.375 
Q 19.28125 33.59375 26.515625 31.984375 
L 29.59375 31.296875 
Q 39.15625 29.25 43.1875 25.515625 
Q 47.21875 21.78125 47.21875 15.09375 
Q 47.21875 7.46875 41.1875 3.015625 
Q 35.15625 -1.421875 24.609375 -1.421875 
Q 20.21875 -1.421875 15.453125 -0.5625 
Q 10.6875 0.296875 5.421875 2 
L 5.421875 11.28125 
Q 10.40625 8.6875 15.234375 7.390625 
Q 20.0625 6.109375 24.8125 6.109375 
Q 31.15625 6.109375 34.5625 8.28125 
Q 37.984375 10.453125 37.984375 14.40625 
Q 37.984375 18.0625 35.515625 20.015625 
Q 33.0625 21.96875 24.703125 23.78125 
L 21.578125 24.515625 
Q 13.234375 26.265625 9.515625 29.90625 
Q 5.8125 33.546875 5.8125 39.890625 
Q 5.8125 47.609375 11.28125 51.796875 
Q 16.75 56 26.8125 56 
Q 31.78125 56 36.171875 55.265625 
Q 40.578125 54.546875 44.28125 53.078125 
z
" id="DejaVuSans-115"/>
        <path d="M 50.984375 -16.609375 
L 50.984375 -23.578125 
L -0.984375 -23.578125 
L -0.984375 -16.609375 
z
" id="DejaVuSans-95"/>
        <path d="M 14.796875 27.296875 
Q 14.796875 17.390625 18.875 11.75 
Q 22.953125 6.109375 30.078125 6.109375 
Q 37.203125 6.109375 41.296875 11.75 
Q 45.40625 17.390625 45.40625 27.296875 
Q 45.40625 37.203125 41.296875 42.84375 
Q 37.203125 48.484375 30.078125 48.484375 
Q 22.953125 48.484375 18.875 42.84375 
Q 14.796875 37.203125 14.796875 27.296875 
z
M 45.40625 8.203125 
Q 42.578125 3.328125 38.25 0.953125 
Q 33.9375 -1.421875 27.875 -1.421875 
Q 17.96875 -1.421875 11.734375 6.484375 
Q 5.515625 14.40625 5.515625 27.296875 
Q 5.515625 40.1875 11.734375 48.09375 
Q 17.96875 56 27.875 56 
Q 33.9375 56 38.25 53.625 
Q 42.578125 51.265625 45.40625 46.390625 
L 45.40625 54.6875 
L 54.390625 54.6875 
L 54.390625 -20.796875 
L 45.40625 -20.796875 
z
" id="DejaVuSans-113"/>
       </defs>
       <use xlink:href="#DejaVuSans-97"/>
       <use x="61.279297" xlink:href="#DejaVuSans-102"/>
       <use x="96.484375" xlink:href="#DejaVuSans-108"/>
       <use x="124.267578" xlink:href="#DejaVuSans-112"/>
       <use x="187.744141" xlink:href="#DejaVuSans-108"/>
       <use x="215.527344" xlink:href="#DejaVuSans-117"/>
       <use x="278.90625" xlink:href="#DejaVuSans-115"/>
       <use x="331.005859" xlink:href="#DejaVuSans-112"/>
       <use x="394.482422" xlink:href="#DejaVuSans-108"/>
       <use x="422.265625" xlink:href="#DejaVuSans-117"/>
       <use x="485.644531" xlink:href="#DejaVuSans-115"/>
       <use x="537.744141" xlink:href="#DejaVuSans-95"/>
       <use x="587.744141" xlink:href="#DejaVuSans-113"/>
       <use x="651.220703" xlink:href="#DejaVuSans-101"/>
       <use x="712.744141" xlink:href="#DejaVuSans-109"/>
       <use x="810.15625" xlink:href="#DejaVuSans-117"/>
      </g>
     </g>
    </g>
    <g id="xtick_5">
     <g id="line2d_5">
      <g>
       <use style="stroke:#000000;stroke-width:0.8;" x="238.250625" xlink:href="#m74b13adad4" y="288.430125"/>
      </g>
     </g>
     <g id="text_5">
      <!-- lafintel -->
      <g transform="translate(207.42492 319.20744)rotate(-30)scale(0.1 -0.1)">
       <use xlink:href="#DejaVuSans-108"/>
       <use x="27.783203" xlink:href="#DejaVuSans-97"/>
       <use x="89.0625" xlink:href="#DejaVuSans-102"/>
       <use x="124.267578" xlink:href="#DejaVuSans-105"/>
       <use x="152.050781" xlink:href="#DejaVuSans-110"/>
       <use x="215.429688" xlink:href="#DejaVuSans-116"/>
       <use x="254.638672" xlink:href="#DejaVuSans-101"/>
       <use x="316.162109" xlink:href="#DejaVuSans-108"/>
      </g>
     </g>
    </g>
    <g id="xtick_6">
     <g id="line2d_6">
      <g>
       <use style="stroke:#000000;stroke-width:0.8;" x="277.930625" xlink:href="#m74b13adad4" y="288.430125"/>
      </g>
     </g>
     <g id="text_6">
      <!-- aflplusplus -->
      <g transform="translate(230.321618 328.897284)rotate(-30)scale(0.1 -0.1)">
       <use xlink:href="#DejaVuSans-97"/>
       <use x="61.279297" xlink:href="#DejaVuSans-102"/>
       <use x="96.484375" xlink:href="#DejaVuSans-108"/>
       <use x="124.267578" xlink:href="#DejaVuSans-112"/>
       <use x="187.744141" xlink:href="#DejaVuSans-108"/>
       <use x="215.527344" xlink:href="#DejaVuSans-117"/>
       <use x="278.90625" xlink:href="#DejaVuSans-115"/>
       <use x="331.005859" xlink:href="#DejaVuSans-112"/>
       <use x="394.482422" xlink:href="#DejaVuSans-108"/>
       <use x="422.265625" xlink:href="#DejaVuSans-117"/>
       <use x="485.644531" xlink:href="#DejaVuSans-115"/>
      </g>
     </g>
    </g>
    <g id="xtick_7">
     <g id="line2d_7">
      <g>
       <use style="stroke:#000000;stroke-width:0.8;" x="317.610625" xlink:href="#m74b13adad4" y="288.430125"/>
      </g>
     </g>
     <g id="text_7">
      <!-- fairfuzz -->
      <g transform="translate(284.62121 320.456659)rotate(-30)scale(0.1 -0.1)">
       <use xlink:href="#DejaVuSans-102"/>
       <use x="35.205078" xlink:href="#DejaVuSans-97"/>
       <use x="96.484375" xlink:href="#DejaVuSans-105"/>
       <use x="124.267578" xlink:href="#DejaVuSans-114"/>
       <use x="165.380859" xlink:href="#DejaVuSans-102"/>
       <use x="200.585938" xlink:href="#DejaVuSans-117"/>
       <use x="263.964844" xlink:href="#DejaVuSans-122"/>
       <use x="316.455078" xlink:href="#DejaVuSans-122"/>
      </g>
     </g>
    </g>
    <g id="xtick_8">
     <g id="line2d_8">
      <g>
       <use style="stroke:#000000;stroke-width:0.8;" x="357.290625" xlink:href="#m74b13adad4" y="288.430125"/>
      </g>
     </g>
     <g id="text_8">
      <!-- aflplusplus_flat -->
      <g transform="translate(291.05562 339.570721)rotate(-30)scale(0.1 -0.1)">
       <use xlink:href="#DejaVuSans-97"/>
       <use x="61.279297" xlink:href="#DejaVuSans-102"/>
       <use x="96.484375" xlink:href="#DejaVuSans-108"/>
       <use x="124.267578" xlink:href="#DejaVuSans-112"/>
       <use x="187.744141" xlink:href="#DejaVuSans-108"/>
       <use x="215.527344" xlink:href="#DejaVuSans-117"/>
       <use x="278.90625" xlink:href="#DejaVuSans-115"/>
       <use x="331.005859" xlink:href="#DejaVuSans-112"/>
       <use x="394.482422" xlink:href="#DejaVuSans-108"/>
       <use x="422.265625" xlink:href="#DejaVuSans-117"/>
       <use x="485.644531" xlink:href="#DejaVuSans-115"/>
       <use x="537.744141" xlink:href="#DejaVuSans-95"/>
       <use x="587.744141" xlink:href="#DejaVuSans-102"/>
       <use x="622.949219" xlink:href="#DejaVuSans-108"/>
       <use x="650.732422" xlink:href="#DejaVuSans-97"/>
       <use x="712.011719" xlink:href="#DejaVuSans-116"/>
      </g>
     </g>
    </g>
    <g id="xtick_9">
     <g id="line2d_9">
      <g>
       <use style="stroke:#000000;stroke-width:0.8;" x="396.970625" xlink:href="#m74b13adad4" y="288.430125"/>
      </g>
     </g>
     <g id="text_9">
      <!-- honggfuzz -->
      <g transform="translate(351.031424 327.933221)rotate(-30)scale(0.1 -0.1)">
       <defs>
        <path d="M 54.890625 33.015625 
L 54.890625 0 
L 45.90625 0 
L 45.90625 32.71875 
Q 45.90625 40.484375 42.875 44.328125 
Q 39.84375 48.1875 33.796875 48.1875 
Q 26.515625 48.1875 22.3125 43.546875 
Q 18.109375 38.921875 18.109375 30.90625 
L 18.109375 0 
L 9.078125 0 
L 9.078125 75.984375 
L 18.109375 75.984375 
L 18.109375 46.1875 
Q 21.34375 51.125 25.703125 53.5625 
Q 30.078125 56 35.796875 56 
Q 45.21875 56 50.046875 50.171875 
Q 54.890625 44.34375 54.890625 33.015625 
z
" id="DejaVuSans-104"/>
        <path d="M 45.40625 27.984375 
Q 45.40625 37.75 41.375 43.109375 
Q 37.359375 48.484375 30.078125 48.484375 
Q 22.859375 48.484375 18.828125 43.109375 
Q 14.796875 37.75 14.796875 27.984375 
Q 14.796875 18.265625 18.828125 12.890625 
Q 22.859375 7.515625 30.078125 7.515625 
Q 37.359375 7.515625 41.375 12.890625 
Q 45.40625 18.265625 45.40625 27.984375 
z
M 54.390625 6.78125 
Q 54.390625 -7.171875 48.1875 -13.984375 
Q 42 -20.796875 29.203125 -20.796875 
Q 24.46875 -20.796875 20.265625 -20.09375 
Q 16.0625 -19.390625 12.109375 -17.921875 
L 12.109375 -9.1875 
Q 16.0625 -11.328125 19.921875 -12.34375 
Q 23.78125 -13.375 27.78125 -13.375 
Q 36.625 -13.375 41.015625 -8.765625 
Q 45.40625 -4.15625 45.40625 5.171875 
L 45.40625 9.625 
Q 42.625 4.78125 38.28125 2.390625 
Q 33.9375 0 27.875 0 
Q 17.828125 0 11.671875 7.65625 
Q 5.515625 15.328125 5.515625 27.984375 
Q 5.515625 40.671875 11.671875 48.328125 
Q 17.828125 56 27.875 56 
Q 33.9375 56 38.28125 53.609375 
Q 42.625 51.21875 45.40625 46.390625 
L 45.40625 54.6875 
L 54.390625 54.6875 
z
" id="DejaVuSans-103"/>
       </defs>
       <use xlink:href="#DejaVuSans-104"/>
       <use x="63.378906" xlink:href="#DejaVuSans-111"/>
       <use x="124.560547" xlink:href="#DejaVuSans-110"/>
       <use x="187.939453" xlink:href="#DejaVuSans-103"/>
       <use x="251.416016" xlink:href="#DejaVuSans-103"/>
       <use x="314.892578" xlink:href="#DejaVuSans-102"/>
       <use x="350.097656" xlink:href="#DejaVuSans-117"/>
       <use x="413.476562" xlink:href="#DejaVuSans-122"/>
       <use x="465.966797" xlink:href="#DejaVuSans-122"/>
      </g>
     </g>
    </g>
    <g id="text_10">
     <!-- Fuzzer (highest median coverage on the left) -->
     <g transform="translate(125.632656 359.32749)scale(0.1 -0.1)">
      <defs>
       <path d="M 9.8125 72.90625 
L 51.703125 72.90625 
L 51.703125 64.59375 
L 19.671875 64.59375 
L 19.671875 43.109375 
L 48.578125 43.109375 
L 48.578125 34.8125 
L 19.671875 34.8125 
L 19.671875 0 
L 9.8125 0 
z
" id="DejaVuSans-70"/>
       <path id="DejaVuSans-32"/>
       <path d="M 31 75.875 
Q 24.46875 64.65625 21.28125 53.65625 
Q 18.109375 42.671875 18.109375 31.390625 
Q 18.109375 20.125 21.3125 9.0625 
Q 24.515625 -2 31 -13.1875 
L 23.1875 -13.1875 
Q 15.875 -1.703125 12.234375 9.375 
Q 8.59375 20.453125 8.59375 31.390625 
Q 8.59375 42.28125 12.203125 53.3125 
Q 15.828125 64.359375 23.1875 75.875 
z
" id="DejaVuSans-40"/>
       <path d="M 45.40625 46.390625 
L 45.40625 75.984375 
L 54.390625 75.984375 
L 54.390625 0 
L 45.40625 0 
L 45.40625 8.203125 
Q 42.578125 3.328125 38.25 0.953125 
Q 33.9375 -1.421875 27.875 -1.421875 
Q 17.96875 -1.421875 11.734375 6.484375 
Q 5.515625 14.40625 5.515625 27.296875 
Q 5.515625 40.1875 11.734375 48.09375 
Q 17.96875 56 27.875 56 
Q 33.9375 56 38.25 53.625 
Q 42.578125 51.265625 45.40625 46.390625 
z
M 14.796875 27.296875 
Q 14.796875 17.390625 18.875 11.75 
Q 22.953125 6.109375 30.078125 6.109375 
Q 37.203125 6.109375 41.296875 11.75 
Q 45.40625 17.390625 45.40625 27.296875 
Q 45.40625 37.203125 41.296875 42.84375 
Q 37.203125 48.484375 30.078125 48.484375 
Q 22.953125 48.484375 18.875 42.84375 
Q 14.796875 37.203125 14.796875 27.296875 
z
" id="DejaVuSans-100"/>
       <path d="M 2.984375 54.6875 
L 12.5 54.6875 
L 29.59375 8.796875 
L 46.6875 54.6875 
L 56.203125 54.6875 
L 35.6875 0 
L 23.484375 0 
z
" id="DejaVuSans-118"/>
       <path d="M 8.015625 75.875 
L 15.828125 75.875 
Q 23.140625 64.359375 26.78125 53.3125 
Q 30.421875 42.28125 30.421875 31.390625 
Q 30.421875 20.453125 26.78125 9.375 
Q 23.140625 -1.703125 15.828125 -13.1875 
L 8.015625 -13.1875 
Q 14.5 -2 17.703125 9.0625 
Q 20.90625 20.125 20.90625 31.390625 
Q 20.90625 42.671875 17.703125 53.65625 
Q 14.5 64.65625 8.015625 75.875 
z
" id="DejaVuSans-41"/>
      </defs>
      <use xlink:href="#DejaVuSans-70"/>
      <use x="52.019531" xlink:href="#DejaVuSans-117"/>
      <use x="115.398438" xlink:href="#DejaVuSans-122"/>
      <use x="167.888672" xlink:href="#DejaVuSans-122"/>
      <use x="220.378906" xlink:href="#DejaVuSans-101"/>
      <use x="281.902344" xlink:href="#DejaVuSans-114"/>
      <use x="323.015625" xlink:href="#DejaVuSans-32"/>
      <use x="354.802734" xlink:href="#DejaVuSans-40"/>
      <use x="393.816406" xlink:href="#DejaVuSans-104"/>
      <use x="457.195312" xlink:href="#DejaVuSans-105"/>
      <use x="484.978516" xlink:href="#DejaVuSans-103"/>
      <use x="548.455078" xlink:href="#DejaVuSans-104"/>
      <use x="611.833984" xlink:href="#DejaVuSans-101"/>
      <use x="673.357422" xlink:href="#DejaVuSans-115"/>
      <use x="725.457031" xlink:href="#DejaVuSans-116"/>
      <use x="764.666016" xlink:href="#DejaVuSans-32"/>
      <use x="796.453125" xlink:href="#DejaVuSans-109"/>
      <use x="893.865234" xlink:href="#DejaVuSans-101"/>
      <use x="955.388672" xlink:href="#DejaVuSans-100"/>
      <use x="1018.865234" xlink:href="#DejaVuSans-105"/>
      <use x="1046.648438" xlink:href="#DejaVuSans-97"/>
      <use x="1107.927734" xlink:href="#DejaVuSans-110"/>
      <use x="1171.306641" xlink:href="#DejaVuSans-32"/>
      <use x="1203.09375" xlink:href="#DejaVuSans-99"/>
      <use x="1258.074219" xlink:href="#DejaVuSans-111"/>
      <use x="1319.255859" xlink:href="#DejaVuSans-118"/>
      <use x="1378.435547" xlink:href="#DejaVuSans-101"/>
      <use x="1439.958984" xlink:href="#DejaVuSans-114"/>
      <use x="1481.072266" xlink:href="#DejaVuSans-97"/>
      <use x="1542.351562" xlink:href="#DejaVuSans-103"/>
      <use x="1605.828125" xlink:href="#DejaVuSans-101"/>
      <use x="1667.351562" xlink:href="#DejaVuSans-32"/>
      <use x="1699.138672" xlink:href="#DejaVuSans-111"/>
      <use x="1760.320312" xlink:href="#DejaVuSans-110"/>
      <use x="1823.699219" xlink:href="#DejaVuSans-32"/>
      <use x="1855.486328" xlink:href="#DejaVuSans-116"/>
      <use x="1894.695312" xlink:href="#DejaVuSans-104"/>
      <use x="1958.074219" xlink:href="#DejaVuSans-101"/>
      <use x="2019.597656" xlink:href="#DejaVuSans-32"/>
      <use x="2051.384766" xlink:href="#DejaVuSans-108"/>
      <use x="2079.167969" xlink:href="#DejaVuSans-101"/>
      <use x="2140.691406" xlink:href="#DejaVuSans-102"/>
      <use x="2174.146484" xlink:href="#DejaVuSans-116"/>
      <use x="2213.355469" xlink:href="#DejaVuSans-41"/>
     </g>
    </g>
   </g>
   <g id="matplotlib.axis_2">
    <g id="ytick_1">
     <g id="line2d_10">
      <defs>
       <path d="M 0 0 
L -3.5 0 
" id="m5130b4cb3e" style="stroke:#000000;stroke-width:0.8;"/>
      </defs>
      <g>
       <use style="stroke:#000000;stroke-width:0.8;" x="59.690625" xlink:href="#m5130b4cb3e" y="282.225078"/>
      </g>
     </g>
     <g id="text_11">
      <!-- 13700 -->
      <g transform="translate(20.878125 286.024297)scale(0.1 -0.1)">
       <defs>
        <path d="M 12.40625 8.296875 
L 28.515625 8.296875 
L 28.515625 63.921875 
L 10.984375 60.40625 
L 10.984375 69.390625 
L 28.421875 72.90625 
L 38.28125 72.90625 
L 38.28125 8.296875 
L 54.390625 8.296875 
L 54.390625 0 
L 12.40625 0 
z
" id="DejaVuSans-49"/>
        <path d="M 40.578125 39.3125 
Q 47.65625 37.796875 51.625 33 
Q 55.609375 28.21875 55.609375 21.1875 
Q 55.609375 10.40625 48.1875 4.484375 
Q 40.765625 -1.421875 27.09375 -1.421875 
Q 22.515625 -1.421875 17.65625 -0.515625 
Q 12.796875 0.390625 7.625 2.203125 
L 7.625 11.71875 
Q 11.71875 9.328125 16.59375 8.109375 
Q 21.484375 6.890625 26.8125 6.890625 
Q 36.078125 6.890625 40.9375 10.546875 
Q 45.796875 14.203125 45.796875 21.1875 
Q 45.796875 27.640625 41.28125 31.265625 
Q 36.765625 34.90625 28.71875 34.90625 
L 20.21875 34.90625 
L 20.21875 43.015625 
L 29.109375 43.015625 
Q 36.375 43.015625 40.234375 45.921875 
Q 44.09375 48.828125 44.09375 54.296875 
Q 44.09375 59.90625 40.109375 62.90625 
Q 36.140625 65.921875 28.71875 65.921875 
Q 24.65625 65.921875 20.015625 65.03125 
Q 15.375 64.15625 9.8125 62.3125 
L 9.8125 71.09375 
Q 15.4375 72.65625 20.34375 73.4375 
Q 25.25 74.21875 29.59375 74.21875 
Q 40.828125 74.21875 47.359375 69.109375 
Q 53.90625 64.015625 53.90625 55.328125 
Q 53.90625 49.265625 50.4375 45.09375 
Q 46.96875 40.921875 40.578125 39.3125 
z
" id="DejaVuSans-51"/>
        <path d="M 8.203125 72.90625 
L 55.078125 72.90625 
L 55.078125 68.703125 
L 28.609375 0 
L 18.3125 0 
L 43.21875 64.59375 
L 8.203125 64.59375 
z
" id="DejaVuSans-55"/>
        <path d="M 31.78125 66.40625 
Q 24.171875 66.40625 20.328125 58.90625 
Q 16.5 51.421875 16.5 36.375 
Q 16.5 21.390625 20.328125 13.890625 
Q 24.171875 6.390625 31.78125 6.390625 
Q 39.453125 6.390625 43.28125 13.890625 
Q 47.125 21.390625 47.125 36.375 
Q 47.125 51.421875 43.28125 58.90625 
Q 39.453125 66.40625 31.78125 66.40625 
z
M 31.78125 74.21875 
Q 44.046875 74.21875 50.515625 64.515625 
Q 56.984375 54.828125 56.984375 36.375 
Q 56.984375 17.96875 50.515625 8.265625 
Q 44.046875 -1.421875 31.78125 -1.421875 
Q 19.53125 -1.421875 13.0625 8.265625 
Q 6.59375 17.96875 6.59375 36.375 
Q 6.59375 54.828125 13.0625 64.515625 
Q 19.53125 74.21875 31.78125 74.21875 
z
" id="DejaVuSans-48"/>
       </defs>
       <use xlink:href="#DejaVuSans-49"/>
       <use x="63.623047" xlink:href="#DejaVuSans-51"/>
       <use x="127.246094" xlink:href="#DejaVuSans-55"/>
       <use x="190.869141" xlink:href="#DejaVuSans-48"/>
       <use x="254.492188" xlink:href="#DejaVuSans-48"/>
      </g>
     </g>
    </g>
    <g id="ytick_2">
     <g id="line2d_11">
      <g>
       <use style="stroke:#000000;stroke-width:0.8;" x="59.690625" xlink:href="#m5130b4cb3e" y="251.122327"/>
      </g>
     </g>
     <g id="text_12">
      <!-- 13725 -->
      <g transform="translate(20.878125 254.921546)scale(0.1 -0.1)">
       <defs>
        <path d="M 19.1875 8.296875 
L 53.609375 8.296875 
L 53.609375 0 
L 7.328125 0 
L 7.328125 8.296875 
Q 12.9375 14.109375 22.625 23.890625 
Q 32.328125 33.6875 34.8125 36.53125 
Q 39.546875 41.84375 41.421875 45.53125 
Q 43.3125 49.21875 43.3125 52.78125 
Q 43.3125 58.59375 39.234375 62.25 
Q 35.15625 65.921875 28.609375 65.921875 
Q 23.96875 65.921875 18.8125 64.3125 
Q 13.671875 62.703125 7.8125 59.421875 
L 7.8125 69.390625 
Q 13.765625 71.78125 18.9375 73 
Q 24.125 74.21875 28.421875 74.21875 
Q 39.75 74.21875 46.484375 68.546875 
Q 53.21875 62.890625 53.21875 53.421875 
Q 53.21875 48.921875 51.53125 44.890625 
Q 49.859375 40.875 45.40625 35.40625 
Q 44.1875 33.984375 37.640625 27.21875 
Q 31.109375 20.453125 19.1875 8.296875 
z
" id="DejaVuSans-50"/>
        <path d="M 10.796875 72.90625 
L 49.515625 72.90625 
L 49.515625 64.59375 
L 19.828125 64.59375 
L 19.828125 46.734375 
Q 21.96875 47.46875 24.109375 47.828125 
Q 26.265625 48.1875 28.421875 48.1875 
Q 40.625 48.1875 47.75 41.5 
Q 54.890625 34.8125 54.890625 23.390625 
Q 54.890625 11.625 47.5625 5.09375 
Q 40.234375 -1.421875 26.90625 -1.421875 
Q 22.3125 -1.421875 17.546875 -0.640625 
Q 12.796875 0.140625 7.71875 1.703125 
L 7.71875 11.625 
Q 12.109375 9.234375 16.796875 8.0625 
Q 21.484375 6.890625 26.703125 6.890625 
Q 35.15625 6.890625 40.078125 11.328125 
Q 45.015625 15.765625 45.015625 23.390625 
Q 45.015625 31 40.078125 35.4375 
Q 35.15625 39.890625 26.703125 39.890625 
Q 22.75 39.890625 18.8125 39.015625 
Q 14.890625 38.140625 10.796875 36.28125 
z
" id="DejaVuSans-53"/>
       </defs>
       <use xlink:href="#DejaVuSans-49"/>
       <use x="63.623047" xlink:href="#DejaVuSans-51"/>
       <use x="127.246094" xlink:href="#DejaVuSans-55"/>
       <use x="190.869141" xlink:href="#DejaVuSans-50"/>
       <use x="254.492188" xlink:href="#DejaVuSans-53"/>
      </g>
     </g>
    </g>
    <g id="ytick_3">
     <g id="line2d_12">
      <g>
       <use style="stroke:#000000;stroke-width:0.8;" x="59.690625" xlink:href="#m5130b4cb3e" y="220.019577"/>
      </g>
     </g>
     <g id="text_13">
      <!-- 13750 -->
      <g transform="translate(20.878125 223.818795)scale(0.1 -0.1)">
       <use xlink:href="#DejaVuSans-49"/>
       <use x="63.623047" xlink:href="#DejaVuSans-51"/>
       <use x="127.246094" xlink:href="#DejaVuSans-55"/>
       <use x="190.869141" xlink:href="#DejaVuSans-53"/>
       <use x="254.492188" xlink:href="#DejaVuSans-48"/>
      </g>
     </g>
    </g>
    <g id="ytick_4">
     <g id="line2d_13">
      <g>
       <use style="stroke:#000000;stroke-width:0.8;" x="59.690625" xlink:href="#m5130b4cb3e" y="188.916826"/>
      </g>
     </g>
     <g id="text_14">
      <!-- 13775 -->
      <g transform="translate(20.878125 192.716045)scale(0.1 -0.1)">
       <use xlink:href="#DejaVuSans-49"/>
       <use x="63.623047" xlink:href="#DejaVuSans-51"/>
       <use x="127.246094" xlink:href="#DejaVuSans-55"/>
       <use x="190.869141" xlink:href="#DejaVuSans-55"/>
       <use x="254.492188" xlink:href="#DejaVuSans-53"/>
      </g>
     </g>
    </g>
    <g id="ytick_5">
     <g id="line2d_14">
      <g>
       <use style="stroke:#000000;stroke-width:0.8;" x="59.690625" xlink:href="#m5130b4cb3e" y="157.814075"/>
      </g>
     </g>
     <g id="text_15">
      <!-- 13800 -->
      <g transform="translate(20.878125 161.613294)scale(0.1 -0.1)">
       <defs>
        <path d="M 31.78125 34.625 
Q 24.75 34.625 20.71875 30.859375 
Q 16.703125 27.09375 16.703125 20.515625 
Q 16.703125 13.921875 20.71875 10.15625 
Q 24.75 6.390625 31.78125 6.390625 
Q 38.8125 6.390625 42.859375 10.171875 
Q 46.921875 13.96875 46.921875 20.515625 
Q 46.921875 27.09375 42.890625 30.859375 
Q 38.875 34.625 31.78125 34.625 
z
M 21.921875 38.8125 
Q 15.578125 40.375 12.03125 44.71875 
Q 8.5 49.078125 8.5 55.328125 
Q 8.5 64.0625 14.71875 69.140625 
Q 20.953125 74.21875 31.78125 74.21875 
Q 42.671875 74.21875 48.875 69.140625 
Q 55.078125 64.0625 55.078125 55.328125 
Q 55.078125 49.078125 51.53125 44.71875 
Q 48 40.375 41.703125 38.8125 
Q 48.828125 37.15625 52.796875 32.3125 
Q 56.78125 27.484375 56.78125 20.515625 
Q 56.78125 9.90625 50.3125 4.234375 
Q 43.84375 -1.421875 31.78125 -1.421875 
Q 19.734375 -1.421875 13.25 4.234375 
Q 6.78125 9.90625 6.78125 20.515625 
Q 6.78125 27.484375 10.78125 32.3125 
Q 14.796875 37.15625 21.921875 38.8125 
z
M 18.3125 54.390625 
Q 18.3125 48.734375 21.84375 45.5625 
Q 25.390625 42.390625 31.78125 42.390625 
Q 38.140625 42.390625 41.71875 45.5625 
Q 45.3125 48.734375 45.3125 54.390625 
Q 45.3125 60.0625 41.71875 63.234375 
Q 38.140625 66.40625 31.78125 66.40625 
Q 25.390625 66.40625 21.84375 63.234375 
Q 18.3125 60.0625 18.3125 54.390625 
z
" id="DejaVuSans-56"/>
       </defs>
       <use xlink:href="#DejaVuSans-49"/>
       <use x="63.623047" xlink:href="#DejaVuSans-51"/>
       <use x="127.246094" xlink:href="#DejaVuSans-56"/>
       <use x="190.869141" xlink:href="#DejaVuSans-48"/>
       <use x="254.492188" xlink:href="#DejaVuSans-48"/>
      </g>
     </g>
    </g>
    <g id="ytick_6">
     <g id="line2d_15">
      <g>
       <use style="stroke:#000000;stroke-width:0.8;" x="59.690625" xlink:href="#m5130b4cb3e" y="126.711325"/>
      </g>
     </g>
     <g id="text_16">
      <!-- 13825 -->
      <g transform="translate(20.878125 130.510544)scale(0.1 -0.1)">
       <use xlink:href="#DejaVuSans-49"/>
       <use x="63.623047" xlink:href="#DejaVuSans-51"/>
       <use x="127.246094" xlink:href="#DejaVuSans-56"/>
       <use x="190.869141" xlink:href="#DejaVuSans-50"/>
       <use x="254.492188" xlink:href="#DejaVuSans-53"/>
      </g>
     </g>
    </g>
    <g id="ytick_7">
     <g id="line2d_16">
      <g>
       <use style="stroke:#000000;stroke-width:0.8;" x="59.690625" xlink:href="#m5130b4cb3e" y="95.608574"/>
      </g>
     </g>
     <g id="text_17">
      <!-- 13850 -->
      <g transform="translate(20.878125 99.407793)scale(0.1 -0.1)">
       <use xlink:href="#DejaVuSans-49"/>
       <use x="63.623047" xlink:href="#DejaVuSans-51"/>
       <use x="127.246094" xlink:href="#DejaVuSans-56"/>
       <use x="190.869141" xlink:href="#DejaVuSans-53"/>
       <use x="254.492188" xlink:href="#DejaVuSans-48"/>
      </g>
     </g>
    </g>
    <g id="ytick_8">
     <g id="line2d_17">
      <g>
       <use style="stroke:#000000;stroke-width:0.8;" x="59.690625" xlink:href="#m5130b4cb3e" y="64.505823"/>
      </g>
     </g>
     <g id="text_18">
      <!-- 13875 -->
      <g transform="translate(20.878125 68.305042)scale(0.1 -0.1)">
       <use xlink:href="#DejaVuSans-49"/>
       <use x="63.623047" xlink:href="#DejaVuSans-51"/>
       <use x="127.246094" xlink:href="#DejaVuSans-56"/>
       <use x="190.869141" xlink:href="#DejaVuSans-55"/>
       <use x="254.492188" xlink:href="#DejaVuSans-53"/>
      </g>
     </g>
    </g>
    <g id="ytick_9">
     <g id="line2d_18">
      <g>
       <use style="stroke:#000000;stroke-width:0.8;" x="59.690625" xlink:href="#m5130b4cb3e" y="33.403073"/>
      </g>
     </g>
     <g id="text_19">
      <!-- 13900 -->
      <g transform="translate(20.878125 37.202292)scale(0.1 -0.1)">
       <defs>
        <path d="M 10.984375 1.515625 
L 10.984375 10.5 
Q 14.703125 8.734375 18.5 7.8125 
Q 22.3125 6.890625 25.984375 6.890625 
Q 35.75 6.890625 40.890625 13.453125 
Q 46.046875 20.015625 46.78125 33.40625 
Q 43.953125 29.203125 39.59375 26.953125 
Q 35.25 24.703125 29.984375 24.703125 
Q 19.046875 24.703125 12.671875 31.3125 
Q 6.296875 37.9375 6.296875 49.421875 
Q 6.296875 60.640625 12.9375 67.421875 
Q 19.578125 74.21875 30.609375 74.21875 
Q 43.265625 74.21875 49.921875 64.515625 
Q 56.59375 54.828125 56.59375 36.375 
Q 56.59375 19.140625 48.40625 8.859375 
Q 40.234375 -1.421875 26.421875 -1.421875 
Q 22.703125 -1.421875 18.890625 -0.6875 
Q 15.09375 0.046875 10.984375 1.515625 
z
M 30.609375 32.421875 
Q 37.25 32.421875 41.125 36.953125 
Q 45.015625 41.5 45.015625 49.421875 
Q 45.015625 57.28125 41.125 61.84375 
Q 37.25 66.40625 30.609375 66.40625 
Q 23.96875 66.40625 20.09375 61.84375 
Q 16.21875 57.28125 16.21875 49.421875 
Q 16.21875 41.5 20.09375 36.953125 
Q 23.96875 32.421875 30.609375 32.421875 
z
" id="DejaVuSans-57"/>
       </defs>
       <use xlink:href="#DejaVuSans-49"/>
       <use x="63.623047" xlink:href="#DejaVuSans-51"/>
       <use x="127.246094" xlink:href="#DejaVuSans-57"/>
       <use x="190.869141" xlink:href="#DejaVuSans-48"/>
       <use x="254.492188" xlink:href="#DejaVuSans-48"/>
      </g>
     </g>
    </g>
    <g id="text_20">
     <!-- Reached region coverage -->
     <g transform="translate(14.798438 219.136625)rotate(-90)scale(0.1 -0.1)">
      <defs>
       <path d="M 44.390625 34.1875 
Q 47.5625 33.109375 50.5625 29.59375 
Q 53.5625 26.078125 56.59375 19.921875 
L 66.609375 0 
L 56 0 
L 46.6875 18.703125 
Q 43.0625 26.03125 39.671875 28.421875 
Q 36.28125 30.8125 30.421875 30.8125 
L 19.671875 30.8125 
L 19.671875 0 
L 9.8125 0 
L 9.8125 72.90625 
L 32.078125 72.90625 
Q 44.578125 72.90625 50.734375 67.671875 
Q 56.890625 62.453125 56.890625 51.90625 
Q 56.890625 45.015625 53.6875 40.46875 
Q 50.484375 35.9375 44.390625 34.1875 
z
M 19.671875 64.796875 
L 19.671875 38.921875 
L 32.078125 38.921875 
Q 39.203125 38.921875 42.84375 42.21875 
Q 46.484375 45.515625 46.484375 51.90625 
Q 46.484375 58.296875 42.84375 61.546875 
Q 39.203125 64.796875 32.078125 64.796875 
z
" id="DejaVuSans-82"/>
      </defs>
      <use xlink:href="#DejaVuSans-82"/>
      <use x="64.982422" xlink:href="#DejaVuSans-101"/>
      <use x="126.505859" xlink:href="#DejaVuSans-97"/>
      <use x="187.785156" xlink:href="#DejaVuSans-99"/>
      <use x="242.765625" xlink:href="#DejaVuSans-104"/>
      <use x="306.144531" xlink:href="#DejaVuSans-101"/>
      <use x="367.667969" xlink:href="#DejaVuSans-100"/>
      <use x="431.144531" xlink:href="#DejaVuSans-32"/>
      <use x="462.931641" xlink:href="#DejaVuSans-114"/>
      <use x="501.794922" xlink:href="#DejaVuSans-101"/>
      <use x="563.318359" xlink:href="#DejaVuSans-103"/>
      <use x="626.794922" xlink:href="#DejaVuSans-105"/>
      <use x="654.578125" xlink:href="#DejaVuSans-111"/>
      <use x="715.759766" xlink:href="#DejaVuSans-110"/>
      <use x="779.138672" xlink:href="#DejaVuSans-32"/>
      <use x="810.925781" xlink:href="#DejaVuSans-99"/>
      <use x="865.90625" xlink:href="#DejaVuSans-111"/>
      <use x="927.087891" xlink:href="#DejaVuSans-118"/>
      <use x="986.267578" xlink:href="#DejaVuSans-101"/>
      <use x="1047.791016" xlink:href="#DejaVuSans-114"/>
      <use x="1088.904297" xlink:href="#DejaVuSans-97"/>
      <use x="1150.183594" xlink:href="#DejaVuSans-103"/>
      <use x="1213.660156" xlink:href="#DejaVuSans-101"/>
     </g>
    </g>
   </g>
   <g id="line2d_19">
    <path clip-path="url(#p19e57aea72)" d="M 79.530625 206.334366 
L 79.530625 162.790516 
" style="fill:none;stroke:#3d3d3d;stroke-linecap:square;stroke-width:1.5;"/>
   </g>
   <g id="line2d_20">
    <path clip-path="url(#p19e57aea72)" d="M 79.530625 197.003541 
L 79.530625 176.475726 
" style="fill:none;stroke:#3d3d3d;stroke-linecap:square;stroke-width:4.5;"/>
   </g>
   <g id="line2d_21">
    <path clip-path="url(#p19e57aea72)" d="M 119.210625 176.475726 
L 119.210625 167.766956 
" style="fill:none;stroke:#3d3d3d;stroke-linecap:square;stroke-width:1.5;"/>
   </g>
   <g id="line2d_22">
    <path clip-path="url(#p19e57aea72)" d="M 119.210625 176.475726 
L 119.210625 172.743396 
" style="fill:none;stroke:#3d3d3d;stroke-linecap:square;stroke-width:4.5;"/>
   </g>
   <g id="line2d_23">
    <path clip-path="url(#p19e57aea72)" d="M 158.890625 177.719836 
L 158.890625 177.719836 
" style="fill:none;stroke:#3d3d3d;stroke-linecap:square;stroke-width:1.5;"/>
   </g>
   <g id="line2d_24">
    <path clip-path="url(#p19e57aea72)" d="M 158.890625 177.719836 
L 158.890625 177.719836 
" style="fill:none;stroke:#3d3d3d;stroke-linecap:square;stroke-width:4.5;"/>
   </g>
   <g id="line2d_25">
    <path clip-path="url(#p19e57aea72)" d="M 198.570625 200.113816 
L 198.570625 176.475726 
" style="fill:none;stroke:#3d3d3d;stroke-linecap:square;stroke-width:1.5;"/>
   </g>
   <g id="line2d_26">
    <path clip-path="url(#p19e57aea72)" d="M 198.570625 187.983744 
L 198.570625 177.719836 
" style="fill:none;stroke:#3d3d3d;stroke-linecap:square;stroke-width:4.5;"/>
   </g>
   <g id="line2d_27">
    <path clip-path="url(#p19e57aea72)" d="M 238.250625 208.822586 
L 238.250625 176.475726 
" style="fill:none;stroke:#3d3d3d;stroke-linecap:square;stroke-width:1.5;"/>
   </g>
   <g id="line2d_28">
    <path clip-path="url(#p19e57aea72)" d="M 238.250625 198.869706 
L 238.250625 178.963946 
" style="fill:none;stroke:#3d3d3d;stroke-linecap:square;stroke-width:4.5;"/>
   </g>
   <g id="line2d_29">
    <path clip-path="url(#p19e57aea72)" d="M 277.930625 207.578476 
L 277.930625 175.231616 
" style="fill:none;stroke:#3d3d3d;stroke-linecap:square;stroke-width:1.5;"/>
   </g>
   <g id="line2d_30">
    <path clip-path="url(#p19e57aea72)" d="M 277.930625 207.578476 
L 277.930625 177.719836 
" style="fill:none;stroke:#3d3d3d;stroke-linecap:square;stroke-width:4.5;"/>
   </g>
   <g id="line2d_31">
    <path clip-path="url(#p19e57aea72)" d="M 317.610625 211.310807 
L 317.610625 177.719836 
" style="fill:none;stroke:#3d3d3d;stroke-linecap:square;stroke-width:1.5;"/>
   </g>
   <g id="line2d_32">
    <path clip-path="url(#p19e57aea72)" d="M 317.610625 204.157174 
L 317.610625 188.916826 
" style="fill:none;stroke:#3d3d3d;stroke-linecap:square;stroke-width:4.5;"/>
   </g>
   <g id="line2d_33">
    <path clip-path="url(#p19e57aea72)" d="M 357.290625 256.098767 
L 357.290625 191.405046 
" style="fill:none;stroke:#3d3d3d;stroke-linecap:square;stroke-width:1.5;"/>
   </g>
   <g id="line2d_34">
    <path clip-path="url(#p19e57aea72)" d="M 357.290625 228.106292 
L 357.290625 199.802789 
" style="fill:none;stroke:#3d3d3d;stroke-linecap:square;stroke-width:4.5;"/>
   </g>
   <g id="line2d_35">
    <path clip-path="url(#p19e57aea72)" d="M 396.970625 239.925337 
L 396.970625 228.728347 
" style="fill:none;stroke:#3d3d3d;stroke-linecap:square;stroke-width:1.5;"/>
   </g>
   <g id="line2d_36">
    <path clip-path="url(#p19e57aea72)" d="M 396.970625 238.681227 
L 396.970625 232.149649 
" style="fill:none;stroke:#3d3d3d;stroke-linecap:square;stroke-width:4.5;"/>
   </g>
   <g id="patch_3">
    <path d="M 59.690625 282.225078 
L 59.690625 33.403073 
" style="fill:none;stroke:#000000;stroke-linecap:square;stroke-linejoin:miter;stroke-width:0.8;"/>
   </g>
   <g id="patch_4">
    <path d="M 79.530625 288.430125 
L 396.970625 288.430125 
" style="fill:none;stroke:#000000;stroke-linecap:square;stroke-linejoin:miter;stroke-width:0.8;"/>
   </g>
   <g id="PathCollection_1">
    <defs>
     <path d="M 0 1.5 
C 0.397805 1.5 0.77937 1.341951 1.06066 1.06066 
C 1.341951 0.77937 1.5 0.397805 1.5 0 
C 1.5 -0.397805 1.341951 -0.77937 1.06066 -1.06066 
C 0.77937 -1.341951 0.397805 -1.5 0 -1.5 
C -0.397805 -1.5 -0.77937 -1.341951 -1.06066 -1.06066 
C -1.341951 -0.77937 -1.5 -0.397805 -1.5 0 
C -1.5 0.397805 -1.341951 0.77937 -1.06066 1.06066 
C -0.77937 1.341951 -0.397805 1.5 0 1.5 
z
" id="m5db4c1ff7d" style="stroke:#3d3d3d;"/>
    </defs>
    <g clip-path="url(#p19e57aea72)">
     <use style="fill:#ffffff;stroke:#3d3d3d;" x="79.530625" xlink:href="#m5db4c1ff7d" y="176.475726"/>
    </g>
   </g>
   <g id="PathCollection_2">
    <g clip-path="url(#p19e57aea72)">
     <use style="fill:#ffffff;stroke:#3d3d3d;" x="119.210625" xlink:href="#m5db4c1ff7d" y="176.475726"/>
    </g>
   </g>
   <g id="PathCollection_3">
    <g clip-path="url(#p19e57aea72)">
     <use style="fill:#ffffff;stroke:#3d3d3d;" x="158.890625" xlink:href="#m5db4c1ff7d" y="177.719836"/>
    </g>
   </g>
   <g id="PathCollection_4">
    <g clip-path="url(#p19e57aea72)">
     <use style="fill:#ffffff;stroke:#3d3d3d;" x="198.570625" xlink:href="#m5db4c1ff7d" y="178.963946"/>
    </g>
   </g>
   <g id="PathCollection_5">
    <g clip-path="url(#p19e57aea72)">
     <use style="fill:#ffffff;stroke:#3d3d3d;" x="238.250625" xlink:href="#m5db4c1ff7d" y="181.452166"/>
    </g>
   </g>
   <g id="PathCollection_6">
    <g clip-path="url(#p19e57aea72)">
     <use style="fill:#ffffff;stroke:#3d3d3d;" x="277.930625" xlink:href="#m5db4c1ff7d" y="183.318331"/>
    </g>
   </g>
   <g id="PathCollection_7">
    <g clip-path="url(#p19e57aea72)">
     <use style="fill:#ffffff;stroke:#3d3d3d;" x="317.610625" xlink:href="#m5db4c1ff7d" y="198.247651"/>
    </g>
   </g>
   <g id="PathCollection_8">
    <g clip-path="url(#p19e57aea72)">
     <use style="fill:#ffffff;stroke:#3d3d3d;" x="357.290625" xlink:href="#m5db4c1ff7d" y="211.932862"/>
    </g>
   </g>
   <g id="PathCollection_9">
    <g clip-path="url(#p19e57aea72)">
     <use style="fill:#ffffff;stroke:#3d3d3d;" x="396.970625" xlink:href="#m5db4c1ff7d" y="236.815062"/>
    </g>
   </g>
   <g id="text_21">
    <!-- openssl_x509 (23h, 19 trials/fuzzer) -->
    <g transform="translate(130.624688 16.318125)scale(0.12 -0.12)">
     <defs>
      <path d="M 54.890625 54.6875 
L 35.109375 28.078125 
L 55.90625 0 
L 45.3125 0 
L 29.390625 21.484375 
L 13.484375 0 
L 2.875 0 
L 24.125 28.609375 
L 4.6875 54.6875 
L 15.28125 54.6875 
L 29.78125 35.203125 
L 44.28125 54.6875 
z
" id="DejaVuSans-120"/>
      <path d="M 11.71875 12.40625 
L 22.015625 12.40625 
L 22.015625 4 
L 14.015625 -11.625 
L 7.71875 -11.625 
L 11.71875 4 
z
" id="DejaVuSans-44"/>
      <path d="M 25.390625 72.90625 
L 33.6875 72.90625 
L 8.296875 -9.28125 
L 0 -9.28125 
z
" id="DejaVuSans-47"/>
     </defs>
     <use xlink:href="#DejaVuSans-111"/>
     <use x="61.181641" xlink:href="#DejaVuSans-112"/>
     <use x="124.658203" xlink:href="#DejaVuSans-101"/>
     <use x="186.181641" xlink:href="#DejaVuSans-110"/>
     <use x="249.560547" xlink:href="#DejaVuSans-115"/>
     <use x="301.660156" xlink:href="#DejaVuSans-115"/>
     <use x="353.759766" xlink:href="#DejaVuSans-108"/>
     <use x="381.542969" xlink:href="#DejaVuSans-95"/>
     <use x="431.542969" xlink:href="#DejaVuSans-120"/>
     <use x="490.722656" xlink:href="#DejaVuSans-53"/>
     <use x="554.345703" xlink:href="#DejaVuSans-48"/>
     <use x="617.96875" xlink:href="#DejaVuSans-57"/>
     <use x="681.591797" xlink:href="#DejaVuSans-32"/>
     <use x="713.378906" xlink:href="#DejaVuSans-40"/>
     <use x="752.392578" xlink:href="#DejaVuSans-50"/>
     <use x="816.015625" xlink:href="#DejaVuSans-51"/>
     <use x="879.638672" xlink:href="#DejaVuSans-104"/>
     <use x="943.017578" xlink:href="#DejaVuSans-44"/>
     <use x="974.804688" xlink:href="#DejaVuSans-32"/>
     <use x="1006.591797" xlink:href="#DejaVuSans-49"/>
     <use x="1070.214844" xlink:href="#DejaVuSans-57"/>
     <use x="1133.837891" xlink:href="#DejaVuSans-32"/>
     <use x="1165.625" xlink:href="#DejaVuSans-116"/>
     <use x="1204.833984" xlink:href="#DejaVuSans-114"/>
     <use x="1245.947266" xlink:href="#DejaVuSans-105"/>
     <use x="1273.730469" xlink:href="#DejaVuSans-97"/>
     <use x="1335.009766" xlink:href="#DejaVuSans-108"/>
     <use x="1362.792969" xlink:href="#DejaVuSans-115"/>
     <use x="1414.892578" xlink:href="#DejaVuSans-47"/>
     <use x="1448.583984" xlink:href="#DejaVuSans-102"/>
     <use x="1483.789062" xlink:href="#DejaVuSans-117"/>
     <use x="1547.167969" xlink:href="#DejaVuSans-122"/>
     <use x="1599.658203" xlink:href="#DejaVuSans-122"/>
     <use x="1652.148438" xlink:href="#DejaVuSans-101"/>
     <use x="1713.671875" xlink:href="#DejaVuSans-114"/>
     <use x="1754.785156" xlink:href="#DejaVuSans-41"/>
    </g>
   </g>
  </g>
 </g>
 <defs>
  <clipPath id="p19e57aea72">
   <rect height="266.112" width="357.12" x="59.690625" y="22.318125"/>
  </clipPath>
 </defs>
</svg>
