<?xml version="1.0" encoding="utf-8" standalone="no"?>
<!DOCTYPE svg PUBLIC "-//W3C//DTD SVG 1.1//EN"
  "http://www.w3.org/Graphics/SVG/1.1/DTD/svg11.dtd">
<!-- Created with matplotlib (https://matplotlib.org/) -->
<svg height="325.986375pt" version="1.1" viewBox="0 0 898.12125 325.986375" width="898.12125pt" xmlns="http://www.w3.org/2000/svg" xmlns:xlink="http://www.w3.org/1999/xlink">
 <metadata>
  <rdf:RDF xmlns:cc="http://creativecommons.org/ns#" xmlns:dc="http://purl.org/dc/elements/1.1/" xmlns:rdf="http://www.w3.org/1999/02/22-rdf-syntax-ns#">
   <cc:Work>
    <dc:type rdf:resource="http://purl.org/dc/dcmitype/StillImage"/>
    <dc:date>2020-12-06T10:29:09.406102</dc:date>
    <dc:format>image/svg+xml</dc:format>
    <dc:creator>
     <cc:Agent>
      <dc:title>Matplotlib v3.3.3, https://matplotlib.org/</dc:title>
     </cc:Agent>
    </dc:creator>
   </cc:Work>
  </rdf:RDF>
 </metadata>
 <defs>
  <style type="text/css">*{stroke-linecap:butt;stroke-linejoin:round;}</style>
 </defs>
 <g id="figure_1">
  <g id="patch_1">
   <path d="M 0 325.986375 
L 898.12125 325.986375 
L 898.12125 0 
L 0 0 
z
" style="fill:#ffffff;"/>
  </g>
  <g id="axes_1">
   <g id="patch_2">
    <path d="M 53.328125 288.430125 
L 767.568125 288.430125 
L 767.568125 22.318125 
L 53.328125 22.318125 
z
" style="fill:#ffffff;"/>
   </g>
   <g id="matplotlib.axis_1">
    <g id="xtick_1">
     <g id="line2d_1">
      <defs>
       <path d="M 0 0 
L 0 3.5 
" id="mf40192c2cf" style="stroke:#000000;stroke-width:0.8;"/>
      </defs>
      <g>
       <use style="stroke:#000000;stroke-width:0.8;" x="85.79358" xlink:href="#mf40192c2cf" y="288.430125"/>
      </g>
     </g>
     <g id="text_1">
      <!-- 15m -->
      <g transform="translate(74.560767 303.028562)scale(0.1 -0.1)">
       <defs>
        <path d="M 12.40625 8.296875 
L 28.515625 8.296875 
L 28.515625 63.921875 
L 10.984375 60.40625 
L 10.984375 69.390625 
L 28.421875 72.90625 
L 38.28125 72.90625 
L 38.28125 8.296875 
L 54.390625 8.296875 
L 54.390625 0 
L 12.40625 0 
z
" id="DejaVuSans-49"/>
        <path d="M 10.796875 72.90625 
L 49.515625 72.90625 
L 49.515625 64.59375 
L 19.828125 64.59375 
L 19.828125 46.734375 
Q 21.96875 47.46875 24.109375 47.828125 
Q 26.265625 48.1875 28.421875 48.1875 
Q 40.625 48.1875 47.75 41.5 
Q 54.890625 34.8125 54.890625 23.390625 
Q 54.890625 11.625 47.5625 5.09375 
Q 40.234375 -1.421875 26.90625 -1.421875 
Q 22.3125 -1.421875 17.546875 -0.640625 
Q 12.796875 0.140625 7.71875 1.703125 
L 7.71875 11.625 
Q 12.109375 9.234375 16.796875 8.0625 
Q 21.484375 6.890625 26.703125 6.890625 
Q 35.15625 6.890625 40.078125 11.328125 
Q 45.015625 15.765625 45.015625 23.390625 
Q 45.015625 31 40.078125 35.4375 
Q 35.15625 39.890625 26.703125 39.890625 
Q 22.75 39.890625 18.8125 39.015625 
Q 14.890625 38.140625 10.796875 36.28125 
z
" id="DejaVuSans-53"/>
        <path d="M 52 44.1875 
Q 55.375 50.25 60.0625 53.125 
Q 64.75 56 71.09375 56 
Q 79.640625 56 84.28125 50.015625 
Q 88.921875 44.046875 88.921875 33.015625 
L 88.921875 0 
L 79.890625 0 
L 79.890625 32.71875 
Q 79.890625 40.578125 77.09375 44.375 
Q 74.3125 48.1875 68.609375 48.1875 
Q 61.625 48.1875 57.5625 43.546875 
Q 53.515625 38.921875 53.515625 30.90625 
L 53.515625 0 
L 44.484375 0 
L 44.484375 32.71875 
Q 44.484375 40.625 41.703125 44.40625 
Q 38.921875 48.1875 33.109375 48.1875 
Q 26.21875 48.1875 22.15625 43.53125 
Q 18.109375 38.875 18.109375 30.90625 
L 18.109375 0 
L 9.078125 0 
L 9.078125 54.6875 
L 18.109375 54.6875 
L 18.109375 46.1875 
Q 21.1875 51.21875 25.484375 53.609375 
Q 29.78125 56 35.6875 56 
Q 41.65625 56 45.828125 52.96875 
Q 50 49.953125 52 44.1875 
z
" id="DejaVuSans-109"/>
       </defs>
       <use xlink:href="#DejaVuSans-49"/>
       <use x="63.623047" xlink:href="#DejaVuSans-53"/>
       <use x="127.246094" xlink:href="#DejaVuSans-109"/>
      </g>
     </g>
    </g>
    <g id="xtick_2">
     <g id="line2d_2">
      <g>
       <use style="stroke:#000000;stroke-width:0.8;" x="140.497276" xlink:href="#mf40192c2cf" y="288.430125"/>
      </g>
     </g>
     <g id="text_2">
      <!-- 2h:10m -->
      <g transform="translate(121.230088 303.028562)scale(0.1 -0.1)">
       <defs>
        <path d="M 19.1875 8.296875 
L 53.609375 8.296875 
L 53.609375 0 
L 7.328125 0 
L 7.328125 8.296875 
Q 12.9375 14.109375 22.625 23.890625 
Q 32.328125 33.6875 34.8125 36.53125 
Q 39.546875 41.84375 41.421875 45.53125 
Q 43.3125 49.21875 43.3125 52.78125 
Q 43.3125 58.59375 39.234375 62.25 
Q 35.15625 65.921875 28.609375 65.921875 
Q 23.96875 65.921875 18.8125 64.3125 
Q 13.671875 62.703125 7.8125 59.421875 
L 7.8125 69.390625 
Q 13.765625 71.78125 18.9375 73 
Q 24.125 74.21875 28.421875 74.21875 
Q 39.75 74.21875 46.484375 68.546875 
Q 53.21875 62.890625 53.21875 53.421875 
Q 53.21875 48.921875 51.53125 44.890625 
Q 49.859375 40.875 45.40625 35.40625 
Q 44.1875 33.984375 37.640625 27.21875 
Q 31.109375 20.453125 19.1875 8.296875 
z
" id="DejaVuSans-50"/>
        <path d="M 54.890625 33.015625 
L 54.890625 0 
L 45.90625 0 
L 45.90625 32.71875 
Q 45.90625 40.484375 42.875 44.328125 
Q 39.84375 48.1875 33.796875 48.1875 
Q 26.515625 48.1875 22.3125 43.546875 
Q 18.109375 38.921875 18.109375 30.90625 
L 18.109375 0 
L 9.078125 0 
L 9.078125 75.984375 
L 18.109375 75.984375 
L 18.109375 46.1875 
Q 21.34375 51.125 25.703125 53.5625 
Q 30.078125 56 35.796875 56 
Q 45.21875 56 50.046875 50.171875 
Q 54.890625 44.34375 54.890625 33.015625 
z
" id="DejaVuSans-104"/>
        <path d="M 11.71875 12.40625 
L 22.015625 12.40625 
L 22.015625 0 
L 11.71875 0 
z
M 11.71875 51.703125 
L 22.015625 51.703125 
L 22.015625 39.3125 
L 11.71875 39.3125 
z
" id="DejaVuSans-58"/>
        <path d="M 31.78125 66.40625 
Q 24.171875 66.40625 20.328125 58.90625 
Q 16.5 51.421875 16.5 36.375 
Q 16.5 21.390625 20.328125 13.890625 
Q 24.171875 6.390625 31.78125 6.390625 
Q 39.453125 6.390625 43.28125 13.890625 
Q 47.125 21.390625 47.125 36.375 
Q 47.125 51.421875 43.28125 58.90625 
Q 39.453125 66.40625 31.78125 66.40625 
z
M 31.78125 74.21875 
Q 44.046875 74.21875 50.515625 64.515625 
Q 56.984375 54.828125 56.984375 36.375 
Q 56.984375 17.96875 50.515625 8.265625 
Q 44.046875 -1.421875 31.78125 -1.421875 
Q 19.53125 -1.421875 13.0625 8.265625 
Q 6.59375 17.96875 6.59375 36.375 
Q 6.59375 54.828125 13.0625 64.515625 
Q 19.53125 74.21875 31.78125 74.21875 
z
" id="DejaVuSans-48"/>
       </defs>
       <use xlink:href="#DejaVuSans-50"/>
       <use x="63.623047" xlink:href="#DejaVuSans-104"/>
       <use x="127.001953" xlink:href="#DejaVuSans-58"/>
       <use x="160.693359" xlink:href="#DejaVuSans-49"/>
       <use x="224.316406" xlink:href="#DejaVuSans-48"/>
       <use x="287.939453" xlink:href="#DejaVuSans-109"/>
      </g>
     </g>
    </g>
    <g id="xtick_3">
     <g id="line2d_3">
      <g>
       <use style="stroke:#000000;stroke-width:0.8;" x="195.200972" xlink:href="#mf40192c2cf" y="288.430125"/>
      </g>
     </g>
     <g id="text_3">
      <!-- 4h:5m -->
      <g transform="translate(179.115035 303.028562)scale(0.1 -0.1)">
       <defs>
        <path d="M 37.796875 64.3125 
L 12.890625 25.390625 
L 37.796875 25.390625 
z
M 35.203125 72.90625 
L 47.609375 72.90625 
L 47.609375 25.390625 
L 58.015625 25.390625 
L 58.015625 17.1875 
L 47.609375 17.1875 
L 47.609375 0 
L 37.796875 0 
L 37.796875 17.1875 
L 4.890625 17.1875 
L 4.890625 26.703125 
z
" id="DejaVuSans-52"/>
       </defs>
       <use xlink:href="#DejaVuSans-52"/>
       <use x="63.623047" xlink:href="#DejaVuSans-104"/>
       <use x="127.001953" xlink:href="#DejaVuSans-58"/>
       <use x="160.693359" xlink:href="#DejaVuSans-53"/>
       <use x="224.316406" xlink:href="#DejaVuSans-109"/>
      </g>
     </g>
    </g>
    <g id="xtick_4">
     <g id="line2d_4">
      <g>
       <use style="stroke:#000000;stroke-width:0.8;" x="249.904668" xlink:href="#mf40192c2cf" y="288.430125"/>
      </g>
     </g>
     <g id="text_4">
      <!-- 6h -->
      <g transform="translate(243.554668 303.028562)scale(0.1 -0.1)">
       <defs>
        <path d="M 33.015625 40.375 
Q 26.375 40.375 22.484375 35.828125 
Q 18.609375 31.296875 18.609375 23.390625 
Q 18.609375 15.53125 22.484375 10.953125 
Q 26.375 6.390625 33.015625 6.390625 
Q 39.65625 6.390625 43.53125 10.953125 
Q 47.40625 15.53125 47.40625 23.390625 
Q 47.40625 31.296875 43.53125 35.828125 
Q 39.65625 40.375 33.015625 40.375 
z
M 52.59375 71.296875 
L 52.59375 62.3125 
Q 48.875 64.0625 45.09375 64.984375 
Q 41.3125 65.921875 37.59375 65.921875 
Q 27.828125 65.921875 22.671875 59.328125 
Q 17.53125 52.734375 16.796875 39.40625 
Q 19.671875 43.65625 24.015625 45.921875 
Q 28.375 48.1875 33.59375 48.1875 
Q 44.578125 48.1875 50.953125 41.515625 
Q 57.328125 34.859375 57.328125 23.390625 
Q 57.328125 12.15625 50.6875 5.359375 
Q 44.046875 -1.421875 33.015625 -1.421875 
Q 20.359375 -1.421875 13.671875 8.265625 
Q 6.984375 17.96875 6.984375 36.375 
Q 6.984375 53.65625 15.1875 63.9375 
Q 23.390625 74.21875 37.203125 74.21875 
Q 40.921875 74.21875 44.703125 73.484375 
Q 48.484375 72.75 52.59375 71.296875 
z
" id="DejaVuSans-54"/>
       </defs>
       <use xlink:href="#DejaVuSans-54"/>
       <use x="63.623047" xlink:href="#DejaVuSans-104"/>
      </g>
     </g>
    </g>
    <g id="xtick_5">
     <g id="line2d_5">
      <g>
       <use style="stroke:#000000;stroke-width:0.8;" x="304.608365" xlink:href="#mf40192c2cf" y="288.430125"/>
      </g>
     </g>
     <g id="text_5">
      <!-- 7h:55m -->
      <g transform="translate(285.341177 303.028562)scale(0.1 -0.1)">
       <defs>
        <path d="M 8.203125 72.90625 
L 55.078125 72.90625 
L 55.078125 68.703125 
L 28.609375 0 
L 18.3125 0 
L 43.21875 64.59375 
L 8.203125 64.59375 
z
" id="DejaVuSans-55"/>
       </defs>
       <use xlink:href="#DejaVuSans-55"/>
       <use x="63.623047" xlink:href="#DejaVuSans-104"/>
       <use x="127.001953" xlink:href="#DejaVuSans-58"/>
       <use x="160.693359" xlink:href="#DejaVuSans-53"/>
       <use x="224.316406" xlink:href="#DejaVuSans-53"/>
       <use x="287.939453" xlink:href="#DejaVuSans-109"/>
      </g>
     </g>
    </g>
    <g id="xtick_6">
     <g id="line2d_6">
      <g>
       <use style="stroke:#000000;stroke-width:0.8;" x="359.312061" xlink:href="#mf40192c2cf" y="288.430125"/>
      </g>
     </g>
     <g id="text_6">
      <!-- 9h:50m -->
      <g transform="translate(340.044874 303.028562)scale(0.1 -0.1)">
       <defs>
        <path d="M 10.984375 1.515625 
L 10.984375 10.5 
Q 14.703125 8.734375 18.5 7.8125 
Q 22.3125 6.890625 25.984375 6.890625 
Q 35.75 6.890625 40.890625 13.453125 
Q 46.046875 20.015625 46.78125 33.40625 
Q 43.953125 29.203125 39.59375 26.953125 
Q 35.25 24.703125 29.984375 24.703125 
Q 19.046875 24.703125 12.671875 31.3125 
Q 6.296875 37.9375 6.296875 49.421875 
Q 6.296875 60.640625 12.9375 67.421875 
Q 19.578125 74.21875 30.609375 74.21875 
Q 43.265625 74.21875 49.921875 64.515625 
Q 56.59375 54.828125 56.59375 36.375 
Q 56.59375 19.140625 48.40625 8.859375 
Q 40.234375 -1.421875 26.421875 -1.421875 
Q 22.703125 -1.421875 18.890625 -0.6875 
Q 15.09375 0.046875 10.984375 1.515625 
z
M 30.609375 32.421875 
Q 37.25 32.421875 41.125 36.953125 
Q 45.015625 41.5 45.015625 49.421875 
Q 45.015625 57.28125 41.125 61.84375 
Q 37.25 66.40625 30.609375 66.40625 
Q 23.96875 66.40625 20.09375 61.84375 
Q 16.21875 57.28125 16.21875 49.421875 
Q 16.21875 41.5 20.09375 36.953125 
Q 23.96875 32.421875 30.609375 32.421875 
z
" id="DejaVuSans-57"/>
       </defs>
       <use xlink:href="#DejaVuSans-57"/>
       <use x="63.623047" xlink:href="#DejaVuSans-104"/>
       <use x="127.001953" xlink:href="#DejaVuSans-58"/>
       <use x="160.693359" xlink:href="#DejaVuSans-53"/>
       <use x="224.316406" xlink:href="#DejaVuSans-48"/>
       <use x="287.939453" xlink:href="#DejaVuSans-109"/>
      </g>
     </g>
    </g>
    <g id="xtick_7">
     <g id="line2d_7">
      <g>
       <use style="stroke:#000000;stroke-width:0.8;" x="414.015757" xlink:href="#mf40192c2cf" y="288.430125"/>
      </g>
     </g>
     <g id="text_7">
      <!-- 11h:45m -->
      <g transform="translate(391.56732 303.028562)scale(0.1 -0.1)">
       <use xlink:href="#DejaVuSans-49"/>
       <use x="63.623047" xlink:href="#DejaVuSans-49"/>
       <use x="127.246094" xlink:href="#DejaVuSans-104"/>
       <use x="190.625" xlink:href="#DejaVuSans-58"/>
       <use x="224.316406" xlink:href="#DejaVuSans-52"/>
       <use x="287.939453" xlink:href="#DejaVuSans-53"/>
       <use x="351.5625" xlink:href="#DejaVuSans-109"/>
      </g>
     </g>
    </g>
    <g id="xtick_8">
     <g id="line2d_8">
      <g>
       <use style="stroke:#000000;stroke-width:0.8;" x="468.719454" xlink:href="#mf40192c2cf" y="288.430125"/>
      </g>
     </g>
     <g id="text_8">
      <!-- 13h:40m -->
      <g transform="translate(446.271016 303.028562)scale(0.1 -0.1)">
       <defs>
        <path d="M 40.578125 39.3125 
Q 47.65625 37.796875 51.625 33 
Q 55.609375 28.21875 55.609375 21.1875 
Q 55.609375 10.40625 48.1875 4.484375 
Q 40.765625 -1.421875 27.09375 -1.421875 
Q 22.515625 -1.421875 17.65625 -0.515625 
Q 12.796875 0.390625 7.625 2.203125 
L 7.625 11.71875 
Q 11.71875 9.328125 16.59375 8.109375 
Q 21.484375 6.890625 26.8125 6.890625 
Q 36.078125 6.890625 40.9375 10.546875 
Q 45.796875 14.203125 45.796875 21.1875 
Q 45.796875 27.640625 41.28125 31.265625 
Q 36.765625 34.90625 28.71875 34.90625 
L 20.21875 34.90625 
L 20.21875 43.015625 
L 29.109375 43.015625 
Q 36.375 43.015625 40.234375 45.921875 
Q 44.09375 48.828125 44.09375 54.296875 
Q 44.09375 59.90625 40.109375 62.90625 
Q 36.140625 65.921875 28.71875 65.921875 
Q 24.65625 65.921875 20.015625 65.03125 
Q 15.375 64.15625 9.8125 62.3125 
L 9.8125 71.09375 
Q 15.4375 72.65625 20.34375 73.4375 
Q 25.25 74.21875 29.59375 74.21875 
Q 40.828125 74.21875 47.359375 69.109375 
Q 53.90625 64.015625 53.90625 55.328125 
Q 53.90625 49.265625 50.4375 45.09375 
Q 46.96875 40.921875 40.578125 39.3125 
z
" id="DejaVuSans-51"/>
       </defs>
       <use xlink:href="#DejaVuSans-49"/>
       <use x="63.623047" xlink:href="#DejaVuSans-51"/>
       <use x="127.246094" xlink:href="#DejaVuSans-104"/>
       <use x="190.625" xlink:href="#DejaVuSans-58"/>
       <use x="224.316406" xlink:href="#DejaVuSans-52"/>
       <use x="287.939453" xlink:href="#DejaVuSans-48"/>
       <use x="351.5625" xlink:href="#DejaVuSans-109"/>
      </g>
     </g>
    </g>
    <g id="xtick_9">
     <g id="line2d_9">
      <g>
       <use style="stroke:#000000;stroke-width:0.8;" x="523.42315" xlink:href="#mf40192c2cf" y="288.430125"/>
      </g>
     </g>
     <g id="text_9">
      <!-- 15h:35m -->
      <g transform="translate(500.974712 303.028562)scale(0.1 -0.1)">
       <use xlink:href="#DejaVuSans-49"/>
       <use x="63.623047" xlink:href="#DejaVuSans-53"/>
       <use x="127.246094" xlink:href="#DejaVuSans-104"/>
       <use x="190.625" xlink:href="#DejaVuSans-58"/>
       <use x="224.316406" xlink:href="#DejaVuSans-51"/>
       <use x="287.939453" xlink:href="#DejaVuSans-53"/>
       <use x="351.5625" xlink:href="#DejaVuSans-109"/>
      </g>
     </g>
    </g>
    <g id="xtick_10">
     <g id="line2d_10">
      <g>
       <use style="stroke:#000000;stroke-width:0.8;" x="578.126846" xlink:href="#mf40192c2cf" y="288.430125"/>
      </g>
     </g>
     <g id="text_10">
      <!-- 17h:30m -->
      <g transform="translate(555.678409 303.028562)scale(0.1 -0.1)">
       <use xlink:href="#DejaVuSans-49"/>
       <use x="63.623047" xlink:href="#DejaVuSans-55"/>
       <use x="127.246094" xlink:href="#DejaVuSans-104"/>
       <use x="190.625" xlink:href="#DejaVuSans-58"/>
       <use x="224.316406" xlink:href="#DejaVuSans-51"/>
       <use x="287.939453" xlink:href="#DejaVuSans-48"/>
       <use x="351.5625" xlink:href="#DejaVuSans-109"/>
      </g>
     </g>
    </g>
    <g id="xtick_11">
     <g id="line2d_11">
      <g>
       <use style="stroke:#000000;stroke-width:0.8;" x="632.830543" xlink:href="#mf40192c2cf" y="288.430125"/>
      </g>
     </g>
     <g id="text_11">
      <!-- 19h:25m -->
      <g transform="translate(610.382105 303.028562)scale(0.1 -0.1)">
       <use xlink:href="#DejaVuSans-49"/>
       <use x="63.623047" xlink:href="#DejaVuSans-57"/>
       <use x="127.246094" xlink:href="#DejaVuSans-104"/>
       <use x="190.625" xlink:href="#DejaVuSans-58"/>
       <use x="224.316406" xlink:href="#DejaVuSans-50"/>
       <use x="287.939453" xlink:href="#DejaVuSans-53"/>
       <use x="351.5625" xlink:href="#DejaVuSans-109"/>
      </g>
     </g>
    </g>
    <g id="xtick_12">
     <g id="line2d_12">
      <g>
       <use style="stroke:#000000;stroke-width:0.8;" x="687.534239" xlink:href="#mf40192c2cf" y="288.430125"/>
      </g>
     </g>
     <g id="text_12">
      <!-- 21h:20m -->
      <g transform="translate(665.085801 303.028562)scale(0.1 -0.1)">
       <use xlink:href="#DejaVuSans-50"/>
       <use x="63.623047" xlink:href="#DejaVuSans-49"/>
       <use x="127.246094" xlink:href="#DejaVuSans-104"/>
       <use x="190.625" xlink:href="#DejaVuSans-58"/>
       <use x="224.316406" xlink:href="#DejaVuSans-50"/>
       <use x="287.939453" xlink:href="#DejaVuSans-48"/>
       <use x="351.5625" xlink:href="#DejaVuSans-109"/>
      </g>
     </g>
    </g>
    <g id="text_13">
     <!-- Time (hour:minute) -->
     <g transform="translate(362.041094 316.706687)scale(0.1 -0.1)">
      <defs>
       <path d="M -0.296875 72.90625 
L 61.375 72.90625 
L 61.375 64.59375 
L 35.5 64.59375 
L 35.5 0 
L 25.59375 0 
L 25.59375 64.59375 
L -0.296875 64.59375 
z
" id="DejaVuSans-84"/>
       <path d="M 9.421875 54.6875 
L 18.40625 54.6875 
L 18.40625 0 
L 9.421875 0 
z
M 9.421875 75.984375 
L 18.40625 75.984375 
L 18.40625 64.59375 
L 9.421875 64.59375 
z
" id="DejaVuSans-105"/>
       <path d="M 56.203125 29.59375 
L 56.203125 25.203125 
L 14.890625 25.203125 
Q 15.484375 15.921875 20.484375 11.0625 
Q 25.484375 6.203125 34.421875 6.203125 
Q 39.59375 6.203125 44.453125 7.46875 
Q 49.3125 8.734375 54.109375 11.28125 
L 54.109375 2.78125 
Q 49.265625 0.734375 44.1875 -0.34375 
Q 39.109375 -1.421875 33.890625 -1.421875 
Q 20.796875 -1.421875 13.15625 6.1875 
Q 5.515625 13.8125 5.515625 26.8125 
Q 5.515625 40.234375 12.765625 48.109375 
Q 20.015625 56 32.328125 56 
Q 43.359375 56 49.78125 48.890625 
Q 56.203125 41.796875 56.203125 29.59375 
z
M 47.21875 32.234375 
Q 47.125 39.59375 43.09375 43.984375 
Q 39.0625 48.390625 32.421875 48.390625 
Q 24.90625 48.390625 20.390625 44.140625 
Q 15.875 39.890625 15.1875 32.171875 
z
" id="DejaVuSans-101"/>
       <path id="DejaVuSans-32"/>
       <path d="M 31 75.875 
Q 24.46875 64.65625 21.28125 53.65625 
Q 18.109375 42.671875 18.109375 31.390625 
Q 18.109375 20.125 21.3125 9.0625 
Q 24.515625 -2 31 -13.1875 
L 23.1875 -13.1875 
Q 15.875 -1.703125 12.234375 9.375 
Q 8.59375 20.453125 8.59375 31.390625 
Q 8.59375 42.28125 12.203125 53.3125 
Q 15.828125 64.359375 23.1875 75.875 
z
" id="DejaVuSans-40"/>
       <path d="M 30.609375 48.390625 
Q 23.390625 48.390625 19.1875 42.75 
Q 14.984375 37.109375 14.984375 27.296875 
Q 14.984375 17.484375 19.15625 11.84375 
Q 23.34375 6.203125 30.609375 6.203125 
Q 37.796875 6.203125 41.984375 11.859375 
Q 46.1875 17.53125 46.1875 27.296875 
Q 46.1875 37.015625 41.984375 42.703125 
Q 37.796875 48.390625 30.609375 48.390625 
z
M 30.609375 56 
Q 42.328125 56 49.015625 48.375 
Q 55.71875 40.765625 55.71875 27.296875 
Q 55.71875 13.875 49.015625 6.21875 
Q 42.328125 -1.421875 30.609375 -1.421875 
Q 18.84375 -1.421875 12.171875 6.21875 
Q 5.515625 13.875 5.515625 27.296875 
Q 5.515625 40.765625 12.171875 48.375 
Q 18.84375 56 30.609375 56 
z
" id="DejaVuSans-111"/>
       <path d="M 8.5 21.578125 
L 8.5 54.6875 
L 17.484375 54.6875 
L 17.484375 21.921875 
Q 17.484375 14.15625 20.5 10.265625 
Q 23.53125 6.390625 29.59375 6.390625 
Q 36.859375 6.390625 41.078125 11.03125 
Q 45.3125 15.671875 45.3125 23.6875 
L 45.3125 54.6875 
L 54.296875 54.6875 
L 54.296875 0 
L 45.3125 0 
L 45.3125 8.40625 
Q 42.046875 3.421875 37.71875 1 
Q 33.40625 -1.421875 27.6875 -1.421875 
Q 18.265625 -1.421875 13.375 4.4375 
Q 8.5 10.296875 8.5 21.578125 
z
M 31.109375 56 
z
" id="DejaVuSans-117"/>
       <path d="M 41.109375 46.296875 
Q 39.59375 47.171875 37.8125 47.578125 
Q 36.03125 48 33.890625 48 
Q 26.265625 48 22.1875 43.046875 
Q 18.109375 38.09375 18.109375 28.8125 
L 18.109375 0 
L 9.078125 0 
L 9.078125 54.6875 
L 18.109375 54.6875 
L 18.109375 46.1875 
Q 20.953125 51.171875 25.484375 53.578125 
Q 30.03125 56 36.53125 56 
Q 37.453125 56 38.578125 55.875 
Q 39.703125 55.765625 41.0625 55.515625 
z
" id="DejaVuSans-114"/>
       <path d="M 54.890625 33.015625 
L 54.890625 0 
L 45.90625 0 
L 45.90625 32.71875 
Q 45.90625 40.484375 42.875 44.328125 
Q 39.84375 48.1875 33.796875 48.1875 
Q 26.515625 48.1875 22.3125 43.546875 
Q 18.109375 38.921875 18.109375 30.90625 
L 18.109375 0 
L 9.078125 0 
L 9.078125 54.6875 
L 18.109375 54.6875 
L 18.109375 46.1875 
Q 21.34375 51.125 25.703125 53.5625 
Q 30.078125 56 35.796875 56 
Q 45.21875 56 50.046875 50.171875 
Q 54.890625 44.34375 54.890625 33.015625 
z
" id="DejaVuSans-110"/>
       <path d="M 18.3125 70.21875 
L 18.3125 54.6875 
L 36.8125 54.6875 
L 36.8125 47.703125 
L 18.3125 47.703125 
L 18.3125 18.015625 
Q 18.3125 11.328125 20.140625 9.421875 
Q 21.96875 7.515625 27.59375 7.515625 
L 36.8125 7.515625 
L 36.8125 0 
L 27.59375 0 
Q 17.1875 0 13.234375 3.875 
Q 9.28125 7.765625 9.28125 18.015625 
L 9.28125 47.703125 
L 2.6875 47.703125 
L 2.6875 54.6875 
L 9.28125 54.6875 
L 9.28125 70.21875 
z
" id="DejaVuSans-116"/>
       <path d="M 8.015625 75.875 
L 15.828125 75.875 
Q 23.140625 64.359375 26.78125 53.3125 
Q 30.421875 42.28125 30.421875 31.390625 
Q 30.421875 20.453125 26.78125 9.375 
Q 23.140625 -1.703125 15.828125 -13.1875 
L 8.015625 -13.1875 
Q 14.5 -2 17.703125 9.0625 
Q 20.90625 20.125 20.90625 31.390625 
Q 20.90625 42.671875 17.703125 53.65625 
Q 14.5 64.65625 8.015625 75.875 
z
" id="DejaVuSans-41"/>
      </defs>
      <use xlink:href="#DejaVuSans-84"/>
      <use x="57.958984" xlink:href="#DejaVuSans-105"/>
      <use x="85.742188" xlink:href="#DejaVuSans-109"/>
      <use x="183.154297" xlink:href="#DejaVuSans-101"/>
      <use x="244.677734" xlink:href="#DejaVuSans-32"/>
      <use x="276.464844" xlink:href="#DejaVuSans-40"/>
      <use x="315.478516" xlink:href="#DejaVuSans-104"/>
      <use x="378.857422" xlink:href="#DejaVuSans-111"/>
      <use x="440.039062" xlink:href="#DejaVuSans-117"/>
      <use x="503.417969" xlink:href="#DejaVuSans-114"/>
      <use x="542.78125" xlink:href="#DejaVuSans-58"/>
      <use x="576.472656" xlink:href="#DejaVuSans-109"/>
      <use x="673.884766" xlink:href="#DejaVuSans-105"/>
      <use x="701.667969" xlink:href="#DejaVuSans-110"/>
      <use x="765.046875" xlink:href="#DejaVuSans-117"/>
      <use x="828.425781" xlink:href="#DejaVuSans-116"/>
      <use x="867.634766" xlink:href="#DejaVuSans-101"/>
      <use x="929.158203" xlink:href="#DejaVuSans-41"/>
     </g>
    </g>
   </g>
   <g id="matplotlib.axis_2">
    <g id="ytick_1">
     <g id="line2d_13">
      <defs>
       <path d="M 0 0 
L -3.5 0 
" id="m1ce968f684" style="stroke:#000000;stroke-width:0.8;"/>
      </defs>
      <g>
       <use style="stroke:#000000;stroke-width:0.8;" x="53.328125" xlink:href="#m1ce968f684" y="265.448428"/>
      </g>
     </g>
     <g id="text_14">
      <!-- 2000 -->
      <g transform="translate(20.878125 269.247646)scale(0.1 -0.1)">
       <use xlink:href="#DejaVuSans-50"/>
       <use x="63.623047" xlink:href="#DejaVuSans-48"/>
       <use x="127.246094" xlink:href="#DejaVuSans-48"/>
       <use x="190.869141" xlink:href="#DejaVuSans-48"/>
      </g>
     </g>
    </g>
    <g id="ytick_2">
     <g id="line2d_14">
      <g>
       <use style="stroke:#000000;stroke-width:0.8;" x="53.328125" xlink:href="#m1ce968f684" y="223.507771"/>
      </g>
     </g>
     <g id="text_15">
      <!-- 3000 -->
      <g transform="translate(20.878125 227.306989)scale(0.1 -0.1)">
       <use xlink:href="#DejaVuSans-51"/>
       <use x="63.623047" xlink:href="#DejaVuSans-48"/>
       <use x="127.246094" xlink:href="#DejaVuSans-48"/>
       <use x="190.869141" xlink:href="#DejaVuSans-48"/>
      </g>
     </g>
    </g>
    <g id="ytick_3">
     <g id="line2d_15">
      <g>
       <use style="stroke:#000000;stroke-width:0.8;" x="53.328125" xlink:href="#m1ce968f684" y="181.567114"/>
      </g>
     </g>
     <g id="text_16">
      <!-- 4000 -->
      <g transform="translate(20.878125 185.366332)scale(0.1 -0.1)">
       <use xlink:href="#DejaVuSans-52"/>
       <use x="63.623047" xlink:href="#DejaVuSans-48"/>
       <use x="127.246094" xlink:href="#DejaVuSans-48"/>
       <use x="190.869141" xlink:href="#DejaVuSans-48"/>
      </g>
     </g>
    </g>
    <g id="ytick_4">
     <g id="line2d_16">
      <g>
       <use style="stroke:#000000;stroke-width:0.8;" x="53.328125" xlink:href="#m1ce968f684" y="139.626457"/>
      </g>
     </g>
     <g id="text_17">
      <!-- 5000 -->
      <g transform="translate(20.878125 143.425676)scale(0.1 -0.1)">
       <use xlink:href="#DejaVuSans-53"/>
       <use x="63.623047" xlink:href="#DejaVuSans-48"/>
       <use x="127.246094" xlink:href="#DejaVuSans-48"/>
       <use x="190.869141" xlink:href="#DejaVuSans-48"/>
      </g>
     </g>
    </g>
    <g id="ytick_5">
     <g id="line2d_17">
      <g>
       <use style="stroke:#000000;stroke-width:0.8;" x="53.328125" xlink:href="#m1ce968f684" y="97.6858"/>
      </g>
     </g>
     <g id="text_18">
      <!-- 6000 -->
      <g transform="translate(20.878125 101.485019)scale(0.1 -0.1)">
       <use xlink:href="#DejaVuSans-54"/>
       <use x="63.623047" xlink:href="#DejaVuSans-48"/>
       <use x="127.246094" xlink:href="#DejaVuSans-48"/>
       <use x="190.869141" xlink:href="#DejaVuSans-48"/>
      </g>
     </g>
    </g>
    <g id="ytick_6">
     <g id="line2d_18">
      <g>
       <use style="stroke:#000000;stroke-width:0.8;" x="53.328125" xlink:href="#m1ce968f684" y="55.745143"/>
      </g>
     </g>
     <g id="text_19">
      <!-- 7000 -->
      <g transform="translate(20.878125 59.544362)scale(0.1 -0.1)">
       <use xlink:href="#DejaVuSans-55"/>
       <use x="63.623047" xlink:href="#DejaVuSans-48"/>
       <use x="127.246094" xlink:href="#DejaVuSans-48"/>
       <use x="190.869141" xlink:href="#DejaVuSans-48"/>
      </g>
     </g>
    </g>
    <g id="text_20">
     <!-- Edge coverage -->
     <g transform="translate(14.798438 192.762406)rotate(-90)scale(0.1 -0.1)">
      <defs>
       <path d="M 9.8125 72.90625 
L 55.90625 72.90625 
L 55.90625 64.59375 
L 19.671875 64.59375 
L 19.671875 43.015625 
L 54.390625 43.015625 
L 54.390625 34.71875 
L 19.671875 34.71875 
L 19.671875 8.296875 
L 56.78125 8.296875 
L 56.78125 0 
L 9.8125 0 
z
" id="DejaVuSans-69"/>
       <path d="M 45.40625 46.390625 
L 45.40625 75.984375 
L 54.390625 75.984375 
L 54.390625 0 
L 45.40625 0 
L 45.40625 8.203125 
Q 42.578125 3.328125 38.25 0.953125 
Q 33.9375 -1.421875 27.875 -1.421875 
Q 17.96875 -1.421875 11.734375 6.484375 
Q 5.515625 14.40625 5.515625 27.296875 
Q 5.515625 40.1875 11.734375 48.09375 
Q 17.96875 56 27.875 56 
Q 33.9375 56 38.25 53.625 
Q 42.578125 51.265625 45.40625 46.390625 
z
M 14.796875 27.296875 
Q 14.796875 17.390625 18.875 11.75 
Q 22.953125 6.109375 30.078125 6.109375 
Q 37.203125 6.109375 41.296875 11.75 
Q 45.40625 17.390625 45.40625 27.296875 
Q 45.40625 37.203125 41.296875 42.84375 
Q 37.203125 48.484375 30.078125 48.484375 
Q 22.953125 48.484375 18.875 42.84375 
Q 14.796875 37.203125 14.796875 27.296875 
z
" id="DejaVuSans-100"/>
       <path d="M 45.40625 27.984375 
Q 45.40625 37.75 41.375 43.109375 
Q 37.359375 48.484375 30.078125 48.484375 
Q 22.859375 48.484375 18.828125 43.109375 
Q 14.796875 37.75 14.796875 27.984375 
Q 14.796875 18.265625 18.828125 12.890625 
Q 22.859375 7.515625 30.078125 7.515625 
Q 37.359375 7.515625 41.375 12.890625 
Q 45.40625 18.265625 45.40625 27.984375 
z
M 54.390625 6.78125 
Q 54.390625 -7.171875 48.1875 -13.984375 
Q 42 -20.796875 29.203125 -20.796875 
Q 24.46875 -20.796875 20.265625 -20.09375 
Q 16.0625 -19.390625 12.109375 -17.921875 
L 12.109375 -9.1875 
Q 16.0625 -11.328125 19.921875 -12.34375 
Q 23.78125 -13.375 27.78125 -13.375 
Q 36.625 -13.375 41.015625 -8.765625 
Q 45.40625 -4.15625 45.40625 5.171875 
L 45.40625 9.625 
Q 42.625 4.78125 38.28125 2.390625 
Q 33.9375 0 27.875 0 
Q 17.828125 0 11.671875 7.65625 
Q 5.515625 15.328125 5.515625 27.984375 
Q 5.515625 40.671875 11.671875 48.328125 
Q 17.828125 56 27.875 56 
Q 33.9375 56 38.28125 53.609375 
Q 42.625 51.21875 45.40625 46.390625 
L 45.40625 54.6875 
L 54.390625 54.6875 
z
" id="DejaVuSans-103"/>
       <path d="M 48.78125 52.59375 
L 48.78125 44.1875 
Q 44.96875 46.296875 41.140625 47.34375 
Q 37.3125 48.390625 33.40625 48.390625 
Q 24.65625 48.390625 19.8125 42.84375 
Q 14.984375 37.3125 14.984375 27.296875 
Q 14.984375 17.28125 19.8125 11.734375 
Q 24.65625 6.203125 33.40625 6.203125 
Q 37.3125 6.203125 41.140625 7.25 
Q 44.96875 8.296875 48.78125 10.40625 
L 48.78125 2.09375 
Q 45.015625 0.34375 40.984375 -0.53125 
Q 36.96875 -1.421875 32.421875 -1.421875 
Q 20.0625 -1.421875 12.78125 6.34375 
Q 5.515625 14.109375 5.515625 27.296875 
Q 5.515625 40.671875 12.859375 48.328125 
Q 20.21875 56 33.015625 56 
Q 37.15625 56 41.109375 55.140625 
Q 45.0625 54.296875 48.78125 52.59375 
z
" id="DejaVuSans-99"/>
       <path d="M 2.984375 54.6875 
L 12.5 54.6875 
L 29.59375 8.796875 
L 46.6875 54.6875 
L 56.203125 54.6875 
L 35.6875 0 
L 23.484375 0 
z
" id="DejaVuSans-118"/>
       <path d="M 34.28125 27.484375 
Q 23.390625 27.484375 19.1875 25 
Q 14.984375 22.515625 14.984375 16.5 
Q 14.984375 11.71875 18.140625 8.90625 
Q 21.296875 6.109375 26.703125 6.109375 
Q 34.1875 6.109375 38.703125 11.40625 
Q 43.21875 16.703125 43.21875 25.484375 
L 43.21875 27.484375 
z
M 52.203125 31.203125 
L 52.203125 0 
L 43.21875 0 
L 43.21875 8.296875 
Q 40.140625 3.328125 35.546875 0.953125 
Q 30.953125 -1.421875 24.3125 -1.421875 
Q 15.921875 -1.421875 10.953125 3.296875 
Q 6 8.015625 6 15.921875 
Q 6 25.140625 12.171875 29.828125 
Q 18.359375 34.515625 30.609375 34.515625 
L 43.21875 34.515625 
L 43.21875 35.40625 
Q 43.21875 41.609375 39.140625 45 
Q 35.0625 48.390625 27.6875 48.390625 
Q 23 48.390625 18.546875 47.265625 
Q 14.109375 46.140625 10.015625 43.890625 
L 10.015625 52.203125 
Q 14.9375 54.109375 19.578125 55.046875 
Q 24.21875 56 28.609375 56 
Q 40.484375 56 46.34375 49.84375 
Q 52.203125 43.703125 52.203125 31.203125 
z
" id="DejaVuSans-97"/>
      </defs>
      <use xlink:href="#DejaVuSans-69"/>
      <use x="63.183594" xlink:href="#DejaVuSans-100"/>
      <use x="126.660156" xlink:href="#DejaVuSans-103"/>
      <use x="190.136719" xlink:href="#DejaVuSans-101"/>
      <use x="251.660156" xlink:href="#DejaVuSans-32"/>
      <use x="283.447266" xlink:href="#DejaVuSans-99"/>
      <use x="338.427734" xlink:href="#DejaVuSans-111"/>
      <use x="399.609375" xlink:href="#DejaVuSans-118"/>
      <use x="458.789062" xlink:href="#DejaVuSans-101"/>
      <use x="520.3125" xlink:href="#DejaVuSans-114"/>
      <use x="561.425781" xlink:href="#DejaVuSans-97"/>
      <use x="622.705078" xlink:href="#DejaVuSans-103"/>
      <use x="686.181641" xlink:href="#DejaVuSans-101"/>
     </g>
    </g>
   </g>
   <g id="line2d_19">
    <path clip-path="url(#p227a06e236)" d="M 85.79358 151.915069 
L 92.928844 65.611683 
L 100.064109 56.135191 
L 107.199374 53.744574 
L 114.334638 51.611891 
L 121.469903 50.250917 
L 128.605168 49.126907 
L 135.740433 48.250348 
L 142.875697 47.206025 
L 150.010962 46.398668 
L 157.146227 45.599698 
L 164.281492 45.316599 
L 171.416756 45.01882 
L 178.552021 44.681198 
L 185.687286 44.167425 
L 192.822551 44.058379 
L 199.957815 43.808832 
L 207.09308 43.437657 
L 214.228345 43.305544 
L 221.36361 43.108423 
L 228.498874 42.915496 
L 235.634139 42.588359 
L 242.769404 42.489798 
L 249.904668 42.414305 
L 257.039933 42.315745 
L 264.175198 41.588074 
L 271.310463 41.000905 
L 278.445727 40.701029 
L 285.580992 40.470356 
L 292.716257 40.388572 
L 299.851522 40.483159 
L 306.986786 40.238137 
L 314.122051 40.12556 
L 321.257316 40.112315 
L 328.392581 40.015189 
L 335.527845 39.794449 
L 342.66311 39.701738 
L 349.798375 39.571501 
L 356.933639 39.434642 
L 364.068904 39.405946 
L 371.204169 39.370628 
L 378.339434 39.224939 
L 385.474698 39.087712 
L 392.609963 38.910629 
L 399.745228 38.791798 
L 406.880493 38.647335 
L 414.015757 39.240261 
L 421.151022 39.21559 
L 428.286287 39.183518 
L 435.421552 38.902269 
L 442.556816 38.672829 
L 449.692081 38.660493 
L 456.827346 38.327435 
L 463.962611 38.322501 
L 471.097875 38.276859 
L 478.23314 38.022594 
L 485.368405 37.878423 
L 492.503669 37.83124 
L 499.638934 37.742116 
L 506.774199 37.107764 
L 513.909464 36.995048 
L 521.044728 36.895439 
L 528.179993 36.614961 
L 535.315258 36.544186 
L 542.450523 36.525837 
L 549.585787 36.420985 
L 556.721052 36.376423 
L 563.856317 36.355453 
L 570.991582 36.182448 
L 578.126846 36.093324 
L 585.262111 35.977987 
L 592.397376 35.970123 
L 599.53264 35.692267 
L 606.667905 35.346256 
L 613.80317 35.314801 
L 620.938435 35.227774 
L 628.073699 35.166261 
L 635.208964 35.01807 
L 642.344229 35.00409 
L 649.479494 34.88386 
L 656.614758 34.850308 
L 663.750023 34.833532 
L 670.885288 34.802775 
L 678.020553 34.74965 
L 685.155817 34.682545 
L 692.291082 34.60146 
L 699.426347 34.60146 
L 706.561612 34.58748 
L 713.696876 34.461658 
L 720.832141 34.458862 
L 727.967406 34.458862 
L 735.10267 34.414125 
" style="fill:none;stroke:#ff7f0e;stroke-linecap:square;stroke-width:1.5;"/>
   </g>
   <g id="line2d_20">
    <path clip-path="url(#p227a06e236)" d="M 85.79358 143.132696 
L 92.928844 64.634465 
L 100.064109 58.269971 
L 107.199374 55.55641 
L 114.334638 53.671178 
L 121.469903 52.528295 
L 128.605168 51.616085 
L 135.740433 50.961811 
L 142.875697 50.416583 
L 150.010962 49.135296 
L 157.146227 48.401334 
L 164.281492 47.63382 
L 171.416756 47.149405 
L 178.552021 46.669185 
L 185.687286 46.188964 
L 192.822551 45.811499 
L 199.957815 45.42145 
L 207.09308 45.236912 
L 214.228345 44.975224 
L 221.36361 44.800839 
L 228.498874 44.617625 
L 235.634139 44.456484 
L 242.769404 44.072396 
L 249.904668 43.920085 
L 257.039933 43.547034 
L 264.175198 43.068028 
L 271.310463 42.995183 
L 278.445727 42.864947 
L 285.580992 42.160785 
L 292.716257 42.017304 
L 299.851522 41.869408 
L 306.986786 41.792149 
L 314.122051 41.310935 
L 321.257316 41.079158 
L 328.392581 40.86504 
L 335.527845 40.560418 
L 342.66311 40.372789 
L 349.798375 40.352922 
L 356.933639 39.968834 
L 364.068904 39.931308 
L 371.204169 39.865086 
L 378.339434 39.803279 
L 385.474698 39.706153 
L 392.609963 39.578124 
L 399.745228 39.53839 
L 406.880493 39.454509 
L 414.015757 39.410361 
L 421.151022 39.169754 
L 428.286287 39.118984 
L 435.421552 39.063799 
L 442.556816 38.655429 
L 449.692081 38.529607 
L 456.827346 38.447933 
L 463.962611 38.372882 
L 471.097875 38.148707 
L 478.23314 38.139387 
L 485.368405 38.132397 
L 492.503669 37.911044 
L 499.638934 37.806192 
L 506.774199 37.785222 
L 513.909464 37.778232 
L 521.044728 37.67571 
L 528.179993 37.573188 
L 535.315258 37.372805 
L 542.450523 37.316884 
L 549.585787 37.184072 
L 556.721052 37.177082 
L 563.856317 37.086211 
L 570.991582 37.05825 
L 578.126846 36.920778 
L 585.262111 36.741365 
L 592.397376 36.694765 
L 599.53264 36.617874 
L 606.667905 36.256718 
L 613.80317 36.144876 
L 620.938435 36.095945 
L 628.073699 36.065655 
L 635.208964 36.420369 
L 642.344229 36.262474 
L 649.479494 36.260007 
L 656.614758 35.778923 
L 663.750023 35.714779 
L 670.885288 35.623496 
L 678.020553 35.514944 
L 685.155817 35.480405 
L 692.291082 35.468069 
L 699.426347 35.443398 
L 706.561612 35.320043 
L 713.696876 34.801953 
L 720.832141 34.607052 
L 727.967406 34.500967 
L 735.10267 34.461493 
" style="fill:none;stroke:#2ca02c;stroke-linecap:square;stroke-width:1.5;"/>
   </g>
   <g id="line2d_21">
    <path clip-path="url(#p227a06e236)" d="M 85.79358 247.229406 
L 92.928844 215.308372 
L 100.064109 196.124716 
L 107.199374 185.129973 
L 114.334638 172.845554 
L 121.469903 164.709067 
L 128.605168 157.270891 
L 135.740433 150.208085 
L 142.875697 145.135362 
L 150.010962 140.708526 
L 157.146227 135.184941 
L 164.281492 131.515134 
L 171.416756 128.312965 
L 178.552021 124.458618 
L 185.687286 121.227091 
L 192.822551 119.188775 
L 199.957815 116.177436 
L 207.09308 113.359023 
L 214.228345 111.563963 
L 221.36361 109.339011 
L 228.498874 106.895968 
L 235.634139 105.067356 
L 242.769404 102.80256 
L 249.904668 101.795984 
L 257.039933 99.747183 
L 264.175198 98.017131 
L 271.310463 96.530335 
L 278.445727 95.997689 
L 285.580992 94.51928 
L 292.716257 93.510608 
L 299.851522 92.627757 
L 306.986786 91.556173 
L 314.122051 90.035824 
L 321.257316 89.07748 
L 328.392581 88.125427 
L 335.527845 86.647019 
L 342.66311 84.887609 
L 349.798375 84.025728 
L 356.933639 82.9856 
L 364.068904 81.95386 
L 371.204169 81.633014 
L 378.339434 81.259742 
L 385.474698 80.546751 
L 392.609963 79.756169 
L 399.745228 79.588407 
L 406.880493 78.755884 
L 414.015757 78.109998 
L 421.151022 77.229245 
L 428.286287 76.174437 
L 435.421552 75.601947 
L 442.556816 75.186735 
L 449.692081 74.438094 
L 456.827346 74.190644 
L 463.962611 73.932709 
L 471.097875 73.330861 
L 478.23314 72.972268 
L 485.368405 71.732921 
L 492.503669 69.98819 
L 499.638934 69.486999 
L 506.774199 68.841113 
L 513.909464 68.438483 
L 521.044728 67.968748 
L 528.179993 67.499012 
L 535.315258 67.247368 
L 542.450523 66.75876 
L 549.585787 66.565833 
L 556.721052 66.192561 
L 563.856317 66.028992 
L 570.991582 65.487958 
L 578.126846 65.320195 
L 585.262111 65.194373 
L 592.397376 64.508643 
L 599.53264 64.271679 
L 606.667905 63.833399 
L 613.80317 63.728547 
L 620.938435 63.55659 
L 628.073699 63.145572 
L 635.208964 63.028138 
L 642.344229 61.809762 
L 649.479494 61.37987 
L 656.614758 60.838836 
L 663.750023 60.572513 
L 670.885288 60.308287 
L 678.020553 60.174076 
L 685.155817 60.018896 
L 692.291082 59.521899 
L 699.426347 59.370913 
L 706.561612 59.255576 
L 713.696876 59.136045 
L 720.832141 58.932633 
L 727.967406 58.750191 
L 735.10267 58.622272 
" style="fill:none;stroke:#e377c2;stroke-linecap:square;stroke-width:1.5;"/>
   </g>
   <g id="line2d_22">
    <path clip-path="url(#p227a06e236)" d="M 85.79358 198.932643 
L 92.928844 164.860053 
L 100.064109 146.901064 
L 107.199374 138.418566 
L 114.334638 131.479484 
L 121.469903 127.753057 
L 128.605168 124.649448 
L 135.740433 122.88165 
L 142.875697 121.313069 
L 150.010962 119.868213 
L 157.146227 119.134252 
L 164.281492 118.603703 
L 171.416756 118.391902 
L 178.552021 116.741537 
L 185.687286 116.473117 
L 192.822551 116.148077 
L 199.957815 115.716088 
L 207.09308 115.313458 
L 214.228345 115.095367 
L 221.36361 114.977933 
L 228.498874 114.86679 
L 235.634139 114.646602 
L 242.769404 114.23768 
L 249.904668 114.13912 
L 257.039933 114.118149 
L 264.175198 114.063626 
L 271.310463 113.897961 
L 278.445727 113.807788 
L 285.580992 113.583406 
L 292.716257 113.535174 
L 299.851522 113.440808 
L 306.986786 113.312889 
L 314.122051 113.168193 
L 321.257316 112.971072 
L 328.392581 112.950102 
L 335.527845 112.849444 
L 342.66311 112.671197 
L 349.798375 112.63345 
L 356.933639 112.610383 
L 364.068904 112.530695 
L 371.204169 112.432135 
L 378.339434 112.285343 
L 385.474698 112.102901 
L 392.609963 112.006437 
L 399.745228 111.968691 
L 406.880493 111.924653 
L 414.015757 111.886906 
L 421.151022 111.826092 
L 428.286287 111.786249 
L 435.421552 111.683494 
L 442.556816 111.645748 
L 449.692081 111.593322 
L 456.827346 111.425559 
L 463.962611 111.41088 
L 471.097875 111.400395 
L 478.23314 111.347969 
L 485.368405 111.295543 
L 492.503669 111.249408 
L 499.638934 111.104713 
L 506.774199 111.090034 
L 513.909464 111.083743 
L 521.044728 111.073258 
L 528.179993 111.039705 
L 535.315258 111.035511 
L 542.450523 111.004056 
L 549.585787 110.953727 
L 556.721052 110.458827 
L 563.856317 110.30155 
L 570.991582 110.272191 
L 578.126846 110.240736 
L 585.262111 110.148466 
L 592.397376 110.133787 
L 599.53264 110.066682 
L 606.667905 110.066682 
L 613.80317 110.043615 
L 620.938435 110.010062 
L 628.073699 109.915696 
L 635.208964 109.861173 
L 642.344229 109.854882 
L 649.479494 109.817135 
L 656.614758 109.802456 
L 663.750023 109.764709 
L 670.885288 109.760515 
L 678.020553 109.760515 
L 685.155817 109.735351 
L 692.291082 109.735351 
L 699.426347 109.674537 
L 706.561612 109.534036 
L 713.696876 109.521453 
L 720.832141 109.510968 
L 727.967406 109.359982 
L 735.10267 109.303362 
" style="fill:none;stroke:#1f77b4;stroke-linecap:square;stroke-width:1.5;"/>
   </g>
   <g id="line2d_23">
    <path clip-path="url(#p227a06e236)" d="M 85.79358 255.70771 
L 92.928844 239.933829 
L 100.064109 220.532081 
L 107.199374 203.47901 
L 114.334638 192.519916 
L 121.469903 182.873565 
L 128.605168 173.923429 
L 135.740433 164.899897 
L 142.875697 161.227992 
L 150.010962 159.168706 
L 157.146227 157.564476 
L 164.281492 156.255927 
L 171.416756 154.737676 
L 178.552021 153.691256 
L 185.687286 151.747307 
L 192.822551 151.258698 
L 199.957815 149.379757 
L 207.09308 148.262038 
L 214.228345 147.630831 
L 221.36361 146.84025 
L 228.498874 146.093706 
L 235.634139 145.668008 
L 242.769404 145.514925 
L 249.904668 144.669821 
L 257.039933 143.851978 
L 264.175198 142.988001 
L 271.310463 142.717483 
L 278.445727 142.285495 
L 285.580992 142.115635 
L 292.716257 141.845118 
L 299.851522 141.448778 
L 306.986786 141.062924 
L 314.122051 140.932908 
L 321.257316 140.819669 
L 328.392581 140.693847 
L 335.527845 140.148618 
L 342.66311 140.077319 
L 349.798375 140.022796 
L 356.933639 140.008117 
L 364.068904 139.842451 
L 371.204169 139.710338 
L 378.339434 139.660009 
L 385.474698 139.420948 
L 392.609963 139.309805 
L 399.745228 139.167207 
L 406.880493 138.991056 
L 414.015757 138.955406 
L 421.151022 138.930242 
L 428.286287 138.456313 
L 435.421552 138.452118 
L 442.556816 138.447924 
L 449.692081 138.439536 
L 456.827346 138.395499 
L 463.962611 138.340976 
L 471.097875 138.273871 
L 478.23314 138.225639 
L 485.368405 138.223542 
L 492.503669 138.166922 
L 499.638934 137.913181 
L 506.774199 137.883823 
L 513.909464 137.879628 
L 521.044728 137.864949 
L 528.179993 137.554588 
L 535.315258 137.529424 
L 542.450523 137.512648 
L 549.585787 137.29875 
L 556.721052 137.17922 
L 563.856317 137.170831 
L 570.991582 136.730454 
L 578.126846 136.682223 
L 585.262111 136.669641 
L 592.397376 136.466228 
L 599.53264 136.218778 
L 606.667905 136.218778 
L 613.80317 136.212487 
L 620.938435 136.1328 
L 628.073699 136.130703 
L 635.208964 136.126509 
L 642.344229 136.126509 
L 649.479494 136.116024 
L 656.614758 136.11183 
L 663.750023 136.05521 
L 670.885288 136.011172 
L 678.020553 136.009075 
L 685.155817 135.845507 
L 692.291082 135.820342 
L 699.426347 135.797275 
L 706.561612 135.790984 
L 713.696876 135.765819 
L 720.832141 135.725976 
L 727.967406 135.696617 
L 735.10267 135.619027 
" style="fill:none;stroke:#d62728;stroke-linecap:square;stroke-width:1.5;"/>
   </g>
   <g id="line2d_24">
    <path clip-path="url(#p227a06e236)" d="M 85.79358 264.360067 
L 92.928844 237.641772 
L 100.064109 222.394246 
L 107.199374 212.854844 
L 114.334638 208.096676 
L 121.469903 203.53563 
L 128.605168 192.767366 
L 135.740433 185.561961 
L 142.875697 183.028746 
L 150.010962 182.045237 
L 157.146227 180.126452 
L 164.281492 177.341593 
L 171.416756 176.211292 
L 178.552021 175.552824 
L 185.687286 173.885682 
L 192.822551 173.340454 
L 199.957815 171.794941 
L 207.09308 170.004075 
L 214.228345 168.693429 
L 221.36361 167.774929 
L 228.498874 165.707254 
L 235.634139 165.000554 
L 242.769404 164.354668 
L 249.904668 163.884933 
L 257.039933 163.622804 
L 264.175198 163.192912 
L 271.310463 161.804676 
L 278.445727 159.820883 
L 285.580992 159.122571 
L 292.716257 158.661224 
L 299.851522 157.967106 
L 306.986786 157.444945 
L 314.122051 157.28557 
L 321.257316 157.077964 
L 328.392581 156.553706 
L 335.527845 156.362876 
L 342.66311 155.586974 
L 349.798375 155.318554 
L 356.933639 155.035454 
L 364.068904 154.127439 
L 371.204169 153.986938 
L 378.339434 153.861116 
L 385.474698 153.489941 
L 392.609963 153.242491 
L 399.745228 152.921645 
L 406.880493 152.791629 
L 414.015757 152.5295 
L 421.151022 152.336573 
L 428.286287 152.242206 
L 435.421552 152.116384 
L 442.556816 151.862644 
L 449.692081 151.743113 
L 456.827346 151.571156 
L 463.962611 151.489372 
L 471.097875 151.185302 
L 478.23314 151.105615 
L 485.368405 150.719761 
L 492.503669 150.610715 
L 499.638934 150.457631 
L 506.774199 150.103233 
L 513.909464 150.052904 
L 521.044728 149.784484 
L 528.179993 149.407018 
L 535.315258 149.318943 
L 542.450523 149.268614 
L 549.585787 149.22877 
L 556.721052 149.03794 
L 563.856317 148.889051 
L 570.991582 148.872275 
L 578.126846 148.754841 
L 585.262111 148.593369 
L 592.397376 148.5011 
L 599.53264 148.360599 
L 606.667905 148.324949 
L 613.80317 148.081693 
L 620.938435 147.842632 
L 628.073699 147.351926 
L 635.208964 147.01011 
L 642.344229 146.928325 
L 649.479494 146.863317 
L 656.614758 146.777339 
L 663.750023 146.731204 
L 670.885288 146.605382 
L 678.020553 146.561344 
L 685.155817 146.559247 
L 692.291082 146.454396 
L 699.426347 146.446008 
L 706.561612 146.244693 
L 713.696876 146.202752 
L 720.832141 146.131453 
L 727.967406 146.114676 
L 735.10267 146.0979 
" style="fill:none;stroke:#98df8a;stroke-linecap:square;stroke-width:1.5;"/>
   </g>
   <g id="line2d_25">
    <path clip-path="url(#p227a06e236)" d="M 85.79358 276.334125 
L 92.928844 244.192903 
L 100.064109 234.057943 
L 107.199374 225.460108 
L 114.334638 216.166059 
L 121.469903 209.617025 
L 128.605168 201.503605 
L 135.740433 198.943128 
L 142.875697 195.673854 
L 150.010962 193.390185 
L 157.146227 191.972591 
L 164.281492 188.124535 
L 171.416756 185.352258 
L 178.552021 184.026933 
L 185.687286 182.588369 
L 192.822551 181.483232 
L 199.957815 180.413746 
L 207.09308 178.528513 
L 214.228345 177.087852 
L 221.36361 176.181933 
L 228.498874 175.955454 
L 235.634139 173.655009 
L 242.769404 172.245803 
L 249.904668 171.270682 
L 257.039933 169.838409 
L 264.175198 168.412427 
L 271.310463 167.674271 
L 278.445727 167.361813 
L 285.580992 165.480775 
L 292.716257 164.358862 
L 299.851522 163.952038 
L 306.986786 163.536825 
L 314.122051 163.239047 
L 321.257316 161.693533 
L 328.392581 161.538353 
L 335.527845 160.863108 
L 342.66311 160.571621 
L 349.798375 159.961384 
L 356.933639 159.76636 
L 364.068904 159.460193 
L 371.204169 158.914965 
L 378.339434 157.35687 
L 385.474698 157.249921 
L 392.609963 156.721469 
L 399.745228 156.436272 
L 406.880493 156.117523 
L 414.015757 155.951858 
L 421.151022 155.266128 
L 428.286287 155.186441 
L 435.421552 155.136112 
L 442.556816 154.972543 
L 449.692081 154.567816 
L 456.827346 154.356016 
L 463.962611 154.173574 
L 471.097875 152.953101 
L 478.23314 152.774853 
L 485.368405 152.739203 
L 492.503669 152.657419 
L 499.638934 151.980077 
L 506.774199 151.791344 
L 513.909464 151.705366 
L 521.044728 151.701172 
L 528.179993 151.640358 
L 535.315258 151.634067 
L 542.450523 151.139167 
L 549.585787 151.042704 
L 556.721052 150.877038 
L 563.856317 150.839291 
L 570.991582 150.786866 
L 578.126846 150.700887 
L 585.262111 150.587648 
L 592.397376 150.526834 
L 599.53264 150.220667 
L 606.667905 150.21857 
L 613.80317 150.201793 
L 620.938435 150.189211 
L 628.073699 150.055001 
L 635.208964 149.904015 
L 642.344229 149.658662 
L 649.479494 149.297972 
L 656.614758 149.222479 
L 663.750023 149.035843 
L 670.885288 149.035843 
L 678.020553 149.035843 
L 685.155817 148.832431 
L 692.291082 148.555623 
L 699.426347 148.526264 
L 706.561612 148.402539 
L 713.696876 148.400442 
L 720.832141 148.108955 
L 727.967406 147.884572 
L 735.10267 147.509093 
" style="fill:none;stroke:#ff9896;stroke-linecap:square;stroke-width:1.5;"/>
   </g>
   <g id="line2d_26">
    <path clip-path="url(#p227a06e236)" d="M 85.79358 243.465232 
L 92.928844 227.410349 
L 100.064109 213.924331 
L 107.199374 208.216207 
L 114.334638 198.511139 
L 121.469903 193.566336 
L 128.605168 191.129584 
L 135.740433 189.508577 
L 142.875697 185.07545 
L 150.010962 182.129119 
L 157.146227 180.682166 
L 164.281492 179.623164 
L 171.416756 178.578842 
L 178.552021 178.134271 
L 185.687286 176.712483 
L 192.822551 176.051917 
L 199.957815 175.062118 
L 207.09308 174.393164 
L 214.228345 173.734696 
L 221.36361 173.225117 
L 228.498874 169.76711 
L 235.634139 169.203008 
L 242.769404 167.902848 
L 249.904668 167.219215 
L 257.039933 166.917242 
L 264.175198 166.793517 
L 271.310463 166.351043 
L 278.445727 166.279744 
L 285.580992 166.101497 
L 292.716257 165.919055 
L 299.851522 165.856144 
L 306.986786 164.937643 
L 314.122051 164.836986 
L 321.257316 164.704873 
L 328.392581 163.916388 
L 335.527845 163.702491 
L 342.66311 163.364869 
L 349.798375 163.096448 
L 356.933639 162.725274 
L 364.068904 162.635101 
L 371.204169 162.563802 
L 378.339434 162.370875 
L 385.474698 162.108746 
L 392.609963 162.026962 
L 399.745228 161.934692 
L 406.880493 161.565614 
L 414.015757 161.513189 
L 421.151022 161.383173 
L 428.286287 161.219604 
L 435.421552 161.196537 
L 442.556816 161.035065 
L 449.692081 160.796003 
L 456.827346 160.412246 
L 463.962611 160.345141 
L 471.097875 160.267551 
L 478.23314 160.041072 
L 485.368405 159.890085 
L 492.503669 159.53359 
L 499.638934 159.447611 
L 506.774199 159.432932 
L 513.909464 159.426641 
L 521.044728 159.210647 
L 528.179993 159.011428 
L 535.315258 158.944323 
L 542.450523 158.768173 
L 549.585787 158.623477 
L 556.721052 158.367639 
L 563.856317 158.302631 
L 570.991582 158.271176 
L 578.126846 158.178906 
L 585.262111 158.145354 
L 592.397376 157.876934 
L 599.53264 157.860157 
L 606.667905 156.721469 
L 613.80317 156.515959 
L 620.938435 156.509668 
L 628.073699 156.224472 
L 635.208964 155.939275 
L 642.344229 155.12353 
L 649.479494 155.058522 
L 656.614758 155.006096 
L 663.750023 154.957864 
L 670.885288 154.943185 
L 678.020553 154.907535 
L 685.155817 154.905438 
L 692.291082 154.899147 
L 699.426347 154.899147 
L 706.561612 154.802684 
L 713.696876 154.565719 
L 720.832141 154.425218 
L 727.967406 154.393762 
L 735.10267 154.167283 
" style="fill:none;stroke:#dbdb8d;stroke-linecap:square;stroke-width:1.5;"/>
   </g>
   <g id="line2d_27">
    <path clip-path="url(#p227a06e236)" d="M 85.79358 250.242842 
L 92.928844 235.999795 
L 100.064109 219.728917 
L 107.199374 211.548392 
L 114.334638 208.281215 
L 121.469903 204.527526 
L 128.605168 201.069519 
L 135.740433 199.06895 
L 142.875697 197.320024 
L 150.010962 196.657362 
L 157.146227 195.449471 
L 164.281492 193.448902 
L 171.416756 192.113092 
L 178.552021 191.618192 
L 185.687286 190.146075 
L 192.822551 189.839908 
L 199.957815 188.854303 
L 207.09308 188.420217 
L 214.228345 187.086504 
L 221.36361 186.727912 
L 228.498874 186.270758 
L 235.634139 184.695887 
L 242.769404 184.232442 
L 249.904668 183.779483 
L 257.039933 183.217479 
L 264.175198 182.907118 
L 271.310463 181.781011 
L 278.445727 181.422418 
L 285.580992 181.296597 
L 292.716257 181.135125 
L 299.851522 180.977848 
L 306.986786 180.753465 
L 314.122051 180.719912 
L 321.257316 180.476657 
L 328.392581 179.633649 
L 335.527845 179.222631 
L 342.66311 178.864038 
L 349.798375 178.144756 
L 356.933639 178.029419 
L 364.068904 177.800843 
L 371.204169 177.222062 
L 378.339434 177.11721 
L 385.474698 176.974612 
L 392.609963 176.790073 
L 399.745228 176.748132 
L 406.880493 176.731356 
L 414.015757 176.704095 
L 421.151022 175.548629 
L 428.286287 175.452166 
L 435.421552 175.397643 
L 442.556816 175.380867 
L 449.692081 175.213104 
L 456.827346 175.196328 
L 463.962611 175.009692 
L 471.097875 174.80628 
L 478.23314 174.659488 
L 485.368405 174.508501 
L 492.503669 174.412038 
L 499.638934 174.323962 
L 506.774199 174.131035 
L 513.909464 174.026184 
L 521.044728 173.954885 
L 528.179993 173.680173 
L 535.315258 173.636136 
L 542.450523 173.56903 
L 549.585787 173.47047 
L 556.721052 173.260767 
L 563.856317 173.038481 
L 570.991582 172.893786 
L 578.126846 172.723926 
L 585.262111 172.556164 
L 592.397376 172.119981 
L 599.53264 171.996256 
L 606.667905 171.755097 
L 613.80317 171.614596 
L 620.938435 171.432154 
L 628.073699 171.394407 
L 635.208964 171.394407 
L 642.344229 171.390213 
L 649.479494 171.337788 
L 656.614758 171.228742 
L 663.750023 171.195189 
L 670.885288 171.138569 
L 678.020553 170.93306 
L 685.155817 170.79885 
L 692.291082 170.790462 
L 699.426347 170.691901 
L 706.561612 170.637379 
L 713.696876 170.540915 
L 720.832141 170.540915 
L 727.967406 170.31863 
L 735.10267 169.947455 
" style="fill:none;stroke:#c5b0d5;stroke-linecap:square;stroke-width:1.5;"/>
   </g>
   <g id="line2d_28"/>
   <g id="line2d_29"/>
   <g id="line2d_30"/>
   <g id="line2d_31"/>
   <g id="line2d_32"/>
   <g id="line2d_33"/>
   <g id="line2d_34"/>
   <g id="line2d_35"/>
   <g id="line2d_36"/>
   <g id="line2d_37"/>
   <g id="line2d_38">
    <path clip-path="url(#p227a06e236)" d="M 735.10267 288.430125 
L 735.10267 22.318125 
" style="fill:none;stroke:#ff0000;stroke-linecap:square;stroke-width:1.5;"/>
   </g>
   <g id="patch_3">
    <path d="M 53.328125 265.448428 
L 53.328125 55.745143 
" style="fill:none;stroke:#000000;stroke-linecap:square;stroke-linejoin:miter;stroke-width:0.8;"/>
   </g>
   <g id="patch_4">
    <path d="M 85.79358 288.430125 
L 687.534239 288.430125 
" style="fill:none;stroke:#000000;stroke-linecap:square;stroke-linejoin:miter;stroke-width:0.8;"/>
   </g>
   <g id="text_21">
    <!-- proj4-2017-08-14 (23h, 15 trials/fuzzer) -->
    <g transform="translate(291.388438 16.318125)scale(0.12 -0.12)">
     <defs>
      <path d="M 18.109375 8.203125 
L 18.109375 -20.796875 
L 9.078125 -20.796875 
L 9.078125 54.6875 
L 18.109375 54.6875 
L 18.109375 46.390625 
Q 20.953125 51.265625 25.265625 53.625 
Q 29.59375 56 35.59375 56 
Q 45.5625 56 51.78125 48.09375 
Q 58.015625 40.1875 58.015625 27.296875 
Q 58.015625 14.40625 51.78125 6.484375 
Q 45.5625 -1.421875 35.59375 -1.421875 
Q 29.59375 -1.421875 25.265625 0.953125 
Q 20.953125 3.328125 18.109375 8.203125 
z
M 48.6875 27.296875 
Q 48.6875 37.203125 44.609375 42.84375 
Q 40.53125 48.484375 33.40625 48.484375 
Q 26.265625 48.484375 22.1875 42.84375 
Q 18.109375 37.203125 18.109375 27.296875 
Q 18.109375 17.390625 22.1875 11.75 
Q 26.265625 6.109375 33.40625 6.109375 
Q 40.53125 6.109375 44.609375 11.75 
Q 48.6875 17.390625 48.6875 27.296875 
z
" id="DejaVuSans-112"/>
      <path d="M 9.421875 54.6875 
L 18.40625 54.6875 
L 18.40625 -0.984375 
Q 18.40625 -11.421875 14.421875 -16.109375 
Q 10.453125 -20.796875 1.609375 -20.796875 
L -1.8125 -20.796875 
L -1.8125 -13.1875 
L 0.59375 -13.1875 
Q 5.71875 -13.1875 7.5625 -10.8125 
Q 9.421875 -8.453125 9.421875 -0.984375 
z
M 9.421875 75.984375 
L 18.40625 75.984375 
L 18.40625 64.59375 
L 9.421875 64.59375 
z
" id="DejaVuSans-106"/>
      <path d="M 4.890625 31.390625 
L 31.203125 31.390625 
L 31.203125 23.390625 
L 4.890625 23.390625 
z
" id="DejaVuSans-45"/>
      <path d="M 31.78125 34.625 
Q 24.75 34.625 20.71875 30.859375 
Q 16.703125 27.09375 16.703125 20.515625 
Q 16.703125 13.921875 20.71875 10.15625 
Q 24.75 6.390625 31.78125 6.390625 
Q 38.8125 6.390625 42.859375 10.171875 
Q 46.921875 13.96875 46.921875 20.515625 
Q 46.921875 27.09375 42.890625 30.859375 
Q 38.875 34.625 31.78125 34.625 
z
M 21.921875 38.8125 
Q 15.578125 40.375 12.03125 44.71875 
Q 8.5 49.078125 8.5 55.328125 
Q 8.5 64.0625 14.71875 69.140625 
Q 20.953125 74.21875 31.78125 74.21875 
Q 42.671875 74.21875 48.875 69.140625 
Q 55.078125 64.0625 55.078125 55.328125 
Q 55.078125 49.078125 51.53125 44.71875 
Q 48 40.375 41.703125 38.8125 
Q 48.828125 37.15625 52.796875 32.3125 
Q 56.78125 27.484375 56.78125 20.515625 
Q 56.78125 9.90625 50.3125 4.234375 
Q 43.84375 -1.421875 31.78125 -1.421875 
Q 19.734375 -1.421875 13.25 4.234375 
Q 6.78125 9.90625 6.78125 20.515625 
Q 6.78125 27.484375 10.78125 32.3125 
Q 14.796875 37.15625 21.921875 38.8125 
z
M 18.3125 54.390625 
Q 18.3125 48.734375 21.84375 45.5625 
Q 25.390625 42.390625 31.78125 42.390625 
Q 38.140625 42.390625 41.71875 45.5625 
Q 45.3125 48.734375 45.3125 54.390625 
Q 45.3125 60.0625 41.71875 63.234375 
Q 38.140625 66.40625 31.78125 66.40625 
Q 25.390625 66.40625 21.84375 63.234375 
Q 18.3125 60.0625 18.3125 54.390625 
z
" id="DejaVuSans-56"/>
      <path d="M 11.71875 12.40625 
L 22.015625 12.40625 
L 22.015625 4 
L 14.015625 -11.625 
L 7.71875 -11.625 
L 11.71875 4 
z
" id="DejaVuSans-44"/>
      <path d="M 9.421875 75.984375 
L 18.40625 75.984375 
L 18.40625 0 
L 9.421875 0 
z
" id="DejaVuSans-108"/>
      <path d="M 44.28125 53.078125 
L 44.28125 44.578125 
Q 40.484375 46.53125 36.375 47.5 
Q 32.28125 48.484375 27.875 48.484375 
Q 21.1875 48.484375 17.84375 46.4375 
Q 14.5 44.390625 14.5 40.28125 
Q 14.5 37.15625 16.890625 35.375 
Q 19.28125 33.59375 26.515625 31.984375 
L 29.59375 31.296875 
Q 39.15625 29.25 43.1875 25.515625 
Q 47.21875 21.78125 47.21875 15.09375 
Q 47.21875 7.46875 41.1875 3.015625 
Q 35.15625 -1.421875 24.609375 -1.421875 
Q 20.21875 -1.421875 15.453125 -0.5625 
Q 10.6875 0.296875 5.421875 2 
L 5.421875 11.28125 
Q 10.40625 8.6875 15.234375 7.390625 
Q 20.0625 6.109375 24.8125 6.109375 
Q 31.15625 6.109375 34.5625 8.28125 
Q 37.984375 10.453125 37.984375 14.40625 
Q 37.984375 18.0625 35.515625 20.015625 
Q 33.0625 21.96875 24.703125 23.78125 
L 21.578125 24.515625 
Q 13.234375 26.265625 9.515625 29.90625 
Q 5.8125 33.546875 5.8125 39.890625 
Q 5.8125 47.609375 11.28125 51.796875 
Q 16.75 56 26.8125 56 
Q 31.78125 56 36.171875 55.265625 
Q 40.578125 54.546875 44.28125 53.078125 
z
" id="DejaVuSans-115"/>
      <path d="M 25.390625 72.90625 
L 33.6875 72.90625 
L 8.296875 -9.28125 
L 0 -9.28125 
z
" id="DejaVuSans-47"/>
      <path d="M 37.109375 75.984375 
L 37.109375 68.5 
L 28.515625 68.5 
Q 23.6875 68.5 21.796875 66.546875 
Q 19.921875 64.59375 19.921875 59.515625 
L 19.921875 54.6875 
L 34.71875 54.6875 
L 34.71875 47.703125 
L 19.921875 47.703125 
L 19.921875 0 
L 10.890625 0 
L 10.890625 47.703125 
L 2.296875 47.703125 
L 2.296875 54.6875 
L 10.890625 54.6875 
L 10.890625 58.5 
Q 10.890625 67.625 15.140625 71.796875 
Q 19.390625 75.984375 28.609375 75.984375 
z
" id="DejaVuSans-102"/>
      <path d="M 5.515625 54.6875 
L 48.1875 54.6875 
L 48.1875 46.484375 
L 14.40625 7.171875 
L 48.1875 7.171875 
L 48.1875 0 
L 4.296875 0 
L 4.296875 8.203125 
L 38.09375 47.515625 
L 5.515625 47.515625 
z
" id="DejaVuSans-122"/>
     </defs>
     <use xlink:href="#DejaVuSans-112"/>
     <use x="63.476562" xlink:href="#DejaVuSans-114"/>
     <use x="102.339844" xlink:href="#DejaVuSans-111"/>
     <use x="163.521484" xlink:href="#DejaVuSans-106"/>
     <use x="191.304688" xlink:href="#DejaVuSans-52"/>
     <use x="254.927734" xlink:href="#DejaVuSans-45"/>
     <use x="291.011719" xlink:href="#DejaVuSans-50"/>
     <use x="354.634766" xlink:href="#DejaVuSans-48"/>
     <use x="418.257812" xlink:href="#DejaVuSans-49"/>
     <use x="481.880859" xlink:href="#DejaVuSans-55"/>
     <use x="545.503906" xlink:href="#DejaVuSans-45"/>
     <use x="581.587891" xlink:href="#DejaVuSans-48"/>
     <use x="645.210938" xlink:href="#DejaVuSans-56"/>
     <use x="708.833984" xlink:href="#DejaVuSans-45"/>
     <use x="744.917969" xlink:href="#DejaVuSans-49"/>
     <use x="808.541016" xlink:href="#DejaVuSans-52"/>
     <use x="872.164062" xlink:href="#DejaVuSans-32"/>
     <use x="903.951172" xlink:href="#DejaVuSans-40"/>
     <use x="942.964844" xlink:href="#DejaVuSans-50"/>
     <use x="1006.587891" xlink:href="#DejaVuSans-51"/>
     <use x="1070.210938" xlink:href="#DejaVuSans-104"/>
     <use x="1133.589844" xlink:href="#DejaVuSans-44"/>
     <use x="1165.376953" xlink:href="#DejaVuSans-32"/>
     <use x="1197.164062" xlink:href="#DejaVuSans-49"/>
     <use x="1260.787109" xlink:href="#DejaVuSans-53"/>
     <use x="1324.410156" xlink:href="#DejaVuSans-32"/>
     <use x="1356.197266" xlink:href="#DejaVuSans-116"/>
     <use x="1395.40625" xlink:href="#DejaVuSans-114"/>
     <use x="1436.519531" xlink:href="#DejaVuSans-105"/>
     <use x="1464.302734" xlink:href="#DejaVuSans-97"/>
     <use x="1525.582031" xlink:href="#DejaVuSans-108"/>
     <use x="1553.365234" xlink:href="#DejaVuSans-115"/>
     <use x="1605.464844" xlink:href="#DejaVuSans-47"/>
     <use x="1639.15625" xlink:href="#DejaVuSans-102"/>
     <use x="1674.361328" xlink:href="#DejaVuSans-117"/>
     <use x="1737.740234" xlink:href="#DejaVuSans-122"/>
     <use x="1790.230469" xlink:href="#DejaVuSans-122"/>
     <use x="1842.720703" xlink:href="#DejaVuSans-101"/>
     <use x="1904.244141" xlink:href="#DejaVuSans-114"/>
     <use x="1945.357422" xlink:href="#DejaVuSans-41"/>
    </g>
   </g>
   <g id="legend_1">
    <g id="line2d_39">
     <path d="M 771.568125 30.416562 
L 791.568125 30.416562 
" style="fill:none;"/>
    </g>
    <g id="line2d_40"/>
    <g id="text_22">
     <!-- fuzzer -->
     <g transform="translate(799.568125 33.916562)scale(0.1 -0.1)">
      <use xlink:href="#DejaVuSans-102"/>
      <use x="35.205078" xlink:href="#DejaVuSans-117"/>
      <use x="98.583984" xlink:href="#DejaVuSans-122"/>
      <use x="151.074219" xlink:href="#DejaVuSans-122"/>
      <use x="203.564453" xlink:href="#DejaVuSans-101"/>
      <use x="265.087891" xlink:href="#DejaVuSans-114"/>
     </g>
    </g>
    <g id="line2d_41">
     <path d="M 771.568125 45.094688 
L 791.568125 45.094688 
" style="fill:none;stroke:#ff7f0e;stroke-linecap:square;stroke-width:1.5;"/>
    </g>
    <g id="line2d_42"/>
    <g id="text_23">
     <!-- entropic -->
     <g transform="translate(799.568125 48.594688)scale(0.1 -0.1)">
      <use xlink:href="#DejaVuSans-101"/>
      <use x="61.523438" xlink:href="#DejaVuSans-110"/>
      <use x="124.902344" xlink:href="#DejaVuSans-116"/>
      <use x="164.111328" xlink:href="#DejaVuSans-114"/>
      <use x="202.974609" xlink:href="#DejaVuSans-111"/>
      <use x="264.15625" xlink:href="#DejaVuSans-112"/>
      <use x="327.632812" xlink:href="#DejaVuSans-105"/>
      <use x="355.416016" xlink:href="#DejaVuSans-99"/>
     </g>
    </g>
    <g id="line2d_43">
     <path d="M 771.568125 59.772812 
L 791.568125 59.772812 
" style="fill:none;stroke:#2ca02c;stroke-linecap:square;stroke-width:1.5;"/>
    </g>
    <g id="line2d_44"/>
    <g id="text_24">
     <!-- libfuzzer -->
     <g transform="translate(799.568125 63.272812)scale(0.1 -0.1)">
      <defs>
       <path d="M 48.6875 27.296875 
Q 48.6875 37.203125 44.609375 42.84375 
Q 40.53125 48.484375 33.40625 48.484375 
Q 26.265625 48.484375 22.1875 42.84375 
Q 18.109375 37.203125 18.109375 27.296875 
Q 18.109375 17.390625 22.1875 11.75 
Q 26.265625 6.109375 33.40625 6.109375 
Q 40.53125 6.109375 44.609375 11.75 
Q 48.6875 17.390625 48.6875 27.296875 
z
M 18.109375 46.390625 
Q 20.953125 51.265625 25.265625 53.625 
Q 29.59375 56 35.59375 56 
Q 45.5625 56 51.78125 48.09375 
Q 58.015625 40.1875 58.015625 27.296875 
Q 58.015625 14.40625 51.78125 6.484375 
Q 45.5625 -1.421875 35.59375 -1.421875 
Q 29.59375 -1.421875 25.265625 0.953125 
Q 20.953125 3.328125 18.109375 8.203125 
L 18.109375 0 
L 9.078125 0 
L 9.078125 75.984375 
L 18.109375 75.984375 
z
" id="DejaVuSans-98"/>
      </defs>
      <use xlink:href="#DejaVuSans-108"/>
      <use x="27.783203" xlink:href="#DejaVuSans-105"/>
      <use x="55.566406" xlink:href="#DejaVuSans-98"/>
      <use x="119.042969" xlink:href="#DejaVuSans-102"/>
      <use x="154.248047" xlink:href="#DejaVuSans-117"/>
      <use x="217.626953" xlink:href="#DejaVuSans-122"/>
      <use x="270.117188" xlink:href="#DejaVuSans-122"/>
      <use x="322.607422" xlink:href="#DejaVuSans-101"/>
      <use x="384.130859" xlink:href="#DejaVuSans-114"/>
     </g>
    </g>
    <g id="line2d_45">
     <path d="M 771.568125 74.450938 
L 791.568125 74.450938 
" style="fill:none;stroke:#e377c2;stroke-linecap:square;stroke-width:1.5;"/>
    </g>
    <g id="line2d_46"/>
    <g id="text_25">
     <!-- honggfuzz -->
     <g transform="translate(799.568125 77.950938)scale(0.1 -0.1)">
      <use xlink:href="#DejaVuSans-104"/>
      <use x="63.378906" xlink:href="#DejaVuSans-111"/>
      <use x="124.560547" xlink:href="#DejaVuSans-110"/>
      <use x="187.939453" xlink:href="#DejaVuSans-103"/>
      <use x="251.416016" xlink:href="#DejaVuSans-103"/>
      <use x="314.892578" xlink:href="#DejaVuSans-102"/>
      <use x="350.097656" xlink:href="#DejaVuSans-117"/>
      <use x="413.476562" xlink:href="#DejaVuSans-122"/>
      <use x="465.966797" xlink:href="#DejaVuSans-122"/>
     </g>
    </g>
    <g id="line2d_47">
     <path d="M 771.568125 89.129063 
L 791.568125 89.129063 
" style="fill:none;stroke:#1f77b4;stroke-linecap:square;stroke-width:1.5;"/>
    </g>
    <g id="line2d_48"/>
    <g id="text_26">
     <!-- aflplusplus -->
     <g transform="translate(799.568125 92.629063)scale(0.1 -0.1)">
      <use xlink:href="#DejaVuSans-97"/>
      <use x="61.279297" xlink:href="#DejaVuSans-102"/>
      <use x="96.484375" xlink:href="#DejaVuSans-108"/>
      <use x="124.267578" xlink:href="#DejaVuSans-112"/>
      <use x="187.744141" xlink:href="#DejaVuSans-108"/>
      <use x="215.527344" xlink:href="#DejaVuSans-117"/>
      <use x="278.90625" xlink:href="#DejaVuSans-115"/>
      <use x="331.005859" xlink:href="#DejaVuSans-112"/>
      <use x="394.482422" xlink:href="#DejaVuSans-108"/>
      <use x="422.265625" xlink:href="#DejaVuSans-117"/>
      <use x="485.644531" xlink:href="#DejaVuSans-115"/>
     </g>
    </g>
    <g id="line2d_49">
     <path d="M 771.568125 103.807187 
L 791.568125 103.807187 
" style="fill:none;stroke:#d62728;stroke-linecap:square;stroke-width:1.5;"/>
    </g>
    <g id="line2d_50"/>
    <g id="text_27">
     <!-- aflplusplus_qemu -->
     <g transform="translate(799.568125 107.307187)scale(0.1 -0.1)">
      <defs>
       <path d="M 50.984375 -16.609375 
L 50.984375 -23.578125 
L -0.984375 -23.578125 
L -0.984375 -16.609375 
z
" id="DejaVuSans-95"/>
       <path d="M 14.796875 27.296875 
Q 14.796875 17.390625 18.875 11.75 
Q 22.953125 6.109375 30.078125 6.109375 
Q 37.203125 6.109375 41.296875 11.75 
Q 45.40625 17.390625 45.40625 27.296875 
Q 45.40625 37.203125 41.296875 42.84375 
Q 37.203125 48.484375 30.078125 48.484375 
Q 22.953125 48.484375 18.875 42.84375 
Q 14.796875 37.203125 14.796875 27.296875 
z
M 45.40625 8.203125 
Q 42.578125 3.328125 38.25 0.953125 
Q 33.9375 -1.421875 27.875 -1.421875 
Q 17.96875 -1.421875 11.734375 6.484375 
Q 5.515625 14.40625 5.515625 27.296875 
Q 5.515625 40.1875 11.734375 48.09375 
Q 17.96875 56 27.875 56 
Q 33.9375 56 38.25 53.625 
Q 42.578125 51.265625 45.40625 46.390625 
L 45.40625 54.6875 
L 54.390625 54.6875 
L 54.390625 -20.796875 
L 45.40625 -20.796875 
z
" id="DejaVuSans-113"/>
      </defs>
      <use xlink:href="#DejaVuSans-97"/>
      <use x="61.279297" xlink:href="#DejaVuSans-102"/>
      <use x="96.484375" xlink:href="#DejaVuSans-108"/>
      <use x="124.267578" xlink:href="#DejaVuSans-112"/>
      <use x="187.744141" xlink:href="#DejaVuSans-108"/>
      <use x="215.527344" xlink:href="#DejaVuSans-117"/>
      <use x="278.90625" xlink:href="#DejaVuSans-115"/>
      <use x="331.005859" xlink:href="#DejaVuSans-112"/>
      <use x="394.482422" xlink:href="#DejaVuSans-108"/>
      <use x="422.265625" xlink:href="#DejaVuSans-117"/>
      <use x="485.644531" xlink:href="#DejaVuSans-115"/>
      <use x="537.744141" xlink:href="#DejaVuSans-95"/>
      <use x="587.744141" xlink:href="#DejaVuSans-113"/>
      <use x="651.220703" xlink:href="#DejaVuSans-101"/>
      <use x="712.744141" xlink:href="#DejaVuSans-109"/>
      <use x="810.15625" xlink:href="#DejaVuSans-117"/>
     </g>
    </g>
    <g id="line2d_51">
     <path d="M 771.568125 118.763438 
L 791.568125 118.763438 
" style="fill:none;stroke:#98df8a;stroke-linecap:square;stroke-width:1.5;"/>
    </g>
    <g id="line2d_52"/>
    <g id="text_28">
     <!-- aflplusplus_flat -->
     <g transform="translate(799.568125 122.263438)scale(0.1 -0.1)">
      <use xlink:href="#DejaVuSans-97"/>
      <use x="61.279297" xlink:href="#DejaVuSans-102"/>
      <use x="96.484375" xlink:href="#DejaVuSans-108"/>
      <use x="124.267578" xlink:href="#DejaVuSans-112"/>
      <use x="187.744141" xlink:href="#DejaVuSans-108"/>
      <use x="215.527344" xlink:href="#DejaVuSans-117"/>
      <use x="278.90625" xlink:href="#DejaVuSans-115"/>
      <use x="331.005859" xlink:href="#DejaVuSans-112"/>
      <use x="394.482422" xlink:href="#DejaVuSans-108"/>
      <use x="422.265625" xlink:href="#DejaVuSans-117"/>
      <use x="485.644531" xlink:href="#DejaVuSans-115"/>
      <use x="537.744141" xlink:href="#DejaVuSans-95"/>
      <use x="587.744141" xlink:href="#DejaVuSans-102"/>
      <use x="622.949219" xlink:href="#DejaVuSans-108"/>
      <use x="650.732422" xlink:href="#DejaVuSans-97"/>
      <use x="712.011719" xlink:href="#DejaVuSans-116"/>
     </g>
    </g>
    <g id="line2d_53">
     <path d="M 771.568125 133.719688 
L 791.568125 133.719688 
" style="fill:none;stroke:#ff9896;stroke-linecap:square;stroke-width:1.5;"/>
    </g>
    <g id="line2d_54"/>
    <g id="text_29">
     <!-- fairfuzz -->
     <g transform="translate(799.568125 137.219688)scale(0.1 -0.1)">
      <use xlink:href="#DejaVuSans-102"/>
      <use x="35.205078" xlink:href="#DejaVuSans-97"/>
      <use x="96.484375" xlink:href="#DejaVuSans-105"/>
      <use x="124.267578" xlink:href="#DejaVuSans-114"/>
      <use x="165.380859" xlink:href="#DejaVuSans-102"/>
      <use x="200.585938" xlink:href="#DejaVuSans-117"/>
      <use x="263.964844" xlink:href="#DejaVuSans-122"/>
      <use x="316.455078" xlink:href="#DejaVuSans-122"/>
     </g>
    </g>
    <g id="line2d_55">
     <path d="M 771.568125 148.397812 
L 791.568125 148.397812 
" style="fill:none;stroke:#dbdb8d;stroke-linecap:square;stroke-width:1.5;"/>
    </g>
    <g id="line2d_56"/>
    <g id="text_30">
     <!-- lafintel -->
     <g transform="translate(799.568125 151.897812)scale(0.1 -0.1)">
      <use xlink:href="#DejaVuSans-108"/>
      <use x="27.783203" xlink:href="#DejaVuSans-97"/>
      <use x="89.0625" xlink:href="#DejaVuSans-102"/>
      <use x="124.267578" xlink:href="#DejaVuSans-105"/>
      <use x="152.050781" xlink:href="#DejaVuSans-110"/>
      <use x="215.429688" xlink:href="#DejaVuSans-116"/>
      <use x="254.638672" xlink:href="#DejaVuSans-101"/>
      <use x="316.162109" xlink:href="#DejaVuSans-108"/>
     </g>
    </g>
    <g id="line2d_57">
     <path d="M 771.568125 163.075937 
L 791.568125 163.075937 
" style="fill:none;stroke:#c5b0d5;stroke-linecap:square;stroke-width:1.5;"/>
    </g>
    <g id="line2d_58"/>
    <g id="text_31">
     <!-- mopt -->
     <g transform="translate(799.568125 166.575937)scale(0.1 -0.1)">
      <use xlink:href="#DejaVuSans-109"/>
      <use x="97.412109" xlink:href="#DejaVuSans-111"/>
      <use x="158.59375" xlink:href="#DejaVuSans-112"/>
      <use x="222.070312" xlink:href="#DejaVuSans-116"/>
     </g>
    </g>
   </g>
  </g>
 </g>
 <defs>
  <clipPath id="p227a06e236">
   <rect height="266.112" width="714.24" x="53.328125" y="22.318125"/>
  </clipPath>
 </defs>
</svg>
