<?xml version="1.0" encoding="utf-8" standalone="no"?>
<!DOCTYPE svg PUBLIC "-//W3C//DTD SVG 1.1//EN"
  "http://www.w3.org/Graphics/SVG/1.1/DTD/svg11.dtd">
<!-- Created with matplotlib (https://matplotlib.org/) -->
<svg height="368.607178pt" version="1.1" viewBox="0 0 417.648125 368.607178" width="417.648125pt" xmlns="http://www.w3.org/2000/svg" xmlns:xlink="http://www.w3.org/1999/xlink">
 <metadata>
  <rdf:RDF xmlns:cc="http://creativecommons.org/ns#" xmlns:dc="http://purl.org/dc/elements/1.1/" xmlns:rdf="http://www.w3.org/1999/02/22-rdf-syntax-ns#">
   <cc:Work>
    <dc:type rdf:resource="http://purl.org/dc/dcmitype/StillImage"/>
    <dc:date>2020-12-06T10:29:09.151172</dc:date>
    <dc:format>image/svg+xml</dc:format>
    <dc:creator>
     <cc:Agent>
      <dc:title>Matplotlib v3.3.3, https://matplotlib.org/</dc:title>
     </cc:Agent>
    </dc:creator>
   </cc:Work>
  </rdf:RDF>
 </metadata>
 <defs>
  <style type="text/css">*{stroke-linecap:butt;stroke-linejoin:round;}</style>
 </defs>
 <g id="figure_1">
  <g id="patch_1">
   <path d="M 0 368.607178 
L 417.648125 368.607178 
L 417.648125 0 
L 0 0 
z
" style="fill:#ffffff;"/>
  </g>
  <g id="axes_1">
   <g id="patch_2">
    <path d="M 53.328125 288.430125 
L 410.448125 288.430125 
L 410.448125 22.318125 
L 53.328125 22.318125 
z
" style="fill:#ffffff;"/>
   </g>
   <g id="PolyCollection_1">
    <defs>
     <path d="M 73.256469 -298.042518 
L 73.079781 -298.042518 
L 73.057364 -298.403039 
L 73.030631 -298.763561 
L 72.999106 -299.124083 
L 72.962334 -299.484605 
L 72.919899 -299.845127 
L 72.871439 -300.205649 
L 72.816658 -300.566171 
L 72.755336 -300.926693 
L 72.687337 -301.287215 
L 72.612606 -301.647737 
L 72.531171 -302.008259 
L 72.443135 -302.368781 
L 72.348662 -302.729303 
L 72.247972 -303.089824 
L 72.141324 -303.450346 
L 72.029005 -303.810868 
L 71.911329 -304.17139 
L 71.78863 -304.531912 
L 71.661267 -304.892434 
L 71.529635 -305.252956 
L 71.394174 -305.613478 
L 71.25539 -305.974 
L 71.113868 -306.334522 
L 70.970285 -306.695044 
L 70.825418 -307.055566 
L 70.680144 -307.416088 
L 70.535432 -307.776609 
L 70.392315 -308.137131 
L 70.251867 -308.497653 
L 70.115159 -308.858175 
L 69.983219 -309.218697 
L 69.856988 -309.579219 
L 69.73728 -309.939741 
L 69.624749 -310.300263 
L 69.519872 -310.660785 
L 69.422941 -311.021307 
L 69.334072 -311.381829 
L 69.253227 -311.742351 
L 69.180245 -312.102873 
L 69.114888 -312.463395 
L 69.056878 -312.823916 
L 69.005946 -313.184438 
L 68.961867 -313.54496 
L 68.924491 -313.905482 
L 68.89376 -314.266004 
L 68.869717 -314.626526 
L 68.852508 -314.987048 
L 68.842366 -315.34757 
L 68.839602 -315.708092 
L 68.84458 -316.068614 
L 68.857699 -316.429136 
L 68.879372 -316.789658 
L 68.910005 -317.15018 
L 68.949981 -317.510701 
L 68.999639 -317.871223 
L 69.059257 -318.231745 
L 69.12903 -318.592267 
L 69.209051 -318.952789 
L 69.299288 -319.313311 
L 69.399556 -319.673833 
L 69.509504 -320.034355 
L 69.628591 -320.394877 
L 69.75608 -320.755399 
L 69.891035 -321.115921 
L 70.032337 -321.476443 
L 70.178701 -321.836965 
L 70.328718 -322.197486 
L 70.480902 -322.558008 
L 70.633739 -322.91853 
L 70.785753 -323.279052 
L 70.93556 -323.639574 
L 71.081922 -324.000096 
L 71.223792 -324.360618 
L 71.360341 -324.72114 
L 71.490974 -325.081662 
L 71.615332 -325.442184 
L 71.733273 -325.802706 
L 71.844842 -326.163228 
L 71.950234 -326.52375 
L 72.049747 -326.884272 
L 72.143738 -327.244793 
L 72.232576 -327.605315 
L 72.316609 -327.965837 
L 72.396129 -328.326359 
L 72.47136 -328.686881 
L 72.542449 -329.047403 
L 72.609466 -329.407925 
L 72.672419 -329.768447 
L 72.731269 -330.128969 
L 72.785953 -330.489491 
L 72.836405 -330.850013 
L 72.882574 -331.210535 
L 72.924447 -331.571057 
L 72.962057 -331.931578 
L 72.995491 -332.2921 
L 73.024893 -332.652622 
L 73.050462 -333.013144 
L 73.072443 -333.373666 
L 73.091118 -333.734188 
L 73.245132 -333.734188 
L 73.245132 -333.734188 
L 73.263807 -333.373666 
L 73.285788 -333.013144 
L 73.311357 -332.652622 
L 73.340759 -332.2921 
L 73.374193 -331.931578 
L 73.411803 -331.571057 
L 73.453676 -331.210535 
L 73.499845 -330.850013 
L 73.550297 -330.489491 
L 73.604981 -330.128969 
L 73.663831 -329.768447 
L 73.726784 -329.407925 
L 73.793801 -329.047403 
L 73.86489 -328.686881 
L 73.940121 -328.326359 
L 74.019641 -327.965837 
L 74.103674 -327.605315 
L 74.192512 -327.244793 
L 74.286503 -326.884272 
L 74.386016 -326.52375 
L 74.491408 -326.163228 
L 74.602977 -325.802706 
L 74.720918 -325.442184 
L 74.845276 -325.081662 
L 74.975909 -324.72114 
L 75.112458 -324.360618 
L 75.254328 -324.000096 
L 75.40069 -323.639574 
L 75.550497 -323.279052 
L 75.702511 -322.91853 
L 75.855348 -322.558008 
L 76.007532 -322.197486 
L 76.157549 -321.836965 
L 76.303913 -321.476443 
L 76.445215 -321.115921 
L 76.58017 -320.755399 
L 76.707659 -320.394877 
L 76.826746 -320.034355 
L 76.936694 -319.673833 
L 77.036962 -319.313311 
L 77.127199 -318.952789 
L 77.20722 -318.592267 
L 77.276993 -318.231745 
L 77.336611 -317.871223 
L 77.386269 -317.510701 
L 77.426245 -317.15018 
L 77.456878 -316.789658 
L 77.478551 -316.429136 
L 77.49167 -316.068614 
L 77.496648 -315.708092 
L 77.493884 -315.34757 
L 77.483742 -314.987048 
L 77.466533 -314.626526 
L 77.44249 -314.266004 
L 77.411759 -313.905482 
L 77.374383 -313.54496 
L 77.330304 -313.184438 
L 77.279372 -312.823916 
L 77.221362 -312.463395 
L 77.156005 -312.102873 
L 77.083023 -311.742351 
L 77.002178 -311.381829 
L 76.913309 -311.021307 
L 76.816378 -310.660785 
L 76.711501 -310.300263 
L 76.59897 -309.939741 
L 76.479262 -309.579219 
L 76.353031 -309.218697 
L 76.221091 -308.858175 
L 76.084383 -308.497653 
L 75.943935 -308.137131 
L 75.800818 -307.776609 
L 75.656106 -307.416088 
L 75.510832 -307.055566 
L 75.365965 -306.695044 
L 75.222382 -306.334522 
L 75.08086 -305.974 
L 74.942076 -305.613478 
L 74.806615 -305.252956 
L 74.674983 -304.892434 
L 74.54762 -304.531912 
L 74.424921 -304.17139 
L 74.307245 -303.810868 
L 74.194926 -303.450346 
L 74.088278 -303.089824 
L 73.987588 -302.729303 
L 73.893115 -302.368781 
L 73.805079 -302.008259 
L 73.723644 -301.647737 
L 73.648913 -301.287215 
L 73.580914 -300.926693 
L 73.519592 -300.566171 
L 73.464811 -300.205649 
L 73.416351 -299.845127 
L 73.373916 -299.484605 
L 73.337144 -299.124083 
L 73.305619 -298.763561 
L 73.278886 -298.403039 
L 73.256469 -298.042518 
z
" id="m31a57fbaa9" style="stroke:#3d3d3d;stroke-width:1.5;"/>
    </defs>
    <g clip-path="url(#peba243b5f1)">
     <use style="fill:#3a923a;stroke:#3d3d3d;stroke-width:1.5;" x="0" xlink:href="#m31a57fbaa9" y="368.607178"/>
    </g>
   </g>
   <g id="PolyCollection_2">
    <defs>
     <path d="M 112.924155 -294.094285 
L 112.772095 -294.094285 
L 112.753822 -294.499323 
L 112.732572 -294.904361 
L 112.708243 -295.309399 
L 112.680831 -295.714437 
L 112.650447 -296.119475 
L 112.617334 -296.524513 
L 112.581869 -296.929551 
L 112.544566 -297.334589 
L 112.506055 -297.739627 
L 112.467062 -298.144665 
L 112.428364 -298.549703 
L 112.390743 -298.954741 
L 112.354921 -299.359779 
L 112.321496 -299.764818 
L 112.290865 -300.169856 
L 112.26316 -300.574894 
L 112.238183 -300.979932 
L 112.215359 -301.38497 
L 112.1937 -301.790008 
L 112.171797 -302.195046 
L 112.147837 -302.600084 
L 112.119647 -303.005122 
L 112.084763 -303.41016 
L 112.040532 -303.815198 
L 111.984236 -304.220236 
L 111.913237 -304.625274 
L 111.825129 -305.030312 
L 111.717908 -305.43535 
L 111.59012 -305.840388 
L 111.441012 -306.245427 
L 111.270646 -306.650465 
L 111.07998 -307.055503 
L 110.870908 -307.460541 
L 110.646243 -307.865579 
L 110.409647 -308.270617 
L 110.165511 -308.675655 
L 109.918772 -309.080693 
L 109.674697 -309.485731 
L 109.438634 -309.890769 
L 109.215747 -310.295807 
L 109.010756 -310.700845 
L 108.827707 -311.105883 
L 108.669771 -311.510921 
L 108.539115 -311.915959 
L 108.436828 -312.320997 
L 108.362928 -312.726036 
L 108.316436 -313.131074 
L 108.295517 -313.536112 
L 108.297666 -313.94115 
L 108.319932 -314.346188 
L 108.35915 -314.751226 
L 108.412167 -315.156264 
L 108.476042 -315.561302 
L 108.548201 -315.96634 
L 108.626545 -316.371378 
L 108.709495 -316.776416 
L 108.795997 -317.181454 
L 108.885465 -317.586492 
L 108.977698 -317.99153 
L 109.072774 -318.396568 
L 109.170934 -318.801607 
L 109.272472 -319.206645 
L 109.37764 -319.611683 
L 109.486578 -320.016721 
L 109.59927 -320.421759 
L 109.71553 -320.826797 
L 109.835006 -321.231835 
L 109.957211 -321.636873 
L 110.081559 -322.041911 
L 110.207414 -322.446949 
L 110.334132 -322.851987 
L 110.461099 -323.257025 
L 110.58776 -323.662063 
L 110.713636 -324.067101 
L 110.838328 -324.472139 
L 110.961508 -324.877177 
L 111.082908 -325.282216 
L 111.202297 -325.687254 
L 111.319462 -326.092292 
L 111.434181 -326.49733 
L 111.546209 -326.902368 
L 111.655264 -327.307406 
L 111.761023 -327.712444 
L 111.863123 -328.117482 
L 111.961169 -328.52252 
L 112.054751 -328.927558 
L 112.143462 -329.332596 
L 112.226919 -329.737634 
L 112.304787 -330.142672 
L 112.376796 -330.54771 
L 112.44276 -330.952748 
L 112.50259 -331.357786 
L 112.556294 -331.762825 
L 112.603984 -332.167863 
L 112.645866 -332.572901 
L 112.682232 -332.977939 
L 112.713444 -333.382977 
L 112.739918 -333.788015 
L 112.762105 -334.193053 
L 112.934145 -334.193053 
L 112.934145 -334.193053 
L 112.956332 -333.788015 
L 112.982806 -333.382977 
L 113.014018 -332.977939 
L 113.050384 -332.572901 
L 113.092266 -332.167863 
L 113.139956 -331.762825 
L 113.19366 -331.357786 
L 113.25349 -330.952748 
L 113.319454 -330.54771 
L 113.391463 -330.142672 
L 113.469331 -329.737634 
L 113.552788 -329.332596 
L 113.641499 -328.927558 
L 113.735081 -328.52252 
L 113.833127 -328.117482 
L 113.935227 -327.712444 
L 114.040986 -327.307406 
L 114.150041 -326.902368 
L 114.262069 -326.49733 
L 114.376788 -326.092292 
L 114.493953 -325.687254 
L 114.613342 -325.282216 
L 114.734742 -324.877177 
L 114.857922 -324.472139 
L 114.982614 -324.067101 
L 115.10849 -323.662063 
L 115.235151 -323.257025 
L 115.362118 -322.851987 
L 115.488836 -322.446949 
L 115.614691 -322.041911 
L 115.739039 -321.636873 
L 115.861244 -321.231835 
L 115.98072 -320.826797 
L 116.09698 -320.421759 
L 116.209672 -320.016721 
L 116.31861 -319.611683 
L 116.423778 -319.206645 
L 116.525316 -318.801607 
L 116.623476 -318.396568 
L 116.718552 -317.99153 
L 116.810785 -317.586492 
L 116.900253 -317.181454 
L 116.986755 -316.776416 
L 117.069705 -316.371378 
L 117.148049 -315.96634 
L 117.220208 -315.561302 
L 117.284083 -315.156264 
L 117.3371 -314.751226 
L 117.376318 -314.346188 
L 117.398584 -313.94115 
L 117.400733 -313.536112 
L 117.379814 -313.131074 
L 117.333322 -312.726036 
L 117.259422 -312.320997 
L 117.157135 -311.915959 
L 117.026479 -311.510921 
L 116.868543 -311.105883 
L 116.685494 -310.700845 
L 116.480503 -310.295807 
L 116.257616 -309.890769 
L 116.021553 -309.485731 
L 115.777478 -309.080693 
L 115.530739 -308.675655 
L 115.286603 -308.270617 
L 115.050007 -307.865579 
L 114.825342 -307.460541 
L 114.61627 -307.055503 
L 114.425604 -306.650465 
L 114.255238 -306.245427 
L 114.10613 -305.840388 
L 113.978342 -305.43535 
L 113.871121 -305.030312 
L 113.783013 -304.625274 
L 113.712014 -304.220236 
L 113.655718 -303.815198 
L 113.611487 -303.41016 
L 113.576603 -303.005122 
L 113.548413 -302.600084 
L 113.524453 -302.195046 
L 113.50255 -301.790008 
L 113.480891 -301.38497 
L 113.458067 -300.979932 
L 113.43309 -300.574894 
L 113.405385 -300.169856 
L 113.374754 -299.764818 
L 113.341329 -299.359779 
L 113.305507 -298.954741 
L 113.267886 -298.549703 
L 113.229188 -298.144665 
L 113.190195 -297.739627 
L 113.151684 -297.334589 
L 113.114381 -296.929551 
L 113.078916 -296.524513 
L 113.045803 -296.119475 
L 113.015419 -295.714437 
L 112.988007 -295.309399 
L 112.963678 -294.904361 
L 112.942428 -294.499323 
L 112.924155 -294.094285 
z
" id="m0dd3ceef55" style="stroke:#3d3d3d;stroke-width:1.5;"/>
    </defs>
    <g clip-path="url(#peba243b5f1)">
     <use style="fill:#e1812c;stroke:#3d3d3d;stroke-width:1.5;" x="0" xlink:href="#m0dd3ceef55" y="368.607178"/>
    </g>
   </g>
   <g id="PolyCollection_3">
    <defs>
     <path d="M 152.552584 -233.321657 
L 152.503666 -233.321657 
L 152.497471 -234.313186 
L 152.49022 -235.304714 
L 152.481881 -236.296243 
L 152.472462 -237.287771 
L 152.462018 -238.279299 
L 152.450659 -239.270828 
L 152.438554 -240.262356 
L 152.425927 -241.253885 
L 152.413053 -242.245413 
L 152.40025 -243.236942 
L 152.387857 -244.22847 
L 152.376223 -245.219999 
L 152.365679 -246.211527 
L 152.356512 -247.203055 
L 152.348945 -248.194584 
L 152.34311 -249.186112 
L 152.33903 -250.177641 
L 152.336606 -251.169169 
L 152.33561 -252.160698 
L 152.335683 -253.152226 
L 152.336346 -254.143755 
L 152.337011 -255.135283 
L 152.33701 -256.126811 
L 152.335613 -257.11834 
L 152.332067 -258.109868 
L 152.325618 -259.101397 
L 152.315554 -260.092925 
L 152.301225 -261.084454 
L 152.282077 -262.075982 
L 152.257673 -263.06751 
L 152.22771 -264.059039 
L 152.192036 -265.050567 
L 152.150653 -266.042096 
L 152.103724 -267.033624 
L 152.051569 -268.025153 
L 151.994656 -269.016681 
L 151.933586 -270.00821 
L 151.869082 -270.999738 
L 151.801959 -271.991266 
L 151.733105 -272.982795 
L 151.663446 -273.974323 
L 151.593918 -274.965852 
L 151.525434 -275.95738 
L 151.458845 -276.948909 
L 151.394913 -277.940437 
L 151.334278 -278.931966 
L 151.277431 -279.923494 
L 151.224698 -280.915022 
L 151.176223 -281.906551 
L 151.131971 -282.898079 
L 151.091736 -283.889608 
L 151.055155 -284.881136 
L 151.021746 -285.872665 
L 150.99094 -286.864193 
L 150.962134 -287.855722 
L 150.93474 -288.84725 
L 150.90824 -289.838778 
L 150.882237 -290.830307 
L 150.856499 -291.821835 
L 150.830999 -292.813364 
L 150.805934 -293.804892 
L 150.781732 -294.796421 
L 150.759049 -295.787949 
L 150.738737 -296.779478 
L 150.72181 -297.771006 
L 150.709386 -298.762534 
L 150.70263 -299.754063 
L 150.702682 -300.745591 
L 150.710591 -301.73712 
L 150.72725 -302.728648 
L 150.753339 -303.720177 
L 150.789275 -304.711705 
L 150.835187 -305.703234 
L 150.890894 -306.694762 
L 150.955905 -307.68629 
L 151.02944 -308.677819 
L 151.110454 -309.669347 
L 151.197688 -310.660876 
L 151.289714 -311.652404 
L 151.384999 -312.643933 
L 151.481967 -313.635461 
L 151.579058 -314.62699 
L 151.674787 -315.618518 
L 151.767794 -316.610046 
L 151.856882 -317.601575 
L 151.941052 -318.593103 
L 152.019515 -319.584632 
L 152.091707 -320.57616 
L 152.157279 -321.567689 
L 152.216088 -322.559217 
L 152.268174 -323.550745 
L 152.313739 -324.542274 
L 152.35311 -325.533802 
L 152.386715 -326.525331 
L 152.415052 -327.516859 
L 152.438658 -328.508388 
L 152.458085 -329.499916 
L 152.473881 -330.491445 
L 152.486568 -331.482973 
L 152.569682 -331.482973 
L 152.569682 -331.482973 
L 152.582369 -330.491445 
L 152.598165 -329.499916 
L 152.617592 -328.508388 
L 152.641198 -327.516859 
L 152.669535 -326.525331 
L 152.70314 -325.533802 
L 152.742511 -324.542274 
L 152.788076 -323.550745 
L 152.840162 -322.559217 
L 152.898971 -321.567689 
L 152.964543 -320.57616 
L 153.036735 -319.584632 
L 153.115198 -318.593103 
L 153.199368 -317.601575 
L 153.288456 -316.610046 
L 153.381463 -315.618518 
L 153.477192 -314.62699 
L 153.574283 -313.635461 
L 153.671251 -312.643933 
L 153.766536 -311.652404 
L 153.858562 -310.660876 
L 153.945796 -309.669347 
L 154.02681 -308.677819 
L 154.100345 -307.68629 
L 154.165356 -306.694762 
L 154.221063 -305.703234 
L 154.266975 -304.711705 
L 154.302911 -303.720177 
L 154.329 -302.728648 
L 154.345659 -301.73712 
L 154.353568 -300.745591 
L 154.35362 -299.754063 
L 154.346864 -298.762534 
L 154.33444 -297.771006 
L 154.317513 -296.779478 
L 154.297201 -295.787949 
L 154.274518 -294.796421 
L 154.250316 -293.804892 
L 154.225251 -292.813364 
L 154.199751 -291.821835 
L 154.174013 -290.830307 
L 154.14801 -289.838778 
L 154.12151 -288.84725 
L 154.094116 -287.855722 
L 154.06531 -286.864193 
L 154.034504 -285.872665 
L 154.001095 -284.881136 
L 153.964514 -283.889608 
L 153.924279 -282.898079 
L 153.880027 -281.906551 
L 153.831552 -280.915022 
L 153.778819 -279.923494 
L 153.721972 -278.931966 
L 153.661337 -277.940437 
L 153.597405 -276.948909 
L 153.530816 -275.95738 
L 153.462332 -274.965852 
L 153.392804 -273.974323 
L 153.323145 -272.982795 
L 153.254291 -271.991266 
L 153.187168 -270.999738 
L 153.122664 -270.00821 
L 153.061594 -269.016681 
L 153.004681 -268.025153 
L 152.952526 -267.033624 
L 152.905597 -266.042096 
L 152.864214 -265.050567 
L 152.82854 -264.059039 
L 152.798577 -263.06751 
L 152.774173 -262.075982 
L 152.755025 -261.084454 
L 152.740696 -260.092925 
L 152.730632 -259.101397 
L 152.724183 -258.109868 
L 152.720637 -257.11834 
L 152.71924 -256.126811 
L 152.719239 -255.135283 
L 152.719904 -254.143755 
L 152.720567 -253.152226 
L 152.72064 -252.160698 
L 152.719644 -251.169169 
L 152.71722 -250.177641 
L 152.71314 -249.186112 
L 152.707305 -248.194584 
L 152.699738 -247.203055 
L 152.690571 -246.211527 
L 152.680027 -245.219999 
L 152.668393 -244.22847 
L 152.656 -243.236942 
L 152.643197 -242.245413 
L 152.630323 -241.253885 
L 152.617696 -240.262356 
L 152.605591 -239.270828 
L 152.594232 -238.279299 
L 152.583788 -237.287771 
L 152.574369 -236.296243 
L 152.56603 -235.304714 
L 152.558779 -234.313186 
L 152.552584 -233.321657 
z
" id="m3a90bfe088" style="stroke:#3d3d3d;stroke-width:1.5;"/>
    </defs>
    <g clip-path="url(#peba243b5f1)">
     <use style="fill:#d684bd;stroke:#3d3d3d;stroke-width:1.5;" x="0" xlink:href="#m3a90bfe088" y="368.607178"/>
    </g>
   </g>
   <g id="PolyCollection_4">
    <defs>
     <path d="M 192.235597 -183.083976 
L 192.180653 -183.083976 
L 192.173678 -184.447566 
L 192.165304 -185.811155 
L 192.155345 -187.174745 
L 192.143609 -188.538334 
L 192.129907 -189.901924 
L 192.114051 -191.265513 
L 192.095862 -192.629103 
L 192.075176 -193.992693 
L 192.051845 -195.356282 
L 192.025744 -196.719872 
L 191.996776 -198.083461 
L 191.964872 -199.447051 
L 191.930001 -200.81064 
L 191.892164 -202.17423 
L 191.851406 -203.537819 
L 191.807814 -204.901409 
L 191.761521 -206.264998 
L 191.712707 -207.628588 
L 191.661604 -208.992177 
L 191.608499 -210.355767 
L 191.553732 -211.719356 
L 191.497704 -213.082946 
L 191.440873 -214.446535 
L 191.383754 -215.810125 
L 191.326918 -217.173714 
L 191.270987 -218.537304 
L 191.216625 -219.900893 
L 191.164527 -221.264483 
L 191.11541 -222.628072 
L 191.069994 -223.991662 
L 191.028985 -225.355252 
L 190.993058 -226.718841 
L 190.962832 -228.082431 
L 190.938854 -229.44602 
L 190.921579 -230.80961 
L 190.911351 -232.173199 
L 190.908391 -233.536789 
L 190.91278 -234.900378 
L 190.924458 -236.263968 
L 190.943215 -237.627557 
L 190.968695 -238.991147 
L 191.0004 -240.354736 
L 191.037701 -241.718326 
L 191.079848 -243.081915 
L 191.125992 -244.445505 
L 191.175203 -245.809094 
L 191.226493 -247.172684 
L 191.278842 -248.536273 
L 191.331226 -249.899863 
L 191.38264 -251.263452 
L 191.432132 -252.627042 
L 191.478824 -253.990631 
L 191.52194 -255.354221 
L 191.560827 -256.717811 
L 191.594975 -258.0814 
L 191.62403 -259.44499 
L 191.647808 -260.808579 
L 191.666295 -262.172169 
L 191.679648 -263.535758 
L 191.688186 -264.899348 
L 191.692379 -266.262937 
L 191.692826 -267.626527 
L 191.69023 -268.990116 
L 191.685374 -270.353706 
L 191.679085 -271.717295 
L 191.672207 -273.080885 
L 191.665565 -274.444474 
L 191.659934 -275.808064 
L 191.656015 -277.171653 
L 191.654409 -278.535243 
L 191.655598 -279.898832 
L 191.659936 -281.262422 
L 191.667641 -282.626011 
L 191.678795 -283.989601 
L 191.693349 -285.35319 
L 191.711134 -286.71678 
L 191.73188 -288.080369 
L 191.755226 -289.443959 
L 191.780749 -290.807549 
L 191.807979 -292.171138 
L 191.836421 -293.534728 
L 191.865578 -294.898317 
L 191.894965 -296.261907 
L 191.924126 -297.625496 
L 191.952648 -298.989086 
L 191.980166 -300.352675 
L 192.006378 -301.716265 
L 192.031038 -303.079854 
L 192.053965 -304.443444 
L 192.075036 -305.807033 
L 192.094187 -307.170623 
L 192.111402 -308.534212 
L 192.126711 -309.897802 
L 192.140183 -311.261391 
L 192.151913 -312.624981 
L 192.162021 -313.98857 
L 192.170642 -315.35216 
L 192.17792 -316.715749 
L 192.184 -318.079339 
L 192.23225 -318.079339 
L 192.23225 -318.079339 
L 192.23833 -316.715749 
L 192.245608 -315.35216 
L 192.254229 -313.98857 
L 192.264337 -312.624981 
L 192.276067 -311.261391 
L 192.289539 -309.897802 
L 192.304848 -308.534212 
L 192.322063 -307.170623 
L 192.341214 -305.807033 
L 192.362285 -304.443444 
L 192.385212 -303.079854 
L 192.409872 -301.716265 
L 192.436084 -300.352675 
L 192.463602 -298.989086 
L 192.492124 -297.625496 
L 192.521285 -296.261907 
L 192.550672 -294.898317 
L 192.579829 -293.534728 
L 192.608271 -292.171138 
L 192.635501 -290.807549 
L 192.661024 -289.443959 
L 192.68437 -288.080369 
L 192.705116 -286.71678 
L 192.722901 -285.35319 
L 192.737455 -283.989601 
L 192.748609 -282.626011 
L 192.756314 -281.262422 
L 192.760652 -279.898832 
L 192.761841 -278.535243 
L 192.760235 -277.171653 
L 192.756316 -275.808064 
L 192.750685 -274.444474 
L 192.744043 -273.080885 
L 192.737165 -271.717295 
L 192.730876 -270.353706 
L 192.72602 -268.990116 
L 192.723424 -267.626527 
L 192.723871 -266.262937 
L 192.728064 -264.899348 
L 192.736602 -263.535758 
L 192.749955 -262.172169 
L 192.768442 -260.808579 
L 192.79222 -259.44499 
L 192.821275 -258.0814 
L 192.855423 -256.717811 
L 192.89431 -255.354221 
L 192.937426 -253.990631 
L 192.984118 -252.627042 
L 193.03361 -251.263452 
L 193.085024 -249.899863 
L 193.137408 -248.536273 
L 193.189757 -247.172684 
L 193.241047 -245.809094 
L 193.290258 -244.445505 
L 193.336402 -243.081915 
L 193.378549 -241.718326 
L 193.41585 -240.354736 
L 193.447555 -238.991147 
L 193.473035 -237.627557 
L 193.491792 -236.263968 
L 193.50347 -234.900378 
L 193.507859 -233.536789 
L 193.504899 -232.173199 
L 193.494671 -230.80961 
L 193.477396 -229.44602 
L 193.453418 -228.082431 
L 193.423192 -226.718841 
L 193.387265 -225.355252 
L 193.346256 -223.991662 
L 193.30084 -222.628072 
L 193.251723 -221.264483 
L 193.199625 -219.900893 
L 193.145263 -218.537304 
L 193.089332 -217.173714 
L 193.032496 -215.810125 
L 192.975377 -214.446535 
L 192.918546 -213.082946 
L 192.862518 -211.719356 
L 192.807751 -210.355767 
L 192.754646 -208.992177 
L 192.703543 -207.628588 
L 192.654729 -206.264998 
L 192.608436 -204.901409 
L 192.564844 -203.537819 
L 192.524086 -202.17423 
L 192.486249 -200.81064 
L 192.451378 -199.447051 
L 192.419474 -198.083461 
L 192.390506 -196.719872 
L 192.364405 -195.356282 
L 192.341074 -193.992693 
L 192.320388 -192.629103 
L 192.302199 -191.265513 
L 192.286343 -189.901924 
L 192.272641 -188.538334 
L 192.260905 -187.174745 
L 192.250946 -185.811155 
L 192.242572 -184.447566 
L 192.235597 -183.083976 
z
" id="m8ae9fb33ac" style="stroke:#3d3d3d;stroke-width:1.5;"/>
    </defs>
    <g clip-path="url(#peba243b5f1)">
     <use style="fill:#3274a1;stroke:#3d3d3d;stroke-width:1.5;" x="0" xlink:href="#m8ae9fb33ac" y="368.607178"/>
    </g>
   </g>
   <g id="PolyCollection_5">
    <defs>
     <path d="M 232.330371 -215.356514 
L 231.445879 -215.356514 
L 231.329587 -215.455331 
L 231.188741 -215.554148 
L 231.01981 -215.652964 
L 230.819166 -215.751781 
L 230.58318 -215.850598 
L 230.308346 -215.949415 
L 229.991421 -216.048232 
L 229.629579 -216.147049 
L 229.220573 -216.245865 
L 228.762906 -216.344682 
L 228.255989 -216.443499 
L 227.700288 -216.542316 
L 227.09745 -216.641133 
L 226.450393 -216.739949 
L 225.763356 -216.838766 
L 225.041906 -216.937583 
L 224.292882 -217.0364 
L 223.524299 -217.135217 
L 222.74519 -217.234034 
L 221.965398 -217.33285 
L 221.195333 -217.431667 
L 220.445685 -217.530484 
L 219.727127 -217.629301 
L 219.050001 -217.728118 
L 218.424006 -217.826935 
L 217.857919 -217.925751 
L 217.359325 -218.024568 
L 216.934405 -218.123385 
L 216.587764 -218.222202 
L 216.322317 -218.321019 
L 216.139229 -218.419836 
L 216.037921 -218.518652 
L 216.016125 -218.617469 
L 216.069995 -218.716286 
L 216.194263 -218.815103 
L 216.382433 -218.91392 
L 216.627003 -219.012736 
L 216.919713 -219.111553 
L 217.2518 -219.21037 
L 217.614252 -219.309187 
L 217.998059 -219.408004 
L 218.394449 -219.506821 
L 218.795097 -219.605637 
L 219.192309 -219.704454 
L 219.579174 -219.803271 
L 219.949679 -219.902088 
L 220.298792 -220.000905 
L 220.622512 -220.099722 
L 220.917883 -220.198538 
L 221.18299 -220.297355 
L 221.416925 -220.396172 
L 221.619744 -220.494989 
L 221.792403 -220.593806 
L 221.936692 -220.692623 
L 222.055155 -220.791439 
L 222.151014 -220.890256 
L 222.228075 -220.989073 
L 222.290638 -221.08789 
L 222.343391 -221.186707 
L 222.391293 -221.285523 
L 222.439456 -221.38434 
L 222.493004 -221.483157 
L 222.556931 -221.581974 
L 222.635957 -221.680791 
L 222.734375 -221.779608 
L 222.855919 -221.878424 
L 223.003631 -221.977241 
L 223.179768 -222.076058 
L 223.385717 -222.174875 
L 223.621963 -222.273692 
L 223.888077 -222.372509 
L 224.182747 -222.471325 
L 224.503845 -222.570142 
L 224.848519 -222.668959 
L 225.213315 -222.767776 
L 225.594309 -222.866593 
L 225.987259 -222.96541 
L 226.387748 -223.064226 
L 226.791329 -223.163043 
L 227.193658 -223.26186 
L 227.590608 -223.360677 
L 227.978368 -223.459494 
L 228.353519 -223.55831 
L 228.713094 -223.657127 
L 229.054608 -223.755944 
L 229.376081 -223.854761 
L 229.676038 -223.953578 
L 229.953493 -224.052395 
L 230.207925 -224.151211 
L 230.439243 -224.250028 
L 230.647743 -224.348845 
L 230.834058 -224.447662 
L 230.999108 -224.546479 
L 231.144045 -224.645296 
L 231.2702 -224.744112 
L 231.379032 -224.842929 
L 231.472077 -224.941746 
L 231.550901 -225.040563 
L 231.617067 -225.13938 
L 232.159183 -225.13938 
L 232.159183 -225.13938 
L 232.225349 -225.040563 
L 232.304173 -224.941746 
L 232.397218 -224.842929 
L 232.50605 -224.744112 
L 232.632205 -224.645296 
L 232.777142 -224.546479 
L 232.942192 -224.447662 
L 233.128507 -224.348845 
L 233.337007 -224.250028 
L 233.568325 -224.151211 
L 233.822757 -224.052395 
L 234.100212 -223.953578 
L 234.400169 -223.854761 
L 234.721642 -223.755944 
L 235.063156 -223.657127 
L 235.422731 -223.55831 
L 235.797882 -223.459494 
L 236.185642 -223.360677 
L 236.582592 -223.26186 
L 236.984921 -223.163043 
L 237.388502 -223.064226 
L 237.788991 -222.96541 
L 238.181941 -222.866593 
L 238.562935 -222.767776 
L 238.927731 -222.668959 
L 239.272405 -222.570142 
L 239.593503 -222.471325 
L 239.888173 -222.372509 
L 240.154287 -222.273692 
L 240.390533 -222.174875 
L 240.596482 -222.076058 
L 240.772619 -221.977241 
L 240.920331 -221.878424 
L 241.041875 -221.779608 
L 241.140293 -221.680791 
L 241.219319 -221.581974 
L 241.283246 -221.483157 
L 241.336794 -221.38434 
L 241.384957 -221.285523 
L 241.432859 -221.186707 
L 241.485612 -221.08789 
L 241.548175 -220.989073 
L 241.625236 -220.890256 
L 241.721095 -220.791439 
L 241.839558 -220.692623 
L 241.983847 -220.593806 
L 242.156506 -220.494989 
L 242.359325 -220.396172 
L 242.59326 -220.297355 
L 242.858367 -220.198538 
L 243.153738 -220.099722 
L 243.477458 -220.000905 
L 243.826571 -219.902088 
L 244.197076 -219.803271 
L 244.583941 -219.704454 
L 244.981153 -219.605637 
L 245.381801 -219.506821 
L 245.778191 -219.408004 
L 246.161998 -219.309187 
L 246.52445 -219.21037 
L 246.856537 -219.111553 
L 247.149247 -219.012736 
L 247.393817 -218.91392 
L 247.581987 -218.815103 
L 247.706255 -218.716286 
L 247.760125 -218.617469 
L 247.738329 -218.518652 
L 247.637021 -218.419836 
L 247.453933 -218.321019 
L 247.188486 -218.222202 
L 246.841845 -218.123385 
L 246.416925 -218.024568 
L 245.918331 -217.925751 
L 245.352244 -217.826935 
L 244.726249 -217.728118 
L 244.049123 -217.629301 
L 243.330565 -217.530484 
L 242.580917 -217.431667 
L 241.810852 -217.33285 
L 241.03106 -217.234034 
L 240.251951 -217.135217 
L 239.483368 -217.0364 
L 238.734344 -216.937583 
L 238.012894 -216.838766 
L 237.325857 -216.739949 
L 236.6788 -216.641133 
L 236.075962 -216.542316 
L 235.520261 -216.443499 
L 235.013344 -216.344682 
L 234.555677 -216.245865 
L 234.146671 -216.147049 
L 233.784829 -216.048232 
L 233.467904 -215.949415 
L 233.19307 -215.850598 
L 232.957084 -215.751781 
L 232.75644 -215.652964 
L 232.587509 -215.554148 
L 232.446663 -215.455331 
L 232.330371 -215.356514 
z
" id="m55b9336a41" style="stroke:#3d3d3d;stroke-width:1.5;"/>
    </defs>
    <g clip-path="url(#peba243b5f1)">
     <use style="fill:#c03d3e;stroke:#3d3d3d;stroke-width:1.5;" x="0" xlink:href="#m55b9336a41" y="368.607178"/>
    </g>
   </g>
   <g id="PolyCollection_6">
    <defs>
     <path d="M 271.585784 -92.273053 
L 271.550466 -92.273053 
L 271.546095 -94.065366 
L 271.540943 -95.857679 
L 271.534956 -97.649993 
L 271.528093 -99.442306 
L 271.520339 -101.234619 
L 271.511706 -103.026932 
L 271.502239 -104.819245 
L 271.492021 -106.611559 
L 271.48117 -108.403872 
L 271.469844 -110.196185 
L 271.458234 -111.988498 
L 271.446561 -113.780811 
L 271.435068 -115.573125 
L 271.424009 -117.365438 
L 271.413637 -119.157751 
L 271.404189 -120.950064 
L 271.395877 -122.742377 
L 271.38887 -124.534691 
L 271.383282 -126.327004 
L 271.37917 -128.119317 
L 271.376518 -129.91163 
L 271.375242 -131.703943 
L 271.375192 -133.496257 
L 271.376153 -135.28857 
L 271.377863 -137.080883 
L 271.38002 -138.873196 
L 271.382302 -140.665509 
L 271.384385 -142.457822 
L 271.385954 -144.250136 
L 271.386726 -146.042449 
L 271.38646 -147.834762 
L 271.384965 -149.627075 
L 271.382107 -151.419388 
L 271.377809 -153.211702 
L 271.372047 -155.004015 
L 271.364838 -156.796328 
L 271.356231 -158.588641 
L 271.34629 -160.380954 
L 271.335075 -162.173268 
L 271.322632 -163.965581 
L 271.308972 -165.757894 
L 271.294063 -167.550207 
L 271.27782 -169.34252 
L 271.260106 -171.134834 
L 271.240732 -172.927147 
L 271.219465 -174.71946 
L 271.196047 -176.511773 
L 271.170204 -178.304086 
L 271.141674 -180.0964 
L 271.110225 -181.888713 
L 271.075682 -183.681026 
L 271.037944 -185.473339 
L 270.997009 -187.265652 
L 270.95299 -189.057966 
L 270.906122 -190.850279 
L 270.856778 -192.642592 
L 270.805465 -194.434905 
L 270.752825 -196.227218 
L 270.699623 -198.019532 
L 270.646735 -199.811845 
L 270.595128 -201.604158 
L 270.545833 -203.396471 
L 270.499917 -205.188784 
L 270.458453 -206.981098 
L 270.422479 -208.773411 
L 270.392966 -210.565724 
L 270.370779 -212.358037 
L 270.356642 -214.15035 
L 270.351109 -215.942664 
L 270.354533 -217.734977 
L 270.367052 -219.52729 
L 270.388578 -221.319603 
L 270.418792 -223.111916 
L 270.457156 -224.90423 
L 270.502929 -226.696543 
L 270.555198 -228.488856 
L 270.612905 -230.281169 
L 270.674893 -232.073482 
L 270.739948 -233.865796 
L 270.806841 -235.658109 
L 270.874373 -237.450422 
L 270.94141 -239.242735 
L 271.006924 -241.035048 
L 271.07001 -242.827362 
L 271.129915 -244.619675 
L 271.186041 -246.411988 
L 271.237949 -248.204301 
L 271.28536 -249.996614 
L 271.328138 -251.788928 
L 271.366281 -253.581241 
L 271.399896 -255.373554 
L 271.429184 -257.165867 
L 271.454417 -258.95818 
L 271.475917 -260.750494 
L 271.494036 -262.542807 
L 271.509142 -264.33512 
L 271.5216 -266.127433 
L 271.531767 -267.919746 
L 271.539976 -269.71206 
L 271.596274 -269.71206 
L 271.596274 -269.71206 
L 271.604483 -267.919746 
L 271.61465 -266.127433 
L 271.627108 -264.33512 
L 271.642214 -262.542807 
L 271.660333 -260.750494 
L 271.681833 -258.95818 
L 271.707066 -257.165867 
L 271.736354 -255.373554 
L 271.769969 -253.581241 
L 271.808112 -251.788928 
L 271.85089 -249.996614 
L 271.898301 -248.204301 
L 271.950209 -246.411988 
L 272.006335 -244.619675 
L 272.06624 -242.827362 
L 272.129326 -241.035048 
L 272.19484 -239.242735 
L 272.261877 -237.450422 
L 272.329409 -235.658109 
L 272.396302 -233.865796 
L 272.461357 -232.073482 
L 272.523345 -230.281169 
L 272.581052 -228.488856 
L 272.633321 -226.696543 
L 272.679094 -224.90423 
L 272.717458 -223.111916 
L 272.747672 -221.319603 
L 272.769198 -219.52729 
L 272.781717 -217.734977 
L 272.785141 -215.942664 
L 272.779608 -214.15035 
L 272.765471 -212.358037 
L 272.743284 -210.565724 
L 272.713771 -208.773411 
L 272.677797 -206.981098 
L 272.636333 -205.188784 
L 272.590417 -203.396471 
L 272.541122 -201.604158 
L 272.489515 -199.811845 
L 272.436627 -198.019532 
L 272.383425 -196.227218 
L 272.330785 -194.434905 
L 272.279472 -192.642592 
L 272.230128 -190.850279 
L 272.18326 -189.057966 
L 272.139241 -187.265652 
L 272.098306 -185.473339 
L 272.060568 -183.681026 
L 272.026025 -181.888713 
L 271.994576 -180.0964 
L 271.966046 -178.304086 
L 271.940203 -176.511773 
L 271.916785 -174.71946 
L 271.895518 -172.927147 
L 271.876144 -171.134834 
L 271.85843 -169.34252 
L 271.842187 -167.550207 
L 271.827278 -165.757894 
L 271.813618 -163.965581 
L 271.801175 -162.173268 
L 271.78996 -160.380954 
L 271.780019 -158.588641 
L 271.771412 -156.796328 
L 271.764203 -155.004015 
L 271.758441 -153.211702 
L 271.754143 -151.419388 
L 271.751285 -149.627075 
L 271.74979 -147.834762 
L 271.749524 -146.042449 
L 271.750296 -144.250136 
L 271.751865 -142.457822 
L 271.753948 -140.665509 
L 271.75623 -138.873196 
L 271.758387 -137.080883 
L 271.760097 -135.28857 
L 271.761058 -133.496257 
L 271.761008 -131.703943 
L 271.759732 -129.91163 
L 271.75708 -128.119317 
L 271.752968 -126.327004 
L 271.74738 -124.534691 
L 271.740373 -122.742377 
L 271.732061 -120.950064 
L 271.722613 -119.157751 
L 271.712241 -117.365438 
L 271.701182 -115.573125 
L 271.689689 -113.780811 
L 271.678016 -111.988498 
L 271.666406 -110.196185 
L 271.65508 -108.403872 
L 271.644229 -106.611559 
L 271.634011 -104.819245 
L 271.624544 -103.026932 
L 271.615911 -101.234619 
L 271.608157 -99.442306 
L 271.601294 -97.649993 
L 271.595307 -95.857679 
L 271.590155 -94.065366 
L 271.585784 -92.273053 
z
" id="md717f9e8f2" style="stroke:#3d3d3d;stroke-width:1.5;"/>
    </defs>
    <g clip-path="url(#peba243b5f1)">
     <use style="fill:#d1d197;stroke:#3d3d3d;stroke-width:1.5;" x="0" xlink:href="#md717f9e8f2" y="368.607178"/>
    </g>
   </g>
   <g id="PolyCollection_7">
    <defs>
     <path d="M 311.315237 -187.116414 
L 311.181013 -187.116414 
L 311.163846 -187.49776 
L 311.143503 -187.879107 
L 311.119726 -188.260454 
L 311.092321 -188.641801 
L 311.061173 -189.023148 
L 311.026269 -189.404495 
L 310.987711 -189.785842 
L 310.945732 -190.167189 
L 310.900694 -190.548536 
L 310.853093 -190.929883 
L 310.803547 -191.311229 
L 310.752781 -191.692576 
L 310.701602 -192.073923 
L 310.650867 -192.45527 
L 310.601448 -192.836617 
L 310.554197 -193.217964 
L 310.509904 -193.599311 
L 310.469262 -193.980658 
L 310.432831 -194.362005 
L 310.401016 -194.743352 
L 310.374045 -195.124699 
L 310.351957 -195.506045 
L 310.334601 -195.887392 
L 310.321638 -196.268739 
L 310.312558 -196.650086 
L 310.306693 -197.031433 
L 310.303236 -197.41278 
L 310.301268 -197.794127 
L 310.299776 -198.175474 
L 310.297669 -198.556821 
L 310.293796 -198.938168 
L 310.286957 -199.319514 
L 310.275908 -199.700861 
L 310.259369 -200.082208 
L 310.236025 -200.463555 
L 310.204541 -200.844902 
L 310.163567 -201.226249 
L 310.111761 -201.607596 
L 310.047818 -201.988943 
L 309.970507 -202.37029 
L 309.878719 -202.751637 
L 309.771523 -203.132984 
L 309.648221 -203.51433 
L 309.508415 -203.895677 
L 309.352057 -204.277024 
L 309.1795 -204.658371 
L 308.99153 -205.039718 
L 308.789388 -205.421065 
L 308.574766 -205.802412 
L 308.349789 -206.183759 
L 308.116978 -206.565106 
L 307.879192 -206.946453 
L 307.639564 -207.327799 
L 307.401416 -207.709146 
L 307.168181 -208.090493 
L 306.943313 -208.47184 
L 306.730212 -208.853187 
L 306.532138 -209.234534 
L 306.352154 -209.615881 
L 306.193064 -209.997228 
L 306.057365 -210.378575 
L 305.947216 -210.759922 
L 305.864409 -211.141268 
L 305.810347 -211.522615 
L 305.786037 -211.903962 
L 305.792073 -212.285309 
L 305.828633 -212.666656 
L 305.895472 -213.048003 
L 305.99192 -213.42935 
L 306.116876 -213.810697 
L 306.268819 -214.192044 
L 306.445811 -214.573391 
L 306.645519 -214.954738 
L 306.865245 -215.336084 
L 307.101969 -215.717431 
L 307.352406 -216.098778 
L 307.613077 -216.480125 
L 307.880389 -216.861472 
L 308.150727 -217.242819 
L 308.420548 -217.624166 
L 308.686473 -218.005513 
L 308.945377 -218.38686 
L 309.194463 -218.768207 
L 309.431331 -219.149553 
L 309.654016 -219.5309 
L 309.861021 -219.912247 
L 310.051314 -220.293594 
L 310.224326 -220.674941 
L 310.379913 -221.056288 
L 310.518315 -221.437635 
L 310.640105 -221.818982 
L 310.746129 -222.200329 
L 310.837439 -222.581676 
L 310.915239 -222.963023 
L 310.980818 -223.344369 
L 311.035506 -223.725716 
L 311.080622 -224.107063 
L 311.117442 -224.48841 
L 311.147167 -224.869757 
L 311.349083 -224.869757 
L 311.349083 -224.869757 
L 311.378808 -224.48841 
L 311.415628 -224.107063 
L 311.460744 -223.725716 
L 311.515432 -223.344369 
L 311.581011 -222.963023 
L 311.658811 -222.581676 
L 311.750121 -222.200329 
L 311.856145 -221.818982 
L 311.977935 -221.437635 
L 312.116337 -221.056288 
L 312.271924 -220.674941 
L 312.444936 -220.293594 
L 312.635229 -219.912247 
L 312.842234 -219.5309 
L 313.064919 -219.149553 
L 313.301787 -218.768207 
L 313.550873 -218.38686 
L 313.809777 -218.005513 
L 314.075702 -217.624166 
L 314.345523 -217.242819 
L 314.615861 -216.861472 
L 314.883173 -216.480125 
L 315.143844 -216.098778 
L 315.394281 -215.717431 
L 315.631005 -215.336084 
L 315.850731 -214.954738 
L 316.050439 -214.573391 
L 316.227431 -214.192044 
L 316.379374 -213.810697 
L 316.50433 -213.42935 
L 316.600778 -213.048003 
L 316.667617 -212.666656 
L 316.704177 -212.285309 
L 316.710213 -211.903962 
L 316.685903 -211.522615 
L 316.631841 -211.141268 
L 316.549034 -210.759922 
L 316.438885 -210.378575 
L 316.303186 -209.997228 
L 316.144096 -209.615881 
L 315.964112 -209.234534 
L 315.766038 -208.853187 
L 315.552937 -208.47184 
L 315.328069 -208.090493 
L 315.094834 -207.709146 
L 314.856686 -207.327799 
L 314.617058 -206.946453 
L 314.379272 -206.565106 
L 314.146461 -206.183759 
L 313.921484 -205.802412 
L 313.706862 -205.421065 
L 313.50472 -205.039718 
L 313.31675 -204.658371 
L 313.144193 -204.277024 
L 312.987835 -203.895677 
L 312.848029 -203.51433 
L 312.724727 -203.132984 
L 312.617531 -202.751637 
L 312.525743 -202.37029 
L 312.448432 -201.988943 
L 312.384489 -201.607596 
L 312.332683 -201.226249 
L 312.291709 -200.844902 
L 312.260225 -200.463555 
L 312.236881 -200.082208 
L 312.220342 -199.700861 
L 312.209293 -199.319514 
L 312.202454 -198.938168 
L 312.198581 -198.556821 
L 312.196474 -198.175474 
L 312.194982 -197.794127 
L 312.193014 -197.41278 
L 312.189557 -197.031433 
L 312.183692 -196.650086 
L 312.174612 -196.268739 
L 312.161649 -195.887392 
L 312.144293 -195.506045 
L 312.122205 -195.124699 
L 312.095234 -194.743352 
L 312.063419 -194.362005 
L 312.026988 -193.980658 
L 311.986346 -193.599311 
L 311.942053 -193.217964 
L 311.894802 -192.836617 
L 311.845383 -192.45527 
L 311.794648 -192.073923 
L 311.743469 -191.692576 
L 311.692703 -191.311229 
L 311.643157 -190.929883 
L 311.595556 -190.548536 
L 311.550518 -190.167189 
L 311.508539 -189.785842 
L 311.469981 -189.404495 
L 311.435077 -189.023148 
L 311.403929 -188.641801 
L 311.376524 -188.260454 
L 311.352747 -187.879107 
L 311.332404 -187.49776 
L 311.315237 -187.116414 
z
" id="maf97171677" style="stroke:#3d3d3d;stroke-width:1.5;"/>
    </defs>
    <g clip-path="url(#peba243b5f1)">
     <use style="fill:#9fd495;stroke:#3d3d3d;stroke-width:1.5;" x="0" xlink:href="#maf97171677" y="368.607178"/>
    </g>
   </g>
   <g id="PolyCollection_8">
    <defs>
     <path d="M 351.071125 -192.191558 
L 350.785125 -192.191558 
L 350.750274 -192.519641 
L 350.708978 -192.847724 
L 350.660571 -193.175807 
L 350.604443 -193.503891 
L 350.540066 -193.831974 
L 350.467031 -194.160057 
L 350.385074 -194.48814 
L 350.294115 -194.816224 
L 350.194274 -195.144307 
L 350.085901 -195.47239 
L 349.96958 -195.800473 
L 349.84614 -196.128556 
L 349.716648 -196.45664 
L 349.582391 -196.784723 
L 349.444849 -197.112806 
L 349.305665 -197.440889 
L 349.166595 -197.768973 
L 349.029459 -198.097056 
L 348.896086 -198.425139 
L 348.768257 -198.753222 
L 348.64764 -199.081306 
L 348.535742 -199.409389 
L 348.433846 -199.737472 
L 348.342972 -200.065555 
L 348.263829 -200.393639 
L 348.196793 -200.721722 
L 348.141876 -201.049805 
L 348.098724 -201.377888 
L 348.066615 -201.705971 
L 348.044472 -202.034055 
L 348.030891 -202.362138 
L 348.024172 -202.690221 
L 348.022373 -203.018304 
L 348.02336 -203.346388 
L 348.024874 -203.674471 
L 348.024599 -204.002554 
L 348.020237 -204.330637 
L 348.00958 -204.658721 
L 347.990584 -204.986804 
L 347.96144 -205.314887 
L 347.920637 -205.64297 
L 347.86702 -205.971053 
L 347.799838 -206.299137 
L 347.718786 -206.62722 
L 347.624031 -206.955303 
L 347.516229 -207.283386 
L 347.396533 -207.61147 
L 347.26658 -207.939553 
L 347.12848 -208.267636 
L 346.984772 -208.595719 
L 346.838382 -208.923803 
L 346.692556 -209.251886 
L 346.550787 -209.579969 
L 346.416718 -209.908052 
L 346.294045 -210.236136 
L 346.186396 -210.564219 
L 346.097221 -210.892302 
L 346.029662 -211.220385 
L 345.986442 -211.548468 
L 345.969753 -211.876552 
L 345.981166 -212.204635 
L 346.021562 -212.532718 
L 346.091086 -212.860801 
L 346.189133 -213.188885 
L 346.31437 -213.516968 
L 346.464783 -213.845051 
L 346.637762 -214.173134 
L 346.830203 -214.501218 
L 347.038636 -214.829301 
L 347.259364 -215.157384 
L 347.488605 -215.485467 
L 347.722629 -215.81355 
L 347.957885 -216.141634 
L 348.19111 -216.469717 
L 348.419413 -216.7978 
L 348.640336 -217.125883 
L 348.851884 -217.453967 
L 349.05253 -217.78205 
L 349.241202 -218.110133 
L 349.417246 -218.438216 
L 349.580373 -218.7663 
L 349.730604 -219.094383 
L 349.868207 -219.422466 
L 349.993634 -219.750549 
L 350.107469 -220.078633 
L 350.210373 -220.406716 
L 350.303049 -220.734799 
L 350.386211 -221.062882 
L 350.460556 -221.390965 
L 350.526762 -221.719049 
L 350.58547 -222.047132 
L 350.637289 -222.375215 
L 350.682794 -222.703298 
L 350.722531 -223.031382 
L 350.757016 -223.359465 
L 350.786745 -223.687548 
L 350.812188 -224.015631 
L 350.833797 -224.343715 
L 350.852 -224.671798 
L 351.00425 -224.671798 
L 351.00425 -224.671798 
L 351.022453 -224.343715 
L 351.044062 -224.015631 
L 351.069505 -223.687548 
L 351.099234 -223.359465 
L 351.133719 -223.031382 
L 351.173456 -222.703298 
L 351.218961 -222.375215 
L 351.27078 -222.047132 
L 351.329488 -221.719049 
L 351.395694 -221.390965 
L 351.470039 -221.062882 
L 351.553201 -220.734799 
L 351.645877 -220.406716 
L 351.748781 -220.078633 
L 351.862616 -219.750549 
L 351.988043 -219.422466 
L 352.125646 -219.094383 
L 352.275877 -218.7663 
L 352.439004 -218.438216 
L 352.615048 -218.110133 
L 352.80372 -217.78205 
L 353.004366 -217.453967 
L 353.215914 -217.125883 
L 353.436837 -216.7978 
L 353.66514 -216.469717 
L 353.898365 -216.141634 
L 354.133621 -215.81355 
L 354.367645 -215.485467 
L 354.596886 -215.157384 
L 354.817614 -214.829301 
L 355.026047 -214.501218 
L 355.218488 -214.173134 
L 355.391467 -213.845051 
L 355.54188 -213.516968 
L 355.667117 -213.188885 
L 355.765164 -212.860801 
L 355.834688 -212.532718 
L 355.875084 -212.204635 
L 355.886497 -211.876552 
L 355.869808 -211.548468 
L 355.826588 -211.220385 
L 355.759029 -210.892302 
L 355.669854 -210.564219 
L 355.562205 -210.236136 
L 355.439532 -209.908052 
L 355.305463 -209.579969 
L 355.163694 -209.251886 
L 355.017868 -208.923803 
L 354.871478 -208.595719 
L 354.72777 -208.267636 
L 354.58967 -207.939553 
L 354.459717 -207.61147 
L 354.340021 -207.283386 
L 354.232219 -206.955303 
L 354.137464 -206.62722 
L 354.056412 -206.299137 
L 353.98923 -205.971053 
L 353.935613 -205.64297 
L 353.89481 -205.314887 
L 353.865666 -204.986804 
L 353.84667 -204.658721 
L 353.836013 -204.330637 
L 353.831651 -204.002554 
L 353.831376 -203.674471 
L 353.83289 -203.346388 
L 353.833877 -203.018304 
L 353.832078 -202.690221 
L 353.825359 -202.362138 
L 353.811778 -202.034055 
L 353.789635 -201.705971 
L 353.757526 -201.377888 
L 353.714374 -201.049805 
L 353.659457 -200.721722 
L 353.592421 -200.393639 
L 353.513278 -200.065555 
L 353.422404 -199.737472 
L 353.320508 -199.409389 
L 353.20861 -199.081306 
L 353.087993 -198.753222 
L 352.960164 -198.425139 
L 352.826791 -198.097056 
L 352.689655 -197.768973 
L 352.550585 -197.440889 
L 352.411401 -197.112806 
L 352.273859 -196.784723 
L 352.139602 -196.45664 
L 352.01011 -196.128556 
L 351.88667 -195.800473 
L 351.770349 -195.47239 
L 351.661976 -195.144307 
L 351.562135 -194.816224 
L 351.471176 -194.48814 
L 351.389219 -194.160057 
L 351.316184 -193.831974 
L 351.251807 -193.503891 
L 351.195679 -193.175807 
L 351.147272 -192.847724 
L 351.105976 -192.519641 
L 351.071125 -192.191558 
z
" id="m2260888e94" style="stroke:#3d3d3d;stroke-width:1.5;"/>
    </defs>
    <g clip-path="url(#peba243b5f1)">
     <use style="fill:#f2a5a3;stroke:#3d3d3d;stroke-width:1.5;" x="0" xlink:href="#m2260888e94" y="368.607178"/>
    </g>
   </g>
   <g id="PolyCollection_9">
    <defs>
     <path d="M 390.637339 -105.963291 
L 390.578911 -105.963291 
L 390.572407 -107.485042 
L 390.564798 -109.006792 
L 390.555979 -110.528543 
L 390.545849 -112.050293 
L 390.53432 -113.572044 
L 390.521317 -115.093795 
L 390.506783 -116.615545 
L 390.490687 -118.137296 
L 390.47302 -119.659046 
L 390.453804 -121.180797 
L 390.433092 -122.702548 
L 390.410967 -124.224298 
L 390.387549 -125.746049 
L 390.362984 -127.267799 
L 390.337452 -128.78955 
L 390.311159 -130.311301 
L 390.284333 -131.833051 
L 390.257223 -133.354802 
L 390.23009 -134.876552 
L 390.203204 -136.398303 
L 390.17684 -137.920054 
L 390.151268 -139.441804 
L 390.126751 -140.963555 
L 390.103538 -142.485305 
L 390.081862 -144.007056 
L 390.06193 -145.528807 
L 390.043925 -147.050557 
L 390.027995 -148.572308 
L 390.014256 -150.094058 
L 390.002784 -151.615809 
L 389.993614 -153.13756 
L 389.986733 -154.65931 
L 389.982085 -156.181061 
L 389.979563 -157.702811 
L 389.979009 -159.224562 
L 389.980216 -160.746313 
L 389.982928 -162.268063 
L 389.986843 -163.789814 
L 389.991616 -165.311564 
L 389.996867 -166.833315 
L 390.002189 -168.355066 
L 390.007153 -169.876816 
L 390.011327 -171.398567 
L 390.014283 -172.920317 
L 390.015609 -174.442068 
L 390.01493 -175.963819 
L 390.011915 -177.485569 
L 390.006296 -179.00732 
L 389.997875 -180.52907 
L 389.986539 -182.050821 
L 389.972265 -183.572571 
L 389.955128 -185.094322 
L 389.935301 -186.616073 
L 389.913056 -188.137823 
L 389.888757 -189.659574 
L 389.862853 -191.181324 
L 389.835871 -192.703075 
L 389.808395 -194.224826 
L 389.781055 -195.746576 
L 389.754509 -197.268327 
L 389.729424 -198.790077 
L 389.706457 -200.311828 
L 389.686235 -201.833579 
L 389.66934 -203.355329 
L 389.656293 -204.87708 
L 389.647537 -206.39883 
L 389.643431 -207.920581 
L 389.644236 -209.442332 
L 389.65011 -210.964082 
L 389.661111 -212.485833 
L 389.677187 -214.007583 
L 389.698188 -215.529334 
L 389.723868 -217.051085 
L 389.75389 -218.572835 
L 389.787843 -220.094586 
L 389.825245 -221.616336 
L 389.865565 -223.138087 
L 389.908233 -224.659838 
L 389.952653 -226.181588 
L 389.998224 -227.703339 
L 390.044348 -229.225089 
L 390.09045 -230.74684 
L 390.135988 -232.268591 
L 390.180463 -233.790341 
L 390.223431 -235.312092 
L 390.264509 -236.833842 
L 390.30338 -238.355593 
L 390.339797 -239.877344 
L 390.373581 -241.399094 
L 390.404618 -242.920845 
L 390.43286 -244.442595 
L 390.458316 -245.964346 
L 390.481045 -247.486097 
L 390.50115 -249.007847 
L 390.518769 -250.529598 
L 390.534066 -252.051348 
L 390.547225 -253.573099 
L 390.558442 -255.09485 
L 390.567914 -256.6166 
L 390.648336 -256.6166 
L 390.648336 -256.6166 
L 390.657808 -255.09485 
L 390.669025 -253.573099 
L 390.682184 -252.051348 
L 390.697481 -250.529598 
L 390.7151 -249.007847 
L 390.735205 -247.486097 
L 390.757934 -245.964346 
L 390.78339 -244.442595 
L 390.811632 -242.920845 
L 390.842669 -241.399094 
L 390.876453 -239.877344 
L 390.91287 -238.355593 
L 390.951741 -236.833842 
L 390.992819 -235.312092 
L 391.035787 -233.790341 
L 391.080262 -232.268591 
L 391.1258 -230.74684 
L 391.171902 -229.225089 
L 391.218026 -227.703339 
L 391.263597 -226.181588 
L 391.308017 -224.659838 
L 391.350685 -223.138087 
L 391.391005 -221.616336 
L 391.428407 -220.094586 
L 391.46236 -218.572835 
L 391.492382 -217.051085 
L 391.518062 -215.529334 
L 391.539063 -214.007583 
L 391.555139 -212.485833 
L 391.56614 -210.964082 
L 391.572014 -209.442332 
L 391.572819 -207.920581 
L 391.568713 -206.39883 
L 391.559957 -204.87708 
L 391.54691 -203.355329 
L 391.530015 -201.833579 
L 391.509793 -200.311828 
L 391.486826 -198.790077 
L 391.461741 -197.268327 
L 391.435195 -195.746576 
L 391.407855 -194.224826 
L 391.380379 -192.703075 
L 391.353397 -191.181324 
L 391.327493 -189.659574 
L 391.303194 -188.137823 
L 391.280949 -186.616073 
L 391.261122 -185.094322 
L 391.243985 -183.572571 
L 391.229711 -182.050821 
L 391.218375 -180.52907 
L 391.209954 -179.00732 
L 391.204335 -177.485569 
L 391.20132 -175.963819 
L 391.200641 -174.442068 
L 391.201967 -172.920317 
L 391.204923 -171.398567 
L 391.209097 -169.876816 
L 391.214061 -168.355066 
L 391.219383 -166.833315 
L 391.224634 -165.311564 
L 391.229407 -163.789814 
L 391.233322 -162.268063 
L 391.236034 -160.746313 
L 391.237241 -159.224562 
L 391.236687 -157.702811 
L 391.234165 -156.181061 
L 391.229517 -154.65931 
L 391.222636 -153.13756 
L 391.213466 -151.615809 
L 391.201994 -150.094058 
L 391.188255 -148.572308 
L 391.172325 -147.050557 
L 391.15432 -145.528807 
L 391.134388 -144.007056 
L 391.112712 -142.485305 
L 391.089499 -140.963555 
L 391.064982 -139.441804 
L 391.03941 -137.920054 
L 391.013046 -136.398303 
L 390.98616 -134.876552 
L 390.959027 -133.354802 
L 390.931917 -131.833051 
L 390.905091 -130.311301 
L 390.878798 -128.78955 
L 390.853266 -127.267799 
L 390.828701 -125.746049 
L 390.805283 -124.224298 
L 390.783158 -122.702548 
L 390.762446 -121.180797 
L 390.74323 -119.659046 
L 390.725563 -118.137296 
L 390.709467 -116.615545 
L 390.694933 -115.093795 
L 390.68193 -113.572044 
L 390.670401 -112.050293 
L 390.660271 -110.528543 
L 390.651452 -109.006792 
L 390.643843 -107.485042 
L 390.637339 -105.963291 
z
" id="mc7dee0522f" style="stroke:#3d3d3d;stroke-width:1.5;"/>
    </defs>
    <g clip-path="url(#peba243b5f1)">
     <use style="fill:#c4b5d0;stroke:#3d3d3d;stroke-width:1.5;" x="0" xlink:href="#mc7dee0522f" y="368.607178"/>
    </g>
   </g>
   <g id="matplotlib.axis_1">
    <g id="xtick_1">
     <g id="line2d_1">
      <defs>
       <path d="M 0 0 
L 0 3.5 
" id="m428a779789" style="stroke:#000000;stroke-width:0.8;"/>
      </defs>
      <g>
       <use style="stroke:#000000;stroke-width:0.8;" x="73.168125" xlink:href="#m428a779789" y="288.430125"/>
      </g>
     </g>
     <g id="text_1">
      <!-- libfuzzer -->
      <g transform="translate(35.301904 323.272284)rotate(-30)scale(0.1 -0.1)">
       <defs>
        <path d="M 9.421875 75.984375 
L 18.40625 75.984375 
L 18.40625 0 
L 9.421875 0 
z
" id="DejaVuSans-108"/>
        <path d="M 9.421875 54.6875 
L 18.40625 54.6875 
L 18.40625 0 
L 9.421875 0 
z
M 9.421875 75.984375 
L 18.40625 75.984375 
L 18.40625 64.59375 
L 9.421875 64.59375 
z
" id="DejaVuSans-105"/>
        <path d="M 48.6875 27.296875 
Q 48.6875 37.203125 44.609375 42.84375 
Q 40.53125 48.484375 33.40625 48.484375 
Q 26.265625 48.484375 22.1875 42.84375 
Q 18.109375 37.203125 18.109375 27.296875 
Q 18.109375 17.390625 22.1875 11.75 
Q 26.265625 6.109375 33.40625 6.109375 
Q 40.53125 6.109375 44.609375 11.75 
Q 48.6875 17.390625 48.6875 27.296875 
z
M 18.109375 46.390625 
Q 20.953125 51.265625 25.265625 53.625 
Q 29.59375 56 35.59375 56 
Q 45.5625 56 51.78125 48.09375 
Q 58.015625 40.1875 58.015625 27.296875 
Q 58.015625 14.40625 51.78125 6.484375 
Q 45.5625 -1.421875 35.59375 -1.421875 
Q 29.59375 -1.421875 25.265625 0.953125 
Q 20.953125 3.328125 18.109375 8.203125 
L 18.109375 0 
L 9.078125 0 
L 9.078125 75.984375 
L 18.109375 75.984375 
z
" id="DejaVuSans-98"/>
        <path d="M 37.109375 75.984375 
L 37.109375 68.5 
L 28.515625 68.5 
Q 23.6875 68.5 21.796875 66.546875 
Q 19.921875 64.59375 19.921875 59.515625 
L 19.921875 54.6875 
L 34.71875 54.6875 
L 34.71875 47.703125 
L 19.921875 47.703125 
L 19.921875 0 
L 10.890625 0 
L 10.890625 47.703125 
L 2.296875 47.703125 
L 2.296875 54.6875 
L 10.890625 54.6875 
L 10.890625 58.5 
Q 10.890625 67.625 15.140625 71.796875 
Q 19.390625 75.984375 28.609375 75.984375 
z
" id="DejaVuSans-102"/>
        <path d="M 8.5 21.578125 
L 8.5 54.6875 
L 17.484375 54.6875 
L 17.484375 21.921875 
Q 17.484375 14.15625 20.5 10.265625 
Q 23.53125 6.390625 29.59375 6.390625 
Q 36.859375 6.390625 41.078125 11.03125 
Q 45.3125 15.671875 45.3125 23.6875 
L 45.3125 54.6875 
L 54.296875 54.6875 
L 54.296875 0 
L 45.3125 0 
L 45.3125 8.40625 
Q 42.046875 3.421875 37.71875 1 
Q 33.40625 -1.421875 27.6875 -1.421875 
Q 18.265625 -1.421875 13.375 4.4375 
Q 8.5 10.296875 8.5 21.578125 
z
M 31.109375 56 
z
" id="DejaVuSans-117"/>
        <path d="M 5.515625 54.6875 
L 48.1875 54.6875 
L 48.1875 46.484375 
L 14.40625 7.171875 
L 48.1875 7.171875 
L 48.1875 0 
L 4.296875 0 
L 4.296875 8.203125 
L 38.09375 47.515625 
L 5.515625 47.515625 
z
" id="DejaVuSans-122"/>
        <path d="M 56.203125 29.59375 
L 56.203125 25.203125 
L 14.890625 25.203125 
Q 15.484375 15.921875 20.484375 11.0625 
Q 25.484375 6.203125 34.421875 6.203125 
Q 39.59375 6.203125 44.453125 7.46875 
Q 49.3125 8.734375 54.109375 11.28125 
L 54.109375 2.78125 
Q 49.265625 0.734375 44.1875 -0.34375 
Q 39.109375 -1.421875 33.890625 -1.421875 
Q 20.796875 -1.421875 13.15625 6.1875 
Q 5.515625 13.8125 5.515625 26.8125 
Q 5.515625 40.234375 12.765625 48.109375 
Q 20.015625 56 32.328125 56 
Q 43.359375 56 49.78125 48.890625 
Q 56.203125 41.796875 56.203125 29.59375 
z
M 47.21875 32.234375 
Q 47.125 39.59375 43.09375 43.984375 
Q 39.0625 48.390625 32.421875 48.390625 
Q 24.90625 48.390625 20.390625 44.140625 
Q 15.875 39.890625 15.1875 32.171875 
z
" id="DejaVuSans-101"/>
        <path d="M 41.109375 46.296875 
Q 39.59375 47.171875 37.8125 47.578125 
Q 36.03125 48 33.890625 48 
Q 26.265625 48 22.1875 43.046875 
Q 18.109375 38.09375 18.109375 28.8125 
L 18.109375 0 
L 9.078125 0 
L 9.078125 54.6875 
L 18.109375 54.6875 
L 18.109375 46.1875 
Q 20.953125 51.171875 25.484375 53.578125 
Q 30.03125 56 36.53125 56 
Q 37.453125 56 38.578125 55.875 
Q 39.703125 55.765625 41.0625 55.515625 
z
" id="DejaVuSans-114"/>
       </defs>
       <use xlink:href="#DejaVuSans-108"/>
       <use x="27.783203" xlink:href="#DejaVuSans-105"/>
       <use x="55.566406" xlink:href="#DejaVuSans-98"/>
       <use x="119.042969" xlink:href="#DejaVuSans-102"/>
       <use x="154.248047" xlink:href="#DejaVuSans-117"/>
       <use x="217.626953" xlink:href="#DejaVuSans-122"/>
       <use x="270.117188" xlink:href="#DejaVuSans-122"/>
       <use x="322.607422" xlink:href="#DejaVuSans-101"/>
       <use x="384.130859" xlink:href="#DejaVuSans-114"/>
      </g>
     </g>
    </g>
    <g id="xtick_2">
     <g id="line2d_2">
      <g>
       <use style="stroke:#000000;stroke-width:0.8;" x="112.848125" xlink:href="#m428a779789" y="288.430125"/>
      </g>
     </g>
     <g id="text_2">
      <!-- entropic -->
      <g transform="translate(76.266057 322.530877)rotate(-30)scale(0.1 -0.1)">
       <defs>
        <path d="M 54.890625 33.015625 
L 54.890625 0 
L 45.90625 0 
L 45.90625 32.71875 
Q 45.90625 40.484375 42.875 44.328125 
Q 39.84375 48.1875 33.796875 48.1875 
Q 26.515625 48.1875 22.3125 43.546875 
Q 18.109375 38.921875 18.109375 30.90625 
L 18.109375 0 
L 9.078125 0 
L 9.078125 54.6875 
L 18.109375 54.6875 
L 18.109375 46.1875 
Q 21.34375 51.125 25.703125 53.5625 
Q 30.078125 56 35.796875 56 
Q 45.21875 56 50.046875 50.171875 
Q 54.890625 44.34375 54.890625 33.015625 
z
" id="DejaVuSans-110"/>
        <path d="M 18.3125 70.21875 
L 18.3125 54.6875 
L 36.8125 54.6875 
L 36.8125 47.703125 
L 18.3125 47.703125 
L 18.3125 18.015625 
Q 18.3125 11.328125 20.140625 9.421875 
Q 21.96875 7.515625 27.59375 7.515625 
L 36.8125 7.515625 
L 36.8125 0 
L 27.59375 0 
Q 17.1875 0 13.234375 3.875 
Q 9.28125 7.765625 9.28125 18.015625 
L 9.28125 47.703125 
L 2.6875 47.703125 
L 2.6875 54.6875 
L 9.28125 54.6875 
L 9.28125 70.21875 
z
" id="DejaVuSans-116"/>
        <path d="M 30.609375 48.390625 
Q 23.390625 48.390625 19.1875 42.75 
Q 14.984375 37.109375 14.984375 27.296875 
Q 14.984375 17.484375 19.15625 11.84375 
Q 23.34375 6.203125 30.609375 6.203125 
Q 37.796875 6.203125 41.984375 11.859375 
Q 46.1875 17.53125 46.1875 27.296875 
Q 46.1875 37.015625 41.984375 42.703125 
Q 37.796875 48.390625 30.609375 48.390625 
z
M 30.609375 56 
Q 42.328125 56 49.015625 48.375 
Q 55.71875 40.765625 55.71875 27.296875 
Q 55.71875 13.875 49.015625 6.21875 
Q 42.328125 -1.421875 30.609375 -1.421875 
Q 18.84375 -1.421875 12.171875 6.21875 
Q 5.515625 13.875 5.515625 27.296875 
Q 5.515625 40.765625 12.171875 48.375 
Q 18.84375 56 30.609375 56 
z
" id="DejaVuSans-111"/>
        <path d="M 18.109375 8.203125 
L 18.109375 -20.796875 
L 9.078125 -20.796875 
L 9.078125 54.6875 
L 18.109375 54.6875 
L 18.109375 46.390625 
Q 20.953125 51.265625 25.265625 53.625 
Q 29.59375 56 35.59375 56 
Q 45.5625 56 51.78125 48.09375 
Q 58.015625 40.1875 58.015625 27.296875 
Q 58.015625 14.40625 51.78125 6.484375 
Q 45.5625 -1.421875 35.59375 -1.421875 
Q 29.59375 -1.421875 25.265625 0.953125 
Q 20.953125 3.328125 18.109375 8.203125 
z
M 48.6875 27.296875 
Q 48.6875 37.203125 44.609375 42.84375 
Q 40.53125 48.484375 33.40625 48.484375 
Q 26.265625 48.484375 22.1875 42.84375 
Q 18.109375 37.203125 18.109375 27.296875 
Q 18.109375 17.390625 22.1875 11.75 
Q 26.265625 6.109375 33.40625 6.109375 
Q 40.53125 6.109375 44.609375 11.75 
Q 48.6875 17.390625 48.6875 27.296875 
z
" id="DejaVuSans-112"/>
        <path d="M 48.78125 52.59375 
L 48.78125 44.1875 
Q 44.96875 46.296875 41.140625 47.34375 
Q 37.3125 48.390625 33.40625 48.390625 
Q 24.65625 48.390625 19.8125 42.84375 
Q 14.984375 37.3125 14.984375 27.296875 
Q 14.984375 17.28125 19.8125 11.734375 
Q 24.65625 6.203125 33.40625 6.203125 
Q 37.3125 6.203125 41.140625 7.25 
Q 44.96875 8.296875 48.78125 10.40625 
L 48.78125 2.09375 
Q 45.015625 0.34375 40.984375 -0.53125 
Q 36.96875 -1.421875 32.421875 -1.421875 
Q 20.0625 -1.421875 12.78125 6.34375 
Q 5.515625 14.109375 5.515625 27.296875 
Q 5.515625 40.671875 12.859375 48.328125 
Q 20.21875 56 33.015625 56 
Q 37.15625 56 41.109375 55.140625 
Q 45.0625 54.296875 48.78125 52.59375 
z
" id="DejaVuSans-99"/>
       </defs>
       <use xlink:href="#DejaVuSans-101"/>
       <use x="61.523438" xlink:href="#DejaVuSans-110"/>
       <use x="124.902344" xlink:href="#DejaVuSans-116"/>
       <use x="164.111328" xlink:href="#DejaVuSans-114"/>
       <use x="202.974609" xlink:href="#DejaVuSans-111"/>
       <use x="264.15625" xlink:href="#DejaVuSans-112"/>
       <use x="327.632812" xlink:href="#DejaVuSans-105"/>
       <use x="355.416016" xlink:href="#DejaVuSans-99"/>
      </g>
     </g>
    </g>
    <g id="xtick_3">
     <g id="line2d_3">
      <g>
       <use style="stroke:#000000;stroke-width:0.8;" x="152.528125" xlink:href="#m428a779789" y="288.430125"/>
      </g>
     </g>
     <g id="text_3">
      <!-- honggfuzz -->
      <g transform="translate(106.588924 327.933221)rotate(-30)scale(0.1 -0.1)">
       <defs>
        <path d="M 54.890625 33.015625 
L 54.890625 0 
L 45.90625 0 
L 45.90625 32.71875 
Q 45.90625 40.484375 42.875 44.328125 
Q 39.84375 48.1875 33.796875 48.1875 
Q 26.515625 48.1875 22.3125 43.546875 
Q 18.109375 38.921875 18.109375 30.90625 
L 18.109375 0 
L 9.078125 0 
L 9.078125 75.984375 
L 18.109375 75.984375 
L 18.109375 46.1875 
Q 21.34375 51.125 25.703125 53.5625 
Q 30.078125 56 35.796875 56 
Q 45.21875 56 50.046875 50.171875 
Q 54.890625 44.34375 54.890625 33.015625 
z
" id="DejaVuSans-104"/>
        <path d="M 45.40625 27.984375 
Q 45.40625 37.75 41.375 43.109375 
Q 37.359375 48.484375 30.078125 48.484375 
Q 22.859375 48.484375 18.828125 43.109375 
Q 14.796875 37.75 14.796875 27.984375 
Q 14.796875 18.265625 18.828125 12.890625 
Q 22.859375 7.515625 30.078125 7.515625 
Q 37.359375 7.515625 41.375 12.890625 
Q 45.40625 18.265625 45.40625 27.984375 
z
M 54.390625 6.78125 
Q 54.390625 -7.171875 48.1875 -13.984375 
Q 42 -20.796875 29.203125 -20.796875 
Q 24.46875 -20.796875 20.265625 -20.09375 
Q 16.0625 -19.390625 12.109375 -17.921875 
L 12.109375 -9.1875 
Q 16.0625 -11.328125 19.921875 -12.34375 
Q 23.78125 -13.375 27.78125 -13.375 
Q 36.625 -13.375 41.015625 -8.765625 
Q 45.40625 -4.15625 45.40625 5.171875 
L 45.40625 9.625 
Q 42.625 4.78125 38.28125 2.390625 
Q 33.9375 0 27.875 0 
Q 17.828125 0 11.671875 7.65625 
Q 5.515625 15.328125 5.515625 27.984375 
Q 5.515625 40.671875 11.671875 48.328125 
Q 17.828125 56 27.875 56 
Q 33.9375 56 38.28125 53.609375 
Q 42.625 51.21875 45.40625 46.390625 
L 45.40625 54.6875 
L 54.390625 54.6875 
z
" id="DejaVuSans-103"/>
       </defs>
       <use xlink:href="#DejaVuSans-104"/>
       <use x="63.378906" xlink:href="#DejaVuSans-111"/>
       <use x="124.560547" xlink:href="#DejaVuSans-110"/>
       <use x="187.939453" xlink:href="#DejaVuSans-103"/>
       <use x="251.416016" xlink:href="#DejaVuSans-103"/>
       <use x="314.892578" xlink:href="#DejaVuSans-102"/>
       <use x="350.097656" xlink:href="#DejaVuSans-117"/>
       <use x="413.476562" xlink:href="#DejaVuSans-122"/>
       <use x="465.966797" xlink:href="#DejaVuSans-122"/>
      </g>
     </g>
    </g>
    <g id="xtick_4">
     <g id="line2d_4">
      <g>
       <use style="stroke:#000000;stroke-width:0.8;" x="192.208125" xlink:href="#m428a779789" y="288.430125"/>
      </g>
     </g>
     <g id="text_4">
      <!-- aflplusplus -->
      <g transform="translate(144.599118 328.897284)rotate(-30)scale(0.1 -0.1)">
       <defs>
        <path d="M 34.28125 27.484375 
Q 23.390625 27.484375 19.1875 25 
Q 14.984375 22.515625 14.984375 16.5 
Q 14.984375 11.71875 18.140625 8.90625 
Q 21.296875 6.109375 26.703125 6.109375 
Q 34.1875 6.109375 38.703125 11.40625 
Q 43.21875 16.703125 43.21875 25.484375 
L 43.21875 27.484375 
z
M 52.203125 31.203125 
L 52.203125 0 
L 43.21875 0 
L 43.21875 8.296875 
Q 40.140625 3.328125 35.546875 0.953125 
Q 30.953125 -1.421875 24.3125 -1.421875 
Q 15.921875 -1.421875 10.953125 3.296875 
Q 6 8.015625 6 15.921875 
Q 6 25.140625 12.171875 29.828125 
Q 18.359375 34.515625 30.609375 34.515625 
L 43.21875 34.515625 
L 43.21875 35.40625 
Q 43.21875 41.609375 39.140625 45 
Q 35.0625 48.390625 27.6875 48.390625 
Q 23 48.390625 18.546875 47.265625 
Q 14.109375 46.140625 10.015625 43.890625 
L 10.015625 52.203125 
Q 14.9375 54.109375 19.578125 55.046875 
Q 24.21875 56 28.609375 56 
Q 40.484375 56 46.34375 49.84375 
Q 52.203125 43.703125 52.203125 31.203125 
z
" id="DejaVuSans-97"/>
        <path d="M 44.28125 53.078125 
L 44.28125 44.578125 
Q 40.484375 46.53125 36.375 47.5 
Q 32.28125 48.484375 27.875 48.484375 
Q 21.1875 48.484375 17.84375 46.4375 
Q 14.5 44.390625 14.5 40.28125 
Q 14.5 37.15625 16.890625 35.375 
Q 19.28125 33.59375 26.515625 31.984375 
L 29.59375 31.296875 
Q 39.15625 29.25 43.1875 25.515625 
Q 47.21875 21.78125 47.21875 15.09375 
Q 47.21875 7.46875 41.1875 3.015625 
Q 35.15625 -1.421875 24.609375 -1.421875 
Q 20.21875 -1.421875 15.453125 -0.5625 
Q 10.6875 0.296875 5.421875 2 
L 5.421875 11.28125 
Q 10.40625 8.6875 15.234375 7.390625 
Q 20.0625 6.109375 24.8125 6.109375 
Q 31.15625 6.109375 34.5625 8.28125 
Q 37.984375 10.453125 37.984375 14.40625 
Q 37.984375 18.0625 35.515625 20.015625 
Q 33.0625 21.96875 24.703125 23.78125 
L 21.578125 24.515625 
Q 13.234375 26.265625 9.515625 29.90625 
Q 5.8125 33.546875 5.8125 39.890625 
Q 5.8125 47.609375 11.28125 51.796875 
Q 16.75 56 26.8125 56 
Q 31.78125 56 36.171875 55.265625 
Q 40.578125 54.546875 44.28125 53.078125 
z
" id="DejaVuSans-115"/>
       </defs>
       <use xlink:href="#DejaVuSans-97"/>
       <use x="61.279297" xlink:href="#DejaVuSans-102"/>
       <use x="96.484375" xlink:href="#DejaVuSans-108"/>
       <use x="124.267578" xlink:href="#DejaVuSans-112"/>
       <use x="187.744141" xlink:href="#DejaVuSans-108"/>
       <use x="215.527344" xlink:href="#DejaVuSans-117"/>
       <use x="278.90625" xlink:href="#DejaVuSans-115"/>
       <use x="331.005859" xlink:href="#DejaVuSans-112"/>
       <use x="394.482422" xlink:href="#DejaVuSans-108"/>
       <use x="422.265625" xlink:href="#DejaVuSans-117"/>
       <use x="485.644531" xlink:href="#DejaVuSans-115"/>
      </g>
     </g>
    </g>
    <g id="xtick_5">
     <g id="line2d_5">
      <g>
       <use style="stroke:#000000;stroke-width:0.8;" x="231.888125" xlink:href="#m428a779789" y="288.430125"/>
      </g>
     </g>
     <g id="text_5">
      <!-- aflplusplus_qemu -->
      <g transform="translate(155.059193 345.687127)rotate(-30)scale(0.1 -0.1)">
       <defs>
        <path d="M 50.984375 -16.609375 
L 50.984375 -23.578125 
L -0.984375 -23.578125 
L -0.984375 -16.609375 
z
" id="DejaVuSans-95"/>
        <path d="M 14.796875 27.296875 
Q 14.796875 17.390625 18.875 11.75 
Q 22.953125 6.109375 30.078125 6.109375 
Q 37.203125 6.109375 41.296875 11.75 
Q 45.40625 17.390625 45.40625 27.296875 
Q 45.40625 37.203125 41.296875 42.84375 
Q 37.203125 48.484375 30.078125 48.484375 
Q 22.953125 48.484375 18.875 42.84375 
Q 14.796875 37.203125 14.796875 27.296875 
z
M 45.40625 8.203125 
Q 42.578125 3.328125 38.25 0.953125 
Q 33.9375 -1.421875 27.875 -1.421875 
Q 17.96875 -1.421875 11.734375 6.484375 
Q 5.515625 14.40625 5.515625 27.296875 
Q 5.515625 40.1875 11.734375 48.09375 
Q 17.96875 56 27.875 56 
Q 33.9375 56 38.25 53.625 
Q 42.578125 51.265625 45.40625 46.390625 
L 45.40625 54.6875 
L 54.390625 54.6875 
L 54.390625 -20.796875 
L 45.40625 -20.796875 
z
" id="DejaVuSans-113"/>
        <path d="M 52 44.1875 
Q 55.375 50.25 60.0625 53.125 
Q 64.75 56 71.09375 56 
Q 79.640625 56 84.28125 50.015625 
Q 88.921875 44.046875 88.921875 33.015625 
L 88.921875 0 
L 79.890625 0 
L 79.890625 32.71875 
Q 79.890625 40.578125 77.09375 44.375 
Q 74.3125 48.1875 68.609375 48.1875 
Q 61.625 48.1875 57.5625 43.546875 
Q 53.515625 38.921875 53.515625 30.90625 
L 53.515625 0 
L 44.484375 0 
L 44.484375 32.71875 
Q 44.484375 40.625 41.703125 44.40625 
Q 38.921875 48.1875 33.109375 48.1875 
Q 26.21875 48.1875 22.15625 43.53125 
Q 18.109375 38.875 18.109375 30.90625 
L 18.109375 0 
L 9.078125 0 
L 9.078125 54.6875 
L 18.109375 54.6875 
L 18.109375 46.1875 
Q 21.1875 51.21875 25.484375 53.609375 
Q 29.78125 56 35.6875 56 
Q 41.65625 56 45.828125 52.96875 
Q 50 49.953125 52 44.1875 
z
" id="DejaVuSans-109"/>
       </defs>
       <use xlink:href="#DejaVuSans-97"/>
       <use x="61.279297" xlink:href="#DejaVuSans-102"/>
       <use x="96.484375" xlink:href="#DejaVuSans-108"/>
       <use x="124.267578" xlink:href="#DejaVuSans-112"/>
       <use x="187.744141" xlink:href="#DejaVuSans-108"/>
       <use x="215.527344" xlink:href="#DejaVuSans-117"/>
       <use x="278.90625" xlink:href="#DejaVuSans-115"/>
       <use x="331.005859" xlink:href="#DejaVuSans-112"/>
       <use x="394.482422" xlink:href="#DejaVuSans-108"/>
       <use x="422.265625" xlink:href="#DejaVuSans-117"/>
       <use x="485.644531" xlink:href="#DejaVuSans-115"/>
       <use x="537.744141" xlink:href="#DejaVuSans-95"/>
       <use x="587.744141" xlink:href="#DejaVuSans-113"/>
       <use x="651.220703" xlink:href="#DejaVuSans-101"/>
       <use x="712.744141" xlink:href="#DejaVuSans-109"/>
       <use x="810.15625" xlink:href="#DejaVuSans-117"/>
      </g>
     </g>
    </g>
    <g id="xtick_6">
     <g id="line2d_6">
      <g>
       <use style="stroke:#000000;stroke-width:0.8;" x="271.568125" xlink:href="#m428a779789" y="288.430125"/>
      </g>
     </g>
     <g id="text_6">
      <!-- lafintel -->
      <g transform="translate(240.74242 319.20744)rotate(-30)scale(0.1 -0.1)">
       <use xlink:href="#DejaVuSans-108"/>
       <use x="27.783203" xlink:href="#DejaVuSans-97"/>
       <use x="89.0625" xlink:href="#DejaVuSans-102"/>
       <use x="124.267578" xlink:href="#DejaVuSans-105"/>
       <use x="152.050781" xlink:href="#DejaVuSans-110"/>
       <use x="215.429688" xlink:href="#DejaVuSans-116"/>
       <use x="254.638672" xlink:href="#DejaVuSans-101"/>
       <use x="316.162109" xlink:href="#DejaVuSans-108"/>
      </g>
     </g>
    </g>
    <g id="xtick_7">
     <g id="line2d_7">
      <g>
       <use style="stroke:#000000;stroke-width:0.8;" x="311.248125" xlink:href="#m428a779789" y="288.430125"/>
      </g>
     </g>
     <g id="text_7">
      <!-- aflplusplus_flat -->
      <g transform="translate(245.01312 339.570721)rotate(-30)scale(0.1 -0.1)">
       <use xlink:href="#DejaVuSans-97"/>
       <use x="61.279297" xlink:href="#DejaVuSans-102"/>
       <use x="96.484375" xlink:href="#DejaVuSans-108"/>
       <use x="124.267578" xlink:href="#DejaVuSans-112"/>
       <use x="187.744141" xlink:href="#DejaVuSans-108"/>
       <use x="215.527344" xlink:href="#DejaVuSans-117"/>
       <use x="278.90625" xlink:href="#DejaVuSans-115"/>
       <use x="331.005859" xlink:href="#DejaVuSans-112"/>
       <use x="394.482422" xlink:href="#DejaVuSans-108"/>
       <use x="422.265625" xlink:href="#DejaVuSans-117"/>
       <use x="485.644531" xlink:href="#DejaVuSans-115"/>
       <use x="537.744141" xlink:href="#DejaVuSans-95"/>
       <use x="587.744141" xlink:href="#DejaVuSans-102"/>
       <use x="622.949219" xlink:href="#DejaVuSans-108"/>
       <use x="650.732422" xlink:href="#DejaVuSans-97"/>
       <use x="712.011719" xlink:href="#DejaVuSans-116"/>
      </g>
     </g>
    </g>
    <g id="xtick_8">
     <g id="line2d_8">
      <g>
       <use style="stroke:#000000;stroke-width:0.8;" x="350.928125" xlink:href="#m428a779789" y="288.430125"/>
      </g>
     </g>
     <g id="text_8">
      <!-- fairfuzz -->
      <g transform="translate(317.93871 320.456659)rotate(-30)scale(0.1 -0.1)">
       <use xlink:href="#DejaVuSans-102"/>
       <use x="35.205078" xlink:href="#DejaVuSans-97"/>
       <use x="96.484375" xlink:href="#DejaVuSans-105"/>
       <use x="124.267578" xlink:href="#DejaVuSans-114"/>
       <use x="165.380859" xlink:href="#DejaVuSans-102"/>
       <use x="200.585938" xlink:href="#DejaVuSans-117"/>
       <use x="263.964844" xlink:href="#DejaVuSans-122"/>
       <use x="316.455078" xlink:href="#DejaVuSans-122"/>
      </g>
     </g>
    </g>
    <g id="xtick_9">
     <g id="line2d_9">
      <g>
       <use style="stroke:#000000;stroke-width:0.8;" x="390.608125" xlink:href="#m428a779789" y="288.430125"/>
      </g>
     </g>
     <g id="text_9">
      <!-- mopt -->
      <g transform="translate(366.940661 315.074627)rotate(-30)scale(0.1 -0.1)">
       <use xlink:href="#DejaVuSans-109"/>
       <use x="97.412109" xlink:href="#DejaVuSans-111"/>
       <use x="158.59375" xlink:href="#DejaVuSans-112"/>
       <use x="222.070312" xlink:href="#DejaVuSans-116"/>
      </g>
     </g>
    </g>
    <g id="text_10">
     <!-- Fuzzer (highest median coverage on the left) -->
     <g transform="translate(119.270156 359.32749)scale(0.1 -0.1)">
      <defs>
       <path d="M 9.8125 72.90625 
L 51.703125 72.90625 
L 51.703125 64.59375 
L 19.671875 64.59375 
L 19.671875 43.109375 
L 48.578125 43.109375 
L 48.578125 34.8125 
L 19.671875 34.8125 
L 19.671875 0 
L 9.8125 0 
z
" id="DejaVuSans-70"/>
       <path id="DejaVuSans-32"/>
       <path d="M 31 75.875 
Q 24.46875 64.65625 21.28125 53.65625 
Q 18.109375 42.671875 18.109375 31.390625 
Q 18.109375 20.125 21.3125 9.0625 
Q 24.515625 -2 31 -13.1875 
L 23.1875 -13.1875 
Q 15.875 -1.703125 12.234375 9.375 
Q 8.59375 20.453125 8.59375 31.390625 
Q 8.59375 42.28125 12.203125 53.3125 
Q 15.828125 64.359375 23.1875 75.875 
z
" id="DejaVuSans-40"/>
       <path d="M 45.40625 46.390625 
L 45.40625 75.984375 
L 54.390625 75.984375 
L 54.390625 0 
L 45.40625 0 
L 45.40625 8.203125 
Q 42.578125 3.328125 38.25 0.953125 
Q 33.9375 -1.421875 27.875 -1.421875 
Q 17.96875 -1.421875 11.734375 6.484375 
Q 5.515625 14.40625 5.515625 27.296875 
Q 5.515625 40.1875 11.734375 48.09375 
Q 17.96875 56 27.875 56 
Q 33.9375 56 38.25 53.625 
Q 42.578125 51.265625 45.40625 46.390625 
z
M 14.796875 27.296875 
Q 14.796875 17.390625 18.875 11.75 
Q 22.953125 6.109375 30.078125 6.109375 
Q 37.203125 6.109375 41.296875 11.75 
Q 45.40625 17.390625 45.40625 27.296875 
Q 45.40625 37.203125 41.296875 42.84375 
Q 37.203125 48.484375 30.078125 48.484375 
Q 22.953125 48.484375 18.875 42.84375 
Q 14.796875 37.203125 14.796875 27.296875 
z
" id="DejaVuSans-100"/>
       <path d="M 2.984375 54.6875 
L 12.5 54.6875 
L 29.59375 8.796875 
L 46.6875 54.6875 
L 56.203125 54.6875 
L 35.6875 0 
L 23.484375 0 
z
" id="DejaVuSans-118"/>
       <path d="M 8.015625 75.875 
L 15.828125 75.875 
Q 23.140625 64.359375 26.78125 53.3125 
Q 30.421875 42.28125 30.421875 31.390625 
Q 30.421875 20.453125 26.78125 9.375 
Q 23.140625 -1.703125 15.828125 -13.1875 
L 8.015625 -13.1875 
Q 14.5 -2 17.703125 9.0625 
Q 20.90625 20.125 20.90625 31.390625 
Q 20.90625 42.671875 17.703125 53.65625 
Q 14.5 64.65625 8.015625 75.875 
z
" id="DejaVuSans-41"/>
      </defs>
      <use xlink:href="#DejaVuSans-70"/>
      <use x="52.019531" xlink:href="#DejaVuSans-117"/>
      <use x="115.398438" xlink:href="#DejaVuSans-122"/>
      <use x="167.888672" xlink:href="#DejaVuSans-122"/>
      <use x="220.378906" xlink:href="#DejaVuSans-101"/>
      <use x="281.902344" xlink:href="#DejaVuSans-114"/>
      <use x="323.015625" xlink:href="#DejaVuSans-32"/>
      <use x="354.802734" xlink:href="#DejaVuSans-40"/>
      <use x="393.816406" xlink:href="#DejaVuSans-104"/>
      <use x="457.195312" xlink:href="#DejaVuSans-105"/>
      <use x="484.978516" xlink:href="#DejaVuSans-103"/>
      <use x="548.455078" xlink:href="#DejaVuSans-104"/>
      <use x="611.833984" xlink:href="#DejaVuSans-101"/>
      <use x="673.357422" xlink:href="#DejaVuSans-115"/>
      <use x="725.457031" xlink:href="#DejaVuSans-116"/>
      <use x="764.666016" xlink:href="#DejaVuSans-32"/>
      <use x="796.453125" xlink:href="#DejaVuSans-109"/>
      <use x="893.865234" xlink:href="#DejaVuSans-101"/>
      <use x="955.388672" xlink:href="#DejaVuSans-100"/>
      <use x="1018.865234" xlink:href="#DejaVuSans-105"/>
      <use x="1046.648438" xlink:href="#DejaVuSans-97"/>
      <use x="1107.927734" xlink:href="#DejaVuSans-110"/>
      <use x="1171.306641" xlink:href="#DejaVuSans-32"/>
      <use x="1203.09375" xlink:href="#DejaVuSans-99"/>
      <use x="1258.074219" xlink:href="#DejaVuSans-111"/>
      <use x="1319.255859" xlink:href="#DejaVuSans-118"/>
      <use x="1378.435547" xlink:href="#DejaVuSans-101"/>
      <use x="1439.958984" xlink:href="#DejaVuSans-114"/>
      <use x="1481.072266" xlink:href="#DejaVuSans-97"/>
      <use x="1542.351562" xlink:href="#DejaVuSans-103"/>
      <use x="1605.828125" xlink:href="#DejaVuSans-101"/>
      <use x="1667.351562" xlink:href="#DejaVuSans-32"/>
      <use x="1699.138672" xlink:href="#DejaVuSans-111"/>
      <use x="1760.320312" xlink:href="#DejaVuSans-110"/>
      <use x="1823.699219" xlink:href="#DejaVuSans-32"/>
      <use x="1855.486328" xlink:href="#DejaVuSans-116"/>
      <use x="1894.695312" xlink:href="#DejaVuSans-104"/>
      <use x="1958.074219" xlink:href="#DejaVuSans-101"/>
      <use x="2019.597656" xlink:href="#DejaVuSans-32"/>
      <use x="2051.384766" xlink:href="#DejaVuSans-108"/>
      <use x="2079.167969" xlink:href="#DejaVuSans-101"/>
      <use x="2140.691406" xlink:href="#DejaVuSans-102"/>
      <use x="2174.146484" xlink:href="#DejaVuSans-116"/>
      <use x="2213.355469" xlink:href="#DejaVuSans-41"/>
     </g>
    </g>
   </g>
   <g id="matplotlib.axis_2">
    <g id="ytick_1">
     <g id="line2d_10">
      <defs>
       <path d="M 0 0 
L -3.5 0 
" id="m59d0421b9c" style="stroke:#000000;stroke-width:0.8;"/>
      </defs>
      <g>
       <use style="stroke:#000000;stroke-width:0.8;" x="53.328125" xlink:href="#m59d0421b9c" y="271.597366"/>
      </g>
     </g>
     <g id="text_11">
      <!-- 2000 -->
      <g transform="translate(20.878125 275.396585)scale(0.1 -0.1)">
       <defs>
        <path d="M 19.1875 8.296875 
L 53.609375 8.296875 
L 53.609375 0 
L 7.328125 0 
L 7.328125 8.296875 
Q 12.9375 14.109375 22.625 23.890625 
Q 32.328125 33.6875 34.8125 36.53125 
Q 39.546875 41.84375 41.421875 45.53125 
Q 43.3125 49.21875 43.3125 52.78125 
Q 43.3125 58.59375 39.234375 62.25 
Q 35.15625 65.921875 28.609375 65.921875 
Q 23.96875 65.921875 18.8125 64.3125 
Q 13.671875 62.703125 7.8125 59.421875 
L 7.8125 69.390625 
Q 13.765625 71.78125 18.9375 73 
Q 24.125 74.21875 28.421875 74.21875 
Q 39.75 74.21875 46.484375 68.546875 
Q 53.21875 62.890625 53.21875 53.421875 
Q 53.21875 48.921875 51.53125 44.890625 
Q 49.859375 40.875 45.40625 35.40625 
Q 44.1875 33.984375 37.640625 27.21875 
Q 31.109375 20.453125 19.1875 8.296875 
z
" id="DejaVuSans-50"/>
        <path d="M 31.78125 66.40625 
Q 24.171875 66.40625 20.328125 58.90625 
Q 16.5 51.421875 16.5 36.375 
Q 16.5 21.390625 20.328125 13.890625 
Q 24.171875 6.390625 31.78125 6.390625 
Q 39.453125 6.390625 43.28125 13.890625 
Q 47.125 21.390625 47.125 36.375 
Q 47.125 51.421875 43.28125 58.90625 
Q 39.453125 66.40625 31.78125 66.40625 
z
M 31.78125 74.21875 
Q 44.046875 74.21875 50.515625 64.515625 
Q 56.984375 54.828125 56.984375 36.375 
Q 56.984375 17.96875 50.515625 8.265625 
Q 44.046875 -1.421875 31.78125 -1.421875 
Q 19.53125 -1.421875 13.0625 8.265625 
Q 6.59375 17.96875 6.59375 36.375 
Q 6.59375 54.828125 13.0625 64.515625 
Q 19.53125 74.21875 31.78125 74.21875 
z
" id="DejaVuSans-48"/>
       </defs>
       <use xlink:href="#DejaVuSans-50"/>
       <use x="63.623047" xlink:href="#DejaVuSans-48"/>
       <use x="127.246094" xlink:href="#DejaVuSans-48"/>
       <use x="190.869141" xlink:href="#DejaVuSans-48"/>
      </g>
     </g>
    </g>
    <g id="ytick_2">
     <g id="line2d_11">
      <g>
       <use style="stroke:#000000;stroke-width:0.8;" x="53.328125" xlink:href="#m59d0421b9c" y="231.945457"/>
      </g>
     </g>
     <g id="text_12">
      <!-- 3000 -->
      <g transform="translate(20.878125 235.744675)scale(0.1 -0.1)">
       <defs>
        <path d="M 40.578125 39.3125 
Q 47.65625 37.796875 51.625 33 
Q 55.609375 28.21875 55.609375 21.1875 
Q 55.609375 10.40625 48.1875 4.484375 
Q 40.765625 -1.421875 27.09375 -1.421875 
Q 22.515625 -1.421875 17.65625 -0.515625 
Q 12.796875 0.390625 7.625 2.203125 
L 7.625 11.71875 
Q 11.71875 9.328125 16.59375 8.109375 
Q 21.484375 6.890625 26.8125 6.890625 
Q 36.078125 6.890625 40.9375 10.546875 
Q 45.796875 14.203125 45.796875 21.1875 
Q 45.796875 27.640625 41.28125 31.265625 
Q 36.765625 34.90625 28.71875 34.90625 
L 20.21875 34.90625 
L 20.21875 43.015625 
L 29.109375 43.015625 
Q 36.375 43.015625 40.234375 45.921875 
Q 44.09375 48.828125 44.09375 54.296875 
Q 44.09375 59.90625 40.109375 62.90625 
Q 36.140625 65.921875 28.71875 65.921875 
Q 24.65625 65.921875 20.015625 65.03125 
Q 15.375 64.15625 9.8125 62.3125 
L 9.8125 71.09375 
Q 15.4375 72.65625 20.34375 73.4375 
Q 25.25 74.21875 29.59375 74.21875 
Q 40.828125 74.21875 47.359375 69.109375 
Q 53.90625 64.015625 53.90625 55.328125 
Q 53.90625 49.265625 50.4375 45.09375 
Q 46.96875 40.921875 40.578125 39.3125 
z
" id="DejaVuSans-51"/>
       </defs>
       <use xlink:href="#DejaVuSans-51"/>
       <use x="63.623047" xlink:href="#DejaVuSans-48"/>
       <use x="127.246094" xlink:href="#DejaVuSans-48"/>
       <use x="190.869141" xlink:href="#DejaVuSans-48"/>
      </g>
     </g>
    </g>
    <g id="ytick_3">
     <g id="line2d_12">
      <g>
       <use style="stroke:#000000;stroke-width:0.8;" x="53.328125" xlink:href="#m59d0421b9c" y="192.293547"/>
      </g>
     </g>
     <g id="text_13">
      <!-- 4000 -->
      <g transform="translate(20.878125 196.092766)scale(0.1 -0.1)">
       <defs>
        <path d="M 37.796875 64.3125 
L 12.890625 25.390625 
L 37.796875 25.390625 
z
M 35.203125 72.90625 
L 47.609375 72.90625 
L 47.609375 25.390625 
L 58.015625 25.390625 
L 58.015625 17.1875 
L 47.609375 17.1875 
L 47.609375 0 
L 37.796875 0 
L 37.796875 17.1875 
L 4.890625 17.1875 
L 4.890625 26.703125 
z
" id="DejaVuSans-52"/>
       </defs>
       <use xlink:href="#DejaVuSans-52"/>
       <use x="63.623047" xlink:href="#DejaVuSans-48"/>
       <use x="127.246094" xlink:href="#DejaVuSans-48"/>
       <use x="190.869141" xlink:href="#DejaVuSans-48"/>
      </g>
     </g>
    </g>
    <g id="ytick_4">
     <g id="line2d_13">
      <g>
       <use style="stroke:#000000;stroke-width:0.8;" x="53.328125" xlink:href="#m59d0421b9c" y="152.641637"/>
      </g>
     </g>
     <g id="text_14">
      <!-- 5000 -->
      <g transform="translate(20.878125 156.440856)scale(0.1 -0.1)">
       <defs>
        <path d="M 10.796875 72.90625 
L 49.515625 72.90625 
L 49.515625 64.59375 
L 19.828125 64.59375 
L 19.828125 46.734375 
Q 21.96875 47.46875 24.109375 47.828125 
Q 26.265625 48.1875 28.421875 48.1875 
Q 40.625 48.1875 47.75 41.5 
Q 54.890625 34.8125 54.890625 23.390625 
Q 54.890625 11.625 47.5625 5.09375 
Q 40.234375 -1.421875 26.90625 -1.421875 
Q 22.3125 -1.421875 17.546875 -0.640625 
Q 12.796875 0.140625 7.71875 1.703125 
L 7.71875 11.625 
Q 12.109375 9.234375 16.796875 8.0625 
Q 21.484375 6.890625 26.703125 6.890625 
Q 35.15625 6.890625 40.078125 11.328125 
Q 45.015625 15.765625 45.015625 23.390625 
Q 45.015625 31 40.078125 35.4375 
Q 35.15625 39.890625 26.703125 39.890625 
Q 22.75 39.890625 18.8125 39.015625 
Q 14.890625 38.140625 10.796875 36.28125 
z
" id="DejaVuSans-53"/>
       </defs>
       <use xlink:href="#DejaVuSans-53"/>
       <use x="63.623047" xlink:href="#DejaVuSans-48"/>
       <use x="127.246094" xlink:href="#DejaVuSans-48"/>
       <use x="190.869141" xlink:href="#DejaVuSans-48"/>
      </g>
     </g>
    </g>
    <g id="ytick_5">
     <g id="line2d_14">
      <g>
       <use style="stroke:#000000;stroke-width:0.8;" x="53.328125" xlink:href="#m59d0421b9c" y="112.989728"/>
      </g>
     </g>
     <g id="text_15">
      <!-- 6000 -->
      <g transform="translate(20.878125 116.788947)scale(0.1 -0.1)">
       <defs>
        <path d="M 33.015625 40.375 
Q 26.375 40.375 22.484375 35.828125 
Q 18.609375 31.296875 18.609375 23.390625 
Q 18.609375 15.53125 22.484375 10.953125 
Q 26.375 6.390625 33.015625 6.390625 
Q 39.65625 6.390625 43.53125 10.953125 
Q 47.40625 15.53125 47.40625 23.390625 
Q 47.40625 31.296875 43.53125 35.828125 
Q 39.65625 40.375 33.015625 40.375 
z
M 52.59375 71.296875 
L 52.59375 62.3125 
Q 48.875 64.0625 45.09375 64.984375 
Q 41.3125 65.921875 37.59375 65.921875 
Q 27.828125 65.921875 22.671875 59.328125 
Q 17.53125 52.734375 16.796875 39.40625 
Q 19.671875 43.65625 24.015625 45.921875 
Q 28.375 48.1875 33.59375 48.1875 
Q 44.578125 48.1875 50.953125 41.515625 
Q 57.328125 34.859375 57.328125 23.390625 
Q 57.328125 12.15625 50.6875 5.359375 
Q 44.046875 -1.421875 33.015625 -1.421875 
Q 20.359375 -1.421875 13.671875 8.265625 
Q 6.984375 17.96875 6.984375 36.375 
Q 6.984375 53.65625 15.1875 63.9375 
Q 23.390625 74.21875 37.203125 74.21875 
Q 40.921875 74.21875 44.703125 73.484375 
Q 48.484375 72.75 52.59375 71.296875 
z
" id="DejaVuSans-54"/>
       </defs>
       <use xlink:href="#DejaVuSans-54"/>
       <use x="63.623047" xlink:href="#DejaVuSans-48"/>
       <use x="127.246094" xlink:href="#DejaVuSans-48"/>
       <use x="190.869141" xlink:href="#DejaVuSans-48"/>
      </g>
     </g>
    </g>
    <g id="ytick_6">
     <g id="line2d_15">
      <g>
       <use style="stroke:#000000;stroke-width:0.8;" x="53.328125" xlink:href="#m59d0421b9c" y="73.337818"/>
      </g>
     </g>
     <g id="text_16">
      <!-- 7000 -->
      <g transform="translate(20.878125 77.137037)scale(0.1 -0.1)">
       <defs>
        <path d="M 8.203125 72.90625 
L 55.078125 72.90625 
L 55.078125 68.703125 
L 28.609375 0 
L 18.3125 0 
L 43.21875 64.59375 
L 8.203125 64.59375 
z
" id="DejaVuSans-55"/>
       </defs>
       <use xlink:href="#DejaVuSans-55"/>
       <use x="63.623047" xlink:href="#DejaVuSans-48"/>
       <use x="127.246094" xlink:href="#DejaVuSans-48"/>
       <use x="190.869141" xlink:href="#DejaVuSans-48"/>
      </g>
     </g>
    </g>
    <g id="ytick_7">
     <g id="line2d_16">
      <g>
       <use style="stroke:#000000;stroke-width:0.8;" x="53.328125" xlink:href="#m59d0421b9c" y="33.685909"/>
      </g>
     </g>
     <g id="text_17">
      <!-- 8000 -->
      <g transform="translate(20.878125 37.485127)scale(0.1 -0.1)">
       <defs>
        <path d="M 31.78125 34.625 
Q 24.75 34.625 20.71875 30.859375 
Q 16.703125 27.09375 16.703125 20.515625 
Q 16.703125 13.921875 20.71875 10.15625 
Q 24.75 6.390625 31.78125 6.390625 
Q 38.8125 6.390625 42.859375 10.171875 
Q 46.921875 13.96875 46.921875 20.515625 
Q 46.921875 27.09375 42.890625 30.859375 
Q 38.875 34.625 31.78125 34.625 
z
M 21.921875 38.8125 
Q 15.578125 40.375 12.03125 44.71875 
Q 8.5 49.078125 8.5 55.328125 
Q 8.5 64.0625 14.71875 69.140625 
Q 20.953125 74.21875 31.78125 74.21875 
Q 42.671875 74.21875 48.875 69.140625 
Q 55.078125 64.0625 55.078125 55.328125 
Q 55.078125 49.078125 51.53125 44.71875 
Q 48 40.375 41.703125 38.8125 
Q 48.828125 37.15625 52.796875 32.3125 
Q 56.78125 27.484375 56.78125 20.515625 
Q 56.78125 9.90625 50.3125 4.234375 
Q 43.84375 -1.421875 31.78125 -1.421875 
Q 19.734375 -1.421875 13.25 4.234375 
Q 6.78125 9.90625 6.78125 20.515625 
Q 6.78125 27.484375 10.78125 32.3125 
Q 14.796875 37.15625 21.921875 38.8125 
z
M 18.3125 54.390625 
Q 18.3125 48.734375 21.84375 45.5625 
Q 25.390625 42.390625 31.78125 42.390625 
Q 38.140625 42.390625 41.71875 45.5625 
Q 45.3125 48.734375 45.3125 54.390625 
Q 45.3125 60.0625 41.71875 63.234375 
Q 38.140625 66.40625 31.78125 66.40625 
Q 25.390625 66.40625 21.84375 63.234375 
Q 18.3125 60.0625 18.3125 54.390625 
z
" id="DejaVuSans-56"/>
       </defs>
       <use xlink:href="#DejaVuSans-56"/>
       <use x="63.623047" xlink:href="#DejaVuSans-48"/>
       <use x="127.246094" xlink:href="#DejaVuSans-48"/>
       <use x="190.869141" xlink:href="#DejaVuSans-48"/>
      </g>
     </g>
    </g>
    <g id="text_18">
     <!-- Reached region coverage -->
     <g transform="translate(14.798438 219.136625)rotate(-90)scale(0.1 -0.1)">
      <defs>
       <path d="M 44.390625 34.1875 
Q 47.5625 33.109375 50.5625 29.59375 
Q 53.5625 26.078125 56.59375 19.921875 
L 66.609375 0 
L 56 0 
L 46.6875 18.703125 
Q 43.0625 26.03125 39.671875 28.421875 
Q 36.28125 30.8125 30.421875 30.8125 
L 19.671875 30.8125 
L 19.671875 0 
L 9.8125 0 
L 9.8125 72.90625 
L 32.078125 72.90625 
Q 44.578125 72.90625 50.734375 67.671875 
Q 56.890625 62.453125 56.890625 51.90625 
Q 56.890625 45.015625 53.6875 40.46875 
Q 50.484375 35.9375 44.390625 34.1875 
z
M 19.671875 64.796875 
L 19.671875 38.921875 
L 32.078125 38.921875 
Q 39.203125 38.921875 42.84375 42.21875 
Q 46.484375 45.515625 46.484375 51.90625 
Q 46.484375 58.296875 42.84375 61.546875 
Q 39.203125 64.796875 32.078125 64.796875 
z
" id="DejaVuSans-82"/>
      </defs>
      <use xlink:href="#DejaVuSans-82"/>
      <use x="64.982422" xlink:href="#DejaVuSans-101"/>
      <use x="126.505859" xlink:href="#DejaVuSans-97"/>
      <use x="187.785156" xlink:href="#DejaVuSans-99"/>
      <use x="242.765625" xlink:href="#DejaVuSans-104"/>
      <use x="306.144531" xlink:href="#DejaVuSans-101"/>
      <use x="367.667969" xlink:href="#DejaVuSans-100"/>
      <use x="431.144531" xlink:href="#DejaVuSans-32"/>
      <use x="462.931641" xlink:href="#DejaVuSans-114"/>
      <use x="501.794922" xlink:href="#DejaVuSans-101"/>
      <use x="563.318359" xlink:href="#DejaVuSans-103"/>
      <use x="626.794922" xlink:href="#DejaVuSans-105"/>
      <use x="654.578125" xlink:href="#DejaVuSans-111"/>
      <use x="715.759766" xlink:href="#DejaVuSans-110"/>
      <use x="779.138672" xlink:href="#DejaVuSans-32"/>
      <use x="810.925781" xlink:href="#DejaVuSans-99"/>
      <use x="865.90625" xlink:href="#DejaVuSans-111"/>
      <use x="927.087891" xlink:href="#DejaVuSans-118"/>
      <use x="986.267578" xlink:href="#DejaVuSans-101"/>
      <use x="1047.791016" xlink:href="#DejaVuSans-114"/>
      <use x="1088.904297" xlink:href="#DejaVuSans-97"/>
      <use x="1150.183594" xlink:href="#DejaVuSans-103"/>
      <use x="1213.660156" xlink:href="#DejaVuSans-101"/>
     </g>
    </g>
   </g>
   <g id="line2d_17">
    <path clip-path="url(#peba243b5f1)" d="M 73.168125 63.861012 
L 73.168125 41.576639 
" style="fill:none;stroke:#3d3d3d;stroke-linecap:square;stroke-width:1.5;"/>
   </g>
   <g id="line2d_18">
    <path clip-path="url(#peba243b5f1)" d="M 73.168125 58.190789 
L 73.168125 49.229457 
" style="fill:none;stroke:#3d3d3d;stroke-linecap:square;stroke-width:4.5;"/>
   </g>
   <g id="line2d_19">
    <path clip-path="url(#peba243b5f1)" d="M 112.848125 58.190789 
L 112.848125 41.735246 
" style="fill:none;stroke:#3d3d3d;stroke-linecap:square;stroke-width:1.5;"/>
   </g>
   <g id="line2d_20">
    <path clip-path="url(#peba243b5f1)" d="M 112.848125 56.703842 
L 112.848125 49.844062 
" style="fill:none;stroke:#3d3d3d;stroke-linecap:square;stroke-width:4.5;"/>
   </g>
   <g id="line2d_21">
    <path clip-path="url(#peba243b5f1)" d="M 152.528125 96.375578 
L 152.528125 54.185946 
" style="fill:none;stroke:#3d3d3d;stroke-linecap:square;stroke-width:1.5;"/>
   </g>
   <g id="line2d_22">
    <path clip-path="url(#peba243b5f1)" d="M 152.528125 85.550606 
L 152.528125 64.673876 
" style="fill:none;stroke:#3d3d3d;stroke-linecap:square;stroke-width:4.5;"/>
   </g>
   <g id="line2d_23">
    <path clip-path="url(#peba243b5f1)" d="M 192.208125 158.827335 
L 192.208125 77.223705 
" style="fill:none;stroke:#3d3d3d;stroke-linecap:square;stroke-width:1.5;"/>
   </g>
   <g id="line2d_24">
    <path clip-path="url(#peba243b5f1)" d="M 192.208125 140.329719 
L 192.208125 110.005922 
" style="fill:none;stroke:#3d3d3d;stroke-linecap:square;stroke-width:4.5;"/>
   </g>
   <g id="line2d_25">
    <path clip-path="url(#peba243b5f1)" d="M 231.888125 151.293472 
L 231.888125 145.42499 
" style="fill:none;stroke:#3d3d3d;stroke-linecap:square;stroke-width:1.5;"/>
   </g>
   <g id="line2d_26">
    <path clip-path="url(#peba243b5f1)" d="M 231.888125 150.381479 
L 231.888125 147.526541 
" style="fill:none;stroke:#3d3d3d;stroke-linecap:square;stroke-width:4.5;"/>
   </g>
   <g id="line2d_27">
    <path clip-path="url(#peba243b5f1)" d="M 271.568125 200.898011 
L 271.568125 132.379512 
" style="fill:none;stroke:#3d3d3d;stroke-linecap:square;stroke-width:1.5;"/>
   </g>
   <g id="line2d_28">
    <path clip-path="url(#peba243b5f1)" d="M 271.568125 172.041334 
L 271.568125 146.941675 
" style="fill:none;stroke:#3d3d3d;stroke-linecap:square;stroke-width:4.5;"/>
   </g>
   <g id="line2d_29">
    <path clip-path="url(#peba243b5f1)" d="M 311.248125 166.837021 
L 311.248125 150.540086 
" style="fill:none;stroke:#3d3d3d;stroke-linecap:square;stroke-width:1.5;"/>
   </g>
   <g id="line2d_30">
    <path clip-path="url(#peba243b5f1)" d="M 311.248125 160.54228 
L 311.248125 154.525103 
" style="fill:none;stroke:#3d3d3d;stroke-linecap:square;stroke-width:4.5;"/>
   </g>
   <g id="line2d_31">
    <path clip-path="url(#peba243b5f1)" d="M 350.928125 169.969522 
L 350.928125 150.381479 
" style="fill:none;stroke:#3d3d3d;stroke-linecap:square;stroke-width:1.5;"/>
   </g>
   <g id="line2d_32">
    <path clip-path="url(#peba243b5f1)" d="M 350.928125 165.46903 
L 350.928125 155.754312 
" style="fill:none;stroke:#3d3d3d;stroke-linecap:square;stroke-width:4.5;"/>
   </g>
   <g id="line2d_33">
    <path clip-path="url(#peba243b5f1)" d="M 390.608125 230.399032 
L 390.608125 144.235433 
" style="fill:none;stroke:#3d3d3d;stroke-linecap:square;stroke-width:1.5;"/>
   </g>
   <g id="line2d_34">
    <path clip-path="url(#peba243b5f1)" d="M 390.608125 205.834674 
L 390.608125 159.263506 
" style="fill:none;stroke:#3d3d3d;stroke-linecap:square;stroke-width:4.5;"/>
   </g>
   <g id="patch_3">
    <path d="M 53.328125 271.597366 
L 53.328125 33.685909 
" style="fill:none;stroke:#000000;stroke-linecap:square;stroke-linejoin:miter;stroke-width:0.8;"/>
   </g>
   <g id="patch_4">
    <path d="M 73.168125 288.430125 
L 390.608125 288.430125 
" style="fill:none;stroke:#000000;stroke-linecap:square;stroke-linejoin:miter;stroke-width:0.8;"/>
   </g>
   <g id="PathCollection_1">
    <defs>
     <path d="M 0 1.5 
C 0.397805 1.5 0.77937 1.341951 1.06066 1.06066 
C 1.341951 0.77937 1.5 0.397805 1.5 0 
C 1.5 -0.397805 1.341951 -0.77937 1.06066 -1.06066 
C 0.77937 -1.341951 0.397805 -1.5 0 -1.5 
C -0.397805 -1.5 -0.77937 -1.341951 -1.06066 -1.06066 
C -1.341951 -0.77937 -1.5 -0.397805 -1.5 0 
C -1.5 0.397805 -1.341951 0.77937 -1.06066 1.06066 
C -0.77937 1.341951 -0.397805 1.5 0 1.5 
z
" id="m9ffd9bb40d" style="stroke:#3d3d3d;"/>
    </defs>
    <g clip-path="url(#peba243b5f1)">
     <use style="fill:#ffffff;stroke:#3d3d3d;" x="73.168125" xlink:href="#m9ffd9bb40d" y="52.956737"/>
    </g>
   </g>
   <g id="PathCollection_2">
    <g clip-path="url(#peba243b5f1)">
     <use style="fill:#ffffff;stroke:#3d3d3d;" x="112.848125" xlink:href="#m9ffd9bb40d" y="54.503161"/>
    </g>
   </g>
   <g id="PathCollection_3">
    <g clip-path="url(#peba243b5f1)">
     <use style="fill:#ffffff;stroke:#3d3d3d;" x="152.528125" xlink:href="#m9ffd9bb40d" y="72.405998"/>
    </g>
   </g>
   <g id="PathCollection_4">
    <g clip-path="url(#peba243b5f1)">
     <use style="fill:#ffffff;stroke:#3d3d3d;" x="192.208125" xlink:href="#m9ffd9bb40d" y="130.079701"/>
    </g>
   </g>
   <g id="PathCollection_5">
    <g clip-path="url(#peba243b5f1)">
     <use style="fill:#ffffff;stroke:#3d3d3d;" x="231.888125" xlink:href="#m9ffd9bb40d" y="149.429833"/>
    </g>
   </g>
   <g id="PathCollection_6">
    <g clip-path="url(#peba243b5f1)">
     <use style="fill:#ffffff;stroke:#3d3d3d;" x="271.568125" xlink:href="#m9ffd9bb40d" y="156.031876"/>
    </g>
   </g>
   <g id="PathCollection_7">
    <g clip-path="url(#peba243b5f1)">
     <use style="fill:#ffffff;stroke:#3d3d3d;" x="311.248125" xlink:href="#m9ffd9bb40d" y="157.67743"/>
    </g>
   </g>
   <g id="PathCollection_8">
    <g clip-path="url(#peba243b5f1)">
     <use style="fill:#ffffff;stroke:#3d3d3d;" x="350.928125" xlink:href="#m9ffd9bb40d" y="158.549772"/>
    </g>
   </g>
   <g id="PathCollection_9">
    <g clip-path="url(#peba243b5f1)">
     <use style="fill:#ffffff;stroke:#3d3d3d;" x="390.608125" xlink:href="#m9ffd9bb40d" y="168.542053"/>
    </g>
   </g>
   <g id="text_19">
    <!-- proj4-2017-08-14 (23h, 15 trials/fuzzer) -->
    <g transform="translate(112.828438 16.318125)scale(0.12 -0.12)">
     <defs>
      <path d="M 9.421875 54.6875 
L 18.40625 54.6875 
L 18.40625 -0.984375 
Q 18.40625 -11.421875 14.421875 -16.109375 
Q 10.453125 -20.796875 1.609375 -20.796875 
L -1.8125 -20.796875 
L -1.8125 -13.1875 
L 0.59375 -13.1875 
Q 5.71875 -13.1875 7.5625 -10.8125 
Q 9.421875 -8.453125 9.421875 -0.984375 
z
M 9.421875 75.984375 
L 18.40625 75.984375 
L 18.40625 64.59375 
L 9.421875 64.59375 
z
" id="DejaVuSans-106"/>
      <path d="M 4.890625 31.390625 
L 31.203125 31.390625 
L 31.203125 23.390625 
L 4.890625 23.390625 
z
" id="DejaVuSans-45"/>
      <path d="M 12.40625 8.296875 
L 28.515625 8.296875 
L 28.515625 63.921875 
L 10.984375 60.40625 
L 10.984375 69.390625 
L 28.421875 72.90625 
L 38.28125 72.90625 
L 38.28125 8.296875 
L 54.390625 8.296875 
L 54.390625 0 
L 12.40625 0 
z
" id="DejaVuSans-49"/>
      <path d="M 11.71875 12.40625 
L 22.015625 12.40625 
L 22.015625 4 
L 14.015625 -11.625 
L 7.71875 -11.625 
L 11.71875 4 
z
" id="DejaVuSans-44"/>
      <path d="M 25.390625 72.90625 
L 33.6875 72.90625 
L 8.296875 -9.28125 
L 0 -9.28125 
z
" id="DejaVuSans-47"/>
     </defs>
     <use xlink:href="#DejaVuSans-112"/>
     <use x="63.476562" xlink:href="#DejaVuSans-114"/>
     <use x="102.339844" xlink:href="#DejaVuSans-111"/>
     <use x="163.521484" xlink:href="#DejaVuSans-106"/>
     <use x="191.304688" xlink:href="#DejaVuSans-52"/>
     <use x="254.927734" xlink:href="#DejaVuSans-45"/>
     <use x="291.011719" xlink:href="#DejaVuSans-50"/>
     <use x="354.634766" xlink:href="#DejaVuSans-48"/>
     <use x="418.257812" xlink:href="#DejaVuSans-49"/>
     <use x="481.880859" xlink:href="#DejaVuSans-55"/>
     <use x="545.503906" xlink:href="#DejaVuSans-45"/>
     <use x="581.587891" xlink:href="#DejaVuSans-48"/>
     <use x="645.210938" xlink:href="#DejaVuSans-56"/>
     <use x="708.833984" xlink:href="#DejaVuSans-45"/>
     <use x="744.917969" xlink:href="#DejaVuSans-49"/>
     <use x="808.541016" xlink:href="#DejaVuSans-52"/>
     <use x="872.164062" xlink:href="#DejaVuSans-32"/>
     <use x="903.951172" xlink:href="#DejaVuSans-40"/>
     <use x="942.964844" xlink:href="#DejaVuSans-50"/>
     <use x="1006.587891" xlink:href="#DejaVuSans-51"/>
     <use x="1070.210938" xlink:href="#DejaVuSans-104"/>
     <use x="1133.589844" xlink:href="#DejaVuSans-44"/>
     <use x="1165.376953" xlink:href="#DejaVuSans-32"/>
     <use x="1197.164062" xlink:href="#DejaVuSans-49"/>
     <use x="1260.787109" xlink:href="#DejaVuSans-53"/>
     <use x="1324.410156" xlink:href="#DejaVuSans-32"/>
     <use x="1356.197266" xlink:href="#DejaVuSans-116"/>
     <use x="1395.40625" xlink:href="#DejaVuSans-114"/>
     <use x="1436.519531" xlink:href="#DejaVuSans-105"/>
     <use x="1464.302734" xlink:href="#DejaVuSans-97"/>
     <use x="1525.582031" xlink:href="#DejaVuSans-108"/>
     <use x="1553.365234" xlink:href="#DejaVuSans-115"/>
     <use x="1605.464844" xlink:href="#DejaVuSans-47"/>
     <use x="1639.15625" xlink:href="#DejaVuSans-102"/>
     <use x="1674.361328" xlink:href="#DejaVuSans-117"/>
     <use x="1737.740234" xlink:href="#DejaVuSans-122"/>
     <use x="1790.230469" xlink:href="#DejaVuSans-122"/>
     <use x="1842.720703" xlink:href="#DejaVuSans-101"/>
     <use x="1904.244141" xlink:href="#DejaVuSans-114"/>
     <use x="1945.357422" xlink:href="#DejaVuSans-41"/>
    </g>
   </g>
  </g>
 </g>
 <defs>
  <clipPath id="peba243b5f1">
   <rect height="266.112" width="357.12" x="53.328125" y="22.318125"/>
  </clipPath>
 </defs>
</svg>
