<?xml version="1.0" encoding="utf-8" standalone="no"?>
<!DOCTYPE svg PUBLIC "-//W3C//DTD SVG 1.1//EN"
  "http://www.w3.org/Graphics/SVG/1.1/DTD/svg11.dtd">
<!-- Created with matplotlib (https://matplotlib.org/) -->
<svg height="325.986375pt" version="1.1" viewBox="0 0 898.12125 325.986375" width="898.12125pt" xmlns="http://www.w3.org/2000/svg" xmlns:xlink="http://www.w3.org/1999/xlink">
 <metadata>
  <rdf:RDF xmlns:cc="http://creativecommons.org/ns#" xmlns:dc="http://purl.org/dc/elements/1.1/" xmlns:rdf="http://www.w3.org/1999/02/22-rdf-syntax-ns#">
   <cc:Work>
    <dc:type rdf:resource="http://purl.org/dc/dcmitype/StillImage"/>
    <dc:date>2020-12-06T10:29:11.360254</dc:date>
    <dc:format>image/svg+xml</dc:format>
    <dc:creator>
     <cc:Agent>
      <dc:title>Matplotlib v3.3.3, https://matplotlib.org/</dc:title>
     </cc:Agent>
    </dc:creator>
   </cc:Work>
  </rdf:RDF>
 </metadata>
 <defs>
  <style type="text/css">*{stroke-linecap:butt;stroke-linejoin:round;}</style>
 </defs>
 <g id="figure_1">
  <g id="patch_1">
   <path d="M 0 325.986375 
L 898.12125 325.986375 
L 898.12125 0 
L 0 0 
z
" style="fill:#ffffff;"/>
  </g>
  <g id="axes_1">
   <g id="patch_2">
    <path d="M 53.328125 288.430125 
L 767.568125 288.430125 
L 767.568125 22.318125 
L 53.328125 22.318125 
z
" style="fill:#ffffff;"/>
   </g>
   <g id="matplotlib.axis_1">
    <g id="xtick_1">
     <g id="line2d_1">
      <defs>
       <path d="M 0 0 
L 0 3.5 
" id="m99aea143a4" style="stroke:#000000;stroke-width:0.8;"/>
      </defs>
      <g>
       <use style="stroke:#000000;stroke-width:0.8;" x="85.79358" xlink:href="#m99aea143a4" y="288.430125"/>
      </g>
     </g>
     <g id="text_1">
      <!-- 14m -->
      <g transform="translate(74.560767 303.028562)scale(0.1 -0.1)">
       <defs>
        <path d="M 12.40625 8.296875 
L 28.515625 8.296875 
L 28.515625 63.921875 
L 10.984375 60.40625 
L 10.984375 69.390625 
L 28.421875 72.90625 
L 38.28125 72.90625 
L 38.28125 8.296875 
L 54.390625 8.296875 
L 54.390625 0 
L 12.40625 0 
z
" id="DejaVuSans-49"/>
        <path d="M 37.796875 64.3125 
L 12.890625 25.390625 
L 37.796875 25.390625 
z
M 35.203125 72.90625 
L 47.609375 72.90625 
L 47.609375 25.390625 
L 58.015625 25.390625 
L 58.015625 17.1875 
L 47.609375 17.1875 
L 47.609375 0 
L 37.796875 0 
L 37.796875 17.1875 
L 4.890625 17.1875 
L 4.890625 26.703125 
z
" id="DejaVuSans-52"/>
        <path d="M 52 44.1875 
Q 55.375 50.25 60.0625 53.125 
Q 64.75 56 71.09375 56 
Q 79.640625 56 84.28125 50.015625 
Q 88.921875 44.046875 88.921875 33.015625 
L 88.921875 0 
L 79.890625 0 
L 79.890625 32.71875 
Q 79.890625 40.578125 77.09375 44.375 
Q 74.3125 48.1875 68.609375 48.1875 
Q 61.625 48.1875 57.5625 43.546875 
Q 53.515625 38.921875 53.515625 30.90625 
L 53.515625 0 
L 44.484375 0 
L 44.484375 32.71875 
Q 44.484375 40.625 41.703125 44.40625 
Q 38.921875 48.1875 33.109375 48.1875 
Q 26.21875 48.1875 22.15625 43.53125 
Q 18.109375 38.875 18.109375 30.90625 
L 18.109375 0 
L 9.078125 0 
L 9.078125 54.6875 
L 18.109375 54.6875 
L 18.109375 46.1875 
Q 21.1875 51.21875 25.484375 53.609375 
Q 29.78125 56 35.6875 56 
Q 41.65625 56 45.828125 52.96875 
Q 50 49.953125 52 44.1875 
z
" id="DejaVuSans-109"/>
       </defs>
       <use xlink:href="#DejaVuSans-49"/>
       <use x="63.623047" xlink:href="#DejaVuSans-52"/>
       <use x="127.246094" xlink:href="#DejaVuSans-109"/>
      </g>
     </g>
    </g>
    <g id="xtick_2">
     <g id="line2d_2">
      <g>
       <use style="stroke:#000000;stroke-width:0.8;" x="144.821836" xlink:href="#m99aea143a4" y="288.430125"/>
      </g>
     </g>
     <g id="text_2">
      <!-- 22m -->
      <g transform="translate(133.589024 303.028562)scale(0.1 -0.1)">
       <defs>
        <path d="M 19.1875 8.296875 
L 53.609375 8.296875 
L 53.609375 0 
L 7.328125 0 
L 7.328125 8.296875 
Q 12.9375 14.109375 22.625 23.890625 
Q 32.328125 33.6875 34.8125 36.53125 
Q 39.546875 41.84375 41.421875 45.53125 
Q 43.3125 49.21875 43.3125 52.78125 
Q 43.3125 58.59375 39.234375 62.25 
Q 35.15625 65.921875 28.609375 65.921875 
Q 23.96875 65.921875 18.8125 64.3125 
Q 13.671875 62.703125 7.8125 59.421875 
L 7.8125 69.390625 
Q 13.765625 71.78125 18.9375 73 
Q 24.125 74.21875 28.421875 74.21875 
Q 39.75 74.21875 46.484375 68.546875 
Q 53.21875 62.890625 53.21875 53.421875 
Q 53.21875 48.921875 51.53125 44.890625 
Q 49.859375 40.875 45.40625 35.40625 
Q 44.1875 33.984375 37.640625 27.21875 
Q 31.109375 20.453125 19.1875 8.296875 
z
" id="DejaVuSans-50"/>
       </defs>
       <use xlink:href="#DejaVuSans-50"/>
       <use x="63.623047" xlink:href="#DejaVuSans-50"/>
       <use x="127.246094" xlink:href="#DejaVuSans-109"/>
      </g>
     </g>
    </g>
    <g id="xtick_3">
     <g id="line2d_3">
      <g>
       <use style="stroke:#000000;stroke-width:0.8;" x="203.850093" xlink:href="#m99aea143a4" y="288.430125"/>
      </g>
     </g>
     <g id="text_3">
      <!-- 34m -->
      <g transform="translate(192.617281 303.028562)scale(0.1 -0.1)">
       <defs>
        <path d="M 40.578125 39.3125 
Q 47.65625 37.796875 51.625 33 
Q 55.609375 28.21875 55.609375 21.1875 
Q 55.609375 10.40625 48.1875 4.484375 
Q 40.765625 -1.421875 27.09375 -1.421875 
Q 22.515625 -1.421875 17.65625 -0.515625 
Q 12.796875 0.390625 7.625 2.203125 
L 7.625 11.71875 
Q 11.71875 9.328125 16.59375 8.109375 
Q 21.484375 6.890625 26.8125 6.890625 
Q 36.078125 6.890625 40.9375 10.546875 
Q 45.796875 14.203125 45.796875 21.1875 
Q 45.796875 27.640625 41.28125 31.265625 
Q 36.765625 34.90625 28.71875 34.90625 
L 20.21875 34.90625 
L 20.21875 43.015625 
L 29.109375 43.015625 
Q 36.375 43.015625 40.234375 45.921875 
Q 44.09375 48.828125 44.09375 54.296875 
Q 44.09375 59.90625 40.109375 62.90625 
Q 36.140625 65.921875 28.71875 65.921875 
Q 24.65625 65.921875 20.015625 65.03125 
Q 15.375 64.15625 9.8125 62.3125 
L 9.8125 71.09375 
Q 15.4375 72.65625 20.34375 73.4375 
Q 25.25 74.21875 29.59375 74.21875 
Q 40.828125 74.21875 47.359375 69.109375 
Q 53.90625 64.015625 53.90625 55.328125 
Q 53.90625 49.265625 50.4375 45.09375 
Q 46.96875 40.921875 40.578125 39.3125 
z
" id="DejaVuSans-51"/>
       </defs>
       <use xlink:href="#DejaVuSans-51"/>
       <use x="63.623047" xlink:href="#DejaVuSans-52"/>
       <use x="127.246094" xlink:href="#DejaVuSans-109"/>
      </g>
     </g>
    </g>
    <g id="xtick_4">
     <g id="line2d_4">
      <g>
       <use style="stroke:#000000;stroke-width:0.8;" x="262.87835" xlink:href="#m99aea143a4" y="288.430125"/>
      </g>
     </g>
     <g id="text_4">
      <!-- 51m -->
      <g transform="translate(251.645538 303.028562)scale(0.1 -0.1)">
       <defs>
        <path d="M 10.796875 72.90625 
L 49.515625 72.90625 
L 49.515625 64.59375 
L 19.828125 64.59375 
L 19.828125 46.734375 
Q 21.96875 47.46875 24.109375 47.828125 
Q 26.265625 48.1875 28.421875 48.1875 
Q 40.625 48.1875 47.75 41.5 
Q 54.890625 34.8125 54.890625 23.390625 
Q 54.890625 11.625 47.5625 5.09375 
Q 40.234375 -1.421875 26.90625 -1.421875 
Q 22.3125 -1.421875 17.546875 -0.640625 
Q 12.796875 0.140625 7.71875 1.703125 
L 7.71875 11.625 
Q 12.109375 9.234375 16.796875 8.0625 
Q 21.484375 6.890625 26.703125 6.890625 
Q 35.15625 6.890625 40.078125 11.328125 
Q 45.015625 15.765625 45.015625 23.390625 
Q 45.015625 31 40.078125 35.4375 
Q 35.15625 39.890625 26.703125 39.890625 
Q 22.75 39.890625 18.8125 39.015625 
Q 14.890625 38.140625 10.796875 36.28125 
z
" id="DejaVuSans-53"/>
       </defs>
       <use xlink:href="#DejaVuSans-53"/>
       <use x="63.623047" xlink:href="#DejaVuSans-49"/>
       <use x="127.246094" xlink:href="#DejaVuSans-109"/>
      </g>
     </g>
    </g>
    <g id="xtick_5">
     <g id="line2d_5">
      <g>
       <use style="stroke:#000000;stroke-width:0.8;" x="321.906607" xlink:href="#m99aea143a4" y="288.430125"/>
      </g>
     </g>
     <g id="text_5">
      <!-- 1h:17m -->
      <g transform="translate(302.639419 303.028562)scale(0.1 -0.1)">
       <defs>
        <path d="M 54.890625 33.015625 
L 54.890625 0 
L 45.90625 0 
L 45.90625 32.71875 
Q 45.90625 40.484375 42.875 44.328125 
Q 39.84375 48.1875 33.796875 48.1875 
Q 26.515625 48.1875 22.3125 43.546875 
Q 18.109375 38.921875 18.109375 30.90625 
L 18.109375 0 
L 9.078125 0 
L 9.078125 75.984375 
L 18.109375 75.984375 
L 18.109375 46.1875 
Q 21.34375 51.125 25.703125 53.5625 
Q 30.078125 56 35.796875 56 
Q 45.21875 56 50.046875 50.171875 
Q 54.890625 44.34375 54.890625 33.015625 
z
" id="DejaVuSans-104"/>
        <path d="M 11.71875 12.40625 
L 22.015625 12.40625 
L 22.015625 0 
L 11.71875 0 
z
M 11.71875 51.703125 
L 22.015625 51.703125 
L 22.015625 39.3125 
L 11.71875 39.3125 
z
" id="DejaVuSans-58"/>
        <path d="M 8.203125 72.90625 
L 55.078125 72.90625 
L 55.078125 68.703125 
L 28.609375 0 
L 18.3125 0 
L 43.21875 64.59375 
L 8.203125 64.59375 
z
" id="DejaVuSans-55"/>
       </defs>
       <use xlink:href="#DejaVuSans-49"/>
       <use x="63.623047" xlink:href="#DejaVuSans-104"/>
       <use x="127.001953" xlink:href="#DejaVuSans-58"/>
       <use x="160.693359" xlink:href="#DejaVuSans-49"/>
       <use x="224.316406" xlink:href="#DejaVuSans-55"/>
       <use x="287.939453" xlink:href="#DejaVuSans-109"/>
      </g>
     </g>
    </g>
    <g id="xtick_6">
     <g id="line2d_6">
      <g>
       <use style="stroke:#000000;stroke-width:0.8;" x="380.934864" xlink:href="#m99aea143a4" y="288.430125"/>
      </g>
     </g>
     <g id="text_6">
      <!-- 1h:57m -->
      <g transform="translate(361.667676 303.028562)scale(0.1 -0.1)">
       <use xlink:href="#DejaVuSans-49"/>
       <use x="63.623047" xlink:href="#DejaVuSans-104"/>
       <use x="127.001953" xlink:href="#DejaVuSans-58"/>
       <use x="160.693359" xlink:href="#DejaVuSans-53"/>
       <use x="224.316406" xlink:href="#DejaVuSans-55"/>
       <use x="287.939453" xlink:href="#DejaVuSans-109"/>
      </g>
     </g>
    </g>
    <g id="xtick_7">
     <g id="line2d_7">
      <g>
       <use style="stroke:#000000;stroke-width:0.8;" x="439.963121" xlink:href="#m99aea143a4" y="288.430125"/>
      </g>
     </g>
     <g id="text_7">
      <!-- 2h:56m -->
      <g transform="translate(420.695933 303.028562)scale(0.1 -0.1)">
       <defs>
        <path d="M 33.015625 40.375 
Q 26.375 40.375 22.484375 35.828125 
Q 18.609375 31.296875 18.609375 23.390625 
Q 18.609375 15.53125 22.484375 10.953125 
Q 26.375 6.390625 33.015625 6.390625 
Q 39.65625 6.390625 43.53125 10.953125 
Q 47.40625 15.53125 47.40625 23.390625 
Q 47.40625 31.296875 43.53125 35.828125 
Q 39.65625 40.375 33.015625 40.375 
z
M 52.59375 71.296875 
L 52.59375 62.3125 
Q 48.875 64.0625 45.09375 64.984375 
Q 41.3125 65.921875 37.59375 65.921875 
Q 27.828125 65.921875 22.671875 59.328125 
Q 17.53125 52.734375 16.796875 39.40625 
Q 19.671875 43.65625 24.015625 45.921875 
Q 28.375 48.1875 33.59375 48.1875 
Q 44.578125 48.1875 50.953125 41.515625 
Q 57.328125 34.859375 57.328125 23.390625 
Q 57.328125 12.15625 50.6875 5.359375 
Q 44.046875 -1.421875 33.015625 -1.421875 
Q 20.359375 -1.421875 13.671875 8.265625 
Q 6.984375 17.96875 6.984375 36.375 
Q 6.984375 53.65625 15.1875 63.9375 
Q 23.390625 74.21875 37.203125 74.21875 
Q 40.921875 74.21875 44.703125 73.484375 
Q 48.484375 72.75 52.59375 71.296875 
z
" id="DejaVuSans-54"/>
       </defs>
       <use xlink:href="#DejaVuSans-50"/>
       <use x="63.623047" xlink:href="#DejaVuSans-104"/>
       <use x="127.001953" xlink:href="#DejaVuSans-58"/>
       <use x="160.693359" xlink:href="#DejaVuSans-53"/>
       <use x="224.316406" xlink:href="#DejaVuSans-54"/>
       <use x="287.939453" xlink:href="#DejaVuSans-109"/>
      </g>
     </g>
    </g>
    <g id="xtick_8">
     <g id="line2d_8">
      <g>
       <use style="stroke:#000000;stroke-width:0.8;" x="498.991377" xlink:href="#m99aea143a4" y="288.430125"/>
      </g>
     </g>
     <g id="text_8">
      <!-- 4h:26m -->
      <g transform="translate(479.72419 303.028562)scale(0.1 -0.1)">
       <use xlink:href="#DejaVuSans-52"/>
       <use x="63.623047" xlink:href="#DejaVuSans-104"/>
       <use x="127.001953" xlink:href="#DejaVuSans-58"/>
       <use x="160.693359" xlink:href="#DejaVuSans-50"/>
       <use x="224.316406" xlink:href="#DejaVuSans-54"/>
       <use x="287.939453" xlink:href="#DejaVuSans-109"/>
      </g>
     </g>
    </g>
    <g id="xtick_9">
     <g id="line2d_9">
      <g>
       <use style="stroke:#000000;stroke-width:0.8;" x="558.019634" xlink:href="#m99aea143a4" y="288.430125"/>
      </g>
     </g>
     <g id="text_9">
      <!-- 6h:42m -->
      <g transform="translate(538.752447 303.028562)scale(0.1 -0.1)">
       <use xlink:href="#DejaVuSans-54"/>
       <use x="63.623047" xlink:href="#DejaVuSans-104"/>
       <use x="127.001953" xlink:href="#DejaVuSans-58"/>
       <use x="160.693359" xlink:href="#DejaVuSans-52"/>
       <use x="224.316406" xlink:href="#DejaVuSans-50"/>
       <use x="287.939453" xlink:href="#DejaVuSans-109"/>
      </g>
     </g>
    </g>
    <g id="xtick_10">
     <g id="line2d_10">
      <g>
       <use style="stroke:#000000;stroke-width:0.8;" x="617.047891" xlink:href="#m99aea143a4" y="288.430125"/>
      </g>
     </g>
     <g id="text_10">
      <!-- 10h:6m -->
      <g transform="translate(597.780704 303.028562)scale(0.1 -0.1)">
       <defs>
        <path d="M 31.78125 66.40625 
Q 24.171875 66.40625 20.328125 58.90625 
Q 16.5 51.421875 16.5 36.375 
Q 16.5 21.390625 20.328125 13.890625 
Q 24.171875 6.390625 31.78125 6.390625 
Q 39.453125 6.390625 43.28125 13.890625 
Q 47.125 21.390625 47.125 36.375 
Q 47.125 51.421875 43.28125 58.90625 
Q 39.453125 66.40625 31.78125 66.40625 
z
M 31.78125 74.21875 
Q 44.046875 74.21875 50.515625 64.515625 
Q 56.984375 54.828125 56.984375 36.375 
Q 56.984375 17.96875 50.515625 8.265625 
Q 44.046875 -1.421875 31.78125 -1.421875 
Q 19.53125 -1.421875 13.0625 8.265625 
Q 6.59375 17.96875 6.59375 36.375 
Q 6.59375 54.828125 13.0625 64.515625 
Q 19.53125 74.21875 31.78125 74.21875 
z
" id="DejaVuSans-48"/>
       </defs>
       <use xlink:href="#DejaVuSans-49"/>
       <use x="63.623047" xlink:href="#DejaVuSans-48"/>
       <use x="127.246094" xlink:href="#DejaVuSans-104"/>
       <use x="190.625" xlink:href="#DejaVuSans-58"/>
       <use x="224.316406" xlink:href="#DejaVuSans-54"/>
       <use x="287.939453" xlink:href="#DejaVuSans-109"/>
      </g>
     </g>
    </g>
    <g id="xtick_11">
     <g id="line2d_11">
      <g>
       <use style="stroke:#000000;stroke-width:0.8;" x="676.076148" xlink:href="#m99aea143a4" y="288.430125"/>
      </g>
     </g>
     <g id="text_11">
      <!-- 15h:14m -->
      <g transform="translate(653.62771 303.028562)scale(0.1 -0.1)">
       <use xlink:href="#DejaVuSans-49"/>
       <use x="63.623047" xlink:href="#DejaVuSans-53"/>
       <use x="127.246094" xlink:href="#DejaVuSans-104"/>
       <use x="190.625" xlink:href="#DejaVuSans-58"/>
       <use x="224.316406" xlink:href="#DejaVuSans-49"/>
       <use x="287.939453" xlink:href="#DejaVuSans-52"/>
       <use x="351.5625" xlink:href="#DejaVuSans-109"/>
      </g>
     </g>
    </g>
    <g id="xtick_12">
     <g id="line2d_12">
      <g>
       <use style="stroke:#000000;stroke-width:0.8;" x="735.104405" xlink:href="#m99aea143a4" y="288.430125"/>
      </g>
     </g>
     <g id="text_12">
      <!-- 23h -->
      <g transform="translate(725.573155 303.028562)scale(0.1 -0.1)">
       <use xlink:href="#DejaVuSans-50"/>
       <use x="63.623047" xlink:href="#DejaVuSans-51"/>
       <use x="127.246094" xlink:href="#DejaVuSans-104"/>
      </g>
     </g>
    </g>
    <g id="xtick_13">
     <g id="line2d_13">
      <defs>
       <path d="M 0 0 
L 0 2 
" id="m4ac1188269" style="stroke:#000000;stroke-width:0.6;"/>
      </defs>
      <g>
       <use style="stroke:#000000;stroke-width:0.6;" x="68.88045" xlink:href="#m4ac1188269" y="288.430125"/>
      </g>
     </g>
    </g>
    <g id="xtick_14">
     <g id="line2d_14">
      <g>
       <use style="stroke:#000000;stroke-width:0.6;" x="200.455797" xlink:href="#m4ac1188269" y="288.430125"/>
      </g>
     </g>
    </g>
    <g id="xtick_15">
     <g id="line2d_15">
      <g>
       <use style="stroke:#000000;stroke-width:0.6;" x="258.678816" xlink:href="#m4ac1188269" y="288.430125"/>
      </g>
     </g>
    </g>
    <g id="xtick_16">
     <g id="line2d_16">
      <g>
       <use style="stroke:#000000;stroke-width:0.6;" x="299.988705" xlink:href="#m4ac1188269" y="288.430125"/>
      </g>
     </g>
    </g>
    <g id="xtick_17">
     <g id="line2d_17">
      <g>
       <use style="stroke:#000000;stroke-width:0.6;" x="332.031144" xlink:href="#m4ac1188269" y="288.430125"/>
      </g>
     </g>
    </g>
    <g id="xtick_18">
     <g id="line2d_18">
      <g>
       <use style="stroke:#000000;stroke-width:0.6;" x="358.211724" xlink:href="#m4ac1188269" y="288.430125"/>
      </g>
     </g>
    </g>
    <g id="xtick_19">
     <g id="line2d_19">
      <g>
       <use style="stroke:#000000;stroke-width:0.6;" x="380.347088" xlink:href="#m4ac1188269" y="288.430125"/>
      </g>
     </g>
    </g>
    <g id="xtick_20">
     <g id="line2d_20">
      <g>
       <use style="stroke:#000000;stroke-width:0.6;" x="399.521613" xlink:href="#m4ac1188269" y="288.430125"/>
      </g>
     </g>
    </g>
    <g id="xtick_21">
     <g id="line2d_21">
      <g>
       <use style="stroke:#000000;stroke-width:0.6;" x="416.434742" xlink:href="#m4ac1188269" y="288.430125"/>
      </g>
     </g>
    </g>
    <g id="xtick_22">
     <g id="line2d_22">
      <g>
       <use style="stroke:#000000;stroke-width:0.6;" x="531.09696" xlink:href="#m4ac1188269" y="288.430125"/>
      </g>
     </g>
    </g>
    <g id="xtick_23">
     <g id="line2d_23">
      <g>
       <use style="stroke:#000000;stroke-width:0.6;" x="589.319979" xlink:href="#m4ac1188269" y="288.430125"/>
      </g>
     </g>
    </g>
    <g id="xtick_24">
     <g id="line2d_24">
      <g>
       <use style="stroke:#000000;stroke-width:0.6;" x="630.629868" xlink:href="#m4ac1188269" y="288.430125"/>
      </g>
     </g>
    </g>
    <g id="xtick_25">
     <g id="line2d_25">
      <g>
       <use style="stroke:#000000;stroke-width:0.6;" x="662.672307" xlink:href="#m4ac1188269" y="288.430125"/>
      </g>
     </g>
    </g>
    <g id="xtick_26">
     <g id="line2d_26">
      <g>
       <use style="stroke:#000000;stroke-width:0.6;" x="688.852887" xlink:href="#m4ac1188269" y="288.430125"/>
      </g>
     </g>
    </g>
    <g id="xtick_27">
     <g id="line2d_27">
      <g>
       <use style="stroke:#000000;stroke-width:0.6;" x="710.988251" xlink:href="#m4ac1188269" y="288.430125"/>
      </g>
     </g>
    </g>
    <g id="xtick_28">
     <g id="line2d_28">
      <g>
       <use style="stroke:#000000;stroke-width:0.6;" x="730.162776" xlink:href="#m4ac1188269" y="288.430125"/>
      </g>
     </g>
    </g>
    <g id="xtick_29">
     <g id="line2d_29">
      <g>
       <use style="stroke:#000000;stroke-width:0.6;" x="747.075905" xlink:href="#m4ac1188269" y="288.430125"/>
      </g>
     </g>
    </g>
    <g id="text_13">
     <!-- Time (hour:minute) -->
     <g transform="translate(362.041094 316.706687)scale(0.1 -0.1)">
      <defs>
       <path d="M -0.296875 72.90625 
L 61.375 72.90625 
L 61.375 64.59375 
L 35.5 64.59375 
L 35.5 0 
L 25.59375 0 
L 25.59375 64.59375 
L -0.296875 64.59375 
z
" id="DejaVuSans-84"/>
       <path d="M 9.421875 54.6875 
L 18.40625 54.6875 
L 18.40625 0 
L 9.421875 0 
z
M 9.421875 75.984375 
L 18.40625 75.984375 
L 18.40625 64.59375 
L 9.421875 64.59375 
z
" id="DejaVuSans-105"/>
       <path d="M 56.203125 29.59375 
L 56.203125 25.203125 
L 14.890625 25.203125 
Q 15.484375 15.921875 20.484375 11.0625 
Q 25.484375 6.203125 34.421875 6.203125 
Q 39.59375 6.203125 44.453125 7.46875 
Q 49.3125 8.734375 54.109375 11.28125 
L 54.109375 2.78125 
Q 49.265625 0.734375 44.1875 -0.34375 
Q 39.109375 -1.421875 33.890625 -1.421875 
Q 20.796875 -1.421875 13.15625 6.1875 
Q 5.515625 13.8125 5.515625 26.8125 
Q 5.515625 40.234375 12.765625 48.109375 
Q 20.015625 56 32.328125 56 
Q 43.359375 56 49.78125 48.890625 
Q 56.203125 41.796875 56.203125 29.59375 
z
M 47.21875 32.234375 
Q 47.125 39.59375 43.09375 43.984375 
Q 39.0625 48.390625 32.421875 48.390625 
Q 24.90625 48.390625 20.390625 44.140625 
Q 15.875 39.890625 15.1875 32.171875 
z
" id="DejaVuSans-101"/>
       <path id="DejaVuSans-32"/>
       <path d="M 31 75.875 
Q 24.46875 64.65625 21.28125 53.65625 
Q 18.109375 42.671875 18.109375 31.390625 
Q 18.109375 20.125 21.3125 9.0625 
Q 24.515625 -2 31 -13.1875 
L 23.1875 -13.1875 
Q 15.875 -1.703125 12.234375 9.375 
Q 8.59375 20.453125 8.59375 31.390625 
Q 8.59375 42.28125 12.203125 53.3125 
Q 15.828125 64.359375 23.1875 75.875 
z
" id="DejaVuSans-40"/>
       <path d="M 30.609375 48.390625 
Q 23.390625 48.390625 19.1875 42.75 
Q 14.984375 37.109375 14.984375 27.296875 
Q 14.984375 17.484375 19.15625 11.84375 
Q 23.34375 6.203125 30.609375 6.203125 
Q 37.796875 6.203125 41.984375 11.859375 
Q 46.1875 17.53125 46.1875 27.296875 
Q 46.1875 37.015625 41.984375 42.703125 
Q 37.796875 48.390625 30.609375 48.390625 
z
M 30.609375 56 
Q 42.328125 56 49.015625 48.375 
Q 55.71875 40.765625 55.71875 27.296875 
Q 55.71875 13.875 49.015625 6.21875 
Q 42.328125 -1.421875 30.609375 -1.421875 
Q 18.84375 -1.421875 12.171875 6.21875 
Q 5.515625 13.875 5.515625 27.296875 
Q 5.515625 40.765625 12.171875 48.375 
Q 18.84375 56 30.609375 56 
z
" id="DejaVuSans-111"/>
       <path d="M 8.5 21.578125 
L 8.5 54.6875 
L 17.484375 54.6875 
L 17.484375 21.921875 
Q 17.484375 14.15625 20.5 10.265625 
Q 23.53125 6.390625 29.59375 6.390625 
Q 36.859375 6.390625 41.078125 11.03125 
Q 45.3125 15.671875 45.3125 23.6875 
L 45.3125 54.6875 
L 54.296875 54.6875 
L 54.296875 0 
L 45.3125 0 
L 45.3125 8.40625 
Q 42.046875 3.421875 37.71875 1 
Q 33.40625 -1.421875 27.6875 -1.421875 
Q 18.265625 -1.421875 13.375 4.4375 
Q 8.5 10.296875 8.5 21.578125 
z
M 31.109375 56 
z
" id="DejaVuSans-117"/>
       <path d="M 41.109375 46.296875 
Q 39.59375 47.171875 37.8125 47.578125 
Q 36.03125 48 33.890625 48 
Q 26.265625 48 22.1875 43.046875 
Q 18.109375 38.09375 18.109375 28.8125 
L 18.109375 0 
L 9.078125 0 
L 9.078125 54.6875 
L 18.109375 54.6875 
L 18.109375 46.1875 
Q 20.953125 51.171875 25.484375 53.578125 
Q 30.03125 56 36.53125 56 
Q 37.453125 56 38.578125 55.875 
Q 39.703125 55.765625 41.0625 55.515625 
z
" id="DejaVuSans-114"/>
       <path d="M 54.890625 33.015625 
L 54.890625 0 
L 45.90625 0 
L 45.90625 32.71875 
Q 45.90625 40.484375 42.875 44.328125 
Q 39.84375 48.1875 33.796875 48.1875 
Q 26.515625 48.1875 22.3125 43.546875 
Q 18.109375 38.921875 18.109375 30.90625 
L 18.109375 0 
L 9.078125 0 
L 9.078125 54.6875 
L 18.109375 54.6875 
L 18.109375 46.1875 
Q 21.34375 51.125 25.703125 53.5625 
Q 30.078125 56 35.796875 56 
Q 45.21875 56 50.046875 50.171875 
Q 54.890625 44.34375 54.890625 33.015625 
z
" id="DejaVuSans-110"/>
       <path d="M 18.3125 70.21875 
L 18.3125 54.6875 
L 36.8125 54.6875 
L 36.8125 47.703125 
L 18.3125 47.703125 
L 18.3125 18.015625 
Q 18.3125 11.328125 20.140625 9.421875 
Q 21.96875 7.515625 27.59375 7.515625 
L 36.8125 7.515625 
L 36.8125 0 
L 27.59375 0 
Q 17.1875 0 13.234375 3.875 
Q 9.28125 7.765625 9.28125 18.015625 
L 9.28125 47.703125 
L 2.6875 47.703125 
L 2.6875 54.6875 
L 9.28125 54.6875 
L 9.28125 70.21875 
z
" id="DejaVuSans-116"/>
       <path d="M 8.015625 75.875 
L 15.828125 75.875 
Q 23.140625 64.359375 26.78125 53.3125 
Q 30.421875 42.28125 30.421875 31.390625 
Q 30.421875 20.453125 26.78125 9.375 
Q 23.140625 -1.703125 15.828125 -13.1875 
L 8.015625 -13.1875 
Q 14.5 -2 17.703125 9.0625 
Q 20.90625 20.125 20.90625 31.390625 
Q 20.90625 42.671875 17.703125 53.65625 
Q 14.5 64.65625 8.015625 75.875 
z
" id="DejaVuSans-41"/>
      </defs>
      <use xlink:href="#DejaVuSans-84"/>
      <use x="57.958984" xlink:href="#DejaVuSans-105"/>
      <use x="85.742188" xlink:href="#DejaVuSans-109"/>
      <use x="183.154297" xlink:href="#DejaVuSans-101"/>
      <use x="244.677734" xlink:href="#DejaVuSans-32"/>
      <use x="276.464844" xlink:href="#DejaVuSans-40"/>
      <use x="315.478516" xlink:href="#DejaVuSans-104"/>
      <use x="378.857422" xlink:href="#DejaVuSans-111"/>
      <use x="440.039062" xlink:href="#DejaVuSans-117"/>
      <use x="503.417969" xlink:href="#DejaVuSans-114"/>
      <use x="542.78125" xlink:href="#DejaVuSans-58"/>
      <use x="576.472656" xlink:href="#DejaVuSans-109"/>
      <use x="673.884766" xlink:href="#DejaVuSans-105"/>
      <use x="701.667969" xlink:href="#DejaVuSans-110"/>
      <use x="765.046875" xlink:href="#DejaVuSans-117"/>
      <use x="828.425781" xlink:href="#DejaVuSans-116"/>
      <use x="867.634766" xlink:href="#DejaVuSans-101"/>
      <use x="929.158203" xlink:href="#DejaVuSans-41"/>
     </g>
    </g>
   </g>
   <g id="matplotlib.axis_2">
    <g id="ytick_1">
     <g id="line2d_30">
      <defs>
       <path d="M 0 0 
L -3.5 0 
" id="mfc6a08df3f" style="stroke:#000000;stroke-width:0.8;"/>
      </defs>
      <g>
       <use style="stroke:#000000;stroke-width:0.8;" x="53.328125" xlink:href="#mfc6a08df3f" y="253.599291"/>
      </g>
     </g>
     <g id="text_14">
      <!-- 3100 -->
      <g transform="translate(20.878125 257.398509)scale(0.1 -0.1)">
       <use xlink:href="#DejaVuSans-51"/>
       <use x="63.623047" xlink:href="#DejaVuSans-49"/>
       <use x="127.246094" xlink:href="#DejaVuSans-48"/>
       <use x="190.869141" xlink:href="#DejaVuSans-48"/>
      </g>
     </g>
    </g>
    <g id="ytick_2">
     <g id="line2d_31">
      <g>
       <use style="stroke:#000000;stroke-width:0.8;" x="53.328125" xlink:href="#mfc6a08df3f" y="202.738363"/>
      </g>
     </g>
     <g id="text_15">
      <!-- 3200 -->
      <g transform="translate(20.878125 206.537582)scale(0.1 -0.1)">
       <use xlink:href="#DejaVuSans-51"/>
       <use x="63.623047" xlink:href="#DejaVuSans-50"/>
       <use x="127.246094" xlink:href="#DejaVuSans-48"/>
       <use x="190.869141" xlink:href="#DejaVuSans-48"/>
      </g>
     </g>
    </g>
    <g id="ytick_3">
     <g id="line2d_32">
      <g>
       <use style="stroke:#000000;stroke-width:0.8;" x="53.328125" xlink:href="#mfc6a08df3f" y="151.877436"/>
      </g>
     </g>
     <g id="text_16">
      <!-- 3300 -->
      <g transform="translate(20.878125 155.676655)scale(0.1 -0.1)">
       <use xlink:href="#DejaVuSans-51"/>
       <use x="63.623047" xlink:href="#DejaVuSans-51"/>
       <use x="127.246094" xlink:href="#DejaVuSans-48"/>
       <use x="190.869141" xlink:href="#DejaVuSans-48"/>
      </g>
     </g>
    </g>
    <g id="ytick_4">
     <g id="line2d_33">
      <g>
       <use style="stroke:#000000;stroke-width:0.8;" x="53.328125" xlink:href="#mfc6a08df3f" y="101.016509"/>
      </g>
     </g>
     <g id="text_17">
      <!-- 3400 -->
      <g transform="translate(20.878125 104.815728)scale(0.1 -0.1)">
       <use xlink:href="#DejaVuSans-51"/>
       <use x="63.623047" xlink:href="#DejaVuSans-52"/>
       <use x="127.246094" xlink:href="#DejaVuSans-48"/>
       <use x="190.869141" xlink:href="#DejaVuSans-48"/>
      </g>
     </g>
    </g>
    <g id="ytick_5">
     <g id="line2d_34">
      <g>
       <use style="stroke:#000000;stroke-width:0.8;" x="53.328125" xlink:href="#mfc6a08df3f" y="50.155582"/>
      </g>
     </g>
     <g id="text_18">
      <!-- 3500 -->
      <g transform="translate(20.878125 53.954801)scale(0.1 -0.1)">
       <use xlink:href="#DejaVuSans-51"/>
       <use x="63.623047" xlink:href="#DejaVuSans-53"/>
       <use x="127.246094" xlink:href="#DejaVuSans-48"/>
       <use x="190.869141" xlink:href="#DejaVuSans-48"/>
      </g>
     </g>
    </g>
    <g id="text_19">
     <!-- Edge coverage -->
     <g transform="translate(14.798438 192.762406)rotate(-90)scale(0.1 -0.1)">
      <defs>
       <path d="M 9.8125 72.90625 
L 55.90625 72.90625 
L 55.90625 64.59375 
L 19.671875 64.59375 
L 19.671875 43.015625 
L 54.390625 43.015625 
L 54.390625 34.71875 
L 19.671875 34.71875 
L 19.671875 8.296875 
L 56.78125 8.296875 
L 56.78125 0 
L 9.8125 0 
z
" id="DejaVuSans-69"/>
       <path d="M 45.40625 46.390625 
L 45.40625 75.984375 
L 54.390625 75.984375 
L 54.390625 0 
L 45.40625 0 
L 45.40625 8.203125 
Q 42.578125 3.328125 38.25 0.953125 
Q 33.9375 -1.421875 27.875 -1.421875 
Q 17.96875 -1.421875 11.734375 6.484375 
Q 5.515625 14.40625 5.515625 27.296875 
Q 5.515625 40.1875 11.734375 48.09375 
Q 17.96875 56 27.875 56 
Q 33.9375 56 38.25 53.625 
Q 42.578125 51.265625 45.40625 46.390625 
z
M 14.796875 27.296875 
Q 14.796875 17.390625 18.875 11.75 
Q 22.953125 6.109375 30.078125 6.109375 
Q 37.203125 6.109375 41.296875 11.75 
Q 45.40625 17.390625 45.40625 27.296875 
Q 45.40625 37.203125 41.296875 42.84375 
Q 37.203125 48.484375 30.078125 48.484375 
Q 22.953125 48.484375 18.875 42.84375 
Q 14.796875 37.203125 14.796875 27.296875 
z
" id="DejaVuSans-100"/>
       <path d="M 45.40625 27.984375 
Q 45.40625 37.75 41.375 43.109375 
Q 37.359375 48.484375 30.078125 48.484375 
Q 22.859375 48.484375 18.828125 43.109375 
Q 14.796875 37.75 14.796875 27.984375 
Q 14.796875 18.265625 18.828125 12.890625 
Q 22.859375 7.515625 30.078125 7.515625 
Q 37.359375 7.515625 41.375 12.890625 
Q 45.40625 18.265625 45.40625 27.984375 
z
M 54.390625 6.78125 
Q 54.390625 -7.171875 48.1875 -13.984375 
Q 42 -20.796875 29.203125 -20.796875 
Q 24.46875 -20.796875 20.265625 -20.09375 
Q 16.0625 -19.390625 12.109375 -17.921875 
L 12.109375 -9.1875 
Q 16.0625 -11.328125 19.921875 -12.34375 
Q 23.78125 -13.375 27.78125 -13.375 
Q 36.625 -13.375 41.015625 -8.765625 
Q 45.40625 -4.15625 45.40625 5.171875 
L 45.40625 9.625 
Q 42.625 4.78125 38.28125 2.390625 
Q 33.9375 0 27.875 0 
Q 17.828125 0 11.671875 7.65625 
Q 5.515625 15.328125 5.515625 27.984375 
Q 5.515625 40.671875 11.671875 48.328125 
Q 17.828125 56 27.875 56 
Q 33.9375 56 38.28125 53.609375 
Q 42.625 51.21875 45.40625 46.390625 
L 45.40625 54.6875 
L 54.390625 54.6875 
z
" id="DejaVuSans-103"/>
       <path d="M 48.78125 52.59375 
L 48.78125 44.1875 
Q 44.96875 46.296875 41.140625 47.34375 
Q 37.3125 48.390625 33.40625 48.390625 
Q 24.65625 48.390625 19.8125 42.84375 
Q 14.984375 37.3125 14.984375 27.296875 
Q 14.984375 17.28125 19.8125 11.734375 
Q 24.65625 6.203125 33.40625 6.203125 
Q 37.3125 6.203125 41.140625 7.25 
Q 44.96875 8.296875 48.78125 10.40625 
L 48.78125 2.09375 
Q 45.015625 0.34375 40.984375 -0.53125 
Q 36.96875 -1.421875 32.421875 -1.421875 
Q 20.0625 -1.421875 12.78125 6.34375 
Q 5.515625 14.109375 5.515625 27.296875 
Q 5.515625 40.671875 12.859375 48.328125 
Q 20.21875 56 33.015625 56 
Q 37.15625 56 41.109375 55.140625 
Q 45.0625 54.296875 48.78125 52.59375 
z
" id="DejaVuSans-99"/>
       <path d="M 2.984375 54.6875 
L 12.5 54.6875 
L 29.59375 8.796875 
L 46.6875 54.6875 
L 56.203125 54.6875 
L 35.6875 0 
L 23.484375 0 
z
" id="DejaVuSans-118"/>
       <path d="M 34.28125 27.484375 
Q 23.390625 27.484375 19.1875 25 
Q 14.984375 22.515625 14.984375 16.5 
Q 14.984375 11.71875 18.140625 8.90625 
Q 21.296875 6.109375 26.703125 6.109375 
Q 34.1875 6.109375 38.703125 11.40625 
Q 43.21875 16.703125 43.21875 25.484375 
L 43.21875 27.484375 
z
M 52.203125 31.203125 
L 52.203125 0 
L 43.21875 0 
L 43.21875 8.296875 
Q 40.140625 3.328125 35.546875 0.953125 
Q 30.953125 -1.421875 24.3125 -1.421875 
Q 15.921875 -1.421875 10.953125 3.296875 
Q 6 8.015625 6 15.921875 
Q 6 25.140625 12.171875 29.828125 
Q 18.359375 34.515625 30.609375 34.515625 
L 43.21875 34.515625 
L 43.21875 35.40625 
Q 43.21875 41.609375 39.140625 45 
Q 35.0625 48.390625 27.6875 48.390625 
Q 23 48.390625 18.546875 47.265625 
Q 14.109375 46.140625 10.015625 43.890625 
L 10.015625 52.203125 
Q 14.9375 54.109375 19.578125 55.046875 
Q 24.21875 56 28.609375 56 
Q 40.484375 56 46.34375 49.84375 
Q 52.203125 43.703125 52.203125 31.203125 
z
" id="DejaVuSans-97"/>
      </defs>
      <use xlink:href="#DejaVuSans-69"/>
      <use x="63.183594" xlink:href="#DejaVuSans-100"/>
      <use x="126.660156" xlink:href="#DejaVuSans-103"/>
      <use x="190.136719" xlink:href="#DejaVuSans-101"/>
      <use x="251.660156" xlink:href="#DejaVuSans-32"/>
      <use x="283.447266" xlink:href="#DejaVuSans-99"/>
      <use x="338.427734" xlink:href="#DejaVuSans-111"/>
      <use x="399.609375" xlink:href="#DejaVuSans-118"/>
      <use x="458.789062" xlink:href="#DejaVuSans-101"/>
      <use x="520.3125" xlink:href="#DejaVuSans-114"/>
      <use x="561.425781" xlink:href="#DejaVuSans-97"/>
      <use x="622.705078" xlink:href="#DejaVuSans-103"/>
      <use x="686.181641" xlink:href="#DejaVuSans-101"/>
     </g>
    </g>
   </g>
   <g id="line2d_35">
    <path clip-path="url(#p03bea4388b)" d="M 85.79358 82.732006 
L 185.326487 74.467105 
L 243.549506 65.159555 
L 284.859395 61.03982 
L 316.901835 58.80194 
L 343.082414 58.013595 
L 365.217778 57.428695 
L 384.392303 57.19982 
L 401.305433 54.98737 
L 416.434742 54.224456 
L 430.120868 53.35982 
L 442.615322 52.24088 
L 454.109105 50.994787 
L 464.750686 50.638761 
L 474.657761 49.418099 
L 483.925211 49.189224 
L 492.630642 48.146575 
L 500.83834 47.815979 
L 508.602157 47.612536 
L 515.96765 47.409092 
L 522.973705 47.3328 
L 529.653776 47.027635 
L 536.036855 46.722469 
L 542.14823 46.671608 
L 548.01009 46.620748 
L 553.642013 46.417304 
L 559.061359 45.374655 
L 564.283594 45.145781 
L 569.322554 44.967767 
L 574.190669 44.052271 
L 578.899144 42.958761 
L 583.458119 42.017834 
L 587.876794 41.966973 
L 592.16355 41.916112 
L 596.326033 40.822602 
L 600.371248 40.822602 
L 604.305621 40.797171 
L 608.135065 39.805383 
L 611.865031 39.805383 
L 615.500558 39.729092 
L 619.046309 39.62737 
L 622.506613 39.525648 
L 625.885489 39.449357 
L 629.186684 39.423926 
L 632.413688 38.406708 
L 635.569763 38.406708 
L 638.65796 38.406708 
L 641.681137 38.406708 
L 644.641977 38.304986 
L 647.542997 37.287767 
L 650.386568 37.287767 
L 653.174921 37.236906 
L 655.910158 37.211476 
L 658.594267 37.211476 
L 661.229123 37.211476 
L 663.816502 37.211476 
L 666.358084 37.211476 
L 668.855462 37.211476 
L 671.310148 36.32141 
L 673.723577 36.32141 
L 676.097112 36.295979 
L 678.432052 35.278761 
L 680.729631 35.278761 
L 682.991027 35.278761 
L 685.21736 35.25333 
L 687.409702 35.25333 
L 689.569076 35.2279 
L 691.696457 35.2279 
L 693.792781 35.2279 
L 695.858941 35.177039 
L 697.895793 35.177039 
L 699.904156 35.177039 
L 701.884817 35.177039 
L 703.838529 35.100748 
L 705.766016 34.770151 
L 707.667973 34.744721 
L 709.545067 34.744721 
L 711.397939 34.744721 
L 713.227208 34.719291 
L 715.033466 34.541277 
L 716.817286 34.541277 
L 718.579217 34.515847 
L 720.319792 34.515847 
L 722.03952 34.515847 
L 723.738897 34.490416 
L 725.418397 34.490416 
L 727.078481 34.490416 
L 728.719591 34.490416 
L 730.342158 34.490416 
L 731.946595 34.439555 
L 733.533304 34.414125 
L 735.10267 34.414125 
" style="fill:none;stroke:#1f77b4;stroke-linecap:square;stroke-width:1.5;"/>
   </g>
   <g id="line2d_36">
    <path clip-path="url(#p03bea4388b)" d="M 85.79358 87.258628 
L 185.326487 76.603264 
L 243.549506 72.483529 
L 284.859395 68.058628 
L 316.901835 67.04141 
L 343.082414 64.396642 
L 365.217778 63.175979 
L 384.392303 58.573065 
L 401.305433 58.064456 
L 416.434742 56.716642 
L 430.120868 54.682204 
L 442.615322 54.199026 
L 454.109105 53.080085 
L 464.750686 51.859423 
L 474.657761 51.325383 
L 483.925211 49.290946 
L 492.630642 49.163794 
L 500.83834 48.680615 
L 508.602157 47.536244 
L 515.96765 46.519026 
L 522.973705 46.519026 
L 529.653776 45.628959 
L 536.036855 44.484589 
L 542.14823 43.4928 
L 548.01009 42.551873 
L 553.642013 42.34843 
L 559.061359 42.119555 
L 564.283594 42.094125 
L 569.322554 42.068695 
L 574.190669 41.941542 
L 578.899144 41.890681 
L 583.458119 41.865251 
L 587.876794 41.81439 
L 592.16355 41.788959 
L 596.326033 41.687238 
L 600.371248 41.661807 
L 604.305621 40.619158 
L 608.135065 40.492006 
L 611.865031 40.441145 
L 615.500558 40.339423 
L 619.046309 40.288562 
L 622.506613 40.288562 
L 625.885489 40.237701 
L 629.186684 40.212271 
L 632.413688 40.059688 
L 635.569763 40.034257 
L 638.65796 40.034257 
L 641.681137 40.008827 
L 644.641977 40.008827 
L 647.542997 39.983397 
L 650.386568 39.932536 
L 653.174921 39.881675 
L 655.910158 39.881675 
L 658.594267 39.754522 
L 661.229123 39.729092 
L 663.816502 39.6528 
L 666.358084 39.6528 
L 668.855462 39.6528 
L 671.310148 39.62737 
L 673.723577 39.576509 
L 676.097112 39.576509 
L 678.432052 39.576509 
L 680.729631 38.559291 
L 682.991027 38.559291 
L 685.21736 38.559291 
L 687.409702 38.559291 
L 689.569076 38.53386 
L 691.696457 37.643794 
L 693.792781 37.643794 
L 695.858941 37.643794 
L 697.895793 37.643794 
L 699.904156 37.643794 
L 701.884817 37.643794 
L 703.838529 37.618363 
L 705.766016 37.618363 
L 707.667973 37.618363 
L 709.545067 37.592933 
L 711.397939 36.702867 
L 713.227208 36.702867 
L 715.033466 36.601145 
L 716.817286 36.601145 
L 718.579217 36.601145 
L 720.319792 36.601145 
L 722.03952 36.601145 
L 723.738897 36.601145 
L 725.418397 36.601145 
L 727.078481 36.601145 
L 728.719591 36.601145 
L 730.342158 35.711079 
L 731.946595 35.711079 
L 733.533304 35.711079 
L 735.10267 35.660218 
" style="fill:none;stroke:#c5b0d5;stroke-linecap:square;stroke-width:1.5;"/>
   </g>
   <g id="line2d_37">
    <path clip-path="url(#p03bea4388b)" d="M 85.79358 276.334125 
L 185.326487 181.503926 
L 243.549506 137.636377 
L 284.859395 114.698099 
L 316.901835 103.356112 
L 343.082414 99.261807 
L 365.217778 92.014125 
L 384.392303 89.293065 
L 401.305433 86.343132 
L 416.434742 83.52035 
L 430.120868 82.070814 
L 442.615322 80.341542 
L 454.109105 78.713993 
L 464.750686 76.959291 
L 474.657761 75.331741 
L 483.925211 73.704191 
L 492.630642 72.55982 
L 500.83834 71.568032 
L 508.602157 69.609887 
L 515.96765 68.796112 
L 522.973705 67.57545 
L 529.653776 66.761675 
L 536.036855 65.362999 
L 542.14823 64.371211 
L 548.01009 64.218628 
L 553.642013 63.532006 
L 559.061359 63.379423 
L 564.283594 63.252271 
L 569.322554 62.031608 
L 574.190669 61.828165 
L 578.899144 61.675582 
L 583.458119 61.599291 
L 587.876794 61.421277 
L 592.16355 61.065251 
L 596.326033 61.03982 
L 600.371248 59.183397 
L 604.305621 58.954522 
L 608.135065 58.013595 
L 611.865031 58.013595 
L 615.500558 57.784721 
L 619.046309 57.555847 
L 622.506613 57.479555 
L 625.885489 56.411476 
L 629.186684 56.157171 
L 632.413688 56.131741 
L 635.569763 56.05545 
L 638.65796 55.877436 
L 641.681137 55.775714 
L 644.641977 55.368827 
L 647.542997 55.317966 
L 650.386568 54.911079 
L 653.174921 53.614125 
L 655.910158 52.80035 
L 658.594267 52.77492 
L 661.229123 50.994787 
L 663.816502 50.969357 
L 666.358084 50.867635 
L 668.855462 50.740483 
L 671.310148 49.799555 
L 673.723577 49.49439 
L 676.097112 49.443529 
L 678.432052 46.646178 
L 680.729631 46.646178 
L 682.991027 46.620748 
L 685.21736 46.569887 
L 687.409702 46.519026 
L 689.569076 46.493595 
L 691.696457 46.493595 
L 693.792781 46.391873 
L 695.858941 45.705251 
L 697.895793 45.552668 
L 699.904156 44.357436 
L 701.884817 44.077701 
L 703.838529 44.077701 
L 705.766016 44.077701 
L 707.667973 44.077701 
L 709.545067 43.136774 
L 711.397939 42.221277 
L 713.227208 42.170416 
L 715.033466 42.017834 
L 716.817286 42.017834 
L 718.579217 42.017834 
L 720.319792 42.017834 
L 722.03952 41.941542 
L 723.738897 41.83982 
L 725.418397 40.797171 
L 727.078481 40.288562 
L 728.719591 40.263132 
L 730.342158 40.16141 
L 731.946595 40.110549 
L 733.533304 40.085118 
L 735.10267 40.059688 
" style="fill:none;stroke:#98df8a;stroke-linecap:square;stroke-width:1.5;"/>
   </g>
   <g id="line2d_38">
    <path clip-path="url(#p03bea4388b)" d="M 85.79358 105.797436 
L 185.326487 90.513728 
L 243.549506 86.673728 
L 284.859395 80.799291 
L 316.901835 77.595052 
L 343.082414 74.670549 
L 365.217778 73.399026 
L 384.392303 68.013419 
L 401.305433 67.052712 
L 416.434742 64.306887 
L 430.120868 63.349505 
L 442.615322 62.661386 
L 454.109105 61.075722 
L 464.750686 60.985968 
L 474.657761 59.639649 
L 483.925211 60.645648 
L 492.630642 62.090946 
L 500.83834 60.972006 
L 508.602157 60.599026 
L 515.96765 60.531211 
L 522.973705 60.497304 
L 529.653776 60.436755 
L 536.036855 59.165232 
L 542.14823 59.056244 
L 548.01009 59.056244 
L 553.642013 57.34877 
L 559.061359 57.354359 
L 564.283594 57.315236 
L 569.322554 57.315236 
L 574.190669 57.276112 
L 578.899144 57.236988 
L 583.458119 57.236988 
L 587.876794 57.15874 
L 592.16355 57.080493 
L 596.326033 57.041369 
L 600.371248 55.632913 
L 604.305621 54.26358 
L 608.135065 54.26358 
L 611.865031 54.26358 
L 615.500558 54.185332 
L 619.046309 54.146209 
L 622.506613 54.067961 
L 625.885489 52.620381 
L 629.186684 50.977182 
L 632.413688 49.816509 
L 635.569763 49.816509 
L 638.65796 49.731741 
L 641.681137 49.562204 
L 644.641977 49.477436 
L 647.542997 49.477436 
L 650.386568 49.435052 
L 653.174921 49.435052 
L 655.910158 49.435052 
L 658.594267 49.435052 
L 661.229123 49.350284 
L 663.816502 49.350284 
L 666.358084 49.095979 
L 668.855462 47.65492 
L 671.310148 47.570151 
L 673.723577 47.570151 
L 676.097112 47.570151 
L 678.432052 47.570151 
L 680.729631 45.917171 
L 682.991027 45.917171 
L 685.21736 45.917171 
L 687.409702 44.306575 
L 689.569076 44.264191 
L 691.696457 44.264191 
L 693.792781 44.264191 
L 695.858941 44.264191 
L 697.895793 44.094655 
L 699.904156 42.399291 
L 701.884817 42.314522 
L 703.838529 42.314522 
L 705.766016 42.229754 
L 707.667973 42.229754 
L 709.545067 42.18737 
L 711.397939 42.144986 
L 713.227208 42.144986 
L 715.033466 40.449622 
L 716.817286 40.449622 
L 718.579217 40.407238 
L 720.319792 40.407238 
L 722.03952 40.407238 
L 723.738897 40.407238 
L 725.418397 40.407238 
L 727.078481 40.364853 
L 728.719591 40.322469 
L 730.342158 40.280085 
L 731.946595 40.280085 
L 733.533304 40.280085 
L 735.10267 40.280085 
" style="fill:none;stroke:#d62728;stroke-linecap:square;stroke-width:1.5;"/>
   </g>
   <g id="line2d_39">
    <path clip-path="url(#p03bea4388b)" d="M 85.79358 109.637436 
L 185.326487 92.115847 
L 243.549506 83.545781 
L 284.859395 76.959291 
L 316.901835 74.238231 
L 343.082414 71.517171 
L 365.217778 70.093065 
L 384.392303 68.592668 
L 401.305433 67.321145 
L 416.434742 66.227635 
L 430.120868 63.964324 
L 442.615322 62.235052 
L 454.109105 62.082469 
L 464.750686 60.353198 
L 474.657761 58.8528 
L 483.925211 57.682999 
L 492.630642 57.352403 
L 500.83834 57.098099 
L 508.602157 55.775714 
L 515.96765 52.673198 
L 522.973705 52.418893 
L 529.653776 52.139158 
L 536.036855 52.037436 
L 542.14823 51.986575 
L 548.01009 51.961145 
L 553.642013 51.757701 
L 559.061359 51.655979 
L 564.283594 51.655979 
L 569.322554 50.867635 
L 574.190669 50.689622 
L 578.899144 50.486178 
L 583.458119 50.359026 
L 587.876794 50.333595 
L 592.16355 50.130151 
L 596.326033 50.02843 
L 600.371248 49.875847 
L 604.305621 49.799555 
L 608.135065 49.672403 
L 611.865031 49.621542 
L 615.500558 49.418099 
L 619.046309 48.578893 
L 622.506613 48.350019 
L 625.885489 48.222867 
L 629.186684 48.121145 
L 632.413688 48.095714 
L 635.569763 48.019423 
L 638.65796 48.019423 
L 641.681137 47.993993 
L 644.641977 47.943132 
L 647.542997 47.943132 
L 650.386568 47.917701 
L 653.174921 47.86684 
L 655.910158 47.86684 
L 658.594267 47.86684 
L 661.229123 47.103926 
L 663.816502 46.798761 
L 666.358084 46.671608 
L 668.855462 46.671608 
L 671.310148 46.646178 
L 673.723577 46.646178 
L 676.097112 45.857834 
L 678.432052 44.688032 
L 680.729631 44.510019 
L 682.991027 44.332006 
L 685.21736 44.332006 
L 687.409702 44.255714 
L 689.569076 44.255714 
L 691.696457 44.255714 
L 693.792781 44.179423 
L 695.858941 44.128562 
L 697.895793 44.128562 
L 699.904156 42.958761 
L 701.884817 42.958761 
L 703.838529 42.958761 
L 705.766016 42.93333 
L 707.667973 42.857039 
L 709.545067 42.704456 
L 711.397939 42.704456 
L 713.227208 42.704456 
L 715.033466 42.704456 
L 716.817286 42.704456 
L 718.579217 42.704456 
L 720.319792 42.628165 
L 722.03952 42.628165 
L 723.738897 42.450151 
L 725.418397 42.450151 
L 727.078481 42.450151 
L 728.719591 42.450151 
L 730.342158 42.399291 
L 731.946595 42.399291 
L 733.533304 42.37386 
L 735.10267 42.221277 
" style="fill:none;stroke:#e377c2;stroke-linecap:square;stroke-width:1.5;"/>
   </g>
   <g id="line2d_40">
    <path clip-path="url(#p03bea4388b)" d="M 85.79358 154.2679 
L 185.326487 64.015185 
L 243.549506 56.794271 
L 284.859395 54.620041 
L 316.901835 53.292006 
L 343.082414 53.178982 
L 365.217778 50.833728 
L 384.392303 50.579423 
L 401.305433 50.24035 
L 416.434742 49.873021 
L 430.120868 50.335091 
L 442.615322 49.916236 
L 454.109105 49.886318 
L 464.750686 49.106575 
L 474.657761 49.106575 
L 483.925211 49.106575 
L 492.630642 47.644324 
L 500.83834 47.644324 
L 508.602157 47.644324 
L 515.96765 47.644324 
L 522.973705 47.644324 
L 529.653776 47.644324 
L 536.036855 47.580748 
L 542.14823 47.580748 
L 548.01009 47.358231 
L 553.642013 46.21386 
L 559.061359 45.101277 
L 564.283594 45.101277 
L 569.322554 45.101277 
L 574.190669 43.766178 
L 578.899144 43.766178 
L 583.458119 43.766178 
L 587.876794 43.73439 
L 592.16355 43.543661 
L 596.326033 43.543661 
L 600.371248 43.352933 
L 604.305621 43.352933 
L 608.135065 45.069489 
L 611.865031 43.882734 
L 615.500558 43.882734 
L 619.046309 43.882734 
L 622.506613 43.882734 
L 625.885489 43.882734 
L 629.186684 43.882734 
L 632.413688 43.882734 
L 635.569763 43.882734 
L 638.65796 43.882734 
L 641.681137 43.882734 
L 644.641977 43.882734 
L 647.542997 43.882734 
L 650.386568 43.882734 
L 653.174921 43.882734 
L 655.910158 43.882734 
L 658.594267 43.882734 
L 661.229123 43.882734 
L 663.816502 43.882734 
L 666.358084 43.882734 
L 668.855462 43.882734 
L 671.310148 45.432782 
L 673.723577 45.432782 
L 676.097112 45.432782 
L 678.432052 45.432782 
L 680.729631 45.432782 
L 682.991027 45.432782 
L 685.21736 45.432782 
L 687.409702 43.979612 
L 689.569076 43.979612 
L 691.696457 43.979612 
L 693.792781 42.708089 
L 695.858941 42.708089 
L 697.895793 42.708089 
L 699.904156 42.708089 
L 701.884817 42.708089 
L 703.838529 42.562772 
L 705.766016 42.562772 
L 707.667973 42.562772 
L 709.545067 42.562772 
L 711.397939 42.562772 
L 713.227208 42.562772 
L 715.033466 42.562772 
L 716.817286 42.562772 
L 718.579217 42.562772 
L 720.319792 42.562772 
L 722.03952 42.562772 
L 723.738897 42.562772 
L 725.418397 42.562772 
L 727.078481 42.562772 
L 728.719591 42.562772 
L 730.342158 42.562772 
L 731.946595 42.562772 
L 733.533304 42.562772 
L 735.10267 42.562772 
" style="fill:none;stroke:#ff7f0e;stroke-linecap:square;stroke-width:1.5;"/>
   </g>
   <g id="line2d_41">
    <path clip-path="url(#p03bea4388b)" d="M 85.79358 111.036112 
L 185.326487 95.701542 
L 243.549506 91.581807 
L 284.859395 89.216774 
L 316.901835 85.122469 
L 343.082414 82.681145 
L 365.217778 81.358761 
L 384.392303 80.290681 
L 401.305433 79.527767 
L 416.434742 78.408827 
L 430.120868 77.417039 
L 442.615322 76.781277 
L 454.109105 76.094655 
L 464.750686 72.356377 
L 474.657761 69.609887 
L 483.925211 68.490946 
L 492.630642 68.236642 
L 500.83834 68.007767 
L 508.602157 66.634522 
L 515.96765 65.617304 
L 522.973705 64.447502 
L 529.653776 64.396642 
L 536.036855 64.142337 
L 542.14823 62.311344 
L 548.01009 59.030814 
L 553.642013 58.318761 
L 559.061359 58.166178 
L 564.283594 56.869224 
L 569.322554 56.284324 
L 574.190669 56.258893 
L 578.899144 56.182602 
L 583.458119 56.004589 
L 587.876794 55.953728 
L 592.16355 55.852006 
L 596.326033 55.801145 
L 600.371248 55.216244 
L 604.305621 53.995582 
L 608.135065 52.978363 
L 611.865031 52.902072 
L 615.500558 51.910284 
L 619.046309 50.994787 
L 622.506613 50.104721 
L 625.885489 50.104721 
L 629.186684 50.104721 
L 632.413688 50.104721 
L 635.569763 50.05386 
L 638.65796 50.05386 
L 641.681137 48.985781 
L 644.641977 48.96035 
L 647.542997 48.807767 
L 650.386568 48.782337 
L 653.174921 48.655185 
L 655.910158 48.629754 
L 658.594267 48.629754 
L 661.229123 48.553463 
L 663.816502 48.451741 
L 666.358084 48.273728 
L 668.855462 48.222867 
L 671.310148 48.222867 
L 673.723577 48.222867 
L 676.097112 48.197436 
L 678.432052 48.146575 
L 680.729631 48.095714 
L 682.991027 48.070284 
L 685.21736 48.019423 
L 687.409702 47.129357 
L 689.569076 47.129357 
L 691.696457 46.824191 
L 693.792781 46.824191 
L 695.858941 46.824191 
L 697.895793 46.824191 
L 699.904156 46.824191 
L 701.884817 46.798761 
L 703.838529 46.798761 
L 705.766016 46.798761 
L 707.667973 46.798761 
L 709.545067 45.908695 
L 711.397939 45.857834 
L 713.227208 45.857834 
L 715.033466 45.806973 
L 716.817286 45.806973 
L 718.579217 45.756112 
L 720.319792 45.730681 
L 722.03952 45.705251 
L 723.738897 45.67982 
L 725.418397 45.67982 
L 727.078481 45.67982 
L 728.719591 45.628959 
L 730.342158 45.628959 
L 731.946595 45.552668 
L 733.533304 42.729887 
L 735.10267 42.729887 
" style="fill:none;stroke:#dbdb8d;stroke-linecap:square;stroke-width:1.5;"/>
   </g>
   <g id="line2d_42">
    <path clip-path="url(#p03bea4388b)" d="M 85.79358 115.282999 
L 185.326487 72.992138 
L 243.549506 69.864191 
L 284.859395 68.948695 
L 316.901835 67.12707 
L 343.082414 65.467398 
L 365.217778 63.322911 
L 384.392303 62.93065 
L 401.305433 62.541714 
L 416.434742 61.404822 
L 430.120868 60.926131 
L 442.615322 60.178176 
L 454.109105 59.374125 
L 464.750686 57.943661 
L 474.657761 57.625781 
L 483.925211 57.3079 
L 492.630642 57.3079 
L 500.83834 57.117171 
L 508.602157 56.958231 
L 515.96765 55.9728 
L 522.973705 54.669489 
L 529.653776 54.31982 
L 536.036855 54.31982 
L 542.14823 54.192668 
L 548.01009 54.16088 
L 553.642013 54.16088 
L 559.061359 54.16088 
L 564.283594 53.048297 
L 569.322554 52.825781 
L 574.190669 52.762204 
L 578.899144 52.730416 
L 583.458119 52.730416 
L 587.876794 52.730416 
L 592.16355 52.698628 
L 596.326033 52.698628 
L 600.371248 52.603264 
L 604.305621 52.603264 
L 608.135065 52.603264 
L 611.865031 52.603264 
L 615.500558 52.603264 
L 619.046309 52.603264 
L 622.506613 52.603264 
L 625.885489 52.380748 
L 629.186684 52.190019 
L 632.413688 50.695979 
L 635.569763 50.695979 
L 638.65796 50.664191 
L 641.681137 50.664191 
L 644.641977 49.36088 
L 647.542997 49.36088 
L 650.386568 49.36088 
L 653.174921 49.36088 
L 655.910158 49.170151 
L 658.594267 49.042999 
L 661.229123 48.089357 
L 663.816502 48.089357 
L 666.358084 48.089357 
L 668.855462 47.199291 
L 671.310148 46.913198 
L 673.723577 46.658893 
L 676.097112 46.658893 
L 678.432052 46.658893 
L 680.729631 46.658893 
L 682.991027 46.658893 
L 685.21736 46.468165 
L 687.409702 46.468165 
L 689.569076 46.468165 
L 691.696457 46.468165 
L 693.792781 46.468165 
L 695.858941 46.436377 
L 697.895793 46.436377 
L 699.904156 46.436377 
L 701.884817 46.436377 
L 703.838529 46.436377 
L 705.766016 46.436377 
L 707.667973 46.436377 
L 709.545067 46.436377 
L 711.397939 46.436377 
L 713.227208 46.436377 
L 715.033466 46.436377 
L 716.817286 46.436377 
L 718.579217 46.436377 
L 720.319792 46.436377 
L 722.03952 46.436377 
L 723.738897 46.436377 
L 725.418397 46.436377 
L 727.078481 46.436377 
L 728.719591 46.436377 
L 730.342158 46.436377 
L 731.946595 46.436377 
L 733.533304 46.436377 
L 735.10267 46.436377 
" style="fill:none;stroke:#2ca02c;stroke-linecap:square;stroke-width:1.5;"/>
   </g>
   <g id="line2d_43">
    <path clip-path="url(#p03bea4388b)" d="M 85.79358 87.589224 
L 185.326487 79.12088 
L 243.549506 73.373595 
L 284.859395 67.244853 
L 316.901835 65.464721 
L 343.082414 60.810946 
L 365.217778 58.954522 
L 384.392303 58.598496 
L 401.305433 56.970946 
L 416.434742 56.61492 
L 430.120868 55.801145 
L 442.615322 55.623132 
L 454.109105 55.445118 
L 464.750686 55.0128 
L 474.657761 54.046443 
L 483.925211 53.690416 
L 492.630642 53.33439 
L 500.83834 53.258099 
L 508.602157 53.232668 
L 515.96765 53.156377 
L 522.973705 52.546046 
L 529.653776 52.546046 
L 536.036855 52.546046 
L 542.14823 52.546046 
L 548.01009 52.495185 
L 553.642013 52.469754 
L 559.061359 52.317171 
L 564.283594 52.24088 
L 569.322554 52.24088 
L 574.190669 52.139158 
L 578.899144 51.249092 
L 583.458119 51.223661 
L 587.876794 51.1728 
L 592.16355 50.257304 
L 596.326033 50.231873 
L 600.371248 50.231873 
L 604.305621 50.231873 
L 608.135065 50.155582 
L 611.865031 50.079291 
L 615.500558 50.079291 
L 619.046309 50.079291 
L 622.506613 50.079291 
L 625.885489 50.002999 
L 629.186684 50.002999 
L 632.413688 49.926708 
L 635.569763 49.875847 
L 638.65796 49.875847 
L 641.681137 49.875847 
L 644.641977 49.875847 
L 647.542997 49.875847 
L 650.386568 49.799555 
L 653.174921 49.774125 
L 655.910158 49.774125 
L 658.594267 49.748695 
L 661.229123 49.748695 
L 663.816502 49.748695 
L 666.358084 49.697834 
L 668.855462 49.697834 
L 671.310148 49.646973 
L 673.723577 49.545251 
L 676.097112 49.392668 
L 678.432052 49.240085 
L 680.729631 49.189224 
L 682.991027 49.189224 
L 685.21736 49.189224 
L 687.409702 49.189224 
L 689.569076 48.248297 
L 691.696457 48.248297 
L 693.792781 48.248297 
L 695.858941 48.248297 
L 697.895793 48.248297 
L 699.904156 47.358231 
L 701.884817 47.30737 
L 703.838529 47.180218 
L 705.766016 47.180218 
L 707.667973 47.154787 
L 709.545067 47.154787 
L 711.397939 47.154787 
L 713.227208 47.154787 
L 715.033466 47.154787 
L 716.817286 47.154787 
L 718.579217 47.154787 
L 720.319792 47.154787 
L 722.03952 47.078496 
L 723.738897 47.053065 
L 725.418397 47.002204 
L 727.078481 47.002204 
L 728.719591 47.002204 
L 730.342158 47.002204 
L 731.946595 47.002204 
L 733.533304 47.002204 
L 735.10267 47.002204 
" style="fill:none;stroke:#ff9896;stroke-linecap:square;stroke-width:1.5;"/>
   </g>
   <g id="line2d_44"/>
   <g id="line2d_45"/>
   <g id="line2d_46"/>
   <g id="line2d_47"/>
   <g id="line2d_48"/>
   <g id="line2d_49"/>
   <g id="line2d_50"/>
   <g id="line2d_51"/>
   <g id="line2d_52"/>
   <g id="line2d_53"/>
   <g id="line2d_54">
    <path clip-path="url(#p03bea4388b)" d="M 735.10267 288.430125 
L 735.10267 22.318125 
" style="fill:none;stroke:#ff0000;stroke-linecap:square;stroke-width:1.5;"/>
   </g>
   <g id="patch_3">
    <path d="M 53.328125 253.599291 
L 53.328125 50.155582 
" style="fill:none;stroke:#000000;stroke-linecap:square;stroke-linejoin:miter;stroke-width:0.8;"/>
   </g>
   <g id="patch_4">
    <path d="M 85.79358 288.430125 
L 735.104405 288.430125 
" style="fill:none;stroke:#000000;stroke-linecap:square;stroke-linejoin:miter;stroke-width:0.8;"/>
   </g>
   <g id="text_20">
    <!-- re2-2014-12-09 (23h, 12 trials/fuzzer) -->
    <g transform="translate(296.84375 16.318125)scale(0.12 -0.12)">
     <defs>
      <path d="M 4.890625 31.390625 
L 31.203125 31.390625 
L 31.203125 23.390625 
L 4.890625 23.390625 
z
" id="DejaVuSans-45"/>
      <path d="M 10.984375 1.515625 
L 10.984375 10.5 
Q 14.703125 8.734375 18.5 7.8125 
Q 22.3125 6.890625 25.984375 6.890625 
Q 35.75 6.890625 40.890625 13.453125 
Q 46.046875 20.015625 46.78125 33.40625 
Q 43.953125 29.203125 39.59375 26.953125 
Q 35.25 24.703125 29.984375 24.703125 
Q 19.046875 24.703125 12.671875 31.3125 
Q 6.296875 37.9375 6.296875 49.421875 
Q 6.296875 60.640625 12.9375 67.421875 
Q 19.578125 74.21875 30.609375 74.21875 
Q 43.265625 74.21875 49.921875 64.515625 
Q 56.59375 54.828125 56.59375 36.375 
Q 56.59375 19.140625 48.40625 8.859375 
Q 40.234375 -1.421875 26.421875 -1.421875 
Q 22.703125 -1.421875 18.890625 -0.6875 
Q 15.09375 0.046875 10.984375 1.515625 
z
M 30.609375 32.421875 
Q 37.25 32.421875 41.125 36.953125 
Q 45.015625 41.5 45.015625 49.421875 
Q 45.015625 57.28125 41.125 61.84375 
Q 37.25 66.40625 30.609375 66.40625 
Q 23.96875 66.40625 20.09375 61.84375 
Q 16.21875 57.28125 16.21875 49.421875 
Q 16.21875 41.5 20.09375 36.953125 
Q 23.96875 32.421875 30.609375 32.421875 
z
" id="DejaVuSans-57"/>
      <path d="M 11.71875 12.40625 
L 22.015625 12.40625 
L 22.015625 4 
L 14.015625 -11.625 
L 7.71875 -11.625 
L 11.71875 4 
z
" id="DejaVuSans-44"/>
      <path d="M 9.421875 75.984375 
L 18.40625 75.984375 
L 18.40625 0 
L 9.421875 0 
z
" id="DejaVuSans-108"/>
      <path d="M 44.28125 53.078125 
L 44.28125 44.578125 
Q 40.484375 46.53125 36.375 47.5 
Q 32.28125 48.484375 27.875 48.484375 
Q 21.1875 48.484375 17.84375 46.4375 
Q 14.5 44.390625 14.5 40.28125 
Q 14.5 37.15625 16.890625 35.375 
Q 19.28125 33.59375 26.515625 31.984375 
L 29.59375 31.296875 
Q 39.15625 29.25 43.1875 25.515625 
Q 47.21875 21.78125 47.21875 15.09375 
Q 47.21875 7.46875 41.1875 3.015625 
Q 35.15625 -1.421875 24.609375 -1.421875 
Q 20.21875 -1.421875 15.453125 -0.5625 
Q 10.6875 0.296875 5.421875 2 
L 5.421875 11.28125 
Q 10.40625 8.6875 15.234375 7.390625 
Q 20.0625 6.109375 24.8125 6.109375 
Q 31.15625 6.109375 34.5625 8.28125 
Q 37.984375 10.453125 37.984375 14.40625 
Q 37.984375 18.0625 35.515625 20.015625 
Q 33.0625 21.96875 24.703125 23.78125 
L 21.578125 24.515625 
Q 13.234375 26.265625 9.515625 29.90625 
Q 5.8125 33.546875 5.8125 39.890625 
Q 5.8125 47.609375 11.28125 51.796875 
Q 16.75 56 26.8125 56 
Q 31.78125 56 36.171875 55.265625 
Q 40.578125 54.546875 44.28125 53.078125 
z
" id="DejaVuSans-115"/>
      <path d="M 25.390625 72.90625 
L 33.6875 72.90625 
L 8.296875 -9.28125 
L 0 -9.28125 
z
" id="DejaVuSans-47"/>
      <path d="M 37.109375 75.984375 
L 37.109375 68.5 
L 28.515625 68.5 
Q 23.6875 68.5 21.796875 66.546875 
Q 19.921875 64.59375 19.921875 59.515625 
L 19.921875 54.6875 
L 34.71875 54.6875 
L 34.71875 47.703125 
L 19.921875 47.703125 
L 19.921875 0 
L 10.890625 0 
L 10.890625 47.703125 
L 2.296875 47.703125 
L 2.296875 54.6875 
L 10.890625 54.6875 
L 10.890625 58.5 
Q 10.890625 67.625 15.140625 71.796875 
Q 19.390625 75.984375 28.609375 75.984375 
z
" id="DejaVuSans-102"/>
      <path d="M 5.515625 54.6875 
L 48.1875 54.6875 
L 48.1875 46.484375 
L 14.40625 7.171875 
L 48.1875 7.171875 
L 48.1875 0 
L 4.296875 0 
L 4.296875 8.203125 
L 38.09375 47.515625 
L 5.515625 47.515625 
z
" id="DejaVuSans-122"/>
     </defs>
     <use xlink:href="#DejaVuSans-114"/>
     <use x="38.863281" xlink:href="#DejaVuSans-101"/>
     <use x="100.386719" xlink:href="#DejaVuSans-50"/>
     <use x="164.009766" xlink:href="#DejaVuSans-45"/>
     <use x="200.09375" xlink:href="#DejaVuSans-50"/>
     <use x="263.716797" xlink:href="#DejaVuSans-48"/>
     <use x="327.339844" xlink:href="#DejaVuSans-49"/>
     <use x="390.962891" xlink:href="#DejaVuSans-52"/>
     <use x="454.585938" xlink:href="#DejaVuSans-45"/>
     <use x="490.669922" xlink:href="#DejaVuSans-49"/>
     <use x="554.292969" xlink:href="#DejaVuSans-50"/>
     <use x="617.916016" xlink:href="#DejaVuSans-45"/>
     <use x="654" xlink:href="#DejaVuSans-48"/>
     <use x="717.623047" xlink:href="#DejaVuSans-57"/>
     <use x="781.246094" xlink:href="#DejaVuSans-32"/>
     <use x="813.033203" xlink:href="#DejaVuSans-40"/>
     <use x="852.046875" xlink:href="#DejaVuSans-50"/>
     <use x="915.669922" xlink:href="#DejaVuSans-51"/>
     <use x="979.292969" xlink:href="#DejaVuSans-104"/>
     <use x="1042.671875" xlink:href="#DejaVuSans-44"/>
     <use x="1074.458984" xlink:href="#DejaVuSans-32"/>
     <use x="1106.246094" xlink:href="#DejaVuSans-49"/>
     <use x="1169.869141" xlink:href="#DejaVuSans-50"/>
     <use x="1233.492188" xlink:href="#DejaVuSans-32"/>
     <use x="1265.279297" xlink:href="#DejaVuSans-116"/>
     <use x="1304.488281" xlink:href="#DejaVuSans-114"/>
     <use x="1345.601562" xlink:href="#DejaVuSans-105"/>
     <use x="1373.384766" xlink:href="#DejaVuSans-97"/>
     <use x="1434.664062" xlink:href="#DejaVuSans-108"/>
     <use x="1462.447266" xlink:href="#DejaVuSans-115"/>
     <use x="1514.546875" xlink:href="#DejaVuSans-47"/>
     <use x="1548.238281" xlink:href="#DejaVuSans-102"/>
     <use x="1583.443359" xlink:href="#DejaVuSans-117"/>
     <use x="1646.822266" xlink:href="#DejaVuSans-122"/>
     <use x="1699.3125" xlink:href="#DejaVuSans-122"/>
     <use x="1751.802734" xlink:href="#DejaVuSans-101"/>
     <use x="1813.326172" xlink:href="#DejaVuSans-114"/>
     <use x="1854.439453" xlink:href="#DejaVuSans-41"/>
    </g>
   </g>
   <g id="legend_1">
    <g id="line2d_55">
     <path d="M 771.568125 30.416562 
L 791.568125 30.416562 
" style="fill:none;"/>
    </g>
    <g id="line2d_56"/>
    <g id="text_21">
     <!-- fuzzer -->
     <g transform="translate(799.568125 33.916562)scale(0.1 -0.1)">
      <use xlink:href="#DejaVuSans-102"/>
      <use x="35.205078" xlink:href="#DejaVuSans-117"/>
      <use x="98.583984" xlink:href="#DejaVuSans-122"/>
      <use x="151.074219" xlink:href="#DejaVuSans-122"/>
      <use x="203.564453" xlink:href="#DejaVuSans-101"/>
      <use x="265.087891" xlink:href="#DejaVuSans-114"/>
     </g>
    </g>
    <g id="line2d_57">
     <path d="M 771.568125 45.094688 
L 791.568125 45.094688 
" style="fill:none;stroke:#1f77b4;stroke-linecap:square;stroke-width:1.5;"/>
    </g>
    <g id="line2d_58"/>
    <g id="text_22">
     <!-- aflplusplus -->
     <g transform="translate(799.568125 48.594688)scale(0.1 -0.1)">
      <defs>
       <path d="M 18.109375 8.203125 
L 18.109375 -20.796875 
L 9.078125 -20.796875 
L 9.078125 54.6875 
L 18.109375 54.6875 
L 18.109375 46.390625 
Q 20.953125 51.265625 25.265625 53.625 
Q 29.59375 56 35.59375 56 
Q 45.5625 56 51.78125 48.09375 
Q 58.015625 40.1875 58.015625 27.296875 
Q 58.015625 14.40625 51.78125 6.484375 
Q 45.5625 -1.421875 35.59375 -1.421875 
Q 29.59375 -1.421875 25.265625 0.953125 
Q 20.953125 3.328125 18.109375 8.203125 
z
M 48.6875 27.296875 
Q 48.6875 37.203125 44.609375 42.84375 
Q 40.53125 48.484375 33.40625 48.484375 
Q 26.265625 48.484375 22.1875 42.84375 
Q 18.109375 37.203125 18.109375 27.296875 
Q 18.109375 17.390625 22.1875 11.75 
Q 26.265625 6.109375 33.40625 6.109375 
Q 40.53125 6.109375 44.609375 11.75 
Q 48.6875 17.390625 48.6875 27.296875 
z
" id="DejaVuSans-112"/>
      </defs>
      <use xlink:href="#DejaVuSans-97"/>
      <use x="61.279297" xlink:href="#DejaVuSans-102"/>
      <use x="96.484375" xlink:href="#DejaVuSans-108"/>
      <use x="124.267578" xlink:href="#DejaVuSans-112"/>
      <use x="187.744141" xlink:href="#DejaVuSans-108"/>
      <use x="215.527344" xlink:href="#DejaVuSans-117"/>
      <use x="278.90625" xlink:href="#DejaVuSans-115"/>
      <use x="331.005859" xlink:href="#DejaVuSans-112"/>
      <use x="394.482422" xlink:href="#DejaVuSans-108"/>
      <use x="422.265625" xlink:href="#DejaVuSans-117"/>
      <use x="485.644531" xlink:href="#DejaVuSans-115"/>
     </g>
    </g>
    <g id="line2d_59">
     <path d="M 771.568125 59.772812 
L 791.568125 59.772812 
" style="fill:none;stroke:#c5b0d5;stroke-linecap:square;stroke-width:1.5;"/>
    </g>
    <g id="line2d_60"/>
    <g id="text_23">
     <!-- mopt -->
     <g transform="translate(799.568125 63.272812)scale(0.1 -0.1)">
      <use xlink:href="#DejaVuSans-109"/>
      <use x="97.412109" xlink:href="#DejaVuSans-111"/>
      <use x="158.59375" xlink:href="#DejaVuSans-112"/>
      <use x="222.070312" xlink:href="#DejaVuSans-116"/>
     </g>
    </g>
    <g id="line2d_61">
     <path d="M 771.568125 74.450938 
L 791.568125 74.450938 
" style="fill:none;stroke:#98df8a;stroke-linecap:square;stroke-width:1.5;"/>
    </g>
    <g id="line2d_62"/>
    <g id="text_24">
     <!-- aflplusplus_flat -->
     <g transform="translate(799.568125 77.950938)scale(0.1 -0.1)">
      <defs>
       <path d="M 50.984375 -16.609375 
L 50.984375 -23.578125 
L -0.984375 -23.578125 
L -0.984375 -16.609375 
z
" id="DejaVuSans-95"/>
      </defs>
      <use xlink:href="#DejaVuSans-97"/>
      <use x="61.279297" xlink:href="#DejaVuSans-102"/>
      <use x="96.484375" xlink:href="#DejaVuSans-108"/>
      <use x="124.267578" xlink:href="#DejaVuSans-112"/>
      <use x="187.744141" xlink:href="#DejaVuSans-108"/>
      <use x="215.527344" xlink:href="#DejaVuSans-117"/>
      <use x="278.90625" xlink:href="#DejaVuSans-115"/>
      <use x="331.005859" xlink:href="#DejaVuSans-112"/>
      <use x="394.482422" xlink:href="#DejaVuSans-108"/>
      <use x="422.265625" xlink:href="#DejaVuSans-117"/>
      <use x="485.644531" xlink:href="#DejaVuSans-115"/>
      <use x="537.744141" xlink:href="#DejaVuSans-95"/>
      <use x="587.744141" xlink:href="#DejaVuSans-102"/>
      <use x="622.949219" xlink:href="#DejaVuSans-108"/>
      <use x="650.732422" xlink:href="#DejaVuSans-97"/>
      <use x="712.011719" xlink:href="#DejaVuSans-116"/>
     </g>
    </g>
    <g id="line2d_63">
     <path d="M 771.568125 89.407188 
L 791.568125 89.407188 
" style="fill:none;stroke:#d62728;stroke-linecap:square;stroke-width:1.5;"/>
    </g>
    <g id="line2d_64"/>
    <g id="text_25">
     <!-- aflplusplus_qemu -->
     <g transform="translate(799.568125 92.907188)scale(0.1 -0.1)">
      <defs>
       <path d="M 14.796875 27.296875 
Q 14.796875 17.390625 18.875 11.75 
Q 22.953125 6.109375 30.078125 6.109375 
Q 37.203125 6.109375 41.296875 11.75 
Q 45.40625 17.390625 45.40625 27.296875 
Q 45.40625 37.203125 41.296875 42.84375 
Q 37.203125 48.484375 30.078125 48.484375 
Q 22.953125 48.484375 18.875 42.84375 
Q 14.796875 37.203125 14.796875 27.296875 
z
M 45.40625 8.203125 
Q 42.578125 3.328125 38.25 0.953125 
Q 33.9375 -1.421875 27.875 -1.421875 
Q 17.96875 -1.421875 11.734375 6.484375 
Q 5.515625 14.40625 5.515625 27.296875 
Q 5.515625 40.1875 11.734375 48.09375 
Q 17.96875 56 27.875 56 
Q 33.9375 56 38.25 53.625 
Q 42.578125 51.265625 45.40625 46.390625 
L 45.40625 54.6875 
L 54.390625 54.6875 
L 54.390625 -20.796875 
L 45.40625 -20.796875 
z
" id="DejaVuSans-113"/>
      </defs>
      <use xlink:href="#DejaVuSans-97"/>
      <use x="61.279297" xlink:href="#DejaVuSans-102"/>
      <use x="96.484375" xlink:href="#DejaVuSans-108"/>
      <use x="124.267578" xlink:href="#DejaVuSans-112"/>
      <use x="187.744141" xlink:href="#DejaVuSans-108"/>
      <use x="215.527344" xlink:href="#DejaVuSans-117"/>
      <use x="278.90625" xlink:href="#DejaVuSans-115"/>
      <use x="331.005859" xlink:href="#DejaVuSans-112"/>
      <use x="394.482422" xlink:href="#DejaVuSans-108"/>
      <use x="422.265625" xlink:href="#DejaVuSans-117"/>
      <use x="485.644531" xlink:href="#DejaVuSans-115"/>
      <use x="537.744141" xlink:href="#DejaVuSans-95"/>
      <use x="587.744141" xlink:href="#DejaVuSans-113"/>
      <use x="651.220703" xlink:href="#DejaVuSans-101"/>
      <use x="712.744141" xlink:href="#DejaVuSans-109"/>
      <use x="810.15625" xlink:href="#DejaVuSans-117"/>
     </g>
    </g>
    <g id="line2d_65">
     <path d="M 771.568125 104.363438 
L 791.568125 104.363438 
" style="fill:none;stroke:#e377c2;stroke-linecap:square;stroke-width:1.5;"/>
    </g>
    <g id="line2d_66"/>
    <g id="text_26">
     <!-- honggfuzz -->
     <g transform="translate(799.568125 107.863438)scale(0.1 -0.1)">
      <use xlink:href="#DejaVuSans-104"/>
      <use x="63.378906" xlink:href="#DejaVuSans-111"/>
      <use x="124.560547" xlink:href="#DejaVuSans-110"/>
      <use x="187.939453" xlink:href="#DejaVuSans-103"/>
      <use x="251.416016" xlink:href="#DejaVuSans-103"/>
      <use x="314.892578" xlink:href="#DejaVuSans-102"/>
      <use x="350.097656" xlink:href="#DejaVuSans-117"/>
      <use x="413.476562" xlink:href="#DejaVuSans-122"/>
      <use x="465.966797" xlink:href="#DejaVuSans-122"/>
     </g>
    </g>
    <g id="line2d_67">
     <path d="M 771.568125 119.041562 
L 791.568125 119.041562 
" style="fill:none;stroke:#ff7f0e;stroke-linecap:square;stroke-width:1.5;"/>
    </g>
    <g id="line2d_68"/>
    <g id="text_27">
     <!-- entropic -->
     <g transform="translate(799.568125 122.541562)scale(0.1 -0.1)">
      <use xlink:href="#DejaVuSans-101"/>
      <use x="61.523438" xlink:href="#DejaVuSans-110"/>
      <use x="124.902344" xlink:href="#DejaVuSans-116"/>
      <use x="164.111328" xlink:href="#DejaVuSans-114"/>
      <use x="202.974609" xlink:href="#DejaVuSans-111"/>
      <use x="264.15625" xlink:href="#DejaVuSans-112"/>
      <use x="327.632812" xlink:href="#DejaVuSans-105"/>
      <use x="355.416016" xlink:href="#DejaVuSans-99"/>
     </g>
    </g>
    <g id="line2d_69">
     <path d="M 771.568125 133.719688 
L 791.568125 133.719688 
" style="fill:none;stroke:#dbdb8d;stroke-linecap:square;stroke-width:1.5;"/>
    </g>
    <g id="line2d_70"/>
    <g id="text_28">
     <!-- lafintel -->
     <g transform="translate(799.568125 137.219688)scale(0.1 -0.1)">
      <use xlink:href="#DejaVuSans-108"/>
      <use x="27.783203" xlink:href="#DejaVuSans-97"/>
      <use x="89.0625" xlink:href="#DejaVuSans-102"/>
      <use x="124.267578" xlink:href="#DejaVuSans-105"/>
      <use x="152.050781" xlink:href="#DejaVuSans-110"/>
      <use x="215.429688" xlink:href="#DejaVuSans-116"/>
      <use x="254.638672" xlink:href="#DejaVuSans-101"/>
      <use x="316.162109" xlink:href="#DejaVuSans-108"/>
     </g>
    </g>
    <g id="line2d_71">
     <path d="M 771.568125 148.397812 
L 791.568125 148.397812 
" style="fill:none;stroke:#2ca02c;stroke-linecap:square;stroke-width:1.5;"/>
    </g>
    <g id="line2d_72"/>
    <g id="text_29">
     <!-- libfuzzer -->
     <g transform="translate(799.568125 151.897812)scale(0.1 -0.1)">
      <defs>
       <path d="M 48.6875 27.296875 
Q 48.6875 37.203125 44.609375 42.84375 
Q 40.53125 48.484375 33.40625 48.484375 
Q 26.265625 48.484375 22.1875 42.84375 
Q 18.109375 37.203125 18.109375 27.296875 
Q 18.109375 17.390625 22.1875 11.75 
Q 26.265625 6.109375 33.40625 6.109375 
Q 40.53125 6.109375 44.609375 11.75 
Q 48.6875 17.390625 48.6875 27.296875 
z
M 18.109375 46.390625 
Q 20.953125 51.265625 25.265625 53.625 
Q 29.59375 56 35.59375 56 
Q 45.5625 56 51.78125 48.09375 
Q 58.015625 40.1875 58.015625 27.296875 
Q 58.015625 14.40625 51.78125 6.484375 
Q 45.5625 -1.421875 35.59375 -1.421875 
Q 29.59375 -1.421875 25.265625 0.953125 
Q 20.953125 3.328125 18.109375 8.203125 
L 18.109375 0 
L 9.078125 0 
L 9.078125 75.984375 
L 18.109375 75.984375 
z
" id="DejaVuSans-98"/>
      </defs>
      <use xlink:href="#DejaVuSans-108"/>
      <use x="27.783203" xlink:href="#DejaVuSans-105"/>
      <use x="55.566406" xlink:href="#DejaVuSans-98"/>
      <use x="119.042969" xlink:href="#DejaVuSans-102"/>
      <use x="154.248047" xlink:href="#DejaVuSans-117"/>
      <use x="217.626953" xlink:href="#DejaVuSans-122"/>
      <use x="270.117188" xlink:href="#DejaVuSans-122"/>
      <use x="322.607422" xlink:href="#DejaVuSans-101"/>
      <use x="384.130859" xlink:href="#DejaVuSans-114"/>
     </g>
    </g>
    <g id="line2d_73">
     <path d="M 771.568125 163.075937 
L 791.568125 163.075937 
" style="fill:none;stroke:#ff9896;stroke-linecap:square;stroke-width:1.5;"/>
    </g>
    <g id="line2d_74"/>
    <g id="text_30">
     <!-- fairfuzz -->
     <g transform="translate(799.568125 166.575937)scale(0.1 -0.1)">
      <use xlink:href="#DejaVuSans-102"/>
      <use x="35.205078" xlink:href="#DejaVuSans-97"/>
      <use x="96.484375" xlink:href="#DejaVuSans-105"/>
      <use x="124.267578" xlink:href="#DejaVuSans-114"/>
      <use x="165.380859" xlink:href="#DejaVuSans-102"/>
      <use x="200.585938" xlink:href="#DejaVuSans-117"/>
      <use x="263.964844" xlink:href="#DejaVuSans-122"/>
      <use x="316.455078" xlink:href="#DejaVuSans-122"/>
     </g>
    </g>
   </g>
  </g>
 </g>
 <defs>
  <clipPath id="p03bea4388b">
   <rect height="266.112" width="714.24" x="53.328125" y="22.318125"/>
  </clipPath>
 </defs>
</svg>
