<?xml version="1.0" encoding="utf-8" standalone="no"?>
<!DOCTYPE svg PUBLIC "-//W3C//DTD SVG 1.1//EN"
  "http://www.w3.org/Graphics/SVG/1.1/DTD/svg11.dtd">
<!-- Created with matplotlib (https://matplotlib.org/) -->
<svg height="325.986375pt" version="1.1" viewBox="0 0 904.48375 325.986375" width="904.48375pt" xmlns="http://www.w3.org/2000/svg" xmlns:xlink="http://www.w3.org/1999/xlink">
 <metadata>
  <rdf:RDF xmlns:cc="http://creativecommons.org/ns#" xmlns:dc="http://purl.org/dc/elements/1.1/" xmlns:rdf="http://www.w3.org/1999/02/22-rdf-syntax-ns#">
   <cc:Work>
    <dc:type rdf:resource="http://purl.org/dc/dcmitype/StillImage"/>
    <dc:date>2020-12-06T10:29:12.835387</dc:date>
    <dc:format>image/svg+xml</dc:format>
    <dc:creator>
     <cc:Agent>
      <dc:title>Matplotlib v3.3.3, https://matplotlib.org/</dc:title>
     </cc:Agent>
    </dc:creator>
   </cc:Work>
  </rdf:RDF>
 </metadata>
 <defs>
  <style type="text/css">*{stroke-linecap:butt;stroke-linejoin:round;}</style>
 </defs>
 <g id="figure_1">
  <g id="patch_1">
   <path d="M 0 325.986375 
L 904.48375 325.986375 
L 904.48375 0 
L 0 0 
z
" style="fill:#ffffff;"/>
  </g>
  <g id="axes_1">
   <g id="patch_2">
    <path d="M 59.690625 288.430125 
L 773.930625 288.430125 
L 773.930625 22.318125 
L 59.690625 22.318125 
z
" style="fill:#ffffff;"/>
   </g>
   <g id="matplotlib.axis_1">
    <g id="xtick_1">
     <g id="line2d_1">
      <defs>
       <path d="M 0 0 
L 0 3.5 
" id="mbf02256bdc" style="stroke:#000000;stroke-width:0.8;"/>
      </defs>
      <g>
       <use style="stroke:#000000;stroke-width:0.8;" x="92.15608" xlink:href="#mbf02256bdc" y="288.430125"/>
      </g>
     </g>
     <g id="text_1">
      <!-- 14m -->
      <g transform="translate(80.923267 303.028562)scale(0.1 -0.1)">
       <defs>
        <path d="M 12.40625 8.296875 
L 28.515625 8.296875 
L 28.515625 63.921875 
L 10.984375 60.40625 
L 10.984375 69.390625 
L 28.421875 72.90625 
L 38.28125 72.90625 
L 38.28125 8.296875 
L 54.390625 8.296875 
L 54.390625 0 
L 12.40625 0 
z
" id="DejaVuSans-49"/>
        <path d="M 37.796875 64.3125 
L 12.890625 25.390625 
L 37.796875 25.390625 
z
M 35.203125 72.90625 
L 47.609375 72.90625 
L 47.609375 25.390625 
L 58.015625 25.390625 
L 58.015625 17.1875 
L 47.609375 17.1875 
L 47.609375 0 
L 37.796875 0 
L 37.796875 17.1875 
L 4.890625 17.1875 
L 4.890625 26.703125 
z
" id="DejaVuSans-52"/>
        <path d="M 52 44.1875 
Q 55.375 50.25 60.0625 53.125 
Q 64.75 56 71.09375 56 
Q 79.640625 56 84.28125 50.015625 
Q 88.921875 44.046875 88.921875 33.015625 
L 88.921875 0 
L 79.890625 0 
L 79.890625 32.71875 
Q 79.890625 40.578125 77.09375 44.375 
Q 74.3125 48.1875 68.609375 48.1875 
Q 61.625 48.1875 57.5625 43.546875 
Q 53.515625 38.921875 53.515625 30.90625 
L 53.515625 0 
L 44.484375 0 
L 44.484375 32.71875 
Q 44.484375 40.625 41.703125 44.40625 
Q 38.921875 48.1875 33.109375 48.1875 
Q 26.21875 48.1875 22.15625 43.53125 
Q 18.109375 38.875 18.109375 30.90625 
L 18.109375 0 
L 9.078125 0 
L 9.078125 54.6875 
L 18.109375 54.6875 
L 18.109375 46.1875 
Q 21.1875 51.21875 25.484375 53.609375 
Q 29.78125 56 35.6875 56 
Q 41.65625 56 45.828125 52.96875 
Q 50 49.953125 52 44.1875 
z
" id="DejaVuSans-109"/>
       </defs>
       <use xlink:href="#DejaVuSans-49"/>
       <use x="63.623047" xlink:href="#DejaVuSans-52"/>
       <use x="127.246094" xlink:href="#DejaVuSans-109"/>
      </g>
     </g>
    </g>
    <g id="xtick_2">
     <g id="line2d_2">
      <g>
       <use style="stroke:#000000;stroke-width:0.8;" x="151.184336" xlink:href="#mbf02256bdc" y="288.430125"/>
      </g>
     </g>
     <g id="text_2">
      <!-- 22m -->
      <g transform="translate(139.951524 303.028562)scale(0.1 -0.1)">
       <defs>
        <path d="M 19.1875 8.296875 
L 53.609375 8.296875 
L 53.609375 0 
L 7.328125 0 
L 7.328125 8.296875 
Q 12.9375 14.109375 22.625 23.890625 
Q 32.328125 33.6875 34.8125 36.53125 
Q 39.546875 41.84375 41.421875 45.53125 
Q 43.3125 49.21875 43.3125 52.78125 
Q 43.3125 58.59375 39.234375 62.25 
Q 35.15625 65.921875 28.609375 65.921875 
Q 23.96875 65.921875 18.8125 64.3125 
Q 13.671875 62.703125 7.8125 59.421875 
L 7.8125 69.390625 
Q 13.765625 71.78125 18.9375 73 
Q 24.125 74.21875 28.421875 74.21875 
Q 39.75 74.21875 46.484375 68.546875 
Q 53.21875 62.890625 53.21875 53.421875 
Q 53.21875 48.921875 51.53125 44.890625 
Q 49.859375 40.875 45.40625 35.40625 
Q 44.1875 33.984375 37.640625 27.21875 
Q 31.109375 20.453125 19.1875 8.296875 
z
" id="DejaVuSans-50"/>
       </defs>
       <use xlink:href="#DejaVuSans-50"/>
       <use x="63.623047" xlink:href="#DejaVuSans-50"/>
       <use x="127.246094" xlink:href="#DejaVuSans-109"/>
      </g>
     </g>
    </g>
    <g id="xtick_3">
     <g id="line2d_3">
      <g>
       <use style="stroke:#000000;stroke-width:0.8;" x="210.212593" xlink:href="#mbf02256bdc" y="288.430125"/>
      </g>
     </g>
     <g id="text_3">
      <!-- 34m -->
      <g transform="translate(198.979781 303.028562)scale(0.1 -0.1)">
       <defs>
        <path d="M 40.578125 39.3125 
Q 47.65625 37.796875 51.625 33 
Q 55.609375 28.21875 55.609375 21.1875 
Q 55.609375 10.40625 48.1875 4.484375 
Q 40.765625 -1.421875 27.09375 -1.421875 
Q 22.515625 -1.421875 17.65625 -0.515625 
Q 12.796875 0.390625 7.625 2.203125 
L 7.625 11.71875 
Q 11.71875 9.328125 16.59375 8.109375 
Q 21.484375 6.890625 26.8125 6.890625 
Q 36.078125 6.890625 40.9375 10.546875 
Q 45.796875 14.203125 45.796875 21.1875 
Q 45.796875 27.640625 41.28125 31.265625 
Q 36.765625 34.90625 28.71875 34.90625 
L 20.21875 34.90625 
L 20.21875 43.015625 
L 29.109375 43.015625 
Q 36.375 43.015625 40.234375 45.921875 
Q 44.09375 48.828125 44.09375 54.296875 
Q 44.09375 59.90625 40.109375 62.90625 
Q 36.140625 65.921875 28.71875 65.921875 
Q 24.65625 65.921875 20.015625 65.03125 
Q 15.375 64.15625 9.8125 62.3125 
L 9.8125 71.09375 
Q 15.4375 72.65625 20.34375 73.4375 
Q 25.25 74.21875 29.59375 74.21875 
Q 40.828125 74.21875 47.359375 69.109375 
Q 53.90625 64.015625 53.90625 55.328125 
Q 53.90625 49.265625 50.4375 45.09375 
Q 46.96875 40.921875 40.578125 39.3125 
z
" id="DejaVuSans-51"/>
       </defs>
       <use xlink:href="#DejaVuSans-51"/>
       <use x="63.623047" xlink:href="#DejaVuSans-52"/>
       <use x="127.246094" xlink:href="#DejaVuSans-109"/>
      </g>
     </g>
    </g>
    <g id="xtick_4">
     <g id="line2d_4">
      <g>
       <use style="stroke:#000000;stroke-width:0.8;" x="269.24085" xlink:href="#mbf02256bdc" y="288.430125"/>
      </g>
     </g>
     <g id="text_4">
      <!-- 51m -->
      <g transform="translate(258.008038 303.028562)scale(0.1 -0.1)">
       <defs>
        <path d="M 10.796875 72.90625 
L 49.515625 72.90625 
L 49.515625 64.59375 
L 19.828125 64.59375 
L 19.828125 46.734375 
Q 21.96875 47.46875 24.109375 47.828125 
Q 26.265625 48.1875 28.421875 48.1875 
Q 40.625 48.1875 47.75 41.5 
Q 54.890625 34.8125 54.890625 23.390625 
Q 54.890625 11.625 47.5625 5.09375 
Q 40.234375 -1.421875 26.90625 -1.421875 
Q 22.3125 -1.421875 17.546875 -0.640625 
Q 12.796875 0.140625 7.71875 1.703125 
L 7.71875 11.625 
Q 12.109375 9.234375 16.796875 8.0625 
Q 21.484375 6.890625 26.703125 6.890625 
Q 35.15625 6.890625 40.078125 11.328125 
Q 45.015625 15.765625 45.015625 23.390625 
Q 45.015625 31 40.078125 35.4375 
Q 35.15625 39.890625 26.703125 39.890625 
Q 22.75 39.890625 18.8125 39.015625 
Q 14.890625 38.140625 10.796875 36.28125 
z
" id="DejaVuSans-53"/>
       </defs>
       <use xlink:href="#DejaVuSans-53"/>
       <use x="63.623047" xlink:href="#DejaVuSans-49"/>
       <use x="127.246094" xlink:href="#DejaVuSans-109"/>
      </g>
     </g>
    </g>
    <g id="xtick_5">
     <g id="line2d_5">
      <g>
       <use style="stroke:#000000;stroke-width:0.8;" x="328.269107" xlink:href="#mbf02256bdc" y="288.430125"/>
      </g>
     </g>
     <g id="text_5">
      <!-- 1h:17m -->
      <g transform="translate(309.001919 303.028562)scale(0.1 -0.1)">
       <defs>
        <path d="M 54.890625 33.015625 
L 54.890625 0 
L 45.90625 0 
L 45.90625 32.71875 
Q 45.90625 40.484375 42.875 44.328125 
Q 39.84375 48.1875 33.796875 48.1875 
Q 26.515625 48.1875 22.3125 43.546875 
Q 18.109375 38.921875 18.109375 30.90625 
L 18.109375 0 
L 9.078125 0 
L 9.078125 75.984375 
L 18.109375 75.984375 
L 18.109375 46.1875 
Q 21.34375 51.125 25.703125 53.5625 
Q 30.078125 56 35.796875 56 
Q 45.21875 56 50.046875 50.171875 
Q 54.890625 44.34375 54.890625 33.015625 
z
" id="DejaVuSans-104"/>
        <path d="M 11.71875 12.40625 
L 22.015625 12.40625 
L 22.015625 0 
L 11.71875 0 
z
M 11.71875 51.703125 
L 22.015625 51.703125 
L 22.015625 39.3125 
L 11.71875 39.3125 
z
" id="DejaVuSans-58"/>
        <path d="M 8.203125 72.90625 
L 55.078125 72.90625 
L 55.078125 68.703125 
L 28.609375 0 
L 18.3125 0 
L 43.21875 64.59375 
L 8.203125 64.59375 
z
" id="DejaVuSans-55"/>
       </defs>
       <use xlink:href="#DejaVuSans-49"/>
       <use x="63.623047" xlink:href="#DejaVuSans-104"/>
       <use x="127.001953" xlink:href="#DejaVuSans-58"/>
       <use x="160.693359" xlink:href="#DejaVuSans-49"/>
       <use x="224.316406" xlink:href="#DejaVuSans-55"/>
       <use x="287.939453" xlink:href="#DejaVuSans-109"/>
      </g>
     </g>
    </g>
    <g id="xtick_6">
     <g id="line2d_6">
      <g>
       <use style="stroke:#000000;stroke-width:0.8;" x="387.297364" xlink:href="#mbf02256bdc" y="288.430125"/>
      </g>
     </g>
     <g id="text_6">
      <!-- 1h:57m -->
      <g transform="translate(368.030176 303.028562)scale(0.1 -0.1)">
       <use xlink:href="#DejaVuSans-49"/>
       <use x="63.623047" xlink:href="#DejaVuSans-104"/>
       <use x="127.001953" xlink:href="#DejaVuSans-58"/>
       <use x="160.693359" xlink:href="#DejaVuSans-53"/>
       <use x="224.316406" xlink:href="#DejaVuSans-55"/>
       <use x="287.939453" xlink:href="#DejaVuSans-109"/>
      </g>
     </g>
    </g>
    <g id="xtick_7">
     <g id="line2d_7">
      <g>
       <use style="stroke:#000000;stroke-width:0.8;" x="446.325621" xlink:href="#mbf02256bdc" y="288.430125"/>
      </g>
     </g>
     <g id="text_7">
      <!-- 2h:56m -->
      <g transform="translate(427.058433 303.028562)scale(0.1 -0.1)">
       <defs>
        <path d="M 33.015625 40.375 
Q 26.375 40.375 22.484375 35.828125 
Q 18.609375 31.296875 18.609375 23.390625 
Q 18.609375 15.53125 22.484375 10.953125 
Q 26.375 6.390625 33.015625 6.390625 
Q 39.65625 6.390625 43.53125 10.953125 
Q 47.40625 15.53125 47.40625 23.390625 
Q 47.40625 31.296875 43.53125 35.828125 
Q 39.65625 40.375 33.015625 40.375 
z
M 52.59375 71.296875 
L 52.59375 62.3125 
Q 48.875 64.0625 45.09375 64.984375 
Q 41.3125 65.921875 37.59375 65.921875 
Q 27.828125 65.921875 22.671875 59.328125 
Q 17.53125 52.734375 16.796875 39.40625 
Q 19.671875 43.65625 24.015625 45.921875 
Q 28.375 48.1875 33.59375 48.1875 
Q 44.578125 48.1875 50.953125 41.515625 
Q 57.328125 34.859375 57.328125 23.390625 
Q 57.328125 12.15625 50.6875 5.359375 
Q 44.046875 -1.421875 33.015625 -1.421875 
Q 20.359375 -1.421875 13.671875 8.265625 
Q 6.984375 17.96875 6.984375 36.375 
Q 6.984375 53.65625 15.1875 63.9375 
Q 23.390625 74.21875 37.203125 74.21875 
Q 40.921875 74.21875 44.703125 73.484375 
Q 48.484375 72.75 52.59375 71.296875 
z
" id="DejaVuSans-54"/>
       </defs>
       <use xlink:href="#DejaVuSans-50"/>
       <use x="63.623047" xlink:href="#DejaVuSans-104"/>
       <use x="127.001953" xlink:href="#DejaVuSans-58"/>
       <use x="160.693359" xlink:href="#DejaVuSans-53"/>
       <use x="224.316406" xlink:href="#DejaVuSans-54"/>
       <use x="287.939453" xlink:href="#DejaVuSans-109"/>
      </g>
     </g>
    </g>
    <g id="xtick_8">
     <g id="line2d_8">
      <g>
       <use style="stroke:#000000;stroke-width:0.8;" x="505.353877" xlink:href="#mbf02256bdc" y="288.430125"/>
      </g>
     </g>
     <g id="text_8">
      <!-- 4h:26m -->
      <g transform="translate(486.08669 303.028562)scale(0.1 -0.1)">
       <use xlink:href="#DejaVuSans-52"/>
       <use x="63.623047" xlink:href="#DejaVuSans-104"/>
       <use x="127.001953" xlink:href="#DejaVuSans-58"/>
       <use x="160.693359" xlink:href="#DejaVuSans-50"/>
       <use x="224.316406" xlink:href="#DejaVuSans-54"/>
       <use x="287.939453" xlink:href="#DejaVuSans-109"/>
      </g>
     </g>
    </g>
    <g id="xtick_9">
     <g id="line2d_9">
      <g>
       <use style="stroke:#000000;stroke-width:0.8;" x="564.382134" xlink:href="#mbf02256bdc" y="288.430125"/>
      </g>
     </g>
     <g id="text_9">
      <!-- 6h:42m -->
      <g transform="translate(545.114947 303.028562)scale(0.1 -0.1)">
       <use xlink:href="#DejaVuSans-54"/>
       <use x="63.623047" xlink:href="#DejaVuSans-104"/>
       <use x="127.001953" xlink:href="#DejaVuSans-58"/>
       <use x="160.693359" xlink:href="#DejaVuSans-52"/>
       <use x="224.316406" xlink:href="#DejaVuSans-50"/>
       <use x="287.939453" xlink:href="#DejaVuSans-109"/>
      </g>
     </g>
    </g>
    <g id="xtick_10">
     <g id="line2d_10">
      <g>
       <use style="stroke:#000000;stroke-width:0.8;" x="623.410391" xlink:href="#mbf02256bdc" y="288.430125"/>
      </g>
     </g>
     <g id="text_10">
      <!-- 10h:6m -->
      <g transform="translate(604.143204 303.028562)scale(0.1 -0.1)">
       <defs>
        <path d="M 31.78125 66.40625 
Q 24.171875 66.40625 20.328125 58.90625 
Q 16.5 51.421875 16.5 36.375 
Q 16.5 21.390625 20.328125 13.890625 
Q 24.171875 6.390625 31.78125 6.390625 
Q 39.453125 6.390625 43.28125 13.890625 
Q 47.125 21.390625 47.125 36.375 
Q 47.125 51.421875 43.28125 58.90625 
Q 39.453125 66.40625 31.78125 66.40625 
z
M 31.78125 74.21875 
Q 44.046875 74.21875 50.515625 64.515625 
Q 56.984375 54.828125 56.984375 36.375 
Q 56.984375 17.96875 50.515625 8.265625 
Q 44.046875 -1.421875 31.78125 -1.421875 
Q 19.53125 -1.421875 13.0625 8.265625 
Q 6.59375 17.96875 6.59375 36.375 
Q 6.59375 54.828125 13.0625 64.515625 
Q 19.53125 74.21875 31.78125 74.21875 
z
" id="DejaVuSans-48"/>
       </defs>
       <use xlink:href="#DejaVuSans-49"/>
       <use x="63.623047" xlink:href="#DejaVuSans-48"/>
       <use x="127.246094" xlink:href="#DejaVuSans-104"/>
       <use x="190.625" xlink:href="#DejaVuSans-58"/>
       <use x="224.316406" xlink:href="#DejaVuSans-54"/>
       <use x="287.939453" xlink:href="#DejaVuSans-109"/>
      </g>
     </g>
    </g>
    <g id="xtick_11">
     <g id="line2d_11">
      <g>
       <use style="stroke:#000000;stroke-width:0.8;" x="682.438648" xlink:href="#mbf02256bdc" y="288.430125"/>
      </g>
     </g>
     <g id="text_11">
      <!-- 15h:14m -->
      <g transform="translate(659.99021 303.028562)scale(0.1 -0.1)">
       <use xlink:href="#DejaVuSans-49"/>
       <use x="63.623047" xlink:href="#DejaVuSans-53"/>
       <use x="127.246094" xlink:href="#DejaVuSans-104"/>
       <use x="190.625" xlink:href="#DejaVuSans-58"/>
       <use x="224.316406" xlink:href="#DejaVuSans-49"/>
       <use x="287.939453" xlink:href="#DejaVuSans-52"/>
       <use x="351.5625" xlink:href="#DejaVuSans-109"/>
      </g>
     </g>
    </g>
    <g id="xtick_12">
     <g id="line2d_12">
      <g>
       <use style="stroke:#000000;stroke-width:0.8;" x="741.466905" xlink:href="#mbf02256bdc" y="288.430125"/>
      </g>
     </g>
     <g id="text_12">
      <!-- 23h -->
      <g transform="translate(731.935655 303.028562)scale(0.1 -0.1)">
       <use xlink:href="#DejaVuSans-50"/>
       <use x="63.623047" xlink:href="#DejaVuSans-51"/>
       <use x="127.246094" xlink:href="#DejaVuSans-104"/>
      </g>
     </g>
    </g>
    <g id="xtick_13">
     <g id="line2d_13">
      <defs>
       <path d="M 0 0 
L 0 2 
" id="m9c63372711" style="stroke:#000000;stroke-width:0.6;"/>
      </defs>
      <g>
       <use style="stroke:#000000;stroke-width:0.6;" x="75.24295" xlink:href="#m9c63372711" y="288.430125"/>
      </g>
     </g>
    </g>
    <g id="xtick_14">
     <g id="line2d_14">
      <g>
       <use style="stroke:#000000;stroke-width:0.6;" x="206.818297" xlink:href="#m9c63372711" y="288.430125"/>
      </g>
     </g>
    </g>
    <g id="xtick_15">
     <g id="line2d_15">
      <g>
       <use style="stroke:#000000;stroke-width:0.6;" x="265.041316" xlink:href="#m9c63372711" y="288.430125"/>
      </g>
     </g>
    </g>
    <g id="xtick_16">
     <g id="line2d_16">
      <g>
       <use style="stroke:#000000;stroke-width:0.6;" x="306.351205" xlink:href="#m9c63372711" y="288.430125"/>
      </g>
     </g>
    </g>
    <g id="xtick_17">
     <g id="line2d_17">
      <g>
       <use style="stroke:#000000;stroke-width:0.6;" x="338.393644" xlink:href="#m9c63372711" y="288.430125"/>
      </g>
     </g>
    </g>
    <g id="xtick_18">
     <g id="line2d_18">
      <g>
       <use style="stroke:#000000;stroke-width:0.6;" x="364.574224" xlink:href="#m9c63372711" y="288.430125"/>
      </g>
     </g>
    </g>
    <g id="xtick_19">
     <g id="line2d_19">
      <g>
       <use style="stroke:#000000;stroke-width:0.6;" x="386.709588" xlink:href="#m9c63372711" y="288.430125"/>
      </g>
     </g>
    </g>
    <g id="xtick_20">
     <g id="line2d_20">
      <g>
       <use style="stroke:#000000;stroke-width:0.6;" x="405.884113" xlink:href="#m9c63372711" y="288.430125"/>
      </g>
     </g>
    </g>
    <g id="xtick_21">
     <g id="line2d_21">
      <g>
       <use style="stroke:#000000;stroke-width:0.6;" x="422.797242" xlink:href="#m9c63372711" y="288.430125"/>
      </g>
     </g>
    </g>
    <g id="xtick_22">
     <g id="line2d_22">
      <g>
       <use style="stroke:#000000;stroke-width:0.6;" x="537.45946" xlink:href="#m9c63372711" y="288.430125"/>
      </g>
     </g>
    </g>
    <g id="xtick_23">
     <g id="line2d_23">
      <g>
       <use style="stroke:#000000;stroke-width:0.6;" x="595.682479" xlink:href="#m9c63372711" y="288.430125"/>
      </g>
     </g>
    </g>
    <g id="xtick_24">
     <g id="line2d_24">
      <g>
       <use style="stroke:#000000;stroke-width:0.6;" x="636.992368" xlink:href="#m9c63372711" y="288.430125"/>
      </g>
     </g>
    </g>
    <g id="xtick_25">
     <g id="line2d_25">
      <g>
       <use style="stroke:#000000;stroke-width:0.6;" x="669.034807" xlink:href="#m9c63372711" y="288.430125"/>
      </g>
     </g>
    </g>
    <g id="xtick_26">
     <g id="line2d_26">
      <g>
       <use style="stroke:#000000;stroke-width:0.6;" x="695.215387" xlink:href="#m9c63372711" y="288.430125"/>
      </g>
     </g>
    </g>
    <g id="xtick_27">
     <g id="line2d_27">
      <g>
       <use style="stroke:#000000;stroke-width:0.6;" x="717.350751" xlink:href="#m9c63372711" y="288.430125"/>
      </g>
     </g>
    </g>
    <g id="xtick_28">
     <g id="line2d_28">
      <g>
       <use style="stroke:#000000;stroke-width:0.6;" x="736.525276" xlink:href="#m9c63372711" y="288.430125"/>
      </g>
     </g>
    </g>
    <g id="xtick_29">
     <g id="line2d_29">
      <g>
       <use style="stroke:#000000;stroke-width:0.6;" x="753.438405" xlink:href="#m9c63372711" y="288.430125"/>
      </g>
     </g>
    </g>
    <g id="text_13">
     <!-- Time (hour:minute) -->
     <g transform="translate(368.403594 316.706687)scale(0.1 -0.1)">
      <defs>
       <path d="M -0.296875 72.90625 
L 61.375 72.90625 
L 61.375 64.59375 
L 35.5 64.59375 
L 35.5 0 
L 25.59375 0 
L 25.59375 64.59375 
L -0.296875 64.59375 
z
" id="DejaVuSans-84"/>
       <path d="M 9.421875 54.6875 
L 18.40625 54.6875 
L 18.40625 0 
L 9.421875 0 
z
M 9.421875 75.984375 
L 18.40625 75.984375 
L 18.40625 64.59375 
L 9.421875 64.59375 
z
" id="DejaVuSans-105"/>
       <path d="M 56.203125 29.59375 
L 56.203125 25.203125 
L 14.890625 25.203125 
Q 15.484375 15.921875 20.484375 11.0625 
Q 25.484375 6.203125 34.421875 6.203125 
Q 39.59375 6.203125 44.453125 7.46875 
Q 49.3125 8.734375 54.109375 11.28125 
L 54.109375 2.78125 
Q 49.265625 0.734375 44.1875 -0.34375 
Q 39.109375 -1.421875 33.890625 -1.421875 
Q 20.796875 -1.421875 13.15625 6.1875 
Q 5.515625 13.8125 5.515625 26.8125 
Q 5.515625 40.234375 12.765625 48.109375 
Q 20.015625 56 32.328125 56 
Q 43.359375 56 49.78125 48.890625 
Q 56.203125 41.796875 56.203125 29.59375 
z
M 47.21875 32.234375 
Q 47.125 39.59375 43.09375 43.984375 
Q 39.0625 48.390625 32.421875 48.390625 
Q 24.90625 48.390625 20.390625 44.140625 
Q 15.875 39.890625 15.1875 32.171875 
z
" id="DejaVuSans-101"/>
       <path id="DejaVuSans-32"/>
       <path d="M 31 75.875 
Q 24.46875 64.65625 21.28125 53.65625 
Q 18.109375 42.671875 18.109375 31.390625 
Q 18.109375 20.125 21.3125 9.0625 
Q 24.515625 -2 31 -13.1875 
L 23.1875 -13.1875 
Q 15.875 -1.703125 12.234375 9.375 
Q 8.59375 20.453125 8.59375 31.390625 
Q 8.59375 42.28125 12.203125 53.3125 
Q 15.828125 64.359375 23.1875 75.875 
z
" id="DejaVuSans-40"/>
       <path d="M 30.609375 48.390625 
Q 23.390625 48.390625 19.1875 42.75 
Q 14.984375 37.109375 14.984375 27.296875 
Q 14.984375 17.484375 19.15625 11.84375 
Q 23.34375 6.203125 30.609375 6.203125 
Q 37.796875 6.203125 41.984375 11.859375 
Q 46.1875 17.53125 46.1875 27.296875 
Q 46.1875 37.015625 41.984375 42.703125 
Q 37.796875 48.390625 30.609375 48.390625 
z
M 30.609375 56 
Q 42.328125 56 49.015625 48.375 
Q 55.71875 40.765625 55.71875 27.296875 
Q 55.71875 13.875 49.015625 6.21875 
Q 42.328125 -1.421875 30.609375 -1.421875 
Q 18.84375 -1.421875 12.171875 6.21875 
Q 5.515625 13.875 5.515625 27.296875 
Q 5.515625 40.765625 12.171875 48.375 
Q 18.84375 56 30.609375 56 
z
" id="DejaVuSans-111"/>
       <path d="M 8.5 21.578125 
L 8.5 54.6875 
L 17.484375 54.6875 
L 17.484375 21.921875 
Q 17.484375 14.15625 20.5 10.265625 
Q 23.53125 6.390625 29.59375 6.390625 
Q 36.859375 6.390625 41.078125 11.03125 
Q 45.3125 15.671875 45.3125 23.6875 
L 45.3125 54.6875 
L 54.296875 54.6875 
L 54.296875 0 
L 45.3125 0 
L 45.3125 8.40625 
Q 42.046875 3.421875 37.71875 1 
Q 33.40625 -1.421875 27.6875 -1.421875 
Q 18.265625 -1.421875 13.375 4.4375 
Q 8.5 10.296875 8.5 21.578125 
z
M 31.109375 56 
z
" id="DejaVuSans-117"/>
       <path d="M 41.109375 46.296875 
Q 39.59375 47.171875 37.8125 47.578125 
Q 36.03125 48 33.890625 48 
Q 26.265625 48 22.1875 43.046875 
Q 18.109375 38.09375 18.109375 28.8125 
L 18.109375 0 
L 9.078125 0 
L 9.078125 54.6875 
L 18.109375 54.6875 
L 18.109375 46.1875 
Q 20.953125 51.171875 25.484375 53.578125 
Q 30.03125 56 36.53125 56 
Q 37.453125 56 38.578125 55.875 
Q 39.703125 55.765625 41.0625 55.515625 
z
" id="DejaVuSans-114"/>
       <path d="M 54.890625 33.015625 
L 54.890625 0 
L 45.90625 0 
L 45.90625 32.71875 
Q 45.90625 40.484375 42.875 44.328125 
Q 39.84375 48.1875 33.796875 48.1875 
Q 26.515625 48.1875 22.3125 43.546875 
Q 18.109375 38.921875 18.109375 30.90625 
L 18.109375 0 
L 9.078125 0 
L 9.078125 54.6875 
L 18.109375 54.6875 
L 18.109375 46.1875 
Q 21.34375 51.125 25.703125 53.5625 
Q 30.078125 56 35.796875 56 
Q 45.21875 56 50.046875 50.171875 
Q 54.890625 44.34375 54.890625 33.015625 
z
" id="DejaVuSans-110"/>
       <path d="M 18.3125 70.21875 
L 18.3125 54.6875 
L 36.8125 54.6875 
L 36.8125 47.703125 
L 18.3125 47.703125 
L 18.3125 18.015625 
Q 18.3125 11.328125 20.140625 9.421875 
Q 21.96875 7.515625 27.59375 7.515625 
L 36.8125 7.515625 
L 36.8125 0 
L 27.59375 0 
Q 17.1875 0 13.234375 3.875 
Q 9.28125 7.765625 9.28125 18.015625 
L 9.28125 47.703125 
L 2.6875 47.703125 
L 2.6875 54.6875 
L 9.28125 54.6875 
L 9.28125 70.21875 
z
" id="DejaVuSans-116"/>
       <path d="M 8.015625 75.875 
L 15.828125 75.875 
Q 23.140625 64.359375 26.78125 53.3125 
Q 30.421875 42.28125 30.421875 31.390625 
Q 30.421875 20.453125 26.78125 9.375 
Q 23.140625 -1.703125 15.828125 -13.1875 
L 8.015625 -13.1875 
Q 14.5 -2 17.703125 9.0625 
Q 20.90625 20.125 20.90625 31.390625 
Q 20.90625 42.671875 17.703125 53.65625 
Q 14.5 64.65625 8.015625 75.875 
z
" id="DejaVuSans-41"/>
      </defs>
      <use xlink:href="#DejaVuSans-84"/>
      <use x="57.958984" xlink:href="#DejaVuSans-105"/>
      <use x="85.742188" xlink:href="#DejaVuSans-109"/>
      <use x="183.154297" xlink:href="#DejaVuSans-101"/>
      <use x="244.677734" xlink:href="#DejaVuSans-32"/>
      <use x="276.464844" xlink:href="#DejaVuSans-40"/>
      <use x="315.478516" xlink:href="#DejaVuSans-104"/>
      <use x="378.857422" xlink:href="#DejaVuSans-111"/>
      <use x="440.039062" xlink:href="#DejaVuSans-117"/>
      <use x="503.417969" xlink:href="#DejaVuSans-114"/>
      <use x="542.78125" xlink:href="#DejaVuSans-58"/>
      <use x="576.472656" xlink:href="#DejaVuSans-109"/>
      <use x="673.884766" xlink:href="#DejaVuSans-105"/>
      <use x="701.667969" xlink:href="#DejaVuSans-110"/>
      <use x="765.046875" xlink:href="#DejaVuSans-117"/>
      <use x="828.425781" xlink:href="#DejaVuSans-116"/>
      <use x="867.634766" xlink:href="#DejaVuSans-101"/>
      <use x="929.158203" xlink:href="#DejaVuSans-41"/>
     </g>
    </g>
   </g>
   <g id="matplotlib.axis_2">
    <g id="ytick_1">
     <g id="line2d_30">
      <defs>
       <path d="M 0 0 
L -3.5 0 
" id="m8ef3c82b26" style="stroke:#000000;stroke-width:0.8;"/>
      </defs>
      <g>
       <use style="stroke:#000000;stroke-width:0.8;" x="59.690625" xlink:href="#m8ef3c82b26" y="284.449775"/>
      </g>
     </g>
     <g id="text_14">
      <!-- 17500 -->
      <g transform="translate(20.878125 288.248994)scale(0.1 -0.1)">
       <use xlink:href="#DejaVuSans-49"/>
       <use x="63.623047" xlink:href="#DejaVuSans-55"/>
       <use x="127.246094" xlink:href="#DejaVuSans-53"/>
       <use x="190.869141" xlink:href="#DejaVuSans-48"/>
       <use x="254.492188" xlink:href="#DejaVuSans-48"/>
      </g>
     </g>
    </g>
    <g id="ytick_2">
     <g id="line2d_31">
      <g>
       <use style="stroke:#000000;stroke-width:0.8;" x="59.690625" xlink:href="#m8ef3c82b26" y="248.431445"/>
      </g>
     </g>
     <g id="text_15">
      <!-- 20000 -->
      <g transform="translate(20.878125 252.230663)scale(0.1 -0.1)">
       <use xlink:href="#DejaVuSans-50"/>
       <use x="63.623047" xlink:href="#DejaVuSans-48"/>
       <use x="127.246094" xlink:href="#DejaVuSans-48"/>
       <use x="190.869141" xlink:href="#DejaVuSans-48"/>
       <use x="254.492188" xlink:href="#DejaVuSans-48"/>
      </g>
     </g>
    </g>
    <g id="ytick_3">
     <g id="line2d_32">
      <g>
       <use style="stroke:#000000;stroke-width:0.8;" x="59.690625" xlink:href="#m8ef3c82b26" y="212.413114"/>
      </g>
     </g>
     <g id="text_16">
      <!-- 22500 -->
      <g transform="translate(20.878125 216.212333)scale(0.1 -0.1)">
       <use xlink:href="#DejaVuSans-50"/>
       <use x="63.623047" xlink:href="#DejaVuSans-50"/>
       <use x="127.246094" xlink:href="#DejaVuSans-53"/>
       <use x="190.869141" xlink:href="#DejaVuSans-48"/>
       <use x="254.492188" xlink:href="#DejaVuSans-48"/>
      </g>
     </g>
    </g>
    <g id="ytick_4">
     <g id="line2d_33">
      <g>
       <use style="stroke:#000000;stroke-width:0.8;" x="59.690625" xlink:href="#m8ef3c82b26" y="176.394783"/>
      </g>
     </g>
     <g id="text_17">
      <!-- 25000 -->
      <g transform="translate(20.878125 180.194002)scale(0.1 -0.1)">
       <use xlink:href="#DejaVuSans-50"/>
       <use x="63.623047" xlink:href="#DejaVuSans-53"/>
       <use x="127.246094" xlink:href="#DejaVuSans-48"/>
       <use x="190.869141" xlink:href="#DejaVuSans-48"/>
       <use x="254.492188" xlink:href="#DejaVuSans-48"/>
      </g>
     </g>
    </g>
    <g id="ytick_5">
     <g id="line2d_34">
      <g>
       <use style="stroke:#000000;stroke-width:0.8;" x="59.690625" xlink:href="#m8ef3c82b26" y="140.376452"/>
      </g>
     </g>
     <g id="text_18">
      <!-- 27500 -->
      <g transform="translate(20.878125 144.175671)scale(0.1 -0.1)">
       <use xlink:href="#DejaVuSans-50"/>
       <use x="63.623047" xlink:href="#DejaVuSans-55"/>
       <use x="127.246094" xlink:href="#DejaVuSans-53"/>
       <use x="190.869141" xlink:href="#DejaVuSans-48"/>
       <use x="254.492188" xlink:href="#DejaVuSans-48"/>
      </g>
     </g>
    </g>
    <g id="ytick_6">
     <g id="line2d_35">
      <g>
       <use style="stroke:#000000;stroke-width:0.8;" x="59.690625" xlink:href="#m8ef3c82b26" y="104.358121"/>
      </g>
     </g>
     <g id="text_19">
      <!-- 30000 -->
      <g transform="translate(20.878125 108.15734)scale(0.1 -0.1)">
       <use xlink:href="#DejaVuSans-51"/>
       <use x="63.623047" xlink:href="#DejaVuSans-48"/>
       <use x="127.246094" xlink:href="#DejaVuSans-48"/>
       <use x="190.869141" xlink:href="#DejaVuSans-48"/>
       <use x="254.492188" xlink:href="#DejaVuSans-48"/>
      </g>
     </g>
    </g>
    <g id="ytick_7">
     <g id="line2d_36">
      <g>
       <use style="stroke:#000000;stroke-width:0.8;" x="59.690625" xlink:href="#m8ef3c82b26" y="68.339791"/>
      </g>
     </g>
     <g id="text_20">
      <!-- 32500 -->
      <g transform="translate(20.878125 72.139009)scale(0.1 -0.1)">
       <use xlink:href="#DejaVuSans-51"/>
       <use x="63.623047" xlink:href="#DejaVuSans-50"/>
       <use x="127.246094" xlink:href="#DejaVuSans-53"/>
       <use x="190.869141" xlink:href="#DejaVuSans-48"/>
       <use x="254.492188" xlink:href="#DejaVuSans-48"/>
      </g>
     </g>
    </g>
    <g id="ytick_8">
     <g id="line2d_37">
      <g>
       <use style="stroke:#000000;stroke-width:0.8;" x="59.690625" xlink:href="#m8ef3c82b26" y="32.32146"/>
      </g>
     </g>
     <g id="text_21">
      <!-- 35000 -->
      <g transform="translate(20.878125 36.120679)scale(0.1 -0.1)">
       <use xlink:href="#DejaVuSans-51"/>
       <use x="63.623047" xlink:href="#DejaVuSans-53"/>
       <use x="127.246094" xlink:href="#DejaVuSans-48"/>
       <use x="190.869141" xlink:href="#DejaVuSans-48"/>
       <use x="254.492188" xlink:href="#DejaVuSans-48"/>
      </g>
     </g>
    </g>
    <g id="text_22">
     <!-- Edge coverage -->
     <g transform="translate(14.798437 192.762406)rotate(-90)scale(0.1 -0.1)">
      <defs>
       <path d="M 9.8125 72.90625 
L 55.90625 72.90625 
L 55.90625 64.59375 
L 19.671875 64.59375 
L 19.671875 43.015625 
L 54.390625 43.015625 
L 54.390625 34.71875 
L 19.671875 34.71875 
L 19.671875 8.296875 
L 56.78125 8.296875 
L 56.78125 0 
L 9.8125 0 
z
" id="DejaVuSans-69"/>
       <path d="M 45.40625 46.390625 
L 45.40625 75.984375 
L 54.390625 75.984375 
L 54.390625 0 
L 45.40625 0 
L 45.40625 8.203125 
Q 42.578125 3.328125 38.25 0.953125 
Q 33.9375 -1.421875 27.875 -1.421875 
Q 17.96875 -1.421875 11.734375 6.484375 
Q 5.515625 14.40625 5.515625 27.296875 
Q 5.515625 40.1875 11.734375 48.09375 
Q 17.96875 56 27.875 56 
Q 33.9375 56 38.25 53.625 
Q 42.578125 51.265625 45.40625 46.390625 
z
M 14.796875 27.296875 
Q 14.796875 17.390625 18.875 11.75 
Q 22.953125 6.109375 30.078125 6.109375 
Q 37.203125 6.109375 41.296875 11.75 
Q 45.40625 17.390625 45.40625 27.296875 
Q 45.40625 37.203125 41.296875 42.84375 
Q 37.203125 48.484375 30.078125 48.484375 
Q 22.953125 48.484375 18.875 42.84375 
Q 14.796875 37.203125 14.796875 27.296875 
z
" id="DejaVuSans-100"/>
       <path d="M 45.40625 27.984375 
Q 45.40625 37.75 41.375 43.109375 
Q 37.359375 48.484375 30.078125 48.484375 
Q 22.859375 48.484375 18.828125 43.109375 
Q 14.796875 37.75 14.796875 27.984375 
Q 14.796875 18.265625 18.828125 12.890625 
Q 22.859375 7.515625 30.078125 7.515625 
Q 37.359375 7.515625 41.375 12.890625 
Q 45.40625 18.265625 45.40625 27.984375 
z
M 54.390625 6.78125 
Q 54.390625 -7.171875 48.1875 -13.984375 
Q 42 -20.796875 29.203125 -20.796875 
Q 24.46875 -20.796875 20.265625 -20.09375 
Q 16.0625 -19.390625 12.109375 -17.921875 
L 12.109375 -9.1875 
Q 16.0625 -11.328125 19.921875 -12.34375 
Q 23.78125 -13.375 27.78125 -13.375 
Q 36.625 -13.375 41.015625 -8.765625 
Q 45.40625 -4.15625 45.40625 5.171875 
L 45.40625 9.625 
Q 42.625 4.78125 38.28125 2.390625 
Q 33.9375 0 27.875 0 
Q 17.828125 0 11.671875 7.65625 
Q 5.515625 15.328125 5.515625 27.984375 
Q 5.515625 40.671875 11.671875 48.328125 
Q 17.828125 56 27.875 56 
Q 33.9375 56 38.28125 53.609375 
Q 42.625 51.21875 45.40625 46.390625 
L 45.40625 54.6875 
L 54.390625 54.6875 
z
" id="DejaVuSans-103"/>
       <path d="M 48.78125 52.59375 
L 48.78125 44.1875 
Q 44.96875 46.296875 41.140625 47.34375 
Q 37.3125 48.390625 33.40625 48.390625 
Q 24.65625 48.390625 19.8125 42.84375 
Q 14.984375 37.3125 14.984375 27.296875 
Q 14.984375 17.28125 19.8125 11.734375 
Q 24.65625 6.203125 33.40625 6.203125 
Q 37.3125 6.203125 41.140625 7.25 
Q 44.96875 8.296875 48.78125 10.40625 
L 48.78125 2.09375 
Q 45.015625 0.34375 40.984375 -0.53125 
Q 36.96875 -1.421875 32.421875 -1.421875 
Q 20.0625 -1.421875 12.78125 6.34375 
Q 5.515625 14.109375 5.515625 27.296875 
Q 5.515625 40.671875 12.859375 48.328125 
Q 20.21875 56 33.015625 56 
Q 37.15625 56 41.109375 55.140625 
Q 45.0625 54.296875 48.78125 52.59375 
z
" id="DejaVuSans-99"/>
       <path d="M 2.984375 54.6875 
L 12.5 54.6875 
L 29.59375 8.796875 
L 46.6875 54.6875 
L 56.203125 54.6875 
L 35.6875 0 
L 23.484375 0 
z
" id="DejaVuSans-118"/>
       <path d="M 34.28125 27.484375 
Q 23.390625 27.484375 19.1875 25 
Q 14.984375 22.515625 14.984375 16.5 
Q 14.984375 11.71875 18.140625 8.90625 
Q 21.296875 6.109375 26.703125 6.109375 
Q 34.1875 6.109375 38.703125 11.40625 
Q 43.21875 16.703125 43.21875 25.484375 
L 43.21875 27.484375 
z
M 52.203125 31.203125 
L 52.203125 0 
L 43.21875 0 
L 43.21875 8.296875 
Q 40.140625 3.328125 35.546875 0.953125 
Q 30.953125 -1.421875 24.3125 -1.421875 
Q 15.921875 -1.421875 10.953125 3.296875 
Q 6 8.015625 6 15.921875 
Q 6 25.140625 12.171875 29.828125 
Q 18.359375 34.515625 30.609375 34.515625 
L 43.21875 34.515625 
L 43.21875 35.40625 
Q 43.21875 41.609375 39.140625 45 
Q 35.0625 48.390625 27.6875 48.390625 
Q 23 48.390625 18.546875 47.265625 
Q 14.109375 46.140625 10.015625 43.890625 
L 10.015625 52.203125 
Q 14.9375 54.109375 19.578125 55.046875 
Q 24.21875 56 28.609375 56 
Q 40.484375 56 46.34375 49.84375 
Q 52.203125 43.703125 52.203125 31.203125 
z
" id="DejaVuSans-97"/>
      </defs>
      <use xlink:href="#DejaVuSans-69"/>
      <use x="63.183594" xlink:href="#DejaVuSans-100"/>
      <use x="126.660156" xlink:href="#DejaVuSans-103"/>
      <use x="190.136719" xlink:href="#DejaVuSans-101"/>
      <use x="251.660156" xlink:href="#DejaVuSans-32"/>
      <use x="283.447266" xlink:href="#DejaVuSans-99"/>
      <use x="338.427734" xlink:href="#DejaVuSans-111"/>
      <use x="399.609375" xlink:href="#DejaVuSans-118"/>
      <use x="458.789062" xlink:href="#DejaVuSans-101"/>
      <use x="520.3125" xlink:href="#DejaVuSans-114"/>
      <use x="561.425781" xlink:href="#DejaVuSans-97"/>
      <use x="622.705078" xlink:href="#DejaVuSans-103"/>
      <use x="686.181641" xlink:href="#DejaVuSans-101"/>
     </g>
    </g>
   </g>
   <g id="line2d_38">
    <path clip-path="url(#p2d9923565f)" d="M 92.15608 227.326143 
L 191.688987 214.132629 
L 249.912006 201.880633 
L 291.221895 194.119404 
L 323.264335 187.533092 
L 349.444914 182.332765 
L 371.580278 175.52386 
L 390.754803 169.799827 
L 407.667933 162.528446 
L 422.797242 155.421309 
L 436.483368 149.023013 
L 448.977822 141.702647 
L 460.471605 135.993021 
L 471.113186 130.733625 
L 481.020261 124.519742 
L 490.287711 121.095119 
L 498.993142 115.556941 
L 507.20084 111.123805 
L 514.964657 107.916733 
L 522.33015 104.43304 
L 529.336205 100.399707 
L 536.016276 97.235857 
L 542.399355 94.656944 
L 548.51073 91.318045 
L 554.37259 89.120927 
L 560.004513 86.251707 
L 565.423859 82.868145 
L 570.646094 80.798531 
L 575.685054 77.910582 
L 580.553169 75.622697 
L 585.261644 72.989757 
L 589.820619 71.104558 
L 594.239294 69.039267 
L 598.52605 67.310387 
L 602.688533 65.637696 
L 606.733748 64.096831 
L 610.668121 62.46232 
L 614.497565 61.203119 
L 618.227531 60.319949 
L 621.863058 59.656492 
L 625.408809 58.284193 
L 628.869113 56.820408 
L 632.247989 55.82126 
L 635.549184 55.288909 
L 638.776188 54.595916 
L 641.932263 53.809996 
L 645.02046 52.847586 
L 648.043637 52.241038 
L 651.004477 51.982426 
L 653.905497 51.179217 
L 656.749068 50.698733 
L 659.537421 50.149093 
L 662.272658 49.684457 
L 664.956767 48.961208 
L 667.591623 48.581575 
L 670.179002 48.248766 
L 672.720584 47.822309 
L 675.217962 47.410979 
L 677.672648 47.127155 
L 680.086077 46.754725 
L 682.459612 46.341955 
L 684.794552 46.071098 
L 687.092131 45.66265 
L 689.353527 45.09428 
L 691.57986 44.663501 
L 693.772202 44.390482 
L 695.931576 44.064156 
L 698.058957 43.624012 
L 700.155281 43.047719 
L 702.221441 42.544903 
L 704.258293 42.207771 
L 706.266656 41.938354 
L 708.247317 41.373587 
L 710.201029 40.941367 
L 712.128516 40.703646 
L 714.030473 40.481773 
L 715.907567 40.110784 
L 717.760439 39.777975 
L 719.589708 39.698734 
L 721.395966 39.338551 
L 723.179786 39.088584 
L 724.941717 38.25584 
L 726.682292 37.785441 
L 728.40202 37.320804 
L 730.101397 36.934688 
L 731.780897 36.570903 
L 733.440981 36.380726 
L 735.082091 36.068087 
L 736.704658 35.670444 
L 738.309095 35.407511 
L 739.895804 34.85715 
L 741.46517 34.414125 
" style="fill:none;stroke:#c5b0d5;stroke-linecap:square;stroke-width:1.5;"/>
   </g>
   <g id="line2d_39">
    <path clip-path="url(#p2d9923565f)" d="M 92.15608 247.845066 
L 191.688987 192.407092 
L 249.912006 161.270686 
L 291.221895 143.146982 
L 323.264335 134.209394 
L 349.444914 126.124719 
L 371.580278 120.049147 
L 390.754803 116.730418 
L 407.667933 112.112148 
L 422.797242 108.417387 
L 436.483368 104.715423 
L 448.977822 99.372464 
L 460.471605 96.57456 
L 471.113186 94.599315 
L 481.020261 92.647121 
L 490.287711 90.990278 
L 498.993142 89.360809 
L 507.20084 88.333566 
L 514.964657 86.443324 
L 522.33015 84.424857 
L 529.336205 83.440836 
L 536.016276 81.747975 
L 542.399355 80.08897 
L 548.51073 79.359239 
L 554.37259 78.646076 
L 560.004513 77.584256 
L 565.423859 76.84588 
L 570.646094 76.157209 
L 575.685054 75.564348 
L 580.553169 74.947714 
L 585.261644 74.400955 
L 589.820619 73.677707 
L 594.239294 72.786614 
L 598.52605 72.309731 
L 602.688533 71.60017 
L 606.733748 71.219816 
L 610.668121 70.798402 
L 614.497565 70.179607 
L 618.227531 69.665986 
L 621.863058 69.113464 
L 625.408809 68.12224 
L 628.869113 67.82761 
L 632.247989 67.549549 
L 635.549184 67.105803 
L 638.776188 66.718245 
L 641.932263 66.426497 
L 645.02046 65.794015 
L 648.043637 65.417263 
L 651.004477 64.984323 
L 653.905497 64.544179 
L 656.749068 63.963564 
L 659.537421 63.699189 
L 662.272658 63.251841 
L 664.956767 62.785044 
L 667.591623 62.271422 
L 670.179002 61.842084 
L 672.720584 61.584913 
L 675.217962 61.315496 
L 677.672648 60.840774 
L 680.086077 60.624664 
L 682.459612 60.417199 
L 684.794552 60.136976 
L 687.092131 59.94752 
L 689.353527 59.689628 
L 691.57986 59.503774 
L 693.772202 59.12198 
L 695.931576 58.849681 
L 698.058957 58.567297 
L 700.155281 58.253938 
L 702.221441 58.141561 
L 704.258293 57.936256 
L 706.266656 57.778496 
L 708.247317 57.417592 
L 710.201029 57.026433 
L 712.128516 56.602137 
L 714.030473 56.167756 
L 715.907567 55.944442 
L 717.760439 55.668542 
L 719.589708 55.44811 
L 721.395966 55.280264 
L 723.179786 55.124665 
L 724.941717 54.790415 
L 726.682292 54.548372 
L 728.40202 54.405019 
L 730.101397 54.241496 
L 731.780897 53.990088 
L 733.440981 53.635667 
L 735.082091 53.493755 
L 736.704658 53.363369 
L 738.309095 53.305739 
L 739.895804 53.023356 
L 741.46517 52.838942 
" style="fill:none;stroke:#ff7f0e;stroke-linecap:square;stroke-width:1.5;"/>
   </g>
   <g id="line2d_40">
    <path clip-path="url(#p2d9923565f)" d="M 92.15608 214.255091 
L 191.688987 200.709317 
L 249.912006 189.308795 
L 291.221895 181.83211 
L 323.264335 175.770225 
L 349.444914 169.465577 
L 371.580278 163.975663 
L 390.754803 159.442395 
L 407.667933 155.744033 
L 422.797242 151.766889 
L 436.483368 147.77894 
L 448.977822 144.702254 
L 460.471605 141.910113 
L 471.113186 139.840499 
L 481.020261 137.839321 
L 490.287711 135.501731 
L 498.993142 133.549538 
L 507.20084 131.689551 
L 514.964657 129.657397 
L 522.33015 128.030809 
L 529.336205 126.854451 
L 536.016276 124.392958 
L 542.399355 123.156088 
L 548.51073 121.809003 
L 554.37259 120.701799 
L 560.004513 119.709134 
L 565.423859 118.87639 
L 570.646094 118.002586 
L 575.685054 117.412605 
L 580.553169 116.347903 
L 585.261644 115.082219 
L 589.820619 114.075147 
L 594.239294 113.251047 
L 598.52605 112.716535 
L 602.688533 112.043713 
L 606.733748 110.888245 
L 610.668121 110.497086 
L 614.497565 109.763032 
L 618.227531 109.086608 
L 621.863058 108.357597 
L 625.408809 107.775541 
L 628.869113 106.793681 
L 632.247989 106.176327 
L 635.549184 105.391127 
L 638.776188 104.577833 
L 641.932263 103.977768 
L 645.02046 103.260283 
L 648.043637 102.609792 
L 651.004477 101.732385 
L 653.905497 101.079733 
L 656.749068 100.517847 
L 659.537421 99.97397 
L 662.272658 98.99067 
L 664.956767 98.614638 
L 667.591623 97.886348 
L 670.179002 97.425313 
L 672.720584 97.027671 
L 675.217962 96.520533 
L 677.672648 96.246073 
L 680.086077 95.801607 
L 682.459612 95.248365 
L 684.794552 94.742668 
L 687.092131 93.88183 
L 689.353527 93.550461 
L 691.57986 93.367488 
L 693.772202 93.045484 
L 695.931576 92.771024 
L 698.058957 92.387069 
L 700.155281 92.139263 
L 702.221441 91.85832 
L 704.258293 91.529833 
L 706.266656 90.939132 
L 708.247317 90.708615 
L 710.201029 90.322498 
L 712.128516 89.977443 
L 714.030473 89.665524 
L 715.907567 89.442931 
L 717.760439 89.196565 
L 719.589708 88.87168 
L 721.395966 88.505734 
L 723.179786 88.231994 
L 724.941717 87.958976 
L 726.682292 87.431667 
L 728.40202 87.218439 
L 730.101397 86.952623 
L 731.780897 86.681045 
L 733.440981 86.320862 
L 735.082091 86.016147 
L 736.704658 85.856225 
L 738.309095 85.563757 
L 739.895804 85.323154 
L 741.46517 84.819618 
" style="fill:none;stroke:#e377c2;stroke-linecap:square;stroke-width:1.5;"/>
   </g>
   <g id="line2d_41">
    <path clip-path="url(#p2d9923565f)" d="M 92.15608 261.44919 
L 191.688987 245.626337 
L 249.912006 233.752534 
L 291.221895 227.24114 
L 323.264335 221.352863 
L 349.444914 216.763408 
L 371.580278 214.536034 
L 390.754803 212.303618 
L 407.667933 209.520121 
L 422.797242 207.246644 
L 436.483368 205.927653 
L 448.977822 204.62523 
L 460.471605 202.71914 
L 471.113186 201.602572 
L 481.020261 200.724445 
L 490.287711 199.602114 
L 498.993142 198.6325 
L 507.20084 197.582926 
L 514.964657 196.33237 
L 522.33015 195.032108 
L 529.336205 193.332043 
L 536.016276 192.234925 
L 542.399355 190.39871 
L 548.51073 189.166883 
L 554.37259 187.430079 
L 560.004513 186.271009 
L 565.423859 184.710695 
L 570.646094 183.295895 
L 575.685054 181.658502 
L 580.553169 180.492949 
L 585.261644 179.018358 
L 589.820619 177.084174 
L 594.239294 175.871797 
L 598.52605 174.534076 
L 602.688533 172.463742 
L 606.733748 170.457521 
L 610.668121 168.98149 
L 614.497565 167.364987 
L 618.227531 165.508603 
L 621.863058 163.59747 
L 625.408809 162.081819 
L 628.869113 159.203954 
L 632.247989 157.320916 
L 635.549184 155.471014 
L 638.776188 153.053464 
L 641.932263 152.098258 
L 645.02046 150.578284 
L 648.043637 149.170688 
L 651.004477 147.399306 
L 653.905497 145.274945 
L 656.749068 143.631789 
L 659.537421 142.326485 
L 662.272658 140.797867 
L 664.956767 139.138862 
L 667.591623 137.984835 
L 670.179002 136.522491 
L 672.720584 134.992432 
L 675.217962 133.401863 
L 677.672648 132.029564 
L 680.086077 130.194791 
L 682.459612 128.079794 
L 684.794552 126.664994 
L 687.092131 124.649408 
L 689.353527 122.616534 
L 691.57986 121.226947 
L 693.772202 119.954779 
L 695.931576 118.650916 
L 698.058957 117.056024 
L 700.155281 115.636181 
L 702.221441 113.536313 
L 704.258293 112.54797 
L 706.266656 111.50776 
L 708.247317 109.457597 
L 710.201029 107.619221 
L 712.128516 106.666176 
L 714.030473 105.354389 
L 715.907567 104.39486 
L 717.760439 103.776786 
L 719.589708 102.496694 
L 721.395966 101.968665 
L 723.179786 101.168338 
L 724.941717 100.262117 
L 726.682292 99.311233 
L 728.40202 98.477048 
L 730.101397 97.194076 
L 731.780897 96.784907 
L 733.440981 96.193486 
L 735.082091 95.349217 
L 736.704658 93.872465 
L 738.309095 92.944633 
L 739.895804 92.266047 
L 741.46517 91.576657 
" style="fill:none;stroke:#1f77b4;stroke-linecap:square;stroke-width:1.5;"/>
   </g>
   <g id="line2d_42">
    <path clip-path="url(#p2d9923565f)" d="M 92.15608 234.879187 
L 191.688987 219.59805 
L 249.912006 208.565636 
L 291.221895 201.665964 
L 323.264335 197.057779 
L 349.444914 193.786594 
L 371.580278 189.911742 
L 390.754803 186.788953 
L 407.667933 184.114952 
L 422.797242 181.631848 
L 436.483368 180.218489 
L 448.977822 178.336171 
L 460.471605 176.976839 
L 471.113186 174.963415 
L 481.020261 173.310894 
L 490.287711 171.668458 
L 498.993142 170.20035 
L 507.20084 168.477234 
L 514.964657 166.764922 
L 522.33015 165.890397 
L 529.336205 164.626154 
L 536.016276 163.584503 
L 542.399355 162.12288 
L 548.51073 161.076907 
L 554.37259 160.397602 
L 560.004513 159.368918 
L 565.423859 158.712664 
L 570.646094 157.831656 
L 575.685054 157.098322 
L 580.553169 156.045147 
L 585.261644 155.031591 
L 589.820619 154.181558 
L 594.239294 153.294787 
L 598.52605 152.566496 
L 602.688533 152.172456 
L 606.733748 151.700615 
L 610.668121 150.407557 
L 614.497565 149.837027 
L 618.227531 148.823471 
L 621.863058 148.158573 
L 625.408809 147.626222 
L 628.869113 147.057853 
L 632.247989 146.043576 
L 635.549184 144.700813 
L 638.776188 144.114435 
L 641.932263 143.636111 
L 645.02046 142.908541 
L 648.043637 142.33729 
L 651.004477 141.480774 
L 653.905497 140.900159 
L 656.749068 140.493872 
L 659.537421 140.104874 
L 662.272658 139.623669 
L 664.956767 139.303106 
L 667.591623 138.968136 
L 670.179002 138.687193 
L 672.720584 138.244887 
L 675.217962 137.824914 
L 677.672648 137.440238 
L 680.086077 136.683853 
L 682.459612 136.505202 
L 684.794552 136.271803 
L 687.092131 135.5183 
L 689.353527 134.810179 
L 691.57986 134.140238 
L 693.772202 133.329826 
L 695.931576 133.096427 
L 698.058957 132.737685 
L 700.155281 132.389748 
L 702.221441 131.968333 
L 704.258293 131.556283 
L 706.266656 131.29407 
L 708.247317 130.933887 
L 710.201029 130.540566 
L 712.128516 130.2128 
L 714.030473 129.76113 
L 715.907567 129.19204 
L 717.760439 128.881562 
L 719.589708 128.746854 
L 721.395966 128.457987 
L 723.179786 128.174883 
L 724.941717 127.919873 
L 726.682292 127.564012 
L 728.40202 127.453075 
L 730.101397 127.212473 
L 731.780897 127.060475 
L 733.440981 126.6369 
L 735.082091 126.541091 
L 736.704658 126.259428 
L 738.309095 125.95039 
L 739.895804 125.668727 
L 741.46517 125.086671 
" style="fill:none;stroke:#2ca02c;stroke-linecap:square;stroke-width:1.5;"/>
   </g>
   <g id="line2d_43">
    <path clip-path="url(#p2d9923565f)" d="M 92.15608 273.803477 
L 191.688987 259.375254 
L 249.912006 248.092152 
L 291.221895 241.287569 
L 323.264335 234.385016 
L 349.444914 229.596019 
L 371.580278 224.596674 
L 390.754803 220.30545 
L 407.667933 216.559544 
L 422.797242 212.878471 
L 436.483368 210.049591 
L 448.977822 207.397921 
L 460.471605 205.238983 
L 471.113186 202.858891 
L 481.020261 201.184039 
L 490.287711 199.277229 
L 498.993142 196.513902 
L 507.20084 194.91829 
L 514.964657 193.588493 
L 522.33015 192.300478 
L 529.336205 190.898644 
L 536.016276 189.275658 
L 542.399355 187.874545 
L 548.51073 185.833747 
L 554.37259 184.529883 
L 560.004513 183.497598 
L 565.423859 182.044618 
L 570.646094 181.027461 
L 575.685054 179.502445 
L 580.553169 178.183453 
L 585.261644 177.09642 
L 589.820619 176.273041 
L 594.239294 175.557717 
L 598.52605 174.822943 
L 602.688533 174.299237 
L 606.733748 173.330343 
L 610.668121 172.502642 
L 614.497565 171.702315 
L 618.227531 170.276709 
L 621.863058 169.175989 
L 625.408809 168.524778 
L 628.869113 167.661058 
L 632.247989 166.826874 
L 635.549184 165.927856 
L 638.776188 164.902054 
L 641.932263 164.40284 
L 645.02046 163.112663 
L 648.043637 162.431197 
L 651.004477 161.560994 
L 653.905497 160.211747 
L 656.749068 159.511551 
L 659.537421 158.582278 
L 662.272658 158.078741 
L 664.956767 157.602579 
L 667.591623 156.72013 
L 670.179002 156.082606 
L 672.720584 154.85438 
L 675.217962 154.118886 
L 677.672648 153.189613 
L 680.086077 152.791251 
L 682.459612 152.559292 
L 684.794552 152.120589 
L 687.092131 151.369967 
L 689.353527 150.571801 
L 691.57986 150.110046 
L 693.772202 149.641808 
L 695.931576 149.050387 
L 698.058957 148.665711 
L 700.155281 148.032509 
L 702.221441 147.715547 
L 704.258293 147.371212 
L 706.266656 146.956281 
L 708.247317 145.945607 
L 710.201029 145.6978 
L 712.128516 145.157525 
L 714.030473 144.725306 
L 715.907567 143.954513 
L 717.760439 143.523014 
L 719.589708 143.174356 
L 721.395966 142.74934 
L 723.179786 142.303433 
L 724.941717 141.940368 
L 726.682292 141.517513 
L 728.40202 141.289877 
L 730.101397 140.939059 
L 731.780897 140.731593 
L 733.440981 139.783591 
L 735.082091 138.960211 
L 736.704658 138.595706 
L 738.309095 138.331331 
L 739.895804 137.963224 
L 741.46517 137.704612 
" style="fill:none;stroke:#d62728;stroke-linecap:square;stroke-width:1.5;"/>
   </g>
   <g id="line2d_44">
    <path clip-path="url(#p2d9923565f)" d="M 92.15608 267.926006 
L 191.688987 252.960389 
L 249.912006 246.410816 
L 291.221895 241.724831 
L 323.264335 238.36216 
L 349.444914 235.518153 
L 371.580278 233.458624 
L 390.754803 231.844283 
L 407.667933 229.011081 
L 422.797242 226.576962 
L 436.483368 224.437473 
L 448.977822 222.66249 
L 460.471605 221.174933 
L 471.113186 220.360919 
L 481.020261 218.741534 
L 490.287711 217.748869 
L 498.993142 216.562425 
L 507.20084 215.021561 
L 514.964657 213.641339 
L 522.33015 212.330272 
L 529.336205 211.688425 
L 536.016276 210.375917 
L 542.399355 208.580763 
L 548.51073 207.67022 
L 554.37259 206.892944 
L 560.004513 205.758367 
L 565.423859 205.101393 
L 570.646094 204.025165 
L 575.685054 202.839441 
L 580.553169 201.837411 
L 585.261644 200.630797 
L 589.820619 199.98679 
L 594.239294 199.462363 
L 598.52605 197.999298 
L 602.688533 196.532632 
L 606.733748 195.368519 
L 610.668121 194.431322 
L 614.497565 193.771467 
L 618.227531 193.179325 
L 621.863058 192.693798 
L 625.408809 191.879063 
L 628.869113 191.2826 
L 632.247989 190.652999 
L 635.549184 190.144421 
L 638.776188 189.524185 
L 641.932263 189.050904 
L 645.02046 188.270027 
L 648.043637 187.591441 
L 651.004477 186.997139 
L 653.905497 186.376183 
L 656.749068 185.609713 
L 659.537421 184.537807 
L 662.272658 183.872188 
L 664.956767 183.034402 
L 667.591623 182.332045 
L 670.179002 181.618161 
L 672.720584 180.875463 
L 675.217962 179.743767 
L 677.672648 179.25752 
L 680.086077 178.326086 
L 682.459612 177.486859 
L 684.794552 175.953919 
L 687.092131 175.07147 
L 689.353527 173.772649 
L 691.57986 172.079067 
L 693.772202 171.079198 
L 695.931576 170.185223 
L 698.058957 169.438203 
L 700.155281 167.988825 
L 702.221441 167.019932 
L 704.258293 165.806114 
L 706.266656 165.146258 
L 708.247317 164.207621 
L 710.201029 162.467215 
L 712.128516 161.487516 
L 714.030473 160.474681 
L 715.907567 158.813515 
L 717.760439 157.877039 
L 719.589708 156.992429 
L 721.395966 155.951499 
L 723.179786 154.941545 
L 724.941717 153.63552 
L 726.682292 152.73146 
L 728.40202 151.568068 
L 730.101397 149.497014 
L 731.780897 148.371081 
L 733.440981 147.762371 
L 735.082091 146.697669 
L 736.704658 145.804415 
L 738.309095 144.977434 
L 739.895804 144.141088 
L 741.46517 143.301141 
" style="fill:none;stroke:#dbdb8d;stroke-linecap:square;stroke-width:1.5;"/>
   </g>
   <g id="line2d_45">
    <path clip-path="url(#p2d9923565f)" d="M 92.15608 276.334125 
L 191.688987 262.407277 
L 249.912006 251.741529 
L 291.221895 244.777745 
L 323.264335 238.615729 
L 349.444914 234.024833 
L 371.580278 230.017433 
L 390.754803 226.550309 
L 407.667933 224.202634 
L 422.797242 220.922805 
L 436.483368 218.022609 
L 448.977822 216.028634 
L 460.471605 214.257973 
L 471.113186 212.875589 
L 481.020261 211.395236 
L 490.287711 209.912001 
L 498.993142 208.393468 
L 507.20084 207.098969 
L 514.964657 205.890914 
L 522.33015 204.968125 
L 529.336205 203.768714 
L 536.016276 202.562821 
L 542.399355 201.440489 
L 548.51073 200.382991 
L 554.37259 199.636691 
L 560.004513 198.472579 
L 565.423859 197.322154 
L 570.646094 196.60827 
L 575.685054 195.964983 
L 580.553169 195.202115 
L 585.261644 194.560268 
L 589.820619 193.833418 
L 594.239294 192.790327 
L 598.52605 191.984957 
L 602.688533 191.411545 
L 606.733748 190.919535 
L 610.668121 190.181159 
L 614.497565 189.55372 
L 618.227531 188.870092 
L 621.863058 188.33486 
L 625.408809 187.919208 
L 628.869113 187.544617 
L 632.247989 187.071337 
L 635.549184 186.424447 
L 638.776188 185.578017 
L 641.932263 184.650184 
L 645.02046 184.233813 
L 648.043637 183.582601 
L 651.004477 182.87376 
L 653.905497 182.149072 
L 656.749068 181.350185 
L 659.537421 180.634861 
L 662.272658 179.883519 
L 664.956767 179.400873 
L 667.591623 178.90454 
L 670.179002 177.845601 
L 672.720584 177.039511 
L 675.217962 175.848745 
L 677.672648 175.421568 
L 680.086077 174.377036 
L 682.459612 173.144489 
L 684.794552 172.275727 
L 687.092131 170.902708 
L 689.353527 170.055557 
L 691.57986 169.368327 
L 693.772202 168.797076 
L 695.931576 168.114889 
L 698.058957 167.741739 
L 700.155281 166.736828 
L 702.221441 165.708144 
L 704.258293 164.536108 
L 706.266656 164.121897 
L 708.247317 163.26394 
L 710.201029 162.851891 
L 712.128516 162.395899 
L 714.030473 161.952873 
L 715.907567 161.061059 
L 717.760439 159.16513 
L 719.589708 158.592123 
L 721.395966 157.589212 
L 723.179786 156.808815 
L 724.941717 156.36699 
L 726.682292 155.882744 
L 728.40202 154.679543 
L 730.101397 154.32275 
L 731.780897 153.639302 
L 733.440981 153.101729 
L 735.082091 151.837965 
L 736.704658 151.449928 
L 738.309095 148.14715 
L 739.895804 147.803986 
L 741.46517 147.501432 
" style="fill:none;stroke:#98df8a;stroke-linecap:square;stroke-width:1.5;"/>
   </g>
   <g id="line2d_46">
    <path clip-path="url(#p2d9923565f)" d="M 92.15608 264.804657 
L 191.688987 262.048535 
L 249.912006 258.732687 
L 291.221895 255.903087 
L 323.264335 254.664777 
L 349.444914 253.664908 
L 371.580278 251.951156 
L 390.754803 250.262616 
L 407.667933 249.28652 
L 422.797242 247.907018 
L 436.483368 246.973422 
L 448.977822 246.392087 
L 460.471605 244.656003 
L 471.113186 242.852205 
L 481.020261 241.60381 
L 490.287711 240.731446 
L 498.993142 239.791367 
L 507.20084 232.834787 
L 514.964657 225.872444 
L 522.33015 222.66249 
L 529.336205 219.113244 
L 536.016276 216.204403 
L 542.399355 214.801129 
L 548.51073 211.54147 
L 554.37259 209.919205 
L 560.004513 207.21927 
L 565.423859 205.867863 
L 570.646094 203.360267 
L 575.685054 199.960856 
L 580.553169 197.620385 
L 585.261644 195.529881 
L 589.820619 192.172253 
L 594.239294 189.65169 
L 598.52605 188.097859 
L 602.688533 186.209778 
L 606.733748 184.384369 
L 610.668121 184.109909 
L 614.497565 182.878083 
L 618.227531 181.433747 
L 621.863058 180.788299 
L 625.408809 180.115477 
L 628.869113 179.70991 
L 632.247989 179.19845 
L 635.549184 178.134468 
L 638.776188 177.381685 
L 641.932263 176.284567 
L 645.02046 175.264528 
L 648.043637 174.745864 
L 651.004477 174.296355 
L 653.905497 174.083127 
L 656.749068 173.915281 
L 659.537421 173.91384 
L 662.272658 173.748156 
L 664.956767 173.652347 
L 667.591623 173.645144 
L 670.179002 173.624973 
L 672.720584 173.557259 
L 675.217962 173.49963 
L 677.672648 173.429754 
L 680.086077 173.426873 
L 682.459612 173.426873 
L 684.794552 173.372125 
L 687.092131 173.064528 
L 689.353527 172.89092 
L 691.57986 172.835452 
L 693.772202 172.754771 
L 695.931576 172.738922 
L 698.058957 172.738922 
L 700.155281 172.730998 
L 702.221441 172.652478 
L 704.258293 172.638791 
L 706.266656 172.61574 
L 708.247317 172.582603 
L 710.201029 172.550186 
L 712.128516 172.545864 
L 714.030473 172.545864 
L 715.907567 172.460141 
L 717.760439 172.410435 
L 719.589708 172.409715 
L 721.395966 172.384502 
L 723.179786 172.368654 
L 724.941717 172.368654 
L 726.682292 172.368654 
L 728.40202 172.368654 
L 730.101397 172.368654 
L 731.780897 172.368654 
L 733.440981 172.368654 
L 735.082091 172.368654 
L 736.704658 172.368654 
L 738.309095 172.368654 
L 739.895804 172.368654 
L 741.46517 172.368654 
" style="fill:none;stroke:#ff9896;stroke-linecap:square;stroke-width:1.5;"/>
   </g>
   <g id="line2d_47"/>
   <g id="line2d_48"/>
   <g id="line2d_49"/>
   <g id="line2d_50"/>
   <g id="line2d_51"/>
   <g id="line2d_52"/>
   <g id="line2d_53"/>
   <g id="line2d_54"/>
   <g id="line2d_55"/>
   <g id="line2d_56"/>
   <g id="line2d_57">
    <path clip-path="url(#p2d9923565f)" d="M 741.46517 288.430125 
L 741.46517 22.318125 
" style="fill:none;stroke:#ff0000;stroke-linecap:square;stroke-width:1.5;"/>
   </g>
   <g id="patch_3">
    <path d="M 59.690625 284.449775 
L 59.690625 32.32146 
" style="fill:none;stroke:#000000;stroke-linecap:square;stroke-linejoin:miter;stroke-width:0.8;"/>
   </g>
   <g id="patch_4">
    <path d="M 92.15608 288.430125 
L 741.466905 288.430125 
" style="fill:none;stroke:#000000;stroke-linecap:square;stroke-linejoin:miter;stroke-width:0.8;"/>
   </g>
   <g id="text_23">
    <!-- sqlite3_ossfuzz (23h, 13 trials/fuzzer) -->
    <g transform="translate(304.815938 16.318125)scale(0.12 -0.12)">
     <defs>
      <path d="M 44.28125 53.078125 
L 44.28125 44.578125 
Q 40.484375 46.53125 36.375 47.5 
Q 32.28125 48.484375 27.875 48.484375 
Q 21.1875 48.484375 17.84375 46.4375 
Q 14.5 44.390625 14.5 40.28125 
Q 14.5 37.15625 16.890625 35.375 
Q 19.28125 33.59375 26.515625 31.984375 
L 29.59375 31.296875 
Q 39.15625 29.25 43.1875 25.515625 
Q 47.21875 21.78125 47.21875 15.09375 
Q 47.21875 7.46875 41.1875 3.015625 
Q 35.15625 -1.421875 24.609375 -1.421875 
Q 20.21875 -1.421875 15.453125 -0.5625 
Q 10.6875 0.296875 5.421875 2 
L 5.421875 11.28125 
Q 10.40625 8.6875 15.234375 7.390625 
Q 20.0625 6.109375 24.8125 6.109375 
Q 31.15625 6.109375 34.5625 8.28125 
Q 37.984375 10.453125 37.984375 14.40625 
Q 37.984375 18.0625 35.515625 20.015625 
Q 33.0625 21.96875 24.703125 23.78125 
L 21.578125 24.515625 
Q 13.234375 26.265625 9.515625 29.90625 
Q 5.8125 33.546875 5.8125 39.890625 
Q 5.8125 47.609375 11.28125 51.796875 
Q 16.75 56 26.8125 56 
Q 31.78125 56 36.171875 55.265625 
Q 40.578125 54.546875 44.28125 53.078125 
z
" id="DejaVuSans-115"/>
      <path d="M 14.796875 27.296875 
Q 14.796875 17.390625 18.875 11.75 
Q 22.953125 6.109375 30.078125 6.109375 
Q 37.203125 6.109375 41.296875 11.75 
Q 45.40625 17.390625 45.40625 27.296875 
Q 45.40625 37.203125 41.296875 42.84375 
Q 37.203125 48.484375 30.078125 48.484375 
Q 22.953125 48.484375 18.875 42.84375 
Q 14.796875 37.203125 14.796875 27.296875 
z
M 45.40625 8.203125 
Q 42.578125 3.328125 38.25 0.953125 
Q 33.9375 -1.421875 27.875 -1.421875 
Q 17.96875 -1.421875 11.734375 6.484375 
Q 5.515625 14.40625 5.515625 27.296875 
Q 5.515625 40.1875 11.734375 48.09375 
Q 17.96875 56 27.875 56 
Q 33.9375 56 38.25 53.625 
Q 42.578125 51.265625 45.40625 46.390625 
L 45.40625 54.6875 
L 54.390625 54.6875 
L 54.390625 -20.796875 
L 45.40625 -20.796875 
z
" id="DejaVuSans-113"/>
      <path d="M 9.421875 75.984375 
L 18.40625 75.984375 
L 18.40625 0 
L 9.421875 0 
z
" id="DejaVuSans-108"/>
      <path d="M 50.984375 -16.609375 
L 50.984375 -23.578125 
L -0.984375 -23.578125 
L -0.984375 -16.609375 
z
" id="DejaVuSans-95"/>
      <path d="M 37.109375 75.984375 
L 37.109375 68.5 
L 28.515625 68.5 
Q 23.6875 68.5 21.796875 66.546875 
Q 19.921875 64.59375 19.921875 59.515625 
L 19.921875 54.6875 
L 34.71875 54.6875 
L 34.71875 47.703125 
L 19.921875 47.703125 
L 19.921875 0 
L 10.890625 0 
L 10.890625 47.703125 
L 2.296875 47.703125 
L 2.296875 54.6875 
L 10.890625 54.6875 
L 10.890625 58.5 
Q 10.890625 67.625 15.140625 71.796875 
Q 19.390625 75.984375 28.609375 75.984375 
z
" id="DejaVuSans-102"/>
      <path d="M 5.515625 54.6875 
L 48.1875 54.6875 
L 48.1875 46.484375 
L 14.40625 7.171875 
L 48.1875 7.171875 
L 48.1875 0 
L 4.296875 0 
L 4.296875 8.203125 
L 38.09375 47.515625 
L 5.515625 47.515625 
z
" id="DejaVuSans-122"/>
      <path d="M 11.71875 12.40625 
L 22.015625 12.40625 
L 22.015625 4 
L 14.015625 -11.625 
L 7.71875 -11.625 
L 11.71875 4 
z
" id="DejaVuSans-44"/>
      <path d="M 25.390625 72.90625 
L 33.6875 72.90625 
L 8.296875 -9.28125 
L 0 -9.28125 
z
" id="DejaVuSans-47"/>
     </defs>
     <use xlink:href="#DejaVuSans-115"/>
     <use x="52.099609" xlink:href="#DejaVuSans-113"/>
     <use x="115.576172" xlink:href="#DejaVuSans-108"/>
     <use x="143.359375" xlink:href="#DejaVuSans-105"/>
     <use x="171.142578" xlink:href="#DejaVuSans-116"/>
     <use x="210.351562" xlink:href="#DejaVuSans-101"/>
     <use x="271.875" xlink:href="#DejaVuSans-51"/>
     <use x="335.498047" xlink:href="#DejaVuSans-95"/>
     <use x="385.498047" xlink:href="#DejaVuSans-111"/>
     <use x="446.679688" xlink:href="#DejaVuSans-115"/>
     <use x="498.779297" xlink:href="#DejaVuSans-115"/>
     <use x="550.878906" xlink:href="#DejaVuSans-102"/>
     <use x="586.083984" xlink:href="#DejaVuSans-117"/>
     <use x="649.462891" xlink:href="#DejaVuSans-122"/>
     <use x="701.953125" xlink:href="#DejaVuSans-122"/>
     <use x="754.443359" xlink:href="#DejaVuSans-32"/>
     <use x="786.230469" xlink:href="#DejaVuSans-40"/>
     <use x="825.244141" xlink:href="#DejaVuSans-50"/>
     <use x="888.867188" xlink:href="#DejaVuSans-51"/>
     <use x="952.490234" xlink:href="#DejaVuSans-104"/>
     <use x="1015.869141" xlink:href="#DejaVuSans-44"/>
     <use x="1047.65625" xlink:href="#DejaVuSans-32"/>
     <use x="1079.443359" xlink:href="#DejaVuSans-49"/>
     <use x="1143.066406" xlink:href="#DejaVuSans-51"/>
     <use x="1206.689453" xlink:href="#DejaVuSans-32"/>
     <use x="1238.476562" xlink:href="#DejaVuSans-116"/>
     <use x="1277.685547" xlink:href="#DejaVuSans-114"/>
     <use x="1318.798828" xlink:href="#DejaVuSans-105"/>
     <use x="1346.582031" xlink:href="#DejaVuSans-97"/>
     <use x="1407.861328" xlink:href="#DejaVuSans-108"/>
     <use x="1435.644531" xlink:href="#DejaVuSans-115"/>
     <use x="1487.744141" xlink:href="#DejaVuSans-47"/>
     <use x="1521.435547" xlink:href="#DejaVuSans-102"/>
     <use x="1556.640625" xlink:href="#DejaVuSans-117"/>
     <use x="1620.019531" xlink:href="#DejaVuSans-122"/>
     <use x="1672.509766" xlink:href="#DejaVuSans-122"/>
     <use x="1725" xlink:href="#DejaVuSans-101"/>
     <use x="1786.523438" xlink:href="#DejaVuSans-114"/>
     <use x="1827.636719" xlink:href="#DejaVuSans-41"/>
    </g>
   </g>
   <g id="legend_1">
    <g id="line2d_58">
     <path d="M 777.930625 30.416562 
L 797.930625 30.416562 
" style="fill:none;"/>
    </g>
    <g id="line2d_59"/>
    <g id="text_24">
     <!-- fuzzer -->
     <g transform="translate(805.930625 33.916562)scale(0.1 -0.1)">
      <use xlink:href="#DejaVuSans-102"/>
      <use x="35.205078" xlink:href="#DejaVuSans-117"/>
      <use x="98.583984" xlink:href="#DejaVuSans-122"/>
      <use x="151.074219" xlink:href="#DejaVuSans-122"/>
      <use x="203.564453" xlink:href="#DejaVuSans-101"/>
      <use x="265.087891" xlink:href="#DejaVuSans-114"/>
     </g>
    </g>
    <g id="line2d_60">
     <path d="M 777.930625 45.094688 
L 797.930625 45.094688 
" style="fill:none;stroke:#c5b0d5;stroke-linecap:square;stroke-width:1.5;"/>
    </g>
    <g id="line2d_61"/>
    <g id="text_25">
     <!-- mopt -->
     <g transform="translate(805.930625 48.594688)scale(0.1 -0.1)">
      <defs>
       <path d="M 18.109375 8.203125 
L 18.109375 -20.796875 
L 9.078125 -20.796875 
L 9.078125 54.6875 
L 18.109375 54.6875 
L 18.109375 46.390625 
Q 20.953125 51.265625 25.265625 53.625 
Q 29.59375 56 35.59375 56 
Q 45.5625 56 51.78125 48.09375 
Q 58.015625 40.1875 58.015625 27.296875 
Q 58.015625 14.40625 51.78125 6.484375 
Q 45.5625 -1.421875 35.59375 -1.421875 
Q 29.59375 -1.421875 25.265625 0.953125 
Q 20.953125 3.328125 18.109375 8.203125 
z
M 48.6875 27.296875 
Q 48.6875 37.203125 44.609375 42.84375 
Q 40.53125 48.484375 33.40625 48.484375 
Q 26.265625 48.484375 22.1875 42.84375 
Q 18.109375 37.203125 18.109375 27.296875 
Q 18.109375 17.390625 22.1875 11.75 
Q 26.265625 6.109375 33.40625 6.109375 
Q 40.53125 6.109375 44.609375 11.75 
Q 48.6875 17.390625 48.6875 27.296875 
z
" id="DejaVuSans-112"/>
      </defs>
      <use xlink:href="#DejaVuSans-109"/>
      <use x="97.412109" xlink:href="#DejaVuSans-111"/>
      <use x="158.59375" xlink:href="#DejaVuSans-112"/>
      <use x="222.070312" xlink:href="#DejaVuSans-116"/>
     </g>
    </g>
    <g id="line2d_62">
     <path d="M 777.930625 59.772812 
L 797.930625 59.772812 
" style="fill:none;stroke:#ff7f0e;stroke-linecap:square;stroke-width:1.5;"/>
    </g>
    <g id="line2d_63"/>
    <g id="text_26">
     <!-- entropic -->
     <g transform="translate(805.930625 63.272812)scale(0.1 -0.1)">
      <use xlink:href="#DejaVuSans-101"/>
      <use x="61.523438" xlink:href="#DejaVuSans-110"/>
      <use x="124.902344" xlink:href="#DejaVuSans-116"/>
      <use x="164.111328" xlink:href="#DejaVuSans-114"/>
      <use x="202.974609" xlink:href="#DejaVuSans-111"/>
      <use x="264.15625" xlink:href="#DejaVuSans-112"/>
      <use x="327.632812" xlink:href="#DejaVuSans-105"/>
      <use x="355.416016" xlink:href="#DejaVuSans-99"/>
     </g>
    </g>
    <g id="line2d_64">
     <path d="M 777.930625 74.450938 
L 797.930625 74.450938 
" style="fill:none;stroke:#e377c2;stroke-linecap:square;stroke-width:1.5;"/>
    </g>
    <g id="line2d_65"/>
    <g id="text_27">
     <!-- honggfuzz -->
     <g transform="translate(805.930625 77.950938)scale(0.1 -0.1)">
      <use xlink:href="#DejaVuSans-104"/>
      <use x="63.378906" xlink:href="#DejaVuSans-111"/>
      <use x="124.560547" xlink:href="#DejaVuSans-110"/>
      <use x="187.939453" xlink:href="#DejaVuSans-103"/>
      <use x="251.416016" xlink:href="#DejaVuSans-103"/>
      <use x="314.892578" xlink:href="#DejaVuSans-102"/>
      <use x="350.097656" xlink:href="#DejaVuSans-117"/>
      <use x="413.476562" xlink:href="#DejaVuSans-122"/>
      <use x="465.966797" xlink:href="#DejaVuSans-122"/>
     </g>
    </g>
    <g id="line2d_66">
     <path d="M 777.930625 89.129063 
L 797.930625 89.129063 
" style="fill:none;stroke:#1f77b4;stroke-linecap:square;stroke-width:1.5;"/>
    </g>
    <g id="line2d_67"/>
    <g id="text_28">
     <!-- aflplusplus -->
     <g transform="translate(805.930625 92.629063)scale(0.1 -0.1)">
      <use xlink:href="#DejaVuSans-97"/>
      <use x="61.279297" xlink:href="#DejaVuSans-102"/>
      <use x="96.484375" xlink:href="#DejaVuSans-108"/>
      <use x="124.267578" xlink:href="#DejaVuSans-112"/>
      <use x="187.744141" xlink:href="#DejaVuSans-108"/>
      <use x="215.527344" xlink:href="#DejaVuSans-117"/>
      <use x="278.90625" xlink:href="#DejaVuSans-115"/>
      <use x="331.005859" xlink:href="#DejaVuSans-112"/>
      <use x="394.482422" xlink:href="#DejaVuSans-108"/>
      <use x="422.265625" xlink:href="#DejaVuSans-117"/>
      <use x="485.644531" xlink:href="#DejaVuSans-115"/>
     </g>
    </g>
    <g id="line2d_68">
     <path d="M 777.930625 103.807187 
L 797.930625 103.807187 
" style="fill:none;stroke:#2ca02c;stroke-linecap:square;stroke-width:1.5;"/>
    </g>
    <g id="line2d_69"/>
    <g id="text_29">
     <!-- libfuzzer -->
     <g transform="translate(805.930625 107.307187)scale(0.1 -0.1)">
      <defs>
       <path d="M 48.6875 27.296875 
Q 48.6875 37.203125 44.609375 42.84375 
Q 40.53125 48.484375 33.40625 48.484375 
Q 26.265625 48.484375 22.1875 42.84375 
Q 18.109375 37.203125 18.109375 27.296875 
Q 18.109375 17.390625 22.1875 11.75 
Q 26.265625 6.109375 33.40625 6.109375 
Q 40.53125 6.109375 44.609375 11.75 
Q 48.6875 17.390625 48.6875 27.296875 
z
M 18.109375 46.390625 
Q 20.953125 51.265625 25.265625 53.625 
Q 29.59375 56 35.59375 56 
Q 45.5625 56 51.78125 48.09375 
Q 58.015625 40.1875 58.015625 27.296875 
Q 58.015625 14.40625 51.78125 6.484375 
Q 45.5625 -1.421875 35.59375 -1.421875 
Q 29.59375 -1.421875 25.265625 0.953125 
Q 20.953125 3.328125 18.109375 8.203125 
L 18.109375 0 
L 9.078125 0 
L 9.078125 75.984375 
L 18.109375 75.984375 
z
" id="DejaVuSans-98"/>
      </defs>
      <use xlink:href="#DejaVuSans-108"/>
      <use x="27.783203" xlink:href="#DejaVuSans-105"/>
      <use x="55.566406" xlink:href="#DejaVuSans-98"/>
      <use x="119.042969" xlink:href="#DejaVuSans-102"/>
      <use x="154.248047" xlink:href="#DejaVuSans-117"/>
      <use x="217.626953" xlink:href="#DejaVuSans-122"/>
      <use x="270.117188" xlink:href="#DejaVuSans-122"/>
      <use x="322.607422" xlink:href="#DejaVuSans-101"/>
      <use x="384.130859" xlink:href="#DejaVuSans-114"/>
     </g>
    </g>
    <g id="line2d_70">
     <path d="M 777.930625 118.485313 
L 797.930625 118.485313 
" style="fill:none;stroke:#d62728;stroke-linecap:square;stroke-width:1.5;"/>
    </g>
    <g id="line2d_71"/>
    <g id="text_30">
     <!-- aflplusplus_qemu -->
     <g transform="translate(805.930625 121.985313)scale(0.1 -0.1)">
      <use xlink:href="#DejaVuSans-97"/>
      <use x="61.279297" xlink:href="#DejaVuSans-102"/>
      <use x="96.484375" xlink:href="#DejaVuSans-108"/>
      <use x="124.267578" xlink:href="#DejaVuSans-112"/>
      <use x="187.744141" xlink:href="#DejaVuSans-108"/>
      <use x="215.527344" xlink:href="#DejaVuSans-117"/>
      <use x="278.90625" xlink:href="#DejaVuSans-115"/>
      <use x="331.005859" xlink:href="#DejaVuSans-112"/>
      <use x="394.482422" xlink:href="#DejaVuSans-108"/>
      <use x="422.265625" xlink:href="#DejaVuSans-117"/>
      <use x="485.644531" xlink:href="#DejaVuSans-115"/>
      <use x="537.744141" xlink:href="#DejaVuSans-95"/>
      <use x="587.744141" xlink:href="#DejaVuSans-113"/>
      <use x="651.220703" xlink:href="#DejaVuSans-101"/>
      <use x="712.744141" xlink:href="#DejaVuSans-109"/>
      <use x="810.15625" xlink:href="#DejaVuSans-117"/>
     </g>
    </g>
    <g id="line2d_72">
     <path d="M 777.930625 133.441563 
L 797.930625 133.441563 
" style="fill:none;stroke:#dbdb8d;stroke-linecap:square;stroke-width:1.5;"/>
    </g>
    <g id="line2d_73"/>
    <g id="text_31">
     <!-- lafintel -->
     <g transform="translate(805.930625 136.941563)scale(0.1 -0.1)">
      <use xlink:href="#DejaVuSans-108"/>
      <use x="27.783203" xlink:href="#DejaVuSans-97"/>
      <use x="89.0625" xlink:href="#DejaVuSans-102"/>
      <use x="124.267578" xlink:href="#DejaVuSans-105"/>
      <use x="152.050781" xlink:href="#DejaVuSans-110"/>
      <use x="215.429688" xlink:href="#DejaVuSans-116"/>
      <use x="254.638672" xlink:href="#DejaVuSans-101"/>
      <use x="316.162109" xlink:href="#DejaVuSans-108"/>
     </g>
    </g>
    <g id="line2d_74">
     <path d="M 777.930625 148.119687 
L 797.930625 148.119687 
" style="fill:none;stroke:#98df8a;stroke-linecap:square;stroke-width:1.5;"/>
    </g>
    <g id="line2d_75"/>
    <g id="text_32">
     <!-- aflplusplus_flat -->
     <g transform="translate(805.930625 151.619687)scale(0.1 -0.1)">
      <use xlink:href="#DejaVuSans-97"/>
      <use x="61.279297" xlink:href="#DejaVuSans-102"/>
      <use x="96.484375" xlink:href="#DejaVuSans-108"/>
      <use x="124.267578" xlink:href="#DejaVuSans-112"/>
      <use x="187.744141" xlink:href="#DejaVuSans-108"/>
      <use x="215.527344" xlink:href="#DejaVuSans-117"/>
      <use x="278.90625" xlink:href="#DejaVuSans-115"/>
      <use x="331.005859" xlink:href="#DejaVuSans-112"/>
      <use x="394.482422" xlink:href="#DejaVuSans-108"/>
      <use x="422.265625" xlink:href="#DejaVuSans-117"/>
      <use x="485.644531" xlink:href="#DejaVuSans-115"/>
      <use x="537.744141" xlink:href="#DejaVuSans-95"/>
      <use x="587.744141" xlink:href="#DejaVuSans-102"/>
      <use x="622.949219" xlink:href="#DejaVuSans-108"/>
      <use x="650.732422" xlink:href="#DejaVuSans-97"/>
      <use x="712.011719" xlink:href="#DejaVuSans-116"/>
     </g>
    </g>
    <g id="line2d_76">
     <path d="M 777.930625 163.075938 
L 797.930625 163.075938 
" style="fill:none;stroke:#ff9896;stroke-linecap:square;stroke-width:1.5;"/>
    </g>
    <g id="line2d_77"/>
    <g id="text_33">
     <!-- fairfuzz -->
     <g transform="translate(805.930625 166.575938)scale(0.1 -0.1)">
      <use xlink:href="#DejaVuSans-102"/>
      <use x="35.205078" xlink:href="#DejaVuSans-97"/>
      <use x="96.484375" xlink:href="#DejaVuSans-105"/>
      <use x="124.267578" xlink:href="#DejaVuSans-114"/>
      <use x="165.380859" xlink:href="#DejaVuSans-102"/>
      <use x="200.585938" xlink:href="#DejaVuSans-117"/>
      <use x="263.964844" xlink:href="#DejaVuSans-122"/>
      <use x="316.455078" xlink:href="#DejaVuSans-122"/>
     </g>
    </g>
   </g>
  </g>
 </g>
 <defs>
  <clipPath id="p2d9923565f">
   <rect height="266.112" width="714.24" x="59.690625" y="22.318125"/>
  </clipPath>
 </defs>
</svg>
