<?xml version="1.0" encoding="utf-8" standalone="no"?>
<!DOCTYPE svg PUBLIC "-//W3C//DTD SVG 1.1//EN"
  "http://www.w3.org/Graphics/SVG/1.1/DTD/svg11.dtd">
<!-- Created with matplotlib (https://matplotlib.org/) -->
<svg height="368.607178pt" version="1.1" viewBox="0 0 424.010625 368.607178" width="424.010625pt" xmlns="http://www.w3.org/2000/svg" xmlns:xlink="http://www.w3.org/1999/xlink">
 <metadata>
  <rdf:RDF xmlns:cc="http://creativecommons.org/ns#" xmlns:dc="http://purl.org/dc/elements/1.1/" xmlns:rdf="http://www.w3.org/1999/02/22-rdf-syntax-ns#">
   <cc:Work>
    <dc:type rdf:resource="http://purl.org/dc/dcmitype/StillImage"/>
    <dc:date>2020-12-06T10:29:12.221288</dc:date>
    <dc:format>image/svg+xml</dc:format>
    <dc:creator>
     <cc:Agent>
      <dc:title>Matplotlib v3.3.3, https://matplotlib.org/</dc:title>
     </cc:Agent>
    </dc:creator>
   </cc:Work>
  </rdf:RDF>
 </metadata>
 <defs>
  <style type="text/css">*{stroke-linecap:butt;stroke-linejoin:round;}</style>
 </defs>
 <g id="figure_1">
  <g id="patch_1">
   <path d="M 0 368.607178 
L 424.010625 368.607178 
L 424.010625 0 
L 0 0 
z
" style="fill:#ffffff;"/>
  </g>
  <g id="axes_1">
   <g id="patch_2">
    <path d="M 59.690625 288.430125 
L 416.810625 288.430125 
L 416.810625 22.318125 
L 59.690625 22.318125 
z
" style="fill:#ffffff;"/>
   </g>
   <g id="PolyCollection_1">
    <defs>
     <path d="M 79.672804 -243.110353 
L 79.388446 -243.110353 
L 79.349635 -243.961398 
L 79.303776 -244.812443 
L 79.250674 -245.663488 
L 79.190461 -246.514533 
L 79.12366 -247.365578 
L 79.051237 -248.216623 
L 78.974618 -249.067668 
L 78.895681 -249.918713 
L 78.8167 -250.769758 
L 78.740252 -251.620804 
L 78.669088 -252.471849 
L 78.605974 -253.322894 
L 78.553514 -254.173939 
L 78.513973 -255.024984 
L 78.489114 -255.876029 
L 78.480071 -256.727074 
L 78.487258 -257.578119 
L 78.51034 -258.429164 
L 78.548255 -259.280209 
L 78.599298 -260.131254 
L 78.661238 -260.982299 
L 78.731481 -261.833344 
L 78.807241 -262.684389 
L 78.885712 -263.535434 
L 78.964225 -264.386479 
L 79.040375 -265.237524 
L 79.112109 -266.088569 
L 79.177773 -266.939614 
L 79.236122 -267.790659 
L 79.286281 -268.641704 
L 79.327696 -269.49275 
L 79.360052 -270.343795 
L 79.383193 -271.19484 
L 79.397034 -272.045885 
L 79.401498 -272.89693 
L 79.396454 -273.747975 
L 79.381689 -274.59902 
L 79.356895 -275.450065 
L 79.321671 -276.30111 
L 79.275552 -277.152155 
L 79.218027 -278.0032 
L 79.148573 -278.854245 
L 79.066666 -279.70529 
L 78.971774 -280.556335 
L 78.863326 -281.40738 
L 78.740643 -282.258425 
L 78.602843 -283.10947 
L 78.448719 -283.960515 
L 78.2766 -284.81156 
L 78.084217 -285.662605 
L 77.868591 -286.51365 
L 77.625971 -287.364695 
L 77.351841 -288.215741 
L 77.041014 -289.066786 
L 76.687829 -289.917831 
L 76.286456 -290.768876 
L 75.831297 -291.619921 
L 75.317468 -292.470966 
L 74.741332 -293.322011 
L 74.101051 -294.173056 
L 73.397097 -295.024101 
L 72.632707 -295.875146 
L 71.81421 -296.726191 
L 70.951209 -297.577236 
L 70.056589 -298.428281 
L 69.146327 -299.279326 
L 68.239109 -300.130371 
L 67.35577 -300.981416 
L 66.518556 -301.832461 
L 65.750271 -302.683506 
L 65.073326 -303.534551 
L 64.508745 -304.385596 
L 64.075192 -305.236641 
L 63.788049 -306.087686 
L 63.658625 -306.938732 
L 63.693527 -307.789777 
L 63.894242 -308.640822 
L 64.256972 -309.491867 
L 64.772724 -310.342912 
L 65.427672 -311.193957 
L 66.203774 -312.045002 
L 67.079607 -312.896047 
L 68.031369 -313.747092 
L 69.033987 -314.598137 
L 70.062262 -315.449182 
L 71.091965 -316.300227 
L 72.100829 -317.151272 
L 73.069353 -318.002317 
L 73.981409 -318.853362 
L 74.824594 -319.704407 
L 75.590347 -320.555452 
L 76.273834 -321.406497 
L 76.873644 -322.257542 
L 77.391335 -323.108587 
L 77.83088 -323.959632 
L 78.198078 -324.810677 
L 78.49995 -325.661723 
L 78.744199 -326.512768 
L 78.938721 -327.363813 
L 80.122529 -327.363813 
L 80.122529 -327.363813 
L 80.317051 -326.512768 
L 80.5613 -325.661723 
L 80.863172 -324.810677 
L 81.23037 -323.959632 
L 81.669915 -323.108587 
L 82.187606 -322.257542 
L 82.787416 -321.406497 
L 83.470903 -320.555452 
L 84.236656 -319.704407 
L 85.079841 -318.853362 
L 85.991897 -318.002317 
L 86.960421 -317.151272 
L 87.969285 -316.300227 
L 88.998988 -315.449182 
L 90.027263 -314.598137 
L 91.029881 -313.747092 
L 91.981643 -312.896047 
L 92.857476 -312.045002 
L 93.633578 -311.193957 
L 94.288526 -310.342912 
L 94.804278 -309.491867 
L 95.167008 -308.640822 
L 95.367723 -307.789777 
L 95.402625 -306.938732 
L 95.273201 -306.087686 
L 94.986058 -305.236641 
L 94.552505 -304.385596 
L 93.987924 -303.534551 
L 93.310979 -302.683506 
L 92.542694 -301.832461 
L 91.70548 -300.981416 
L 90.822141 -300.130371 
L 89.914923 -299.279326 
L 89.004661 -298.428281 
L 88.110041 -297.577236 
L 87.24704 -296.726191 
L 86.428543 -295.875146 
L 85.664153 -295.024101 
L 84.960199 -294.173056 
L 84.319918 -293.322011 
L 83.743782 -292.470966 
L 83.229953 -291.619921 
L 82.774794 -290.768876 
L 82.373421 -289.917831 
L 82.020236 -289.066786 
L 81.709409 -288.215741 
L 81.435279 -287.364695 
L 81.192659 -286.51365 
L 80.977033 -285.662605 
L 80.78465 -284.81156 
L 80.612531 -283.960515 
L 80.458407 -283.10947 
L 80.320607 -282.258425 
L 80.197924 -281.40738 
L 80.089476 -280.556335 
L 79.994584 -279.70529 
L 79.912677 -278.854245 
L 79.843223 -278.0032 
L 79.785698 -277.152155 
L 79.739579 -276.30111 
L 79.704355 -275.450065 
L 79.679561 -274.59902 
L 79.664796 -273.747975 
L 79.659752 -272.89693 
L 79.664216 -272.045885 
L 79.678057 -271.19484 
L 79.701198 -270.343795 
L 79.733554 -269.49275 
L 79.774969 -268.641704 
L 79.825128 -267.790659 
L 79.883477 -266.939614 
L 79.949141 -266.088569 
L 80.020875 -265.237524 
L 80.097025 -264.386479 
L 80.175538 -263.535434 
L 80.254009 -262.684389 
L 80.329769 -261.833344 
L 80.400012 -260.982299 
L 80.461952 -260.131254 
L 80.512995 -259.280209 
L 80.55091 -258.429164 
L 80.573992 -257.578119 
L 80.581179 -256.727074 
L 80.572136 -255.876029 
L 80.547277 -255.024984 
L 80.507736 -254.173939 
L 80.455276 -253.322894 
L 80.392162 -252.471849 
L 80.320998 -251.620804 
L 80.24455 -250.769758 
L 80.165569 -249.918713 
L 80.086632 -249.067668 
L 80.010013 -248.216623 
L 79.93759 -247.365578 
L 79.870789 -246.514533 
L 79.810576 -245.663488 
L 79.757474 -244.812443 
L 79.711615 -243.961398 
L 79.672804 -243.110353 
z
" id="m3c0c512355" style="stroke:#3d3d3d;stroke-width:1.5;"/>
    </defs>
    <g clip-path="url(#p314c3005e6)">
     <use style="fill:#c4b5d0;stroke:#3d3d3d;stroke-width:1.5;" x="0" xlink:href="#m3c0c512355" y="368.607178"/>
    </g>
   </g>
   <g id="PolyCollection_2">
    <defs>
     <path d="M 119.738946 -261.225627 
L 118.682304 -261.225627 
L 118.555996 -261.769264 
L 118.4076 -262.312901 
L 118.235356 -262.856538 
L 118.03786 -263.400174 
L 117.814183 -263.943811 
L 117.563989 -264.487448 
L 117.287629 -265.031085 
L 116.986218 -265.574722 
L 116.661677 -266.118359 
L 116.316735 -266.661996 
L 115.95489 -267.205632 
L 115.580314 -267.749269 
L 115.19772 -268.292906 
L 114.812187 -268.836543 
L 114.428949 -269.38018 
L 114.053164 -269.923817 
L 113.689685 -270.467454 
L 113.342831 -271.01109 
L 113.016187 -271.554727 
L 112.712449 -272.098364 
L 112.433311 -272.642001 
L 112.179414 -273.185638 
L 111.950353 -273.729275 
L 111.74474 -274.272912 
L 111.560319 -274.816548 
L 111.39411 -275.360185 
L 111.242591 -275.903822 
L 111.101876 -276.447459 
L 110.967899 -276.991096 
L 110.836576 -277.534733 
L 110.703952 -278.078369 
L 110.566316 -278.622006 
L 110.420291 -279.165643 
L 110.262909 -279.70928 
L 110.091667 -280.252917 
L 109.904581 -280.796554 
L 109.700239 -281.340191 
L 109.477871 -281.883827 
L 109.237417 -282.427464 
L 108.979612 -282.971101 
L 108.706067 -283.514738 
L 108.419344 -284.058375 
L 108.122999 -284.602012 
L 107.821593 -285.145649 
L 107.520647 -285.689285 
L 107.226532 -286.232922 
L 106.946299 -286.776559 
L 106.68743 -287.320196 
L 106.457547 -287.863833 
L 106.26407 -288.40747 
L 106.113864 -288.951107 
L 106.012889 -289.494743 
L 105.965889 -290.03838 
L 105.976141 -290.582017 
L 106.045288 -291.125654 
L 106.173264 -291.669291 
L 106.358329 -292.212928 
L 106.597196 -292.756565 
L 106.885253 -293.300201 
L 107.216845 -293.843838 
L 107.585609 -294.387475 
L 107.98482 -294.931112 
L 108.407726 -295.474749 
L 108.847854 -296.018386 
L 109.299251 -296.562023 
L 109.756673 -297.105659 
L 110.215685 -297.649296 
L 110.672705 -298.192933 
L 111.124971 -298.73657 
L 111.570465 -299.280207 
L 112.007796 -299.823844 
L 112.436063 -300.367481 
L 112.85471 -300.911117 
L 113.263396 -301.454754 
L 113.661869 -301.998391 
L 114.049879 -302.542028 
L 114.427103 -303.085665 
L 114.793116 -303.629302 
L 115.147366 -304.172939 
L 115.48919 -304.716575 
L 115.817833 -305.260212 
L 116.132485 -305.803849 
L 116.432325 -306.347486 
L 116.71656 -306.891123 
L 116.984474 -307.43476 
L 117.23546 -307.978397 
L 117.46906 -308.522033 
L 117.684984 -309.06567 
L 117.88313 -309.609307 
L 118.063594 -310.152944 
L 118.226667 -310.696581 
L 118.372831 -311.240218 
L 118.502743 -311.783855 
L 118.617214 -312.327491 
L 118.717189 -312.871128 
L 118.80371 -313.414765 
L 118.877895 -313.958402 
L 118.9409 -314.502039 
L 118.993896 -315.045676 
L 119.427354 -315.045676 
L 119.427354 -315.045676 
L 119.48035 -314.502039 
L 119.543355 -313.958402 
L 119.61754 -313.414765 
L 119.704061 -312.871128 
L 119.804036 -312.327491 
L 119.918507 -311.783855 
L 120.048419 -311.240218 
L 120.194583 -310.696581 
L 120.357656 -310.152944 
L 120.53812 -309.609307 
L 120.736266 -309.06567 
L 120.95219 -308.522033 
L 121.18579 -307.978397 
L 121.436776 -307.43476 
L 121.70469 -306.891123 
L 121.988925 -306.347486 
L 122.288765 -305.803849 
L 122.603417 -305.260212 
L 122.93206 -304.716575 
L 123.273884 -304.172939 
L 123.628134 -303.629302 
L 123.994147 -303.085665 
L 124.371371 -302.542028 
L 124.759381 -301.998391 
L 125.157854 -301.454754 
L 125.56654 -300.911117 
L 125.985187 -300.367481 
L 126.413454 -299.823844 
L 126.850785 -299.280207 
L 127.296279 -298.73657 
L 127.748545 -298.192933 
L 128.205565 -297.649296 
L 128.664577 -297.105659 
L 129.121999 -296.562023 
L 129.573396 -296.018386 
L 130.013524 -295.474749 
L 130.43643 -294.931112 
L 130.835641 -294.387475 
L 131.204405 -293.843838 
L 131.535997 -293.300201 
L 131.824054 -292.756565 
L 132.062921 -292.212928 
L 132.247986 -291.669291 
L 132.375962 -291.125654 
L 132.445109 -290.582017 
L 132.455361 -290.03838 
L 132.408361 -289.494743 
L 132.307386 -288.951107 
L 132.15718 -288.40747 
L 131.963703 -287.863833 
L 131.73382 -287.320196 
L 131.474951 -286.776559 
L 131.194718 -286.232922 
L 130.900603 -285.689285 
L 130.599657 -285.145649 
L 130.298251 -284.602012 
L 130.001906 -284.058375 
L 129.715183 -283.514738 
L 129.441638 -282.971101 
L 129.183833 -282.427464 
L 128.943379 -281.883827 
L 128.721011 -281.340191 
L 128.516669 -280.796554 
L 128.329583 -280.252917 
L 128.158341 -279.70928 
L 128.000959 -279.165643 
L 127.854934 -278.622006 
L 127.717298 -278.078369 
L 127.584674 -277.534733 
L 127.453351 -276.991096 
L 127.319374 -276.447459 
L 127.178659 -275.903822 
L 127.02714 -275.360185 
L 126.860931 -274.816548 
L 126.67651 -274.272912 
L 126.470897 -273.729275 
L 126.241836 -273.185638 
L 125.987939 -272.642001 
L 125.708801 -272.098364 
L 125.405063 -271.554727 
L 125.078419 -271.01109 
L 124.731565 -270.467454 
L 124.368086 -269.923817 
L 123.992301 -269.38018 
L 123.609063 -268.836543 
L 123.22353 -268.292906 
L 122.840936 -267.749269 
L 122.46636 -267.205632 
L 122.104515 -266.661996 
L 121.759573 -266.118359 
L 121.435032 -265.574722 
L 121.133621 -265.031085 
L 120.857261 -264.487448 
L 120.607067 -263.943811 
L 120.38339 -263.400174 
L 120.185894 -262.856538 
L 120.01365 -262.312901 
L 119.865254 -261.769264 
L 119.738946 -261.225627 
z
" id="mdac4293330" style="stroke:#3d3d3d;stroke-width:1.5;"/>
    </defs>
    <g clip-path="url(#p314c3005e6)">
     <use style="fill:#e1812c;stroke:#3d3d3d;stroke-width:1.5;" x="0" xlink:href="#mdac4293330" y="368.607178"/>
    </g>
   </g>
   <g id="PolyCollection_3">
    <defs>
     <path d="M 159.019559 -157.411582 
L 158.761691 -157.411582 
L 158.732516 -159.197253 
L 158.698328 -160.982925 
L 158.658652 -162.768596 
L 158.61305 -164.554268 
L 158.56115 -166.339939 
L 158.502658 -168.12561 
L 158.437387 -169.911282 
L 158.365277 -171.696953 
L 158.286411 -173.482625 
L 158.201037 -175.268296 
L 158.109571 -177.053968 
L 158.01261 -178.839639 
L 157.910929 -180.62531 
L 157.80547 -182.410982 
L 157.697337 -184.196653 
L 157.587763 -185.982325 
L 157.478093 -187.767996 
L 157.369744 -189.553668 
L 157.264171 -191.339339 
L 157.162826 -193.12501 
L 157.067114 -194.910682 
L 156.978355 -196.696353 
L 156.897743 -198.482025 
L 156.826308 -200.267696 
L 156.764886 -202.053368 
L 156.714088 -203.839039 
L 156.674285 -205.62471 
L 156.645587 -207.410382 
L 156.627838 -209.196053 
L 156.620614 -210.981725 
L 156.623224 -212.767396 
L 156.634722 -214.553067 
L 156.653917 -216.338739 
L 156.679398 -218.12441 
L 156.709553 -219.910082 
L 156.742597 -221.695753 
L 156.776605 -223.481425 
L 156.809551 -225.267096 
L 156.839343 -227.052767 
L 156.863873 -228.838439 
L 156.881063 -230.62411 
L 156.888919 -232.409782 
L 156.885586 -234.195453 
L 156.869406 -235.981125 
L 156.838975 -237.766796 
L 156.793201 -239.552467 
L 156.731357 -241.338139 
L 156.653131 -243.12381 
L 156.558664 -244.909482 
L 156.448578 -246.695153 
L 156.323996 -248.480825 
L 156.186543 -250.266496 
L 156.038327 -252.052167 
L 155.881908 -253.837839 
L 155.720247 -255.62351 
L 155.556635 -257.409182 
L 155.394612 -259.194853 
L 155.237865 -260.980525 
L 155.090121 -262.766196 
L 154.955033 -264.551867 
L 154.836066 -266.337539 
L 154.736384 -268.12321 
L 154.658746 -269.908882 
L 154.605419 -271.694553 
L 154.578104 -273.480224 
L 154.577888 -275.265896 
L 154.605211 -277.051567 
L 154.659869 -278.837239 
L 154.741027 -280.62291 
L 154.847268 -282.408582 
L 154.976648 -284.194253 
L 155.126783 -285.979924 
L 155.294931 -287.765596 
L 155.478094 -289.551267 
L 155.673118 -291.336939 
L 155.876793 -293.12261 
L 156.085941 -294.908282 
L 156.297505 -296.693953 
L 156.508619 -298.479624 
L 156.716666 -300.265296 
L 156.919324 -302.050967 
L 157.114595 -303.836639 
L 157.30082 -305.62231 
L 157.476686 -307.407982 
L 157.641214 -309.193653 
L 157.793745 -310.979324 
L 157.933917 -312.764996 
L 158.061632 -314.550667 
L 158.177025 -316.336339 
L 158.28043 -318.12201 
L 158.37234 -319.907682 
L 158.453379 -321.693353 
L 158.524262 -323.479024 
L 158.58577 -325.264696 
L 158.638721 -327.050367 
L 158.683941 -328.836039 
L 158.722254 -330.62171 
L 158.754455 -332.407382 
L 158.781302 -334.193053 
L 158.999948 -334.193053 
L 158.999948 -334.193053 
L 159.026795 -332.407382 
L 159.058996 -330.62171 
L 159.097309 -328.836039 
L 159.142529 -327.050367 
L 159.19548 -325.264696 
L 159.256988 -323.479024 
L 159.327871 -321.693353 
L 159.40891 -319.907682 
L 159.50082 -318.12201 
L 159.604225 -316.336339 
L 159.719618 -314.550667 
L 159.847333 -312.764996 
L 159.987505 -310.979324 
L 160.140036 -309.193653 
L 160.304564 -307.407982 
L 160.48043 -305.62231 
L 160.666655 -303.836639 
L 160.861926 -302.050967 
L 161.064584 -300.265296 
L 161.272631 -298.479624 
L 161.483745 -296.693953 
L 161.695309 -294.908282 
L 161.904457 -293.12261 
L 162.108132 -291.336939 
L 162.303156 -289.551267 
L 162.486319 -287.765596 
L 162.654467 -285.979924 
L 162.804602 -284.194253 
L 162.933982 -282.408582 
L 163.040223 -280.62291 
L 163.121381 -278.837239 
L 163.176039 -277.051567 
L 163.203362 -275.265896 
L 163.203146 -273.480224 
L 163.175831 -271.694553 
L 163.122504 -269.908882 
L 163.044866 -268.12321 
L 162.945184 -266.337539 
L 162.826217 -264.551867 
L 162.691129 -262.766196 
L 162.543385 -260.980525 
L 162.386638 -259.194853 
L 162.224615 -257.409182 
L 162.061003 -255.62351 
L 161.899342 -253.837839 
L 161.742923 -252.052167 
L 161.594707 -250.266496 
L 161.457254 -248.480825 
L 161.332672 -246.695153 
L 161.222586 -244.909482 
L 161.128119 -243.12381 
L 161.049893 -241.338139 
L 160.988049 -239.552467 
L 160.942275 -237.766796 
L 160.911844 -235.981125 
L 160.895664 -234.195453 
L 160.892331 -232.409782 
L 160.900187 -230.62411 
L 160.917377 -228.838439 
L 160.941907 -227.052767 
L 160.971699 -225.267096 
L 161.004645 -223.481425 
L 161.038653 -221.695753 
L 161.071697 -219.910082 
L 161.101852 -218.12441 
L 161.127333 -216.338739 
L 161.146528 -214.553067 
L 161.158026 -212.767396 
L 161.160636 -210.981725 
L 161.153412 -209.196053 
L 161.135663 -207.410382 
L 161.106965 -205.62471 
L 161.067162 -203.839039 
L 161.016364 -202.053368 
L 160.954942 -200.267696 
L 160.883507 -198.482025 
L 160.802895 -196.696353 
L 160.714136 -194.910682 
L 160.618424 -193.12501 
L 160.517079 -191.339339 
L 160.411506 -189.553668 
L 160.303157 -187.767996 
L 160.193487 -185.982325 
L 160.083913 -184.196653 
L 159.97578 -182.410982 
L 159.870321 -180.62531 
L 159.76864 -178.839639 
L 159.671679 -177.053968 
L 159.580213 -175.268296 
L 159.494839 -173.482625 
L 159.415973 -171.696953 
L 159.343863 -169.911282 
L 159.278592 -168.12561 
L 159.2201 -166.339939 
L 159.1682 -164.554268 
L 159.122598 -162.768596 
L 159.082922 -160.982925 
L 159.048734 -159.197253 
L 159.019559 -157.411582 
z
" id="m37e526be8a" style="stroke:#3d3d3d;stroke-width:1.5;"/>
    </defs>
    <g clip-path="url(#p314c3005e6)">
     <use style="fill:#3274a1;stroke:#3d3d3d;stroke-width:1.5;" x="0" xlink:href="#m37e526be8a" y="368.607178"/>
    </g>
   </g>
   <g id="PolyCollection_4">
    <defs>
     <path d="M 198.775207 -229.226144 
L 198.366043 -229.226144 
L 198.308885 -229.852494 
L 198.239982 -230.478843 
L 198.158108 -231.105193 
L 198.062189 -231.731543 
L 197.951356 -232.357893 
L 197.825003 -232.984243 
L 197.682812 -233.610592 
L 197.524776 -234.236942 
L 197.351182 -234.863292 
L 197.162583 -235.489642 
L 196.959741 -236.115992 
L 196.743554 -236.742342 
L 196.514965 -237.368691 
L 196.274876 -237.995041 
L 196.024053 -238.621391 
L 195.763052 -239.247741 
L 195.49215 -239.874091 
L 195.211302 -240.50044 
L 194.920117 -241.12679 
L 194.617851 -241.75314 
L 194.303422 -242.37949 
L 193.975436 -243.00584 
L 193.63224 -243.632189 
L 193.271979 -244.258539 
L 192.892683 -244.884889 
L 192.492368 -245.511239 
L 192.069173 -246.137589 
L 191.621513 -246.763939 
L 191.148275 -247.390288 
L 190.649021 -248.016638 
L 190.124221 -248.642988 
L 189.575467 -249.269338 
L 189.00567 -249.895688 
L 188.419214 -250.522037 
L 187.822033 -251.148387 
L 187.221594 -251.774737 
L 186.62679 -252.401087 
L 186.047704 -253.027437 
L 185.495287 -253.653787 
L 184.980941 -254.280136 
L 184.516051 -254.906486 
L 184.111487 -255.532836 
L 183.777135 -256.159186 
L 183.521467 -256.785536 
L 183.351205 -257.411885 
L 183.271082 -258.038235 
L 183.28372 -258.664585 
L 183.389615 -259.290935 
L 183.587214 -259.917285 
L 183.873062 -260.543635 
L 184.242 -261.169984 
L 184.687379 -261.796334 
L 185.201273 -262.422684 
L 185.774692 -263.049034 
L 186.397778 -263.675384 
L 187.059997 -264.301733 
L 187.750339 -264.928083 
L 188.457534 -265.554433 
L 189.170296 -266.180783 
L 189.877598 -266.807133 
L 190.568967 -267.433483 
L 191.234794 -268.059832 
L 191.866632 -268.686182 
L 192.45746 -269.312532 
L 193.001887 -269.938882 
L 193.496282 -270.565232 
L 193.938808 -271.191581 
L 194.329372 -271.817931 
L 194.669477 -272.444281 
L 194.962021 -273.070631 
L 195.211027 -273.696981 
L 195.421362 -274.323331 
L 195.598445 -274.94968 
L 195.747973 -275.57603 
L 195.875672 -276.20238 
L 195.987082 -276.82873 
L 196.087384 -277.45508 
L 196.181258 -278.081429 
L 196.272772 -278.707779 
L 196.365303 -279.334129 
L 196.461479 -279.960479 
L 196.563147 -280.586829 
L 196.671373 -281.213179 
L 196.78646 -281.839528 
L 196.908008 -282.465878 
L 197.034994 -283.092228 
L 197.165889 -283.718578 
L 197.298786 -284.344928 
L 197.431556 -284.971277 
L 197.561996 -285.597627 
L 197.687979 -286.223977 
L 197.807578 -286.850327 
L 197.919173 -287.476677 
L 198.021518 -288.103027 
L 198.11378 -288.729376 
L 198.195544 -289.355726 
L 198.266784 -289.982076 
L 198.327815 -290.608426 
L 198.379232 -291.234776 
L 198.762018 -291.234776 
L 198.762018 -291.234776 
L 198.813435 -290.608426 
L 198.874466 -289.982076 
L 198.945706 -289.355726 
L 199.02747 -288.729376 
L 199.119732 -288.103027 
L 199.222077 -287.476677 
L 199.333672 -286.850327 
L 199.453271 -286.223977 
L 199.579254 -285.597627 
L 199.709694 -284.971277 
L 199.842464 -284.344928 
L 199.975361 -283.718578 
L 200.106256 -283.092228 
L 200.233242 -282.465878 
L 200.35479 -281.839528 
L 200.469877 -281.213179 
L 200.578103 -280.586829 
L 200.679771 -279.960479 
L 200.775947 -279.334129 
L 200.868478 -278.707779 
L 200.959992 -278.081429 
L 201.053866 -277.45508 
L 201.154168 -276.82873 
L 201.265578 -276.20238 
L 201.393277 -275.57603 
L 201.542805 -274.94968 
L 201.719888 -274.323331 
L 201.930223 -273.696981 
L 202.179229 -273.070631 
L 202.471773 -272.444281 
L 202.811878 -271.817931 
L 203.202442 -271.191581 
L 203.644968 -270.565232 
L 204.139363 -269.938882 
L 204.68379 -269.312532 
L 205.274618 -268.686182 
L 205.906456 -268.059832 
L 206.572283 -267.433483 
L 207.263652 -266.807133 
L 207.970954 -266.180783 
L 208.683716 -265.554433 
L 209.390911 -264.928083 
L 210.081253 -264.301733 
L 210.743472 -263.675384 
L 211.366558 -263.049034 
L 211.939977 -262.422684 
L 212.453871 -261.796334 
L 212.89925 -261.169984 
L 213.268188 -260.543635 
L 213.554036 -259.917285 
L 213.751635 -259.290935 
L 213.85753 -258.664585 
L 213.870168 -258.038235 
L 213.790045 -257.411885 
L 213.619783 -256.785536 
L 213.364115 -256.159186 
L 213.029763 -255.532836 
L 212.625199 -254.906486 
L 212.160309 -254.280136 
L 211.645963 -253.653787 
L 211.093546 -253.027437 
L 210.51446 -252.401087 
L 209.919656 -251.774737 
L 209.319217 -251.148387 
L 208.722036 -250.522037 
L 208.13558 -249.895688 
L 207.565783 -249.269338 
L 207.017029 -248.642988 
L 206.492229 -248.016638 
L 205.992975 -247.390288 
L 205.519737 -246.763939 
L 205.072077 -246.137589 
L 204.648882 -245.511239 
L 204.248567 -244.884889 
L 203.869271 -244.258539 
L 203.50901 -243.632189 
L 203.165814 -243.00584 
L 202.837828 -242.37949 
L 202.523399 -241.75314 
L 202.221133 -241.12679 
L 201.929948 -240.50044 
L 201.6491 -239.874091 
L 201.378198 -239.247741 
L 201.117197 -238.621391 
L 200.866374 -237.995041 
L 200.626285 -237.368691 
L 200.397696 -236.742342 
L 200.181509 -236.115992 
L 199.978667 -235.489642 
L 199.790068 -234.863292 
L 199.616474 -234.236942 
L 199.458438 -233.610592 
L 199.316247 -232.984243 
L 199.189894 -232.357893 
L 199.079061 -231.731543 
L 198.983142 -231.105193 
L 198.901268 -230.478843 
L 198.832365 -229.852494 
L 198.775207 -229.226144 
z
" id="mbe8d5b4d86" style="stroke:#3d3d3d;stroke-width:1.5;"/>
    </defs>
    <g clip-path="url(#p314c3005e6)">
     <use style="fill:#d684bd;stroke:#3d3d3d;stroke-width:1.5;" x="0" xlink:href="#mbe8d5b4d86" y="368.607178"/>
    </g>
   </g>
   <g id="PolyCollection_5">
    <defs>
     <path d="M 238.500711 -196.147078 
L 238.000539 -196.147078 
L 237.934583 -196.671171 
L 237.854931 -197.195265 
L 237.759703 -197.719358 
L 237.646981 -198.243451 
L 237.514849 -198.767545 
L 237.361452 -199.291638 
L 237.185055 -199.815731 
L 236.984112 -200.339825 
L 236.757337 -200.863918 
L 236.503782 -201.388011 
L 236.22291 -201.912105 
L 235.914672 -202.436198 
L 235.579576 -202.960291 
L 235.218752 -203.484385 
L 234.833996 -204.008478 
L 234.427803 -204.532571 
L 234.003368 -205.056665 
L 233.564566 -205.580758 
L 233.115893 -206.104851 
L 232.662367 -206.628945 
L 232.209406 -207.153038 
L 231.762652 -207.677131 
L 231.327782 -208.201225 
L 230.910287 -208.725318 
L 230.515249 -209.249411 
L 230.147115 -209.773505 
L 229.809494 -210.297598 
L 229.504981 -210.821691 
L 229.235027 -211.345785 
L 228.999863 -211.869878 
L 228.79848 -212.393971 
L 228.628671 -212.918065 
L 228.487131 -213.442158 
L 228.369602 -213.966251 
L 228.271067 -214.490345 
L 228.185967 -215.014438 
L 228.108432 -215.538531 
L 228.032526 -216.062625 
L 227.95248 -216.586718 
L 227.86291 -217.110811 
L 227.759026 -217.634905 
L 227.636808 -218.158998 
L 227.493164 -218.683091 
L 227.326062 -219.207185 
L 227.134638 -219.731278 
L 226.919273 -220.255371 
L 226.681643 -220.779465 
L 226.424745 -221.303558 
L 226.15287 -221.827651 
L 225.871551 -222.351745 
L 225.587457 -222.875838 
L 225.30824 -223.399931 
L 225.042327 -223.924025 
L 224.798673 -224.448118 
L 224.586457 -224.972211 
L 224.414752 -225.496305 
L 224.292171 -226.020398 
L 224.226502 -226.544491 
L 224.224363 -227.068585 
L 224.290884 -227.592678 
L 224.429448 -228.116771 
L 224.641498 -228.640865 
L 224.926433 -229.164958 
L 225.281599 -229.689051 
L 225.702379 -230.213145 
L 226.182382 -230.737238 
L 226.713712 -231.261331 
L 227.287313 -231.785425 
L 227.89336 -232.309518 
L 228.521678 -232.833611 
L 229.162153 -233.357705 
L 229.805122 -233.881798 
L 230.441711 -234.405891 
L 231.064105 -234.929985 
L 231.665735 -235.454078 
L 232.241388 -235.978171 
L 232.787222 -236.502265 
L 233.30071 -237.026358 
L 233.78052 -237.550451 
L 234.226345 -238.074545 
L 234.638703 -238.598638 
L 235.018731 -239.122731 
L 235.367979 -239.646825 
L 235.688229 -240.170918 
L 235.981343 -240.695011 
L 236.249144 -241.219105 
L 236.493342 -241.743198 
L 236.715493 -242.267291 
L 236.916986 -242.791385 
L 237.099056 -243.315478 
L 237.262819 -243.839571 
L 237.409303 -244.363665 
L 237.539493 -244.887758 
L 237.654363 -245.411851 
L 237.754899 -245.935945 
L 237.842121 -246.460038 
L 237.917083 -246.984131 
L 237.980869 -247.508225 
L 238.034584 -248.032318 
L 238.466666 -248.032318 
L 238.466666 -248.032318 
L 238.520381 -247.508225 
L 238.584167 -246.984131 
L 238.659129 -246.460038 
L 238.746351 -245.935945 
L 238.846887 -245.411851 
L 238.961757 -244.887758 
L 239.091947 -244.363665 
L 239.238431 -243.839571 
L 239.402194 -243.315478 
L 239.584264 -242.791385 
L 239.785757 -242.267291 
L 240.007908 -241.743198 
L 240.252106 -241.219105 
L 240.519907 -240.695011 
L 240.813021 -240.170918 
L 241.133271 -239.646825 
L 241.482519 -239.122731 
L 241.862547 -238.598638 
L 242.274905 -238.074545 
L 242.72073 -237.550451 
L 243.20054 -237.026358 
L 243.714028 -236.502265 
L 244.259862 -235.978171 
L 244.835515 -235.454078 
L 245.437145 -234.929985 
L 246.059539 -234.405891 
L 246.696128 -233.881798 
L 247.339097 -233.357705 
L 247.979572 -232.833611 
L 248.60789 -232.309518 
L 249.213937 -231.785425 
L 249.787538 -231.261331 
L 250.318868 -230.737238 
L 250.798871 -230.213145 
L 251.219651 -229.689051 
L 251.574817 -229.164958 
L 251.859752 -228.640865 
L 252.071802 -228.116771 
L 252.210366 -227.592678 
L 252.276887 -227.068585 
L 252.274748 -226.544491 
L 252.209079 -226.020398 
L 252.086498 -225.496305 
L 251.914793 -224.972211 
L 251.702577 -224.448118 
L 251.458923 -223.924025 
L 251.19301 -223.399931 
L 250.913793 -222.875838 
L 250.629699 -222.351745 
L 250.34838 -221.827651 
L 250.076505 -221.303558 
L 249.819607 -220.779465 
L 249.581977 -220.255371 
L 249.366612 -219.731278 
L 249.175188 -219.207185 
L 249.008086 -218.683091 
L 248.864442 -218.158998 
L 248.742224 -217.634905 
L 248.63834 -217.110811 
L 248.54877 -216.586718 
L 248.468724 -216.062625 
L 248.392818 -215.538531 
L 248.315283 -215.014438 
L 248.230183 -214.490345 
L 248.131648 -213.966251 
L 248.014119 -213.442158 
L 247.872579 -212.918065 
L 247.70277 -212.393971 
L 247.501387 -211.869878 
L 247.266223 -211.345785 
L 246.996269 -210.821691 
L 246.691756 -210.297598 
L 246.354135 -209.773505 
L 245.986001 -209.249411 
L 245.590963 -208.725318 
L 245.173468 -208.201225 
L 244.738598 -207.677131 
L 244.291844 -207.153038 
L 243.838883 -206.628945 
L 243.385357 -206.104851 
L 242.936684 -205.580758 
L 242.497882 -205.056665 
L 242.073447 -204.532571 
L 241.667254 -204.008478 
L 241.282498 -203.484385 
L 240.921674 -202.960291 
L 240.586578 -202.436198 
L 240.27834 -201.912105 
L 239.997468 -201.388011 
L 239.743913 -200.863918 
L 239.517138 -200.339825 
L 239.316195 -199.815731 
L 239.139798 -199.291638 
L 238.986401 -198.767545 
L 238.854269 -198.243451 
L 238.741547 -197.719358 
L 238.646319 -197.195265 
L 238.566667 -196.671171 
L 238.500711 -196.147078 
z
" id="m487b89b07b" style="stroke:#3d3d3d;stroke-width:1.5;"/>
    </defs>
    <g clip-path="url(#p314c3005e6)">
     <use style="fill:#3a923a;stroke:#3d3d3d;stroke-width:1.5;" x="0" xlink:href="#m487b89b07b" y="368.607178"/>
    </g>
   </g>
   <g id="PolyCollection_6">
    <defs>
     <path d="M 278.099597 -175.83665 
L 277.761653 -175.83665 
L 277.717953 -176.541925 
L 277.665861 -177.2472 
L 277.604517 -177.952475 
L 277.533131 -178.65775 
L 277.451009 -179.363025 
L 277.357573 -180.068299 
L 277.252375 -180.773574 
L 277.135094 -181.478849 
L 277.005523 -182.184124 
L 276.863546 -182.889399 
L 276.709097 -183.594674 
L 276.54212 -184.299949 
L 276.36252 -185.005223 
L 276.17012 -185.710498 
L 275.964628 -186.415773 
L 275.745625 -187.121048 
L 275.512575 -187.826323 
L 275.264858 -188.531598 
L 275.001838 -189.236872 
L 274.722955 -189.942147 
L 274.427836 -190.647422 
L 274.116424 -191.352697 
L 273.789101 -192.057972 
L 273.4468 -192.763247 
L 273.091094 -193.468521 
L 272.724242 -194.173796 
L 272.349185 -194.879071 
L 271.969483 -195.584346 
L 271.589203 -196.289621 
L 271.212742 -196.994896 
L 270.844611 -197.70017 
L 270.489193 -198.405445 
L 270.150489 -199.11072 
L 269.831879 -199.815995 
L 269.53592 -200.52127 
L 269.264198 -201.226545 
L 269.01726 -201.931819 
L 268.794621 -202.637094 
L 268.594867 -203.342369 
L 268.415834 -204.047644 
L 268.254854 -204.752919 
L 268.109055 -205.458194 
L 267.975681 -206.163468 
L 267.852398 -206.868743 
L 267.73758 -207.574018 
L 267.630524 -208.279293 
L 267.531591 -208.984568 
L 267.442247 -209.689843 
L 267.365017 -210.395117 
L 267.303332 -211.100392 
L 267.261298 -211.805667 
L 267.2434 -212.510942 
L 267.25417 -213.216217 
L 267.297832 -213.921492 
L 267.377969 -214.626766 
L 267.497229 -215.332041 
L 267.657089 -216.037316 
L 267.857707 -216.742591 
L 268.097851 -217.447866 
L 268.374939 -218.153141 
L 268.685151 -218.858415 
L 269.023633 -219.56369 
L 269.384752 -220.268965 
L 269.762406 -220.97424 
L 270.15034 -221.679515 
L 270.542465 -222.38479 
L 270.933152 -223.090064 
L 271.317471 -223.795339 
L 271.69138 -224.500614 
L 272.051835 -225.205889 
L 272.396836 -225.911164 
L 272.72539 -226.616439 
L 273.037423 -227.321713 
L 273.333629 -228.026988 
L 273.615291 -228.732263 
L 273.884073 -229.437538 
L 274.14182 -230.142813 
L 274.390359 -230.848088 
L 274.631332 -231.553362 
L 274.866061 -232.258637 
L 275.095462 -232.963912 
L 275.319992 -233.669187 
L 275.53965 -234.374462 
L 275.754013 -235.079737 
L 275.962303 -235.785011 
L 276.163482 -236.490286 
L 276.35635 -237.195561 
L 276.539662 -237.900836 
L 276.712223 -238.606111 
L 276.872985 -239.311386 
L 277.021114 -240.01666 
L 277.156044 -240.721935 
L 277.277502 -241.42721 
L 277.385513 -242.132485 
L 277.480385 -242.83776 
L 277.562678 -243.543035 
L 277.633163 -244.248309 
L 277.692767 -244.953584 
L 277.742529 -245.658859 
L 278.118721 -245.658859 
L 278.118721 -245.658859 
L 278.168483 -244.953584 
L 278.228087 -244.248309 
L 278.298572 -243.543035 
L 278.380865 -242.83776 
L 278.475737 -242.132485 
L 278.583748 -241.42721 
L 278.705206 -240.721935 
L 278.840136 -240.01666 
L 278.988265 -239.311386 
L 279.149027 -238.606111 
L 279.321588 -237.900836 
L 279.5049 -237.195561 
L 279.697768 -236.490286 
L 279.898947 -235.785011 
L 280.107237 -235.079737 
L 280.3216 -234.374462 
L 280.541258 -233.669187 
L 280.765788 -232.963912 
L 280.995189 -232.258637 
L 281.229918 -231.553362 
L 281.470891 -230.848088 
L 281.71943 -230.142813 
L 281.977177 -229.437538 
L 282.245959 -228.732263 
L 282.527621 -228.026988 
L 282.823827 -227.321713 
L 283.13586 -226.616439 
L 283.464414 -225.911164 
L 283.809415 -225.205889 
L 284.16987 -224.500614 
L 284.543779 -223.795339 
L 284.928098 -223.090064 
L 285.318785 -222.38479 
L 285.71091 -221.679515 
L 286.098844 -220.97424 
L 286.476498 -220.268965 
L 286.837617 -219.56369 
L 287.176099 -218.858415 
L 287.486311 -218.153141 
L 287.763399 -217.447866 
L 288.003543 -216.742591 
L 288.204161 -216.037316 
L 288.364021 -215.332041 
L 288.483281 -214.626766 
L 288.563418 -213.921492 
L 288.60708 -213.216217 
L 288.61785 -212.510942 
L 288.599952 -211.805667 
L 288.557918 -211.100392 
L 288.496233 -210.395117 
L 288.419003 -209.689843 
L 288.329659 -208.984568 
L 288.230726 -208.279293 
L 288.12367 -207.574018 
L 288.008852 -206.868743 
L 287.885569 -206.163468 
L 287.752195 -205.458194 
L 287.606396 -204.752919 
L 287.445416 -204.047644 
L 287.266383 -203.342369 
L 287.066629 -202.637094 
L 286.84399 -201.931819 
L 286.597052 -201.226545 
L 286.32533 -200.52127 
L 286.029371 -199.815995 
L 285.710761 -199.11072 
L 285.372057 -198.405445 
L 285.016639 -197.70017 
L 284.648508 -196.994896 
L 284.272047 -196.289621 
L 283.891767 -195.584346 
L 283.512065 -194.879071 
L 283.137008 -194.173796 
L 282.770156 -193.468521 
L 282.41445 -192.763247 
L 282.072149 -192.057972 
L 281.744826 -191.352697 
L 281.433414 -190.647422 
L 281.138295 -189.942147 
L 280.859412 -189.236872 
L 280.596392 -188.531598 
L 280.348675 -187.826323 
L 280.115625 -187.121048 
L 279.896622 -186.415773 
L 279.69113 -185.710498 
L 279.49873 -185.005223 
L 279.31913 -184.299949 
L 279.152153 -183.594674 
L 278.997704 -182.889399 
L 278.855727 -182.184124 
L 278.726156 -181.478849 
L 278.608875 -180.773574 
L 278.503677 -180.068299 
L 278.410241 -179.363025 
L 278.328119 -178.65775 
L 278.256733 -177.952475 
L 278.195389 -177.2472 
L 278.143297 -176.541925 
L 278.099597 -175.83665 
z
" id="m4a9e46b798" style="stroke:#3d3d3d;stroke-width:1.5;"/>
    </defs>
    <g clip-path="url(#p314c3005e6)">
     <use style="fill:#c03d3e;stroke:#3d3d3d;stroke-width:1.5;" x="0" xlink:href="#m4a9e46b798" y="368.607178"/>
    </g>
   </g>
   <g id="PolyCollection_7">
    <defs>
     <path d="M 318.0007 -168.633584 
L 317.22055 -168.633584 
L 317.122187 -169.545285 
L 317.004859 -170.456986 
L 316.866475 -171.368687 
L 316.705088 -172.280388 
L 316.518999 -173.192089 
L 316.306864 -174.10379 
L 316.067801 -175.015491 
L 315.801493 -175.927192 
L 315.508282 -176.838893 
L 315.189234 -177.750594 
L 314.846193 -178.662295 
L 314.481789 -179.573996 
L 314.099421 -180.485697 
L 313.703199 -181.397398 
L 313.297852 -182.309099 
L 312.888602 -183.2208 
L 312.481005 -184.132501 
L 312.080782 -185.044202 
L 311.693628 -185.955903 
L 311.325026 -186.867604 
L 310.980061 -187.779305 
L 310.663264 -188.691006 
L 310.378463 -189.602707 
L 310.128684 -190.514408 
L 309.916071 -191.426109 
L 309.741853 -192.33781 
L 309.606349 -193.249511 
L 309.508996 -194.161212 
L 309.448422 -195.072913 
L 309.422537 -195.984614 
L 309.428648 -196.896315 
L 309.463586 -197.808016 
L 309.523845 -198.719717 
L 309.605724 -199.631418 
L 309.705468 -200.543119 
L 309.819402 -201.45482 
L 309.944053 -202.366521 
L 310.076261 -203.278222 
L 310.213274 -204.189923 
L 310.352813 -205.101624 
L 310.49313 -206.013325 
L 310.633023 -206.925026 
L 310.771844 -207.836727 
L 310.909469 -208.748428 
L 311.046247 -209.660129 
L 311.182934 -210.57183 
L 311.3206 -211.483531 
L 311.46052 -212.395232 
L 311.604068 -213.306933 
L 311.752591 -214.218634 
L 311.907295 -215.130335 
L 312.069141 -216.042036 
L 312.238744 -216.953737 
L 312.416305 -217.865438 
L 312.601562 -218.777139 
L 312.793765 -219.68884 
L 312.991688 -220.600541 
L 313.19367 -221.512242 
L 313.39768 -222.423943 
L 313.601414 -223.335644 
L 313.802408 -224.247345 
L 313.998168 -225.159046 
L 314.186305 -226.070747 
L 314.364664 -226.982448 
L 314.53145 -227.894149 
L 314.685327 -228.80585 
L 314.825492 -229.717551 
L 314.951722 -230.629252 
L 315.064383 -231.540953 
L 315.164401 -232.452654 
L 315.253204 -233.364355 
L 315.332629 -234.276056 
L 315.404812 -235.187757 
L 315.472055 -236.099458 
L 315.536693 -237.011159 
L 315.600958 -237.92286 
L 315.66686 -238.834561 
L 315.736082 -239.746262 
L 315.809903 -240.657963 
L 315.889147 -241.569664 
L 315.974167 -242.481365 
L 316.064855 -243.393066 
L 316.160678 -244.304767 
L 316.260743 -245.216468 
L 316.363869 -246.128169 
L 316.468681 -247.03987 
L 316.573694 -247.951571 
L 316.677407 -248.863272 
L 316.778382 -249.774973 
L 316.875309 -250.686674 
L 316.967062 -251.598375 
L 317.052736 -252.510076 
L 317.131662 -253.421777 
L 317.203417 -254.333478 
L 317.267808 -255.245179 
L 317.324856 -256.15688 
L 317.374765 -257.068581 
L 317.417889 -257.980282 
L 317.454697 -258.891983 
L 317.766553 -258.891983 
L 317.766553 -258.891983 
L 317.803361 -257.980282 
L 317.846485 -257.068581 
L 317.896394 -256.15688 
L 317.953442 -255.245179 
L 318.017833 -254.333478 
L 318.089588 -253.421777 
L 318.168514 -252.510076 
L 318.254188 -251.598375 
L 318.345941 -250.686674 
L 318.442868 -249.774973 
L 318.543843 -248.863272 
L 318.647556 -247.951571 
L 318.752569 -247.03987 
L 318.857381 -246.128169 
L 318.960507 -245.216468 
L 319.060572 -244.304767 
L 319.156395 -243.393066 
L 319.247083 -242.481365 
L 319.332103 -241.569664 
L 319.411347 -240.657963 
L 319.485168 -239.746262 
L 319.55439 -238.834561 
L 319.620292 -237.92286 
L 319.684557 -237.011159 
L 319.749195 -236.099458 
L 319.816438 -235.187757 
L 319.888621 -234.276056 
L 319.968046 -233.364355 
L 320.056849 -232.452654 
L 320.156867 -231.540953 
L 320.269528 -230.629252 
L 320.395758 -229.717551 
L 320.535923 -228.80585 
L 320.6898 -227.894149 
L 320.856586 -226.982448 
L 321.034945 -226.070747 
L 321.223082 -225.159046 
L 321.418842 -224.247345 
L 321.619836 -223.335644 
L 321.82357 -222.423943 
L 322.02758 -221.512242 
L 322.229562 -220.600541 
L 322.427485 -219.68884 
L 322.619688 -218.777139 
L 322.804945 -217.865438 
L 322.982506 -216.953737 
L 323.152109 -216.042036 
L 323.313955 -215.130335 
L 323.468659 -214.218634 
L 323.617182 -213.306933 
L 323.76073 -212.395232 
L 323.90065 -211.483531 
L 324.038316 -210.57183 
L 324.175003 -209.660129 
L 324.311781 -208.748428 
L 324.449406 -207.836727 
L 324.588227 -206.925026 
L 324.72812 -206.013325 
L 324.868437 -205.101624 
L 325.007976 -204.189923 
L 325.144989 -203.278222 
L 325.277197 -202.366521 
L 325.401848 -201.45482 
L 325.515782 -200.543119 
L 325.615526 -199.631418 
L 325.697405 -198.719717 
L 325.757664 -197.808016 
L 325.792602 -196.896315 
L 325.798713 -195.984614 
L 325.772828 -195.072913 
L 325.712254 -194.161212 
L 325.614901 -193.249511 
L 325.479397 -192.33781 
L 325.305179 -191.426109 
L 325.092566 -190.514408 
L 324.842787 -189.602707 
L 324.557986 -188.691006 
L 324.241189 -187.779305 
L 323.896224 -186.867604 
L 323.527622 -185.955903 
L 323.140468 -185.044202 
L 322.740245 -184.132501 
L 322.332648 -183.2208 
L 321.923398 -182.309099 
L 321.518051 -181.397398 
L 321.121829 -180.485697 
L 320.739461 -179.573996 
L 320.375057 -178.662295 
L 320.032016 -177.750594 
L 319.712968 -176.838893 
L 319.419757 -175.927192 
L 319.153449 -175.015491 
L 318.914386 -174.10379 
L 318.702251 -173.192089 
L 318.516162 -172.280388 
L 318.354775 -171.368687 
L 318.216391 -170.456986 
L 318.099063 -169.545285 
L 318.0007 -168.633584 
z
" id="mc1f98daaee" style="stroke:#3d3d3d;stroke-width:1.5;"/>
    </defs>
    <g clip-path="url(#p314c3005e6)">
     <use style="fill:#d1d197;stroke:#3d3d3d;stroke-width:1.5;" x="0" xlink:href="#mc1f98daaee" y="368.607178"/>
    </g>
   </g>
   <g id="PolyCollection_8">
    <defs>
     <path d="M 357.930377 -173.721664 
L 356.650873 -173.721664 
L 356.516182 -174.385621 
L 356.360584 -175.049578 
L 356.182533 -175.713534 
L 355.980721 -176.377491 
L 355.754151 -177.041448 
L 355.502205 -177.705405 
L 355.224712 -178.369362 
L 354.921994 -179.033319 
L 354.594907 -179.697276 
L 354.244852 -180.361233 
L 353.873774 -181.02519 
L 353.484125 -181.689147 
L 353.078821 -182.353104 
L 352.661157 -183.017061 
L 352.234719 -183.681018 
L 351.803274 -184.344975 
L 351.37066 -185.008932 
L 350.940663 -185.672889 
L 350.516916 -186.336846 
L 350.1028 -187.000803 
L 349.701373 -187.66476 
L 349.315317 -188.328717 
L 348.946922 -188.992673 
L 348.59809 -189.65663 
L 348.270369 -190.320587 
L 347.965014 -190.984544 
L 347.683055 -191.648501 
L 347.425386 -192.312458 
L 347.192842 -192.976415 
L 346.986277 -193.640372 
L 346.806625 -194.304329 
L 346.654927 -194.968286 
L 346.532346 -195.632243 
L 346.440136 -196.2962 
L 346.379595 -196.960157 
L 346.35198 -197.624114 
L 346.358406 -198.288071 
L 346.399733 -198.952028 
L 346.476443 -199.615985 
L 346.588528 -200.279942 
L 346.73539 -200.943899 
L 346.915769 -201.607856 
L 347.127695 -202.271812 
L 347.368483 -202.935769 
L 347.634767 -203.599726 
L 347.922565 -204.263683 
L 348.227392 -204.92764 
L 348.544389 -205.591597 
L 348.868489 -206.255554 
L 349.194588 -206.919511 
L 349.517724 -207.583468 
L 349.833253 -208.247425 
L 350.137004 -208.911382 
L 350.42542 -209.575339 
L 350.695668 -210.239296 
L 350.945707 -210.903253 
L 351.174333 -211.56721 
L 351.381174 -212.231167 
L 351.566665 -212.895124 
L 351.731974 -213.559081 
L 351.878917 -214.223038 
L 352.009839 -214.886994 
L 352.127492 -215.550951 
L 352.234898 -216.214908 
L 352.335213 -216.878865 
L 352.431596 -217.542822 
L 352.527089 -218.206779 
L 352.624511 -218.870736 
L 352.726366 -219.534693 
L 352.834779 -220.19865 
L 352.95144 -220.862607 
L 353.077576 -221.526564 
L 353.213942 -222.190521 
L 353.360826 -222.854478 
L 353.51807 -223.518435 
L 353.685105 -224.182392 
L 353.860998 -224.846349 
L 354.044506 -225.510306 
L 354.234132 -226.174263 
L 354.428189 -226.83822 
L 354.624866 -227.502177 
L 354.822288 -228.166133 
L 355.018576 -228.83009 
L 355.211906 -229.494047 
L 355.400554 -230.158004 
L 355.582943 -230.821961 
L 355.757676 -231.485918 
L 355.923564 -232.149875 
L 356.079643 -232.813832 
L 356.225185 -233.477789 
L 356.359698 -234.141746 
L 356.482916 -234.805703 
L 356.594794 -235.46966 
L 356.695481 -236.133617 
L 356.785298 -236.797574 
L 356.864714 -237.461531 
L 356.934317 -238.125488 
L 356.994782 -238.789445 
L 357.046848 -239.453402 
L 357.534402 -239.453402 
L 357.534402 -239.453402 
L 357.586468 -238.789445 
L 357.646933 -238.125488 
L 357.716536 -237.461531 
L 357.795952 -236.797574 
L 357.885769 -236.133617 
L 357.986456 -235.46966 
L 358.098334 -234.805703 
L 358.221552 -234.141746 
L 358.356065 -233.477789 
L 358.501607 -232.813832 
L 358.657686 -232.149875 
L 358.823574 -231.485918 
L 358.998307 -230.821961 
L 359.180696 -230.158004 
L 359.369344 -229.494047 
L 359.562674 -228.83009 
L 359.758962 -228.166133 
L 359.956384 -227.502177 
L 360.153061 -226.83822 
L 360.347118 -226.174263 
L 360.536744 -225.510306 
L 360.720252 -224.846349 
L 360.896145 -224.182392 
L 361.06318 -223.518435 
L 361.220424 -222.854478 
L 361.367308 -222.190521 
L 361.503674 -221.526564 
L 361.62981 -220.862607 
L 361.746471 -220.19865 
L 361.854884 -219.534693 
L 361.956739 -218.870736 
L 362.054161 -218.206779 
L 362.149654 -217.542822 
L 362.246037 -216.878865 
L 362.346352 -216.214908 
L 362.453758 -215.550951 
L 362.571411 -214.886994 
L 362.702333 -214.223038 
L 362.849276 -213.559081 
L 363.014585 -212.895124 
L 363.200076 -212.231167 
L 363.406917 -211.56721 
L 363.635543 -210.903253 
L 363.885582 -210.239296 
L 364.15583 -209.575339 
L 364.444246 -208.911382 
L 364.747997 -208.247425 
L 365.063526 -207.583468 
L 365.386662 -206.919511 
L 365.712761 -206.255554 
L 366.036861 -205.591597 
L 366.353858 -204.92764 
L 366.658685 -204.263683 
L 366.946483 -203.599726 
L 367.212767 -202.935769 
L 367.453555 -202.271812 
L 367.665481 -201.607856 
L 367.84586 -200.943899 
L 367.992722 -200.279942 
L 368.104807 -199.615985 
L 368.181517 -198.952028 
L 368.222844 -198.288071 
L 368.22927 -197.624114 
L 368.201655 -196.960157 
L 368.141114 -196.2962 
L 368.048904 -195.632243 
L 367.926323 -194.968286 
L 367.774625 -194.304329 
L 367.594973 -193.640372 
L 367.388408 -192.976415 
L 367.155864 -192.312458 
L 366.898195 -191.648501 
L 366.616236 -190.984544 
L 366.310881 -190.320587 
L 365.98316 -189.65663 
L 365.634328 -188.992673 
L 365.265933 -188.328717 
L 364.879877 -187.66476 
L 364.47845 -187.000803 
L 364.064334 -186.336846 
L 363.640587 -185.672889 
L 363.21059 -185.008932 
L 362.777976 -184.344975 
L 362.346531 -183.681018 
L 361.920093 -183.017061 
L 361.502429 -182.353104 
L 361.097125 -181.689147 
L 360.707476 -181.02519 
L 360.336398 -180.361233 
L 359.986343 -179.697276 
L 359.659256 -179.033319 
L 359.356538 -178.369362 
L 359.079045 -177.705405 
L 358.827099 -177.041448 
L 358.600529 -176.377491 
L 358.398717 -175.713534 
L 358.220666 -175.049578 
L 358.065068 -174.385621 
L 357.930377 -173.721664 
z
" id="mb87b98ce11" style="stroke:#3d3d3d;stroke-width:1.5;"/>
    </defs>
    <g clip-path="url(#p314c3005e6)">
     <use style="fill:#9fd495;stroke:#3d3d3d;stroke-width:1.5;" x="0" xlink:href="#mb87b98ce11" y="368.607178"/>
    </g>
   </g>
   <g id="PolyCollection_9">
    <defs>
     <path d="M 397.155847 -92.273053 
L 396.785403 -92.273053 
L 396.738318 -94.535643 
L 396.681909 -96.798233 
L 396.615054 -99.060823 
L 396.536679 -101.323414 
L 396.445808 -103.586004 
L 396.341625 -105.848594 
L 396.223533 -108.111184 
L 396.091216 -110.373774 
L 395.944708 -112.636364 
L 395.78444 -114.898955 
L 395.611288 -117.161545 
L 395.426602 -119.424135 
L 395.232216 -121.686725 
L 395.030436 -123.949315 
L 394.824005 -126.211905 
L 394.616045 -128.474495 
L 394.409967 -130.737086 
L 394.209376 -132.999676 
L 394.017939 -135.262266 
L 393.839262 -137.524856 
L 393.676746 -139.787446 
L 393.533461 -142.050036 
L 393.412015 -144.312627 
L 393.31446 -146.575217 
L 393.242203 -148.837807 
L 393.195961 -151.100397 
L 393.175744 -153.362987 
L 393.180862 -155.625577 
L 393.209981 -157.888168 
L 393.261187 -160.150758 
L 393.332094 -162.413348 
L 393.419951 -164.675938 
L 393.521773 -166.938528 
L 393.634466 -169.201118 
L 393.754951 -171.463709 
L 393.880282 -173.726299 
L 394.00774 -175.988889 
L 394.134914 -178.251479 
L 394.259758 -180.514069 
L 394.380628 -182.776659 
L 394.496287 -185.039249 
L 394.605904 -187.30184 
L 394.709017 -189.56443 
L 394.8055 -191.82702 
L 394.8955 -194.08961 
L 394.979375 -196.3522 
L 395.057634 -198.61479 
L 395.130864 -200.877381 
L 395.199671 -203.139971 
L 395.264625 -205.402561 
L 395.326216 -207.665151 
L 395.384819 -209.927741 
L 395.440677 -212.190331 
L 395.493892 -214.452922 
L 395.544437 -216.715512 
L 395.592171 -218.978102 
L 395.636875 -221.240692 
L 395.678283 -223.503282 
L 395.716126 -225.765872 
L 395.75018 -228.028463 
L 395.780297 -230.291053 
L 395.806446 -232.553643 
L 395.82874 -234.816233 
L 395.847443 -237.078823 
L 395.862985 -239.341413 
L 395.875944 -241.604003 
L 395.887031 -243.866594 
L 395.897058 -246.129184 
L 395.906903 -248.391774 
L 395.917463 -250.654364 
L 395.929613 -252.916954 
L 395.944159 -255.179544 
L 395.961801 -257.442135 
L 395.983099 -259.704725 
L 396.008445 -261.967315 
L 396.038051 -264.229905 
L 396.071943 -266.492495 
L 396.109963 -268.755085 
L 396.151787 -271.017676 
L 396.196941 -273.280266 
L 396.244835 -275.542856 
L 396.294787 -277.805446 
L 396.346064 -280.068036 
L 396.39791 -282.330626 
L 396.44958 -284.593217 
L 396.500367 -286.855807 
L 396.549629 -289.118397 
L 396.596804 -291.380987 
L 396.641422 -293.643577 
L 396.683117 -295.906167 
L 396.721628 -298.168757 
L 396.756791 -300.431348 
L 396.78854 -302.693938 
L 396.816892 -304.956528 
L 396.841938 -307.219118 
L 396.863828 -309.481708 
L 396.882759 -311.744298 
L 396.89896 -314.006889 
L 396.912683 -316.269479 
L 397.028567 -316.269479 
L 397.028567 -316.269479 
L 397.04229 -314.006889 
L 397.058491 -311.744298 
L 397.077422 -309.481708 
L 397.099312 -307.219118 
L 397.124358 -304.956528 
L 397.15271 -302.693938 
L 397.184459 -300.431348 
L 397.219622 -298.168757 
L 397.258133 -295.906167 
L 397.299828 -293.643577 
L 397.344446 -291.380987 
L 397.391621 -289.118397 
L 397.440883 -286.855807 
L 397.49167 -284.593217 
L 397.54334 -282.330626 
L 397.595186 -280.068036 
L 397.646463 -277.805446 
L 397.696415 -275.542856 
L 397.744309 -273.280266 
L 397.789463 -271.017676 
L 397.831287 -268.755085 
L 397.869307 -266.492495 
L 397.903199 -264.229905 
L 397.932805 -261.967315 
L 397.958151 -259.704725 
L 397.979449 -257.442135 
L 397.997091 -255.179544 
L 398.011637 -252.916954 
L 398.023787 -250.654364 
L 398.034347 -248.391774 
L 398.044192 -246.129184 
L 398.054219 -243.866594 
L 398.065306 -241.604003 
L 398.078265 -239.341413 
L 398.093807 -237.078823 
L 398.11251 -234.816233 
L 398.134804 -232.553643 
L 398.160953 -230.291053 
L 398.19107 -228.028463 
L 398.225124 -225.765872 
L 398.262967 -223.503282 
L 398.304375 -221.240692 
L 398.349079 -218.978102 
L 398.396813 -216.715512 
L 398.447358 -214.452922 
L 398.500573 -212.190331 
L 398.556431 -209.927741 
L 398.615034 -207.665151 
L 398.676625 -205.402561 
L 398.741579 -203.139971 
L 398.810386 -200.877381 
L 398.883616 -198.61479 
L 398.961875 -196.3522 
L 399.04575 -194.08961 
L 399.13575 -191.82702 
L 399.232233 -189.56443 
L 399.335346 -187.30184 
L 399.444963 -185.039249 
L 399.560622 -182.776659 
L 399.681492 -180.514069 
L 399.806336 -178.251479 
L 399.93351 -175.988889 
L 400.060968 -173.726299 
L 400.186299 -171.463709 
L 400.306784 -169.201118 
L 400.419477 -166.938528 
L 400.521299 -164.675938 
L 400.609156 -162.413348 
L 400.680063 -160.150758 
L 400.731269 -157.888168 
L 400.760388 -155.625577 
L 400.765506 -153.362987 
L 400.745289 -151.100397 
L 400.699047 -148.837807 
L 400.62679 -146.575217 
L 400.529235 -144.312627 
L 400.407789 -142.050036 
L 400.264504 -139.787446 
L 400.101988 -137.524856 
L 399.923311 -135.262266 
L 399.731874 -132.999676 
L 399.531283 -130.737086 
L 399.325205 -128.474495 
L 399.117245 -126.211905 
L 398.910814 -123.949315 
L 398.709034 -121.686725 
L 398.514648 -119.424135 
L 398.329962 -117.161545 
L 398.15681 -114.898955 
L 397.996542 -112.636364 
L 397.850034 -110.373774 
L 397.717717 -108.111184 
L 397.599625 -105.848594 
L 397.495442 -103.586004 
L 397.404571 -101.323414 
L 397.326196 -99.060823 
L 397.259341 -96.798233 
L 397.202932 -94.535643 
L 397.155847 -92.273053 
z
" id="m105fe54b92" style="stroke:#3d3d3d;stroke-width:1.5;"/>
    </defs>
    <g clip-path="url(#p314c3005e6)">
     <use style="fill:#f2a5a3;stroke:#3d3d3d;stroke-width:1.5;" x="0" xlink:href="#m105fe54b92" y="368.607178"/>
    </g>
   </g>
   <g id="matplotlib.axis_1">
    <g id="xtick_1">
     <g id="line2d_1">
      <defs>
       <path d="M 0 0 
L 0 3.5 
" id="m8516b68f4f" style="stroke:#000000;stroke-width:0.8;"/>
      </defs>
      <g>
       <use style="stroke:#000000;stroke-width:0.8;" x="79.530625" xlink:href="#m8516b68f4f" y="288.430125"/>
      </g>
     </g>
     <g id="text_1">
      <!-- mopt -->
      <g transform="translate(55.863161 315.074627)rotate(-30)scale(0.1 -0.1)">
       <defs>
        <path d="M 52 44.1875 
Q 55.375 50.25 60.0625 53.125 
Q 64.75 56 71.09375 56 
Q 79.640625 56 84.28125 50.015625 
Q 88.921875 44.046875 88.921875 33.015625 
L 88.921875 0 
L 79.890625 0 
L 79.890625 32.71875 
Q 79.890625 40.578125 77.09375 44.375 
Q 74.3125 48.1875 68.609375 48.1875 
Q 61.625 48.1875 57.5625 43.546875 
Q 53.515625 38.921875 53.515625 30.90625 
L 53.515625 0 
L 44.484375 0 
L 44.484375 32.71875 
Q 44.484375 40.625 41.703125 44.40625 
Q 38.921875 48.1875 33.109375 48.1875 
Q 26.21875 48.1875 22.15625 43.53125 
Q 18.109375 38.875 18.109375 30.90625 
L 18.109375 0 
L 9.078125 0 
L 9.078125 54.6875 
L 18.109375 54.6875 
L 18.109375 46.1875 
Q 21.1875 51.21875 25.484375 53.609375 
Q 29.78125 56 35.6875 56 
Q 41.65625 56 45.828125 52.96875 
Q 50 49.953125 52 44.1875 
z
" id="DejaVuSans-109"/>
        <path d="M 30.609375 48.390625 
Q 23.390625 48.390625 19.1875 42.75 
Q 14.984375 37.109375 14.984375 27.296875 
Q 14.984375 17.484375 19.15625 11.84375 
Q 23.34375 6.203125 30.609375 6.203125 
Q 37.796875 6.203125 41.984375 11.859375 
Q 46.1875 17.53125 46.1875 27.296875 
Q 46.1875 37.015625 41.984375 42.703125 
Q 37.796875 48.390625 30.609375 48.390625 
z
M 30.609375 56 
Q 42.328125 56 49.015625 48.375 
Q 55.71875 40.765625 55.71875 27.296875 
Q 55.71875 13.875 49.015625 6.21875 
Q 42.328125 -1.421875 30.609375 -1.421875 
Q 18.84375 -1.421875 12.171875 6.21875 
Q 5.515625 13.875 5.515625 27.296875 
Q 5.515625 40.765625 12.171875 48.375 
Q 18.84375 56 30.609375 56 
z
" id="DejaVuSans-111"/>
        <path d="M 18.109375 8.203125 
L 18.109375 -20.796875 
L 9.078125 -20.796875 
L 9.078125 54.6875 
L 18.109375 54.6875 
L 18.109375 46.390625 
Q 20.953125 51.265625 25.265625 53.625 
Q 29.59375 56 35.59375 56 
Q 45.5625 56 51.78125 48.09375 
Q 58.015625 40.1875 58.015625 27.296875 
Q 58.015625 14.40625 51.78125 6.484375 
Q 45.5625 -1.421875 35.59375 -1.421875 
Q 29.59375 -1.421875 25.265625 0.953125 
Q 20.953125 3.328125 18.109375 8.203125 
z
M 48.6875 27.296875 
Q 48.6875 37.203125 44.609375 42.84375 
Q 40.53125 48.484375 33.40625 48.484375 
Q 26.265625 48.484375 22.1875 42.84375 
Q 18.109375 37.203125 18.109375 27.296875 
Q 18.109375 17.390625 22.1875 11.75 
Q 26.265625 6.109375 33.40625 6.109375 
Q 40.53125 6.109375 44.609375 11.75 
Q 48.6875 17.390625 48.6875 27.296875 
z
" id="DejaVuSans-112"/>
        <path d="M 18.3125 70.21875 
L 18.3125 54.6875 
L 36.8125 54.6875 
L 36.8125 47.703125 
L 18.3125 47.703125 
L 18.3125 18.015625 
Q 18.3125 11.328125 20.140625 9.421875 
Q 21.96875 7.515625 27.59375 7.515625 
L 36.8125 7.515625 
L 36.8125 0 
L 27.59375 0 
Q 17.1875 0 13.234375 3.875 
Q 9.28125 7.765625 9.28125 18.015625 
L 9.28125 47.703125 
L 2.6875 47.703125 
L 2.6875 54.6875 
L 9.28125 54.6875 
L 9.28125 70.21875 
z
" id="DejaVuSans-116"/>
       </defs>
       <use xlink:href="#DejaVuSans-109"/>
       <use x="97.412109" xlink:href="#DejaVuSans-111"/>
       <use x="158.59375" xlink:href="#DejaVuSans-112"/>
       <use x="222.070312" xlink:href="#DejaVuSans-116"/>
      </g>
     </g>
    </g>
    <g id="xtick_2">
     <g id="line2d_2">
      <g>
       <use style="stroke:#000000;stroke-width:0.8;" x="119.210625" xlink:href="#m8516b68f4f" y="288.430125"/>
      </g>
     </g>
     <g id="text_2">
      <!-- entropic -->
      <g transform="translate(82.628557 322.530877)rotate(-30)scale(0.1 -0.1)">
       <defs>
        <path d="M 56.203125 29.59375 
L 56.203125 25.203125 
L 14.890625 25.203125 
Q 15.484375 15.921875 20.484375 11.0625 
Q 25.484375 6.203125 34.421875 6.203125 
Q 39.59375 6.203125 44.453125 7.46875 
Q 49.3125 8.734375 54.109375 11.28125 
L 54.109375 2.78125 
Q 49.265625 0.734375 44.1875 -0.34375 
Q 39.109375 -1.421875 33.890625 -1.421875 
Q 20.796875 -1.421875 13.15625 6.1875 
Q 5.515625 13.8125 5.515625 26.8125 
Q 5.515625 40.234375 12.765625 48.109375 
Q 20.015625 56 32.328125 56 
Q 43.359375 56 49.78125 48.890625 
Q 56.203125 41.796875 56.203125 29.59375 
z
M 47.21875 32.234375 
Q 47.125 39.59375 43.09375 43.984375 
Q 39.0625 48.390625 32.421875 48.390625 
Q 24.90625 48.390625 20.390625 44.140625 
Q 15.875 39.890625 15.1875 32.171875 
z
" id="DejaVuSans-101"/>
        <path d="M 54.890625 33.015625 
L 54.890625 0 
L 45.90625 0 
L 45.90625 32.71875 
Q 45.90625 40.484375 42.875 44.328125 
Q 39.84375 48.1875 33.796875 48.1875 
Q 26.515625 48.1875 22.3125 43.546875 
Q 18.109375 38.921875 18.109375 30.90625 
L 18.109375 0 
L 9.078125 0 
L 9.078125 54.6875 
L 18.109375 54.6875 
L 18.109375 46.1875 
Q 21.34375 51.125 25.703125 53.5625 
Q 30.078125 56 35.796875 56 
Q 45.21875 56 50.046875 50.171875 
Q 54.890625 44.34375 54.890625 33.015625 
z
" id="DejaVuSans-110"/>
        <path d="M 41.109375 46.296875 
Q 39.59375 47.171875 37.8125 47.578125 
Q 36.03125 48 33.890625 48 
Q 26.265625 48 22.1875 43.046875 
Q 18.109375 38.09375 18.109375 28.8125 
L 18.109375 0 
L 9.078125 0 
L 9.078125 54.6875 
L 18.109375 54.6875 
L 18.109375 46.1875 
Q 20.953125 51.171875 25.484375 53.578125 
Q 30.03125 56 36.53125 56 
Q 37.453125 56 38.578125 55.875 
Q 39.703125 55.765625 41.0625 55.515625 
z
" id="DejaVuSans-114"/>
        <path d="M 9.421875 54.6875 
L 18.40625 54.6875 
L 18.40625 0 
L 9.421875 0 
z
M 9.421875 75.984375 
L 18.40625 75.984375 
L 18.40625 64.59375 
L 9.421875 64.59375 
z
" id="DejaVuSans-105"/>
        <path d="M 48.78125 52.59375 
L 48.78125 44.1875 
Q 44.96875 46.296875 41.140625 47.34375 
Q 37.3125 48.390625 33.40625 48.390625 
Q 24.65625 48.390625 19.8125 42.84375 
Q 14.984375 37.3125 14.984375 27.296875 
Q 14.984375 17.28125 19.8125 11.734375 
Q 24.65625 6.203125 33.40625 6.203125 
Q 37.3125 6.203125 41.140625 7.25 
Q 44.96875 8.296875 48.78125 10.40625 
L 48.78125 2.09375 
Q 45.015625 0.34375 40.984375 -0.53125 
Q 36.96875 -1.421875 32.421875 -1.421875 
Q 20.0625 -1.421875 12.78125 6.34375 
Q 5.515625 14.109375 5.515625 27.296875 
Q 5.515625 40.671875 12.859375 48.328125 
Q 20.21875 56 33.015625 56 
Q 37.15625 56 41.109375 55.140625 
Q 45.0625 54.296875 48.78125 52.59375 
z
" id="DejaVuSans-99"/>
       </defs>
       <use xlink:href="#DejaVuSans-101"/>
       <use x="61.523438" xlink:href="#DejaVuSans-110"/>
       <use x="124.902344" xlink:href="#DejaVuSans-116"/>
       <use x="164.111328" xlink:href="#DejaVuSans-114"/>
       <use x="202.974609" xlink:href="#DejaVuSans-111"/>
       <use x="264.15625" xlink:href="#DejaVuSans-112"/>
       <use x="327.632812" xlink:href="#DejaVuSans-105"/>
       <use x="355.416016" xlink:href="#DejaVuSans-99"/>
      </g>
     </g>
    </g>
    <g id="xtick_3">
     <g id="line2d_3">
      <g>
       <use style="stroke:#000000;stroke-width:0.8;" x="158.890625" xlink:href="#m8516b68f4f" y="288.430125"/>
      </g>
     </g>
     <g id="text_3">
      <!-- aflplusplus -->
      <g transform="translate(111.281618 328.897284)rotate(-30)scale(0.1 -0.1)">
       <defs>
        <path d="M 34.28125 27.484375 
Q 23.390625 27.484375 19.1875 25 
Q 14.984375 22.515625 14.984375 16.5 
Q 14.984375 11.71875 18.140625 8.90625 
Q 21.296875 6.109375 26.703125 6.109375 
Q 34.1875 6.109375 38.703125 11.40625 
Q 43.21875 16.703125 43.21875 25.484375 
L 43.21875 27.484375 
z
M 52.203125 31.203125 
L 52.203125 0 
L 43.21875 0 
L 43.21875 8.296875 
Q 40.140625 3.328125 35.546875 0.953125 
Q 30.953125 -1.421875 24.3125 -1.421875 
Q 15.921875 -1.421875 10.953125 3.296875 
Q 6 8.015625 6 15.921875 
Q 6 25.140625 12.171875 29.828125 
Q 18.359375 34.515625 30.609375 34.515625 
L 43.21875 34.515625 
L 43.21875 35.40625 
Q 43.21875 41.609375 39.140625 45 
Q 35.0625 48.390625 27.6875 48.390625 
Q 23 48.390625 18.546875 47.265625 
Q 14.109375 46.140625 10.015625 43.890625 
L 10.015625 52.203125 
Q 14.9375 54.109375 19.578125 55.046875 
Q 24.21875 56 28.609375 56 
Q 40.484375 56 46.34375 49.84375 
Q 52.203125 43.703125 52.203125 31.203125 
z
" id="DejaVuSans-97"/>
        <path d="M 37.109375 75.984375 
L 37.109375 68.5 
L 28.515625 68.5 
Q 23.6875 68.5 21.796875 66.546875 
Q 19.921875 64.59375 19.921875 59.515625 
L 19.921875 54.6875 
L 34.71875 54.6875 
L 34.71875 47.703125 
L 19.921875 47.703125 
L 19.921875 0 
L 10.890625 0 
L 10.890625 47.703125 
L 2.296875 47.703125 
L 2.296875 54.6875 
L 10.890625 54.6875 
L 10.890625 58.5 
Q 10.890625 67.625 15.140625 71.796875 
Q 19.390625 75.984375 28.609375 75.984375 
z
" id="DejaVuSans-102"/>
        <path d="M 9.421875 75.984375 
L 18.40625 75.984375 
L 18.40625 0 
L 9.421875 0 
z
" id="DejaVuSans-108"/>
        <path d="M 8.5 21.578125 
L 8.5 54.6875 
L 17.484375 54.6875 
L 17.484375 21.921875 
Q 17.484375 14.15625 20.5 10.265625 
Q 23.53125 6.390625 29.59375 6.390625 
Q 36.859375 6.390625 41.078125 11.03125 
Q 45.3125 15.671875 45.3125 23.6875 
L 45.3125 54.6875 
L 54.296875 54.6875 
L 54.296875 0 
L 45.3125 0 
L 45.3125 8.40625 
Q 42.046875 3.421875 37.71875 1 
Q 33.40625 -1.421875 27.6875 -1.421875 
Q 18.265625 -1.421875 13.375 4.4375 
Q 8.5 10.296875 8.5 21.578125 
z
M 31.109375 56 
z
" id="DejaVuSans-117"/>
        <path d="M 44.28125 53.078125 
L 44.28125 44.578125 
Q 40.484375 46.53125 36.375 47.5 
Q 32.28125 48.484375 27.875 48.484375 
Q 21.1875 48.484375 17.84375 46.4375 
Q 14.5 44.390625 14.5 40.28125 
Q 14.5 37.15625 16.890625 35.375 
Q 19.28125 33.59375 26.515625 31.984375 
L 29.59375 31.296875 
Q 39.15625 29.25 43.1875 25.515625 
Q 47.21875 21.78125 47.21875 15.09375 
Q 47.21875 7.46875 41.1875 3.015625 
Q 35.15625 -1.421875 24.609375 -1.421875 
Q 20.21875 -1.421875 15.453125 -0.5625 
Q 10.6875 0.296875 5.421875 2 
L 5.421875 11.28125 
Q 10.40625 8.6875 15.234375 7.390625 
Q 20.0625 6.109375 24.8125 6.109375 
Q 31.15625 6.109375 34.5625 8.28125 
Q 37.984375 10.453125 37.984375 14.40625 
Q 37.984375 18.0625 35.515625 20.015625 
Q 33.0625 21.96875 24.703125 23.78125 
L 21.578125 24.515625 
Q 13.234375 26.265625 9.515625 29.90625 
Q 5.8125 33.546875 5.8125 39.890625 
Q 5.8125 47.609375 11.28125 51.796875 
Q 16.75 56 26.8125 56 
Q 31.78125 56 36.171875 55.265625 
Q 40.578125 54.546875 44.28125 53.078125 
z
" id="DejaVuSans-115"/>
       </defs>
       <use xlink:href="#DejaVuSans-97"/>
       <use x="61.279297" xlink:href="#DejaVuSans-102"/>
       <use x="96.484375" xlink:href="#DejaVuSans-108"/>
       <use x="124.267578" xlink:href="#DejaVuSans-112"/>
       <use x="187.744141" xlink:href="#DejaVuSans-108"/>
       <use x="215.527344" xlink:href="#DejaVuSans-117"/>
       <use x="278.90625" xlink:href="#DejaVuSans-115"/>
       <use x="331.005859" xlink:href="#DejaVuSans-112"/>
       <use x="394.482422" xlink:href="#DejaVuSans-108"/>
       <use x="422.265625" xlink:href="#DejaVuSans-117"/>
       <use x="485.644531" xlink:href="#DejaVuSans-115"/>
      </g>
     </g>
    </g>
    <g id="xtick_4">
     <g id="line2d_4">
      <g>
       <use style="stroke:#000000;stroke-width:0.8;" x="198.570625" xlink:href="#m8516b68f4f" y="288.430125"/>
      </g>
     </g>
     <g id="text_4">
      <!-- honggfuzz -->
      <g transform="translate(152.631424 327.933221)rotate(-30)scale(0.1 -0.1)">
       <defs>
        <path d="M 54.890625 33.015625 
L 54.890625 0 
L 45.90625 0 
L 45.90625 32.71875 
Q 45.90625 40.484375 42.875 44.328125 
Q 39.84375 48.1875 33.796875 48.1875 
Q 26.515625 48.1875 22.3125 43.546875 
Q 18.109375 38.921875 18.109375 30.90625 
L 18.109375 0 
L 9.078125 0 
L 9.078125 75.984375 
L 18.109375 75.984375 
L 18.109375 46.1875 
Q 21.34375 51.125 25.703125 53.5625 
Q 30.078125 56 35.796875 56 
Q 45.21875 56 50.046875 50.171875 
Q 54.890625 44.34375 54.890625 33.015625 
z
" id="DejaVuSans-104"/>
        <path d="M 45.40625 27.984375 
Q 45.40625 37.75 41.375 43.109375 
Q 37.359375 48.484375 30.078125 48.484375 
Q 22.859375 48.484375 18.828125 43.109375 
Q 14.796875 37.75 14.796875 27.984375 
Q 14.796875 18.265625 18.828125 12.890625 
Q 22.859375 7.515625 30.078125 7.515625 
Q 37.359375 7.515625 41.375 12.890625 
Q 45.40625 18.265625 45.40625 27.984375 
z
M 54.390625 6.78125 
Q 54.390625 -7.171875 48.1875 -13.984375 
Q 42 -20.796875 29.203125 -20.796875 
Q 24.46875 -20.796875 20.265625 -20.09375 
Q 16.0625 -19.390625 12.109375 -17.921875 
L 12.109375 -9.1875 
Q 16.0625 -11.328125 19.921875 -12.34375 
Q 23.78125 -13.375 27.78125 -13.375 
Q 36.625 -13.375 41.015625 -8.765625 
Q 45.40625 -4.15625 45.40625 5.171875 
L 45.40625 9.625 
Q 42.625 4.78125 38.28125 2.390625 
Q 33.9375 0 27.875 0 
Q 17.828125 0 11.671875 7.65625 
Q 5.515625 15.328125 5.515625 27.984375 
Q 5.515625 40.671875 11.671875 48.328125 
Q 17.828125 56 27.875 56 
Q 33.9375 56 38.28125 53.609375 
Q 42.625 51.21875 45.40625 46.390625 
L 45.40625 54.6875 
L 54.390625 54.6875 
z
" id="DejaVuSans-103"/>
        <path d="M 5.515625 54.6875 
L 48.1875 54.6875 
L 48.1875 46.484375 
L 14.40625 7.171875 
L 48.1875 7.171875 
L 48.1875 0 
L 4.296875 0 
L 4.296875 8.203125 
L 38.09375 47.515625 
L 5.515625 47.515625 
z
" id="DejaVuSans-122"/>
       </defs>
       <use xlink:href="#DejaVuSans-104"/>
       <use x="63.378906" xlink:href="#DejaVuSans-111"/>
       <use x="124.560547" xlink:href="#DejaVuSans-110"/>
       <use x="187.939453" xlink:href="#DejaVuSans-103"/>
       <use x="251.416016" xlink:href="#DejaVuSans-103"/>
       <use x="314.892578" xlink:href="#DejaVuSans-102"/>
       <use x="350.097656" xlink:href="#DejaVuSans-117"/>
       <use x="413.476562" xlink:href="#DejaVuSans-122"/>
       <use x="465.966797" xlink:href="#DejaVuSans-122"/>
      </g>
     </g>
    </g>
    <g id="xtick_5">
     <g id="line2d_5">
      <g>
       <use style="stroke:#000000;stroke-width:0.8;" x="238.250625" xlink:href="#m8516b68f4f" y="288.430125"/>
      </g>
     </g>
     <g id="text_5">
      <!-- libfuzzer -->
      <g transform="translate(200.384404 323.272284)rotate(-30)scale(0.1 -0.1)">
       <defs>
        <path d="M 48.6875 27.296875 
Q 48.6875 37.203125 44.609375 42.84375 
Q 40.53125 48.484375 33.40625 48.484375 
Q 26.265625 48.484375 22.1875 42.84375 
Q 18.109375 37.203125 18.109375 27.296875 
Q 18.109375 17.390625 22.1875 11.75 
Q 26.265625 6.109375 33.40625 6.109375 
Q 40.53125 6.109375 44.609375 11.75 
Q 48.6875 17.390625 48.6875 27.296875 
z
M 18.109375 46.390625 
Q 20.953125 51.265625 25.265625 53.625 
Q 29.59375 56 35.59375 56 
Q 45.5625 56 51.78125 48.09375 
Q 58.015625 40.1875 58.015625 27.296875 
Q 58.015625 14.40625 51.78125 6.484375 
Q 45.5625 -1.421875 35.59375 -1.421875 
Q 29.59375 -1.421875 25.265625 0.953125 
Q 20.953125 3.328125 18.109375 8.203125 
L 18.109375 0 
L 9.078125 0 
L 9.078125 75.984375 
L 18.109375 75.984375 
z
" id="DejaVuSans-98"/>
       </defs>
       <use xlink:href="#DejaVuSans-108"/>
       <use x="27.783203" xlink:href="#DejaVuSans-105"/>
       <use x="55.566406" xlink:href="#DejaVuSans-98"/>
       <use x="119.042969" xlink:href="#DejaVuSans-102"/>
       <use x="154.248047" xlink:href="#DejaVuSans-117"/>
       <use x="217.626953" xlink:href="#DejaVuSans-122"/>
       <use x="270.117188" xlink:href="#DejaVuSans-122"/>
       <use x="322.607422" xlink:href="#DejaVuSans-101"/>
       <use x="384.130859" xlink:href="#DejaVuSans-114"/>
      </g>
     </g>
    </g>
    <g id="xtick_6">
     <g id="line2d_6">
      <g>
       <use style="stroke:#000000;stroke-width:0.8;" x="277.930625" xlink:href="#m8516b68f4f" y="288.430125"/>
      </g>
     </g>
     <g id="text_6">
      <!-- aflplusplus_qemu -->
      <g transform="translate(201.101693 345.687127)rotate(-30)scale(0.1 -0.1)">
       <defs>
        <path d="M 50.984375 -16.609375 
L 50.984375 -23.578125 
L -0.984375 -23.578125 
L -0.984375 -16.609375 
z
" id="DejaVuSans-95"/>
        <path d="M 14.796875 27.296875 
Q 14.796875 17.390625 18.875 11.75 
Q 22.953125 6.109375 30.078125 6.109375 
Q 37.203125 6.109375 41.296875 11.75 
Q 45.40625 17.390625 45.40625 27.296875 
Q 45.40625 37.203125 41.296875 42.84375 
Q 37.203125 48.484375 30.078125 48.484375 
Q 22.953125 48.484375 18.875 42.84375 
Q 14.796875 37.203125 14.796875 27.296875 
z
M 45.40625 8.203125 
Q 42.578125 3.328125 38.25 0.953125 
Q 33.9375 -1.421875 27.875 -1.421875 
Q 17.96875 -1.421875 11.734375 6.484375 
Q 5.515625 14.40625 5.515625 27.296875 
Q 5.515625 40.1875 11.734375 48.09375 
Q 17.96875 56 27.875 56 
Q 33.9375 56 38.25 53.625 
Q 42.578125 51.265625 45.40625 46.390625 
L 45.40625 54.6875 
L 54.390625 54.6875 
L 54.390625 -20.796875 
L 45.40625 -20.796875 
z
" id="DejaVuSans-113"/>
       </defs>
       <use xlink:href="#DejaVuSans-97"/>
       <use x="61.279297" xlink:href="#DejaVuSans-102"/>
       <use x="96.484375" xlink:href="#DejaVuSans-108"/>
       <use x="124.267578" xlink:href="#DejaVuSans-112"/>
       <use x="187.744141" xlink:href="#DejaVuSans-108"/>
       <use x="215.527344" xlink:href="#DejaVuSans-117"/>
       <use x="278.90625" xlink:href="#DejaVuSans-115"/>
       <use x="331.005859" xlink:href="#DejaVuSans-112"/>
       <use x="394.482422" xlink:href="#DejaVuSans-108"/>
       <use x="422.265625" xlink:href="#DejaVuSans-117"/>
       <use x="485.644531" xlink:href="#DejaVuSans-115"/>
       <use x="537.744141" xlink:href="#DejaVuSans-95"/>
       <use x="587.744141" xlink:href="#DejaVuSans-113"/>
       <use x="651.220703" xlink:href="#DejaVuSans-101"/>
       <use x="712.744141" xlink:href="#DejaVuSans-109"/>
       <use x="810.15625" xlink:href="#DejaVuSans-117"/>
      </g>
     </g>
    </g>
    <g id="xtick_7">
     <g id="line2d_7">
      <g>
       <use style="stroke:#000000;stroke-width:0.8;" x="317.610625" xlink:href="#m8516b68f4f" y="288.430125"/>
      </g>
     </g>
     <g id="text_7">
      <!-- lafintel -->
      <g transform="translate(286.78492 319.20744)rotate(-30)scale(0.1 -0.1)">
       <use xlink:href="#DejaVuSans-108"/>
       <use x="27.783203" xlink:href="#DejaVuSans-97"/>
       <use x="89.0625" xlink:href="#DejaVuSans-102"/>
       <use x="124.267578" xlink:href="#DejaVuSans-105"/>
       <use x="152.050781" xlink:href="#DejaVuSans-110"/>
       <use x="215.429688" xlink:href="#DejaVuSans-116"/>
       <use x="254.638672" xlink:href="#DejaVuSans-101"/>
       <use x="316.162109" xlink:href="#DejaVuSans-108"/>
      </g>
     </g>
    </g>
    <g id="xtick_8">
     <g id="line2d_8">
      <g>
       <use style="stroke:#000000;stroke-width:0.8;" x="357.290625" xlink:href="#m8516b68f4f" y="288.430125"/>
      </g>
     </g>
     <g id="text_8">
      <!-- aflplusplus_flat -->
      <g transform="translate(291.05562 339.570721)rotate(-30)scale(0.1 -0.1)">
       <use xlink:href="#DejaVuSans-97"/>
       <use x="61.279297" xlink:href="#DejaVuSans-102"/>
       <use x="96.484375" xlink:href="#DejaVuSans-108"/>
       <use x="124.267578" xlink:href="#DejaVuSans-112"/>
       <use x="187.744141" xlink:href="#DejaVuSans-108"/>
       <use x="215.527344" xlink:href="#DejaVuSans-117"/>
       <use x="278.90625" xlink:href="#DejaVuSans-115"/>
       <use x="331.005859" xlink:href="#DejaVuSans-112"/>
       <use x="394.482422" xlink:href="#DejaVuSans-108"/>
       <use x="422.265625" xlink:href="#DejaVuSans-117"/>
       <use x="485.644531" xlink:href="#DejaVuSans-115"/>
       <use x="537.744141" xlink:href="#DejaVuSans-95"/>
       <use x="587.744141" xlink:href="#DejaVuSans-102"/>
       <use x="622.949219" xlink:href="#DejaVuSans-108"/>
       <use x="650.732422" xlink:href="#DejaVuSans-97"/>
       <use x="712.011719" xlink:href="#DejaVuSans-116"/>
      </g>
     </g>
    </g>
    <g id="xtick_9">
     <g id="line2d_9">
      <g>
       <use style="stroke:#000000;stroke-width:0.8;" x="396.970625" xlink:href="#m8516b68f4f" y="288.430125"/>
      </g>
     </g>
     <g id="text_9">
      <!-- fairfuzz -->
      <g transform="translate(363.98121 320.456659)rotate(-30)scale(0.1 -0.1)">
       <use xlink:href="#DejaVuSans-102"/>
       <use x="35.205078" xlink:href="#DejaVuSans-97"/>
       <use x="96.484375" xlink:href="#DejaVuSans-105"/>
       <use x="124.267578" xlink:href="#DejaVuSans-114"/>
       <use x="165.380859" xlink:href="#DejaVuSans-102"/>
       <use x="200.585938" xlink:href="#DejaVuSans-117"/>
       <use x="263.964844" xlink:href="#DejaVuSans-122"/>
       <use x="316.455078" xlink:href="#DejaVuSans-122"/>
      </g>
     </g>
    </g>
    <g id="text_10">
     <!-- Fuzzer (highest median coverage on the left) -->
     <g transform="translate(125.632656 359.32749)scale(0.1 -0.1)">
      <defs>
       <path d="M 9.8125 72.90625 
L 51.703125 72.90625 
L 51.703125 64.59375 
L 19.671875 64.59375 
L 19.671875 43.109375 
L 48.578125 43.109375 
L 48.578125 34.8125 
L 19.671875 34.8125 
L 19.671875 0 
L 9.8125 0 
z
" id="DejaVuSans-70"/>
       <path id="DejaVuSans-32"/>
       <path d="M 31 75.875 
Q 24.46875 64.65625 21.28125 53.65625 
Q 18.109375 42.671875 18.109375 31.390625 
Q 18.109375 20.125 21.3125 9.0625 
Q 24.515625 -2 31 -13.1875 
L 23.1875 -13.1875 
Q 15.875 -1.703125 12.234375 9.375 
Q 8.59375 20.453125 8.59375 31.390625 
Q 8.59375 42.28125 12.203125 53.3125 
Q 15.828125 64.359375 23.1875 75.875 
z
" id="DejaVuSans-40"/>
       <path d="M 45.40625 46.390625 
L 45.40625 75.984375 
L 54.390625 75.984375 
L 54.390625 0 
L 45.40625 0 
L 45.40625 8.203125 
Q 42.578125 3.328125 38.25 0.953125 
Q 33.9375 -1.421875 27.875 -1.421875 
Q 17.96875 -1.421875 11.734375 6.484375 
Q 5.515625 14.40625 5.515625 27.296875 
Q 5.515625 40.1875 11.734375 48.09375 
Q 17.96875 56 27.875 56 
Q 33.9375 56 38.25 53.625 
Q 42.578125 51.265625 45.40625 46.390625 
z
M 14.796875 27.296875 
Q 14.796875 17.390625 18.875 11.75 
Q 22.953125 6.109375 30.078125 6.109375 
Q 37.203125 6.109375 41.296875 11.75 
Q 45.40625 17.390625 45.40625 27.296875 
Q 45.40625 37.203125 41.296875 42.84375 
Q 37.203125 48.484375 30.078125 48.484375 
Q 22.953125 48.484375 18.875 42.84375 
Q 14.796875 37.203125 14.796875 27.296875 
z
" id="DejaVuSans-100"/>
       <path d="M 2.984375 54.6875 
L 12.5 54.6875 
L 29.59375 8.796875 
L 46.6875 54.6875 
L 56.203125 54.6875 
L 35.6875 0 
L 23.484375 0 
z
" id="DejaVuSans-118"/>
       <path d="M 8.015625 75.875 
L 15.828125 75.875 
Q 23.140625 64.359375 26.78125 53.3125 
Q 30.421875 42.28125 30.421875 31.390625 
Q 30.421875 20.453125 26.78125 9.375 
Q 23.140625 -1.703125 15.828125 -13.1875 
L 8.015625 -13.1875 
Q 14.5 -2 17.703125 9.0625 
Q 20.90625 20.125 20.90625 31.390625 
Q 20.90625 42.671875 17.703125 53.65625 
Q 14.5 64.65625 8.015625 75.875 
z
" id="DejaVuSans-41"/>
      </defs>
      <use xlink:href="#DejaVuSans-70"/>
      <use x="52.019531" xlink:href="#DejaVuSans-117"/>
      <use x="115.398438" xlink:href="#DejaVuSans-122"/>
      <use x="167.888672" xlink:href="#DejaVuSans-122"/>
      <use x="220.378906" xlink:href="#DejaVuSans-101"/>
      <use x="281.902344" xlink:href="#DejaVuSans-114"/>
      <use x="323.015625" xlink:href="#DejaVuSans-32"/>
      <use x="354.802734" xlink:href="#DejaVuSans-40"/>
      <use x="393.816406" xlink:href="#DejaVuSans-104"/>
      <use x="457.195312" xlink:href="#DejaVuSans-105"/>
      <use x="484.978516" xlink:href="#DejaVuSans-103"/>
      <use x="548.455078" xlink:href="#DejaVuSans-104"/>
      <use x="611.833984" xlink:href="#DejaVuSans-101"/>
      <use x="673.357422" xlink:href="#DejaVuSans-115"/>
      <use x="725.457031" xlink:href="#DejaVuSans-116"/>
      <use x="764.666016" xlink:href="#DejaVuSans-32"/>
      <use x="796.453125" xlink:href="#DejaVuSans-109"/>
      <use x="893.865234" xlink:href="#DejaVuSans-101"/>
      <use x="955.388672" xlink:href="#DejaVuSans-100"/>
      <use x="1018.865234" xlink:href="#DejaVuSans-105"/>
      <use x="1046.648438" xlink:href="#DejaVuSans-97"/>
      <use x="1107.927734" xlink:href="#DejaVuSans-110"/>
      <use x="1171.306641" xlink:href="#DejaVuSans-32"/>
      <use x="1203.09375" xlink:href="#DejaVuSans-99"/>
      <use x="1258.074219" xlink:href="#DejaVuSans-111"/>
      <use x="1319.255859" xlink:href="#DejaVuSans-118"/>
      <use x="1378.435547" xlink:href="#DejaVuSans-101"/>
      <use x="1439.958984" xlink:href="#DejaVuSans-114"/>
      <use x="1481.072266" xlink:href="#DejaVuSans-97"/>
      <use x="1542.351562" xlink:href="#DejaVuSans-103"/>
      <use x="1605.828125" xlink:href="#DejaVuSans-101"/>
      <use x="1667.351562" xlink:href="#DejaVuSans-32"/>
      <use x="1699.138672" xlink:href="#DejaVuSans-111"/>
      <use x="1760.320312" xlink:href="#DejaVuSans-110"/>
      <use x="1823.699219" xlink:href="#DejaVuSans-32"/>
      <use x="1855.486328" xlink:href="#DejaVuSans-116"/>
      <use x="1894.695312" xlink:href="#DejaVuSans-104"/>
      <use x="1958.074219" xlink:href="#DejaVuSans-101"/>
      <use x="2019.597656" xlink:href="#DejaVuSans-32"/>
      <use x="2051.384766" xlink:href="#DejaVuSans-108"/>
      <use x="2079.167969" xlink:href="#DejaVuSans-101"/>
      <use x="2140.691406" xlink:href="#DejaVuSans-102"/>
      <use x="2174.146484" xlink:href="#DejaVuSans-116"/>
      <use x="2213.355469" xlink:href="#DejaVuSans-41"/>
     </g>
    </g>
   </g>
   <g id="matplotlib.axis_2">
    <g id="ytick_1">
     <g id="line2d_10">
      <defs>
       <path d="M 0 0 
L -3.5 0 
" id="m370d1035a0" style="stroke:#000000;stroke-width:0.8;"/>
      </defs>
      <g>
       <use style="stroke:#000000;stroke-width:0.8;" x="59.690625" xlink:href="#m370d1035a0" y="257.264794"/>
      </g>
     </g>
     <g id="text_11">
      <!-- 20000 -->
      <g transform="translate(20.878125 261.064013)scale(0.1 -0.1)">
       <defs>
        <path d="M 19.1875 8.296875 
L 53.609375 8.296875 
L 53.609375 0 
L 7.328125 0 
L 7.328125 8.296875 
Q 12.9375 14.109375 22.625 23.890625 
Q 32.328125 33.6875 34.8125 36.53125 
Q 39.546875 41.84375 41.421875 45.53125 
Q 43.3125 49.21875 43.3125 52.78125 
Q 43.3125 58.59375 39.234375 62.25 
Q 35.15625 65.921875 28.609375 65.921875 
Q 23.96875 65.921875 18.8125 64.3125 
Q 13.671875 62.703125 7.8125 59.421875 
L 7.8125 69.390625 
Q 13.765625 71.78125 18.9375 73 
Q 24.125 74.21875 28.421875 74.21875 
Q 39.75 74.21875 46.484375 68.546875 
Q 53.21875 62.890625 53.21875 53.421875 
Q 53.21875 48.921875 51.53125 44.890625 
Q 49.859375 40.875 45.40625 35.40625 
Q 44.1875 33.984375 37.640625 27.21875 
Q 31.109375 20.453125 19.1875 8.296875 
z
" id="DejaVuSans-50"/>
        <path d="M 31.78125 66.40625 
Q 24.171875 66.40625 20.328125 58.90625 
Q 16.5 51.421875 16.5 36.375 
Q 16.5 21.390625 20.328125 13.890625 
Q 24.171875 6.390625 31.78125 6.390625 
Q 39.453125 6.390625 43.28125 13.890625 
Q 47.125 21.390625 47.125 36.375 
Q 47.125 51.421875 43.28125 58.90625 
Q 39.453125 66.40625 31.78125 66.40625 
z
M 31.78125 74.21875 
Q 44.046875 74.21875 50.515625 64.515625 
Q 56.984375 54.828125 56.984375 36.375 
Q 56.984375 17.96875 50.515625 8.265625 
Q 44.046875 -1.421875 31.78125 -1.421875 
Q 19.53125 -1.421875 13.0625 8.265625 
Q 6.59375 17.96875 6.59375 36.375 
Q 6.59375 54.828125 13.0625 64.515625 
Q 19.53125 74.21875 31.78125 74.21875 
z
" id="DejaVuSans-48"/>
       </defs>
       <use xlink:href="#DejaVuSans-50"/>
       <use x="63.623047" xlink:href="#DejaVuSans-48"/>
       <use x="127.246094" xlink:href="#DejaVuSans-48"/>
       <use x="190.869141" xlink:href="#DejaVuSans-48"/>
       <use x="254.492188" xlink:href="#DejaVuSans-48"/>
      </g>
     </g>
    </g>
    <g id="ytick_2">
     <g id="line2d_11">
      <g>
       <use style="stroke:#000000;stroke-width:0.8;" x="59.690625" xlink:href="#m370d1035a0" y="224.914699"/>
      </g>
     </g>
     <g id="text_12">
      <!-- 22500 -->
      <g transform="translate(20.878125 228.713918)scale(0.1 -0.1)">
       <defs>
        <path d="M 10.796875 72.90625 
L 49.515625 72.90625 
L 49.515625 64.59375 
L 19.828125 64.59375 
L 19.828125 46.734375 
Q 21.96875 47.46875 24.109375 47.828125 
Q 26.265625 48.1875 28.421875 48.1875 
Q 40.625 48.1875 47.75 41.5 
Q 54.890625 34.8125 54.890625 23.390625 
Q 54.890625 11.625 47.5625 5.09375 
Q 40.234375 -1.421875 26.90625 -1.421875 
Q 22.3125 -1.421875 17.546875 -0.640625 
Q 12.796875 0.140625 7.71875 1.703125 
L 7.71875 11.625 
Q 12.109375 9.234375 16.796875 8.0625 
Q 21.484375 6.890625 26.703125 6.890625 
Q 35.15625 6.890625 40.078125 11.328125 
Q 45.015625 15.765625 45.015625 23.390625 
Q 45.015625 31 40.078125 35.4375 
Q 35.15625 39.890625 26.703125 39.890625 
Q 22.75 39.890625 18.8125 39.015625 
Q 14.890625 38.140625 10.796875 36.28125 
z
" id="DejaVuSans-53"/>
       </defs>
       <use xlink:href="#DejaVuSans-50"/>
       <use x="63.623047" xlink:href="#DejaVuSans-50"/>
       <use x="127.246094" xlink:href="#DejaVuSans-53"/>
       <use x="190.869141" xlink:href="#DejaVuSans-48"/>
       <use x="254.492188" xlink:href="#DejaVuSans-48"/>
      </g>
     </g>
    </g>
    <g id="ytick_3">
     <g id="line2d_12">
      <g>
       <use style="stroke:#000000;stroke-width:0.8;" x="59.690625" xlink:href="#m370d1035a0" y="192.564605"/>
      </g>
     </g>
     <g id="text_13">
      <!-- 25000 -->
      <g transform="translate(20.878125 196.363823)scale(0.1 -0.1)">
       <use xlink:href="#DejaVuSans-50"/>
       <use x="63.623047" xlink:href="#DejaVuSans-53"/>
       <use x="127.246094" xlink:href="#DejaVuSans-48"/>
       <use x="190.869141" xlink:href="#DejaVuSans-48"/>
       <use x="254.492188" xlink:href="#DejaVuSans-48"/>
      </g>
     </g>
    </g>
    <g id="ytick_4">
     <g id="line2d_13">
      <g>
       <use style="stroke:#000000;stroke-width:0.8;" x="59.690625" xlink:href="#m370d1035a0" y="160.21451"/>
      </g>
     </g>
     <g id="text_14">
      <!-- 27500 -->
      <g transform="translate(20.878125 164.013729)scale(0.1 -0.1)">
       <defs>
        <path d="M 8.203125 72.90625 
L 55.078125 72.90625 
L 55.078125 68.703125 
L 28.609375 0 
L 18.3125 0 
L 43.21875 64.59375 
L 8.203125 64.59375 
z
" id="DejaVuSans-55"/>
       </defs>
       <use xlink:href="#DejaVuSans-50"/>
       <use x="63.623047" xlink:href="#DejaVuSans-55"/>
       <use x="127.246094" xlink:href="#DejaVuSans-53"/>
       <use x="190.869141" xlink:href="#DejaVuSans-48"/>
       <use x="254.492188" xlink:href="#DejaVuSans-48"/>
      </g>
     </g>
    </g>
    <g id="ytick_5">
     <g id="line2d_14">
      <g>
       <use style="stroke:#000000;stroke-width:0.8;" x="59.690625" xlink:href="#m370d1035a0" y="127.864415"/>
      </g>
     </g>
     <g id="text_15">
      <!-- 30000 -->
      <g transform="translate(20.878125 131.663634)scale(0.1 -0.1)">
       <defs>
        <path d="M 40.578125 39.3125 
Q 47.65625 37.796875 51.625 33 
Q 55.609375 28.21875 55.609375 21.1875 
Q 55.609375 10.40625 48.1875 4.484375 
Q 40.765625 -1.421875 27.09375 -1.421875 
Q 22.515625 -1.421875 17.65625 -0.515625 
Q 12.796875 0.390625 7.625 2.203125 
L 7.625 11.71875 
Q 11.71875 9.328125 16.59375 8.109375 
Q 21.484375 6.890625 26.8125 6.890625 
Q 36.078125 6.890625 40.9375 10.546875 
Q 45.796875 14.203125 45.796875 21.1875 
Q 45.796875 27.640625 41.28125 31.265625 
Q 36.765625 34.90625 28.71875 34.90625 
L 20.21875 34.90625 
L 20.21875 43.015625 
L 29.109375 43.015625 
Q 36.375 43.015625 40.234375 45.921875 
Q 44.09375 48.828125 44.09375 54.296875 
Q 44.09375 59.90625 40.109375 62.90625 
Q 36.140625 65.921875 28.71875 65.921875 
Q 24.65625 65.921875 20.015625 65.03125 
Q 15.375 64.15625 9.8125 62.3125 
L 9.8125 71.09375 
Q 15.4375 72.65625 20.34375 73.4375 
Q 25.25 74.21875 29.59375 74.21875 
Q 40.828125 74.21875 47.359375 69.109375 
Q 53.90625 64.015625 53.90625 55.328125 
Q 53.90625 49.265625 50.4375 45.09375 
Q 46.96875 40.921875 40.578125 39.3125 
z
" id="DejaVuSans-51"/>
       </defs>
       <use xlink:href="#DejaVuSans-51"/>
       <use x="63.623047" xlink:href="#DejaVuSans-48"/>
       <use x="127.246094" xlink:href="#DejaVuSans-48"/>
       <use x="190.869141" xlink:href="#DejaVuSans-48"/>
       <use x="254.492188" xlink:href="#DejaVuSans-48"/>
      </g>
     </g>
    </g>
    <g id="ytick_6">
     <g id="line2d_15">
      <g>
       <use style="stroke:#000000;stroke-width:0.8;" x="59.690625" xlink:href="#m370d1035a0" y="95.514321"/>
      </g>
     </g>
     <g id="text_16">
      <!-- 32500 -->
      <g transform="translate(20.878125 99.313539)scale(0.1 -0.1)">
       <use xlink:href="#DejaVuSans-51"/>
       <use x="63.623047" xlink:href="#DejaVuSans-50"/>
       <use x="127.246094" xlink:href="#DejaVuSans-53"/>
       <use x="190.869141" xlink:href="#DejaVuSans-48"/>
       <use x="254.492188" xlink:href="#DejaVuSans-48"/>
      </g>
     </g>
    </g>
    <g id="ytick_7">
     <g id="line2d_16">
      <g>
       <use style="stroke:#000000;stroke-width:0.8;" x="59.690625" xlink:href="#m370d1035a0" y="63.164226"/>
      </g>
     </g>
     <g id="text_17">
      <!-- 35000 -->
      <g transform="translate(20.878125 66.963445)scale(0.1 -0.1)">
       <use xlink:href="#DejaVuSans-51"/>
       <use x="63.623047" xlink:href="#DejaVuSans-53"/>
       <use x="127.246094" xlink:href="#DejaVuSans-48"/>
       <use x="190.869141" xlink:href="#DejaVuSans-48"/>
       <use x="254.492188" xlink:href="#DejaVuSans-48"/>
      </g>
     </g>
    </g>
    <g id="ytick_8">
     <g id="line2d_17">
      <g>
       <use style="stroke:#000000;stroke-width:0.8;" x="59.690625" xlink:href="#m370d1035a0" y="30.814131"/>
      </g>
     </g>
     <g id="text_18">
      <!-- 37500 -->
      <g transform="translate(20.878125 34.61335)scale(0.1 -0.1)">
       <use xlink:href="#DejaVuSans-51"/>
       <use x="63.623047" xlink:href="#DejaVuSans-55"/>
       <use x="127.246094" xlink:href="#DejaVuSans-53"/>
       <use x="190.869141" xlink:href="#DejaVuSans-48"/>
       <use x="254.492188" xlink:href="#DejaVuSans-48"/>
      </g>
     </g>
    </g>
    <g id="text_19">
     <!-- Reached region coverage -->
     <g transform="translate(14.798438 219.136625)rotate(-90)scale(0.1 -0.1)">
      <defs>
       <path d="M 44.390625 34.1875 
Q 47.5625 33.109375 50.5625 29.59375 
Q 53.5625 26.078125 56.59375 19.921875 
L 66.609375 0 
L 56 0 
L 46.6875 18.703125 
Q 43.0625 26.03125 39.671875 28.421875 
Q 36.28125 30.8125 30.421875 30.8125 
L 19.671875 30.8125 
L 19.671875 0 
L 9.8125 0 
L 9.8125 72.90625 
L 32.078125 72.90625 
Q 44.578125 72.90625 50.734375 67.671875 
Q 56.890625 62.453125 56.890625 51.90625 
Q 56.890625 45.015625 53.6875 40.46875 
Q 50.484375 35.9375 44.390625 34.1875 
z
M 19.671875 64.796875 
L 19.671875 38.921875 
L 32.078125 38.921875 
Q 39.203125 38.921875 42.84375 42.21875 
Q 46.484375 45.515625 46.484375 51.90625 
Q 46.484375 58.296875 42.84375 61.546875 
Q 39.203125 64.796875 32.078125 64.796875 
z
" id="DejaVuSans-82"/>
      </defs>
      <use xlink:href="#DejaVuSans-82"/>
      <use x="64.982422" xlink:href="#DejaVuSans-101"/>
      <use x="126.505859" xlink:href="#DejaVuSans-97"/>
      <use x="187.785156" xlink:href="#DejaVuSans-99"/>
      <use x="242.765625" xlink:href="#DejaVuSans-104"/>
      <use x="306.144531" xlink:href="#DejaVuSans-101"/>
      <use x="367.667969" xlink:href="#DejaVuSans-100"/>
      <use x="431.144531" xlink:href="#DejaVuSans-32"/>
      <use x="462.931641" xlink:href="#DejaVuSans-114"/>
      <use x="501.794922" xlink:href="#DejaVuSans-101"/>
      <use x="563.318359" xlink:href="#DejaVuSans-103"/>
      <use x="626.794922" xlink:href="#DejaVuSans-105"/>
      <use x="654.578125" xlink:href="#DejaVuSans-111"/>
      <use x="715.759766" xlink:href="#DejaVuSans-110"/>
      <use x="779.138672" xlink:href="#DejaVuSans-32"/>
      <use x="810.925781" xlink:href="#DejaVuSans-99"/>
      <use x="865.90625" xlink:href="#DejaVuSans-111"/>
      <use x="927.087891" xlink:href="#DejaVuSans-118"/>
      <use x="986.267578" xlink:href="#DejaVuSans-101"/>
      <use x="1047.791016" xlink:href="#DejaVuSans-114"/>
      <use x="1088.904297" xlink:href="#DejaVuSans-97"/>
      <use x="1150.183594" xlink:href="#DejaVuSans-103"/>
      <use x="1213.660156" xlink:href="#DejaVuSans-101"/>
     </g>
    </g>
   </g>
   <g id="line2d_18">
    <path clip-path="url(#p314c3005e6)" d="M 79.530625 70.734148 
L 79.530625 54.908482 
" style="fill:none;stroke:#3d3d3d;stroke-linecap:square;stroke-width:1.5;"/>
   </g>
   <g id="line2d_19">
    <path clip-path="url(#p314c3005e6)" d="M 79.530625 65.522548 
L 79.530625 58.289067 
" style="fill:none;stroke:#3d3d3d;stroke-linecap:square;stroke-width:4.5;"/>
   </g>
   <g id="line2d_20">
    <path clip-path="url(#p314c3005e6)" d="M 119.210625 96.847145 
L 119.210625 64.095909 
" style="fill:none;stroke:#3d3d3d;stroke-linecap:square;stroke-width:1.5;"/>
   </g>
   <g id="line2d_21">
    <path clip-path="url(#p314c3005e6)" d="M 119.210625 87.792353 
L 119.210625 77.000361 
" style="fill:none;stroke:#3d3d3d;stroke-linecap:square;stroke-width:4.5;"/>
   </g>
   <g id="line2d_22">
    <path clip-path="url(#p314c3005e6)" d="M 158.890625 173.89213 
L 158.890625 71.717591 
" style="fill:none;stroke:#3d3d3d;stroke-linecap:square;stroke-width:1.5;"/>
   </g>
   <g id="line2d_23">
    <path clip-path="url(#p314c3005e6)" d="M 158.890625 145.731373 
L 158.890625 93.033068 
" style="fill:none;stroke:#3d3d3d;stroke-linecap:square;stroke-width:4.5;"/>
   </g>
   <g id="line2d_24">
    <path clip-path="url(#p314c3005e6)" d="M 198.570625 128.977259 
L 198.570625 94.932019 
" style="fill:none;stroke:#3d3d3d;stroke-linecap:square;stroke-width:1.5;"/>
   </g>
   <g id="line2d_25">
    <path clip-path="url(#p314c3005e6)" d="M 198.570625 114.691457 
L 198.570625 104.844088 
" style="fill:none;stroke:#3d3d3d;stroke-linecap:square;stroke-width:4.5;"/>
   </g>
   <g id="line2d_26">
    <path clip-path="url(#p314c3005e6)" d="M 238.250625 162.750757 
L 238.250625 130.284202 
" style="fill:none;stroke:#3d3d3d;stroke-linecap:square;stroke-width:1.5;"/>
   </g>
   <g id="line2d_27">
    <path clip-path="url(#p314c3005e6)" d="M 238.250625 153.281885 
L 238.250625 140.167156 
" style="fill:none;stroke:#3d3d3d;stroke-linecap:square;stroke-width:4.5;"/>
   </g>
   <g id="line2d_28">
    <path clip-path="url(#p314c3005e6)" d="M 277.930625 180.193929 
L 277.930625 135.524918 
" style="fill:none;stroke:#3d3d3d;stroke-linecap:square;stroke-width:1.5;"/>
   </g>
   <g id="line2d_29">
    <path clip-path="url(#p314c3005e6)" d="M 277.930625 166.830104 
L 277.930625 150.900918 
" style="fill:none;stroke:#3d3d3d;stroke-linecap:square;stroke-width:4.5;"/>
   </g>
   <g id="line2d_30">
    <path clip-path="url(#p314c3005e6)" d="M 317.610625 182.147874 
L 317.610625 127.540914 
" style="fill:none;stroke:#3d3d3d;stroke-linecap:square;stroke-width:1.5;"/>
   </g>
   <g id="line2d_31">
    <path clip-path="url(#p314c3005e6)" d="M 317.610625 175.312299 
L 317.610625 152.880744 
" style="fill:none;stroke:#3d3d3d;stroke-linecap:square;stroke-width:4.5;"/>
   </g>
   <g id="line2d_32">
    <path clip-path="url(#p314c3005e6)" d="M 357.290625 180.55625 
L 357.290625 143.483041 
" style="fill:none;stroke:#3d3d3d;stroke-linecap:square;stroke-width:1.5;"/>
   </g>
   <g id="line2d_33">
    <path clip-path="url(#p314c3005e6)" d="M 357.290625 175.910776 
L 357.290625 161.793195 
" style="fill:none;stroke:#3d3d3d;stroke-linecap:square;stroke-width:4.5;"/>
   </g>
   <g id="line2d_34">
    <path clip-path="url(#p314c3005e6)" d="M 396.970625 230.621256 
L 396.970625 98.050568 
" style="fill:none;stroke:#3d3d3d;stroke-linecap:square;stroke-width:1.5;"/>
   </g>
   <g id="line2d_35">
    <path clip-path="url(#p314c3005e6)" d="M 396.970625 219.738684 
L 396.970625 159.923359 
" style="fill:none;stroke:#3d3d3d;stroke-linecap:square;stroke-width:4.5;"/>
   </g>
   <g id="patch_3">
    <path d="M 59.690625 257.264794 
L 59.690625 30.814131 
" style="fill:none;stroke:#000000;stroke-linecap:square;stroke-linejoin:miter;stroke-width:0.8;"/>
   </g>
   <g id="patch_4">
    <path d="M 79.530625 288.430125 
L 396.970625 288.430125 
" style="fill:none;stroke:#000000;stroke-linecap:square;stroke-linejoin:miter;stroke-width:0.8;"/>
   </g>
   <g id="PathCollection_1">
    <defs>
     <path d="M 0 1.5 
C 0.397805 1.5 0.77937 1.341951 1.06066 1.06066 
C 1.341951 0.77937 1.5 0.397805 1.5 0 
C 1.5 -0.397805 1.341951 -0.77937 1.06066 -1.06066 
C 0.77937 -1.341951 0.397805 -1.5 0 -1.5 
C -0.397805 -1.5 -0.77937 -1.341951 -1.06066 -1.06066 
C -1.341951 -0.77937 -1.5 -0.397805 -1.5 0 
C -1.5 0.397805 -1.341951 0.77937 -1.06066 1.06066 
C -0.77937 1.341951 -0.397805 1.5 0 1.5 
z
" id="m0539abbcce" style="stroke:#3d3d3d;"/>
    </defs>
    <g clip-path="url(#p314c3005e6)">
     <use style="fill:#ffffff;stroke:#3d3d3d;" x="79.530625" xlink:href="#m0539abbcce" y="61.824932"/>
    </g>
   </g>
   <g id="PathCollection_2">
    <g clip-path="url(#p314c3005e6)">
     <use style="fill:#ffffff;stroke:#3d3d3d;" x="119.210625" xlink:href="#m0539abbcce" y="78.828142"/>
    </g>
   </g>
   <g id="PathCollection_3">
    <g clip-path="url(#p314c3005e6)">
     <use style="fill:#ffffff;stroke:#3d3d3d;" x="158.890625" xlink:href="#m0539abbcce" y="101.337338"/>
    </g>
   </g>
   <g id="PathCollection_4">
    <g clip-path="url(#p314c3005e6)">
     <use style="fill:#ffffff;stroke:#3d3d3d;" x="198.570625" xlink:href="#m0539abbcce" y="110.350074"/>
    </g>
   </g>
   <g id="PathCollection_5">
    <g clip-path="url(#p314c3005e6)">
     <use style="fill:#ffffff;stroke:#3d3d3d;" x="238.250625" xlink:href="#m0539abbcce" y="144.958205"/>
    </g>
   </g>
   <g id="PathCollection_6">
    <g clip-path="url(#p314c3005e6)">
     <use style="fill:#ffffff;stroke:#3d3d3d;" x="277.930625" xlink:href="#m0539abbcce" y="156.77893"/>
    </g>
   </g>
   <g id="PathCollection_7">
    <g clip-path="url(#p314c3005e6)">
     <use style="fill:#ffffff;stroke:#3d3d3d;" x="317.610625" xlink:href="#m0539abbcce" y="167.396231"/>
    </g>
   </g>
   <g id="PathCollection_8">
    <g clip-path="url(#p314c3005e6)">
     <use style="fill:#ffffff;stroke:#3d3d3d;" x="357.290625" xlink:href="#m0539abbcce" y="167.486811"/>
    </g>
   </g>
   <g id="PathCollection_9">
    <g clip-path="url(#p314c3005e6)">
     <use style="fill:#ffffff;stroke:#3d3d3d;" x="396.970625" xlink:href="#m0539abbcce" y="210.887698"/>
    </g>
   </g>
   <g id="text_20">
    <!-- sqlite3_ossfuzz (23h, 13 trials/fuzzer) -->
    <g transform="translate(126.255938 16.318125)scale(0.12 -0.12)">
     <defs>
      <path d="M 11.71875 12.40625 
L 22.015625 12.40625 
L 22.015625 4 
L 14.015625 -11.625 
L 7.71875 -11.625 
L 11.71875 4 
z
" id="DejaVuSans-44"/>
      <path d="M 12.40625 8.296875 
L 28.515625 8.296875 
L 28.515625 63.921875 
L 10.984375 60.40625 
L 10.984375 69.390625 
L 28.421875 72.90625 
L 38.28125 72.90625 
L 38.28125 8.296875 
L 54.390625 8.296875 
L 54.390625 0 
L 12.40625 0 
z
" id="DejaVuSans-49"/>
      <path d="M 25.390625 72.90625 
L 33.6875 72.90625 
L 8.296875 -9.28125 
L 0 -9.28125 
z
" id="DejaVuSans-47"/>
     </defs>
     <use xlink:href="#DejaVuSans-115"/>
     <use x="52.099609" xlink:href="#DejaVuSans-113"/>
     <use x="115.576172" xlink:href="#DejaVuSans-108"/>
     <use x="143.359375" xlink:href="#DejaVuSans-105"/>
     <use x="171.142578" xlink:href="#DejaVuSans-116"/>
     <use x="210.351562" xlink:href="#DejaVuSans-101"/>
     <use x="271.875" xlink:href="#DejaVuSans-51"/>
     <use x="335.498047" xlink:href="#DejaVuSans-95"/>
     <use x="385.498047" xlink:href="#DejaVuSans-111"/>
     <use x="446.679688" xlink:href="#DejaVuSans-115"/>
     <use x="498.779297" xlink:href="#DejaVuSans-115"/>
     <use x="550.878906" xlink:href="#DejaVuSans-102"/>
     <use x="586.083984" xlink:href="#DejaVuSans-117"/>
     <use x="649.462891" xlink:href="#DejaVuSans-122"/>
     <use x="701.953125" xlink:href="#DejaVuSans-122"/>
     <use x="754.443359" xlink:href="#DejaVuSans-32"/>
     <use x="786.230469" xlink:href="#DejaVuSans-40"/>
     <use x="825.244141" xlink:href="#DejaVuSans-50"/>
     <use x="888.867188" xlink:href="#DejaVuSans-51"/>
     <use x="952.490234" xlink:href="#DejaVuSans-104"/>
     <use x="1015.869141" xlink:href="#DejaVuSans-44"/>
     <use x="1047.65625" xlink:href="#DejaVuSans-32"/>
     <use x="1079.443359" xlink:href="#DejaVuSans-49"/>
     <use x="1143.066406" xlink:href="#DejaVuSans-51"/>
     <use x="1206.689453" xlink:href="#DejaVuSans-32"/>
     <use x="1238.476562" xlink:href="#DejaVuSans-116"/>
     <use x="1277.685547" xlink:href="#DejaVuSans-114"/>
     <use x="1318.798828" xlink:href="#DejaVuSans-105"/>
     <use x="1346.582031" xlink:href="#DejaVuSans-97"/>
     <use x="1407.861328" xlink:href="#DejaVuSans-108"/>
     <use x="1435.644531" xlink:href="#DejaVuSans-115"/>
     <use x="1487.744141" xlink:href="#DejaVuSans-47"/>
     <use x="1521.435547" xlink:href="#DejaVuSans-102"/>
     <use x="1556.640625" xlink:href="#DejaVuSans-117"/>
     <use x="1620.019531" xlink:href="#DejaVuSans-122"/>
     <use x="1672.509766" xlink:href="#DejaVuSans-122"/>
     <use x="1725" xlink:href="#DejaVuSans-101"/>
     <use x="1786.523438" xlink:href="#DejaVuSans-114"/>
     <use x="1827.636719" xlink:href="#DejaVuSans-41"/>
    </g>
   </g>
  </g>
 </g>
 <defs>
  <clipPath id="p314c3005e6">
   <rect height="266.112" width="357.12" x="59.690625" y="22.318125"/>
  </clipPath>
 </defs>
</svg>
