<?xml version="1.0" encoding="utf-8" standalone="no"?>
<!DOCTYPE svg PUBLIC "-//W3C//DTD SVG 1.1//EN"
  "http://www.w3.org/Graphics/SVG/1.1/DTD/svg11.dtd">
<!-- Created with matplotlib (https://matplotlib.org/) -->
<svg height="368.607178pt" version="1.1" viewBox="0 0 411.285625 368.607178" width="411.285625pt" xmlns="http://www.w3.org/2000/svg" xmlns:xlink="http://www.w3.org/1999/xlink">
 <metadata>
  <rdf:RDF xmlns:cc="http://creativecommons.org/ns#" xmlns:dc="http://purl.org/dc/elements/1.1/" xmlns:rdf="http://www.w3.org/1999/02/22-rdf-syntax-ns#">
   <cc:Work>
    <dc:type rdf:resource="http://purl.org/dc/dcmitype/StillImage"/>
    <dc:date>2020-12-06T10:29:13.723675</dc:date>
    <dc:format>image/svg+xml</dc:format>
    <dc:creator>
     <cc:Agent>
      <dc:title>Matplotlib v3.3.3, https://matplotlib.org/</dc:title>
     </cc:Agent>
    </dc:creator>
   </cc:Work>
  </rdf:RDF>
 </metadata>
 <defs>
  <style type="text/css">*{stroke-linecap:butt;stroke-linejoin:round;}</style>
 </defs>
 <g id="figure_1">
  <g id="patch_1">
   <path d="M 0 368.607178 
L 411.285625 368.607178 
L 411.285625 0 
L 0 0 
z
" style="fill:#ffffff;"/>
  </g>
  <g id="axes_1">
   <g id="patch_2">
    <path d="M 46.965625 288.430125 
L 404.085625 288.430125 
L 404.085625 22.318125 
L 46.965625 22.318125 
z
" style="fill:#ffffff;"/>
   </g>
   <g id="PolyCollection_1">
    <defs>
     <path d="M 67.1847 -271.394974 
L 66.42655 -271.394974 
L 66.353106 -271.479147 
L 66.269847 -271.56332 
L 66.176456 -271.647493 
L 66.072825 -271.731666 
L 65.959103 -271.815839 
L 65.835727 -271.900012 
L 65.703453 -271.984185 
L 65.56338 -272.068358 
L 65.41695 -272.152531 
L 65.265951 -272.236705 
L 65.112488 -272.320878 
L 64.958949 -272.405051 
L 64.807953 -272.489224 
L 64.662276 -272.573397 
L 64.524775 -272.65757 
L 64.398295 -272.741743 
L 64.285572 -272.825916 
L 64.189134 -272.910089 
L 64.111212 -272.994262 
L 64.053649 -273.078435 
L 64.017828 -273.162608 
L 64.004619 -273.246781 
L 64.014341 -273.330954 
L 64.046746 -273.415127 
L 64.101035 -273.499301 
L 64.175881 -273.583474 
L 64.269483 -273.667647 
L 64.379635 -273.75182 
L 64.503807 -273.835993 
L 64.639228 -273.920166 
L 64.782989 -274.004339 
L 64.93212 -274.088512 
L 65.083685 -274.172685 
L 65.234844 -274.256858 
L 65.382918 -274.341031 
L 65.525421 -274.425204 
L 65.660086 -274.509377 
L 65.784863 -274.59355 
L 65.897903 -274.677724 
L 65.997519 -274.761897 
L 66.082139 -274.84607 
L 66.150244 -274.930243 
L 66.200298 -275.014416 
L 66.230674 -275.098589 
L 66.239587 -275.182762 
L 66.225027 -275.266935 
L 66.184708 -275.351108 
L 66.116034 -275.435281 
L 66.016088 -275.519454 
L 65.881643 -275.603627 
L 65.709211 -275.6878 
L 65.495116 -275.771973 
L 65.235614 -275.856146 
L 64.927036 -275.94032 
L 64.565971 -276.024493 
L 64.149473 -276.108666 
L 63.675296 -276.192839 
L 63.142135 -276.277012 
L 62.549873 -276.361185 
L 61.899813 -276.445358 
L 61.194887 -276.529531 
L 60.439824 -276.613704 
L 59.641256 -276.697877 
L 58.80776 -276.78205 
L 57.949814 -276.866223 
L 57.079666 -276.950396 
L 56.211113 -277.034569 
L 55.359182 -277.118743 
L 54.539736 -277.202916 
L 53.769005 -277.287089 
L 53.063066 -277.371262 
L 52.437296 -277.455435 
L 51.905818 -277.539608 
L 51.480978 -277.623781 
L 51.172865 -277.707954 
L 50.988918 -277.792127 
L 50.933625 -277.8763 
L 51.008342 -277.960473 
L 51.21124 -278.044646 
L 51.537377 -278.128819 
L 51.9789 -278.212992 
L 52.525357 -278.297165 
L 53.164111 -278.381339 
L 53.880824 -278.465512 
L 54.65999 -278.549685 
L 55.485488 -278.633858 
L 56.341132 -278.718031 
L 57.211181 -278.802204 
L 58.080805 -278.886377 
L 58.936468 -278.97055 
L 59.766235 -279.054723 
L 60.559985 -279.138896 
L 61.309534 -279.223069 
L 62.008666 -279.307242 
L 62.653092 -279.391415 
L 63.240331 -279.475588 
L 63.769549 -279.559761 
L 64.241348 -279.643935 
L 64.657536 -279.728108 
L 68.953714 -279.728108 
L 68.953714 -279.728108 
L 69.369902 -279.643935 
L 69.841701 -279.559761 
L 70.370919 -279.475588 
L 70.958158 -279.391415 
L 71.602584 -279.307242 
L 72.301716 -279.223069 
L 73.051265 -279.138896 
L 73.845015 -279.054723 
L 74.674782 -278.97055 
L 75.530445 -278.886377 
L 76.400069 -278.802204 
L 77.270118 -278.718031 
L 78.125762 -278.633858 
L 78.95126 -278.549685 
L 79.730426 -278.465512 
L 80.447139 -278.381339 
L 81.085893 -278.297165 
L 81.63235 -278.212992 
L 82.073873 -278.128819 
L 82.40001 -278.044646 
L 82.602908 -277.960473 
L 82.677625 -277.8763 
L 82.622332 -277.792127 
L 82.438385 -277.707954 
L 82.130272 -277.623781 
L 81.705432 -277.539608 
L 81.173954 -277.455435 
L 80.548184 -277.371262 
L 79.842245 -277.287089 
L 79.071514 -277.202916 
L 78.252068 -277.118743 
L 77.400137 -277.034569 
L 76.531584 -276.950396 
L 75.661436 -276.866223 
L 74.80349 -276.78205 
L 73.969994 -276.697877 
L 73.171426 -276.613704 
L 72.416363 -276.529531 
L 71.711437 -276.445358 
L 71.061377 -276.361185 
L 70.469115 -276.277012 
L 69.935954 -276.192839 
L 69.461777 -276.108666 
L 69.045279 -276.024493 
L 68.684214 -275.94032 
L 68.375636 -275.856146 
L 68.116134 -275.771973 
L 67.902039 -275.6878 
L 67.729607 -275.603627 
L 67.595162 -275.519454 
L 67.495216 -275.435281 
L 67.426542 -275.351108 
L 67.386223 -275.266935 
L 67.371663 -275.182762 
L 67.380576 -275.098589 
L 67.410952 -275.014416 
L 67.461006 -274.930243 
L 67.529111 -274.84607 
L 67.613731 -274.761897 
L 67.713347 -274.677724 
L 67.826387 -274.59355 
L 67.951164 -274.509377 
L 68.085829 -274.425204 
L 68.228332 -274.341031 
L 68.376406 -274.256858 
L 68.527565 -274.172685 
L 68.67913 -274.088512 
L 68.828261 -274.004339 
L 68.972022 -273.920166 
L 69.107443 -273.835993 
L 69.231615 -273.75182 
L 69.341767 -273.667647 
L 69.435369 -273.583474 
L 69.510215 -273.499301 
L 69.564504 -273.415127 
L 69.596909 -273.330954 
L 69.606631 -273.246781 
L 69.593422 -273.162608 
L 69.557601 -273.078435 
L 69.500038 -272.994262 
L 69.422116 -272.910089 
L 69.325678 -272.825916 
L 69.212955 -272.741743 
L 69.086475 -272.65757 
L 68.948974 -272.573397 
L 68.803297 -272.489224 
L 68.652301 -272.405051 
L 68.498762 -272.320878 
L 68.345299 -272.236705 
L 68.1943 -272.152531 
L 68.04787 -272.068358 
L 67.907797 -271.984185 
L 67.775523 -271.900012 
L 67.652147 -271.815839 
L 67.538425 -271.731666 
L 67.434794 -271.647493 
L 67.341403 -271.56332 
L 67.258144 -271.479147 
L 67.1847 -271.394974 
z
" id="mab07c6e544" style="stroke:#3d3d3d;stroke-width:1.5;"/>
    </defs>
    <g clip-path="url(#p3fe5a110a0)">
     <use style="fill:#c4b5d0;stroke:#3d3d3d;stroke-width:1.5;" x="0" xlink:href="#mab07c6e544" y="368.607178"/>
    </g>
   </g>
   <g id="PolyCollection_2">
    <defs>
     <path d="M 146.17381 -92.273053 
L 146.15744 -92.273053 
L 146.155711 -94.716689 
L 146.153697 -97.160326 
L 146.151369 -99.603962 
L 146.148699 -102.047598 
L 146.145659 -104.491235 
L 146.142227 -106.934871 
L 146.138381 -109.378507 
L 146.134105 -111.822144 
L 146.129388 -114.26578 
L 146.124226 -116.709417 
L 146.118621 -119.153053 
L 146.112583 -121.596689 
L 146.106131 -124.040326 
L 146.099292 -126.483962 
L 146.092101 -128.927598 
L 146.084604 -131.371235 
L 146.076853 -133.814871 
L 146.068908 -136.258507 
L 146.060834 -138.702144 
L 146.052705 -141.14578 
L 146.044597 -143.589417 
L 146.036588 -146.033053 
L 146.02876 -148.476689 
L 146.021192 -150.920326 
L 146.013964 -153.363962 
L 146.007151 -155.807598 
L 146.000825 -158.251235 
L 145.995051 -160.694871 
L 145.989887 -163.138507 
L 145.985385 -165.582144 
L 145.981585 -168.02578 
L 145.97852 -170.469417 
L 145.976212 -172.913053 
L 145.97467 -175.356689 
L 145.973895 -177.800326 
L 145.973872 -180.243962 
L 145.974577 -182.687598 
L 145.975972 -185.131235 
L 145.978006 -187.574871 
L 145.980617 -190.018507 
L 145.983728 -192.462144 
L 145.98725 -194.90578 
L 145.99108 -197.349417 
L 145.995104 -199.793053 
L 145.999199 -202.236689 
L 146.003226 -204.680326 
L 146.007043 -207.123962 
L 146.010497 -209.567598 
L 146.013433 -212.011235 
L 146.015691 -214.454871 
L 146.017117 -216.898507 
L 146.017557 -219.342144 
L 146.016872 -221.78578 
L 146.014934 -224.229417 
L 146.011635 -226.673053 
L 146.006892 -229.116689 
L 146.000651 -231.560326 
L 145.992893 -234.003962 
L 145.983634 -236.447598 
L 145.972935 -238.891235 
L 145.960898 -241.334871 
L 145.947671 -243.778507 
L 145.933445 -246.222144 
L 145.918452 -248.66578 
L 145.902964 -251.109417 
L 145.887283 -253.553053 
L 145.871736 -255.996689 
L 145.856668 -258.440326 
L 145.842429 -260.883962 
L 145.829364 -263.327598 
L 145.817805 -265.771235 
L 145.808055 -268.214871 
L 145.800384 -270.658507 
L 145.795014 -273.102144 
L 145.792114 -275.54578 
L 145.791796 -277.989417 
L 145.794107 -280.433053 
L 145.799033 -282.876689 
L 145.806495 -285.320326 
L 145.816355 -287.763962 
L 145.828424 -290.207598 
L 145.842463 -292.651235 
L 145.858199 -295.094871 
L 145.875331 -297.538507 
L 145.893539 -299.982144 
L 145.9125 -302.42578 
L 145.931892 -304.869417 
L 145.951406 -307.313053 
L 145.970756 -309.756689 
L 145.989682 -312.200326 
L 146.007958 -314.643962 
L 146.025391 -317.087598 
L 146.041831 -319.531235 
L 146.057161 -321.974871 
L 146.071304 -324.418507 
L 146.084218 -326.862144 
L 146.09589 -329.30578 
L 146.106336 -331.749417 
L 146.115596 -334.193053 
L 146.215654 -334.193053 
L 146.215654 -334.193053 
L 146.224914 -331.749417 
L 146.23536 -329.30578 
L 146.247032 -326.862144 
L 146.259946 -324.418507 
L 146.274089 -321.974871 
L 146.289419 -319.531235 
L 146.305859 -317.087598 
L 146.323292 -314.643962 
L 146.341568 -312.200326 
L 146.360494 -309.756689 
L 146.379844 -307.313053 
L 146.399358 -304.869417 
L 146.41875 -302.42578 
L 146.437711 -299.982144 
L 146.455919 -297.538507 
L 146.473051 -295.094871 
L 146.488787 -292.651235 
L 146.502826 -290.207598 
L 146.514895 -287.763962 
L 146.524755 -285.320326 
L 146.532217 -282.876689 
L 146.537143 -280.433053 
L 146.539454 -277.989417 
L 146.539136 -275.54578 
L 146.536236 -273.102144 
L 146.530866 -270.658507 
L 146.523195 -268.214871 
L 146.513445 -265.771235 
L 146.501886 -263.327598 
L 146.488821 -260.883962 
L 146.474582 -258.440326 
L 146.459514 -255.996689 
L 146.443967 -253.553053 
L 146.428286 -251.109417 
L 146.412798 -248.66578 
L 146.397805 -246.222144 
L 146.383579 -243.778507 
L 146.370352 -241.334871 
L 146.358315 -238.891235 
L 146.347616 -236.447598 
L 146.338357 -234.003962 
L 146.330599 -231.560326 
L 146.324358 -229.116689 
L 146.319615 -226.673053 
L 146.316316 -224.229417 
L 146.314378 -221.78578 
L 146.313693 -219.342144 
L 146.314133 -216.898507 
L 146.315559 -214.454871 
L 146.317817 -212.011235 
L 146.320753 -209.567598 
L 146.324207 -207.123962 
L 146.328024 -204.680326 
L 146.332051 -202.236689 
L 146.336146 -199.793053 
L 146.34017 -197.349417 
L 146.344 -194.90578 
L 146.347522 -192.462144 
L 146.350633 -190.018507 
L 146.353244 -187.574871 
L 146.355278 -185.131235 
L 146.356673 -182.687598 
L 146.357378 -180.243962 
L 146.357355 -177.800326 
L 146.35658 -175.356689 
L 146.355038 -172.913053 
L 146.35273 -170.469417 
L 146.349665 -168.02578 
L 146.345865 -165.582144 
L 146.341363 -163.138507 
L 146.336199 -160.694871 
L 146.330425 -158.251235 
L 146.324099 -155.807598 
L 146.317286 -153.363962 
L 146.310058 -150.920326 
L 146.30249 -148.476689 
L 146.294662 -146.033053 
L 146.286653 -143.589417 
L 146.278545 -141.14578 
L 146.270416 -138.702144 
L 146.262342 -136.258507 
L 146.254397 -133.814871 
L 146.246646 -131.371235 
L 146.239149 -128.927598 
L 146.231958 -126.483962 
L 146.225119 -124.040326 
L 146.218667 -121.596689 
L 146.212629 -119.153053 
L 146.207024 -116.709417 
L 146.201862 -114.26578 
L 146.197145 -111.822144 
L 146.192869 -109.378507 
L 146.189023 -106.934871 
L 146.185591 -104.491235 
L 146.182551 -102.047598 
L 146.179881 -99.603962 
L 146.177553 -97.160326 
L 146.175539 -94.716689 
L 146.17381 -92.273053 
z
" id="mfc83fb76b3" style="stroke:#3d3d3d;stroke-width:1.5;"/>
    </defs>
    <g clip-path="url(#p3fe5a110a0)">
     <use style="fill:#f2a5a3;stroke:#3d3d3d;stroke-width:1.5;" x="0" xlink:href="#mfc83fb76b3" y="368.607178"/>
    </g>
   </g>
   <g id="PolyCollection_3">
    <defs>
     <path d="M 386.393714 -271.394974 
L 382.097536 -271.394974 
L 381.681348 -271.479147 
L 381.209549 -271.56332 
L 380.680331 -271.647493 
L 380.093092 -271.731666 
L 379.448666 -271.815839 
L 378.749534 -271.900012 
L 377.999985 -271.984185 
L 377.206235 -272.068358 
L 376.376468 -272.152531 
L 375.520805 -272.236705 
L 374.651181 -272.320878 
L 373.781132 -272.405051 
L 372.925488 -272.489224 
L 372.09999 -272.573397 
L 371.320824 -272.65757 
L 370.604111 -272.741743 
L 369.965357 -272.825916 
L 369.4189 -272.910089 
L 368.977377 -272.994262 
L 368.65124 -273.078435 
L 368.448342 -273.162608 
L 368.373625 -273.246781 
L 368.428918 -273.330954 
L 368.612865 -273.415127 
L 368.920978 -273.499301 
L 369.345818 -273.583474 
L 369.877296 -273.667647 
L 370.503066 -273.75182 
L 371.209005 -273.835993 
L 371.979736 -273.920166 
L 372.799182 -274.004339 
L 373.651113 -274.088512 
L 374.519666 -274.172685 
L 375.389814 -274.256858 
L 376.24776 -274.341031 
L 377.081256 -274.425204 
L 377.879824 -274.509377 
L 378.634887 -274.59355 
L 379.339813 -274.677724 
L 379.989873 -274.761897 
L 380.582135 -274.84607 
L 381.115296 -274.930243 
L 381.589473 -275.014416 
L 382.005971 -275.098589 
L 382.367036 -275.182762 
L 382.675614 -275.266935 
L 382.935116 -275.351108 
L 383.149211 -275.435281 
L 383.321643 -275.519454 
L 383.456088 -275.603627 
L 383.556034 -275.6878 
L 383.624708 -275.771973 
L 383.665027 -275.856146 
L 383.679587 -275.94032 
L 383.670674 -276.024493 
L 383.640298 -276.108666 
L 383.590244 -276.192839 
L 383.522139 -276.277012 
L 383.437519 -276.361185 
L 383.337903 -276.445358 
L 383.224863 -276.529531 
L 383.100086 -276.613704 
L 382.965421 -276.697877 
L 382.822918 -276.78205 
L 382.674844 -276.866223 
L 382.523685 -276.950396 
L 382.37212 -277.034569 
L 382.222989 -277.118743 
L 382.079228 -277.202916 
L 381.943807 -277.287089 
L 381.819635 -277.371262 
L 381.709483 -277.455435 
L 381.615881 -277.539608 
L 381.541035 -277.623781 
L 381.486746 -277.707954 
L 381.454341 -277.792127 
L 381.444619 -277.8763 
L 381.457828 -277.960473 
L 381.493649 -278.044646 
L 381.551212 -278.128819 
L 381.629134 -278.212992 
L 381.725572 -278.297165 
L 381.838295 -278.381339 
L 381.964775 -278.465512 
L 382.102276 -278.549685 
L 382.247953 -278.633858 
L 382.398949 -278.718031 
L 382.552488 -278.802204 
L 382.705951 -278.886377 
L 382.85695 -278.97055 
L 383.00338 -279.054723 
L 383.143453 -279.138896 
L 383.275727 -279.223069 
L 383.399103 -279.307242 
L 383.512825 -279.391415 
L 383.616456 -279.475588 
L 383.709847 -279.559761 
L 383.793106 -279.643935 
L 383.86655 -279.728108 
L 384.6247 -279.728108 
L 384.6247 -279.728108 
L 384.698144 -279.643935 
L 384.781403 -279.559761 
L 384.874794 -279.475588 
L 384.978425 -279.391415 
L 385.092147 -279.307242 
L 385.215523 -279.223069 
L 385.347797 -279.138896 
L 385.48787 -279.054723 
L 385.6343 -278.97055 
L 385.785299 -278.886377 
L 385.938762 -278.802204 
L 386.092301 -278.718031 
L 386.243297 -278.633858 
L 386.388974 -278.549685 
L 386.526475 -278.465512 
L 386.652955 -278.381339 
L 386.765678 -278.297165 
L 386.862116 -278.212992 
L 386.940038 -278.128819 
L 386.997601 -278.044646 
L 387.033422 -277.960473 
L 387.046631 -277.8763 
L 387.036909 -277.792127 
L 387.004504 -277.707954 
L 386.950215 -277.623781 
L 386.875369 -277.539608 
L 386.781767 -277.455435 
L 386.671615 -277.371262 
L 386.547443 -277.287089 
L 386.412022 -277.202916 
L 386.268261 -277.118743 
L 386.11913 -277.034569 
L 385.967565 -276.950396 
L 385.816406 -276.866223 
L 385.668332 -276.78205 
L 385.525829 -276.697877 
L 385.391164 -276.613704 
L 385.266387 -276.529531 
L 385.153347 -276.445358 
L 385.053731 -276.361185 
L 384.969111 -276.277012 
L 384.901006 -276.192839 
L 384.850952 -276.108666 
L 384.820576 -276.024493 
L 384.811663 -275.94032 
L 384.826223 -275.856146 
L 384.866542 -275.771973 
L 384.935216 -275.6878 
L 385.035162 -275.603627 
L 385.169607 -275.519454 
L 385.342039 -275.435281 
L 385.556134 -275.351108 
L 385.815636 -275.266935 
L 386.124214 -275.182762 
L 386.485279 -275.098589 
L 386.901777 -275.014416 
L 387.375954 -274.930243 
L 387.909115 -274.84607 
L 388.501377 -274.761897 
L 389.151437 -274.677724 
L 389.856363 -274.59355 
L 390.611426 -274.509377 
L 391.409994 -274.425204 
L 392.24349 -274.341031 
L 393.101436 -274.256858 
L 393.971584 -274.172685 
L 394.840137 -274.088512 
L 395.692068 -274.004339 
L 396.511514 -273.920166 
L 397.282245 -273.835993 
L 397.988184 -273.75182 
L 398.613954 -273.667647 
L 399.145432 -273.583474 
L 399.570272 -273.499301 
L 399.878385 -273.415127 
L 400.062332 -273.330954 
L 400.117625 -273.246781 
L 400.042908 -273.162608 
L 399.84001 -273.078435 
L 399.513873 -272.994262 
L 399.07235 -272.910089 
L 398.525893 -272.825916 
L 397.887139 -272.741743 
L 397.170426 -272.65757 
L 396.39126 -272.573397 
L 395.565762 -272.489224 
L 394.710118 -272.405051 
L 393.840069 -272.320878 
L 392.970445 -272.236705 
L 392.114782 -272.152531 
L 391.285015 -272.068358 
L 390.491265 -271.984185 
L 389.741716 -271.900012 
L 389.042584 -271.815839 
L 388.398158 -271.731666 
L 387.810919 -271.647493 
L 387.281701 -271.56332 
L 386.809902 -271.479147 
L 386.393714 -271.394974 
z
" id="m1ea1aa51dc" style="stroke:#3d3d3d;stroke-width:1.5;"/>
    </defs>
    <g clip-path="url(#p3fe5a110a0)">
     <use style="fill:#c03d3e;stroke:#3d3d3d;stroke-width:1.5;" x="0" xlink:href="#m1ea1aa51dc" y="368.607178"/>
    </g>
   </g>
   <g id="matplotlib.axis_1">
    <g id="xtick_1">
     <g id="line2d_1">
      <defs>
       <path d="M 0 0 
L 0 3.5 
" id="m3642cea4a2" style="stroke:#000000;stroke-width:0.8;"/>
      </defs>
      <g>
       <use style="stroke:#000000;stroke-width:0.8;" x="66.805625" xlink:href="#m3642cea4a2" y="288.430125"/>
      </g>
     </g>
     <g id="text_1">
      <!-- mopt -->
      <g transform="translate(43.138161 315.074627)rotate(-30)scale(0.1 -0.1)">
       <defs>
        <path d="M 52 44.1875 
Q 55.375 50.25 60.0625 53.125 
Q 64.75 56 71.09375 56 
Q 79.640625 56 84.28125 50.015625 
Q 88.921875 44.046875 88.921875 33.015625 
L 88.921875 0 
L 79.890625 0 
L 79.890625 32.71875 
Q 79.890625 40.578125 77.09375 44.375 
Q 74.3125 48.1875 68.609375 48.1875 
Q 61.625 48.1875 57.5625 43.546875 
Q 53.515625 38.921875 53.515625 30.90625 
L 53.515625 0 
L 44.484375 0 
L 44.484375 32.71875 
Q 44.484375 40.625 41.703125 44.40625 
Q 38.921875 48.1875 33.109375 48.1875 
Q 26.21875 48.1875 22.15625 43.53125 
Q 18.109375 38.875 18.109375 30.90625 
L 18.109375 0 
L 9.078125 0 
L 9.078125 54.6875 
L 18.109375 54.6875 
L 18.109375 46.1875 
Q 21.1875 51.21875 25.484375 53.609375 
Q 29.78125 56 35.6875 56 
Q 41.65625 56 45.828125 52.96875 
Q 50 49.953125 52 44.1875 
z
" id="DejaVuSans-109"/>
        <path d="M 30.609375 48.390625 
Q 23.390625 48.390625 19.1875 42.75 
Q 14.984375 37.109375 14.984375 27.296875 
Q 14.984375 17.484375 19.15625 11.84375 
Q 23.34375 6.203125 30.609375 6.203125 
Q 37.796875 6.203125 41.984375 11.859375 
Q 46.1875 17.53125 46.1875 27.296875 
Q 46.1875 37.015625 41.984375 42.703125 
Q 37.796875 48.390625 30.609375 48.390625 
z
M 30.609375 56 
Q 42.328125 56 49.015625 48.375 
Q 55.71875 40.765625 55.71875 27.296875 
Q 55.71875 13.875 49.015625 6.21875 
Q 42.328125 -1.421875 30.609375 -1.421875 
Q 18.84375 -1.421875 12.171875 6.21875 
Q 5.515625 13.875 5.515625 27.296875 
Q 5.515625 40.765625 12.171875 48.375 
Q 18.84375 56 30.609375 56 
z
" id="DejaVuSans-111"/>
        <path d="M 18.109375 8.203125 
L 18.109375 -20.796875 
L 9.078125 -20.796875 
L 9.078125 54.6875 
L 18.109375 54.6875 
L 18.109375 46.390625 
Q 20.953125 51.265625 25.265625 53.625 
Q 29.59375 56 35.59375 56 
Q 45.5625 56 51.78125 48.09375 
Q 58.015625 40.1875 58.015625 27.296875 
Q 58.015625 14.40625 51.78125 6.484375 
Q 45.5625 -1.421875 35.59375 -1.421875 
Q 29.59375 -1.421875 25.265625 0.953125 
Q 20.953125 3.328125 18.109375 8.203125 
z
M 48.6875 27.296875 
Q 48.6875 37.203125 44.609375 42.84375 
Q 40.53125 48.484375 33.40625 48.484375 
Q 26.265625 48.484375 22.1875 42.84375 
Q 18.109375 37.203125 18.109375 27.296875 
Q 18.109375 17.390625 22.1875 11.75 
Q 26.265625 6.109375 33.40625 6.109375 
Q 40.53125 6.109375 44.609375 11.75 
Q 48.6875 17.390625 48.6875 27.296875 
z
" id="DejaVuSans-112"/>
        <path d="M 18.3125 70.21875 
L 18.3125 54.6875 
L 36.8125 54.6875 
L 36.8125 47.703125 
L 18.3125 47.703125 
L 18.3125 18.015625 
Q 18.3125 11.328125 20.140625 9.421875 
Q 21.96875 7.515625 27.59375 7.515625 
L 36.8125 7.515625 
L 36.8125 0 
L 27.59375 0 
Q 17.1875 0 13.234375 3.875 
Q 9.28125 7.765625 9.28125 18.015625 
L 9.28125 47.703125 
L 2.6875 47.703125 
L 2.6875 54.6875 
L 9.28125 54.6875 
L 9.28125 70.21875 
z
" id="DejaVuSans-116"/>
       </defs>
       <use xlink:href="#DejaVuSans-109"/>
       <use x="97.412109" xlink:href="#DejaVuSans-111"/>
       <use x="158.59375" xlink:href="#DejaVuSans-112"/>
       <use x="222.070312" xlink:href="#DejaVuSans-116"/>
      </g>
     </g>
    </g>
    <g id="xtick_2">
     <g id="line2d_2">
      <g>
       <use style="stroke:#000000;stroke-width:0.8;" x="106.485625" xlink:href="#m3642cea4a2" y="288.430125"/>
      </g>
     </g>
     <g id="text_2">
      <!-- lafintel -->
      <g transform="translate(75.65992 319.20744)rotate(-30)scale(0.1 -0.1)">
       <defs>
        <path d="M 9.421875 75.984375 
L 18.40625 75.984375 
L 18.40625 0 
L 9.421875 0 
z
" id="DejaVuSans-108"/>
        <path d="M 34.28125 27.484375 
Q 23.390625 27.484375 19.1875 25 
Q 14.984375 22.515625 14.984375 16.5 
Q 14.984375 11.71875 18.140625 8.90625 
Q 21.296875 6.109375 26.703125 6.109375 
Q 34.1875 6.109375 38.703125 11.40625 
Q 43.21875 16.703125 43.21875 25.484375 
L 43.21875 27.484375 
z
M 52.203125 31.203125 
L 52.203125 0 
L 43.21875 0 
L 43.21875 8.296875 
Q 40.140625 3.328125 35.546875 0.953125 
Q 30.953125 -1.421875 24.3125 -1.421875 
Q 15.921875 -1.421875 10.953125 3.296875 
Q 6 8.015625 6 15.921875 
Q 6 25.140625 12.171875 29.828125 
Q 18.359375 34.515625 30.609375 34.515625 
L 43.21875 34.515625 
L 43.21875 35.40625 
Q 43.21875 41.609375 39.140625 45 
Q 35.0625 48.390625 27.6875 48.390625 
Q 23 48.390625 18.546875 47.265625 
Q 14.109375 46.140625 10.015625 43.890625 
L 10.015625 52.203125 
Q 14.9375 54.109375 19.578125 55.046875 
Q 24.21875 56 28.609375 56 
Q 40.484375 56 46.34375 49.84375 
Q 52.203125 43.703125 52.203125 31.203125 
z
" id="DejaVuSans-97"/>
        <path d="M 37.109375 75.984375 
L 37.109375 68.5 
L 28.515625 68.5 
Q 23.6875 68.5 21.796875 66.546875 
Q 19.921875 64.59375 19.921875 59.515625 
L 19.921875 54.6875 
L 34.71875 54.6875 
L 34.71875 47.703125 
L 19.921875 47.703125 
L 19.921875 0 
L 10.890625 0 
L 10.890625 47.703125 
L 2.296875 47.703125 
L 2.296875 54.6875 
L 10.890625 54.6875 
L 10.890625 58.5 
Q 10.890625 67.625 15.140625 71.796875 
Q 19.390625 75.984375 28.609375 75.984375 
z
" id="DejaVuSans-102"/>
        <path d="M 9.421875 54.6875 
L 18.40625 54.6875 
L 18.40625 0 
L 9.421875 0 
z
M 9.421875 75.984375 
L 18.40625 75.984375 
L 18.40625 64.59375 
L 9.421875 64.59375 
z
" id="DejaVuSans-105"/>
        <path d="M 54.890625 33.015625 
L 54.890625 0 
L 45.90625 0 
L 45.90625 32.71875 
Q 45.90625 40.484375 42.875 44.328125 
Q 39.84375 48.1875 33.796875 48.1875 
Q 26.515625 48.1875 22.3125 43.546875 
Q 18.109375 38.921875 18.109375 30.90625 
L 18.109375 0 
L 9.078125 0 
L 9.078125 54.6875 
L 18.109375 54.6875 
L 18.109375 46.1875 
Q 21.34375 51.125 25.703125 53.5625 
Q 30.078125 56 35.796875 56 
Q 45.21875 56 50.046875 50.171875 
Q 54.890625 44.34375 54.890625 33.015625 
z
" id="DejaVuSans-110"/>
        <path d="M 56.203125 29.59375 
L 56.203125 25.203125 
L 14.890625 25.203125 
Q 15.484375 15.921875 20.484375 11.0625 
Q 25.484375 6.203125 34.421875 6.203125 
Q 39.59375 6.203125 44.453125 7.46875 
Q 49.3125 8.734375 54.109375 11.28125 
L 54.109375 2.78125 
Q 49.265625 0.734375 44.1875 -0.34375 
Q 39.109375 -1.421875 33.890625 -1.421875 
Q 20.796875 -1.421875 13.15625 6.1875 
Q 5.515625 13.8125 5.515625 26.8125 
Q 5.515625 40.234375 12.765625 48.109375 
Q 20.015625 56 32.328125 56 
Q 43.359375 56 49.78125 48.890625 
Q 56.203125 41.796875 56.203125 29.59375 
z
M 47.21875 32.234375 
Q 47.125 39.59375 43.09375 43.984375 
Q 39.0625 48.390625 32.421875 48.390625 
Q 24.90625 48.390625 20.390625 44.140625 
Q 15.875 39.890625 15.1875 32.171875 
z
" id="DejaVuSans-101"/>
       </defs>
       <use xlink:href="#DejaVuSans-108"/>
       <use x="27.783203" xlink:href="#DejaVuSans-97"/>
       <use x="89.0625" xlink:href="#DejaVuSans-102"/>
       <use x="124.267578" xlink:href="#DejaVuSans-105"/>
       <use x="152.050781" xlink:href="#DejaVuSans-110"/>
       <use x="215.429688" xlink:href="#DejaVuSans-116"/>
       <use x="254.638672" xlink:href="#DejaVuSans-101"/>
       <use x="316.162109" xlink:href="#DejaVuSans-108"/>
      </g>
     </g>
    </g>
    <g id="xtick_3">
     <g id="line2d_3">
      <g>
       <use style="stroke:#000000;stroke-width:0.8;" x="146.165625" xlink:href="#m3642cea4a2" y="288.430125"/>
      </g>
     </g>
     <g id="text_3">
      <!-- fairfuzz -->
      <g transform="translate(113.17621 320.456659)rotate(-30)scale(0.1 -0.1)">
       <defs>
        <path d="M 41.109375 46.296875 
Q 39.59375 47.171875 37.8125 47.578125 
Q 36.03125 48 33.890625 48 
Q 26.265625 48 22.1875 43.046875 
Q 18.109375 38.09375 18.109375 28.8125 
L 18.109375 0 
L 9.078125 0 
L 9.078125 54.6875 
L 18.109375 54.6875 
L 18.109375 46.1875 
Q 20.953125 51.171875 25.484375 53.578125 
Q 30.03125 56 36.53125 56 
Q 37.453125 56 38.578125 55.875 
Q 39.703125 55.765625 41.0625 55.515625 
z
" id="DejaVuSans-114"/>
        <path d="M 8.5 21.578125 
L 8.5 54.6875 
L 17.484375 54.6875 
L 17.484375 21.921875 
Q 17.484375 14.15625 20.5 10.265625 
Q 23.53125 6.390625 29.59375 6.390625 
Q 36.859375 6.390625 41.078125 11.03125 
Q 45.3125 15.671875 45.3125 23.6875 
L 45.3125 54.6875 
L 54.296875 54.6875 
L 54.296875 0 
L 45.3125 0 
L 45.3125 8.40625 
Q 42.046875 3.421875 37.71875 1 
Q 33.40625 -1.421875 27.6875 -1.421875 
Q 18.265625 -1.421875 13.375 4.4375 
Q 8.5 10.296875 8.5 21.578125 
z
M 31.109375 56 
z
" id="DejaVuSans-117"/>
        <path d="M 5.515625 54.6875 
L 48.1875 54.6875 
L 48.1875 46.484375 
L 14.40625 7.171875 
L 48.1875 7.171875 
L 48.1875 0 
L 4.296875 0 
L 4.296875 8.203125 
L 38.09375 47.515625 
L 5.515625 47.515625 
z
" id="DejaVuSans-122"/>
       </defs>
       <use xlink:href="#DejaVuSans-102"/>
       <use x="35.205078" xlink:href="#DejaVuSans-97"/>
       <use x="96.484375" xlink:href="#DejaVuSans-105"/>
       <use x="124.267578" xlink:href="#DejaVuSans-114"/>
       <use x="165.380859" xlink:href="#DejaVuSans-102"/>
       <use x="200.585938" xlink:href="#DejaVuSans-117"/>
       <use x="263.964844" xlink:href="#DejaVuSans-122"/>
       <use x="316.455078" xlink:href="#DejaVuSans-122"/>
      </g>
     </g>
    </g>
    <g id="xtick_4">
     <g id="line2d_4">
      <g>
       <use style="stroke:#000000;stroke-width:0.8;" x="185.845625" xlink:href="#m3642cea4a2" y="288.430125"/>
      </g>
     </g>
     <g id="text_4">
      <!-- aflplusplus_flat -->
      <g transform="translate(119.61062 339.570721)rotate(-30)scale(0.1 -0.1)">
       <defs>
        <path d="M 44.28125 53.078125 
L 44.28125 44.578125 
Q 40.484375 46.53125 36.375 47.5 
Q 32.28125 48.484375 27.875 48.484375 
Q 21.1875 48.484375 17.84375 46.4375 
Q 14.5 44.390625 14.5 40.28125 
Q 14.5 37.15625 16.890625 35.375 
Q 19.28125 33.59375 26.515625 31.984375 
L 29.59375 31.296875 
Q 39.15625 29.25 43.1875 25.515625 
Q 47.21875 21.78125 47.21875 15.09375 
Q 47.21875 7.46875 41.1875 3.015625 
Q 35.15625 -1.421875 24.609375 -1.421875 
Q 20.21875 -1.421875 15.453125 -0.5625 
Q 10.6875 0.296875 5.421875 2 
L 5.421875 11.28125 
Q 10.40625 8.6875 15.234375 7.390625 
Q 20.0625 6.109375 24.8125 6.109375 
Q 31.15625 6.109375 34.5625 8.28125 
Q 37.984375 10.453125 37.984375 14.40625 
Q 37.984375 18.0625 35.515625 20.015625 
Q 33.0625 21.96875 24.703125 23.78125 
L 21.578125 24.515625 
Q 13.234375 26.265625 9.515625 29.90625 
Q 5.8125 33.546875 5.8125 39.890625 
Q 5.8125 47.609375 11.28125 51.796875 
Q 16.75 56 26.8125 56 
Q 31.78125 56 36.171875 55.265625 
Q 40.578125 54.546875 44.28125 53.078125 
z
" id="DejaVuSans-115"/>
        <path d="M 50.984375 -16.609375 
L 50.984375 -23.578125 
L -0.984375 -23.578125 
L -0.984375 -16.609375 
z
" id="DejaVuSans-95"/>
       </defs>
       <use xlink:href="#DejaVuSans-97"/>
       <use x="61.279297" xlink:href="#DejaVuSans-102"/>
       <use x="96.484375" xlink:href="#DejaVuSans-108"/>
       <use x="124.267578" xlink:href="#DejaVuSans-112"/>
       <use x="187.744141" xlink:href="#DejaVuSans-108"/>
       <use x="215.527344" xlink:href="#DejaVuSans-117"/>
       <use x="278.90625" xlink:href="#DejaVuSans-115"/>
       <use x="331.005859" xlink:href="#DejaVuSans-112"/>
       <use x="394.482422" xlink:href="#DejaVuSans-108"/>
       <use x="422.265625" xlink:href="#DejaVuSans-117"/>
       <use x="485.644531" xlink:href="#DejaVuSans-115"/>
       <use x="537.744141" xlink:href="#DejaVuSans-95"/>
       <use x="587.744141" xlink:href="#DejaVuSans-102"/>
       <use x="622.949219" xlink:href="#DejaVuSans-108"/>
       <use x="650.732422" xlink:href="#DejaVuSans-97"/>
       <use x="712.011719" xlink:href="#DejaVuSans-116"/>
      </g>
     </g>
    </g>
    <g id="xtick_5">
     <g id="line2d_5">
      <g>
       <use style="stroke:#000000;stroke-width:0.8;" x="225.525625" xlink:href="#m3642cea4a2" y="288.430125"/>
      </g>
     </g>
     <g id="text_5">
      <!-- aflplusplus -->
      <g transform="translate(177.916618 328.897284)rotate(-30)scale(0.1 -0.1)">
       <use xlink:href="#DejaVuSans-97"/>
       <use x="61.279297" xlink:href="#DejaVuSans-102"/>
       <use x="96.484375" xlink:href="#DejaVuSans-108"/>
       <use x="124.267578" xlink:href="#DejaVuSans-112"/>
       <use x="187.744141" xlink:href="#DejaVuSans-108"/>
       <use x="215.527344" xlink:href="#DejaVuSans-117"/>
       <use x="278.90625" xlink:href="#DejaVuSans-115"/>
       <use x="331.005859" xlink:href="#DejaVuSans-112"/>
       <use x="394.482422" xlink:href="#DejaVuSans-108"/>
       <use x="422.265625" xlink:href="#DejaVuSans-117"/>
       <use x="485.644531" xlink:href="#DejaVuSans-115"/>
      </g>
     </g>
    </g>
    <g id="xtick_6">
     <g id="line2d_6">
      <g>
       <use style="stroke:#000000;stroke-width:0.8;" x="265.205625" xlink:href="#m3642cea4a2" y="288.430125"/>
      </g>
     </g>
     <g id="text_6">
      <!-- libfuzzer -->
      <g transform="translate(227.339404 323.272284)rotate(-30)scale(0.1 -0.1)">
       <defs>
        <path d="M 48.6875 27.296875 
Q 48.6875 37.203125 44.609375 42.84375 
Q 40.53125 48.484375 33.40625 48.484375 
Q 26.265625 48.484375 22.1875 42.84375 
Q 18.109375 37.203125 18.109375 27.296875 
Q 18.109375 17.390625 22.1875 11.75 
Q 26.265625 6.109375 33.40625 6.109375 
Q 40.53125 6.109375 44.609375 11.75 
Q 48.6875 17.390625 48.6875 27.296875 
z
M 18.109375 46.390625 
Q 20.953125 51.265625 25.265625 53.625 
Q 29.59375 56 35.59375 56 
Q 45.5625 56 51.78125 48.09375 
Q 58.015625 40.1875 58.015625 27.296875 
Q 58.015625 14.40625 51.78125 6.484375 
Q 45.5625 -1.421875 35.59375 -1.421875 
Q 29.59375 -1.421875 25.265625 0.953125 
Q 20.953125 3.328125 18.109375 8.203125 
L 18.109375 0 
L 9.078125 0 
L 9.078125 75.984375 
L 18.109375 75.984375 
z
" id="DejaVuSans-98"/>
       </defs>
       <use xlink:href="#DejaVuSans-108"/>
       <use x="27.783203" xlink:href="#DejaVuSans-105"/>
       <use x="55.566406" xlink:href="#DejaVuSans-98"/>
       <use x="119.042969" xlink:href="#DejaVuSans-102"/>
       <use x="154.248047" xlink:href="#DejaVuSans-117"/>
       <use x="217.626953" xlink:href="#DejaVuSans-122"/>
       <use x="270.117188" xlink:href="#DejaVuSans-122"/>
       <use x="322.607422" xlink:href="#DejaVuSans-101"/>
       <use x="384.130859" xlink:href="#DejaVuSans-114"/>
      </g>
     </g>
    </g>
    <g id="xtick_7">
     <g id="line2d_7">
      <g>
       <use style="stroke:#000000;stroke-width:0.8;" x="304.885625" xlink:href="#m3642cea4a2" y="288.430125"/>
      </g>
     </g>
     <g id="text_7">
      <!-- honggfuzz -->
      <g transform="translate(258.946424 327.933221)rotate(-30)scale(0.1 -0.1)">
       <defs>
        <path d="M 54.890625 33.015625 
L 54.890625 0 
L 45.90625 0 
L 45.90625 32.71875 
Q 45.90625 40.484375 42.875 44.328125 
Q 39.84375 48.1875 33.796875 48.1875 
Q 26.515625 48.1875 22.3125 43.546875 
Q 18.109375 38.921875 18.109375 30.90625 
L 18.109375 0 
L 9.078125 0 
L 9.078125 75.984375 
L 18.109375 75.984375 
L 18.109375 46.1875 
Q 21.34375 51.125 25.703125 53.5625 
Q 30.078125 56 35.796875 56 
Q 45.21875 56 50.046875 50.171875 
Q 54.890625 44.34375 54.890625 33.015625 
z
" id="DejaVuSans-104"/>
        <path d="M 45.40625 27.984375 
Q 45.40625 37.75 41.375 43.109375 
Q 37.359375 48.484375 30.078125 48.484375 
Q 22.859375 48.484375 18.828125 43.109375 
Q 14.796875 37.75 14.796875 27.984375 
Q 14.796875 18.265625 18.828125 12.890625 
Q 22.859375 7.515625 30.078125 7.515625 
Q 37.359375 7.515625 41.375 12.890625 
Q 45.40625 18.265625 45.40625 27.984375 
z
M 54.390625 6.78125 
Q 54.390625 -7.171875 48.1875 -13.984375 
Q 42 -20.796875 29.203125 -20.796875 
Q 24.46875 -20.796875 20.265625 -20.09375 
Q 16.0625 -19.390625 12.109375 -17.921875 
L 12.109375 -9.1875 
Q 16.0625 -11.328125 19.921875 -12.34375 
Q 23.78125 -13.375 27.78125 -13.375 
Q 36.625 -13.375 41.015625 -8.765625 
Q 45.40625 -4.15625 45.40625 5.171875 
L 45.40625 9.625 
Q 42.625 4.78125 38.28125 2.390625 
Q 33.9375 0 27.875 0 
Q 17.828125 0 11.671875 7.65625 
Q 5.515625 15.328125 5.515625 27.984375 
Q 5.515625 40.671875 11.671875 48.328125 
Q 17.828125 56 27.875 56 
Q 33.9375 56 38.28125 53.609375 
Q 42.625 51.21875 45.40625 46.390625 
L 45.40625 54.6875 
L 54.390625 54.6875 
z
" id="DejaVuSans-103"/>
       </defs>
       <use xlink:href="#DejaVuSans-104"/>
       <use x="63.378906" xlink:href="#DejaVuSans-111"/>
       <use x="124.560547" xlink:href="#DejaVuSans-110"/>
       <use x="187.939453" xlink:href="#DejaVuSans-103"/>
       <use x="251.416016" xlink:href="#DejaVuSans-103"/>
       <use x="314.892578" xlink:href="#DejaVuSans-102"/>
       <use x="350.097656" xlink:href="#DejaVuSans-117"/>
       <use x="413.476562" xlink:href="#DejaVuSans-122"/>
       <use x="465.966797" xlink:href="#DejaVuSans-122"/>
      </g>
     </g>
    </g>
    <g id="xtick_8">
     <g id="line2d_8">
      <g>
       <use style="stroke:#000000;stroke-width:0.8;" x="344.565625" xlink:href="#m3642cea4a2" y="288.430125"/>
      </g>
     </g>
     <g id="text_8">
      <!-- entropic -->
      <g transform="translate(307.983557 322.530877)rotate(-30)scale(0.1 -0.1)">
       <defs>
        <path d="M 48.78125 52.59375 
L 48.78125 44.1875 
Q 44.96875 46.296875 41.140625 47.34375 
Q 37.3125 48.390625 33.40625 48.390625 
Q 24.65625 48.390625 19.8125 42.84375 
Q 14.984375 37.3125 14.984375 27.296875 
Q 14.984375 17.28125 19.8125 11.734375 
Q 24.65625 6.203125 33.40625 6.203125 
Q 37.3125 6.203125 41.140625 7.25 
Q 44.96875 8.296875 48.78125 10.40625 
L 48.78125 2.09375 
Q 45.015625 0.34375 40.984375 -0.53125 
Q 36.96875 -1.421875 32.421875 -1.421875 
Q 20.0625 -1.421875 12.78125 6.34375 
Q 5.515625 14.109375 5.515625 27.296875 
Q 5.515625 40.671875 12.859375 48.328125 
Q 20.21875 56 33.015625 56 
Q 37.15625 56 41.109375 55.140625 
Q 45.0625 54.296875 48.78125 52.59375 
z
" id="DejaVuSans-99"/>
       </defs>
       <use xlink:href="#DejaVuSans-101"/>
       <use x="61.523438" xlink:href="#DejaVuSans-110"/>
       <use x="124.902344" xlink:href="#DejaVuSans-116"/>
       <use x="164.111328" xlink:href="#DejaVuSans-114"/>
       <use x="202.974609" xlink:href="#DejaVuSans-111"/>
       <use x="264.15625" xlink:href="#DejaVuSans-112"/>
       <use x="327.632812" xlink:href="#DejaVuSans-105"/>
       <use x="355.416016" xlink:href="#DejaVuSans-99"/>
      </g>
     </g>
    </g>
    <g id="xtick_9">
     <g id="line2d_9">
      <g>
       <use style="stroke:#000000;stroke-width:0.8;" x="384.245625" xlink:href="#m3642cea4a2" y="288.430125"/>
      </g>
     </g>
     <g id="text_9">
      <!-- aflplusplus_qemu -->
      <g transform="translate(307.416693 345.687127)rotate(-30)scale(0.1 -0.1)">
       <defs>
        <path d="M 14.796875 27.296875 
Q 14.796875 17.390625 18.875 11.75 
Q 22.953125 6.109375 30.078125 6.109375 
Q 37.203125 6.109375 41.296875 11.75 
Q 45.40625 17.390625 45.40625 27.296875 
Q 45.40625 37.203125 41.296875 42.84375 
Q 37.203125 48.484375 30.078125 48.484375 
Q 22.953125 48.484375 18.875 42.84375 
Q 14.796875 37.203125 14.796875 27.296875 
z
M 45.40625 8.203125 
Q 42.578125 3.328125 38.25 0.953125 
Q 33.9375 -1.421875 27.875 -1.421875 
Q 17.96875 -1.421875 11.734375 6.484375 
Q 5.515625 14.40625 5.515625 27.296875 
Q 5.515625 40.1875 11.734375 48.09375 
Q 17.96875 56 27.875 56 
Q 33.9375 56 38.25 53.625 
Q 42.578125 51.265625 45.40625 46.390625 
L 45.40625 54.6875 
L 54.390625 54.6875 
L 54.390625 -20.796875 
L 45.40625 -20.796875 
z
" id="DejaVuSans-113"/>
       </defs>
       <use xlink:href="#DejaVuSans-97"/>
       <use x="61.279297" xlink:href="#DejaVuSans-102"/>
       <use x="96.484375" xlink:href="#DejaVuSans-108"/>
       <use x="124.267578" xlink:href="#DejaVuSans-112"/>
       <use x="187.744141" xlink:href="#DejaVuSans-108"/>
       <use x="215.527344" xlink:href="#DejaVuSans-117"/>
       <use x="278.90625" xlink:href="#DejaVuSans-115"/>
       <use x="331.005859" xlink:href="#DejaVuSans-112"/>
       <use x="394.482422" xlink:href="#DejaVuSans-108"/>
       <use x="422.265625" xlink:href="#DejaVuSans-117"/>
       <use x="485.644531" xlink:href="#DejaVuSans-115"/>
       <use x="537.744141" xlink:href="#DejaVuSans-95"/>
       <use x="587.744141" xlink:href="#DejaVuSans-113"/>
       <use x="651.220703" xlink:href="#DejaVuSans-101"/>
       <use x="712.744141" xlink:href="#DejaVuSans-109"/>
       <use x="810.15625" xlink:href="#DejaVuSans-117"/>
      </g>
     </g>
    </g>
    <g id="text_10">
     <!-- Fuzzer (highest median coverage on the left) -->
     <g transform="translate(112.907656 359.32749)scale(0.1 -0.1)">
      <defs>
       <path d="M 9.8125 72.90625 
L 51.703125 72.90625 
L 51.703125 64.59375 
L 19.671875 64.59375 
L 19.671875 43.109375 
L 48.578125 43.109375 
L 48.578125 34.8125 
L 19.671875 34.8125 
L 19.671875 0 
L 9.8125 0 
z
" id="DejaVuSans-70"/>
       <path id="DejaVuSans-32"/>
       <path d="M 31 75.875 
Q 24.46875 64.65625 21.28125 53.65625 
Q 18.109375 42.671875 18.109375 31.390625 
Q 18.109375 20.125 21.3125 9.0625 
Q 24.515625 -2 31 -13.1875 
L 23.1875 -13.1875 
Q 15.875 -1.703125 12.234375 9.375 
Q 8.59375 20.453125 8.59375 31.390625 
Q 8.59375 42.28125 12.203125 53.3125 
Q 15.828125 64.359375 23.1875 75.875 
z
" id="DejaVuSans-40"/>
       <path d="M 45.40625 46.390625 
L 45.40625 75.984375 
L 54.390625 75.984375 
L 54.390625 0 
L 45.40625 0 
L 45.40625 8.203125 
Q 42.578125 3.328125 38.25 0.953125 
Q 33.9375 -1.421875 27.875 -1.421875 
Q 17.96875 -1.421875 11.734375 6.484375 
Q 5.515625 14.40625 5.515625 27.296875 
Q 5.515625 40.1875 11.734375 48.09375 
Q 17.96875 56 27.875 56 
Q 33.9375 56 38.25 53.625 
Q 42.578125 51.265625 45.40625 46.390625 
z
M 14.796875 27.296875 
Q 14.796875 17.390625 18.875 11.75 
Q 22.953125 6.109375 30.078125 6.109375 
Q 37.203125 6.109375 41.296875 11.75 
Q 45.40625 17.390625 45.40625 27.296875 
Q 45.40625 37.203125 41.296875 42.84375 
Q 37.203125 48.484375 30.078125 48.484375 
Q 22.953125 48.484375 18.875 42.84375 
Q 14.796875 37.203125 14.796875 27.296875 
z
" id="DejaVuSans-100"/>
       <path d="M 2.984375 54.6875 
L 12.5 54.6875 
L 29.59375 8.796875 
L 46.6875 54.6875 
L 56.203125 54.6875 
L 35.6875 0 
L 23.484375 0 
z
" id="DejaVuSans-118"/>
       <path d="M 8.015625 75.875 
L 15.828125 75.875 
Q 23.140625 64.359375 26.78125 53.3125 
Q 30.421875 42.28125 30.421875 31.390625 
Q 30.421875 20.453125 26.78125 9.375 
Q 23.140625 -1.703125 15.828125 -13.1875 
L 8.015625 -13.1875 
Q 14.5 -2 17.703125 9.0625 
Q 20.90625 20.125 20.90625 31.390625 
Q 20.90625 42.671875 17.703125 53.65625 
Q 14.5 64.65625 8.015625 75.875 
z
" id="DejaVuSans-41"/>
      </defs>
      <use xlink:href="#DejaVuSans-70"/>
      <use x="52.019531" xlink:href="#DejaVuSans-117"/>
      <use x="115.398438" xlink:href="#DejaVuSans-122"/>
      <use x="167.888672" xlink:href="#DejaVuSans-122"/>
      <use x="220.378906" xlink:href="#DejaVuSans-101"/>
      <use x="281.902344" xlink:href="#DejaVuSans-114"/>
      <use x="323.015625" xlink:href="#DejaVuSans-32"/>
      <use x="354.802734" xlink:href="#DejaVuSans-40"/>
      <use x="393.816406" xlink:href="#DejaVuSans-104"/>
      <use x="457.195312" xlink:href="#DejaVuSans-105"/>
      <use x="484.978516" xlink:href="#DejaVuSans-103"/>
      <use x="548.455078" xlink:href="#DejaVuSans-104"/>
      <use x="611.833984" xlink:href="#DejaVuSans-101"/>
      <use x="673.357422" xlink:href="#DejaVuSans-115"/>
      <use x="725.457031" xlink:href="#DejaVuSans-116"/>
      <use x="764.666016" xlink:href="#DejaVuSans-32"/>
      <use x="796.453125" xlink:href="#DejaVuSans-109"/>
      <use x="893.865234" xlink:href="#DejaVuSans-101"/>
      <use x="955.388672" xlink:href="#DejaVuSans-100"/>
      <use x="1018.865234" xlink:href="#DejaVuSans-105"/>
      <use x="1046.648438" xlink:href="#DejaVuSans-97"/>
      <use x="1107.927734" xlink:href="#DejaVuSans-110"/>
      <use x="1171.306641" xlink:href="#DejaVuSans-32"/>
      <use x="1203.09375" xlink:href="#DejaVuSans-99"/>
      <use x="1258.074219" xlink:href="#DejaVuSans-111"/>
      <use x="1319.255859" xlink:href="#DejaVuSans-118"/>
      <use x="1378.435547" xlink:href="#DejaVuSans-101"/>
      <use x="1439.958984" xlink:href="#DejaVuSans-114"/>
      <use x="1481.072266" xlink:href="#DejaVuSans-97"/>
      <use x="1542.351562" xlink:href="#DejaVuSans-103"/>
      <use x="1605.828125" xlink:href="#DejaVuSans-101"/>
      <use x="1667.351562" xlink:href="#DejaVuSans-32"/>
      <use x="1699.138672" xlink:href="#DejaVuSans-111"/>
      <use x="1760.320312" xlink:href="#DejaVuSans-110"/>
      <use x="1823.699219" xlink:href="#DejaVuSans-32"/>
      <use x="1855.486328" xlink:href="#DejaVuSans-116"/>
      <use x="1894.695312" xlink:href="#DejaVuSans-104"/>
      <use x="1958.074219" xlink:href="#DejaVuSans-101"/>
      <use x="2019.597656" xlink:href="#DejaVuSans-32"/>
      <use x="2051.384766" xlink:href="#DejaVuSans-108"/>
      <use x="2079.167969" xlink:href="#DejaVuSans-101"/>
      <use x="2140.691406" xlink:href="#DejaVuSans-102"/>
      <use x="2174.146484" xlink:href="#DejaVuSans-116"/>
      <use x="2213.355469" xlink:href="#DejaVuSans-41"/>
     </g>
    </g>
   </g>
   <g id="matplotlib.axis_2">
    <g id="ytick_1">
     <g id="line2d_10">
      <defs>
       <path d="M 0 0 
L -3.5 0 
" id="me5fee0056f" style="stroke:#000000;stroke-width:0.8;"/>
      </defs>
      <g>
       <use style="stroke:#000000;stroke-width:0.8;" x="46.965625" xlink:href="#me5fee0056f" y="275.414176"/>
      </g>
     </g>
     <g id="text_11">
      <!-- 600 -->
      <g transform="translate(20.878125 279.213394)scale(0.1 -0.1)">
       <defs>
        <path d="M 33.015625 40.375 
Q 26.375 40.375 22.484375 35.828125 
Q 18.609375 31.296875 18.609375 23.390625 
Q 18.609375 15.53125 22.484375 10.953125 
Q 26.375 6.390625 33.015625 6.390625 
Q 39.65625 6.390625 43.53125 10.953125 
Q 47.40625 15.53125 47.40625 23.390625 
Q 47.40625 31.296875 43.53125 35.828125 
Q 39.65625 40.375 33.015625 40.375 
z
M 52.59375 71.296875 
L 52.59375 62.3125 
Q 48.875 64.0625 45.09375 64.984375 
Q 41.3125 65.921875 37.59375 65.921875 
Q 27.828125 65.921875 22.671875 59.328125 
Q 17.53125 52.734375 16.796875 39.40625 
Q 19.671875 43.65625 24.015625 45.921875 
Q 28.375 48.1875 33.59375 48.1875 
Q 44.578125 48.1875 50.953125 41.515625 
Q 57.328125 34.859375 57.328125 23.390625 
Q 57.328125 12.15625 50.6875 5.359375 
Q 44.046875 -1.421875 33.015625 -1.421875 
Q 20.359375 -1.421875 13.671875 8.265625 
Q 6.984375 17.96875 6.984375 36.375 
Q 6.984375 53.65625 15.1875 63.9375 
Q 23.390625 74.21875 37.203125 74.21875 
Q 40.921875 74.21875 44.703125 73.484375 
Q 48.484375 72.75 52.59375 71.296875 
z
" id="DejaVuSans-54"/>
        <path d="M 31.78125 66.40625 
Q 24.171875 66.40625 20.328125 58.90625 
Q 16.5 51.421875 16.5 36.375 
Q 16.5 21.390625 20.328125 13.890625 
Q 24.171875 6.390625 31.78125 6.390625 
Q 39.453125 6.390625 43.28125 13.890625 
Q 47.125 21.390625 47.125 36.375 
Q 47.125 51.421875 43.28125 58.90625 
Q 39.453125 66.40625 31.78125 66.40625 
z
M 31.78125 74.21875 
Q 44.046875 74.21875 50.515625 64.515625 
Q 56.984375 54.828125 56.984375 36.375 
Q 56.984375 17.96875 50.515625 8.265625 
Q 44.046875 -1.421875 31.78125 -1.421875 
Q 19.53125 -1.421875 13.0625 8.265625 
Q 6.59375 17.96875 6.59375 36.375 
Q 6.59375 54.828125 13.0625 64.515625 
Q 19.53125 74.21875 31.78125 74.21875 
z
" id="DejaVuSans-48"/>
       </defs>
       <use xlink:href="#DejaVuSans-54"/>
       <use x="63.623047" xlink:href="#DejaVuSans-48"/>
       <use x="127.246094" xlink:href="#DejaVuSans-48"/>
      </g>
     </g>
    </g>
    <g id="ytick_2">
     <g id="line2d_11">
      <g>
       <use style="stroke:#000000;stroke-width:0.8;" x="46.965625" xlink:href="#me5fee0056f" y="229.244925"/>
      </g>
     </g>
     <g id="text_12">
      <!-- 610 -->
      <g transform="translate(20.878125 233.044144)scale(0.1 -0.1)">
       <defs>
        <path d="M 12.40625 8.296875 
L 28.515625 8.296875 
L 28.515625 63.921875 
L 10.984375 60.40625 
L 10.984375 69.390625 
L 28.421875 72.90625 
L 38.28125 72.90625 
L 38.28125 8.296875 
L 54.390625 8.296875 
L 54.390625 0 
L 12.40625 0 
z
" id="DejaVuSans-49"/>
       </defs>
       <use xlink:href="#DejaVuSans-54"/>
       <use x="63.623047" xlink:href="#DejaVuSans-49"/>
       <use x="127.246094" xlink:href="#DejaVuSans-48"/>
      </g>
     </g>
    </g>
    <g id="ytick_3">
     <g id="line2d_12">
      <g>
       <use style="stroke:#000000;stroke-width:0.8;" x="46.965625" xlink:href="#me5fee0056f" y="183.075675"/>
      </g>
     </g>
     <g id="text_13">
      <!-- 620 -->
      <g transform="translate(20.878125 186.874894)scale(0.1 -0.1)">
       <defs>
        <path d="M 19.1875 8.296875 
L 53.609375 8.296875 
L 53.609375 0 
L 7.328125 0 
L 7.328125 8.296875 
Q 12.9375 14.109375 22.625 23.890625 
Q 32.328125 33.6875 34.8125 36.53125 
Q 39.546875 41.84375 41.421875 45.53125 
Q 43.3125 49.21875 43.3125 52.78125 
Q 43.3125 58.59375 39.234375 62.25 
Q 35.15625 65.921875 28.609375 65.921875 
Q 23.96875 65.921875 18.8125 64.3125 
Q 13.671875 62.703125 7.8125 59.421875 
L 7.8125 69.390625 
Q 13.765625 71.78125 18.9375 73 
Q 24.125 74.21875 28.421875 74.21875 
Q 39.75 74.21875 46.484375 68.546875 
Q 53.21875 62.890625 53.21875 53.421875 
Q 53.21875 48.921875 51.53125 44.890625 
Q 49.859375 40.875 45.40625 35.40625 
Q 44.1875 33.984375 37.640625 27.21875 
Q 31.109375 20.453125 19.1875 8.296875 
z
" id="DejaVuSans-50"/>
       </defs>
       <use xlink:href="#DejaVuSans-54"/>
       <use x="63.623047" xlink:href="#DejaVuSans-50"/>
       <use x="127.246094" xlink:href="#DejaVuSans-48"/>
      </g>
     </g>
    </g>
    <g id="ytick_4">
     <g id="line2d_13">
      <g>
       <use style="stroke:#000000;stroke-width:0.8;" x="46.965625" xlink:href="#me5fee0056f" y="136.906425"/>
      </g>
     </g>
     <g id="text_14">
      <!-- 630 -->
      <g transform="translate(20.878125 140.705644)scale(0.1 -0.1)">
       <defs>
        <path d="M 40.578125 39.3125 
Q 47.65625 37.796875 51.625 33 
Q 55.609375 28.21875 55.609375 21.1875 
Q 55.609375 10.40625 48.1875 4.484375 
Q 40.765625 -1.421875 27.09375 -1.421875 
Q 22.515625 -1.421875 17.65625 -0.515625 
Q 12.796875 0.390625 7.625 2.203125 
L 7.625 11.71875 
Q 11.71875 9.328125 16.59375 8.109375 
Q 21.484375 6.890625 26.8125 6.890625 
Q 36.078125 6.890625 40.9375 10.546875 
Q 45.796875 14.203125 45.796875 21.1875 
Q 45.796875 27.640625 41.28125 31.265625 
Q 36.765625 34.90625 28.71875 34.90625 
L 20.21875 34.90625 
L 20.21875 43.015625 
L 29.109375 43.015625 
Q 36.375 43.015625 40.234375 45.921875 
Q 44.09375 48.828125 44.09375 54.296875 
Q 44.09375 59.90625 40.109375 62.90625 
Q 36.140625 65.921875 28.71875 65.921875 
Q 24.65625 65.921875 20.015625 65.03125 
Q 15.375 64.15625 9.8125 62.3125 
L 9.8125 71.09375 
Q 15.4375 72.65625 20.34375 73.4375 
Q 25.25 74.21875 29.59375 74.21875 
Q 40.828125 74.21875 47.359375 69.109375 
Q 53.90625 64.015625 53.90625 55.328125 
Q 53.90625 49.265625 50.4375 45.09375 
Q 46.96875 40.921875 40.578125 39.3125 
z
" id="DejaVuSans-51"/>
       </defs>
       <use xlink:href="#DejaVuSans-54"/>
       <use x="63.623047" xlink:href="#DejaVuSans-51"/>
       <use x="127.246094" xlink:href="#DejaVuSans-48"/>
      </g>
     </g>
    </g>
    <g id="ytick_5">
     <g id="line2d_14">
      <g>
       <use style="stroke:#000000;stroke-width:0.8;" x="46.965625" xlink:href="#me5fee0056f" y="90.737175"/>
      </g>
     </g>
     <g id="text_15">
      <!-- 640 -->
      <g transform="translate(20.878125 94.536393)scale(0.1 -0.1)">
       <defs>
        <path d="M 37.796875 64.3125 
L 12.890625 25.390625 
L 37.796875 25.390625 
z
M 35.203125 72.90625 
L 47.609375 72.90625 
L 47.609375 25.390625 
L 58.015625 25.390625 
L 58.015625 17.1875 
L 47.609375 17.1875 
L 47.609375 0 
L 37.796875 0 
L 37.796875 17.1875 
L 4.890625 17.1875 
L 4.890625 26.703125 
z
" id="DejaVuSans-52"/>
       </defs>
       <use xlink:href="#DejaVuSans-54"/>
       <use x="63.623047" xlink:href="#DejaVuSans-52"/>
       <use x="127.246094" xlink:href="#DejaVuSans-48"/>
      </g>
     </g>
    </g>
    <g id="ytick_6">
     <g id="line2d_15">
      <g>
       <use style="stroke:#000000;stroke-width:0.8;" x="46.965625" xlink:href="#me5fee0056f" y="44.567924"/>
      </g>
     </g>
     <g id="text_16">
      <!-- 650 -->
      <g transform="translate(20.878125 48.367143)scale(0.1 -0.1)">
       <defs>
        <path d="M 10.796875 72.90625 
L 49.515625 72.90625 
L 49.515625 64.59375 
L 19.828125 64.59375 
L 19.828125 46.734375 
Q 21.96875 47.46875 24.109375 47.828125 
Q 26.265625 48.1875 28.421875 48.1875 
Q 40.625 48.1875 47.75 41.5 
Q 54.890625 34.8125 54.890625 23.390625 
Q 54.890625 11.625 47.5625 5.09375 
Q 40.234375 -1.421875 26.90625 -1.421875 
Q 22.3125 -1.421875 17.546875 -0.640625 
Q 12.796875 0.140625 7.71875 1.703125 
L 7.71875 11.625 
Q 12.109375 9.234375 16.796875 8.0625 
Q 21.484375 6.890625 26.703125 6.890625 
Q 35.15625 6.890625 40.078125 11.328125 
Q 45.015625 15.765625 45.015625 23.390625 
Q 45.015625 31 40.078125 35.4375 
Q 35.15625 39.890625 26.703125 39.890625 
Q 22.75 39.890625 18.8125 39.015625 
Q 14.890625 38.140625 10.796875 36.28125 
z
" id="DejaVuSans-53"/>
       </defs>
       <use xlink:href="#DejaVuSans-54"/>
       <use x="63.623047" xlink:href="#DejaVuSans-53"/>
       <use x="127.246094" xlink:href="#DejaVuSans-48"/>
      </g>
     </g>
    </g>
    <g id="text_17">
     <!-- Reached region coverage -->
     <g transform="translate(14.798438 219.136625)rotate(-90)scale(0.1 -0.1)">
      <defs>
       <path d="M 44.390625 34.1875 
Q 47.5625 33.109375 50.5625 29.59375 
Q 53.5625 26.078125 56.59375 19.921875 
L 66.609375 0 
L 56 0 
L 46.6875 18.703125 
Q 43.0625 26.03125 39.671875 28.421875 
Q 36.28125 30.8125 30.421875 30.8125 
L 19.671875 30.8125 
L 19.671875 0 
L 9.8125 0 
L 9.8125 72.90625 
L 32.078125 72.90625 
Q 44.578125 72.90625 50.734375 67.671875 
Q 56.890625 62.453125 56.890625 51.90625 
Q 56.890625 45.015625 53.6875 40.46875 
Q 50.484375 35.9375 44.390625 34.1875 
z
M 19.671875 64.796875 
L 19.671875 38.921875 
L 32.078125 38.921875 
Q 39.203125 38.921875 42.84375 42.21875 
Q 46.484375 45.515625 46.484375 51.90625 
Q 46.484375 58.296875 42.84375 61.546875 
Q 39.203125 64.796875 32.078125 64.796875 
z
" id="DejaVuSans-82"/>
      </defs>
      <use xlink:href="#DejaVuSans-82"/>
      <use x="64.982422" xlink:href="#DejaVuSans-101"/>
      <use x="126.505859" xlink:href="#DejaVuSans-97"/>
      <use x="187.785156" xlink:href="#DejaVuSans-99"/>
      <use x="242.765625" xlink:href="#DejaVuSans-104"/>
      <use x="306.144531" xlink:href="#DejaVuSans-101"/>
      <use x="367.667969" xlink:href="#DejaVuSans-100"/>
      <use x="431.144531" xlink:href="#DejaVuSans-32"/>
      <use x="462.931641" xlink:href="#DejaVuSans-114"/>
      <use x="501.794922" xlink:href="#DejaVuSans-101"/>
      <use x="563.318359" xlink:href="#DejaVuSans-103"/>
      <use x="626.794922" xlink:href="#DejaVuSans-105"/>
      <use x="654.578125" xlink:href="#DejaVuSans-111"/>
      <use x="715.759766" xlink:href="#DejaVuSans-110"/>
      <use x="779.138672" xlink:href="#DejaVuSans-32"/>
      <use x="810.925781" xlink:href="#DejaVuSans-99"/>
      <use x="865.90625" xlink:href="#DejaVuSans-111"/>
      <use x="927.087891" xlink:href="#DejaVuSans-118"/>
      <use x="986.267578" xlink:href="#DejaVuSans-101"/>
      <use x="1047.791016" xlink:href="#DejaVuSans-114"/>
      <use x="1088.904297" xlink:href="#DejaVuSans-97"/>
      <use x="1150.183594" xlink:href="#DejaVuSans-103"/>
      <use x="1213.660156" xlink:href="#DejaVuSans-101"/>
     </g>
    </g>
   </g>
   <g id="line2d_16">
    <path clip-path="url(#p3fe5a110a0)" d="M 66.805625 90.737175 
L 66.805625 90.737175 
" style="fill:none;stroke:#3d3d3d;stroke-linecap:square;stroke-width:1.5;"/>
   </g>
   <g id="line2d_17">
    <path clip-path="url(#p3fe5a110a0)" d="M 66.805625 90.737175 
L 66.805625 90.737175 
" style="fill:none;stroke:#3d3d3d;stroke-linecap:square;stroke-width:4.5;"/>
   </g>
   <g id="line2d_18">
    <path clip-path="url(#p3fe5a110a0)" d="M 90.613625 90.737175 
L 122.357625 90.737175 
" style="fill:none;stroke:#3d3d3d;stroke-linecap:square;stroke-width:1.5;"/>
   </g>
   <g id="line2d_19">
    <path clip-path="url(#p3fe5a110a0)" d="M 146.165625 220.011075 
L 146.165625 90.737175 
" style="fill:none;stroke:#3d3d3d;stroke-linecap:square;stroke-width:1.5;"/>
   </g>
   <g id="line2d_20">
    <path clip-path="url(#p3fe5a110a0)" d="M 146.165625 179.612981 
L 146.165625 90.737175 
" style="fill:none;stroke:#3d3d3d;stroke-linecap:square;stroke-width:4.5;"/>
   </g>
   <g id="line2d_21">
    <path clip-path="url(#p3fe5a110a0)" d="M 169.973625 90.737175 
L 201.717625 90.737175 
" style="fill:none;stroke:#3d3d3d;stroke-linecap:square;stroke-width:1.5;"/>
   </g>
   <g id="line2d_22">
    <path clip-path="url(#p3fe5a110a0)" d="M 209.653625 90.737175 
L 241.397625 90.737175 
" style="fill:none;stroke:#3d3d3d;stroke-linecap:square;stroke-width:1.5;"/>
   </g>
   <g id="line2d_23">
    <path clip-path="url(#p3fe5a110a0)" d="M 249.333625 95.3541 
L 281.077625 95.3541 
" style="fill:none;stroke:#3d3d3d;stroke-linecap:square;stroke-width:1.5;"/>
   </g>
   <g id="line2d_24">
    <path clip-path="url(#p3fe5a110a0)" d="M 289.013625 95.3541 
L 320.757625 95.3541 
" style="fill:none;stroke:#3d3d3d;stroke-linecap:square;stroke-width:1.5;"/>
   </g>
   <g id="line2d_25">
    <path clip-path="url(#p3fe5a110a0)" d="M 328.693625 95.3541 
L 360.437625 95.3541 
" style="fill:none;stroke:#3d3d3d;stroke-linecap:square;stroke-width:1.5;"/>
   </g>
   <g id="line2d_26">
    <path clip-path="url(#p3fe5a110a0)" d="M 384.245625 95.3541 
L 384.245625 95.3541 
" style="fill:none;stroke:#3d3d3d;stroke-linecap:square;stroke-width:1.5;"/>
   </g>
   <g id="line2d_27">
    <path clip-path="url(#p3fe5a110a0)" d="M 384.245625 95.3541 
L 384.245625 95.3541 
" style="fill:none;stroke:#3d3d3d;stroke-linecap:square;stroke-width:4.5;"/>
   </g>
   <g id="patch_3">
    <path d="M 46.965625 275.414176 
L 46.965625 44.567924 
" style="fill:none;stroke:#000000;stroke-linecap:square;stroke-linejoin:miter;stroke-width:0.8;"/>
   </g>
   <g id="patch_4">
    <path d="M 66.805625 288.430125 
L 384.245625 288.430125 
" style="fill:none;stroke:#000000;stroke-linecap:square;stroke-linejoin:miter;stroke-width:0.8;"/>
   </g>
   <g id="PathCollection_1">
    <defs>
     <path d="M 0 1.5 
C 0.397805 1.5 0.77937 1.341951 1.06066 1.06066 
C 1.341951 0.77937 1.5 0.397805 1.5 0 
C 1.5 -0.397805 1.341951 -0.77937 1.06066 -1.06066 
C 0.77937 -1.341951 0.397805 -1.5 0 -1.5 
C -0.397805 -1.5 -0.77937 -1.341951 -1.06066 -1.06066 
C -1.341951 -0.77937 -1.5 -0.397805 -1.5 0 
C -1.5 0.397805 -1.341951 0.77937 -1.06066 1.06066 
C -0.77937 1.341951 -0.397805 1.5 0 1.5 
z
" id="mcd695e2d60" style="stroke:#3d3d3d;"/>
    </defs>
    <g clip-path="url(#p3fe5a110a0)">
     <use style="fill:#ffffff;stroke:#3d3d3d;" x="66.805625" xlink:href="#mcd695e2d60" y="90.737175"/>
    </g>
   </g>
   <g id="PathCollection_2">
    <g clip-path="url(#p3fe5a110a0)">
     <use style="fill:#ffffff;stroke:#3d3d3d;" x="146.165625" xlink:href="#mcd695e2d60" y="90.737175"/>
    </g>
   </g>
   <g id="PathCollection_3">
    <g clip-path="url(#p3fe5a110a0)">
     <use style="fill:#ffffff;stroke:#3d3d3d;" x="384.245625" xlink:href="#mcd695e2d60" y="95.3541"/>
    </g>
   </g>
   <g id="text_18">
    <!-- systemd_fuzz-link-parser (23h, 20 trials/fuzzer) -->
    <g transform="translate(83.906875 16.318125)scale(0.12 -0.12)">
     <defs>
      <path d="M 32.171875 -5.078125 
Q 28.375 -14.84375 24.75 -17.8125 
Q 21.140625 -20.796875 15.09375 -20.796875 
L 7.90625 -20.796875 
L 7.90625 -13.28125 
L 13.1875 -13.28125 
Q 16.890625 -13.28125 18.9375 -11.515625 
Q 21 -9.765625 23.484375 -3.21875 
L 25.09375 0.875 
L 2.984375 54.6875 
L 12.5 54.6875 
L 29.59375 11.921875 
L 46.6875 54.6875 
L 56.203125 54.6875 
z
" id="DejaVuSans-121"/>
      <path d="M 4.890625 31.390625 
L 31.203125 31.390625 
L 31.203125 23.390625 
L 4.890625 23.390625 
z
" id="DejaVuSans-45"/>
      <path d="M 9.078125 75.984375 
L 18.109375 75.984375 
L 18.109375 31.109375 
L 44.921875 54.6875 
L 56.390625 54.6875 
L 27.390625 29.109375 
L 57.625 0 
L 45.90625 0 
L 18.109375 26.703125 
L 18.109375 0 
L 9.078125 0 
z
" id="DejaVuSans-107"/>
      <path d="M 11.71875 12.40625 
L 22.015625 12.40625 
L 22.015625 4 
L 14.015625 -11.625 
L 7.71875 -11.625 
L 11.71875 4 
z
" id="DejaVuSans-44"/>
      <path d="M 25.390625 72.90625 
L 33.6875 72.90625 
L 8.296875 -9.28125 
L 0 -9.28125 
z
" id="DejaVuSans-47"/>
     </defs>
     <use xlink:href="#DejaVuSans-115"/>
     <use x="52.099609" xlink:href="#DejaVuSans-121"/>
     <use x="111.279297" xlink:href="#DejaVuSans-115"/>
     <use x="163.378906" xlink:href="#DejaVuSans-116"/>
     <use x="202.587891" xlink:href="#DejaVuSans-101"/>
     <use x="264.111328" xlink:href="#DejaVuSans-109"/>
     <use x="361.523438" xlink:href="#DejaVuSans-100"/>
     <use x="425" xlink:href="#DejaVuSans-95"/>
     <use x="475" xlink:href="#DejaVuSans-102"/>
     <use x="510.205078" xlink:href="#DejaVuSans-117"/>
     <use x="573.583984" xlink:href="#DejaVuSans-122"/>
     <use x="626.074219" xlink:href="#DejaVuSans-122"/>
     <use x="678.564453" xlink:href="#DejaVuSans-45"/>
     <use x="714.648438" xlink:href="#DejaVuSans-108"/>
     <use x="742.431641" xlink:href="#DejaVuSans-105"/>
     <use x="770.214844" xlink:href="#DejaVuSans-110"/>
     <use x="833.59375" xlink:href="#DejaVuSans-107"/>
     <use x="891.503906" xlink:href="#DejaVuSans-45"/>
     <use x="927.587891" xlink:href="#DejaVuSans-112"/>
     <use x="991.064453" xlink:href="#DejaVuSans-97"/>
     <use x="1052.34375" xlink:href="#DejaVuSans-114"/>
     <use x="1093.457031" xlink:href="#DejaVuSans-115"/>
     <use x="1145.556641" xlink:href="#DejaVuSans-101"/>
     <use x="1207.080078" xlink:href="#DejaVuSans-114"/>
     <use x="1248.193359" xlink:href="#DejaVuSans-32"/>
     <use x="1279.980469" xlink:href="#DejaVuSans-40"/>
     <use x="1318.994141" xlink:href="#DejaVuSans-50"/>
     <use x="1382.617188" xlink:href="#DejaVuSans-51"/>
     <use x="1446.240234" xlink:href="#DejaVuSans-104"/>
     <use x="1509.619141" xlink:href="#DejaVuSans-44"/>
     <use x="1541.40625" xlink:href="#DejaVuSans-32"/>
     <use x="1573.193359" xlink:href="#DejaVuSans-50"/>
     <use x="1636.816406" xlink:href="#DejaVuSans-48"/>
     <use x="1700.439453" xlink:href="#DejaVuSans-32"/>
     <use x="1732.226562" xlink:href="#DejaVuSans-116"/>
     <use x="1771.435547" xlink:href="#DejaVuSans-114"/>
     <use x="1812.548828" xlink:href="#DejaVuSans-105"/>
     <use x="1840.332031" xlink:href="#DejaVuSans-97"/>
     <use x="1901.611328" xlink:href="#DejaVuSans-108"/>
     <use x="1929.394531" xlink:href="#DejaVuSans-115"/>
     <use x="1981.494141" xlink:href="#DejaVuSans-47"/>
     <use x="2015.185547" xlink:href="#DejaVuSans-102"/>
     <use x="2050.390625" xlink:href="#DejaVuSans-117"/>
     <use x="2113.769531" xlink:href="#DejaVuSans-122"/>
     <use x="2166.259766" xlink:href="#DejaVuSans-122"/>
     <use x="2218.75" xlink:href="#DejaVuSans-101"/>
     <use x="2280.273438" xlink:href="#DejaVuSans-114"/>
     <use x="2321.386719" xlink:href="#DejaVuSans-41"/>
    </g>
   </g>
  </g>
 </g>
 <defs>
  <clipPath id="p3fe5a110a0">
   <rect height="266.112" width="357.12" x="46.965625" y="22.318125"/>
  </clipPath>
 </defs>
</svg>
