<?xml version="1.0" encoding="utf-8" standalone="no"?>
<!DOCTYPE svg PUBLIC "-//W3C//DTD SVG 1.1//EN"
  "http://www.w3.org/Graphics/SVG/1.1/DTD/svg11.dtd">
<!-- Created with matplotlib (https://matplotlib.org/) -->
<svg height="368.607178pt" version="1.1" viewBox="0 0 417.648125 368.607178" width="417.648125pt" xmlns="http://www.w3.org/2000/svg" xmlns:xlink="http://www.w3.org/1999/xlink">
 <metadata>
  <rdf:RDF xmlns:cc="http://creativecommons.org/ns#" xmlns:dc="http://purl.org/dc/elements/1.1/" xmlns:rdf="http://www.w3.org/1999/02/22-rdf-syntax-ns#">
   <cc:Work>
    <dc:type rdf:resource="http://purl.org/dc/dcmitype/StillImage"/>
    <dc:date>2020-12-06T10:29:15.144515</dc:date>
    <dc:format>image/svg+xml</dc:format>
    <dc:creator>
     <cc:Agent>
      <dc:title>Matplotlib v3.3.3, https://matplotlib.org/</dc:title>
     </cc:Agent>
    </dc:creator>
   </cc:Work>
  </rdf:RDF>
 </metadata>
 <defs>
  <style type="text/css">*{stroke-linecap:butt;stroke-linejoin:round;}</style>
 </defs>
 <g id="figure_1">
  <g id="patch_1">
   <path d="M 0 368.607178 
L 417.648125 368.607178 
L 417.648125 0 
L 0 0 
z
" style="fill:#ffffff;"/>
  </g>
  <g id="axes_1">
   <g id="patch_2">
    <path d="M 53.328125 288.430125 
L 410.448125 288.430125 
L 410.448125 22.318125 
L 53.328125 22.318125 
z
" style="fill:#ffffff;"/>
   </g>
   <g id="PolyCollection_1">
    <defs>
     <path d="M 73.381469 -279.749238 
L 72.954781 -279.749238 
L 72.903852 -279.851229 
L 72.843382 -279.95322 
L 72.772156 -280.055211 
L 72.688897 -280.157202 
L 72.592261 -280.259193 
L 72.480838 -280.361184 
L 72.353145 -280.463175 
L 72.207618 -280.565166 
L 72.042605 -280.667157 
L 71.85635 -280.769148 
L 71.646997 -280.871139 
L 71.412581 -280.97313 
L 71.151051 -281.075121 
L 70.860292 -281.177112 
L 70.538177 -281.279103 
L 70.182638 -281.381094 
L 69.791759 -281.483085 
L 69.363898 -281.585076 
L 68.897826 -281.687067 
L 68.39288 -281.789058 
L 67.849129 -281.891049 
L 67.267532 -281.99304 
L 66.650085 -282.095031 
L 65.999945 -282.197022 
L 65.32151 -282.299013 
L 64.620459 -282.401004 
L 63.903734 -282.502995 
L 63.179459 -282.604986 
L 62.456806 -282.706977 
L 61.745793 -282.808968 
L 61.057042 -282.910959 
L 60.401486 -283.01295 
L 59.790052 -283.114941 
L 59.233331 -283.216932 
L 58.74124 -283.318923 
L 58.322707 -283.420914 
L 57.985376 -283.522904 
L 57.735358 -283.624895 
L 57.577017 -283.726886 
L 57.512823 -283.828877 
L 57.543254 -283.930868 
L 57.666761 -284.032859 
L 57.87979 -284.13485 
L 58.176867 -284.236841 
L 58.550733 -284.338832 
L 58.992528 -284.440823 
L 59.49203 -284.542814 
L 60.037915 -284.644805 
L 60.618068 -284.746796 
L 61.219897 -284.848787 
L 61.830674 -284.950778 
L 62.437871 -285.052769 
L 63.029491 -285.15476 
L 63.594384 -285.256751 
L 64.122529 -285.358742 
L 64.605294 -285.460733 
L 65.035635 -285.562724 
L 65.408265 -285.664715 
L 65.71976 -285.766706 
L 65.968614 -285.868697 
L 66.155241 -285.970688 
L 66.281921 -286.072679 
L 66.352694 -286.17467 
L 66.37321 -286.276661 
L 66.350528 -286.378652 
L 66.292882 -286.480643 
L 66.209407 -286.582634 
L 66.109842 -286.684625 
L 66.004207 -286.786616 
L 65.902484 -286.888607 
L 65.814275 -286.990598 
L 65.748496 -287.092589 
L 65.713072 -287.19458 
L 65.714683 -287.296571 
L 65.75855 -287.398562 
L 65.848276 -287.500553 
L 65.985756 -287.602543 
L 66.171156 -287.704534 
L 66.402961 -287.806525 
L 66.678095 -287.908516 
L 66.992102 -288.010507 
L 67.339379 -288.112498 
L 67.713448 -288.214489 
L 68.107256 -288.31648 
L 68.513475 -288.418471 
L 68.924805 -288.520462 
L 69.334246 -288.622453 
L 69.735335 -288.724444 
L 70.122344 -288.826435 
L 70.490419 -288.928426 
L 70.835673 -289.030417 
L 71.155217 -289.132408 
L 71.447151 -289.234399 
L 71.710507 -289.33639 
L 71.945162 -289.438381 
L 72.151721 -289.540372 
L 72.331394 -289.642363 
L 72.485853 -289.744354 
L 72.617105 -289.846345 
L 73.719145 -289.846345 
L 73.719145 -289.846345 
L 73.850397 -289.744354 
L 74.004856 -289.642363 
L 74.184529 -289.540372 
L 74.391088 -289.438381 
L 74.625743 -289.33639 
L 74.889099 -289.234399 
L 75.181033 -289.132408 
L 75.500577 -289.030417 
L 75.845831 -288.928426 
L 76.213906 -288.826435 
L 76.600915 -288.724444 
L 77.002004 -288.622453 
L 77.411445 -288.520462 
L 77.822775 -288.418471 
L 78.228994 -288.31648 
L 78.622802 -288.214489 
L 78.996871 -288.112498 
L 79.344148 -288.010507 
L 79.658155 -287.908516 
L 79.933289 -287.806525 
L 80.165094 -287.704534 
L 80.350494 -287.602543 
L 80.487974 -287.500553 
L 80.5777 -287.398562 
L 80.621567 -287.296571 
L 80.623178 -287.19458 
L 80.587754 -287.092589 
L 80.521975 -286.990598 
L 80.433766 -286.888607 
L 80.332043 -286.786616 
L 80.226408 -286.684625 
L 80.126843 -286.582634 
L 80.043368 -286.480643 
L 79.985722 -286.378652 
L 79.96304 -286.276661 
L 79.983556 -286.17467 
L 80.054329 -286.072679 
L 80.181009 -285.970688 
L 80.367636 -285.868697 
L 80.61649 -285.766706 
L 80.927985 -285.664715 
L 81.300615 -285.562724 
L 81.730956 -285.460733 
L 82.213721 -285.358742 
L 82.741866 -285.256751 
L 83.306759 -285.15476 
L 83.898379 -285.052769 
L 84.505576 -284.950778 
L 85.116353 -284.848787 
L 85.718182 -284.746796 
L 86.298335 -284.644805 
L 86.84422 -284.542814 
L 87.343722 -284.440823 
L 87.785517 -284.338832 
L 88.159383 -284.236841 
L 88.45646 -284.13485 
L 88.669489 -284.032859 
L 88.792996 -283.930868 
L 88.823427 -283.828877 
L 88.759233 -283.726886 
L 88.600892 -283.624895 
L 88.350874 -283.522904 
L 88.013543 -283.420914 
L 87.59501 -283.318923 
L 87.102919 -283.216932 
L 86.546198 -283.114941 
L 85.934764 -283.01295 
L 85.279208 -282.910959 
L 84.590457 -282.808968 
L 83.879444 -282.706977 
L 83.156791 -282.604986 
L 82.432516 -282.502995 
L 81.715791 -282.401004 
L 81.01474 -282.299013 
L 80.336305 -282.197022 
L 79.686165 -282.095031 
L 79.068718 -281.99304 
L 78.487121 -281.891049 
L 77.94337 -281.789058 
L 77.438424 -281.687067 
L 76.972352 -281.585076 
L 76.544491 -281.483085 
L 76.153612 -281.381094 
L 75.798073 -281.279103 
L 75.475958 -281.177112 
L 75.185199 -281.075121 
L 74.923669 -280.97313 
L 74.689253 -280.871139 
L 74.4799 -280.769148 
L 74.293645 -280.667157 
L 74.128632 -280.565166 
L 73.983105 -280.463175 
L 73.855412 -280.361184 
L 73.743989 -280.259193 
L 73.647353 -280.157202 
L 73.564094 -280.055211 
L 73.492868 -279.95322 
L 73.432398 -279.851229 
L 73.381469 -279.749238 
z
" id="m95553c10ba" style="stroke:#3d3d3d;stroke-width:1.5;"/>
    </defs>
    <g clip-path="url(#peea831b655)">
     <use style="fill:#c4b5d0;stroke:#3d3d3d;stroke-width:1.5;" x="0" xlink:href="#m95553c10ba" y="368.607178"/>
    </g>
   </g>
   <g id="PolyCollection_2">
    <defs>
     <path d="M 112.883783 -237.188978 
L 112.812467 -237.188978 
L 112.804093 -237.809049 
L 112.79428 -238.42912 
L 112.782913 -239.049191 
L 112.769899 -239.669262 
L 112.755176 -240.289333 
L 112.738716 -240.909404 
L 112.720537 -241.529475 
L 112.7007 -242.149546 
L 112.679324 -242.769617 
L 112.656574 -243.389688 
L 112.632671 -244.009759 
L 112.607882 -244.62983 
L 112.582512 -245.249901 
L 112.556899 -245.869972 
L 112.531399 -246.490042 
L 112.506369 -247.110113 
L 112.482158 -247.730184 
L 112.459087 -248.350255 
L 112.437435 -248.970326 
L 112.417426 -249.590397 
L 112.399216 -250.210468 
L 112.382889 -250.830539 
L 112.368451 -251.45061 
L 112.35583 -252.070681 
L 112.344885 -252.690752 
L 112.335412 -253.310823 
L 112.32716 -253.930894 
L 112.319846 -254.550965 
L 112.313176 -255.171036 
L 112.306859 -255.791107 
L 112.300629 -256.411177 
L 112.294253 -257.031248 
L 112.287548 -257.651319 
L 112.280381 -258.27139 
L 112.272669 -258.891461 
L 112.264368 -259.511532 
L 112.255463 -260.131603 
L 112.245944 -260.751674 
L 112.235785 -261.371745 
L 112.224916 -261.991816 
L 112.213201 -262.611887 
L 112.200412 -263.231958 
L 112.186212 -263.852029 
L 112.170143 -264.4721 
L 112.151626 -265.092171 
L 112.129966 -265.712242 
L 112.104368 -266.332312 
L 112.073962 -266.952383 
L 112.037837 -267.572454 
L 111.995083 -268.192525 
L 111.944829 -268.812596 
L 111.88629 -269.432667 
L 111.818815 -270.052738 
L 111.741925 -270.672809 
L 111.655348 -271.29288 
L 111.559056 -271.912951 
L 111.453283 -272.533022 
L 111.338546 -273.153093 
L 111.215654 -273.773164 
L 111.08571 -274.393235 
L 110.950108 -275.013306 
L 110.81052 -275.633376 
L 110.668879 -276.253447 
L 110.527352 -276.873518 
L 110.388307 -277.493589 
L 110.25427 -278.11366 
L 110.127871 -278.733731 
L 110.011784 -279.353802 
L 109.908657 -279.973873 
L 109.821029 -280.593944 
L 109.751251 -281.214015 
L 109.701395 -281.834086 
L 109.67317 -282.454157 
L 109.667845 -283.074228 
L 109.686182 -283.694299 
L 109.728383 -284.31437 
L 109.794063 -284.934441 
L 109.882241 -285.554511 
L 109.991367 -286.174582 
L 110.119363 -286.794653 
L 110.263696 -287.414724 
L 110.421469 -288.034795 
L 110.589532 -288.654866 
L 110.764596 -289.274937 
L 110.943358 -289.895008 
L 111.122612 -290.515079 
L 111.299364 -291.13515 
L 111.470915 -291.755221 
L 111.634936 -292.375292 
L 111.789518 -292.995363 
L 111.933196 -293.615434 
L 112.064952 -294.235505 
L 112.1842 -294.855576 
L 112.290752 -295.475646 
L 112.384767 -296.095717 
L 112.466699 -296.715788 
L 112.537234 -297.335859 
L 112.597229 -297.95593 
L 112.647656 -298.576001 
L 113.048594 -298.576001 
L 113.048594 -298.576001 
L 113.099021 -297.95593 
L 113.159016 -297.335859 
L 113.229551 -296.715788 
L 113.311483 -296.095717 
L 113.405498 -295.475646 
L 113.51205 -294.855576 
L 113.631298 -294.235505 
L 113.763054 -293.615434 
L 113.906732 -292.995363 
L 114.061314 -292.375292 
L 114.225335 -291.755221 
L 114.396886 -291.13515 
L 114.573638 -290.515079 
L 114.752892 -289.895008 
L 114.931654 -289.274937 
L 115.106718 -288.654866 
L 115.274781 -288.034795 
L 115.432554 -287.414724 
L 115.576887 -286.794653 
L 115.704883 -286.174582 
L 115.814009 -285.554511 
L 115.902187 -284.934441 
L 115.967867 -284.31437 
L 116.010068 -283.694299 
L 116.028405 -283.074228 
L 116.02308 -282.454157 
L 115.994855 -281.834086 
L 115.944999 -281.214015 
L 115.875221 -280.593944 
L 115.787593 -279.973873 
L 115.684466 -279.353802 
L 115.568379 -278.733731 
L 115.44198 -278.11366 
L 115.307943 -277.493589 
L 115.168898 -276.873518 
L 115.027371 -276.253447 
L 114.88573 -275.633376 
L 114.746142 -275.013306 
L 114.61054 -274.393235 
L 114.480596 -273.773164 
L 114.357704 -273.153093 
L 114.242967 -272.533022 
L 114.137194 -271.912951 
L 114.040902 -271.29288 
L 113.954325 -270.672809 
L 113.877435 -270.052738 
L 113.80996 -269.432667 
L 113.751421 -268.812596 
L 113.701167 -268.192525 
L 113.658413 -267.572454 
L 113.622288 -266.952383 
L 113.591882 -266.332312 
L 113.566284 -265.712242 
L 113.544624 -265.092171 
L 113.526107 -264.4721 
L 113.510038 -263.852029 
L 113.495838 -263.231958 
L 113.483049 -262.611887 
L 113.471334 -261.991816 
L 113.460465 -261.371745 
L 113.450306 -260.751674 
L 113.440787 -260.131603 
L 113.431882 -259.511532 
L 113.423581 -258.891461 
L 113.415869 -258.27139 
L 113.408702 -257.651319 
L 113.401997 -257.031248 
L 113.395621 -256.411177 
L 113.389391 -255.791107 
L 113.383074 -255.171036 
L 113.376404 -254.550965 
L 113.36909 -253.930894 
L 113.360838 -253.310823 
L 113.351365 -252.690752 
L 113.34042 -252.070681 
L 113.327799 -251.45061 
L 113.313361 -250.830539 
L 113.297034 -250.210468 
L 113.278824 -249.590397 
L 113.258815 -248.970326 
L 113.237163 -248.350255 
L 113.214092 -247.730184 
L 113.189881 -247.110113 
L 113.164851 -246.490042 
L 113.139351 -245.869972 
L 113.113738 -245.249901 
L 113.088368 -244.62983 
L 113.063579 -244.009759 
L 113.039676 -243.389688 
L 113.016926 -242.769617 
L 112.99555 -242.149546 
L 112.975713 -241.529475 
L 112.957534 -240.909404 
L 112.941074 -240.289333 
L 112.926351 -239.669262 
L 112.913337 -239.049191 
L 112.90197 -238.42912 
L 112.892157 -237.809049 
L 112.883783 -237.188978 
z
" id="m210b3a2238" style="stroke:#3d3d3d;stroke-width:1.5;"/>
    </defs>
    <g clip-path="url(#peea831b655)">
     <use style="fill:#9fd495;stroke:#3d3d3d;stroke-width:1.5;" x="0" xlink:href="#m210b3a2238" y="368.607178"/>
    </g>
   </g>
   <g id="PolyCollection_3">
    <defs>
     <path d="M 152.57823 -245.9375 
L 152.47802 -245.9375 
L 152.463971 -246.424644 
L 152.447311 -246.911788 
L 152.42797 -247.398932 
L 152.406005 -247.886075 
L 152.381631 -248.373219 
L 152.355233 -248.860363 
L 152.327376 -249.347507 
L 152.298799 -249.834651 
L 152.270387 -250.321794 
L 152.243139 -250.808938 
L 152.218103 -251.296082 
L 152.196319 -251.783226 
L 152.178745 -252.27037 
L 152.166187 -252.757513 
L 152.159238 -253.244657 
L 152.158233 -253.731801 
L 152.16322 -254.218945 
L 152.173958 -254.706089 
L 152.189935 -255.193232 
L 152.210408 -255.680376 
L 152.234462 -256.16752 
L 152.261075 -256.654664 
L 152.289187 -257.141808 
L 152.317771 -257.628951 
L 152.34589 -258.116095 
L 152.372735 -258.603239 
L 152.397662 -259.090383 
L 152.42019 -259.577527 
L 152.440006 -260.06467 
L 152.456936 -260.551814 
L 152.470921 -261.038958 
L 152.481981 -261.526102 
L 152.490171 -262.013246 
L 152.495552 -262.500389 
L 152.498149 -262.987533 
L 152.497926 -263.474677 
L 152.494764 -263.961821 
L 152.488443 -264.448965 
L 152.478635 -264.936108 
L 152.464902 -265.423252 
L 152.446699 -265.910396 
L 152.423384 -266.39754 
L 152.394226 -266.884684 
L 152.358427 -267.371827 
L 152.31513 -267.858971 
L 152.263442 -268.346115 
L 152.202443 -268.833259 
L 152.131205 -269.320403 
L 152.048802 -269.807546 
L 151.954321 -270.29469 
L 151.846875 -270.781834 
L 151.725616 -271.268978 
L 151.589748 -271.756122 
L 151.438549 -272.243265 
L 151.271396 -272.730409 
L 151.087802 -273.217553 
L 150.887458 -273.704697 
L 150.670298 -274.191841 
L 150.436564 -274.678984 
L 150.1869 -275.166128 
L 149.922447 -275.653272 
L 149.644958 -276.140416 
L 149.356908 -276.62756 
L 149.061596 -277.114703 
L 148.763224 -277.601847 
L 148.466931 -278.088991 
L 148.178768 -278.576135 
L 147.905592 -279.063279 
L 147.654874 -279.550422 
L 147.434411 -280.037566 
L 147.251959 -280.52471 
L 147.114795 -281.011854 
L 147.029254 -281.498998 
L 147.000268 -281.986141 
L 147.030967 -282.473285 
L 147.122368 -282.960429 
L 147.273202 -283.447573 
L 147.4799 -283.934717 
L 147.736742 -284.42186 
L 148.036159 -284.909004 
L 148.369172 -285.396148 
L 148.725909 -285.883292 
L 149.096174 -286.370435 
L 149.469999 -286.857579 
L 149.838145 -287.344723 
L 150.192511 -287.831867 
L 150.526429 -288.319011 
L 150.834822 -288.806154 
L 151.114254 -289.293298 
L 151.362852 -289.780442 
L 151.580155 -290.267586 
L 151.766889 -290.75473 
L 151.924718 -291.241873 
L 152.055978 -291.729017 
L 152.163434 -292.216161 
L 152.250052 -292.703305 
L 152.31882 -293.190449 
L 152.372606 -293.677592 
L 152.414057 -294.164736 
L 152.642193 -294.164736 
L 152.642193 -294.164736 
L 152.683644 -293.677592 
L 152.73743 -293.190449 
L 152.806198 -292.703305 
L 152.892816 -292.216161 
L 153.000272 -291.729017 
L 153.131532 -291.241873 
L 153.289361 -290.75473 
L 153.476095 -290.267586 
L 153.693398 -289.780442 
L 153.941996 -289.293298 
L 154.221428 -288.806154 
L 154.529821 -288.319011 
L 154.863739 -287.831867 
L 155.218105 -287.344723 
L 155.586251 -286.857579 
L 155.960076 -286.370435 
L 156.330341 -285.883292 
L 156.687078 -285.396148 
L 157.020091 -284.909004 
L 157.319508 -284.42186 
L 157.57635 -283.934717 
L 157.783048 -283.447573 
L 157.933882 -282.960429 
L 158.025283 -282.473285 
L 158.055982 -281.986141 
L 158.026996 -281.498998 
L 157.941455 -281.011854 
L 157.804291 -280.52471 
L 157.621839 -280.037566 
L 157.401376 -279.550422 
L 157.150658 -279.063279 
L 156.877482 -278.576135 
L 156.589319 -278.088991 
L 156.293026 -277.601847 
L 155.994654 -277.114703 
L 155.699342 -276.62756 
L 155.411292 -276.140416 
L 155.133803 -275.653272 
L 154.86935 -275.166128 
L 154.619686 -274.678984 
L 154.385952 -274.191841 
L 154.168792 -273.704697 
L 153.968448 -273.217553 
L 153.784854 -272.730409 
L 153.617701 -272.243265 
L 153.466502 -271.756122 
L 153.330634 -271.268978 
L 153.209375 -270.781834 
L 153.101929 -270.29469 
L 153.007448 -269.807546 
L 152.925045 -269.320403 
L 152.853807 -268.833259 
L 152.792808 -268.346115 
L 152.74112 -267.858971 
L 152.697823 -267.371827 
L 152.662024 -266.884684 
L 152.632866 -266.39754 
L 152.609551 -265.910396 
L 152.591348 -265.423252 
L 152.577615 -264.936108 
L 152.567807 -264.448965 
L 152.561486 -263.961821 
L 152.558324 -263.474677 
L 152.558101 -262.987533 
L 152.560698 -262.500389 
L 152.566079 -262.013246 
L 152.574269 -261.526102 
L 152.585329 -261.038958 
L 152.599314 -260.551814 
L 152.616244 -260.06467 
L 152.63606 -259.577527 
L 152.658588 -259.090383 
L 152.683515 -258.603239 
L 152.71036 -258.116095 
L 152.738479 -257.628951 
L 152.767063 -257.141808 
L 152.795175 -256.654664 
L 152.821788 -256.16752 
L 152.845842 -255.680376 
L 152.866315 -255.193232 
L 152.882292 -254.706089 
L 152.89303 -254.218945 
L 152.898017 -253.731801 
L 152.897012 -253.244657 
L 152.890063 -252.757513 
L 152.877505 -252.27037 
L 152.859931 -251.783226 
L 152.838147 -251.296082 
L 152.813111 -250.808938 
L 152.785863 -250.321794 
L 152.757451 -249.834651 
L 152.728874 -249.347507 
L 152.701017 -248.860363 
L 152.674619 -248.373219 
L 152.650245 -247.886075 
L 152.62828 -247.398932 
L 152.608939 -246.911788 
L 152.592279 -246.424644 
L 152.57823 -245.9375 
z
" id="mc937422a38" style="stroke:#3d3d3d;stroke-width:1.5;"/>
    </defs>
    <g clip-path="url(#peea831b655)">
     <use style="fill:#d1d197;stroke:#3d3d3d;stroke-width:1.5;" x="0" xlink:href="#mc937422a38" y="368.607178"/>
    </g>
   </g>
   <g id="PolyCollection_4">
    <defs>
     <path d="M 192.58427 -278.293674 
L 191.83198 -278.293674 
L 191.730567 -278.403165 
L 191.606719 -278.512656 
L 191.456841 -278.622147 
L 191.277105 -278.731638 
L 191.063529 -278.841129 
L 190.812069 -278.95062 
L 190.518748 -279.060111 
L 190.179802 -279.169602 
L 189.791853 -279.279093 
L 189.352106 -279.388584 
L 188.858553 -279.498075 
L 188.310192 -279.607566 
L 187.707242 -279.717057 
L 187.051336 -279.826548 
L 186.345701 -279.936039 
L 185.595285 -280.04553 
L 184.806834 -280.155021 
L 183.988899 -280.264512 
L 183.151767 -280.374003 
L 182.3073 -280.483494 
L 181.468692 -280.592985 
L 180.650129 -280.702476 
L 179.866381 -280.811967 
L 179.132317 -280.921458 
L 178.462384 -281.030949 
L 177.87006 -281.140439 
L 177.367324 -281.24993 
L 176.96415 -281.359421 
L 176.668086 -281.468912 
L 176.48392 -281.578403 
L 176.413461 -281.687894 
L 176.455463 -281.797385 
L 176.605686 -281.906876 
L 176.857091 -282.016367 
L 177.200168 -282.125858 
L 177.623371 -282.235349 
L 178.113637 -282.34484 
L 178.656946 -282.454331 
L 179.238904 -282.563822 
L 179.845303 -282.673313 
L 180.462631 -282.782804 
L 181.078503 -282.892295 
L 181.681995 -283.001786 
L 182.26387 -283.111277 
L 182.816691 -283.220768 
L 183.334826 -283.330259 
L 183.814361 -283.43975 
L 184.252936 -283.549241 
L 184.649526 -283.658732 
L 185.0042 -283.768223 
L 185.317863 -283.877714 
L 185.592027 -283.987205 
L 185.828602 -284.096696 
L 186.029743 -284.206187 
L 186.19774 -284.315678 
L 186.334965 -284.425169 
L 186.443863 -284.53466 
L 186.526976 -284.644151 
L 186.586994 -284.753642 
L 186.626817 -284.863133 
L 186.649607 -284.972624 
L 186.658825 -285.082115 
L 186.658242 -285.191606 
L 186.651907 -285.301097 
L 186.644089 -285.410588 
L 186.639176 -285.520079 
L 186.641547 -285.62957 
L 186.655426 -285.739061 
L 186.68472 -285.848551 
L 186.732863 -285.958042 
L 186.802676 -286.067533 
L 186.896247 -286.177024 
L 187.014844 -286.286515 
L 187.158873 -286.396006 
L 187.327866 -286.505497 
L 187.520521 -286.614988 
L 187.734774 -286.724479 
L 187.967902 -286.83397 
L 188.216657 -286.943461 
L 188.477405 -287.052952 
L 188.746286 -287.162443 
L 189.019361 -287.271934 
L 189.292759 -287.381425 
L 189.562807 -287.490916 
L 189.826133 -287.600407 
L 190.07976 -287.709898 
L 190.321162 -287.819389 
L 190.548304 -287.92888 
L 190.759655 -288.038371 
L 190.95418 -288.147862 
L 191.131319 -288.257353 
L 191.290942 -288.366844 
L 191.433301 -288.476335 
L 191.558971 -288.585826 
L 191.668792 -288.695317 
L 191.763801 -288.804808 
L 191.845179 -288.914299 
L 191.91419 -289.02379 
L 191.972134 -289.133281 
L 192.444116 -289.133281 
L 192.444116 -289.133281 
L 192.50206 -289.02379 
L 192.571071 -288.914299 
L 192.652449 -288.804808 
L 192.747458 -288.695317 
L 192.857279 -288.585826 
L 192.982949 -288.476335 
L 193.125308 -288.366844 
L 193.284931 -288.257353 
L 193.46207 -288.147862 
L 193.656595 -288.038371 
L 193.867946 -287.92888 
L 194.095088 -287.819389 
L 194.33649 -287.709898 
L 194.590117 -287.600407 
L 194.853443 -287.490916 
L 195.123491 -287.381425 
L 195.396889 -287.271934 
L 195.669964 -287.162443 
L 195.938845 -287.052952 
L 196.199593 -286.943461 
L 196.448348 -286.83397 
L 196.681476 -286.724479 
L 196.895729 -286.614988 
L 197.088384 -286.505497 
L 197.257377 -286.396006 
L 197.401406 -286.286515 
L 197.520003 -286.177024 
L 197.613574 -286.067533 
L 197.683387 -285.958042 
L 197.73153 -285.848551 
L 197.760824 -285.739061 
L 197.774703 -285.62957 
L 197.777074 -285.520079 
L 197.772161 -285.410588 
L 197.764343 -285.301097 
L 197.758008 -285.191606 
L 197.757425 -285.082115 
L 197.766643 -284.972624 
L 197.789433 -284.863133 
L 197.829256 -284.753642 
L 197.889274 -284.644151 
L 197.972387 -284.53466 
L 198.081285 -284.425169 
L 198.21851 -284.315678 
L 198.386507 -284.206187 
L 198.587648 -284.096696 
L 198.824223 -283.987205 
L 199.098387 -283.877714 
L 199.41205 -283.768223 
L 199.766724 -283.658732 
L 200.163314 -283.549241 
L 200.601889 -283.43975 
L 201.081424 -283.330259 
L 201.599559 -283.220768 
L 202.15238 -283.111277 
L 202.734255 -283.001786 
L 203.337747 -282.892295 
L 203.953619 -282.782804 
L 204.570947 -282.673313 
L 205.177346 -282.563822 
L 205.759304 -282.454331 
L 206.302613 -282.34484 
L 206.792879 -282.235349 
L 207.216082 -282.125858 
L 207.559159 -282.016367 
L 207.810564 -281.906876 
L 207.960787 -281.797385 
L 208.002789 -281.687894 
L 207.93233 -281.578403 
L 207.748164 -281.468912 
L 207.4521 -281.359421 
L 207.048926 -281.24993 
L 206.54619 -281.140439 
L 205.953866 -281.030949 
L 205.283933 -280.921458 
L 204.549869 -280.811967 
L 203.766121 -280.702476 
L 202.947558 -280.592985 
L 202.10895 -280.483494 
L 201.264483 -280.374003 
L 200.427351 -280.264512 
L 199.609416 -280.155021 
L 198.820965 -280.04553 
L 198.070549 -279.936039 
L 197.364914 -279.826548 
L 196.709008 -279.717057 
L 196.106058 -279.607566 
L 195.557697 -279.498075 
L 195.064144 -279.388584 
L 194.624397 -279.279093 
L 194.236448 -279.169602 
L 193.897502 -279.060111 
L 193.604181 -278.95062 
L 193.352721 -278.841129 
L 193.139145 -278.731638 
L 192.959409 -278.622147 
L 192.809531 -278.512656 
L 192.685683 -278.403165 
L 192.58427 -278.293674 
z
" id="m43b3c891e1" style="stroke:#3d3d3d;stroke-width:1.5;"/>
    </defs>
    <g clip-path="url(#peea831b655)">
     <use style="fill:#c03d3e;stroke:#3d3d3d;stroke-width:1.5;" x="0" xlink:href="#m43b3c891e1" y="368.607178"/>
    </g>
   </g>
   <g id="PolyCollection_5">
    <defs>
     <path d="M 232.162556 -275.143797 
L 231.613694 -275.143797 
L 231.529895 -275.312541 
L 231.426977 -275.481285 
L 231.302604 -275.650028 
L 231.1547 -275.818772 
L 230.981589 -275.987516 
L 230.782133 -276.15626 
L 230.555827 -276.325004 
L 230.302862 -276.493747 
L 230.024112 -276.662491 
L 229.721061 -276.831235 
L 229.395649 -276.999979 
L 229.050063 -277.168723 
L 228.686471 -277.337466 
L 228.306756 -277.50621 
L 227.912254 -277.674954 
L 227.503563 -277.843698 
L 227.080446 -278.012442 
L 226.641857 -278.181185 
L 226.186106 -278.349929 
L 225.711164 -278.518673 
L 225.215083 -278.687417 
L 224.69649 -278.85616 
L 224.155107 -279.024904 
L 223.592239 -279.193648 
L 223.011161 -279.362392 
L 222.417373 -279.531136 
L 221.818664 -279.699879 
L 221.224997 -279.868623 
L 220.648203 -280.037367 
L 220.101523 -280.206111 
L 219.599024 -280.374855 
L 219.154959 -280.543598 
L 218.783099 -280.712342 
L 218.496095 -280.881086 
L 218.304903 -281.04983 
L 218.218288 -281.218573 
L 218.242431 -281.387317 
L 218.38064 -281.556061 
L 218.633169 -281.724805 
L 218.997139 -281.893549 
L 219.466571 -282.062292 
L 220.032539 -282.231036 
L 220.683429 -282.39978 
L 221.405326 -282.568524 
L 222.182506 -282.737268 
L 222.998033 -282.906011 
L 223.834422 -283.074755 
L 224.674341 -283.243499 
L 225.501303 -283.412243 
L 226.300307 -283.580986 
L 227.058373 -283.74973 
L 227.764949 -283.918474 
L 228.412153 -284.087218 
L 228.994839 -284.255962 
L 229.510506 -284.424705 
L 229.959061 -284.593449 
L 230.342464 -284.762193 
L 230.664302 -284.930937 
L 230.929329 -285.099681 
L 231.143009 -285.268424 
L 231.311098 -285.437168 
L 231.439284 -285.605912 
L 231.532912 -285.774656 
L 231.596791 -285.9434 
L 231.63509 -286.112143 
L 231.65131 -286.280887 
L 231.64833 -286.449631 
L 231.628506 -286.618375 
L 231.593803 -286.787118 
L 231.545958 -286.955862 
L 231.486636 -287.124606 
L 231.417582 -287.29335 
L 231.34074 -287.462094 
L 231.258339 -287.630837 
L 231.17292 -287.799581 
L 231.087321 -287.968325 
L 231.004598 -288.137069 
L 230.927911 -288.305813 
L 230.860359 -288.474556 
L 230.804806 -288.6433 
L 230.763696 -288.812044 
L 230.73889 -288.980788 
L 230.731533 -289.149531 
L 230.741974 -289.318275 
L 230.769737 -289.487019 
L 230.813565 -289.655763 
L 230.871512 -289.824507 
L 230.941086 -289.99325 
L 231.019432 -290.161994 
L 231.103519 -290.330738 
L 231.190338 -290.499482 
L 231.277069 -290.668226 
L 231.361229 -290.836969 
L 231.440767 -291.005713 
L 231.514124 -291.174457 
L 231.580249 -291.343201 
L 231.63857 -291.511945 
L 231.688947 -291.680688 
L 231.731593 -291.849432 
L 232.044657 -291.849432 
L 232.044657 -291.849432 
L 232.087303 -291.680688 
L 232.13768 -291.511945 
L 232.196001 -291.343201 
L 232.262126 -291.174457 
L 232.335483 -291.005713 
L 232.415021 -290.836969 
L 232.499181 -290.668226 
L 232.585912 -290.499482 
L 232.672731 -290.330738 
L 232.756818 -290.161994 
L 232.835164 -289.99325 
L 232.904738 -289.824507 
L 232.962685 -289.655763 
L 233.006513 -289.487019 
L 233.034276 -289.318275 
L 233.044717 -289.149531 
L 233.03736 -288.980788 
L 233.012554 -288.812044 
L 232.971444 -288.6433 
L 232.915891 -288.474556 
L 232.848339 -288.305813 
L 232.771652 -288.137069 
L 232.688929 -287.968325 
L 232.60333 -287.799581 
L 232.517911 -287.630837 
L 232.43551 -287.462094 
L 232.358668 -287.29335 
L 232.289614 -287.124606 
L 232.230292 -286.955862 
L 232.182447 -286.787118 
L 232.147744 -286.618375 
L 232.12792 -286.449631 
L 232.12494 -286.280887 
L 232.14116 -286.112143 
L 232.179459 -285.9434 
L 232.243338 -285.774656 
L 232.336966 -285.605912 
L 232.465152 -285.437168 
L 232.633241 -285.268424 
L 232.846921 -285.099681 
L 233.111948 -284.930937 
L 233.433786 -284.762193 
L 233.817189 -284.593449 
L 234.265744 -284.424705 
L 234.781411 -284.255962 
L 235.364097 -284.087218 
L 236.011301 -283.918474 
L 236.717877 -283.74973 
L 237.475943 -283.580986 
L 238.274947 -283.412243 
L 239.101909 -283.243499 
L 239.941828 -283.074755 
L 240.778217 -282.906011 
L 241.593744 -282.737268 
L 242.370924 -282.568524 
L 243.092821 -282.39978 
L 243.743711 -282.231036 
L 244.309679 -282.062292 
L 244.779111 -281.893549 
L 245.143081 -281.724805 
L 245.39561 -281.556061 
L 245.533819 -281.387317 
L 245.557962 -281.218573 
L 245.471347 -281.04983 
L 245.280155 -280.881086 
L 244.993151 -280.712342 
L 244.621291 -280.543598 
L 244.177226 -280.374855 
L 243.674727 -280.206111 
L 243.128047 -280.037367 
L 242.551253 -279.868623 
L 241.957586 -279.699879 
L 241.358877 -279.531136 
L 240.765089 -279.362392 
L 240.184011 -279.193648 
L 239.621143 -279.024904 
L 239.07976 -278.85616 
L 238.561167 -278.687417 
L 238.065086 -278.518673 
L 237.590144 -278.349929 
L 237.134393 -278.181185 
L 236.695804 -278.012442 
L 236.272687 -277.843698 
L 235.863996 -277.674954 
L 235.469494 -277.50621 
L 235.089779 -277.337466 
L 234.726187 -277.168723 
L 234.380601 -276.999979 
L 234.055189 -276.831235 
L 233.752138 -276.662491 
L 233.473388 -276.493747 
L 233.220423 -276.325004 
L 232.994117 -276.15626 
L 232.794661 -275.987516 
L 232.62155 -275.818772 
L 232.473646 -275.650028 
L 232.349273 -275.481285 
L 232.246355 -275.312541 
L 232.162556 -275.143797 
z
" id="mcbbf19341f" style="stroke:#3d3d3d;stroke-width:1.5;"/>
    </defs>
    <g clip-path="url(#peea831b655)">
     <use style="fill:#e1812c;stroke:#3d3d3d;stroke-width:1.5;" x="0" xlink:href="#mcbbf19341f" y="368.607178"/>
    </g>
   </g>
   <g id="PolyCollection_6">
    <defs>
     <path d="M 271.816568 -275.321125 
L 271.319682 -275.321125 
L 271.259434 -275.411808 
L 271.188654 -275.502492 
L 271.106509 -275.593175 
L 271.012298 -275.683858 
L 270.905479 -275.774541 
L 270.785679 -275.865225 
L 270.652687 -275.955908 
L 270.506422 -276.046591 
L 270.346883 -276.137274 
L 270.174074 -276.227958 
L 269.987909 -276.318641 
L 269.78811 -276.409324 
L 269.574101 -276.500007 
L 269.344908 -276.590691 
L 269.099082 -276.681374 
L 268.834664 -276.772057 
L 268.549187 -276.86274 
L 268.239736 -276.953424 
L 267.90307 -277.044107 
L 267.535804 -277.13479 
L 267.134633 -277.225473 
L 266.696614 -277.316157 
L 266.219454 -277.40684 
L 265.701814 -277.497523 
L 265.143586 -277.588206 
L 264.54613 -277.67889 
L 263.912445 -277.769573 
L 263.247261 -277.860256 
L 262.557032 -277.95094 
L 261.849834 -278.041623 
L 261.135162 -278.132306 
L 260.423632 -278.222989 
L 259.726609 -278.313673 
L 259.055774 -278.404356 
L 258.422657 -278.495039 
L 257.838153 -278.585722 
L 257.312062 -278.676406 
L 256.852659 -278.767089 
L 256.466333 -278.857772 
L 256.157311 -278.948455 
L 255.927477 -279.039139 
L 255.7763 -279.129822 
L 255.700885 -279.220505 
L 255.696125 -279.311188 
L 255.754975 -279.401872 
L 255.868808 -279.492555 
L 256.027856 -279.583238 
L 256.221693 -279.673921 
L 256.439758 -279.764605 
L 256.671859 -279.855288 
L 256.908657 -279.945971 
L 257.142086 -280.036654 
L 257.365688 -280.127338 
L 257.57485 -280.218021 
L 257.766923 -280.308704 
L 257.941232 -280.399387 
L 258.098958 -280.490071 
L 258.242937 -280.580754 
L 258.377358 -280.671437 
L 258.507414 -280.76212 
L 258.638915 -280.852804 
L 258.777892 -280.943487 
L 258.930231 -281.03417 
L 259.101343 -281.124853 
L 259.295898 -281.215537 
L 259.517628 -281.30622 
L 259.769216 -281.396903 
L 260.052246 -281.487586 
L 260.367232 -281.57827 
L 260.713689 -281.668953 
L 261.090254 -281.759636 
L 261.49482 -281.850319 
L 261.924687 -281.941003 
L 262.376696 -282.031686 
L 262.847356 -282.122369 
L 263.332954 -282.213052 
L 263.829632 -282.303736 
L 264.333458 -282.394419 
L 264.840467 -282.485102 
L 265.346711 -282.575786 
L 265.848288 -282.666469 
L 266.341389 -282.757152 
L 266.82234 -282.847835 
L 267.287662 -282.938519 
L 267.734128 -283.029202 
L 268.158836 -283.119885 
L 268.559271 -283.210568 
L 268.933367 -283.301252 
L 269.27956 -283.391935 
L 269.596818 -283.482618 
L 269.884657 -283.573301 
L 270.143137 -283.663985 
L 270.372825 -283.754668 
L 270.574755 -283.845351 
L 270.750359 -283.936034 
L 270.90139 -284.026718 
L 271.029843 -284.117401 
L 271.137863 -284.208084 
L 271.227669 -284.298767 
L 271.908581 -284.298767 
L 271.908581 -284.298767 
L 271.998387 -284.208084 
L 272.106407 -284.117401 
L 272.23486 -284.026718 
L 272.385891 -283.936034 
L 272.561495 -283.845351 
L 272.763425 -283.754668 
L 272.993113 -283.663985 
L 273.251593 -283.573301 
L 273.539432 -283.482618 
L 273.85669 -283.391935 
L 274.202883 -283.301252 
L 274.576979 -283.210568 
L 274.977414 -283.119885 
L 275.402122 -283.029202 
L 275.848588 -282.938519 
L 276.31391 -282.847835 
L 276.794861 -282.757152 
L 277.287962 -282.666469 
L 277.789539 -282.575786 
L 278.295783 -282.485102 
L 278.802792 -282.394419 
L 279.306618 -282.303736 
L 279.803296 -282.213052 
L 280.288894 -282.122369 
L 280.759554 -282.031686 
L 281.211563 -281.941003 
L 281.64143 -281.850319 
L 282.045996 -281.759636 
L 282.422561 -281.668953 
L 282.769018 -281.57827 
L 283.084004 -281.487586 
L 283.367034 -281.396903 
L 283.618622 -281.30622 
L 283.840352 -281.215537 
L 284.034907 -281.124853 
L 284.206019 -281.03417 
L 284.358358 -280.943487 
L 284.497335 -280.852804 
L 284.628836 -280.76212 
L 284.758892 -280.671437 
L 284.893313 -280.580754 
L 285.037292 -280.490071 
L 285.195018 -280.399387 
L 285.369327 -280.308704 
L 285.5614 -280.218021 
L 285.770562 -280.127338 
L 285.994164 -280.036654 
L 286.227593 -279.945971 
L 286.464391 -279.855288 
L 286.696492 -279.764605 
L 286.914557 -279.673921 
L 287.108394 -279.583238 
L 287.267442 -279.492555 
L 287.381275 -279.401872 
L 287.440125 -279.311188 
L 287.435365 -279.220505 
L 287.35995 -279.129822 
L 287.208773 -279.039139 
L 286.978939 -278.948455 
L 286.669917 -278.857772 
L 286.283591 -278.767089 
L 285.824188 -278.676406 
L 285.298097 -278.585722 
L 284.713593 -278.495039 
L 284.080476 -278.404356 
L 283.409641 -278.313673 
L 282.712618 -278.222989 
L 282.001088 -278.132306 
L 281.286416 -278.041623 
L 280.579218 -277.95094 
L 279.888989 -277.860256 
L 279.223805 -277.769573 
L 278.59012 -277.67889 
L 277.992664 -277.588206 
L 277.434436 -277.497523 
L 276.916796 -277.40684 
L 276.439636 -277.316157 
L 276.001617 -277.225473 
L 275.600446 -277.13479 
L 275.23318 -277.044107 
L 274.896514 -276.953424 
L 274.587063 -276.86274 
L 274.301586 -276.772057 
L 274.037168 -276.681374 
L 273.791342 -276.590691 
L 273.562149 -276.500007 
L 273.34814 -276.409324 
L 273.148341 -276.318641 
L 272.962176 -276.227958 
L 272.789367 -276.137274 
L 272.629828 -276.046591 
L 272.483563 -275.955908 
L 272.350571 -275.865225 
L 272.230771 -275.774541 
L 272.123952 -275.683858 
L 272.029741 -275.593175 
L 271.947596 -275.502492 
L 271.876816 -275.411808 
L 271.816568 -275.321125 
z
" id="mb16957c14c" style="stroke:#3d3d3d;stroke-width:1.5;"/>
    </defs>
    <g clip-path="url(#peea831b655)">
     <use style="fill:#3a923a;stroke:#3d3d3d;stroke-width:1.5;" x="0" xlink:href="#mb16957c14c" y="368.607178"/>
    </g>
   </g>
   <g id="PolyCollection_7">
    <defs>
     <path d="M 311.389787 -271.252222 
L 311.106463 -271.252222 
L 311.067674 -271.420724 
L 311.021782 -271.589227 
L 310.968551 -271.757729 
L 310.908051 -271.926231 
L 310.840715 -272.094733 
L 310.767374 -272.263236 
L 310.689268 -272.431738 
L 310.608006 -272.60024 
L 310.525498 -272.768742 
L 310.443825 -272.937245 
L 310.365084 -273.105747 
L 310.291186 -273.274249 
L 310.223648 -273.442751 
L 310.163373 -273.611254 
L 310.110457 -273.779756 
L 310.064019 -273.948258 
L 310.022097 -274.11676 
L 309.981599 -274.285263 
L 309.938326 -274.453765 
L 309.887065 -274.622267 
L 309.821738 -274.790769 
L 309.735608 -274.959272 
L 309.621518 -275.127774 
L 309.472146 -275.296276 
L 309.280278 -275.464778 
L 309.039073 -275.633281 
L 308.742331 -275.801783 
L 308.384762 -275.970285 
L 307.962261 -276.138787 
L 307.472198 -276.30729 
L 306.913725 -276.475792 
L 306.288102 -276.644294 
L 305.599019 -276.812796 
L 304.852895 -276.981299 
L 304.059119 -277.149801 
L 303.230181 -277.318303 
L 302.381639 -277.486805 
L 301.531898 -277.655308 
L 300.701738 -277.82381 
L 299.913607 -277.992312 
L 299.190678 -278.160814 
L 298.555722 -278.329317 
L 298.029877 -278.497819 
L 297.631396 -278.666321 
L 297.374496 -278.834823 
L 297.268413 -279.003326 
L 297.316749 -279.171828 
L 297.51719 -279.34033 
L 297.861624 -279.508832 
L 298.336639 -279.677335 
L 298.924367 -279.845837 
L 299.603596 -280.014339 
L 300.35103 -280.182841 
L 301.142609 -280.351344 
L 301.95476 -280.519846 
L 302.765507 -280.688348 
L 303.555356 -280.85685 
L 304.307915 -281.025352 
L 305.010248 -281.193855 
L 305.652968 -281.362357 
L 306.230104 -281.530859 
L 306.738795 -281.699361 
L 307.178865 -281.867864 
L 307.552334 -282.036366 
L 307.862913 -282.204868 
L 308.115532 -282.37337 
L 308.315922 -282.541873 
L 308.470277 -282.710375 
L 308.584998 -282.878877 
L 308.666508 -283.047379 
L 308.721136 -283.215882 
L 308.755047 -283.384384 
L 308.774197 -283.552886 
L 308.784286 -283.721388 
L 308.790709 -283.889891 
L 308.798484 -284.058393 
L 308.812153 -284.226895 
L 308.835669 -284.395397 
L 308.872272 -284.5639 
L 308.92437 -284.732402 
L 308.993446 -284.900904 
L 309.080004 -285.069406 
L 309.183566 -285.237909 
L 309.302726 -285.406411 
L 309.435258 -285.574913 
L 309.578282 -285.743415 
L 309.728463 -285.911918 
L 309.882229 -286.08042 
L 310.035998 -286.248922 
L 310.186384 -286.417424 
L 310.330371 -286.585927 
L 310.46545 -286.754429 
L 310.589699 -286.922931 
L 310.701821 -287.091433 
L 310.801129 -287.259936 
L 310.887495 -287.428438 
L 310.961272 -287.59694 
L 311.023191 -287.765442 
L 311.074261 -287.933945 
L 311.421989 -287.933945 
L 311.421989 -287.933945 
L 311.473059 -287.765442 
L 311.534978 -287.59694 
L 311.608755 -287.428438 
L 311.695121 -287.259936 
L 311.794429 -287.091433 
L 311.906551 -286.922931 
L 312.0308 -286.754429 
L 312.165879 -286.585927 
L 312.309866 -286.417424 
L 312.460252 -286.248922 
L 312.614021 -286.08042 
L 312.767787 -285.911918 
L 312.917968 -285.743415 
L 313.060992 -285.574913 
L 313.193524 -285.406411 
L 313.312684 -285.237909 
L 313.416246 -285.069406 
L 313.502804 -284.900904 
L 313.57188 -284.732402 
L 313.623978 -284.5639 
L 313.660581 -284.395397 
L 313.684097 -284.226895 
L 313.697766 -284.058393 
L 313.705541 -283.889891 
L 313.711964 -283.721388 
L 313.722053 -283.552886 
L 313.741203 -283.384384 
L 313.775114 -283.215882 
L 313.829742 -283.047379 
L 313.911252 -282.878877 
L 314.025973 -282.710375 
L 314.180328 -282.541873 
L 314.380718 -282.37337 
L 314.633337 -282.204868 
L 314.943916 -282.036366 
L 315.317385 -281.867864 
L 315.757455 -281.699361 
L 316.266146 -281.530859 
L 316.843282 -281.362357 
L 317.486002 -281.193855 
L 318.188335 -281.025352 
L 318.940894 -280.85685 
L 319.730743 -280.688348 
L 320.54149 -280.519846 
L 321.353641 -280.351344 
L 322.14522 -280.182841 
L 322.892654 -280.014339 
L 323.571883 -279.845837 
L 324.159611 -279.677335 
L 324.634626 -279.508832 
L 324.97906 -279.34033 
L 325.179501 -279.171828 
L 325.227837 -279.003326 
L 325.121754 -278.834823 
L 324.864854 -278.666321 
L 324.466373 -278.497819 
L 323.940528 -278.329317 
L 323.305572 -278.160814 
L 322.582643 -277.992312 
L 321.794512 -277.82381 
L 320.964352 -277.655308 
L 320.114611 -277.486805 
L 319.266069 -277.318303 
L 318.437131 -277.149801 
L 317.643355 -276.981299 
L 316.897231 -276.812796 
L 316.208148 -276.644294 
L 315.582525 -276.475792 
L 315.024052 -276.30729 
L 314.533989 -276.138787 
L 314.111488 -275.970285 
L 313.753919 -275.801783 
L 313.457177 -275.633281 
L 313.215972 -275.464778 
L 313.024104 -275.296276 
L 312.874732 -275.127774 
L 312.760642 -274.959272 
L 312.674512 -274.790769 
L 312.609185 -274.622267 
L 312.557924 -274.453765 
L 312.514651 -274.285263 
L 312.474153 -274.11676 
L 312.432231 -273.948258 
L 312.385793 -273.779756 
L 312.332877 -273.611254 
L 312.272602 -273.442751 
L 312.205064 -273.274249 
L 312.131166 -273.105747 
L 312.052425 -272.937245 
L 311.970752 -272.768742 
L 311.888244 -272.60024 
L 311.806982 -272.431738 
L 311.728876 -272.263236 
L 311.655535 -272.094733 
L 311.588199 -271.926231 
L 311.527699 -271.757729 
L 311.474468 -271.589227 
L 311.428576 -271.420724 
L 311.389787 -271.252222 
z
" id="mce4f544f42" style="stroke:#3d3d3d;stroke-width:1.5;"/>
    </defs>
    <g clip-path="url(#peea831b655)">
     <use style="fill:#d684bd;stroke:#3d3d3d;stroke-width:1.5;" x="0" xlink:href="#mce4f544f42" y="368.607178"/>
    </g>
   </g>
   <g id="PolyCollection_8">
    <defs>
     <path d="M 350.970743 -224.038138 
L 350.885507 -224.038138 
L 350.87591 -224.809975 
L 350.864657 -225.581811 
L 350.851585 -226.353648 
L 350.836538 -227.125485 
L 350.819379 -227.897321 
L 350.799994 -228.669158 
L 350.778294 -229.440995 
L 350.754229 -230.212832 
L 350.727787 -230.984668 
L 350.699002 -231.756505 
L 350.667953 -232.528342 
L 350.634768 -233.300179 
L 350.599622 -234.072015 
L 350.562735 -234.843852 
L 350.524366 -235.615689 
L 350.484806 -236.387525 
L 350.444372 -237.159362 
L 350.403399 -237.931199 
L 350.362227 -238.703036 
L 350.321196 -239.474872 
L 350.280638 -240.246709 
L 350.240866 -241.018546 
L 350.202173 -241.790383 
L 350.164827 -242.562219 
L 350.12907 -243.334056 
L 350.095117 -244.105893 
L 350.063161 -244.877729 
L 350.033372 -245.649566 
L 350.005901 -246.421403 
L 349.980886 -247.19324 
L 349.958448 -247.965076 
L 349.938694 -248.736913 
L 349.921714 -249.50875 
L 349.907576 -250.280587 
L 349.896316 -251.052423 
L 349.887933 -251.82426 
L 349.882372 -252.596097 
L 349.879519 -253.367933 
L 349.87918 -254.13977 
L 349.881079 -254.911607 
L 349.884847 -255.683444 
L 349.890016 -256.45528 
L 349.896025 -257.227117 
L 349.902222 -257.998954 
L 349.907881 -258.770791 
L 349.912214 -259.542627 
L 349.914405 -260.314464 
L 349.91363 -261.086301 
L 349.909096 -261.858137 
L 349.900072 -262.629974 
L 349.885928 -263.401811 
L 349.866168 -264.173648 
L 349.84046 -264.945484 
L 349.808663 -265.717321 
L 349.770847 -266.489158 
L 349.727304 -267.260995 
L 349.678551 -268.032831 
L 349.625322 -268.804668 
L 349.56856 -269.576505 
L 349.509383 -270.348341 
L 349.449064 -271.120178 
L 349.388984 -271.892015 
L 349.330597 -272.663852 
L 349.275381 -273.435688 
L 349.224794 -274.207525 
L 349.180226 -274.979362 
L 349.14296 -275.751199 
L 349.11413 -276.523035 
L 349.094689 -277.294872 
L 349.08538 -278.066709 
L 349.086719 -278.838545 
L 349.09898 -279.610382 
L 349.122195 -280.382219 
L 349.156151 -281.154056 
L 349.200407 -281.925892 
L 349.254308 -282.697729 
L 349.317009 -283.469566 
L 349.387503 -284.241403 
L 349.464656 -285.013239 
L 349.547236 -285.785076 
L 349.633955 -286.556913 
L 349.723502 -287.328749 
L 349.814579 -288.100586 
L 349.905933 -288.872423 
L 349.996387 -289.64426 
L 350.084863 -290.416096 
L 350.170406 -291.187933 
L 350.252197 -291.95977 
L 350.329562 -292.731607 
L 350.401978 -293.503443 
L 350.469072 -294.27528 
L 350.530614 -295.047117 
L 350.586509 -295.818953 
L 350.636784 -296.59079 
L 350.681569 -297.362627 
L 350.721086 -298.134464 
L 350.755625 -298.9063 
L 350.785531 -299.678137 
L 350.811184 -300.449974 
L 351.045066 -300.449974 
L 351.045066 -300.449974 
L 351.070719 -299.678137 
L 351.100625 -298.9063 
L 351.135164 -298.134464 
L 351.174681 -297.362627 
L 351.219466 -296.59079 
L 351.269741 -295.818953 
L 351.325636 -295.047117 
L 351.387178 -294.27528 
L 351.454272 -293.503443 
L 351.526688 -292.731607 
L 351.604053 -291.95977 
L 351.685844 -291.187933 
L 351.771387 -290.416096 
L 351.859863 -289.64426 
L 351.950317 -288.872423 
L 352.041671 -288.100586 
L 352.132748 -287.328749 
L 352.222295 -286.556913 
L 352.309014 -285.785076 
L 352.391594 -285.013239 
L 352.468747 -284.241403 
L 352.539241 -283.469566 
L 352.601942 -282.697729 
L 352.655843 -281.925892 
L 352.700099 -281.154056 
L 352.734055 -280.382219 
L 352.75727 -279.610382 
L 352.769531 -278.838545 
L 352.77087 -278.066709 
L 352.761561 -277.294872 
L 352.74212 -276.523035 
L 352.71329 -275.751199 
L 352.676024 -274.979362 
L 352.631456 -274.207525 
L 352.580869 -273.435688 
L 352.525653 -272.663852 
L 352.467266 -271.892015 
L 352.407186 -271.120178 
L 352.346867 -270.348341 
L 352.28769 -269.576505 
L 352.230928 -268.804668 
L 352.177699 -268.032831 
L 352.128946 -267.260995 
L 352.085403 -266.489158 
L 352.047587 -265.717321 
L 352.01579 -264.945484 
L 351.990082 -264.173648 
L 351.970322 -263.401811 
L 351.956178 -262.629974 
L 351.947154 -261.858137 
L 351.94262 -261.086301 
L 351.941845 -260.314464 
L 351.944036 -259.542627 
L 351.948369 -258.770791 
L 351.954028 -257.998954 
L 351.960225 -257.227117 
L 351.966234 -256.45528 
L 351.971403 -255.683444 
L 351.975171 -254.911607 
L 351.97707 -254.13977 
L 351.976731 -253.367933 
L 351.973878 -252.596097 
L 351.968317 -251.82426 
L 351.959934 -251.052423 
L 351.948674 -250.280587 
L 351.934536 -249.50875 
L 351.917556 -248.736913 
L 351.897802 -247.965076 
L 351.875364 -247.19324 
L 351.850349 -246.421403 
L 351.822878 -245.649566 
L 351.793089 -244.877729 
L 351.761133 -244.105893 
L 351.72718 -243.334056 
L 351.691423 -242.562219 
L 351.654077 -241.790383 
L 351.615384 -241.018546 
L 351.575612 -240.246709 
L 351.535054 -239.474872 
L 351.494023 -238.703036 
L 351.452851 -237.931199 
L 351.411878 -237.159362 
L 351.371444 -236.387525 
L 351.331884 -235.615689 
L 351.293515 -234.843852 
L 351.256628 -234.072015 
L 351.221482 -233.300179 
L 351.188297 -232.528342 
L 351.157248 -231.756505 
L 351.128463 -230.984668 
L 351.102021 -230.212832 
L 351.077956 -229.440995 
L 351.056256 -228.669158 
L 351.036871 -227.897321 
L 351.019712 -227.125485 
L 351.004665 -226.353648 
L 350.991593 -225.581811 
L 350.98034 -224.809975 
L 350.970743 -224.038138 
z
" id="m94f6cabf6b" style="stroke:#3d3d3d;stroke-width:1.5;"/>
    </defs>
    <g clip-path="url(#peea831b655)">
     <use style="fill:#f2a5a3;stroke:#3d3d3d;stroke-width:1.5;" x="0" xlink:href="#m94f6cabf6b" y="368.607178"/>
    </g>
   </g>
   <g id="PolyCollection_9">
    <defs>
     <path d="M 390.618394 -92.273053 
L 390.597856 -92.273053 
L 390.595509 -94.716689 
L 390.592753 -97.160326 
L 390.589549 -99.603962 
L 390.58586 -102.047598 
L 390.581654 -104.491235 
L 390.576907 -106.934871 
L 390.571601 -109.378507 
L 390.56573 -111.822144 
L 390.559297 -114.26578 
L 390.552319 -116.709417 
L 390.544827 -119.153053 
L 390.536862 -121.596689 
L 390.52848 -124.040326 
L 390.519747 -126.483962 
L 390.510736 -128.927598 
L 390.501528 -131.371235 
L 390.492206 -133.814871 
L 390.482851 -136.258507 
L 390.473538 -138.702144 
L 390.464331 -141.14578 
L 390.455283 -143.589417 
L 390.446425 -146.033053 
L 390.43777 -148.476689 
L 390.429305 -150.920326 
L 390.420995 -153.363962 
L 390.412782 -155.807598 
L 390.404587 -158.251235 
L 390.396311 -160.694871 
L 390.387845 -163.138507 
L 390.379073 -165.582144 
L 390.369878 -168.02578 
L 390.360154 -170.469417 
L 390.349809 -172.913053 
L 390.338775 -175.356689 
L 390.327015 -177.800326 
L 390.314525 -180.243962 
L 390.301345 -182.687598 
L 390.287552 -185.131235 
L 390.273269 -187.574871 
L 390.258654 -190.018507 
L 390.243901 -192.462144 
L 390.229234 -194.90578 
L 390.214893 -197.349417 
L 390.201131 -199.793053 
L 390.1882 -202.236689 
L 390.176338 -204.680326 
L 390.165762 -207.123962 
L 390.156654 -209.567598 
L 390.149153 -212.011235 
L 390.143346 -214.454871 
L 390.139262 -216.898507 
L 390.136868 -219.342144 
L 390.136066 -221.78578 
L 390.136699 -224.229417 
L 390.138551 -226.673053 
L 390.141358 -229.116689 
L 390.144816 -231.560326 
L 390.148596 -234.003962 
L 390.152358 -236.447598 
L 390.15577 -238.891235 
L 390.158522 -241.334871 
L 390.160347 -243.778507 
L 390.161036 -246.222144 
L 390.160452 -248.66578 
L 390.158543 -251.109417 
L 390.155346 -253.553053 
L 390.150994 -255.996689 
L 390.145711 -258.440326 
L 390.139805 -260.883962 
L 390.133657 -263.327598 
L 390.1277 -265.771235 
L 390.122405 -268.214871 
L 390.118252 -270.658507 
L 390.11571 -273.102144 
L 390.115209 -275.54578 
L 390.117123 -277.989417 
L 390.121745 -280.433053 
L 390.129278 -282.876689 
L 390.139819 -285.320326 
L 390.153359 -287.763962 
L 390.169784 -290.207598 
L 390.188878 -292.651235 
L 390.210341 -295.094871 
L 390.233797 -297.538507 
L 390.258819 -299.982144 
L 390.284945 -302.42578 
L 390.311702 -304.869417 
L 390.33862 -307.313053 
L 390.365258 -309.756689 
L 390.39121 -312.200326 
L 390.416124 -314.643962 
L 390.439706 -317.087598 
L 390.461728 -319.531235 
L 390.482025 -321.974871 
L 390.500496 -324.418507 
L 390.5171 -326.862144 
L 390.531846 -329.30578 
L 390.544788 -331.749417 
L 390.556017 -334.193053 
L 390.660233 -334.193053 
L 390.660233 -334.193053 
L 390.671462 -331.749417 
L 390.684404 -329.30578 
L 390.69915 -326.862144 
L 390.715754 -324.418507 
L 390.734225 -321.974871 
L 390.754522 -319.531235 
L 390.776544 -317.087598 
L 390.800126 -314.643962 
L 390.82504 -312.200326 
L 390.850992 -309.756689 
L 390.87763 -307.313053 
L 390.904548 -304.869417 
L 390.931305 -302.42578 
L 390.957431 -299.982144 
L 390.982453 -297.538507 
L 391.005909 -295.094871 
L 391.027372 -292.651235 
L 391.046466 -290.207598 
L 391.062891 -287.763962 
L 391.076431 -285.320326 
L 391.086972 -282.876689 
L 391.094505 -280.433053 
L 391.099127 -277.989417 
L 391.101041 -275.54578 
L 391.10054 -273.102144 
L 391.097998 -270.658507 
L 391.093845 -268.214871 
L 391.08855 -265.771235 
L 391.082593 -263.327598 
L 391.076445 -260.883962 
L 391.070539 -258.440326 
L 391.065256 -255.996689 
L 391.060904 -253.553053 
L 391.057707 -251.109417 
L 391.055798 -248.66578 
L 391.055214 -246.222144 
L 391.055903 -243.778507 
L 391.057728 -241.334871 
L 391.06048 -238.891235 
L 391.063892 -236.447598 
L 391.067654 -234.003962 
L 391.071434 -231.560326 
L 391.074892 -229.116689 
L 391.077699 -226.673053 
L 391.079551 -224.229417 
L 391.080184 -221.78578 
L 391.079382 -219.342144 
L 391.076988 -216.898507 
L 391.072904 -214.454871 
L 391.067097 -212.011235 
L 391.059596 -209.567598 
L 391.050488 -207.123962 
L 391.039912 -204.680326 
L 391.02805 -202.236689 
L 391.015119 -199.793053 
L 391.001357 -197.349417 
L 390.987016 -194.90578 
L 390.972349 -192.462144 
L 390.957596 -190.018507 
L 390.942981 -187.574871 
L 390.928698 -185.131235 
L 390.914905 -182.687598 
L 390.901725 -180.243962 
L 390.889235 -177.800326 
L 390.877475 -175.356689 
L 390.866441 -172.913053 
L 390.856096 -170.469417 
L 390.846372 -168.02578 
L 390.837177 -165.582144 
L 390.828405 -163.138507 
L 390.819939 -160.694871 
L 390.811663 -158.251235 
L 390.803468 -155.807598 
L 390.795255 -153.363962 
L 390.786945 -150.920326 
L 390.77848 -148.476689 
L 390.769825 -146.033053 
L 390.760967 -143.589417 
L 390.751919 -141.14578 
L 390.742712 -138.702144 
L 390.733399 -136.258507 
L 390.724044 -133.814871 
L 390.714722 -131.371235 
L 390.705514 -128.927598 
L 390.696503 -126.483962 
L 390.68777 -124.040326 
L 390.679388 -121.596689 
L 390.671423 -119.153053 
L 390.663931 -116.709417 
L 390.656953 -114.26578 
L 390.65052 -111.822144 
L 390.644649 -109.378507 
L 390.639343 -106.934871 
L 390.634596 -104.491235 
L 390.63039 -102.047598 
L 390.626701 -99.603962 
L 390.623497 -97.160326 
L 390.620741 -94.716689 
L 390.618394 -92.273053 
z
" id="m6717c5be2a" style="stroke:#3d3d3d;stroke-width:1.5;"/>
    </defs>
    <g clip-path="url(#peea831b655)">
     <use style="fill:#3274a1;stroke:#3d3d3d;stroke-width:1.5;" x="0" xlink:href="#m6717c5be2a" y="368.607178"/>
    </g>
   </g>
   <g id="matplotlib.axis_1">
    <g id="xtick_1">
     <g id="line2d_1">
      <defs>
       <path d="M 0 0 
L 0 3.5 
" id="ma02962b36f" style="stroke:#000000;stroke-width:0.8;"/>
      </defs>
      <g>
       <use style="stroke:#000000;stroke-width:0.8;" x="73.168125" xlink:href="#ma02962b36f" y="288.430125"/>
      </g>
     </g>
     <g id="text_1">
      <!-- mopt -->
      <g transform="translate(49.500661 315.074627)rotate(-30)scale(0.1 -0.1)">
       <defs>
        <path d="M 52 44.1875 
Q 55.375 50.25 60.0625 53.125 
Q 64.75 56 71.09375 56 
Q 79.640625 56 84.28125 50.015625 
Q 88.921875 44.046875 88.921875 33.015625 
L 88.921875 0 
L 79.890625 0 
L 79.890625 32.71875 
Q 79.890625 40.578125 77.09375 44.375 
Q 74.3125 48.1875 68.609375 48.1875 
Q 61.625 48.1875 57.5625 43.546875 
Q 53.515625 38.921875 53.515625 30.90625 
L 53.515625 0 
L 44.484375 0 
L 44.484375 32.71875 
Q 44.484375 40.625 41.703125 44.40625 
Q 38.921875 48.1875 33.109375 48.1875 
Q 26.21875 48.1875 22.15625 43.53125 
Q 18.109375 38.875 18.109375 30.90625 
L 18.109375 0 
L 9.078125 0 
L 9.078125 54.6875 
L 18.109375 54.6875 
L 18.109375 46.1875 
Q 21.1875 51.21875 25.484375 53.609375 
Q 29.78125 56 35.6875 56 
Q 41.65625 56 45.828125 52.96875 
Q 50 49.953125 52 44.1875 
z
" id="DejaVuSans-109"/>
        <path d="M 30.609375 48.390625 
Q 23.390625 48.390625 19.1875 42.75 
Q 14.984375 37.109375 14.984375 27.296875 
Q 14.984375 17.484375 19.15625 11.84375 
Q 23.34375 6.203125 30.609375 6.203125 
Q 37.796875 6.203125 41.984375 11.859375 
Q 46.1875 17.53125 46.1875 27.296875 
Q 46.1875 37.015625 41.984375 42.703125 
Q 37.796875 48.390625 30.609375 48.390625 
z
M 30.609375 56 
Q 42.328125 56 49.015625 48.375 
Q 55.71875 40.765625 55.71875 27.296875 
Q 55.71875 13.875 49.015625 6.21875 
Q 42.328125 -1.421875 30.609375 -1.421875 
Q 18.84375 -1.421875 12.171875 6.21875 
Q 5.515625 13.875 5.515625 27.296875 
Q 5.515625 40.765625 12.171875 48.375 
Q 18.84375 56 30.609375 56 
z
" id="DejaVuSans-111"/>
        <path d="M 18.109375 8.203125 
L 18.109375 -20.796875 
L 9.078125 -20.796875 
L 9.078125 54.6875 
L 18.109375 54.6875 
L 18.109375 46.390625 
Q 20.953125 51.265625 25.265625 53.625 
Q 29.59375 56 35.59375 56 
Q 45.5625 56 51.78125 48.09375 
Q 58.015625 40.1875 58.015625 27.296875 
Q 58.015625 14.40625 51.78125 6.484375 
Q 45.5625 -1.421875 35.59375 -1.421875 
Q 29.59375 -1.421875 25.265625 0.953125 
Q 20.953125 3.328125 18.109375 8.203125 
z
M 48.6875 27.296875 
Q 48.6875 37.203125 44.609375 42.84375 
Q 40.53125 48.484375 33.40625 48.484375 
Q 26.265625 48.484375 22.1875 42.84375 
Q 18.109375 37.203125 18.109375 27.296875 
Q 18.109375 17.390625 22.1875 11.75 
Q 26.265625 6.109375 33.40625 6.109375 
Q 40.53125 6.109375 44.609375 11.75 
Q 48.6875 17.390625 48.6875 27.296875 
z
" id="DejaVuSans-112"/>
        <path d="M 18.3125 70.21875 
L 18.3125 54.6875 
L 36.8125 54.6875 
L 36.8125 47.703125 
L 18.3125 47.703125 
L 18.3125 18.015625 
Q 18.3125 11.328125 20.140625 9.421875 
Q 21.96875 7.515625 27.59375 7.515625 
L 36.8125 7.515625 
L 36.8125 0 
L 27.59375 0 
Q 17.1875 0 13.234375 3.875 
Q 9.28125 7.765625 9.28125 18.015625 
L 9.28125 47.703125 
L 2.6875 47.703125 
L 2.6875 54.6875 
L 9.28125 54.6875 
L 9.28125 70.21875 
z
" id="DejaVuSans-116"/>
       </defs>
       <use xlink:href="#DejaVuSans-109"/>
       <use x="97.412109" xlink:href="#DejaVuSans-111"/>
       <use x="158.59375" xlink:href="#DejaVuSans-112"/>
       <use x="222.070312" xlink:href="#DejaVuSans-116"/>
      </g>
     </g>
    </g>
    <g id="xtick_2">
     <g id="line2d_2">
      <g>
       <use style="stroke:#000000;stroke-width:0.8;" x="112.848125" xlink:href="#ma02962b36f" y="288.430125"/>
      </g>
     </g>
     <g id="text_2">
      <!-- aflplusplus_flat -->
      <g transform="translate(46.61312 339.570721)rotate(-30)scale(0.1 -0.1)">
       <defs>
        <path d="M 34.28125 27.484375 
Q 23.390625 27.484375 19.1875 25 
Q 14.984375 22.515625 14.984375 16.5 
Q 14.984375 11.71875 18.140625 8.90625 
Q 21.296875 6.109375 26.703125 6.109375 
Q 34.1875 6.109375 38.703125 11.40625 
Q 43.21875 16.703125 43.21875 25.484375 
L 43.21875 27.484375 
z
M 52.203125 31.203125 
L 52.203125 0 
L 43.21875 0 
L 43.21875 8.296875 
Q 40.140625 3.328125 35.546875 0.953125 
Q 30.953125 -1.421875 24.3125 -1.421875 
Q 15.921875 -1.421875 10.953125 3.296875 
Q 6 8.015625 6 15.921875 
Q 6 25.140625 12.171875 29.828125 
Q 18.359375 34.515625 30.609375 34.515625 
L 43.21875 34.515625 
L 43.21875 35.40625 
Q 43.21875 41.609375 39.140625 45 
Q 35.0625 48.390625 27.6875 48.390625 
Q 23 48.390625 18.546875 47.265625 
Q 14.109375 46.140625 10.015625 43.890625 
L 10.015625 52.203125 
Q 14.9375 54.109375 19.578125 55.046875 
Q 24.21875 56 28.609375 56 
Q 40.484375 56 46.34375 49.84375 
Q 52.203125 43.703125 52.203125 31.203125 
z
" id="DejaVuSans-97"/>
        <path d="M 37.109375 75.984375 
L 37.109375 68.5 
L 28.515625 68.5 
Q 23.6875 68.5 21.796875 66.546875 
Q 19.921875 64.59375 19.921875 59.515625 
L 19.921875 54.6875 
L 34.71875 54.6875 
L 34.71875 47.703125 
L 19.921875 47.703125 
L 19.921875 0 
L 10.890625 0 
L 10.890625 47.703125 
L 2.296875 47.703125 
L 2.296875 54.6875 
L 10.890625 54.6875 
L 10.890625 58.5 
Q 10.890625 67.625 15.140625 71.796875 
Q 19.390625 75.984375 28.609375 75.984375 
z
" id="DejaVuSans-102"/>
        <path d="M 9.421875 75.984375 
L 18.40625 75.984375 
L 18.40625 0 
L 9.421875 0 
z
" id="DejaVuSans-108"/>
        <path d="M 8.5 21.578125 
L 8.5 54.6875 
L 17.484375 54.6875 
L 17.484375 21.921875 
Q 17.484375 14.15625 20.5 10.265625 
Q 23.53125 6.390625 29.59375 6.390625 
Q 36.859375 6.390625 41.078125 11.03125 
Q 45.3125 15.671875 45.3125 23.6875 
L 45.3125 54.6875 
L 54.296875 54.6875 
L 54.296875 0 
L 45.3125 0 
L 45.3125 8.40625 
Q 42.046875 3.421875 37.71875 1 
Q 33.40625 -1.421875 27.6875 -1.421875 
Q 18.265625 -1.421875 13.375 4.4375 
Q 8.5 10.296875 8.5 21.578125 
z
M 31.109375 56 
z
" id="DejaVuSans-117"/>
        <path d="M 44.28125 53.078125 
L 44.28125 44.578125 
Q 40.484375 46.53125 36.375 47.5 
Q 32.28125 48.484375 27.875 48.484375 
Q 21.1875 48.484375 17.84375 46.4375 
Q 14.5 44.390625 14.5 40.28125 
Q 14.5 37.15625 16.890625 35.375 
Q 19.28125 33.59375 26.515625 31.984375 
L 29.59375 31.296875 
Q 39.15625 29.25 43.1875 25.515625 
Q 47.21875 21.78125 47.21875 15.09375 
Q 47.21875 7.46875 41.1875 3.015625 
Q 35.15625 -1.421875 24.609375 -1.421875 
Q 20.21875 -1.421875 15.453125 -0.5625 
Q 10.6875 0.296875 5.421875 2 
L 5.421875 11.28125 
Q 10.40625 8.6875 15.234375 7.390625 
Q 20.0625 6.109375 24.8125 6.109375 
Q 31.15625 6.109375 34.5625 8.28125 
Q 37.984375 10.453125 37.984375 14.40625 
Q 37.984375 18.0625 35.515625 20.015625 
Q 33.0625 21.96875 24.703125 23.78125 
L 21.578125 24.515625 
Q 13.234375 26.265625 9.515625 29.90625 
Q 5.8125 33.546875 5.8125 39.890625 
Q 5.8125 47.609375 11.28125 51.796875 
Q 16.75 56 26.8125 56 
Q 31.78125 56 36.171875 55.265625 
Q 40.578125 54.546875 44.28125 53.078125 
z
" id="DejaVuSans-115"/>
        <path d="M 50.984375 -16.609375 
L 50.984375 -23.578125 
L -0.984375 -23.578125 
L -0.984375 -16.609375 
z
" id="DejaVuSans-95"/>
       </defs>
       <use xlink:href="#DejaVuSans-97"/>
       <use x="61.279297" xlink:href="#DejaVuSans-102"/>
       <use x="96.484375" xlink:href="#DejaVuSans-108"/>
       <use x="124.267578" xlink:href="#DejaVuSans-112"/>
       <use x="187.744141" xlink:href="#DejaVuSans-108"/>
       <use x="215.527344" xlink:href="#DejaVuSans-117"/>
       <use x="278.90625" xlink:href="#DejaVuSans-115"/>
       <use x="331.005859" xlink:href="#DejaVuSans-112"/>
       <use x="394.482422" xlink:href="#DejaVuSans-108"/>
       <use x="422.265625" xlink:href="#DejaVuSans-117"/>
       <use x="485.644531" xlink:href="#DejaVuSans-115"/>
       <use x="537.744141" xlink:href="#DejaVuSans-95"/>
       <use x="587.744141" xlink:href="#DejaVuSans-102"/>
       <use x="622.949219" xlink:href="#DejaVuSans-108"/>
       <use x="650.732422" xlink:href="#DejaVuSans-97"/>
       <use x="712.011719" xlink:href="#DejaVuSans-116"/>
      </g>
     </g>
    </g>
    <g id="xtick_3">
     <g id="line2d_3">
      <g>
       <use style="stroke:#000000;stroke-width:0.8;" x="152.528125" xlink:href="#ma02962b36f" y="288.430125"/>
      </g>
     </g>
     <g id="text_3">
      <!-- lafintel -->
      <g transform="translate(121.70242 319.20744)rotate(-30)scale(0.1 -0.1)">
       <defs>
        <path d="M 9.421875 54.6875 
L 18.40625 54.6875 
L 18.40625 0 
L 9.421875 0 
z
M 9.421875 75.984375 
L 18.40625 75.984375 
L 18.40625 64.59375 
L 9.421875 64.59375 
z
" id="DejaVuSans-105"/>
        <path d="M 54.890625 33.015625 
L 54.890625 0 
L 45.90625 0 
L 45.90625 32.71875 
Q 45.90625 40.484375 42.875 44.328125 
Q 39.84375 48.1875 33.796875 48.1875 
Q 26.515625 48.1875 22.3125 43.546875 
Q 18.109375 38.921875 18.109375 30.90625 
L 18.109375 0 
L 9.078125 0 
L 9.078125 54.6875 
L 18.109375 54.6875 
L 18.109375 46.1875 
Q 21.34375 51.125 25.703125 53.5625 
Q 30.078125 56 35.796875 56 
Q 45.21875 56 50.046875 50.171875 
Q 54.890625 44.34375 54.890625 33.015625 
z
" id="DejaVuSans-110"/>
        <path d="M 56.203125 29.59375 
L 56.203125 25.203125 
L 14.890625 25.203125 
Q 15.484375 15.921875 20.484375 11.0625 
Q 25.484375 6.203125 34.421875 6.203125 
Q 39.59375 6.203125 44.453125 7.46875 
Q 49.3125 8.734375 54.109375 11.28125 
L 54.109375 2.78125 
Q 49.265625 0.734375 44.1875 -0.34375 
Q 39.109375 -1.421875 33.890625 -1.421875 
Q 20.796875 -1.421875 13.15625 6.1875 
Q 5.515625 13.8125 5.515625 26.8125 
Q 5.515625 40.234375 12.765625 48.109375 
Q 20.015625 56 32.328125 56 
Q 43.359375 56 49.78125 48.890625 
Q 56.203125 41.796875 56.203125 29.59375 
z
M 47.21875 32.234375 
Q 47.125 39.59375 43.09375 43.984375 
Q 39.0625 48.390625 32.421875 48.390625 
Q 24.90625 48.390625 20.390625 44.140625 
Q 15.875 39.890625 15.1875 32.171875 
z
" id="DejaVuSans-101"/>
       </defs>
       <use xlink:href="#DejaVuSans-108"/>
       <use x="27.783203" xlink:href="#DejaVuSans-97"/>
       <use x="89.0625" xlink:href="#DejaVuSans-102"/>
       <use x="124.267578" xlink:href="#DejaVuSans-105"/>
       <use x="152.050781" xlink:href="#DejaVuSans-110"/>
       <use x="215.429688" xlink:href="#DejaVuSans-116"/>
       <use x="254.638672" xlink:href="#DejaVuSans-101"/>
       <use x="316.162109" xlink:href="#DejaVuSans-108"/>
      </g>
     </g>
    </g>
    <g id="xtick_4">
     <g id="line2d_4">
      <g>
       <use style="stroke:#000000;stroke-width:0.8;" x="192.208125" xlink:href="#ma02962b36f" y="288.430125"/>
      </g>
     </g>
     <g id="text_4">
      <!-- aflplusplus_qemu -->
      <g transform="translate(115.379193 345.687127)rotate(-30)scale(0.1 -0.1)">
       <defs>
        <path d="M 14.796875 27.296875 
Q 14.796875 17.390625 18.875 11.75 
Q 22.953125 6.109375 30.078125 6.109375 
Q 37.203125 6.109375 41.296875 11.75 
Q 45.40625 17.390625 45.40625 27.296875 
Q 45.40625 37.203125 41.296875 42.84375 
Q 37.203125 48.484375 30.078125 48.484375 
Q 22.953125 48.484375 18.875 42.84375 
Q 14.796875 37.203125 14.796875 27.296875 
z
M 45.40625 8.203125 
Q 42.578125 3.328125 38.25 0.953125 
Q 33.9375 -1.421875 27.875 -1.421875 
Q 17.96875 -1.421875 11.734375 6.484375 
Q 5.515625 14.40625 5.515625 27.296875 
Q 5.515625 40.1875 11.734375 48.09375 
Q 17.96875 56 27.875 56 
Q 33.9375 56 38.25 53.625 
Q 42.578125 51.265625 45.40625 46.390625 
L 45.40625 54.6875 
L 54.390625 54.6875 
L 54.390625 -20.796875 
L 45.40625 -20.796875 
z
" id="DejaVuSans-113"/>
       </defs>
       <use xlink:href="#DejaVuSans-97"/>
       <use x="61.279297" xlink:href="#DejaVuSans-102"/>
       <use x="96.484375" xlink:href="#DejaVuSans-108"/>
       <use x="124.267578" xlink:href="#DejaVuSans-112"/>
       <use x="187.744141" xlink:href="#DejaVuSans-108"/>
       <use x="215.527344" xlink:href="#DejaVuSans-117"/>
       <use x="278.90625" xlink:href="#DejaVuSans-115"/>
       <use x="331.005859" xlink:href="#DejaVuSans-112"/>
       <use x="394.482422" xlink:href="#DejaVuSans-108"/>
       <use x="422.265625" xlink:href="#DejaVuSans-117"/>
       <use x="485.644531" xlink:href="#DejaVuSans-115"/>
       <use x="537.744141" xlink:href="#DejaVuSans-95"/>
       <use x="587.744141" xlink:href="#DejaVuSans-113"/>
       <use x="651.220703" xlink:href="#DejaVuSans-101"/>
       <use x="712.744141" xlink:href="#DejaVuSans-109"/>
       <use x="810.15625" xlink:href="#DejaVuSans-117"/>
      </g>
     </g>
    </g>
    <g id="xtick_5">
     <g id="line2d_5">
      <g>
       <use style="stroke:#000000;stroke-width:0.8;" x="231.888125" xlink:href="#ma02962b36f" y="288.430125"/>
      </g>
     </g>
     <g id="text_5">
      <!-- entropic -->
      <g transform="translate(195.306057 322.530877)rotate(-30)scale(0.1 -0.1)">
       <defs>
        <path d="M 41.109375 46.296875 
Q 39.59375 47.171875 37.8125 47.578125 
Q 36.03125 48 33.890625 48 
Q 26.265625 48 22.1875 43.046875 
Q 18.109375 38.09375 18.109375 28.8125 
L 18.109375 0 
L 9.078125 0 
L 9.078125 54.6875 
L 18.109375 54.6875 
L 18.109375 46.1875 
Q 20.953125 51.171875 25.484375 53.578125 
Q 30.03125 56 36.53125 56 
Q 37.453125 56 38.578125 55.875 
Q 39.703125 55.765625 41.0625 55.515625 
z
" id="DejaVuSans-114"/>
        <path d="M 48.78125 52.59375 
L 48.78125 44.1875 
Q 44.96875 46.296875 41.140625 47.34375 
Q 37.3125 48.390625 33.40625 48.390625 
Q 24.65625 48.390625 19.8125 42.84375 
Q 14.984375 37.3125 14.984375 27.296875 
Q 14.984375 17.28125 19.8125 11.734375 
Q 24.65625 6.203125 33.40625 6.203125 
Q 37.3125 6.203125 41.140625 7.25 
Q 44.96875 8.296875 48.78125 10.40625 
L 48.78125 2.09375 
Q 45.015625 0.34375 40.984375 -0.53125 
Q 36.96875 -1.421875 32.421875 -1.421875 
Q 20.0625 -1.421875 12.78125 6.34375 
Q 5.515625 14.109375 5.515625 27.296875 
Q 5.515625 40.671875 12.859375 48.328125 
Q 20.21875 56 33.015625 56 
Q 37.15625 56 41.109375 55.140625 
Q 45.0625 54.296875 48.78125 52.59375 
z
" id="DejaVuSans-99"/>
       </defs>
       <use xlink:href="#DejaVuSans-101"/>
       <use x="61.523438" xlink:href="#DejaVuSans-110"/>
       <use x="124.902344" xlink:href="#DejaVuSans-116"/>
       <use x="164.111328" xlink:href="#DejaVuSans-114"/>
       <use x="202.974609" xlink:href="#DejaVuSans-111"/>
       <use x="264.15625" xlink:href="#DejaVuSans-112"/>
       <use x="327.632812" xlink:href="#DejaVuSans-105"/>
       <use x="355.416016" xlink:href="#DejaVuSans-99"/>
      </g>
     </g>
    </g>
    <g id="xtick_6">
     <g id="line2d_6">
      <g>
       <use style="stroke:#000000;stroke-width:0.8;" x="271.568125" xlink:href="#ma02962b36f" y="288.430125"/>
      </g>
     </g>
     <g id="text_6">
      <!-- libfuzzer -->
      <g transform="translate(233.701904 323.272284)rotate(-30)scale(0.1 -0.1)">
       <defs>
        <path d="M 48.6875 27.296875 
Q 48.6875 37.203125 44.609375 42.84375 
Q 40.53125 48.484375 33.40625 48.484375 
Q 26.265625 48.484375 22.1875 42.84375 
Q 18.109375 37.203125 18.109375 27.296875 
Q 18.109375 17.390625 22.1875 11.75 
Q 26.265625 6.109375 33.40625 6.109375 
Q 40.53125 6.109375 44.609375 11.75 
Q 48.6875 17.390625 48.6875 27.296875 
z
M 18.109375 46.390625 
Q 20.953125 51.265625 25.265625 53.625 
Q 29.59375 56 35.59375 56 
Q 45.5625 56 51.78125 48.09375 
Q 58.015625 40.1875 58.015625 27.296875 
Q 58.015625 14.40625 51.78125 6.484375 
Q 45.5625 -1.421875 35.59375 -1.421875 
Q 29.59375 -1.421875 25.265625 0.953125 
Q 20.953125 3.328125 18.109375 8.203125 
L 18.109375 0 
L 9.078125 0 
L 9.078125 75.984375 
L 18.109375 75.984375 
z
" id="DejaVuSans-98"/>
        <path d="M 5.515625 54.6875 
L 48.1875 54.6875 
L 48.1875 46.484375 
L 14.40625 7.171875 
L 48.1875 7.171875 
L 48.1875 0 
L 4.296875 0 
L 4.296875 8.203125 
L 38.09375 47.515625 
L 5.515625 47.515625 
z
" id="DejaVuSans-122"/>
       </defs>
       <use xlink:href="#DejaVuSans-108"/>
       <use x="27.783203" xlink:href="#DejaVuSans-105"/>
       <use x="55.566406" xlink:href="#DejaVuSans-98"/>
       <use x="119.042969" xlink:href="#DejaVuSans-102"/>
       <use x="154.248047" xlink:href="#DejaVuSans-117"/>
       <use x="217.626953" xlink:href="#DejaVuSans-122"/>
       <use x="270.117188" xlink:href="#DejaVuSans-122"/>
       <use x="322.607422" xlink:href="#DejaVuSans-101"/>
       <use x="384.130859" xlink:href="#DejaVuSans-114"/>
      </g>
     </g>
    </g>
    <g id="xtick_7">
     <g id="line2d_7">
      <g>
       <use style="stroke:#000000;stroke-width:0.8;" x="311.248125" xlink:href="#ma02962b36f" y="288.430125"/>
      </g>
     </g>
     <g id="text_7">
      <!-- honggfuzz -->
      <g transform="translate(265.308924 327.933221)rotate(-30)scale(0.1 -0.1)">
       <defs>
        <path d="M 54.890625 33.015625 
L 54.890625 0 
L 45.90625 0 
L 45.90625 32.71875 
Q 45.90625 40.484375 42.875 44.328125 
Q 39.84375 48.1875 33.796875 48.1875 
Q 26.515625 48.1875 22.3125 43.546875 
Q 18.109375 38.921875 18.109375 30.90625 
L 18.109375 0 
L 9.078125 0 
L 9.078125 75.984375 
L 18.109375 75.984375 
L 18.109375 46.1875 
Q 21.34375 51.125 25.703125 53.5625 
Q 30.078125 56 35.796875 56 
Q 45.21875 56 50.046875 50.171875 
Q 54.890625 44.34375 54.890625 33.015625 
z
" id="DejaVuSans-104"/>
        <path d="M 45.40625 27.984375 
Q 45.40625 37.75 41.375 43.109375 
Q 37.359375 48.484375 30.078125 48.484375 
Q 22.859375 48.484375 18.828125 43.109375 
Q 14.796875 37.75 14.796875 27.984375 
Q 14.796875 18.265625 18.828125 12.890625 
Q 22.859375 7.515625 30.078125 7.515625 
Q 37.359375 7.515625 41.375 12.890625 
Q 45.40625 18.265625 45.40625 27.984375 
z
M 54.390625 6.78125 
Q 54.390625 -7.171875 48.1875 -13.984375 
Q 42 -20.796875 29.203125 -20.796875 
Q 24.46875 -20.796875 20.265625 -20.09375 
Q 16.0625 -19.390625 12.109375 -17.921875 
L 12.109375 -9.1875 
Q 16.0625 -11.328125 19.921875 -12.34375 
Q 23.78125 -13.375 27.78125 -13.375 
Q 36.625 -13.375 41.015625 -8.765625 
Q 45.40625 -4.15625 45.40625 5.171875 
L 45.40625 9.625 
Q 42.625 4.78125 38.28125 2.390625 
Q 33.9375 0 27.875 0 
Q 17.828125 0 11.671875 7.65625 
Q 5.515625 15.328125 5.515625 27.984375 
Q 5.515625 40.671875 11.671875 48.328125 
Q 17.828125 56 27.875 56 
Q 33.9375 56 38.28125 53.609375 
Q 42.625 51.21875 45.40625 46.390625 
L 45.40625 54.6875 
L 54.390625 54.6875 
z
" id="DejaVuSans-103"/>
       </defs>
       <use xlink:href="#DejaVuSans-104"/>
       <use x="63.378906" xlink:href="#DejaVuSans-111"/>
       <use x="124.560547" xlink:href="#DejaVuSans-110"/>
       <use x="187.939453" xlink:href="#DejaVuSans-103"/>
       <use x="251.416016" xlink:href="#DejaVuSans-103"/>
       <use x="314.892578" xlink:href="#DejaVuSans-102"/>
       <use x="350.097656" xlink:href="#DejaVuSans-117"/>
       <use x="413.476562" xlink:href="#DejaVuSans-122"/>
       <use x="465.966797" xlink:href="#DejaVuSans-122"/>
      </g>
     </g>
    </g>
    <g id="xtick_8">
     <g id="line2d_8">
      <g>
       <use style="stroke:#000000;stroke-width:0.8;" x="350.928125" xlink:href="#ma02962b36f" y="288.430125"/>
      </g>
     </g>
     <g id="text_8">
      <!-- fairfuzz -->
      <g transform="translate(317.93871 320.456659)rotate(-30)scale(0.1 -0.1)">
       <use xlink:href="#DejaVuSans-102"/>
       <use x="35.205078" xlink:href="#DejaVuSans-97"/>
       <use x="96.484375" xlink:href="#DejaVuSans-105"/>
       <use x="124.267578" xlink:href="#DejaVuSans-114"/>
       <use x="165.380859" xlink:href="#DejaVuSans-102"/>
       <use x="200.585938" xlink:href="#DejaVuSans-117"/>
       <use x="263.964844" xlink:href="#DejaVuSans-122"/>
       <use x="316.455078" xlink:href="#DejaVuSans-122"/>
      </g>
     </g>
    </g>
    <g id="xtick_9">
     <g id="line2d_9">
      <g>
       <use style="stroke:#000000;stroke-width:0.8;" x="390.608125" xlink:href="#ma02962b36f" y="288.430125"/>
      </g>
     </g>
     <g id="text_9">
      <!-- aflplusplus -->
      <g transform="translate(342.999118 328.897284)rotate(-30)scale(0.1 -0.1)">
       <use xlink:href="#DejaVuSans-97"/>
       <use x="61.279297" xlink:href="#DejaVuSans-102"/>
       <use x="96.484375" xlink:href="#DejaVuSans-108"/>
       <use x="124.267578" xlink:href="#DejaVuSans-112"/>
       <use x="187.744141" xlink:href="#DejaVuSans-108"/>
       <use x="215.527344" xlink:href="#DejaVuSans-117"/>
       <use x="278.90625" xlink:href="#DejaVuSans-115"/>
       <use x="331.005859" xlink:href="#DejaVuSans-112"/>
       <use x="394.482422" xlink:href="#DejaVuSans-108"/>
       <use x="422.265625" xlink:href="#DejaVuSans-117"/>
       <use x="485.644531" xlink:href="#DejaVuSans-115"/>
      </g>
     </g>
    </g>
    <g id="text_10">
     <!-- Fuzzer (highest median coverage on the left) -->
     <g transform="translate(119.270156 359.32749)scale(0.1 -0.1)">
      <defs>
       <path d="M 9.8125 72.90625 
L 51.703125 72.90625 
L 51.703125 64.59375 
L 19.671875 64.59375 
L 19.671875 43.109375 
L 48.578125 43.109375 
L 48.578125 34.8125 
L 19.671875 34.8125 
L 19.671875 0 
L 9.8125 0 
z
" id="DejaVuSans-70"/>
       <path id="DejaVuSans-32"/>
       <path d="M 31 75.875 
Q 24.46875 64.65625 21.28125 53.65625 
Q 18.109375 42.671875 18.109375 31.390625 
Q 18.109375 20.125 21.3125 9.0625 
Q 24.515625 -2 31 -13.1875 
L 23.1875 -13.1875 
Q 15.875 -1.703125 12.234375 9.375 
Q 8.59375 20.453125 8.59375 31.390625 
Q 8.59375 42.28125 12.203125 53.3125 
Q 15.828125 64.359375 23.1875 75.875 
z
" id="DejaVuSans-40"/>
       <path d="M 45.40625 46.390625 
L 45.40625 75.984375 
L 54.390625 75.984375 
L 54.390625 0 
L 45.40625 0 
L 45.40625 8.203125 
Q 42.578125 3.328125 38.25 0.953125 
Q 33.9375 -1.421875 27.875 -1.421875 
Q 17.96875 -1.421875 11.734375 6.484375 
Q 5.515625 14.40625 5.515625 27.296875 
Q 5.515625 40.1875 11.734375 48.09375 
Q 17.96875 56 27.875 56 
Q 33.9375 56 38.25 53.625 
Q 42.578125 51.265625 45.40625 46.390625 
z
M 14.796875 27.296875 
Q 14.796875 17.390625 18.875 11.75 
Q 22.953125 6.109375 30.078125 6.109375 
Q 37.203125 6.109375 41.296875 11.75 
Q 45.40625 17.390625 45.40625 27.296875 
Q 45.40625 37.203125 41.296875 42.84375 
Q 37.203125 48.484375 30.078125 48.484375 
Q 22.953125 48.484375 18.875 42.84375 
Q 14.796875 37.203125 14.796875 27.296875 
z
" id="DejaVuSans-100"/>
       <path d="M 2.984375 54.6875 
L 12.5 54.6875 
L 29.59375 8.796875 
L 46.6875 54.6875 
L 56.203125 54.6875 
L 35.6875 0 
L 23.484375 0 
z
" id="DejaVuSans-118"/>
       <path d="M 8.015625 75.875 
L 15.828125 75.875 
Q 23.140625 64.359375 26.78125 53.3125 
Q 30.421875 42.28125 30.421875 31.390625 
Q 30.421875 20.453125 26.78125 9.375 
Q 23.140625 -1.703125 15.828125 -13.1875 
L 8.015625 -13.1875 
Q 14.5 -2 17.703125 9.0625 
Q 20.90625 20.125 20.90625 31.390625 
Q 20.90625 42.671875 17.703125 53.65625 
Q 14.5 64.65625 8.015625 75.875 
z
" id="DejaVuSans-41"/>
      </defs>
      <use xlink:href="#DejaVuSans-70"/>
      <use x="52.019531" xlink:href="#DejaVuSans-117"/>
      <use x="115.398438" xlink:href="#DejaVuSans-122"/>
      <use x="167.888672" xlink:href="#DejaVuSans-122"/>
      <use x="220.378906" xlink:href="#DejaVuSans-101"/>
      <use x="281.902344" xlink:href="#DejaVuSans-114"/>
      <use x="323.015625" xlink:href="#DejaVuSans-32"/>
      <use x="354.802734" xlink:href="#DejaVuSans-40"/>
      <use x="393.816406" xlink:href="#DejaVuSans-104"/>
      <use x="457.195312" xlink:href="#DejaVuSans-105"/>
      <use x="484.978516" xlink:href="#DejaVuSans-103"/>
      <use x="548.455078" xlink:href="#DejaVuSans-104"/>
      <use x="611.833984" xlink:href="#DejaVuSans-101"/>
      <use x="673.357422" xlink:href="#DejaVuSans-115"/>
      <use x="725.457031" xlink:href="#DejaVuSans-116"/>
      <use x="764.666016" xlink:href="#DejaVuSans-32"/>
      <use x="796.453125" xlink:href="#DejaVuSans-109"/>
      <use x="893.865234" xlink:href="#DejaVuSans-101"/>
      <use x="955.388672" xlink:href="#DejaVuSans-100"/>
      <use x="1018.865234" xlink:href="#DejaVuSans-105"/>
      <use x="1046.648438" xlink:href="#DejaVuSans-97"/>
      <use x="1107.927734" xlink:href="#DejaVuSans-110"/>
      <use x="1171.306641" xlink:href="#DejaVuSans-32"/>
      <use x="1203.09375" xlink:href="#DejaVuSans-99"/>
      <use x="1258.074219" xlink:href="#DejaVuSans-111"/>
      <use x="1319.255859" xlink:href="#DejaVuSans-118"/>
      <use x="1378.435547" xlink:href="#DejaVuSans-101"/>
      <use x="1439.958984" xlink:href="#DejaVuSans-114"/>
      <use x="1481.072266" xlink:href="#DejaVuSans-97"/>
      <use x="1542.351562" xlink:href="#DejaVuSans-103"/>
      <use x="1605.828125" xlink:href="#DejaVuSans-101"/>
      <use x="1667.351562" xlink:href="#DejaVuSans-32"/>
      <use x="1699.138672" xlink:href="#DejaVuSans-111"/>
      <use x="1760.320312" xlink:href="#DejaVuSans-110"/>
      <use x="1823.699219" xlink:href="#DejaVuSans-32"/>
      <use x="1855.486328" xlink:href="#DejaVuSans-116"/>
      <use x="1894.695312" xlink:href="#DejaVuSans-104"/>
      <use x="1958.074219" xlink:href="#DejaVuSans-101"/>
      <use x="2019.597656" xlink:href="#DejaVuSans-32"/>
      <use x="2051.384766" xlink:href="#DejaVuSans-108"/>
      <use x="2079.167969" xlink:href="#DejaVuSans-101"/>
      <use x="2140.691406" xlink:href="#DejaVuSans-102"/>
      <use x="2174.146484" xlink:href="#DejaVuSans-116"/>
      <use x="2213.355469" xlink:href="#DejaVuSans-41"/>
     </g>
    </g>
   </g>
   <g id="matplotlib.axis_2">
    <g id="ytick_1">
     <g id="line2d_10">
      <defs>
       <path d="M 0 0 
L -3.5 0 
" id="m7b582eca53" style="stroke:#000000;stroke-width:0.8;"/>
      </defs>
      <g>
       <use style="stroke:#000000;stroke-width:0.8;" x="53.328125" xlink:href="#m7b582eca53" y="286.793009"/>
      </g>
     </g>
     <g id="text_11">
      <!-- 1700 -->
      <g transform="translate(20.878125 290.592228)scale(0.1 -0.1)">
       <defs>
        <path d="M 12.40625 8.296875 
L 28.515625 8.296875 
L 28.515625 63.921875 
L 10.984375 60.40625 
L 10.984375 69.390625 
L 28.421875 72.90625 
L 38.28125 72.90625 
L 38.28125 8.296875 
L 54.390625 8.296875 
L 54.390625 0 
L 12.40625 0 
z
" id="DejaVuSans-49"/>
        <path d="M 8.203125 72.90625 
L 55.078125 72.90625 
L 55.078125 68.703125 
L 28.609375 0 
L 18.3125 0 
L 43.21875 64.59375 
L 8.203125 64.59375 
z
" id="DejaVuSans-55"/>
        <path d="M 31.78125 66.40625 
Q 24.171875 66.40625 20.328125 58.90625 
Q 16.5 51.421875 16.5 36.375 
Q 16.5 21.390625 20.328125 13.890625 
Q 24.171875 6.390625 31.78125 6.390625 
Q 39.453125 6.390625 43.28125 13.890625 
Q 47.125 21.390625 47.125 36.375 
Q 47.125 51.421875 43.28125 58.90625 
Q 39.453125 66.40625 31.78125 66.40625 
z
M 31.78125 74.21875 
Q 44.046875 74.21875 50.515625 64.515625 
Q 56.984375 54.828125 56.984375 36.375 
Q 56.984375 17.96875 50.515625 8.265625 
Q 44.046875 -1.421875 31.78125 -1.421875 
Q 19.53125 -1.421875 13.0625 8.265625 
Q 6.59375 17.96875 6.59375 36.375 
Q 6.59375 54.828125 13.0625 64.515625 
Q 19.53125 74.21875 31.78125 74.21875 
z
" id="DejaVuSans-48"/>
       </defs>
       <use xlink:href="#DejaVuSans-49"/>
       <use x="63.623047" xlink:href="#DejaVuSans-55"/>
       <use x="127.246094" xlink:href="#DejaVuSans-48"/>
       <use x="190.869141" xlink:href="#DejaVuSans-48"/>
      </g>
     </g>
    </g>
    <g id="ytick_2">
     <g id="line2d_11">
      <g>
       <use style="stroke:#000000;stroke-width:0.8;" x="53.328125" xlink:href="#m7b582eca53" y="243.42044"/>
      </g>
     </g>
     <g id="text_12">
      <!-- 1800 -->
      <g transform="translate(20.878125 247.219659)scale(0.1 -0.1)">
       <defs>
        <path d="M 31.78125 34.625 
Q 24.75 34.625 20.71875 30.859375 
Q 16.703125 27.09375 16.703125 20.515625 
Q 16.703125 13.921875 20.71875 10.15625 
Q 24.75 6.390625 31.78125 6.390625 
Q 38.8125 6.390625 42.859375 10.171875 
Q 46.921875 13.96875 46.921875 20.515625 
Q 46.921875 27.09375 42.890625 30.859375 
Q 38.875 34.625 31.78125 34.625 
z
M 21.921875 38.8125 
Q 15.578125 40.375 12.03125 44.71875 
Q 8.5 49.078125 8.5 55.328125 
Q 8.5 64.0625 14.71875 69.140625 
Q 20.953125 74.21875 31.78125 74.21875 
Q 42.671875 74.21875 48.875 69.140625 
Q 55.078125 64.0625 55.078125 55.328125 
Q 55.078125 49.078125 51.53125 44.71875 
Q 48 40.375 41.703125 38.8125 
Q 48.828125 37.15625 52.796875 32.3125 
Q 56.78125 27.484375 56.78125 20.515625 
Q 56.78125 9.90625 50.3125 4.234375 
Q 43.84375 -1.421875 31.78125 -1.421875 
Q 19.734375 -1.421875 13.25 4.234375 
Q 6.78125 9.90625 6.78125 20.515625 
Q 6.78125 27.484375 10.78125 32.3125 
Q 14.796875 37.15625 21.921875 38.8125 
z
M 18.3125 54.390625 
Q 18.3125 48.734375 21.84375 45.5625 
Q 25.390625 42.390625 31.78125 42.390625 
Q 38.140625 42.390625 41.71875 45.5625 
Q 45.3125 48.734375 45.3125 54.390625 
Q 45.3125 60.0625 41.71875 63.234375 
Q 38.140625 66.40625 31.78125 66.40625 
Q 25.390625 66.40625 21.84375 63.234375 
Q 18.3125 60.0625 18.3125 54.390625 
z
" id="DejaVuSans-56"/>
       </defs>
       <use xlink:href="#DejaVuSans-49"/>
       <use x="63.623047" xlink:href="#DejaVuSans-56"/>
       <use x="127.246094" xlink:href="#DejaVuSans-48"/>
       <use x="190.869141" xlink:href="#DejaVuSans-48"/>
      </g>
     </g>
    </g>
    <g id="ytick_3">
     <g id="line2d_12">
      <g>
       <use style="stroke:#000000;stroke-width:0.8;" x="53.328125" xlink:href="#m7b582eca53" y="200.047871"/>
      </g>
     </g>
     <g id="text_13">
      <!-- 1900 -->
      <g transform="translate(20.878125 203.84709)scale(0.1 -0.1)">
       <defs>
        <path d="M 10.984375 1.515625 
L 10.984375 10.5 
Q 14.703125 8.734375 18.5 7.8125 
Q 22.3125 6.890625 25.984375 6.890625 
Q 35.75 6.890625 40.890625 13.453125 
Q 46.046875 20.015625 46.78125 33.40625 
Q 43.953125 29.203125 39.59375 26.953125 
Q 35.25 24.703125 29.984375 24.703125 
Q 19.046875 24.703125 12.671875 31.3125 
Q 6.296875 37.9375 6.296875 49.421875 
Q 6.296875 60.640625 12.9375 67.421875 
Q 19.578125 74.21875 30.609375 74.21875 
Q 43.265625 74.21875 49.921875 64.515625 
Q 56.59375 54.828125 56.59375 36.375 
Q 56.59375 19.140625 48.40625 8.859375 
Q 40.234375 -1.421875 26.421875 -1.421875 
Q 22.703125 -1.421875 18.890625 -0.6875 
Q 15.09375 0.046875 10.984375 1.515625 
z
M 30.609375 32.421875 
Q 37.25 32.421875 41.125 36.953125 
Q 45.015625 41.5 45.015625 49.421875 
Q 45.015625 57.28125 41.125 61.84375 
Q 37.25 66.40625 30.609375 66.40625 
Q 23.96875 66.40625 20.09375 61.84375 
Q 16.21875 57.28125 16.21875 49.421875 
Q 16.21875 41.5 20.09375 36.953125 
Q 23.96875 32.421875 30.609375 32.421875 
z
" id="DejaVuSans-57"/>
       </defs>
       <use xlink:href="#DejaVuSans-49"/>
       <use x="63.623047" xlink:href="#DejaVuSans-57"/>
       <use x="127.246094" xlink:href="#DejaVuSans-48"/>
       <use x="190.869141" xlink:href="#DejaVuSans-48"/>
      </g>
     </g>
    </g>
    <g id="ytick_4">
     <g id="line2d_13">
      <g>
       <use style="stroke:#000000;stroke-width:0.8;" x="53.328125" xlink:href="#m7b582eca53" y="156.675302"/>
      </g>
     </g>
     <g id="text_14">
      <!-- 2000 -->
      <g transform="translate(20.878125 160.474521)scale(0.1 -0.1)">
       <defs>
        <path d="M 19.1875 8.296875 
L 53.609375 8.296875 
L 53.609375 0 
L 7.328125 0 
L 7.328125 8.296875 
Q 12.9375 14.109375 22.625 23.890625 
Q 32.328125 33.6875 34.8125 36.53125 
Q 39.546875 41.84375 41.421875 45.53125 
Q 43.3125 49.21875 43.3125 52.78125 
Q 43.3125 58.59375 39.234375 62.25 
Q 35.15625 65.921875 28.609375 65.921875 
Q 23.96875 65.921875 18.8125 64.3125 
Q 13.671875 62.703125 7.8125 59.421875 
L 7.8125 69.390625 
Q 13.765625 71.78125 18.9375 73 
Q 24.125 74.21875 28.421875 74.21875 
Q 39.75 74.21875 46.484375 68.546875 
Q 53.21875 62.890625 53.21875 53.421875 
Q 53.21875 48.921875 51.53125 44.890625 
Q 49.859375 40.875 45.40625 35.40625 
Q 44.1875 33.984375 37.640625 27.21875 
Q 31.109375 20.453125 19.1875 8.296875 
z
" id="DejaVuSans-50"/>
       </defs>
       <use xlink:href="#DejaVuSans-50"/>
       <use x="63.623047" xlink:href="#DejaVuSans-48"/>
       <use x="127.246094" xlink:href="#DejaVuSans-48"/>
       <use x="190.869141" xlink:href="#DejaVuSans-48"/>
      </g>
     </g>
    </g>
    <g id="ytick_5">
     <g id="line2d_14">
      <g>
       <use style="stroke:#000000;stroke-width:0.8;" x="53.328125" xlink:href="#m7b582eca53" y="113.302733"/>
      </g>
     </g>
     <g id="text_15">
      <!-- 2100 -->
      <g transform="translate(20.878125 117.101952)scale(0.1 -0.1)">
       <use xlink:href="#DejaVuSans-50"/>
       <use x="63.623047" xlink:href="#DejaVuSans-49"/>
       <use x="127.246094" xlink:href="#DejaVuSans-48"/>
       <use x="190.869141" xlink:href="#DejaVuSans-48"/>
      </g>
     </g>
    </g>
    <g id="ytick_6">
     <g id="line2d_15">
      <g>
       <use style="stroke:#000000;stroke-width:0.8;" x="53.328125" xlink:href="#m7b582eca53" y="69.930164"/>
      </g>
     </g>
     <g id="text_16">
      <!-- 2200 -->
      <g transform="translate(20.878125 73.729383)scale(0.1 -0.1)">
       <use xlink:href="#DejaVuSans-50"/>
       <use x="63.623047" xlink:href="#DejaVuSans-50"/>
       <use x="127.246094" xlink:href="#DejaVuSans-48"/>
       <use x="190.869141" xlink:href="#DejaVuSans-48"/>
      </g>
     </g>
    </g>
    <g id="ytick_7">
     <g id="line2d_16">
      <g>
       <use style="stroke:#000000;stroke-width:0.8;" x="53.328125" xlink:href="#m7b582eca53" y="26.557595"/>
      </g>
     </g>
     <g id="text_17">
      <!-- 2300 -->
      <g transform="translate(20.878125 30.356814)scale(0.1 -0.1)">
       <defs>
        <path d="M 40.578125 39.3125 
Q 47.65625 37.796875 51.625 33 
Q 55.609375 28.21875 55.609375 21.1875 
Q 55.609375 10.40625 48.1875 4.484375 
Q 40.765625 -1.421875 27.09375 -1.421875 
Q 22.515625 -1.421875 17.65625 -0.515625 
Q 12.796875 0.390625 7.625 2.203125 
L 7.625 11.71875 
Q 11.71875 9.328125 16.59375 8.109375 
Q 21.484375 6.890625 26.8125 6.890625 
Q 36.078125 6.890625 40.9375 10.546875 
Q 45.796875 14.203125 45.796875 21.1875 
Q 45.796875 27.640625 41.28125 31.265625 
Q 36.765625 34.90625 28.71875 34.90625 
L 20.21875 34.90625 
L 20.21875 43.015625 
L 29.109375 43.015625 
Q 36.375 43.015625 40.234375 45.921875 
Q 44.09375 48.828125 44.09375 54.296875 
Q 44.09375 59.90625 40.109375 62.90625 
Q 36.140625 65.921875 28.71875 65.921875 
Q 24.65625 65.921875 20.015625 65.03125 
Q 15.375 64.15625 9.8125 62.3125 
L 9.8125 71.09375 
Q 15.4375 72.65625 20.34375 73.4375 
Q 25.25 74.21875 29.59375 74.21875 
Q 40.828125 74.21875 47.359375 69.109375 
Q 53.90625 64.015625 53.90625 55.328125 
Q 53.90625 49.265625 50.4375 45.09375 
Q 46.96875 40.921875 40.578125 39.3125 
z
" id="DejaVuSans-51"/>
       </defs>
       <use xlink:href="#DejaVuSans-50"/>
       <use x="63.623047" xlink:href="#DejaVuSans-51"/>
       <use x="127.246094" xlink:href="#DejaVuSans-48"/>
       <use x="190.869141" xlink:href="#DejaVuSans-48"/>
      </g>
     </g>
    </g>
    <g id="text_18">
     <!-- Reached region coverage -->
     <g transform="translate(14.798438 219.136625)rotate(-90)scale(0.1 -0.1)">
      <defs>
       <path d="M 44.390625 34.1875 
Q 47.5625 33.109375 50.5625 29.59375 
Q 53.5625 26.078125 56.59375 19.921875 
L 66.609375 0 
L 56 0 
L 46.6875 18.703125 
Q 43.0625 26.03125 39.671875 28.421875 
Q 36.28125 30.8125 30.421875 30.8125 
L 19.671875 30.8125 
L 19.671875 0 
L 9.8125 0 
L 9.8125 72.90625 
L 32.078125 72.90625 
Q 44.578125 72.90625 50.734375 67.671875 
Q 56.890625 62.453125 56.890625 51.90625 
Q 56.890625 45.015625 53.6875 40.46875 
Q 50.484375 35.9375 44.390625 34.1875 
z
M 19.671875 64.796875 
L 19.671875 38.921875 
L 32.078125 38.921875 
Q 39.203125 38.921875 42.84375 42.21875 
Q 46.484375 45.515625 46.484375 51.90625 
Q 46.484375 58.296875 42.84375 61.546875 
Q 39.203125 64.796875 32.078125 64.796875 
z
" id="DejaVuSans-82"/>
      </defs>
      <use xlink:href="#DejaVuSans-82"/>
      <use x="64.982422" xlink:href="#DejaVuSans-101"/>
      <use x="126.505859" xlink:href="#DejaVuSans-97"/>
      <use x="187.785156" xlink:href="#DejaVuSans-99"/>
      <use x="242.765625" xlink:href="#DejaVuSans-104"/>
      <use x="306.144531" xlink:href="#DejaVuSans-101"/>
      <use x="367.667969" xlink:href="#DejaVuSans-100"/>
      <use x="431.144531" xlink:href="#DejaVuSans-32"/>
      <use x="462.931641" xlink:href="#DejaVuSans-114"/>
      <use x="501.794922" xlink:href="#DejaVuSans-101"/>
      <use x="563.318359" xlink:href="#DejaVuSans-103"/>
      <use x="626.794922" xlink:href="#DejaVuSans-105"/>
      <use x="654.578125" xlink:href="#DejaVuSans-111"/>
      <use x="715.759766" xlink:href="#DejaVuSans-110"/>
      <use x="779.138672" xlink:href="#DejaVuSans-32"/>
      <use x="810.925781" xlink:href="#DejaVuSans-99"/>
      <use x="865.90625" xlink:href="#DejaVuSans-111"/>
      <use x="927.087891" xlink:href="#DejaVuSans-118"/>
      <use x="986.267578" xlink:href="#DejaVuSans-101"/>
      <use x="1047.791016" xlink:href="#DejaVuSans-114"/>
      <use x="1088.904297" xlink:href="#DejaVuSans-97"/>
      <use x="1150.183594" xlink:href="#DejaVuSans-103"/>
      <use x="1213.660156" xlink:href="#DejaVuSans-101"/>
     </g>
    </g>
   </g>
   <g id="line2d_17">
    <path clip-path="url(#peea831b655)" d="M 73.168125 86.845466 
L 73.168125 80.773306 
" style="fill:none;stroke:#3d3d3d;stroke-linecap:square;stroke-width:1.5;"/>
   </g>
   <g id="line2d_18">
    <path clip-path="url(#peea831b655)" d="M 73.168125 85.110563 
L 73.168125 82.291346 
" style="fill:none;stroke:#3d3d3d;stroke-linecap:square;stroke-width:4.5;"/>
   </g>
   <g id="line2d_19">
    <path clip-path="url(#peea831b655)" d="M 112.848125 105.495671 
L 112.848125 82.074483 
" style="fill:none;stroke:#3d3d3d;stroke-linecap:square;stroke-width:1.5;"/>
   </g>
   <g id="line2d_20">
    <path clip-path="url(#peea831b655)" d="M 112.848125 92.809194 
L 112.848125 83.592523 
" style="fill:none;stroke:#3d3d3d;stroke-linecap:square;stroke-width:4.5;"/>
   </g>
   <g id="line2d_21">
    <path clip-path="url(#peea831b655)" d="M 152.528125 95.51998 
L 152.528125 82.074483 
" style="fill:none;stroke:#3d3d3d;stroke-linecap:square;stroke-width:1.5;"/>
   </g>
   <g id="line2d_22">
    <path clip-path="url(#peea831b655)" d="M 152.528125 90.423703 
L 152.528125 85.110563 
" style="fill:none;stroke:#3d3d3d;stroke-linecap:square;stroke-width:4.5;"/>
   </g>
   <g id="line2d_23">
    <path clip-path="url(#peea831b655)" d="M 192.208125 88.146643 
L 192.208125 81.640758 
" style="fill:none;stroke:#3d3d3d;stroke-linecap:square;stroke-width:1.5;"/>
   </g>
   <g id="line2d_24">
    <path clip-path="url(#peea831b655)" d="M 192.208125 86.953898 
L 192.208125 84.568406 
" style="fill:none;stroke:#3d3d3d;stroke-linecap:square;stroke-width:4.5;"/>
   </g>
   <g id="line2d_25">
    <path clip-path="url(#peea831b655)" d="M 231.888125 90.748997 
L 231.888125 85.978015 
" style="fill:none;stroke:#3d3d3d;stroke-linecap:square;stroke-width:1.5;"/>
   </g>
   <g id="line2d_26">
    <path clip-path="url(#peea831b655)" d="M 231.888125 88.146643 
L 231.888125 86.41174 
" style="fill:none;stroke:#3d3d3d;stroke-linecap:square;stroke-width:4.5;"/>
   </g>
   <g id="line2d_27">
    <path clip-path="url(#peea831b655)" d="M 271.568125 91.616449 
L 271.568125 85.978015 
" style="fill:none;stroke:#3d3d3d;stroke-linecap:square;stroke-width:1.5;"/>
   </g>
   <g id="line2d_28">
    <path clip-path="url(#peea831b655)" d="M 271.568125 89.664683 
L 271.568125 87.496055 
" style="fill:none;stroke:#3d3d3d;stroke-linecap:square;stroke-width:4.5;"/>
   </g>
   <g id="line2d_29">
    <path clip-path="url(#peea831b655)" d="M 311.248125 91.182723 
L 311.248125 87.712917 
" style="fill:none;stroke:#3d3d3d;stroke-linecap:square;stroke-width:1.5;"/>
   </g>
   <g id="line2d_30">
    <path clip-path="url(#peea831b655)" d="M 311.248125 89.881546 
L 311.248125 88.797232 
" style="fill:none;stroke:#3d3d3d;stroke-linecap:square;stroke-width:4.5;"/>
   </g>
   <g id="line2d_31">
    <path clip-path="url(#peea831b655)" d="M 350.928125 128.049407 
L 350.928125 84.676838 
" style="fill:none;stroke:#3d3d3d;stroke-linecap:square;stroke-width:1.5;"/>
   </g>
   <g id="line2d_32">
    <path clip-path="url(#peea831b655)" d="M 350.928125 113.302733 
L 350.928125 89.881546 
" style="fill:none;stroke:#3d3d3d;stroke-linecap:square;stroke-width:4.5;"/>
   </g>
   <g id="line2d_33">
    <path clip-path="url(#peea831b655)" d="M 390.608125 225.637687 
L 390.608125 85.110563 
" style="fill:none;stroke:#3d3d3d;stroke-linecap:square;stroke-width:1.5;"/>
   </g>
   <g id="line2d_34">
    <path clip-path="url(#peea831b655)" d="M 390.608125 165.024522 
L 390.608125 87.17076 
" style="fill:none;stroke:#3d3d3d;stroke-linecap:square;stroke-width:4.5;"/>
   </g>
   <g id="patch_3">
    <path d="M 53.328125 286.793009 
L 53.328125 26.557595 
" style="fill:none;stroke:#000000;stroke-linecap:square;stroke-linejoin:miter;stroke-width:0.8;"/>
   </g>
   <g id="patch_4">
    <path d="M 73.168125 288.430125 
L 390.608125 288.430125 
" style="fill:none;stroke:#000000;stroke-linecap:square;stroke-linejoin:miter;stroke-width:0.8;"/>
   </g>
   <g id="PathCollection_1">
    <defs>
     <path d="M 0 1.5 
C 0.397805 1.5 0.77937 1.341951 1.06066 1.06066 
C 1.341951 0.77937 1.5 0.397805 1.5 0 
C 1.5 -0.397805 1.341951 -0.77937 1.06066 -1.06066 
C 0.77937 -1.341951 0.397805 -1.5 0 -1.5 
C -0.397805 -1.5 -0.77937 -1.341951 -1.06066 -1.06066 
C -1.341951 -0.77937 -1.5 -0.397805 -1.5 0 
C -1.5 0.397805 -1.341951 0.77937 -1.06066 1.06066 
C -0.77937 1.341951 -0.397805 1.5 0 1.5 
z
" id="m85d732b43c" style="stroke:#3d3d3d;"/>
    </defs>
    <g clip-path="url(#peea831b655)">
     <use style="fill:#ffffff;stroke:#3d3d3d;" x="73.168125" xlink:href="#m85d732b43c" y="84.243112"/>
    </g>
   </g>
   <g id="PathCollection_2">
    <g clip-path="url(#peea831b655)">
     <use style="fill:#ffffff;stroke:#3d3d3d;" x="112.848125" xlink:href="#m85d732b43c" y="85.978015"/>
    </g>
   </g>
   <g id="PathCollection_3">
    <g clip-path="url(#peea831b655)">
     <use style="fill:#ffffff;stroke:#3d3d3d;" x="152.528125" xlink:href="#m85d732b43c" y="86.628603"/>
    </g>
   </g>
   <g id="PathCollection_4">
    <g clip-path="url(#peea831b655)">
     <use style="fill:#ffffff;stroke:#3d3d3d;" x="192.208125" xlink:href="#m85d732b43c" y="86.845466"/>
    </g>
   </g>
   <g id="PathCollection_5">
    <g clip-path="url(#peea831b655)">
     <use style="fill:#ffffff;stroke:#3d3d3d;" x="231.888125" xlink:href="#m85d732b43c" y="87.712917"/>
    </g>
   </g>
   <g id="PathCollection_6">
    <g clip-path="url(#peea831b655)">
     <use style="fill:#ffffff;stroke:#3d3d3d;" x="271.568125" xlink:href="#m85d732b43c" y="89.014095"/>
    </g>
   </g>
   <g id="PathCollection_7">
    <g clip-path="url(#peea831b655)">
     <use style="fill:#ffffff;stroke:#3d3d3d;" x="311.248125" xlink:href="#m85d732b43c" y="89.44782"/>
    </g>
   </g>
   <g id="PathCollection_8">
    <g clip-path="url(#peea831b655)">
     <use style="fill:#ffffff;stroke:#3d3d3d;" x="350.928125" xlink:href="#m85d732b43c" y="94.00194"/>
    </g>
   </g>
   <g id="PathCollection_9">
    <g clip-path="url(#peea831b655)">
     <use style="fill:#ffffff;stroke:#3d3d3d;" x="390.608125" xlink:href="#m85d732b43c" y="136.073332"/>
    </g>
   </g>
   <g id="text_19">
    <!-- vorbis-2017-12-11 (23h, 18 trials/fuzzer) -->
    <g transform="translate(109.834063 16.318125)scale(0.12 -0.12)">
     <defs>
      <path d="M 4.890625 31.390625 
L 31.203125 31.390625 
L 31.203125 23.390625 
L 4.890625 23.390625 
z
" id="DejaVuSans-45"/>
      <path d="M 11.71875 12.40625 
L 22.015625 12.40625 
L 22.015625 4 
L 14.015625 -11.625 
L 7.71875 -11.625 
L 11.71875 4 
z
" id="DejaVuSans-44"/>
      <path d="M 25.390625 72.90625 
L 33.6875 72.90625 
L 8.296875 -9.28125 
L 0 -9.28125 
z
" id="DejaVuSans-47"/>
     </defs>
     <use xlink:href="#DejaVuSans-118"/>
     <use x="59.179688" xlink:href="#DejaVuSans-111"/>
     <use x="120.361328" xlink:href="#DejaVuSans-114"/>
     <use x="161.474609" xlink:href="#DejaVuSans-98"/>
     <use x="224.951172" xlink:href="#DejaVuSans-105"/>
     <use x="252.734375" xlink:href="#DejaVuSans-115"/>
     <use x="304.833984" xlink:href="#DejaVuSans-45"/>
     <use x="340.917969" xlink:href="#DejaVuSans-50"/>
     <use x="404.541016" xlink:href="#DejaVuSans-48"/>
     <use x="468.164062" xlink:href="#DejaVuSans-49"/>
     <use x="531.787109" xlink:href="#DejaVuSans-55"/>
     <use x="595.410156" xlink:href="#DejaVuSans-45"/>
     <use x="631.494141" xlink:href="#DejaVuSans-49"/>
     <use x="695.117188" xlink:href="#DejaVuSans-50"/>
     <use x="758.740234" xlink:href="#DejaVuSans-45"/>
     <use x="794.824219" xlink:href="#DejaVuSans-49"/>
     <use x="858.447266" xlink:href="#DejaVuSans-49"/>
     <use x="922.070312" xlink:href="#DejaVuSans-32"/>
     <use x="953.857422" xlink:href="#DejaVuSans-40"/>
     <use x="992.871094" xlink:href="#DejaVuSans-50"/>
     <use x="1056.494141" xlink:href="#DejaVuSans-51"/>
     <use x="1120.117188" xlink:href="#DejaVuSans-104"/>
     <use x="1183.496094" xlink:href="#DejaVuSans-44"/>
     <use x="1215.283203" xlink:href="#DejaVuSans-32"/>
     <use x="1247.070312" xlink:href="#DejaVuSans-49"/>
     <use x="1310.693359" xlink:href="#DejaVuSans-56"/>
     <use x="1374.316406" xlink:href="#DejaVuSans-32"/>
     <use x="1406.103516" xlink:href="#DejaVuSans-116"/>
     <use x="1445.3125" xlink:href="#DejaVuSans-114"/>
     <use x="1486.425781" xlink:href="#DejaVuSans-105"/>
     <use x="1514.208984" xlink:href="#DejaVuSans-97"/>
     <use x="1575.488281" xlink:href="#DejaVuSans-108"/>
     <use x="1603.271484" xlink:href="#DejaVuSans-115"/>
     <use x="1655.371094" xlink:href="#DejaVuSans-47"/>
     <use x="1689.0625" xlink:href="#DejaVuSans-102"/>
     <use x="1724.267578" xlink:href="#DejaVuSans-117"/>
     <use x="1787.646484" xlink:href="#DejaVuSans-122"/>
     <use x="1840.136719" xlink:href="#DejaVuSans-122"/>
     <use x="1892.626953" xlink:href="#DejaVuSans-101"/>
     <use x="1954.150391" xlink:href="#DejaVuSans-114"/>
     <use x="1995.263672" xlink:href="#DejaVuSans-41"/>
    </g>
   </g>
  </g>
 </g>
 <defs>
  <clipPath id="peea831b655">
   <rect height="266.112" width="357.12" x="53.328125" y="22.318125"/>
  </clipPath>
 </defs>
</svg>
