<?xml version="1.0" encoding="utf-8" standalone="no"?>
<!DOCTYPE svg PUBLIC "-//W3C//DTD SVG 1.1//EN"
  "http://www.w3.org/Graphics/SVG/1.1/DTD/svg11.dtd">
<!-- Created with matplotlib (https://matplotlib.org/) -->
<svg height="325.986375pt" version="1.1" viewBox="0 0 891.75875 325.986375" width="891.75875pt" xmlns="http://www.w3.org/2000/svg" xmlns:xlink="http://www.w3.org/1999/xlink">
 <metadata>
  <rdf:RDF xmlns:cc="http://creativecommons.org/ns#" xmlns:dc="http://purl.org/dc/elements/1.1/" xmlns:rdf="http://www.w3.org/1999/02/22-rdf-syntax-ns#">
   <cc:Work>
    <dc:type rdf:resource="http://purl.org/dc/dcmitype/StillImage"/>
    <dc:date>2020-12-06T10:29:18.714649</dc:date>
    <dc:format>image/svg+xml</dc:format>
    <dc:creator>
     <cc:Agent>
      <dc:title>Matplotlib v3.3.3, https://matplotlib.org/</dc:title>
     </cc:Agent>
    </dc:creator>
   </cc:Work>
  </rdf:RDF>
 </metadata>
 <defs>
  <style type="text/css">*{stroke-linecap:butt;stroke-linejoin:round;}</style>
 </defs>
 <g id="figure_1">
  <g id="patch_1">
   <path d="M 0 325.986375 
L 891.75875 325.986375 
L 891.75875 0 
L 0 0 
z
" style="fill:#ffffff;"/>
  </g>
  <g id="axes_1">
   <g id="patch_2">
    <path d="M 46.965625 288.430125 
L 761.205625 288.430125 
L 761.205625 22.318125 
L 46.965625 22.318125 
z
" style="fill:#ffffff;"/>
   </g>
   <g id="matplotlib.axis_1">
    <g id="xtick_1">
     <g id="line2d_1">
      <defs>
       <path d="M 0 0 
L 0 3.5 
" id="mf256894e80" style="stroke:#000000;stroke-width:0.8;"/>
      </defs>
      <g>
       <use style="stroke:#000000;stroke-width:0.8;" x="79.43108" xlink:href="#mf256894e80" y="288.430125"/>
      </g>
     </g>
     <g id="text_1">
      <!-- 14m -->
      <g transform="translate(68.198267 303.028562)scale(0.1 -0.1)">
       <defs>
        <path d="M 12.40625 8.296875 
L 28.515625 8.296875 
L 28.515625 63.921875 
L 10.984375 60.40625 
L 10.984375 69.390625 
L 28.421875 72.90625 
L 38.28125 72.90625 
L 38.28125 8.296875 
L 54.390625 8.296875 
L 54.390625 0 
L 12.40625 0 
z
" id="DejaVuSans-49"/>
        <path d="M 37.796875 64.3125 
L 12.890625 25.390625 
L 37.796875 25.390625 
z
M 35.203125 72.90625 
L 47.609375 72.90625 
L 47.609375 25.390625 
L 58.015625 25.390625 
L 58.015625 17.1875 
L 47.609375 17.1875 
L 47.609375 0 
L 37.796875 0 
L 37.796875 17.1875 
L 4.890625 17.1875 
L 4.890625 26.703125 
z
" id="DejaVuSans-52"/>
        <path d="M 52 44.1875 
Q 55.375 50.25 60.0625 53.125 
Q 64.75 56 71.09375 56 
Q 79.640625 56 84.28125 50.015625 
Q 88.921875 44.046875 88.921875 33.015625 
L 88.921875 0 
L 79.890625 0 
L 79.890625 32.71875 
Q 79.890625 40.578125 77.09375 44.375 
Q 74.3125 48.1875 68.609375 48.1875 
Q 61.625 48.1875 57.5625 43.546875 
Q 53.515625 38.921875 53.515625 30.90625 
L 53.515625 0 
L 44.484375 0 
L 44.484375 32.71875 
Q 44.484375 40.625 41.703125 44.40625 
Q 38.921875 48.1875 33.109375 48.1875 
Q 26.21875 48.1875 22.15625 43.53125 
Q 18.109375 38.875 18.109375 30.90625 
L 18.109375 0 
L 9.078125 0 
L 9.078125 54.6875 
L 18.109375 54.6875 
L 18.109375 46.1875 
Q 21.1875 51.21875 25.484375 53.609375 
Q 29.78125 56 35.6875 56 
Q 41.65625 56 45.828125 52.96875 
Q 50 49.953125 52 44.1875 
z
" id="DejaVuSans-109"/>
       </defs>
       <use xlink:href="#DejaVuSans-49"/>
       <use x="63.623047" xlink:href="#DejaVuSans-52"/>
       <use x="127.246094" xlink:href="#DejaVuSans-109"/>
      </g>
     </g>
    </g>
    <g id="xtick_2">
     <g id="line2d_2">
      <g>
       <use style="stroke:#000000;stroke-width:0.8;" x="138.459336" xlink:href="#mf256894e80" y="288.430125"/>
      </g>
     </g>
     <g id="text_2">
      <!-- 22m -->
      <g transform="translate(127.226524 303.028562)scale(0.1 -0.1)">
       <defs>
        <path d="M 19.1875 8.296875 
L 53.609375 8.296875 
L 53.609375 0 
L 7.328125 0 
L 7.328125 8.296875 
Q 12.9375 14.109375 22.625 23.890625 
Q 32.328125 33.6875 34.8125 36.53125 
Q 39.546875 41.84375 41.421875 45.53125 
Q 43.3125 49.21875 43.3125 52.78125 
Q 43.3125 58.59375 39.234375 62.25 
Q 35.15625 65.921875 28.609375 65.921875 
Q 23.96875 65.921875 18.8125 64.3125 
Q 13.671875 62.703125 7.8125 59.421875 
L 7.8125 69.390625 
Q 13.765625 71.78125 18.9375 73 
Q 24.125 74.21875 28.421875 74.21875 
Q 39.75 74.21875 46.484375 68.546875 
Q 53.21875 62.890625 53.21875 53.421875 
Q 53.21875 48.921875 51.53125 44.890625 
Q 49.859375 40.875 45.40625 35.40625 
Q 44.1875 33.984375 37.640625 27.21875 
Q 31.109375 20.453125 19.1875 8.296875 
z
" id="DejaVuSans-50"/>
       </defs>
       <use xlink:href="#DejaVuSans-50"/>
       <use x="63.623047" xlink:href="#DejaVuSans-50"/>
       <use x="127.246094" xlink:href="#DejaVuSans-109"/>
      </g>
     </g>
    </g>
    <g id="xtick_3">
     <g id="line2d_3">
      <g>
       <use style="stroke:#000000;stroke-width:0.8;" x="197.487593" xlink:href="#mf256894e80" y="288.430125"/>
      </g>
     </g>
     <g id="text_3">
      <!-- 34m -->
      <g transform="translate(186.254781 303.028562)scale(0.1 -0.1)">
       <defs>
        <path d="M 40.578125 39.3125 
Q 47.65625 37.796875 51.625 33 
Q 55.609375 28.21875 55.609375 21.1875 
Q 55.609375 10.40625 48.1875 4.484375 
Q 40.765625 -1.421875 27.09375 -1.421875 
Q 22.515625 -1.421875 17.65625 -0.515625 
Q 12.796875 0.390625 7.625 2.203125 
L 7.625 11.71875 
Q 11.71875 9.328125 16.59375 8.109375 
Q 21.484375 6.890625 26.8125 6.890625 
Q 36.078125 6.890625 40.9375 10.546875 
Q 45.796875 14.203125 45.796875 21.1875 
Q 45.796875 27.640625 41.28125 31.265625 
Q 36.765625 34.90625 28.71875 34.90625 
L 20.21875 34.90625 
L 20.21875 43.015625 
L 29.109375 43.015625 
Q 36.375 43.015625 40.234375 45.921875 
Q 44.09375 48.828125 44.09375 54.296875 
Q 44.09375 59.90625 40.109375 62.90625 
Q 36.140625 65.921875 28.71875 65.921875 
Q 24.65625 65.921875 20.015625 65.03125 
Q 15.375 64.15625 9.8125 62.3125 
L 9.8125 71.09375 
Q 15.4375 72.65625 20.34375 73.4375 
Q 25.25 74.21875 29.59375 74.21875 
Q 40.828125 74.21875 47.359375 69.109375 
Q 53.90625 64.015625 53.90625 55.328125 
Q 53.90625 49.265625 50.4375 45.09375 
Q 46.96875 40.921875 40.578125 39.3125 
z
" id="DejaVuSans-51"/>
       </defs>
       <use xlink:href="#DejaVuSans-51"/>
       <use x="63.623047" xlink:href="#DejaVuSans-52"/>
       <use x="127.246094" xlink:href="#DejaVuSans-109"/>
      </g>
     </g>
    </g>
    <g id="xtick_4">
     <g id="line2d_4">
      <g>
       <use style="stroke:#000000;stroke-width:0.8;" x="256.51585" xlink:href="#mf256894e80" y="288.430125"/>
      </g>
     </g>
     <g id="text_4">
      <!-- 51m -->
      <g transform="translate(245.283038 303.028562)scale(0.1 -0.1)">
       <defs>
        <path d="M 10.796875 72.90625 
L 49.515625 72.90625 
L 49.515625 64.59375 
L 19.828125 64.59375 
L 19.828125 46.734375 
Q 21.96875 47.46875 24.109375 47.828125 
Q 26.265625 48.1875 28.421875 48.1875 
Q 40.625 48.1875 47.75 41.5 
Q 54.890625 34.8125 54.890625 23.390625 
Q 54.890625 11.625 47.5625 5.09375 
Q 40.234375 -1.421875 26.90625 -1.421875 
Q 22.3125 -1.421875 17.546875 -0.640625 
Q 12.796875 0.140625 7.71875 1.703125 
L 7.71875 11.625 
Q 12.109375 9.234375 16.796875 8.0625 
Q 21.484375 6.890625 26.703125 6.890625 
Q 35.15625 6.890625 40.078125 11.328125 
Q 45.015625 15.765625 45.015625 23.390625 
Q 45.015625 31 40.078125 35.4375 
Q 35.15625 39.890625 26.703125 39.890625 
Q 22.75 39.890625 18.8125 39.015625 
Q 14.890625 38.140625 10.796875 36.28125 
z
" id="DejaVuSans-53"/>
       </defs>
       <use xlink:href="#DejaVuSans-53"/>
       <use x="63.623047" xlink:href="#DejaVuSans-49"/>
       <use x="127.246094" xlink:href="#DejaVuSans-109"/>
      </g>
     </g>
    </g>
    <g id="xtick_5">
     <g id="line2d_5">
      <g>
       <use style="stroke:#000000;stroke-width:0.8;" x="315.544107" xlink:href="#mf256894e80" y="288.430125"/>
      </g>
     </g>
     <g id="text_5">
      <!-- 1h:17m -->
      <g transform="translate(296.276919 303.028562)scale(0.1 -0.1)">
       <defs>
        <path d="M 54.890625 33.015625 
L 54.890625 0 
L 45.90625 0 
L 45.90625 32.71875 
Q 45.90625 40.484375 42.875 44.328125 
Q 39.84375 48.1875 33.796875 48.1875 
Q 26.515625 48.1875 22.3125 43.546875 
Q 18.109375 38.921875 18.109375 30.90625 
L 18.109375 0 
L 9.078125 0 
L 9.078125 75.984375 
L 18.109375 75.984375 
L 18.109375 46.1875 
Q 21.34375 51.125 25.703125 53.5625 
Q 30.078125 56 35.796875 56 
Q 45.21875 56 50.046875 50.171875 
Q 54.890625 44.34375 54.890625 33.015625 
z
" id="DejaVuSans-104"/>
        <path d="M 11.71875 12.40625 
L 22.015625 12.40625 
L 22.015625 0 
L 11.71875 0 
z
M 11.71875 51.703125 
L 22.015625 51.703125 
L 22.015625 39.3125 
L 11.71875 39.3125 
z
" id="DejaVuSans-58"/>
        <path d="M 8.203125 72.90625 
L 55.078125 72.90625 
L 55.078125 68.703125 
L 28.609375 0 
L 18.3125 0 
L 43.21875 64.59375 
L 8.203125 64.59375 
z
" id="DejaVuSans-55"/>
       </defs>
       <use xlink:href="#DejaVuSans-49"/>
       <use x="63.623047" xlink:href="#DejaVuSans-104"/>
       <use x="127.001953" xlink:href="#DejaVuSans-58"/>
       <use x="160.693359" xlink:href="#DejaVuSans-49"/>
       <use x="224.316406" xlink:href="#DejaVuSans-55"/>
       <use x="287.939453" xlink:href="#DejaVuSans-109"/>
      </g>
     </g>
    </g>
    <g id="xtick_6">
     <g id="line2d_6">
      <g>
       <use style="stroke:#000000;stroke-width:0.8;" x="374.572364" xlink:href="#mf256894e80" y="288.430125"/>
      </g>
     </g>
     <g id="text_6">
      <!-- 1h:57m -->
      <g transform="translate(355.305176 303.028562)scale(0.1 -0.1)">
       <use xlink:href="#DejaVuSans-49"/>
       <use x="63.623047" xlink:href="#DejaVuSans-104"/>
       <use x="127.001953" xlink:href="#DejaVuSans-58"/>
       <use x="160.693359" xlink:href="#DejaVuSans-53"/>
       <use x="224.316406" xlink:href="#DejaVuSans-55"/>
       <use x="287.939453" xlink:href="#DejaVuSans-109"/>
      </g>
     </g>
    </g>
    <g id="xtick_7">
     <g id="line2d_7">
      <g>
       <use style="stroke:#000000;stroke-width:0.8;" x="433.600621" xlink:href="#mf256894e80" y="288.430125"/>
      </g>
     </g>
     <g id="text_7">
      <!-- 2h:56m -->
      <g transform="translate(414.333433 303.028562)scale(0.1 -0.1)">
       <defs>
        <path d="M 33.015625 40.375 
Q 26.375 40.375 22.484375 35.828125 
Q 18.609375 31.296875 18.609375 23.390625 
Q 18.609375 15.53125 22.484375 10.953125 
Q 26.375 6.390625 33.015625 6.390625 
Q 39.65625 6.390625 43.53125 10.953125 
Q 47.40625 15.53125 47.40625 23.390625 
Q 47.40625 31.296875 43.53125 35.828125 
Q 39.65625 40.375 33.015625 40.375 
z
M 52.59375 71.296875 
L 52.59375 62.3125 
Q 48.875 64.0625 45.09375 64.984375 
Q 41.3125 65.921875 37.59375 65.921875 
Q 27.828125 65.921875 22.671875 59.328125 
Q 17.53125 52.734375 16.796875 39.40625 
Q 19.671875 43.65625 24.015625 45.921875 
Q 28.375 48.1875 33.59375 48.1875 
Q 44.578125 48.1875 50.953125 41.515625 
Q 57.328125 34.859375 57.328125 23.390625 
Q 57.328125 12.15625 50.6875 5.359375 
Q 44.046875 -1.421875 33.015625 -1.421875 
Q 20.359375 -1.421875 13.671875 8.265625 
Q 6.984375 17.96875 6.984375 36.375 
Q 6.984375 53.65625 15.1875 63.9375 
Q 23.390625 74.21875 37.203125 74.21875 
Q 40.921875 74.21875 44.703125 73.484375 
Q 48.484375 72.75 52.59375 71.296875 
z
" id="DejaVuSans-54"/>
       </defs>
       <use xlink:href="#DejaVuSans-50"/>
       <use x="63.623047" xlink:href="#DejaVuSans-104"/>
       <use x="127.001953" xlink:href="#DejaVuSans-58"/>
       <use x="160.693359" xlink:href="#DejaVuSans-53"/>
       <use x="224.316406" xlink:href="#DejaVuSans-54"/>
       <use x="287.939453" xlink:href="#DejaVuSans-109"/>
      </g>
     </g>
    </g>
    <g id="xtick_8">
     <g id="line2d_8">
      <g>
       <use style="stroke:#000000;stroke-width:0.8;" x="492.628877" xlink:href="#mf256894e80" y="288.430125"/>
      </g>
     </g>
     <g id="text_8">
      <!-- 4h:26m -->
      <g transform="translate(473.36169 303.028562)scale(0.1 -0.1)">
       <use xlink:href="#DejaVuSans-52"/>
       <use x="63.623047" xlink:href="#DejaVuSans-104"/>
       <use x="127.001953" xlink:href="#DejaVuSans-58"/>
       <use x="160.693359" xlink:href="#DejaVuSans-50"/>
       <use x="224.316406" xlink:href="#DejaVuSans-54"/>
       <use x="287.939453" xlink:href="#DejaVuSans-109"/>
      </g>
     </g>
    </g>
    <g id="xtick_9">
     <g id="line2d_9">
      <g>
       <use style="stroke:#000000;stroke-width:0.8;" x="551.657134" xlink:href="#mf256894e80" y="288.430125"/>
      </g>
     </g>
     <g id="text_9">
      <!-- 6h:42m -->
      <g transform="translate(532.389947 303.028562)scale(0.1 -0.1)">
       <use xlink:href="#DejaVuSans-54"/>
       <use x="63.623047" xlink:href="#DejaVuSans-104"/>
       <use x="127.001953" xlink:href="#DejaVuSans-58"/>
       <use x="160.693359" xlink:href="#DejaVuSans-52"/>
       <use x="224.316406" xlink:href="#DejaVuSans-50"/>
       <use x="287.939453" xlink:href="#DejaVuSans-109"/>
      </g>
     </g>
    </g>
    <g id="xtick_10">
     <g id="line2d_10">
      <g>
       <use style="stroke:#000000;stroke-width:0.8;" x="610.685391" xlink:href="#mf256894e80" y="288.430125"/>
      </g>
     </g>
     <g id="text_10">
      <!-- 10h:6m -->
      <g transform="translate(591.418204 303.028562)scale(0.1 -0.1)">
       <defs>
        <path d="M 31.78125 66.40625 
Q 24.171875 66.40625 20.328125 58.90625 
Q 16.5 51.421875 16.5 36.375 
Q 16.5 21.390625 20.328125 13.890625 
Q 24.171875 6.390625 31.78125 6.390625 
Q 39.453125 6.390625 43.28125 13.890625 
Q 47.125 21.390625 47.125 36.375 
Q 47.125 51.421875 43.28125 58.90625 
Q 39.453125 66.40625 31.78125 66.40625 
z
M 31.78125 74.21875 
Q 44.046875 74.21875 50.515625 64.515625 
Q 56.984375 54.828125 56.984375 36.375 
Q 56.984375 17.96875 50.515625 8.265625 
Q 44.046875 -1.421875 31.78125 -1.421875 
Q 19.53125 -1.421875 13.0625 8.265625 
Q 6.59375 17.96875 6.59375 36.375 
Q 6.59375 54.828125 13.0625 64.515625 
Q 19.53125 74.21875 31.78125 74.21875 
z
" id="DejaVuSans-48"/>
       </defs>
       <use xlink:href="#DejaVuSans-49"/>
       <use x="63.623047" xlink:href="#DejaVuSans-48"/>
       <use x="127.246094" xlink:href="#DejaVuSans-104"/>
       <use x="190.625" xlink:href="#DejaVuSans-58"/>
       <use x="224.316406" xlink:href="#DejaVuSans-54"/>
       <use x="287.939453" xlink:href="#DejaVuSans-109"/>
      </g>
     </g>
    </g>
    <g id="xtick_11">
     <g id="line2d_11">
      <g>
       <use style="stroke:#000000;stroke-width:0.8;" x="669.713648" xlink:href="#mf256894e80" y="288.430125"/>
      </g>
     </g>
     <g id="text_11">
      <!-- 15h:14m -->
      <g transform="translate(647.26521 303.028562)scale(0.1 -0.1)">
       <use xlink:href="#DejaVuSans-49"/>
       <use x="63.623047" xlink:href="#DejaVuSans-53"/>
       <use x="127.246094" xlink:href="#DejaVuSans-104"/>
       <use x="190.625" xlink:href="#DejaVuSans-58"/>
       <use x="224.316406" xlink:href="#DejaVuSans-49"/>
       <use x="287.939453" xlink:href="#DejaVuSans-52"/>
       <use x="351.5625" xlink:href="#DejaVuSans-109"/>
      </g>
     </g>
    </g>
    <g id="xtick_12">
     <g id="line2d_12">
      <g>
       <use style="stroke:#000000;stroke-width:0.8;" x="728.741905" xlink:href="#mf256894e80" y="288.430125"/>
      </g>
     </g>
     <g id="text_12">
      <!-- 23h -->
      <g transform="translate(719.210655 303.028562)scale(0.1 -0.1)">
       <use xlink:href="#DejaVuSans-50"/>
       <use x="63.623047" xlink:href="#DejaVuSans-51"/>
       <use x="127.246094" xlink:href="#DejaVuSans-104"/>
      </g>
     </g>
    </g>
    <g id="xtick_13">
     <g id="line2d_13">
      <defs>
       <path d="M 0 0 
L 0 2 
" id="m59a9e89f5f" style="stroke:#000000;stroke-width:0.6;"/>
      </defs>
      <g>
       <use style="stroke:#000000;stroke-width:0.6;" x="62.51795" xlink:href="#m59a9e89f5f" y="288.430125"/>
      </g>
     </g>
    </g>
    <g id="xtick_14">
     <g id="line2d_14">
      <g>
       <use style="stroke:#000000;stroke-width:0.6;" x="194.093297" xlink:href="#m59a9e89f5f" y="288.430125"/>
      </g>
     </g>
    </g>
    <g id="xtick_15">
     <g id="line2d_15">
      <g>
       <use style="stroke:#000000;stroke-width:0.6;" x="252.316316" xlink:href="#m59a9e89f5f" y="288.430125"/>
      </g>
     </g>
    </g>
    <g id="xtick_16">
     <g id="line2d_16">
      <g>
       <use style="stroke:#000000;stroke-width:0.6;" x="293.626205" xlink:href="#m59a9e89f5f" y="288.430125"/>
      </g>
     </g>
    </g>
    <g id="xtick_17">
     <g id="line2d_17">
      <g>
       <use style="stroke:#000000;stroke-width:0.6;" x="325.668644" xlink:href="#m59a9e89f5f" y="288.430125"/>
      </g>
     </g>
    </g>
    <g id="xtick_18">
     <g id="line2d_18">
      <g>
       <use style="stroke:#000000;stroke-width:0.6;" x="351.849224" xlink:href="#m59a9e89f5f" y="288.430125"/>
      </g>
     </g>
    </g>
    <g id="xtick_19">
     <g id="line2d_19">
      <g>
       <use style="stroke:#000000;stroke-width:0.6;" x="373.984588" xlink:href="#m59a9e89f5f" y="288.430125"/>
      </g>
     </g>
    </g>
    <g id="xtick_20">
     <g id="line2d_20">
      <g>
       <use style="stroke:#000000;stroke-width:0.6;" x="393.159113" xlink:href="#m59a9e89f5f" y="288.430125"/>
      </g>
     </g>
    </g>
    <g id="xtick_21">
     <g id="line2d_21">
      <g>
       <use style="stroke:#000000;stroke-width:0.6;" x="410.072242" xlink:href="#m59a9e89f5f" y="288.430125"/>
      </g>
     </g>
    </g>
    <g id="xtick_22">
     <g id="line2d_22">
      <g>
       <use style="stroke:#000000;stroke-width:0.6;" x="524.73446" xlink:href="#m59a9e89f5f" y="288.430125"/>
      </g>
     </g>
    </g>
    <g id="xtick_23">
     <g id="line2d_23">
      <g>
       <use style="stroke:#000000;stroke-width:0.6;" x="582.957479" xlink:href="#m59a9e89f5f" y="288.430125"/>
      </g>
     </g>
    </g>
    <g id="xtick_24">
     <g id="line2d_24">
      <g>
       <use style="stroke:#000000;stroke-width:0.6;" x="624.267368" xlink:href="#m59a9e89f5f" y="288.430125"/>
      </g>
     </g>
    </g>
    <g id="xtick_25">
     <g id="line2d_25">
      <g>
       <use style="stroke:#000000;stroke-width:0.6;" x="656.309807" xlink:href="#m59a9e89f5f" y="288.430125"/>
      </g>
     </g>
    </g>
    <g id="xtick_26">
     <g id="line2d_26">
      <g>
       <use style="stroke:#000000;stroke-width:0.6;" x="682.490387" xlink:href="#m59a9e89f5f" y="288.430125"/>
      </g>
     </g>
    </g>
    <g id="xtick_27">
     <g id="line2d_27">
      <g>
       <use style="stroke:#000000;stroke-width:0.6;" x="704.625751" xlink:href="#m59a9e89f5f" y="288.430125"/>
      </g>
     </g>
    </g>
    <g id="xtick_28">
     <g id="line2d_28">
      <g>
       <use style="stroke:#000000;stroke-width:0.6;" x="723.800276" xlink:href="#m59a9e89f5f" y="288.430125"/>
      </g>
     </g>
    </g>
    <g id="xtick_29">
     <g id="line2d_29">
      <g>
       <use style="stroke:#000000;stroke-width:0.6;" x="740.713405" xlink:href="#m59a9e89f5f" y="288.430125"/>
      </g>
     </g>
    </g>
    <g id="text_13">
     <!-- Time (hour:minute) -->
     <g transform="translate(355.678594 316.706687)scale(0.1 -0.1)">
      <defs>
       <path d="M -0.296875 72.90625 
L 61.375 72.90625 
L 61.375 64.59375 
L 35.5 64.59375 
L 35.5 0 
L 25.59375 0 
L 25.59375 64.59375 
L -0.296875 64.59375 
z
" id="DejaVuSans-84"/>
       <path d="M 9.421875 54.6875 
L 18.40625 54.6875 
L 18.40625 0 
L 9.421875 0 
z
M 9.421875 75.984375 
L 18.40625 75.984375 
L 18.40625 64.59375 
L 9.421875 64.59375 
z
" id="DejaVuSans-105"/>
       <path d="M 56.203125 29.59375 
L 56.203125 25.203125 
L 14.890625 25.203125 
Q 15.484375 15.921875 20.484375 11.0625 
Q 25.484375 6.203125 34.421875 6.203125 
Q 39.59375 6.203125 44.453125 7.46875 
Q 49.3125 8.734375 54.109375 11.28125 
L 54.109375 2.78125 
Q 49.265625 0.734375 44.1875 -0.34375 
Q 39.109375 -1.421875 33.890625 -1.421875 
Q 20.796875 -1.421875 13.15625 6.1875 
Q 5.515625 13.8125 5.515625 26.8125 
Q 5.515625 40.234375 12.765625 48.109375 
Q 20.015625 56 32.328125 56 
Q 43.359375 56 49.78125 48.890625 
Q 56.203125 41.796875 56.203125 29.59375 
z
M 47.21875 32.234375 
Q 47.125 39.59375 43.09375 43.984375 
Q 39.0625 48.390625 32.421875 48.390625 
Q 24.90625 48.390625 20.390625 44.140625 
Q 15.875 39.890625 15.1875 32.171875 
z
" id="DejaVuSans-101"/>
       <path id="DejaVuSans-32"/>
       <path d="M 31 75.875 
Q 24.46875 64.65625 21.28125 53.65625 
Q 18.109375 42.671875 18.109375 31.390625 
Q 18.109375 20.125 21.3125 9.0625 
Q 24.515625 -2 31 -13.1875 
L 23.1875 -13.1875 
Q 15.875 -1.703125 12.234375 9.375 
Q 8.59375 20.453125 8.59375 31.390625 
Q 8.59375 42.28125 12.203125 53.3125 
Q 15.828125 64.359375 23.1875 75.875 
z
" id="DejaVuSans-40"/>
       <path d="M 30.609375 48.390625 
Q 23.390625 48.390625 19.1875 42.75 
Q 14.984375 37.109375 14.984375 27.296875 
Q 14.984375 17.484375 19.15625 11.84375 
Q 23.34375 6.203125 30.609375 6.203125 
Q 37.796875 6.203125 41.984375 11.859375 
Q 46.1875 17.53125 46.1875 27.296875 
Q 46.1875 37.015625 41.984375 42.703125 
Q 37.796875 48.390625 30.609375 48.390625 
z
M 30.609375 56 
Q 42.328125 56 49.015625 48.375 
Q 55.71875 40.765625 55.71875 27.296875 
Q 55.71875 13.875 49.015625 6.21875 
Q 42.328125 -1.421875 30.609375 -1.421875 
Q 18.84375 -1.421875 12.171875 6.21875 
Q 5.515625 13.875 5.515625 27.296875 
Q 5.515625 40.765625 12.171875 48.375 
Q 18.84375 56 30.609375 56 
z
" id="DejaVuSans-111"/>
       <path d="M 8.5 21.578125 
L 8.5 54.6875 
L 17.484375 54.6875 
L 17.484375 21.921875 
Q 17.484375 14.15625 20.5 10.265625 
Q 23.53125 6.390625 29.59375 6.390625 
Q 36.859375 6.390625 41.078125 11.03125 
Q 45.3125 15.671875 45.3125 23.6875 
L 45.3125 54.6875 
L 54.296875 54.6875 
L 54.296875 0 
L 45.3125 0 
L 45.3125 8.40625 
Q 42.046875 3.421875 37.71875 1 
Q 33.40625 -1.421875 27.6875 -1.421875 
Q 18.265625 -1.421875 13.375 4.4375 
Q 8.5 10.296875 8.5 21.578125 
z
M 31.109375 56 
z
" id="DejaVuSans-117"/>
       <path d="M 41.109375 46.296875 
Q 39.59375 47.171875 37.8125 47.578125 
Q 36.03125 48 33.890625 48 
Q 26.265625 48 22.1875 43.046875 
Q 18.109375 38.09375 18.109375 28.8125 
L 18.109375 0 
L 9.078125 0 
L 9.078125 54.6875 
L 18.109375 54.6875 
L 18.109375 46.1875 
Q 20.953125 51.171875 25.484375 53.578125 
Q 30.03125 56 36.53125 56 
Q 37.453125 56 38.578125 55.875 
Q 39.703125 55.765625 41.0625 55.515625 
z
" id="DejaVuSans-114"/>
       <path d="M 54.890625 33.015625 
L 54.890625 0 
L 45.90625 0 
L 45.90625 32.71875 
Q 45.90625 40.484375 42.875 44.328125 
Q 39.84375 48.1875 33.796875 48.1875 
Q 26.515625 48.1875 22.3125 43.546875 
Q 18.109375 38.921875 18.109375 30.90625 
L 18.109375 0 
L 9.078125 0 
L 9.078125 54.6875 
L 18.109375 54.6875 
L 18.109375 46.1875 
Q 21.34375 51.125 25.703125 53.5625 
Q 30.078125 56 35.796875 56 
Q 45.21875 56 50.046875 50.171875 
Q 54.890625 44.34375 54.890625 33.015625 
z
" id="DejaVuSans-110"/>
       <path d="M 18.3125 70.21875 
L 18.3125 54.6875 
L 36.8125 54.6875 
L 36.8125 47.703125 
L 18.3125 47.703125 
L 18.3125 18.015625 
Q 18.3125 11.328125 20.140625 9.421875 
Q 21.96875 7.515625 27.59375 7.515625 
L 36.8125 7.515625 
L 36.8125 0 
L 27.59375 0 
Q 17.1875 0 13.234375 3.875 
Q 9.28125 7.765625 9.28125 18.015625 
L 9.28125 47.703125 
L 2.6875 47.703125 
L 2.6875 54.6875 
L 9.28125 54.6875 
L 9.28125 70.21875 
z
" id="DejaVuSans-116"/>
       <path d="M 8.015625 75.875 
L 15.828125 75.875 
Q 23.140625 64.359375 26.78125 53.3125 
Q 30.421875 42.28125 30.421875 31.390625 
Q 30.421875 20.453125 26.78125 9.375 
Q 23.140625 -1.703125 15.828125 -13.1875 
L 8.015625 -13.1875 
Q 14.5 -2 17.703125 9.0625 
Q 20.90625 20.125 20.90625 31.390625 
Q 20.90625 42.671875 17.703125 53.65625 
Q 14.5 64.65625 8.015625 75.875 
z
" id="DejaVuSans-41"/>
      </defs>
      <use xlink:href="#DejaVuSans-84"/>
      <use x="57.958984" xlink:href="#DejaVuSans-105"/>
      <use x="85.742188" xlink:href="#DejaVuSans-109"/>
      <use x="183.154297" xlink:href="#DejaVuSans-101"/>
      <use x="244.677734" xlink:href="#DejaVuSans-32"/>
      <use x="276.464844" xlink:href="#DejaVuSans-40"/>
      <use x="315.478516" xlink:href="#DejaVuSans-104"/>
      <use x="378.857422" xlink:href="#DejaVuSans-111"/>
      <use x="440.039062" xlink:href="#DejaVuSans-117"/>
      <use x="503.417969" xlink:href="#DejaVuSans-114"/>
      <use x="542.78125" xlink:href="#DejaVuSans-58"/>
      <use x="576.472656" xlink:href="#DejaVuSans-109"/>
      <use x="673.884766" xlink:href="#DejaVuSans-105"/>
      <use x="701.667969" xlink:href="#DejaVuSans-110"/>
      <use x="765.046875" xlink:href="#DejaVuSans-117"/>
      <use x="828.425781" xlink:href="#DejaVuSans-116"/>
      <use x="867.634766" xlink:href="#DejaVuSans-101"/>
      <use x="929.158203" xlink:href="#DejaVuSans-41"/>
     </g>
    </g>
   </g>
   <g id="matplotlib.axis_2">
    <g id="ytick_1">
     <g id="line2d_30">
      <defs>
       <path d="M 0 0 
L -3.5 0 
" id="m2db0964c1b" style="stroke:#000000;stroke-width:0.8;"/>
      </defs>
      <g>
       <use style="stroke:#000000;stroke-width:0.8;" x="46.965625" xlink:href="#m2db0964c1b" y="265.880792"/>
      </g>
     </g>
     <g id="text_14">
      <!-- 935 -->
      <g transform="translate(20.878125 269.68001)scale(0.1 -0.1)">
       <defs>
        <path d="M 10.984375 1.515625 
L 10.984375 10.5 
Q 14.703125 8.734375 18.5 7.8125 
Q 22.3125 6.890625 25.984375 6.890625 
Q 35.75 6.890625 40.890625 13.453125 
Q 46.046875 20.015625 46.78125 33.40625 
Q 43.953125 29.203125 39.59375 26.953125 
Q 35.25 24.703125 29.984375 24.703125 
Q 19.046875 24.703125 12.671875 31.3125 
Q 6.296875 37.9375 6.296875 49.421875 
Q 6.296875 60.640625 12.9375 67.421875 
Q 19.578125 74.21875 30.609375 74.21875 
Q 43.265625 74.21875 49.921875 64.515625 
Q 56.59375 54.828125 56.59375 36.375 
Q 56.59375 19.140625 48.40625 8.859375 
Q 40.234375 -1.421875 26.421875 -1.421875 
Q 22.703125 -1.421875 18.890625 -0.6875 
Q 15.09375 0.046875 10.984375 1.515625 
z
M 30.609375 32.421875 
Q 37.25 32.421875 41.125 36.953125 
Q 45.015625 41.5 45.015625 49.421875 
Q 45.015625 57.28125 41.125 61.84375 
Q 37.25 66.40625 30.609375 66.40625 
Q 23.96875 66.40625 20.09375 61.84375 
Q 16.21875 57.28125 16.21875 49.421875 
Q 16.21875 41.5 20.09375 36.953125 
Q 23.96875 32.421875 30.609375 32.421875 
z
" id="DejaVuSans-57"/>
       </defs>
       <use xlink:href="#DejaVuSans-57"/>
       <use x="63.623047" xlink:href="#DejaVuSans-51"/>
       <use x="127.246094" xlink:href="#DejaVuSans-53"/>
      </g>
     </g>
    </g>
    <g id="ytick_2">
     <g id="line2d_31">
      <g>
       <use style="stroke:#000000;stroke-width:0.8;" x="46.965625" xlink:href="#m2db0964c1b" y="236.014125"/>
      </g>
     </g>
     <g id="text_15">
      <!-- 940 -->
      <g transform="translate(20.878125 239.813344)scale(0.1 -0.1)">
       <use xlink:href="#DejaVuSans-57"/>
       <use x="63.623047" xlink:href="#DejaVuSans-52"/>
       <use x="127.246094" xlink:href="#DejaVuSans-48"/>
      </g>
     </g>
    </g>
    <g id="ytick_3">
     <g id="line2d_32">
      <g>
       <use style="stroke:#000000;stroke-width:0.8;" x="46.965625" xlink:href="#m2db0964c1b" y="206.147458"/>
      </g>
     </g>
     <g id="text_16">
      <!-- 945 -->
      <g transform="translate(20.878125 209.946677)scale(0.1 -0.1)">
       <use xlink:href="#DejaVuSans-57"/>
       <use x="63.623047" xlink:href="#DejaVuSans-52"/>
       <use x="127.246094" xlink:href="#DejaVuSans-53"/>
      </g>
     </g>
    </g>
    <g id="ytick_4">
     <g id="line2d_33">
      <g>
       <use style="stroke:#000000;stroke-width:0.8;" x="46.965625" xlink:href="#m2db0964c1b" y="176.280792"/>
      </g>
     </g>
     <g id="text_17">
      <!-- 950 -->
      <g transform="translate(20.878125 180.08001)scale(0.1 -0.1)">
       <use xlink:href="#DejaVuSans-57"/>
       <use x="63.623047" xlink:href="#DejaVuSans-53"/>
       <use x="127.246094" xlink:href="#DejaVuSans-48"/>
      </g>
     </g>
    </g>
    <g id="ytick_5">
     <g id="line2d_34">
      <g>
       <use style="stroke:#000000;stroke-width:0.8;" x="46.965625" xlink:href="#m2db0964c1b" y="146.414125"/>
      </g>
     </g>
     <g id="text_18">
      <!-- 955 -->
      <g transform="translate(20.878125 150.213344)scale(0.1 -0.1)">
       <use xlink:href="#DejaVuSans-57"/>
       <use x="63.623047" xlink:href="#DejaVuSans-53"/>
       <use x="127.246094" xlink:href="#DejaVuSans-53"/>
      </g>
     </g>
    </g>
    <g id="ytick_6">
     <g id="line2d_35">
      <g>
       <use style="stroke:#000000;stroke-width:0.8;" x="46.965625" xlink:href="#m2db0964c1b" y="116.547458"/>
      </g>
     </g>
     <g id="text_19">
      <!-- 960 -->
      <g transform="translate(20.878125 120.346677)scale(0.1 -0.1)">
       <use xlink:href="#DejaVuSans-57"/>
       <use x="63.623047" xlink:href="#DejaVuSans-54"/>
       <use x="127.246094" xlink:href="#DejaVuSans-48"/>
      </g>
     </g>
    </g>
    <g id="ytick_7">
     <g id="line2d_36">
      <g>
       <use style="stroke:#000000;stroke-width:0.8;" x="46.965625" xlink:href="#m2db0964c1b" y="86.680792"/>
      </g>
     </g>
     <g id="text_20">
      <!-- 965 -->
      <g transform="translate(20.878125 90.48001)scale(0.1 -0.1)">
       <use xlink:href="#DejaVuSans-57"/>
       <use x="63.623047" xlink:href="#DejaVuSans-54"/>
       <use x="127.246094" xlink:href="#DejaVuSans-53"/>
      </g>
     </g>
    </g>
    <g id="ytick_8">
     <g id="line2d_37">
      <g>
       <use style="stroke:#000000;stroke-width:0.8;" x="46.965625" xlink:href="#m2db0964c1b" y="56.814125"/>
      </g>
     </g>
     <g id="text_21">
      <!-- 970 -->
      <g transform="translate(20.878125 60.613344)scale(0.1 -0.1)">
       <use xlink:href="#DejaVuSans-57"/>
       <use x="63.623047" xlink:href="#DejaVuSans-55"/>
       <use x="127.246094" xlink:href="#DejaVuSans-48"/>
      </g>
     </g>
    </g>
    <g id="ytick_9">
     <g id="line2d_38">
      <g>
       <use style="stroke:#000000;stroke-width:0.8;" x="46.965625" xlink:href="#m2db0964c1b" y="26.947458"/>
      </g>
     </g>
     <g id="text_22">
      <!-- 975 -->
      <g transform="translate(20.878125 30.746677)scale(0.1 -0.1)">
       <use xlink:href="#DejaVuSans-57"/>
       <use x="63.623047" xlink:href="#DejaVuSans-55"/>
       <use x="127.246094" xlink:href="#DejaVuSans-53"/>
      </g>
     </g>
    </g>
    <g id="text_23">
     <!-- Edge coverage -->
     <g transform="translate(14.798438 192.762406)rotate(-90)scale(0.1 -0.1)">
      <defs>
       <path d="M 9.8125 72.90625 
L 55.90625 72.90625 
L 55.90625 64.59375 
L 19.671875 64.59375 
L 19.671875 43.015625 
L 54.390625 43.015625 
L 54.390625 34.71875 
L 19.671875 34.71875 
L 19.671875 8.296875 
L 56.78125 8.296875 
L 56.78125 0 
L 9.8125 0 
z
" id="DejaVuSans-69"/>
       <path d="M 45.40625 46.390625 
L 45.40625 75.984375 
L 54.390625 75.984375 
L 54.390625 0 
L 45.40625 0 
L 45.40625 8.203125 
Q 42.578125 3.328125 38.25 0.953125 
Q 33.9375 -1.421875 27.875 -1.421875 
Q 17.96875 -1.421875 11.734375 6.484375 
Q 5.515625 14.40625 5.515625 27.296875 
Q 5.515625 40.1875 11.734375 48.09375 
Q 17.96875 56 27.875 56 
Q 33.9375 56 38.25 53.625 
Q 42.578125 51.265625 45.40625 46.390625 
z
M 14.796875 27.296875 
Q 14.796875 17.390625 18.875 11.75 
Q 22.953125 6.109375 30.078125 6.109375 
Q 37.203125 6.109375 41.296875 11.75 
Q 45.40625 17.390625 45.40625 27.296875 
Q 45.40625 37.203125 41.296875 42.84375 
Q 37.203125 48.484375 30.078125 48.484375 
Q 22.953125 48.484375 18.875 42.84375 
Q 14.796875 37.203125 14.796875 27.296875 
z
" id="DejaVuSans-100"/>
       <path d="M 45.40625 27.984375 
Q 45.40625 37.75 41.375 43.109375 
Q 37.359375 48.484375 30.078125 48.484375 
Q 22.859375 48.484375 18.828125 43.109375 
Q 14.796875 37.75 14.796875 27.984375 
Q 14.796875 18.265625 18.828125 12.890625 
Q 22.859375 7.515625 30.078125 7.515625 
Q 37.359375 7.515625 41.375 12.890625 
Q 45.40625 18.265625 45.40625 27.984375 
z
M 54.390625 6.78125 
Q 54.390625 -7.171875 48.1875 -13.984375 
Q 42 -20.796875 29.203125 -20.796875 
Q 24.46875 -20.796875 20.265625 -20.09375 
Q 16.0625 -19.390625 12.109375 -17.921875 
L 12.109375 -9.1875 
Q 16.0625 -11.328125 19.921875 -12.34375 
Q 23.78125 -13.375 27.78125 -13.375 
Q 36.625 -13.375 41.015625 -8.765625 
Q 45.40625 -4.15625 45.40625 5.171875 
L 45.40625 9.625 
Q 42.625 4.78125 38.28125 2.390625 
Q 33.9375 0 27.875 0 
Q 17.828125 0 11.671875 7.65625 
Q 5.515625 15.328125 5.515625 27.984375 
Q 5.515625 40.671875 11.671875 48.328125 
Q 17.828125 56 27.875 56 
Q 33.9375 56 38.28125 53.609375 
Q 42.625 51.21875 45.40625 46.390625 
L 45.40625 54.6875 
L 54.390625 54.6875 
z
" id="DejaVuSans-103"/>
       <path d="M 48.78125 52.59375 
L 48.78125 44.1875 
Q 44.96875 46.296875 41.140625 47.34375 
Q 37.3125 48.390625 33.40625 48.390625 
Q 24.65625 48.390625 19.8125 42.84375 
Q 14.984375 37.3125 14.984375 27.296875 
Q 14.984375 17.28125 19.8125 11.734375 
Q 24.65625 6.203125 33.40625 6.203125 
Q 37.3125 6.203125 41.140625 7.25 
Q 44.96875 8.296875 48.78125 10.40625 
L 48.78125 2.09375 
Q 45.015625 0.34375 40.984375 -0.53125 
Q 36.96875 -1.421875 32.421875 -1.421875 
Q 20.0625 -1.421875 12.78125 6.34375 
Q 5.515625 14.109375 5.515625 27.296875 
Q 5.515625 40.671875 12.859375 48.328125 
Q 20.21875 56 33.015625 56 
Q 37.15625 56 41.109375 55.140625 
Q 45.0625 54.296875 48.78125 52.59375 
z
" id="DejaVuSans-99"/>
       <path d="M 2.984375 54.6875 
L 12.5 54.6875 
L 29.59375 8.796875 
L 46.6875 54.6875 
L 56.203125 54.6875 
L 35.6875 0 
L 23.484375 0 
z
" id="DejaVuSans-118"/>
       <path d="M 34.28125 27.484375 
Q 23.390625 27.484375 19.1875 25 
Q 14.984375 22.515625 14.984375 16.5 
Q 14.984375 11.71875 18.140625 8.90625 
Q 21.296875 6.109375 26.703125 6.109375 
Q 34.1875 6.109375 38.703125 11.40625 
Q 43.21875 16.703125 43.21875 25.484375 
L 43.21875 27.484375 
z
M 52.203125 31.203125 
L 52.203125 0 
L 43.21875 0 
L 43.21875 8.296875 
Q 40.140625 3.328125 35.546875 0.953125 
Q 30.953125 -1.421875 24.3125 -1.421875 
Q 15.921875 -1.421875 10.953125 3.296875 
Q 6 8.015625 6 15.921875 
Q 6 25.140625 12.171875 29.828125 
Q 18.359375 34.515625 30.609375 34.515625 
L 43.21875 34.515625 
L 43.21875 35.40625 
Q 43.21875 41.609375 39.140625 45 
Q 35.0625 48.390625 27.6875 48.390625 
Q 23 48.390625 18.546875 47.265625 
Q 14.109375 46.140625 10.015625 43.890625 
L 10.015625 52.203125 
Q 14.9375 54.109375 19.578125 55.046875 
Q 24.21875 56 28.609375 56 
Q 40.484375 56 46.34375 49.84375 
Q 52.203125 43.703125 52.203125 31.203125 
z
" id="DejaVuSans-97"/>
      </defs>
      <use xlink:href="#DejaVuSans-69"/>
      <use x="63.183594" xlink:href="#DejaVuSans-100"/>
      <use x="126.660156" xlink:href="#DejaVuSans-103"/>
      <use x="190.136719" xlink:href="#DejaVuSans-101"/>
      <use x="251.660156" xlink:href="#DejaVuSans-32"/>
      <use x="283.447266" xlink:href="#DejaVuSans-99"/>
      <use x="338.427734" xlink:href="#DejaVuSans-111"/>
      <use x="399.609375" xlink:href="#DejaVuSans-118"/>
      <use x="458.789062" xlink:href="#DejaVuSans-101"/>
      <use x="520.3125" xlink:href="#DejaVuSans-114"/>
      <use x="561.425781" xlink:href="#DejaVuSans-97"/>
      <use x="622.705078" xlink:href="#DejaVuSans-103"/>
      <use x="686.181641" xlink:href="#DejaVuSans-101"/>
     </g>
    </g>
   </g>
   <g id="line2d_39">
    <path clip-path="url(#p6d409dffab)" d="M 79.43108 140.142125 
L 178.963987 122.819458 
L 237.187006 115.950125 
L 278.496895 107.587458 
L 310.539335 96.238125 
L 336.719914 82.200792 
L 358.855278 77.422125 
L 378.029803 75.032792 
L 394.942933 73.539458 
L 410.072242 72.344792 
L 423.758368 66.968792 
L 436.252822 66.072792 
L 447.746605 64.579458 
L 458.388186 58.008792 
L 468.295261 58.008792 
L 477.562711 57.710125 
L 486.268142 56.216792 
L 494.47584 56.216792 
L 502.239657 55.918125 
L 509.60515 55.320792 
L 516.611205 55.320792 
L 523.291276 55.320792 
L 529.674355 55.320792 
L 535.78573 55.320792 
L 541.64759 55.320792 
L 547.279513 55.320792 
L 552.698859 55.320792 
L 557.921094 54.126125 
L 562.960054 49.048792 
L 567.828169 42.776792 
L 572.536644 42.776792 
L 577.095619 42.478125 
L 581.514294 42.478125 
L 585.80105 42.478125 
L 589.963533 42.478125 
L 594.008748 42.478125 
L 597.943121 42.478125 
L 601.772565 42.478125 
L 605.502531 42.478125 
L 609.138058 42.478125 
L 612.683809 42.478125 
L 616.144113 42.478125 
L 619.522989 42.478125 
L 622.824184 42.478125 
L 626.051188 42.478125 
L 629.207263 42.478125 
L 632.29546 42.179458 
L 635.318637 42.179458 
L 638.279477 42.179458 
L 641.180497 42.179458 
L 644.024068 42.179458 
L 646.812421 40.686125 
L 649.547658 40.387458 
L 652.231767 40.387458 
L 654.866623 40.387458 
L 657.454002 40.387458 
L 659.995584 40.387458 
L 662.492962 37.400792 
L 664.947648 35.011458 
L 667.361077 35.011458 
L 669.734612 34.712792 
L 672.069552 34.712792 
L 674.367131 34.712792 
L 676.628527 34.712792 
L 678.85486 34.712792 
L 681.047202 34.712792 
L 683.206576 34.712792 
L 685.333957 34.712792 
L 687.430281 34.712792 
L 689.496441 34.712792 
L 691.533293 34.712792 
L 693.541656 34.712792 
L 695.522317 34.712792 
L 697.476029 34.712792 
L 699.403516 34.712792 
L 701.305473 34.712792 
L 703.182567 34.712792 
L 705.035439 34.712792 
L 706.864708 34.712792 
L 708.670966 34.712792 
L 710.454786 34.712792 
L 712.216717 34.712792 
L 713.957292 34.712792 
L 715.67702 34.712792 
L 717.376397 34.712792 
L 719.055897 34.712792 
L 720.715981 34.712792 
L 722.357091 34.712792 
L 723.979658 34.712792 
L 725.584095 34.414125 
L 727.170804 34.414125 
L 728.74017 34.414125 
" style="fill:none;stroke:#2ca02c;stroke-linecap:square;stroke-width:1.5;"/>
   </g>
   <g id="line2d_40">
    <path clip-path="url(#p6d409dffab)" d="M 79.43108 124.611458 
L 178.963987 114.755458 
L 237.187006 110.574125 
L 278.496895 103.406125 
L 310.539335 96.238125 
L 336.719914 94.147458 
L 358.855278 93.251458 
L 378.029803 91.160792 
L 394.942933 89.966125 
L 410.072242 89.966125 
L 423.758368 89.966125 
L 436.252822 89.966125 
L 447.746605 89.667458 
L 458.388186 89.667458 
L 468.295261 89.667458 
L 477.562711 83.395458 
L 486.268142 83.395458 
L 494.47584 83.395458 
L 502.239657 83.096792 
L 509.60515 82.798125 
L 516.611205 82.798125 
L 523.291276 82.798125 
L 529.674355 82.798125 
L 535.78573 82.798125 
L 541.64759 82.798125 
L 547.279513 80.408792 
L 552.698859 80.110125 
L 557.921094 80.110125 
L 562.960054 80.110125 
L 567.828169 80.110125 
L 572.536644 78.616792 
L 577.095619 77.123458 
L 581.514294 77.123458 
L 585.80105 77.123458 
L 589.963533 77.123458 
L 594.008748 77.123458 
L 597.943121 77.123458 
L 601.772565 75.928792 
L 605.502531 75.928792 
L 609.138058 75.928792 
L 612.683809 75.928792 
L 616.144113 75.630125 
L 619.522989 75.630125 
L 622.824184 75.630125 
L 626.051188 75.630125 
L 629.207263 75.630125 
L 632.29546 75.630125 
L 635.318637 75.630125 
L 638.279477 74.734125 
L 641.180497 74.734125 
L 644.024068 74.435458 
L 646.812421 74.435458 
L 649.547658 74.435458 
L 652.231767 74.435458 
L 654.866623 74.435458 
L 657.454002 74.435458 
L 659.995584 74.435458 
L 662.492962 74.435458 
L 664.947648 74.435458 
L 667.361077 74.435458 
L 669.734612 74.435458 
L 672.069552 74.435458 
L 674.367131 74.435458 
L 676.628527 74.435458 
L 678.85486 74.435458 
L 681.047202 74.435458 
L 683.206576 74.435458 
L 685.333957 74.435458 
L 687.430281 74.435458 
L 689.496441 74.435458 
L 691.533293 74.136792 
L 693.541656 72.942125 
L 695.522317 72.942125 
L 697.476029 72.643458 
L 699.403516 72.643458 
L 701.305473 72.344792 
L 703.182567 72.344792 
L 705.035439 72.344792 
L 706.864708 72.344792 
L 708.670966 71.150125 
L 710.454786 71.150125 
L 712.216717 71.150125 
L 713.957292 65.176792 
L 715.67702 65.176792 
L 717.376397 65.176792 
L 719.055897 65.176792 
L 720.715981 64.878125 
L 722.357091 64.878125 
L 723.979658 64.878125 
L 725.584095 64.878125 
L 727.170804 64.878125 
L 728.74017 64.878125 
" style="fill:none;stroke:#ff7f0e;stroke-linecap:square;stroke-width:1.5;"/>
   </g>
   <g id="line2d_41">
    <path clip-path="url(#p6d409dffab)" d="M 79.43108 159.555458 
L 178.963987 141.038125 
L 237.187006 129.091458 
L 278.496895 116.846125 
L 310.539335 105.795458 
L 336.719914 103.107458 
L 358.855278 101.614125 
L 378.029803 101.315458 
L 394.942933 100.120792 
L 410.072242 99.523458 
L 423.758368 99.523458 
L 436.252822 98.328792 
L 447.746605 98.328792 
L 458.388186 98.328792 
L 468.295261 98.030125 
L 477.562711 97.731458 
L 486.268142 97.731458 
L 494.47584 97.731458 
L 502.239657 97.731458 
L 509.60515 97.731458 
L 516.611205 97.731458 
L 523.291276 97.731458 
L 529.674355 92.355458 
L 535.78573 92.355458 
L 541.64759 92.056792 
L 547.279513 92.056792 
L 552.698859 92.056792 
L 557.921094 92.056792 
L 562.960054 91.160792 
L 567.828169 85.784792 
L 572.536644 79.811458 
L 577.095619 79.811458 
L 581.514294 79.811458 
L 585.80105 79.214125 
L 589.963533 79.214125 
L 594.008748 79.214125 
L 597.943121 79.214125 
L 601.772565 78.019458 
L 605.502531 78.019458 
L 609.138058 78.019458 
L 612.683809 78.019458 
L 616.144113 78.019458 
L 619.522989 78.019458 
L 622.824184 78.019458 
L 626.051188 78.019458 
L 629.207263 78.019458 
L 632.29546 78.019458 
L 635.318637 78.019458 
L 638.279477 78.019458 
L 641.180497 78.019458 
L 644.024068 78.019458 
L 646.812421 78.019458 
L 649.547658 78.019458 
L 652.231767 78.019458 
L 654.866623 78.019458 
L 657.454002 78.019458 
L 659.995584 78.019458 
L 662.492962 78.019458 
L 664.947648 78.019458 
L 667.361077 78.019458 
L 669.734612 78.019458 
L 672.069552 78.019458 
L 674.367131 78.019458 
L 676.628527 78.019458 
L 678.85486 77.720792 
L 681.047202 77.720792 
L 683.206576 77.720792 
L 685.333957 77.720792 
L 687.430281 77.720792 
L 689.496441 77.720792 
L 691.533293 77.720792 
L 693.541656 77.720792 
L 695.522317 77.720792 
L 697.476029 77.720792 
L 699.403516 77.720792 
L 701.305473 77.422125 
L 703.182567 70.254125 
L 705.035439 70.254125 
L 706.864708 70.254125 
L 708.670966 70.254125 
L 710.454786 70.254125 
L 712.216717 70.254125 
L 713.957292 70.254125 
L 715.67702 69.059458 
L 717.376397 69.059458 
L 719.055897 69.059458 
L 720.715981 69.059458 
L 722.357091 67.864792 
L 723.979658 67.864792 
L 725.584095 67.864792 
L 727.170804 67.864792 
L 728.74017 67.864792 
" style="fill:none;stroke:#d62728;stroke-linecap:square;stroke-width:1.5;"/>
   </g>
   <g id="line2d_42">
    <path clip-path="url(#p6d409dffab)" d="M 79.43108 132.675458 
L 178.963987 132.675458 
L 237.187006 125.208792 
L 278.496895 125.208792 
L 310.539335 106.990125 
L 336.719914 105.198125 
L 358.855278 99.822125 
L 378.029803 93.550125 
L 394.942933 93.550125 
L 410.072242 92.654125 
L 423.758368 91.459458 
L 436.252822 91.459458 
L 447.746605 91.459458 
L 458.388186 91.459458 
L 468.295261 91.459458 
L 477.562711 86.083458 
L 486.268142 86.083458 
L 494.47584 86.083458 
L 502.239657 86.083458 
L 509.60515 86.083458 
L 516.611205 86.083458 
L 523.291276 86.083458 
L 529.674355 86.083458 
L 535.78573 85.784792 
L 541.64759 85.784792 
L 547.279513 85.784792 
L 552.698859 85.784792 
L 557.921094 85.784792 
L 562.960054 85.784792 
L 567.828169 85.784792 
L 572.536644 83.694125 
L 577.095619 83.694125 
L 581.514294 83.694125 
L 585.80105 83.694125 
L 589.963533 76.824792 
L 594.008748 76.824792 
L 597.943121 76.824792 
L 601.772565 76.824792 
L 605.502531 76.824792 
L 609.138058 76.824792 
L 612.683809 76.824792 
L 616.144113 76.824792 
L 619.522989 76.824792 
L 622.824184 76.824792 
L 626.051188 76.824792 
L 629.207263 76.824792 
L 632.29546 76.824792 
L 635.318637 76.824792 
L 638.279477 76.824792 
L 641.180497 76.824792 
L 644.024068 76.824792 
L 646.812421 76.824792 
L 649.547658 76.824792 
L 652.231767 76.824792 
L 654.866623 76.824792 
L 657.454002 76.824792 
L 659.995584 73.240792 
L 662.492962 69.955458 
L 664.947648 69.955458 
L 667.361077 69.955458 
L 669.734612 69.955458 
L 672.069552 69.955458 
L 674.367131 69.656792 
L 676.628527 69.656792 
L 678.85486 69.059458 
L 681.047202 69.059458 
L 683.206576 69.059458 
L 685.333957 69.059458 
L 687.430281 69.059458 
L 689.496441 69.059458 
L 691.533293 69.059458 
L 693.541656 69.059458 
L 695.522317 69.059458 
L 697.476029 69.059458 
L 699.403516 69.059458 
L 701.305473 69.059458 
L 703.182567 69.059458 
L 705.035439 69.059458 
L 706.864708 69.059458 
L 708.670966 69.059458 
L 710.454786 69.059458 
L 712.216717 69.059458 
L 713.957292 69.059458 
L 715.67702 69.059458 
L 717.376397 69.059458 
L 719.055897 69.059458 
L 720.715981 69.059458 
L 722.357091 69.059458 
L 723.979658 69.059458 
L 725.584095 69.059458 
L 727.170804 69.059458 
L 728.74017 69.059458 
" style="fill:none;stroke:#1f77b4;stroke-linecap:square;stroke-width:1.5;"/>
   </g>
   <g id="line2d_43">
    <path clip-path="url(#p6d409dffab)" d="M 79.43108 164.035458 
L 178.963987 143.726125 
L 237.187006 137.752792 
L 278.496895 125.507458 
L 310.539335 124.312792 
L 336.719914 123.118125 
L 358.855278 120.131458 
L 378.029803 113.859458 
L 394.942933 113.859458 
L 410.072242 106.094125 
L 423.758368 105.795458 
L 436.252822 105.795458 
L 447.746605 105.496792 
L 458.388186 105.496792 
L 468.295261 105.496792 
L 477.562711 105.496792 
L 486.268142 105.496792 
L 494.47584 105.496792 
L 502.239657 97.731458 
L 509.60515 97.731458 
L 516.611205 97.731458 
L 523.291276 97.731458 
L 529.674355 97.432792 
L 535.78573 97.432792 
L 541.64759 97.432792 
L 547.279513 97.432792 
L 552.698859 97.432792 
L 557.921094 97.432792 
L 562.960054 97.432792 
L 567.828169 97.432792 
L 572.536644 91.459458 
L 577.095619 91.459458 
L 581.514294 91.459458 
L 585.80105 91.459458 
L 589.963533 91.459458 
L 594.008748 91.459458 
L 597.943121 91.459458 
L 601.772565 91.459458 
L 605.502531 91.459458 
L 609.138058 91.459458 
L 612.683809 91.459458 
L 616.144113 91.459458 
L 619.522989 91.459458 
L 622.824184 91.459458 
L 626.051188 91.459458 
L 629.207263 91.459458 
L 632.29546 91.459458 
L 635.318637 91.459458 
L 638.279477 91.459458 
L 641.180497 91.459458 
L 644.024068 91.459458 
L 646.812421 91.459458 
L 649.547658 91.459458 
L 652.231767 91.459458 
L 654.866623 91.459458 
L 657.454002 91.459458 
L 659.995584 91.459458 
L 662.492962 91.160792 
L 664.947648 91.160792 
L 667.361077 91.160792 
L 669.734612 91.160792 
L 672.069552 91.160792 
L 674.367131 91.160792 
L 676.628527 91.160792 
L 678.85486 91.160792 
L 681.047202 85.784792 
L 683.206576 85.784792 
L 685.333957 85.784792 
L 687.430281 85.784792 
L 689.496441 85.784792 
L 691.533293 85.784792 
L 693.541656 85.784792 
L 695.522317 85.784792 
L 697.476029 85.784792 
L 699.403516 85.784792 
L 701.305473 85.486125 
L 703.182567 85.486125 
L 705.035439 85.486125 
L 706.864708 85.486125 
L 708.670966 85.486125 
L 710.454786 85.486125 
L 712.216717 85.486125 
L 713.957292 85.486125 
L 715.67702 85.486125 
L 717.376397 85.486125 
L 719.055897 85.486125 
L 720.715981 85.486125 
L 722.357091 85.486125 
L 723.979658 85.486125 
L 725.584095 85.187458 
L 727.170804 85.187458 
L 728.74017 85.187458 
" style="fill:none;stroke:#ff9896;stroke-linecap:square;stroke-width:1.5;"/>
   </g>
   <g id="line2d_44">
    <path clip-path="url(#p6d409dffab)" d="M 79.43108 276.334125 
L 178.963987 259.310125 
L 237.187006 250.350125 
L 278.496895 244.078125 
L 310.539335 236.312792 
L 336.719914 226.456792 
L 358.855278 221.080792 
L 378.029803 220.782125 
L 394.942933 204.952792 
L 410.072242 181.059458 
L 423.758368 171.502125 
L 436.252822 170.307458 
L 447.746605 167.918125 
L 458.388186 167.918125 
L 468.295261 156.270125 
L 477.562711 150.894125 
L 486.268142 150.595458 
L 494.47584 145.518125 
L 502.239657 140.142125 
L 509.60515 139.843458 
L 516.611205 132.376792 
L 523.291276 132.376792 
L 529.674355 131.779458 
L 535.78573 131.480792 
L 541.64759 131.480792 
L 547.279513 131.182125 
L 552.698859 121.326125 
L 557.921094 121.326125 
L 562.960054 120.728792 
L 567.828169 120.430125 
L 572.536644 120.430125 
L 577.095619 120.430125 
L 581.514294 120.131458 
L 585.80105 115.054125 
L 589.963533 115.054125 
L 594.008748 115.054125 
L 597.943121 115.054125 
L 601.772565 114.755458 
L 605.502531 114.456792 
L 609.138058 114.158125 
L 612.683809 114.158125 
L 616.144113 112.963458 
L 619.522989 112.963458 
L 622.824184 112.963458 
L 626.051188 112.366125 
L 629.207263 112.366125 
L 632.29546 112.067458 
L 635.318637 112.067458 
L 638.279477 112.067458 
L 641.180497 112.067458 
L 644.024068 112.067458 
L 646.812421 112.067458 
L 649.547658 112.067458 
L 652.231767 112.067458 
L 654.866623 111.768792 
L 657.454002 111.768792 
L 659.995584 111.768792 
L 662.492962 110.574125 
L 664.947648 110.574125 
L 667.361077 110.574125 
L 669.734612 110.574125 
L 672.069552 110.574125 
L 674.367131 109.976792 
L 676.628527 104.003458 
L 678.85486 104.003458 
L 681.047202 104.003458 
L 683.206576 104.003458 
L 685.333957 104.003458 
L 687.430281 104.003458 
L 689.496441 104.003458 
L 691.533293 104.003458 
L 693.541656 104.003458 
L 695.522317 103.107458 
L 697.476029 103.107458 
L 699.403516 96.238125 
L 701.305473 96.238125 
L 703.182567 96.238125 
L 705.035439 96.238125 
L 706.864708 90.563458 
L 708.670966 90.264792 
L 710.454786 90.264792 
L 712.216717 90.264792 
L 713.957292 89.667458 
L 715.67702 89.667458 
L 717.376397 89.667458 
L 719.055897 89.667458 
L 720.715981 88.174125 
L 722.357091 88.174125 
L 723.979658 88.174125 
L 725.584095 88.174125 
L 727.170804 86.979458 
L 728.74017 86.979458 
" style="fill:none;stroke:#98df8a;stroke-linecap:square;stroke-width:1.5;"/>
   </g>
   <g id="line2d_45">
    <path clip-path="url(#p6d409dffab)" d="M 79.43108 196.291458 
L 178.963987 189.422125 
L 237.187006 164.931458 
L 278.496895 146.115458 
L 310.539335 146.115458 
L 336.719914 143.427458 
L 358.855278 137.454125 
L 378.029803 137.454125 
L 394.942933 128.195458 
L 410.072242 125.507458 
L 423.758368 125.507458 
L 436.252822 125.507458 
L 447.746605 124.312792 
L 458.388186 124.312792 
L 468.295261 124.014125 
L 477.562711 118.339458 
L 486.268142 118.040792 
L 494.47584 118.040792 
L 502.239657 118.040792 
L 509.60515 118.040792 
L 516.611205 118.040792 
L 523.291276 117.742125 
L 529.674355 116.846125 
L 535.78573 116.547458 
L 541.64759 116.547458 
L 547.279513 116.248792 
L 552.698859 116.248792 
L 557.921094 115.651458 
L 562.960054 114.755458 
L 567.828169 114.755458 
L 572.536644 114.456792 
L 577.095619 114.158125 
L 581.514294 114.158125 
L 585.80105 112.664792 
L 589.963533 112.664792 
L 594.008748 105.795458 
L 597.943121 101.016792 
L 601.772565 98.627458 
L 605.502531 98.627458 
L 609.138058 98.328792 
L 612.683809 98.328792 
L 616.144113 98.328792 
L 619.522989 98.328792 
L 622.824184 98.328792 
L 626.051188 98.328792 
L 629.207263 98.328792 
L 632.29546 98.328792 
L 635.318637 98.328792 
L 638.279477 98.328792 
L 641.180497 92.952792 
L 644.024068 92.952792 
L 646.812421 92.952792 
L 649.547658 92.952792 
L 652.231767 92.952792 
L 654.866623 92.952792 
L 657.454002 92.952792 
L 659.995584 92.952792 
L 662.492962 92.952792 
L 664.947648 92.952792 
L 667.361077 92.952792 
L 669.734612 92.952792 
L 672.069552 92.952792 
L 674.367131 92.952792 
L 676.628527 92.952792 
L 678.85486 92.952792 
L 681.047202 92.952792 
L 683.206576 92.952792 
L 685.333957 92.654125 
L 687.430281 92.355458 
L 689.496441 92.355458 
L 691.533293 92.355458 
L 693.541656 92.355458 
L 695.522317 90.862125 
L 697.476029 90.862125 
L 699.403516 90.862125 
L 701.305473 90.862125 
L 703.182567 90.862125 
L 705.035439 90.862125 
L 706.864708 90.862125 
L 708.670966 90.862125 
L 710.454786 90.862125 
L 712.216717 90.862125 
L 713.957292 90.862125 
L 715.67702 90.862125 
L 717.376397 90.862125 
L 719.055897 90.862125 
L 720.715981 90.862125 
L 722.357091 90.862125 
L 723.979658 90.862125 
L 725.584095 90.862125 
L 727.170804 90.862125 
L 728.74017 90.862125 
" style="fill:none;stroke:#dbdb8d;stroke-linecap:square;stroke-width:1.5;"/>
   </g>
   <g id="line2d_46">
    <path clip-path="url(#p6d409dffab)" d="M 79.43108 149.400792 
L 178.963987 135.960792 
L 237.187006 123.715458 
L 278.496895 122.520792 
L 310.539335 120.131458 
L 336.719914 118.638125 
L 358.855278 118.638125 
L 378.029803 118.638125 
L 394.942933 117.443458 
L 410.072242 117.443458 
L 423.758368 117.443458 
L 436.252822 117.144792 
L 447.746605 112.067458 
L 458.388186 105.198125 
L 468.295261 105.198125 
L 477.562711 104.003458 
L 486.268142 104.003458 
L 494.47584 103.107458 
L 502.239657 102.808792 
L 509.60515 102.808792 
L 516.611205 102.808792 
L 523.291276 102.808792 
L 529.674355 102.808792 
L 535.78573 102.808792 
L 541.64759 101.912792 
L 547.279513 101.912792 
L 552.698859 101.912792 
L 557.921094 101.912792 
L 562.960054 101.912792 
L 567.828169 101.016792 
L 572.536644 100.718125 
L 577.095619 100.718125 
L 581.514294 99.523458 
L 585.80105 99.523458 
L 589.963533 99.523458 
L 594.008748 99.523458 
L 597.943121 99.523458 
L 601.772565 99.523458 
L 605.502531 99.523458 
L 609.138058 98.328792 
L 612.683809 97.134125 
L 616.144113 97.134125 
L 619.522989 97.134125 
L 622.824184 97.134125 
L 626.051188 97.134125 
L 629.207263 97.134125 
L 632.29546 97.134125 
L 635.318637 97.134125 
L 638.279477 97.134125 
L 641.180497 97.134125 
L 644.024068 97.134125 
L 646.812421 97.134125 
L 649.547658 97.134125 
L 652.231767 97.134125 
L 654.866623 97.134125 
L 657.454002 97.134125 
L 659.995584 97.134125 
L 662.492962 97.134125 
L 664.947648 97.134125 
L 667.361077 96.835458 
L 669.734612 96.835458 
L 672.069552 96.835458 
L 674.367131 96.835458 
L 676.628527 96.835458 
L 678.85486 95.939458 
L 681.047202 95.939458 
L 683.206576 95.939458 
L 685.333957 95.939458 
L 687.430281 95.939458 
L 689.496441 95.939458 
L 691.533293 95.939458 
L 693.541656 95.939458 
L 695.522317 95.939458 
L 697.476029 95.939458 
L 699.403516 95.939458 
L 701.305473 95.939458 
L 703.182567 95.939458 
L 705.035439 95.640792 
L 706.864708 95.640792 
L 708.670966 95.640792 
L 710.454786 95.640792 
L 712.216717 95.640792 
L 713.957292 95.640792 
L 715.67702 95.640792 
L 717.376397 95.640792 
L 719.055897 95.640792 
L 720.715981 95.640792 
L 722.357091 95.640792 
L 723.979658 95.640792 
L 725.584095 93.550125 
L 727.170804 93.550125 
L 728.74017 93.550125 
" style="fill:none;stroke:#e377c2;stroke-linecap:square;stroke-width:1.5;"/>
   </g>
   <g id="line2d_47">
    <path clip-path="url(#p6d409dffab)" d="M 79.43108 242.883458 
L 178.963987 202.862125 
L 237.187006 185.240792 
L 278.496895 172.099458 
L 310.539335 160.451458 
L 336.719914 160.451458 
L 358.855278 149.699458 
L 378.029803 149.102125 
L 394.942933 149.102125 
L 410.072242 149.102125 
L 423.758368 149.102125 
L 436.252822 148.206125 
L 447.746605 137.454125 
L 458.388186 137.454125 
L 468.295261 137.454125 
L 477.562711 137.454125 
L 486.268142 137.155458 
L 494.47584 129.390125 
L 502.239657 129.390125 
L 509.60515 129.390125 
L 516.611205 129.390125 
L 523.291276 129.390125 
L 529.674355 129.390125 
L 535.78573 129.390125 
L 541.64759 122.819458 
L 547.279513 122.222125 
L 552.698859 122.222125 
L 557.921094 122.222125 
L 562.960054 122.222125 
L 567.828169 116.846125 
L 572.536644 116.846125 
L 577.095619 116.846125 
L 581.514294 116.846125 
L 585.80105 116.846125 
L 589.963533 116.846125 
L 594.008748 116.846125 
L 597.943121 116.846125 
L 601.772565 116.846125 
L 605.502531 116.846125 
L 609.138058 116.846125 
L 612.683809 116.846125 
L 616.144113 116.846125 
L 619.522989 116.846125 
L 622.824184 116.846125 
L 626.051188 116.846125 
L 629.207263 115.950125 
L 632.29546 115.950125 
L 635.318637 115.950125 
L 638.279477 115.950125 
L 641.180497 115.950125 
L 644.024068 115.950125 
L 646.812421 115.950125 
L 649.547658 115.950125 
L 652.231767 115.950125 
L 654.866623 115.950125 
L 657.454002 115.950125 
L 659.995584 115.950125 
L 662.492962 115.950125 
L 664.947648 115.950125 
L 667.361077 115.950125 
L 669.734612 115.950125 
L 672.069552 115.950125 
L 674.367131 115.950125 
L 676.628527 115.950125 
L 678.85486 115.950125 
L 681.047202 115.950125 
L 683.206576 115.950125 
L 685.333957 115.950125 
L 687.430281 115.054125 
L 689.496441 115.054125 
L 691.533293 115.054125 
L 693.541656 115.054125 
L 695.522317 115.054125 
L 697.476029 115.054125 
L 699.403516 115.054125 
L 701.305473 115.054125 
L 703.182567 115.054125 
L 705.035439 115.054125 
L 706.864708 114.158125 
L 708.670966 114.158125 
L 710.454786 114.158125 
L 712.216717 114.158125 
L 713.957292 114.158125 
L 715.67702 114.158125 
L 717.376397 114.158125 
L 719.055897 114.158125 
L 720.715981 114.158125 
L 722.357091 114.158125 
L 723.979658 114.158125 
L 725.584095 114.158125 
L 727.170804 114.158125 
L 728.74017 114.158125 
" style="fill:none;stroke:#c5b0d5;stroke-linecap:square;stroke-width:1.5;"/>
   </g>
   <g id="line2d_48"/>
   <g id="line2d_49"/>
   <g id="line2d_50"/>
   <g id="line2d_51"/>
   <g id="line2d_52"/>
   <g id="line2d_53"/>
   <g id="line2d_54"/>
   <g id="line2d_55"/>
   <g id="line2d_56"/>
   <g id="line2d_57"/>
   <g id="line2d_58">
    <path clip-path="url(#p6d409dffab)" d="M 728.74017 288.430125 
L 728.74017 22.318125 
" style="fill:none;stroke:#ff0000;stroke-linecap:square;stroke-width:1.5;"/>
   </g>
   <g id="patch_3">
    <path d="M 46.965625 265.880792 
L 46.965625 26.947458 
" style="fill:none;stroke:#000000;stroke-linecap:square;stroke-linejoin:miter;stroke-width:0.8;"/>
   </g>
   <g id="patch_4">
    <path d="M 79.43108 288.430125 
L 728.741905 288.430125 
" style="fill:none;stroke:#000000;stroke-linecap:square;stroke-linejoin:miter;stroke-width:0.8;"/>
   </g>
   <g id="text_24">
    <!-- zlib_zlib_uncompress_fuzzer (23h, 20 trials/fuzzer) -->
    <g transform="translate(252.897813 16.318125)scale(0.12 -0.12)">
     <defs>
      <path d="M 5.515625 54.6875 
L 48.1875 54.6875 
L 48.1875 46.484375 
L 14.40625 7.171875 
L 48.1875 7.171875 
L 48.1875 0 
L 4.296875 0 
L 4.296875 8.203125 
L 38.09375 47.515625 
L 5.515625 47.515625 
z
" id="DejaVuSans-122"/>
      <path d="M 9.421875 75.984375 
L 18.40625 75.984375 
L 18.40625 0 
L 9.421875 0 
z
" id="DejaVuSans-108"/>
      <path d="M 48.6875 27.296875 
Q 48.6875 37.203125 44.609375 42.84375 
Q 40.53125 48.484375 33.40625 48.484375 
Q 26.265625 48.484375 22.1875 42.84375 
Q 18.109375 37.203125 18.109375 27.296875 
Q 18.109375 17.390625 22.1875 11.75 
Q 26.265625 6.109375 33.40625 6.109375 
Q 40.53125 6.109375 44.609375 11.75 
Q 48.6875 17.390625 48.6875 27.296875 
z
M 18.109375 46.390625 
Q 20.953125 51.265625 25.265625 53.625 
Q 29.59375 56 35.59375 56 
Q 45.5625 56 51.78125 48.09375 
Q 58.015625 40.1875 58.015625 27.296875 
Q 58.015625 14.40625 51.78125 6.484375 
Q 45.5625 -1.421875 35.59375 -1.421875 
Q 29.59375 -1.421875 25.265625 0.953125 
Q 20.953125 3.328125 18.109375 8.203125 
L 18.109375 0 
L 9.078125 0 
L 9.078125 75.984375 
L 18.109375 75.984375 
z
" id="DejaVuSans-98"/>
      <path d="M 50.984375 -16.609375 
L 50.984375 -23.578125 
L -0.984375 -23.578125 
L -0.984375 -16.609375 
z
" id="DejaVuSans-95"/>
      <path d="M 18.109375 8.203125 
L 18.109375 -20.796875 
L 9.078125 -20.796875 
L 9.078125 54.6875 
L 18.109375 54.6875 
L 18.109375 46.390625 
Q 20.953125 51.265625 25.265625 53.625 
Q 29.59375 56 35.59375 56 
Q 45.5625 56 51.78125 48.09375 
Q 58.015625 40.1875 58.015625 27.296875 
Q 58.015625 14.40625 51.78125 6.484375 
Q 45.5625 -1.421875 35.59375 -1.421875 
Q 29.59375 -1.421875 25.265625 0.953125 
Q 20.953125 3.328125 18.109375 8.203125 
z
M 48.6875 27.296875 
Q 48.6875 37.203125 44.609375 42.84375 
Q 40.53125 48.484375 33.40625 48.484375 
Q 26.265625 48.484375 22.1875 42.84375 
Q 18.109375 37.203125 18.109375 27.296875 
Q 18.109375 17.390625 22.1875 11.75 
Q 26.265625 6.109375 33.40625 6.109375 
Q 40.53125 6.109375 44.609375 11.75 
Q 48.6875 17.390625 48.6875 27.296875 
z
" id="DejaVuSans-112"/>
      <path d="M 44.28125 53.078125 
L 44.28125 44.578125 
Q 40.484375 46.53125 36.375 47.5 
Q 32.28125 48.484375 27.875 48.484375 
Q 21.1875 48.484375 17.84375 46.4375 
Q 14.5 44.390625 14.5 40.28125 
Q 14.5 37.15625 16.890625 35.375 
Q 19.28125 33.59375 26.515625 31.984375 
L 29.59375 31.296875 
Q 39.15625 29.25 43.1875 25.515625 
Q 47.21875 21.78125 47.21875 15.09375 
Q 47.21875 7.46875 41.1875 3.015625 
Q 35.15625 -1.421875 24.609375 -1.421875 
Q 20.21875 -1.421875 15.453125 -0.5625 
Q 10.6875 0.296875 5.421875 2 
L 5.421875 11.28125 
Q 10.40625 8.6875 15.234375 7.390625 
Q 20.0625 6.109375 24.8125 6.109375 
Q 31.15625 6.109375 34.5625 8.28125 
Q 37.984375 10.453125 37.984375 14.40625 
Q 37.984375 18.0625 35.515625 20.015625 
Q 33.0625 21.96875 24.703125 23.78125 
L 21.578125 24.515625 
Q 13.234375 26.265625 9.515625 29.90625 
Q 5.8125 33.546875 5.8125 39.890625 
Q 5.8125 47.609375 11.28125 51.796875 
Q 16.75 56 26.8125 56 
Q 31.78125 56 36.171875 55.265625 
Q 40.578125 54.546875 44.28125 53.078125 
z
" id="DejaVuSans-115"/>
      <path d="M 37.109375 75.984375 
L 37.109375 68.5 
L 28.515625 68.5 
Q 23.6875 68.5 21.796875 66.546875 
Q 19.921875 64.59375 19.921875 59.515625 
L 19.921875 54.6875 
L 34.71875 54.6875 
L 34.71875 47.703125 
L 19.921875 47.703125 
L 19.921875 0 
L 10.890625 0 
L 10.890625 47.703125 
L 2.296875 47.703125 
L 2.296875 54.6875 
L 10.890625 54.6875 
L 10.890625 58.5 
Q 10.890625 67.625 15.140625 71.796875 
Q 19.390625 75.984375 28.609375 75.984375 
z
" id="DejaVuSans-102"/>
      <path d="M 11.71875 12.40625 
L 22.015625 12.40625 
L 22.015625 4 
L 14.015625 -11.625 
L 7.71875 -11.625 
L 11.71875 4 
z
" id="DejaVuSans-44"/>
      <path d="M 25.390625 72.90625 
L 33.6875 72.90625 
L 8.296875 -9.28125 
L 0 -9.28125 
z
" id="DejaVuSans-47"/>
     </defs>
     <use xlink:href="#DejaVuSans-122"/>
     <use x="52.490234" xlink:href="#DejaVuSans-108"/>
     <use x="80.273438" xlink:href="#DejaVuSans-105"/>
     <use x="108.056641" xlink:href="#DejaVuSans-98"/>
     <use x="171.533203" xlink:href="#DejaVuSans-95"/>
     <use x="221.533203" xlink:href="#DejaVuSans-122"/>
     <use x="274.023438" xlink:href="#DejaVuSans-108"/>
     <use x="301.806641" xlink:href="#DejaVuSans-105"/>
     <use x="329.589844" xlink:href="#DejaVuSans-98"/>
     <use x="393.066406" xlink:href="#DejaVuSans-95"/>
     <use x="443.066406" xlink:href="#DejaVuSans-117"/>
     <use x="506.445312" xlink:href="#DejaVuSans-110"/>
     <use x="569.824219" xlink:href="#DejaVuSans-99"/>
     <use x="624.804688" xlink:href="#DejaVuSans-111"/>
     <use x="685.986328" xlink:href="#DejaVuSans-109"/>
     <use x="783.398438" xlink:href="#DejaVuSans-112"/>
     <use x="846.875" xlink:href="#DejaVuSans-114"/>
     <use x="885.738281" xlink:href="#DejaVuSans-101"/>
     <use x="947.261719" xlink:href="#DejaVuSans-115"/>
     <use x="999.361328" xlink:href="#DejaVuSans-115"/>
     <use x="1051.460938" xlink:href="#DejaVuSans-95"/>
     <use x="1101.460938" xlink:href="#DejaVuSans-102"/>
     <use x="1136.666016" xlink:href="#DejaVuSans-117"/>
     <use x="1200.044922" xlink:href="#DejaVuSans-122"/>
     <use x="1252.535156" xlink:href="#DejaVuSans-122"/>
     <use x="1305.025391" xlink:href="#DejaVuSans-101"/>
     <use x="1366.548828" xlink:href="#DejaVuSans-114"/>
     <use x="1407.662109" xlink:href="#DejaVuSans-32"/>
     <use x="1439.449219" xlink:href="#DejaVuSans-40"/>
     <use x="1478.462891" xlink:href="#DejaVuSans-50"/>
     <use x="1542.085938" xlink:href="#DejaVuSans-51"/>
     <use x="1605.708984" xlink:href="#DejaVuSans-104"/>
     <use x="1669.087891" xlink:href="#DejaVuSans-44"/>
     <use x="1700.875" xlink:href="#DejaVuSans-32"/>
     <use x="1732.662109" xlink:href="#DejaVuSans-50"/>
     <use x="1796.285156" xlink:href="#DejaVuSans-48"/>
     <use x="1859.908203" xlink:href="#DejaVuSans-32"/>
     <use x="1891.695312" xlink:href="#DejaVuSans-116"/>
     <use x="1930.904297" xlink:href="#DejaVuSans-114"/>
     <use x="1972.017578" xlink:href="#DejaVuSans-105"/>
     <use x="1999.800781" xlink:href="#DejaVuSans-97"/>
     <use x="2061.080078" xlink:href="#DejaVuSans-108"/>
     <use x="2088.863281" xlink:href="#DejaVuSans-115"/>
     <use x="2140.962891" xlink:href="#DejaVuSans-47"/>
     <use x="2174.654297" xlink:href="#DejaVuSans-102"/>
     <use x="2209.859375" xlink:href="#DejaVuSans-117"/>
     <use x="2273.238281" xlink:href="#DejaVuSans-122"/>
     <use x="2325.728516" xlink:href="#DejaVuSans-122"/>
     <use x="2378.21875" xlink:href="#DejaVuSans-101"/>
     <use x="2439.742188" xlink:href="#DejaVuSans-114"/>
     <use x="2480.855469" xlink:href="#DejaVuSans-41"/>
    </g>
   </g>
   <g id="legend_1">
    <g id="line2d_59">
     <path d="M 765.205625 30.416562 
L 785.205625 30.416562 
" style="fill:none;"/>
    </g>
    <g id="line2d_60"/>
    <g id="text_25">
     <!-- fuzzer -->
     <g transform="translate(793.205625 33.916562)scale(0.1 -0.1)">
      <use xlink:href="#DejaVuSans-102"/>
      <use x="35.205078" xlink:href="#DejaVuSans-117"/>
      <use x="98.583984" xlink:href="#DejaVuSans-122"/>
      <use x="151.074219" xlink:href="#DejaVuSans-122"/>
      <use x="203.564453" xlink:href="#DejaVuSans-101"/>
      <use x="265.087891" xlink:href="#DejaVuSans-114"/>
     </g>
    </g>
    <g id="line2d_61">
     <path d="M 765.205625 45.094688 
L 785.205625 45.094688 
" style="fill:none;stroke:#2ca02c;stroke-linecap:square;stroke-width:1.5;"/>
    </g>
    <g id="line2d_62"/>
    <g id="text_26">
     <!-- libfuzzer -->
     <g transform="translate(793.205625 48.594688)scale(0.1 -0.1)">
      <use xlink:href="#DejaVuSans-108"/>
      <use x="27.783203" xlink:href="#DejaVuSans-105"/>
      <use x="55.566406" xlink:href="#DejaVuSans-98"/>
      <use x="119.042969" xlink:href="#DejaVuSans-102"/>
      <use x="154.248047" xlink:href="#DejaVuSans-117"/>
      <use x="217.626953" xlink:href="#DejaVuSans-122"/>
      <use x="270.117188" xlink:href="#DejaVuSans-122"/>
      <use x="322.607422" xlink:href="#DejaVuSans-101"/>
      <use x="384.130859" xlink:href="#DejaVuSans-114"/>
     </g>
    </g>
    <g id="line2d_63">
     <path d="M 765.205625 59.772812 
L 785.205625 59.772812 
" style="fill:none;stroke:#ff7f0e;stroke-linecap:square;stroke-width:1.5;"/>
    </g>
    <g id="line2d_64"/>
    <g id="text_27">
     <!-- entropic -->
     <g transform="translate(793.205625 63.272812)scale(0.1 -0.1)">
      <use xlink:href="#DejaVuSans-101"/>
      <use x="61.523438" xlink:href="#DejaVuSans-110"/>
      <use x="124.902344" xlink:href="#DejaVuSans-116"/>
      <use x="164.111328" xlink:href="#DejaVuSans-114"/>
      <use x="202.974609" xlink:href="#DejaVuSans-111"/>
      <use x="264.15625" xlink:href="#DejaVuSans-112"/>
      <use x="327.632812" xlink:href="#DejaVuSans-105"/>
      <use x="355.416016" xlink:href="#DejaVuSans-99"/>
     </g>
    </g>
    <g id="line2d_65">
     <path d="M 765.205625 74.450938 
L 785.205625 74.450938 
" style="fill:none;stroke:#d62728;stroke-linecap:square;stroke-width:1.5;"/>
    </g>
    <g id="line2d_66"/>
    <g id="text_28">
     <!-- aflplusplus_qemu -->
     <g transform="translate(793.205625 77.950938)scale(0.1 -0.1)">
      <defs>
       <path d="M 14.796875 27.296875 
Q 14.796875 17.390625 18.875 11.75 
Q 22.953125 6.109375 30.078125 6.109375 
Q 37.203125 6.109375 41.296875 11.75 
Q 45.40625 17.390625 45.40625 27.296875 
Q 45.40625 37.203125 41.296875 42.84375 
Q 37.203125 48.484375 30.078125 48.484375 
Q 22.953125 48.484375 18.875 42.84375 
Q 14.796875 37.203125 14.796875 27.296875 
z
M 45.40625 8.203125 
Q 42.578125 3.328125 38.25 0.953125 
Q 33.9375 -1.421875 27.875 -1.421875 
Q 17.96875 -1.421875 11.734375 6.484375 
Q 5.515625 14.40625 5.515625 27.296875 
Q 5.515625 40.1875 11.734375 48.09375 
Q 17.96875 56 27.875 56 
Q 33.9375 56 38.25 53.625 
Q 42.578125 51.265625 45.40625 46.390625 
L 45.40625 54.6875 
L 54.390625 54.6875 
L 54.390625 -20.796875 
L 45.40625 -20.796875 
z
" id="DejaVuSans-113"/>
      </defs>
      <use xlink:href="#DejaVuSans-97"/>
      <use x="61.279297" xlink:href="#DejaVuSans-102"/>
      <use x="96.484375" xlink:href="#DejaVuSans-108"/>
      <use x="124.267578" xlink:href="#DejaVuSans-112"/>
      <use x="187.744141" xlink:href="#DejaVuSans-108"/>
      <use x="215.527344" xlink:href="#DejaVuSans-117"/>
      <use x="278.90625" xlink:href="#DejaVuSans-115"/>
      <use x="331.005859" xlink:href="#DejaVuSans-112"/>
      <use x="394.482422" xlink:href="#DejaVuSans-108"/>
      <use x="422.265625" xlink:href="#DejaVuSans-117"/>
      <use x="485.644531" xlink:href="#DejaVuSans-115"/>
      <use x="537.744141" xlink:href="#DejaVuSans-95"/>
      <use x="587.744141" xlink:href="#DejaVuSans-113"/>
      <use x="651.220703" xlink:href="#DejaVuSans-101"/>
      <use x="712.744141" xlink:href="#DejaVuSans-109"/>
      <use x="810.15625" xlink:href="#DejaVuSans-117"/>
     </g>
    </g>
    <g id="line2d_67">
     <path d="M 765.205625 89.407188 
L 785.205625 89.407188 
" style="fill:none;stroke:#1f77b4;stroke-linecap:square;stroke-width:1.5;"/>
    </g>
    <g id="line2d_68"/>
    <g id="text_29">
     <!-- aflplusplus -->
     <g transform="translate(793.205625 92.907188)scale(0.1 -0.1)">
      <use xlink:href="#DejaVuSans-97"/>
      <use x="61.279297" xlink:href="#DejaVuSans-102"/>
      <use x="96.484375" xlink:href="#DejaVuSans-108"/>
      <use x="124.267578" xlink:href="#DejaVuSans-112"/>
      <use x="187.744141" xlink:href="#DejaVuSans-108"/>
      <use x="215.527344" xlink:href="#DejaVuSans-117"/>
      <use x="278.90625" xlink:href="#DejaVuSans-115"/>
      <use x="331.005859" xlink:href="#DejaVuSans-112"/>
      <use x="394.482422" xlink:href="#DejaVuSans-108"/>
      <use x="422.265625" xlink:href="#DejaVuSans-117"/>
      <use x="485.644531" xlink:href="#DejaVuSans-115"/>
     </g>
    </g>
    <g id="line2d_69">
     <path d="M 765.205625 104.085313 
L 785.205625 104.085313 
" style="fill:none;stroke:#ff9896;stroke-linecap:square;stroke-width:1.5;"/>
    </g>
    <g id="line2d_70"/>
    <g id="text_30">
     <!-- fairfuzz -->
     <g transform="translate(793.205625 107.585313)scale(0.1 -0.1)">
      <use xlink:href="#DejaVuSans-102"/>
      <use x="35.205078" xlink:href="#DejaVuSans-97"/>
      <use x="96.484375" xlink:href="#DejaVuSans-105"/>
      <use x="124.267578" xlink:href="#DejaVuSans-114"/>
      <use x="165.380859" xlink:href="#DejaVuSans-102"/>
      <use x="200.585938" xlink:href="#DejaVuSans-117"/>
      <use x="263.964844" xlink:href="#DejaVuSans-122"/>
      <use x="316.455078" xlink:href="#DejaVuSans-122"/>
     </g>
    </g>
    <g id="line2d_71">
     <path d="M 765.205625 118.763438 
L 785.205625 118.763438 
" style="fill:none;stroke:#98df8a;stroke-linecap:square;stroke-width:1.5;"/>
    </g>
    <g id="line2d_72"/>
    <g id="text_31">
     <!-- aflplusplus_flat -->
     <g transform="translate(793.205625 122.263438)scale(0.1 -0.1)">
      <use xlink:href="#DejaVuSans-97"/>
      <use x="61.279297" xlink:href="#DejaVuSans-102"/>
      <use x="96.484375" xlink:href="#DejaVuSans-108"/>
      <use x="124.267578" xlink:href="#DejaVuSans-112"/>
      <use x="187.744141" xlink:href="#DejaVuSans-108"/>
      <use x="215.527344" xlink:href="#DejaVuSans-117"/>
      <use x="278.90625" xlink:href="#DejaVuSans-115"/>
      <use x="331.005859" xlink:href="#DejaVuSans-112"/>
      <use x="394.482422" xlink:href="#DejaVuSans-108"/>
      <use x="422.265625" xlink:href="#DejaVuSans-117"/>
      <use x="485.644531" xlink:href="#DejaVuSans-115"/>
      <use x="537.744141" xlink:href="#DejaVuSans-95"/>
      <use x="587.744141" xlink:href="#DejaVuSans-102"/>
      <use x="622.949219" xlink:href="#DejaVuSans-108"/>
      <use x="650.732422" xlink:href="#DejaVuSans-97"/>
      <use x="712.011719" xlink:href="#DejaVuSans-116"/>
     </g>
    </g>
    <g id="line2d_73">
     <path d="M 765.205625 133.719688 
L 785.205625 133.719688 
" style="fill:none;stroke:#dbdb8d;stroke-linecap:square;stroke-width:1.5;"/>
    </g>
    <g id="line2d_74"/>
    <g id="text_32">
     <!-- lafintel -->
     <g transform="translate(793.205625 137.219688)scale(0.1 -0.1)">
      <use xlink:href="#DejaVuSans-108"/>
      <use x="27.783203" xlink:href="#DejaVuSans-97"/>
      <use x="89.0625" xlink:href="#DejaVuSans-102"/>
      <use x="124.267578" xlink:href="#DejaVuSans-105"/>
      <use x="152.050781" xlink:href="#DejaVuSans-110"/>
      <use x="215.429688" xlink:href="#DejaVuSans-116"/>
      <use x="254.638672" xlink:href="#DejaVuSans-101"/>
      <use x="316.162109" xlink:href="#DejaVuSans-108"/>
     </g>
    </g>
    <g id="line2d_75">
     <path d="M 765.205625 148.397813 
L 785.205625 148.397813 
" style="fill:none;stroke:#e377c2;stroke-linecap:square;stroke-width:1.5;"/>
    </g>
    <g id="line2d_76"/>
    <g id="text_33">
     <!-- honggfuzz -->
     <g transform="translate(793.205625 151.897813)scale(0.1 -0.1)">
      <use xlink:href="#DejaVuSans-104"/>
      <use x="63.378906" xlink:href="#DejaVuSans-111"/>
      <use x="124.560547" xlink:href="#DejaVuSans-110"/>
      <use x="187.939453" xlink:href="#DejaVuSans-103"/>
      <use x="251.416016" xlink:href="#DejaVuSans-103"/>
      <use x="314.892578" xlink:href="#DejaVuSans-102"/>
      <use x="350.097656" xlink:href="#DejaVuSans-117"/>
      <use x="413.476562" xlink:href="#DejaVuSans-122"/>
      <use x="465.966797" xlink:href="#DejaVuSans-122"/>
     </g>
    </g>
    <g id="line2d_77">
     <path d="M 765.205625 163.075938 
L 785.205625 163.075938 
" style="fill:none;stroke:#c5b0d5;stroke-linecap:square;stroke-width:1.5;"/>
    </g>
    <g id="line2d_78"/>
    <g id="text_34">
     <!-- mopt -->
     <g transform="translate(793.205625 166.575938)scale(0.1 -0.1)">
      <use xlink:href="#DejaVuSans-109"/>
      <use x="97.412109" xlink:href="#DejaVuSans-111"/>
      <use x="158.59375" xlink:href="#DejaVuSans-112"/>
      <use x="222.070312" xlink:href="#DejaVuSans-116"/>
     </g>
    </g>
   </g>
  </g>
 </g>
 <defs>
  <clipPath id="p6d409dffab">
   <rect height="266.112" width="714.24" x="46.965625" y="22.318125"/>
  </clipPath>
 </defs>
</svg>
