<?xml version="1.0" encoding="utf-8" standalone="no"?>
<!DOCTYPE svg PUBLIC "-//W3C//DTD SVG 1.1//EN"
  "http://www.w3.org/Graphics/SVG/1.1/DTD/svg11.dtd">
<!-- Created with matplotlib (https://matplotlib.org/) -->
<svg height="368.607178pt" version="1.1" viewBox="0 0 411.285625 368.607178" width="411.285625pt" xmlns="http://www.w3.org/2000/svg" xmlns:xlink="http://www.w3.org/1999/xlink">
 <metadata>
  <rdf:RDF xmlns:cc="http://creativecommons.org/ns#" xmlns:dc="http://purl.org/dc/elements/1.1/" xmlns:rdf="http://www.w3.org/1999/02/22-rdf-syntax-ns#">
   <cc:Work>
    <dc:type rdf:resource="http://purl.org/dc/dcmitype/StillImage"/>
    <dc:date>2020-12-06T10:29:18.019724</dc:date>
    <dc:format>image/svg+xml</dc:format>
    <dc:creator>
     <cc:Agent>
      <dc:title>Matplotlib v3.3.3, https://matplotlib.org/</dc:title>
     </cc:Agent>
    </dc:creator>
   </cc:Work>
  </rdf:RDF>
 </metadata>
 <defs>
  <style type="text/css">*{stroke-linecap:butt;stroke-linejoin:round;}</style>
 </defs>
 <g id="figure_1">
  <g id="patch_1">
   <path d="M 0 368.607178 
L 411.285625 368.607178 
L 411.285625 0 
L 0 0 
z
" style="fill:#ffffff;"/>
  </g>
  <g id="axes_1">
   <g id="patch_2">
    <path d="M 46.965625 288.430125 
L 404.085625 288.430125 
L 404.085625 22.318125 
L 46.965625 22.318125 
z
" style="fill:#ffffff;"/>
   </g>
   <g id="PolyCollection_1">
    <defs>
     <path d="M 66.97014 -147.308663 
L 66.64111 -147.308663 
L 66.605118 -149.196384 
L 66.562801 -151.084105 
L 66.513418 -152.971827 
L 66.456224 -154.859548 
L 66.390494 -156.747269 
L 66.315538 -158.63499 
L 66.230736 -160.522711 
L 66.135564 -162.410432 
L 66.02963 -164.298153 
L 65.9127 -166.185874 
L 65.784736 -168.073595 
L 65.645926 -169.961317 
L 65.496711 -171.849038 
L 65.337808 -173.736759 
L 65.170225 -175.62448 
L 64.995273 -177.512201 
L 64.814563 -179.399922 
L 64.629991 -181.287643 
L 64.443723 -183.175364 
L 64.258151 -185.063085 
L 64.075856 -186.950807 
L 63.899547 -188.838528 
L 63.731997 -190.726249 
L 63.575971 -192.61397 
L 63.43415 -194.501691 
L 63.309049 -196.389412 
L 63.202942 -198.277133 
L 63.117788 -200.164854 
L 63.05516 -202.052575 
L 63.016194 -203.940296 
L 63.00154 -205.828018 
L 63.011333 -207.715739 
L 63.045179 -209.60346 
L 63.102154 -211.491181 
L 63.180822 -213.378902 
L 63.279272 -215.266623 
L 63.395155 -217.154344 
L 63.52575 -219.042065 
L 63.668029 -220.929786 
L 63.81873 -222.817508 
L 63.974437 -224.705229 
L 64.131658 -226.59295 
L 64.286906 -228.480671 
L 64.43677 -230.368392 
L 64.577993 -232.256113 
L 64.707529 -234.143834 
L 64.822605 -236.031555 
L 64.920767 -237.919276 
L 64.999927 -239.806998 
L 65.058393 -241.694719 
L 65.094899 -243.58244 
L 65.108626 -245.470161 
L 65.099214 -247.357882 
L 65.066772 -249.245603 
L 65.011878 -251.133324 
L 64.935575 -253.021045 
L 64.839357 -254.908766 
L 64.725151 -256.796488 
L 64.595288 -258.684209 
L 64.452465 -260.57193 
L 64.2997 -262.459651 
L 64.140279 -264.347372 
L 63.977686 -266.235093 
L 63.815538 -268.122814 
L 63.657496 -270.010535 
L 63.507192 -271.898256 
L 63.36813 -273.785977 
L 63.243606 -275.673699 
L 63.136621 -277.56142 
L 63.049803 -279.449141 
L 62.985334 -281.336862 
L 62.944899 -283.224583 
L 62.929638 -285.112304 
L 62.940123 -287.000025 
L 62.976348 -288.887746 
L 63.03774 -290.775467 
L 63.123188 -292.663189 
L 63.231087 -294.55091 
L 63.359397 -296.438631 
L 63.505716 -298.326352 
L 63.667362 -300.214073 
L 63.841455 -302.101794 
L 64.02501 -303.989515 
L 64.215024 -305.877236 
L 64.408556 -307.764957 
L 64.602799 -309.652679 
L 64.795151 -311.5404 
L 64.983264 -313.428121 
L 65.165081 -315.315842 
L 65.338869 -317.203563 
L 65.503224 -319.091284 
L 65.657081 -320.979005 
L 65.799697 -322.866726 
L 65.930638 -324.754447 
L 66.049747 -326.642168 
L 66.157114 -328.52989 
L 66.253042 -330.417611 
L 66.338005 -332.305332 
L 66.412615 -334.193053 
L 67.198635 -334.193053 
L 67.198635 -334.193053 
L 67.273245 -332.305332 
L 67.358208 -330.417611 
L 67.454136 -328.52989 
L 67.561503 -326.642168 
L 67.680612 -324.754447 
L 67.811553 -322.866726 
L 67.954169 -320.979005 
L 68.108026 -319.091284 
L 68.272381 -317.203563 
L 68.446169 -315.315842 
L 68.627986 -313.428121 
L 68.816099 -311.5404 
L 69.008451 -309.652679 
L 69.202694 -307.764957 
L 69.396226 -305.877236 
L 69.58624 -303.989515 
L 69.769795 -302.101794 
L 69.943888 -300.214073 
L 70.105534 -298.326352 
L 70.251853 -296.438631 
L 70.380163 -294.55091 
L 70.488062 -292.663189 
L 70.57351 -290.775467 
L 70.634902 -288.887746 
L 70.671127 -287.000025 
L 70.681612 -285.112304 
L 70.666351 -283.224583 
L 70.625916 -281.336862 
L 70.561447 -279.449141 
L 70.474629 -277.56142 
L 70.367644 -275.673699 
L 70.24312 -273.785977 
L 70.104058 -271.898256 
L 69.953754 -270.010535 
L 69.795712 -268.122814 
L 69.633564 -266.235093 
L 69.470971 -264.347372 
L 69.31155 -262.459651 
L 69.158785 -260.57193 
L 69.015962 -258.684209 
L 68.886099 -256.796488 
L 68.771893 -254.908766 
L 68.675675 -253.021045 
L 68.599372 -251.133324 
L 68.544478 -249.245603 
L 68.512036 -247.357882 
L 68.502624 -245.470161 
L 68.516351 -243.58244 
L 68.552857 -241.694719 
L 68.611323 -239.806998 
L 68.690483 -237.919276 
L 68.788645 -236.031555 
L 68.903721 -234.143834 
L 69.033257 -232.256113 
L 69.17448 -230.368392 
L 69.324344 -228.480671 
L 69.479592 -226.59295 
L 69.636813 -224.705229 
L 69.79252 -222.817508 
L 69.943221 -220.929786 
L 70.0855 -219.042065 
L 70.216095 -217.154344 
L 70.331978 -215.266623 
L 70.430428 -213.378902 
L 70.509096 -211.491181 
L 70.566071 -209.60346 
L 70.599917 -207.715739 
L 70.60971 -205.828018 
L 70.595056 -203.940296 
L 70.55609 -202.052575 
L 70.493462 -200.164854 
L 70.408308 -198.277133 
L 70.302201 -196.389412 
L 70.1771 -194.501691 
L 70.035279 -192.61397 
L 69.879253 -190.726249 
L 69.711703 -188.838528 
L 69.535394 -186.950807 
L 69.353099 -185.063085 
L 69.167527 -183.175364 
L 68.981259 -181.287643 
L 68.796687 -179.399922 
L 68.615977 -177.512201 
L 68.441025 -175.62448 
L 68.273442 -173.736759 
L 68.114539 -171.849038 
L 67.965324 -169.961317 
L 67.826514 -168.073595 
L 67.69855 -166.185874 
L 67.58162 -164.298153 
L 67.475686 -162.410432 
L 67.380514 -160.522711 
L 67.295712 -158.63499 
L 67.220756 -156.747269 
L 67.155026 -154.859548 
L 67.097832 -152.971827 
L 67.048449 -151.084105 
L 67.006132 -149.196384 
L 66.97014 -147.308663 
z
" id="me8a0013193" style="stroke:#3d3d3d;stroke-width:1.5;"/>
    </defs>
    <g clip-path="url(#p2a26d20cd8)">
     <use style="fill:#3a923a;stroke:#3d3d3d;stroke-width:1.5;" x="0" xlink:href="#me8a0013193" y="368.607178"/>
    </g>
   </g>
   <g id="PolyCollection_2">
    <defs>
     <path d="M 106.581931 -143.471661 
L 106.389319 -143.471661 
L 106.364258 -145.358985 
L 106.3338 -147.246309 
L 106.297063 -149.133633 
L 106.25308 -151.020957 
L 106.200802 -152.90828 
L 106.139103 -154.795604 
L 106.06679 -156.682928 
L 105.982617 -158.570252 
L 105.885297 -160.457576 
L 105.77353 -162.3449 
L 105.646029 -164.232223 
L 105.501559 -166.119547 
L 105.338975 -168.006871 
L 105.157282 -169.894195 
L 104.955688 -171.781519 
L 104.73368 -173.668842 
L 104.49109 -175.556166 
L 104.228181 -177.44349 
L 103.945723 -179.330814 
L 103.645068 -181.218138 
L 103.328218 -183.105462 
L 102.997876 -184.992785 
L 102.657474 -186.880109 
L 102.311181 -188.767433 
L 101.963867 -190.654757 
L 101.621037 -192.542081 
L 101.288724 -194.429405 
L 100.97334 -196.316728 
L 100.681491 -198.204052 
L 100.419762 -200.091376 
L 100.194481 -201.9787 
L 100.011464 -203.866024 
L 99.875771 -205.753347 
L 99.791476 -207.640671 
L 99.761465 -209.527995 
L 99.787277 -211.415319 
L 99.869008 -213.302643 
L 100.005269 -215.189967 
L 100.193213 -217.07729 
L 100.42863 -218.964614 
L 100.706104 -220.851938 
L 101.019215 -222.739262 
L 101.360791 -224.626586 
L 101.723178 -226.51391 
L 102.098519 -228.401233 
L 102.479031 -230.288557 
L 102.857259 -232.175881 
L 103.226295 -234.063205 
L 103.579954 -235.950529 
L 103.912908 -237.837852 
L 104.220766 -239.725176 
L 104.500103 -241.6125 
L 104.748456 -243.499824 
L 104.964278 -245.387148 
L 105.146862 -247.274472 
L 105.296257 -249.161795 
L 105.413169 -251.049119 
L 105.498857 -252.936443 
L 105.555046 -254.823767 
L 105.583839 -256.711091 
L 105.587644 -258.598415 
L 105.569117 -260.485738 
L 105.531112 -262.373062 
L 105.47664 -264.260386 
L 105.408834 -266.14771 
L 105.33091 -268.035034 
L 105.246137 -269.922357 
L 105.157787 -271.809681 
L 105.069091 -273.697005 
L 104.983179 -275.584329 
L 104.903019 -277.471653 
L 104.831349 -279.358977 
L 104.770608 -281.2463 
L 104.722872 -283.133624 
L 104.689795 -285.020948 
L 104.672561 -286.908272 
L 104.671857 -288.795596 
L 104.687854 -290.68292 
L 104.720217 -292.570243 
L 104.768133 -294.457567 
L 104.830351 -296.344891 
L 104.905251 -298.232215 
L 104.990919 -300.119539 
L 105.085231 -302.006862 
L 105.185942 -303.894186 
L 105.290782 -305.78151 
L 105.397535 -307.668834 
L 105.504117 -309.556158 
L 105.60864 -311.443482 
L 105.70946 -313.330805 
L 105.80521 -315.218129 
L 105.894817 -317.105453 
L 105.977507 -318.992777 
L 106.052789 -320.880101 
L 106.120437 -322.767425 
L 106.180458 -324.654748 
L 106.233055 -326.542072 
L 106.278591 -328.429396 
L 106.317547 -330.31672 
L 106.653703 -330.31672 
L 106.653703 -330.31672 
L 106.692659 -328.429396 
L 106.738195 -326.542072 
L 106.790792 -324.654748 
L 106.850813 -322.767425 
L 106.918461 -320.880101 
L 106.993743 -318.992777 
L 107.076433 -317.105453 
L 107.16604 -315.218129 
L 107.26179 -313.330805 
L 107.36261 -311.443482 
L 107.467133 -309.556158 
L 107.573715 -307.668834 
L 107.680468 -305.78151 
L 107.785308 -303.894186 
L 107.886019 -302.006862 
L 107.980331 -300.119539 
L 108.065999 -298.232215 
L 108.140899 -296.344891 
L 108.203117 -294.457567 
L 108.251033 -292.570243 
L 108.283396 -290.68292 
L 108.299393 -288.795596 
L 108.298689 -286.908272 
L 108.281455 -285.020948 
L 108.248378 -283.133624 
L 108.200642 -281.2463 
L 108.139901 -279.358977 
L 108.068231 -277.471653 
L 107.988071 -275.584329 
L 107.902159 -273.697005 
L 107.813463 -271.809681 
L 107.725113 -269.922357 
L 107.64034 -268.035034 
L 107.562416 -266.14771 
L 107.49461 -264.260386 
L 107.440138 -262.373062 
L 107.402133 -260.485738 
L 107.383606 -258.598415 
L 107.387411 -256.711091 
L 107.416204 -254.823767 
L 107.472393 -252.936443 
L 107.558081 -251.049119 
L 107.674993 -249.161795 
L 107.824388 -247.274472 
L 108.006972 -245.387148 
L 108.222794 -243.499824 
L 108.471147 -241.6125 
L 108.750484 -239.725176 
L 109.058342 -237.837852 
L 109.391296 -235.950529 
L 109.744955 -234.063205 
L 110.113991 -232.175881 
L 110.492219 -230.288557 
L 110.872731 -228.401233 
L 111.248072 -226.51391 
L 111.610459 -224.626586 
L 111.952035 -222.739262 
L 112.265146 -220.851938 
L 112.54262 -218.964614 
L 112.778037 -217.07729 
L 112.965981 -215.189967 
L 113.102242 -213.302643 
L 113.183973 -211.415319 
L 113.209785 -209.527995 
L 113.179774 -207.640671 
L 113.095479 -205.753347 
L 112.959786 -203.866024 
L 112.776769 -201.9787 
L 112.551488 -200.091376 
L 112.289759 -198.204052 
L 111.99791 -196.316728 
L 111.682526 -194.429405 
L 111.350213 -192.542081 
L 111.007383 -190.654757 
L 110.660069 -188.767433 
L 110.313776 -186.880109 
L 109.973374 -184.992785 
L 109.643032 -183.105462 
L 109.326182 -181.218138 
L 109.025527 -179.330814 
L 108.743069 -177.44349 
L 108.48016 -175.556166 
L 108.23757 -173.668842 
L 108.015562 -171.781519 
L 107.813968 -169.894195 
L 107.632275 -168.006871 
L 107.469691 -166.119547 
L 107.325221 -164.232223 
L 107.19772 -162.3449 
L 107.085953 -160.457576 
L 106.988633 -158.570252 
L 106.90446 -156.682928 
L 106.832147 -154.795604 
L 106.770448 -152.90828 
L 106.71817 -151.020957 
L 106.674187 -149.133633 
L 106.63745 -147.246309 
L 106.606992 -145.358985 
L 106.581931 -143.471661 
z
" id="m9242e2ad35" style="stroke:#3d3d3d;stroke-width:1.5;"/>
    </defs>
    <g clip-path="url(#p2a26d20cd8)">
     <use style="fill:#c03d3e;stroke:#3d3d3d;stroke-width:1.5;" x="0" xlink:href="#m9242e2ad35" y="368.607178"/>
    </g>
   </g>
   <g id="PolyCollection_3">
    <defs>
     <path d="M 146.234308 -92.273053 
L 146.096942 -92.273053 
L 146.076893 -94.571392 
L 146.052984 -96.869732 
L 146.02512 -99.168071 
L 145.993411 -101.46641 
L 145.958214 -103.76475 
L 145.920168 -106.063089 
L 145.880191 -108.361428 
L 145.839471 -110.659768 
L 145.799416 -112.958107 
L 145.761577 -115.256446 
L 145.727556 -117.554786 
L 145.698886 -119.853125 
L 145.676911 -122.151464 
L 145.66267 -124.449804 
L 145.656797 -126.748143 
L 145.659446 -129.046482 
L 145.670249 -131.344822 
L 145.688313 -133.643161 
L 145.712239 -135.9415 
L 145.740175 -138.23984 
L 145.769883 -140.538179 
L 145.798804 -142.836518 
L 145.824128 -145.134858 
L 145.842845 -147.433197 
L 145.85178 -149.731536 
L 145.847616 -152.029876 
L 145.826906 -154.328215 
L 145.786088 -156.626554 
L 145.721504 -158.924894 
L 145.629455 -161.223233 
L 145.506273 -163.521572 
L 145.348444 -165.819912 
L 145.15277 -168.118251 
L 144.916568 -170.41659 
L 144.6379 -172.71493 
L 144.315835 -175.013269 
L 143.950706 -177.311609 
L 143.544368 -179.609948 
L 143.10042 -181.908287 
L 142.624389 -184.206627 
L 142.123834 -186.504966 
L 141.608362 -188.803305 
L 141.089527 -191.101645 
L 140.580586 -193.399984 
L 140.096117 -195.698323 
L 139.651464 -197.996663 
L 139.262058 -200.295002 
L 138.942603 -202.593341 
L 138.706214 -204.891681 
L 138.563542 -207.19002 
L 138.521984 -209.488359 
L 138.585046 -211.786699 
L 138.751946 -214.085038 
L 139.017503 -216.383377 
L 139.372348 -218.681717 
L 139.80344 -220.980056 
L 140.294866 -223.278395 
L 140.828826 -225.576735 
L 141.386729 -227.875074 
L 141.950295 -230.173413 
L 142.502544 -232.471753 
L 143.028618 -234.770092 
L 143.516352 -237.068431 
L 143.956593 -239.366771 
L 144.343259 -241.66511 
L 144.673174 -243.963449 
L 144.945745 -246.261789 
L 145.162528 -248.560128 
L 145.326761 -250.858467 
L 145.442906 -253.156807 
L 145.516251 -255.455146 
L 145.552578 -257.753485 
L 145.557924 -260.051825 
L 145.538406 -262.350164 
L 145.500097 -264.648503 
L 145.448933 -266.946843 
L 145.390629 -269.245182 
L 145.330575 -271.543521 
L 145.273723 -273.841861 
L 145.224449 -276.1402 
L 145.186414 -278.438539 
L 145.162431 -280.736879 
L 145.15436 -283.035218 
L 145.163048 -285.333558 
L 145.188335 -287.631897 
L 145.229119 -289.930236 
L 145.283487 -292.228576 
L 145.3489 -294.526915 
L 145.422413 -296.825254 
L 145.500906 -299.123594 
L 145.581311 -301.421933 
L 145.660808 -303.720272 
L 145.73698 -306.018612 
L 145.807909 -308.316951 
L 145.87223 -310.61529 
L 145.92912 -312.91363 
L 145.978255 -315.211969 
L 146.019732 -317.510308 
L 146.05398 -319.808648 
L 146.27727 -319.808648 
L 146.27727 -319.808648 
L 146.311518 -317.510308 
L 146.352995 -315.211969 
L 146.40213 -312.91363 
L 146.45902 -310.61529 
L 146.523341 -308.316951 
L 146.59427 -306.018612 
L 146.670442 -303.720272 
L 146.749939 -301.421933 
L 146.830344 -299.123594 
L 146.908837 -296.825254 
L 146.98235 -294.526915 
L 147.047763 -292.228576 
L 147.102131 -289.930236 
L 147.142915 -287.631897 
L 147.168202 -285.333558 
L 147.17689 -283.035218 
L 147.168819 -280.736879 
L 147.144836 -278.438539 
L 147.106801 -276.1402 
L 147.057527 -273.841861 
L 147.000675 -271.543521 
L 146.940621 -269.245182 
L 146.882317 -266.946843 
L 146.831153 -264.648503 
L 146.792844 -262.350164 
L 146.773326 -260.051825 
L 146.778672 -257.753485 
L 146.814999 -255.455146 
L 146.888344 -253.156807 
L 147.004489 -250.858467 
L 147.168722 -248.560128 
L 147.385505 -246.261789 
L 147.658076 -243.963449 
L 147.987991 -241.66511 
L 148.374657 -239.366771 
L 148.814898 -237.068431 
L 149.302632 -234.770092 
L 149.828706 -232.471753 
L 150.380955 -230.173413 
L 150.944521 -227.875074 
L 151.502424 -225.576735 
L 152.036384 -223.278395 
L 152.52781 -220.980056 
L 152.958902 -218.681717 
L 153.313747 -216.383377 
L 153.579304 -214.085038 
L 153.746204 -211.786699 
L 153.809266 -209.488359 
L 153.767708 -207.19002 
L 153.625036 -204.891681 
L 153.388647 -202.593341 
L 153.069192 -200.295002 
L 152.679786 -197.996663 
L 152.235133 -195.698323 
L 151.750664 -193.399984 
L 151.241723 -191.101645 
L 150.722888 -188.803305 
L 150.207416 -186.504966 
L 149.706861 -184.206627 
L 149.23083 -181.908287 
L 148.786882 -179.609948 
L 148.380544 -177.311609 
L 148.015415 -175.013269 
L 147.69335 -172.71493 
L 147.414682 -170.41659 
L 147.17848 -168.118251 
L 146.982806 -165.819912 
L 146.824977 -163.521572 
L 146.701795 -161.223233 
L 146.609746 -158.924894 
L 146.545162 -156.626554 
L 146.504344 -154.328215 
L 146.483634 -152.029876 
L 146.47947 -149.731536 
L 146.488405 -147.433197 
L 146.507122 -145.134858 
L 146.532446 -142.836518 
L 146.561367 -140.538179 
L 146.591075 -138.23984 
L 146.619011 -135.9415 
L 146.642937 -133.643161 
L 146.661001 -131.344822 
L 146.671804 -129.046482 
L 146.674453 -126.748143 
L 146.66858 -124.449804 
L 146.654339 -122.151464 
L 146.632364 -119.853125 
L 146.603694 -117.554786 
L 146.569673 -115.256446 
L 146.531834 -112.958107 
L 146.491779 -110.659768 
L 146.451059 -108.361428 
L 146.411082 -106.063089 
L 146.373036 -103.76475 
L 146.337839 -101.46641 
L 146.30613 -99.168071 
L 146.278266 -96.869732 
L 146.254357 -94.571392 
L 146.234308 -92.273053 
z
" id="m8019a4c01e" style="stroke:#3d3d3d;stroke-width:1.5;"/>
    </defs>
    <g clip-path="url(#p2a26d20cd8)">
     <use style="fill:#9fd495;stroke:#3d3d3d;stroke-width:1.5;" x="0" xlink:href="#m8019a4c01e" y="368.607178"/>
    </g>
   </g>
   <g id="PolyCollection_4">
    <defs>
     <path d="M 186.239315 -171.287363 
L 185.451935 -171.287363 
L 185.316507 -172.65171 
L 185.14482 -174.016057 
L 184.930794 -175.380403 
L 184.668446 -176.74475 
L 184.352257 -178.109097 
L 183.977583 -179.473444 
L 183.541102 -180.83779 
L 183.041243 -182.202137 
L 182.47857 -183.566484 
L 181.856079 -184.93083 
L 181.179375 -186.295177 
L 180.456696 -187.659524 
L 179.698786 -189.02387 
L 178.918598 -190.388217 
L 178.130878 -191.752564 
L 177.351627 -193.11691 
L 176.597516 -194.481257 
L 175.885277 -195.845604 
L 175.231118 -197.20995 
L 174.650198 -198.574297 
L 174.156176 -199.938644 
L 173.760835 -201.30299 
L 173.473791 -202.667337 
L 173.302258 -204.031684 
L 173.250854 -205.396031 
L 173.321461 -206.760377 
L 173.513102 -208.124724 
L 173.821879 -209.489071 
L 174.240965 -210.853417 
L 174.760699 -212.217764 
L 175.368786 -213.582111 
L 176.050632 -214.946457 
L 176.789825 -216.310804 
L 177.568733 -217.675151 
L 178.369206 -219.039497 
L 179.173324 -220.403844 
L 179.964144 -221.768191 
L 180.72639 -223.132537 
L 181.447019 -224.496884 
L 182.115634 -225.861231 
L 182.724715 -227.225578 
L 183.269656 -228.589924 
L 183.748627 -229.954271 
L 184.162282 -231.318618 
L 184.513362 -232.682964 
L 184.806227 -234.047311 
L 185.046367 -235.411658 
L 185.239934 -236.776004 
L 185.393321 -238.140351 
L 185.512815 -239.504698 
L 185.604327 -240.869044 
L 185.673209 -242.233391 
L 185.724143 -243.597738 
L 185.761104 -244.962084 
L 185.78736 -246.326431 
L 185.805516 -247.690778 
L 185.817582 -249.055124 
L 185.825043 -250.419471 
L 185.828932 -251.783818 
L 185.829906 -253.148165 
L 185.8283 -254.512511 
L 185.824189 -255.876858 
L 185.817425 -257.241205 
L 185.807686 -258.605551 
L 185.794515 -259.969898 
L 185.777361 -261.334245 
L 185.755635 -262.698591 
L 185.728763 -264.062938 
L 185.696253 -265.427285 
L 185.65777 -266.791631 
L 185.613208 -268.155978 
L 185.562762 -269.520325 
L 185.506986 -270.884671 
L 185.446834 -272.249018 
L 185.383674 -273.613365 
L 185.319255 -274.977711 
L 185.255657 -276.342058 
L 185.195184 -277.706405 
L 185.140233 -279.070752 
L 185.093144 -280.435098 
L 185.056033 -281.799445 
L 185.030635 -283.163792 
L 185.01817 -284.528138 
L 185.019246 -285.892485 
L 185.033812 -287.256832 
L 185.061156 -288.621178 
L 185.099971 -289.985525 
L 185.14845 -291.349872 
L 185.204432 -292.714218 
L 185.265559 -294.078565 
L 185.329435 -295.442912 
L 185.393786 -296.807258 
L 185.45658 -298.171605 
L 185.516122 -299.535952 
L 185.571114 -300.900298 
L 185.620666 -302.264645 
L 185.664286 -303.628992 
L 185.701838 -304.993339 
L 185.733477 -306.357685 
L 185.957773 -306.357685 
L 185.957773 -306.357685 
L 185.989412 -304.993339 
L 186.026964 -303.628992 
L 186.070584 -302.264645 
L 186.120136 -300.900298 
L 186.175128 -299.535952 
L 186.23467 -298.171605 
L 186.297464 -296.807258 
L 186.361815 -295.442912 
L 186.425691 -294.078565 
L 186.486818 -292.714218 
L 186.5428 -291.349872 
L 186.591279 -289.985525 
L 186.630094 -288.621178 
L 186.657438 -287.256832 
L 186.672004 -285.892485 
L 186.67308 -284.528138 
L 186.660615 -283.163792 
L 186.635217 -281.799445 
L 186.598106 -280.435098 
L 186.551017 -279.070752 
L 186.496066 -277.706405 
L 186.435593 -276.342058 
L 186.371995 -274.977711 
L 186.307576 -273.613365 
L 186.244416 -272.249018 
L 186.184264 -270.884671 
L 186.128488 -269.520325 
L 186.078042 -268.155978 
L 186.03348 -266.791631 
L 185.994997 -265.427285 
L 185.962487 -264.062938 
L 185.935615 -262.698591 
L 185.913889 -261.334245 
L 185.896735 -259.969898 
L 185.883564 -258.605551 
L 185.873825 -257.241205 
L 185.867061 -255.876858 
L 185.86295 -254.512511 
L 185.861344 -253.148165 
L 185.862318 -251.783818 
L 185.866207 -250.419471 
L 185.873668 -249.055124 
L 185.885734 -247.690778 
L 185.90389 -246.326431 
L 185.930146 -244.962084 
L 185.967107 -243.597738 
L 186.018041 -242.233391 
L 186.086923 -240.869044 
L 186.178435 -239.504698 
L 186.297929 -238.140351 
L 186.451316 -236.776004 
L 186.644883 -235.411658 
L 186.885023 -234.047311 
L 187.177888 -232.682964 
L 187.528968 -231.318618 
L 187.942623 -229.954271 
L 188.421594 -228.589924 
L 188.966535 -227.225578 
L 189.575616 -225.861231 
L 190.244231 -224.496884 
L 190.96486 -223.132537 
L 191.727106 -221.768191 
L 192.517926 -220.403844 
L 193.322044 -219.039497 
L 194.122517 -217.675151 
L 194.901425 -216.310804 
L 195.640618 -214.946457 
L 196.322464 -213.582111 
L 196.930551 -212.217764 
L 197.450285 -210.853417 
L 197.869371 -209.489071 
L 198.178148 -208.124724 
L 198.369789 -206.760377 
L 198.440396 -205.396031 
L 198.388992 -204.031684 
L 198.217459 -202.667337 
L 197.930415 -201.30299 
L 197.535074 -199.938644 
L 197.041052 -198.574297 
L 196.460132 -197.20995 
L 195.805973 -195.845604 
L 195.093734 -194.481257 
L 194.339623 -193.11691 
L 193.560372 -191.752564 
L 192.772652 -190.388217 
L 191.992464 -189.02387 
L 191.234554 -187.659524 
L 190.511875 -186.295177 
L 189.835171 -184.93083 
L 189.21268 -183.566484 
L 188.650007 -182.202137 
L 188.150148 -180.83779 
L 187.713667 -179.473444 
L 187.338993 -178.109097 
L 187.022804 -176.74475 
L 186.760456 -175.380403 
L 186.54643 -174.016057 
L 186.374743 -172.65171 
L 186.239315 -171.287363 
z
" id="m9a3a94a15e" style="stroke:#3d3d3d;stroke-width:1.5;"/>
    </defs>
    <g clip-path="url(#p2a26d20cd8)">
     <use style="fill:#d1d197;stroke:#3d3d3d;stroke-width:1.5;" x="0" xlink:href="#m9a3a94a15e" y="368.607178"/>
    </g>
   </g>
   <g id="PolyCollection_5">
    <defs>
     <path d="M 226.117855 -170.281095 
L 224.933395 -170.281095 
L 224.75494 -171.704726 
L 224.53665 -173.128358 
L 224.273781 -174.55199 
L 223.962049 -175.975621 
L 223.597881 -177.399253 
L 223.178658 -178.822884 
L 222.702925 -180.246516 
L 222.170586 -181.670148 
L 221.583054 -183.093779 
L 220.943388 -184.517411 
L 220.256397 -185.941042 
L 219.528749 -187.364674 
L 218.769067 -188.788305 
L 217.98802 -190.211937 
L 217.198384 -191.635569 
L 216.415039 -193.0592 
L 215.654868 -194.482832 
L 214.936487 -195.906463 
L 214.279794 -197.330095 
L 213.705274 -198.753726 
L 213.233093 -200.177358 
L 212.881994 -201.60099 
L 212.668088 -203.024621 
L 212.603627 -204.448253 
L 212.695914 -205.871884 
L 212.946451 -207.295516 
L 213.350466 -208.719148 
L 213.896891 -210.142779 
L 214.568815 -211.566411 
L 215.344413 -212.990042 
L 216.198234 -214.413674 
L 217.102768 -215.837305 
L 218.030108 -217.260937 
L 218.953562 -218.684569 
L 219.849073 -220.1082 
L 220.696327 -221.531832 
L 221.479477 -222.955463 
L 222.187466 -224.379095 
L 222.813965 -225.802727 
L 223.356984 -227.226358 
L 223.818243 -228.64999 
L 224.202397 -230.073621 
L 224.5162 -231.497253 
L 224.767699 -232.920884 
L 224.965514 -234.344516 
L 225.118243 -235.768148 
L 225.234018 -237.191779 
L 225.320194 -238.615411 
L 225.383187 -240.039042 
L 225.428404 -241.462674 
L 225.46027 -242.886305 
L 225.482299 -244.309937 
L 225.497208 -245.733569 
L 225.507033 -247.1572 
L 225.513257 -248.580832 
L 225.516913 -250.004463 
L 225.518684 -251.428095 
L 225.518971 -252.851727 
L 225.517957 -254.275358 
L 225.515645 -255.69899 
L 225.511889 -257.122621 
L 225.506416 -258.546253 
L 225.498841 -259.969884 
L 225.488688 -261.393516 
L 225.475406 -262.817148 
L 225.458398 -264.240779 
L 225.437062 -265.664411 
L 225.410833 -267.088042 
L 225.379242 -268.511674 
L 225.341982 -269.935305 
L 225.298974 -271.358937 
L 225.250432 -272.782569 
L 225.196915 -274.2062 
L 225.139362 -275.629832 
L 225.079095 -277.053463 
L 225.017802 -278.477095 
L 224.957465 -279.900727 
L 224.900274 -281.324358 
L 224.848495 -282.74799 
L 224.804324 -284.171621 
L 224.769739 -285.595253 
L 224.746349 -287.018884 
L 224.73527 -288.442516 
L 224.73704 -289.866148 
L 224.751573 -291.289779 
L 224.778166 -292.713411 
L 224.815557 -294.137042 
L 224.862022 -295.560674 
L 224.91551 -296.984305 
L 224.973788 -298.407937 
L 225.034597 -299.831569 
L 225.095796 -301.2552 
L 225.155472 -302.678832 
L 225.212034 -304.102463 
L 225.264265 -305.526095 
L 225.31133 -306.949727 
L 225.352771 -308.373358 
L 225.38846 -309.79699 
L 225.418547 -311.220621 
L 225.632703 -311.220621 
L 225.632703 -311.220621 
L 225.66279 -309.79699 
L 225.698479 -308.373358 
L 225.73992 -306.949727 
L 225.786985 -305.526095 
L 225.839216 -304.102463 
L 225.895778 -302.678832 
L 225.955454 -301.2552 
L 226.016653 -299.831569 
L 226.077462 -298.407937 
L 226.13574 -296.984305 
L 226.189228 -295.560674 
L 226.235693 -294.137042 
L 226.273084 -292.713411 
L 226.299677 -291.289779 
L 226.31421 -289.866148 
L 226.31598 -288.442516 
L 226.304901 -287.018884 
L 226.281511 -285.595253 
L 226.246926 -284.171621 
L 226.202755 -282.74799 
L 226.150976 -281.324358 
L 226.093785 -279.900727 
L 226.033448 -278.477095 
L 225.972155 -277.053463 
L 225.911888 -275.629832 
L 225.854335 -274.2062 
L 225.800818 -272.782569 
L 225.752276 -271.358937 
L 225.709268 -269.935305 
L 225.672008 -268.511674 
L 225.640417 -267.088042 
L 225.614188 -265.664411 
L 225.592852 -264.240779 
L 225.575844 -262.817148 
L 225.562562 -261.393516 
L 225.552409 -259.969884 
L 225.544834 -258.546253 
L 225.539361 -257.122621 
L 225.535605 -255.69899 
L 225.533293 -254.275358 
L 225.532279 -252.851727 
L 225.532566 -251.428095 
L 225.534337 -250.004463 
L 225.537993 -248.580832 
L 225.544217 -247.1572 
L 225.554042 -245.733569 
L 225.568951 -244.309937 
L 225.59098 -242.886305 
L 225.622846 -241.462674 
L 225.668063 -240.039042 
L 225.731056 -238.615411 
L 225.817232 -237.191779 
L 225.933007 -235.768148 
L 226.085736 -234.344516 
L 226.283551 -232.920884 
L 226.53505 -231.497253 
L 226.848853 -230.073621 
L 227.233007 -228.64999 
L 227.694266 -227.226358 
L 228.237285 -225.802727 
L 228.863784 -224.379095 
L 229.571773 -222.955463 
L 230.354923 -221.531832 
L 231.202177 -220.1082 
L 232.097688 -218.684569 
L 233.021142 -217.260937 
L 233.948482 -215.837305 
L 234.853016 -214.413674 
L 235.706837 -212.990042 
L 236.482435 -211.566411 
L 237.154359 -210.142779 
L 237.700784 -208.719148 
L 238.104799 -207.295516 
L 238.355336 -205.871884 
L 238.447623 -204.448253 
L 238.383162 -203.024621 
L 238.169256 -201.60099 
L 237.818157 -200.177358 
L 237.345976 -198.753726 
L 236.771456 -197.330095 
L 236.114763 -195.906463 
L 235.396382 -194.482832 
L 234.636211 -193.0592 
L 233.852866 -191.635569 
L 233.06323 -190.211937 
L 232.282183 -188.788305 
L 231.522501 -187.364674 
L 230.794853 -185.941042 
L 230.107862 -184.517411 
L 229.468196 -183.093779 
L 228.880664 -181.670148 
L 228.348325 -180.246516 
L 227.872592 -178.822884 
L 227.453369 -177.399253 
L 227.089201 -175.975621 
L 226.777469 -174.55199 
L 226.5146 -173.128358 
L 226.29631 -171.704726 
L 226.117855 -170.281095 
z
" id="me64568fb94" style="stroke:#3d3d3d;stroke-width:1.5;"/>
    </defs>
    <g clip-path="url(#p2a26d20cd8)">
     <use style="fill:#d684bd;stroke:#3d3d3d;stroke-width:1.5;" x="0" xlink:href="#me64568fb94" y="368.607178"/>
    </g>
   </g>
   <g id="PolyCollection_6">
    <defs>
     <path d="M 265.662192 -163.518559 
L 264.749058 -163.518559 
L 264.647047 -165.15672 
L 264.527484 -166.79488 
L 264.388642 -168.433041 
L 264.228922 -170.071202 
L 264.04693 -171.709363 
L 263.841571 -173.347524 
L 263.612132 -174.985685 
L 263.358378 -176.623846 
L 263.080643 -178.262007 
L 262.779902 -179.900168 
L 262.457842 -181.538329 
L 262.116905 -183.17649 
L 261.760306 -184.814651 
L 261.392028 -186.452812 
L 261.01678 -188.090973 
L 260.639922 -189.729134 
L 260.267358 -191.367295 
L 259.905395 -193.005456 
L 259.560574 -194.643617 
L 259.23948 -196.281778 
L 258.948537 -197.919939 
L 258.693794 -199.5581 
L 258.480717 -201.19626 
L 258.313994 -202.834421 
L 258.197361 -204.472582 
L 258.133461 -206.110743 
L 258.123744 -207.748904 
L 258.168407 -209.387065 
L 258.266381 -211.025226 
L 258.415375 -212.663387 
L 258.61195 -214.301548 
L 258.85165 -215.939709 
L 259.129154 -217.57787 
L 259.438463 -219.216031 
L 259.773104 -220.854192 
L 260.126331 -222.492353 
L 260.491336 -224.130514 
L 260.861443 -225.768675 
L 261.230278 -227.406836 
L 261.591921 -229.044997 
L 261.941027 -230.683158 
L 262.272908 -232.321319 
L 262.583595 -233.959479 
L 262.869855 -235.59764 
L 263.129197 -237.235801 
L 263.359838 -238.873962 
L 263.560663 -240.512123 
L 263.731167 -242.150284 
L 263.871388 -243.788445 
L 263.981845 -245.426606 
L 264.063466 -247.064767 
L 264.117528 -248.702928 
L 264.145604 -250.341089 
L 264.149516 -251.97925 
L 264.131294 -253.617411 
L 264.093149 -255.255572 
L 264.037443 -256.893733 
L 263.966669 -258.531894 
L 263.883434 -260.170055 
L 263.790432 -261.808216 
L 263.690426 -263.446377 
L 263.586218 -265.084538 
L 263.480615 -266.722698 
L 263.376392 -268.360859 
L 263.276246 -269.99902 
L 263.18275 -271.637181 
L 263.098296 -273.275342 
L 263.025053 -274.913503 
L 262.964907 -276.551664 
L 262.919422 -278.189825 
L 262.8898 -279.827986 
L 262.876854 -281.466147 
L 262.880989 -283.104308 
L 262.902196 -284.742469 
L 262.940067 -286.38063 
L 262.993809 -288.018791 
L 263.062284 -289.656952 
L 263.14405 -291.295113 
L 263.23742 -292.933274 
L 263.34052 -294.571435 
L 263.45135 -296.209596 
L 263.567857 -297.847757 
L 263.68799 -299.485917 
L 263.809764 -301.124078 
L 263.93131 -302.762239 
L 264.050922 -304.4004 
L 264.167087 -306.038561 
L 264.278512 -307.676722 
L 264.384139 -309.314883 
L 264.483148 -310.953044 
L 264.574952 -312.591205 
L 264.65919 -314.229366 
L 264.735703 -315.867527 
L 264.804513 -317.505688 
L 264.8658 -319.143849 
L 264.919869 -320.78201 
L 264.967129 -322.420171 
L 265.008059 -324.058332 
L 265.043187 -325.696493 
L 265.368063 -325.696493 
L 265.368063 -325.696493 
L 265.403191 -324.058332 
L 265.444121 -322.420171 
L 265.491381 -320.78201 
L 265.54545 -319.143849 
L 265.606737 -317.505688 
L 265.675547 -315.867527 
L 265.75206 -314.229366 
L 265.836298 -312.591205 
L 265.928102 -310.953044 
L 266.027111 -309.314883 
L 266.132738 -307.676722 
L 266.244163 -306.038561 
L 266.360328 -304.4004 
L 266.47994 -302.762239 
L 266.601486 -301.124078 
L 266.72326 -299.485917 
L 266.843393 -297.847757 
L 266.9599 -296.209596 
L 267.07073 -294.571435 
L 267.17383 -292.933274 
L 267.2672 -291.295113 
L 267.348966 -289.656952 
L 267.417441 -288.018791 
L 267.471183 -286.38063 
L 267.509054 -284.742469 
L 267.530261 -283.104308 
L 267.534396 -281.466147 
L 267.52145 -279.827986 
L 267.491828 -278.189825 
L 267.446343 -276.551664 
L 267.386197 -274.913503 
L 267.312954 -273.275342 
L 267.2285 -271.637181 
L 267.135004 -269.99902 
L 267.034858 -268.360859 
L 266.930635 -266.722698 
L 266.825032 -265.084538 
L 266.720824 -263.446377 
L 266.620818 -261.808216 
L 266.527816 -260.170055 
L 266.444581 -258.531894 
L 266.373807 -256.893733 
L 266.318101 -255.255572 
L 266.279956 -253.617411 
L 266.261734 -251.97925 
L 266.265646 -250.341089 
L 266.293722 -248.702928 
L 266.347784 -247.064767 
L 266.429405 -245.426606 
L 266.539862 -243.788445 
L 266.680083 -242.150284 
L 266.850587 -240.512123 
L 267.051412 -238.873962 
L 267.282053 -237.235801 
L 267.541395 -235.59764 
L 267.827655 -233.959479 
L 268.138342 -232.321319 
L 268.470223 -230.683158 
L 268.819329 -229.044997 
L 269.180972 -227.406836 
L 269.549807 -225.768675 
L 269.919914 -224.130514 
L 270.284919 -222.492353 
L 270.638146 -220.854192 
L 270.972787 -219.216031 
L 271.282096 -217.57787 
L 271.5596 -215.939709 
L 271.7993 -214.301548 
L 271.995875 -212.663387 
L 272.144869 -211.025226 
L 272.242843 -209.387065 
L 272.287506 -207.748904 
L 272.277789 -206.110743 
L 272.213889 -204.472582 
L 272.097256 -202.834421 
L 271.930533 -201.19626 
L 271.717456 -199.5581 
L 271.462713 -197.919939 
L 271.17177 -196.281778 
L 270.850676 -194.643617 
L 270.505855 -193.005456 
L 270.143892 -191.367295 
L 269.771328 -189.729134 
L 269.39447 -188.090973 
L 269.019222 -186.452812 
L 268.650944 -184.814651 
L 268.294345 -183.17649 
L 267.953408 -181.538329 
L 267.631348 -179.900168 
L 267.330607 -178.262007 
L 267.052872 -176.623846 
L 266.799118 -174.985685 
L 266.569679 -173.347524 
L 266.36432 -171.709363 
L 266.182328 -170.071202 
L 266.022608 -168.433041 
L 265.883766 -166.79488 
L 265.764203 -165.15672 
L 265.662192 -163.518559 
z
" id="m2fb56bace6" style="stroke:#3d3d3d;stroke-width:1.5;"/>
    </defs>
    <g clip-path="url(#p2a26d20cd8)">
     <use style="fill:#e1812c;stroke:#3d3d3d;stroke-width:1.5;" x="0" xlink:href="#m2fb56bace6" y="368.607178"/>
    </g>
   </g>
   <g id="PolyCollection_7">
    <defs>
     <path d="M 305.250116 -152.691737 
L 304.521134 -152.691737 
L 304.442202 -154.470709 
L 304.349978 -156.249681 
L 304.243123 -158.028653 
L 304.120356 -159.807625 
L 303.980508 -161.586597 
L 303.822577 -163.36557 
L 303.645789 -165.144542 
L 303.449658 -166.923514 
L 303.234053 -168.702486 
L 302.999252 -170.481458 
L 302.746 -172.26043 
L 302.475554 -174.039402 
L 302.189714 -175.818375 
L 301.89084 -177.597347 
L 301.581857 -179.376319 
L 301.266225 -181.155291 
L 300.947905 -182.934263 
L 300.631289 -184.713235 
L 300.321117 -186.492208 
L 300.022364 -188.27118 
L 299.740121 -190.050152 
L 299.479457 -191.829124 
L 299.245266 -193.608096 
L 299.042124 -195.387068 
L 298.874138 -197.16604 
L 298.744808 -198.945013 
L 298.656908 -200.723985 
L 298.612384 -202.502957 
L 298.61228 -204.281929 
L 298.656692 -206.060901 
L 298.744762 -207.839873 
L 298.874693 -209.618845 
L 299.043806 -211.397818 
L 299.248625 -213.17679 
L 299.484984 -214.955762 
L 299.748157 -216.734734 
L 300.033004 -218.513706 
L 300.334124 -220.292678 
L 300.646004 -222.071651 
L 300.963175 -223.850623 
L 301.280342 -225.629595 
L 301.592509 -227.408567 
L 301.895083 -229.187539 
L 302.183947 -230.966511 
L 302.455523 -232.745483 
L 302.706807 -234.524456 
L 302.935375 -236.303428 
L 303.139388 -238.0824 
L 303.317565 -239.861372 
L 303.469155 -241.640344 
L 303.593898 -243.419316 
L 303.691978 -245.198288 
L 303.763984 -246.977261 
L 303.810864 -248.756233 
L 303.833886 -250.535205 
L 303.8346 -252.314177 
L 303.81481 -254.093149 
L 303.776544 -255.872121 
L 303.722026 -257.651094 
L 303.653656 -259.430066 
L 303.573977 -261.209038 
L 303.485652 -262.98801 
L 303.39143 -264.766982 
L 303.294105 -266.545954 
L 303.196475 -268.324926 
L 303.101295 -270.103899 
L 303.01122 -271.882871 
L 302.92875 -273.661843 
L 302.856177 -275.440815 
L 302.795526 -277.219787 
L 302.748505 -278.998759 
L 302.716465 -280.777731 
L 302.700363 -282.556704 
L 302.700741 -284.335676 
L 302.717721 -286.114648 
L 302.751006 -287.89362 
L 302.7999 -289.672592 
L 302.863346 -291.451564 
L 302.939967 -293.230537 
L 303.028123 -295.009509 
L 303.125974 -296.788481 
L 303.231543 -298.567453 
L 303.342789 -300.346425 
L 303.457672 -302.125397 
L 303.574212 -303.904369 
L 303.690546 -305.683342 
L 303.804973 -307.462314 
L 303.915993 -309.241286 
L 304.022326 -311.020258 
L 304.122935 -312.79923 
L 304.217021 -314.578202 
L 304.304026 -316.357174 
L 304.383614 -318.136147 
L 304.455655 -319.915119 
L 304.5202 -321.694091 
L 304.577452 -323.473063 
L 304.627739 -325.252035 
L 304.671486 -327.031007 
L 304.709183 -328.809979 
L 305.062067 -328.809979 
L 305.062067 -328.809979 
L 305.099764 -327.031007 
L 305.143511 -325.252035 
L 305.193798 -323.473063 
L 305.25105 -321.694091 
L 305.315595 -319.915119 
L 305.387636 -318.136147 
L 305.467224 -316.357174 
L 305.554229 -314.578202 
L 305.648315 -312.79923 
L 305.748924 -311.020258 
L 305.855257 -309.241286 
L 305.966277 -307.462314 
L 306.080704 -305.683342 
L 306.197038 -303.904369 
L 306.313578 -302.125397 
L 306.428461 -300.346425 
L 306.539707 -298.567453 
L 306.645276 -296.788481 
L 306.743127 -295.009509 
L 306.831283 -293.230537 
L 306.907904 -291.451564 
L 306.97135 -289.672592 
L 307.020244 -287.89362 
L 307.053529 -286.114648 
L 307.070509 -284.335676 
L 307.070887 -282.556704 
L 307.054785 -280.777731 
L 307.022745 -278.998759 
L 306.975724 -277.219787 
L 306.915073 -275.440815 
L 306.8425 -273.661843 
L 306.76003 -271.882871 
L 306.669955 -270.103899 
L 306.574775 -268.324926 
L 306.477145 -266.545954 
L 306.37982 -264.766982 
L 306.285598 -262.98801 
L 306.197273 -261.209038 
L 306.117594 -259.430066 
L 306.049224 -257.651094 
L 305.994706 -255.872121 
L 305.95644 -254.093149 
L 305.93665 -252.314177 
L 305.937364 -250.535205 
L 305.960386 -248.756233 
L 306.007266 -246.977261 
L 306.079272 -245.198288 
L 306.177352 -243.419316 
L 306.302095 -241.640344 
L 306.453685 -239.861372 
L 306.631862 -238.0824 
L 306.835875 -236.303428 
L 307.064443 -234.524456 
L 307.315727 -232.745483 
L 307.587303 -230.966511 
L 307.876167 -229.187539 
L 308.178741 -227.408567 
L 308.490908 -225.629595 
L 308.808075 -223.850623 
L 309.125246 -222.071651 
L 309.437126 -220.292678 
L 309.738246 -218.513706 
L 310.023093 -216.734734 
L 310.286266 -214.955762 
L 310.522625 -213.17679 
L 310.727444 -211.397818 
L 310.896557 -209.618845 
L 311.026488 -207.839873 
L 311.114558 -206.060901 
L 311.15897 -204.281929 
L 311.158866 -202.502957 
L 311.114342 -200.723985 
L 311.026442 -198.945013 
L 310.897112 -197.16604 
L 310.729126 -195.387068 
L 310.525984 -193.608096 
L 310.291793 -191.829124 
L 310.031129 -190.050152 
L 309.748886 -188.27118 
L 309.450133 -186.492208 
L 309.139961 -184.713235 
L 308.823345 -182.934263 
L 308.505025 -181.155291 
L 308.189393 -179.376319 
L 307.88041 -177.597347 
L 307.581536 -175.818375 
L 307.295696 -174.039402 
L 307.02525 -172.26043 
L 306.771998 -170.481458 
L 306.537197 -168.702486 
L 306.321592 -166.923514 
L 306.125461 -165.144542 
L 305.948673 -163.36557 
L 305.790742 -161.586597 
L 305.650894 -159.807625 
L 305.528127 -158.028653 
L 305.421272 -156.249681 
L 305.329048 -154.470709 
L 305.250116 -152.691737 
z
" id="m1a2fbb750c" style="stroke:#3d3d3d;stroke-width:1.5;"/>
    </defs>
    <g clip-path="url(#p2a26d20cd8)">
     <use style="fill:#3274a1;stroke:#3d3d3d;stroke-width:1.5;" x="0" xlink:href="#m1a2fbb750c" y="368.607178"/>
    </g>
   </g>
   <g id="PolyCollection_8">
    <defs>
     <path d="M 345.184203 -158.071301 
L 343.947047 -158.071301 
L 343.811203 -159.702639 
L 343.653149 -161.333977 
L 343.471088 -162.965315 
L 343.263489 -164.596653 
L 343.029191 -166.22799 
L 342.767503 -167.859328 
L 342.478309 -169.490666 
L 342.162158 -171.122004 
L 341.820352 -172.753342 
L 341.454999 -174.38468 
L 341.069051 -176.016018 
L 340.666313 -177.647355 
L 340.251415 -179.278693 
L 339.829745 -180.910031 
L 339.407357 -182.541369 
L 338.990834 -184.172707 
L 338.587129 -185.804045 
L 338.203371 -187.435382 
L 337.846665 -189.06672 
L 337.52387 -190.698058 
L 337.241387 -192.329396 
L 337.004947 -193.960734 
L 336.819423 -195.592072 
L 336.688666 -197.223409 
L 336.615375 -198.854747 
L 336.601012 -200.486085 
L 336.645749 -202.117423 
L 336.748479 -203.748761 
L 336.90685 -205.380099 
L 337.117361 -207.011436 
L 337.375484 -208.642774 
L 337.675821 -210.274112 
L 338.012285 -211.90545 
L 338.378301 -213.536788 
L 338.767007 -215.168126 
L 339.171457 -216.799463 
L 339.584817 -218.430801 
L 340.000543 -220.062139 
L 340.41253 -221.693477 
L 340.815244 -223.324815 
L 341.203816 -224.956153 
L 341.574104 -226.587491 
L 341.92273 -228.218828 
L 342.247079 -229.850166 
L 342.545275 -231.481504 
L 342.816134 -233.112842 
L 343.059092 -234.74418 
L 343.274134 -236.375518 
L 343.461696 -238.006855 
L 343.622583 -239.638193 
L 343.757874 -241.269531 
L 343.868843 -242.900869 
L 343.956884 -244.532207 
L 344.023454 -246.163545 
L 344.070024 -247.794882 
L 344.098048 -249.42622 
L 344.108949 -251.057558 
L 344.10411 -252.688896 
L 344.084885 -254.320234 
L 344.052616 -255.951572 
L 344.008654 -257.582909 
L 343.954384 -259.214247 
L 343.89125 -260.845585 
L 343.820776 -262.476923 
L 343.74458 -264.108261 
L 343.66438 -265.739599 
L 343.581985 -267.370937 
L 343.499286 -269.002274 
L 343.418219 -270.633612 
L 343.340734 -272.26495 
L 343.268742 -273.896288 
L 343.204066 -275.527626 
L 343.148383 -277.158964 
L 343.103166 -278.790301 
L 343.069634 -280.421639 
L 343.048709 -282.052977 
L 343.040975 -283.684315 
L 343.046665 -285.315653 
L 343.065647 -286.946991 
L 343.097436 -288.578328 
L 343.141215 -290.209666 
L 343.195871 -291.841004 
L 343.260047 -293.472342 
L 343.332193 -295.10368 
L 343.410634 -296.735018 
L 343.493631 -298.366355 
L 343.579445 -299.997693 
L 343.666397 -301.629031 
L 343.752922 -303.260369 
L 343.837606 -304.891707 
L 343.919224 -306.523045 
L 343.99676 -308.154382 
L 344.069417 -309.78572 
L 344.136618 -311.417058 
L 344.197994 -313.048396 
L 344.253372 -314.679734 
L 344.302751 -316.311072 
L 344.346278 -317.94241 
L 344.384214 -319.573747 
L 344.747036 -319.573747 
L 344.747036 -319.573747 
L 344.784972 -317.94241 
L 344.828499 -316.311072 
L 344.877878 -314.679734 
L 344.933256 -313.048396 
L 344.994632 -311.417058 
L 345.061833 -309.78572 
L 345.13449 -308.154382 
L 345.212026 -306.523045 
L 345.293644 -304.891707 
L 345.378328 -303.260369 
L 345.464853 -301.629031 
L 345.551805 -299.997693 
L 345.637619 -298.366355 
L 345.720616 -296.735018 
L 345.799057 -295.10368 
L 345.871203 -293.472342 
L 345.935379 -291.841004 
L 345.990035 -290.209666 
L 346.033814 -288.578328 
L 346.065603 -286.946991 
L 346.084585 -285.315653 
L 346.090275 -283.684315 
L 346.082541 -282.052977 
L 346.061616 -280.421639 
L 346.028084 -278.790301 
L 345.982867 -277.158964 
L 345.927184 -275.527626 
L 345.862508 -273.896288 
L 345.790516 -272.26495 
L 345.713031 -270.633612 
L 345.631964 -269.002274 
L 345.549265 -267.370937 
L 345.46687 -265.739599 
L 345.38667 -264.108261 
L 345.310474 -262.476923 
L 345.24 -260.845585 
L 345.176866 -259.214247 
L 345.122596 -257.582909 
L 345.078634 -255.951572 
L 345.046365 -254.320234 
L 345.02714 -252.688896 
L 345.022301 -251.057558 
L 345.033202 -249.42622 
L 345.061226 -247.794882 
L 345.107796 -246.163545 
L 345.174366 -244.532207 
L 345.262407 -242.900869 
L 345.373376 -241.269531 
L 345.508667 -239.638193 
L 345.669554 -238.006855 
L 345.857116 -236.375518 
L 346.072158 -234.74418 
L 346.315116 -233.112842 
L 346.585975 -231.481504 
L 346.884171 -229.850166 
L 347.20852 -228.218828 
L 347.557146 -226.587491 
L 347.927434 -224.956153 
L 348.316006 -223.324815 
L 348.71872 -221.693477 
L 349.130707 -220.062139 
L 349.546433 -218.430801 
L 349.959793 -216.799463 
L 350.364243 -215.168126 
L 350.752949 -213.536788 
L 351.118965 -211.90545 
L 351.455429 -210.274112 
L 351.755766 -208.642774 
L 352.013889 -207.011436 
L 352.2244 -205.380099 
L 352.382771 -203.748761 
L 352.485501 -202.117423 
L 352.530238 -200.486085 
L 352.515875 -198.854747 
L 352.442584 -197.223409 
L 352.311827 -195.592072 
L 352.126303 -193.960734 
L 351.889863 -192.329396 
L 351.60738 -190.698058 
L 351.284585 -189.06672 
L 350.927879 -187.435382 
L 350.544121 -185.804045 
L 350.140416 -184.172707 
L 349.723893 -182.541369 
L 349.301505 -180.910031 
L 348.879835 -179.278693 
L 348.464937 -177.647355 
L 348.062199 -176.016018 
L 347.676251 -174.38468 
L 347.310898 -172.753342 
L 346.969092 -171.122004 
L 346.652941 -169.490666 
L 346.363747 -167.859328 
L 346.102059 -166.22799 
L 345.867761 -164.596653 
L 345.660162 -162.965315 
L 345.478101 -161.333977 
L 345.320047 -159.702639 
L 345.184203 -158.071301 
z
" id="mfc2ee16049" style="stroke:#3d3d3d;stroke-width:1.5;"/>
    </defs>
    <g clip-path="url(#p2a26d20cd8)">
     <use style="fill:#f2a5a3;stroke:#3d3d3d;stroke-width:1.5;" x="0" xlink:href="#mfc2ee16049" y="368.607178"/>
    </g>
   </g>
   <g id="PolyCollection_9">
    <defs>
     <path d="M 384.387027 -117.834801 
L 384.104223 -117.834801 
L 384.062812 -118.954485 
L 384.013408 -120.07417 
L 383.955812 -121.193854 
L 383.890257 -122.313539 
L 383.817497 -123.433223 
L 383.73886 -124.552907 
L 383.656272 -125.672592 
L 383.572213 -126.792276 
L 383.489625 -127.91196 
L 383.411752 -129.031645 
L 383.341947 -130.151329 
L 383.283428 -131.271013 
L 383.239039 -132.390698 
L 383.211022 -133.510382 
L 383.200826 -134.630066 
L 383.208984 -135.749751 
L 383.23507 -136.869435 
L 383.27773 -137.989119 
L 383.334805 -139.108804 
L 383.403507 -140.228488 
L 383.480645 -141.348172 
L 383.562872 -142.467857 
L 383.64692 -143.587541 
L 383.729803 -144.707225 
L 383.808985 -145.82691 
L 383.882476 -146.946594 
L 383.948876 -148.066278 
L 384.007369 -149.185963 
L 384.057664 -150.305647 
L 384.099907 -151.425331 
L 384.134578 -152.545016 
L 384.162379 -153.6647 
L 384.184127 -154.784385 
L 384.200657 -155.904069 
L 384.212736 -157.023753 
L 384.22099 -158.143438 
L 384.225838 -159.263122 
L 384.22742 -160.382806 
L 384.225527 -161.502491 
L 384.219511 -162.622175 
L 384.208168 -163.741859 
L 384.189612 -164.861544 
L 384.161114 -165.981228 
L 384.118928 -167.100912 
L 384.05812 -168.220597 
L 383.972418 -169.340281 
L 383.854118 -170.459965 
L 383.694084 -171.57965 
L 383.481882 -172.699334 
L 383.206106 -173.819018 
L 382.854898 -174.938703 
L 382.416707 -176.058387 
L 381.881258 -177.178071 
L 381.240693 -178.297756 
L 380.490791 -179.41744 
L 379.632167 -180.537124 
L 378.67129 -181.656809 
L 377.621174 -182.776493 
L 376.501596 -183.896177 
L 375.338738 -185.015862 
L 374.164202 -186.135546 
L 373.013412 -187.255231 
L 371.923532 -188.374915 
L 370.931061 -189.494599 
L 370.069362 -190.614284 
L 369.366371 -191.733968 
L 368.842761 -192.853652 
L 368.510741 -193.973337 
L 368.373625 -195.093021 
L 368.426187 -196.212705 
L 368.655724 -197.33239 
L 369.043654 -198.452074 
L 369.567433 -199.571758 
L 370.202533 -200.691443 
L 370.92426 -201.811127 
L 371.709237 -202.930811 
L 372.536424 -204.050496 
L 373.387673 -205.17018 
L 374.247837 -206.289864 
L 375.10455 -207.409549 
L 375.947785 -208.529233 
L 376.769337 -209.648917 
L 377.562329 -210.768602 
L 378.32083 -211.888286 
L 379.039625 -213.00797 
L 379.714135 -214.127655 
L 380.340456 -215.247339 
L 380.915489 -216.367024 
L 381.437085 -217.486708 
L 381.904182 -218.606392 
L 382.316873 -219.726077 
L 382.676416 -220.845761 
L 382.985143 -221.965445 
L 383.24632 -223.08513 
L 383.463937 -224.204814 
L 383.642477 -225.324498 
L 383.78668 -226.444183 
L 383.90132 -227.563867 
L 383.991013 -228.683551 
L 384.500237 -228.683551 
L 384.500237 -228.683551 
L 384.58993 -227.563867 
L 384.70457 -226.444183 
L 384.848773 -225.324498 
L 385.027313 -224.204814 
L 385.24493 -223.08513 
L 385.506107 -221.965445 
L 385.814834 -220.845761 
L 386.174377 -219.726077 
L 386.587068 -218.606392 
L 387.054165 -217.486708 
L 387.575761 -216.367024 
L 388.150794 -215.247339 
L 388.777115 -214.127655 
L 389.451625 -213.00797 
L 390.17042 -211.888286 
L 390.928921 -210.768602 
L 391.721913 -209.648917 
L 392.543465 -208.529233 
L 393.3867 -207.409549 
L 394.243413 -206.289864 
L 395.103577 -205.17018 
L 395.954826 -204.050496 
L 396.782013 -202.930811 
L 397.56699 -201.811127 
L 398.288717 -200.691443 
L 398.923817 -199.571758 
L 399.447596 -198.452074 
L 399.835526 -197.33239 
L 400.065063 -196.212705 
L 400.117625 -195.093021 
L 399.980509 -193.973337 
L 399.648489 -192.853652 
L 399.124879 -191.733968 
L 398.421888 -190.614284 
L 397.560189 -189.494599 
L 396.567718 -188.374915 
L 395.477838 -187.255231 
L 394.327048 -186.135546 
L 393.152512 -185.015862 
L 391.989654 -183.896177 
L 390.870076 -182.776493 
L 389.81996 -181.656809 
L 388.859083 -180.537124 
L 388.000459 -179.41744 
L 387.250557 -178.297756 
L 386.609992 -177.178071 
L 386.074543 -176.058387 
L 385.636352 -174.938703 
L 385.285144 -173.819018 
L 385.009368 -172.699334 
L 384.797166 -171.57965 
L 384.637132 -170.459965 
L 384.518832 -169.340281 
L 384.43313 -168.220597 
L 384.372322 -167.100912 
L 384.330136 -165.981228 
L 384.301638 -164.861544 
L 384.283082 -163.741859 
L 384.271739 -162.622175 
L 384.265723 -161.502491 
L 384.26383 -160.382806 
L 384.265412 -159.263122 
L 384.27026 -158.143438 
L 384.278514 -157.023753 
L 384.290593 -155.904069 
L 384.307123 -154.784385 
L 384.328871 -153.6647 
L 384.356672 -152.545016 
L 384.391343 -151.425331 
L 384.433586 -150.305647 
L 384.483881 -149.185963 
L 384.542374 -148.066278 
L 384.608774 -146.946594 
L 384.682265 -145.82691 
L 384.761447 -144.707225 
L 384.84433 -143.587541 
L 384.928378 -142.467857 
L 385.010605 -141.348172 
L 385.087743 -140.228488 
L 385.156445 -139.108804 
L 385.21352 -137.989119 
L 385.25618 -136.869435 
L 385.282266 -135.749751 
L 385.290424 -134.630066 
L 385.280228 -133.510382 
L 385.252211 -132.390698 
L 385.207822 -131.271013 
L 385.149303 -130.151329 
L 385.079498 -129.031645 
L 385.001625 -127.91196 
L 384.919037 -126.792276 
L 384.834978 -125.672592 
L 384.75239 -124.552907 
L 384.673753 -123.433223 
L 384.600993 -122.313539 
L 384.535438 -121.193854 
L 384.477842 -120.07417 
L 384.428438 -118.954485 
L 384.387027 -117.834801 
z
" id="mf515d600c9" style="stroke:#3d3d3d;stroke-width:1.5;"/>
    </defs>
    <g clip-path="url(#p2a26d20cd8)">
     <use style="fill:#c4b5d0;stroke:#3d3d3d;stroke-width:1.5;" x="0" xlink:href="#mf515d600c9" y="368.607178"/>
    </g>
   </g>
   <g id="matplotlib.axis_1">
    <g id="xtick_1">
     <g id="line2d_1">
      <defs>
       <path d="M 0 0 
L 0 3.5 
" id="m6fa5b52daf" style="stroke:#000000;stroke-width:0.8;"/>
      </defs>
      <g>
       <use style="stroke:#000000;stroke-width:0.8;" x="66.805625" xlink:href="#m6fa5b52daf" y="288.430125"/>
      </g>
     </g>
     <g id="text_1">
      <!-- libfuzzer -->
      <g transform="translate(28.939404 323.272284)rotate(-30)scale(0.1 -0.1)">
       <defs>
        <path d="M 9.421875 75.984375 
L 18.40625 75.984375 
L 18.40625 0 
L 9.421875 0 
z
" id="DejaVuSans-108"/>
        <path d="M 9.421875 54.6875 
L 18.40625 54.6875 
L 18.40625 0 
L 9.421875 0 
z
M 9.421875 75.984375 
L 18.40625 75.984375 
L 18.40625 64.59375 
L 9.421875 64.59375 
z
" id="DejaVuSans-105"/>
        <path d="M 48.6875 27.296875 
Q 48.6875 37.203125 44.609375 42.84375 
Q 40.53125 48.484375 33.40625 48.484375 
Q 26.265625 48.484375 22.1875 42.84375 
Q 18.109375 37.203125 18.109375 27.296875 
Q 18.109375 17.390625 22.1875 11.75 
Q 26.265625 6.109375 33.40625 6.109375 
Q 40.53125 6.109375 44.609375 11.75 
Q 48.6875 17.390625 48.6875 27.296875 
z
M 18.109375 46.390625 
Q 20.953125 51.265625 25.265625 53.625 
Q 29.59375 56 35.59375 56 
Q 45.5625 56 51.78125 48.09375 
Q 58.015625 40.1875 58.015625 27.296875 
Q 58.015625 14.40625 51.78125 6.484375 
Q 45.5625 -1.421875 35.59375 -1.421875 
Q 29.59375 -1.421875 25.265625 0.953125 
Q 20.953125 3.328125 18.109375 8.203125 
L 18.109375 0 
L 9.078125 0 
L 9.078125 75.984375 
L 18.109375 75.984375 
z
" id="DejaVuSans-98"/>
        <path d="M 37.109375 75.984375 
L 37.109375 68.5 
L 28.515625 68.5 
Q 23.6875 68.5 21.796875 66.546875 
Q 19.921875 64.59375 19.921875 59.515625 
L 19.921875 54.6875 
L 34.71875 54.6875 
L 34.71875 47.703125 
L 19.921875 47.703125 
L 19.921875 0 
L 10.890625 0 
L 10.890625 47.703125 
L 2.296875 47.703125 
L 2.296875 54.6875 
L 10.890625 54.6875 
L 10.890625 58.5 
Q 10.890625 67.625 15.140625 71.796875 
Q 19.390625 75.984375 28.609375 75.984375 
z
" id="DejaVuSans-102"/>
        <path d="M 8.5 21.578125 
L 8.5 54.6875 
L 17.484375 54.6875 
L 17.484375 21.921875 
Q 17.484375 14.15625 20.5 10.265625 
Q 23.53125 6.390625 29.59375 6.390625 
Q 36.859375 6.390625 41.078125 11.03125 
Q 45.3125 15.671875 45.3125 23.6875 
L 45.3125 54.6875 
L 54.296875 54.6875 
L 54.296875 0 
L 45.3125 0 
L 45.3125 8.40625 
Q 42.046875 3.421875 37.71875 1 
Q 33.40625 -1.421875 27.6875 -1.421875 
Q 18.265625 -1.421875 13.375 4.4375 
Q 8.5 10.296875 8.5 21.578125 
z
M 31.109375 56 
z
" id="DejaVuSans-117"/>
        <path d="M 5.515625 54.6875 
L 48.1875 54.6875 
L 48.1875 46.484375 
L 14.40625 7.171875 
L 48.1875 7.171875 
L 48.1875 0 
L 4.296875 0 
L 4.296875 8.203125 
L 38.09375 47.515625 
L 5.515625 47.515625 
z
" id="DejaVuSans-122"/>
        <path d="M 56.203125 29.59375 
L 56.203125 25.203125 
L 14.890625 25.203125 
Q 15.484375 15.921875 20.484375 11.0625 
Q 25.484375 6.203125 34.421875 6.203125 
Q 39.59375 6.203125 44.453125 7.46875 
Q 49.3125 8.734375 54.109375 11.28125 
L 54.109375 2.78125 
Q 49.265625 0.734375 44.1875 -0.34375 
Q 39.109375 -1.421875 33.890625 -1.421875 
Q 20.796875 -1.421875 13.15625 6.1875 
Q 5.515625 13.8125 5.515625 26.8125 
Q 5.515625 40.234375 12.765625 48.109375 
Q 20.015625 56 32.328125 56 
Q 43.359375 56 49.78125 48.890625 
Q 56.203125 41.796875 56.203125 29.59375 
z
M 47.21875 32.234375 
Q 47.125 39.59375 43.09375 43.984375 
Q 39.0625 48.390625 32.421875 48.390625 
Q 24.90625 48.390625 20.390625 44.140625 
Q 15.875 39.890625 15.1875 32.171875 
z
" id="DejaVuSans-101"/>
        <path d="M 41.109375 46.296875 
Q 39.59375 47.171875 37.8125 47.578125 
Q 36.03125 48 33.890625 48 
Q 26.265625 48 22.1875 43.046875 
Q 18.109375 38.09375 18.109375 28.8125 
L 18.109375 0 
L 9.078125 0 
L 9.078125 54.6875 
L 18.109375 54.6875 
L 18.109375 46.1875 
Q 20.953125 51.171875 25.484375 53.578125 
Q 30.03125 56 36.53125 56 
Q 37.453125 56 38.578125 55.875 
Q 39.703125 55.765625 41.0625 55.515625 
z
" id="DejaVuSans-114"/>
       </defs>
       <use xlink:href="#DejaVuSans-108"/>
       <use x="27.783203" xlink:href="#DejaVuSans-105"/>
       <use x="55.566406" xlink:href="#DejaVuSans-98"/>
       <use x="119.042969" xlink:href="#DejaVuSans-102"/>
       <use x="154.248047" xlink:href="#DejaVuSans-117"/>
       <use x="217.626953" xlink:href="#DejaVuSans-122"/>
       <use x="270.117188" xlink:href="#DejaVuSans-122"/>
       <use x="322.607422" xlink:href="#DejaVuSans-101"/>
       <use x="384.130859" xlink:href="#DejaVuSans-114"/>
      </g>
     </g>
    </g>
    <g id="xtick_2">
     <g id="line2d_2">
      <g>
       <use style="stroke:#000000;stroke-width:0.8;" x="106.485625" xlink:href="#m6fa5b52daf" y="288.430125"/>
      </g>
     </g>
     <g id="text_2">
      <!-- aflplusplus_qemu -->
      <g transform="translate(29.656693 345.687127)rotate(-30)scale(0.1 -0.1)">
       <defs>
        <path d="M 34.28125 27.484375 
Q 23.390625 27.484375 19.1875 25 
Q 14.984375 22.515625 14.984375 16.5 
Q 14.984375 11.71875 18.140625 8.90625 
Q 21.296875 6.109375 26.703125 6.109375 
Q 34.1875 6.109375 38.703125 11.40625 
Q 43.21875 16.703125 43.21875 25.484375 
L 43.21875 27.484375 
z
M 52.203125 31.203125 
L 52.203125 0 
L 43.21875 0 
L 43.21875 8.296875 
Q 40.140625 3.328125 35.546875 0.953125 
Q 30.953125 -1.421875 24.3125 -1.421875 
Q 15.921875 -1.421875 10.953125 3.296875 
Q 6 8.015625 6 15.921875 
Q 6 25.140625 12.171875 29.828125 
Q 18.359375 34.515625 30.609375 34.515625 
L 43.21875 34.515625 
L 43.21875 35.40625 
Q 43.21875 41.609375 39.140625 45 
Q 35.0625 48.390625 27.6875 48.390625 
Q 23 48.390625 18.546875 47.265625 
Q 14.109375 46.140625 10.015625 43.890625 
L 10.015625 52.203125 
Q 14.9375 54.109375 19.578125 55.046875 
Q 24.21875 56 28.609375 56 
Q 40.484375 56 46.34375 49.84375 
Q 52.203125 43.703125 52.203125 31.203125 
z
" id="DejaVuSans-97"/>
        <path d="M 18.109375 8.203125 
L 18.109375 -20.796875 
L 9.078125 -20.796875 
L 9.078125 54.6875 
L 18.109375 54.6875 
L 18.109375 46.390625 
Q 20.953125 51.265625 25.265625 53.625 
Q 29.59375 56 35.59375 56 
Q 45.5625 56 51.78125 48.09375 
Q 58.015625 40.1875 58.015625 27.296875 
Q 58.015625 14.40625 51.78125 6.484375 
Q 45.5625 -1.421875 35.59375 -1.421875 
Q 29.59375 -1.421875 25.265625 0.953125 
Q 20.953125 3.328125 18.109375 8.203125 
z
M 48.6875 27.296875 
Q 48.6875 37.203125 44.609375 42.84375 
Q 40.53125 48.484375 33.40625 48.484375 
Q 26.265625 48.484375 22.1875 42.84375 
Q 18.109375 37.203125 18.109375 27.296875 
Q 18.109375 17.390625 22.1875 11.75 
Q 26.265625 6.109375 33.40625 6.109375 
Q 40.53125 6.109375 44.609375 11.75 
Q 48.6875 17.390625 48.6875 27.296875 
z
" id="DejaVuSans-112"/>
        <path d="M 44.28125 53.078125 
L 44.28125 44.578125 
Q 40.484375 46.53125 36.375 47.5 
Q 32.28125 48.484375 27.875 48.484375 
Q 21.1875 48.484375 17.84375 46.4375 
Q 14.5 44.390625 14.5 40.28125 
Q 14.5 37.15625 16.890625 35.375 
Q 19.28125 33.59375 26.515625 31.984375 
L 29.59375 31.296875 
Q 39.15625 29.25 43.1875 25.515625 
Q 47.21875 21.78125 47.21875 15.09375 
Q 47.21875 7.46875 41.1875 3.015625 
Q 35.15625 -1.421875 24.609375 -1.421875 
Q 20.21875 -1.421875 15.453125 -0.5625 
Q 10.6875 0.296875 5.421875 2 
L 5.421875 11.28125 
Q 10.40625 8.6875 15.234375 7.390625 
Q 20.0625 6.109375 24.8125 6.109375 
Q 31.15625 6.109375 34.5625 8.28125 
Q 37.984375 10.453125 37.984375 14.40625 
Q 37.984375 18.0625 35.515625 20.015625 
Q 33.0625 21.96875 24.703125 23.78125 
L 21.578125 24.515625 
Q 13.234375 26.265625 9.515625 29.90625 
Q 5.8125 33.546875 5.8125 39.890625 
Q 5.8125 47.609375 11.28125 51.796875 
Q 16.75 56 26.8125 56 
Q 31.78125 56 36.171875 55.265625 
Q 40.578125 54.546875 44.28125 53.078125 
z
" id="DejaVuSans-115"/>
        <path d="M 50.984375 -16.609375 
L 50.984375 -23.578125 
L -0.984375 -23.578125 
L -0.984375 -16.609375 
z
" id="DejaVuSans-95"/>
        <path d="M 14.796875 27.296875 
Q 14.796875 17.390625 18.875 11.75 
Q 22.953125 6.109375 30.078125 6.109375 
Q 37.203125 6.109375 41.296875 11.75 
Q 45.40625 17.390625 45.40625 27.296875 
Q 45.40625 37.203125 41.296875 42.84375 
Q 37.203125 48.484375 30.078125 48.484375 
Q 22.953125 48.484375 18.875 42.84375 
Q 14.796875 37.203125 14.796875 27.296875 
z
M 45.40625 8.203125 
Q 42.578125 3.328125 38.25 0.953125 
Q 33.9375 -1.421875 27.875 -1.421875 
Q 17.96875 -1.421875 11.734375 6.484375 
Q 5.515625 14.40625 5.515625 27.296875 
Q 5.515625 40.1875 11.734375 48.09375 
Q 17.96875 56 27.875 56 
Q 33.9375 56 38.25 53.625 
Q 42.578125 51.265625 45.40625 46.390625 
L 45.40625 54.6875 
L 54.390625 54.6875 
L 54.390625 -20.796875 
L 45.40625 -20.796875 
z
" id="DejaVuSans-113"/>
        <path d="M 52 44.1875 
Q 55.375 50.25 60.0625 53.125 
Q 64.75 56 71.09375 56 
Q 79.640625 56 84.28125 50.015625 
Q 88.921875 44.046875 88.921875 33.015625 
L 88.921875 0 
L 79.890625 0 
L 79.890625 32.71875 
Q 79.890625 40.578125 77.09375 44.375 
Q 74.3125 48.1875 68.609375 48.1875 
Q 61.625 48.1875 57.5625 43.546875 
Q 53.515625 38.921875 53.515625 30.90625 
L 53.515625 0 
L 44.484375 0 
L 44.484375 32.71875 
Q 44.484375 40.625 41.703125 44.40625 
Q 38.921875 48.1875 33.109375 48.1875 
Q 26.21875 48.1875 22.15625 43.53125 
Q 18.109375 38.875 18.109375 30.90625 
L 18.109375 0 
L 9.078125 0 
L 9.078125 54.6875 
L 18.109375 54.6875 
L 18.109375 46.1875 
Q 21.1875 51.21875 25.484375 53.609375 
Q 29.78125 56 35.6875 56 
Q 41.65625 56 45.828125 52.96875 
Q 50 49.953125 52 44.1875 
z
" id="DejaVuSans-109"/>
       </defs>
       <use xlink:href="#DejaVuSans-97"/>
       <use x="61.279297" xlink:href="#DejaVuSans-102"/>
       <use x="96.484375" xlink:href="#DejaVuSans-108"/>
       <use x="124.267578" xlink:href="#DejaVuSans-112"/>
       <use x="187.744141" xlink:href="#DejaVuSans-108"/>
       <use x="215.527344" xlink:href="#DejaVuSans-117"/>
       <use x="278.90625" xlink:href="#DejaVuSans-115"/>
       <use x="331.005859" xlink:href="#DejaVuSans-112"/>
       <use x="394.482422" xlink:href="#DejaVuSans-108"/>
       <use x="422.265625" xlink:href="#DejaVuSans-117"/>
       <use x="485.644531" xlink:href="#DejaVuSans-115"/>
       <use x="537.744141" xlink:href="#DejaVuSans-95"/>
       <use x="587.744141" xlink:href="#DejaVuSans-113"/>
       <use x="651.220703" xlink:href="#DejaVuSans-101"/>
       <use x="712.744141" xlink:href="#DejaVuSans-109"/>
       <use x="810.15625" xlink:href="#DejaVuSans-117"/>
      </g>
     </g>
    </g>
    <g id="xtick_3">
     <g id="line2d_3">
      <g>
       <use style="stroke:#000000;stroke-width:0.8;" x="146.165625" xlink:href="#m6fa5b52daf" y="288.430125"/>
      </g>
     </g>
     <g id="text_3">
      <!-- aflplusplus_flat -->
      <g transform="translate(79.93062 339.570721)rotate(-30)scale(0.1 -0.1)">
       <defs>
        <path d="M 18.3125 70.21875 
L 18.3125 54.6875 
L 36.8125 54.6875 
L 36.8125 47.703125 
L 18.3125 47.703125 
L 18.3125 18.015625 
Q 18.3125 11.328125 20.140625 9.421875 
Q 21.96875 7.515625 27.59375 7.515625 
L 36.8125 7.515625 
L 36.8125 0 
L 27.59375 0 
Q 17.1875 0 13.234375 3.875 
Q 9.28125 7.765625 9.28125 18.015625 
L 9.28125 47.703125 
L 2.6875 47.703125 
L 2.6875 54.6875 
L 9.28125 54.6875 
L 9.28125 70.21875 
z
" id="DejaVuSans-116"/>
       </defs>
       <use xlink:href="#DejaVuSans-97"/>
       <use x="61.279297" xlink:href="#DejaVuSans-102"/>
       <use x="96.484375" xlink:href="#DejaVuSans-108"/>
       <use x="124.267578" xlink:href="#DejaVuSans-112"/>
       <use x="187.744141" xlink:href="#DejaVuSans-108"/>
       <use x="215.527344" xlink:href="#DejaVuSans-117"/>
       <use x="278.90625" xlink:href="#DejaVuSans-115"/>
       <use x="331.005859" xlink:href="#DejaVuSans-112"/>
       <use x="394.482422" xlink:href="#DejaVuSans-108"/>
       <use x="422.265625" xlink:href="#DejaVuSans-117"/>
       <use x="485.644531" xlink:href="#DejaVuSans-115"/>
       <use x="537.744141" xlink:href="#DejaVuSans-95"/>
       <use x="587.744141" xlink:href="#DejaVuSans-102"/>
       <use x="622.949219" xlink:href="#DejaVuSans-108"/>
       <use x="650.732422" xlink:href="#DejaVuSans-97"/>
       <use x="712.011719" xlink:href="#DejaVuSans-116"/>
      </g>
     </g>
    </g>
    <g id="xtick_4">
     <g id="line2d_4">
      <g>
       <use style="stroke:#000000;stroke-width:0.8;" x="185.845625" xlink:href="#m6fa5b52daf" y="288.430125"/>
      </g>
     </g>
     <g id="text_4">
      <!-- lafintel -->
      <g transform="translate(155.01992 319.20744)rotate(-30)scale(0.1 -0.1)">
       <defs>
        <path d="M 54.890625 33.015625 
L 54.890625 0 
L 45.90625 0 
L 45.90625 32.71875 
Q 45.90625 40.484375 42.875 44.328125 
Q 39.84375 48.1875 33.796875 48.1875 
Q 26.515625 48.1875 22.3125 43.546875 
Q 18.109375 38.921875 18.109375 30.90625 
L 18.109375 0 
L 9.078125 0 
L 9.078125 54.6875 
L 18.109375 54.6875 
L 18.109375 46.1875 
Q 21.34375 51.125 25.703125 53.5625 
Q 30.078125 56 35.796875 56 
Q 45.21875 56 50.046875 50.171875 
Q 54.890625 44.34375 54.890625 33.015625 
z
" id="DejaVuSans-110"/>
       </defs>
       <use xlink:href="#DejaVuSans-108"/>
       <use x="27.783203" xlink:href="#DejaVuSans-97"/>
       <use x="89.0625" xlink:href="#DejaVuSans-102"/>
       <use x="124.267578" xlink:href="#DejaVuSans-105"/>
       <use x="152.050781" xlink:href="#DejaVuSans-110"/>
       <use x="215.429688" xlink:href="#DejaVuSans-116"/>
       <use x="254.638672" xlink:href="#DejaVuSans-101"/>
       <use x="316.162109" xlink:href="#DejaVuSans-108"/>
      </g>
     </g>
    </g>
    <g id="xtick_5">
     <g id="line2d_5">
      <g>
       <use style="stroke:#000000;stroke-width:0.8;" x="225.525625" xlink:href="#m6fa5b52daf" y="288.430125"/>
      </g>
     </g>
     <g id="text_5">
      <!-- honggfuzz -->
      <g transform="translate(179.586424 327.933221)rotate(-30)scale(0.1 -0.1)">
       <defs>
        <path d="M 54.890625 33.015625 
L 54.890625 0 
L 45.90625 0 
L 45.90625 32.71875 
Q 45.90625 40.484375 42.875 44.328125 
Q 39.84375 48.1875 33.796875 48.1875 
Q 26.515625 48.1875 22.3125 43.546875 
Q 18.109375 38.921875 18.109375 30.90625 
L 18.109375 0 
L 9.078125 0 
L 9.078125 75.984375 
L 18.109375 75.984375 
L 18.109375 46.1875 
Q 21.34375 51.125 25.703125 53.5625 
Q 30.078125 56 35.796875 56 
Q 45.21875 56 50.046875 50.171875 
Q 54.890625 44.34375 54.890625 33.015625 
z
" id="DejaVuSans-104"/>
        <path d="M 30.609375 48.390625 
Q 23.390625 48.390625 19.1875 42.75 
Q 14.984375 37.109375 14.984375 27.296875 
Q 14.984375 17.484375 19.15625 11.84375 
Q 23.34375 6.203125 30.609375 6.203125 
Q 37.796875 6.203125 41.984375 11.859375 
Q 46.1875 17.53125 46.1875 27.296875 
Q 46.1875 37.015625 41.984375 42.703125 
Q 37.796875 48.390625 30.609375 48.390625 
z
M 30.609375 56 
Q 42.328125 56 49.015625 48.375 
Q 55.71875 40.765625 55.71875 27.296875 
Q 55.71875 13.875 49.015625 6.21875 
Q 42.328125 -1.421875 30.609375 -1.421875 
Q 18.84375 -1.421875 12.171875 6.21875 
Q 5.515625 13.875 5.515625 27.296875 
Q 5.515625 40.765625 12.171875 48.375 
Q 18.84375 56 30.609375 56 
z
" id="DejaVuSans-111"/>
        <path d="M 45.40625 27.984375 
Q 45.40625 37.75 41.375 43.109375 
Q 37.359375 48.484375 30.078125 48.484375 
Q 22.859375 48.484375 18.828125 43.109375 
Q 14.796875 37.75 14.796875 27.984375 
Q 14.796875 18.265625 18.828125 12.890625 
Q 22.859375 7.515625 30.078125 7.515625 
Q 37.359375 7.515625 41.375 12.890625 
Q 45.40625 18.265625 45.40625 27.984375 
z
M 54.390625 6.78125 
Q 54.390625 -7.171875 48.1875 -13.984375 
Q 42 -20.796875 29.203125 -20.796875 
Q 24.46875 -20.796875 20.265625 -20.09375 
Q 16.0625 -19.390625 12.109375 -17.921875 
L 12.109375 -9.1875 
Q 16.0625 -11.328125 19.921875 -12.34375 
Q 23.78125 -13.375 27.78125 -13.375 
Q 36.625 -13.375 41.015625 -8.765625 
Q 45.40625 -4.15625 45.40625 5.171875 
L 45.40625 9.625 
Q 42.625 4.78125 38.28125 2.390625 
Q 33.9375 0 27.875 0 
Q 17.828125 0 11.671875 7.65625 
Q 5.515625 15.328125 5.515625 27.984375 
Q 5.515625 40.671875 11.671875 48.328125 
Q 17.828125 56 27.875 56 
Q 33.9375 56 38.28125 53.609375 
Q 42.625 51.21875 45.40625 46.390625 
L 45.40625 54.6875 
L 54.390625 54.6875 
z
" id="DejaVuSans-103"/>
       </defs>
       <use xlink:href="#DejaVuSans-104"/>
       <use x="63.378906" xlink:href="#DejaVuSans-111"/>
       <use x="124.560547" xlink:href="#DejaVuSans-110"/>
       <use x="187.939453" xlink:href="#DejaVuSans-103"/>
       <use x="251.416016" xlink:href="#DejaVuSans-103"/>
       <use x="314.892578" xlink:href="#DejaVuSans-102"/>
       <use x="350.097656" xlink:href="#DejaVuSans-117"/>
       <use x="413.476562" xlink:href="#DejaVuSans-122"/>
       <use x="465.966797" xlink:href="#DejaVuSans-122"/>
      </g>
     </g>
    </g>
    <g id="xtick_6">
     <g id="line2d_6">
      <g>
       <use style="stroke:#000000;stroke-width:0.8;" x="265.205625" xlink:href="#m6fa5b52daf" y="288.430125"/>
      </g>
     </g>
     <g id="text_6">
      <!-- entropic -->
      <g transform="translate(228.623557 322.530877)rotate(-30)scale(0.1 -0.1)">
       <defs>
        <path d="M 48.78125 52.59375 
L 48.78125 44.1875 
Q 44.96875 46.296875 41.140625 47.34375 
Q 37.3125 48.390625 33.40625 48.390625 
Q 24.65625 48.390625 19.8125 42.84375 
Q 14.984375 37.3125 14.984375 27.296875 
Q 14.984375 17.28125 19.8125 11.734375 
Q 24.65625 6.203125 33.40625 6.203125 
Q 37.3125 6.203125 41.140625 7.25 
Q 44.96875 8.296875 48.78125 10.40625 
L 48.78125 2.09375 
Q 45.015625 0.34375 40.984375 -0.53125 
Q 36.96875 -1.421875 32.421875 -1.421875 
Q 20.0625 -1.421875 12.78125 6.34375 
Q 5.515625 14.109375 5.515625 27.296875 
Q 5.515625 40.671875 12.859375 48.328125 
Q 20.21875 56 33.015625 56 
Q 37.15625 56 41.109375 55.140625 
Q 45.0625 54.296875 48.78125 52.59375 
z
" id="DejaVuSans-99"/>
       </defs>
       <use xlink:href="#DejaVuSans-101"/>
       <use x="61.523438" xlink:href="#DejaVuSans-110"/>
       <use x="124.902344" xlink:href="#DejaVuSans-116"/>
       <use x="164.111328" xlink:href="#DejaVuSans-114"/>
       <use x="202.974609" xlink:href="#DejaVuSans-111"/>
       <use x="264.15625" xlink:href="#DejaVuSans-112"/>
       <use x="327.632812" xlink:href="#DejaVuSans-105"/>
       <use x="355.416016" xlink:href="#DejaVuSans-99"/>
      </g>
     </g>
    </g>
    <g id="xtick_7">
     <g id="line2d_7">
      <g>
       <use style="stroke:#000000;stroke-width:0.8;" x="304.885625" xlink:href="#m6fa5b52daf" y="288.430125"/>
      </g>
     </g>
     <g id="text_7">
      <!-- aflplusplus -->
      <g transform="translate(257.276618 328.897284)rotate(-30)scale(0.1 -0.1)">
       <use xlink:href="#DejaVuSans-97"/>
       <use x="61.279297" xlink:href="#DejaVuSans-102"/>
       <use x="96.484375" xlink:href="#DejaVuSans-108"/>
       <use x="124.267578" xlink:href="#DejaVuSans-112"/>
       <use x="187.744141" xlink:href="#DejaVuSans-108"/>
       <use x="215.527344" xlink:href="#DejaVuSans-117"/>
       <use x="278.90625" xlink:href="#DejaVuSans-115"/>
       <use x="331.005859" xlink:href="#DejaVuSans-112"/>
       <use x="394.482422" xlink:href="#DejaVuSans-108"/>
       <use x="422.265625" xlink:href="#DejaVuSans-117"/>
       <use x="485.644531" xlink:href="#DejaVuSans-115"/>
      </g>
     </g>
    </g>
    <g id="xtick_8">
     <g id="line2d_8">
      <g>
       <use style="stroke:#000000;stroke-width:0.8;" x="344.565625" xlink:href="#m6fa5b52daf" y="288.430125"/>
      </g>
     </g>
     <g id="text_8">
      <!-- fairfuzz -->
      <g transform="translate(311.57621 320.456659)rotate(-30)scale(0.1 -0.1)">
       <use xlink:href="#DejaVuSans-102"/>
       <use x="35.205078" xlink:href="#DejaVuSans-97"/>
       <use x="96.484375" xlink:href="#DejaVuSans-105"/>
       <use x="124.267578" xlink:href="#DejaVuSans-114"/>
       <use x="165.380859" xlink:href="#DejaVuSans-102"/>
       <use x="200.585938" xlink:href="#DejaVuSans-117"/>
       <use x="263.964844" xlink:href="#DejaVuSans-122"/>
       <use x="316.455078" xlink:href="#DejaVuSans-122"/>
      </g>
     </g>
    </g>
    <g id="xtick_9">
     <g id="line2d_9">
      <g>
       <use style="stroke:#000000;stroke-width:0.8;" x="384.245625" xlink:href="#m6fa5b52daf" y="288.430125"/>
      </g>
     </g>
     <g id="text_9">
      <!-- mopt -->
      <g transform="translate(360.578161 315.074627)rotate(-30)scale(0.1 -0.1)">
       <use xlink:href="#DejaVuSans-109"/>
       <use x="97.412109" xlink:href="#DejaVuSans-111"/>
       <use x="158.59375" xlink:href="#DejaVuSans-112"/>
       <use x="222.070312" xlink:href="#DejaVuSans-116"/>
      </g>
     </g>
    </g>
    <g id="text_10">
     <!-- Fuzzer (highest median coverage on the left) -->
     <g transform="translate(112.907656 359.32749)scale(0.1 -0.1)">
      <defs>
       <path d="M 9.8125 72.90625 
L 51.703125 72.90625 
L 51.703125 64.59375 
L 19.671875 64.59375 
L 19.671875 43.109375 
L 48.578125 43.109375 
L 48.578125 34.8125 
L 19.671875 34.8125 
L 19.671875 0 
L 9.8125 0 
z
" id="DejaVuSans-70"/>
       <path id="DejaVuSans-32"/>
       <path d="M 31 75.875 
Q 24.46875 64.65625 21.28125 53.65625 
Q 18.109375 42.671875 18.109375 31.390625 
Q 18.109375 20.125 21.3125 9.0625 
Q 24.515625 -2 31 -13.1875 
L 23.1875 -13.1875 
Q 15.875 -1.703125 12.234375 9.375 
Q 8.59375 20.453125 8.59375 31.390625 
Q 8.59375 42.28125 12.203125 53.3125 
Q 15.828125 64.359375 23.1875 75.875 
z
" id="DejaVuSans-40"/>
       <path d="M 45.40625 46.390625 
L 45.40625 75.984375 
L 54.390625 75.984375 
L 54.390625 0 
L 45.40625 0 
L 45.40625 8.203125 
Q 42.578125 3.328125 38.25 0.953125 
Q 33.9375 -1.421875 27.875 -1.421875 
Q 17.96875 -1.421875 11.734375 6.484375 
Q 5.515625 14.40625 5.515625 27.296875 
Q 5.515625 40.1875 11.734375 48.09375 
Q 17.96875 56 27.875 56 
Q 33.9375 56 38.25 53.625 
Q 42.578125 51.265625 45.40625 46.390625 
z
M 14.796875 27.296875 
Q 14.796875 17.390625 18.875 11.75 
Q 22.953125 6.109375 30.078125 6.109375 
Q 37.203125 6.109375 41.296875 11.75 
Q 45.40625 17.390625 45.40625 27.296875 
Q 45.40625 37.203125 41.296875 42.84375 
Q 37.203125 48.484375 30.078125 48.484375 
Q 22.953125 48.484375 18.875 42.84375 
Q 14.796875 37.203125 14.796875 27.296875 
z
" id="DejaVuSans-100"/>
       <path d="M 2.984375 54.6875 
L 12.5 54.6875 
L 29.59375 8.796875 
L 46.6875 54.6875 
L 56.203125 54.6875 
L 35.6875 0 
L 23.484375 0 
z
" id="DejaVuSans-118"/>
       <path d="M 8.015625 75.875 
L 15.828125 75.875 
Q 23.140625 64.359375 26.78125 53.3125 
Q 30.421875 42.28125 30.421875 31.390625 
Q 30.421875 20.453125 26.78125 9.375 
Q 23.140625 -1.703125 15.828125 -13.1875 
L 8.015625 -13.1875 
Q 14.5 -2 17.703125 9.0625 
Q 20.90625 20.125 20.90625 31.390625 
Q 20.90625 42.671875 17.703125 53.65625 
Q 14.5 64.65625 8.015625 75.875 
z
" id="DejaVuSans-41"/>
      </defs>
      <use xlink:href="#DejaVuSans-70"/>
      <use x="52.019531" xlink:href="#DejaVuSans-117"/>
      <use x="115.398438" xlink:href="#DejaVuSans-122"/>
      <use x="167.888672" xlink:href="#DejaVuSans-122"/>
      <use x="220.378906" xlink:href="#DejaVuSans-101"/>
      <use x="281.902344" xlink:href="#DejaVuSans-114"/>
      <use x="323.015625" xlink:href="#DejaVuSans-32"/>
      <use x="354.802734" xlink:href="#DejaVuSans-40"/>
      <use x="393.816406" xlink:href="#DejaVuSans-104"/>
      <use x="457.195312" xlink:href="#DejaVuSans-105"/>
      <use x="484.978516" xlink:href="#DejaVuSans-103"/>
      <use x="548.455078" xlink:href="#DejaVuSans-104"/>
      <use x="611.833984" xlink:href="#DejaVuSans-101"/>
      <use x="673.357422" xlink:href="#DejaVuSans-115"/>
      <use x="725.457031" xlink:href="#DejaVuSans-116"/>
      <use x="764.666016" xlink:href="#DejaVuSans-32"/>
      <use x="796.453125" xlink:href="#DejaVuSans-109"/>
      <use x="893.865234" xlink:href="#DejaVuSans-101"/>
      <use x="955.388672" xlink:href="#DejaVuSans-100"/>
      <use x="1018.865234" xlink:href="#DejaVuSans-105"/>
      <use x="1046.648438" xlink:href="#DejaVuSans-97"/>
      <use x="1107.927734" xlink:href="#DejaVuSans-110"/>
      <use x="1171.306641" xlink:href="#DejaVuSans-32"/>
      <use x="1203.09375" xlink:href="#DejaVuSans-99"/>
      <use x="1258.074219" xlink:href="#DejaVuSans-111"/>
      <use x="1319.255859" xlink:href="#DejaVuSans-118"/>
      <use x="1378.435547" xlink:href="#DejaVuSans-101"/>
      <use x="1439.958984" xlink:href="#DejaVuSans-114"/>
      <use x="1481.072266" xlink:href="#DejaVuSans-97"/>
      <use x="1542.351562" xlink:href="#DejaVuSans-103"/>
      <use x="1605.828125" xlink:href="#DejaVuSans-101"/>
      <use x="1667.351562" xlink:href="#DejaVuSans-32"/>
      <use x="1699.138672" xlink:href="#DejaVuSans-111"/>
      <use x="1760.320312" xlink:href="#DejaVuSans-110"/>
      <use x="1823.699219" xlink:href="#DejaVuSans-32"/>
      <use x="1855.486328" xlink:href="#DejaVuSans-116"/>
      <use x="1894.695312" xlink:href="#DejaVuSans-104"/>
      <use x="1958.074219" xlink:href="#DejaVuSans-101"/>
      <use x="2019.597656" xlink:href="#DejaVuSans-32"/>
      <use x="2051.384766" xlink:href="#DejaVuSans-108"/>
      <use x="2079.167969" xlink:href="#DejaVuSans-101"/>
      <use x="2140.691406" xlink:href="#DejaVuSans-102"/>
      <use x="2174.146484" xlink:href="#DejaVuSans-116"/>
      <use x="2213.355469" xlink:href="#DejaVuSans-41"/>
     </g>
    </g>
   </g>
   <g id="matplotlib.axis_2">
    <g id="ytick_1">
     <g id="line2d_10">
      <defs>
       <path d="M 0 0 
L -3.5 0 
" id="mddd7e0008b" style="stroke:#000000;stroke-width:0.8;"/>
      </defs>
      <g>
       <use style="stroke:#000000;stroke-width:0.8;" x="46.965625" xlink:href="#mddd7e0008b" y="253.198015"/>
      </g>
     </g>
     <g id="text_11">
      <!-- 940 -->
      <g transform="translate(20.878125 256.997233)scale(0.1 -0.1)">
       <defs>
        <path d="M 10.984375 1.515625 
L 10.984375 10.5 
Q 14.703125 8.734375 18.5 7.8125 
Q 22.3125 6.890625 25.984375 6.890625 
Q 35.75 6.890625 40.890625 13.453125 
Q 46.046875 20.015625 46.78125 33.40625 
Q 43.953125 29.203125 39.59375 26.953125 
Q 35.25 24.703125 29.984375 24.703125 
Q 19.046875 24.703125 12.671875 31.3125 
Q 6.296875 37.9375 6.296875 49.421875 
Q 6.296875 60.640625 12.9375 67.421875 
Q 19.578125 74.21875 30.609375 74.21875 
Q 43.265625 74.21875 49.921875 64.515625 
Q 56.59375 54.828125 56.59375 36.375 
Q 56.59375 19.140625 48.40625 8.859375 
Q 40.234375 -1.421875 26.421875 -1.421875 
Q 22.703125 -1.421875 18.890625 -0.6875 
Q 15.09375 0.046875 10.984375 1.515625 
z
M 30.609375 32.421875 
Q 37.25 32.421875 41.125 36.953125 
Q 45.015625 41.5 45.015625 49.421875 
Q 45.015625 57.28125 41.125 61.84375 
Q 37.25 66.40625 30.609375 66.40625 
Q 23.96875 66.40625 20.09375 61.84375 
Q 16.21875 57.28125 16.21875 49.421875 
Q 16.21875 41.5 20.09375 36.953125 
Q 23.96875 32.421875 30.609375 32.421875 
z
" id="DejaVuSans-57"/>
        <path d="M 37.796875 64.3125 
L 12.890625 25.390625 
L 37.796875 25.390625 
z
M 35.203125 72.90625 
L 47.609375 72.90625 
L 47.609375 25.390625 
L 58.015625 25.390625 
L 58.015625 17.1875 
L 47.609375 17.1875 
L 47.609375 0 
L 37.796875 0 
L 37.796875 17.1875 
L 4.890625 17.1875 
L 4.890625 26.703125 
z
" id="DejaVuSans-52"/>
        <path d="M 31.78125 66.40625 
Q 24.171875 66.40625 20.328125 58.90625 
Q 16.5 51.421875 16.5 36.375 
Q 16.5 21.390625 20.328125 13.890625 
Q 24.171875 6.390625 31.78125 6.390625 
Q 39.453125 6.390625 43.28125 13.890625 
Q 47.125 21.390625 47.125 36.375 
Q 47.125 51.421875 43.28125 58.90625 
Q 39.453125 66.40625 31.78125 66.40625 
z
M 31.78125 74.21875 
Q 44.046875 74.21875 50.515625 64.515625 
Q 56.984375 54.828125 56.984375 36.375 
Q 56.984375 17.96875 50.515625 8.265625 
Q 44.046875 -1.421875 31.78125 -1.421875 
Q 19.53125 -1.421875 13.0625 8.265625 
Q 6.59375 17.96875 6.59375 36.375 
Q 6.59375 54.828125 13.0625 64.515625 
Q 19.53125 74.21875 31.78125 74.21875 
z
" id="DejaVuSans-48"/>
       </defs>
       <use xlink:href="#DejaVuSans-57"/>
       <use x="63.623047" xlink:href="#DejaVuSans-52"/>
       <use x="127.246094" xlink:href="#DejaVuSans-48"/>
      </g>
     </g>
    </g>
    <g id="ytick_2">
     <g id="line2d_11">
      <g>
       <use style="stroke:#000000;stroke-width:0.8;" x="46.965625" xlink:href="#mddd7e0008b" y="214.631339"/>
      </g>
     </g>
     <g id="text_12">
      <!-- 950 -->
      <g transform="translate(20.878125 218.430558)scale(0.1 -0.1)">
       <defs>
        <path d="M 10.796875 72.90625 
L 49.515625 72.90625 
L 49.515625 64.59375 
L 19.828125 64.59375 
L 19.828125 46.734375 
Q 21.96875 47.46875 24.109375 47.828125 
Q 26.265625 48.1875 28.421875 48.1875 
Q 40.625 48.1875 47.75 41.5 
Q 54.890625 34.8125 54.890625 23.390625 
Q 54.890625 11.625 47.5625 5.09375 
Q 40.234375 -1.421875 26.90625 -1.421875 
Q 22.3125 -1.421875 17.546875 -0.640625 
Q 12.796875 0.140625 7.71875 1.703125 
L 7.71875 11.625 
Q 12.109375 9.234375 16.796875 8.0625 
Q 21.484375 6.890625 26.703125 6.890625 
Q 35.15625 6.890625 40.078125 11.328125 
Q 45.015625 15.765625 45.015625 23.390625 
Q 45.015625 31 40.078125 35.4375 
Q 35.15625 39.890625 26.703125 39.890625 
Q 22.75 39.890625 18.8125 39.015625 
Q 14.890625 38.140625 10.796875 36.28125 
z
" id="DejaVuSans-53"/>
       </defs>
       <use xlink:href="#DejaVuSans-57"/>
       <use x="63.623047" xlink:href="#DejaVuSans-53"/>
       <use x="127.246094" xlink:href="#DejaVuSans-48"/>
      </g>
     </g>
    </g>
    <g id="ytick_3">
     <g id="line2d_12">
      <g>
       <use style="stroke:#000000;stroke-width:0.8;" x="46.965625" xlink:href="#mddd7e0008b" y="176.064664"/>
      </g>
     </g>
     <g id="text_13">
      <!-- 960 -->
      <g transform="translate(20.878125 179.863883)scale(0.1 -0.1)">
       <defs>
        <path d="M 33.015625 40.375 
Q 26.375 40.375 22.484375 35.828125 
Q 18.609375 31.296875 18.609375 23.390625 
Q 18.609375 15.53125 22.484375 10.953125 
Q 26.375 6.390625 33.015625 6.390625 
Q 39.65625 6.390625 43.53125 10.953125 
Q 47.40625 15.53125 47.40625 23.390625 
Q 47.40625 31.296875 43.53125 35.828125 
Q 39.65625 40.375 33.015625 40.375 
z
M 52.59375 71.296875 
L 52.59375 62.3125 
Q 48.875 64.0625 45.09375 64.984375 
Q 41.3125 65.921875 37.59375 65.921875 
Q 27.828125 65.921875 22.671875 59.328125 
Q 17.53125 52.734375 16.796875 39.40625 
Q 19.671875 43.65625 24.015625 45.921875 
Q 28.375 48.1875 33.59375 48.1875 
Q 44.578125 48.1875 50.953125 41.515625 
Q 57.328125 34.859375 57.328125 23.390625 
Q 57.328125 12.15625 50.6875 5.359375 
Q 44.046875 -1.421875 33.015625 -1.421875 
Q 20.359375 -1.421875 13.671875 8.265625 
Q 6.984375 17.96875 6.984375 36.375 
Q 6.984375 53.65625 15.1875 63.9375 
Q 23.390625 74.21875 37.203125 74.21875 
Q 40.921875 74.21875 44.703125 73.484375 
Q 48.484375 72.75 52.59375 71.296875 
z
" id="DejaVuSans-54"/>
       </defs>
       <use xlink:href="#DejaVuSans-57"/>
       <use x="63.623047" xlink:href="#DejaVuSans-54"/>
       <use x="127.246094" xlink:href="#DejaVuSans-48"/>
      </g>
     </g>
    </g>
    <g id="ytick_4">
     <g id="line2d_13">
      <g>
       <use style="stroke:#000000;stroke-width:0.8;" x="46.965625" xlink:href="#mddd7e0008b" y="137.497989"/>
      </g>
     </g>
     <g id="text_14">
      <!-- 970 -->
      <g transform="translate(20.878125 141.297207)scale(0.1 -0.1)">
       <defs>
        <path d="M 8.203125 72.90625 
L 55.078125 72.90625 
L 55.078125 68.703125 
L 28.609375 0 
L 18.3125 0 
L 43.21875 64.59375 
L 8.203125 64.59375 
z
" id="DejaVuSans-55"/>
       </defs>
       <use xlink:href="#DejaVuSans-57"/>
       <use x="63.623047" xlink:href="#DejaVuSans-55"/>
       <use x="127.246094" xlink:href="#DejaVuSans-48"/>
      </g>
     </g>
    </g>
    <g id="ytick_5">
     <g id="line2d_14">
      <g>
       <use style="stroke:#000000;stroke-width:0.8;" x="46.965625" xlink:href="#mddd7e0008b" y="98.931313"/>
      </g>
     </g>
     <g id="text_15">
      <!-- 980 -->
      <g transform="translate(20.878125 102.730532)scale(0.1 -0.1)">
       <defs>
        <path d="M 31.78125 34.625 
Q 24.75 34.625 20.71875 30.859375 
Q 16.703125 27.09375 16.703125 20.515625 
Q 16.703125 13.921875 20.71875 10.15625 
Q 24.75 6.390625 31.78125 6.390625 
Q 38.8125 6.390625 42.859375 10.171875 
Q 46.921875 13.96875 46.921875 20.515625 
Q 46.921875 27.09375 42.890625 30.859375 
Q 38.875 34.625 31.78125 34.625 
z
M 21.921875 38.8125 
Q 15.578125 40.375 12.03125 44.71875 
Q 8.5 49.078125 8.5 55.328125 
Q 8.5 64.0625 14.71875 69.140625 
Q 20.953125 74.21875 31.78125 74.21875 
Q 42.671875 74.21875 48.875 69.140625 
Q 55.078125 64.0625 55.078125 55.328125 
Q 55.078125 49.078125 51.53125 44.71875 
Q 48 40.375 41.703125 38.8125 
Q 48.828125 37.15625 52.796875 32.3125 
Q 56.78125 27.484375 56.78125 20.515625 
Q 56.78125 9.90625 50.3125 4.234375 
Q 43.84375 -1.421875 31.78125 -1.421875 
Q 19.734375 -1.421875 13.25 4.234375 
Q 6.78125 9.90625 6.78125 20.515625 
Q 6.78125 27.484375 10.78125 32.3125 
Q 14.796875 37.15625 21.921875 38.8125 
z
M 18.3125 54.390625 
Q 18.3125 48.734375 21.84375 45.5625 
Q 25.390625 42.390625 31.78125 42.390625 
Q 38.140625 42.390625 41.71875 45.5625 
Q 45.3125 48.734375 45.3125 54.390625 
Q 45.3125 60.0625 41.71875 63.234375 
Q 38.140625 66.40625 31.78125 66.40625 
Q 25.390625 66.40625 21.84375 63.234375 
Q 18.3125 60.0625 18.3125 54.390625 
z
" id="DejaVuSans-56"/>
       </defs>
       <use xlink:href="#DejaVuSans-57"/>
       <use x="63.623047" xlink:href="#DejaVuSans-56"/>
       <use x="127.246094" xlink:href="#DejaVuSans-48"/>
      </g>
     </g>
    </g>
    <g id="ytick_6">
     <g id="line2d_15">
      <g>
       <use style="stroke:#000000;stroke-width:0.8;" x="46.965625" xlink:href="#mddd7e0008b" y="60.364638"/>
      </g>
     </g>
     <g id="text_16">
      <!-- 990 -->
      <g transform="translate(20.878125 64.163857)scale(0.1 -0.1)">
       <use xlink:href="#DejaVuSans-57"/>
       <use x="63.623047" xlink:href="#DejaVuSans-57"/>
       <use x="127.246094" xlink:href="#DejaVuSans-48"/>
      </g>
     </g>
    </g>
    <g id="text_17">
     <!-- Reached region coverage -->
     <g transform="translate(14.798438 219.136625)rotate(-90)scale(0.1 -0.1)">
      <defs>
       <path d="M 44.390625 34.1875 
Q 47.5625 33.109375 50.5625 29.59375 
Q 53.5625 26.078125 56.59375 19.921875 
L 66.609375 0 
L 56 0 
L 46.6875 18.703125 
Q 43.0625 26.03125 39.671875 28.421875 
Q 36.28125 30.8125 30.421875 30.8125 
L 19.671875 30.8125 
L 19.671875 0 
L 9.8125 0 
L 9.8125 72.90625 
L 32.078125 72.90625 
Q 44.578125 72.90625 50.734375 67.671875 
Q 56.890625 62.453125 56.890625 51.90625 
Q 56.890625 45.015625 53.6875 40.46875 
Q 50.484375 35.9375 44.390625 34.1875 
z
M 19.671875 64.796875 
L 19.671875 38.921875 
L 32.078125 38.921875 
Q 39.203125 38.921875 42.84375 42.21875 
Q 46.484375 45.515625 46.484375 51.90625 
Q 46.484375 58.296875 42.84375 61.546875 
Q 39.203125 64.796875 32.078125 64.796875 
z
" id="DejaVuSans-82"/>
      </defs>
      <use xlink:href="#DejaVuSans-82"/>
      <use x="64.982422" xlink:href="#DejaVuSans-101"/>
      <use x="126.505859" xlink:href="#DejaVuSans-97"/>
      <use x="187.785156" xlink:href="#DejaVuSans-99"/>
      <use x="242.765625" xlink:href="#DejaVuSans-104"/>
      <use x="306.144531" xlink:href="#DejaVuSans-101"/>
      <use x="367.667969" xlink:href="#DejaVuSans-100"/>
      <use x="431.144531" xlink:href="#DejaVuSans-32"/>
      <use x="462.931641" xlink:href="#DejaVuSans-114"/>
      <use x="501.794922" xlink:href="#DejaVuSans-101"/>
      <use x="563.318359" xlink:href="#DejaVuSans-103"/>
      <use x="626.794922" xlink:href="#DejaVuSans-105"/>
      <use x="654.578125" xlink:href="#DejaVuSans-111"/>
      <use x="715.759766" xlink:href="#DejaVuSans-110"/>
      <use x="779.138672" xlink:href="#DejaVuSans-32"/>
      <use x="810.925781" xlink:href="#DejaVuSans-99"/>
      <use x="865.90625" xlink:href="#DejaVuSans-111"/>
      <use x="927.087891" xlink:href="#DejaVuSans-118"/>
      <use x="986.267578" xlink:href="#DejaVuSans-101"/>
      <use x="1047.791016" xlink:href="#DejaVuSans-114"/>
      <use x="1088.904297" xlink:href="#DejaVuSans-97"/>
      <use x="1150.183594" xlink:href="#DejaVuSans-103"/>
      <use x="1213.660156" xlink:href="#DejaVuSans-101"/>
     </g>
    </g>
   </g>
   <g id="line2d_16">
    <path clip-path="url(#p2a26d20cd8)" d="M 66.805625 176.064664 
L 66.805625 79.647976 
" style="fill:none;stroke:#3d3d3d;stroke-linecap:square;stroke-width:1.5;"/>
   </g>
   <g id="line2d_17">
    <path clip-path="url(#p2a26d20cd8)" d="M 66.805625 161.602161 
L 66.805625 83.504643 
" style="fill:none;stroke:#3d3d3d;stroke-linecap:square;stroke-width:4.5;"/>
   </g>
   <g id="line2d_18">
    <path clip-path="url(#p2a26d20cd8)" d="M 106.485625 160.637994 
L 106.485625 149.067991 
" style="fill:none;stroke:#3d3d3d;stroke-linecap:square;stroke-width:1.5;"/>
   </g>
   <g id="line2d_19">
    <path clip-path="url(#p2a26d20cd8)" d="M 106.485625 157.745493 
L 106.485625 151.960492 
" style="fill:none;stroke:#3d3d3d;stroke-linecap:square;stroke-width:4.5;"/>
   </g>
   <g id="line2d_20">
    <path clip-path="url(#p2a26d20cd8)" d="M 146.165625 176.064664 
L 146.165625 149.067991 
" style="fill:none;stroke:#3d3d3d;stroke-linecap:square;stroke-width:1.5;"/>
   </g>
   <g id="line2d_21">
    <path clip-path="url(#p2a26d20cd8)" d="M 146.165625 166.422995 
L 146.165625 152.924659 
" style="fill:none;stroke:#3d3d3d;stroke-linecap:square;stroke-width:4.5;"/>
   </g>
   <g id="line2d_22">
    <path clip-path="url(#p2a26d20cd8)" d="M 185.845625 176.064664 
L 185.845625 152.924659 
" style="fill:none;stroke:#3d3d3d;stroke-linecap:square;stroke-width:1.5;"/>
   </g>
   <g id="line2d_23">
    <path clip-path="url(#p2a26d20cd8)" d="M 185.845625 169.315496 
L 185.845625 156.781326 
" style="fill:none;stroke:#3d3d3d;stroke-linecap:square;stroke-width:4.5;"/>
   </g>
   <g id="line2d_24">
    <path clip-path="url(#p2a26d20cd8)" d="M 225.525625 176.064664 
L 225.525625 160.637994 
" style="fill:none;stroke:#3d3d3d;stroke-linecap:square;stroke-width:1.5;"/>
   </g>
   <g id="line2d_25">
    <path clip-path="url(#p2a26d20cd8)" d="M 225.525625 167.387162 
L 225.525625 160.637994 
" style="fill:none;stroke:#3d3d3d;stroke-linecap:square;stroke-width:4.5;"/>
   </g>
   <g id="line2d_26">
    <path clip-path="url(#p2a26d20cd8)" d="M 265.205625 168.351329 
L 265.205625 156.781326 
" style="fill:none;stroke:#3d3d3d;stroke-linecap:square;stroke-width:1.5;"/>
   </g>
   <g id="line2d_27">
    <path clip-path="url(#p2a26d20cd8)" d="M 265.205625 161.602161 
L 265.205625 140.390489 
" style="fill:none;stroke:#3d3d3d;stroke-linecap:square;stroke-width:4.5;"/>
   </g>
   <g id="line2d_28">
    <path clip-path="url(#p2a26d20cd8)" d="M 304.885625 176.064664 
L 304.885625 156.781326 
" style="fill:none;stroke:#3d3d3d;stroke-linecap:square;stroke-width:1.5;"/>
   </g>
   <g id="line2d_29">
    <path clip-path="url(#p2a26d20cd8)" d="M 304.885625 164.494661 
L 304.885625 139.426322 
" style="fill:none;stroke:#3d3d3d;stroke-linecap:square;stroke-width:4.5;"/>
   </g>
   <g id="line2d_30">
    <path clip-path="url(#p2a26d20cd8)" d="M 344.565625 176.064664 
L 344.565625 156.781326 
" style="fill:none;stroke:#3d3d3d;stroke-linecap:square;stroke-width:1.5;"/>
   </g>
   <g id="line2d_31">
    <path clip-path="url(#p2a26d20cd8)" d="M 344.565625 176.064664 
L 344.565625 159.673827 
" style="fill:none;stroke:#3d3d3d;stroke-linecap:square;stroke-width:4.5;"/>
   </g>
   <g id="line2d_32">
    <path clip-path="url(#p2a26d20cd8)" d="M 384.245625 176.064664 
L 384.245625 156.781326 
" style="fill:none;stroke:#3d3d3d;stroke-linecap:square;stroke-width:1.5;"/>
   </g>
   <g id="line2d_33">
    <path clip-path="url(#p2a26d20cd8)" d="M 384.245625 176.064664 
L 384.245625 164.494661 
" style="fill:none;stroke:#3d3d3d;stroke-linecap:square;stroke-width:4.5;"/>
   </g>
   <g id="patch_3">
    <path d="M 46.965625 253.198015 
L 46.965625 60.364638 
" style="fill:none;stroke:#000000;stroke-linecap:square;stroke-linejoin:miter;stroke-width:0.8;"/>
   </g>
   <g id="patch_4">
    <path d="M 66.805625 288.430125 
L 384.245625 288.430125 
" style="fill:none;stroke:#000000;stroke-linecap:square;stroke-linejoin:miter;stroke-width:0.8;"/>
   </g>
   <g id="PathCollection_1">
    <defs>
     <path d="M 0 1.5 
C 0.397805 1.5 0.77937 1.341951 1.06066 1.06066 
C 1.341951 0.77937 1.5 0.397805 1.5 0 
C 1.5 -0.397805 1.341951 -0.77937 1.06066 -1.06066 
C 0.77937 -1.341951 0.397805 -1.5 0 -1.5 
C -0.397805 -1.5 -0.77937 -1.341951 -1.06066 -1.06066 
C -1.341951 -0.77937 -1.5 -0.397805 -1.5 0 
C -1.5 0.397805 -1.341951 0.77937 -1.06066 1.06066 
C -0.77937 1.341951 -0.397805 1.5 0 1.5 
z
" id="m4cbe6d0366" style="stroke:#3d3d3d;"/>
    </defs>
    <g clip-path="url(#p2a26d20cd8)">
     <use style="fill:#ffffff;stroke:#3d3d3d;" x="66.805625" xlink:href="#m4cbe6d0366" y="122.071319"/>
    </g>
   </g>
   <g id="PathCollection_2">
    <g clip-path="url(#p2a26d20cd8)">
     <use style="fill:#ffffff;stroke:#3d3d3d;" x="106.485625" xlink:href="#m4cbe6d0366" y="156.781326"/>
    </g>
   </g>
   <g id="PathCollection_3">
    <g clip-path="url(#p2a26d20cd8)">
     <use style="fill:#ffffff;stroke:#3d3d3d;" x="146.165625" xlink:href="#m4cbe6d0366" y="156.781326"/>
    </g>
   </g>
   <g id="PathCollection_4">
    <g clip-path="url(#p2a26d20cd8)">
     <use style="fill:#ffffff;stroke:#3d3d3d;" x="185.845625" xlink:href="#m4cbe6d0366" y="160.637994"/>
    </g>
   </g>
   <g id="PathCollection_5">
    <g clip-path="url(#p2a26d20cd8)">
     <use style="fill:#ffffff;stroke:#3d3d3d;" x="225.525625" xlink:href="#m4cbe6d0366" y="160.637994"/>
    </g>
   </g>
   <g id="PathCollection_6">
    <g clip-path="url(#p2a26d20cd8)">
     <use style="fill:#ffffff;stroke:#3d3d3d;" x="265.205625" xlink:href="#m4cbe6d0366" y="160.637994"/>
    </g>
   </g>
   <g id="PathCollection_7">
    <g clip-path="url(#p2a26d20cd8)">
     <use style="fill:#ffffff;stroke:#3d3d3d;" x="304.885625" xlink:href="#m4cbe6d0366" y="160.637994"/>
    </g>
   </g>
   <g id="PathCollection_8">
    <g clip-path="url(#p2a26d20cd8)">
     <use style="fill:#ffffff;stroke:#3d3d3d;" x="344.565625" xlink:href="#m4cbe6d0366" y="164.494661"/>
    </g>
   </g>
   <g id="PathCollection_9">
    <g clip-path="url(#p2a26d20cd8)">
     <use style="fill:#ffffff;stroke:#3d3d3d;" x="384.245625" xlink:href="#m4cbe6d0366" y="176.064664"/>
    </g>
   </g>
   <g id="text_18">
    <!-- zlib_zlib_uncompress_fuzzer (23h, 20 trials/fuzzer) -->
    <g transform="translate(74.337813 16.318125)scale(0.12 -0.12)">
     <defs>
      <path d="M 19.1875 8.296875 
L 53.609375 8.296875 
L 53.609375 0 
L 7.328125 0 
L 7.328125 8.296875 
Q 12.9375 14.109375 22.625 23.890625 
Q 32.328125 33.6875 34.8125 36.53125 
Q 39.546875 41.84375 41.421875 45.53125 
Q 43.3125 49.21875 43.3125 52.78125 
Q 43.3125 58.59375 39.234375 62.25 
Q 35.15625 65.921875 28.609375 65.921875 
Q 23.96875 65.921875 18.8125 64.3125 
Q 13.671875 62.703125 7.8125 59.421875 
L 7.8125 69.390625 
Q 13.765625 71.78125 18.9375 73 
Q 24.125 74.21875 28.421875 74.21875 
Q 39.75 74.21875 46.484375 68.546875 
Q 53.21875 62.890625 53.21875 53.421875 
Q 53.21875 48.921875 51.53125 44.890625 
Q 49.859375 40.875 45.40625 35.40625 
Q 44.1875 33.984375 37.640625 27.21875 
Q 31.109375 20.453125 19.1875 8.296875 
z
" id="DejaVuSans-50"/>
      <path d="M 40.578125 39.3125 
Q 47.65625 37.796875 51.625 33 
Q 55.609375 28.21875 55.609375 21.1875 
Q 55.609375 10.40625 48.1875 4.484375 
Q 40.765625 -1.421875 27.09375 -1.421875 
Q 22.515625 -1.421875 17.65625 -0.515625 
Q 12.796875 0.390625 7.625 2.203125 
L 7.625 11.71875 
Q 11.71875 9.328125 16.59375 8.109375 
Q 21.484375 6.890625 26.8125 6.890625 
Q 36.078125 6.890625 40.9375 10.546875 
Q 45.796875 14.203125 45.796875 21.1875 
Q 45.796875 27.640625 41.28125 31.265625 
Q 36.765625 34.90625 28.71875 34.90625 
L 20.21875 34.90625 
L 20.21875 43.015625 
L 29.109375 43.015625 
Q 36.375 43.015625 40.234375 45.921875 
Q 44.09375 48.828125 44.09375 54.296875 
Q 44.09375 59.90625 40.109375 62.90625 
Q 36.140625 65.921875 28.71875 65.921875 
Q 24.65625 65.921875 20.015625 65.03125 
Q 15.375 64.15625 9.8125 62.3125 
L 9.8125 71.09375 
Q 15.4375 72.65625 20.34375 73.4375 
Q 25.25 74.21875 29.59375 74.21875 
Q 40.828125 74.21875 47.359375 69.109375 
Q 53.90625 64.015625 53.90625 55.328125 
Q 53.90625 49.265625 50.4375 45.09375 
Q 46.96875 40.921875 40.578125 39.3125 
z
" id="DejaVuSans-51"/>
      <path d="M 11.71875 12.40625 
L 22.015625 12.40625 
L 22.015625 4 
L 14.015625 -11.625 
L 7.71875 -11.625 
L 11.71875 4 
z
" id="DejaVuSans-44"/>
      <path d="M 25.390625 72.90625 
L 33.6875 72.90625 
L 8.296875 -9.28125 
L 0 -9.28125 
z
" id="DejaVuSans-47"/>
     </defs>
     <use xlink:href="#DejaVuSans-122"/>
     <use x="52.490234" xlink:href="#DejaVuSans-108"/>
     <use x="80.273438" xlink:href="#DejaVuSans-105"/>
     <use x="108.056641" xlink:href="#DejaVuSans-98"/>
     <use x="171.533203" xlink:href="#DejaVuSans-95"/>
     <use x="221.533203" xlink:href="#DejaVuSans-122"/>
     <use x="274.023438" xlink:href="#DejaVuSans-108"/>
     <use x="301.806641" xlink:href="#DejaVuSans-105"/>
     <use x="329.589844" xlink:href="#DejaVuSans-98"/>
     <use x="393.066406" xlink:href="#DejaVuSans-95"/>
     <use x="443.066406" xlink:href="#DejaVuSans-117"/>
     <use x="506.445312" xlink:href="#DejaVuSans-110"/>
     <use x="569.824219" xlink:href="#DejaVuSans-99"/>
     <use x="624.804688" xlink:href="#DejaVuSans-111"/>
     <use x="685.986328" xlink:href="#DejaVuSans-109"/>
     <use x="783.398438" xlink:href="#DejaVuSans-112"/>
     <use x="846.875" xlink:href="#DejaVuSans-114"/>
     <use x="885.738281" xlink:href="#DejaVuSans-101"/>
     <use x="947.261719" xlink:href="#DejaVuSans-115"/>
     <use x="999.361328" xlink:href="#DejaVuSans-115"/>
     <use x="1051.460938" xlink:href="#DejaVuSans-95"/>
     <use x="1101.460938" xlink:href="#DejaVuSans-102"/>
     <use x="1136.666016" xlink:href="#DejaVuSans-117"/>
     <use x="1200.044922" xlink:href="#DejaVuSans-122"/>
     <use x="1252.535156" xlink:href="#DejaVuSans-122"/>
     <use x="1305.025391" xlink:href="#DejaVuSans-101"/>
     <use x="1366.548828" xlink:href="#DejaVuSans-114"/>
     <use x="1407.662109" xlink:href="#DejaVuSans-32"/>
     <use x="1439.449219" xlink:href="#DejaVuSans-40"/>
     <use x="1478.462891" xlink:href="#DejaVuSans-50"/>
     <use x="1542.085938" xlink:href="#DejaVuSans-51"/>
     <use x="1605.708984" xlink:href="#DejaVuSans-104"/>
     <use x="1669.087891" xlink:href="#DejaVuSans-44"/>
     <use x="1700.875" xlink:href="#DejaVuSans-32"/>
     <use x="1732.662109" xlink:href="#DejaVuSans-50"/>
     <use x="1796.285156" xlink:href="#DejaVuSans-48"/>
     <use x="1859.908203" xlink:href="#DejaVuSans-32"/>
     <use x="1891.695312" xlink:href="#DejaVuSans-116"/>
     <use x="1930.904297" xlink:href="#DejaVuSans-114"/>
     <use x="1972.017578" xlink:href="#DejaVuSans-105"/>
     <use x="1999.800781" xlink:href="#DejaVuSans-97"/>
     <use x="2061.080078" xlink:href="#DejaVuSans-108"/>
     <use x="2088.863281" xlink:href="#DejaVuSans-115"/>
     <use x="2140.962891" xlink:href="#DejaVuSans-47"/>
     <use x="2174.654297" xlink:href="#DejaVuSans-102"/>
     <use x="2209.859375" xlink:href="#DejaVuSans-117"/>
     <use x="2273.238281" xlink:href="#DejaVuSans-122"/>
     <use x="2325.728516" xlink:href="#DejaVuSans-122"/>
     <use x="2378.21875" xlink:href="#DejaVuSans-101"/>
     <use x="2439.742188" xlink:href="#DejaVuSans-114"/>
     <use x="2480.855469" xlink:href="#DejaVuSans-41"/>
    </g>
   </g>
  </g>
 </g>
 <defs>
  <clipPath id="p2a26d20cd8">
   <rect height="266.112" width="357.12" x="46.965625" y="22.318125"/>
  </clipPath>
 </defs>
</svg>
