<?xml version="1.0" encoding="utf-8" standalone="no"?>
<!DOCTYPE svg PUBLIC "-//W3C//DTD SVG 1.1//EN"
  "http://www.w3.org/Graphics/SVG/1.1/DTD/svg11.dtd">
<!-- Created with matplotlib (https://matplotlib.org/) -->
<svg height="375.89624pt" version="1.1" viewBox="0 0 424.010625 375.89624" width="424.010625pt" xmlns="http://www.w3.org/2000/svg" xmlns:xlink="http://www.w3.org/1999/xlink">
 <metadata>
  <rdf:RDF xmlns:cc="http://creativecommons.org/ns#" xmlns:dc="http://purl.org/dc/elements/1.1/" xmlns:rdf="http://www.w3.org/1999/02/22-rdf-syntax-ns#">
   <cc:Work>
    <dc:type rdf:resource="http://purl.org/dc/dcmitype/StillImage"/>
    <dc:date>2020-11-17T15:04:54.754458</dc:date>
    <dc:format>image/svg+xml</dc:format>
    <dc:creator>
     <cc:Agent>
      <dc:title>Matplotlib v3.3.2, https://matplotlib.org/</dc:title>
     </cc:Agent>
    </dc:creator>
   </cc:Work>
  </rdf:RDF>
 </metadata>
 <defs>
  <style type="text/css">*{stroke-linecap:butt;stroke-linejoin:round;}</style>
 </defs>
 <g id="figure_1">
  <g id="patch_1">
   <path d="M 0 375.89624 
L 424.010625 375.89624 
L 424.010625 0 
L 0 0 
z
" style="fill:#ffffff;"/>
  </g>
  <g id="axes_1">
   <g id="patch_2">
    <path d="M 59.690625 288.430125 
L 416.810625 288.430125 
L 416.810625 22.318125 
L 59.690625 22.318125 
z
" style="fill:#ffffff;"/>
   </g>
   <g id="PolyCollection_1">
    <defs>
     <path d="M 95.498534 -99.562115 
L 95.306716 -99.562115 
L 95.29203 -102.005752 
L 95.275722 -104.449388 
L 95.25772 -106.893025 
L 95.237968 -109.336661 
L 95.216428 -111.780297 
L 95.19308 -114.223934 
L 95.167925 -116.66757 
L 95.140988 -119.111206 
L 95.112321 -121.554843 
L 95.081999 -123.998479 
L 95.05012 -126.442115 
L 95.016811 -128.885752 
L 94.982217 -131.329388 
L 94.946506 -133.773025 
L 94.909861 -136.216661 
L 94.872478 -138.660297 
L 94.83456 -141.103934 
L 94.796315 -143.54757 
L 94.757947 -145.991206 
L 94.71965 -148.434843 
L 94.681608 -150.878479 
L 94.643982 -153.322115 
L 94.606913 -155.765752 
L 94.57051 -158.209388 
L 94.534857 -160.653025 
L 94.499999 -163.096661 
L 94.465952 -165.540297 
L 94.432698 -167.983934 
L 94.400186 -170.42757 
L 94.368338 -172.871206 
L 94.337055 -175.314843 
L 94.306214 -177.758479 
L 94.275684 -180.202115 
L 94.245327 -182.645752 
L 94.215007 -185.089388 
L 94.184596 -187.533025 
L 94.153982 -189.976661 
L 94.123078 -192.420297 
L 94.091823 -194.863934 
L 94.060193 -197.30757 
L 94.028199 -199.751206 
L 93.995896 -202.194843 
L 93.96338 -204.638479 
L 93.93079 -207.082115 
L 93.898306 -209.525752 
L 93.866149 -211.969388 
L 93.834573 -214.413025 
L 93.803867 -216.856661 
L 93.774343 -219.300297 
L 93.746333 -221.743934 
L 93.720182 -224.18757 
L 93.696242 -226.631206 
L 93.674864 -229.074843 
L 93.656391 -231.518479 
L 93.641149 -233.962115 
L 93.629447 -236.405752 
L 93.621564 -238.849388 
L 93.617749 -241.293025 
L 93.618212 -243.736661 
L 93.623123 -246.180297 
L 93.632608 -248.623934 
L 93.646745 -251.06757 
L 93.665566 -253.511206 
L 93.689051 -255.954843 
L 93.717132 -258.398479 
L 93.749689 -260.842115 
L 93.786558 -263.285752 
L 93.827527 -265.729388 
L 93.87234 -268.173025 
L 93.920703 -270.616661 
L 93.972286 -273.060297 
L 94.026726 -275.503934 
L 94.083636 -277.94757 
L 94.142608 -280.391206 
L 94.203219 -282.834843 
L 94.265036 -285.278479 
L 94.327624 -287.722115 
L 94.390553 -290.165752 
L 94.4534 -292.609388 
L 94.515759 -295.053025 
L 94.577245 -297.496661 
L 94.637495 -299.940297 
L 94.696179 -302.383934 
L 94.752999 -304.82757 
L 94.807693 -307.271206 
L 94.860037 -309.714843 
L 94.909846 -312.158479 
L 94.956975 -314.602115 
L 95.001318 -317.045752 
L 95.042806 -319.489388 
L 95.08141 -321.933025 
L 95.11713 -324.376661 
L 95.150001 -326.820297 
L 95.180085 -329.263934 
L 95.207467 -331.70757 
L 95.232255 -334.151206 
L 95.254572 -336.594843 
L 95.274555 -339.038479 
L 95.292353 -341.482115 
L 95.512897 -341.482115 
L 95.512897 -341.482115 
L 95.530695 -339.038479 
L 95.550678 -336.594843 
L 95.572995 -334.151206 
L 95.597783 -331.70757 
L 95.625165 -329.263934 
L 95.655249 -326.820297 
L 95.68812 -324.376661 
L 95.72384 -321.933025 
L 95.762444 -319.489388 
L 95.803932 -317.045752 
L 95.848275 -314.602115 
L 95.895404 -312.158479 
L 95.945213 -309.714843 
L 95.997557 -307.271206 
L 96.052251 -304.82757 
L 96.109071 -302.383934 
L 96.167755 -299.940297 
L 96.228005 -297.496661 
L 96.289491 -295.053025 
L 96.35185 -292.609388 
L 96.414697 -290.165752 
L 96.477626 -287.722115 
L 96.540214 -285.278479 
L 96.602031 -282.834843 
L 96.662642 -280.391206 
L 96.721614 -277.94757 
L 96.778524 -275.503934 
L 96.832964 -273.060297 
L 96.884547 -270.616661 
L 96.93291 -268.173025 
L 96.977723 -265.729388 
L 97.018692 -263.285752 
L 97.055561 -260.842115 
L 97.088118 -258.398479 
L 97.116199 -255.954843 
L 97.139684 -253.511206 
L 97.158505 -251.06757 
L 97.172642 -248.623934 
L 97.182127 -246.180297 
L 97.187038 -243.736661 
L 97.187501 -241.293025 
L 97.183686 -238.849388 
L 97.175803 -236.405752 
L 97.164101 -233.962115 
L 97.148859 -231.518479 
L 97.130386 -229.074843 
L 97.109008 -226.631206 
L 97.085068 -224.18757 
L 97.058917 -221.743934 
L 97.030907 -219.300297 
L 97.001383 -216.856661 
L 96.970677 -214.413025 
L 96.939101 -211.969388 
L 96.906944 -209.525752 
L 96.87446 -207.082115 
L 96.84187 -204.638479 
L 96.809354 -202.194843 
L 96.777051 -199.751206 
L 96.745057 -197.30757 
L 96.713427 -194.863934 
L 96.682172 -192.420297 
L 96.651268 -189.976661 
L 96.620654 -187.533025 
L 96.590243 -185.089388 
L 96.559923 -182.645752 
L 96.529566 -180.202115 
L 96.499036 -177.758479 
L 96.468195 -175.314843 
L 96.436912 -172.871206 
L 96.405064 -170.42757 
L 96.372552 -167.983934 
L 96.339298 -165.540297 
L 96.305251 -163.096661 
L 96.270393 -160.653025 
L 96.23474 -158.209388 
L 96.198337 -155.765752 
L 96.161268 -153.322115 
L 96.123642 -150.878479 
L 96.0856 -148.434843 
L 96.047303 -145.991206 
L 96.008935 -143.54757 
L 95.97069 -141.103934 
L 95.932772 -138.660297 
L 95.895389 -136.216661 
L 95.858744 -133.773025 
L 95.823033 -131.329388 
L 95.788439 -128.885752 
L 95.75513 -126.442115 
L 95.723251 -123.998479 
L 95.692929 -121.554843 
L 95.664262 -119.111206 
L 95.637325 -116.66757 
L 95.61217 -114.223934 
L 95.588822 -111.780297 
L 95.567282 -109.336661 
L 95.54753 -106.893025 
L 95.529528 -104.449388 
L 95.51322 -102.005752 
L 95.498534 -99.562115 
z
" id="m4dcaf1a579" style="stroke:#3f3f3f;stroke-width:1.5;"/>
    </defs>
    <g clip-path="url(#pd3fe300e66)">
     <use style="fill:#9fd495;stroke:#3f3f3f;stroke-width:1.5;" x="0" xlink:href="#m4dcaf1a579" y="375.89624"/>
    </g>
   </g>
   <g id="PolyCollection_2">
    <defs>
     <path d="M 167.68694 -153.171209 
L 165.96631 -153.171209 
L 165.839737 -153.434085 
L 165.699641 -153.696961 
L 165.545426 -153.959837 
L 165.376601 -154.222713 
L 165.192802 -154.485589 
L 164.993811 -154.748465 
L 164.779568 -155.011342 
L 164.550194 -155.274218 
L 164.305994 -155.537094 
L 164.047471 -155.79997 
L 163.775326 -156.062846 
L 163.490456 -156.325722 
L 163.193949 -156.588598 
L 162.887072 -156.851474 
L 162.571247 -157.114351 
L 162.248037 -157.377227 
L 161.919109 -157.640103 
L 161.586211 -157.902979 
L 161.251126 -158.165855 
L 160.915641 -158.428731 
L 160.581504 -158.691607 
L 160.250387 -158.954483 
L 159.923844 -159.21736 
L 159.603275 -159.480236 
L 159.289895 -159.743112 
L 158.984704 -160.005988 
L 158.688466 -160.268864 
L 158.40169 -160.53174 
L 158.124626 -160.794616 
L 157.857259 -161.057492 
L 157.599315 -161.320369 
L 157.350277 -161.583245 
L 157.109405 -161.846121 
L 156.875761 -162.108997 
L 156.648243 -162.371873 
L 156.425623 -162.634749 
L 156.206585 -162.897625 
L 155.989775 -163.160502 
L 155.773842 -163.423378 
L 155.557486 -163.686254 
L 155.339505 -163.94913 
L 155.118838 -164.212006 
L 154.894612 -164.474882 
L 154.666173 -164.737758 
L 154.433132 -165.000634 
L 154.195387 -165.263511 
L 153.953154 -165.526387 
L 153.706987 -165.789263 
L 153.457786 -166.052139 
L 153.206813 -166.315015 
L 152.955683 -166.577891 
L 152.70636 -166.840767 
L 152.46114 -167.103643 
L 152.222626 -167.36652 
L 151.993696 -167.629396 
L 151.777461 -167.892272 
L 151.577215 -168.155148 
L 151.396382 -168.418024 
L 151.238449 -168.6809 
L 151.106901 -168.943776 
L 151.005146 -169.206652 
L 150.93644 -169.469529 
L 150.903812 -169.732405 
L 150.909989 -169.995281 
L 150.957324 -170.258157 
L 151.047731 -170.521033 
L 151.182623 -170.783909 
L 151.362872 -171.046785 
L 151.588761 -171.309662 
L 151.859968 -171.572538 
L 152.17555 -171.835414 
L 152.533952 -172.09829 
L 152.933019 -172.361166 
L 153.370037 -172.624042 
L 153.841772 -172.886918 
L 154.344536 -173.149794 
L 154.874249 -173.412671 
L 155.426525 -173.675547 
L 155.99675 -173.938423 
L 156.580174 -174.201299 
L 157.171996 -174.464175 
L 157.767456 -174.727051 
L 158.361917 -174.989927 
L 158.950943 -175.252803 
L 159.530367 -175.51568 
L 160.096354 -175.778556 
L 160.645452 -176.041432 
L 161.174623 -176.304308 
L 161.681279 -176.567184 
L 162.163288 -176.83006 
L 162.618984 -177.092936 
L 163.047154 -177.355812 
L 163.447026 -177.618689 
L 163.818241 -177.881565 
L 164.16082 -178.144441 
L 164.475132 -178.407317 
L 164.761848 -178.670193 
L 165.021898 -178.933069 
L 165.256431 -179.195945 
L 168.396819 -179.195945 
L 168.396819 -179.195945 
L 168.631352 -178.933069 
L 168.891402 -178.670193 
L 169.178118 -178.407317 
L 169.49243 -178.144441 
L 169.835009 -177.881565 
L 170.206224 -177.618689 
L 170.606096 -177.355812 
L 171.034266 -177.092936 
L 171.489962 -176.83006 
L 171.971971 -176.567184 
L 172.478627 -176.304308 
L 173.007798 -176.041432 
L 173.556896 -175.778556 
L 174.122883 -175.51568 
L 174.702307 -175.252803 
L 175.291333 -174.989927 
L 175.885794 -174.727051 
L 176.481254 -174.464175 
L 177.073076 -174.201299 
L 177.6565 -173.938423 
L 178.226725 -173.675547 
L 178.779001 -173.412671 
L 179.308714 -173.149794 
L 179.811478 -172.886918 
L 180.283213 -172.624042 
L 180.720231 -172.361166 
L 181.119298 -172.09829 
L 181.4777 -171.835414 
L 181.793282 -171.572538 
L 182.064489 -171.309662 
L 182.290378 -171.046785 
L 182.470627 -170.783909 
L 182.605519 -170.521033 
L 182.695926 -170.258157 
L 182.743261 -169.995281 
L 182.749438 -169.732405 
L 182.71681 -169.469529 
L 182.648104 -169.206652 
L 182.546349 -168.943776 
L 182.414801 -168.6809 
L 182.256868 -168.418024 
L 182.076035 -168.155148 
L 181.875789 -167.892272 
L 181.659554 -167.629396 
L 181.430624 -167.36652 
L 181.19211 -167.103643 
L 180.94689 -166.840767 
L 180.697567 -166.577891 
L 180.446437 -166.315015 
L 180.195464 -166.052139 
L 179.946263 -165.789263 
L 179.700096 -165.526387 
L 179.457863 -165.263511 
L 179.220118 -165.000634 
L 178.987077 -164.737758 
L 178.758638 -164.474882 
L 178.534412 -164.212006 
L 178.313745 -163.94913 
L 178.095764 -163.686254 
L 177.879408 -163.423378 
L 177.663475 -163.160502 
L 177.446665 -162.897625 
L 177.227627 -162.634749 
L 177.005007 -162.371873 
L 176.777489 -162.108997 
L 176.543845 -161.846121 
L 176.302973 -161.583245 
L 176.053935 -161.320369 
L 175.795991 -161.057492 
L 175.528624 -160.794616 
L 175.25156 -160.53174 
L 174.964784 -160.268864 
L 174.668546 -160.005988 
L 174.363355 -159.743112 
L 174.049975 -159.480236 
L 173.729406 -159.21736 
L 173.402863 -158.954483 
L 173.071746 -158.691607 
L 172.737609 -158.428731 
L 172.402124 -158.165855 
L 172.067039 -157.902979 
L 171.734141 -157.640103 
L 171.405213 -157.377227 
L 171.082003 -157.114351 
L 170.766178 -156.851474 
L 170.459301 -156.588598 
L 170.162794 -156.325722 
L 169.877924 -156.062846 
L 169.605779 -155.79997 
L 169.347256 -155.537094 
L 169.103056 -155.274218 
L 168.873682 -155.011342 
L 168.659439 -154.748465 
L 168.460448 -154.485589 
L 168.276649 -154.222713 
L 168.107824 -153.959837 
L 167.953609 -153.696961 
L 167.813513 -153.434085 
L 167.68694 -153.171209 
z
" id="mc4989228ce" style="stroke:#3f3f3f;stroke-width:1.5;"/>
    </defs>
    <g clip-path="url(#pd3fe300e66)">
     <use style="fill:#c03d3e;stroke:#3f3f3f;stroke-width:1.5;" x="0" xlink:href="#mc4989228ce" y="375.89624"/>
    </g>
   </g>
   <g id="PolyCollection_3">
    <defs>
     <path d="M 239.332915 -127.840028 
L 237.168335 -127.840028 
L 236.998985 -128.106678 
L 236.809676 -128.373327 
L 236.599212 -128.639977 
L 236.366519 -128.906626 
L 236.110678 -129.173275 
L 235.830967 -129.439925 
L 235.526895 -129.706574 
L 235.198236 -129.973224 
L 234.845068 -130.239873 
L 234.467798 -130.506522 
L 234.067192 -130.773172 
L 233.64439 -131.039821 
L 233.200919 -131.306471 
L 232.738698 -131.57312 
L 232.26003 -131.839769 
L 231.767588 -132.106419 
L 231.264387 -132.373068 
L 230.753746 -132.639718 
L 230.239245 -132.906367 
L 229.724665 -133.173017 
L 229.213921 -133.439666 
L 228.710997 -133.706315 
L 228.219859 -133.972965 
L 227.744383 -134.239614 
L 227.288267 -134.506264 
L 226.854952 -134.772913 
L 226.447547 -135.039562 
L 226.068757 -135.306212 
L 225.720823 -135.572861 
L 225.405473 -135.839511 
L 225.123881 -136.10616 
L 224.87665 -136.372809 
L 224.663799 -136.639459 
L 224.484777 -136.906108 
L 224.338487 -137.172758 
L 224.223325 -137.439407 
L 224.137235 -137.706057 
L 224.077782 -137.972706 
L 224.042225 -138.239355 
L 224.027607 -138.506005 
L 224.030848 -138.772654 
L 224.048839 -139.039304 
L 224.078536 -139.305953 
L 224.117055 -139.572602 
L 224.161752 -139.839252 
L 224.210302 -140.105901 
L 224.260761 -140.372551 
L 224.311618 -140.6392 
L 224.361833 -140.905849 
L 224.410853 -141.172499 
L 224.458623 -141.439148 
L 224.505568 -141.705798 
L 224.552574 -141.972447 
L 224.600942 -142.239097 
L 224.652338 -142.505746 
L 224.708732 -142.772395 
L 224.772322 -143.039045 
L 224.845465 -143.305694 
L 224.930589 -143.572344 
L 225.030117 -143.838993 
L 225.146387 -144.105642 
L 225.281574 -144.372292 
L 225.437625 -144.638941 
L 225.616196 -144.905591 
L 225.818598 -145.17224 
L 226.045759 -145.438889 
L 226.298191 -145.705539 
L 226.575972 -145.972188 
L 226.878741 -146.238838 
L 227.205701 -146.505487 
L 227.555637 -146.772137 
L 227.92694 -147.038786 
L 228.317646 -147.305435 
L 228.725474 -147.572085 
L 229.147881 -147.838734 
L 229.58211 -148.105384 
L 230.025255 -148.372033 
L 230.47431 -148.638682 
L 230.926236 -148.905332 
L 231.378014 -149.171981 
L 231.8267 -149.438631 
L 232.269473 -149.70528 
L 232.703682 -149.971929 
L 233.126883 -150.238579 
L 233.536868 -150.505228 
L 233.931697 -150.771878 
L 234.309707 -151.038527 
L 234.669529 -151.305177 
L 235.010086 -151.571826 
L 235.330593 -151.838475 
L 235.63055 -152.105125 
L 235.909721 -152.371774 
L 236.168124 -152.638424 
L 236.406002 -152.905073 
L 236.623803 -153.171722 
L 236.822151 -153.438372 
L 237.001819 -153.705021 
L 237.163702 -153.971671 
L 237.30879 -154.23832 
L 239.19246 -154.23832 
L 239.19246 -154.23832 
L 239.337548 -153.971671 
L 239.499431 -153.705021 
L 239.679099 -153.438372 
L 239.877447 -153.171722 
L 240.095248 -152.905073 
L 240.333126 -152.638424 
L 240.591529 -152.371774 
L 240.8707 -152.105125 
L 241.170657 -151.838475 
L 241.491164 -151.571826 
L 241.831721 -151.305177 
L 242.191543 -151.038527 
L 242.569553 -150.771878 
L 242.964382 -150.505228 
L 243.374367 -150.238579 
L 243.797568 -149.971929 
L 244.231777 -149.70528 
L 244.67455 -149.438631 
L 245.123236 -149.171981 
L 245.575014 -148.905332 
L 246.02694 -148.638682 
L 246.475995 -148.372033 
L 246.91914 -148.105384 
L 247.353369 -147.838734 
L 247.775776 -147.572085 
L 248.183604 -147.305435 
L 248.57431 -147.038786 
L 248.945613 -146.772137 
L 249.295549 -146.505487 
L 249.622509 -146.238838 
L 249.925278 -145.972188 
L 250.203059 -145.705539 
L 250.455491 -145.438889 
L 250.682652 -145.17224 
L 250.885054 -144.905591 
L 251.063625 -144.638941 
L 251.219676 -144.372292 
L 251.354863 -144.105642 
L 251.471133 -143.838993 
L 251.570661 -143.572344 
L 251.655785 -143.305694 
L 251.728928 -143.039045 
L 251.792518 -142.772395 
L 251.848912 -142.505746 
L 251.900308 -142.239097 
L 251.948676 -141.972447 
L 251.995682 -141.705798 
L 252.042627 -141.439148 
L 252.090397 -141.172499 
L 252.139417 -140.905849 
L 252.189632 -140.6392 
L 252.240489 -140.372551 
L 252.290948 -140.105901 
L 252.339498 -139.839252 
L 252.384195 -139.572602 
L 252.422714 -139.305953 
L 252.452411 -139.039304 
L 252.470402 -138.772654 
L 252.473643 -138.506005 
L 252.459025 -138.239355 
L 252.423468 -137.972706 
L 252.364015 -137.706057 
L 252.277925 -137.439407 
L 252.162763 -137.172758 
L 252.016473 -136.906108 
L 251.837451 -136.639459 
L 251.6246 -136.372809 
L 251.377369 -136.10616 
L 251.095777 -135.839511 
L 250.780427 -135.572861 
L 250.432493 -135.306212 
L 250.053703 -135.039562 
L 249.646298 -134.772913 
L 249.212983 -134.506264 
L 248.756867 -134.239614 
L 248.281391 -133.972965 
L 247.790253 -133.706315 
L 247.287329 -133.439666 
L 246.776585 -133.173017 
L 246.262005 -132.906367 
L 245.747504 -132.639718 
L 245.236863 -132.373068 
L 244.733662 -132.106419 
L 244.24122 -131.839769 
L 243.762552 -131.57312 
L 243.300331 -131.306471 
L 242.85686 -131.039821 
L 242.434058 -130.773172 
L 242.033452 -130.506522 
L 241.656182 -130.239873 
L 241.303014 -129.973224 
L 240.974355 -129.706574 
L 240.670283 -129.439925 
L 240.390572 -129.173275 
L 240.134731 -128.906626 
L 239.902038 -128.639977 
L 239.691574 -128.373327 
L 239.502265 -128.106678 
L 239.332915 -127.840028 
z
" id="m818df19d2c" style="stroke:#3f3f3f;stroke-width:1.5;"/>
    </defs>
    <g clip-path="url(#pd3fe300e66)">
     <use style="fill:#e1812c;stroke:#3f3f3f;stroke-width:1.5;" x="0" xlink:href="#m818df19d2c" y="375.89624"/>
    </g>
   </g>
   <g id="PolyCollection_4">
    <defs>
     <path d="M 311.18767 -128.553107 
L 308.16158 -128.553107 
L 307.900885 -128.702244 
L 307.60636 -128.851381 
L 307.275705 -129.000518 
L 306.906824 -129.149656 
L 306.497889 -129.298793 
L 306.047413 -129.44793 
L 305.55431 -129.597067 
L 305.01796 -129.746205 
L 304.438264 -129.895342 
L 303.81569 -130.044479 
L 303.151305 -130.193616 
L 302.446798 -130.342754 
L 301.704482 -130.491891 
L 300.92728 -130.641028 
L 300.118698 -130.790166 
L 299.282774 -130.939303 
L 298.424012 -131.08844 
L 297.547303 -131.237577 
L 296.657827 -131.386715 
L 295.760952 -131.535852 
L 294.86212 -131.684989 
L 293.966734 -131.834126 
L 293.080044 -131.983264 
L 292.207047 -132.132401 
L 291.352383 -132.281538 
L 290.520259 -132.430676 
L 289.714385 -132.579813 
L 288.937934 -132.72895 
L 288.193515 -132.878087 
L 287.483182 -133.027225 
L 286.808456 -133.176362 
L 286.170375 -133.325499 
L 285.56955 -133.474636 
L 285.006255 -133.623774 
L 284.480507 -133.772911 
L 283.992168 -133.922048 
L 283.541032 -134.071185 
L 283.126921 -134.220323 
L 282.749761 -134.36946 
L 282.409644 -134.518597 
L 282.106876 -134.667735 
L 281.842002 -134.816872 
L 281.615804 -134.966009 
L 281.429287 -135.115146 
L 281.283633 -135.264284 
L 281.180144 -135.413421 
L 281.120171 -135.562558 
L 281.105025 -135.711695 
L 281.135897 -135.860833 
L 281.213768 -136.00997 
L 281.339331 -136.159107 
L 281.512921 -136.308244 
L 281.734468 -136.457382 
L 282.003462 -136.606519 
L 282.318941 -136.755656 
L 282.679504 -136.904794 
L 283.083336 -137.053931 
L 283.528266 -137.203068 
L 284.011822 -137.352205 
L 284.531312 -137.501343 
L 285.083901 -137.65048 
L 285.666695 -137.799617 
L 286.276814 -137.948754 
L 286.911461 -138.097892 
L 287.567975 -138.247029 
L 288.243869 -138.396166 
L 288.936849 -138.545304 
L 289.644818 -138.694441 
L 290.365859 -138.843578 
L 291.098204 -138.992715 
L 291.840196 -139.141853 
L 292.590232 -139.29099 
L 293.346714 -139.440127 
L 294.107993 -139.589264 
L 294.872321 -139.738402 
L 295.63781 -139.887539 
L 296.402403 -140.036676 
L 297.163862 -140.185813 
L 297.919766 -140.334951 
L 298.667529 -140.484088 
L 299.404431 -140.633225 
L 300.127658 -140.782363 
L 300.834362 -140.9315 
L 301.521716 -141.080637 
L 302.186985 -141.229774 
L 302.827587 -141.378912 
L 303.441158 -141.528049 
L 304.02561 -141.677186 
L 304.579176 -141.826323 
L 305.10045 -141.975461 
L 305.588414 -142.124598 
L 306.042447 -142.273735 
L 306.462332 -142.422872 
L 306.848238 -142.57201 
L 307.200704 -142.721147 
L 307.520606 -142.870284 
L 307.809116 -143.019422 
L 308.067661 -143.168559 
L 308.297877 -143.317696 
L 311.051373 -143.317696 
L 311.051373 -143.317696 
L 311.281589 -143.168559 
L 311.540134 -143.019422 
L 311.828644 -142.870284 
L 312.148546 -142.721147 
L 312.501012 -142.57201 
L 312.886918 -142.422872 
L 313.306803 -142.273735 
L 313.760836 -142.124598 
L 314.2488 -141.975461 
L 314.770074 -141.826323 
L 315.32364 -141.677186 
L 315.908092 -141.528049 
L 316.521663 -141.378912 
L 317.162265 -141.229774 
L 317.827534 -141.080637 
L 318.514888 -140.9315 
L 319.221592 -140.782363 
L 319.944819 -140.633225 
L 320.681721 -140.484088 
L 321.429484 -140.334951 
L 322.185388 -140.185813 
L 322.946847 -140.036676 
L 323.71144 -139.887539 
L 324.476929 -139.738402 
L 325.241257 -139.589264 
L 326.002536 -139.440127 
L 326.759018 -139.29099 
L 327.509054 -139.141853 
L 328.251046 -138.992715 
L 328.983391 -138.843578 
L 329.704432 -138.694441 
L 330.412401 -138.545304 
L 331.105381 -138.396166 
L 331.781275 -138.247029 
L 332.437789 -138.097892 
L 333.072436 -137.948754 
L 333.682555 -137.799617 
L 334.265349 -137.65048 
L 334.817938 -137.501343 
L 335.337428 -137.352205 
L 335.820984 -137.203068 
L 336.265914 -137.053931 
L 336.669746 -136.904794 
L 337.030309 -136.755656 
L 337.345788 -136.606519 
L 337.614782 -136.457382 
L 337.836329 -136.308244 
L 338.009919 -136.159107 
L 338.135482 -136.00997 
L 338.213353 -135.860833 
L 338.244225 -135.711695 
L 338.229079 -135.562558 
L 338.169106 -135.413421 
L 338.065617 -135.264284 
L 337.919963 -135.115146 
L 337.733446 -134.966009 
L 337.507248 -134.816872 
L 337.242374 -134.667735 
L 336.939606 -134.518597 
L 336.599489 -134.36946 
L 336.222329 -134.220323 
L 335.808218 -134.071185 
L 335.357082 -133.922048 
L 334.868743 -133.772911 
L 334.342995 -133.623774 
L 333.7797 -133.474636 
L 333.178875 -133.325499 
L 332.540794 -133.176362 
L 331.866068 -133.027225 
L 331.155735 -132.878087 
L 330.411316 -132.72895 
L 329.634865 -132.579813 
L 328.828991 -132.430676 
L 327.996867 -132.281538 
L 327.142203 -132.132401 
L 326.269206 -131.983264 
L 325.382516 -131.834126 
L 324.48713 -131.684989 
L 323.588298 -131.535852 
L 322.691423 -131.386715 
L 321.801947 -131.237577 
L 320.925238 -131.08844 
L 320.066476 -130.939303 
L 319.230552 -130.790166 
L 318.42197 -130.641028 
L 317.644768 -130.491891 
L 316.902452 -130.342754 
L 316.197945 -130.193616 
L 315.53356 -130.044479 
L 314.910986 -129.895342 
L 314.33129 -129.746205 
L 313.79494 -129.597067 
L 313.301837 -129.44793 
L 312.851361 -129.298793 
L 312.442426 -129.149656 
L 312.073545 -129.000518 
L 311.74289 -128.851381 
L 311.448365 -128.702244 
L 311.18767 -128.553107 
z
" id="mc7c4a86712" style="stroke:#3f3f3f;stroke-width:1.5;"/>
    </defs>
    <g clip-path="url(#pd3fe300e66)">
     <use style="fill:#c7c7c7;stroke:#3f3f3f;stroke-width:1.5;" x="0" xlink:href="#mc7c4a86712" y="375.89624"/>
    </g>
   </g>
   <g id="PolyCollection_5">
    <defs>
     <path d="M 381.795174 -118.036619 
L 380.402076 -118.036619 
L 380.283558 -118.333769 
L 380.150498 -118.630919 
L 380.002168 -118.928069 
L 379.837985 -119.225219 
L 379.657538 -119.522369 
L 379.460608 -119.819519 
L 379.247193 -120.116669 
L 379.017511 -120.413819 
L 378.772012 -120.710969 
L 378.511369 -121.008119 
L 378.236464 -121.305269 
L 377.948363 -121.602419 
L 377.648281 -121.899569 
L 377.337539 -122.196719 
L 377.017513 -122.493869 
L 376.689577 -122.791019 
L 376.355043 -123.088169 
L 376.015104 -123.385319 
L 375.670776 -123.682469 
L 375.322852 -123.979619 
L 374.971866 -124.276769 
L 374.618065 -124.573919 
L 374.261408 -124.871069 
L 373.901575 -125.168219 
L 373.538002 -125.465369 
L 373.169928 -125.762519 
L 372.796469 -126.059669 
L 372.4167 -126.356819 
L 372.029759 -126.653969 
L 371.634947 -126.951119 
L 371.231844 -127.248269 
L 370.820406 -127.545419 
L 370.401071 -127.842569 
L 369.974832 -128.139719 
L 369.543303 -128.436869 
L 369.10875 -128.734019 
L 368.674098 -129.031168 
L 368.242907 -129.328318 
L 367.81931 -129.625468 
L 367.407929 -129.922618 
L 367.013756 -130.219768 
L 366.642013 -130.516918 
L 366.297994 -130.814068 
L 365.986897 -131.111218 
L 365.713646 -131.408368 
L 365.482729 -131.705518 
L 365.298033 -132.002668 
L 365.162714 -132.299818 
L 365.079081 -132.596968 
L 365.048518 -132.894118 
L 365.071437 -133.191268 
L 365.147271 -133.488418 
L 365.274504 -133.785568 
L 365.450734 -134.082718 
L 365.672768 -134.379868 
L 365.93675 -134.677018 
L 366.238301 -134.974168 
L 366.572681 -135.271318 
L 366.934953 -135.568468 
L 367.320146 -135.865618 
L 367.72341 -136.162768 
L 368.140158 -136.459918 
L 368.56618 -136.757068 
L 368.997743 -137.054218 
L 369.431649 -137.351368 
L 369.865277 -137.648518 
L 370.296583 -137.945668 
L 370.724086 -138.242818 
L 371.146816 -138.539968 
L 371.56425 -138.837118 
L 371.976234 -139.134268 
L 372.382887 -139.431418 
L 372.784509 -139.728568 
L 373.181488 -140.025718 
L 373.574208 -140.322868 
L 373.962978 -140.620018 
L 374.347962 -140.917168 
L 374.729137 -141.214318 
L 375.10626 -141.511468 
L 375.478859 -141.808618 
L 375.846236 -142.105768 
L 376.207485 -142.402918 
L 376.561529 -142.700068 
L 376.907159 -142.997218 
L 377.243085 -143.294368 
L 377.567987 -143.591518 
L 377.880571 -143.888668 
L 378.179616 -144.185818 
L 378.46402 -144.482968 
L 378.732841 -144.780118 
L 378.985324 -145.077268 
L 379.220922 -145.374418 
L 379.43931 -145.671568 
L 379.640387 -145.968717 
L 379.824266 -146.265867 
L 379.991267 -146.563017 
L 380.141894 -146.860167 
L 380.276812 -147.157317 
L 380.396822 -147.454467 
L 381.800428 -147.454467 
L 381.800428 -147.454467 
L 381.920438 -147.157317 
L 382.055356 -146.860167 
L 382.205983 -146.563017 
L 382.372984 -146.265867 
L 382.556863 -145.968717 
L 382.75794 -145.671568 
L 382.976328 -145.374418 
L 383.211926 -145.077268 
L 383.464409 -144.780118 
L 383.73323 -144.482968 
L 384.017634 -144.185818 
L 384.316679 -143.888668 
L 384.629263 -143.591518 
L 384.954165 -143.294368 
L 385.290091 -142.997218 
L 385.635721 -142.700068 
L 385.989765 -142.402918 
L 386.351014 -142.105768 
L 386.718391 -141.808618 
L 387.09099 -141.511468 
L 387.468113 -141.214318 
L 387.849288 -140.917168 
L 388.234272 -140.620018 
L 388.623042 -140.322868 
L 389.015762 -140.025718 
L 389.412741 -139.728568 
L 389.814363 -139.431418 
L 390.221016 -139.134268 
L 390.633 -138.837118 
L 391.050434 -138.539968 
L 391.473164 -138.242818 
L 391.900667 -137.945668 
L 392.331973 -137.648518 
L 392.765601 -137.351368 
L 393.199507 -137.054218 
L 393.63107 -136.757068 
L 394.057092 -136.459918 
L 394.47384 -136.162768 
L 394.877104 -135.865618 
L 395.262297 -135.568468 
L 395.624569 -135.271318 
L 395.958949 -134.974168 
L 396.2605 -134.677018 
L 396.524482 -134.379868 
L 396.746516 -134.082718 
L 396.922746 -133.785568 
L 397.049979 -133.488418 
L 397.125813 -133.191268 
L 397.148732 -132.894118 
L 397.118169 -132.596968 
L 397.034536 -132.299818 
L 396.899217 -132.002668 
L 396.714521 -131.705518 
L 396.483604 -131.408368 
L 396.210353 -131.111218 
L 395.899256 -130.814068 
L 395.555237 -130.516918 
L 395.183494 -130.219768 
L 394.789321 -129.922618 
L 394.37794 -129.625468 
L 393.954343 -129.328318 
L 393.523152 -129.031168 
L 393.0885 -128.734019 
L 392.653947 -128.436869 
L 392.222418 -128.139719 
L 391.796179 -127.842569 
L 391.376844 -127.545419 
L 390.965406 -127.248269 
L 390.562303 -126.951119 
L 390.167491 -126.653969 
L 389.78055 -126.356819 
L 389.400781 -126.059669 
L 389.027322 -125.762519 
L 388.659248 -125.465369 
L 388.295675 -125.168219 
L 387.935842 -124.871069 
L 387.579185 -124.573919 
L 387.225384 -124.276769 
L 386.874398 -123.979619 
L 386.526474 -123.682469 
L 386.182146 -123.385319 
L 385.842207 -123.088169 
L 385.507673 -122.791019 
L 385.179737 -122.493869 
L 384.859711 -122.196719 
L 384.548969 -121.899569 
L 384.248887 -121.602419 
L 383.960786 -121.305269 
L 383.685881 -121.008119 
L 383.425238 -120.710969 
L 383.179739 -120.413819 
L 382.950057 -120.116669 
L 382.736642 -119.819519 
L 382.539712 -119.522369 
L 382.359265 -119.225219 
L 382.195082 -118.928069 
L 382.046752 -118.630919 
L 381.913692 -118.333769 
L 381.795174 -118.036619 
z
" id="m08c2685caa" style="stroke:#3f3f3f;stroke-width:1.5;"/>
    </defs>
    <g clip-path="url(#pd3fe300e66)">
     <use style="fill:#3274a1;stroke:#3f3f3f;stroke-width:1.5;" x="0" xlink:href="#m08c2685caa" y="375.89624"/>
    </g>
   </g>
   <g id="matplotlib.axis_1">
    <g id="xtick_1">
     <g id="line2d_1">
      <defs>
       <path d="M 0 0 
L 0 3.5 
" id="m8f5a95f0aa" style="stroke:#000000;stroke-width:0.8;"/>
      </defs>
      <g>
       <use style="stroke:#000000;stroke-width:0.8;" x="95.402625" xlink:href="#m8f5a95f0aa" y="288.430125"/>
      </g>
     </g>
     <g id="text_1">
      <!-- aflplusplus -->
      <g transform="translate(47.793618 328.897284)rotate(-30)scale(0.1 -0.1)">
       <defs>
        <path d="M 34.28125 27.484375 
Q 23.390625 27.484375 19.1875 25 
Q 14.984375 22.515625 14.984375 16.5 
Q 14.984375 11.71875 18.140625 8.90625 
Q 21.296875 6.109375 26.703125 6.109375 
Q 34.1875 6.109375 38.703125 11.40625 
Q 43.21875 16.703125 43.21875 25.484375 
L 43.21875 27.484375 
z
M 52.203125 31.203125 
L 52.203125 0 
L 43.21875 0 
L 43.21875 8.296875 
Q 40.140625 3.328125 35.546875 0.953125 
Q 30.953125 -1.421875 24.3125 -1.421875 
Q 15.921875 -1.421875 10.953125 3.296875 
Q 6 8.015625 6 15.921875 
Q 6 25.140625 12.171875 29.828125 
Q 18.359375 34.515625 30.609375 34.515625 
L 43.21875 34.515625 
L 43.21875 35.40625 
Q 43.21875 41.609375 39.140625 45 
Q 35.0625 48.390625 27.6875 48.390625 
Q 23 48.390625 18.546875 47.265625 
Q 14.109375 46.140625 10.015625 43.890625 
L 10.015625 52.203125 
Q 14.9375 54.109375 19.578125 55.046875 
Q 24.21875 56 28.609375 56 
Q 40.484375 56 46.34375 49.84375 
Q 52.203125 43.703125 52.203125 31.203125 
z
" id="DejaVuSans-97"/>
        <path d="M 37.109375 75.984375 
L 37.109375 68.5 
L 28.515625 68.5 
Q 23.6875 68.5 21.796875 66.546875 
Q 19.921875 64.59375 19.921875 59.515625 
L 19.921875 54.6875 
L 34.71875 54.6875 
L 34.71875 47.703125 
L 19.921875 47.703125 
L 19.921875 0 
L 10.890625 0 
L 10.890625 47.703125 
L 2.296875 47.703125 
L 2.296875 54.6875 
L 10.890625 54.6875 
L 10.890625 58.5 
Q 10.890625 67.625 15.140625 71.796875 
Q 19.390625 75.984375 28.609375 75.984375 
z
" id="DejaVuSans-102"/>
        <path d="M 9.421875 75.984375 
L 18.40625 75.984375 
L 18.40625 0 
L 9.421875 0 
z
" id="DejaVuSans-108"/>
        <path d="M 18.109375 8.203125 
L 18.109375 -20.796875 
L 9.078125 -20.796875 
L 9.078125 54.6875 
L 18.109375 54.6875 
L 18.109375 46.390625 
Q 20.953125 51.265625 25.265625 53.625 
Q 29.59375 56 35.59375 56 
Q 45.5625 56 51.78125 48.09375 
Q 58.015625 40.1875 58.015625 27.296875 
Q 58.015625 14.40625 51.78125 6.484375 
Q 45.5625 -1.421875 35.59375 -1.421875 
Q 29.59375 -1.421875 25.265625 0.953125 
Q 20.953125 3.328125 18.109375 8.203125 
z
M 48.6875 27.296875 
Q 48.6875 37.203125 44.609375 42.84375 
Q 40.53125 48.484375 33.40625 48.484375 
Q 26.265625 48.484375 22.1875 42.84375 
Q 18.109375 37.203125 18.109375 27.296875 
Q 18.109375 17.390625 22.1875 11.75 
Q 26.265625 6.109375 33.40625 6.109375 
Q 40.53125 6.109375 44.609375 11.75 
Q 48.6875 17.390625 48.6875 27.296875 
z
" id="DejaVuSans-112"/>
        <path d="M 8.5 21.578125 
L 8.5 54.6875 
L 17.484375 54.6875 
L 17.484375 21.921875 
Q 17.484375 14.15625 20.5 10.265625 
Q 23.53125 6.390625 29.59375 6.390625 
Q 36.859375 6.390625 41.078125 11.03125 
Q 45.3125 15.671875 45.3125 23.6875 
L 45.3125 54.6875 
L 54.296875 54.6875 
L 54.296875 0 
L 45.3125 0 
L 45.3125 8.40625 
Q 42.046875 3.421875 37.71875 1 
Q 33.40625 -1.421875 27.6875 -1.421875 
Q 18.265625 -1.421875 13.375 4.4375 
Q 8.5 10.296875 8.5 21.578125 
z
M 31.109375 56 
z
" id="DejaVuSans-117"/>
        <path d="M 44.28125 53.078125 
L 44.28125 44.578125 
Q 40.484375 46.53125 36.375 47.5 
Q 32.28125 48.484375 27.875 48.484375 
Q 21.1875 48.484375 17.84375 46.4375 
Q 14.5 44.390625 14.5 40.28125 
Q 14.5 37.15625 16.890625 35.375 
Q 19.28125 33.59375 26.515625 31.984375 
L 29.59375 31.296875 
Q 39.15625 29.25 43.1875 25.515625 
Q 47.21875 21.78125 47.21875 15.09375 
Q 47.21875 7.46875 41.1875 3.015625 
Q 35.15625 -1.421875 24.609375 -1.421875 
Q 20.21875 -1.421875 15.453125 -0.5625 
Q 10.6875 0.296875 5.421875 2 
L 5.421875 11.28125 
Q 10.40625 8.6875 15.234375 7.390625 
Q 20.0625 6.109375 24.8125 6.109375 
Q 31.15625 6.109375 34.5625 8.28125 
Q 37.984375 10.453125 37.984375 14.40625 
Q 37.984375 18.0625 35.515625 20.015625 
Q 33.0625 21.96875 24.703125 23.78125 
L 21.578125 24.515625 
Q 13.234375 26.265625 9.515625 29.90625 
Q 5.8125 33.546875 5.8125 39.890625 
Q 5.8125 47.609375 11.28125 51.796875 
Q 16.75 56 26.8125 56 
Q 31.78125 56 36.171875 55.265625 
Q 40.578125 54.546875 44.28125 53.078125 
z
" id="DejaVuSans-115"/>
       </defs>
       <use xlink:href="#DejaVuSans-97"/>
       <use x="61.279297" xlink:href="#DejaVuSans-102"/>
       <use x="96.484375" xlink:href="#DejaVuSans-108"/>
       <use x="124.267578" xlink:href="#DejaVuSans-112"/>
       <use x="187.744141" xlink:href="#DejaVuSans-108"/>
       <use x="215.527344" xlink:href="#DejaVuSans-117"/>
       <use x="278.90625" xlink:href="#DejaVuSans-115"/>
       <use x="331.005859" xlink:href="#DejaVuSans-112"/>
       <use x="394.482422" xlink:href="#DejaVuSans-108"/>
       <use x="422.265625" xlink:href="#DejaVuSans-117"/>
       <use x="485.644531" xlink:href="#DejaVuSans-115"/>
      </g>
     </g>
    </g>
    <g id="xtick_2">
     <g id="line2d_2">
      <g>
       <use style="stroke:#000000;stroke-width:0.8;" x="166.826625" xlink:href="#m8f5a95f0aa" y="288.430125"/>
      </g>
     </g>
     <g id="text_2">
      <!-- aflplusplus_hier -->
      <g transform="translate(97.965127 341.087127)rotate(-30)scale(0.1 -0.1)">
       <defs>
        <path d="M 50.984375 -16.609375 
L 50.984375 -23.578125 
L -0.984375 -23.578125 
L -0.984375 -16.609375 
z
" id="DejaVuSans-95"/>
        <path d="M 54.890625 33.015625 
L 54.890625 0 
L 45.90625 0 
L 45.90625 32.71875 
Q 45.90625 40.484375 42.875 44.328125 
Q 39.84375 48.1875 33.796875 48.1875 
Q 26.515625 48.1875 22.3125 43.546875 
Q 18.109375 38.921875 18.109375 30.90625 
L 18.109375 0 
L 9.078125 0 
L 9.078125 75.984375 
L 18.109375 75.984375 
L 18.109375 46.1875 
Q 21.34375 51.125 25.703125 53.5625 
Q 30.078125 56 35.796875 56 
Q 45.21875 56 50.046875 50.171875 
Q 54.890625 44.34375 54.890625 33.015625 
z
" id="DejaVuSans-104"/>
        <path d="M 9.421875 54.6875 
L 18.40625 54.6875 
L 18.40625 0 
L 9.421875 0 
z
M 9.421875 75.984375 
L 18.40625 75.984375 
L 18.40625 64.59375 
L 9.421875 64.59375 
z
" id="DejaVuSans-105"/>
        <path d="M 56.203125 29.59375 
L 56.203125 25.203125 
L 14.890625 25.203125 
Q 15.484375 15.921875 20.484375 11.0625 
Q 25.484375 6.203125 34.421875 6.203125 
Q 39.59375 6.203125 44.453125 7.46875 
Q 49.3125 8.734375 54.109375 11.28125 
L 54.109375 2.78125 
Q 49.265625 0.734375 44.1875 -0.34375 
Q 39.109375 -1.421875 33.890625 -1.421875 
Q 20.796875 -1.421875 13.15625 6.1875 
Q 5.515625 13.8125 5.515625 26.8125 
Q 5.515625 40.234375 12.765625 48.109375 
Q 20.015625 56 32.328125 56 
Q 43.359375 56 49.78125 48.890625 
Q 56.203125 41.796875 56.203125 29.59375 
z
M 47.21875 32.234375 
Q 47.125 39.59375 43.09375 43.984375 
Q 39.0625 48.390625 32.421875 48.390625 
Q 24.90625 48.390625 20.390625 44.140625 
Q 15.875 39.890625 15.1875 32.171875 
z
" id="DejaVuSans-101"/>
        <path d="M 41.109375 46.296875 
Q 39.59375 47.171875 37.8125 47.578125 
Q 36.03125 48 33.890625 48 
Q 26.265625 48 22.1875 43.046875 
Q 18.109375 38.09375 18.109375 28.8125 
L 18.109375 0 
L 9.078125 0 
L 9.078125 54.6875 
L 18.109375 54.6875 
L 18.109375 46.1875 
Q 20.953125 51.171875 25.484375 53.578125 
Q 30.03125 56 36.53125 56 
Q 37.453125 56 38.578125 55.875 
Q 39.703125 55.765625 41.0625 55.515625 
z
" id="DejaVuSans-114"/>
       </defs>
       <use xlink:href="#DejaVuSans-97"/>
       <use x="61.279297" xlink:href="#DejaVuSans-102"/>
       <use x="96.484375" xlink:href="#DejaVuSans-108"/>
       <use x="124.267578" xlink:href="#DejaVuSans-112"/>
       <use x="187.744141" xlink:href="#DejaVuSans-108"/>
       <use x="215.527344" xlink:href="#DejaVuSans-117"/>
       <use x="278.90625" xlink:href="#DejaVuSans-115"/>
       <use x="331.005859" xlink:href="#DejaVuSans-112"/>
       <use x="394.482422" xlink:href="#DejaVuSans-108"/>
       <use x="422.265625" xlink:href="#DejaVuSans-117"/>
       <use x="485.644531" xlink:href="#DejaVuSans-115"/>
       <use x="537.744141" xlink:href="#DejaVuSans-95"/>
       <use x="587.744141" xlink:href="#DejaVuSans-104"/>
       <use x="651.123047" xlink:href="#DejaVuSans-105"/>
       <use x="678.90625" xlink:href="#DejaVuSans-101"/>
       <use x="740.429688" xlink:href="#DejaVuSans-114"/>
      </g>
     </g>
    </g>
    <g id="xtick_3">
     <g id="line2d_3">
      <g>
       <use style="stroke:#000000;stroke-width:0.8;" x="238.250625" xlink:href="#m8f5a95f0aa" y="288.430125"/>
      </g>
     </g>
     <g id="text_3">
      <!-- aflplusplus_hier_fast -->
      <g transform="translate(148.796667 352.97619)rotate(-30)scale(0.1 -0.1)">
       <defs>
        <path d="M 18.3125 70.21875 
L 18.3125 54.6875 
L 36.8125 54.6875 
L 36.8125 47.703125 
L 18.3125 47.703125 
L 18.3125 18.015625 
Q 18.3125 11.328125 20.140625 9.421875 
Q 21.96875 7.515625 27.59375 7.515625 
L 36.8125 7.515625 
L 36.8125 0 
L 27.59375 0 
Q 17.1875 0 13.234375 3.875 
Q 9.28125 7.765625 9.28125 18.015625 
L 9.28125 47.703125 
L 2.6875 47.703125 
L 2.6875 54.6875 
L 9.28125 54.6875 
L 9.28125 70.21875 
z
" id="DejaVuSans-116"/>
       </defs>
       <use xlink:href="#DejaVuSans-97"/>
       <use x="61.279297" xlink:href="#DejaVuSans-102"/>
       <use x="96.484375" xlink:href="#DejaVuSans-108"/>
       <use x="124.267578" xlink:href="#DejaVuSans-112"/>
       <use x="187.744141" xlink:href="#DejaVuSans-108"/>
       <use x="215.527344" xlink:href="#DejaVuSans-117"/>
       <use x="278.90625" xlink:href="#DejaVuSans-115"/>
       <use x="331.005859" xlink:href="#DejaVuSans-112"/>
       <use x="394.482422" xlink:href="#DejaVuSans-108"/>
       <use x="422.265625" xlink:href="#DejaVuSans-117"/>
       <use x="485.644531" xlink:href="#DejaVuSans-115"/>
       <use x="537.744141" xlink:href="#DejaVuSans-95"/>
       <use x="587.744141" xlink:href="#DejaVuSans-104"/>
       <use x="651.123047" xlink:href="#DejaVuSans-105"/>
       <use x="678.90625" xlink:href="#DejaVuSans-101"/>
       <use x="740.429688" xlink:href="#DejaVuSans-114"/>
       <use x="781.542969" xlink:href="#DejaVuSans-95"/>
       <use x="831.542969" xlink:href="#DejaVuSans-102"/>
       <use x="866.748047" xlink:href="#DejaVuSans-97"/>
       <use x="928.027344" xlink:href="#DejaVuSans-115"/>
       <use x="980.126953" xlink:href="#DejaVuSans-116"/>
      </g>
     </g>
    </g>
    <g id="xtick_4">
     <g id="line2d_4">
      <g>
       <use style="stroke:#000000;stroke-width:0.8;" x="309.674625" xlink:href="#m8f5a95f0aa" y="288.430125"/>
      </g>
     </g>
     <g id="text_4">
      <!-- aflplusplus_hier_coe -->
      <g transform="translate(221.093458 352.472284)rotate(-30)scale(0.1 -0.1)">
       <defs>
        <path d="M 48.78125 52.59375 
L 48.78125 44.1875 
Q 44.96875 46.296875 41.140625 47.34375 
Q 37.3125 48.390625 33.40625 48.390625 
Q 24.65625 48.390625 19.8125 42.84375 
Q 14.984375 37.3125 14.984375 27.296875 
Q 14.984375 17.28125 19.8125 11.734375 
Q 24.65625 6.203125 33.40625 6.203125 
Q 37.3125 6.203125 41.140625 7.25 
Q 44.96875 8.296875 48.78125 10.40625 
L 48.78125 2.09375 
Q 45.015625 0.34375 40.984375 -0.53125 
Q 36.96875 -1.421875 32.421875 -1.421875 
Q 20.0625 -1.421875 12.78125 6.34375 
Q 5.515625 14.109375 5.515625 27.296875 
Q 5.515625 40.671875 12.859375 48.328125 
Q 20.21875 56 33.015625 56 
Q 37.15625 56 41.109375 55.140625 
Q 45.0625 54.296875 48.78125 52.59375 
z
" id="DejaVuSans-99"/>
        <path d="M 30.609375 48.390625 
Q 23.390625 48.390625 19.1875 42.75 
Q 14.984375 37.109375 14.984375 27.296875 
Q 14.984375 17.484375 19.15625 11.84375 
Q 23.34375 6.203125 30.609375 6.203125 
Q 37.796875 6.203125 41.984375 11.859375 
Q 46.1875 17.53125 46.1875 27.296875 
Q 46.1875 37.015625 41.984375 42.703125 
Q 37.796875 48.390625 30.609375 48.390625 
z
M 30.609375 56 
Q 42.328125 56 49.015625 48.375 
Q 55.71875 40.765625 55.71875 27.296875 
Q 55.71875 13.875 49.015625 6.21875 
Q 42.328125 -1.421875 30.609375 -1.421875 
Q 18.84375 -1.421875 12.171875 6.21875 
Q 5.515625 13.875 5.515625 27.296875 
Q 5.515625 40.765625 12.171875 48.375 
Q 18.84375 56 30.609375 56 
z
" id="DejaVuSans-111"/>
       </defs>
       <use xlink:href="#DejaVuSans-97"/>
       <use x="61.279297" xlink:href="#DejaVuSans-102"/>
       <use x="96.484375" xlink:href="#DejaVuSans-108"/>
       <use x="124.267578" xlink:href="#DejaVuSans-112"/>
       <use x="187.744141" xlink:href="#DejaVuSans-108"/>
       <use x="215.527344" xlink:href="#DejaVuSans-117"/>
       <use x="278.90625" xlink:href="#DejaVuSans-115"/>
       <use x="331.005859" xlink:href="#DejaVuSans-112"/>
       <use x="394.482422" xlink:href="#DejaVuSans-108"/>
       <use x="422.265625" xlink:href="#DejaVuSans-117"/>
       <use x="485.644531" xlink:href="#DejaVuSans-115"/>
       <use x="537.744141" xlink:href="#DejaVuSans-95"/>
       <use x="587.744141" xlink:href="#DejaVuSans-104"/>
       <use x="651.123047" xlink:href="#DejaVuSans-105"/>
       <use x="678.90625" xlink:href="#DejaVuSans-101"/>
       <use x="740.429688" xlink:href="#DejaVuSans-114"/>
       <use x="781.542969" xlink:href="#DejaVuSans-95"/>
       <use x="831.542969" xlink:href="#DejaVuSans-99"/>
       <use x="886.523438" xlink:href="#DejaVuSans-111"/>
       <use x="947.705078" xlink:href="#DejaVuSans-101"/>
      </g>
     </g>
    </g>
    <g id="xtick_5">
     <g id="line2d_5">
      <g>
       <use style="stroke:#000000;stroke-width:0.8;" x="381.098625" xlink:href="#m8f5a95f0aa" y="288.430125"/>
      </g>
     </g>
     <g id="text_5">
      <!-- afl_qemu -->
      <g transform="translate(340.077138 325.01369)rotate(-30)scale(0.1 -0.1)">
       <defs>
        <path d="M 14.796875 27.296875 
Q 14.796875 17.390625 18.875 11.75 
Q 22.953125 6.109375 30.078125 6.109375 
Q 37.203125 6.109375 41.296875 11.75 
Q 45.40625 17.390625 45.40625 27.296875 
Q 45.40625 37.203125 41.296875 42.84375 
Q 37.203125 48.484375 30.078125 48.484375 
Q 22.953125 48.484375 18.875 42.84375 
Q 14.796875 37.203125 14.796875 27.296875 
z
M 45.40625 8.203125 
Q 42.578125 3.328125 38.25 0.953125 
Q 33.9375 -1.421875 27.875 -1.421875 
Q 17.96875 -1.421875 11.734375 6.484375 
Q 5.515625 14.40625 5.515625 27.296875 
Q 5.515625 40.1875 11.734375 48.09375 
Q 17.96875 56 27.875 56 
Q 33.9375 56 38.25 53.625 
Q 42.578125 51.265625 45.40625 46.390625 
L 45.40625 54.6875 
L 54.390625 54.6875 
L 54.390625 -20.796875 
L 45.40625 -20.796875 
z
" id="DejaVuSans-113"/>
        <path d="M 52 44.1875 
Q 55.375 50.25 60.0625 53.125 
Q 64.75 56 71.09375 56 
Q 79.640625 56 84.28125 50.015625 
Q 88.921875 44.046875 88.921875 33.015625 
L 88.921875 0 
L 79.890625 0 
L 79.890625 32.71875 
Q 79.890625 40.578125 77.09375 44.375 
Q 74.3125 48.1875 68.609375 48.1875 
Q 61.625 48.1875 57.5625 43.546875 
Q 53.515625 38.921875 53.515625 30.90625 
L 53.515625 0 
L 44.484375 0 
L 44.484375 32.71875 
Q 44.484375 40.625 41.703125 44.40625 
Q 38.921875 48.1875 33.109375 48.1875 
Q 26.21875 48.1875 22.15625 43.53125 
Q 18.109375 38.875 18.109375 30.90625 
L 18.109375 0 
L 9.078125 0 
L 9.078125 54.6875 
L 18.109375 54.6875 
L 18.109375 46.1875 
Q 21.1875 51.21875 25.484375 53.609375 
Q 29.78125 56 35.6875 56 
Q 41.65625 56 45.828125 52.96875 
Q 50 49.953125 52 44.1875 
z
" id="DejaVuSans-109"/>
       </defs>
       <use xlink:href="#DejaVuSans-97"/>
       <use x="61.279297" xlink:href="#DejaVuSans-102"/>
       <use x="96.484375" xlink:href="#DejaVuSans-108"/>
       <use x="124.267578" xlink:href="#DejaVuSans-95"/>
       <use x="174.267578" xlink:href="#DejaVuSans-113"/>
       <use x="237.744141" xlink:href="#DejaVuSans-101"/>
       <use x="299.267578" xlink:href="#DejaVuSans-109"/>
       <use x="396.679688" xlink:href="#DejaVuSans-117"/>
      </g>
     </g>
    </g>
    <g id="text_6">
     <!-- Fuzzer (highest median coverage on the left) -->
     <g transform="translate(125.632656 366.616553)scale(0.1 -0.1)">
      <defs>
       <path d="M 9.8125 72.90625 
L 51.703125 72.90625 
L 51.703125 64.59375 
L 19.671875 64.59375 
L 19.671875 43.109375 
L 48.578125 43.109375 
L 48.578125 34.8125 
L 19.671875 34.8125 
L 19.671875 0 
L 9.8125 0 
z
" id="DejaVuSans-70"/>
       <path d="M 5.515625 54.6875 
L 48.1875 54.6875 
L 48.1875 46.484375 
L 14.40625 7.171875 
L 48.1875 7.171875 
L 48.1875 0 
L 4.296875 0 
L 4.296875 8.203125 
L 38.09375 47.515625 
L 5.515625 47.515625 
z
" id="DejaVuSans-122"/>
       <path id="DejaVuSans-32"/>
       <path d="M 31 75.875 
Q 24.46875 64.65625 21.28125 53.65625 
Q 18.109375 42.671875 18.109375 31.390625 
Q 18.109375 20.125 21.3125 9.0625 
Q 24.515625 -2 31 -13.1875 
L 23.1875 -13.1875 
Q 15.875 -1.703125 12.234375 9.375 
Q 8.59375 20.453125 8.59375 31.390625 
Q 8.59375 42.28125 12.203125 53.3125 
Q 15.828125 64.359375 23.1875 75.875 
z
" id="DejaVuSans-40"/>
       <path d="M 45.40625 27.984375 
Q 45.40625 37.75 41.375 43.109375 
Q 37.359375 48.484375 30.078125 48.484375 
Q 22.859375 48.484375 18.828125 43.109375 
Q 14.796875 37.75 14.796875 27.984375 
Q 14.796875 18.265625 18.828125 12.890625 
Q 22.859375 7.515625 30.078125 7.515625 
Q 37.359375 7.515625 41.375 12.890625 
Q 45.40625 18.265625 45.40625 27.984375 
z
M 54.390625 6.78125 
Q 54.390625 -7.171875 48.1875 -13.984375 
Q 42 -20.796875 29.203125 -20.796875 
Q 24.46875 -20.796875 20.265625 -20.09375 
Q 16.0625 -19.390625 12.109375 -17.921875 
L 12.109375 -9.1875 
Q 16.0625 -11.328125 19.921875 -12.34375 
Q 23.78125 -13.375 27.78125 -13.375 
Q 36.625 -13.375 41.015625 -8.765625 
Q 45.40625 -4.15625 45.40625 5.171875 
L 45.40625 9.625 
Q 42.625 4.78125 38.28125 2.390625 
Q 33.9375 0 27.875 0 
Q 17.828125 0 11.671875 7.65625 
Q 5.515625 15.328125 5.515625 27.984375 
Q 5.515625 40.671875 11.671875 48.328125 
Q 17.828125 56 27.875 56 
Q 33.9375 56 38.28125 53.609375 
Q 42.625 51.21875 45.40625 46.390625 
L 45.40625 54.6875 
L 54.390625 54.6875 
z
" id="DejaVuSans-103"/>
       <path d="M 45.40625 46.390625 
L 45.40625 75.984375 
L 54.390625 75.984375 
L 54.390625 0 
L 45.40625 0 
L 45.40625 8.203125 
Q 42.578125 3.328125 38.25 0.953125 
Q 33.9375 -1.421875 27.875 -1.421875 
Q 17.96875 -1.421875 11.734375 6.484375 
Q 5.515625 14.40625 5.515625 27.296875 
Q 5.515625 40.1875 11.734375 48.09375 
Q 17.96875 56 27.875 56 
Q 33.9375 56 38.25 53.625 
Q 42.578125 51.265625 45.40625 46.390625 
z
M 14.796875 27.296875 
Q 14.796875 17.390625 18.875 11.75 
Q 22.953125 6.109375 30.078125 6.109375 
Q 37.203125 6.109375 41.296875 11.75 
Q 45.40625 17.390625 45.40625 27.296875 
Q 45.40625 37.203125 41.296875 42.84375 
Q 37.203125 48.484375 30.078125 48.484375 
Q 22.953125 48.484375 18.875 42.84375 
Q 14.796875 37.203125 14.796875 27.296875 
z
" id="DejaVuSans-100"/>
       <path d="M 54.890625 33.015625 
L 54.890625 0 
L 45.90625 0 
L 45.90625 32.71875 
Q 45.90625 40.484375 42.875 44.328125 
Q 39.84375 48.1875 33.796875 48.1875 
Q 26.515625 48.1875 22.3125 43.546875 
Q 18.109375 38.921875 18.109375 30.90625 
L 18.109375 0 
L 9.078125 0 
L 9.078125 54.6875 
L 18.109375 54.6875 
L 18.109375 46.1875 
Q 21.34375 51.125 25.703125 53.5625 
Q 30.078125 56 35.796875 56 
Q 45.21875 56 50.046875 50.171875 
Q 54.890625 44.34375 54.890625 33.015625 
z
" id="DejaVuSans-110"/>
       <path d="M 2.984375 54.6875 
L 12.5 54.6875 
L 29.59375 8.796875 
L 46.6875 54.6875 
L 56.203125 54.6875 
L 35.6875 0 
L 23.484375 0 
z
" id="DejaVuSans-118"/>
       <path d="M 8.015625 75.875 
L 15.828125 75.875 
Q 23.140625 64.359375 26.78125 53.3125 
Q 30.421875 42.28125 30.421875 31.390625 
Q 30.421875 20.453125 26.78125 9.375 
Q 23.140625 -1.703125 15.828125 -13.1875 
L 8.015625 -13.1875 
Q 14.5 -2 17.703125 9.0625 
Q 20.90625 20.125 20.90625 31.390625 
Q 20.90625 42.671875 17.703125 53.65625 
Q 14.5 64.65625 8.015625 75.875 
z
" id="DejaVuSans-41"/>
      </defs>
      <use xlink:href="#DejaVuSans-70"/>
      <use x="52.019531" xlink:href="#DejaVuSans-117"/>
      <use x="115.398438" xlink:href="#DejaVuSans-122"/>
      <use x="167.888672" xlink:href="#DejaVuSans-122"/>
      <use x="220.378906" xlink:href="#DejaVuSans-101"/>
      <use x="281.902344" xlink:href="#DejaVuSans-114"/>
      <use x="323.015625" xlink:href="#DejaVuSans-32"/>
      <use x="354.802734" xlink:href="#DejaVuSans-40"/>
      <use x="393.816406" xlink:href="#DejaVuSans-104"/>
      <use x="457.195312" xlink:href="#DejaVuSans-105"/>
      <use x="484.978516" xlink:href="#DejaVuSans-103"/>
      <use x="548.455078" xlink:href="#DejaVuSans-104"/>
      <use x="611.833984" xlink:href="#DejaVuSans-101"/>
      <use x="673.357422" xlink:href="#DejaVuSans-115"/>
      <use x="725.457031" xlink:href="#DejaVuSans-116"/>
      <use x="764.666016" xlink:href="#DejaVuSans-32"/>
      <use x="796.453125" xlink:href="#DejaVuSans-109"/>
      <use x="893.865234" xlink:href="#DejaVuSans-101"/>
      <use x="955.388672" xlink:href="#DejaVuSans-100"/>
      <use x="1018.865234" xlink:href="#DejaVuSans-105"/>
      <use x="1046.648438" xlink:href="#DejaVuSans-97"/>
      <use x="1107.927734" xlink:href="#DejaVuSans-110"/>
      <use x="1171.306641" xlink:href="#DejaVuSans-32"/>
      <use x="1203.09375" xlink:href="#DejaVuSans-99"/>
      <use x="1258.074219" xlink:href="#DejaVuSans-111"/>
      <use x="1319.255859" xlink:href="#DejaVuSans-118"/>
      <use x="1378.435547" xlink:href="#DejaVuSans-101"/>
      <use x="1439.958984" xlink:href="#DejaVuSans-114"/>
      <use x="1481.072266" xlink:href="#DejaVuSans-97"/>
      <use x="1542.351562" xlink:href="#DejaVuSans-103"/>
      <use x="1605.828125" xlink:href="#DejaVuSans-101"/>
      <use x="1667.351562" xlink:href="#DejaVuSans-32"/>
      <use x="1699.138672" xlink:href="#DejaVuSans-111"/>
      <use x="1760.320312" xlink:href="#DejaVuSans-110"/>
      <use x="1823.699219" xlink:href="#DejaVuSans-32"/>
      <use x="1855.486328" xlink:href="#DejaVuSans-116"/>
      <use x="1894.695312" xlink:href="#DejaVuSans-104"/>
      <use x="1958.074219" xlink:href="#DejaVuSans-101"/>
      <use x="2019.597656" xlink:href="#DejaVuSans-32"/>
      <use x="2051.384766" xlink:href="#DejaVuSans-108"/>
      <use x="2079.167969" xlink:href="#DejaVuSans-101"/>
      <use x="2140.691406" xlink:href="#DejaVuSans-102"/>
      <use x="2174.146484" xlink:href="#DejaVuSans-116"/>
      <use x="2213.355469" xlink:href="#DejaVuSans-41"/>
     </g>
    </g>
   </g>
   <g id="matplotlib.axis_2">
    <g id="ytick_1">
     <g id="line2d_6">
      <defs>
       <path d="M 0 0 
L -3.5 0 
" id="m970c479a98" style="stroke:#000000;stroke-width:0.8;"/>
      </defs>
      <g>
       <use style="stroke:#000000;stroke-width:0.8;" x="59.690625" xlink:href="#m970c479a98" y="233.913978"/>
      </g>
     </g>
     <g id="text_7">
      <!-- 14000 -->
      <g transform="translate(20.878125 237.713197)scale(0.1 -0.1)">
       <defs>
        <path d="M 12.40625 8.296875 
L 28.515625 8.296875 
L 28.515625 63.921875 
L 10.984375 60.40625 
L 10.984375 69.390625 
L 28.421875 72.90625 
L 38.28125 72.90625 
L 38.28125 8.296875 
L 54.390625 8.296875 
L 54.390625 0 
L 12.40625 0 
z
" id="DejaVuSans-49"/>
        <path d="M 37.796875 64.3125 
L 12.890625 25.390625 
L 37.796875 25.390625 
z
M 35.203125 72.90625 
L 47.609375 72.90625 
L 47.609375 25.390625 
L 58.015625 25.390625 
L 58.015625 17.1875 
L 47.609375 17.1875 
L 47.609375 0 
L 37.796875 0 
L 37.796875 17.1875 
L 4.890625 17.1875 
L 4.890625 26.703125 
z
" id="DejaVuSans-52"/>
        <path d="M 31.78125 66.40625 
Q 24.171875 66.40625 20.328125 58.90625 
Q 16.5 51.421875 16.5 36.375 
Q 16.5 21.390625 20.328125 13.890625 
Q 24.171875 6.390625 31.78125 6.390625 
Q 39.453125 6.390625 43.28125 13.890625 
Q 47.125 21.390625 47.125 36.375 
Q 47.125 51.421875 43.28125 58.90625 
Q 39.453125 66.40625 31.78125 66.40625 
z
M 31.78125 74.21875 
Q 44.046875 74.21875 50.515625 64.515625 
Q 56.984375 54.828125 56.984375 36.375 
Q 56.984375 17.96875 50.515625 8.265625 
Q 44.046875 -1.421875 31.78125 -1.421875 
Q 19.53125 -1.421875 13.0625 8.265625 
Q 6.59375 17.96875 6.59375 36.375 
Q 6.59375 54.828125 13.0625 64.515625 
Q 19.53125 74.21875 31.78125 74.21875 
z
" id="DejaVuSans-48"/>
       </defs>
       <use xlink:href="#DejaVuSans-49"/>
       <use x="63.623047" xlink:href="#DejaVuSans-52"/>
       <use x="127.246094" xlink:href="#DejaVuSans-48"/>
       <use x="190.869141" xlink:href="#DejaVuSans-48"/>
       <use x="254.492188" xlink:href="#DejaVuSans-48"/>
      </g>
     </g>
    </g>
    <g id="ytick_2">
     <g id="line2d_7">
      <g>
       <use style="stroke:#000000;stroke-width:0.8;" x="59.690625" xlink:href="#m970c479a98" y="178.438186"/>
      </g>
     </g>
     <g id="text_8">
      <!-- 16000 -->
      <g transform="translate(20.878125 182.237404)scale(0.1 -0.1)">
       <defs>
        <path d="M 33.015625 40.375 
Q 26.375 40.375 22.484375 35.828125 
Q 18.609375 31.296875 18.609375 23.390625 
Q 18.609375 15.53125 22.484375 10.953125 
Q 26.375 6.390625 33.015625 6.390625 
Q 39.65625 6.390625 43.53125 10.953125 
Q 47.40625 15.53125 47.40625 23.390625 
Q 47.40625 31.296875 43.53125 35.828125 
Q 39.65625 40.375 33.015625 40.375 
z
M 52.59375 71.296875 
L 52.59375 62.3125 
Q 48.875 64.0625 45.09375 64.984375 
Q 41.3125 65.921875 37.59375 65.921875 
Q 27.828125 65.921875 22.671875 59.328125 
Q 17.53125 52.734375 16.796875 39.40625 
Q 19.671875 43.65625 24.015625 45.921875 
Q 28.375 48.1875 33.59375 48.1875 
Q 44.578125 48.1875 50.953125 41.515625 
Q 57.328125 34.859375 57.328125 23.390625 
Q 57.328125 12.15625 50.6875 5.359375 
Q 44.046875 -1.421875 33.015625 -1.421875 
Q 20.359375 -1.421875 13.671875 8.265625 
Q 6.984375 17.96875 6.984375 36.375 
Q 6.984375 53.65625 15.1875 63.9375 
Q 23.390625 74.21875 37.203125 74.21875 
Q 40.921875 74.21875 44.703125 73.484375 
Q 48.484375 72.75 52.59375 71.296875 
z
" id="DejaVuSans-54"/>
       </defs>
       <use xlink:href="#DejaVuSans-49"/>
       <use x="63.623047" xlink:href="#DejaVuSans-54"/>
       <use x="127.246094" xlink:href="#DejaVuSans-48"/>
       <use x="190.869141" xlink:href="#DejaVuSans-48"/>
       <use x="254.492188" xlink:href="#DejaVuSans-48"/>
      </g>
     </g>
    </g>
    <g id="ytick_3">
     <g id="line2d_8">
      <g>
       <use style="stroke:#000000;stroke-width:0.8;" x="59.690625" xlink:href="#m970c479a98" y="122.962393"/>
      </g>
     </g>
     <g id="text_9">
      <!-- 18000 -->
      <g transform="translate(20.878125 126.761612)scale(0.1 -0.1)">
       <defs>
        <path d="M 31.78125 34.625 
Q 24.75 34.625 20.71875 30.859375 
Q 16.703125 27.09375 16.703125 20.515625 
Q 16.703125 13.921875 20.71875 10.15625 
Q 24.75 6.390625 31.78125 6.390625 
Q 38.8125 6.390625 42.859375 10.171875 
Q 46.921875 13.96875 46.921875 20.515625 
Q 46.921875 27.09375 42.890625 30.859375 
Q 38.875 34.625 31.78125 34.625 
z
M 21.921875 38.8125 
Q 15.578125 40.375 12.03125 44.71875 
Q 8.5 49.078125 8.5 55.328125 
Q 8.5 64.0625 14.71875 69.140625 
Q 20.953125 74.21875 31.78125 74.21875 
Q 42.671875 74.21875 48.875 69.140625 
Q 55.078125 64.0625 55.078125 55.328125 
Q 55.078125 49.078125 51.53125 44.71875 
Q 48 40.375 41.703125 38.8125 
Q 48.828125 37.15625 52.796875 32.3125 
Q 56.78125 27.484375 56.78125 20.515625 
Q 56.78125 9.90625 50.3125 4.234375 
Q 43.84375 -1.421875 31.78125 -1.421875 
Q 19.734375 -1.421875 13.25 4.234375 
Q 6.78125 9.90625 6.78125 20.515625 
Q 6.78125 27.484375 10.78125 32.3125 
Q 14.796875 37.15625 21.921875 38.8125 
z
M 18.3125 54.390625 
Q 18.3125 48.734375 21.84375 45.5625 
Q 25.390625 42.390625 31.78125 42.390625 
Q 38.140625 42.390625 41.71875 45.5625 
Q 45.3125 48.734375 45.3125 54.390625 
Q 45.3125 60.0625 41.71875 63.234375 
Q 38.140625 66.40625 31.78125 66.40625 
Q 25.390625 66.40625 21.84375 63.234375 
Q 18.3125 60.0625 18.3125 54.390625 
z
" id="DejaVuSans-56"/>
       </defs>
       <use xlink:href="#DejaVuSans-49"/>
       <use x="63.623047" xlink:href="#DejaVuSans-56"/>
       <use x="127.246094" xlink:href="#DejaVuSans-48"/>
       <use x="190.869141" xlink:href="#DejaVuSans-48"/>
       <use x="254.492188" xlink:href="#DejaVuSans-48"/>
      </g>
     </g>
    </g>
    <g id="ytick_4">
     <g id="line2d_9">
      <g>
       <use style="stroke:#000000;stroke-width:0.8;" x="59.690625" xlink:href="#m970c479a98" y="67.486601"/>
      </g>
     </g>
     <g id="text_10">
      <!-- 20000 -->
      <g transform="translate(20.878125 71.28582)scale(0.1 -0.1)">
       <defs>
        <path d="M 19.1875 8.296875 
L 53.609375 8.296875 
L 53.609375 0 
L 7.328125 0 
L 7.328125 8.296875 
Q 12.9375 14.109375 22.625 23.890625 
Q 32.328125 33.6875 34.8125 36.53125 
Q 39.546875 41.84375 41.421875 45.53125 
Q 43.3125 49.21875 43.3125 52.78125 
Q 43.3125 58.59375 39.234375 62.25 
Q 35.15625 65.921875 28.609375 65.921875 
Q 23.96875 65.921875 18.8125 64.3125 
Q 13.671875 62.703125 7.8125 59.421875 
L 7.8125 69.390625 
Q 13.765625 71.78125 18.9375 73 
Q 24.125 74.21875 28.421875 74.21875 
Q 39.75 74.21875 46.484375 68.546875 
Q 53.21875 62.890625 53.21875 53.421875 
Q 53.21875 48.921875 51.53125 44.890625 
Q 49.859375 40.875 45.40625 35.40625 
Q 44.1875 33.984375 37.640625 27.21875 
Q 31.109375 20.453125 19.1875 8.296875 
z
" id="DejaVuSans-50"/>
       </defs>
       <use xlink:href="#DejaVuSans-50"/>
       <use x="63.623047" xlink:href="#DejaVuSans-48"/>
       <use x="127.246094" xlink:href="#DejaVuSans-48"/>
       <use x="190.869141" xlink:href="#DejaVuSans-48"/>
       <use x="254.492188" xlink:href="#DejaVuSans-48"/>
      </g>
     </g>
    </g>
    <g id="text_11">
     <!-- Reached region coverage -->
     <g transform="translate(14.798438 219.136625)rotate(-90)scale(0.1 -0.1)">
      <defs>
       <path d="M 44.390625 34.1875 
Q 47.5625 33.109375 50.5625 29.59375 
Q 53.5625 26.078125 56.59375 19.921875 
L 66.609375 0 
L 56 0 
L 46.6875 18.703125 
Q 43.0625 26.03125 39.671875 28.421875 
Q 36.28125 30.8125 30.421875 30.8125 
L 19.671875 30.8125 
L 19.671875 0 
L 9.8125 0 
L 9.8125 72.90625 
L 32.078125 72.90625 
Q 44.578125 72.90625 50.734375 67.671875 
Q 56.890625 62.453125 56.890625 51.90625 
Q 56.890625 45.015625 53.6875 40.46875 
Q 50.484375 35.9375 44.390625 34.1875 
z
M 19.671875 64.796875 
L 19.671875 38.921875 
L 32.078125 38.921875 
Q 39.203125 38.921875 42.84375 42.21875 
Q 46.484375 45.515625 46.484375 51.90625 
Q 46.484375 58.296875 42.84375 61.546875 
Q 39.203125 64.796875 32.078125 64.796875 
z
" id="DejaVuSans-82"/>
      </defs>
      <use xlink:href="#DejaVuSans-82"/>
      <use x="64.982422" xlink:href="#DejaVuSans-101"/>
      <use x="126.505859" xlink:href="#DejaVuSans-97"/>
      <use x="187.785156" xlink:href="#DejaVuSans-99"/>
      <use x="242.765625" xlink:href="#DejaVuSans-104"/>
      <use x="306.144531" xlink:href="#DejaVuSans-101"/>
      <use x="367.667969" xlink:href="#DejaVuSans-100"/>
      <use x="431.144531" xlink:href="#DejaVuSans-32"/>
      <use x="462.931641" xlink:href="#DejaVuSans-114"/>
      <use x="501.794922" xlink:href="#DejaVuSans-101"/>
      <use x="563.318359" xlink:href="#DejaVuSans-103"/>
      <use x="626.794922" xlink:href="#DejaVuSans-105"/>
      <use x="654.578125" xlink:href="#DejaVuSans-111"/>
      <use x="715.759766" xlink:href="#DejaVuSans-110"/>
      <use x="779.138672" xlink:href="#DejaVuSans-32"/>
      <use x="810.925781" xlink:href="#DejaVuSans-99"/>
      <use x="865.90625" xlink:href="#DejaVuSans-111"/>
      <use x="927.087891" xlink:href="#DejaVuSans-118"/>
      <use x="986.267578" xlink:href="#DejaVuSans-101"/>
      <use x="1047.791016" xlink:href="#DejaVuSans-114"/>
      <use x="1088.904297" xlink:href="#DejaVuSans-97"/>
      <use x="1150.183594" xlink:href="#DejaVuSans-103"/>
      <use x="1213.660156" xlink:href="#DejaVuSans-101"/>
     </g>
    </g>
   </g>
   <g id="line2d_10">
    <path clip-path="url(#pd3fe300e66)" d="M 95.402625 208.117734 
L 95.402625 102.630516 
" style="fill:none;stroke:#3f3f3f;stroke-linecap:square;stroke-width:1.5;"/>
   </g>
   <g id="line2d_11">
    <path clip-path="url(#pd3fe300e66)" d="M 95.402625 168.82007 
L 95.402625 122.664211 
" style="fill:none;stroke:#3f3f3f;stroke-linecap:square;stroke-width:4.5;"/>
   </g>
   <g id="line2d_12">
    <path clip-path="url(#pd3fe300e66)" d="M 166.826625 215.079946 
L 166.826625 204.345381 
" style="fill:none;stroke:#3f3f3f;stroke-linecap:square;stroke-width:1.5;"/>
   </g>
   <g id="line2d_13">
    <path clip-path="url(#pd3fe300e66)" d="M 166.826625 210.960869 
L 166.826625 204.595022 
" style="fill:none;stroke:#3f3f3f;stroke-linecap:square;stroke-width:4.5;"/>
   </g>
   <g id="line2d_14">
    <path clip-path="url(#pd3fe300e66)" d="M 238.250625 240.376908 
L 238.250625 229.337225 
" style="fill:none;stroke:#3f3f3f;stroke-linecap:square;stroke-width:1.5;"/>
   </g>
   <g id="line2d_15">
    <path clip-path="url(#pd3fe300e66)" d="M 238.250625 238.795847 
L 238.250625 231.833636 
" style="fill:none;stroke:#3f3f3f;stroke-linecap:square;stroke-width:4.5;"/>
   </g>
   <g id="line2d_16">
    <path clip-path="url(#pd3fe300e66)" d="M 309.674625 243.455814 
L 309.674625 236.465864 
" style="fill:none;stroke:#3f3f3f;stroke-linecap:square;stroke-width:1.5;"/>
   </g>
   <g id="line2d_17">
    <path clip-path="url(#pd3fe300e66)" d="M 309.674625 241.847016 
L 309.674625 239.017751 
" style="fill:none;stroke:#3f3f3f;stroke-linecap:square;stroke-width:4.5;"/>
   </g>
   <g id="line2d_18">
    <path clip-path="url(#pd3fe300e66)" d="M 381.098625 244.343427 
L 381.098625 241.375472 
" style="fill:none;stroke:#3f3f3f;stroke-linecap:square;stroke-width:1.5;"/>
   </g>
   <g id="line2d_19">
    <path clip-path="url(#pd3fe300e66)" d="M 381.098625 244.343427 
L 381.098625 241.375472 
" style="fill:none;stroke:#3f3f3f;stroke-linecap:square;stroke-width:4.5;"/>
   </g>
   <g id="patch_3">
    <path d="M 59.690625 233.913978 
L 59.690625 67.486601 
" style="fill:none;stroke:#000000;stroke-linecap:square;stroke-linejoin:miter;stroke-width:0.8;"/>
   </g>
   <g id="patch_4">
    <path d="M 95.402625 288.430125 
L 381.098625 288.430125 
" style="fill:none;stroke:#000000;stroke-linecap:square;stroke-linejoin:miter;stroke-width:0.8;"/>
   </g>
   <g id="PathCollection_1">
    <defs>
     <path d="M 0 1.5 
C 0.397805 1.5 0.77937 1.341951 1.06066 1.06066 
C 1.341951 0.77937 1.5 0.397805 1.5 0 
C 1.5 -0.397805 1.341951 -0.77937 1.06066 -1.06066 
C 0.77937 -1.341951 0.397805 -1.5 0 -1.5 
C -0.397805 -1.5 -0.77937 -1.341951 -1.06066 -1.06066 
C -1.341951 -0.77937 -1.5 -0.397805 -1.5 0 
C -1.5 0.397805 -1.341951 0.77937 -1.06066 1.06066 
C -0.77937 1.341951 -0.397805 1.5 0 1.5 
z
" id="m415431a970" style="stroke:#3f3f3f;"/>
    </defs>
    <g clip-path="url(#pd3fe300e66)">
     <use style="fill:#ffffff;stroke:#3f3f3f;" x="95.402625" xlink:href="#m415431a970" y="142.531479"/>
    </g>
   </g>
   <g id="PathCollection_2">
    <g clip-path="url(#pd3fe300e66)">
     <use style="fill:#ffffff;stroke:#3f3f3f;" x="166.826625" xlink:href="#m415431a970" y="207.133039"/>
    </g>
   </g>
   <g id="PathCollection_3">
    <g clip-path="url(#pd3fe300e66)">
     <use style="fill:#ffffff;stroke:#3f3f3f;" x="238.250625" xlink:href="#m415431a970" y="235.4673"/>
    </g>
   </g>
   <g id="PathCollection_4">
    <g clip-path="url(#pd3fe300e66)">
     <use style="fill:#ffffff;stroke:#3f3f3f;" x="309.674625" xlink:href="#m415431a970" y="239.82215"/>
    </g>
   </g>
   <g id="PathCollection_5">
    <g clip-path="url(#pd3fe300e66)">
     <use style="fill:#ffffff;stroke:#3f3f3f;" x="381.098625" xlink:href="#m415431a970" y="243.317125"/>
    </g>
   </g>
   <g id="text_12">
    <!-- freetype2-2017 (2h, 4 trials/fuzzer) -->
    <g transform="translate(132.672188 16.318125)scale(0.12 -0.12)">
     <defs>
      <path d="M 32.171875 -5.078125 
Q 28.375 -14.84375 24.75 -17.8125 
Q 21.140625 -20.796875 15.09375 -20.796875 
L 7.90625 -20.796875 
L 7.90625 -13.28125 
L 13.1875 -13.28125 
Q 16.890625 -13.28125 18.9375 -11.515625 
Q 21 -9.765625 23.484375 -3.21875 
L 25.09375 0.875 
L 2.984375 54.6875 
L 12.5 54.6875 
L 29.59375 11.921875 
L 46.6875 54.6875 
L 56.203125 54.6875 
z
" id="DejaVuSans-121"/>
      <path d="M 4.890625 31.390625 
L 31.203125 31.390625 
L 31.203125 23.390625 
L 4.890625 23.390625 
z
" id="DejaVuSans-45"/>
      <path d="M 8.203125 72.90625 
L 55.078125 72.90625 
L 55.078125 68.703125 
L 28.609375 0 
L 18.3125 0 
L 43.21875 64.59375 
L 8.203125 64.59375 
z
" id="DejaVuSans-55"/>
      <path d="M 11.71875 12.40625 
L 22.015625 12.40625 
L 22.015625 4 
L 14.015625 -11.625 
L 7.71875 -11.625 
L 11.71875 4 
z
" id="DejaVuSans-44"/>
      <path d="M 25.390625 72.90625 
L 33.6875 72.90625 
L 8.296875 -9.28125 
L 0 -9.28125 
z
" id="DejaVuSans-47"/>
     </defs>
     <use xlink:href="#DejaVuSans-102"/>
     <use x="35.205078" xlink:href="#DejaVuSans-114"/>
     <use x="74.068359" xlink:href="#DejaVuSans-101"/>
     <use x="135.591797" xlink:href="#DejaVuSans-101"/>
     <use x="197.115234" xlink:href="#DejaVuSans-116"/>
     <use x="236.324219" xlink:href="#DejaVuSans-121"/>
     <use x="295.503906" xlink:href="#DejaVuSans-112"/>
     <use x="358.980469" xlink:href="#DejaVuSans-101"/>
     <use x="420.503906" xlink:href="#DejaVuSans-50"/>
     <use x="484.126953" xlink:href="#DejaVuSans-45"/>
     <use x="520.210938" xlink:href="#DejaVuSans-50"/>
     <use x="583.833984" xlink:href="#DejaVuSans-48"/>
     <use x="647.457031" xlink:href="#DejaVuSans-49"/>
     <use x="711.080078" xlink:href="#DejaVuSans-55"/>
     <use x="774.703125" xlink:href="#DejaVuSans-32"/>
     <use x="806.490234" xlink:href="#DejaVuSans-40"/>
     <use x="845.503906" xlink:href="#DejaVuSans-50"/>
     <use x="909.126953" xlink:href="#DejaVuSans-104"/>
     <use x="972.505859" xlink:href="#DejaVuSans-44"/>
     <use x="1004.292969" xlink:href="#DejaVuSans-32"/>
     <use x="1036.080078" xlink:href="#DejaVuSans-52"/>
     <use x="1099.703125" xlink:href="#DejaVuSans-32"/>
     <use x="1131.490234" xlink:href="#DejaVuSans-116"/>
     <use x="1170.699219" xlink:href="#DejaVuSans-114"/>
     <use x="1211.8125" xlink:href="#DejaVuSans-105"/>
     <use x="1239.595703" xlink:href="#DejaVuSans-97"/>
     <use x="1300.875" xlink:href="#DejaVuSans-108"/>
     <use x="1328.658203" xlink:href="#DejaVuSans-115"/>
     <use x="1380.757812" xlink:href="#DejaVuSans-47"/>
     <use x="1414.449219" xlink:href="#DejaVuSans-102"/>
     <use x="1449.654297" xlink:href="#DejaVuSans-117"/>
     <use x="1513.033203" xlink:href="#DejaVuSans-122"/>
     <use x="1565.523438" xlink:href="#DejaVuSans-122"/>
     <use x="1618.013672" xlink:href="#DejaVuSans-101"/>
     <use x="1679.537109" xlink:href="#DejaVuSans-114"/>
     <use x="1720.650391" xlink:href="#DejaVuSans-41"/>
    </g>
   </g>
  </g>
 </g>
 <defs>
  <clipPath id="pd3fe300e66">
   <rect height="266.112" width="357.12" x="59.690625" y="22.318125"/>
  </clipPath>
 </defs>
</svg>
