<?xml version="1.0" encoding="utf-8" standalone="no"?>
<!DOCTYPE svg PUBLIC "-//W3C//DTD SVG 1.1//EN"
  "http://www.w3.org/Graphics/SVG/1.1/DTD/svg11.dtd">
<!-- Created with matplotlib (https://matplotlib.org/) -->
<svg height="375.89624pt" version="1.1" viewBox="0 0 417.648125 375.89624" width="417.648125pt" xmlns="http://www.w3.org/2000/svg" xmlns:xlink="http://www.w3.org/1999/xlink">
 <metadata>
  <rdf:RDF xmlns:cc="http://creativecommons.org/ns#" xmlns:dc="http://purl.org/dc/elements/1.1/" xmlns:rdf="http://www.w3.org/1999/02/22-rdf-syntax-ns#">
   <cc:Work>
    <dc:type rdf:resource="http://purl.org/dc/dcmitype/StillImage"/>
    <dc:date>2020-11-17T15:05:02.710154</dc:date>
    <dc:format>image/svg+xml</dc:format>
    <dc:creator>
     <cc:Agent>
      <dc:title>Matplotlib v3.3.2, https://matplotlib.org/</dc:title>
     </cc:Agent>
    </dc:creator>
   </cc:Work>
  </rdf:RDF>
 </metadata>
 <defs>
  <style type="text/css">*{stroke-linecap:butt;stroke-linejoin:round;}</style>
 </defs>
 <g id="figure_1">
  <g id="patch_1">
   <path d="M 0 375.89624 
L 417.648125 375.89624 
L 417.648125 0 
L 0 0 
z
" style="fill:#ffffff;"/>
  </g>
  <g id="axes_1">
   <g id="patch_2">
    <path d="M 53.328125 288.430125 
L 410.448125 288.430125 
L 410.448125 22.318125 
L 53.328125 22.318125 
z
" style="fill:#ffffff;"/>
   </g>
   <g id="PolyCollection_1">
    <defs>
     <path d="M 89.068439 -291.36128 
L 89.011811 -291.36128 
L 89.007446 -291.867551 
L 89.002594 -292.373822 
L 88.997235 -292.880093 
L 88.99135 -293.386364 
L 88.984927 -293.892635 
L 88.977959 -294.398906 
L 88.970445 -294.905177 
L 88.962393 -295.411448 
L 88.953817 -295.917719 
L 88.944736 -296.42399 
L 88.935181 -296.930261 
L 88.925187 -297.436533 
L 88.914796 -297.942804 
L 88.904056 -298.449075 
L 88.893021 -298.955346 
L 88.881746 -299.461617 
L 88.870291 -299.967888 
L 88.858714 -300.474159 
L 88.847075 -300.98043 
L 88.835431 -301.486701 
L 88.823832 -301.992972 
L 88.812326 -302.499243 
L 88.800952 -303.005514 
L 88.789742 -303.511785 
L 88.778721 -304.018056 
L 88.767902 -304.524327 
L 88.75729 -305.030599 
L 88.746881 -305.53687 
L 88.736665 -306.043141 
L 88.726622 -306.549412 
L 88.716728 -307.055683 
L 88.706955 -307.561954 
L 88.697273 -308.068225 
L 88.68765 -308.574496 
L 88.678059 -309.080767 
L 88.668475 -309.587038 
L 88.65888 -310.093309 
L 88.649263 -310.59958 
L 88.639623 -311.105851 
L 88.629969 -311.612122 
L 88.620322 -312.118394 
L 88.610713 -312.624665 
L 88.601184 -313.130936 
L 88.591791 -313.637207 
L 88.582597 -314.143478 
L 88.573676 -314.649749 
L 88.565108 -315.15602 
L 88.55698 -315.662291 
L 88.549383 -316.168562 
L 88.542407 -316.674833 
L 88.536146 -317.181104 
L 88.530689 -317.687375 
L 88.526122 -318.193646 
L 88.522524 -318.699917 
L 88.519969 -319.206188 
L 88.51852 -319.71246 
L 88.518232 -320.218731 
L 88.519147 -320.725002 
L 88.521297 -321.231273 
L 88.524703 -321.737544 
L 88.529373 -322.243815 
L 88.535302 -322.750086 
L 88.542476 -323.256357 
L 88.550867 -323.762628 
L 88.560436 -324.268899 
L 88.571135 -324.77517 
L 88.582904 -325.281441 
L 88.595676 -325.787712 
L 88.609373 -326.293983 
L 88.623912 -326.800254 
L 88.639202 -327.306526 
L 88.655145 -327.812797 
L 88.671641 -328.319068 
L 88.688585 -328.825339 
L 88.705868 -329.33161 
L 88.723384 -329.837881 
L 88.741023 -330.344152 
L 88.758678 -330.850423 
L 88.776245 -331.356694 
L 88.793624 -331.862965 
L 88.810718 -332.369236 
L 88.827438 -332.875507 
L 88.843702 -333.381778 
L 88.859434 -333.888049 
L 88.87457 -334.39432 
L 88.889053 -334.900592 
L 88.902835 -335.406863 
L 88.915879 -335.913134 
L 88.928159 -336.419405 
L 88.939657 -336.925676 
L 88.950364 -337.431947 
L 88.96028 -337.938218 
L 88.969415 -338.444489 
L 88.977785 -338.95076 
L 88.985411 -339.457031 
L 88.992323 -339.963302 
L 88.998553 -340.469573 
L 89.004139 -340.975844 
L 89.009119 -341.482115 
L 89.071131 -341.482115 
L 89.071131 -341.482115 
L 89.076111 -340.975844 
L 89.081697 -340.469573 
L 89.087927 -339.963302 
L 89.094839 -339.457031 
L 89.102465 -338.95076 
L 89.110835 -338.444489 
L 89.11997 -337.938218 
L 89.129886 -337.431947 
L 89.140593 -336.925676 
L 89.152091 -336.419405 
L 89.164371 -335.913134 
L 89.177415 -335.406863 
L 89.191197 -334.900592 
L 89.20568 -334.39432 
L 89.220816 -333.888049 
L 89.236548 -333.381778 
L 89.252812 -332.875507 
L 89.269532 -332.369236 
L 89.286626 -331.862965 
L 89.304005 -331.356694 
L 89.321572 -330.850423 
L 89.339227 -330.344152 
L 89.356866 -329.837881 
L 89.374382 -329.33161 
L 89.391665 -328.825339 
L 89.408609 -328.319068 
L 89.425105 -327.812797 
L 89.441048 -327.306526 
L 89.456338 -326.800254 
L 89.470877 -326.293983 
L 89.484574 -325.787712 
L 89.497346 -325.281441 
L 89.509115 -324.77517 
L 89.519814 -324.268899 
L 89.529383 -323.762628 
L 89.537774 -323.256357 
L 89.544948 -322.750086 
L 89.550877 -322.243815 
L 89.555547 -321.737544 
L 89.558953 -321.231273 
L 89.561103 -320.725002 
L 89.562018 -320.218731 
L 89.56173 -319.71246 
L 89.560281 -319.206188 
L 89.557726 -318.699917 
L 89.554128 -318.193646 
L 89.549561 -317.687375 
L 89.544104 -317.181104 
L 89.537843 -316.674833 
L 89.530867 -316.168562 
L 89.52327 -315.662291 
L 89.515142 -315.15602 
L 89.506574 -314.649749 
L 89.497653 -314.143478 
L 89.488459 -313.637207 
L 89.479066 -313.130936 
L 89.469537 -312.624665 
L 89.459928 -312.118394 
L 89.450281 -311.612122 
L 89.440627 -311.105851 
L 89.430987 -310.59958 
L 89.42137 -310.093309 
L 89.411775 -309.587038 
L 89.402191 -309.080767 
L 89.3926 -308.574496 
L 89.382977 -308.068225 
L 89.373295 -307.561954 
L 89.363522 -307.055683 
L 89.353628 -306.549412 
L 89.343585 -306.043141 
L 89.333369 -305.53687 
L 89.32296 -305.030599 
L 89.312348 -304.524327 
L 89.301529 -304.018056 
L 89.290508 -303.511785 
L 89.279298 -303.005514 
L 89.267924 -302.499243 
L 89.256418 -301.992972 
L 89.244819 -301.486701 
L 89.233175 -300.98043 
L 89.221536 -300.474159 
L 89.209959 -299.967888 
L 89.198504 -299.461617 
L 89.187229 -298.955346 
L 89.176194 -298.449075 
L 89.165454 -297.942804 
L 89.155063 -297.436533 
L 89.145069 -296.930261 
L 89.135514 -296.42399 
L 89.126433 -295.917719 
L 89.117857 -295.411448 
L 89.109805 -294.905177 
L 89.102291 -294.398906 
L 89.095323 -293.892635 
L 89.0889 -293.386364 
L 89.083015 -292.880093 
L 89.077656 -292.373822 
L 89.072804 -291.867551 
L 89.068439 -291.36128 
z
" id="m6f2d24f8f3" style="stroke:#3f3f3f;stroke-width:1.5;"/>
    </defs>
    <g clip-path="url(#pa077821c49)">
     <use style="fill:#9fd495;stroke:#3f3f3f;stroke-width:1.5;" x="0" xlink:href="#m6f2d24f8f3" y="375.89624"/>
    </g>
   </g>
   <g id="PolyCollection_2">
    <defs>
     <path d="M 160.838003 -106.434882 
L 160.090247 -106.434882 
L 160.034571 -106.472224 
L 159.972829 -106.509567 
L 159.904734 -106.546909 
L 159.83004 -106.584251 
L 159.748555 -106.621593 
L 159.660152 -106.658936 
L 159.564768 -106.696278 
L 159.462421 -106.73362 
L 159.353208 -106.770963 
L 159.237316 -106.808305 
L 159.115018 -106.845647 
L 158.986676 -106.882989 
L 158.852739 -106.920332 
L 158.713741 -106.957674 
L 158.570289 -106.995016 
L 158.423061 -107.032358 
L 158.272787 -107.069701 
L 158.120246 -107.107043 
L 157.966242 -107.144385 
L 157.811595 -107.181727 
L 157.657123 -107.21907 
L 157.503622 -107.256412 
L 157.351854 -107.293754 
L 157.202529 -107.331096 
L 157.056291 -107.368439 
L 156.913703 -107.405781 
L 156.775239 -107.443123 
L 156.641271 -107.480465 
L 156.512067 -107.517808 
L 156.387786 -107.55515 
L 156.268477 -107.592492 
L 156.154081 -107.629834 
L 156.044438 -107.667177 
L 155.939291 -107.704519 
L 155.838303 -107.741861 
L 155.741061 -107.779203 
L 155.647099 -107.816546 
L 155.555907 -107.853888 
L 155.466953 -107.89123 
L 155.379698 -107.928572 
L 155.293619 -107.965915 
L 155.208224 -108.003257 
L 155.123071 -108.040599 
L 155.037792 -108.077942 
L 154.952102 -108.115284 
L 154.865824 -108.152626 
L 154.778896 -108.189968 
L 154.691388 -108.227311 
L 154.603511 -108.264653 
L 154.515625 -108.301995 
L 154.428242 -108.339337 
L 154.342026 -108.37668 
L 154.25779 -108.414022 
L 154.176491 -108.451364 
L 154.099212 -108.488706 
L 154.027153 -108.526049 
L 153.961606 -108.563391 
L 153.903934 -108.600733 
L 153.85554 -108.638075 
L 153.817839 -108.675418 
L 153.792224 -108.71276 
L 153.780031 -108.750102 
L 153.782509 -108.787444 
L 153.800777 -108.824787 
L 153.835798 -108.862129 
L 153.88835 -108.899471 
L 153.958994 -108.936813 
L 154.048057 -108.974156 
L 154.155614 -109.011498 
L 154.281478 -109.04884 
L 154.425198 -109.086182 
L 154.586059 -109.123525 
L 154.763096 -109.160867 
L 154.955105 -109.198209 
L 155.16067 -109.235551 
L 155.378188 -109.272894 
L 155.605902 -109.310236 
L 155.841935 -109.347578 
L 156.084328 -109.384921 
L 156.331078 -109.422263 
L 156.580179 -109.459605 
L 156.829656 -109.496947 
L 157.077603 -109.53429 
L 157.322215 -109.571632 
L 157.561813 -109.608974 
L 157.794871 -109.646316 
L 158.020033 -109.683659 
L 158.23613 -109.721001 
L 158.442184 -109.758343 
L 158.637412 -109.795685 
L 158.82123 -109.833028 
L 158.99324 -109.87037 
L 159.153227 -109.907712 
L 159.301142 -109.945054 
L 159.437089 -109.982397 
L 159.561308 -110.019739 
L 159.674155 -110.057081 
L 159.776087 -110.094423 
L 159.867636 -110.131766 
L 161.060614 -110.131766 
L 161.060614 -110.131766 
L 161.152163 -110.094423 
L 161.254095 -110.057081 
L 161.366942 -110.019739 
L 161.491161 -109.982397 
L 161.627108 -109.945054 
L 161.775023 -109.907712 
L 161.93501 -109.87037 
L 162.10702 -109.833028 
L 162.290838 -109.795685 
L 162.486066 -109.758343 
L 162.69212 -109.721001 
L 162.908217 -109.683659 
L 163.133379 -109.646316 
L 163.366437 -109.608974 
L 163.606035 -109.571632 
L 163.850647 -109.53429 
L 164.098594 -109.496947 
L 164.348071 -109.459605 
L 164.597172 -109.422263 
L 164.843922 -109.384921 
L 165.086315 -109.347578 
L 165.322348 -109.310236 
L 165.550062 -109.272894 
L 165.76758 -109.235551 
L 165.973145 -109.198209 
L 166.165154 -109.160867 
L 166.342191 -109.123525 
L 166.503052 -109.086182 
L 166.646772 -109.04884 
L 166.772636 -109.011498 
L 166.880193 -108.974156 
L 166.969256 -108.936813 
L 167.0399 -108.899471 
L 167.092452 -108.862129 
L 167.127473 -108.824787 
L 167.145741 -108.787444 
L 167.148219 -108.750102 
L 167.136026 -108.71276 
L 167.110411 -108.675418 
L 167.07271 -108.638075 
L 167.024316 -108.600733 
L 166.966644 -108.563391 
L 166.901097 -108.526049 
L 166.829038 -108.488706 
L 166.751759 -108.451364 
L 166.67046 -108.414022 
L 166.586224 -108.37668 
L 166.500008 -108.339337 
L 166.412625 -108.301995 
L 166.324739 -108.264653 
L 166.236862 -108.227311 
L 166.149354 -108.189968 
L 166.062426 -108.152626 
L 165.976148 -108.115284 
L 165.890458 -108.077942 
L 165.805179 -108.040599 
L 165.720026 -108.003257 
L 165.634631 -107.965915 
L 165.548552 -107.928572 
L 165.461297 -107.89123 
L 165.372343 -107.853888 
L 165.281151 -107.816546 
L 165.187189 -107.779203 
L 165.089947 -107.741861 
L 164.988959 -107.704519 
L 164.883812 -107.667177 
L 164.774169 -107.629834 
L 164.659773 -107.592492 
L 164.540464 -107.55515 
L 164.416183 -107.517808 
L 164.286979 -107.480465 
L 164.153011 -107.443123 
L 164.014547 -107.405781 
L 163.871959 -107.368439 
L 163.725721 -107.331096 
L 163.576396 -107.293754 
L 163.424628 -107.256412 
L 163.271127 -107.21907 
L 163.116655 -107.181727 
L 162.962008 -107.144385 
L 162.808004 -107.107043 
L 162.655463 -107.069701 
L 162.505189 -107.032358 
L 162.357961 -106.995016 
L 162.214509 -106.957674 
L 162.075511 -106.920332 
L 161.941574 -106.882989 
L 161.813232 -106.845647 
L 161.690934 -106.808305 
L 161.575042 -106.770963 
L 161.465829 -106.73362 
L 161.363482 -106.696278 
L 161.268098 -106.658936 
L 161.179695 -106.621593 
L 161.09821 -106.584251 
L 161.023516 -106.546909 
L 160.955421 -106.509567 
L 160.893679 -106.472224 
L 160.838003 -106.434882 
z
" id="mc6de88f11f" style="stroke:#3f3f3f;stroke-width:1.5;"/>
    </defs>
    <g clip-path="url(#pa077821c49)">
     <use style="fill:#3274a1;stroke:#3f3f3f;stroke-width:1.5;" x="0" xlink:href="#mc6de88f11f" y="375.89624"/>
    </g>
   </g>
   <g id="PolyCollection_3">
    <defs>
     <path d="M 232.33639 -106.233996 
L 231.43986 -106.233996 
L 231.372243 -106.286151 
L 231.297157 -106.338305 
L 231.21425 -106.39046 
L 231.123232 -106.442615 
L 231.023886 -106.494769 
L 230.916086 -106.546924 
L 230.799805 -106.599078 
L 230.675127 -106.651233 
L 230.542261 -106.703387 
L 230.401544 -106.755542 
L 230.25345 -106.807696 
L 230.098591 -106.859851 
L 229.937716 -106.912006 
L 229.771709 -106.96416 
L 229.60158 -107.016315 
L 229.428454 -107.068469 
L 229.253555 -107.120624 
L 229.07819 -107.172778 
L 228.903727 -107.224933 
L 228.731568 -107.277088 
L 228.563127 -107.329242 
L 228.399803 -107.381397 
L 228.242948 -107.433551 
L 228.093843 -107.485706 
L 227.95367 -107.53786 
L 227.823492 -107.590015 
L 227.704223 -107.642169 
L 227.596619 -107.694324 
L 227.501258 -107.746479 
L 227.418533 -107.798633 
L 227.348647 -107.850788 
L 227.291613 -107.902942 
L 227.247259 -107.955097 
L 227.215237 -108.007251 
L 227.195042 -108.059406 
L 227.186022 -108.111561 
L 227.187406 -108.163715 
L 227.198324 -108.21587 
L 227.217834 -108.268024 
L 227.244946 -108.320179 
L 227.27865 -108.372333 
L 227.31794 -108.424488 
L 227.361837 -108.476642 
L 227.409413 -108.528797 
L 227.459809 -108.580952 
L 227.512248 -108.633106 
L 227.566052 -108.685261 
L 227.62065 -108.737415 
L 227.675583 -108.78957 
L 227.730508 -108.841724 
L 227.785196 -108.893879 
L 227.839529 -108.946034 
L 227.893494 -108.998188 
L 227.947175 -109.050343 
L 228.000743 -109.102497 
L 228.054444 -109.154652 
L 228.108583 -109.206806 
L 228.163515 -109.258961 
L 228.219629 -109.311115 
L 228.277333 -109.36327 
L 228.337038 -109.415425 
L 228.399149 -109.467579 
L 228.464048 -109.519734 
L 228.532082 -109.571888 
L 228.603555 -109.624043 
L 228.678715 -109.676197 
L 228.757745 -109.728352 
L 228.84076 -109.780507 
L 228.927801 -109.832661 
L 229.018828 -109.884816 
L 229.113724 -109.93697 
L 229.212293 -109.989125 
L 229.314263 -110.041279 
L 229.41929 -110.093434 
L 229.526965 -110.145588 
L 229.63682 -110.197743 
L 229.748341 -110.249898 
L 229.860972 -110.302052 
L 229.97413 -110.354207 
L 230.087216 -110.406361 
L 230.199625 -110.458516 
L 230.31076 -110.51067 
L 230.420038 -110.562825 
L 230.526907 -110.61498 
L 230.630851 -110.667134 
L 230.731397 -110.719289 
L 230.828126 -110.771443 
L 230.920676 -110.823598 
L 231.008745 -110.875752 
L 231.092094 -110.927907 
L 231.170547 -110.980061 
L 231.243992 -111.032216 
L 231.312378 -111.084371 
L 231.375708 -111.136525 
L 231.434042 -111.18868 
L 231.487486 -111.240834 
L 231.536188 -111.292989 
L 231.580331 -111.345143 
L 231.62013 -111.397298 
L 232.15612 -111.397298 
L 232.15612 -111.397298 
L 232.195919 -111.345143 
L 232.240062 -111.292989 
L 232.288764 -111.240834 
L 232.342208 -111.18868 
L 232.400542 -111.136525 
L 232.463872 -111.084371 
L 232.532258 -111.032216 
L 232.605703 -110.980061 
L 232.684156 -110.927907 
L 232.767505 -110.875752 
L 232.855574 -110.823598 
L 232.948124 -110.771443 
L 233.044853 -110.719289 
L 233.145399 -110.667134 
L 233.249343 -110.61498 
L 233.356212 -110.562825 
L 233.46549 -110.51067 
L 233.576625 -110.458516 
L 233.689034 -110.406361 
L 233.80212 -110.354207 
L 233.915278 -110.302052 
L 234.027909 -110.249898 
L 234.13943 -110.197743 
L 234.249285 -110.145588 
L 234.35696 -110.093434 
L 234.461987 -110.041279 
L 234.563957 -109.989125 
L 234.662526 -109.93697 
L 234.757422 -109.884816 
L 234.848449 -109.832661 
L 234.93549 -109.780507 
L 235.018505 -109.728352 
L 235.097535 -109.676197 
L 235.172695 -109.624043 
L 235.244168 -109.571888 
L 235.312202 -109.519734 
L 235.377101 -109.467579 
L 235.439212 -109.415425 
L 235.498917 -109.36327 
L 235.556621 -109.311115 
L 235.612735 -109.258961 
L 235.667667 -109.206806 
L 235.721806 -109.154652 
L 235.775507 -109.102497 
L 235.829075 -109.050343 
L 235.882756 -108.998188 
L 235.936721 -108.946034 
L 235.991054 -108.893879 
L 236.045742 -108.841724 
L 236.100667 -108.78957 
L 236.1556 -108.737415 
L 236.210198 -108.685261 
L 236.264002 -108.633106 
L 236.316441 -108.580952 
L 236.366837 -108.528797 
L 236.414413 -108.476642 
L 236.45831 -108.424488 
L 236.4976 -108.372333 
L 236.531304 -108.320179 
L 236.558416 -108.268024 
L 236.577926 -108.21587 
L 236.588844 -108.163715 
L 236.590228 -108.111561 
L 236.581208 -108.059406 
L 236.561013 -108.007251 
L 236.528991 -107.955097 
L 236.484637 -107.902942 
L 236.427603 -107.850788 
L 236.357717 -107.798633 
L 236.274992 -107.746479 
L 236.179631 -107.694324 
L 236.072027 -107.642169 
L 235.952758 -107.590015 
L 235.82258 -107.53786 
L 235.682407 -107.485706 
L 235.533302 -107.433551 
L 235.376447 -107.381397 
L 235.213123 -107.329242 
L 235.044682 -107.277088 
L 234.872523 -107.224933 
L 234.69806 -107.172778 
L 234.522695 -107.120624 
L 234.347796 -107.068469 
L 234.17467 -107.016315 
L 234.004541 -106.96416 
L 233.838534 -106.912006 
L 233.677659 -106.859851 
L 233.5228 -106.807696 
L 233.374706 -106.755542 
L 233.233989 -106.703387 
L 233.101123 -106.651233 
L 232.976445 -106.599078 
L 232.860164 -106.546924 
L 232.752364 -106.494769 
L 232.653018 -106.442615 
L 232.562 -106.39046 
L 232.479093 -106.338305 
L 232.404007 -106.286151 
L 232.33639 -106.233996 
z
" id="m133ad10e63" style="stroke:#3f3f3f;stroke-width:1.5;"/>
    </defs>
    <g clip-path="url(#pa077821c49)">
     <use style="fill:#c7c7c7;stroke:#3f3f3f;stroke-width:1.5;" x="0" xlink:href="#m133ad10e63" y="375.89624"/>
    </g>
   </g>
   <g id="PolyCollection_4">
    <defs>
     <path d="M 303.443571 -99.562115 
L 303.180679 -99.562115 
L 303.159906 -99.854206 
L 303.136759 -100.146296 
L 303.111135 -100.438386 
L 303.082955 -100.730477 
L 303.052172 -101.022567 
L 303.018774 -101.314657 
L 302.982792 -101.606748 
L 302.944303 -101.898838 
L 302.903433 -102.190928 
L 302.86036 -102.483018 
L 302.815321 -102.775109 
L 302.768604 -103.067199 
L 302.720556 -103.359289 
L 302.671573 -103.65138 
L 302.622103 -103.94347 
L 302.572635 -104.23556 
L 302.523694 -104.52765 
L 302.475833 -104.819741 
L 302.429622 -105.111831 
L 302.385636 -105.403921 
L 302.344445 -105.696012 
L 302.3066 -105.988102 
L 302.272621 -106.280192 
L 302.242985 -106.572283 
L 302.218114 -106.864373 
L 302.198365 -107.156463 
L 302.184018 -107.448553 
L 302.175272 -107.740644 
L 302.172238 -108.032734 
L 302.174935 -108.324824 
L 302.183291 -108.616915 
L 302.197141 -108.909005 
L 302.216233 -109.201095 
L 302.240233 -109.493186 
L 302.268733 -109.785276 
L 302.301259 -110.077366 
L 302.337285 -110.369456 
L 302.376241 -110.661547 
L 302.41753 -110.953637 
L 302.460536 -111.245727 
L 302.504643 -111.537818 
L 302.549242 -111.829908 
L 302.593746 -112.121998 
L 302.637599 -112.414089 
L 302.680289 -112.706179 
L 302.721351 -112.998269 
L 302.760378 -113.290359 
L 302.797026 -113.58245 
L 302.831013 -113.87454 
L 302.862125 -114.16663 
L 302.890216 -114.458721 
L 302.915203 -114.750811 
L 302.93707 -115.042901 
L 302.955858 -115.334991 
L 302.971664 -115.627082 
L 302.984634 -115.919172 
L 302.994957 -116.211262 
L 303.00286 -116.503353 
L 303.0086 -116.795443 
L 303.012456 -117.087533 
L 303.014723 -117.379624 
L 303.015705 -117.671714 
L 303.015707 -117.963804 
L 303.015033 -118.255894 
L 303.013972 -118.547985 
L 303.012801 -118.840075 
L 303.011775 -119.132165 
L 303.011124 -119.424256 
L 303.011052 -119.716346 
L 303.01173 -120.008436 
L 303.013299 -120.300527 
L 303.015865 -120.592617 
L 303.019502 -120.884707 
L 303.024251 -121.176797 
L 303.030121 -121.468888 
L 303.037093 -121.760978 
L 303.045119 -122.053068 
L 303.054129 -122.345159 
L 303.064032 -122.637249 
L 303.074719 -122.929339 
L 303.08607 -123.22143 
L 303.097955 -123.51352 
L 303.110239 -123.80561 
L 303.122785 -124.0977 
L 303.135459 -124.389791 
L 303.14813 -124.681881 
L 303.160677 -124.973971 
L 303.172986 -125.266062 
L 303.184956 -125.558152 
L 303.196499 -125.850242 
L 303.207541 -126.142332 
L 303.21802 -126.434423 
L 303.22789 -126.726513 
L 303.237117 -127.018603 
L 303.245682 -127.310694 
L 303.253576 -127.602784 
L 303.260801 -127.894874 
L 303.267369 -128.186965 
L 303.2733 -128.479055 
L 303.35095 -128.479055 
L 303.35095 -128.479055 
L 303.356881 -128.186965 
L 303.363449 -127.894874 
L 303.370674 -127.602784 
L 303.378568 -127.310694 
L 303.387133 -127.018603 
L 303.39636 -126.726513 
L 303.40623 -126.434423 
L 303.416709 -126.142332 
L 303.427751 -125.850242 
L 303.439294 -125.558152 
L 303.451264 -125.266062 
L 303.463573 -124.973971 
L 303.47612 -124.681881 
L 303.488791 -124.389791 
L 303.501465 -124.0977 
L 303.514011 -123.80561 
L 303.526295 -123.51352 
L 303.53818 -123.22143 
L 303.549531 -122.929339 
L 303.560218 -122.637249 
L 303.570121 -122.345159 
L 303.579131 -122.053068 
L 303.587157 -121.760978 
L 303.594129 -121.468888 
L 303.599999 -121.176797 
L 303.604748 -120.884707 
L 303.608385 -120.592617 
L 303.610951 -120.300527 
L 303.61252 -120.008436 
L 303.613198 -119.716346 
L 303.613126 -119.424256 
L 303.612475 -119.132165 
L 303.611449 -118.840075 
L 303.610278 -118.547985 
L 303.609217 -118.255894 
L 303.608543 -117.963804 
L 303.608545 -117.671714 
L 303.609527 -117.379624 
L 303.611794 -117.087533 
L 303.61565 -116.795443 
L 303.62139 -116.503353 
L 303.629293 -116.211262 
L 303.639616 -115.919172 
L 303.652586 -115.627082 
L 303.668392 -115.334991 
L 303.68718 -115.042901 
L 303.709047 -114.750811 
L 303.734034 -114.458721 
L 303.762125 -114.16663 
L 303.793237 -113.87454 
L 303.827224 -113.58245 
L 303.863872 -113.290359 
L 303.902899 -112.998269 
L 303.943961 -112.706179 
L 303.986651 -112.414089 
L 304.030504 -112.121998 
L 304.075008 -111.829908 
L 304.119607 -111.537818 
L 304.163714 -111.245727 
L 304.20672 -110.953637 
L 304.248009 -110.661547 
L 304.286965 -110.369456 
L 304.322991 -110.077366 
L 304.355517 -109.785276 
L 304.384017 -109.493186 
L 304.408017 -109.201095 
L 304.427109 -108.909005 
L 304.440959 -108.616915 
L 304.449315 -108.324824 
L 304.452012 -108.032734 
L 304.448978 -107.740644 
L 304.440232 -107.448553 
L 304.425885 -107.156463 
L 304.406136 -106.864373 
L 304.381265 -106.572283 
L 304.351629 -106.280192 
L 304.31765 -105.988102 
L 304.279805 -105.696012 
L 304.238614 -105.403921 
L 304.194628 -105.111831 
L 304.148417 -104.819741 
L 304.100556 -104.52765 
L 304.051615 -104.23556 
L 304.002147 -103.94347 
L 303.952677 -103.65138 
L 303.903694 -103.359289 
L 303.855646 -103.067199 
L 303.808929 -102.775109 
L 303.76389 -102.483018 
L 303.720817 -102.190928 
L 303.679947 -101.898838 
L 303.641458 -101.606748 
L 303.605476 -101.314657 
L 303.572078 -101.022567 
L 303.541295 -100.730477 
L 303.513115 -100.438386 
L 303.487491 -100.146296 
L 303.464344 -99.854206 
L 303.443571 -99.562115 
z
" id="m51c764339e" style="stroke:#3f3f3f;stroke-width:1.5;"/>
    </defs>
    <g clip-path="url(#pa077821c49)">
     <use style="fill:#e1812c;stroke:#3f3f3f;stroke-width:1.5;" x="0" xlink:href="#m51c764339e" y="375.89624"/>
    </g>
   </g>
   <g id="PolyCollection_5">
    <defs>
     <path d="M 377.45313 -107.341433 
L 372.01912 -107.341433 
L 371.694065 -107.349707 
L 371.340776 -107.357981 
L 370.958278 -107.366255 
L 370.54576 -107.374529 
L 370.102601 -107.382803 
L 369.628392 -107.391077 
L 369.122963 -107.399351 
L 368.586401 -107.407625 
L 368.01907 -107.415899 
L 367.421628 -107.424174 
L 366.795038 -107.432448 
L 366.140571 -107.440722 
L 365.459815 -107.448996 
L 364.754668 -107.45727 
L 364.02733 -107.465544 
L 363.280287 -107.473818 
L 362.516296 -107.482092 
L 361.738354 -107.490366 
L 360.949669 -107.498641 
L 360.153625 -107.506915 
L 359.353742 -107.515189 
L 358.553629 -107.523463 
L 357.756942 -107.531737 
L 356.967334 -107.540011 
L 356.188407 -107.548285 
L 355.423663 -107.556559 
L 354.676461 -107.564833 
L 353.94997 -107.573107 
L 353.247133 -107.581382 
L 352.570631 -107.589656 
L 351.922858 -107.59793 
L 351.305897 -107.606204 
L 350.721507 -107.614478 
L 350.171121 -107.622752 
L 349.65584 -107.631026 
L 349.176453 -107.6393 
L 348.733447 -107.647574 
L 348.327033 -107.655849 
L 347.957179 -107.664123 
L 347.623644 -107.672397 
L 347.326018 -107.680671 
L 347.063765 -107.688945 
L 346.836264 -107.697219 
L 346.642859 -107.705493 
L 346.482895 -107.713767 
L 346.355759 -107.722041 
L 346.260916 -107.730315 
L 346.197937 -107.73859 
L 346.166525 -107.746864 
L 346.166525 -107.755138 
L 346.197937 -107.763412 
L 346.260916 -107.771686 
L 346.355759 -107.77996 
L 346.482895 -107.788234 
L 346.642859 -107.796508 
L 346.836264 -107.804782 
L 347.063765 -107.813056 
L 347.326018 -107.821331 
L 347.623644 -107.829605 
L 347.957179 -107.837879 
L 348.327033 -107.846153 
L 348.733447 -107.854427 
L 349.176453 -107.862701 
L 349.65584 -107.870975 
L 350.171121 -107.879249 
L 350.721507 -107.887523 
L 351.305897 -107.895798 
L 351.922858 -107.904072 
L 352.570631 -107.912346 
L 353.247133 -107.92062 
L 353.94997 -107.928894 
L 354.676461 -107.937168 
L 355.423663 -107.945442 
L 356.188407 -107.953716 
L 356.967334 -107.96199 
L 357.756942 -107.970264 
L 358.553629 -107.978539 
L 359.353742 -107.986813 
L 360.153625 -107.995087 
L 360.949669 -108.003361 
L 361.738354 -108.011635 
L 362.516296 -108.019909 
L 363.280287 -108.028183 
L 364.02733 -108.036457 
L 364.754668 -108.044731 
L 365.459815 -108.053006 
L 366.140571 -108.06128 
L 366.795038 -108.069554 
L 367.421628 -108.077828 
L 368.01907 -108.086102 
L 368.586401 -108.094376 
L 369.122963 -108.10265 
L 369.628392 -108.110924 
L 370.102601 -108.119198 
L 370.54576 -108.127472 
L 370.958278 -108.135747 
L 371.340776 -108.144021 
L 371.694065 -108.152295 
L 372.01912 -108.160569 
L 377.45313 -108.160569 
L 377.45313 -108.160569 
L 377.778185 -108.152295 
L 378.131474 -108.144021 
L 378.513972 -108.135747 
L 378.92649 -108.127472 
L 379.369649 -108.119198 
L 379.843858 -108.110924 
L 380.349287 -108.10265 
L 380.885849 -108.094376 
L 381.45318 -108.086102 
L 382.050622 -108.077828 
L 382.677212 -108.069554 
L 383.331679 -108.06128 
L 384.012435 -108.053006 
L 384.717582 -108.044731 
L 385.44492 -108.036457 
L 386.191963 -108.028183 
L 386.955954 -108.019909 
L 387.733896 -108.011635 
L 388.522581 -108.003361 
L 389.318625 -107.995087 
L 390.118508 -107.986813 
L 390.918621 -107.978539 
L 391.715308 -107.970264 
L 392.504916 -107.96199 
L 393.283843 -107.953716 
L 394.048587 -107.945442 
L 394.795789 -107.937168 
L 395.52228 -107.928894 
L 396.225117 -107.92062 
L 396.901619 -107.912346 
L 397.549392 -107.904072 
L 398.166353 -107.895798 
L 398.750743 -107.887523 
L 399.301129 -107.879249 
L 399.81641 -107.870975 
L 400.295797 -107.862701 
L 400.738803 -107.854427 
L 401.145217 -107.846153 
L 401.515071 -107.837879 
L 401.848606 -107.829605 
L 402.146232 -107.821331 
L 402.408485 -107.813056 
L 402.635986 -107.804782 
L 402.829391 -107.796508 
L 402.989355 -107.788234 
L 403.116491 -107.77996 
L 403.211334 -107.771686 
L 403.274313 -107.763412 
L 403.305725 -107.755138 
L 403.305725 -107.746864 
L 403.274313 -107.73859 
L 403.211334 -107.730315 
L 403.116491 -107.722041 
L 402.989355 -107.713767 
L 402.829391 -107.705493 
L 402.635986 -107.697219 
L 402.408485 -107.688945 
L 402.146232 -107.680671 
L 401.848606 -107.672397 
L 401.515071 -107.664123 
L 401.145217 -107.655849 
L 400.738803 -107.647574 
L 400.295797 -107.6393 
L 399.81641 -107.631026 
L 399.301129 -107.622752 
L 398.750743 -107.614478 
L 398.166353 -107.606204 
L 397.549392 -107.59793 
L 396.901619 -107.589656 
L 396.225117 -107.581382 
L 395.52228 -107.573107 
L 394.795789 -107.564833 
L 394.048587 -107.556559 
L 393.283843 -107.548285 
L 392.504916 -107.540011 
L 391.715308 -107.531737 
L 390.918621 -107.523463 
L 390.118508 -107.515189 
L 389.318625 -107.506915 
L 388.522581 -107.498641 
L 387.733896 -107.490366 
L 386.955954 -107.482092 
L 386.191963 -107.473818 
L 385.44492 -107.465544 
L 384.717582 -107.45727 
L 384.012435 -107.448996 
L 383.331679 -107.440722 
L 382.677212 -107.432448 
L 382.050622 -107.424174 
L 381.45318 -107.415899 
L 380.885849 -107.407625 
L 380.349287 -107.399351 
L 379.843858 -107.391077 
L 379.369649 -107.382803 
L 378.92649 -107.374529 
L 378.513972 -107.366255 
L 378.131474 -107.357981 
L 377.778185 -107.349707 
L 377.45313 -107.341433 
z
" id="m8b3fa65325" style="stroke:#3f3f3f;stroke-width:1.5;"/>
    </defs>
    <g clip-path="url(#pa077821c49)">
     <use style="fill:#c03d3e;stroke:#3f3f3f;stroke-width:1.5;" x="0" xlink:href="#m8b3fa65325" y="375.89624"/>
    </g>
   </g>
   <g id="matplotlib.axis_1">
    <g id="xtick_1">
     <g id="line2d_1">
      <defs>
       <path d="M 0 0 
L 0 3.5 
" id="m017014ff36" style="stroke:#000000;stroke-width:0.8;"/>
      </defs>
      <g>
       <use style="stroke:#000000;stroke-width:0.8;" x="89.040125" xlink:href="#m017014ff36" y="288.430125"/>
      </g>
     </g>
     <g id="text_1">
      <!-- aflplusplus -->
      <g transform="translate(41.431118 328.897284)rotate(-30)scale(0.1 -0.1)">
       <defs>
        <path d="M 34.28125 27.484375 
Q 23.390625 27.484375 19.1875 25 
Q 14.984375 22.515625 14.984375 16.5 
Q 14.984375 11.71875 18.140625 8.90625 
Q 21.296875 6.109375 26.703125 6.109375 
Q 34.1875 6.109375 38.703125 11.40625 
Q 43.21875 16.703125 43.21875 25.484375 
L 43.21875 27.484375 
z
M 52.203125 31.203125 
L 52.203125 0 
L 43.21875 0 
L 43.21875 8.296875 
Q 40.140625 3.328125 35.546875 0.953125 
Q 30.953125 -1.421875 24.3125 -1.421875 
Q 15.921875 -1.421875 10.953125 3.296875 
Q 6 8.015625 6 15.921875 
Q 6 25.140625 12.171875 29.828125 
Q 18.359375 34.515625 30.609375 34.515625 
L 43.21875 34.515625 
L 43.21875 35.40625 
Q 43.21875 41.609375 39.140625 45 
Q 35.0625 48.390625 27.6875 48.390625 
Q 23 48.390625 18.546875 47.265625 
Q 14.109375 46.140625 10.015625 43.890625 
L 10.015625 52.203125 
Q 14.9375 54.109375 19.578125 55.046875 
Q 24.21875 56 28.609375 56 
Q 40.484375 56 46.34375 49.84375 
Q 52.203125 43.703125 52.203125 31.203125 
z
" id="DejaVuSans-97"/>
        <path d="M 37.109375 75.984375 
L 37.109375 68.5 
L 28.515625 68.5 
Q 23.6875 68.5 21.796875 66.546875 
Q 19.921875 64.59375 19.921875 59.515625 
L 19.921875 54.6875 
L 34.71875 54.6875 
L 34.71875 47.703125 
L 19.921875 47.703125 
L 19.921875 0 
L 10.890625 0 
L 10.890625 47.703125 
L 2.296875 47.703125 
L 2.296875 54.6875 
L 10.890625 54.6875 
L 10.890625 58.5 
Q 10.890625 67.625 15.140625 71.796875 
Q 19.390625 75.984375 28.609375 75.984375 
z
" id="DejaVuSans-102"/>
        <path d="M 9.421875 75.984375 
L 18.40625 75.984375 
L 18.40625 0 
L 9.421875 0 
z
" id="DejaVuSans-108"/>
        <path d="M 18.109375 8.203125 
L 18.109375 -20.796875 
L 9.078125 -20.796875 
L 9.078125 54.6875 
L 18.109375 54.6875 
L 18.109375 46.390625 
Q 20.953125 51.265625 25.265625 53.625 
Q 29.59375 56 35.59375 56 
Q 45.5625 56 51.78125 48.09375 
Q 58.015625 40.1875 58.015625 27.296875 
Q 58.015625 14.40625 51.78125 6.484375 
Q 45.5625 -1.421875 35.59375 -1.421875 
Q 29.59375 -1.421875 25.265625 0.953125 
Q 20.953125 3.328125 18.109375 8.203125 
z
M 48.6875 27.296875 
Q 48.6875 37.203125 44.609375 42.84375 
Q 40.53125 48.484375 33.40625 48.484375 
Q 26.265625 48.484375 22.1875 42.84375 
Q 18.109375 37.203125 18.109375 27.296875 
Q 18.109375 17.390625 22.1875 11.75 
Q 26.265625 6.109375 33.40625 6.109375 
Q 40.53125 6.109375 44.609375 11.75 
Q 48.6875 17.390625 48.6875 27.296875 
z
" id="DejaVuSans-112"/>
        <path d="M 8.5 21.578125 
L 8.5 54.6875 
L 17.484375 54.6875 
L 17.484375 21.921875 
Q 17.484375 14.15625 20.5 10.265625 
Q 23.53125 6.390625 29.59375 6.390625 
Q 36.859375 6.390625 41.078125 11.03125 
Q 45.3125 15.671875 45.3125 23.6875 
L 45.3125 54.6875 
L 54.296875 54.6875 
L 54.296875 0 
L 45.3125 0 
L 45.3125 8.40625 
Q 42.046875 3.421875 37.71875 1 
Q 33.40625 -1.421875 27.6875 -1.421875 
Q 18.265625 -1.421875 13.375 4.4375 
Q 8.5 10.296875 8.5 21.578125 
z
M 31.109375 56 
z
" id="DejaVuSans-117"/>
        <path d="M 44.28125 53.078125 
L 44.28125 44.578125 
Q 40.484375 46.53125 36.375 47.5 
Q 32.28125 48.484375 27.875 48.484375 
Q 21.1875 48.484375 17.84375 46.4375 
Q 14.5 44.390625 14.5 40.28125 
Q 14.5 37.15625 16.890625 35.375 
Q 19.28125 33.59375 26.515625 31.984375 
L 29.59375 31.296875 
Q 39.15625 29.25 43.1875 25.515625 
Q 47.21875 21.78125 47.21875 15.09375 
Q 47.21875 7.46875 41.1875 3.015625 
Q 35.15625 -1.421875 24.609375 -1.421875 
Q 20.21875 -1.421875 15.453125 -0.5625 
Q 10.6875 0.296875 5.421875 2 
L 5.421875 11.28125 
Q 10.40625 8.6875 15.234375 7.390625 
Q 20.0625 6.109375 24.8125 6.109375 
Q 31.15625 6.109375 34.5625 8.28125 
Q 37.984375 10.453125 37.984375 14.40625 
Q 37.984375 18.0625 35.515625 20.015625 
Q 33.0625 21.96875 24.703125 23.78125 
L 21.578125 24.515625 
Q 13.234375 26.265625 9.515625 29.90625 
Q 5.8125 33.546875 5.8125 39.890625 
Q 5.8125 47.609375 11.28125 51.796875 
Q 16.75 56 26.8125 56 
Q 31.78125 56 36.171875 55.265625 
Q 40.578125 54.546875 44.28125 53.078125 
z
" id="DejaVuSans-115"/>
       </defs>
       <use xlink:href="#DejaVuSans-97"/>
       <use x="61.279297" xlink:href="#DejaVuSans-102"/>
       <use x="96.484375" xlink:href="#DejaVuSans-108"/>
       <use x="124.267578" xlink:href="#DejaVuSans-112"/>
       <use x="187.744141" xlink:href="#DejaVuSans-108"/>
       <use x="215.527344" xlink:href="#DejaVuSans-117"/>
       <use x="278.90625" xlink:href="#DejaVuSans-115"/>
       <use x="331.005859" xlink:href="#DejaVuSans-112"/>
       <use x="394.482422" xlink:href="#DejaVuSans-108"/>
       <use x="422.265625" xlink:href="#DejaVuSans-117"/>
       <use x="485.644531" xlink:href="#DejaVuSans-115"/>
      </g>
     </g>
    </g>
    <g id="xtick_2">
     <g id="line2d_2">
      <g>
       <use style="stroke:#000000;stroke-width:0.8;" x="160.464125" xlink:href="#m017014ff36" y="288.430125"/>
      </g>
     </g>
     <g id="text_2">
      <!-- afl_qemu -->
      <g transform="translate(119.442638 325.01369)rotate(-30)scale(0.1 -0.1)">
       <defs>
        <path d="M 50.984375 -16.609375 
L 50.984375 -23.578125 
L -0.984375 -23.578125 
L -0.984375 -16.609375 
z
" id="DejaVuSans-95"/>
        <path d="M 14.796875 27.296875 
Q 14.796875 17.390625 18.875 11.75 
Q 22.953125 6.109375 30.078125 6.109375 
Q 37.203125 6.109375 41.296875 11.75 
Q 45.40625 17.390625 45.40625 27.296875 
Q 45.40625 37.203125 41.296875 42.84375 
Q 37.203125 48.484375 30.078125 48.484375 
Q 22.953125 48.484375 18.875 42.84375 
Q 14.796875 37.203125 14.796875 27.296875 
z
M 45.40625 8.203125 
Q 42.578125 3.328125 38.25 0.953125 
Q 33.9375 -1.421875 27.875 -1.421875 
Q 17.96875 -1.421875 11.734375 6.484375 
Q 5.515625 14.40625 5.515625 27.296875 
Q 5.515625 40.1875 11.734375 48.09375 
Q 17.96875 56 27.875 56 
Q 33.9375 56 38.25 53.625 
Q 42.578125 51.265625 45.40625 46.390625 
L 45.40625 54.6875 
L 54.390625 54.6875 
L 54.390625 -20.796875 
L 45.40625 -20.796875 
z
" id="DejaVuSans-113"/>
        <path d="M 56.203125 29.59375 
L 56.203125 25.203125 
L 14.890625 25.203125 
Q 15.484375 15.921875 20.484375 11.0625 
Q 25.484375 6.203125 34.421875 6.203125 
Q 39.59375 6.203125 44.453125 7.46875 
Q 49.3125 8.734375 54.109375 11.28125 
L 54.109375 2.78125 
Q 49.265625 0.734375 44.1875 -0.34375 
Q 39.109375 -1.421875 33.890625 -1.421875 
Q 20.796875 -1.421875 13.15625 6.1875 
Q 5.515625 13.8125 5.515625 26.8125 
Q 5.515625 40.234375 12.765625 48.109375 
Q 20.015625 56 32.328125 56 
Q 43.359375 56 49.78125 48.890625 
Q 56.203125 41.796875 56.203125 29.59375 
z
M 47.21875 32.234375 
Q 47.125 39.59375 43.09375 43.984375 
Q 39.0625 48.390625 32.421875 48.390625 
Q 24.90625 48.390625 20.390625 44.140625 
Q 15.875 39.890625 15.1875 32.171875 
z
" id="DejaVuSans-101"/>
        <path d="M 52 44.1875 
Q 55.375 50.25 60.0625 53.125 
Q 64.75 56 71.09375 56 
Q 79.640625 56 84.28125 50.015625 
Q 88.921875 44.046875 88.921875 33.015625 
L 88.921875 0 
L 79.890625 0 
L 79.890625 32.71875 
Q 79.890625 40.578125 77.09375 44.375 
Q 74.3125 48.1875 68.609375 48.1875 
Q 61.625 48.1875 57.5625 43.546875 
Q 53.515625 38.921875 53.515625 30.90625 
L 53.515625 0 
L 44.484375 0 
L 44.484375 32.71875 
Q 44.484375 40.625 41.703125 44.40625 
Q 38.921875 48.1875 33.109375 48.1875 
Q 26.21875 48.1875 22.15625 43.53125 
Q 18.109375 38.875 18.109375 30.90625 
L 18.109375 0 
L 9.078125 0 
L 9.078125 54.6875 
L 18.109375 54.6875 
L 18.109375 46.1875 
Q 21.1875 51.21875 25.484375 53.609375 
Q 29.78125 56 35.6875 56 
Q 41.65625 56 45.828125 52.96875 
Q 50 49.953125 52 44.1875 
z
" id="DejaVuSans-109"/>
       </defs>
       <use xlink:href="#DejaVuSans-97"/>
       <use x="61.279297" xlink:href="#DejaVuSans-102"/>
       <use x="96.484375" xlink:href="#DejaVuSans-108"/>
       <use x="124.267578" xlink:href="#DejaVuSans-95"/>
       <use x="174.267578" xlink:href="#DejaVuSans-113"/>
       <use x="237.744141" xlink:href="#DejaVuSans-101"/>
       <use x="299.267578" xlink:href="#DejaVuSans-109"/>
       <use x="396.679688" xlink:href="#DejaVuSans-117"/>
      </g>
     </g>
    </g>
    <g id="xtick_3">
     <g id="line2d_3">
      <g>
       <use style="stroke:#000000;stroke-width:0.8;" x="231.888125" xlink:href="#m017014ff36" y="288.430125"/>
      </g>
     </g>
     <g id="text_3">
      <!-- aflplusplus_hier_coe -->
      <g transform="translate(143.306958 352.472284)rotate(-30)scale(0.1 -0.1)">
       <defs>
        <path d="M 54.890625 33.015625 
L 54.890625 0 
L 45.90625 0 
L 45.90625 32.71875 
Q 45.90625 40.484375 42.875 44.328125 
Q 39.84375 48.1875 33.796875 48.1875 
Q 26.515625 48.1875 22.3125 43.546875 
Q 18.109375 38.921875 18.109375 30.90625 
L 18.109375 0 
L 9.078125 0 
L 9.078125 75.984375 
L 18.109375 75.984375 
L 18.109375 46.1875 
Q 21.34375 51.125 25.703125 53.5625 
Q 30.078125 56 35.796875 56 
Q 45.21875 56 50.046875 50.171875 
Q 54.890625 44.34375 54.890625 33.015625 
z
" id="DejaVuSans-104"/>
        <path d="M 9.421875 54.6875 
L 18.40625 54.6875 
L 18.40625 0 
L 9.421875 0 
z
M 9.421875 75.984375 
L 18.40625 75.984375 
L 18.40625 64.59375 
L 9.421875 64.59375 
z
" id="DejaVuSans-105"/>
        <path d="M 41.109375 46.296875 
Q 39.59375 47.171875 37.8125 47.578125 
Q 36.03125 48 33.890625 48 
Q 26.265625 48 22.1875 43.046875 
Q 18.109375 38.09375 18.109375 28.8125 
L 18.109375 0 
L 9.078125 0 
L 9.078125 54.6875 
L 18.109375 54.6875 
L 18.109375 46.1875 
Q 20.953125 51.171875 25.484375 53.578125 
Q 30.03125 56 36.53125 56 
Q 37.453125 56 38.578125 55.875 
Q 39.703125 55.765625 41.0625 55.515625 
z
" id="DejaVuSans-114"/>
        <path d="M 48.78125 52.59375 
L 48.78125 44.1875 
Q 44.96875 46.296875 41.140625 47.34375 
Q 37.3125 48.390625 33.40625 48.390625 
Q 24.65625 48.390625 19.8125 42.84375 
Q 14.984375 37.3125 14.984375 27.296875 
Q 14.984375 17.28125 19.8125 11.734375 
Q 24.65625 6.203125 33.40625 6.203125 
Q 37.3125 6.203125 41.140625 7.25 
Q 44.96875 8.296875 48.78125 10.40625 
L 48.78125 2.09375 
Q 45.015625 0.34375 40.984375 -0.53125 
Q 36.96875 -1.421875 32.421875 -1.421875 
Q 20.0625 -1.421875 12.78125 6.34375 
Q 5.515625 14.109375 5.515625 27.296875 
Q 5.515625 40.671875 12.859375 48.328125 
Q 20.21875 56 33.015625 56 
Q 37.15625 56 41.109375 55.140625 
Q 45.0625 54.296875 48.78125 52.59375 
z
" id="DejaVuSans-99"/>
        <path d="M 30.609375 48.390625 
Q 23.390625 48.390625 19.1875 42.75 
Q 14.984375 37.109375 14.984375 27.296875 
Q 14.984375 17.484375 19.15625 11.84375 
Q 23.34375 6.203125 30.609375 6.203125 
Q 37.796875 6.203125 41.984375 11.859375 
Q 46.1875 17.53125 46.1875 27.296875 
Q 46.1875 37.015625 41.984375 42.703125 
Q 37.796875 48.390625 30.609375 48.390625 
z
M 30.609375 56 
Q 42.328125 56 49.015625 48.375 
Q 55.71875 40.765625 55.71875 27.296875 
Q 55.71875 13.875 49.015625 6.21875 
Q 42.328125 -1.421875 30.609375 -1.421875 
Q 18.84375 -1.421875 12.171875 6.21875 
Q 5.515625 13.875 5.515625 27.296875 
Q 5.515625 40.765625 12.171875 48.375 
Q 18.84375 56 30.609375 56 
z
" id="DejaVuSans-111"/>
       </defs>
       <use xlink:href="#DejaVuSans-97"/>
       <use x="61.279297" xlink:href="#DejaVuSans-102"/>
       <use x="96.484375" xlink:href="#DejaVuSans-108"/>
       <use x="124.267578" xlink:href="#DejaVuSans-112"/>
       <use x="187.744141" xlink:href="#DejaVuSans-108"/>
       <use x="215.527344" xlink:href="#DejaVuSans-117"/>
       <use x="278.90625" xlink:href="#DejaVuSans-115"/>
       <use x="331.005859" xlink:href="#DejaVuSans-112"/>
       <use x="394.482422" xlink:href="#DejaVuSans-108"/>
       <use x="422.265625" xlink:href="#DejaVuSans-117"/>
       <use x="485.644531" xlink:href="#DejaVuSans-115"/>
       <use x="537.744141" xlink:href="#DejaVuSans-95"/>
       <use x="587.744141" xlink:href="#DejaVuSans-104"/>
       <use x="651.123047" xlink:href="#DejaVuSans-105"/>
       <use x="678.90625" xlink:href="#DejaVuSans-101"/>
       <use x="740.429688" xlink:href="#DejaVuSans-114"/>
       <use x="781.542969" xlink:href="#DejaVuSans-95"/>
       <use x="831.542969" xlink:href="#DejaVuSans-99"/>
       <use x="886.523438" xlink:href="#DejaVuSans-111"/>
       <use x="947.705078" xlink:href="#DejaVuSans-101"/>
      </g>
     </g>
    </g>
    <g id="xtick_4">
     <g id="line2d_4">
      <g>
       <use style="stroke:#000000;stroke-width:0.8;" x="303.312125" xlink:href="#m017014ff36" y="288.430125"/>
      </g>
     </g>
     <g id="text_4">
      <!-- aflplusplus_hier_fast -->
      <g transform="translate(213.858167 352.97619)rotate(-30)scale(0.1 -0.1)">
       <defs>
        <path d="M 18.3125 70.21875 
L 18.3125 54.6875 
L 36.8125 54.6875 
L 36.8125 47.703125 
L 18.3125 47.703125 
L 18.3125 18.015625 
Q 18.3125 11.328125 20.140625 9.421875 
Q 21.96875 7.515625 27.59375 7.515625 
L 36.8125 7.515625 
L 36.8125 0 
L 27.59375 0 
Q 17.1875 0 13.234375 3.875 
Q 9.28125 7.765625 9.28125 18.015625 
L 9.28125 47.703125 
L 2.6875 47.703125 
L 2.6875 54.6875 
L 9.28125 54.6875 
L 9.28125 70.21875 
z
" id="DejaVuSans-116"/>
       </defs>
       <use xlink:href="#DejaVuSans-97"/>
       <use x="61.279297" xlink:href="#DejaVuSans-102"/>
       <use x="96.484375" xlink:href="#DejaVuSans-108"/>
       <use x="124.267578" xlink:href="#DejaVuSans-112"/>
       <use x="187.744141" xlink:href="#DejaVuSans-108"/>
       <use x="215.527344" xlink:href="#DejaVuSans-117"/>
       <use x="278.90625" xlink:href="#DejaVuSans-115"/>
       <use x="331.005859" xlink:href="#DejaVuSans-112"/>
       <use x="394.482422" xlink:href="#DejaVuSans-108"/>
       <use x="422.265625" xlink:href="#DejaVuSans-117"/>
       <use x="485.644531" xlink:href="#DejaVuSans-115"/>
       <use x="537.744141" xlink:href="#DejaVuSans-95"/>
       <use x="587.744141" xlink:href="#DejaVuSans-104"/>
       <use x="651.123047" xlink:href="#DejaVuSans-105"/>
       <use x="678.90625" xlink:href="#DejaVuSans-101"/>
       <use x="740.429688" xlink:href="#DejaVuSans-114"/>
       <use x="781.542969" xlink:href="#DejaVuSans-95"/>
       <use x="831.542969" xlink:href="#DejaVuSans-102"/>
       <use x="866.748047" xlink:href="#DejaVuSans-97"/>
       <use x="928.027344" xlink:href="#DejaVuSans-115"/>
       <use x="980.126953" xlink:href="#DejaVuSans-116"/>
      </g>
     </g>
    </g>
    <g id="xtick_5">
     <g id="line2d_5">
      <g>
       <use style="stroke:#000000;stroke-width:0.8;" x="374.736125" xlink:href="#m017014ff36" y="288.430125"/>
      </g>
     </g>
     <g id="text_5">
      <!-- aflplusplus_hier -->
      <g transform="translate(305.874627 341.087127)rotate(-30)scale(0.1 -0.1)">
       <use xlink:href="#DejaVuSans-97"/>
       <use x="61.279297" xlink:href="#DejaVuSans-102"/>
       <use x="96.484375" xlink:href="#DejaVuSans-108"/>
       <use x="124.267578" xlink:href="#DejaVuSans-112"/>
       <use x="187.744141" xlink:href="#DejaVuSans-108"/>
       <use x="215.527344" xlink:href="#DejaVuSans-117"/>
       <use x="278.90625" xlink:href="#DejaVuSans-115"/>
       <use x="331.005859" xlink:href="#DejaVuSans-112"/>
       <use x="394.482422" xlink:href="#DejaVuSans-108"/>
       <use x="422.265625" xlink:href="#DejaVuSans-117"/>
       <use x="485.644531" xlink:href="#DejaVuSans-115"/>
       <use x="537.744141" xlink:href="#DejaVuSans-95"/>
       <use x="587.744141" xlink:href="#DejaVuSans-104"/>
       <use x="651.123047" xlink:href="#DejaVuSans-105"/>
       <use x="678.90625" xlink:href="#DejaVuSans-101"/>
       <use x="740.429688" xlink:href="#DejaVuSans-114"/>
      </g>
     </g>
    </g>
    <g id="text_6">
     <!-- Fuzzer (highest median coverage on the left) -->
     <g transform="translate(119.270156 366.616553)scale(0.1 -0.1)">
      <defs>
       <path d="M 9.8125 72.90625 
L 51.703125 72.90625 
L 51.703125 64.59375 
L 19.671875 64.59375 
L 19.671875 43.109375 
L 48.578125 43.109375 
L 48.578125 34.8125 
L 19.671875 34.8125 
L 19.671875 0 
L 9.8125 0 
z
" id="DejaVuSans-70"/>
       <path d="M 5.515625 54.6875 
L 48.1875 54.6875 
L 48.1875 46.484375 
L 14.40625 7.171875 
L 48.1875 7.171875 
L 48.1875 0 
L 4.296875 0 
L 4.296875 8.203125 
L 38.09375 47.515625 
L 5.515625 47.515625 
z
" id="DejaVuSans-122"/>
       <path id="DejaVuSans-32"/>
       <path d="M 31 75.875 
Q 24.46875 64.65625 21.28125 53.65625 
Q 18.109375 42.671875 18.109375 31.390625 
Q 18.109375 20.125 21.3125 9.0625 
Q 24.515625 -2 31 -13.1875 
L 23.1875 -13.1875 
Q 15.875 -1.703125 12.234375 9.375 
Q 8.59375 20.453125 8.59375 31.390625 
Q 8.59375 42.28125 12.203125 53.3125 
Q 15.828125 64.359375 23.1875 75.875 
z
" id="DejaVuSans-40"/>
       <path d="M 45.40625 27.984375 
Q 45.40625 37.75 41.375 43.109375 
Q 37.359375 48.484375 30.078125 48.484375 
Q 22.859375 48.484375 18.828125 43.109375 
Q 14.796875 37.75 14.796875 27.984375 
Q 14.796875 18.265625 18.828125 12.890625 
Q 22.859375 7.515625 30.078125 7.515625 
Q 37.359375 7.515625 41.375 12.890625 
Q 45.40625 18.265625 45.40625 27.984375 
z
M 54.390625 6.78125 
Q 54.390625 -7.171875 48.1875 -13.984375 
Q 42 -20.796875 29.203125 -20.796875 
Q 24.46875 -20.796875 20.265625 -20.09375 
Q 16.0625 -19.390625 12.109375 -17.921875 
L 12.109375 -9.1875 
Q 16.0625 -11.328125 19.921875 -12.34375 
Q 23.78125 -13.375 27.78125 -13.375 
Q 36.625 -13.375 41.015625 -8.765625 
Q 45.40625 -4.15625 45.40625 5.171875 
L 45.40625 9.625 
Q 42.625 4.78125 38.28125 2.390625 
Q 33.9375 0 27.875 0 
Q 17.828125 0 11.671875 7.65625 
Q 5.515625 15.328125 5.515625 27.984375 
Q 5.515625 40.671875 11.671875 48.328125 
Q 17.828125 56 27.875 56 
Q 33.9375 56 38.28125 53.609375 
Q 42.625 51.21875 45.40625 46.390625 
L 45.40625 54.6875 
L 54.390625 54.6875 
z
" id="DejaVuSans-103"/>
       <path d="M 45.40625 46.390625 
L 45.40625 75.984375 
L 54.390625 75.984375 
L 54.390625 0 
L 45.40625 0 
L 45.40625 8.203125 
Q 42.578125 3.328125 38.25 0.953125 
Q 33.9375 -1.421875 27.875 -1.421875 
Q 17.96875 -1.421875 11.734375 6.484375 
Q 5.515625 14.40625 5.515625 27.296875 
Q 5.515625 40.1875 11.734375 48.09375 
Q 17.96875 56 27.875 56 
Q 33.9375 56 38.25 53.625 
Q 42.578125 51.265625 45.40625 46.390625 
z
M 14.796875 27.296875 
Q 14.796875 17.390625 18.875 11.75 
Q 22.953125 6.109375 30.078125 6.109375 
Q 37.203125 6.109375 41.296875 11.75 
Q 45.40625 17.390625 45.40625 27.296875 
Q 45.40625 37.203125 41.296875 42.84375 
Q 37.203125 48.484375 30.078125 48.484375 
Q 22.953125 48.484375 18.875 42.84375 
Q 14.796875 37.203125 14.796875 27.296875 
z
" id="DejaVuSans-100"/>
       <path d="M 54.890625 33.015625 
L 54.890625 0 
L 45.90625 0 
L 45.90625 32.71875 
Q 45.90625 40.484375 42.875 44.328125 
Q 39.84375 48.1875 33.796875 48.1875 
Q 26.515625 48.1875 22.3125 43.546875 
Q 18.109375 38.921875 18.109375 30.90625 
L 18.109375 0 
L 9.078125 0 
L 9.078125 54.6875 
L 18.109375 54.6875 
L 18.109375 46.1875 
Q 21.34375 51.125 25.703125 53.5625 
Q 30.078125 56 35.796875 56 
Q 45.21875 56 50.046875 50.171875 
Q 54.890625 44.34375 54.890625 33.015625 
z
" id="DejaVuSans-110"/>
       <path d="M 2.984375 54.6875 
L 12.5 54.6875 
L 29.59375 8.796875 
L 46.6875 54.6875 
L 56.203125 54.6875 
L 35.6875 0 
L 23.484375 0 
z
" id="DejaVuSans-118"/>
       <path d="M 8.015625 75.875 
L 15.828125 75.875 
Q 23.140625 64.359375 26.78125 53.3125 
Q 30.421875 42.28125 30.421875 31.390625 
Q 30.421875 20.453125 26.78125 9.375 
Q 23.140625 -1.703125 15.828125 -13.1875 
L 8.015625 -13.1875 
Q 14.5 -2 17.703125 9.0625 
Q 20.90625 20.125 20.90625 31.390625 
Q 20.90625 42.671875 17.703125 53.65625 
Q 14.5 64.65625 8.015625 75.875 
z
" id="DejaVuSans-41"/>
      </defs>
      <use xlink:href="#DejaVuSans-70"/>
      <use x="52.019531" xlink:href="#DejaVuSans-117"/>
      <use x="115.398438" xlink:href="#DejaVuSans-122"/>
      <use x="167.888672" xlink:href="#DejaVuSans-122"/>
      <use x="220.378906" xlink:href="#DejaVuSans-101"/>
      <use x="281.902344" xlink:href="#DejaVuSans-114"/>
      <use x="323.015625" xlink:href="#DejaVuSans-32"/>
      <use x="354.802734" xlink:href="#DejaVuSans-40"/>
      <use x="393.816406" xlink:href="#DejaVuSans-104"/>
      <use x="457.195312" xlink:href="#DejaVuSans-105"/>
      <use x="484.978516" xlink:href="#DejaVuSans-103"/>
      <use x="548.455078" xlink:href="#DejaVuSans-104"/>
      <use x="611.833984" xlink:href="#DejaVuSans-101"/>
      <use x="673.357422" xlink:href="#DejaVuSans-115"/>
      <use x="725.457031" xlink:href="#DejaVuSans-116"/>
      <use x="764.666016" xlink:href="#DejaVuSans-32"/>
      <use x="796.453125" xlink:href="#DejaVuSans-109"/>
      <use x="893.865234" xlink:href="#DejaVuSans-101"/>
      <use x="955.388672" xlink:href="#DejaVuSans-100"/>
      <use x="1018.865234" xlink:href="#DejaVuSans-105"/>
      <use x="1046.648438" xlink:href="#DejaVuSans-97"/>
      <use x="1107.927734" xlink:href="#DejaVuSans-110"/>
      <use x="1171.306641" xlink:href="#DejaVuSans-32"/>
      <use x="1203.09375" xlink:href="#DejaVuSans-99"/>
      <use x="1258.074219" xlink:href="#DejaVuSans-111"/>
      <use x="1319.255859" xlink:href="#DejaVuSans-118"/>
      <use x="1378.435547" xlink:href="#DejaVuSans-101"/>
      <use x="1439.958984" xlink:href="#DejaVuSans-114"/>
      <use x="1481.072266" xlink:href="#DejaVuSans-97"/>
      <use x="1542.351562" xlink:href="#DejaVuSans-103"/>
      <use x="1605.828125" xlink:href="#DejaVuSans-101"/>
      <use x="1667.351562" xlink:href="#DejaVuSans-32"/>
      <use x="1699.138672" xlink:href="#DejaVuSans-111"/>
      <use x="1760.320312" xlink:href="#DejaVuSans-110"/>
      <use x="1823.699219" xlink:href="#DejaVuSans-32"/>
      <use x="1855.486328" xlink:href="#DejaVuSans-116"/>
      <use x="1894.695312" xlink:href="#DejaVuSans-104"/>
      <use x="1958.074219" xlink:href="#DejaVuSans-101"/>
      <use x="2019.597656" xlink:href="#DejaVuSans-32"/>
      <use x="2051.384766" xlink:href="#DejaVuSans-108"/>
      <use x="2079.167969" xlink:href="#DejaVuSans-101"/>
      <use x="2140.691406" xlink:href="#DejaVuSans-102"/>
      <use x="2174.146484" xlink:href="#DejaVuSans-116"/>
      <use x="2213.355469" xlink:href="#DejaVuSans-41"/>
     </g>
    </g>
   </g>
   <g id="matplotlib.axis_2">
    <g id="ytick_1">
     <g id="line2d_6">
      <defs>
       <path d="M 0 0 
L -3.5 0 
" id="m26a6b21615" style="stroke:#000000;stroke-width:0.8;"/>
      </defs>
      <g>
       <use style="stroke:#000000;stroke-width:0.8;" x="53.328125" xlink:href="#m26a6b21615" y="277.963646"/>
      </g>
     </g>
     <g id="text_7">
      <!-- 1000 -->
      <g transform="translate(20.878125 281.762864)scale(0.1 -0.1)">
       <defs>
        <path d="M 12.40625 8.296875 
L 28.515625 8.296875 
L 28.515625 63.921875 
L 10.984375 60.40625 
L 10.984375 69.390625 
L 28.421875 72.90625 
L 38.28125 72.90625 
L 38.28125 8.296875 
L 54.390625 8.296875 
L 54.390625 0 
L 12.40625 0 
z
" id="DejaVuSans-49"/>
        <path d="M 31.78125 66.40625 
Q 24.171875 66.40625 20.328125 58.90625 
Q 16.5 51.421875 16.5 36.375 
Q 16.5 21.390625 20.328125 13.890625 
Q 24.171875 6.390625 31.78125 6.390625 
Q 39.453125 6.390625 43.28125 13.890625 
Q 47.125 21.390625 47.125 36.375 
Q 47.125 51.421875 43.28125 58.90625 
Q 39.453125 66.40625 31.78125 66.40625 
z
M 31.78125 74.21875 
Q 44.046875 74.21875 50.515625 64.515625 
Q 56.984375 54.828125 56.984375 36.375 
Q 56.984375 17.96875 50.515625 8.265625 
Q 44.046875 -1.421875 31.78125 -1.421875 
Q 19.53125 -1.421875 13.0625 8.265625 
Q 6.59375 17.96875 6.59375 36.375 
Q 6.59375 54.828125 13.0625 64.515625 
Q 19.53125 74.21875 31.78125 74.21875 
z
" id="DejaVuSans-48"/>
       </defs>
       <use xlink:href="#DejaVuSans-49"/>
       <use x="63.623047" xlink:href="#DejaVuSans-48"/>
       <use x="127.246094" xlink:href="#DejaVuSans-48"/>
       <use x="190.869141" xlink:href="#DejaVuSans-48"/>
      </g>
     </g>
    </g>
    <g id="ytick_2">
     <g id="line2d_7">
      <g>
       <use style="stroke:#000000;stroke-width:0.8;" x="53.328125" xlink:href="#m26a6b21615" y="248.390134"/>
      </g>
     </g>
     <g id="text_8">
      <!-- 1250 -->
      <g transform="translate(20.878125 252.189353)scale(0.1 -0.1)">
       <defs>
        <path d="M 19.1875 8.296875 
L 53.609375 8.296875 
L 53.609375 0 
L 7.328125 0 
L 7.328125 8.296875 
Q 12.9375 14.109375 22.625 23.890625 
Q 32.328125 33.6875 34.8125 36.53125 
Q 39.546875 41.84375 41.421875 45.53125 
Q 43.3125 49.21875 43.3125 52.78125 
Q 43.3125 58.59375 39.234375 62.25 
Q 35.15625 65.921875 28.609375 65.921875 
Q 23.96875 65.921875 18.8125 64.3125 
Q 13.671875 62.703125 7.8125 59.421875 
L 7.8125 69.390625 
Q 13.765625 71.78125 18.9375 73 
Q 24.125 74.21875 28.421875 74.21875 
Q 39.75 74.21875 46.484375 68.546875 
Q 53.21875 62.890625 53.21875 53.421875 
Q 53.21875 48.921875 51.53125 44.890625 
Q 49.859375 40.875 45.40625 35.40625 
Q 44.1875 33.984375 37.640625 27.21875 
Q 31.109375 20.453125 19.1875 8.296875 
z
" id="DejaVuSans-50"/>
        <path d="M 10.796875 72.90625 
L 49.515625 72.90625 
L 49.515625 64.59375 
L 19.828125 64.59375 
L 19.828125 46.734375 
Q 21.96875 47.46875 24.109375 47.828125 
Q 26.265625 48.1875 28.421875 48.1875 
Q 40.625 48.1875 47.75 41.5 
Q 54.890625 34.8125 54.890625 23.390625 
Q 54.890625 11.625 47.5625 5.09375 
Q 40.234375 -1.421875 26.90625 -1.421875 
Q 22.3125 -1.421875 17.546875 -0.640625 
Q 12.796875 0.140625 7.71875 1.703125 
L 7.71875 11.625 
Q 12.109375 9.234375 16.796875 8.0625 
Q 21.484375 6.890625 26.703125 6.890625 
Q 35.15625 6.890625 40.078125 11.328125 
Q 45.015625 15.765625 45.015625 23.390625 
Q 45.015625 31 40.078125 35.4375 
Q 35.15625 39.890625 26.703125 39.890625 
Q 22.75 39.890625 18.8125 39.015625 
Q 14.890625 38.140625 10.796875 36.28125 
z
" id="DejaVuSans-53"/>
       </defs>
       <use xlink:href="#DejaVuSans-49"/>
       <use x="63.623047" xlink:href="#DejaVuSans-50"/>
       <use x="127.246094" xlink:href="#DejaVuSans-53"/>
       <use x="190.869141" xlink:href="#DejaVuSans-48"/>
      </g>
     </g>
    </g>
    <g id="ytick_3">
     <g id="line2d_8">
      <g>
       <use style="stroke:#000000;stroke-width:0.8;" x="53.328125" xlink:href="#m26a6b21615" y="218.816623"/>
      </g>
     </g>
     <g id="text_9">
      <!-- 1500 -->
      <g transform="translate(20.878125 222.615841)scale(0.1 -0.1)">
       <use xlink:href="#DejaVuSans-49"/>
       <use x="63.623047" xlink:href="#DejaVuSans-53"/>
       <use x="127.246094" xlink:href="#DejaVuSans-48"/>
       <use x="190.869141" xlink:href="#DejaVuSans-48"/>
      </g>
     </g>
    </g>
    <g id="ytick_4">
     <g id="line2d_9">
      <g>
       <use style="stroke:#000000;stroke-width:0.8;" x="53.328125" xlink:href="#m26a6b21615" y="189.243111"/>
      </g>
     </g>
     <g id="text_10">
      <!-- 1750 -->
      <g transform="translate(20.878125 193.04233)scale(0.1 -0.1)">
       <defs>
        <path d="M 8.203125 72.90625 
L 55.078125 72.90625 
L 55.078125 68.703125 
L 28.609375 0 
L 18.3125 0 
L 43.21875 64.59375 
L 8.203125 64.59375 
z
" id="DejaVuSans-55"/>
       </defs>
       <use xlink:href="#DejaVuSans-49"/>
       <use x="63.623047" xlink:href="#DejaVuSans-55"/>
       <use x="127.246094" xlink:href="#DejaVuSans-53"/>
       <use x="190.869141" xlink:href="#DejaVuSans-48"/>
      </g>
     </g>
    </g>
    <g id="ytick_5">
     <g id="line2d_10">
      <g>
       <use style="stroke:#000000;stroke-width:0.8;" x="53.328125" xlink:href="#m26a6b21615" y="159.6696"/>
      </g>
     </g>
     <g id="text_11">
      <!-- 2000 -->
      <g transform="translate(20.878125 163.468818)scale(0.1 -0.1)">
       <use xlink:href="#DejaVuSans-50"/>
       <use x="63.623047" xlink:href="#DejaVuSans-48"/>
       <use x="127.246094" xlink:href="#DejaVuSans-48"/>
       <use x="190.869141" xlink:href="#DejaVuSans-48"/>
      </g>
     </g>
    </g>
    <g id="ytick_6">
     <g id="line2d_11">
      <g>
       <use style="stroke:#000000;stroke-width:0.8;" x="53.328125" xlink:href="#m26a6b21615" y="130.096088"/>
      </g>
     </g>
     <g id="text_12">
      <!-- 2250 -->
      <g transform="translate(20.878125 133.895307)scale(0.1 -0.1)">
       <use xlink:href="#DejaVuSans-50"/>
       <use x="63.623047" xlink:href="#DejaVuSans-50"/>
       <use x="127.246094" xlink:href="#DejaVuSans-53"/>
       <use x="190.869141" xlink:href="#DejaVuSans-48"/>
      </g>
     </g>
    </g>
    <g id="ytick_7">
     <g id="line2d_12">
      <g>
       <use style="stroke:#000000;stroke-width:0.8;" x="53.328125" xlink:href="#m26a6b21615" y="100.522577"/>
      </g>
     </g>
     <g id="text_13">
      <!-- 2500 -->
      <g transform="translate(20.878125 104.321796)scale(0.1 -0.1)">
       <use xlink:href="#DejaVuSans-50"/>
       <use x="63.623047" xlink:href="#DejaVuSans-53"/>
       <use x="127.246094" xlink:href="#DejaVuSans-48"/>
       <use x="190.869141" xlink:href="#DejaVuSans-48"/>
      </g>
     </g>
    </g>
    <g id="ytick_8">
     <g id="line2d_13">
      <g>
       <use style="stroke:#000000;stroke-width:0.8;" x="53.328125" xlink:href="#m26a6b21615" y="70.949065"/>
      </g>
     </g>
     <g id="text_14">
      <!-- 2750 -->
      <g transform="translate(20.878125 74.748284)scale(0.1 -0.1)">
       <use xlink:href="#DejaVuSans-50"/>
       <use x="63.623047" xlink:href="#DejaVuSans-55"/>
       <use x="127.246094" xlink:href="#DejaVuSans-53"/>
       <use x="190.869141" xlink:href="#DejaVuSans-48"/>
      </g>
     </g>
    </g>
    <g id="ytick_9">
     <g id="line2d_14">
      <g>
       <use style="stroke:#000000;stroke-width:0.8;" x="53.328125" xlink:href="#m26a6b21615" y="41.375554"/>
      </g>
     </g>
     <g id="text_15">
      <!-- 3000 -->
      <g transform="translate(20.878125 45.174773)scale(0.1 -0.1)">
       <defs>
        <path d="M 40.578125 39.3125 
Q 47.65625 37.796875 51.625 33 
Q 55.609375 28.21875 55.609375 21.1875 
Q 55.609375 10.40625 48.1875 4.484375 
Q 40.765625 -1.421875 27.09375 -1.421875 
Q 22.515625 -1.421875 17.65625 -0.515625 
Q 12.796875 0.390625 7.625 2.203125 
L 7.625 11.71875 
Q 11.71875 9.328125 16.59375 8.109375 
Q 21.484375 6.890625 26.8125 6.890625 
Q 36.078125 6.890625 40.9375 10.546875 
Q 45.796875 14.203125 45.796875 21.1875 
Q 45.796875 27.640625 41.28125 31.265625 
Q 36.765625 34.90625 28.71875 34.90625 
L 20.21875 34.90625 
L 20.21875 43.015625 
L 29.109375 43.015625 
Q 36.375 43.015625 40.234375 45.921875 
Q 44.09375 48.828125 44.09375 54.296875 
Q 44.09375 59.90625 40.109375 62.90625 
Q 36.140625 65.921875 28.71875 65.921875 
Q 24.65625 65.921875 20.015625 65.03125 
Q 15.375 64.15625 9.8125 62.3125 
L 9.8125 71.09375 
Q 15.4375 72.65625 20.34375 73.4375 
Q 25.25 74.21875 29.59375 74.21875 
Q 40.828125 74.21875 47.359375 69.109375 
Q 53.90625 64.015625 53.90625 55.328125 
Q 53.90625 49.265625 50.4375 45.09375 
Q 46.96875 40.921875 40.578125 39.3125 
z
" id="DejaVuSans-51"/>
       </defs>
       <use xlink:href="#DejaVuSans-51"/>
       <use x="63.623047" xlink:href="#DejaVuSans-48"/>
       <use x="127.246094" xlink:href="#DejaVuSans-48"/>
       <use x="190.869141" xlink:href="#DejaVuSans-48"/>
      </g>
     </g>
    </g>
    <g id="text_16">
     <!-- Reached region coverage -->
     <g transform="translate(14.798438 219.136625)rotate(-90)scale(0.1 -0.1)">
      <defs>
       <path d="M 44.390625 34.1875 
Q 47.5625 33.109375 50.5625 29.59375 
Q 53.5625 26.078125 56.59375 19.921875 
L 66.609375 0 
L 56 0 
L 46.6875 18.703125 
Q 43.0625 26.03125 39.671875 28.421875 
Q 36.28125 30.8125 30.421875 30.8125 
L 19.671875 30.8125 
L 19.671875 0 
L 9.8125 0 
L 9.8125 72.90625 
L 32.078125 72.90625 
Q 44.578125 72.90625 50.734375 67.671875 
Q 56.890625 62.453125 56.890625 51.90625 
Q 56.890625 45.015625 53.6875 40.46875 
Q 50.484375 35.9375 44.390625 34.1875 
z
M 19.671875 64.796875 
L 19.671875 38.921875 
L 32.078125 38.921875 
Q 39.203125 38.921875 42.84375 42.21875 
Q 46.484375 45.515625 46.484375 51.90625 
Q 46.484375 58.296875 42.84375 61.546875 
Q 39.203125 64.796875 32.078125 64.796875 
z
" id="DejaVuSans-82"/>
      </defs>
      <use xlink:href="#DejaVuSans-82"/>
      <use x="64.982422" xlink:href="#DejaVuSans-101"/>
      <use x="126.505859" xlink:href="#DejaVuSans-97"/>
      <use x="187.785156" xlink:href="#DejaVuSans-99"/>
      <use x="242.765625" xlink:href="#DejaVuSans-104"/>
      <use x="306.144531" xlink:href="#DejaVuSans-101"/>
      <use x="367.667969" xlink:href="#DejaVuSans-100"/>
      <use x="431.144531" xlink:href="#DejaVuSans-32"/>
      <use x="462.931641" xlink:href="#DejaVuSans-114"/>
      <use x="501.794922" xlink:href="#DejaVuSans-101"/>
      <use x="563.318359" xlink:href="#DejaVuSans-103"/>
      <use x="626.794922" xlink:href="#DejaVuSans-105"/>
      <use x="654.578125" xlink:href="#DejaVuSans-111"/>
      <use x="715.759766" xlink:href="#DejaVuSans-110"/>
      <use x="779.138672" xlink:href="#DejaVuSans-32"/>
      <use x="810.925781" xlink:href="#DejaVuSans-99"/>
      <use x="865.90625" xlink:href="#DejaVuSans-111"/>
      <use x="927.087891" xlink:href="#DejaVuSans-118"/>
      <use x="986.267578" xlink:href="#DejaVuSans-101"/>
      <use x="1047.791016" xlink:href="#DejaVuSans-114"/>
      <use x="1088.904297" xlink:href="#DejaVuSans-97"/>
      <use x="1150.183594" xlink:href="#DejaVuSans-103"/>
      <use x="1213.660156" xlink:href="#DejaVuSans-101"/>
     </g>
    </g>
   </g>
   <g id="line2d_15">
    <path clip-path="url(#pa077821c49)" d="M 89.040125 70.475889 
L 89.040125 48.473197 
" style="fill:none;stroke:#3f3f3f;stroke-linecap:square;stroke-width:1.5;"/>
   </g>
   <g id="line2d_16">
    <path clip-path="url(#pa077821c49)" d="M 89.040125 62.491041 
L 89.040125 53.352826 
" style="fill:none;stroke:#3f3f3f;stroke-linecap:square;stroke-width:4.5;"/>
   </g>
   <g id="line2d_17">
    <path clip-path="url(#pa077821c49)" d="M 160.464125 268.381828 
L 160.464125 266.844005 
" style="fill:none;stroke:#3f3f3f;stroke-linecap:square;stroke-width:1.5;"/>
   </g>
   <g id="line2d_18">
    <path clip-path="url(#pa077821c49)" d="M 160.464125 267.849505 
L 160.464125 266.932726 
" style="fill:none;stroke:#3f3f3f;stroke-linecap:square;stroke-width:4.5;"/>
   </g>
   <g id="line2d_19">
    <path clip-path="url(#pa077821c49)" d="M 231.888125 268.14524 
L 231.888125 266.015947 
" style="fill:none;stroke:#3f3f3f;stroke-linecap:square;stroke-width:1.5;"/>
   </g>
   <g id="line2d_20">
    <path clip-path="url(#pa077821c49)" d="M 231.888125 268.056519 
L 231.888125 266.725711 
" style="fill:none;stroke:#3f3f3f;stroke-linecap:square;stroke-width:4.5;"/>
   </g>
   <g id="line2d_21">
    <path clip-path="url(#pa077821c49)" d="M 303.312125 268.263534 
L 303.312125 266.962299 
" style="fill:none;stroke:#3f3f3f;stroke-linecap:square;stroke-width:1.5;"/>
   </g>
   <g id="line2d_22">
    <path clip-path="url(#pa077821c49)" d="M 303.312125 268.263534 
L 303.312125 266.962299 
" style="fill:none;stroke:#3f3f3f;stroke-linecap:square;stroke-width:4.5;"/>
   </g>
   <g id="line2d_23">
    <path clip-path="url(#pa077821c49)" d="M 374.736125 268.263534 
L 374.736125 268.026946 
" style="fill:none;stroke:#3f3f3f;stroke-linecap:square;stroke-width:1.5;"/>
   </g>
   <g id="line2d_24">
    <path clip-path="url(#pa077821c49)" d="M 374.736125 268.204387 
L 374.736125 268.086093 
" style="fill:none;stroke:#3f3f3f;stroke-linecap:square;stroke-width:4.5;"/>
   </g>
   <g id="patch_3">
    <path d="M 53.328125 277.963646 
L 53.328125 41.375554 
" style="fill:none;stroke:#000000;stroke-linecap:square;stroke-linejoin:miter;stroke-width:0.8;"/>
   </g>
   <g id="patch_4">
    <path d="M 89.040125 288.430125 
L 374.736125 288.430125 
" style="fill:none;stroke:#000000;stroke-linecap:square;stroke-linejoin:miter;stroke-width:0.8;"/>
   </g>
   <g id="PathCollection_1">
    <defs>
     <path d="M 0 1.5 
C 0.397805 1.5 0.77937 1.341951 1.06066 1.06066 
C 1.341951 0.77937 1.5 0.397805 1.5 0 
C 1.5 -0.397805 1.341951 -0.77937 1.06066 -1.06066 
C 0.77937 -1.341951 0.397805 -1.5 0 -1.5 
C -0.397805 -1.5 -0.77937 -1.341951 -1.06066 -1.06066 
C -1.341951 -0.77937 -1.5 -0.397805 -1.5 0 
C -1.5 0.397805 -1.341951 0.77937 -1.06066 1.06066 
C -0.77937 1.341951 -0.397805 1.5 0 1.5 
z
" id="m9c6915548b" style="stroke:#3f3f3f;"/>
    </defs>
    <g clip-path="url(#pa077821c49)">
     <use style="fill:#ffffff;stroke:#3f3f3f;" x="89.040125" xlink:href="#m9c6915548b" y="57.404397"/>
    </g>
   </g>
   <g id="PathCollection_2">
    <g clip-path="url(#pa077821c49)">
     <use style="fill:#ffffff;stroke:#3f3f3f;" x="160.464125" xlink:href="#m9c6915548b" y="267.317181"/>
    </g>
   </g>
   <g id="PathCollection_3">
    <g clip-path="url(#pa077821c49)">
     <use style="fill:#ffffff;stroke:#3f3f3f;" x="231.888125" xlink:href="#m9c6915548b" y="267.494622"/>
    </g>
   </g>
   <g id="PathCollection_4">
    <g clip-path="url(#pa077821c49)">
     <use style="fill:#ffffff;stroke:#3f3f3f;" x="303.312125" xlink:href="#m9c6915548b" y="268.026946"/>
    </g>
   </g>
   <g id="PathCollection_5">
    <g clip-path="url(#pa077821c49)">
     <use style="fill:#ffffff;stroke:#3f3f3f;" x="374.736125" xlink:href="#m9c6915548b" y="268.14524"/>
    </g>
   </g>
   <g id="text_17">
    <!-- lcms-2017-03-21 (2h, 2 trials/fuzzer) -->
    <g transform="translate(121.82375 16.318125)scale(0.12 -0.12)">
     <defs>
      <path d="M 4.890625 31.390625 
L 31.203125 31.390625 
L 31.203125 23.390625 
L 4.890625 23.390625 
z
" id="DejaVuSans-45"/>
      <path d="M 11.71875 12.40625 
L 22.015625 12.40625 
L 22.015625 4 
L 14.015625 -11.625 
L 7.71875 -11.625 
L 11.71875 4 
z
" id="DejaVuSans-44"/>
      <path d="M 25.390625 72.90625 
L 33.6875 72.90625 
L 8.296875 -9.28125 
L 0 -9.28125 
z
" id="DejaVuSans-47"/>
     </defs>
     <use xlink:href="#DejaVuSans-108"/>
     <use x="27.783203" xlink:href="#DejaVuSans-99"/>
     <use x="82.763672" xlink:href="#DejaVuSans-109"/>
     <use x="180.175781" xlink:href="#DejaVuSans-115"/>
     <use x="232.275391" xlink:href="#DejaVuSans-45"/>
     <use x="268.359375" xlink:href="#DejaVuSans-50"/>
     <use x="331.982422" xlink:href="#DejaVuSans-48"/>
     <use x="395.605469" xlink:href="#DejaVuSans-49"/>
     <use x="459.228516" xlink:href="#DejaVuSans-55"/>
     <use x="522.851562" xlink:href="#DejaVuSans-45"/>
     <use x="558.935547" xlink:href="#DejaVuSans-48"/>
     <use x="622.558594" xlink:href="#DejaVuSans-51"/>
     <use x="686.181641" xlink:href="#DejaVuSans-45"/>
     <use x="722.265625" xlink:href="#DejaVuSans-50"/>
     <use x="785.888672" xlink:href="#DejaVuSans-49"/>
     <use x="849.511719" xlink:href="#DejaVuSans-32"/>
     <use x="881.298828" xlink:href="#DejaVuSans-40"/>
     <use x="920.3125" xlink:href="#DejaVuSans-50"/>
     <use x="983.935547" xlink:href="#DejaVuSans-104"/>
     <use x="1047.314453" xlink:href="#DejaVuSans-44"/>
     <use x="1079.101562" xlink:href="#DejaVuSans-32"/>
     <use x="1110.888672" xlink:href="#DejaVuSans-50"/>
     <use x="1174.511719" xlink:href="#DejaVuSans-32"/>
     <use x="1206.298828" xlink:href="#DejaVuSans-116"/>
     <use x="1245.507812" xlink:href="#DejaVuSans-114"/>
     <use x="1286.621094" xlink:href="#DejaVuSans-105"/>
     <use x="1314.404297" xlink:href="#DejaVuSans-97"/>
     <use x="1375.683594" xlink:href="#DejaVuSans-108"/>
     <use x="1403.466797" xlink:href="#DejaVuSans-115"/>
     <use x="1455.566406" xlink:href="#DejaVuSans-47"/>
     <use x="1489.257812" xlink:href="#DejaVuSans-102"/>
     <use x="1524.462891" xlink:href="#DejaVuSans-117"/>
     <use x="1587.841797" xlink:href="#DejaVuSans-122"/>
     <use x="1640.332031" xlink:href="#DejaVuSans-122"/>
     <use x="1692.822266" xlink:href="#DejaVuSans-101"/>
     <use x="1754.345703" xlink:href="#DejaVuSans-114"/>
     <use x="1795.458984" xlink:href="#DejaVuSans-41"/>
    </g>
   </g>
  </g>
 </g>
 <defs>
  <clipPath id="pa077821c49">
   <rect height="266.112" width="357.12" x="53.328125" y="22.318125"/>
  </clipPath>
 </defs>
</svg>
