<?xml version="1.0" encoding="utf-8" standalone="no"?>
<!DOCTYPE svg PUBLIC "-//W3C//DTD SVG 1.1//EN"
  "http://www.w3.org/Graphics/SVG/1.1/DTD/svg11.dtd">
<!-- Created with matplotlib (https://matplotlib.org/) -->
<svg height="375.89624pt" version="1.1" viewBox="0 0 417.648125 375.89624" width="417.648125pt" xmlns="http://www.w3.org/2000/svg" xmlns:xlink="http://www.w3.org/1999/xlink">
 <metadata>
  <rdf:RDF xmlns:cc="http://creativecommons.org/ns#" xmlns:dc="http://purl.org/dc/elements/1.1/" xmlns:rdf="http://www.w3.org/1999/02/22-rdf-syntax-ns#">
   <cc:Work>
    <dc:type rdf:resource="http://purl.org/dc/dcmitype/StillImage"/>
    <dc:date>2020-11-17T15:05:06.536041</dc:date>
    <dc:format>image/svg+xml</dc:format>
    <dc:creator>
     <cc:Agent>
      <dc:title>Matplotlib v3.3.2, https://matplotlib.org/</dc:title>
     </cc:Agent>
    </dc:creator>
   </cc:Work>
  </rdf:RDF>
 </metadata>
 <defs>
  <style type="text/css">*{stroke-linecap:butt;stroke-linejoin:round;}</style>
 </defs>
 <g id="figure_1">
  <g id="patch_1">
   <path d="M 0 375.89624 
L 417.648125 375.89624 
L 417.648125 0 
L 0 0 
z
" style="fill:#ffffff;"/>
  </g>
  <g id="axes_1">
   <g id="patch_2">
    <path d="M 53.328125 288.430125 
L 410.448125 288.430125 
L 410.448125 22.318125 
L 53.328125 22.318125 
z
" style="fill:#ffffff;"/>
   </g>
   <g id="PolyCollection_1">
    <defs>
     <path d="M 90.322629 -242.878771 
L 87.757621 -242.878771 
L 87.586166 -243.874765 
L 87.398321 -244.870758 
L 87.193539 -245.866751 
L 86.971405 -246.862745 
L 86.731664 -247.858738 
L 86.474236 -248.854731 
L 86.199237 -249.850725 
L 85.906992 -250.846718 
L 85.598048 -251.842712 
L 85.273185 -252.838705 
L 84.933413 -253.834698 
L 84.579974 -254.830692 
L 84.214331 -255.826685 
L 83.838156 -256.822678 
L 83.453305 -257.818672 
L 83.061796 -258.814665 
L 82.665771 -259.810659 
L 82.267455 -260.806652 
L 81.869118 -261.802645 
L 81.473022 -262.798639 
L 81.081367 -263.794632 
L 80.696244 -264.790625 
L 80.319576 -265.786619 
L 79.953071 -266.782612 
L 79.598167 -267.778606 
L 79.255993 -268.774599 
L 78.92733 -269.770592 
L 78.61258 -270.766586 
L 78.31175 -271.762579 
L 78.024439 -272.758572 
L 77.749842 -273.754566 
L 77.486765 -274.750559 
L 77.233656 -275.746553 
L 76.988638 -276.742546 
L 76.749568 -277.738539 
L 76.514096 -278.734533 
L 76.279739 -279.730526 
L 76.043959 -280.726519 
L 75.804253 -281.722513 
L 75.55824 -282.718506 
L 75.30375 -283.7145 
L 75.038917 -284.710493 
L 74.762255 -285.706486 
L 74.472745 -286.70248 
L 74.169891 -287.698473 
L 73.85378 -288.694466 
L 73.525121 -289.69046 
L 73.185267 -290.686453 
L 72.836223 -291.682447 
L 72.480634 -292.67844 
L 72.121756 -293.674433 
L 71.763406 -294.670427 
L 71.4099 -295.66642 
L 71.065971 -296.662413 
L 70.736679 -297.658407 
L 70.427301 -298.6544 
L 70.143223 -299.650394 
L 69.889818 -300.646387 
L 69.672327 -301.64238 
L 69.495739 -302.638374 
L 69.364676 -303.634367 
L 69.283286 -304.630361 
L 69.255141 -305.626354 
L 69.28316 -306.622347 
L 69.369534 -307.618341 
L 69.515677 -308.614334 
L 69.722189 -309.610327 
L 69.988844 -310.606321 
L 70.314589 -311.602314 
L 70.697571 -312.598308 
L 71.135173 -313.594301 
L 71.62407 -314.590294 
L 72.1603 -315.586288 
L 72.739344 -316.582281 
L 73.356219 -317.578274 
L 74.005575 -318.574268 
L 74.681797 -319.570261 
L 75.379113 -320.566255 
L 76.09169 -321.562248 
L 76.813738 -322.558241 
L 77.539605 -323.554235 
L 78.263856 -324.550228 
L 78.981355 -325.546221 
L 79.687328 -326.542215 
L 80.37742 -327.538208 
L 81.04773 -328.534202 
L 81.694852 -329.530195 
L 82.31588 -330.526188 
L 82.908428 -331.522182 
L 83.470614 -332.518175 
L 84.001054 -333.514168 
L 84.498839 -334.510162 
L 84.963502 -335.506155 
L 85.394986 -336.502149 
L 85.793604 -337.498142 
L 86.159999 -338.494135 
L 86.495095 -339.490129 
L 86.800056 -340.486122 
L 87.076238 -341.482115 
L 91.004012 -341.482115 
L 91.004012 -341.482115 
L 91.280194 -340.486122 
L 91.585155 -339.490129 
L 91.920251 -338.494135 
L 92.286646 -337.498142 
L 92.685264 -336.502149 
L 93.116748 -335.506155 
L 93.581411 -334.510162 
L 94.079196 -333.514168 
L 94.609636 -332.518175 
L 95.171822 -331.522182 
L 95.76437 -330.526188 
L 96.385398 -329.530195 
L 97.03252 -328.534202 
L 97.70283 -327.538208 
L 98.392922 -326.542215 
L 99.098895 -325.546221 
L 99.816394 -324.550228 
L 100.540645 -323.554235 
L 101.266512 -322.558241 
L 101.98856 -321.562248 
L 102.701137 -320.566255 
L 103.398453 -319.570261 
L 104.074675 -318.574268 
L 104.724031 -317.578274 
L 105.340906 -316.582281 
L 105.91995 -315.586288 
L 106.45618 -314.590294 
L 106.945077 -313.594301 
L 107.382679 -312.598308 
L 107.765661 -311.602314 
L 108.091406 -310.606321 
L 108.358061 -309.610327 
L 108.564573 -308.614334 
L 108.710716 -307.618341 
L 108.79709 -306.622347 
L 108.825109 -305.626354 
L 108.796964 -304.630361 
L 108.715574 -303.634367 
L 108.584511 -302.638374 
L 108.407923 -301.64238 
L 108.190432 -300.646387 
L 107.937027 -299.650394 
L 107.652949 -298.6544 
L 107.343571 -297.658407 
L 107.014279 -296.662413 
L 106.67035 -295.66642 
L 106.316844 -294.670427 
L 105.958494 -293.674433 
L 105.599616 -292.67844 
L 105.244027 -291.682447 
L 104.894983 -290.686453 
L 104.555129 -289.69046 
L 104.22647 -288.694466 
L 103.910359 -287.698473 
L 103.607505 -286.70248 
L 103.317995 -285.706486 
L 103.041333 -284.710493 
L 102.7765 -283.7145 
L 102.52201 -282.718506 
L 102.275997 -281.722513 
L 102.036291 -280.726519 
L 101.800511 -279.730526 
L 101.566154 -278.734533 
L 101.330682 -277.738539 
L 101.091612 -276.742546 
L 100.846594 -275.746553 
L 100.593485 -274.750559 
L 100.330408 -273.754566 
L 100.055811 -272.758572 
L 99.7685 -271.762579 
L 99.46767 -270.766586 
L 99.15292 -269.770592 
L 98.824257 -268.774599 
L 98.482083 -267.778606 
L 98.127179 -266.782612 
L 97.760674 -265.786619 
L 97.384006 -264.790625 
L 96.998883 -263.794632 
L 96.607228 -262.798639 
L 96.211132 -261.802645 
L 95.812795 -260.806652 
L 95.414479 -259.810659 
L 95.018454 -258.814665 
L 94.626945 -257.818672 
L 94.242094 -256.822678 
L 93.865919 -255.826685 
L 93.500276 -254.830692 
L 93.146837 -253.834698 
L 92.807065 -252.838705 
L 92.482202 -251.842712 
L 92.173258 -250.846718 
L 91.881013 -249.850725 
L 91.606014 -248.854731 
L 91.348586 -247.858738 
L 91.108845 -246.862745 
L 90.886711 -245.866751 
L 90.681929 -244.870758 
L 90.494084 -243.874765 
L 90.322629 -242.878771 
z
" id="mad214ecea2" style="stroke:#3f3f3f;stroke-width:1.5;"/>
    </defs>
    <g clip-path="url(#paa5e58ae9d)">
     <use style="fill:#9fd495;stroke:#3f3f3f;stroke-width:1.5;" x="0" xlink:href="#mad214ecea2" y="375.89624"/>
    </g>
   </g>
   <g id="PolyCollection_2">
    <defs>
     <path d="M 161.41882 -139.819012 
L 159.50943 -139.819012 
L 159.358157 -141.692023 
L 159.188801 -143.565034 
L 159.000253 -145.438045 
L 158.791513 -147.311056 
L 158.561727 -149.184067 
L 158.31022 -151.057078 
L 158.036533 -152.930089 
L 157.740455 -154.8031 
L 157.422062 -156.676111 
L 157.081742 -158.549122 
L 156.720226 -160.422133 
L 156.338608 -162.295144 
L 155.938358 -164.168155 
L 155.521334 -166.041166 
L 155.089781 -167.914177 
L 154.646319 -169.787188 
L 154.193928 -171.660199 
L 153.735917 -173.53321 
L 153.27589 -175.406221 
L 152.817697 -177.279233 
L 152.365379 -179.152244 
L 151.923106 -181.025255 
L 151.495105 -182.898266 
L 151.085592 -184.771277 
L 150.69869 -186.644288 
L 150.33835 -188.517299 
L 150.00828 -190.39031 
L 149.711864 -192.263321 
L 149.452093 -194.136332 
L 149.231505 -196.009343 
L 149.052128 -197.882354 
L 148.915434 -199.755365 
L 148.822309 -201.628376 
L 148.773031 -203.501387 
L 148.767258 -205.374398 
L 148.804041 -207.247409 
L 148.881837 -209.12042 
L 148.998541 -210.993431 
L 149.151535 -212.866442 
L 149.337737 -214.739453 
L 149.553672 -216.612464 
L 149.795541 -218.485475 
L 150.059301 -220.358486 
L 150.340753 -222.231497 
L 150.635625 -224.104508 
L 150.93966 -225.977519 
L 151.248703 -227.85053 
L 151.55878 -229.723541 
L 151.866172 -231.596552 
L 152.167488 -233.469563 
L 152.45972 -235.342574 
L 152.74029 -237.215585 
L 153.007092 -239.088596 
L 153.258511 -240.961607 
L 153.493437 -242.834618 
L 153.711265 -244.707629 
L 153.911882 -246.58064 
L 154.09564 -248.453651 
L 154.263322 -250.326662 
L 154.416094 -252.199673 
L 154.555455 -254.072684 
L 154.683175 -255.945695 
L 154.80123 -257.818706 
L 154.911733 -259.691717 
L 155.01687 -261.564728 
L 155.118829 -263.437739 
L 155.219739 -265.31075 
L 155.321607 -267.183761 
L 155.42627 -269.056772 
L 155.535347 -270.929783 
L 155.650204 -272.802794 
L 155.771925 -274.675805 
L 155.901296 -276.548816 
L 156.038796 -278.421827 
L 156.1846 -280.294838 
L 156.33859 -282.167849 
L 156.50037 -284.04086 
L 156.669295 -285.913871 
L 156.844502 -287.786882 
L 157.024941 -289.659893 
L 157.209422 -291.532904 
L 157.396647 -293.405915 
L 157.585254 -295.278926 
L 157.773857 -297.151937 
L 157.96108 -299.024948 
L 158.145597 -300.897959 
L 158.326152 -302.77097 
L 158.501595 -304.643981 
L 158.670895 -306.516992 
L 158.833158 -308.390003 
L 158.987639 -310.263014 
L 159.133741 -312.136025 
L 159.271024 -314.009036 
L 159.399195 -315.882047 
L 159.518104 -317.755058 
L 159.627734 -319.628069 
L 159.728187 -321.50108 
L 159.819673 -323.374091 
L 159.90249 -325.247102 
L 161.02576 -325.247102 
L 161.02576 -325.247102 
L 161.108577 -323.374091 
L 161.200063 -321.50108 
L 161.300516 -319.628069 
L 161.410146 -317.755058 
L 161.529055 -315.882047 
L 161.657226 -314.009036 
L 161.794509 -312.136025 
L 161.940611 -310.263014 
L 162.095092 -308.390003 
L 162.257355 -306.516992 
L 162.426655 -304.643981 
L 162.602098 -302.77097 
L 162.782653 -300.897959 
L 162.96717 -299.024948 
L 163.154393 -297.151937 
L 163.342996 -295.278926 
L 163.531603 -293.405915 
L 163.718828 -291.532904 
L 163.903309 -289.659893 
L 164.083748 -287.786882 
L 164.258955 -285.913871 
L 164.42788 -284.04086 
L 164.58966 -282.167849 
L 164.74365 -280.294838 
L 164.889454 -278.421827 
L 165.026954 -276.548816 
L 165.156325 -274.675805 
L 165.278046 -272.802794 
L 165.392903 -270.929783 
L 165.50198 -269.056772 
L 165.606643 -267.183761 
L 165.708511 -265.31075 
L 165.809421 -263.437739 
L 165.91138 -261.564728 
L 166.016517 -259.691717 
L 166.12702 -257.818706 
L 166.245075 -255.945695 
L 166.372795 -254.072684 
L 166.512156 -252.199673 
L 166.664928 -250.326662 
L 166.83261 -248.453651 
L 167.016368 -246.58064 
L 167.216985 -244.707629 
L 167.434813 -242.834618 
L 167.669739 -240.961607 
L 167.921158 -239.088596 
L 168.18796 -237.215585 
L 168.46853 -235.342574 
L 168.760762 -233.469563 
L 169.062078 -231.596552 
L 169.36947 -229.723541 
L 169.679547 -227.85053 
L 169.98859 -225.977519 
L 170.292625 -224.104508 
L 170.587497 -222.231497 
L 170.868949 -220.358486 
L 171.132709 -218.485475 
L 171.374578 -216.612464 
L 171.590513 -214.739453 
L 171.776715 -212.866442 
L 171.929709 -210.993431 
L 172.046413 -209.12042 
L 172.124209 -207.247409 
L 172.160992 -205.374398 
L 172.155219 -203.501387 
L 172.105941 -201.628376 
L 172.012816 -199.755365 
L 171.876122 -197.882354 
L 171.696745 -196.009343 
L 171.476157 -194.136332 
L 171.216386 -192.263321 
L 170.91997 -190.39031 
L 170.5899 -188.517299 
L 170.22956 -186.644288 
L 169.842658 -184.771277 
L 169.433145 -182.898266 
L 169.005144 -181.025255 
L 168.562871 -179.152244 
L 168.110553 -177.279233 
L 167.65236 -175.406221 
L 167.192333 -173.53321 
L 166.734322 -171.660199 
L 166.281931 -169.787188 
L 165.838469 -167.914177 
L 165.406916 -166.041166 
L 164.989892 -164.168155 
L 164.589642 -162.295144 
L 164.208024 -160.422133 
L 163.846508 -158.549122 
L 163.506188 -156.676111 
L 163.187795 -154.8031 
L 162.891717 -152.930089 
L 162.61803 -151.057078 
L 162.366523 -149.184067 
L 162.136737 -147.311056 
L 161.927997 -145.438045 
L 161.739449 -143.565034 
L 161.570093 -141.692023 
L 161.41882 -139.819012 
z
" id="mc13a7b2a93" style="stroke:#3f3f3f;stroke-width:1.5;"/>
    </defs>
    <g clip-path="url(#paa5e58ae9d)">
     <use style="fill:#c03d3e;stroke:#3f3f3f;stroke-width:1.5;" x="0" xlink:href="#mc13a7b2a93" y="375.89624"/>
    </g>
   </g>
   <g id="PolyCollection_3">
    <defs>
     <path d="M 232.804687 -99.562115 
L 230.971563 -99.562115 
L 230.848576 -100.960735 
L 230.713785 -102.359354 
L 230.566793 -103.757973 
L 230.407297 -105.156592 
L 230.235111 -106.555211 
L 230.050175 -107.953831 
L 229.852568 -109.35245 
L 229.642524 -110.751069 
L 229.420434 -112.149688 
L 229.186859 -113.548307 
L 228.942523 -114.946927 
L 228.688321 -116.345546 
L 228.425305 -117.744165 
L 228.154676 -119.142784 
L 227.87777 -120.541403 
L 227.596037 -121.940023 
L 227.311016 -123.338642 
L 227.024306 -124.737261 
L 226.737534 -126.13588 
L 226.452322 -127.534499 
L 226.170248 -128.933119 
L 225.892807 -130.331738 
L 225.621372 -131.730357 
L 225.357162 -133.128976 
L 225.101201 -134.527595 
L 224.854289 -135.926215 
L 224.616978 -137.324834 
L 224.389547 -138.723453 
L 224.171993 -140.122072 
L 223.964023 -141.520691 
L 223.765059 -142.919311 
L 223.574245 -144.31793 
L 223.390476 -145.716549 
L 223.21242 -147.115168 
L 223.038561 -148.513788 
L 222.867243 -149.912407 
L 222.696722 -151.311026 
L 222.525227 -152.709645 
L 222.351017 -154.108264 
L 222.172451 -155.506884 
L 221.988047 -156.905503 
L 221.796544 -158.304122 
L 221.596966 -159.702741 
L 221.38867 -161.10136 
L 221.171394 -162.49998 
L 220.945291 -163.898599 
L 220.71096 -165.297218 
L 220.469453 -166.695837 
L 220.222284 -168.094456 
L 219.971412 -169.493076 
L 219.719222 -170.891695 
L 219.468484 -172.290314 
L 219.222309 -173.688933 
L 218.984086 -175.087552 
L 218.757416 -176.486172 
L 218.546036 -177.884791 
L 218.353738 -179.28341 
L 218.184282 -180.682029 
L 218.041314 -182.080648 
L 217.928283 -183.479268 
L 217.848354 -184.877887 
L 217.80434 -186.276506 
L 217.798634 -187.675125 
L 217.833149 -189.073744 
L 217.909276 -190.472364 
L 218.027848 -191.870983 
L 218.189119 -193.269602 
L 218.392759 -194.668221 
L 218.63786 -196.06684 
L 218.922949 -197.46546 
L 219.24603 -198.864079 
L 219.604614 -200.262698 
L 219.995779 -201.661317 
L 220.416229 -203.059936 
L 220.862355 -204.458556 
L 221.330312 -205.857175 
L 221.816086 -207.255794 
L 222.315572 -208.654413 
L 222.824644 -210.053032 
L 223.339225 -211.451652 
L 223.855348 -212.850271 
L 224.369223 -214.24889 
L 224.877279 -215.647509 
L 225.376216 -217.046128 
L 225.863037 -218.444748 
L 226.335076 -219.843367 
L 226.790018 -221.241986 
L 227.225908 -222.640605 
L 227.641155 -224.039224 
L 228.034525 -225.437844 
L 228.405134 -226.836463 
L 228.752426 -228.235082 
L 229.076154 -229.633701 
L 229.376353 -231.03232 
L 229.653314 -232.43094 
L 229.907549 -233.829559 
L 230.139764 -235.228178 
L 230.350826 -236.626797 
L 230.541731 -238.025416 
L 233.234519 -238.025416 
L 233.234519 -238.025416 
L 233.425424 -236.626797 
L 233.636486 -235.228178 
L 233.868701 -233.829559 
L 234.122936 -232.43094 
L 234.399897 -231.03232 
L 234.700096 -229.633701 
L 235.023824 -228.235082 
L 235.371116 -226.836463 
L 235.741725 -225.437844 
L 236.135095 -224.039224 
L 236.550342 -222.640605 
L 236.986232 -221.241986 
L 237.441174 -219.843367 
L 237.913213 -218.444748 
L 238.400034 -217.046128 
L 238.898971 -215.647509 
L 239.407027 -214.24889 
L 239.920902 -212.850271 
L 240.437025 -211.451652 
L 240.951606 -210.053032 
L 241.460678 -208.654413 
L 241.960164 -207.255794 
L 242.445938 -205.857175 
L 242.913895 -204.458556 
L 243.360021 -203.059936 
L 243.780471 -201.661317 
L 244.171636 -200.262698 
L 244.53022 -198.864079 
L 244.853301 -197.46546 
L 245.13839 -196.06684 
L 245.383491 -194.668221 
L 245.587131 -193.269602 
L 245.748402 -191.870983 
L 245.866974 -190.472364 
L 245.943101 -189.073744 
L 245.977616 -187.675125 
L 245.97191 -186.276506 
L 245.927896 -184.877887 
L 245.847967 -183.479268 
L 245.734936 -182.080648 
L 245.591968 -180.682029 
L 245.422512 -179.28341 
L 245.230214 -177.884791 
L 245.018834 -176.486172 
L 244.792164 -175.087552 
L 244.553941 -173.688933 
L 244.307766 -172.290314 
L 244.057028 -170.891695 
L 243.804838 -169.493076 
L 243.553966 -168.094456 
L 243.306797 -166.695837 
L 243.06529 -165.297218 
L 242.830959 -163.898599 
L 242.604856 -162.49998 
L 242.38758 -161.10136 
L 242.179284 -159.702741 
L 241.979706 -158.304122 
L 241.788203 -156.905503 
L 241.603799 -155.506884 
L 241.425233 -154.108264 
L 241.251023 -152.709645 
L 241.079528 -151.311026 
L 240.909007 -149.912407 
L 240.737689 -148.513788 
L 240.56383 -147.115168 
L 240.385774 -145.716549 
L 240.202005 -144.31793 
L 240.011191 -142.919311 
L 239.812227 -141.520691 
L 239.604257 -140.122072 
L 239.386703 -138.723453 
L 239.159272 -137.324834 
L 238.921961 -135.926215 
L 238.675049 -134.527595 
L 238.419088 -133.128976 
L 238.154878 -131.730357 
L 237.883443 -130.331738 
L 237.606002 -128.933119 
L 237.323928 -127.534499 
L 237.038716 -126.13588 
L 236.751944 -124.737261 
L 236.465234 -123.338642 
L 236.180213 -121.940023 
L 235.89848 -120.541403 
L 235.621574 -119.142784 
L 235.350945 -117.744165 
L 235.087929 -116.345546 
L 234.833727 -114.946927 
L 234.589391 -113.548307 
L 234.355816 -112.149688 
L 234.133726 -110.751069 
L 233.923682 -109.35245 
L 233.726075 -107.953831 
L 233.541139 -106.555211 
L 233.368953 -105.156592 
L 233.209457 -103.757973 
L 233.062465 -102.359354 
L 232.927674 -100.960735 
L 232.804687 -99.562115 
z
" id="m441f0892ba" style="stroke:#3f3f3f;stroke-width:1.5;"/>
    </defs>
    <g clip-path="url(#paa5e58ae9d)">
     <use style="fill:#c7c7c7;stroke:#3f3f3f;stroke-width:1.5;" x="0" xlink:href="#m441f0892ba" y="375.89624"/>
    </g>
   </g>
   <g id="PolyCollection_4">
    <defs>
     <path d="M 305.070603 -145.260266 
L 301.553647 -145.260266 
L 301.279289 -145.912148 
L 300.973038 -146.56403 
L 300.633069 -147.215911 
L 300.257753 -147.867793 
L 299.845705 -148.519675 
L 299.395833 -149.171556 
L 298.907391 -149.823438 
L 298.380016 -150.47532 
L 297.813773 -151.127201 
L 297.209186 -151.779083 
L 296.56726 -152.430965 
L 295.8895 -153.082846 
L 295.177912 -153.734728 
L 294.434995 -154.38661 
L 293.663726 -155.038491 
L 292.867523 -155.690373 
L 292.050208 -156.342255 
L 291.215947 -156.994137 
L 290.369191 -157.646018 
L 289.514601 -158.2979 
L 288.656971 -158.949782 
L 287.801146 -159.601663 
L 286.951935 -160.253545 
L 286.114027 -160.905427 
L 285.291912 -161.557308 
L 284.489803 -162.20919 
L 283.711565 -162.861072 
L 282.960659 -163.512953 
L 282.240088 -164.164835 
L 281.552368 -164.816717 
L 280.899496 -165.468598 
L 280.282947 -166.12048 
L 279.703673 -166.772362 
L 279.162126 -167.424243 
L 278.658281 -168.076125 
L 278.191684 -168.728007 
L 277.761501 -169.379889 
L 277.36658 -170.03177 
L 277.005519 -170.683652 
L 276.676737 -171.335534 
L 276.378555 -171.987415 
L 276.109267 -172.639297 
L 275.867219 -173.291179 
L 275.650884 -173.94306 
L 275.458922 -174.594942 
L 275.290251 -175.246824 
L 275.144088 -175.898705 
L 275.020001 -176.550587 
L 274.917931 -177.202469 
L 274.838216 -177.85435 
L 274.781595 -178.506232 
L 274.749198 -179.158114 
L 274.742525 -179.809995 
L 274.763415 -180.461877 
L 274.813993 -181.113759 
L 274.896617 -181.76564 
L 275.013805 -182.417522 
L 275.168164 -183.069404 
L 275.362298 -183.721286 
L 275.598729 -184.373167 
L 275.879805 -185.025049 
L 276.207607 -185.676931 
L 276.583873 -186.328812 
L 277.009911 -186.980694 
L 277.486531 -187.632576 
L 278.013987 -188.284457 
L 278.591925 -188.936339 
L 279.219356 -189.588221 
L 279.89463 -190.240102 
L 280.615443 -190.891984 
L 281.378846 -191.543866 
L 282.181278 -192.195747 
L 283.018613 -192.847629 
L 283.886223 -193.499511 
L 284.779046 -194.151392 
L 285.691677 -194.803274 
L 286.618456 -195.455156 
L 287.553565 -196.107038 
L 288.491135 -196.758919 
L 289.425339 -197.410801 
L 290.350495 -198.062683 
L 291.261157 -198.714564 
L 292.152199 -199.366446 
L 293.018891 -200.018328 
L 293.856965 -200.670209 
L 294.662659 -201.322091 
L 295.432765 -201.973973 
L 296.164644 -202.625854 
L 296.856239 -203.277736 
L 297.506075 -203.929618 
L 298.113242 -204.581499 
L 298.677368 -205.233381 
L 299.198585 -205.885263 
L 299.677485 -206.537144 
L 300.115072 -207.189026 
L 300.512708 -207.840908 
L 300.872056 -208.49279 
L 301.195026 -209.144671 
L 301.483715 -209.796553 
L 305.140535 -209.796553 
L 305.140535 -209.796553 
L 305.429224 -209.144671 
L 305.752194 -208.49279 
L 306.111542 -207.840908 
L 306.509178 -207.189026 
L 306.946765 -206.537144 
L 307.425665 -205.885263 
L 307.946882 -205.233381 
L 308.511008 -204.581499 
L 309.118175 -203.929618 
L 309.768011 -203.277736 
L 310.459606 -202.625854 
L 311.191485 -201.973973 
L 311.961591 -201.322091 
L 312.767285 -200.670209 
L 313.605359 -200.018328 
L 314.472051 -199.366446 
L 315.363093 -198.714564 
L 316.273755 -198.062683 
L 317.198911 -197.410801 
L 318.133115 -196.758919 
L 319.070685 -196.107038 
L 320.005794 -195.455156 
L 320.932573 -194.803274 
L 321.845204 -194.151392 
L 322.738027 -193.499511 
L 323.605637 -192.847629 
L 324.442972 -192.195747 
L 325.245404 -191.543866 
L 326.008807 -190.891984 
L 326.72962 -190.240102 
L 327.404894 -189.588221 
L 328.032325 -188.936339 
L 328.610263 -188.284457 
L 329.137719 -187.632576 
L 329.614339 -186.980694 
L 330.040377 -186.328812 
L 330.416643 -185.676931 
L 330.744445 -185.025049 
L 331.025521 -184.373167 
L 331.261952 -183.721286 
L 331.456086 -183.069404 
L 331.610445 -182.417522 
L 331.727633 -181.76564 
L 331.810257 -181.113759 
L 331.860835 -180.461877 
L 331.881725 -179.809995 
L 331.875052 -179.158114 
L 331.842655 -178.506232 
L 331.786034 -177.85435 
L 331.706319 -177.202469 
L 331.604249 -176.550587 
L 331.480162 -175.898705 
L 331.333999 -175.246824 
L 331.165328 -174.594942 
L 330.973366 -173.94306 
L 330.757031 -173.291179 
L 330.514983 -172.639297 
L 330.245695 -171.987415 
L 329.947513 -171.335534 
L 329.618731 -170.683652 
L 329.25767 -170.03177 
L 328.862749 -169.379889 
L 328.432566 -168.728007 
L 327.965969 -168.076125 
L 327.462124 -167.424243 
L 326.920577 -166.772362 
L 326.341303 -166.12048 
L 325.724754 -165.468598 
L 325.071882 -164.816717 
L 324.384162 -164.164835 
L 323.663591 -163.512953 
L 322.912685 -162.861072 
L 322.134447 -162.20919 
L 321.332338 -161.557308 
L 320.510223 -160.905427 
L 319.672315 -160.253545 
L 318.823104 -159.601663 
L 317.967279 -158.949782 
L 317.109649 -158.2979 
L 316.255059 -157.646018 
L 315.408303 -156.994137 
L 314.574042 -156.342255 
L 313.756727 -155.690373 
L 312.960524 -155.038491 
L 312.189255 -154.38661 
L 311.446338 -153.734728 
L 310.73475 -153.082846 
L 310.05699 -152.430965 
L 309.415064 -151.779083 
L 308.810477 -151.127201 
L 308.244234 -150.47532 
L 307.716859 -149.823438 
L 307.228417 -149.171556 
L 306.778545 -148.519675 
L 306.366497 -147.867793 
L 305.991181 -147.215911 
L 305.651212 -146.56403 
L 305.344961 -145.912148 
L 305.070603 -145.260266 
z
" id="m1580e67bf6" style="stroke:#3f3f3f;stroke-width:1.5;"/>
    </defs>
    <g clip-path="url(#paa5e58ae9d)">
     <use style="fill:#3274a1;stroke:#3f3f3f;stroke-width:1.5;" x="0" xlink:href="#m1580e67bf6" y="375.89624"/>
    </g>
   </g>
   <g id="PolyCollection_5">
    <defs>
     <path d="M 376.491517 -141.047826 
L 372.980733 -141.047826 
L 372.690643 -141.729168 
L 372.364259 -142.410509 
L 371.999189 -143.091851 
L 371.593249 -143.773193 
L 371.144539 -144.454535 
L 370.651513 -145.135876 
L 370.113056 -145.817218 
L 369.528551 -146.49856 
L 368.897951 -147.179902 
L 368.221836 -147.861243 
L 367.501464 -148.542585 
L 366.738811 -149.223927 
L 365.93659 -149.905269 
L 365.098264 -150.58661 
L 364.228027 -151.267952 
L 363.330782 -151.949294 
L 362.412082 -152.630636 
L 361.478066 -153.311977 
L 360.535367 -153.993319 
L 359.591003 -154.674661 
L 358.65226 -155.356003 
L 357.726557 -156.037344 
L 356.8213 -156.718686 
L 355.943738 -157.400028 
L 355.100817 -158.08137 
L 354.299029 -158.762711 
L 353.544282 -159.444053 
L 352.841772 -160.125395 
L 352.195874 -160.806737 
L 351.610054 -161.488078 
L 351.086799 -162.16942 
L 350.627572 -162.850762 
L 350.232797 -163.532104 
L 349.901857 -164.213445 
L 349.633133 -164.894787 
L 349.424058 -165.576129 
L 349.271191 -166.257471 
L 349.170323 -166.938812 
L 349.116591 -167.620154 
L 349.104614 -168.301496 
L 349.128632 -168.982838 
L 349.182664 -169.664179 
L 349.260661 -170.345521 
L 349.356667 -171.026863 
L 349.464971 -171.708205 
L 349.580257 -172.389547 
L 349.697739 -173.070888 
L 349.813286 -173.75223 
L 349.92353 -174.433572 
L 350.025955 -175.114914 
L 350.118957 -175.796255 
L 350.201892 -176.477597 
L 350.275089 -177.158939 
L 350.339839 -177.840281 
L 350.398363 -178.521622 
L 350.45374 -179.202964 
L 350.509828 -179.884306 
L 350.571144 -180.565648 
L 350.642736 -181.246989 
L 350.73003 -181.928331 
L 350.838672 -182.609673 
L 350.974346 -183.291015 
L 351.142611 -183.972356 
L 351.348717 -184.653698 
L 351.597442 -185.33504 
L 351.892939 -186.016382 
L 352.238598 -186.697723 
L 352.636931 -187.379065 
L 353.089482 -188.060407 
L 353.596766 -188.741749 
L 354.15824 -189.42309 
L 354.772301 -190.104432 
L 355.436316 -190.785774 
L 356.146687 -191.467116 
L 356.89893 -192.148457 
L 357.687791 -192.829799 
L 358.507373 -193.511141 
L 359.351277 -194.192483 
L 360.21276 -194.873824 
L 361.084887 -195.555166 
L 361.960691 -196.236508 
L 362.833318 -196.91785 
L 363.696175 -197.599191 
L 364.543046 -198.280533 
L 365.36821 -198.961875 
L 366.166524 -199.643217 
L 366.933495 -200.324558 
L 367.665326 -201.0059 
L 368.358943 -201.687242 
L 369.012001 -202.368584 
L 369.622869 -203.049925 
L 370.190604 -203.731267 
L 370.714905 -204.412609 
L 371.196062 -205.093951 
L 371.634885 -205.775292 
L 372.032644 -206.456634 
L 372.390988 -207.137976 
L 372.711877 -207.819318 
L 372.997507 -208.500659 
L 376.474743 -208.500659 
L 376.474743 -208.500659 
L 376.760373 -207.819318 
L 377.081262 -207.137976 
L 377.439606 -206.456634 
L 377.837365 -205.775292 
L 378.276188 -205.093951 
L 378.757345 -204.412609 
L 379.281646 -203.731267 
L 379.849381 -203.049925 
L 380.460249 -202.368584 
L 381.113307 -201.687242 
L 381.806924 -201.0059 
L 382.538755 -200.324558 
L 383.305726 -199.643217 
L 384.10404 -198.961875 
L 384.929204 -198.280533 
L 385.776075 -197.599191 
L 386.638932 -196.91785 
L 387.511559 -196.236508 
L 388.387363 -195.555166 
L 389.25949 -194.873824 
L 390.120973 -194.192483 
L 390.964877 -193.511141 
L 391.784459 -192.829799 
L 392.57332 -192.148457 
L 393.325563 -191.467116 
L 394.035934 -190.785774 
L 394.699949 -190.104432 
L 395.31401 -189.42309 
L 395.875484 -188.741749 
L 396.382768 -188.060407 
L 396.835319 -187.379065 
L 397.233652 -186.697723 
L 397.579311 -186.016382 
L 397.874808 -185.33504 
L 398.123533 -184.653698 
L 398.329639 -183.972356 
L 398.497904 -183.291015 
L 398.633578 -182.609673 
L 398.74222 -181.928331 
L 398.829514 -181.246989 
L 398.901106 -180.565648 
L 398.962422 -179.884306 
L 399.01851 -179.202964 
L 399.073887 -178.521622 
L 399.132411 -177.840281 
L 399.197161 -177.158939 
L 399.270358 -176.477597 
L 399.353293 -175.796255 
L 399.446295 -175.114914 
L 399.54872 -174.433572 
L 399.658964 -173.75223 
L 399.774511 -173.070888 
L 399.891993 -172.389547 
L 400.007279 -171.708205 
L 400.115583 -171.026863 
L 400.211589 -170.345521 
L 400.289586 -169.664179 
L 400.343618 -168.982838 
L 400.367636 -168.301496 
L 400.355659 -167.620154 
L 400.301927 -166.938812 
L 400.201059 -166.257471 
L 400.048192 -165.576129 
L 399.839117 -164.894787 
L 399.570393 -164.213445 
L 399.239453 -163.532104 
L 398.844678 -162.850762 
L 398.385451 -162.16942 
L 397.862196 -161.488078 
L 397.276376 -160.806737 
L 396.630478 -160.125395 
L 395.927968 -159.444053 
L 395.173221 -158.762711 
L 394.371433 -158.08137 
L 393.528512 -157.400028 
L 392.65095 -156.718686 
L 391.745693 -156.037344 
L 390.81999 -155.356003 
L 389.881247 -154.674661 
L 388.936883 -153.993319 
L 387.994184 -153.311977 
L 387.060168 -152.630636 
L 386.141468 -151.949294 
L 385.244223 -151.267952 
L 384.373986 -150.58661 
L 383.53566 -149.905269 
L 382.733439 -149.223927 
L 381.970786 -148.542585 
L 381.250414 -147.861243 
L 380.574299 -147.179902 
L 379.943699 -146.49856 
L 379.359194 -145.817218 
L 378.820737 -145.135876 
L 378.327711 -144.454535 
L 377.879001 -143.773193 
L 377.473061 -143.091851 
L 377.107991 -142.410509 
L 376.781607 -141.729168 
L 376.491517 -141.047826 
z
" id="m707ad77eb1" style="stroke:#3f3f3f;stroke-width:1.5;"/>
    </defs>
    <g clip-path="url(#paa5e58ae9d)">
     <use style="fill:#e1812c;stroke:#3f3f3f;stroke-width:1.5;" x="0" xlink:href="#m707ad77eb1" y="375.89624"/>
    </g>
   </g>
   <g id="matplotlib.axis_1">
    <g id="xtick_1">
     <g id="line2d_1">
      <defs>
       <path d="M 0 0 
L 0 3.5 
" id="mfa776d77e3" style="stroke:#000000;stroke-width:0.8;"/>
      </defs>
      <g>
       <use style="stroke:#000000;stroke-width:0.8;" x="89.040125" xlink:href="#mfa776d77e3" y="288.430125"/>
      </g>
     </g>
     <g id="text_1">
      <!-- aflplusplus -->
      <g transform="translate(41.431118 328.897284)rotate(-30)scale(0.1 -0.1)">
       <defs>
        <path d="M 34.28125 27.484375 
Q 23.390625 27.484375 19.1875 25 
Q 14.984375 22.515625 14.984375 16.5 
Q 14.984375 11.71875 18.140625 8.90625 
Q 21.296875 6.109375 26.703125 6.109375 
Q 34.1875 6.109375 38.703125 11.40625 
Q 43.21875 16.703125 43.21875 25.484375 
L 43.21875 27.484375 
z
M 52.203125 31.203125 
L 52.203125 0 
L 43.21875 0 
L 43.21875 8.296875 
Q 40.140625 3.328125 35.546875 0.953125 
Q 30.953125 -1.421875 24.3125 -1.421875 
Q 15.921875 -1.421875 10.953125 3.296875 
Q 6 8.015625 6 15.921875 
Q 6 25.140625 12.171875 29.828125 
Q 18.359375 34.515625 30.609375 34.515625 
L 43.21875 34.515625 
L 43.21875 35.40625 
Q 43.21875 41.609375 39.140625 45 
Q 35.0625 48.390625 27.6875 48.390625 
Q 23 48.390625 18.546875 47.265625 
Q 14.109375 46.140625 10.015625 43.890625 
L 10.015625 52.203125 
Q 14.9375 54.109375 19.578125 55.046875 
Q 24.21875 56 28.609375 56 
Q 40.484375 56 46.34375 49.84375 
Q 52.203125 43.703125 52.203125 31.203125 
z
" id="DejaVuSans-97"/>
        <path d="M 37.109375 75.984375 
L 37.109375 68.5 
L 28.515625 68.5 
Q 23.6875 68.5 21.796875 66.546875 
Q 19.921875 64.59375 19.921875 59.515625 
L 19.921875 54.6875 
L 34.71875 54.6875 
L 34.71875 47.703125 
L 19.921875 47.703125 
L 19.921875 0 
L 10.890625 0 
L 10.890625 47.703125 
L 2.296875 47.703125 
L 2.296875 54.6875 
L 10.890625 54.6875 
L 10.890625 58.5 
Q 10.890625 67.625 15.140625 71.796875 
Q 19.390625 75.984375 28.609375 75.984375 
z
" id="DejaVuSans-102"/>
        <path d="M 9.421875 75.984375 
L 18.40625 75.984375 
L 18.40625 0 
L 9.421875 0 
z
" id="DejaVuSans-108"/>
        <path d="M 18.109375 8.203125 
L 18.109375 -20.796875 
L 9.078125 -20.796875 
L 9.078125 54.6875 
L 18.109375 54.6875 
L 18.109375 46.390625 
Q 20.953125 51.265625 25.265625 53.625 
Q 29.59375 56 35.59375 56 
Q 45.5625 56 51.78125 48.09375 
Q 58.015625 40.1875 58.015625 27.296875 
Q 58.015625 14.40625 51.78125 6.484375 
Q 45.5625 -1.421875 35.59375 -1.421875 
Q 29.59375 -1.421875 25.265625 0.953125 
Q 20.953125 3.328125 18.109375 8.203125 
z
M 48.6875 27.296875 
Q 48.6875 37.203125 44.609375 42.84375 
Q 40.53125 48.484375 33.40625 48.484375 
Q 26.265625 48.484375 22.1875 42.84375 
Q 18.109375 37.203125 18.109375 27.296875 
Q 18.109375 17.390625 22.1875 11.75 
Q 26.265625 6.109375 33.40625 6.109375 
Q 40.53125 6.109375 44.609375 11.75 
Q 48.6875 17.390625 48.6875 27.296875 
z
" id="DejaVuSans-112"/>
        <path d="M 8.5 21.578125 
L 8.5 54.6875 
L 17.484375 54.6875 
L 17.484375 21.921875 
Q 17.484375 14.15625 20.5 10.265625 
Q 23.53125 6.390625 29.59375 6.390625 
Q 36.859375 6.390625 41.078125 11.03125 
Q 45.3125 15.671875 45.3125 23.6875 
L 45.3125 54.6875 
L 54.296875 54.6875 
L 54.296875 0 
L 45.3125 0 
L 45.3125 8.40625 
Q 42.046875 3.421875 37.71875 1 
Q 33.40625 -1.421875 27.6875 -1.421875 
Q 18.265625 -1.421875 13.375 4.4375 
Q 8.5 10.296875 8.5 21.578125 
z
M 31.109375 56 
z
" id="DejaVuSans-117"/>
        <path d="M 44.28125 53.078125 
L 44.28125 44.578125 
Q 40.484375 46.53125 36.375 47.5 
Q 32.28125 48.484375 27.875 48.484375 
Q 21.1875 48.484375 17.84375 46.4375 
Q 14.5 44.390625 14.5 40.28125 
Q 14.5 37.15625 16.890625 35.375 
Q 19.28125 33.59375 26.515625 31.984375 
L 29.59375 31.296875 
Q 39.15625 29.25 43.1875 25.515625 
Q 47.21875 21.78125 47.21875 15.09375 
Q 47.21875 7.46875 41.1875 3.015625 
Q 35.15625 -1.421875 24.609375 -1.421875 
Q 20.21875 -1.421875 15.453125 -0.5625 
Q 10.6875 0.296875 5.421875 2 
L 5.421875 11.28125 
Q 10.40625 8.6875 15.234375 7.390625 
Q 20.0625 6.109375 24.8125 6.109375 
Q 31.15625 6.109375 34.5625 8.28125 
Q 37.984375 10.453125 37.984375 14.40625 
Q 37.984375 18.0625 35.515625 20.015625 
Q 33.0625 21.96875 24.703125 23.78125 
L 21.578125 24.515625 
Q 13.234375 26.265625 9.515625 29.90625 
Q 5.8125 33.546875 5.8125 39.890625 
Q 5.8125 47.609375 11.28125 51.796875 
Q 16.75 56 26.8125 56 
Q 31.78125 56 36.171875 55.265625 
Q 40.578125 54.546875 44.28125 53.078125 
z
" id="DejaVuSans-115"/>
       </defs>
       <use xlink:href="#DejaVuSans-97"/>
       <use x="61.279297" xlink:href="#DejaVuSans-102"/>
       <use x="96.484375" xlink:href="#DejaVuSans-108"/>
       <use x="124.267578" xlink:href="#DejaVuSans-112"/>
       <use x="187.744141" xlink:href="#DejaVuSans-108"/>
       <use x="215.527344" xlink:href="#DejaVuSans-117"/>
       <use x="278.90625" xlink:href="#DejaVuSans-115"/>
       <use x="331.005859" xlink:href="#DejaVuSans-112"/>
       <use x="394.482422" xlink:href="#DejaVuSans-108"/>
       <use x="422.265625" xlink:href="#DejaVuSans-117"/>
       <use x="485.644531" xlink:href="#DejaVuSans-115"/>
      </g>
     </g>
    </g>
    <g id="xtick_2">
     <g id="line2d_2">
      <g>
       <use style="stroke:#000000;stroke-width:0.8;" x="160.464125" xlink:href="#mfa776d77e3" y="288.430125"/>
      </g>
     </g>
     <g id="text_2">
      <!-- aflplusplus_hier -->
      <g transform="translate(91.602627 341.087127)rotate(-30)scale(0.1 -0.1)">
       <defs>
        <path d="M 50.984375 -16.609375 
L 50.984375 -23.578125 
L -0.984375 -23.578125 
L -0.984375 -16.609375 
z
" id="DejaVuSans-95"/>
        <path d="M 54.890625 33.015625 
L 54.890625 0 
L 45.90625 0 
L 45.90625 32.71875 
Q 45.90625 40.484375 42.875 44.328125 
Q 39.84375 48.1875 33.796875 48.1875 
Q 26.515625 48.1875 22.3125 43.546875 
Q 18.109375 38.921875 18.109375 30.90625 
L 18.109375 0 
L 9.078125 0 
L 9.078125 75.984375 
L 18.109375 75.984375 
L 18.109375 46.1875 
Q 21.34375 51.125 25.703125 53.5625 
Q 30.078125 56 35.796875 56 
Q 45.21875 56 50.046875 50.171875 
Q 54.890625 44.34375 54.890625 33.015625 
z
" id="DejaVuSans-104"/>
        <path d="M 9.421875 54.6875 
L 18.40625 54.6875 
L 18.40625 0 
L 9.421875 0 
z
M 9.421875 75.984375 
L 18.40625 75.984375 
L 18.40625 64.59375 
L 9.421875 64.59375 
z
" id="DejaVuSans-105"/>
        <path d="M 56.203125 29.59375 
L 56.203125 25.203125 
L 14.890625 25.203125 
Q 15.484375 15.921875 20.484375 11.0625 
Q 25.484375 6.203125 34.421875 6.203125 
Q 39.59375 6.203125 44.453125 7.46875 
Q 49.3125 8.734375 54.109375 11.28125 
L 54.109375 2.78125 
Q 49.265625 0.734375 44.1875 -0.34375 
Q 39.109375 -1.421875 33.890625 -1.421875 
Q 20.796875 -1.421875 13.15625 6.1875 
Q 5.515625 13.8125 5.515625 26.8125 
Q 5.515625 40.234375 12.765625 48.109375 
Q 20.015625 56 32.328125 56 
Q 43.359375 56 49.78125 48.890625 
Q 56.203125 41.796875 56.203125 29.59375 
z
M 47.21875 32.234375 
Q 47.125 39.59375 43.09375 43.984375 
Q 39.0625 48.390625 32.421875 48.390625 
Q 24.90625 48.390625 20.390625 44.140625 
Q 15.875 39.890625 15.1875 32.171875 
z
" id="DejaVuSans-101"/>
        <path d="M 41.109375 46.296875 
Q 39.59375 47.171875 37.8125 47.578125 
Q 36.03125 48 33.890625 48 
Q 26.265625 48 22.1875 43.046875 
Q 18.109375 38.09375 18.109375 28.8125 
L 18.109375 0 
L 9.078125 0 
L 9.078125 54.6875 
L 18.109375 54.6875 
L 18.109375 46.1875 
Q 20.953125 51.171875 25.484375 53.578125 
Q 30.03125 56 36.53125 56 
Q 37.453125 56 38.578125 55.875 
Q 39.703125 55.765625 41.0625 55.515625 
z
" id="DejaVuSans-114"/>
       </defs>
       <use xlink:href="#DejaVuSans-97"/>
       <use x="61.279297" xlink:href="#DejaVuSans-102"/>
       <use x="96.484375" xlink:href="#DejaVuSans-108"/>
       <use x="124.267578" xlink:href="#DejaVuSans-112"/>
       <use x="187.744141" xlink:href="#DejaVuSans-108"/>
       <use x="215.527344" xlink:href="#DejaVuSans-117"/>
       <use x="278.90625" xlink:href="#DejaVuSans-115"/>
       <use x="331.005859" xlink:href="#DejaVuSans-112"/>
       <use x="394.482422" xlink:href="#DejaVuSans-108"/>
       <use x="422.265625" xlink:href="#DejaVuSans-117"/>
       <use x="485.644531" xlink:href="#DejaVuSans-115"/>
       <use x="537.744141" xlink:href="#DejaVuSans-95"/>
       <use x="587.744141" xlink:href="#DejaVuSans-104"/>
       <use x="651.123047" xlink:href="#DejaVuSans-105"/>
       <use x="678.90625" xlink:href="#DejaVuSans-101"/>
       <use x="740.429688" xlink:href="#DejaVuSans-114"/>
      </g>
     </g>
    </g>
    <g id="xtick_3">
     <g id="line2d_3">
      <g>
       <use style="stroke:#000000;stroke-width:0.8;" x="231.888125" xlink:href="#mfa776d77e3" y="288.430125"/>
      </g>
     </g>
     <g id="text_3">
      <!-- aflplusplus_hier_coe -->
      <g transform="translate(143.306958 352.472284)rotate(-30)scale(0.1 -0.1)">
       <defs>
        <path d="M 48.78125 52.59375 
L 48.78125 44.1875 
Q 44.96875 46.296875 41.140625 47.34375 
Q 37.3125 48.390625 33.40625 48.390625 
Q 24.65625 48.390625 19.8125 42.84375 
Q 14.984375 37.3125 14.984375 27.296875 
Q 14.984375 17.28125 19.8125 11.734375 
Q 24.65625 6.203125 33.40625 6.203125 
Q 37.3125 6.203125 41.140625 7.25 
Q 44.96875 8.296875 48.78125 10.40625 
L 48.78125 2.09375 
Q 45.015625 0.34375 40.984375 -0.53125 
Q 36.96875 -1.421875 32.421875 -1.421875 
Q 20.0625 -1.421875 12.78125 6.34375 
Q 5.515625 14.109375 5.515625 27.296875 
Q 5.515625 40.671875 12.859375 48.328125 
Q 20.21875 56 33.015625 56 
Q 37.15625 56 41.109375 55.140625 
Q 45.0625 54.296875 48.78125 52.59375 
z
" id="DejaVuSans-99"/>
        <path d="M 30.609375 48.390625 
Q 23.390625 48.390625 19.1875 42.75 
Q 14.984375 37.109375 14.984375 27.296875 
Q 14.984375 17.484375 19.15625 11.84375 
Q 23.34375 6.203125 30.609375 6.203125 
Q 37.796875 6.203125 41.984375 11.859375 
Q 46.1875 17.53125 46.1875 27.296875 
Q 46.1875 37.015625 41.984375 42.703125 
Q 37.796875 48.390625 30.609375 48.390625 
z
M 30.609375 56 
Q 42.328125 56 49.015625 48.375 
Q 55.71875 40.765625 55.71875 27.296875 
Q 55.71875 13.875 49.015625 6.21875 
Q 42.328125 -1.421875 30.609375 -1.421875 
Q 18.84375 -1.421875 12.171875 6.21875 
Q 5.515625 13.875 5.515625 27.296875 
Q 5.515625 40.765625 12.171875 48.375 
Q 18.84375 56 30.609375 56 
z
" id="DejaVuSans-111"/>
       </defs>
       <use xlink:href="#DejaVuSans-97"/>
       <use x="61.279297" xlink:href="#DejaVuSans-102"/>
       <use x="96.484375" xlink:href="#DejaVuSans-108"/>
       <use x="124.267578" xlink:href="#DejaVuSans-112"/>
       <use x="187.744141" xlink:href="#DejaVuSans-108"/>
       <use x="215.527344" xlink:href="#DejaVuSans-117"/>
       <use x="278.90625" xlink:href="#DejaVuSans-115"/>
       <use x="331.005859" xlink:href="#DejaVuSans-112"/>
       <use x="394.482422" xlink:href="#DejaVuSans-108"/>
       <use x="422.265625" xlink:href="#DejaVuSans-117"/>
       <use x="485.644531" xlink:href="#DejaVuSans-115"/>
       <use x="537.744141" xlink:href="#DejaVuSans-95"/>
       <use x="587.744141" xlink:href="#DejaVuSans-104"/>
       <use x="651.123047" xlink:href="#DejaVuSans-105"/>
       <use x="678.90625" xlink:href="#DejaVuSans-101"/>
       <use x="740.429688" xlink:href="#DejaVuSans-114"/>
       <use x="781.542969" xlink:href="#DejaVuSans-95"/>
       <use x="831.542969" xlink:href="#DejaVuSans-99"/>
       <use x="886.523438" xlink:href="#DejaVuSans-111"/>
       <use x="947.705078" xlink:href="#DejaVuSans-101"/>
      </g>
     </g>
    </g>
    <g id="xtick_4">
     <g id="line2d_4">
      <g>
       <use style="stroke:#000000;stroke-width:0.8;" x="303.312125" xlink:href="#mfa776d77e3" y="288.430125"/>
      </g>
     </g>
     <g id="text_4">
      <!-- afl_qemu -->
      <g transform="translate(262.290638 325.01369)rotate(-30)scale(0.1 -0.1)">
       <defs>
        <path d="M 14.796875 27.296875 
Q 14.796875 17.390625 18.875 11.75 
Q 22.953125 6.109375 30.078125 6.109375 
Q 37.203125 6.109375 41.296875 11.75 
Q 45.40625 17.390625 45.40625 27.296875 
Q 45.40625 37.203125 41.296875 42.84375 
Q 37.203125 48.484375 30.078125 48.484375 
Q 22.953125 48.484375 18.875 42.84375 
Q 14.796875 37.203125 14.796875 27.296875 
z
M 45.40625 8.203125 
Q 42.578125 3.328125 38.25 0.953125 
Q 33.9375 -1.421875 27.875 -1.421875 
Q 17.96875 -1.421875 11.734375 6.484375 
Q 5.515625 14.40625 5.515625 27.296875 
Q 5.515625 40.1875 11.734375 48.09375 
Q 17.96875 56 27.875 56 
Q 33.9375 56 38.25 53.625 
Q 42.578125 51.265625 45.40625 46.390625 
L 45.40625 54.6875 
L 54.390625 54.6875 
L 54.390625 -20.796875 
L 45.40625 -20.796875 
z
" id="DejaVuSans-113"/>
        <path d="M 52 44.1875 
Q 55.375 50.25 60.0625 53.125 
Q 64.75 56 71.09375 56 
Q 79.640625 56 84.28125 50.015625 
Q 88.921875 44.046875 88.921875 33.015625 
L 88.921875 0 
L 79.890625 0 
L 79.890625 32.71875 
Q 79.890625 40.578125 77.09375 44.375 
Q 74.3125 48.1875 68.609375 48.1875 
Q 61.625 48.1875 57.5625 43.546875 
Q 53.515625 38.921875 53.515625 30.90625 
L 53.515625 0 
L 44.484375 0 
L 44.484375 32.71875 
Q 44.484375 40.625 41.703125 44.40625 
Q 38.921875 48.1875 33.109375 48.1875 
Q 26.21875 48.1875 22.15625 43.53125 
Q 18.109375 38.875 18.109375 30.90625 
L 18.109375 0 
L 9.078125 0 
L 9.078125 54.6875 
L 18.109375 54.6875 
L 18.109375 46.1875 
Q 21.1875 51.21875 25.484375 53.609375 
Q 29.78125 56 35.6875 56 
Q 41.65625 56 45.828125 52.96875 
Q 50 49.953125 52 44.1875 
z
" id="DejaVuSans-109"/>
       </defs>
       <use xlink:href="#DejaVuSans-97"/>
       <use x="61.279297" xlink:href="#DejaVuSans-102"/>
       <use x="96.484375" xlink:href="#DejaVuSans-108"/>
       <use x="124.267578" xlink:href="#DejaVuSans-95"/>
       <use x="174.267578" xlink:href="#DejaVuSans-113"/>
       <use x="237.744141" xlink:href="#DejaVuSans-101"/>
       <use x="299.267578" xlink:href="#DejaVuSans-109"/>
       <use x="396.679688" xlink:href="#DejaVuSans-117"/>
      </g>
     </g>
    </g>
    <g id="xtick_5">
     <g id="line2d_5">
      <g>
       <use style="stroke:#000000;stroke-width:0.8;" x="374.736125" xlink:href="#mfa776d77e3" y="288.430125"/>
      </g>
     </g>
     <g id="text_5">
      <!-- aflplusplus_hier_fast -->
      <g transform="translate(285.282167 352.97619)rotate(-30)scale(0.1 -0.1)">
       <defs>
        <path d="M 18.3125 70.21875 
L 18.3125 54.6875 
L 36.8125 54.6875 
L 36.8125 47.703125 
L 18.3125 47.703125 
L 18.3125 18.015625 
Q 18.3125 11.328125 20.140625 9.421875 
Q 21.96875 7.515625 27.59375 7.515625 
L 36.8125 7.515625 
L 36.8125 0 
L 27.59375 0 
Q 17.1875 0 13.234375 3.875 
Q 9.28125 7.765625 9.28125 18.015625 
L 9.28125 47.703125 
L 2.6875 47.703125 
L 2.6875 54.6875 
L 9.28125 54.6875 
L 9.28125 70.21875 
z
" id="DejaVuSans-116"/>
       </defs>
       <use xlink:href="#DejaVuSans-97"/>
       <use x="61.279297" xlink:href="#DejaVuSans-102"/>
       <use x="96.484375" xlink:href="#DejaVuSans-108"/>
       <use x="124.267578" xlink:href="#DejaVuSans-112"/>
       <use x="187.744141" xlink:href="#DejaVuSans-108"/>
       <use x="215.527344" xlink:href="#DejaVuSans-117"/>
       <use x="278.90625" xlink:href="#DejaVuSans-115"/>
       <use x="331.005859" xlink:href="#DejaVuSans-112"/>
       <use x="394.482422" xlink:href="#DejaVuSans-108"/>
       <use x="422.265625" xlink:href="#DejaVuSans-117"/>
       <use x="485.644531" xlink:href="#DejaVuSans-115"/>
       <use x="537.744141" xlink:href="#DejaVuSans-95"/>
       <use x="587.744141" xlink:href="#DejaVuSans-104"/>
       <use x="651.123047" xlink:href="#DejaVuSans-105"/>
       <use x="678.90625" xlink:href="#DejaVuSans-101"/>
       <use x="740.429688" xlink:href="#DejaVuSans-114"/>
       <use x="781.542969" xlink:href="#DejaVuSans-95"/>
       <use x="831.542969" xlink:href="#DejaVuSans-102"/>
       <use x="866.748047" xlink:href="#DejaVuSans-97"/>
       <use x="928.027344" xlink:href="#DejaVuSans-115"/>
       <use x="980.126953" xlink:href="#DejaVuSans-116"/>
      </g>
     </g>
    </g>
    <g id="text_6">
     <!-- Fuzzer (highest median coverage on the left) -->
     <g transform="translate(119.270156 366.616553)scale(0.1 -0.1)">
      <defs>
       <path d="M 9.8125 72.90625 
L 51.703125 72.90625 
L 51.703125 64.59375 
L 19.671875 64.59375 
L 19.671875 43.109375 
L 48.578125 43.109375 
L 48.578125 34.8125 
L 19.671875 34.8125 
L 19.671875 0 
L 9.8125 0 
z
" id="DejaVuSans-70"/>
       <path d="M 5.515625 54.6875 
L 48.1875 54.6875 
L 48.1875 46.484375 
L 14.40625 7.171875 
L 48.1875 7.171875 
L 48.1875 0 
L 4.296875 0 
L 4.296875 8.203125 
L 38.09375 47.515625 
L 5.515625 47.515625 
z
" id="DejaVuSans-122"/>
       <path id="DejaVuSans-32"/>
       <path d="M 31 75.875 
Q 24.46875 64.65625 21.28125 53.65625 
Q 18.109375 42.671875 18.109375 31.390625 
Q 18.109375 20.125 21.3125 9.0625 
Q 24.515625 -2 31 -13.1875 
L 23.1875 -13.1875 
Q 15.875 -1.703125 12.234375 9.375 
Q 8.59375 20.453125 8.59375 31.390625 
Q 8.59375 42.28125 12.203125 53.3125 
Q 15.828125 64.359375 23.1875 75.875 
z
" id="DejaVuSans-40"/>
       <path d="M 45.40625 27.984375 
Q 45.40625 37.75 41.375 43.109375 
Q 37.359375 48.484375 30.078125 48.484375 
Q 22.859375 48.484375 18.828125 43.109375 
Q 14.796875 37.75 14.796875 27.984375 
Q 14.796875 18.265625 18.828125 12.890625 
Q 22.859375 7.515625 30.078125 7.515625 
Q 37.359375 7.515625 41.375 12.890625 
Q 45.40625 18.265625 45.40625 27.984375 
z
M 54.390625 6.78125 
Q 54.390625 -7.171875 48.1875 -13.984375 
Q 42 -20.796875 29.203125 -20.796875 
Q 24.46875 -20.796875 20.265625 -20.09375 
Q 16.0625 -19.390625 12.109375 -17.921875 
L 12.109375 -9.1875 
Q 16.0625 -11.328125 19.921875 -12.34375 
Q 23.78125 -13.375 27.78125 -13.375 
Q 36.625 -13.375 41.015625 -8.765625 
Q 45.40625 -4.15625 45.40625 5.171875 
L 45.40625 9.625 
Q 42.625 4.78125 38.28125 2.390625 
Q 33.9375 0 27.875 0 
Q 17.828125 0 11.671875 7.65625 
Q 5.515625 15.328125 5.515625 27.984375 
Q 5.515625 40.671875 11.671875 48.328125 
Q 17.828125 56 27.875 56 
Q 33.9375 56 38.28125 53.609375 
Q 42.625 51.21875 45.40625 46.390625 
L 45.40625 54.6875 
L 54.390625 54.6875 
z
" id="DejaVuSans-103"/>
       <path d="M 45.40625 46.390625 
L 45.40625 75.984375 
L 54.390625 75.984375 
L 54.390625 0 
L 45.40625 0 
L 45.40625 8.203125 
Q 42.578125 3.328125 38.25 0.953125 
Q 33.9375 -1.421875 27.875 -1.421875 
Q 17.96875 -1.421875 11.734375 6.484375 
Q 5.515625 14.40625 5.515625 27.296875 
Q 5.515625 40.1875 11.734375 48.09375 
Q 17.96875 56 27.875 56 
Q 33.9375 56 38.25 53.625 
Q 42.578125 51.265625 45.40625 46.390625 
z
M 14.796875 27.296875 
Q 14.796875 17.390625 18.875 11.75 
Q 22.953125 6.109375 30.078125 6.109375 
Q 37.203125 6.109375 41.296875 11.75 
Q 45.40625 17.390625 45.40625 27.296875 
Q 45.40625 37.203125 41.296875 42.84375 
Q 37.203125 48.484375 30.078125 48.484375 
Q 22.953125 48.484375 18.875 42.84375 
Q 14.796875 37.203125 14.796875 27.296875 
z
" id="DejaVuSans-100"/>
       <path d="M 54.890625 33.015625 
L 54.890625 0 
L 45.90625 0 
L 45.90625 32.71875 
Q 45.90625 40.484375 42.875 44.328125 
Q 39.84375 48.1875 33.796875 48.1875 
Q 26.515625 48.1875 22.3125 43.546875 
Q 18.109375 38.921875 18.109375 30.90625 
L 18.109375 0 
L 9.078125 0 
L 9.078125 54.6875 
L 18.109375 54.6875 
L 18.109375 46.1875 
Q 21.34375 51.125 25.703125 53.5625 
Q 30.078125 56 35.796875 56 
Q 45.21875 56 50.046875 50.171875 
Q 54.890625 44.34375 54.890625 33.015625 
z
" id="DejaVuSans-110"/>
       <path d="M 2.984375 54.6875 
L 12.5 54.6875 
L 29.59375 8.796875 
L 46.6875 54.6875 
L 56.203125 54.6875 
L 35.6875 0 
L 23.484375 0 
z
" id="DejaVuSans-118"/>
       <path d="M 8.015625 75.875 
L 15.828125 75.875 
Q 23.140625 64.359375 26.78125 53.3125 
Q 30.421875 42.28125 30.421875 31.390625 
Q 30.421875 20.453125 26.78125 9.375 
Q 23.140625 -1.703125 15.828125 -13.1875 
L 8.015625 -13.1875 
Q 14.5 -2 17.703125 9.0625 
Q 20.90625 20.125 20.90625 31.390625 
Q 20.90625 42.671875 17.703125 53.65625 
Q 14.5 64.65625 8.015625 75.875 
z
" id="DejaVuSans-41"/>
      </defs>
      <use xlink:href="#DejaVuSans-70"/>
      <use x="52.019531" xlink:href="#DejaVuSans-117"/>
      <use x="115.398438" xlink:href="#DejaVuSans-122"/>
      <use x="167.888672" xlink:href="#DejaVuSans-122"/>
      <use x="220.378906" xlink:href="#DejaVuSans-101"/>
      <use x="281.902344" xlink:href="#DejaVuSans-114"/>
      <use x="323.015625" xlink:href="#DejaVuSans-32"/>
      <use x="354.802734" xlink:href="#DejaVuSans-40"/>
      <use x="393.816406" xlink:href="#DejaVuSans-104"/>
      <use x="457.195312" xlink:href="#DejaVuSans-105"/>
      <use x="484.978516" xlink:href="#DejaVuSans-103"/>
      <use x="548.455078" xlink:href="#DejaVuSans-104"/>
      <use x="611.833984" xlink:href="#DejaVuSans-101"/>
      <use x="673.357422" xlink:href="#DejaVuSans-115"/>
      <use x="725.457031" xlink:href="#DejaVuSans-116"/>
      <use x="764.666016" xlink:href="#DejaVuSans-32"/>
      <use x="796.453125" xlink:href="#DejaVuSans-109"/>
      <use x="893.865234" xlink:href="#DejaVuSans-101"/>
      <use x="955.388672" xlink:href="#DejaVuSans-100"/>
      <use x="1018.865234" xlink:href="#DejaVuSans-105"/>
      <use x="1046.648438" xlink:href="#DejaVuSans-97"/>
      <use x="1107.927734" xlink:href="#DejaVuSans-110"/>
      <use x="1171.306641" xlink:href="#DejaVuSans-32"/>
      <use x="1203.09375" xlink:href="#DejaVuSans-99"/>
      <use x="1258.074219" xlink:href="#DejaVuSans-111"/>
      <use x="1319.255859" xlink:href="#DejaVuSans-118"/>
      <use x="1378.435547" xlink:href="#DejaVuSans-101"/>
      <use x="1439.958984" xlink:href="#DejaVuSans-114"/>
      <use x="1481.072266" xlink:href="#DejaVuSans-97"/>
      <use x="1542.351562" xlink:href="#DejaVuSans-103"/>
      <use x="1605.828125" xlink:href="#DejaVuSans-101"/>
      <use x="1667.351562" xlink:href="#DejaVuSans-32"/>
      <use x="1699.138672" xlink:href="#DejaVuSans-111"/>
      <use x="1760.320312" xlink:href="#DejaVuSans-110"/>
      <use x="1823.699219" xlink:href="#DejaVuSans-32"/>
      <use x="1855.486328" xlink:href="#DejaVuSans-116"/>
      <use x="1894.695312" xlink:href="#DejaVuSans-104"/>
      <use x="1958.074219" xlink:href="#DejaVuSans-101"/>
      <use x="2019.597656" xlink:href="#DejaVuSans-32"/>
      <use x="2051.384766" xlink:href="#DejaVuSans-108"/>
      <use x="2079.167969" xlink:href="#DejaVuSans-101"/>
      <use x="2140.691406" xlink:href="#DejaVuSans-102"/>
      <use x="2174.146484" xlink:href="#DejaVuSans-116"/>
      <use x="2213.355469" xlink:href="#DejaVuSans-41"/>
     </g>
    </g>
   </g>
   <g id="matplotlib.axis_2">
    <g id="ytick_1">
     <g id="line2d_6">
      <defs>
       <path d="M 0 0 
L -3.5 0 
" id="m59fde2f8ee" style="stroke:#000000;stroke-width:0.8;"/>
      </defs>
      <g>
       <use style="stroke:#000000;stroke-width:0.8;" x="53.328125" xlink:href="#m59fde2f8ee" y="272.887718"/>
      </g>
     </g>
     <g id="text_7">
      <!-- 2000 -->
      <g transform="translate(20.878125 276.686937)scale(0.1 -0.1)">
       <defs>
        <path d="M 19.1875 8.296875 
L 53.609375 8.296875 
L 53.609375 0 
L 7.328125 0 
L 7.328125 8.296875 
Q 12.9375 14.109375 22.625 23.890625 
Q 32.328125 33.6875 34.8125 36.53125 
Q 39.546875 41.84375 41.421875 45.53125 
Q 43.3125 49.21875 43.3125 52.78125 
Q 43.3125 58.59375 39.234375 62.25 
Q 35.15625 65.921875 28.609375 65.921875 
Q 23.96875 65.921875 18.8125 64.3125 
Q 13.671875 62.703125 7.8125 59.421875 
L 7.8125 69.390625 
Q 13.765625 71.78125 18.9375 73 
Q 24.125 74.21875 28.421875 74.21875 
Q 39.75 74.21875 46.484375 68.546875 
Q 53.21875 62.890625 53.21875 53.421875 
Q 53.21875 48.921875 51.53125 44.890625 
Q 49.859375 40.875 45.40625 35.40625 
Q 44.1875 33.984375 37.640625 27.21875 
Q 31.109375 20.453125 19.1875 8.296875 
z
" id="DejaVuSans-50"/>
        <path d="M 31.78125 66.40625 
Q 24.171875 66.40625 20.328125 58.90625 
Q 16.5 51.421875 16.5 36.375 
Q 16.5 21.390625 20.328125 13.890625 
Q 24.171875 6.390625 31.78125 6.390625 
Q 39.453125 6.390625 43.28125 13.890625 
Q 47.125 21.390625 47.125 36.375 
Q 47.125 51.421875 43.28125 58.90625 
Q 39.453125 66.40625 31.78125 66.40625 
z
M 31.78125 74.21875 
Q 44.046875 74.21875 50.515625 64.515625 
Q 56.984375 54.828125 56.984375 36.375 
Q 56.984375 17.96875 50.515625 8.265625 
Q 44.046875 -1.421875 31.78125 -1.421875 
Q 19.53125 -1.421875 13.0625 8.265625 
Q 6.59375 17.96875 6.59375 36.375 
Q 6.59375 54.828125 13.0625 64.515625 
Q 19.53125 74.21875 31.78125 74.21875 
z
" id="DejaVuSans-48"/>
       </defs>
       <use xlink:href="#DejaVuSans-50"/>
       <use x="63.623047" xlink:href="#DejaVuSans-48"/>
       <use x="127.246094" xlink:href="#DejaVuSans-48"/>
       <use x="190.869141" xlink:href="#DejaVuSans-48"/>
      </g>
     </g>
    </g>
    <g id="ytick_2">
     <g id="line2d_7">
      <g>
       <use style="stroke:#000000;stroke-width:0.8;" x="53.328125" xlink:href="#m59fde2f8ee" y="241.411525"/>
      </g>
     </g>
     <g id="text_8">
      <!-- 2200 -->
      <g transform="translate(20.878125 245.210744)scale(0.1 -0.1)">
       <use xlink:href="#DejaVuSans-50"/>
       <use x="63.623047" xlink:href="#DejaVuSans-50"/>
       <use x="127.246094" xlink:href="#DejaVuSans-48"/>
       <use x="190.869141" xlink:href="#DejaVuSans-48"/>
      </g>
     </g>
    </g>
    <g id="ytick_3">
     <g id="line2d_8">
      <g>
       <use style="stroke:#000000;stroke-width:0.8;" x="53.328125" xlink:href="#m59fde2f8ee" y="209.935332"/>
      </g>
     </g>
     <g id="text_9">
      <!-- 2400 -->
      <g transform="translate(20.878125 213.734551)scale(0.1 -0.1)">
       <defs>
        <path d="M 37.796875 64.3125 
L 12.890625 25.390625 
L 37.796875 25.390625 
z
M 35.203125 72.90625 
L 47.609375 72.90625 
L 47.609375 25.390625 
L 58.015625 25.390625 
L 58.015625 17.1875 
L 47.609375 17.1875 
L 47.609375 0 
L 37.796875 0 
L 37.796875 17.1875 
L 4.890625 17.1875 
L 4.890625 26.703125 
z
" id="DejaVuSans-52"/>
       </defs>
       <use xlink:href="#DejaVuSans-50"/>
       <use x="63.623047" xlink:href="#DejaVuSans-52"/>
       <use x="127.246094" xlink:href="#DejaVuSans-48"/>
       <use x="190.869141" xlink:href="#DejaVuSans-48"/>
      </g>
     </g>
    </g>
    <g id="ytick_4">
     <g id="line2d_9">
      <g>
       <use style="stroke:#000000;stroke-width:0.8;" x="53.328125" xlink:href="#m59fde2f8ee" y="178.459139"/>
      </g>
     </g>
     <g id="text_10">
      <!-- 2600 -->
      <g transform="translate(20.878125 182.258357)scale(0.1 -0.1)">
       <defs>
        <path d="M 33.015625 40.375 
Q 26.375 40.375 22.484375 35.828125 
Q 18.609375 31.296875 18.609375 23.390625 
Q 18.609375 15.53125 22.484375 10.953125 
Q 26.375 6.390625 33.015625 6.390625 
Q 39.65625 6.390625 43.53125 10.953125 
Q 47.40625 15.53125 47.40625 23.390625 
Q 47.40625 31.296875 43.53125 35.828125 
Q 39.65625 40.375 33.015625 40.375 
z
M 52.59375 71.296875 
L 52.59375 62.3125 
Q 48.875 64.0625 45.09375 64.984375 
Q 41.3125 65.921875 37.59375 65.921875 
Q 27.828125 65.921875 22.671875 59.328125 
Q 17.53125 52.734375 16.796875 39.40625 
Q 19.671875 43.65625 24.015625 45.921875 
Q 28.375 48.1875 33.59375 48.1875 
Q 44.578125 48.1875 50.953125 41.515625 
Q 57.328125 34.859375 57.328125 23.390625 
Q 57.328125 12.15625 50.6875 5.359375 
Q 44.046875 -1.421875 33.015625 -1.421875 
Q 20.359375 -1.421875 13.671875 8.265625 
Q 6.984375 17.96875 6.984375 36.375 
Q 6.984375 53.65625 15.1875 63.9375 
Q 23.390625 74.21875 37.203125 74.21875 
Q 40.921875 74.21875 44.703125 73.484375 
Q 48.484375 72.75 52.59375 71.296875 
z
" id="DejaVuSans-54"/>
       </defs>
       <use xlink:href="#DejaVuSans-50"/>
       <use x="63.623047" xlink:href="#DejaVuSans-54"/>
       <use x="127.246094" xlink:href="#DejaVuSans-48"/>
       <use x="190.869141" xlink:href="#DejaVuSans-48"/>
      </g>
     </g>
    </g>
    <g id="ytick_5">
     <g id="line2d_10">
      <g>
       <use style="stroke:#000000;stroke-width:0.8;" x="53.328125" xlink:href="#m59fde2f8ee" y="146.982945"/>
      </g>
     </g>
     <g id="text_11">
      <!-- 2800 -->
      <g transform="translate(20.878125 150.782164)scale(0.1 -0.1)">
       <defs>
        <path d="M 31.78125 34.625 
Q 24.75 34.625 20.71875 30.859375 
Q 16.703125 27.09375 16.703125 20.515625 
Q 16.703125 13.921875 20.71875 10.15625 
Q 24.75 6.390625 31.78125 6.390625 
Q 38.8125 6.390625 42.859375 10.171875 
Q 46.921875 13.96875 46.921875 20.515625 
Q 46.921875 27.09375 42.890625 30.859375 
Q 38.875 34.625 31.78125 34.625 
z
M 21.921875 38.8125 
Q 15.578125 40.375 12.03125 44.71875 
Q 8.5 49.078125 8.5 55.328125 
Q 8.5 64.0625 14.71875 69.140625 
Q 20.953125 74.21875 31.78125 74.21875 
Q 42.671875 74.21875 48.875 69.140625 
Q 55.078125 64.0625 55.078125 55.328125 
Q 55.078125 49.078125 51.53125 44.71875 
Q 48 40.375 41.703125 38.8125 
Q 48.828125 37.15625 52.796875 32.3125 
Q 56.78125 27.484375 56.78125 20.515625 
Q 56.78125 9.90625 50.3125 4.234375 
Q 43.84375 -1.421875 31.78125 -1.421875 
Q 19.734375 -1.421875 13.25 4.234375 
Q 6.78125 9.90625 6.78125 20.515625 
Q 6.78125 27.484375 10.78125 32.3125 
Q 14.796875 37.15625 21.921875 38.8125 
z
M 18.3125 54.390625 
Q 18.3125 48.734375 21.84375 45.5625 
Q 25.390625 42.390625 31.78125 42.390625 
Q 38.140625 42.390625 41.71875 45.5625 
Q 45.3125 48.734375 45.3125 54.390625 
Q 45.3125 60.0625 41.71875 63.234375 
Q 38.140625 66.40625 31.78125 66.40625 
Q 25.390625 66.40625 21.84375 63.234375 
Q 18.3125 60.0625 18.3125 54.390625 
z
" id="DejaVuSans-56"/>
       </defs>
       <use xlink:href="#DejaVuSans-50"/>
       <use x="63.623047" xlink:href="#DejaVuSans-56"/>
       <use x="127.246094" xlink:href="#DejaVuSans-48"/>
       <use x="190.869141" xlink:href="#DejaVuSans-48"/>
      </g>
     </g>
    </g>
    <g id="ytick_6">
     <g id="line2d_11">
      <g>
       <use style="stroke:#000000;stroke-width:0.8;" x="53.328125" xlink:href="#m59fde2f8ee" y="115.506752"/>
      </g>
     </g>
     <g id="text_12">
      <!-- 3000 -->
      <g transform="translate(20.878125 119.305971)scale(0.1 -0.1)">
       <defs>
        <path d="M 40.578125 39.3125 
Q 47.65625 37.796875 51.625 33 
Q 55.609375 28.21875 55.609375 21.1875 
Q 55.609375 10.40625 48.1875 4.484375 
Q 40.765625 -1.421875 27.09375 -1.421875 
Q 22.515625 -1.421875 17.65625 -0.515625 
Q 12.796875 0.390625 7.625 2.203125 
L 7.625 11.71875 
Q 11.71875 9.328125 16.59375 8.109375 
Q 21.484375 6.890625 26.8125 6.890625 
Q 36.078125 6.890625 40.9375 10.546875 
Q 45.796875 14.203125 45.796875 21.1875 
Q 45.796875 27.640625 41.28125 31.265625 
Q 36.765625 34.90625 28.71875 34.90625 
L 20.21875 34.90625 
L 20.21875 43.015625 
L 29.109375 43.015625 
Q 36.375 43.015625 40.234375 45.921875 
Q 44.09375 48.828125 44.09375 54.296875 
Q 44.09375 59.90625 40.109375 62.90625 
Q 36.140625 65.921875 28.71875 65.921875 
Q 24.65625 65.921875 20.015625 65.03125 
Q 15.375 64.15625 9.8125 62.3125 
L 9.8125 71.09375 
Q 15.4375 72.65625 20.34375 73.4375 
Q 25.25 74.21875 29.59375 74.21875 
Q 40.828125 74.21875 47.359375 69.109375 
Q 53.90625 64.015625 53.90625 55.328125 
Q 53.90625 49.265625 50.4375 45.09375 
Q 46.96875 40.921875 40.578125 39.3125 
z
" id="DejaVuSans-51"/>
       </defs>
       <use xlink:href="#DejaVuSans-51"/>
       <use x="63.623047" xlink:href="#DejaVuSans-48"/>
       <use x="127.246094" xlink:href="#DejaVuSans-48"/>
       <use x="190.869141" xlink:href="#DejaVuSans-48"/>
      </g>
     </g>
    </g>
    <g id="ytick_7">
     <g id="line2d_12">
      <g>
       <use style="stroke:#000000;stroke-width:0.8;" x="53.328125" xlink:href="#m59fde2f8ee" y="84.030559"/>
      </g>
     </g>
     <g id="text_13">
      <!-- 3200 -->
      <g transform="translate(20.878125 87.829778)scale(0.1 -0.1)">
       <use xlink:href="#DejaVuSans-51"/>
       <use x="63.623047" xlink:href="#DejaVuSans-50"/>
       <use x="127.246094" xlink:href="#DejaVuSans-48"/>
       <use x="190.869141" xlink:href="#DejaVuSans-48"/>
      </g>
     </g>
    </g>
    <g id="ytick_8">
     <g id="line2d_13">
      <g>
       <use style="stroke:#000000;stroke-width:0.8;" x="53.328125" xlink:href="#m59fde2f8ee" y="52.554366"/>
      </g>
     </g>
     <g id="text_14">
      <!-- 3400 -->
      <g transform="translate(20.878125 56.353585)scale(0.1 -0.1)">
       <use xlink:href="#DejaVuSans-51"/>
       <use x="63.623047" xlink:href="#DejaVuSans-52"/>
       <use x="127.246094" xlink:href="#DejaVuSans-48"/>
       <use x="190.869141" xlink:href="#DejaVuSans-48"/>
      </g>
     </g>
    </g>
    <g id="text_15">
     <!-- Reached region coverage -->
     <g transform="translate(14.798438 219.136625)rotate(-90)scale(0.1 -0.1)">
      <defs>
       <path d="M 44.390625 34.1875 
Q 47.5625 33.109375 50.5625 29.59375 
Q 53.5625 26.078125 56.59375 19.921875 
L 66.609375 0 
L 56 0 
L 46.6875 18.703125 
Q 43.0625 26.03125 39.671875 28.421875 
Q 36.28125 30.8125 30.421875 30.8125 
L 19.671875 30.8125 
L 19.671875 0 
L 9.8125 0 
L 9.8125 72.90625 
L 32.078125 72.90625 
Q 44.578125 72.90625 50.734375 67.671875 
Q 56.890625 62.453125 56.890625 51.90625 
Q 56.890625 45.015625 53.6875 40.46875 
Q 50.484375 35.9375 44.390625 34.1875 
z
M 19.671875 64.796875 
L 19.671875 38.921875 
L 32.078125 38.921875 
Q 39.203125 38.921875 42.84375 42.21875 
Q 46.484375 45.515625 46.484375 51.90625 
Q 46.484375 58.296875 42.84375 61.546875 
Q 39.203125 64.796875 32.078125 64.796875 
z
" id="DejaVuSans-82"/>
      </defs>
      <use xlink:href="#DejaVuSans-82"/>
      <use x="64.982422" xlink:href="#DejaVuSans-101"/>
      <use x="126.505859" xlink:href="#DejaVuSans-97"/>
      <use x="187.785156" xlink:href="#DejaVuSans-99"/>
      <use x="242.765625" xlink:href="#DejaVuSans-104"/>
      <use x="306.144531" xlink:href="#DejaVuSans-101"/>
      <use x="367.667969" xlink:href="#DejaVuSans-100"/>
      <use x="431.144531" xlink:href="#DejaVuSans-32"/>
      <use x="462.931641" xlink:href="#DejaVuSans-114"/>
      <use x="501.794922" xlink:href="#DejaVuSans-101"/>
      <use x="563.318359" xlink:href="#DejaVuSans-103"/>
      <use x="626.794922" xlink:href="#DejaVuSans-105"/>
      <use x="654.578125" xlink:href="#DejaVuSans-111"/>
      <use x="715.759766" xlink:href="#DejaVuSans-110"/>
      <use x="779.138672" xlink:href="#DejaVuSans-32"/>
      <use x="810.925781" xlink:href="#DejaVuSans-99"/>
      <use x="865.90625" xlink:href="#DejaVuSans-111"/>
      <use x="927.087891" xlink:href="#DejaVuSans-118"/>
      <use x="986.267578" xlink:href="#DejaVuSans-101"/>
      <use x="1047.791016" xlink:href="#DejaVuSans-114"/>
      <use x="1088.904297" xlink:href="#DejaVuSans-97"/>
      <use x="1150.183594" xlink:href="#DejaVuSans-103"/>
      <use x="1213.660156" xlink:href="#DejaVuSans-101"/>
     </g>
    </g>
   </g>
   <g id="line2d_14">
    <path clip-path="url(#paa5e58ae9d)" d="M 89.040125 101.657227 
L 89.040125 65.774367 
" style="fill:none;stroke:#3f3f3f;stroke-linecap:square;stroke-width:1.5;"/>
   </g>
   <g id="line2d_15">
    <path clip-path="url(#paa5e58ae9d)" d="M 89.040125 85.997821 
L 89.040125 68.056391 
" style="fill:none;stroke:#3f3f3f;stroke-linecap:square;stroke-width:4.5;"/>
   </g>
   <g id="line2d_16">
    <path clip-path="url(#paa5e58ae9d)" d="M 160.464125 182.393663 
L 160.464125 104.332704 
" style="fill:none;stroke:#3f3f3f;stroke-linecap:square;stroke-width:1.5;"/>
   </g>
   <g id="line2d_17">
    <path clip-path="url(#paa5e58ae9d)" d="M 160.464125 177.554198 
L 160.464125 144.346814 
" style="fill:none;stroke:#3f3f3f;stroke-linecap:square;stroke-width:4.5;"/>
   </g>
   <g id="line2d_18">
    <path clip-path="url(#paa5e58ae9d)" d="M 231.888125 232.44081 
L 231.888125 181.764139 
" style="fill:none;stroke:#3f3f3f;stroke-linecap:square;stroke-width:1.5;"/>
   </g>
   <g id="line2d_19">
    <path clip-path="url(#paa5e58ae9d)" d="M 231.888125 210.879618 
L 231.888125 185.541282 
" style="fill:none;stroke:#3f3f3f;stroke-linecap:square;stroke-width:4.5;"/>
   </g>
   <g id="line2d_20">
    <path clip-path="url(#paa5e58ae9d)" d="M 303.312125 212.296046 
L 303.312125 184.439615 
" style="fill:none;stroke:#3f3f3f;stroke-linecap:square;stroke-width:1.5;"/>
   </g>
   <g id="line2d_21">
    <path clip-path="url(#paa5e58ae9d)" d="M 303.312125 205.095867 
L 303.312125 190.577473 
" style="fill:none;stroke:#3f3f3f;stroke-linecap:square;stroke-width:4.5;"/>
   </g>
   <g id="line2d_22">
    <path clip-path="url(#paa5e58ae9d)" d="M 374.736125 216.07319 
L 374.736125 186.170806 
" style="fill:none;stroke:#3f3f3f;stroke-linecap:square;stroke-width:1.5;"/>
   </g>
   <g id="line2d_23">
    <path clip-path="url(#paa5e58ae9d)" d="M 374.736125 211.666523 
L 374.736125 190.577473 
" style="fill:none;stroke:#3f3f3f;stroke-linecap:square;stroke-width:4.5;"/>
   </g>
   <g id="patch_3">
    <path d="M 53.328125 272.887718 
L 53.328125 52.554366 
" style="fill:none;stroke:#000000;stroke-linecap:square;stroke-linejoin:miter;stroke-width:0.8;"/>
   </g>
   <g id="patch_4">
    <path d="M 89.040125 288.430125 
L 374.736125 288.430125 
" style="fill:none;stroke:#000000;stroke-linecap:square;stroke-linejoin:miter;stroke-width:0.8;"/>
   </g>
   <g id="PathCollection_1">
    <defs>
     <path d="M 0 1.5 
C 0.397805 1.5 0.77937 1.341951 1.06066 1.06066 
C 1.341951 0.77937 1.5 0.397805 1.5 0 
C 1.5 -0.397805 1.341951 -0.77937 1.06066 -1.06066 
C 0.77937 -1.341951 0.397805 -1.5 0 -1.5 
C -0.397805 -1.5 -0.77937 -1.341951 -1.06066 -1.06066 
C -1.341951 -0.77937 -1.5 -0.397805 -1.5 0 
C -1.5 0.397805 -1.341951 0.77937 -1.06066 1.06066 
C -0.77937 1.341951 -0.397805 1.5 0 1.5 
z
" id="mfbd4c01b10" style="stroke:#3f3f3f;"/>
    </defs>
    <g clip-path="url(#paa5e58ae9d)">
     <use style="fill:#ffffff;stroke:#3f3f3f;" x="89.040125" xlink:href="#mfbd4c01b10" y="70.338415"/>
    </g>
   </g>
   <g id="PathCollection_2">
    <g clip-path="url(#paa5e58ae9d)">
     <use style="fill:#ffffff;stroke:#3f3f3f;" x="160.464125" xlink:href="#mfbd4c01b10" y="166.812947"/>
    </g>
   </g>
   <g id="PathCollection_3">
    <g clip-path="url(#paa5e58ae9d)">
     <use style="fill:#ffffff;stroke:#3f3f3f;" x="231.888125" xlink:href="#mfbd4c01b10" y="189.318425"/>
    </g>
   </g>
   <g id="PathCollection_4">
    <g clip-path="url(#paa5e58ae9d)">
     <use style="fill:#ffffff;stroke:#3f3f3f;" x="303.312125" xlink:href="#mfbd4c01b10" y="197.659617"/>
    </g>
   </g>
   <g id="PathCollection_5">
    <g clip-path="url(#paa5e58ae9d)">
     <use style="fill:#ffffff;stroke:#3f3f3f;" x="374.736125" xlink:href="#mfbd4c01b10" y="202.538426"/>
    </g>
   </g>
   <g id="text_16">
    <!-- libjpeg-turbo-07-2017 (2h, 3 trials/fuzzer) -->
    <g transform="translate(107.060938 16.318125)scale(0.12 -0.12)">
     <defs>
      <path d="M 48.6875 27.296875 
Q 48.6875 37.203125 44.609375 42.84375 
Q 40.53125 48.484375 33.40625 48.484375 
Q 26.265625 48.484375 22.1875 42.84375 
Q 18.109375 37.203125 18.109375 27.296875 
Q 18.109375 17.390625 22.1875 11.75 
Q 26.265625 6.109375 33.40625 6.109375 
Q 40.53125 6.109375 44.609375 11.75 
Q 48.6875 17.390625 48.6875 27.296875 
z
M 18.109375 46.390625 
Q 20.953125 51.265625 25.265625 53.625 
Q 29.59375 56 35.59375 56 
Q 45.5625 56 51.78125 48.09375 
Q 58.015625 40.1875 58.015625 27.296875 
Q 58.015625 14.40625 51.78125 6.484375 
Q 45.5625 -1.421875 35.59375 -1.421875 
Q 29.59375 -1.421875 25.265625 0.953125 
Q 20.953125 3.328125 18.109375 8.203125 
L 18.109375 0 
L 9.078125 0 
L 9.078125 75.984375 
L 18.109375 75.984375 
z
" id="DejaVuSans-98"/>
      <path d="M 9.421875 54.6875 
L 18.40625 54.6875 
L 18.40625 -0.984375 
Q 18.40625 -11.421875 14.421875 -16.109375 
Q 10.453125 -20.796875 1.609375 -20.796875 
L -1.8125 -20.796875 
L -1.8125 -13.1875 
L 0.59375 -13.1875 
Q 5.71875 -13.1875 7.5625 -10.8125 
Q 9.421875 -8.453125 9.421875 -0.984375 
z
M 9.421875 75.984375 
L 18.40625 75.984375 
L 18.40625 64.59375 
L 9.421875 64.59375 
z
" id="DejaVuSans-106"/>
      <path d="M 4.890625 31.390625 
L 31.203125 31.390625 
L 31.203125 23.390625 
L 4.890625 23.390625 
z
" id="DejaVuSans-45"/>
      <path d="M 8.203125 72.90625 
L 55.078125 72.90625 
L 55.078125 68.703125 
L 28.609375 0 
L 18.3125 0 
L 43.21875 64.59375 
L 8.203125 64.59375 
z
" id="DejaVuSans-55"/>
      <path d="M 12.40625 8.296875 
L 28.515625 8.296875 
L 28.515625 63.921875 
L 10.984375 60.40625 
L 10.984375 69.390625 
L 28.421875 72.90625 
L 38.28125 72.90625 
L 38.28125 8.296875 
L 54.390625 8.296875 
L 54.390625 0 
L 12.40625 0 
z
" id="DejaVuSans-49"/>
      <path d="M 11.71875 12.40625 
L 22.015625 12.40625 
L 22.015625 4 
L 14.015625 -11.625 
L 7.71875 -11.625 
L 11.71875 4 
z
" id="DejaVuSans-44"/>
      <path d="M 25.390625 72.90625 
L 33.6875 72.90625 
L 8.296875 -9.28125 
L 0 -9.28125 
z
" id="DejaVuSans-47"/>
     </defs>
     <use xlink:href="#DejaVuSans-108"/>
     <use x="27.783203" xlink:href="#DejaVuSans-105"/>
     <use x="55.566406" xlink:href="#DejaVuSans-98"/>
     <use x="119.042969" xlink:href="#DejaVuSans-106"/>
     <use x="146.826172" xlink:href="#DejaVuSans-112"/>
     <use x="210.302734" xlink:href="#DejaVuSans-101"/>
     <use x="271.826172" xlink:href="#DejaVuSans-103"/>
     <use x="335.302734" xlink:href="#DejaVuSans-45"/>
     <use x="371.386719" xlink:href="#DejaVuSans-116"/>
     <use x="410.595703" xlink:href="#DejaVuSans-117"/>
     <use x="473.974609" xlink:href="#DejaVuSans-114"/>
     <use x="515.087891" xlink:href="#DejaVuSans-98"/>
     <use x="578.564453" xlink:href="#DejaVuSans-111"/>
     <use x="641.621094" xlink:href="#DejaVuSans-45"/>
     <use x="677.705078" xlink:href="#DejaVuSans-48"/>
     <use x="741.328125" xlink:href="#DejaVuSans-55"/>
     <use x="804.951172" xlink:href="#DejaVuSans-45"/>
     <use x="841.035156" xlink:href="#DejaVuSans-50"/>
     <use x="904.658203" xlink:href="#DejaVuSans-48"/>
     <use x="968.28125" xlink:href="#DejaVuSans-49"/>
     <use x="1031.904297" xlink:href="#DejaVuSans-55"/>
     <use x="1095.527344" xlink:href="#DejaVuSans-32"/>
     <use x="1127.314453" xlink:href="#DejaVuSans-40"/>
     <use x="1166.328125" xlink:href="#DejaVuSans-50"/>
     <use x="1229.951172" xlink:href="#DejaVuSans-104"/>
     <use x="1293.330078" xlink:href="#DejaVuSans-44"/>
     <use x="1325.117188" xlink:href="#DejaVuSans-32"/>
     <use x="1356.904297" xlink:href="#DejaVuSans-51"/>
     <use x="1420.527344" xlink:href="#DejaVuSans-32"/>
     <use x="1452.314453" xlink:href="#DejaVuSans-116"/>
     <use x="1491.523438" xlink:href="#DejaVuSans-114"/>
     <use x="1532.636719" xlink:href="#DejaVuSans-105"/>
     <use x="1560.419922" xlink:href="#DejaVuSans-97"/>
     <use x="1621.699219" xlink:href="#DejaVuSans-108"/>
     <use x="1649.482422" xlink:href="#DejaVuSans-115"/>
     <use x="1701.582031" xlink:href="#DejaVuSans-47"/>
     <use x="1735.273438" xlink:href="#DejaVuSans-102"/>
     <use x="1770.478516" xlink:href="#DejaVuSans-117"/>
     <use x="1833.857422" xlink:href="#DejaVuSans-122"/>
     <use x="1886.347656" xlink:href="#DejaVuSans-122"/>
     <use x="1938.837891" xlink:href="#DejaVuSans-101"/>
     <use x="2000.361328" xlink:href="#DejaVuSans-114"/>
     <use x="2041.474609" xlink:href="#DejaVuSans-41"/>
    </g>
   </g>
  </g>
 </g>
 <defs>
  <clipPath id="paa5e58ae9d">
   <rect height="266.112" width="357.12" x="53.328125" y="22.318125"/>
  </clipPath>
 </defs>
</svg>
