<?xml version="1.0" encoding="utf-8" standalone="no"?>
<!DOCTYPE svg PUBLIC "-//W3C//DTD SVG 1.1//EN"
  "http://www.w3.org/Graphics/SVG/1.1/DTD/svg11.dtd">
<!-- Created with matplotlib (https://matplotlib.org/) -->
<svg height="375.89624pt" version="1.1" viewBox="0 0 417.648125 375.89624" width="417.648125pt" xmlns="http://www.w3.org/2000/svg" xmlns:xlink="http://www.w3.org/1999/xlink">
 <metadata>
  <rdf:RDF xmlns:cc="http://creativecommons.org/ns#" xmlns:dc="http://purl.org/dc/elements/1.1/" xmlns:rdf="http://www.w3.org/1999/02/22-rdf-syntax-ns#">
   <cc:Work>
    <dc:type rdf:resource="http://purl.org/dc/dcmitype/StillImage"/>
    <dc:date>2020-11-17T15:05:10.668119</dc:date>
    <dc:format>image/svg+xml</dc:format>
    <dc:creator>
     <cc:Agent>
      <dc:title>Matplotlib v3.3.2, https://matplotlib.org/</dc:title>
     </cc:Agent>
    </dc:creator>
   </cc:Work>
  </rdf:RDF>
 </metadata>
 <defs>
  <style type="text/css">*{stroke-linecap:butt;stroke-linejoin:round;}</style>
 </defs>
 <g id="figure_1">
  <g id="patch_1">
   <path d="M 0 375.89624 
L 417.648125 375.89624 
L 417.648125 0 
L 0 0 
z
" style="fill:#ffffff;"/>
  </g>
  <g id="axes_1">
   <g id="patch_2">
    <path d="M 53.328125 288.430125 
L 410.448125 288.430125 
L 410.448125 22.318125 
L 53.328125 22.318125 
z
" style="fill:#ffffff;"/>
   </g>
   <g id="PolyCollection_1">
    <defs>
     <path d="M 90.127063 -338.495816 
L 87.953187 -338.495816 
L 87.776537 -338.525981 
L 87.579707 -338.556145 
L 87.362002 -338.58631 
L 87.123 -338.616475 
L 86.862603 -338.646639 
L 86.581078 -338.676804 
L 86.279093 -338.706969 
L 85.957747 -338.737133 
L 85.618585 -338.767298 
L 85.263603 -338.797463 
L 84.895232 -338.827627 
L 84.516311 -338.857792 
L 84.130041 -338.887956 
L 83.739914 -338.918121 
L 83.349636 -338.948286 
L 82.963024 -338.97845 
L 82.583894 -339.008615 
L 82.215935 -339.03878 
L 81.862579 -339.068944 
L 81.526867 -339.099109 
L 81.211316 -339.129274 
L 80.917794 -339.159438 
L 80.64741 -339.189603 
L 80.400416 -339.219768 
L 80.176137 -339.249932 
L 79.972928 -339.280097 
L 79.788156 -339.310261 
L 79.618217 -339.340426 
L 79.458591 -339.370591 
L 79.30392 -339.400755 
L 79.148131 -339.43092 
L 78.984578 -339.461085 
L 78.806216 -339.491249 
L 78.605797 -339.521414 
L 78.376078 -339.551579 
L 78.110044 -339.581743 
L 77.801129 -339.611908 
L 77.443438 -339.642072 
L 77.031956 -339.672237 
L 76.562741 -339.702402 
L 76.033098 -339.732566 
L 75.441715 -339.762731 
L 74.788778 -339.792896 
L 74.076044 -339.82306 
L 73.306869 -339.853225 
L 72.486212 -339.88339 
L 71.62058 -339.913554 
L 70.717944 -339.943719 
L 69.787615 -339.973883 
L 68.840085 -340.004048 
L 67.88683 -340.034213 
L 66.940098 -340.064377 
L 66.012665 -340.094542 
L 65.117579 -340.124707 
L 64.267898 -340.154871 
L 63.476418 -340.185036 
L 62.755411 -340.215201 
L 62.116371 -340.245365 
L 61.569774 -340.27553 
L 61.124865 -340.305695 
L 60.78947 -340.335859 
L 60.569839 -340.366024 
L 60.470525 -340.396188 
L 60.494306 -340.426353 
L 60.642138 -340.456518 
L 60.91316 -340.486682 
L 61.304725 -340.516847 
L 61.812485 -340.547012 
L 62.430496 -340.577176 
L 63.151369 -340.607341 
L 63.966437 -340.637506 
L 64.865952 -340.66767 
L 65.8393 -340.697835 
L 66.875216 -340.727999 
L 67.96202 -340.758164 
L 69.08784 -340.788329 
L 70.240833 -340.818493 
L 71.409395 -340.848658 
L 72.582353 -340.878823 
L 73.749139 -340.908987 
L 74.899937 -340.939152 
L 76.025808 -340.969317 
L 77.118782 -340.999481 
L 78.171933 -341.029646 
L 79.179413 -341.05981 
L 80.136467 -341.089975 
L 81.039426 -341.12014 
L 81.88567 -341.150304 
L 82.673577 -341.180469 
L 83.402451 -341.210634 
L 84.072444 -341.240798 
L 84.684459 -341.270963 
L 85.240053 -341.301128 
L 85.741335 -341.331292 
L 86.190865 -341.361457 
L 86.591551 -341.391622 
L 86.946555 -341.421786 
L 87.259208 -341.451951 
L 87.532923 -341.482115 
L 90.547327 -341.482115 
L 90.547327 -341.482115 
L 90.821042 -341.451951 
L 91.133695 -341.421786 
L 91.488699 -341.391622 
L 91.889385 -341.361457 
L 92.338915 -341.331292 
L 92.840197 -341.301128 
L 93.395791 -341.270963 
L 94.007806 -341.240798 
L 94.677799 -341.210634 
L 95.406673 -341.180469 
L 96.19458 -341.150304 
L 97.040824 -341.12014 
L 97.943783 -341.089975 
L 98.900837 -341.05981 
L 99.908317 -341.029646 
L 100.961468 -340.999481 
L 102.054442 -340.969317 
L 103.180313 -340.939152 
L 104.331111 -340.908987 
L 105.497897 -340.878823 
L 106.670855 -340.848658 
L 107.839417 -340.818493 
L 108.99241 -340.788329 
L 110.11823 -340.758164 
L 111.205034 -340.727999 
L 112.24095 -340.697835 
L 113.214298 -340.66767 
L 114.113813 -340.637506 
L 114.928881 -340.607341 
L 115.649754 -340.577176 
L 116.267765 -340.547012 
L 116.775525 -340.516847 
L 117.16709 -340.486682 
L 117.438112 -340.456518 
L 117.585944 -340.426353 
L 117.609725 -340.396188 
L 117.510411 -340.366024 
L 117.29078 -340.335859 
L 116.955385 -340.305695 
L 116.510476 -340.27553 
L 115.963879 -340.245365 
L 115.324839 -340.215201 
L 114.603832 -340.185036 
L 113.812352 -340.154871 
L 112.962671 -340.124707 
L 112.067585 -340.094542 
L 111.140152 -340.064377 
L 110.19342 -340.034213 
L 109.240165 -340.004048 
L 108.292635 -339.973883 
L 107.362306 -339.943719 
L 106.45967 -339.913554 
L 105.594038 -339.88339 
L 104.773381 -339.853225 
L 104.004206 -339.82306 
L 103.291472 -339.792896 
L 102.638535 -339.762731 
L 102.047152 -339.732566 
L 101.517509 -339.702402 
L 101.048294 -339.672237 
L 100.636812 -339.642072 
L 100.279121 -339.611908 
L 99.970206 -339.581743 
L 99.704172 -339.551579 
L 99.474453 -339.521414 
L 99.274034 -339.491249 
L 99.095672 -339.461085 
L 98.932119 -339.43092 
L 98.77633 -339.400755 
L 98.621659 -339.370591 
L 98.462033 -339.340426 
L 98.292094 -339.310261 
L 98.107322 -339.280097 
L 97.904113 -339.249932 
L 97.679834 -339.219768 
L 97.43284 -339.189603 
L 97.162456 -339.159438 
L 96.868934 -339.129274 
L 96.553383 -339.099109 
L 96.217671 -339.068944 
L 95.864315 -339.03878 
L 95.496356 -339.008615 
L 95.117226 -338.97845 
L 94.730614 -338.948286 
L 94.340336 -338.918121 
L 93.950209 -338.887956 
L 93.563939 -338.857792 
L 93.185018 -338.827627 
L 92.816647 -338.797463 
L 92.461665 -338.767298 
L 92.122503 -338.737133 
L 91.801157 -338.706969 
L 91.499172 -338.676804 
L 91.217647 -338.646639 
L 90.95725 -338.616475 
L 90.718248 -338.58631 
L 90.500543 -338.556145 
L 90.303713 -338.525981 
L 90.127063 -338.495816 
z
" id="me0d5cea47a" style="stroke:#3f3f3f;stroke-width:1.5;"/>
    </defs>
    <g clip-path="url(#pb720792854)">
     <use style="fill:#9fd495;stroke:#3f3f3f;stroke-width:1.5;" x="0" xlink:href="#me0d5cea47a" y="375.89624"/>
    </g>
   </g>
   <g id="PolyCollection_2">
    <defs>
     <path d="M 160.51073 -180.289791 
L 160.41752 -180.289791 
L 160.409993 -180.989143 
L 160.401608 -181.688494 
L 160.392336 -182.387845 
L 160.382155 -183.087196 
L 160.371061 -183.786547 
L 160.35906 -184.485898 
L 160.346177 -185.185249 
L 160.332454 -185.8846 
L 160.31795 -186.583952 
L 160.302744 -187.283303 
L 160.28693 -187.982654 
L 160.27062 -188.682005 
L 160.253942 -189.381356 
L 160.237032 -190.080707 
L 160.220039 -190.780058 
L 160.203114 -191.47941 
L 160.186409 -192.178761 
L 160.170072 -192.878112 
L 160.15424 -193.577463 
L 160.139035 -194.276814 
L 160.124562 -194.976165 
L 160.110897 -195.675516 
L 160.098089 -196.374867 
L 160.086154 -197.074219 
L 160.075072 -197.77357 
L 160.064788 -198.472921 
L 160.055208 -199.172272 
L 160.046201 -199.871623 
L 160.037603 -200.570974 
L 160.029218 -201.270325 
L 160.020823 -201.969676 
L 160.012177 -202.669028 
L 160.003021 -203.368379 
L 159.993092 -204.06773 
L 159.982126 -204.767081 
L 159.969867 -205.466432 
L 159.95608 -206.165783 
L 159.94055 -206.865134 
L 159.923098 -207.564486 
L 159.903581 -208.263837 
L 159.881903 -208.963188 
L 159.858017 -209.662539 
L 159.831929 -210.36189 
L 159.803701 -211.061241 
L 159.77345 -211.760592 
L 159.741353 -212.459943 
L 159.707637 -213.159295 
L 159.672585 -213.858646 
L 159.636527 -214.557997 
L 159.599835 -215.257348 
L 159.562918 -215.956699 
L 159.526214 -216.65605 
L 159.490185 -217.355401 
L 159.455304 -218.054753 
L 159.422053 -218.754104 
L 159.390906 -219.453455 
L 159.362326 -220.152806 
L 159.336757 -220.852157 
L 159.314608 -221.551508 
L 159.296254 -222.250859 
L 159.282022 -222.95021 
L 159.27219 -223.649562 
L 159.266974 -224.348913 
L 159.266531 -225.048264 
L 159.270952 -225.747615 
L 159.280259 -226.446966 
L 159.294406 -227.146317 
L 159.313282 -227.845668 
L 159.336709 -228.545019 
L 159.364447 -229.244371 
L 159.396201 -229.943722 
L 159.431625 -230.643073 
L 159.470329 -231.342424 
L 159.511888 -232.041775 
L 159.555851 -232.741126 
L 159.601749 -233.440477 
L 159.649101 -234.139829 
L 159.697431 -234.83918 
L 159.746267 -235.538531 
L 159.795158 -236.237882 
L 159.843673 -236.937233 
L 159.891413 -237.636584 
L 159.938017 -238.335935 
L 159.983162 -239.035286 
L 160.026567 -239.734638 
L 160.067997 -240.433989 
L 160.107265 -241.13334 
L 160.144226 -241.832691 
L 160.178781 -242.532042 
L 160.210871 -243.231393 
L 160.240477 -243.930744 
L 160.267616 -244.630095 
L 160.292334 -245.329447 
L 160.314704 -246.028798 
L 160.334823 -246.728149 
L 160.352806 -247.4275 
L 160.36878 -248.126851 
L 160.382883 -248.826202 
L 160.395258 -249.525553 
L 160.532992 -249.525553 
L 160.532992 -249.525553 
L 160.545367 -248.826202 
L 160.55947 -248.126851 
L 160.575444 -247.4275 
L 160.593427 -246.728149 
L 160.613546 -246.028798 
L 160.635916 -245.329447 
L 160.660634 -244.630095 
L 160.687773 -243.930744 
L 160.717379 -243.231393 
L 160.749469 -242.532042 
L 160.784024 -241.832691 
L 160.820985 -241.13334 
L 160.860253 -240.433989 
L 160.901683 -239.734638 
L 160.945088 -239.035286 
L 160.990233 -238.335935 
L 161.036837 -237.636584 
L 161.084577 -236.937233 
L 161.133092 -236.237882 
L 161.181983 -235.538531 
L 161.230819 -234.83918 
L 161.279149 -234.139829 
L 161.326501 -233.440477 
L 161.372399 -232.741126 
L 161.416362 -232.041775 
L 161.457921 -231.342424 
L 161.496625 -230.643073 
L 161.532049 -229.943722 
L 161.563803 -229.244371 
L 161.591541 -228.545019 
L 161.614968 -227.845668 
L 161.633844 -227.146317 
L 161.647991 -226.446966 
L 161.657298 -225.747615 
L 161.661719 -225.048264 
L 161.661276 -224.348913 
L 161.65606 -223.649562 
L 161.646228 -222.95021 
L 161.631996 -222.250859 
L 161.613642 -221.551508 
L 161.591493 -220.852157 
L 161.565924 -220.152806 
L 161.537344 -219.453455 
L 161.506197 -218.754104 
L 161.472946 -218.054753 
L 161.438065 -217.355401 
L 161.402036 -216.65605 
L 161.365332 -215.956699 
L 161.328415 -215.257348 
L 161.291723 -214.557997 
L 161.255665 -213.858646 
L 161.220613 -213.159295 
L 161.186897 -212.459943 
L 161.1548 -211.760592 
L 161.124549 -211.061241 
L 161.096321 -210.36189 
L 161.070233 -209.662539 
L 161.046347 -208.963188 
L 161.024669 -208.263837 
L 161.005152 -207.564486 
L 160.9877 -206.865134 
L 160.97217 -206.165783 
L 160.958383 -205.466432 
L 160.946124 -204.767081 
L 160.935158 -204.06773 
L 160.925229 -203.368379 
L 160.916073 -202.669028 
L 160.907427 -201.969676 
L 160.899032 -201.270325 
L 160.890647 -200.570974 
L 160.882049 -199.871623 
L 160.873042 -199.172272 
L 160.863462 -198.472921 
L 160.853178 -197.77357 
L 160.842096 -197.074219 
L 160.830161 -196.374867 
L 160.817353 -195.675516 
L 160.803688 -194.976165 
L 160.789215 -194.276814 
L 160.77401 -193.577463 
L 160.758178 -192.878112 
L 160.741841 -192.178761 
L 160.725136 -191.47941 
L 160.708211 -190.780058 
L 160.691218 -190.080707 
L 160.674308 -189.381356 
L 160.65763 -188.682005 
L 160.64132 -187.982654 
L 160.625506 -187.283303 
L 160.6103 -186.583952 
L 160.595796 -185.8846 
L 160.582073 -185.185249 
L 160.56919 -184.485898 
L 160.557189 -183.786547 
L 160.546095 -183.087196 
L 160.535914 -182.387845 
L 160.526642 -181.688494 
L 160.518257 -180.989143 
L 160.51073 -180.289791 
z
" id="m84de44f223" style="stroke:#3f3f3f;stroke-width:1.5;"/>
    </defs>
    <g clip-path="url(#pb720792854)">
     <use style="fill:#e1812c;stroke:#3f3f3f;stroke-width:1.5;" x="0" xlink:href="#m84de44f223" y="375.89624"/>
    </g>
   </g>
   <g id="PolyCollection_3">
    <defs>
     <path d="M 232.066069 -205.991737 
L 231.710181 -205.991737 
L 231.682425 -206.320162 
L 231.651571 -206.648587 
L 231.617495 -206.977013 
L 231.580107 -207.305438 
L 231.539358 -207.633863 
L 231.495244 -207.962288 
L 231.447812 -208.290714 
L 231.397168 -208.619139 
L 231.343476 -208.947564 
L 231.28696 -209.275989 
L 231.227909 -209.604415 
L 231.16667 -209.93284 
L 231.103648 -210.261265 
L 231.039301 -210.58969 
L 230.97413 -210.918116 
L 230.90867 -211.246541 
L 230.843481 -211.574966 
L 230.779133 -211.903391 
L 230.716195 -212.231817 
L 230.655217 -212.560242 
L 230.596716 -212.888667 
L 230.541164 -213.217092 
L 230.488972 -213.545518 
L 230.44048 -213.873943 
L 230.395943 -214.202368 
L 230.355526 -214.530793 
L 230.319301 -214.859219 
L 230.287239 -215.187644 
L 230.259218 -215.516069 
L 230.235023 -215.844494 
L 230.214358 -216.17292 
L 230.196853 -216.501345 
L 230.182081 -216.82977 
L 230.169573 -217.158195 
L 230.158834 -217.486621 
L 230.149364 -217.815046 
L 230.140674 -218.143471 
L 230.132306 -218.471896 
L 230.123851 -218.800322 
L 230.11496 -219.128747 
L 230.105361 -219.457172 
L 230.094866 -219.785597 
L 230.083378 -220.114023 
L 230.070896 -220.442448 
L 230.057511 -220.770873 
L 230.043404 -221.099298 
L 230.028841 -221.427724 
L 230.014158 -221.756149 
L 229.999755 -222.084574 
L 229.986075 -222.412999 
L 229.973597 -222.741425 
L 229.962812 -223.06985 
L 229.954213 -223.398275 
L 229.948277 -223.7267 
L 229.945454 -224.055126 
L 229.94615 -224.383551 
L 229.950721 -224.711976 
L 229.959461 -225.040401 
L 229.972598 -225.368827 
L 229.99029 -225.697252 
L 230.012624 -226.025677 
L 230.039612 -226.354102 
L 230.071201 -226.682528 
L 230.10727 -227.010953 
L 230.147638 -227.339378 
L 230.192071 -227.667803 
L 230.240286 -227.996229 
L 230.291961 -228.324654 
L 230.346742 -228.653079 
L 230.404247 -228.981504 
L 230.464078 -229.30993 
L 230.525824 -229.638355 
L 230.589068 -229.96678 
L 230.653394 -230.295205 
L 230.718389 -230.623631 
L 230.783651 -230.952056 
L 230.848793 -231.280481 
L 230.913442 -231.608906 
L 230.977249 -231.937332 
L 231.039886 -232.265757 
L 231.101052 -232.594182 
L 231.160473 -232.922607 
L 231.217904 -233.251033 
L 231.273132 -233.579458 
L 231.325974 -233.907883 
L 231.376281 -234.236308 
L 231.423933 -234.564734 
L 231.468845 -234.893159 
L 231.510961 -235.221584 
L 231.550256 -235.550009 
L 231.586733 -235.878435 
L 231.62042 -236.20686 
L 231.651372 -236.535285 
L 231.679664 -236.86371 
L 231.70539 -237.192136 
L 231.728661 -237.520561 
L 231.7496 -237.848986 
L 231.768342 -238.177411 
L 231.785027 -238.505837 
L 231.991223 -238.505837 
L 231.991223 -238.505837 
L 232.007908 -238.177411 
L 232.02665 -237.848986 
L 232.047589 -237.520561 
L 232.07086 -237.192136 
L 232.096586 -236.86371 
L 232.124878 -236.535285 
L 232.15583 -236.20686 
L 232.189517 -235.878435 
L 232.225994 -235.550009 
L 232.265289 -235.221584 
L 232.307405 -234.893159 
L 232.352317 -234.564734 
L 232.399969 -234.236308 
L 232.450276 -233.907883 
L 232.503118 -233.579458 
L 232.558346 -233.251033 
L 232.615777 -232.922607 
L 232.675198 -232.594182 
L 232.736364 -232.265757 
L 232.799001 -231.937332 
L 232.862808 -231.608906 
L 232.927457 -231.280481 
L 232.992599 -230.952056 
L 233.057861 -230.623631 
L 233.122856 -230.295205 
L 233.187182 -229.96678 
L 233.250426 -229.638355 
L 233.312172 -229.30993 
L 233.372003 -228.981504 
L 233.429508 -228.653079 
L 233.484289 -228.324654 
L 233.535964 -227.996229 
L 233.584179 -227.667803 
L 233.628612 -227.339378 
L 233.66898 -227.010953 
L 233.705049 -226.682528 
L 233.736638 -226.354102 
L 233.763626 -226.025677 
L 233.78596 -225.697252 
L 233.803652 -225.368827 
L 233.816789 -225.040401 
L 233.825529 -224.711976 
L 233.8301 -224.383551 
L 233.830796 -224.055126 
L 233.827973 -223.7267 
L 233.822037 -223.398275 
L 233.813438 -223.06985 
L 233.802653 -222.741425 
L 233.790175 -222.412999 
L 233.776495 -222.084574 
L 233.762092 -221.756149 
L 233.747409 -221.427724 
L 233.732846 -221.099298 
L 233.718739 -220.770873 
L 233.705354 -220.442448 
L 233.692872 -220.114023 
L 233.681384 -219.785597 
L 233.670889 -219.457172 
L 233.66129 -219.128747 
L 233.652399 -218.800322 
L 233.643944 -218.471896 
L 233.635576 -218.143471 
L 233.626886 -217.815046 
L 233.617416 -217.486621 
L 233.606677 -217.158195 
L 233.594169 -216.82977 
L 233.579397 -216.501345 
L 233.561892 -216.17292 
L 233.541227 -215.844494 
L 233.517032 -215.516069 
L 233.489011 -215.187644 
L 233.456949 -214.859219 
L 233.420724 -214.530793 
L 233.380307 -214.202368 
L 233.33577 -213.873943 
L 233.287278 -213.545518 
L 233.235086 -213.217092 
L 233.179534 -212.888667 
L 233.121033 -212.560242 
L 233.060055 -212.231817 
L 232.997117 -211.903391 
L 232.932769 -211.574966 
L 232.86758 -211.246541 
L 232.80212 -210.918116 
L 232.736949 -210.58969 
L 232.672602 -210.261265 
L 232.60958 -209.93284 
L 232.548341 -209.604415 
L 232.48929 -209.275989 
L 232.432774 -208.947564 
L 232.379082 -208.619139 
L 232.328438 -208.290714 
L 232.281006 -207.962288 
L 232.236892 -207.633863 
L 232.196143 -207.305438 
L 232.158755 -206.977013 
L 232.124679 -206.648587 
L 232.093825 -206.320162 
L 232.066069 -205.991737 
z
" id="m7232846627" style="stroke:#3f3f3f;stroke-width:1.5;"/>
    </defs>
    <g clip-path="url(#pb720792854)">
     <use style="fill:#c7c7c7;stroke:#3f3f3f;stroke-width:1.5;" x="0" xlink:href="#m7232846627" y="375.89624"/>
    </g>
   </g>
   <g id="PolyCollection_4">
    <defs>
     <path d="M 303.39403 -184.118472 
L 303.23022 -184.118472 
L 303.217502 -184.940118 
L 303.203332 -185.761764 
L 303.187638 -186.58341 
L 303.170359 -187.405055 
L 303.15145 -188.226701 
L 303.130886 -189.048347 
L 303.108659 -189.869993 
L 303.084788 -190.691639 
L 303.059318 -191.513285 
L 303.032321 -192.334931 
L 303.003898 -193.156576 
L 302.974182 -193.978222 
L 302.943335 -194.799868 
L 302.911551 -195.621514 
L 302.879052 -196.44316 
L 302.846084 -197.264806 
L 302.812921 -198.086452 
L 302.779852 -198.908097 
L 302.747183 -199.729743 
L 302.71523 -200.551389 
L 302.684309 -201.373035 
L 302.654738 -202.194681 
L 302.62682 -203.016327 
L 302.600845 -203.837972 
L 302.577078 -204.659618 
L 302.555755 -205.481264 
L 302.537075 -206.30291 
L 302.5212 -207.124556 
L 302.508243 -207.946202 
L 302.498271 -208.767848 
L 302.491301 -209.589493 
L 302.487298 -210.411139 
L 302.48618 -211.232785 
L 302.487812 -212.054431 
L 302.492017 -212.876077 
L 302.498576 -213.697723 
L 302.507235 -214.519369 
L 302.517712 -215.341014 
L 302.529702 -216.16266 
L 302.542886 -216.984306 
L 302.556939 -217.805952 
L 302.571538 -218.627598 
L 302.586371 -219.449244 
L 302.601142 -220.270889 
L 302.615581 -221.092535 
L 302.629446 -221.914181 
L 302.642534 -222.735827 
L 302.65468 -223.557473 
L 302.665762 -224.379119 
L 302.675702 -225.200765 
L 302.684467 -226.02241 
L 302.692068 -226.844056 
L 302.698558 -227.665702 
L 302.70403 -228.487348 
L 302.708608 -229.308994 
L 302.712449 -230.13064 
L 302.715734 -230.952286 
L 302.71866 -231.773931 
L 302.721438 -232.595577 
L 302.724282 -233.417223 
L 302.727408 -234.238869 
L 302.731023 -235.060515 
L 302.735322 -235.882161 
L 302.740482 -236.703806 
L 302.746659 -237.525452 
L 302.753981 -238.347098 
L 302.762551 -239.168744 
L 302.77244 -239.99039 
L 302.783687 -240.812036 
L 302.796301 -241.633682 
L 302.810261 -242.455327 
L 302.825515 -243.276973 
L 302.841985 -244.098619 
L 302.859571 -244.920265 
L 302.878149 -245.741911 
L 302.89758 -246.563557 
L 302.91771 -247.385203 
L 302.938377 -248.206848 
L 302.959413 -249.028494 
L 302.980648 -249.85014 
L 303.001915 -250.671786 
L 303.023051 -251.493432 
L 303.043901 -252.315078 
L 303.064324 -253.136723 
L 303.084189 -253.958369 
L 303.10338 -254.780015 
L 303.121799 -255.601661 
L 303.139362 -256.423307 
L 303.156003 -257.244953 
L 303.171672 -258.066599 
L 303.186337 -258.888244 
L 303.199979 -259.70989 
L 303.212595 -260.531536 
L 303.224193 -261.353182 
L 303.234793 -262.174828 
L 303.244427 -262.996474 
L 303.253133 -263.81812 
L 303.260955 -264.639765 
L 303.267946 -265.461411 
L 303.356304 -265.461411 
L 303.356304 -265.461411 
L 303.363295 -264.639765 
L 303.371117 -263.81812 
L 303.379823 -262.996474 
L 303.389457 -262.174828 
L 303.400057 -261.353182 
L 303.411655 -260.531536 
L 303.424271 -259.70989 
L 303.437913 -258.888244 
L 303.452578 -258.066599 
L 303.468247 -257.244953 
L 303.484888 -256.423307 
L 303.502451 -255.601661 
L 303.52087 -254.780015 
L 303.540061 -253.958369 
L 303.559926 -253.136723 
L 303.580349 -252.315078 
L 303.601199 -251.493432 
L 303.622335 -250.671786 
L 303.643602 -249.85014 
L 303.664837 -249.028494 
L 303.685873 -248.206848 
L 303.70654 -247.385203 
L 303.72667 -246.563557 
L 303.746101 -245.741911 
L 303.764679 -244.920265 
L 303.782265 -244.098619 
L 303.798735 -243.276973 
L 303.813989 -242.455327 
L 303.827949 -241.633682 
L 303.840563 -240.812036 
L 303.85181 -239.99039 
L 303.861699 -239.168744 
L 303.870269 -238.347098 
L 303.877591 -237.525452 
L 303.883768 -236.703806 
L 303.888928 -235.882161 
L 303.893227 -235.060515 
L 303.896842 -234.238869 
L 303.899968 -233.417223 
L 303.902812 -232.595577 
L 303.90559 -231.773931 
L 303.908516 -230.952286 
L 303.911801 -230.13064 
L 303.915642 -229.308994 
L 303.92022 -228.487348 
L 303.925692 -227.665702 
L 303.932182 -226.844056 
L 303.939783 -226.02241 
L 303.948548 -225.200765 
L 303.958488 -224.379119 
L 303.96957 -223.557473 
L 303.981716 -222.735827 
L 303.994804 -221.914181 
L 304.008669 -221.092535 
L 304.023108 -220.270889 
L 304.037879 -219.449244 
L 304.052712 -218.627598 
L 304.067311 -217.805952 
L 304.081364 -216.984306 
L 304.094548 -216.16266 
L 304.106538 -215.341014 
L 304.117015 -214.519369 
L 304.125674 -213.697723 
L 304.132233 -212.876077 
L 304.136438 -212.054431 
L 304.13807 -211.232785 
L 304.136952 -210.411139 
L 304.132949 -209.589493 
L 304.125979 -208.767848 
L 304.116007 -207.946202 
L 304.10305 -207.124556 
L 304.087175 -206.30291 
L 304.068495 -205.481264 
L 304.047172 -204.659618 
L 304.023405 -203.837972 
L 303.99743 -203.016327 
L 303.969512 -202.194681 
L 303.939941 -201.373035 
L 303.90902 -200.551389 
L 303.877067 -199.729743 
L 303.844398 -198.908097 
L 303.811329 -198.086452 
L 303.778166 -197.264806 
L 303.745198 -196.44316 
L 303.712699 -195.621514 
L 303.680915 -194.799868 
L 303.650068 -193.978222 
L 303.620352 -193.156576 
L 303.591929 -192.334931 
L 303.564932 -191.513285 
L 303.539462 -190.691639 
L 303.515591 -189.869993 
L 303.493364 -189.048347 
L 303.4728 -188.226701 
L 303.453891 -187.405055 
L 303.436612 -186.58341 
L 303.420918 -185.761764 
L 303.406748 -184.940118 
L 303.39403 -184.118472 
z
" id="m335f47c095" style="stroke:#3f3f3f;stroke-width:1.5;"/>
    </defs>
    <g clip-path="url(#pb720792854)">
     <use style="fill:#c03d3e;stroke:#3f3f3f;stroke-width:1.5;" x="0" xlink:href="#m335f47c095" y="375.89624"/>
    </g>
   </g>
   <g id="PolyCollection_5">
    <defs>
     <path d="M 374.777326 -99.562115 
L 374.694924 -99.562115 
L 374.689055 -100.942604 
L 374.682592 -102.323093 
L 374.675517 -103.703582 
L 374.667816 -105.08407 
L 374.659484 -106.464559 
L 374.650521 -107.845048 
L 374.64094 -109.225536 
L 374.63076 -110.606025 
L 374.620013 -111.986514 
L 374.608742 -113.367002 
L 374.596998 -114.747491 
L 374.584845 -116.12798 
L 374.572358 -117.508468 
L 374.55962 -118.888957 
L 374.546723 -120.269446 
L 374.533769 -121.649935 
L 374.520862 -123.030423 
L 374.508112 -124.410912 
L 374.495631 -125.791401 
L 374.48353 -127.171889 
L 374.471917 -128.552378 
L 374.460894 -129.932867 
L 374.450556 -131.313355 
L 374.440985 -132.693844 
L 374.432252 -134.074333 
L 374.424412 -135.454822 
L 374.417502 -136.83531 
L 374.411544 -138.215799 
L 374.406535 -139.596288 
L 374.402456 -140.976776 
L 374.399265 -142.357265 
L 374.396903 -143.737754 
L 374.395291 -145.118242 
L 374.394332 -146.498731 
L 374.393915 -147.87922 
L 374.393916 -149.259709 
L 374.394202 -150.640197 
L 374.394635 -152.020686 
L 374.395072 -153.401175 
L 374.395373 -154.781663 
L 374.395401 -156.162152 
L 374.395031 -157.542641 
L 374.394146 -158.923129 
L 374.392648 -160.303618 
L 374.390457 -161.684107 
L 374.387512 -163.064596 
L 374.383778 -164.445084 
L 374.379241 -165.825573 
L 374.373917 -167.206062 
L 374.367843 -168.58655 
L 374.361086 -169.967039 
L 374.353732 -171.347528 
L 374.345894 -172.728016 
L 374.337701 -174.108505 
L 374.329303 -175.488994 
L 374.320861 -176.869482 
L 374.312548 -178.249971 
L 374.304543 -179.63046 
L 374.297027 -181.010949 
L 374.290179 -182.391437 
L 374.284172 -183.771926 
L 374.279171 -185.152415 
L 374.275325 -186.532903 
L 374.272767 -187.913392 
L 374.271611 -189.293881 
L 374.271947 -190.674369 
L 374.273844 -192.054858 
L 374.277344 -193.435347 
L 374.282461 -194.815836 
L 374.289187 -196.196324 
L 374.297486 -197.576813 
L 374.307299 -198.957302 
L 374.318544 -200.33779 
L 374.331119 -201.718279 
L 374.344904 -203.098768 
L 374.359765 -204.479256 
L 374.375554 -205.859745 
L 374.392117 -207.240234 
L 374.409291 -208.620723 
L 374.426914 -210.001211 
L 374.444824 -211.3817 
L 374.462861 -212.762189 
L 374.480874 -214.142677 
L 374.49872 -215.523166 
L 374.516265 -216.903655 
L 374.53339 -218.284143 
L 374.549986 -219.664632 
L 374.565963 -221.045121 
L 374.581241 -222.425609 
L 374.595759 -223.806098 
L 374.609469 -225.186587 
L 374.622337 -226.567076 
L 374.634343 -227.947564 
L 374.64548 -229.328053 
L 374.655751 -230.708542 
L 374.665169 -232.08903 
L 374.673758 -233.469519 
L 374.681548 -234.850008 
L 374.688574 -236.230496 
L 374.783676 -236.230496 
L 374.783676 -236.230496 
L 374.790702 -234.850008 
L 374.798492 -233.469519 
L 374.807081 -232.08903 
L 374.816499 -230.708542 
L 374.82677 -229.328053 
L 374.837907 -227.947564 
L 374.849913 -226.567076 
L 374.862781 -225.186587 
L 374.876491 -223.806098 
L 374.891009 -222.425609 
L 374.906287 -221.045121 
L 374.922264 -219.664632 
L 374.93886 -218.284143 
L 374.955985 -216.903655 
L 374.97353 -215.523166 
L 374.991376 -214.142677 
L 375.009389 -212.762189 
L 375.027426 -211.3817 
L 375.045336 -210.001211 
L 375.062959 -208.620723 
L 375.080133 -207.240234 
L 375.096696 -205.859745 
L 375.112485 -204.479256 
L 375.127346 -203.098768 
L 375.141131 -201.718279 
L 375.153706 -200.33779 
L 375.164951 -198.957302 
L 375.174764 -197.576813 
L 375.183063 -196.196324 
L 375.189789 -194.815836 
L 375.194906 -193.435347 
L 375.198406 -192.054858 
L 375.200303 -190.674369 
L 375.200639 -189.293881 
L 375.199483 -187.913392 
L 375.196925 -186.532903 
L 375.193079 -185.152415 
L 375.188078 -183.771926 
L 375.182071 -182.391437 
L 375.175223 -181.010949 
L 375.167707 -179.63046 
L 375.159702 -178.249971 
L 375.151389 -176.869482 
L 375.142947 -175.488994 
L 375.134549 -174.108505 
L 375.126356 -172.728016 
L 375.118518 -171.347528 
L 375.111164 -169.967039 
L 375.104407 -168.58655 
L 375.098333 -167.206062 
L 375.093009 -165.825573 
L 375.088472 -164.445084 
L 375.084738 -163.064596 
L 375.081793 -161.684107 
L 375.079602 -160.303618 
L 375.078104 -158.923129 
L 375.077219 -157.542641 
L 375.076849 -156.162152 
L 375.076877 -154.781663 
L 375.077178 -153.401175 
L 375.077615 -152.020686 
L 375.078048 -150.640197 
L 375.078334 -149.259709 
L 375.078335 -147.87922 
L 375.077918 -146.498731 
L 375.076959 -145.118242 
L 375.075347 -143.737754 
L 375.072985 -142.357265 
L 375.069794 -140.976776 
L 375.065715 -139.596288 
L 375.060706 -138.215799 
L 375.054748 -136.83531 
L 375.047838 -135.454822 
L 375.039998 -134.074333 
L 375.031265 -132.693844 
L 375.021694 -131.313355 
L 375.011356 -129.932867 
L 375.000333 -128.552378 
L 374.98872 -127.171889 
L 374.976619 -125.791401 
L 374.964138 -124.410912 
L 374.951388 -123.030423 
L 374.938481 -121.649935 
L 374.925527 -120.269446 
L 374.91263 -118.888957 
L 374.899892 -117.508468 
L 374.887405 -116.12798 
L 374.875252 -114.747491 
L 374.863508 -113.367002 
L 374.852237 -111.986514 
L 374.84149 -110.606025 
L 374.83131 -109.225536 
L 374.821729 -107.845048 
L 374.812766 -106.464559 
L 374.804434 -105.08407 
L 374.796733 -103.703582 
L 374.789658 -102.323093 
L 374.783195 -100.942604 
L 374.777326 -99.562115 
z
" id="mc35e1496b3" style="stroke:#3f3f3f;stroke-width:1.5;"/>
    </defs>
    <g clip-path="url(#pb720792854)">
     <use style="fill:#3274a1;stroke:#3f3f3f;stroke-width:1.5;" x="0" xlink:href="#mc35e1496b3" y="375.89624"/>
    </g>
   </g>
   <g id="matplotlib.axis_1">
    <g id="xtick_1">
     <g id="line2d_1">
      <defs>
       <path d="M 0 0 
L 0 3.5 
" id="m95b06feec2" style="stroke:#000000;stroke-width:0.8;"/>
      </defs>
      <g>
       <use style="stroke:#000000;stroke-width:0.8;" x="89.040125" xlink:href="#m95b06feec2" y="288.430125"/>
      </g>
     </g>
     <g id="text_1">
      <!-- aflplusplus -->
      <g transform="translate(41.431118 328.897284)rotate(-30)scale(0.1 -0.1)">
       <defs>
        <path d="M 34.28125 27.484375 
Q 23.390625 27.484375 19.1875 25 
Q 14.984375 22.515625 14.984375 16.5 
Q 14.984375 11.71875 18.140625 8.90625 
Q 21.296875 6.109375 26.703125 6.109375 
Q 34.1875 6.109375 38.703125 11.40625 
Q 43.21875 16.703125 43.21875 25.484375 
L 43.21875 27.484375 
z
M 52.203125 31.203125 
L 52.203125 0 
L 43.21875 0 
L 43.21875 8.296875 
Q 40.140625 3.328125 35.546875 0.953125 
Q 30.953125 -1.421875 24.3125 -1.421875 
Q 15.921875 -1.421875 10.953125 3.296875 
Q 6 8.015625 6 15.921875 
Q 6 25.140625 12.171875 29.828125 
Q 18.359375 34.515625 30.609375 34.515625 
L 43.21875 34.515625 
L 43.21875 35.40625 
Q 43.21875 41.609375 39.140625 45 
Q 35.0625 48.390625 27.6875 48.390625 
Q 23 48.390625 18.546875 47.265625 
Q 14.109375 46.140625 10.015625 43.890625 
L 10.015625 52.203125 
Q 14.9375 54.109375 19.578125 55.046875 
Q 24.21875 56 28.609375 56 
Q 40.484375 56 46.34375 49.84375 
Q 52.203125 43.703125 52.203125 31.203125 
z
" id="DejaVuSans-97"/>
        <path d="M 37.109375 75.984375 
L 37.109375 68.5 
L 28.515625 68.5 
Q 23.6875 68.5 21.796875 66.546875 
Q 19.921875 64.59375 19.921875 59.515625 
L 19.921875 54.6875 
L 34.71875 54.6875 
L 34.71875 47.703125 
L 19.921875 47.703125 
L 19.921875 0 
L 10.890625 0 
L 10.890625 47.703125 
L 2.296875 47.703125 
L 2.296875 54.6875 
L 10.890625 54.6875 
L 10.890625 58.5 
Q 10.890625 67.625 15.140625 71.796875 
Q 19.390625 75.984375 28.609375 75.984375 
z
" id="DejaVuSans-102"/>
        <path d="M 9.421875 75.984375 
L 18.40625 75.984375 
L 18.40625 0 
L 9.421875 0 
z
" id="DejaVuSans-108"/>
        <path d="M 18.109375 8.203125 
L 18.109375 -20.796875 
L 9.078125 -20.796875 
L 9.078125 54.6875 
L 18.109375 54.6875 
L 18.109375 46.390625 
Q 20.953125 51.265625 25.265625 53.625 
Q 29.59375 56 35.59375 56 
Q 45.5625 56 51.78125 48.09375 
Q 58.015625 40.1875 58.015625 27.296875 
Q 58.015625 14.40625 51.78125 6.484375 
Q 45.5625 -1.421875 35.59375 -1.421875 
Q 29.59375 -1.421875 25.265625 0.953125 
Q 20.953125 3.328125 18.109375 8.203125 
z
M 48.6875 27.296875 
Q 48.6875 37.203125 44.609375 42.84375 
Q 40.53125 48.484375 33.40625 48.484375 
Q 26.265625 48.484375 22.1875 42.84375 
Q 18.109375 37.203125 18.109375 27.296875 
Q 18.109375 17.390625 22.1875 11.75 
Q 26.265625 6.109375 33.40625 6.109375 
Q 40.53125 6.109375 44.609375 11.75 
Q 48.6875 17.390625 48.6875 27.296875 
z
" id="DejaVuSans-112"/>
        <path d="M 8.5 21.578125 
L 8.5 54.6875 
L 17.484375 54.6875 
L 17.484375 21.921875 
Q 17.484375 14.15625 20.5 10.265625 
Q 23.53125 6.390625 29.59375 6.390625 
Q 36.859375 6.390625 41.078125 11.03125 
Q 45.3125 15.671875 45.3125 23.6875 
L 45.3125 54.6875 
L 54.296875 54.6875 
L 54.296875 0 
L 45.3125 0 
L 45.3125 8.40625 
Q 42.046875 3.421875 37.71875 1 
Q 33.40625 -1.421875 27.6875 -1.421875 
Q 18.265625 -1.421875 13.375 4.4375 
Q 8.5 10.296875 8.5 21.578125 
z
M 31.109375 56 
z
" id="DejaVuSans-117"/>
        <path d="M 44.28125 53.078125 
L 44.28125 44.578125 
Q 40.484375 46.53125 36.375 47.5 
Q 32.28125 48.484375 27.875 48.484375 
Q 21.1875 48.484375 17.84375 46.4375 
Q 14.5 44.390625 14.5 40.28125 
Q 14.5 37.15625 16.890625 35.375 
Q 19.28125 33.59375 26.515625 31.984375 
L 29.59375 31.296875 
Q 39.15625 29.25 43.1875 25.515625 
Q 47.21875 21.78125 47.21875 15.09375 
Q 47.21875 7.46875 41.1875 3.015625 
Q 35.15625 -1.421875 24.609375 -1.421875 
Q 20.21875 -1.421875 15.453125 -0.5625 
Q 10.6875 0.296875 5.421875 2 
L 5.421875 11.28125 
Q 10.40625 8.6875 15.234375 7.390625 
Q 20.0625 6.109375 24.8125 6.109375 
Q 31.15625 6.109375 34.5625 8.28125 
Q 37.984375 10.453125 37.984375 14.40625 
Q 37.984375 18.0625 35.515625 20.015625 
Q 33.0625 21.96875 24.703125 23.78125 
L 21.578125 24.515625 
Q 13.234375 26.265625 9.515625 29.90625 
Q 5.8125 33.546875 5.8125 39.890625 
Q 5.8125 47.609375 11.28125 51.796875 
Q 16.75 56 26.8125 56 
Q 31.78125 56 36.171875 55.265625 
Q 40.578125 54.546875 44.28125 53.078125 
z
" id="DejaVuSans-115"/>
       </defs>
       <use xlink:href="#DejaVuSans-97"/>
       <use x="61.279297" xlink:href="#DejaVuSans-102"/>
       <use x="96.484375" xlink:href="#DejaVuSans-108"/>
       <use x="124.267578" xlink:href="#DejaVuSans-112"/>
       <use x="187.744141" xlink:href="#DejaVuSans-108"/>
       <use x="215.527344" xlink:href="#DejaVuSans-117"/>
       <use x="278.90625" xlink:href="#DejaVuSans-115"/>
       <use x="331.005859" xlink:href="#DejaVuSans-112"/>
       <use x="394.482422" xlink:href="#DejaVuSans-108"/>
       <use x="422.265625" xlink:href="#DejaVuSans-117"/>
       <use x="485.644531" xlink:href="#DejaVuSans-115"/>
      </g>
     </g>
    </g>
    <g id="xtick_2">
     <g id="line2d_2">
      <g>
       <use style="stroke:#000000;stroke-width:0.8;" x="160.464125" xlink:href="#m95b06feec2" y="288.430125"/>
      </g>
     </g>
     <g id="text_2">
      <!-- aflplusplus_hier_fast -->
      <g transform="translate(71.010167 352.97619)rotate(-30)scale(0.1 -0.1)">
       <defs>
        <path d="M 50.984375 -16.609375 
L 50.984375 -23.578125 
L -0.984375 -23.578125 
L -0.984375 -16.609375 
z
" id="DejaVuSans-95"/>
        <path d="M 54.890625 33.015625 
L 54.890625 0 
L 45.90625 0 
L 45.90625 32.71875 
Q 45.90625 40.484375 42.875 44.328125 
Q 39.84375 48.1875 33.796875 48.1875 
Q 26.515625 48.1875 22.3125 43.546875 
Q 18.109375 38.921875 18.109375 30.90625 
L 18.109375 0 
L 9.078125 0 
L 9.078125 75.984375 
L 18.109375 75.984375 
L 18.109375 46.1875 
Q 21.34375 51.125 25.703125 53.5625 
Q 30.078125 56 35.796875 56 
Q 45.21875 56 50.046875 50.171875 
Q 54.890625 44.34375 54.890625 33.015625 
z
" id="DejaVuSans-104"/>
        <path d="M 9.421875 54.6875 
L 18.40625 54.6875 
L 18.40625 0 
L 9.421875 0 
z
M 9.421875 75.984375 
L 18.40625 75.984375 
L 18.40625 64.59375 
L 9.421875 64.59375 
z
" id="DejaVuSans-105"/>
        <path d="M 56.203125 29.59375 
L 56.203125 25.203125 
L 14.890625 25.203125 
Q 15.484375 15.921875 20.484375 11.0625 
Q 25.484375 6.203125 34.421875 6.203125 
Q 39.59375 6.203125 44.453125 7.46875 
Q 49.3125 8.734375 54.109375 11.28125 
L 54.109375 2.78125 
Q 49.265625 0.734375 44.1875 -0.34375 
Q 39.109375 -1.421875 33.890625 -1.421875 
Q 20.796875 -1.421875 13.15625 6.1875 
Q 5.515625 13.8125 5.515625 26.8125 
Q 5.515625 40.234375 12.765625 48.109375 
Q 20.015625 56 32.328125 56 
Q 43.359375 56 49.78125 48.890625 
Q 56.203125 41.796875 56.203125 29.59375 
z
M 47.21875 32.234375 
Q 47.125 39.59375 43.09375 43.984375 
Q 39.0625 48.390625 32.421875 48.390625 
Q 24.90625 48.390625 20.390625 44.140625 
Q 15.875 39.890625 15.1875 32.171875 
z
" id="DejaVuSans-101"/>
        <path d="M 41.109375 46.296875 
Q 39.59375 47.171875 37.8125 47.578125 
Q 36.03125 48 33.890625 48 
Q 26.265625 48 22.1875 43.046875 
Q 18.109375 38.09375 18.109375 28.8125 
L 18.109375 0 
L 9.078125 0 
L 9.078125 54.6875 
L 18.109375 54.6875 
L 18.109375 46.1875 
Q 20.953125 51.171875 25.484375 53.578125 
Q 30.03125 56 36.53125 56 
Q 37.453125 56 38.578125 55.875 
Q 39.703125 55.765625 41.0625 55.515625 
z
" id="DejaVuSans-114"/>
        <path d="M 18.3125 70.21875 
L 18.3125 54.6875 
L 36.8125 54.6875 
L 36.8125 47.703125 
L 18.3125 47.703125 
L 18.3125 18.015625 
Q 18.3125 11.328125 20.140625 9.421875 
Q 21.96875 7.515625 27.59375 7.515625 
L 36.8125 7.515625 
L 36.8125 0 
L 27.59375 0 
Q 17.1875 0 13.234375 3.875 
Q 9.28125 7.765625 9.28125 18.015625 
L 9.28125 47.703125 
L 2.6875 47.703125 
L 2.6875 54.6875 
L 9.28125 54.6875 
L 9.28125 70.21875 
z
" id="DejaVuSans-116"/>
       </defs>
       <use xlink:href="#DejaVuSans-97"/>
       <use x="61.279297" xlink:href="#DejaVuSans-102"/>
       <use x="96.484375" xlink:href="#DejaVuSans-108"/>
       <use x="124.267578" xlink:href="#DejaVuSans-112"/>
       <use x="187.744141" xlink:href="#DejaVuSans-108"/>
       <use x="215.527344" xlink:href="#DejaVuSans-117"/>
       <use x="278.90625" xlink:href="#DejaVuSans-115"/>
       <use x="331.005859" xlink:href="#DejaVuSans-112"/>
       <use x="394.482422" xlink:href="#DejaVuSans-108"/>
       <use x="422.265625" xlink:href="#DejaVuSans-117"/>
       <use x="485.644531" xlink:href="#DejaVuSans-115"/>
       <use x="537.744141" xlink:href="#DejaVuSans-95"/>
       <use x="587.744141" xlink:href="#DejaVuSans-104"/>
       <use x="651.123047" xlink:href="#DejaVuSans-105"/>
       <use x="678.90625" xlink:href="#DejaVuSans-101"/>
       <use x="740.429688" xlink:href="#DejaVuSans-114"/>
       <use x="781.542969" xlink:href="#DejaVuSans-95"/>
       <use x="831.542969" xlink:href="#DejaVuSans-102"/>
       <use x="866.748047" xlink:href="#DejaVuSans-97"/>
       <use x="928.027344" xlink:href="#DejaVuSans-115"/>
       <use x="980.126953" xlink:href="#DejaVuSans-116"/>
      </g>
     </g>
    </g>
    <g id="xtick_3">
     <g id="line2d_3">
      <g>
       <use style="stroke:#000000;stroke-width:0.8;" x="231.888125" xlink:href="#m95b06feec2" y="288.430125"/>
      </g>
     </g>
     <g id="text_3">
      <!-- aflplusplus_hier_coe -->
      <g transform="translate(143.306958 352.472284)rotate(-30)scale(0.1 -0.1)">
       <defs>
        <path d="M 48.78125 52.59375 
L 48.78125 44.1875 
Q 44.96875 46.296875 41.140625 47.34375 
Q 37.3125 48.390625 33.40625 48.390625 
Q 24.65625 48.390625 19.8125 42.84375 
Q 14.984375 37.3125 14.984375 27.296875 
Q 14.984375 17.28125 19.8125 11.734375 
Q 24.65625 6.203125 33.40625 6.203125 
Q 37.3125 6.203125 41.140625 7.25 
Q 44.96875 8.296875 48.78125 10.40625 
L 48.78125 2.09375 
Q 45.015625 0.34375 40.984375 -0.53125 
Q 36.96875 -1.421875 32.421875 -1.421875 
Q 20.0625 -1.421875 12.78125 6.34375 
Q 5.515625 14.109375 5.515625 27.296875 
Q 5.515625 40.671875 12.859375 48.328125 
Q 20.21875 56 33.015625 56 
Q 37.15625 56 41.109375 55.140625 
Q 45.0625 54.296875 48.78125 52.59375 
z
" id="DejaVuSans-99"/>
        <path d="M 30.609375 48.390625 
Q 23.390625 48.390625 19.1875 42.75 
Q 14.984375 37.109375 14.984375 27.296875 
Q 14.984375 17.484375 19.15625 11.84375 
Q 23.34375 6.203125 30.609375 6.203125 
Q 37.796875 6.203125 41.984375 11.859375 
Q 46.1875 17.53125 46.1875 27.296875 
Q 46.1875 37.015625 41.984375 42.703125 
Q 37.796875 48.390625 30.609375 48.390625 
z
M 30.609375 56 
Q 42.328125 56 49.015625 48.375 
Q 55.71875 40.765625 55.71875 27.296875 
Q 55.71875 13.875 49.015625 6.21875 
Q 42.328125 -1.421875 30.609375 -1.421875 
Q 18.84375 -1.421875 12.171875 6.21875 
Q 5.515625 13.875 5.515625 27.296875 
Q 5.515625 40.765625 12.171875 48.375 
Q 18.84375 56 30.609375 56 
z
" id="DejaVuSans-111"/>
       </defs>
       <use xlink:href="#DejaVuSans-97"/>
       <use x="61.279297" xlink:href="#DejaVuSans-102"/>
       <use x="96.484375" xlink:href="#DejaVuSans-108"/>
       <use x="124.267578" xlink:href="#DejaVuSans-112"/>
       <use x="187.744141" xlink:href="#DejaVuSans-108"/>
       <use x="215.527344" xlink:href="#DejaVuSans-117"/>
       <use x="278.90625" xlink:href="#DejaVuSans-115"/>
       <use x="331.005859" xlink:href="#DejaVuSans-112"/>
       <use x="394.482422" xlink:href="#DejaVuSans-108"/>
       <use x="422.265625" xlink:href="#DejaVuSans-117"/>
       <use x="485.644531" xlink:href="#DejaVuSans-115"/>
       <use x="537.744141" xlink:href="#DejaVuSans-95"/>
       <use x="587.744141" xlink:href="#DejaVuSans-104"/>
       <use x="651.123047" xlink:href="#DejaVuSans-105"/>
       <use x="678.90625" xlink:href="#DejaVuSans-101"/>
       <use x="740.429688" xlink:href="#DejaVuSans-114"/>
       <use x="781.542969" xlink:href="#DejaVuSans-95"/>
       <use x="831.542969" xlink:href="#DejaVuSans-99"/>
       <use x="886.523438" xlink:href="#DejaVuSans-111"/>
       <use x="947.705078" xlink:href="#DejaVuSans-101"/>
      </g>
     </g>
    </g>
    <g id="xtick_4">
     <g id="line2d_4">
      <g>
       <use style="stroke:#000000;stroke-width:0.8;" x="303.312125" xlink:href="#m95b06feec2" y="288.430125"/>
      </g>
     </g>
     <g id="text_4">
      <!-- aflplusplus_hier -->
      <g transform="translate(234.450627 341.087127)rotate(-30)scale(0.1 -0.1)">
       <use xlink:href="#DejaVuSans-97"/>
       <use x="61.279297" xlink:href="#DejaVuSans-102"/>
       <use x="96.484375" xlink:href="#DejaVuSans-108"/>
       <use x="124.267578" xlink:href="#DejaVuSans-112"/>
       <use x="187.744141" xlink:href="#DejaVuSans-108"/>
       <use x="215.527344" xlink:href="#DejaVuSans-117"/>
       <use x="278.90625" xlink:href="#DejaVuSans-115"/>
       <use x="331.005859" xlink:href="#DejaVuSans-112"/>
       <use x="394.482422" xlink:href="#DejaVuSans-108"/>
       <use x="422.265625" xlink:href="#DejaVuSans-117"/>
       <use x="485.644531" xlink:href="#DejaVuSans-115"/>
       <use x="537.744141" xlink:href="#DejaVuSans-95"/>
       <use x="587.744141" xlink:href="#DejaVuSans-104"/>
       <use x="651.123047" xlink:href="#DejaVuSans-105"/>
       <use x="678.90625" xlink:href="#DejaVuSans-101"/>
       <use x="740.429688" xlink:href="#DejaVuSans-114"/>
      </g>
     </g>
    </g>
    <g id="xtick_5">
     <g id="line2d_5">
      <g>
       <use style="stroke:#000000;stroke-width:0.8;" x="374.736125" xlink:href="#m95b06feec2" y="288.430125"/>
      </g>
     </g>
     <g id="text_5">
      <!-- afl_qemu -->
      <g transform="translate(333.714638 325.01369)rotate(-30)scale(0.1 -0.1)">
       <defs>
        <path d="M 14.796875 27.296875 
Q 14.796875 17.390625 18.875 11.75 
Q 22.953125 6.109375 30.078125 6.109375 
Q 37.203125 6.109375 41.296875 11.75 
Q 45.40625 17.390625 45.40625 27.296875 
Q 45.40625 37.203125 41.296875 42.84375 
Q 37.203125 48.484375 30.078125 48.484375 
Q 22.953125 48.484375 18.875 42.84375 
Q 14.796875 37.203125 14.796875 27.296875 
z
M 45.40625 8.203125 
Q 42.578125 3.328125 38.25 0.953125 
Q 33.9375 -1.421875 27.875 -1.421875 
Q 17.96875 -1.421875 11.734375 6.484375 
Q 5.515625 14.40625 5.515625 27.296875 
Q 5.515625 40.1875 11.734375 48.09375 
Q 17.96875 56 27.875 56 
Q 33.9375 56 38.25 53.625 
Q 42.578125 51.265625 45.40625 46.390625 
L 45.40625 54.6875 
L 54.390625 54.6875 
L 54.390625 -20.796875 
L 45.40625 -20.796875 
z
" id="DejaVuSans-113"/>
        <path d="M 52 44.1875 
Q 55.375 50.25 60.0625 53.125 
Q 64.75 56 71.09375 56 
Q 79.640625 56 84.28125 50.015625 
Q 88.921875 44.046875 88.921875 33.015625 
L 88.921875 0 
L 79.890625 0 
L 79.890625 32.71875 
Q 79.890625 40.578125 77.09375 44.375 
Q 74.3125 48.1875 68.609375 48.1875 
Q 61.625 48.1875 57.5625 43.546875 
Q 53.515625 38.921875 53.515625 30.90625 
L 53.515625 0 
L 44.484375 0 
L 44.484375 32.71875 
Q 44.484375 40.625 41.703125 44.40625 
Q 38.921875 48.1875 33.109375 48.1875 
Q 26.21875 48.1875 22.15625 43.53125 
Q 18.109375 38.875 18.109375 30.90625 
L 18.109375 0 
L 9.078125 0 
L 9.078125 54.6875 
L 18.109375 54.6875 
L 18.109375 46.1875 
Q 21.1875 51.21875 25.484375 53.609375 
Q 29.78125 56 35.6875 56 
Q 41.65625 56 45.828125 52.96875 
Q 50 49.953125 52 44.1875 
z
" id="DejaVuSans-109"/>
       </defs>
       <use xlink:href="#DejaVuSans-97"/>
       <use x="61.279297" xlink:href="#DejaVuSans-102"/>
       <use x="96.484375" xlink:href="#DejaVuSans-108"/>
       <use x="124.267578" xlink:href="#DejaVuSans-95"/>
       <use x="174.267578" xlink:href="#DejaVuSans-113"/>
       <use x="237.744141" xlink:href="#DejaVuSans-101"/>
       <use x="299.267578" xlink:href="#DejaVuSans-109"/>
       <use x="396.679688" xlink:href="#DejaVuSans-117"/>
      </g>
     </g>
    </g>
    <g id="text_6">
     <!-- Fuzzer (highest median coverage on the left) -->
     <g transform="translate(119.270156 366.616553)scale(0.1 -0.1)">
      <defs>
       <path d="M 9.8125 72.90625 
L 51.703125 72.90625 
L 51.703125 64.59375 
L 19.671875 64.59375 
L 19.671875 43.109375 
L 48.578125 43.109375 
L 48.578125 34.8125 
L 19.671875 34.8125 
L 19.671875 0 
L 9.8125 0 
z
" id="DejaVuSans-70"/>
       <path d="M 5.515625 54.6875 
L 48.1875 54.6875 
L 48.1875 46.484375 
L 14.40625 7.171875 
L 48.1875 7.171875 
L 48.1875 0 
L 4.296875 0 
L 4.296875 8.203125 
L 38.09375 47.515625 
L 5.515625 47.515625 
z
" id="DejaVuSans-122"/>
       <path id="DejaVuSans-32"/>
       <path d="M 31 75.875 
Q 24.46875 64.65625 21.28125 53.65625 
Q 18.109375 42.671875 18.109375 31.390625 
Q 18.109375 20.125 21.3125 9.0625 
Q 24.515625 -2 31 -13.1875 
L 23.1875 -13.1875 
Q 15.875 -1.703125 12.234375 9.375 
Q 8.59375 20.453125 8.59375 31.390625 
Q 8.59375 42.28125 12.203125 53.3125 
Q 15.828125 64.359375 23.1875 75.875 
z
" id="DejaVuSans-40"/>
       <path d="M 45.40625 27.984375 
Q 45.40625 37.75 41.375 43.109375 
Q 37.359375 48.484375 30.078125 48.484375 
Q 22.859375 48.484375 18.828125 43.109375 
Q 14.796875 37.75 14.796875 27.984375 
Q 14.796875 18.265625 18.828125 12.890625 
Q 22.859375 7.515625 30.078125 7.515625 
Q 37.359375 7.515625 41.375 12.890625 
Q 45.40625 18.265625 45.40625 27.984375 
z
M 54.390625 6.78125 
Q 54.390625 -7.171875 48.1875 -13.984375 
Q 42 -20.796875 29.203125 -20.796875 
Q 24.46875 -20.796875 20.265625 -20.09375 
Q 16.0625 -19.390625 12.109375 -17.921875 
L 12.109375 -9.1875 
Q 16.0625 -11.328125 19.921875 -12.34375 
Q 23.78125 -13.375 27.78125 -13.375 
Q 36.625 -13.375 41.015625 -8.765625 
Q 45.40625 -4.15625 45.40625 5.171875 
L 45.40625 9.625 
Q 42.625 4.78125 38.28125 2.390625 
Q 33.9375 0 27.875 0 
Q 17.828125 0 11.671875 7.65625 
Q 5.515625 15.328125 5.515625 27.984375 
Q 5.515625 40.671875 11.671875 48.328125 
Q 17.828125 56 27.875 56 
Q 33.9375 56 38.28125 53.609375 
Q 42.625 51.21875 45.40625 46.390625 
L 45.40625 54.6875 
L 54.390625 54.6875 
z
" id="DejaVuSans-103"/>
       <path d="M 45.40625 46.390625 
L 45.40625 75.984375 
L 54.390625 75.984375 
L 54.390625 0 
L 45.40625 0 
L 45.40625 8.203125 
Q 42.578125 3.328125 38.25 0.953125 
Q 33.9375 -1.421875 27.875 -1.421875 
Q 17.96875 -1.421875 11.734375 6.484375 
Q 5.515625 14.40625 5.515625 27.296875 
Q 5.515625 40.1875 11.734375 48.09375 
Q 17.96875 56 27.875 56 
Q 33.9375 56 38.25 53.625 
Q 42.578125 51.265625 45.40625 46.390625 
z
M 14.796875 27.296875 
Q 14.796875 17.390625 18.875 11.75 
Q 22.953125 6.109375 30.078125 6.109375 
Q 37.203125 6.109375 41.296875 11.75 
Q 45.40625 17.390625 45.40625 27.296875 
Q 45.40625 37.203125 41.296875 42.84375 
Q 37.203125 48.484375 30.078125 48.484375 
Q 22.953125 48.484375 18.875 42.84375 
Q 14.796875 37.203125 14.796875 27.296875 
z
" id="DejaVuSans-100"/>
       <path d="M 54.890625 33.015625 
L 54.890625 0 
L 45.90625 0 
L 45.90625 32.71875 
Q 45.90625 40.484375 42.875 44.328125 
Q 39.84375 48.1875 33.796875 48.1875 
Q 26.515625 48.1875 22.3125 43.546875 
Q 18.109375 38.921875 18.109375 30.90625 
L 18.109375 0 
L 9.078125 0 
L 9.078125 54.6875 
L 18.109375 54.6875 
L 18.109375 46.1875 
Q 21.34375 51.125 25.703125 53.5625 
Q 30.078125 56 35.796875 56 
Q 45.21875 56 50.046875 50.171875 
Q 54.890625 44.34375 54.890625 33.015625 
z
" id="DejaVuSans-110"/>
       <path d="M 2.984375 54.6875 
L 12.5 54.6875 
L 29.59375 8.796875 
L 46.6875 54.6875 
L 56.203125 54.6875 
L 35.6875 0 
L 23.484375 0 
z
" id="DejaVuSans-118"/>
       <path d="M 8.015625 75.875 
L 15.828125 75.875 
Q 23.140625 64.359375 26.78125 53.3125 
Q 30.421875 42.28125 30.421875 31.390625 
Q 30.421875 20.453125 26.78125 9.375 
Q 23.140625 -1.703125 15.828125 -13.1875 
L 8.015625 -13.1875 
Q 14.5 -2 17.703125 9.0625 
Q 20.90625 20.125 20.90625 31.390625 
Q 20.90625 42.671875 17.703125 53.65625 
Q 14.5 64.65625 8.015625 75.875 
z
" id="DejaVuSans-41"/>
      </defs>
      <use xlink:href="#DejaVuSans-70"/>
      <use x="52.019531" xlink:href="#DejaVuSans-117"/>
      <use x="115.398438" xlink:href="#DejaVuSans-122"/>
      <use x="167.888672" xlink:href="#DejaVuSans-122"/>
      <use x="220.378906" xlink:href="#DejaVuSans-101"/>
      <use x="281.902344" xlink:href="#DejaVuSans-114"/>
      <use x="323.015625" xlink:href="#DejaVuSans-32"/>
      <use x="354.802734" xlink:href="#DejaVuSans-40"/>
      <use x="393.816406" xlink:href="#DejaVuSans-104"/>
      <use x="457.195312" xlink:href="#DejaVuSans-105"/>
      <use x="484.978516" xlink:href="#DejaVuSans-103"/>
      <use x="548.455078" xlink:href="#DejaVuSans-104"/>
      <use x="611.833984" xlink:href="#DejaVuSans-101"/>
      <use x="673.357422" xlink:href="#DejaVuSans-115"/>
      <use x="725.457031" xlink:href="#DejaVuSans-116"/>
      <use x="764.666016" xlink:href="#DejaVuSans-32"/>
      <use x="796.453125" xlink:href="#DejaVuSans-109"/>
      <use x="893.865234" xlink:href="#DejaVuSans-101"/>
      <use x="955.388672" xlink:href="#DejaVuSans-100"/>
      <use x="1018.865234" xlink:href="#DejaVuSans-105"/>
      <use x="1046.648438" xlink:href="#DejaVuSans-97"/>
      <use x="1107.927734" xlink:href="#DejaVuSans-110"/>
      <use x="1171.306641" xlink:href="#DejaVuSans-32"/>
      <use x="1203.09375" xlink:href="#DejaVuSans-99"/>
      <use x="1258.074219" xlink:href="#DejaVuSans-111"/>
      <use x="1319.255859" xlink:href="#DejaVuSans-118"/>
      <use x="1378.435547" xlink:href="#DejaVuSans-101"/>
      <use x="1439.958984" xlink:href="#DejaVuSans-114"/>
      <use x="1481.072266" xlink:href="#DejaVuSans-97"/>
      <use x="1542.351562" xlink:href="#DejaVuSans-103"/>
      <use x="1605.828125" xlink:href="#DejaVuSans-101"/>
      <use x="1667.351562" xlink:href="#DejaVuSans-32"/>
      <use x="1699.138672" xlink:href="#DejaVuSans-111"/>
      <use x="1760.320312" xlink:href="#DejaVuSans-110"/>
      <use x="1823.699219" xlink:href="#DejaVuSans-32"/>
      <use x="1855.486328" xlink:href="#DejaVuSans-116"/>
      <use x="1894.695312" xlink:href="#DejaVuSans-104"/>
      <use x="1958.074219" xlink:href="#DejaVuSans-101"/>
      <use x="2019.597656" xlink:href="#DejaVuSans-32"/>
      <use x="2051.384766" xlink:href="#DejaVuSans-108"/>
      <use x="2079.167969" xlink:href="#DejaVuSans-101"/>
      <use x="2140.691406" xlink:href="#DejaVuSans-102"/>
      <use x="2174.146484" xlink:href="#DejaVuSans-116"/>
      <use x="2213.355469" xlink:href="#DejaVuSans-41"/>
     </g>
    </g>
   </g>
   <g id="matplotlib.axis_2">
    <g id="ytick_1">
     <g id="line2d_6">
      <defs>
       <path d="M 0 0 
L -3.5 0 
" id="m165e481cbf" style="stroke:#000000;stroke-width:0.8;"/>
      </defs>
      <g>
       <use style="stroke:#000000;stroke-width:0.8;" x="53.328125" xlink:href="#m165e481cbf" y="246.117259"/>
      </g>
     </g>
     <g id="text_7">
      <!-- 1200 -->
      <g transform="translate(20.878125 249.916477)scale(0.1 -0.1)">
       <defs>
        <path d="M 12.40625 8.296875 
L 28.515625 8.296875 
L 28.515625 63.921875 
L 10.984375 60.40625 
L 10.984375 69.390625 
L 28.421875 72.90625 
L 38.28125 72.90625 
L 38.28125 8.296875 
L 54.390625 8.296875 
L 54.390625 0 
L 12.40625 0 
z
" id="DejaVuSans-49"/>
        <path d="M 19.1875 8.296875 
L 53.609375 8.296875 
L 53.609375 0 
L 7.328125 0 
L 7.328125 8.296875 
Q 12.9375 14.109375 22.625 23.890625 
Q 32.328125 33.6875 34.8125 36.53125 
Q 39.546875 41.84375 41.421875 45.53125 
Q 43.3125 49.21875 43.3125 52.78125 
Q 43.3125 58.59375 39.234375 62.25 
Q 35.15625 65.921875 28.609375 65.921875 
Q 23.96875 65.921875 18.8125 64.3125 
Q 13.671875 62.703125 7.8125 59.421875 
L 7.8125 69.390625 
Q 13.765625 71.78125 18.9375 73 
Q 24.125 74.21875 28.421875 74.21875 
Q 39.75 74.21875 46.484375 68.546875 
Q 53.21875 62.890625 53.21875 53.421875 
Q 53.21875 48.921875 51.53125 44.890625 
Q 49.859375 40.875 45.40625 35.40625 
Q 44.1875 33.984375 37.640625 27.21875 
Q 31.109375 20.453125 19.1875 8.296875 
z
" id="DejaVuSans-50"/>
        <path d="M 31.78125 66.40625 
Q 24.171875 66.40625 20.328125 58.90625 
Q 16.5 51.421875 16.5 36.375 
Q 16.5 21.390625 20.328125 13.890625 
Q 24.171875 6.390625 31.78125 6.390625 
Q 39.453125 6.390625 43.28125 13.890625 
Q 47.125 21.390625 47.125 36.375 
Q 47.125 51.421875 43.28125 58.90625 
Q 39.453125 66.40625 31.78125 66.40625 
z
M 31.78125 74.21875 
Q 44.046875 74.21875 50.515625 64.515625 
Q 56.984375 54.828125 56.984375 36.375 
Q 56.984375 17.96875 50.515625 8.265625 
Q 44.046875 -1.421875 31.78125 -1.421875 
Q 19.53125 -1.421875 13.0625 8.265625 
Q 6.59375 17.96875 6.59375 36.375 
Q 6.59375 54.828125 13.0625 64.515625 
Q 19.53125 74.21875 31.78125 74.21875 
z
" id="DejaVuSans-48"/>
       </defs>
       <use xlink:href="#DejaVuSans-49"/>
       <use x="63.623047" xlink:href="#DejaVuSans-50"/>
       <use x="127.246094" xlink:href="#DejaVuSans-48"/>
       <use x="190.869141" xlink:href="#DejaVuSans-48"/>
      </g>
     </g>
    </g>
    <g id="ytick_2">
     <g id="line2d_7">
      <g>
       <use style="stroke:#000000;stroke-width:0.8;" x="53.328125" xlink:href="#m165e481cbf" y="189.647149"/>
      </g>
     </g>
     <g id="text_8">
      <!-- 1400 -->
      <g transform="translate(20.878125 193.446368)scale(0.1 -0.1)">
       <defs>
        <path d="M 37.796875 64.3125 
L 12.890625 25.390625 
L 37.796875 25.390625 
z
M 35.203125 72.90625 
L 47.609375 72.90625 
L 47.609375 25.390625 
L 58.015625 25.390625 
L 58.015625 17.1875 
L 47.609375 17.1875 
L 47.609375 0 
L 37.796875 0 
L 37.796875 17.1875 
L 4.890625 17.1875 
L 4.890625 26.703125 
z
" id="DejaVuSans-52"/>
       </defs>
       <use xlink:href="#DejaVuSans-49"/>
       <use x="63.623047" xlink:href="#DejaVuSans-52"/>
       <use x="127.246094" xlink:href="#DejaVuSans-48"/>
       <use x="190.869141" xlink:href="#DejaVuSans-48"/>
      </g>
     </g>
    </g>
    <g id="ytick_3">
     <g id="line2d_8">
      <g>
       <use style="stroke:#000000;stroke-width:0.8;" x="53.328125" xlink:href="#m165e481cbf" y="133.177039"/>
      </g>
     </g>
     <g id="text_9">
      <!-- 1600 -->
      <g transform="translate(20.878125 136.976258)scale(0.1 -0.1)">
       <defs>
        <path d="M 33.015625 40.375 
Q 26.375 40.375 22.484375 35.828125 
Q 18.609375 31.296875 18.609375 23.390625 
Q 18.609375 15.53125 22.484375 10.953125 
Q 26.375 6.390625 33.015625 6.390625 
Q 39.65625 6.390625 43.53125 10.953125 
Q 47.40625 15.53125 47.40625 23.390625 
Q 47.40625 31.296875 43.53125 35.828125 
Q 39.65625 40.375 33.015625 40.375 
z
M 52.59375 71.296875 
L 52.59375 62.3125 
Q 48.875 64.0625 45.09375 64.984375 
Q 41.3125 65.921875 37.59375 65.921875 
Q 27.828125 65.921875 22.671875 59.328125 
Q 17.53125 52.734375 16.796875 39.40625 
Q 19.671875 43.65625 24.015625 45.921875 
Q 28.375 48.1875 33.59375 48.1875 
Q 44.578125 48.1875 50.953125 41.515625 
Q 57.328125 34.859375 57.328125 23.390625 
Q 57.328125 12.15625 50.6875 5.359375 
Q 44.046875 -1.421875 33.015625 -1.421875 
Q 20.359375 -1.421875 13.671875 8.265625 
Q 6.984375 17.96875 6.984375 36.375 
Q 6.984375 53.65625 15.1875 63.9375 
Q 23.390625 74.21875 37.203125 74.21875 
Q 40.921875 74.21875 44.703125 73.484375 
Q 48.484375 72.75 52.59375 71.296875 
z
" id="DejaVuSans-54"/>
       </defs>
       <use xlink:href="#DejaVuSans-49"/>
       <use x="63.623047" xlink:href="#DejaVuSans-54"/>
       <use x="127.246094" xlink:href="#DejaVuSans-48"/>
       <use x="190.869141" xlink:href="#DejaVuSans-48"/>
      </g>
     </g>
    </g>
    <g id="ytick_4">
     <g id="line2d_9">
      <g>
       <use style="stroke:#000000;stroke-width:0.8;" x="53.328125" xlink:href="#m165e481cbf" y="76.706929"/>
      </g>
     </g>
     <g id="text_10">
      <!-- 1800 -->
      <g transform="translate(20.878125 80.506148)scale(0.1 -0.1)">
       <defs>
        <path d="M 31.78125 34.625 
Q 24.75 34.625 20.71875 30.859375 
Q 16.703125 27.09375 16.703125 20.515625 
Q 16.703125 13.921875 20.71875 10.15625 
Q 24.75 6.390625 31.78125 6.390625 
Q 38.8125 6.390625 42.859375 10.171875 
Q 46.921875 13.96875 46.921875 20.515625 
Q 46.921875 27.09375 42.890625 30.859375 
Q 38.875 34.625 31.78125 34.625 
z
M 21.921875 38.8125 
Q 15.578125 40.375 12.03125 44.71875 
Q 8.5 49.078125 8.5 55.328125 
Q 8.5 64.0625 14.71875 69.140625 
Q 20.953125 74.21875 31.78125 74.21875 
Q 42.671875 74.21875 48.875 69.140625 
Q 55.078125 64.0625 55.078125 55.328125 
Q 55.078125 49.078125 51.53125 44.71875 
Q 48 40.375 41.703125 38.8125 
Q 48.828125 37.15625 52.796875 32.3125 
Q 56.78125 27.484375 56.78125 20.515625 
Q 56.78125 9.90625 50.3125 4.234375 
Q 43.84375 -1.421875 31.78125 -1.421875 
Q 19.734375 -1.421875 13.25 4.234375 
Q 6.78125 9.90625 6.78125 20.515625 
Q 6.78125 27.484375 10.78125 32.3125 
Q 14.796875 37.15625 21.921875 38.8125 
z
M 18.3125 54.390625 
Q 18.3125 48.734375 21.84375 45.5625 
Q 25.390625 42.390625 31.78125 42.390625 
Q 38.140625 42.390625 41.71875 45.5625 
Q 45.3125 48.734375 45.3125 54.390625 
Q 45.3125 60.0625 41.71875 63.234375 
Q 38.140625 66.40625 31.78125 66.40625 
Q 25.390625 66.40625 21.84375 63.234375 
Q 18.3125 60.0625 18.3125 54.390625 
z
" id="DejaVuSans-56"/>
       </defs>
       <use xlink:href="#DejaVuSans-49"/>
       <use x="63.623047" xlink:href="#DejaVuSans-56"/>
       <use x="127.246094" xlink:href="#DejaVuSans-48"/>
       <use x="190.869141" xlink:href="#DejaVuSans-48"/>
      </g>
     </g>
    </g>
    <g id="text_11">
     <!-- Reached region coverage -->
     <g transform="translate(14.798438 219.136625)rotate(-90)scale(0.1 -0.1)">
      <defs>
       <path d="M 44.390625 34.1875 
Q 47.5625 33.109375 50.5625 29.59375 
Q 53.5625 26.078125 56.59375 19.921875 
L 66.609375 0 
L 56 0 
L 46.6875 18.703125 
Q 43.0625 26.03125 39.671875 28.421875 
Q 36.28125 30.8125 30.421875 30.8125 
L 19.671875 30.8125 
L 19.671875 0 
L 9.8125 0 
L 9.8125 72.90625 
L 32.078125 72.90625 
Q 44.578125 72.90625 50.734375 67.671875 
Q 56.890625 62.453125 56.890625 51.90625 
Q 56.890625 45.015625 53.6875 40.46875 
Q 50.484375 35.9375 44.390625 34.1875 
z
M 19.671875 64.796875 
L 19.671875 38.921875 
L 32.078125 38.921875 
Q 39.203125 38.921875 42.84375 42.21875 
Q 46.484375 45.515625 46.484375 51.90625 
Q 46.484375 58.296875 42.84375 61.546875 
Q 39.203125 64.796875 32.078125 64.796875 
z
" id="DejaVuSans-82"/>
      </defs>
      <use xlink:href="#DejaVuSans-82"/>
      <use x="64.982422" xlink:href="#DejaVuSans-101"/>
      <use x="126.505859" xlink:href="#DejaVuSans-97"/>
      <use x="187.785156" xlink:href="#DejaVuSans-99"/>
      <use x="242.765625" xlink:href="#DejaVuSans-104"/>
      <use x="306.144531" xlink:href="#DejaVuSans-101"/>
      <use x="367.667969" xlink:href="#DejaVuSans-100"/>
      <use x="431.144531" xlink:href="#DejaVuSans-32"/>
      <use x="462.931641" xlink:href="#DejaVuSans-114"/>
      <use x="501.794922" xlink:href="#DejaVuSans-101"/>
      <use x="563.318359" xlink:href="#DejaVuSans-103"/>
      <use x="626.794922" xlink:href="#DejaVuSans-105"/>
      <use x="654.578125" xlink:href="#DejaVuSans-111"/>
      <use x="715.759766" xlink:href="#DejaVuSans-110"/>
      <use x="779.138672" xlink:href="#DejaVuSans-32"/>
      <use x="810.925781" xlink:href="#DejaVuSans-99"/>
      <use x="865.90625" xlink:href="#DejaVuSans-111"/>
      <use x="927.087891" xlink:href="#DejaVuSans-118"/>
      <use x="986.267578" xlink:href="#DejaVuSans-101"/>
      <use x="1047.791016" xlink:href="#DejaVuSans-114"/>
      <use x="1088.904297" xlink:href="#DejaVuSans-97"/>
      <use x="1150.183594" xlink:href="#DejaVuSans-103"/>
      <use x="1213.660156" xlink:href="#DejaVuSans-101"/>
     </g>
    </g>
   </g>
   <g id="line2d_10">
    <path clip-path="url(#pb720792854)" d="M 89.040125 35.766099 
L 89.040125 35.201398 
" style="fill:none;stroke:#3f3f3f;stroke-linecap:square;stroke-width:1.5;"/>
   </g>
   <g id="line2d_11">
    <path clip-path="url(#pb720792854)" d="M 89.040125 35.766099 
L 89.040125 35.483749 
" style="fill:none;stroke:#3f3f3f;stroke-linecap:square;stroke-width:4.5;"/>
   </g>
   <g id="line2d_12">
    <path clip-path="url(#pb720792854)" d="M 160.464125 158.870939 
L 160.464125 144.753411 
" style="fill:none;stroke:#3f3f3f;stroke-linecap:square;stroke-width:1.5;"/>
   </g>
   <g id="line2d_13">
    <path clip-path="url(#pb720792854)" d="M 160.464125 158.870939 
L 160.464125 149.553371 
" style="fill:none;stroke:#3f3f3f;stroke-linecap:square;stroke-width:4.5;"/>
   </g>
   <g id="line2d_14">
    <path clip-path="url(#pb720792854)" d="M 231.888125 160.847393 
L 231.888125 146.447515 
" style="fill:none;stroke:#3f3f3f;stroke-linecap:square;stroke-width:1.5;"/>
   </g>
   <g id="line2d_15">
    <path clip-path="url(#pb720792854)" d="M 231.888125 160.565042 
L 231.888125 151.812175 
" style="fill:none;stroke:#3f3f3f;stroke-linecap:square;stroke-width:4.5;"/>
   </g>
   <g id="line2d_16">
    <path clip-path="url(#pb720792854)" d="M 303.312125 168.470858 
L 303.312125 133.74174 
" style="fill:none;stroke:#3f3f3f;stroke-linecap:square;stroke-width:1.5;"/>
   </g>
   <g id="line2d_17">
    <path clip-path="url(#pb720792854)" d="M 303.312125 168.188507 
L 303.312125 141.647555 
" style="fill:none;stroke:#3f3f3f;stroke-linecap:square;stroke-width:4.5;"/>
   </g>
   <g id="line2d_18">
    <path clip-path="url(#pb720792854)" d="M 374.736125 235.387938 
L 374.736125 180.611931 
" style="fill:none;stroke:#3f3f3f;stroke-linecap:square;stroke-width:1.5;"/>
   </g>
   <g id="line2d_19">
    <path clip-path="url(#pb720792854)" d="M 374.736125 235.105587 
L 374.736125 180.894282 
" style="fill:none;stroke:#3f3f3f;stroke-linecap:square;stroke-width:4.5;"/>
   </g>
   <g id="patch_3">
    <path d="M 53.328125 246.117259 
L 53.328125 76.706929 
" style="fill:none;stroke:#000000;stroke-linecap:square;stroke-linejoin:miter;stroke-width:0.8;"/>
   </g>
   <g id="patch_4">
    <path d="M 89.040125 288.430125 
L 374.736125 288.430125 
" style="fill:none;stroke:#000000;stroke-linecap:square;stroke-linejoin:miter;stroke-width:0.8;"/>
   </g>
   <g id="PathCollection_1">
    <defs>
     <path d="M 0 1.5 
C 0.397805 1.5 0.77937 1.341951 1.06066 1.06066 
C 1.341951 0.77937 1.5 0.397805 1.5 0 
C 1.5 -0.397805 1.341951 -0.77937 1.06066 -1.06066 
C 0.77937 -1.341951 0.397805 -1.5 0 -1.5 
C -0.397805 -1.5 -0.77937 -1.341951 -1.06066 -1.06066 
C -1.341951 -0.77937 -1.5 -0.397805 -1.5 0 
C -1.5 0.397805 -1.341951 0.77937 -1.06066 1.06066 
C -0.77937 1.341951 -0.397805 1.5 0 1.5 
z
" id="m24494b3ddd" style="stroke:#3f3f3f;"/>
    </defs>
    <g clip-path="url(#pb720792854)">
     <use style="fill:#ffffff;stroke:#3f3f3f;" x="89.040125" xlink:href="#m24494b3ddd" y="35.483749"/>
    </g>
   </g>
   <g id="PathCollection_2">
    <g clip-path="url(#pb720792854)">
     <use style="fill:#ffffff;stroke:#3f3f3f;" x="160.464125" xlink:href="#m24494b3ddd" y="151.812175"/>
    </g>
   </g>
   <g id="PathCollection_3">
    <g clip-path="url(#pb720792854)">
     <use style="fill:#ffffff;stroke:#3f3f3f;" x="231.888125" xlink:href="#m24494b3ddd" y="151.812175"/>
    </g>
   </g>
   <g id="PathCollection_4">
    <g clip-path="url(#pb720792854)">
     <use style="fill:#ffffff;stroke:#3f3f3f;" x="303.312125" xlink:href="#m24494b3ddd" y="161.976795"/>
    </g>
   </g>
   <g id="PathCollection_5">
    <g clip-path="url(#pb720792854)">
     <use style="fill:#ffffff;stroke:#3f3f3f;" x="374.736125" xlink:href="#m24494b3ddd" y="191.341252"/>
    </g>
   </g>
   <g id="text_12">
    <!-- libpng-1.2.56 (2h, 5 trials/fuzzer) -->
    <g transform="translate(132.981875 16.318125)scale(0.12 -0.12)">
     <defs>
      <path d="M 48.6875 27.296875 
Q 48.6875 37.203125 44.609375 42.84375 
Q 40.53125 48.484375 33.40625 48.484375 
Q 26.265625 48.484375 22.1875 42.84375 
Q 18.109375 37.203125 18.109375 27.296875 
Q 18.109375 17.390625 22.1875 11.75 
Q 26.265625 6.109375 33.40625 6.109375 
Q 40.53125 6.109375 44.609375 11.75 
Q 48.6875 17.390625 48.6875 27.296875 
z
M 18.109375 46.390625 
Q 20.953125 51.265625 25.265625 53.625 
Q 29.59375 56 35.59375 56 
Q 45.5625 56 51.78125 48.09375 
Q 58.015625 40.1875 58.015625 27.296875 
Q 58.015625 14.40625 51.78125 6.484375 
Q 45.5625 -1.421875 35.59375 -1.421875 
Q 29.59375 -1.421875 25.265625 0.953125 
Q 20.953125 3.328125 18.109375 8.203125 
L 18.109375 0 
L 9.078125 0 
L 9.078125 75.984375 
L 18.109375 75.984375 
z
" id="DejaVuSans-98"/>
      <path d="M 4.890625 31.390625 
L 31.203125 31.390625 
L 31.203125 23.390625 
L 4.890625 23.390625 
z
" id="DejaVuSans-45"/>
      <path d="M 10.6875 12.40625 
L 21 12.40625 
L 21 0 
L 10.6875 0 
z
" id="DejaVuSans-46"/>
      <path d="M 10.796875 72.90625 
L 49.515625 72.90625 
L 49.515625 64.59375 
L 19.828125 64.59375 
L 19.828125 46.734375 
Q 21.96875 47.46875 24.109375 47.828125 
Q 26.265625 48.1875 28.421875 48.1875 
Q 40.625 48.1875 47.75 41.5 
Q 54.890625 34.8125 54.890625 23.390625 
Q 54.890625 11.625 47.5625 5.09375 
Q 40.234375 -1.421875 26.90625 -1.421875 
Q 22.3125 -1.421875 17.546875 -0.640625 
Q 12.796875 0.140625 7.71875 1.703125 
L 7.71875 11.625 
Q 12.109375 9.234375 16.796875 8.0625 
Q 21.484375 6.890625 26.703125 6.890625 
Q 35.15625 6.890625 40.078125 11.328125 
Q 45.015625 15.765625 45.015625 23.390625 
Q 45.015625 31 40.078125 35.4375 
Q 35.15625 39.890625 26.703125 39.890625 
Q 22.75 39.890625 18.8125 39.015625 
Q 14.890625 38.140625 10.796875 36.28125 
z
" id="DejaVuSans-53"/>
      <path d="M 11.71875 12.40625 
L 22.015625 12.40625 
L 22.015625 4 
L 14.015625 -11.625 
L 7.71875 -11.625 
L 11.71875 4 
z
" id="DejaVuSans-44"/>
      <path d="M 25.390625 72.90625 
L 33.6875 72.90625 
L 8.296875 -9.28125 
L 0 -9.28125 
z
" id="DejaVuSans-47"/>
     </defs>
     <use xlink:href="#DejaVuSans-108"/>
     <use x="27.783203" xlink:href="#DejaVuSans-105"/>
     <use x="55.566406" xlink:href="#DejaVuSans-98"/>
     <use x="119.042969" xlink:href="#DejaVuSans-112"/>
     <use x="182.519531" xlink:href="#DejaVuSans-110"/>
     <use x="245.898438" xlink:href="#DejaVuSans-103"/>
     <use x="309.375" xlink:href="#DejaVuSans-45"/>
     <use x="345.458984" xlink:href="#DejaVuSans-49"/>
     <use x="409.082031" xlink:href="#DejaVuSans-46"/>
     <use x="440.869141" xlink:href="#DejaVuSans-50"/>
     <use x="504.492188" xlink:href="#DejaVuSans-46"/>
     <use x="536.279297" xlink:href="#DejaVuSans-53"/>
     <use x="599.902344" xlink:href="#DejaVuSans-54"/>
     <use x="663.525391" xlink:href="#DejaVuSans-32"/>
     <use x="695.3125" xlink:href="#DejaVuSans-40"/>
     <use x="734.326172" xlink:href="#DejaVuSans-50"/>
     <use x="797.949219" xlink:href="#DejaVuSans-104"/>
     <use x="861.328125" xlink:href="#DejaVuSans-44"/>
     <use x="893.115234" xlink:href="#DejaVuSans-32"/>
     <use x="924.902344" xlink:href="#DejaVuSans-53"/>
     <use x="988.525391" xlink:href="#DejaVuSans-32"/>
     <use x="1020.3125" xlink:href="#DejaVuSans-116"/>
     <use x="1059.521484" xlink:href="#DejaVuSans-114"/>
     <use x="1100.634766" xlink:href="#DejaVuSans-105"/>
     <use x="1128.417969" xlink:href="#DejaVuSans-97"/>
     <use x="1189.697266" xlink:href="#DejaVuSans-108"/>
     <use x="1217.480469" xlink:href="#DejaVuSans-115"/>
     <use x="1269.580078" xlink:href="#DejaVuSans-47"/>
     <use x="1303.271484" xlink:href="#DejaVuSans-102"/>
     <use x="1338.476562" xlink:href="#DejaVuSans-117"/>
     <use x="1401.855469" xlink:href="#DejaVuSans-122"/>
     <use x="1454.345703" xlink:href="#DejaVuSans-122"/>
     <use x="1506.835938" xlink:href="#DejaVuSans-101"/>
     <use x="1568.359375" xlink:href="#DejaVuSans-114"/>
     <use x="1609.472656" xlink:href="#DejaVuSans-41"/>
    </g>
   </g>
  </g>
 </g>
 <defs>
  <clipPath id="pb720792854">
   <rect height="266.112" width="357.12" x="53.328125" y="22.318125"/>
  </clipPath>
 </defs>
</svg>
