<?xml version="1.0" encoding="utf-8" standalone="no"?>
<!DOCTYPE svg PUBLIC "-//W3C//DTD SVG 1.1//EN"
  "http://www.w3.org/Graphics/SVG/1.1/DTD/svg11.dtd">
<!-- Created with matplotlib (https://matplotlib.org/) -->
<svg height="375.89624pt" version="1.1" viewBox="0 0 417.648125 375.89624" width="417.648125pt" xmlns="http://www.w3.org/2000/svg" xmlns:xlink="http://www.w3.org/1999/xlink">
 <metadata>
  <rdf:RDF xmlns:cc="http://creativecommons.org/ns#" xmlns:dc="http://purl.org/dc/elements/1.1/" xmlns:rdf="http://www.w3.org/1999/02/22-rdf-syntax-ns#">
   <cc:Work>
    <dc:type rdf:resource="http://purl.org/dc/dcmitype/StillImage"/>
    <dc:date>2020-11-17T15:05:22.233357</dc:date>
    <dc:format>image/svg+xml</dc:format>
    <dc:creator>
     <cc:Agent>
      <dc:title>Matplotlib v3.3.2, https://matplotlib.org/</dc:title>
     </cc:Agent>
    </dc:creator>
   </cc:Work>
  </rdf:RDF>
 </metadata>
 <defs>
  <style type="text/css">*{stroke-linecap:butt;stroke-linejoin:round;}</style>
 </defs>
 <g id="figure_1">
  <g id="patch_1">
   <path d="M 0 375.89624 
L 417.648125 375.89624 
L 417.648125 0 
L 0 0 
z
" style="fill:#ffffff;"/>
  </g>
  <g id="axes_1">
   <g id="patch_2">
    <path d="M 53.328125 288.430125 
L 410.448125 288.430125 
L 410.448125 22.318125 
L 53.328125 22.318125 
z
" style="fill:#ffffff;"/>
   </g>
   <g id="PolyCollection_1">
    <defs>
     <path d="M 89.348684 -313.27427 
L 88.731566 -313.27427 
L 88.682086 -313.559198 
L 88.626898 -313.844126 
L 88.565747 -314.129053 
L 88.498436 -314.413981 
L 88.424835 -314.698909 
L 88.344892 -314.983836 
L 88.258643 -315.268764 
L 88.166217 -315.553692 
L 88.067841 -315.83862 
L 87.963845 -316.123547 
L 87.854658 -316.408475 
L 87.740803 -316.693403 
L 87.622894 -316.978331 
L 87.501623 -317.263258 
L 87.377742 -317.548186 
L 87.252053 -317.833114 
L 87.125383 -318.118041 
L 86.998564 -318.402969 
L 86.872411 -318.687897 
L 86.747698 -318.972825 
L 86.625135 -319.257752 
L 86.505344 -319.54268 
L 86.388843 -319.827608 
L 86.276029 -320.112536 
L 86.16716 -320.397463 
L 86.062349 -320.682391 
L 85.961558 -320.967319 
L 85.8646 -321.252247 
L 85.771137 -321.537174 
L 85.680693 -321.822102 
L 85.592667 -322.10703 
L 85.506346 -322.391957 
L 85.420927 -322.676885 
L 85.335537 -322.961813 
L 85.24926 -323.246741 
L 85.161156 -323.531668 
L 85.070295 -323.816596 
L 84.975776 -324.101524 
L 84.876754 -324.386452 
L 84.772471 -324.671379 
L 84.66227 -324.956307 
L 84.545627 -325.241235 
L 84.422166 -325.526162 
L 84.291682 -325.81109 
L 84.154159 -326.096018 
L 84.00978 -326.380946 
L 83.858949 -326.665873 
L 83.702293 -326.950801 
L 83.54067 -327.235729 
L 83.375175 -327.520657 
L 83.207132 -327.805584 
L 83.038091 -328.090512 
L 82.869812 -328.37544 
L 82.704247 -328.660368 
L 82.543514 -328.945295 
L 82.389862 -329.230223 
L 82.24564 -329.515151 
L 82.113244 -329.800078 
L 81.995076 -330.085006 
L 81.893487 -330.369934 
L 81.810727 -330.654862 
L 81.748884 -330.939789 
L 81.709835 -331.224717 
L 81.695191 -331.509645 
L 81.706251 -331.794573 
L 81.743966 -332.0795 
L 81.808899 -332.364428 
L 81.901209 -332.649356 
L 82.020634 -332.934283 
L 82.166493 -333.219211 
L 82.337692 -333.504139 
L 82.532748 -333.789067 
L 82.749819 -334.073994 
L 82.986744 -334.358922 
L 83.241091 -334.64385 
L 83.510212 -334.928778 
L 83.791302 -335.213705 
L 84.081462 -335.498633 
L 84.377758 -335.783561 
L 84.677284 -336.068489 
L 84.977218 -336.353416 
L 85.274872 -336.638344 
L 85.567745 -336.923272 
L 85.853551 -337.208199 
L 86.130261 -337.493127 
L 86.396115 -337.778055 
L 86.649642 -338.062983 
L 86.889665 -338.34791 
L 87.115296 -338.632838 
L 87.325929 -338.917766 
L 87.521225 -339.202694 
L 87.701089 -339.487621 
L 87.865653 -339.772549 
L 88.015239 -340.057477 
L 88.150341 -340.342405 
L 88.271587 -340.627332 
L 88.379717 -340.91226 
L 88.475551 -341.197188 
L 88.559964 -341.482115 
L 89.520286 -341.482115 
L 89.520286 -341.482115 
L 89.604699 -341.197188 
L 89.700533 -340.91226 
L 89.808663 -340.627332 
L 89.929909 -340.342405 
L 90.065011 -340.057477 
L 90.214597 -339.772549 
L 90.379161 -339.487621 
L 90.559025 -339.202694 
L 90.754321 -338.917766 
L 90.964954 -338.632838 
L 91.190585 -338.34791 
L 91.430608 -338.062983 
L 91.684135 -337.778055 
L 91.949989 -337.493127 
L 92.226699 -337.208199 
L 92.512505 -336.923272 
L 92.805378 -336.638344 
L 93.103032 -336.353416 
L 93.402966 -336.068489 
L 93.702492 -335.783561 
L 93.998788 -335.498633 
L 94.288948 -335.213705 
L 94.570038 -334.928778 
L 94.839159 -334.64385 
L 95.093506 -334.358922 
L 95.330431 -334.073994 
L 95.547502 -333.789067 
L 95.742558 -333.504139 
L 95.913757 -333.219211 
L 96.059616 -332.934283 
L 96.179041 -332.649356 
L 96.271351 -332.364428 
L 96.336284 -332.0795 
L 96.373999 -331.794573 
L 96.385059 -331.509645 
L 96.370415 -331.224717 
L 96.331366 -330.939789 
L 96.269523 -330.654862 
L 96.186763 -330.369934 
L 96.085174 -330.085006 
L 95.967006 -329.800078 
L 95.83461 -329.515151 
L 95.690388 -329.230223 
L 95.536736 -328.945295 
L 95.376003 -328.660368 
L 95.210438 -328.37544 
L 95.042159 -328.090512 
L 94.873118 -327.805584 
L 94.705075 -327.520657 
L 94.53958 -327.235729 
L 94.377957 -326.950801 
L 94.221301 -326.665873 
L 94.07047 -326.380946 
L 93.926091 -326.096018 
L 93.788568 -325.81109 
L 93.658084 -325.526162 
L 93.534623 -325.241235 
L 93.41798 -324.956307 
L 93.307779 -324.671379 
L 93.203496 -324.386452 
L 93.104474 -324.101524 
L 93.009955 -323.816596 
L 92.919094 -323.531668 
L 92.83099 -323.246741 
L 92.744713 -322.961813 
L 92.659323 -322.676885 
L 92.573904 -322.391957 
L 92.487583 -322.10703 
L 92.399557 -321.822102 
L 92.309113 -321.537174 
L 92.21565 -321.252247 
L 92.118692 -320.967319 
L 92.017901 -320.682391 
L 91.91309 -320.397463 
L 91.804221 -320.112536 
L 91.691407 -319.827608 
L 91.574906 -319.54268 
L 91.455115 -319.257752 
L 91.332552 -318.972825 
L 91.207839 -318.687897 
L 91.081686 -318.402969 
L 90.954867 -318.118041 
L 90.828197 -317.833114 
L 90.702508 -317.548186 
L 90.578627 -317.263258 
L 90.457356 -316.978331 
L 90.339447 -316.693403 
L 90.225592 -316.408475 
L 90.116405 -316.123547 
L 90.012409 -315.83862 
L 89.914033 -315.553692 
L 89.821607 -315.268764 
L 89.735358 -314.983836 
L 89.655415 -314.698909 
L 89.581814 -314.413981 
L 89.514503 -314.129053 
L 89.453352 -313.844126 
L 89.398164 -313.559198 
L 89.348684 -313.27427 
z
" id="m6b45070ea1" style="stroke:#3f3f3f;stroke-width:1.5;"/>
    </defs>
    <g clip-path="url(#p21b164e27f)">
     <use style="fill:#9fd495;stroke:#3f3f3f;stroke-width:1.5;" x="0" xlink:href="#m6b45070ea1" y="375.89624"/>
    </g>
   </g>
   <g id="PolyCollection_2">
    <defs>
     <path d="M 160.895963 -115.600385 
L 160.032287 -115.600385 
L 159.963399 -115.89115 
L 159.886372 -116.181914 
L 159.800764 -116.472679 
L 159.706196 -116.763443 
L 159.602373 -117.054208 
L 159.4891 -117.344972 
L 159.366296 -117.635737 
L 159.234009 -117.926501 
L 159.092432 -118.217265 
L 158.941913 -118.50803 
L 158.782959 -118.798794 
L 158.616247 -119.089559 
L 158.442617 -119.380323 
L 158.263074 -119.671088 
L 158.078772 -119.961852 
L 157.891005 -120.252617 
L 157.701182 -120.543381 
L 157.510809 -120.834146 
L 157.321454 -121.12491 
L 157.134718 -121.415675 
L 156.952199 -121.706439 
L 156.775455 -121.997204 
L 156.605964 -122.287968 
L 156.445091 -122.578733 
L 156.294045 -122.869497 
L 156.153853 -123.160262 
L 156.025329 -123.451026 
L 155.909047 -123.741791 
L 155.805331 -124.032555 
L 155.714239 -124.32332 
L 155.635565 -124.614084 
L 155.568841 -124.904849 
L 155.513353 -125.195613 
L 155.468163 -125.486378 
L 155.432133 -125.777142 
L 155.403964 -126.067907 
L 155.382232 -126.358671 
L 155.365431 -126.649436 
L 155.352023 -126.9402 
L 155.340481 -127.230965 
L 155.329334 -127.521729 
L 155.317217 -127.812494 
L 155.302908 -128.103258 
L 155.285366 -128.394023 
L 155.263763 -128.684787 
L 155.237508 -128.975552 
L 155.206268 -129.266316 
L 155.169975 -129.557081 
L 155.128833 -129.847845 
L 155.083309 -130.13861 
L 155.034127 -130.429374 
L 154.982246 -130.720139 
L 154.928838 -131.010903 
L 154.875255 -131.301668 
L 154.822998 -131.592432 
L 154.773677 -131.883196 
L 154.728972 -132.173961 
L 154.69059 -132.464725 
L 154.660224 -132.75549 
L 154.639511 -133.046254 
L 154.629988 -133.337019 
L 154.633064 -133.627783 
L 154.649975 -133.918548 
L 154.681763 -134.209312 
L 154.729245 -134.500077 
L 154.792996 -134.790841 
L 154.873338 -135.081606 
L 154.970325 -135.37237 
L 155.08375 -135.663135 
L 155.213144 -135.953899 
L 155.357788 -136.244664 
L 155.51673 -136.535428 
L 155.688805 -136.826193 
L 155.87266 -137.116957 
L 156.066788 -137.407722 
L 156.269551 -137.698486 
L 156.479225 -137.989251 
L 156.694025 -138.280015 
L 156.912145 -138.57078 
L 157.131794 -138.861544 
L 157.351224 -139.152309 
L 157.568761 -139.443073 
L 157.782834 -139.733838 
L 157.991996 -140.024602 
L 158.194942 -140.315367 
L 158.390528 -140.606131 
L 158.577774 -140.896896 
L 158.755876 -141.18766 
L 158.924204 -141.478425 
L 159.082299 -141.769189 
L 159.229869 -142.059954 
L 159.366776 -142.350718 
L 159.493029 -142.641483 
L 159.608765 -142.932247 
L 159.714236 -143.223012 
L 159.809792 -143.513776 
L 159.895865 -143.804541 
L 159.972952 -144.095305 
L 160.041597 -144.38607 
L 160.886653 -144.38607 
L 160.886653 -144.38607 
L 160.955298 -144.095305 
L 161.032385 -143.804541 
L 161.118458 -143.513776 
L 161.214014 -143.223012 
L 161.319485 -142.932247 
L 161.435221 -142.641483 
L 161.561474 -142.350718 
L 161.698381 -142.059954 
L 161.845951 -141.769189 
L 162.004046 -141.478425 
L 162.172374 -141.18766 
L 162.350476 -140.896896 
L 162.537722 -140.606131 
L 162.733308 -140.315367 
L 162.936254 -140.024602 
L 163.145416 -139.733838 
L 163.359489 -139.443073 
L 163.577026 -139.152309 
L 163.796456 -138.861544 
L 164.016105 -138.57078 
L 164.234225 -138.280015 
L 164.449025 -137.989251 
L 164.658699 -137.698486 
L 164.861462 -137.407722 
L 165.05559 -137.116957 
L 165.239445 -136.826193 
L 165.41152 -136.535428 
L 165.570462 -136.244664 
L 165.715106 -135.953899 
L 165.8445 -135.663135 
L 165.957925 -135.37237 
L 166.054912 -135.081606 
L 166.135254 -134.790841 
L 166.199005 -134.500077 
L 166.246487 -134.209312 
L 166.278275 -133.918548 
L 166.295186 -133.627783 
L 166.298262 -133.337019 
L 166.288739 -133.046254 
L 166.268026 -132.75549 
L 166.23766 -132.464725 
L 166.199278 -132.173961 
L 166.154573 -131.883196 
L 166.105252 -131.592432 
L 166.052995 -131.301668 
L 165.999412 -131.010903 
L 165.946004 -130.720139 
L 165.894123 -130.429374 
L 165.844941 -130.13861 
L 165.799417 -129.847845 
L 165.758275 -129.557081 
L 165.721982 -129.266316 
L 165.690742 -128.975552 
L 165.664487 -128.684787 
L 165.642884 -128.394023 
L 165.625342 -128.103258 
L 165.611033 -127.812494 
L 165.598916 -127.521729 
L 165.587769 -127.230965 
L 165.576227 -126.9402 
L 165.562819 -126.649436 
L 165.546018 -126.358671 
L 165.524286 -126.067907 
L 165.496117 -125.777142 
L 165.460087 -125.486378 
L 165.414897 -125.195613 
L 165.359409 -124.904849 
L 165.292685 -124.614084 
L 165.214011 -124.32332 
L 165.122919 -124.032555 
L 165.019203 -123.741791 
L 164.902921 -123.451026 
L 164.774397 -123.160262 
L 164.634205 -122.869497 
L 164.483159 -122.578733 
L 164.322286 -122.287968 
L 164.152795 -121.997204 
L 163.976051 -121.706439 
L 163.793532 -121.415675 
L 163.606796 -121.12491 
L 163.417441 -120.834146 
L 163.227068 -120.543381 
L 163.037245 -120.252617 
L 162.849478 -119.961852 
L 162.665176 -119.671088 
L 162.485633 -119.380323 
L 162.312003 -119.089559 
L 162.145291 -118.798794 
L 161.986337 -118.50803 
L 161.835818 -118.217265 
L 161.694241 -117.926501 
L 161.561954 -117.635737 
L 161.43915 -117.344972 
L 161.325877 -117.054208 
L 161.222054 -116.763443 
L 161.127486 -116.472679 
L 161.041878 -116.181914 
L 160.964851 -115.89115 
L 160.895963 -115.600385 
z
" id="m258eb45750" style="stroke:#3f3f3f;stroke-width:1.5;"/>
    </defs>
    <g clip-path="url(#p21b164e27f)">
     <use style="fill:#e1812c;stroke:#3f3f3f;stroke-width:1.5;" x="0" xlink:href="#m258eb45750" y="375.89624"/>
    </g>
   </g>
   <g id="PolyCollection_3">
    <defs>
     <path d="M 232.076289 -99.562115 
L 231.699961 -99.562115 
L 231.669779 -100.267627 
L 231.635924 -100.973138 
L 231.59816 -101.678649 
L 231.556269 -102.38416 
L 231.51006 -103.089672 
L 231.459374 -103.795183 
L 231.404092 -104.500694 
L 231.344142 -105.206205 
L 231.279505 -105.911716 
L 231.21022 -106.617228 
L 231.136391 -107.322739 
L 231.058189 -108.02825 
L 230.975855 -108.733761 
L 230.889701 -109.439272 
L 230.800113 -110.144784 
L 230.707545 -110.850295 
L 230.612517 -111.555806 
L 230.515609 -112.261317 
L 230.417457 -112.966829 
L 230.318739 -113.67234 
L 230.220169 -114.377851 
L 230.122486 -115.083362 
L 230.026437 -115.788873 
L 229.932769 -116.494385 
L 229.842217 -117.199896 
L 229.755485 -117.905407 
L 229.673238 -118.610918 
L 229.59609 -119.316429 
L 229.524592 -120.021941 
L 229.459222 -120.727452 
L 229.400382 -121.432963 
L 229.348385 -122.138474 
L 229.303457 -122.843986 
L 229.265734 -123.549497 
L 229.23526 -124.255008 
L 229.211992 -124.960519 
L 229.195799 -125.66603 
L 229.186475 -126.371542 
L 229.18374 -127.077053 
L 229.18725 -127.782564 
L 229.196607 -128.488075 
L 229.21137 -129.193586 
L 229.23106 -129.899098 
L 229.255178 -130.604609 
L 229.283211 -131.31012 
L 229.314642 -132.015631 
L 229.348961 -132.721143 
L 229.385678 -133.426654 
L 229.424324 -134.132165 
L 229.464466 -134.837676 
L 229.505707 -135.543187 
L 229.547699 -136.248699 
L 229.590142 -136.95421 
L 229.632787 -137.659721 
L 229.675443 -138.365232 
L 229.717973 -139.070743 
L 229.760295 -139.776255 
L 229.80238 -140.481766 
L 229.844251 -141.187277 
L 229.885972 -141.892788 
L 229.927651 -142.5983 
L 229.969428 -143.303811 
L 230.011467 -144.009322 
L 230.053952 -144.714833 
L 230.097075 -145.420344 
L 230.14103 -146.125856 
L 230.186002 -146.831367 
L 230.232159 -147.536878 
L 230.279644 -148.242389 
L 230.328572 -148.9479 
L 230.379017 -149.653412 
L 230.431014 -150.358923 
L 230.484554 -151.064434 
L 230.539579 -151.769945 
L 230.595985 -152.475457 
L 230.653625 -153.180968 
L 230.712308 -153.886479 
L 230.771806 -154.59199 
L 230.831858 -155.297501 
L 230.892176 -156.003013 
L 230.952455 -156.708524 
L 231.012376 -157.414035 
L 231.071618 -158.119546 
L 231.129862 -158.825058 
L 231.186801 -159.530569 
L 231.242145 -160.23608 
L 231.295627 -160.941591 
L 231.347007 -161.647102 
L 231.396081 -162.352614 
L 231.442677 -163.058125 
L 231.486659 -163.763636 
L 231.527931 -164.469147 
L 231.566433 -165.174658 
L 231.60214 -165.88017 
L 231.635062 -166.585681 
L 231.66524 -167.291192 
L 231.692741 -167.996703 
L 231.717659 -168.702215 
L 231.740106 -169.407726 
L 232.036144 -169.407726 
L 232.036144 -169.407726 
L 232.058591 -168.702215 
L 232.083509 -167.996703 
L 232.11101 -167.291192 
L 232.141188 -166.585681 
L 232.17411 -165.88017 
L 232.209817 -165.174658 
L 232.248319 -164.469147 
L 232.289591 -163.763636 
L 232.333573 -163.058125 
L 232.380169 -162.352614 
L 232.429243 -161.647102 
L 232.480623 -160.941591 
L 232.534105 -160.23608 
L 232.589449 -159.530569 
L 232.646388 -158.825058 
L 232.704632 -158.119546 
L 232.763874 -157.414035 
L 232.823795 -156.708524 
L 232.884074 -156.003013 
L 232.944392 -155.297501 
L 233.004444 -154.59199 
L 233.063942 -153.886479 
L 233.122625 -153.180968 
L 233.180265 -152.475457 
L 233.236671 -151.769945 
L 233.291696 -151.064434 
L 233.345236 -150.358923 
L 233.397233 -149.653412 
L 233.447678 -148.9479 
L 233.496606 -148.242389 
L 233.544091 -147.536878 
L 233.590248 -146.831367 
L 233.63522 -146.125856 
L 233.679175 -145.420344 
L 233.722298 -144.714833 
L 233.764783 -144.009322 
L 233.806822 -143.303811 
L 233.848599 -142.5983 
L 233.890278 -141.892788 
L 233.931999 -141.187277 
L 233.97387 -140.481766 
L 234.015955 -139.776255 
L 234.058277 -139.070743 
L 234.100807 -138.365232 
L 234.143463 -137.659721 
L 234.186108 -136.95421 
L 234.228551 -136.248699 
L 234.270543 -135.543187 
L 234.311784 -134.837676 
L 234.351926 -134.132165 
L 234.390572 -133.426654 
L 234.427289 -132.721143 
L 234.461608 -132.015631 
L 234.493039 -131.31012 
L 234.521072 -130.604609 
L 234.54519 -129.899098 
L 234.56488 -129.193586 
L 234.579643 -128.488075 
L 234.589 -127.782564 
L 234.59251 -127.077053 
L 234.589775 -126.371542 
L 234.580451 -125.66603 
L 234.564258 -124.960519 
L 234.54099 -124.255008 
L 234.510516 -123.549497 
L 234.472793 -122.843986 
L 234.427865 -122.138474 
L 234.375868 -121.432963 
L 234.317028 -120.727452 
L 234.251658 -120.021941 
L 234.18016 -119.316429 
L 234.103012 -118.610918 
L 234.020765 -117.905407 
L 233.934033 -117.199896 
L 233.843481 -116.494385 
L 233.749813 -115.788873 
L 233.653764 -115.083362 
L 233.556081 -114.377851 
L 233.457511 -113.67234 
L 233.358793 -112.966829 
L 233.260641 -112.261317 
L 233.163733 -111.555806 
L 233.068705 -110.850295 
L 232.976137 -110.144784 
L 232.886549 -109.439272 
L 232.800395 -108.733761 
L 232.718061 -108.02825 
L 232.639859 -107.322739 
L 232.56603 -106.617228 
L 232.496745 -105.911716 
L 232.432108 -105.206205 
L 232.372158 -104.500694 
L 232.316876 -103.795183 
L 232.26619 -103.089672 
L 232.219981 -102.38416 
L 232.17809 -101.678649 
L 232.140326 -100.973138 
L 232.106471 -100.267627 
L 232.076289 -99.562115 
z
" id="mab270a7cd6" style="stroke:#3f3f3f;stroke-width:1.5;"/>
    </defs>
    <g clip-path="url(#p21b164e27f)">
     <use style="fill:#c03d3e;stroke:#3f3f3f;stroke-width:1.5;" x="0" xlink:href="#mab270a7cd6" y="375.89624"/>
    </g>
   </g>
   <g id="PolyCollection_4">
    <defs>
     <path d="M 303.772333 -117.861313 
L 302.851917 -117.861313 
L 302.772427 -118.066073 
L 302.682914 -118.270832 
L 302.582804 -118.475592 
L 302.471604 -118.680352 
L 302.348918 -118.885112 
L 302.214456 -119.089871 
L 302.068049 -119.294631 
L 301.909653 -119.499391 
L 301.739349 -119.704151 
L 301.55734 -119.90891 
L 301.36394 -120.11367 
L 301.159559 -120.31843 
L 300.944679 -120.523189 
L 300.719833 -120.727949 
L 300.485576 -120.932709 
L 300.242452 -121.137469 
L 299.990972 -121.342228 
L 299.731583 -121.546988 
L 299.464651 -121.751748 
L 299.190448 -121.956507 
L 298.909152 -122.161267 
L 298.620851 -122.366027 
L 298.325567 -122.570787 
L 298.023288 -122.775546 
L 297.714012 -122.980306 
L 297.397807 -123.185066 
L 297.074869 -123.389825 
L 296.745593 -123.594585 
L 296.410642 -123.799345 
L 296.071011 -124.004105 
L 295.72809 -124.208864 
L 295.383703 -124.413624 
L 295.040137 -124.618384 
L 294.700151 -124.823144 
L 294.366956 -125.027903 
L 294.044174 -125.232663 
L 293.735769 -125.437423 
L 293.445953 -125.642182 
L 293.179071 -125.846942 
L 292.93947 -126.051702 
L 292.731353 -126.256462 
L 292.558625 -126.461221 
L 292.424746 -126.665981 
L 292.332588 -126.870741 
L 292.284309 -127.0755 
L 292.281251 -127.28026 
L 292.32386 -127.48502 
L 292.411647 -127.68978 
L 292.543179 -127.894539 
L 292.716111 -128.099299 
L 292.927246 -128.304059 
L 293.172635 -128.508818 
L 293.447707 -128.713578 
L 293.747417 -128.918338 
L 294.066414 -129.123098 
L 294.399217 -129.327857 
L 294.740396 -129.532617 
L 295.084738 -129.737377 
L 295.427406 -129.942137 
L 295.764078 -130.146896 
L 296.091055 -130.351656 
L 296.405344 -130.556416 
L 296.704706 -130.761175 
L 296.987673 -130.965935 
L 297.253534 -131.170695 
L 297.502291 -131.375455 
L 297.734585 -131.580214 
L 297.951606 -131.784974 
L 298.154989 -131.989734 
L 298.34669 -132.194493 
L 298.528869 -132.399253 
L 298.703767 -132.604013 
L 298.873595 -132.808773 
L 299.040429 -133.013532 
L 299.206124 -133.218292 
L 299.372247 -133.423052 
L 299.540023 -133.627811 
L 299.710308 -133.832571 
L 299.883578 -134.037331 
L 300.059934 -134.242091 
L 300.239132 -134.44685 
L 300.420612 -134.65161 
L 300.603556 -134.85637 
L 300.786933 -135.06113 
L 300.969567 -135.265889 
L 301.150191 -135.470649 
L 301.327509 -135.675409 
L 301.50025 -135.880168 
L 301.667212 -136.084928 
L 301.827307 -136.289688 
L 301.979591 -136.494448 
L 302.123282 -136.699207 
L 302.257783 -136.903967 
L 302.382677 -137.108727 
L 302.497733 -137.313486 
L 302.602892 -137.518246 
L 302.698255 -137.723006 
L 302.784065 -137.927766 
L 302.860688 -138.132525 
L 303.763562 -138.132525 
L 303.763562 -138.132525 
L 303.840185 -137.927766 
L 303.925995 -137.723006 
L 304.021358 -137.518246 
L 304.126517 -137.313486 
L 304.241573 -137.108727 
L 304.366467 -136.903967 
L 304.500968 -136.699207 
L 304.644659 -136.494448 
L 304.796943 -136.289688 
L 304.957038 -136.084928 
L 305.124 -135.880168 
L 305.296741 -135.675409 
L 305.474059 -135.470649 
L 305.654683 -135.265889 
L 305.837317 -135.06113 
L 306.020694 -134.85637 
L 306.203638 -134.65161 
L 306.385118 -134.44685 
L 306.564316 -134.242091 
L 306.740672 -134.037331 
L 306.913942 -133.832571 
L 307.084227 -133.627811 
L 307.252003 -133.423052 
L 307.418126 -133.218292 
L 307.583821 -133.013532 
L 307.750655 -132.808773 
L 307.920483 -132.604013 
L 308.095381 -132.399253 
L 308.27756 -132.194493 
L 308.469261 -131.989734 
L 308.672644 -131.784974 
L 308.889665 -131.580214 
L 309.121959 -131.375455 
L 309.370716 -131.170695 
L 309.636577 -130.965935 
L 309.919544 -130.761175 
L 310.218906 -130.556416 
L 310.533195 -130.351656 
L 310.860172 -130.146896 
L 311.196844 -129.942137 
L 311.539512 -129.737377 
L 311.883854 -129.532617 
L 312.225033 -129.327857 
L 312.557836 -129.123098 
L 312.876833 -128.918338 
L 313.176543 -128.713578 
L 313.451615 -128.508818 
L 313.697004 -128.304059 
L 313.908139 -128.099299 
L 314.081071 -127.894539 
L 314.212603 -127.68978 
L 314.30039 -127.48502 
L 314.342999 -127.28026 
L 314.339941 -127.0755 
L 314.291662 -126.870741 
L 314.199504 -126.665981 
L 314.065625 -126.461221 
L 313.892897 -126.256462 
L 313.68478 -126.051702 
L 313.445179 -125.846942 
L 313.178297 -125.642182 
L 312.888481 -125.437423 
L 312.580076 -125.232663 
L 312.257294 -125.027903 
L 311.924099 -124.823144 
L 311.584113 -124.618384 
L 311.240547 -124.413624 
L 310.89616 -124.208864 
L 310.553239 -124.004105 
L 310.213608 -123.799345 
L 309.878657 -123.594585 
L 309.549381 -123.389825 
L 309.226443 -123.185066 
L 308.910238 -122.980306 
L 308.600962 -122.775546 
L 308.298683 -122.570787 
L 308.003399 -122.366027 
L 307.715098 -122.161267 
L 307.433802 -121.956507 
L 307.159599 -121.751748 
L 306.892667 -121.546988 
L 306.633278 -121.342228 
L 306.381798 -121.137469 
L 306.138674 -120.932709 
L 305.904417 -120.727949 
L 305.679571 -120.523189 
L 305.464691 -120.31843 
L 305.26031 -120.11367 
L 305.06691 -119.90891 
L 304.884901 -119.704151 
L 304.714597 -119.499391 
L 304.556201 -119.294631 
L 304.409794 -119.089871 
L 304.275332 -118.885112 
L 304.152646 -118.680352 
L 304.041446 -118.475592 
L 303.941336 -118.270832 
L 303.851823 -118.066073 
L 303.772333 -117.861313 
z
" id="mcd5d65eb70" style="stroke:#3f3f3f;stroke-width:1.5;"/>
    </defs>
    <g clip-path="url(#p21b164e27f)">
     <use style="fill:#3274a1;stroke:#3f3f3f;stroke-width:1.5;" x="0" xlink:href="#mcd5d65eb70" y="375.89624"/>
    </g>
   </g>
   <g id="PolyCollection_5">
    <defs>
     <path d="M 377.45313 -121.105162 
L 372.01912 -121.105162 
L 371.694065 -121.166251 
L 371.340776 -121.22734 
L 370.958278 -121.288429 
L 370.54576 -121.349518 
L 370.102601 -121.410607 
L 369.628392 -121.471696 
L 369.122963 -121.532785 
L 368.586401 -121.593875 
L 368.01907 -121.654964 
L 367.421628 -121.716053 
L 366.795038 -121.777142 
L 366.140571 -121.838231 
L 365.459815 -121.89932 
L 364.754668 -121.960409 
L 364.02733 -122.021498 
L 363.280287 -122.082587 
L 362.516296 -122.143676 
L 361.738354 -122.204766 
L 360.949669 -122.265855 
L 360.153625 -122.326944 
L 359.353742 -122.388033 
L 358.553629 -122.449122 
L 357.756942 -122.510211 
L 356.967334 -122.5713 
L 356.188407 -122.632389 
L 355.423663 -122.693478 
L 354.676461 -122.754567 
L 353.94997 -122.815657 
L 353.247133 -122.876746 
L 352.570631 -122.937835 
L 351.922858 -122.998924 
L 351.305897 -123.060013 
L 350.721507 -123.121102 
L 350.171121 -123.182191 
L 349.65584 -123.24328 
L 349.176453 -123.304369 
L 348.733447 -123.365458 
L 348.327033 -123.426548 
L 347.957179 -123.487637 
L 347.623644 -123.548726 
L 347.326018 -123.609815 
L 347.063765 -123.670904 
L 346.836264 -123.731993 
L 346.642859 -123.793082 
L 346.482895 -123.854171 
L 346.355759 -123.91526 
L 346.260916 -123.976349 
L 346.197937 -124.037439 
L 346.166525 -124.098528 
L 346.166525 -124.159617 
L 346.197937 -124.220706 
L 346.260916 -124.281795 
L 346.355759 -124.342884 
L 346.482895 -124.403973 
L 346.642859 -124.465062 
L 346.836264 -124.526151 
L 347.063765 -124.58724 
L 347.326018 -124.64833 
L 347.623644 -124.709419 
L 347.957179 -124.770508 
L 348.327033 -124.831597 
L 348.733447 -124.892686 
L 349.176453 -124.953775 
L 349.65584 -125.014864 
L 350.171121 -125.075953 
L 350.721507 -125.137042 
L 351.305897 -125.198131 
L 351.922858 -125.259221 
L 352.570631 -125.32031 
L 353.247133 -125.381399 
L 353.94997 -125.442488 
L 354.676461 -125.503577 
L 355.423663 -125.564666 
L 356.188407 -125.625755 
L 356.967334 -125.686844 
L 357.756942 -125.747933 
L 358.553629 -125.809022 
L 359.353742 -125.870112 
L 360.153625 -125.931201 
L 360.949669 -125.99229 
L 361.738354 -126.053379 
L 362.516296 -126.114468 
L 363.280287 -126.175557 
L 364.02733 -126.236646 
L 364.754668 -126.297735 
L 365.459815 -126.358824 
L 366.140571 -126.419913 
L 366.795038 -126.481003 
L 367.421628 -126.542092 
L 368.01907 -126.603181 
L 368.586401 -126.66427 
L 369.122963 -126.725359 
L 369.628392 -126.786448 
L 370.102601 -126.847537 
L 370.54576 -126.908626 
L 370.958278 -126.969715 
L 371.340776 -127.030804 
L 371.694065 -127.091894 
L 372.01912 -127.152983 
L 377.45313 -127.152983 
L 377.45313 -127.152983 
L 377.778185 -127.091894 
L 378.131474 -127.030804 
L 378.513972 -126.969715 
L 378.92649 -126.908626 
L 379.369649 -126.847537 
L 379.843858 -126.786448 
L 380.349287 -126.725359 
L 380.885849 -126.66427 
L 381.45318 -126.603181 
L 382.050622 -126.542092 
L 382.677212 -126.481003 
L 383.331679 -126.419913 
L 384.012435 -126.358824 
L 384.717582 -126.297735 
L 385.44492 -126.236646 
L 386.191963 -126.175557 
L 386.955954 -126.114468 
L 387.733896 -126.053379 
L 388.522581 -125.99229 
L 389.318625 -125.931201 
L 390.118508 -125.870112 
L 390.918621 -125.809022 
L 391.715308 -125.747933 
L 392.504916 -125.686844 
L 393.283843 -125.625755 
L 394.048587 -125.564666 
L 394.795789 -125.503577 
L 395.52228 -125.442488 
L 396.225117 -125.381399 
L 396.901619 -125.32031 
L 397.549392 -125.259221 
L 398.166353 -125.198131 
L 398.750743 -125.137042 
L 399.301129 -125.075953 
L 399.81641 -125.014864 
L 400.295797 -124.953775 
L 400.738803 -124.892686 
L 401.145217 -124.831597 
L 401.515071 -124.770508 
L 401.848606 -124.709419 
L 402.146232 -124.64833 
L 402.408485 -124.58724 
L 402.635986 -124.526151 
L 402.829391 -124.465062 
L 402.989355 -124.403973 
L 403.116491 -124.342884 
L 403.211334 -124.281795 
L 403.274313 -124.220706 
L 403.305725 -124.159617 
L 403.305725 -124.098528 
L 403.274313 -124.037439 
L 403.211334 -123.976349 
L 403.116491 -123.91526 
L 402.989355 -123.854171 
L 402.829391 -123.793082 
L 402.635986 -123.731993 
L 402.408485 -123.670904 
L 402.146232 -123.609815 
L 401.848606 -123.548726 
L 401.515071 -123.487637 
L 401.145217 -123.426548 
L 400.738803 -123.365458 
L 400.295797 -123.304369 
L 399.81641 -123.24328 
L 399.301129 -123.182191 
L 398.750743 -123.121102 
L 398.166353 -123.060013 
L 397.549392 -122.998924 
L 396.901619 -122.937835 
L 396.225117 -122.876746 
L 395.52228 -122.815657 
L 394.795789 -122.754567 
L 394.048587 -122.693478 
L 393.283843 -122.632389 
L 392.504916 -122.5713 
L 391.715308 -122.510211 
L 390.918621 -122.449122 
L 390.118508 -122.388033 
L 389.318625 -122.326944 
L 388.522581 -122.265855 
L 387.733896 -122.204766 
L 386.955954 -122.143676 
L 386.191963 -122.082587 
L 385.44492 -122.021498 
L 384.717582 -121.960409 
L 384.012435 -121.89932 
L 383.331679 -121.838231 
L 382.677212 -121.777142 
L 382.050622 -121.716053 
L 381.45318 -121.654964 
L 380.885849 -121.593875 
L 380.349287 -121.532785 
L 379.843858 -121.471696 
L 379.369649 -121.410607 
L 378.92649 -121.349518 
L 378.513972 -121.288429 
L 378.131474 -121.22734 
L 377.778185 -121.166251 
L 377.45313 -121.105162 
z
" id="m6cd1b62595" style="stroke:#3f3f3f;stroke-width:1.5;"/>
    </defs>
    <g clip-path="url(#p21b164e27f)">
     <use style="fill:#c7c7c7;stroke:#3f3f3f;stroke-width:1.5;" x="0" xlink:href="#m6cd1b62595" y="375.89624"/>
    </g>
   </g>
   <g id="matplotlib.axis_1">
    <g id="xtick_1">
     <g id="line2d_1">
      <defs>
       <path d="M 0 0 
L 0 3.5 
" id="m50a3543ee8" style="stroke:#000000;stroke-width:0.8;"/>
      </defs>
      <g>
       <use style="stroke:#000000;stroke-width:0.8;" x="89.040125" xlink:href="#m50a3543ee8" y="288.430125"/>
      </g>
     </g>
     <g id="text_1">
      <!-- aflplusplus -->
      <g transform="translate(41.431118 328.897284)rotate(-30)scale(0.1 -0.1)">
       <defs>
        <path d="M 34.28125 27.484375 
Q 23.390625 27.484375 19.1875 25 
Q 14.984375 22.515625 14.984375 16.5 
Q 14.984375 11.71875 18.140625 8.90625 
Q 21.296875 6.109375 26.703125 6.109375 
Q 34.1875 6.109375 38.703125 11.40625 
Q 43.21875 16.703125 43.21875 25.484375 
L 43.21875 27.484375 
z
M 52.203125 31.203125 
L 52.203125 0 
L 43.21875 0 
L 43.21875 8.296875 
Q 40.140625 3.328125 35.546875 0.953125 
Q 30.953125 -1.421875 24.3125 -1.421875 
Q 15.921875 -1.421875 10.953125 3.296875 
Q 6 8.015625 6 15.921875 
Q 6 25.140625 12.171875 29.828125 
Q 18.359375 34.515625 30.609375 34.515625 
L 43.21875 34.515625 
L 43.21875 35.40625 
Q 43.21875 41.609375 39.140625 45 
Q 35.0625 48.390625 27.6875 48.390625 
Q 23 48.390625 18.546875 47.265625 
Q 14.109375 46.140625 10.015625 43.890625 
L 10.015625 52.203125 
Q 14.9375 54.109375 19.578125 55.046875 
Q 24.21875 56 28.609375 56 
Q 40.484375 56 46.34375 49.84375 
Q 52.203125 43.703125 52.203125 31.203125 
z
" id="DejaVuSans-97"/>
        <path d="M 37.109375 75.984375 
L 37.109375 68.5 
L 28.515625 68.5 
Q 23.6875 68.5 21.796875 66.546875 
Q 19.921875 64.59375 19.921875 59.515625 
L 19.921875 54.6875 
L 34.71875 54.6875 
L 34.71875 47.703125 
L 19.921875 47.703125 
L 19.921875 0 
L 10.890625 0 
L 10.890625 47.703125 
L 2.296875 47.703125 
L 2.296875 54.6875 
L 10.890625 54.6875 
L 10.890625 58.5 
Q 10.890625 67.625 15.140625 71.796875 
Q 19.390625 75.984375 28.609375 75.984375 
z
" id="DejaVuSans-102"/>
        <path d="M 9.421875 75.984375 
L 18.40625 75.984375 
L 18.40625 0 
L 9.421875 0 
z
" id="DejaVuSans-108"/>
        <path d="M 18.109375 8.203125 
L 18.109375 -20.796875 
L 9.078125 -20.796875 
L 9.078125 54.6875 
L 18.109375 54.6875 
L 18.109375 46.390625 
Q 20.953125 51.265625 25.265625 53.625 
Q 29.59375 56 35.59375 56 
Q 45.5625 56 51.78125 48.09375 
Q 58.015625 40.1875 58.015625 27.296875 
Q 58.015625 14.40625 51.78125 6.484375 
Q 45.5625 -1.421875 35.59375 -1.421875 
Q 29.59375 -1.421875 25.265625 0.953125 
Q 20.953125 3.328125 18.109375 8.203125 
z
M 48.6875 27.296875 
Q 48.6875 37.203125 44.609375 42.84375 
Q 40.53125 48.484375 33.40625 48.484375 
Q 26.265625 48.484375 22.1875 42.84375 
Q 18.109375 37.203125 18.109375 27.296875 
Q 18.109375 17.390625 22.1875 11.75 
Q 26.265625 6.109375 33.40625 6.109375 
Q 40.53125 6.109375 44.609375 11.75 
Q 48.6875 17.390625 48.6875 27.296875 
z
" id="DejaVuSans-112"/>
        <path d="M 8.5 21.578125 
L 8.5 54.6875 
L 17.484375 54.6875 
L 17.484375 21.921875 
Q 17.484375 14.15625 20.5 10.265625 
Q 23.53125 6.390625 29.59375 6.390625 
Q 36.859375 6.390625 41.078125 11.03125 
Q 45.3125 15.671875 45.3125 23.6875 
L 45.3125 54.6875 
L 54.296875 54.6875 
L 54.296875 0 
L 45.3125 0 
L 45.3125 8.40625 
Q 42.046875 3.421875 37.71875 1 
Q 33.40625 -1.421875 27.6875 -1.421875 
Q 18.265625 -1.421875 13.375 4.4375 
Q 8.5 10.296875 8.5 21.578125 
z
M 31.109375 56 
z
" id="DejaVuSans-117"/>
        <path d="M 44.28125 53.078125 
L 44.28125 44.578125 
Q 40.484375 46.53125 36.375 47.5 
Q 32.28125 48.484375 27.875 48.484375 
Q 21.1875 48.484375 17.84375 46.4375 
Q 14.5 44.390625 14.5 40.28125 
Q 14.5 37.15625 16.890625 35.375 
Q 19.28125 33.59375 26.515625 31.984375 
L 29.59375 31.296875 
Q 39.15625 29.25 43.1875 25.515625 
Q 47.21875 21.78125 47.21875 15.09375 
Q 47.21875 7.46875 41.1875 3.015625 
Q 35.15625 -1.421875 24.609375 -1.421875 
Q 20.21875 -1.421875 15.453125 -0.5625 
Q 10.6875 0.296875 5.421875 2 
L 5.421875 11.28125 
Q 10.40625 8.6875 15.234375 7.390625 
Q 20.0625 6.109375 24.8125 6.109375 
Q 31.15625 6.109375 34.5625 8.28125 
Q 37.984375 10.453125 37.984375 14.40625 
Q 37.984375 18.0625 35.515625 20.015625 
Q 33.0625 21.96875 24.703125 23.78125 
L 21.578125 24.515625 
Q 13.234375 26.265625 9.515625 29.90625 
Q 5.8125 33.546875 5.8125 39.890625 
Q 5.8125 47.609375 11.28125 51.796875 
Q 16.75 56 26.8125 56 
Q 31.78125 56 36.171875 55.265625 
Q 40.578125 54.546875 44.28125 53.078125 
z
" id="DejaVuSans-115"/>
       </defs>
       <use xlink:href="#DejaVuSans-97"/>
       <use x="61.279297" xlink:href="#DejaVuSans-102"/>
       <use x="96.484375" xlink:href="#DejaVuSans-108"/>
       <use x="124.267578" xlink:href="#DejaVuSans-112"/>
       <use x="187.744141" xlink:href="#DejaVuSans-108"/>
       <use x="215.527344" xlink:href="#DejaVuSans-117"/>
       <use x="278.90625" xlink:href="#DejaVuSans-115"/>
       <use x="331.005859" xlink:href="#DejaVuSans-112"/>
       <use x="394.482422" xlink:href="#DejaVuSans-108"/>
       <use x="422.265625" xlink:href="#DejaVuSans-117"/>
       <use x="485.644531" xlink:href="#DejaVuSans-115"/>
      </g>
     </g>
    </g>
    <g id="xtick_2">
     <g id="line2d_2">
      <g>
       <use style="stroke:#000000;stroke-width:0.8;" x="160.464125" xlink:href="#m50a3543ee8" y="288.430125"/>
      </g>
     </g>
     <g id="text_2">
      <!-- aflplusplus_hier_fast -->
      <g transform="translate(71.010167 352.97619)rotate(-30)scale(0.1 -0.1)">
       <defs>
        <path d="M 50.984375 -16.609375 
L 50.984375 -23.578125 
L -0.984375 -23.578125 
L -0.984375 -16.609375 
z
" id="DejaVuSans-95"/>
        <path d="M 54.890625 33.015625 
L 54.890625 0 
L 45.90625 0 
L 45.90625 32.71875 
Q 45.90625 40.484375 42.875 44.328125 
Q 39.84375 48.1875 33.796875 48.1875 
Q 26.515625 48.1875 22.3125 43.546875 
Q 18.109375 38.921875 18.109375 30.90625 
L 18.109375 0 
L 9.078125 0 
L 9.078125 75.984375 
L 18.109375 75.984375 
L 18.109375 46.1875 
Q 21.34375 51.125 25.703125 53.5625 
Q 30.078125 56 35.796875 56 
Q 45.21875 56 50.046875 50.171875 
Q 54.890625 44.34375 54.890625 33.015625 
z
" id="DejaVuSans-104"/>
        <path d="M 9.421875 54.6875 
L 18.40625 54.6875 
L 18.40625 0 
L 9.421875 0 
z
M 9.421875 75.984375 
L 18.40625 75.984375 
L 18.40625 64.59375 
L 9.421875 64.59375 
z
" id="DejaVuSans-105"/>
        <path d="M 56.203125 29.59375 
L 56.203125 25.203125 
L 14.890625 25.203125 
Q 15.484375 15.921875 20.484375 11.0625 
Q 25.484375 6.203125 34.421875 6.203125 
Q 39.59375 6.203125 44.453125 7.46875 
Q 49.3125 8.734375 54.109375 11.28125 
L 54.109375 2.78125 
Q 49.265625 0.734375 44.1875 -0.34375 
Q 39.109375 -1.421875 33.890625 -1.421875 
Q 20.796875 -1.421875 13.15625 6.1875 
Q 5.515625 13.8125 5.515625 26.8125 
Q 5.515625 40.234375 12.765625 48.109375 
Q 20.015625 56 32.328125 56 
Q 43.359375 56 49.78125 48.890625 
Q 56.203125 41.796875 56.203125 29.59375 
z
M 47.21875 32.234375 
Q 47.125 39.59375 43.09375 43.984375 
Q 39.0625 48.390625 32.421875 48.390625 
Q 24.90625 48.390625 20.390625 44.140625 
Q 15.875 39.890625 15.1875 32.171875 
z
" id="DejaVuSans-101"/>
        <path d="M 41.109375 46.296875 
Q 39.59375 47.171875 37.8125 47.578125 
Q 36.03125 48 33.890625 48 
Q 26.265625 48 22.1875 43.046875 
Q 18.109375 38.09375 18.109375 28.8125 
L 18.109375 0 
L 9.078125 0 
L 9.078125 54.6875 
L 18.109375 54.6875 
L 18.109375 46.1875 
Q 20.953125 51.171875 25.484375 53.578125 
Q 30.03125 56 36.53125 56 
Q 37.453125 56 38.578125 55.875 
Q 39.703125 55.765625 41.0625 55.515625 
z
" id="DejaVuSans-114"/>
        <path d="M 18.3125 70.21875 
L 18.3125 54.6875 
L 36.8125 54.6875 
L 36.8125 47.703125 
L 18.3125 47.703125 
L 18.3125 18.015625 
Q 18.3125 11.328125 20.140625 9.421875 
Q 21.96875 7.515625 27.59375 7.515625 
L 36.8125 7.515625 
L 36.8125 0 
L 27.59375 0 
Q 17.1875 0 13.234375 3.875 
Q 9.28125 7.765625 9.28125 18.015625 
L 9.28125 47.703125 
L 2.6875 47.703125 
L 2.6875 54.6875 
L 9.28125 54.6875 
L 9.28125 70.21875 
z
" id="DejaVuSans-116"/>
       </defs>
       <use xlink:href="#DejaVuSans-97"/>
       <use x="61.279297" xlink:href="#DejaVuSans-102"/>
       <use x="96.484375" xlink:href="#DejaVuSans-108"/>
       <use x="124.267578" xlink:href="#DejaVuSans-112"/>
       <use x="187.744141" xlink:href="#DejaVuSans-108"/>
       <use x="215.527344" xlink:href="#DejaVuSans-117"/>
       <use x="278.90625" xlink:href="#DejaVuSans-115"/>
       <use x="331.005859" xlink:href="#DejaVuSans-112"/>
       <use x="394.482422" xlink:href="#DejaVuSans-108"/>
       <use x="422.265625" xlink:href="#DejaVuSans-117"/>
       <use x="485.644531" xlink:href="#DejaVuSans-115"/>
       <use x="537.744141" xlink:href="#DejaVuSans-95"/>
       <use x="587.744141" xlink:href="#DejaVuSans-104"/>
       <use x="651.123047" xlink:href="#DejaVuSans-105"/>
       <use x="678.90625" xlink:href="#DejaVuSans-101"/>
       <use x="740.429688" xlink:href="#DejaVuSans-114"/>
       <use x="781.542969" xlink:href="#DejaVuSans-95"/>
       <use x="831.542969" xlink:href="#DejaVuSans-102"/>
       <use x="866.748047" xlink:href="#DejaVuSans-97"/>
       <use x="928.027344" xlink:href="#DejaVuSans-115"/>
       <use x="980.126953" xlink:href="#DejaVuSans-116"/>
      </g>
     </g>
    </g>
    <g id="xtick_3">
     <g id="line2d_3">
      <g>
       <use style="stroke:#000000;stroke-width:0.8;" x="231.888125" xlink:href="#m50a3543ee8" y="288.430125"/>
      </g>
     </g>
     <g id="text_3">
      <!-- aflplusplus_hier -->
      <g transform="translate(163.026627 341.087127)rotate(-30)scale(0.1 -0.1)">
       <use xlink:href="#DejaVuSans-97"/>
       <use x="61.279297" xlink:href="#DejaVuSans-102"/>
       <use x="96.484375" xlink:href="#DejaVuSans-108"/>
       <use x="124.267578" xlink:href="#DejaVuSans-112"/>
       <use x="187.744141" xlink:href="#DejaVuSans-108"/>
       <use x="215.527344" xlink:href="#DejaVuSans-117"/>
       <use x="278.90625" xlink:href="#DejaVuSans-115"/>
       <use x="331.005859" xlink:href="#DejaVuSans-112"/>
       <use x="394.482422" xlink:href="#DejaVuSans-108"/>
       <use x="422.265625" xlink:href="#DejaVuSans-117"/>
       <use x="485.644531" xlink:href="#DejaVuSans-115"/>
       <use x="537.744141" xlink:href="#DejaVuSans-95"/>
       <use x="587.744141" xlink:href="#DejaVuSans-104"/>
       <use x="651.123047" xlink:href="#DejaVuSans-105"/>
       <use x="678.90625" xlink:href="#DejaVuSans-101"/>
       <use x="740.429688" xlink:href="#DejaVuSans-114"/>
      </g>
     </g>
    </g>
    <g id="xtick_4">
     <g id="line2d_4">
      <g>
       <use style="stroke:#000000;stroke-width:0.8;" x="303.312125" xlink:href="#m50a3543ee8" y="288.430125"/>
      </g>
     </g>
     <g id="text_4">
      <!-- afl_qemu -->
      <g transform="translate(262.290638 325.01369)rotate(-30)scale(0.1 -0.1)">
       <defs>
        <path d="M 14.796875 27.296875 
Q 14.796875 17.390625 18.875 11.75 
Q 22.953125 6.109375 30.078125 6.109375 
Q 37.203125 6.109375 41.296875 11.75 
Q 45.40625 17.390625 45.40625 27.296875 
Q 45.40625 37.203125 41.296875 42.84375 
Q 37.203125 48.484375 30.078125 48.484375 
Q 22.953125 48.484375 18.875 42.84375 
Q 14.796875 37.203125 14.796875 27.296875 
z
M 45.40625 8.203125 
Q 42.578125 3.328125 38.25 0.953125 
Q 33.9375 -1.421875 27.875 -1.421875 
Q 17.96875 -1.421875 11.734375 6.484375 
Q 5.515625 14.40625 5.515625 27.296875 
Q 5.515625 40.1875 11.734375 48.09375 
Q 17.96875 56 27.875 56 
Q 33.9375 56 38.25 53.625 
Q 42.578125 51.265625 45.40625 46.390625 
L 45.40625 54.6875 
L 54.390625 54.6875 
L 54.390625 -20.796875 
L 45.40625 -20.796875 
z
" id="DejaVuSans-113"/>
        <path d="M 52 44.1875 
Q 55.375 50.25 60.0625 53.125 
Q 64.75 56 71.09375 56 
Q 79.640625 56 84.28125 50.015625 
Q 88.921875 44.046875 88.921875 33.015625 
L 88.921875 0 
L 79.890625 0 
L 79.890625 32.71875 
Q 79.890625 40.578125 77.09375 44.375 
Q 74.3125 48.1875 68.609375 48.1875 
Q 61.625 48.1875 57.5625 43.546875 
Q 53.515625 38.921875 53.515625 30.90625 
L 53.515625 0 
L 44.484375 0 
L 44.484375 32.71875 
Q 44.484375 40.625 41.703125 44.40625 
Q 38.921875 48.1875 33.109375 48.1875 
Q 26.21875 48.1875 22.15625 43.53125 
Q 18.109375 38.875 18.109375 30.90625 
L 18.109375 0 
L 9.078125 0 
L 9.078125 54.6875 
L 18.109375 54.6875 
L 18.109375 46.1875 
Q 21.1875 51.21875 25.484375 53.609375 
Q 29.78125 56 35.6875 56 
Q 41.65625 56 45.828125 52.96875 
Q 50 49.953125 52 44.1875 
z
" id="DejaVuSans-109"/>
       </defs>
       <use xlink:href="#DejaVuSans-97"/>
       <use x="61.279297" xlink:href="#DejaVuSans-102"/>
       <use x="96.484375" xlink:href="#DejaVuSans-108"/>
       <use x="124.267578" xlink:href="#DejaVuSans-95"/>
       <use x="174.267578" xlink:href="#DejaVuSans-113"/>
       <use x="237.744141" xlink:href="#DejaVuSans-101"/>
       <use x="299.267578" xlink:href="#DejaVuSans-109"/>
       <use x="396.679688" xlink:href="#DejaVuSans-117"/>
      </g>
     </g>
    </g>
    <g id="xtick_5">
     <g id="line2d_5">
      <g>
       <use style="stroke:#000000;stroke-width:0.8;" x="374.736125" xlink:href="#m50a3543ee8" y="288.430125"/>
      </g>
     </g>
     <g id="text_5">
      <!-- aflplusplus_hier_coe -->
      <g transform="translate(286.154958 352.472284)rotate(-30)scale(0.1 -0.1)">
       <defs>
        <path d="M 48.78125 52.59375 
L 48.78125 44.1875 
Q 44.96875 46.296875 41.140625 47.34375 
Q 37.3125 48.390625 33.40625 48.390625 
Q 24.65625 48.390625 19.8125 42.84375 
Q 14.984375 37.3125 14.984375 27.296875 
Q 14.984375 17.28125 19.8125 11.734375 
Q 24.65625 6.203125 33.40625 6.203125 
Q 37.3125 6.203125 41.140625 7.25 
Q 44.96875 8.296875 48.78125 10.40625 
L 48.78125 2.09375 
Q 45.015625 0.34375 40.984375 -0.53125 
Q 36.96875 -1.421875 32.421875 -1.421875 
Q 20.0625 -1.421875 12.78125 6.34375 
Q 5.515625 14.109375 5.515625 27.296875 
Q 5.515625 40.671875 12.859375 48.328125 
Q 20.21875 56 33.015625 56 
Q 37.15625 56 41.109375 55.140625 
Q 45.0625 54.296875 48.78125 52.59375 
z
" id="DejaVuSans-99"/>
        <path d="M 30.609375 48.390625 
Q 23.390625 48.390625 19.1875 42.75 
Q 14.984375 37.109375 14.984375 27.296875 
Q 14.984375 17.484375 19.15625 11.84375 
Q 23.34375 6.203125 30.609375 6.203125 
Q 37.796875 6.203125 41.984375 11.859375 
Q 46.1875 17.53125 46.1875 27.296875 
Q 46.1875 37.015625 41.984375 42.703125 
Q 37.796875 48.390625 30.609375 48.390625 
z
M 30.609375 56 
Q 42.328125 56 49.015625 48.375 
Q 55.71875 40.765625 55.71875 27.296875 
Q 55.71875 13.875 49.015625 6.21875 
Q 42.328125 -1.421875 30.609375 -1.421875 
Q 18.84375 -1.421875 12.171875 6.21875 
Q 5.515625 13.875 5.515625 27.296875 
Q 5.515625 40.765625 12.171875 48.375 
Q 18.84375 56 30.609375 56 
z
" id="DejaVuSans-111"/>
       </defs>
       <use xlink:href="#DejaVuSans-97"/>
       <use x="61.279297" xlink:href="#DejaVuSans-102"/>
       <use x="96.484375" xlink:href="#DejaVuSans-108"/>
       <use x="124.267578" xlink:href="#DejaVuSans-112"/>
       <use x="187.744141" xlink:href="#DejaVuSans-108"/>
       <use x="215.527344" xlink:href="#DejaVuSans-117"/>
       <use x="278.90625" xlink:href="#DejaVuSans-115"/>
       <use x="331.005859" xlink:href="#DejaVuSans-112"/>
       <use x="394.482422" xlink:href="#DejaVuSans-108"/>
       <use x="422.265625" xlink:href="#DejaVuSans-117"/>
       <use x="485.644531" xlink:href="#DejaVuSans-115"/>
       <use x="537.744141" xlink:href="#DejaVuSans-95"/>
       <use x="587.744141" xlink:href="#DejaVuSans-104"/>
       <use x="651.123047" xlink:href="#DejaVuSans-105"/>
       <use x="678.90625" xlink:href="#DejaVuSans-101"/>
       <use x="740.429688" xlink:href="#DejaVuSans-114"/>
       <use x="781.542969" xlink:href="#DejaVuSans-95"/>
       <use x="831.542969" xlink:href="#DejaVuSans-99"/>
       <use x="886.523438" xlink:href="#DejaVuSans-111"/>
       <use x="947.705078" xlink:href="#DejaVuSans-101"/>
      </g>
     </g>
    </g>
    <g id="text_6">
     <!-- Fuzzer (highest median coverage on the left) -->
     <g transform="translate(119.270156 366.616553)scale(0.1 -0.1)">
      <defs>
       <path d="M 9.8125 72.90625 
L 51.703125 72.90625 
L 51.703125 64.59375 
L 19.671875 64.59375 
L 19.671875 43.109375 
L 48.578125 43.109375 
L 48.578125 34.8125 
L 19.671875 34.8125 
L 19.671875 0 
L 9.8125 0 
z
" id="DejaVuSans-70"/>
       <path d="M 5.515625 54.6875 
L 48.1875 54.6875 
L 48.1875 46.484375 
L 14.40625 7.171875 
L 48.1875 7.171875 
L 48.1875 0 
L 4.296875 0 
L 4.296875 8.203125 
L 38.09375 47.515625 
L 5.515625 47.515625 
z
" id="DejaVuSans-122"/>
       <path id="DejaVuSans-32"/>
       <path d="M 31 75.875 
Q 24.46875 64.65625 21.28125 53.65625 
Q 18.109375 42.671875 18.109375 31.390625 
Q 18.109375 20.125 21.3125 9.0625 
Q 24.515625 -2 31 -13.1875 
L 23.1875 -13.1875 
Q 15.875 -1.703125 12.234375 9.375 
Q 8.59375 20.453125 8.59375 31.390625 
Q 8.59375 42.28125 12.203125 53.3125 
Q 15.828125 64.359375 23.1875 75.875 
z
" id="DejaVuSans-40"/>
       <path d="M 45.40625 27.984375 
Q 45.40625 37.75 41.375 43.109375 
Q 37.359375 48.484375 30.078125 48.484375 
Q 22.859375 48.484375 18.828125 43.109375 
Q 14.796875 37.75 14.796875 27.984375 
Q 14.796875 18.265625 18.828125 12.890625 
Q 22.859375 7.515625 30.078125 7.515625 
Q 37.359375 7.515625 41.375 12.890625 
Q 45.40625 18.265625 45.40625 27.984375 
z
M 54.390625 6.78125 
Q 54.390625 -7.171875 48.1875 -13.984375 
Q 42 -20.796875 29.203125 -20.796875 
Q 24.46875 -20.796875 20.265625 -20.09375 
Q 16.0625 -19.390625 12.109375 -17.921875 
L 12.109375 -9.1875 
Q 16.0625 -11.328125 19.921875 -12.34375 
Q 23.78125 -13.375 27.78125 -13.375 
Q 36.625 -13.375 41.015625 -8.765625 
Q 45.40625 -4.15625 45.40625 5.171875 
L 45.40625 9.625 
Q 42.625 4.78125 38.28125 2.390625 
Q 33.9375 0 27.875 0 
Q 17.828125 0 11.671875 7.65625 
Q 5.515625 15.328125 5.515625 27.984375 
Q 5.515625 40.671875 11.671875 48.328125 
Q 17.828125 56 27.875 56 
Q 33.9375 56 38.28125 53.609375 
Q 42.625 51.21875 45.40625 46.390625 
L 45.40625 54.6875 
L 54.390625 54.6875 
z
" id="DejaVuSans-103"/>
       <path d="M 45.40625 46.390625 
L 45.40625 75.984375 
L 54.390625 75.984375 
L 54.390625 0 
L 45.40625 0 
L 45.40625 8.203125 
Q 42.578125 3.328125 38.25 0.953125 
Q 33.9375 -1.421875 27.875 -1.421875 
Q 17.96875 -1.421875 11.734375 6.484375 
Q 5.515625 14.40625 5.515625 27.296875 
Q 5.515625 40.1875 11.734375 48.09375 
Q 17.96875 56 27.875 56 
Q 33.9375 56 38.25 53.625 
Q 42.578125 51.265625 45.40625 46.390625 
z
M 14.796875 27.296875 
Q 14.796875 17.390625 18.875 11.75 
Q 22.953125 6.109375 30.078125 6.109375 
Q 37.203125 6.109375 41.296875 11.75 
Q 45.40625 17.390625 45.40625 27.296875 
Q 45.40625 37.203125 41.296875 42.84375 
Q 37.203125 48.484375 30.078125 48.484375 
Q 22.953125 48.484375 18.875 42.84375 
Q 14.796875 37.203125 14.796875 27.296875 
z
" id="DejaVuSans-100"/>
       <path d="M 54.890625 33.015625 
L 54.890625 0 
L 45.90625 0 
L 45.90625 32.71875 
Q 45.90625 40.484375 42.875 44.328125 
Q 39.84375 48.1875 33.796875 48.1875 
Q 26.515625 48.1875 22.3125 43.546875 
Q 18.109375 38.921875 18.109375 30.90625 
L 18.109375 0 
L 9.078125 0 
L 9.078125 54.6875 
L 18.109375 54.6875 
L 18.109375 46.1875 
Q 21.34375 51.125 25.703125 53.5625 
Q 30.078125 56 35.796875 56 
Q 45.21875 56 50.046875 50.171875 
Q 54.890625 44.34375 54.890625 33.015625 
z
" id="DejaVuSans-110"/>
       <path d="M 2.984375 54.6875 
L 12.5 54.6875 
L 29.59375 8.796875 
L 46.6875 54.6875 
L 56.203125 54.6875 
L 35.6875 0 
L 23.484375 0 
z
" id="DejaVuSans-118"/>
       <path d="M 8.015625 75.875 
L 15.828125 75.875 
Q 23.140625 64.359375 26.78125 53.3125 
Q 30.421875 42.28125 30.421875 31.390625 
Q 30.421875 20.453125 26.78125 9.375 
Q 23.140625 -1.703125 15.828125 -13.1875 
L 8.015625 -13.1875 
Q 14.5 -2 17.703125 9.0625 
Q 20.90625 20.125 20.90625 31.390625 
Q 20.90625 42.671875 17.703125 53.65625 
Q 14.5 64.65625 8.015625 75.875 
z
" id="DejaVuSans-41"/>
      </defs>
      <use xlink:href="#DejaVuSans-70"/>
      <use x="52.019531" xlink:href="#DejaVuSans-117"/>
      <use x="115.398438" xlink:href="#DejaVuSans-122"/>
      <use x="167.888672" xlink:href="#DejaVuSans-122"/>
      <use x="220.378906" xlink:href="#DejaVuSans-101"/>
      <use x="281.902344" xlink:href="#DejaVuSans-114"/>
      <use x="323.015625" xlink:href="#DejaVuSans-32"/>
      <use x="354.802734" xlink:href="#DejaVuSans-40"/>
      <use x="393.816406" xlink:href="#DejaVuSans-104"/>
      <use x="457.195312" xlink:href="#DejaVuSans-105"/>
      <use x="484.978516" xlink:href="#DejaVuSans-103"/>
      <use x="548.455078" xlink:href="#DejaVuSans-104"/>
      <use x="611.833984" xlink:href="#DejaVuSans-101"/>
      <use x="673.357422" xlink:href="#DejaVuSans-115"/>
      <use x="725.457031" xlink:href="#DejaVuSans-116"/>
      <use x="764.666016" xlink:href="#DejaVuSans-32"/>
      <use x="796.453125" xlink:href="#DejaVuSans-109"/>
      <use x="893.865234" xlink:href="#DejaVuSans-101"/>
      <use x="955.388672" xlink:href="#DejaVuSans-100"/>
      <use x="1018.865234" xlink:href="#DejaVuSans-105"/>
      <use x="1046.648438" xlink:href="#DejaVuSans-97"/>
      <use x="1107.927734" xlink:href="#DejaVuSans-110"/>
      <use x="1171.306641" xlink:href="#DejaVuSans-32"/>
      <use x="1203.09375" xlink:href="#DejaVuSans-99"/>
      <use x="1258.074219" xlink:href="#DejaVuSans-111"/>
      <use x="1319.255859" xlink:href="#DejaVuSans-118"/>
      <use x="1378.435547" xlink:href="#DejaVuSans-101"/>
      <use x="1439.958984" xlink:href="#DejaVuSans-114"/>
      <use x="1481.072266" xlink:href="#DejaVuSans-97"/>
      <use x="1542.351562" xlink:href="#DejaVuSans-103"/>
      <use x="1605.828125" xlink:href="#DejaVuSans-101"/>
      <use x="1667.351562" xlink:href="#DejaVuSans-32"/>
      <use x="1699.138672" xlink:href="#DejaVuSans-111"/>
      <use x="1760.320312" xlink:href="#DejaVuSans-110"/>
      <use x="1823.699219" xlink:href="#DejaVuSans-32"/>
      <use x="1855.486328" xlink:href="#DejaVuSans-116"/>
      <use x="1894.695312" xlink:href="#DejaVuSans-104"/>
      <use x="1958.074219" xlink:href="#DejaVuSans-101"/>
      <use x="2019.597656" xlink:href="#DejaVuSans-32"/>
      <use x="2051.384766" xlink:href="#DejaVuSans-108"/>
      <use x="2079.167969" xlink:href="#DejaVuSans-101"/>
      <use x="2140.691406" xlink:href="#DejaVuSans-102"/>
      <use x="2174.146484" xlink:href="#DejaVuSans-116"/>
      <use x="2213.355469" xlink:href="#DejaVuSans-41"/>
     </g>
    </g>
   </g>
   <g id="matplotlib.axis_2">
    <g id="ytick_1">
     <g id="line2d_6">
      <defs>
       <path d="M 0 0 
L -3.5 0 
" id="m5a738c162f" style="stroke:#000000;stroke-width:0.8;"/>
      </defs>
      <g>
       <use style="stroke:#000000;stroke-width:0.8;" x="53.328125" xlink:href="#m5a738c162f" y="245.903013"/>
      </g>
     </g>
     <g id="text_7">
      <!-- 5000 -->
      <g transform="translate(20.878125 249.702232)scale(0.1 -0.1)">
       <defs>
        <path d="M 10.796875 72.90625 
L 49.515625 72.90625 
L 49.515625 64.59375 
L 19.828125 64.59375 
L 19.828125 46.734375 
Q 21.96875 47.46875 24.109375 47.828125 
Q 26.265625 48.1875 28.421875 48.1875 
Q 40.625 48.1875 47.75 41.5 
Q 54.890625 34.8125 54.890625 23.390625 
Q 54.890625 11.625 47.5625 5.09375 
Q 40.234375 -1.421875 26.90625 -1.421875 
Q 22.3125 -1.421875 17.546875 -0.640625 
Q 12.796875 0.140625 7.71875 1.703125 
L 7.71875 11.625 
Q 12.109375 9.234375 16.796875 8.0625 
Q 21.484375 6.890625 26.703125 6.890625 
Q 35.15625 6.890625 40.078125 11.328125 
Q 45.015625 15.765625 45.015625 23.390625 
Q 45.015625 31 40.078125 35.4375 
Q 35.15625 39.890625 26.703125 39.890625 
Q 22.75 39.890625 18.8125 39.015625 
Q 14.890625 38.140625 10.796875 36.28125 
z
" id="DejaVuSans-53"/>
        <path d="M 31.78125 66.40625 
Q 24.171875 66.40625 20.328125 58.90625 
Q 16.5 51.421875 16.5 36.375 
Q 16.5 21.390625 20.328125 13.890625 
Q 24.171875 6.390625 31.78125 6.390625 
Q 39.453125 6.390625 43.28125 13.890625 
Q 47.125 21.390625 47.125 36.375 
Q 47.125 51.421875 43.28125 58.90625 
Q 39.453125 66.40625 31.78125 66.40625 
z
M 31.78125 74.21875 
Q 44.046875 74.21875 50.515625 64.515625 
Q 56.984375 54.828125 56.984375 36.375 
Q 56.984375 17.96875 50.515625 8.265625 
Q 44.046875 -1.421875 31.78125 -1.421875 
Q 19.53125 -1.421875 13.0625 8.265625 
Q 6.59375 17.96875 6.59375 36.375 
Q 6.59375 54.828125 13.0625 64.515625 
Q 19.53125 74.21875 31.78125 74.21875 
z
" id="DejaVuSans-48"/>
       </defs>
       <use xlink:href="#DejaVuSans-53"/>
       <use x="63.623047" xlink:href="#DejaVuSans-48"/>
       <use x="127.246094" xlink:href="#DejaVuSans-48"/>
       <use x="190.869141" xlink:href="#DejaVuSans-48"/>
      </g>
     </g>
    </g>
    <g id="ytick_2">
     <g id="line2d_7">
      <g>
       <use style="stroke:#000000;stroke-width:0.8;" x="53.328125" xlink:href="#m5a738c162f" y="195.99531"/>
      </g>
     </g>
     <g id="text_8">
      <!-- 5200 -->
      <g transform="translate(20.878125 199.794529)scale(0.1 -0.1)">
       <defs>
        <path d="M 19.1875 8.296875 
L 53.609375 8.296875 
L 53.609375 0 
L 7.328125 0 
L 7.328125 8.296875 
Q 12.9375 14.109375 22.625 23.890625 
Q 32.328125 33.6875 34.8125 36.53125 
Q 39.546875 41.84375 41.421875 45.53125 
Q 43.3125 49.21875 43.3125 52.78125 
Q 43.3125 58.59375 39.234375 62.25 
Q 35.15625 65.921875 28.609375 65.921875 
Q 23.96875 65.921875 18.8125 64.3125 
Q 13.671875 62.703125 7.8125 59.421875 
L 7.8125 69.390625 
Q 13.765625 71.78125 18.9375 73 
Q 24.125 74.21875 28.421875 74.21875 
Q 39.75 74.21875 46.484375 68.546875 
Q 53.21875 62.890625 53.21875 53.421875 
Q 53.21875 48.921875 51.53125 44.890625 
Q 49.859375 40.875 45.40625 35.40625 
Q 44.1875 33.984375 37.640625 27.21875 
Q 31.109375 20.453125 19.1875 8.296875 
z
" id="DejaVuSans-50"/>
       </defs>
       <use xlink:href="#DejaVuSans-53"/>
       <use x="63.623047" xlink:href="#DejaVuSans-50"/>
       <use x="127.246094" xlink:href="#DejaVuSans-48"/>
       <use x="190.869141" xlink:href="#DejaVuSans-48"/>
      </g>
     </g>
    </g>
    <g id="ytick_3">
     <g id="line2d_8">
      <g>
       <use style="stroke:#000000;stroke-width:0.8;" x="53.328125" xlink:href="#m5a738c162f" y="146.087607"/>
      </g>
     </g>
     <g id="text_9">
      <!-- 5400 -->
      <g transform="translate(20.878125 149.886826)scale(0.1 -0.1)">
       <defs>
        <path d="M 37.796875 64.3125 
L 12.890625 25.390625 
L 37.796875 25.390625 
z
M 35.203125 72.90625 
L 47.609375 72.90625 
L 47.609375 25.390625 
L 58.015625 25.390625 
L 58.015625 17.1875 
L 47.609375 17.1875 
L 47.609375 0 
L 37.796875 0 
L 37.796875 17.1875 
L 4.890625 17.1875 
L 4.890625 26.703125 
z
" id="DejaVuSans-52"/>
       </defs>
       <use xlink:href="#DejaVuSans-53"/>
       <use x="63.623047" xlink:href="#DejaVuSans-52"/>
       <use x="127.246094" xlink:href="#DejaVuSans-48"/>
       <use x="190.869141" xlink:href="#DejaVuSans-48"/>
      </g>
     </g>
    </g>
    <g id="ytick_4">
     <g id="line2d_9">
      <g>
       <use style="stroke:#000000;stroke-width:0.8;" x="53.328125" xlink:href="#m5a738c162f" y="96.179904"/>
      </g>
     </g>
     <g id="text_10">
      <!-- 5600 -->
      <g transform="translate(20.878125 99.979123)scale(0.1 -0.1)">
       <defs>
        <path d="M 33.015625 40.375 
Q 26.375 40.375 22.484375 35.828125 
Q 18.609375 31.296875 18.609375 23.390625 
Q 18.609375 15.53125 22.484375 10.953125 
Q 26.375 6.390625 33.015625 6.390625 
Q 39.65625 6.390625 43.53125 10.953125 
Q 47.40625 15.53125 47.40625 23.390625 
Q 47.40625 31.296875 43.53125 35.828125 
Q 39.65625 40.375 33.015625 40.375 
z
M 52.59375 71.296875 
L 52.59375 62.3125 
Q 48.875 64.0625 45.09375 64.984375 
Q 41.3125 65.921875 37.59375 65.921875 
Q 27.828125 65.921875 22.671875 59.328125 
Q 17.53125 52.734375 16.796875 39.40625 
Q 19.671875 43.65625 24.015625 45.921875 
Q 28.375 48.1875 33.59375 48.1875 
Q 44.578125 48.1875 50.953125 41.515625 
Q 57.328125 34.859375 57.328125 23.390625 
Q 57.328125 12.15625 50.6875 5.359375 
Q 44.046875 -1.421875 33.015625 -1.421875 
Q 20.359375 -1.421875 13.671875 8.265625 
Q 6.984375 17.96875 6.984375 36.375 
Q 6.984375 53.65625 15.1875 63.9375 
Q 23.390625 74.21875 37.203125 74.21875 
Q 40.921875 74.21875 44.703125 73.484375 
Q 48.484375 72.75 52.59375 71.296875 
z
" id="DejaVuSans-54"/>
       </defs>
       <use xlink:href="#DejaVuSans-53"/>
       <use x="63.623047" xlink:href="#DejaVuSans-54"/>
       <use x="127.246094" xlink:href="#DejaVuSans-48"/>
       <use x="190.869141" xlink:href="#DejaVuSans-48"/>
      </g>
     </g>
    </g>
    <g id="ytick_5">
     <g id="line2d_10">
      <g>
       <use style="stroke:#000000;stroke-width:0.8;" x="53.328125" xlink:href="#m5a738c162f" y="46.272201"/>
      </g>
     </g>
     <g id="text_11">
      <!-- 5800 -->
      <g transform="translate(20.878125 50.07142)scale(0.1 -0.1)">
       <defs>
        <path d="M 31.78125 34.625 
Q 24.75 34.625 20.71875 30.859375 
Q 16.703125 27.09375 16.703125 20.515625 
Q 16.703125 13.921875 20.71875 10.15625 
Q 24.75 6.390625 31.78125 6.390625 
Q 38.8125 6.390625 42.859375 10.171875 
Q 46.921875 13.96875 46.921875 20.515625 
Q 46.921875 27.09375 42.890625 30.859375 
Q 38.875 34.625 31.78125 34.625 
z
M 21.921875 38.8125 
Q 15.578125 40.375 12.03125 44.71875 
Q 8.5 49.078125 8.5 55.328125 
Q 8.5 64.0625 14.71875 69.140625 
Q 20.953125 74.21875 31.78125 74.21875 
Q 42.671875 74.21875 48.875 69.140625 
Q 55.078125 64.0625 55.078125 55.328125 
Q 55.078125 49.078125 51.53125 44.71875 
Q 48 40.375 41.703125 38.8125 
Q 48.828125 37.15625 52.796875 32.3125 
Q 56.78125 27.484375 56.78125 20.515625 
Q 56.78125 9.90625 50.3125 4.234375 
Q 43.84375 -1.421875 31.78125 -1.421875 
Q 19.734375 -1.421875 13.25 4.234375 
Q 6.78125 9.90625 6.78125 20.515625 
Q 6.78125 27.484375 10.78125 32.3125 
Q 14.796875 37.15625 21.921875 38.8125 
z
M 18.3125 54.390625 
Q 18.3125 48.734375 21.84375 45.5625 
Q 25.390625 42.390625 31.78125 42.390625 
Q 38.140625 42.390625 41.71875 45.5625 
Q 45.3125 48.734375 45.3125 54.390625 
Q 45.3125 60.0625 41.71875 63.234375 
Q 38.140625 66.40625 31.78125 66.40625 
Q 25.390625 66.40625 21.84375 63.234375 
Q 18.3125 60.0625 18.3125 54.390625 
z
" id="DejaVuSans-56"/>
       </defs>
       <use xlink:href="#DejaVuSans-53"/>
       <use x="63.623047" xlink:href="#DejaVuSans-56"/>
       <use x="127.246094" xlink:href="#DejaVuSans-48"/>
       <use x="190.869141" xlink:href="#DejaVuSans-48"/>
      </g>
     </g>
    </g>
    <g id="text_12">
     <!-- Reached region coverage -->
     <g transform="translate(14.798438 219.136625)rotate(-90)scale(0.1 -0.1)">
      <defs>
       <path d="M 44.390625 34.1875 
Q 47.5625 33.109375 50.5625 29.59375 
Q 53.5625 26.078125 56.59375 19.921875 
L 66.609375 0 
L 56 0 
L 46.6875 18.703125 
Q 43.0625 26.03125 39.671875 28.421875 
Q 36.28125 30.8125 30.421875 30.8125 
L 19.671875 30.8125 
L 19.671875 0 
L 9.8125 0 
L 9.8125 72.90625 
L 32.078125 72.90625 
Q 44.578125 72.90625 50.734375 67.671875 
Q 56.890625 62.453125 56.890625 51.90625 
Q 56.890625 45.015625 53.6875 40.46875 
Q 50.484375 35.9375 44.390625 34.1875 
z
M 19.671875 64.796875 
L 19.671875 38.921875 
L 32.078125 38.921875 
Q 39.203125 38.921875 42.84375 42.21875 
Q 46.484375 45.515625 46.484375 51.90625 
Q 46.484375 58.296875 42.84375 61.546875 
Q 39.203125 64.796875 32.078125 64.796875 
z
" id="DejaVuSans-82"/>
      </defs>
      <use xlink:href="#DejaVuSans-82"/>
      <use x="64.982422" xlink:href="#DejaVuSans-101"/>
      <use x="126.505859" xlink:href="#DejaVuSans-97"/>
      <use x="187.785156" xlink:href="#DejaVuSans-99"/>
      <use x="242.765625" xlink:href="#DejaVuSans-104"/>
      <use x="306.144531" xlink:href="#DejaVuSans-101"/>
      <use x="367.667969" xlink:href="#DejaVuSans-100"/>
      <use x="431.144531" xlink:href="#DejaVuSans-32"/>
      <use x="462.931641" xlink:href="#DejaVuSans-114"/>
      <use x="501.794922" xlink:href="#DejaVuSans-101"/>
      <use x="563.318359" xlink:href="#DejaVuSans-103"/>
      <use x="626.794922" xlink:href="#DejaVuSans-105"/>
      <use x="654.578125" xlink:href="#DejaVuSans-111"/>
      <use x="715.759766" xlink:href="#DejaVuSans-110"/>
      <use x="779.138672" xlink:href="#DejaVuSans-32"/>
      <use x="810.925781" xlink:href="#DejaVuSans-99"/>
      <use x="865.90625" xlink:href="#DejaVuSans-111"/>
      <use x="927.087891" xlink:href="#DejaVuSans-118"/>
      <use x="986.267578" xlink:href="#DejaVuSans-101"/>
      <use x="1047.791016" xlink:href="#DejaVuSans-114"/>
      <use x="1088.904297" xlink:href="#DejaVuSans-97"/>
      <use x="1150.183594" xlink:href="#DejaVuSans-103"/>
      <use x="1213.660156" xlink:href="#DejaVuSans-101"/>
     </g>
    </g>
   </g>
   <g id="line2d_11">
    <path clip-path="url(#p21b164e27f)" d="M 89.040125 55.006049 
L 89.040125 42.030046 
" style="fill:none;stroke:#3f3f3f;stroke-linecap:square;stroke-width:1.5;"/>
   </g>
   <g id="line2d_12">
    <path clip-path="url(#p21b164e27f)" d="M 89.040125 49.266663 
L 89.040125 43.776816 
" style="fill:none;stroke:#3f3f3f;stroke-linecap:square;stroke-width:4.5;"/>
   </g>
   <g id="line2d_13">
    <path clip-path="url(#p21b164e27f)" d="M 160.464125 252.141476 
L 160.464125 239.66455 
" style="fill:none;stroke:#3f3f3f;stroke-linecap:square;stroke-width:1.5;"/>
   </g>
   <g id="line2d_14">
    <path clip-path="url(#p21b164e27f)" d="M 160.464125 250.893783 
L 160.464125 241.161781 
" style="fill:none;stroke:#3f3f3f;stroke-linecap:square;stroke-width:4.5;"/>
   </g>
   <g id="line2d_15">
    <path clip-path="url(#p21b164e27f)" d="M 231.888125 256.383631 
L 231.888125 226.439009 
" style="fill:none;stroke:#3f3f3f;stroke-linecap:square;stroke-width:1.5;"/>
   </g>
   <g id="line2d_16">
    <path clip-path="url(#p21b164e27f)" d="M 231.888125 252.266245 
L 231.888125 237.10678 
" style="fill:none;stroke:#3f3f3f;stroke-linecap:square;stroke-width:4.5;"/>
   </g>
   <g id="line2d_17">
    <path clip-path="url(#p21b164e27f)" d="M 303.312125 248.647937 
L 303.312125 248.14886 
" style="fill:none;stroke:#3f3f3f;stroke-linecap:square;stroke-width:1.5;"/>
   </g>
   <g id="line2d_18">
    <path clip-path="url(#p21b164e27f)" d="M 303.312125 248.647937 
L 303.312125 248.14886 
" style="fill:none;stroke:#3f3f3f;stroke-linecap:square;stroke-width:4.5;"/>
   </g>
   <g id="line2d_19">
    <path clip-path="url(#p21b164e27f)" d="M 374.736125 252.640553 
L 374.736125 250.893783 
" style="fill:none;stroke:#3f3f3f;stroke-linecap:square;stroke-width:1.5;"/>
   </g>
   <g id="line2d_20">
    <path clip-path="url(#p21b164e27f)" d="M 374.736125 252.203861 
L 374.736125 251.330476 
" style="fill:none;stroke:#3f3f3f;stroke-linecap:square;stroke-width:4.5;"/>
   </g>
   <g id="patch_3">
    <path d="M 53.328125 245.903013 
L 53.328125 46.272201 
" style="fill:none;stroke:#000000;stroke-linecap:square;stroke-linejoin:miter;stroke-width:0.8;"/>
   </g>
   <g id="patch_4">
    <path d="M 89.040125 288.430125 
L 374.736125 288.430125 
" style="fill:none;stroke:#000000;stroke-linecap:square;stroke-linejoin:miter;stroke-width:0.8;"/>
   </g>
   <g id="PathCollection_1">
    <defs>
     <path d="M 0 1.5 
C 0.397805 1.5 0.77937 1.341951 1.06066 1.06066 
C 1.341951 0.77937 1.5 0.397805 1.5 0 
C 1.5 -0.397805 1.341951 -0.77937 1.06066 -1.06066 
C 0.77937 -1.341951 0.397805 -1.5 0 -1.5 
C -0.397805 -1.5 -0.77937 -1.341951 -1.06066 -1.06066 
C -1.341951 -0.77937 -1.5 -0.397805 -1.5 0 
C -1.5 0.397805 -1.341951 0.77937 -1.06066 1.06066 
C -0.77937 1.341951 -0.397805 1.5 0 1.5 
z
" id="m312c5436da" style="stroke:#3f3f3f;"/>
    </defs>
    <g clip-path="url(#p21b164e27f)">
     <use style="fill:#ffffff;stroke:#3f3f3f;" x="89.040125" xlink:href="#m312c5436da" y="44.525431"/>
    </g>
   </g>
   <g id="PathCollection_2">
    <g clip-path="url(#p21b164e27f)">
     <use style="fill:#ffffff;stroke:#3f3f3f;" x="160.464125" xlink:href="#m312c5436da" y="244.655321"/>
    </g>
   </g>
   <g id="PathCollection_3">
    <g clip-path="url(#p21b164e27f)">
     <use style="fill:#ffffff;stroke:#3f3f3f;" x="231.888125" xlink:href="#m312c5436da" y="245.778244"/>
    </g>
   </g>
   <g id="PathCollection_4">
    <g clip-path="url(#p21b164e27f)">
     <use style="fill:#ffffff;stroke:#3f3f3f;" x="303.312125" xlink:href="#m312c5436da" y="248.647937"/>
    </g>
   </g>
   <g id="PathCollection_5">
    <g clip-path="url(#p21b164e27f)">
     <use style="fill:#ffffff;stroke:#3f3f3f;" x="374.736125" xlink:href="#m312c5436da" y="251.767168"/>
    </g>
   </g>
   <g id="text_13">
    <!-- openthread-2019-12-23 (2h, 2 trials/fuzzer) -->
    <g transform="translate(101.120938 16.318125)scale(0.12 -0.12)">
     <defs>
      <path d="M 4.890625 31.390625 
L 31.203125 31.390625 
L 31.203125 23.390625 
L 4.890625 23.390625 
z
" id="DejaVuSans-45"/>
      <path d="M 12.40625 8.296875 
L 28.515625 8.296875 
L 28.515625 63.921875 
L 10.984375 60.40625 
L 10.984375 69.390625 
L 28.421875 72.90625 
L 38.28125 72.90625 
L 38.28125 8.296875 
L 54.390625 8.296875 
L 54.390625 0 
L 12.40625 0 
z
" id="DejaVuSans-49"/>
      <path d="M 10.984375 1.515625 
L 10.984375 10.5 
Q 14.703125 8.734375 18.5 7.8125 
Q 22.3125 6.890625 25.984375 6.890625 
Q 35.75 6.890625 40.890625 13.453125 
Q 46.046875 20.015625 46.78125 33.40625 
Q 43.953125 29.203125 39.59375 26.953125 
Q 35.25 24.703125 29.984375 24.703125 
Q 19.046875 24.703125 12.671875 31.3125 
Q 6.296875 37.9375 6.296875 49.421875 
Q 6.296875 60.640625 12.9375 67.421875 
Q 19.578125 74.21875 30.609375 74.21875 
Q 43.265625 74.21875 49.921875 64.515625 
Q 56.59375 54.828125 56.59375 36.375 
Q 56.59375 19.140625 48.40625 8.859375 
Q 40.234375 -1.421875 26.421875 -1.421875 
Q 22.703125 -1.421875 18.890625 -0.6875 
Q 15.09375 0.046875 10.984375 1.515625 
z
M 30.609375 32.421875 
Q 37.25 32.421875 41.125 36.953125 
Q 45.015625 41.5 45.015625 49.421875 
Q 45.015625 57.28125 41.125 61.84375 
Q 37.25 66.40625 30.609375 66.40625 
Q 23.96875 66.40625 20.09375 61.84375 
Q 16.21875 57.28125 16.21875 49.421875 
Q 16.21875 41.5 20.09375 36.953125 
Q 23.96875 32.421875 30.609375 32.421875 
z
" id="DejaVuSans-57"/>
      <path d="M 40.578125 39.3125 
Q 47.65625 37.796875 51.625 33 
Q 55.609375 28.21875 55.609375 21.1875 
Q 55.609375 10.40625 48.1875 4.484375 
Q 40.765625 -1.421875 27.09375 -1.421875 
Q 22.515625 -1.421875 17.65625 -0.515625 
Q 12.796875 0.390625 7.625 2.203125 
L 7.625 11.71875 
Q 11.71875 9.328125 16.59375 8.109375 
Q 21.484375 6.890625 26.8125 6.890625 
Q 36.078125 6.890625 40.9375 10.546875 
Q 45.796875 14.203125 45.796875 21.1875 
Q 45.796875 27.640625 41.28125 31.265625 
Q 36.765625 34.90625 28.71875 34.90625 
L 20.21875 34.90625 
L 20.21875 43.015625 
L 29.109375 43.015625 
Q 36.375 43.015625 40.234375 45.921875 
Q 44.09375 48.828125 44.09375 54.296875 
Q 44.09375 59.90625 40.109375 62.90625 
Q 36.140625 65.921875 28.71875 65.921875 
Q 24.65625 65.921875 20.015625 65.03125 
Q 15.375 64.15625 9.8125 62.3125 
L 9.8125 71.09375 
Q 15.4375 72.65625 20.34375 73.4375 
Q 25.25 74.21875 29.59375 74.21875 
Q 40.828125 74.21875 47.359375 69.109375 
Q 53.90625 64.015625 53.90625 55.328125 
Q 53.90625 49.265625 50.4375 45.09375 
Q 46.96875 40.921875 40.578125 39.3125 
z
" id="DejaVuSans-51"/>
      <path d="M 11.71875 12.40625 
L 22.015625 12.40625 
L 22.015625 4 
L 14.015625 -11.625 
L 7.71875 -11.625 
L 11.71875 4 
z
" id="DejaVuSans-44"/>
      <path d="M 25.390625 72.90625 
L 33.6875 72.90625 
L 8.296875 -9.28125 
L 0 -9.28125 
z
" id="DejaVuSans-47"/>
     </defs>
     <use xlink:href="#DejaVuSans-111"/>
     <use x="61.181641" xlink:href="#DejaVuSans-112"/>
     <use x="124.658203" xlink:href="#DejaVuSans-101"/>
     <use x="186.181641" xlink:href="#DejaVuSans-110"/>
     <use x="249.560547" xlink:href="#DejaVuSans-116"/>
     <use x="288.769531" xlink:href="#DejaVuSans-104"/>
     <use x="352.148438" xlink:href="#DejaVuSans-114"/>
     <use x="391.011719" xlink:href="#DejaVuSans-101"/>
     <use x="452.535156" xlink:href="#DejaVuSans-97"/>
     <use x="513.814453" xlink:href="#DejaVuSans-100"/>
     <use x="577.291016" xlink:href="#DejaVuSans-45"/>
     <use x="613.375" xlink:href="#DejaVuSans-50"/>
     <use x="676.998047" xlink:href="#DejaVuSans-48"/>
     <use x="740.621094" xlink:href="#DejaVuSans-49"/>
     <use x="804.244141" xlink:href="#DejaVuSans-57"/>
     <use x="867.867188" xlink:href="#DejaVuSans-45"/>
     <use x="903.951172" xlink:href="#DejaVuSans-49"/>
     <use x="967.574219" xlink:href="#DejaVuSans-50"/>
     <use x="1031.197266" xlink:href="#DejaVuSans-45"/>
     <use x="1067.28125" xlink:href="#DejaVuSans-50"/>
     <use x="1130.904297" xlink:href="#DejaVuSans-51"/>
     <use x="1194.527344" xlink:href="#DejaVuSans-32"/>
     <use x="1226.314453" xlink:href="#DejaVuSans-40"/>
     <use x="1265.328125" xlink:href="#DejaVuSans-50"/>
     <use x="1328.951172" xlink:href="#DejaVuSans-104"/>
     <use x="1392.330078" xlink:href="#DejaVuSans-44"/>
     <use x="1424.117188" xlink:href="#DejaVuSans-32"/>
     <use x="1455.904297" xlink:href="#DejaVuSans-50"/>
     <use x="1519.527344" xlink:href="#DejaVuSans-32"/>
     <use x="1551.314453" xlink:href="#DejaVuSans-116"/>
     <use x="1590.523438" xlink:href="#DejaVuSans-114"/>
     <use x="1631.636719" xlink:href="#DejaVuSans-105"/>
     <use x="1659.419922" xlink:href="#DejaVuSans-97"/>
     <use x="1720.699219" xlink:href="#DejaVuSans-108"/>
     <use x="1748.482422" xlink:href="#DejaVuSans-115"/>
     <use x="1800.582031" xlink:href="#DejaVuSans-47"/>
     <use x="1834.273438" xlink:href="#DejaVuSans-102"/>
     <use x="1869.478516" xlink:href="#DejaVuSans-117"/>
     <use x="1932.857422" xlink:href="#DejaVuSans-122"/>
     <use x="1985.347656" xlink:href="#DejaVuSans-122"/>
     <use x="2037.837891" xlink:href="#DejaVuSans-101"/>
     <use x="2099.361328" xlink:href="#DejaVuSans-114"/>
     <use x="2140.474609" xlink:href="#DejaVuSans-41"/>
    </g>
   </g>
  </g>
 </g>
 <defs>
  <clipPath id="p21b164e27f">
   <rect height="266.112" width="357.12" x="53.328125" y="22.318125"/>
  </clipPath>
 </defs>
</svg>
