<?xml version="1.0" encoding="utf-8" standalone="no"?>
<!DOCTYPE svg PUBLIC "-//W3C//DTD SVG 1.1//EN"
  "http://www.w3.org/Graphics/SVG/1.1/DTD/svg11.dtd">
<!-- Created with matplotlib (https://matplotlib.org/) -->
<svg height="375.89624pt" version="1.1" viewBox="0 0 417.648125 375.89624" width="417.648125pt" xmlns="http://www.w3.org/2000/svg" xmlns:xlink="http://www.w3.org/1999/xlink">
 <metadata>
  <rdf:RDF xmlns:cc="http://creativecommons.org/ns#" xmlns:dc="http://purl.org/dc/elements/1.1/" xmlns:rdf="http://www.w3.org/1999/02/22-rdf-syntax-ns#">
   <cc:Work>
    <dc:type rdf:resource="http://purl.org/dc/dcmitype/StillImage"/>
    <dc:date>2020-11-16T19:30:39.248297</dc:date>
    <dc:format>image/svg+xml</dc:format>
    <dc:creator>
     <cc:Agent>
      <dc:title>Matplotlib v3.3.2, https://matplotlib.org/</dc:title>
     </cc:Agent>
    </dc:creator>
   </cc:Work>
  </rdf:RDF>
 </metadata>
 <defs>
  <style type="text/css">*{stroke-linecap:butt;stroke-linejoin:round;}</style>
 </defs>
 <g id="figure_1">
  <g id="patch_1">
   <path d="M 0 375.89624 
L 417.648125 375.89624 
L 417.648125 0 
L 0 0 
z
" style="fill:#ffffff;"/>
  </g>
  <g id="axes_1">
   <g id="patch_2">
    <path d="M 53.328125 288.430125 
L 410.448125 288.430125 
L 410.448125 22.318125 
L 53.328125 22.318125 
z
" style="fill:#ffffff;"/>
   </g>
   <g id="PolyCollection_1">
    <defs>
     <path d="M 114.431112 -178.21604 
L 111.265138 -178.21604 
L 111.014645 -179.865192 
L 110.734329 -181.514345 
L 110.422393 -183.163497 
L 110.077224 -184.812649 
L 109.697457 -186.461801 
L 109.282023 -188.110954 
L 108.830216 -189.760106 
L 108.341745 -191.409258 
L 107.816788 -193.058411 
L 107.256039 -194.707563 
L 106.66075 -196.356715 
L 106.03276 -198.005867 
L 105.374517 -199.65502 
L 104.689081 -201.304172 
L 103.980117 -202.953324 
L 103.251869 -204.602477 
L 102.509116 -206.251629 
L 101.757117 -207.900781 
L 101.001526 -209.549933 
L 100.248305 -211.199086 
L 99.503611 -212.848238 
L 98.773672 -214.49739 
L 98.064654 -216.146542 
L 97.382517 -217.795695 
L 96.732872 -219.444847 
L 96.120826 -221.093999 
L 95.550844 -222.743152 
L 95.026613 -224.392304 
L 94.550912 -226.041456 
L 94.125515 -227.690608 
L 93.751098 -229.339761 
L 93.427184 -230.988913 
L 93.152109 -232.638065 
L 92.923022 -234.287217 
L 92.735918 -235.93637 
L 92.585702 -237.585522 
L 92.466294 -239.234674 
L 92.370756 -240.883827 
L 92.291458 -242.532979 
L 92.220271 -244.182131 
L 92.148779 -245.831283 
L 92.068511 -247.480436 
L 91.971187 -249.129588 
L 91.848967 -250.77874 
L 91.694703 -252.427893 
L 91.502172 -254.077045 
L 91.266306 -255.726197 
L 90.983384 -257.375349 
L 90.651207 -259.024502 
L 90.269223 -260.673654 
L 89.838619 -262.322806 
L 89.362359 -263.971958 
L 88.845183 -265.621111 
L 88.29354 -267.270263 
L 87.715485 -268.919415 
L 87.120517 -270.568568 
L 86.519381 -272.21772 
L 85.923816 -273.866872 
L 85.346288 -275.516024 
L 84.799679 -277.165177 
L 84.296974 -278.814329 
L 83.850929 -280.463481 
L 83.473748 -282.112633 
L 83.176771 -283.761786 
L 82.970183 -285.410938 
L 82.862755 -287.06009 
L 82.861618 -288.709243 
L 82.972093 -290.358395 
L 83.197558 -292.007547 
L 83.539379 -293.656699 
L 83.996888 -295.305852 
L 84.567419 -296.955004 
L 85.246397 -298.604156 
L 86.027467 -300.253309 
L 86.902677 -301.902461 
L 87.86269 -303.551613 
L 88.897019 -305.200765 
L 89.994297 -306.849918 
L 91.14254 -308.49907 
L 92.329426 -310.148222 
L 93.542564 -311.797374 
L 94.769747 -313.446527 
L 95.999191 -315.095679 
L 97.21974 -316.744831 
L 98.421054 -318.393984 
L 99.593749 -320.043136 
L 100.729515 -321.692288 
L 101.821191 -323.34144 
L 102.862812 -324.990593 
L 103.849616 -326.639745 
L 104.778026 -328.288897 
L 105.645607 -329.938049 
L 106.450998 -331.587202 
L 107.193821 -333.236354 
L 107.874589 -334.885506 
L 108.494589 -336.534659 
L 109.055775 -338.183811 
L 109.560644 -339.832963 
L 110.012129 -341.482115 
L 115.684121 -341.482115 
L 115.684121 -341.482115 
L 116.135606 -339.832963 
L 116.640475 -338.183811 
L 117.201661 -336.534659 
L 117.821661 -334.885506 
L 118.502429 -333.236354 
L 119.245252 -331.587202 
L 120.050643 -329.938049 
L 120.918224 -328.288897 
L 121.846634 -326.639745 
L 122.833438 -324.990593 
L 123.875059 -323.34144 
L 124.966735 -321.692288 
L 126.102501 -320.043136 
L 127.275196 -318.393984 
L 128.47651 -316.744831 
L 129.697059 -315.095679 
L 130.926503 -313.446527 
L 132.153686 -311.797374 
L 133.366824 -310.148222 
L 134.55371 -308.49907 
L 135.701953 -306.849918 
L 136.799231 -305.200765 
L 137.83356 -303.551613 
L 138.793573 -301.902461 
L 139.668783 -300.253309 
L 140.449853 -298.604156 
L 141.128831 -296.955004 
L 141.699362 -295.305852 
L 142.156871 -293.656699 
L 142.498692 -292.007547 
L 142.724157 -290.358395 
L 142.834632 -288.709243 
L 142.833495 -287.06009 
L 142.726067 -285.410938 
L 142.519479 -283.761786 
L 142.222502 -282.112633 
L 141.845321 -280.463481 
L 141.399276 -278.814329 
L 140.896571 -277.165177 
L 140.349962 -275.516024 
L 139.772434 -273.866872 
L 139.176869 -272.21772 
L 138.575733 -270.568568 
L 137.980765 -268.919415 
L 137.40271 -267.270263 
L 136.851067 -265.621111 
L 136.333891 -263.971958 
L 135.857631 -262.322806 
L 135.427027 -260.673654 
L 135.045043 -259.024502 
L 134.712866 -257.375349 
L 134.429944 -255.726197 
L 134.194078 -254.077045 
L 134.001547 -252.427893 
L 133.847283 -250.77874 
L 133.725063 -249.129588 
L 133.627739 -247.480436 
L 133.547471 -245.831283 
L 133.475979 -244.182131 
L 133.404792 -242.532979 
L 133.325494 -240.883827 
L 133.229956 -239.234674 
L 133.110548 -237.585522 
L 132.960332 -235.93637 
L 132.773228 -234.287217 
L 132.544141 -232.638065 
L 132.269066 -230.988913 
L 131.945152 -229.339761 
L 131.570735 -227.690608 
L 131.145338 -226.041456 
L 130.669637 -224.392304 
L 130.145406 -222.743152 
L 129.575424 -221.093999 
L 128.963378 -219.444847 
L 128.313733 -217.795695 
L 127.631596 -216.146542 
L 126.922578 -214.49739 
L 126.192639 -212.848238 
L 125.447945 -211.199086 
L 124.694724 -209.549933 
L 123.939133 -207.900781 
L 123.187134 -206.251629 
L 122.444381 -204.602477 
L 121.716133 -202.953324 
L 121.007169 -201.304172 
L 120.321733 -199.65502 
L 119.66349 -198.005867 
L 119.0355 -196.356715 
L 118.440211 -194.707563 
L 117.879462 -193.058411 
L 117.354505 -191.409258 
L 116.866034 -189.760106 
L 116.414227 -188.110954 
L 115.998793 -186.461801 
L 115.619026 -184.812649 
L 115.273857 -183.163497 
L 114.961921 -181.514345 
L 114.681605 -179.865192 
L 114.431112 -178.21604 
z
" id="mdc585b7edf" style="stroke:#3f3f3f;stroke-width:1.5;"/>
    </defs>
    <g clip-path="url(#pb19909a16b)">
     <use style="fill:#3274a1;stroke:#3f3f3f;stroke-width:1.5;" x="0" xlink:href="#mdc585b7edf" y="375.89624"/>
    </g>
   </g>
   <g id="PolyCollection_2">
    <defs>
     <path d="M 235.844552 -136.068362 
L 227.931698 -136.068362 
L 227.263606 -137.408443 
L 226.510489 -138.748525 
L 225.66681 -140.088606 
L 224.727624 -141.428687 
L 223.688771 -142.768768 
L 222.54708 -144.10885 
L 221.300574 -145.448931 
L 219.948676 -146.789012 
L 218.492395 -148.129093 
L 216.934503 -149.469175 
L 215.279686 -150.809256 
L 213.534657 -152.149337 
L 211.708235 -153.489418 
L 209.811371 -154.8295 
L 207.857131 -156.169581 
L 205.860612 -157.509662 
L 203.83881 -158.849743 
L 201.810418 -160.189825 
L 199.795572 -161.529906 
L 197.815544 -162.869987 
L 195.892375 -164.210068 
L 194.048479 -165.55015 
L 192.306202 -166.890231 
L 190.687369 -168.230312 
L 189.212818 -169.570393 
L 187.901934 -170.910475 
L 186.772205 -172.250556 
L 185.838812 -173.590637 
L 185.114248 -174.930718 
L 184.608015 -176.2708 
L 184.326364 -177.610881 
L 184.272125 -178.950962 
L 184.444608 -180.291043 
L 184.839591 -181.631125 
L 185.449394 -182.971206 
L 186.26303 -184.311287 
L 187.26644 -185.651368 
L 188.442793 -186.99145 
L 189.772856 -188.331531 
L 191.235411 -189.671612 
L 192.807712 -191.011693 
L 194.465974 -192.351775 
L 196.185867 -193.691856 
L 197.94302 -195.031937 
L 199.713508 -196.372018 
L 201.474315 -197.7121 
L 203.203762 -199.052181 
L 204.881892 -200.392262 
L 206.490803 -201.732343 
L 208.01492 -203.072425 
L 209.441206 -204.412506 
L 210.759308 -205.752587 
L 211.961639 -207.092668 
L 213.043395 -208.43275 
L 214.002505 -209.772831 
L 214.839531 -211.112912 
L 215.557506 -212.452993 
L 216.161734 -213.793075 
L 216.659537 -215.133156 
L 217.059982 -216.473237 
L 217.373574 -217.813318 
L 217.611931 -219.1534 
L 217.787454 -220.493481 
L 217.912994 -221.833562 
L 218.001523 -223.173643 
L 218.065822 -224.513725 
L 218.118189 -225.853806 
L 218.17017 -227.193887 
L 218.232331 -228.533968 
L 218.314056 -229.87405 
L 218.423398 -231.214131 
L 218.566959 -232.554212 
L 218.749827 -233.894293 
L 218.975543 -235.234375 
L 219.246123 -236.574456 
L 219.56211 -237.914537 
L 219.922665 -239.254618 
L 220.325692 -240.5947 
L 220.767984 -241.934781 
L 221.24539 -243.274862 
L 221.752998 -244.614943 
L 222.285326 -245.955025 
L 222.836509 -247.295106 
L 223.400485 -248.635187 
L 223.971171 -249.975268 
L 224.542625 -251.31535 
L 225.109183 -252.655431 
L 225.665587 -253.995512 
L 226.207079 -255.335593 
L 226.729476 -256.675675 
L 227.229218 -258.015756 
L 227.7034 -259.355837 
L 228.149773 -260.695918 
L 228.566732 -262.036 
L 228.953287 -263.376081 
L 229.309018 -264.716162 
L 229.63402 -266.056243 
L 229.928845 -267.396325 
L 230.194429 -268.736406 
L 233.581821 -268.736406 
L 233.581821 -268.736406 
L 233.847405 -267.396325 
L 234.14223 -266.056243 
L 234.467232 -264.716162 
L 234.822963 -263.376081 
L 235.209518 -262.036 
L 235.626477 -260.695918 
L 236.07285 -259.355837 
L 236.547032 -258.015756 
L 237.046774 -256.675675 
L 237.569171 -255.335593 
L 238.110663 -253.995512 
L 238.667067 -252.655431 
L 239.233625 -251.31535 
L 239.805079 -249.975268 
L 240.375765 -248.635187 
L 240.939741 -247.295106 
L 241.490924 -245.955025 
L 242.023252 -244.614943 
L 242.53086 -243.274862 
L 243.008266 -241.934781 
L 243.450558 -240.5947 
L 243.853585 -239.254618 
L 244.21414 -237.914537 
L 244.530127 -236.574456 
L 244.800707 -235.234375 
L 245.026423 -233.894293 
L 245.209291 -232.554212 
L 245.352852 -231.214131 
L 245.462194 -229.87405 
L 245.543919 -228.533968 
L 245.60608 -227.193887 
L 245.658061 -225.853806 
L 245.710428 -224.513725 
L 245.774727 -223.173643 
L 245.863256 -221.833562 
L 245.988796 -220.493481 
L 246.164319 -219.1534 
L 246.402676 -217.813318 
L 246.716268 -216.473237 
L 247.116713 -215.133156 
L 247.614516 -213.793075 
L 248.218744 -212.452993 
L 248.936719 -211.112912 
L 249.773745 -209.772831 
L 250.732855 -208.43275 
L 251.814611 -207.092668 
L 253.016942 -205.752587 
L 254.335044 -204.412506 
L 255.76133 -203.072425 
L 257.285447 -201.732343 
L 258.894358 -200.392262 
L 260.572488 -199.052181 
L 262.301935 -197.7121 
L 264.062742 -196.372018 
L 265.83323 -195.031937 
L 267.590383 -193.691856 
L 269.310276 -192.351775 
L 270.968538 -191.011693 
L 272.540839 -189.671612 
L 274.003394 -188.331531 
L 275.333457 -186.99145 
L 276.50981 -185.651368 
L 277.51322 -184.311287 
L 278.326856 -182.971206 
L 278.936659 -181.631125 
L 279.331642 -180.291043 
L 279.504125 -178.950962 
L 279.449886 -177.610881 
L 279.168235 -176.2708 
L 278.662002 -174.930718 
L 277.937438 -173.590637 
L 277.004045 -172.250556 
L 275.874316 -170.910475 
L 274.563432 -169.570393 
L 273.088881 -168.230312 
L 271.470048 -166.890231 
L 269.727771 -165.55015 
L 267.883875 -164.210068 
L 265.960706 -162.869987 
L 263.980678 -161.529906 
L 261.965832 -160.189825 
L 259.93744 -158.849743 
L 257.915638 -157.509662 
L 255.919119 -156.169581 
L 253.964879 -154.8295 
L 252.068015 -153.489418 
L 250.241593 -152.149337 
L 248.496564 -150.809256 
L 246.841747 -149.469175 
L 245.283855 -148.129093 
L 243.827574 -146.789012 
L 242.475676 -145.448931 
L 241.22917 -144.10885 
L 240.087479 -142.768768 
L 239.048626 -141.428687 
L 238.10944 -140.088606 
L 237.265761 -138.748525 
L 236.512644 -137.408443 
L 235.844552 -136.068362 
z
" id="m62e98f3e79" style="stroke:#3f3f3f;stroke-width:1.5;"/>
    </defs>
    <g clip-path="url(#pb19909a16b)">
     <use style="fill:#c03d3e;stroke:#3f3f3f;stroke-width:1.5;" x="0" xlink:href="#m62e98f3e79" y="375.89624"/>
    </g>
   </g>
   <g id="PolyCollection_3">
    <defs>
     <path d="M 352.553717 -99.562115 
L 349.302533 -99.562115 
L 349.021117 -101.268495 
L 348.702194 -102.974874 
L 348.342862 -104.681253 
L 347.940354 -106.387633 
L 347.492105 -108.094012 
L 346.995824 -109.800391 
L 346.449575 -111.50677 
L 345.851845 -113.21315 
L 345.201629 -114.919529 
L 344.498493 -116.625908 
L 343.742647 -118.332288 
L 342.935 -120.038667 
L 342.07721 -121.745046 
L 341.171717 -123.451425 
L 340.221767 -125.157805 
L 339.231421 -126.864184 
L 338.205536 -128.570563 
L 337.149745 -130.276943 
L 336.070402 -131.983322 
L 334.974522 -133.689701 
L 333.869694 -135.39608 
L 332.76398 -137.10246 
L 331.665801 -138.808839 
L 330.583804 -140.515218 
L 329.526723 -142.221598 
L 328.503229 -143.927977 
L 327.521776 -145.634356 
L 326.590444 -147.340735 
L 325.716787 -149.047115 
L 324.907685 -150.753494 
L 324.169206 -152.459873 
L 323.506486 -154.166253 
L 322.923621 -155.872632 
L 322.42359 -157.579011 
L 322.00819 -159.28539 
L 321.678011 -160.99177 
L 321.432429 -162.698149 
L 321.269637 -164.404528 
L 321.186702 -166.110908 
L 321.179649 -167.817287 
L 321.243576 -169.523666 
L 321.372787 -171.230045 
L 321.560954 -172.936425 
L 321.801285 -174.642804 
L 322.086706 -176.349183 
L 322.41005 -178.055563 
L 322.764242 -179.761942 
L 323.142479 -181.468321 
L 323.538391 -183.1747 
L 323.946196 -184.88108 
L 324.360821 -186.587459 
L 324.778008 -188.293838 
L 325.194382 -190.000218 
L 325.607493 -191.706597 
L 326.015835 -193.412976 
L 326.418819 -195.119355 
L 326.816733 -196.825735 
L 327.210669 -198.532114 
L 327.602427 -200.238493 
L 327.994401 -201.944873 
L 328.389452 -203.651252 
L 328.790768 -205.357631 
L 329.201724 -207.06401 
L 329.625729 -208.77039 
L 330.066092 -210.476769 
L 330.525889 -212.183148 
L 331.007832 -213.889528 
L 331.514173 -215.595907 
L 332.046608 -217.302286 
L 332.606208 -219.008665 
L 333.19337 -220.715045 
L 333.80779 -222.421424 
L 334.448461 -224.127803 
L 335.113682 -225.834182 
L 335.801105 -227.540562 
L 336.507779 -229.246941 
L 337.230233 -230.95332 
L 337.964552 -232.6597 
L 338.70648 -234.366079 
L 339.451519 -236.072458 
L 340.19504 -237.778837 
L 340.932387 -239.485217 
L 341.658988 -241.191596 
L 342.370445 -242.897975 
L 343.062633 -244.604355 
L 343.731774 -246.310734 
L 344.374504 -248.017113 
L 344.987926 -249.723492 
L 345.569643 -251.429872 
L 346.117784 -253.136251 
L 346.631004 -254.84263 
L 347.108482 -256.54901 
L 347.549897 -258.255389 
L 347.955396 -259.961768 
L 348.325557 -261.668147 
L 348.661336 -263.374527 
L 348.964016 -265.080906 
L 349.235155 -266.787285 
L 349.476522 -268.493665 
L 352.379728 -268.493665 
L 352.379728 -268.493665 
L 352.621095 -266.787285 
L 352.892234 -265.080906 
L 353.194914 -263.374527 
L 353.530693 -261.668147 
L 353.900854 -259.961768 
L 354.306353 -258.255389 
L 354.747768 -256.54901 
L 355.225246 -254.84263 
L 355.738466 -253.136251 
L 356.286607 -251.429872 
L 356.868324 -249.723492 
L 357.481746 -248.017113 
L 358.124476 -246.310734 
L 358.793617 -244.604355 
L 359.485805 -242.897975 
L 360.197262 -241.191596 
L 360.923863 -239.485217 
L 361.66121 -237.778837 
L 362.404731 -236.072458 
L 363.14977 -234.366079 
L 363.891698 -232.6597 
L 364.626017 -230.95332 
L 365.348471 -229.246941 
L 366.055145 -227.540562 
L 366.742568 -225.834182 
L 367.407789 -224.127803 
L 368.04846 -222.421424 
L 368.66288 -220.715045 
L 369.250042 -219.008665 
L 369.809642 -217.302286 
L 370.342077 -215.595907 
L 370.848418 -213.889528 
L 371.330361 -212.183148 
L 371.790158 -210.476769 
L 372.230521 -208.77039 
L 372.654526 -207.06401 
L 373.065482 -205.357631 
L 373.466798 -203.651252 
L 373.861849 -201.944873 
L 374.253823 -200.238493 
L 374.645581 -198.532114 
L 375.039517 -196.825735 
L 375.437431 -195.119355 
L 375.840415 -193.412976 
L 376.248757 -191.706597 
L 376.661868 -190.000218 
L 377.078242 -188.293838 
L 377.495429 -186.587459 
L 377.910054 -184.88108 
L 378.317859 -183.1747 
L 378.713771 -181.468321 
L 379.092008 -179.761942 
L 379.4462 -178.055563 
L 379.769544 -176.349183 
L 380.054965 -174.642804 
L 380.295296 -172.936425 
L 380.483463 -171.230045 
L 380.612674 -169.523666 
L 380.676601 -167.817287 
L 380.669548 -166.110908 
L 380.586613 -164.404528 
L 380.423821 -162.698149 
L 380.178239 -160.99177 
L 379.84806 -159.28539 
L 379.43266 -157.579011 
L 378.932629 -155.872632 
L 378.349764 -154.166253 
L 377.687044 -152.459873 
L 376.948565 -150.753494 
L 376.139463 -149.047115 
L 375.265806 -147.340735 
L 374.334474 -145.634356 
L 373.353021 -143.927977 
L 372.329527 -142.221598 
L 371.272446 -140.515218 
L 370.190449 -138.808839 
L 369.09227 -137.10246 
L 367.986556 -135.39608 
L 366.881728 -133.689701 
L 365.785848 -131.983322 
L 364.706505 -130.276943 
L 363.650714 -128.570563 
L 362.624829 -126.864184 
L 361.634483 -125.157805 
L 360.684533 -123.451425 
L 359.77904 -121.745046 
L 358.92125 -120.038667 
L 358.113603 -118.332288 
L 357.357757 -116.625908 
L 356.654621 -114.919529 
L 356.004405 -113.21315 
L 355.406675 -111.50677 
L 354.860426 -109.800391 
L 354.364145 -108.094012 
L 353.915896 -106.387633 
L 353.513388 -104.681253 
L 353.154056 -102.974874 
L 352.835133 -101.268495 
L 352.553717 -99.562115 
z
" id="mec37a19eec" style="stroke:#3f3f3f;stroke-width:1.5;"/>
    </defs>
    <g clip-path="url(#pb19909a16b)">
     <use style="fill:#9fd495;stroke:#3f3f3f;stroke-width:1.5;" x="0" xlink:href="#mec37a19eec" y="375.89624"/>
    </g>
   </g>
   <g id="matplotlib.axis_1">
    <g id="xtick_1">
     <g id="line2d_1">
      <defs>
       <path d="M 0 0 
L 0 3.5 
" id="mf98ab123ba" style="stroke:#000000;stroke-width:0.8;"/>
      </defs>
      <g>
       <use style="stroke:#000000;stroke-width:0.8;" x="112.848125" xlink:href="#mf98ab123ba" y="288.430125"/>
      </g>
     </g>
     <g id="text_1">
      <!-- aflplusplus_hier -->
      <g transform="translate(43.986627 341.087127)rotate(-30)scale(0.1 -0.1)">
       <defs>
        <path d="M 34.28125 27.484375 
Q 23.390625 27.484375 19.1875 25 
Q 14.984375 22.515625 14.984375 16.5 
Q 14.984375 11.71875 18.140625 8.90625 
Q 21.296875 6.109375 26.703125 6.109375 
Q 34.1875 6.109375 38.703125 11.40625 
Q 43.21875 16.703125 43.21875 25.484375 
L 43.21875 27.484375 
z
M 52.203125 31.203125 
L 52.203125 0 
L 43.21875 0 
L 43.21875 8.296875 
Q 40.140625 3.328125 35.546875 0.953125 
Q 30.953125 -1.421875 24.3125 -1.421875 
Q 15.921875 -1.421875 10.953125 3.296875 
Q 6 8.015625 6 15.921875 
Q 6 25.140625 12.171875 29.828125 
Q 18.359375 34.515625 30.609375 34.515625 
L 43.21875 34.515625 
L 43.21875 35.40625 
Q 43.21875 41.609375 39.140625 45 
Q 35.0625 48.390625 27.6875 48.390625 
Q 23 48.390625 18.546875 47.265625 
Q 14.109375 46.140625 10.015625 43.890625 
L 10.015625 52.203125 
Q 14.9375 54.109375 19.578125 55.046875 
Q 24.21875 56 28.609375 56 
Q 40.484375 56 46.34375 49.84375 
Q 52.203125 43.703125 52.203125 31.203125 
z
" id="DejaVuSans-97"/>
        <path d="M 37.109375 75.984375 
L 37.109375 68.5 
L 28.515625 68.5 
Q 23.6875 68.5 21.796875 66.546875 
Q 19.921875 64.59375 19.921875 59.515625 
L 19.921875 54.6875 
L 34.71875 54.6875 
L 34.71875 47.703125 
L 19.921875 47.703125 
L 19.921875 0 
L 10.890625 0 
L 10.890625 47.703125 
L 2.296875 47.703125 
L 2.296875 54.6875 
L 10.890625 54.6875 
L 10.890625 58.5 
Q 10.890625 67.625 15.140625 71.796875 
Q 19.390625 75.984375 28.609375 75.984375 
z
" id="DejaVuSans-102"/>
        <path d="M 9.421875 75.984375 
L 18.40625 75.984375 
L 18.40625 0 
L 9.421875 0 
z
" id="DejaVuSans-108"/>
        <path d="M 18.109375 8.203125 
L 18.109375 -20.796875 
L 9.078125 -20.796875 
L 9.078125 54.6875 
L 18.109375 54.6875 
L 18.109375 46.390625 
Q 20.953125 51.265625 25.265625 53.625 
Q 29.59375 56 35.59375 56 
Q 45.5625 56 51.78125 48.09375 
Q 58.015625 40.1875 58.015625 27.296875 
Q 58.015625 14.40625 51.78125 6.484375 
Q 45.5625 -1.421875 35.59375 -1.421875 
Q 29.59375 -1.421875 25.265625 0.953125 
Q 20.953125 3.328125 18.109375 8.203125 
z
M 48.6875 27.296875 
Q 48.6875 37.203125 44.609375 42.84375 
Q 40.53125 48.484375 33.40625 48.484375 
Q 26.265625 48.484375 22.1875 42.84375 
Q 18.109375 37.203125 18.109375 27.296875 
Q 18.109375 17.390625 22.1875 11.75 
Q 26.265625 6.109375 33.40625 6.109375 
Q 40.53125 6.109375 44.609375 11.75 
Q 48.6875 17.390625 48.6875 27.296875 
z
" id="DejaVuSans-112"/>
        <path d="M 8.5 21.578125 
L 8.5 54.6875 
L 17.484375 54.6875 
L 17.484375 21.921875 
Q 17.484375 14.15625 20.5 10.265625 
Q 23.53125 6.390625 29.59375 6.390625 
Q 36.859375 6.390625 41.078125 11.03125 
Q 45.3125 15.671875 45.3125 23.6875 
L 45.3125 54.6875 
L 54.296875 54.6875 
L 54.296875 0 
L 45.3125 0 
L 45.3125 8.40625 
Q 42.046875 3.421875 37.71875 1 
Q 33.40625 -1.421875 27.6875 -1.421875 
Q 18.265625 -1.421875 13.375 4.4375 
Q 8.5 10.296875 8.5 21.578125 
z
M 31.109375 56 
z
" id="DejaVuSans-117"/>
        <path d="M 44.28125 53.078125 
L 44.28125 44.578125 
Q 40.484375 46.53125 36.375 47.5 
Q 32.28125 48.484375 27.875 48.484375 
Q 21.1875 48.484375 17.84375 46.4375 
Q 14.5 44.390625 14.5 40.28125 
Q 14.5 37.15625 16.890625 35.375 
Q 19.28125 33.59375 26.515625 31.984375 
L 29.59375 31.296875 
Q 39.15625 29.25 43.1875 25.515625 
Q 47.21875 21.78125 47.21875 15.09375 
Q 47.21875 7.46875 41.1875 3.015625 
Q 35.15625 -1.421875 24.609375 -1.421875 
Q 20.21875 -1.421875 15.453125 -0.5625 
Q 10.6875 0.296875 5.421875 2 
L 5.421875 11.28125 
Q 10.40625 8.6875 15.234375 7.390625 
Q 20.0625 6.109375 24.8125 6.109375 
Q 31.15625 6.109375 34.5625 8.28125 
Q 37.984375 10.453125 37.984375 14.40625 
Q 37.984375 18.0625 35.515625 20.015625 
Q 33.0625 21.96875 24.703125 23.78125 
L 21.578125 24.515625 
Q 13.234375 26.265625 9.515625 29.90625 
Q 5.8125 33.546875 5.8125 39.890625 
Q 5.8125 47.609375 11.28125 51.796875 
Q 16.75 56 26.8125 56 
Q 31.78125 56 36.171875 55.265625 
Q 40.578125 54.546875 44.28125 53.078125 
z
" id="DejaVuSans-115"/>
        <path d="M 50.984375 -16.609375 
L 50.984375 -23.578125 
L -0.984375 -23.578125 
L -0.984375 -16.609375 
z
" id="DejaVuSans-95"/>
        <path d="M 54.890625 33.015625 
L 54.890625 0 
L 45.90625 0 
L 45.90625 32.71875 
Q 45.90625 40.484375 42.875 44.328125 
Q 39.84375 48.1875 33.796875 48.1875 
Q 26.515625 48.1875 22.3125 43.546875 
Q 18.109375 38.921875 18.109375 30.90625 
L 18.109375 0 
L 9.078125 0 
L 9.078125 75.984375 
L 18.109375 75.984375 
L 18.109375 46.1875 
Q 21.34375 51.125 25.703125 53.5625 
Q 30.078125 56 35.796875 56 
Q 45.21875 56 50.046875 50.171875 
Q 54.890625 44.34375 54.890625 33.015625 
z
" id="DejaVuSans-104"/>
        <path d="M 9.421875 54.6875 
L 18.40625 54.6875 
L 18.40625 0 
L 9.421875 0 
z
M 9.421875 75.984375 
L 18.40625 75.984375 
L 18.40625 64.59375 
L 9.421875 64.59375 
z
" id="DejaVuSans-105"/>
        <path d="M 56.203125 29.59375 
L 56.203125 25.203125 
L 14.890625 25.203125 
Q 15.484375 15.921875 20.484375 11.0625 
Q 25.484375 6.203125 34.421875 6.203125 
Q 39.59375 6.203125 44.453125 7.46875 
Q 49.3125 8.734375 54.109375 11.28125 
L 54.109375 2.78125 
Q 49.265625 0.734375 44.1875 -0.34375 
Q 39.109375 -1.421875 33.890625 -1.421875 
Q 20.796875 -1.421875 13.15625 6.1875 
Q 5.515625 13.8125 5.515625 26.8125 
Q 5.515625 40.234375 12.765625 48.109375 
Q 20.015625 56 32.328125 56 
Q 43.359375 56 49.78125 48.890625 
Q 56.203125 41.796875 56.203125 29.59375 
z
M 47.21875 32.234375 
Q 47.125 39.59375 43.09375 43.984375 
Q 39.0625 48.390625 32.421875 48.390625 
Q 24.90625 48.390625 20.390625 44.140625 
Q 15.875 39.890625 15.1875 32.171875 
z
" id="DejaVuSans-101"/>
        <path d="M 41.109375 46.296875 
Q 39.59375 47.171875 37.8125 47.578125 
Q 36.03125 48 33.890625 48 
Q 26.265625 48 22.1875 43.046875 
Q 18.109375 38.09375 18.109375 28.8125 
L 18.109375 0 
L 9.078125 0 
L 9.078125 54.6875 
L 18.109375 54.6875 
L 18.109375 46.1875 
Q 20.953125 51.171875 25.484375 53.578125 
Q 30.03125 56 36.53125 56 
Q 37.453125 56 38.578125 55.875 
Q 39.703125 55.765625 41.0625 55.515625 
z
" id="DejaVuSans-114"/>
       </defs>
       <use xlink:href="#DejaVuSans-97"/>
       <use x="61.279297" xlink:href="#DejaVuSans-102"/>
       <use x="96.484375" xlink:href="#DejaVuSans-108"/>
       <use x="124.267578" xlink:href="#DejaVuSans-112"/>
       <use x="187.744141" xlink:href="#DejaVuSans-108"/>
       <use x="215.527344" xlink:href="#DejaVuSans-117"/>
       <use x="278.90625" xlink:href="#DejaVuSans-115"/>
       <use x="331.005859" xlink:href="#DejaVuSans-112"/>
       <use x="394.482422" xlink:href="#DejaVuSans-108"/>
       <use x="422.265625" xlink:href="#DejaVuSans-117"/>
       <use x="485.644531" xlink:href="#DejaVuSans-115"/>
       <use x="537.744141" xlink:href="#DejaVuSans-95"/>
       <use x="587.744141" xlink:href="#DejaVuSans-104"/>
       <use x="651.123047" xlink:href="#DejaVuSans-105"/>
       <use x="678.90625" xlink:href="#DejaVuSans-101"/>
       <use x="740.429688" xlink:href="#DejaVuSans-114"/>
      </g>
     </g>
    </g>
    <g id="xtick_2">
     <g id="line2d_2">
      <g>
       <use style="stroke:#000000;stroke-width:0.8;" x="231.888125" xlink:href="#mf98ab123ba" y="288.430125"/>
      </g>
     </g>
     <g id="text_2">
      <!-- aflplusplus_hier_fast -->
      <g transform="translate(142.434167 352.97619)rotate(-30)scale(0.1 -0.1)">
       <defs>
        <path d="M 18.3125 70.21875 
L 18.3125 54.6875 
L 36.8125 54.6875 
L 36.8125 47.703125 
L 18.3125 47.703125 
L 18.3125 18.015625 
Q 18.3125 11.328125 20.140625 9.421875 
Q 21.96875 7.515625 27.59375 7.515625 
L 36.8125 7.515625 
L 36.8125 0 
L 27.59375 0 
Q 17.1875 0 13.234375 3.875 
Q 9.28125 7.765625 9.28125 18.015625 
L 9.28125 47.703125 
L 2.6875 47.703125 
L 2.6875 54.6875 
L 9.28125 54.6875 
L 9.28125 70.21875 
z
" id="DejaVuSans-116"/>
       </defs>
       <use xlink:href="#DejaVuSans-97"/>
       <use x="61.279297" xlink:href="#DejaVuSans-102"/>
       <use x="96.484375" xlink:href="#DejaVuSans-108"/>
       <use x="124.267578" xlink:href="#DejaVuSans-112"/>
       <use x="187.744141" xlink:href="#DejaVuSans-108"/>
       <use x="215.527344" xlink:href="#DejaVuSans-117"/>
       <use x="278.90625" xlink:href="#DejaVuSans-115"/>
       <use x="331.005859" xlink:href="#DejaVuSans-112"/>
       <use x="394.482422" xlink:href="#DejaVuSans-108"/>
       <use x="422.265625" xlink:href="#DejaVuSans-117"/>
       <use x="485.644531" xlink:href="#DejaVuSans-115"/>
       <use x="537.744141" xlink:href="#DejaVuSans-95"/>
       <use x="587.744141" xlink:href="#DejaVuSans-104"/>
       <use x="651.123047" xlink:href="#DejaVuSans-105"/>
       <use x="678.90625" xlink:href="#DejaVuSans-101"/>
       <use x="740.429688" xlink:href="#DejaVuSans-114"/>
       <use x="781.542969" xlink:href="#DejaVuSans-95"/>
       <use x="831.542969" xlink:href="#DejaVuSans-102"/>
       <use x="866.748047" xlink:href="#DejaVuSans-97"/>
       <use x="928.027344" xlink:href="#DejaVuSans-115"/>
       <use x="980.126953" xlink:href="#DejaVuSans-116"/>
      </g>
     </g>
    </g>
    <g id="xtick_3">
     <g id="line2d_3">
      <g>
       <use style="stroke:#000000;stroke-width:0.8;" x="350.928125" xlink:href="#mf98ab123ba" y="288.430125"/>
      </g>
     </g>
     <g id="text_3">
      <!-- aflplusplus_hier_coe -->
      <g transform="translate(262.346958 352.472284)rotate(-30)scale(0.1 -0.1)">
       <defs>
        <path d="M 48.78125 52.59375 
L 48.78125 44.1875 
Q 44.96875 46.296875 41.140625 47.34375 
Q 37.3125 48.390625 33.40625 48.390625 
Q 24.65625 48.390625 19.8125 42.84375 
Q 14.984375 37.3125 14.984375 27.296875 
Q 14.984375 17.28125 19.8125 11.734375 
Q 24.65625 6.203125 33.40625 6.203125 
Q 37.3125 6.203125 41.140625 7.25 
Q 44.96875 8.296875 48.78125 10.40625 
L 48.78125 2.09375 
Q 45.015625 0.34375 40.984375 -0.53125 
Q 36.96875 -1.421875 32.421875 -1.421875 
Q 20.0625 -1.421875 12.78125 6.34375 
Q 5.515625 14.109375 5.515625 27.296875 
Q 5.515625 40.671875 12.859375 48.328125 
Q 20.21875 56 33.015625 56 
Q 37.15625 56 41.109375 55.140625 
Q 45.0625 54.296875 48.78125 52.59375 
z
" id="DejaVuSans-99"/>
        <path d="M 30.609375 48.390625 
Q 23.390625 48.390625 19.1875 42.75 
Q 14.984375 37.109375 14.984375 27.296875 
Q 14.984375 17.484375 19.15625 11.84375 
Q 23.34375 6.203125 30.609375 6.203125 
Q 37.796875 6.203125 41.984375 11.859375 
Q 46.1875 17.53125 46.1875 27.296875 
Q 46.1875 37.015625 41.984375 42.703125 
Q 37.796875 48.390625 30.609375 48.390625 
z
M 30.609375 56 
Q 42.328125 56 49.015625 48.375 
Q 55.71875 40.765625 55.71875 27.296875 
Q 55.71875 13.875 49.015625 6.21875 
Q 42.328125 -1.421875 30.609375 -1.421875 
Q 18.84375 -1.421875 12.171875 6.21875 
Q 5.515625 13.875 5.515625 27.296875 
Q 5.515625 40.765625 12.171875 48.375 
Q 18.84375 56 30.609375 56 
z
" id="DejaVuSans-111"/>
       </defs>
       <use xlink:href="#DejaVuSans-97"/>
       <use x="61.279297" xlink:href="#DejaVuSans-102"/>
       <use x="96.484375" xlink:href="#DejaVuSans-108"/>
       <use x="124.267578" xlink:href="#DejaVuSans-112"/>
       <use x="187.744141" xlink:href="#DejaVuSans-108"/>
       <use x="215.527344" xlink:href="#DejaVuSans-117"/>
       <use x="278.90625" xlink:href="#DejaVuSans-115"/>
       <use x="331.005859" xlink:href="#DejaVuSans-112"/>
       <use x="394.482422" xlink:href="#DejaVuSans-108"/>
       <use x="422.265625" xlink:href="#DejaVuSans-117"/>
       <use x="485.644531" xlink:href="#DejaVuSans-115"/>
       <use x="537.744141" xlink:href="#DejaVuSans-95"/>
       <use x="587.744141" xlink:href="#DejaVuSans-104"/>
       <use x="651.123047" xlink:href="#DejaVuSans-105"/>
       <use x="678.90625" xlink:href="#DejaVuSans-101"/>
       <use x="740.429688" xlink:href="#DejaVuSans-114"/>
       <use x="781.542969" xlink:href="#DejaVuSans-95"/>
       <use x="831.542969" xlink:href="#DejaVuSans-99"/>
       <use x="886.523438" xlink:href="#DejaVuSans-111"/>
       <use x="947.705078" xlink:href="#DejaVuSans-101"/>
      </g>
     </g>
    </g>
    <g id="text_4">
     <!-- Fuzzer (highest median coverage on the left) -->
     <g transform="translate(119.270156 366.616553)scale(0.1 -0.1)">
      <defs>
       <path d="M 9.8125 72.90625 
L 51.703125 72.90625 
L 51.703125 64.59375 
L 19.671875 64.59375 
L 19.671875 43.109375 
L 48.578125 43.109375 
L 48.578125 34.8125 
L 19.671875 34.8125 
L 19.671875 0 
L 9.8125 0 
z
" id="DejaVuSans-70"/>
       <path d="M 5.515625 54.6875 
L 48.1875 54.6875 
L 48.1875 46.484375 
L 14.40625 7.171875 
L 48.1875 7.171875 
L 48.1875 0 
L 4.296875 0 
L 4.296875 8.203125 
L 38.09375 47.515625 
L 5.515625 47.515625 
z
" id="DejaVuSans-122"/>
       <path id="DejaVuSans-32"/>
       <path d="M 31 75.875 
Q 24.46875 64.65625 21.28125 53.65625 
Q 18.109375 42.671875 18.109375 31.390625 
Q 18.109375 20.125 21.3125 9.0625 
Q 24.515625 -2 31 -13.1875 
L 23.1875 -13.1875 
Q 15.875 -1.703125 12.234375 9.375 
Q 8.59375 20.453125 8.59375 31.390625 
Q 8.59375 42.28125 12.203125 53.3125 
Q 15.828125 64.359375 23.1875 75.875 
z
" id="DejaVuSans-40"/>
       <path d="M 45.40625 27.984375 
Q 45.40625 37.75 41.375 43.109375 
Q 37.359375 48.484375 30.078125 48.484375 
Q 22.859375 48.484375 18.828125 43.109375 
Q 14.796875 37.75 14.796875 27.984375 
Q 14.796875 18.265625 18.828125 12.890625 
Q 22.859375 7.515625 30.078125 7.515625 
Q 37.359375 7.515625 41.375 12.890625 
Q 45.40625 18.265625 45.40625 27.984375 
z
M 54.390625 6.78125 
Q 54.390625 -7.171875 48.1875 -13.984375 
Q 42 -20.796875 29.203125 -20.796875 
Q 24.46875 -20.796875 20.265625 -20.09375 
Q 16.0625 -19.390625 12.109375 -17.921875 
L 12.109375 -9.1875 
Q 16.0625 -11.328125 19.921875 -12.34375 
Q 23.78125 -13.375 27.78125 -13.375 
Q 36.625 -13.375 41.015625 -8.765625 
Q 45.40625 -4.15625 45.40625 5.171875 
L 45.40625 9.625 
Q 42.625 4.78125 38.28125 2.390625 
Q 33.9375 0 27.875 0 
Q 17.828125 0 11.671875 7.65625 
Q 5.515625 15.328125 5.515625 27.984375 
Q 5.515625 40.671875 11.671875 48.328125 
Q 17.828125 56 27.875 56 
Q 33.9375 56 38.28125 53.609375 
Q 42.625 51.21875 45.40625 46.390625 
L 45.40625 54.6875 
L 54.390625 54.6875 
z
" id="DejaVuSans-103"/>
       <path d="M 52 44.1875 
Q 55.375 50.25 60.0625 53.125 
Q 64.75 56 71.09375 56 
Q 79.640625 56 84.28125 50.015625 
Q 88.921875 44.046875 88.921875 33.015625 
L 88.921875 0 
L 79.890625 0 
L 79.890625 32.71875 
Q 79.890625 40.578125 77.09375 44.375 
Q 74.3125 48.1875 68.609375 48.1875 
Q 61.625 48.1875 57.5625 43.546875 
Q 53.515625 38.921875 53.515625 30.90625 
L 53.515625 0 
L 44.484375 0 
L 44.484375 32.71875 
Q 44.484375 40.625 41.703125 44.40625 
Q 38.921875 48.1875 33.109375 48.1875 
Q 26.21875 48.1875 22.15625 43.53125 
Q 18.109375 38.875 18.109375 30.90625 
L 18.109375 0 
L 9.078125 0 
L 9.078125 54.6875 
L 18.109375 54.6875 
L 18.109375 46.1875 
Q 21.1875 51.21875 25.484375 53.609375 
Q 29.78125 56 35.6875 56 
Q 41.65625 56 45.828125 52.96875 
Q 50 49.953125 52 44.1875 
z
" id="DejaVuSans-109"/>
       <path d="M 45.40625 46.390625 
L 45.40625 75.984375 
L 54.390625 75.984375 
L 54.390625 0 
L 45.40625 0 
L 45.40625 8.203125 
Q 42.578125 3.328125 38.25 0.953125 
Q 33.9375 -1.421875 27.875 -1.421875 
Q 17.96875 -1.421875 11.734375 6.484375 
Q 5.515625 14.40625 5.515625 27.296875 
Q 5.515625 40.1875 11.734375 48.09375 
Q 17.96875 56 27.875 56 
Q 33.9375 56 38.25 53.625 
Q 42.578125 51.265625 45.40625 46.390625 
z
M 14.796875 27.296875 
Q 14.796875 17.390625 18.875 11.75 
Q 22.953125 6.109375 30.078125 6.109375 
Q 37.203125 6.109375 41.296875 11.75 
Q 45.40625 17.390625 45.40625 27.296875 
Q 45.40625 37.203125 41.296875 42.84375 
Q 37.203125 48.484375 30.078125 48.484375 
Q 22.953125 48.484375 18.875 42.84375 
Q 14.796875 37.203125 14.796875 27.296875 
z
" id="DejaVuSans-100"/>
       <path d="M 54.890625 33.015625 
L 54.890625 0 
L 45.90625 0 
L 45.90625 32.71875 
Q 45.90625 40.484375 42.875 44.328125 
Q 39.84375 48.1875 33.796875 48.1875 
Q 26.515625 48.1875 22.3125 43.546875 
Q 18.109375 38.921875 18.109375 30.90625 
L 18.109375 0 
L 9.078125 0 
L 9.078125 54.6875 
L 18.109375 54.6875 
L 18.109375 46.1875 
Q 21.34375 51.125 25.703125 53.5625 
Q 30.078125 56 35.796875 56 
Q 45.21875 56 50.046875 50.171875 
Q 54.890625 44.34375 54.890625 33.015625 
z
" id="DejaVuSans-110"/>
       <path d="M 2.984375 54.6875 
L 12.5 54.6875 
L 29.59375 8.796875 
L 46.6875 54.6875 
L 56.203125 54.6875 
L 35.6875 0 
L 23.484375 0 
z
" id="DejaVuSans-118"/>
       <path d="M 8.015625 75.875 
L 15.828125 75.875 
Q 23.140625 64.359375 26.78125 53.3125 
Q 30.421875 42.28125 30.421875 31.390625 
Q 30.421875 20.453125 26.78125 9.375 
Q 23.140625 -1.703125 15.828125 -13.1875 
L 8.015625 -13.1875 
Q 14.5 -2 17.703125 9.0625 
Q 20.90625 20.125 20.90625 31.390625 
Q 20.90625 42.671875 17.703125 53.65625 
Q 14.5 64.65625 8.015625 75.875 
z
" id="DejaVuSans-41"/>
      </defs>
      <use xlink:href="#DejaVuSans-70"/>
      <use x="52.019531" xlink:href="#DejaVuSans-117"/>
      <use x="115.398438" xlink:href="#DejaVuSans-122"/>
      <use x="167.888672" xlink:href="#DejaVuSans-122"/>
      <use x="220.378906" xlink:href="#DejaVuSans-101"/>
      <use x="281.902344" xlink:href="#DejaVuSans-114"/>
      <use x="323.015625" xlink:href="#DejaVuSans-32"/>
      <use x="354.802734" xlink:href="#DejaVuSans-40"/>
      <use x="393.816406" xlink:href="#DejaVuSans-104"/>
      <use x="457.195312" xlink:href="#DejaVuSans-105"/>
      <use x="484.978516" xlink:href="#DejaVuSans-103"/>
      <use x="548.455078" xlink:href="#DejaVuSans-104"/>
      <use x="611.833984" xlink:href="#DejaVuSans-101"/>
      <use x="673.357422" xlink:href="#DejaVuSans-115"/>
      <use x="725.457031" xlink:href="#DejaVuSans-116"/>
      <use x="764.666016" xlink:href="#DejaVuSans-32"/>
      <use x="796.453125" xlink:href="#DejaVuSans-109"/>
      <use x="893.865234" xlink:href="#DejaVuSans-101"/>
      <use x="955.388672" xlink:href="#DejaVuSans-100"/>
      <use x="1018.865234" xlink:href="#DejaVuSans-105"/>
      <use x="1046.648438" xlink:href="#DejaVuSans-97"/>
      <use x="1107.927734" xlink:href="#DejaVuSans-110"/>
      <use x="1171.306641" xlink:href="#DejaVuSans-32"/>
      <use x="1203.09375" xlink:href="#DejaVuSans-99"/>
      <use x="1258.074219" xlink:href="#DejaVuSans-111"/>
      <use x="1319.255859" xlink:href="#DejaVuSans-118"/>
      <use x="1378.435547" xlink:href="#DejaVuSans-101"/>
      <use x="1439.958984" xlink:href="#DejaVuSans-114"/>
      <use x="1481.072266" xlink:href="#DejaVuSans-97"/>
      <use x="1542.351562" xlink:href="#DejaVuSans-103"/>
      <use x="1605.828125" xlink:href="#DejaVuSans-101"/>
      <use x="1667.351562" xlink:href="#DejaVuSans-32"/>
      <use x="1699.138672" xlink:href="#DejaVuSans-111"/>
      <use x="1760.320312" xlink:href="#DejaVuSans-110"/>
      <use x="1823.699219" xlink:href="#DejaVuSans-32"/>
      <use x="1855.486328" xlink:href="#DejaVuSans-116"/>
      <use x="1894.695312" xlink:href="#DejaVuSans-104"/>
      <use x="1958.074219" xlink:href="#DejaVuSans-101"/>
      <use x="2019.597656" xlink:href="#DejaVuSans-32"/>
      <use x="2051.384766" xlink:href="#DejaVuSans-108"/>
      <use x="2079.167969" xlink:href="#DejaVuSans-101"/>
      <use x="2140.691406" xlink:href="#DejaVuSans-102"/>
      <use x="2174.146484" xlink:href="#DejaVuSans-116"/>
      <use x="2213.355469" xlink:href="#DejaVuSans-41"/>
     </g>
    </g>
   </g>
   <g id="matplotlib.axis_2">
    <g id="ytick_1">
     <g id="line2d_4">
      <defs>
       <path d="M 0 0 
L -3.5 0 
" id="m274504c0b2" style="stroke:#000000;stroke-width:0.8;"/>
      </defs>
      <g>
       <use style="stroke:#000000;stroke-width:0.8;" x="53.328125" xlink:href="#m274504c0b2" y="264.521522"/>
      </g>
     </g>
     <g id="text_5">
      <!-- 7200 -->
      <g transform="translate(20.878125 268.320741)scale(0.1 -0.1)">
       <defs>
        <path d="M 8.203125 72.90625 
L 55.078125 72.90625 
L 55.078125 68.703125 
L 28.609375 0 
L 18.3125 0 
L 43.21875 64.59375 
L 8.203125 64.59375 
z
" id="DejaVuSans-55"/>
        <path d="M 19.1875 8.296875 
L 53.609375 8.296875 
L 53.609375 0 
L 7.328125 0 
L 7.328125 8.296875 
Q 12.9375 14.109375 22.625 23.890625 
Q 32.328125 33.6875 34.8125 36.53125 
Q 39.546875 41.84375 41.421875 45.53125 
Q 43.3125 49.21875 43.3125 52.78125 
Q 43.3125 58.59375 39.234375 62.25 
Q 35.15625 65.921875 28.609375 65.921875 
Q 23.96875 65.921875 18.8125 64.3125 
Q 13.671875 62.703125 7.8125 59.421875 
L 7.8125 69.390625 
Q 13.765625 71.78125 18.9375 73 
Q 24.125 74.21875 28.421875 74.21875 
Q 39.75 74.21875 46.484375 68.546875 
Q 53.21875 62.890625 53.21875 53.421875 
Q 53.21875 48.921875 51.53125 44.890625 
Q 49.859375 40.875 45.40625 35.40625 
Q 44.1875 33.984375 37.640625 27.21875 
Q 31.109375 20.453125 19.1875 8.296875 
z
" id="DejaVuSans-50"/>
        <path d="M 31.78125 66.40625 
Q 24.171875 66.40625 20.328125 58.90625 
Q 16.5 51.421875 16.5 36.375 
Q 16.5 21.390625 20.328125 13.890625 
Q 24.171875 6.390625 31.78125 6.390625 
Q 39.453125 6.390625 43.28125 13.890625 
Q 47.125 21.390625 47.125 36.375 
Q 47.125 51.421875 43.28125 58.90625 
Q 39.453125 66.40625 31.78125 66.40625 
z
M 31.78125 74.21875 
Q 44.046875 74.21875 50.515625 64.515625 
Q 56.984375 54.828125 56.984375 36.375 
Q 56.984375 17.96875 50.515625 8.265625 
Q 44.046875 -1.421875 31.78125 -1.421875 
Q 19.53125 -1.421875 13.0625 8.265625 
Q 6.59375 17.96875 6.59375 36.375 
Q 6.59375 54.828125 13.0625 64.515625 
Q 19.53125 74.21875 31.78125 74.21875 
z
" id="DejaVuSans-48"/>
       </defs>
       <use xlink:href="#DejaVuSans-55"/>
       <use x="63.623047" xlink:href="#DejaVuSans-50"/>
       <use x="127.246094" xlink:href="#DejaVuSans-48"/>
       <use x="190.869141" xlink:href="#DejaVuSans-48"/>
      </g>
     </g>
    </g>
    <g id="ytick_2">
     <g id="line2d_5">
      <g>
       <use style="stroke:#000000;stroke-width:0.8;" x="53.328125" xlink:href="#m274504c0b2" y="222.281306"/>
      </g>
     </g>
     <g id="text_6">
      <!-- 7300 -->
      <g transform="translate(20.878125 226.080525)scale(0.1 -0.1)">
       <defs>
        <path d="M 40.578125 39.3125 
Q 47.65625 37.796875 51.625 33 
Q 55.609375 28.21875 55.609375 21.1875 
Q 55.609375 10.40625 48.1875 4.484375 
Q 40.765625 -1.421875 27.09375 -1.421875 
Q 22.515625 -1.421875 17.65625 -0.515625 
Q 12.796875 0.390625 7.625 2.203125 
L 7.625 11.71875 
Q 11.71875 9.328125 16.59375 8.109375 
Q 21.484375 6.890625 26.8125 6.890625 
Q 36.078125 6.890625 40.9375 10.546875 
Q 45.796875 14.203125 45.796875 21.1875 
Q 45.796875 27.640625 41.28125 31.265625 
Q 36.765625 34.90625 28.71875 34.90625 
L 20.21875 34.90625 
L 20.21875 43.015625 
L 29.109375 43.015625 
Q 36.375 43.015625 40.234375 45.921875 
Q 44.09375 48.828125 44.09375 54.296875 
Q 44.09375 59.90625 40.109375 62.90625 
Q 36.140625 65.921875 28.71875 65.921875 
Q 24.65625 65.921875 20.015625 65.03125 
Q 15.375 64.15625 9.8125 62.3125 
L 9.8125 71.09375 
Q 15.4375 72.65625 20.34375 73.4375 
Q 25.25 74.21875 29.59375 74.21875 
Q 40.828125 74.21875 47.359375 69.109375 
Q 53.90625 64.015625 53.90625 55.328125 
Q 53.90625 49.265625 50.4375 45.09375 
Q 46.96875 40.921875 40.578125 39.3125 
z
" id="DejaVuSans-51"/>
       </defs>
       <use xlink:href="#DejaVuSans-55"/>
       <use x="63.623047" xlink:href="#DejaVuSans-51"/>
       <use x="127.246094" xlink:href="#DejaVuSans-48"/>
       <use x="190.869141" xlink:href="#DejaVuSans-48"/>
      </g>
     </g>
    </g>
    <g id="ytick_3">
     <g id="line2d_6">
      <g>
       <use style="stroke:#000000;stroke-width:0.8;" x="53.328125" xlink:href="#m274504c0b2" y="180.04109"/>
      </g>
     </g>
     <g id="text_7">
      <!-- 7400 -->
      <g transform="translate(20.878125 183.840309)scale(0.1 -0.1)">
       <defs>
        <path d="M 37.796875 64.3125 
L 12.890625 25.390625 
L 37.796875 25.390625 
z
M 35.203125 72.90625 
L 47.609375 72.90625 
L 47.609375 25.390625 
L 58.015625 25.390625 
L 58.015625 17.1875 
L 47.609375 17.1875 
L 47.609375 0 
L 37.796875 0 
L 37.796875 17.1875 
L 4.890625 17.1875 
L 4.890625 26.703125 
z
" id="DejaVuSans-52"/>
       </defs>
       <use xlink:href="#DejaVuSans-55"/>
       <use x="63.623047" xlink:href="#DejaVuSans-52"/>
       <use x="127.246094" xlink:href="#DejaVuSans-48"/>
       <use x="190.869141" xlink:href="#DejaVuSans-48"/>
      </g>
     </g>
    </g>
    <g id="ytick_4">
     <g id="line2d_7">
      <g>
       <use style="stroke:#000000;stroke-width:0.8;" x="53.328125" xlink:href="#m274504c0b2" y="137.800874"/>
      </g>
     </g>
     <g id="text_8">
      <!-- 7500 -->
      <g transform="translate(20.878125 141.600093)scale(0.1 -0.1)">
       <defs>
        <path d="M 10.796875 72.90625 
L 49.515625 72.90625 
L 49.515625 64.59375 
L 19.828125 64.59375 
L 19.828125 46.734375 
Q 21.96875 47.46875 24.109375 47.828125 
Q 26.265625 48.1875 28.421875 48.1875 
Q 40.625 48.1875 47.75 41.5 
Q 54.890625 34.8125 54.890625 23.390625 
Q 54.890625 11.625 47.5625 5.09375 
Q 40.234375 -1.421875 26.90625 -1.421875 
Q 22.3125 -1.421875 17.546875 -0.640625 
Q 12.796875 0.140625 7.71875 1.703125 
L 7.71875 11.625 
Q 12.109375 9.234375 16.796875 8.0625 
Q 21.484375 6.890625 26.703125 6.890625 
Q 35.15625 6.890625 40.078125 11.328125 
Q 45.015625 15.765625 45.015625 23.390625 
Q 45.015625 31 40.078125 35.4375 
Q 35.15625 39.890625 26.703125 39.890625 
Q 22.75 39.890625 18.8125 39.015625 
Q 14.890625 38.140625 10.796875 36.28125 
z
" id="DejaVuSans-53"/>
       </defs>
       <use xlink:href="#DejaVuSans-55"/>
       <use x="63.623047" xlink:href="#DejaVuSans-53"/>
       <use x="127.246094" xlink:href="#DejaVuSans-48"/>
       <use x="190.869141" xlink:href="#DejaVuSans-48"/>
      </g>
     </g>
    </g>
    <g id="ytick_5">
     <g id="line2d_8">
      <g>
       <use style="stroke:#000000;stroke-width:0.8;" x="53.328125" xlink:href="#m274504c0b2" y="95.560658"/>
      </g>
     </g>
     <g id="text_9">
      <!-- 7600 -->
      <g transform="translate(20.878125 99.359877)scale(0.1 -0.1)">
       <defs>
        <path d="M 33.015625 40.375 
Q 26.375 40.375 22.484375 35.828125 
Q 18.609375 31.296875 18.609375 23.390625 
Q 18.609375 15.53125 22.484375 10.953125 
Q 26.375 6.390625 33.015625 6.390625 
Q 39.65625 6.390625 43.53125 10.953125 
Q 47.40625 15.53125 47.40625 23.390625 
Q 47.40625 31.296875 43.53125 35.828125 
Q 39.65625 40.375 33.015625 40.375 
z
M 52.59375 71.296875 
L 52.59375 62.3125 
Q 48.875 64.0625 45.09375 64.984375 
Q 41.3125 65.921875 37.59375 65.921875 
Q 27.828125 65.921875 22.671875 59.328125 
Q 17.53125 52.734375 16.796875 39.40625 
Q 19.671875 43.65625 24.015625 45.921875 
Q 28.375 48.1875 33.59375 48.1875 
Q 44.578125 48.1875 50.953125 41.515625 
Q 57.328125 34.859375 57.328125 23.390625 
Q 57.328125 12.15625 50.6875 5.359375 
Q 44.046875 -1.421875 33.015625 -1.421875 
Q 20.359375 -1.421875 13.671875 8.265625 
Q 6.984375 17.96875 6.984375 36.375 
Q 6.984375 53.65625 15.1875 63.9375 
Q 23.390625 74.21875 37.203125 74.21875 
Q 40.921875 74.21875 44.703125 73.484375 
Q 48.484375 72.75 52.59375 71.296875 
z
" id="DejaVuSans-54"/>
       </defs>
       <use xlink:href="#DejaVuSans-55"/>
       <use x="63.623047" xlink:href="#DejaVuSans-54"/>
       <use x="127.246094" xlink:href="#DejaVuSans-48"/>
       <use x="190.869141" xlink:href="#DejaVuSans-48"/>
      </g>
     </g>
    </g>
    <g id="ytick_6">
     <g id="line2d_9">
      <g>
       <use style="stroke:#000000;stroke-width:0.8;" x="53.328125" xlink:href="#m274504c0b2" y="53.320442"/>
      </g>
     </g>
     <g id="text_10">
      <!-- 7700 -->
      <g transform="translate(20.878125 57.119661)scale(0.1 -0.1)">
       <use xlink:href="#DejaVuSans-55"/>
       <use x="63.623047" xlink:href="#DejaVuSans-55"/>
       <use x="127.246094" xlink:href="#DejaVuSans-48"/>
       <use x="190.869141" xlink:href="#DejaVuSans-48"/>
      </g>
     </g>
    </g>
    <g id="text_11">
     <!-- Reached region coverage -->
     <g transform="translate(14.798438 219.136625)rotate(-90)scale(0.1 -0.1)">
      <defs>
       <path d="M 44.390625 34.1875 
Q 47.5625 33.109375 50.5625 29.59375 
Q 53.5625 26.078125 56.59375 19.921875 
L 66.609375 0 
L 56 0 
L 46.6875 18.703125 
Q 43.0625 26.03125 39.671875 28.421875 
Q 36.28125 30.8125 30.421875 30.8125 
L 19.671875 30.8125 
L 19.671875 0 
L 9.8125 0 
L 9.8125 72.90625 
L 32.078125 72.90625 
Q 44.578125 72.90625 50.734375 67.671875 
Q 56.890625 62.453125 56.890625 51.90625 
Q 56.890625 45.015625 53.6875 40.46875 
Q 50.484375 35.9375 44.390625 34.1875 
z
M 19.671875 64.796875 
L 19.671875 38.921875 
L 32.078125 38.921875 
Q 39.203125 38.921875 42.84375 42.21875 
Q 46.484375 45.515625 46.484375 51.90625 
Q 46.484375 58.296875 42.84375 61.546875 
Q 39.203125 64.796875 32.078125 64.796875 
z
" id="DejaVuSans-82"/>
      </defs>
      <use xlink:href="#DejaVuSans-82"/>
      <use x="64.982422" xlink:href="#DejaVuSans-101"/>
      <use x="126.505859" xlink:href="#DejaVuSans-97"/>
      <use x="187.785156" xlink:href="#DejaVuSans-99"/>
      <use x="242.765625" xlink:href="#DejaVuSans-104"/>
      <use x="306.144531" xlink:href="#DejaVuSans-101"/>
      <use x="367.667969" xlink:href="#DejaVuSans-100"/>
      <use x="431.144531" xlink:href="#DejaVuSans-32"/>
      <use x="462.931641" xlink:href="#DejaVuSans-114"/>
      <use x="501.794922" xlink:href="#DejaVuSans-101"/>
      <use x="563.318359" xlink:href="#DejaVuSans-103"/>
      <use x="626.794922" xlink:href="#DejaVuSans-105"/>
      <use x="654.578125" xlink:href="#DejaVuSans-111"/>
      <use x="715.759766" xlink:href="#DejaVuSans-110"/>
      <use x="779.138672" xlink:href="#DejaVuSans-32"/>
      <use x="810.925781" xlink:href="#DejaVuSans-99"/>
      <use x="865.90625" xlink:href="#DejaVuSans-111"/>
      <use x="927.087891" xlink:href="#DejaVuSans-118"/>
      <use x="986.267578" xlink:href="#DejaVuSans-101"/>
      <use x="1047.791016" xlink:href="#DejaVuSans-114"/>
      <use x="1088.904297" xlink:href="#DejaVuSans-97"/>
      <use x="1150.183594" xlink:href="#DejaVuSans-103"/>
      <use x="1213.660156" xlink:href="#DejaVuSans-101"/>
     </g>
    </g>
   </g>
   <g id="line2d_10">
    <path clip-path="url(#pb19909a16b)" d="M 112.848125 150.895341 
L 112.848125 81.198984 
" style="fill:none;stroke:#3f3f3f;stroke-linecap:square;stroke-width:1.5;"/>
   </g>
   <g id="line2d_11">
    <path clip-path="url(#pb19909a16b)" d="M 112.848125 135.266461 
L 112.848125 85.000604 
" style="fill:none;stroke:#3f3f3f;stroke-linecap:square;stroke-width:4.5;"/>
   </g>
   <g id="line2d_12">
    <path clip-path="url(#pb19909a16b)" d="M 231.888125 203.695611 
L 231.888125 190.601144 
" style="fill:none;stroke:#3f3f3f;stroke-linecap:square;stroke-width:1.5;"/>
   </g>
   <g id="line2d_13">
    <path clip-path="url(#pb19909a16b)" d="M 231.888125 202.850807 
L 231.888125 190.601144 
" style="fill:none;stroke:#3f3f3f;stroke-linecap:square;stroke-width:4.5;"/>
   </g>
   <g id="line2d_14">
    <path clip-path="url(#pb19909a16b)" d="M 350.928125 231.151751 
L 350.928125 152.58495 
" style="fill:none;stroke:#3f3f3f;stroke-linecap:square;stroke-width:1.5;"/>
   </g>
   <g id="line2d_15">
    <path clip-path="url(#pb19909a16b)" d="M 350.928125 213.410861 
L 350.928125 176.23947 
" style="fill:none;stroke:#3f3f3f;stroke-linecap:square;stroke-width:4.5;"/>
   </g>
   <g id="patch_3">
    <path d="M 53.328125 264.521522 
L 53.328125 53.320442 
" style="fill:none;stroke:#000000;stroke-linecap:square;stroke-linejoin:miter;stroke-width:0.8;"/>
   </g>
   <g id="patch_4">
    <path d="M 112.848125 288.430125 
L 350.928125 288.430125 
" style="fill:none;stroke:#000000;stroke-linecap:square;stroke-linejoin:miter;stroke-width:0.8;"/>
   </g>
   <g id="PathCollection_1">
    <defs>
     <path d="M 0 1.5 
C 0.397805 1.5 0.77937 1.341951 1.06066 1.06066 
C 1.341951 0.77937 1.5 0.397805 1.5 0 
C 1.5 -0.397805 1.341951 -0.77937 1.06066 -1.06066 
C 0.77937 -1.341951 0.397805 -1.5 0 -1.5 
C -0.397805 -1.5 -0.77937 -1.341951 -1.06066 -1.06066 
C -1.341951 -0.77937 -1.5 -0.397805 -1.5 0 
C -1.5 0.397805 -1.341951 0.77937 -1.06066 1.06066 
C -0.77937 1.341951 -0.397805 1.5 0 1.5 
z
" id="me6c89d9718" style="stroke:#3f3f3f;"/>
    </defs>
    <g clip-path="url(#pb19909a16b)">
     <use style="fill:#ffffff;stroke:#3f3f3f;" x="112.848125" xlink:href="#me6c89d9718" y="89.647028"/>
    </g>
   </g>
   <g id="PathCollection_2">
    <g clip-path="url(#pb19909a16b)">
     <use style="fill:#ffffff;stroke:#3f3f3f;" x="231.888125" xlink:href="#me6c89d9718" y="192.713155"/>
    </g>
   </g>
   <g id="PathCollection_3">
    <g clip-path="url(#pb19909a16b)">
     <use style="fill:#ffffff;stroke:#3f3f3f;" x="350.928125" xlink:href="#me6c89d9718" y="204.540415"/>
    </g>
   </g>
   <g id="text_12">
    <!-- harfbuzz-1.3.2 (2h, 5 trials/fuzzer) -->
    <g transform="translate(129.395 16.318125)scale(0.12 -0.12)">
     <defs>
      <path d="M 48.6875 27.296875 
Q 48.6875 37.203125 44.609375 42.84375 
Q 40.53125 48.484375 33.40625 48.484375 
Q 26.265625 48.484375 22.1875 42.84375 
Q 18.109375 37.203125 18.109375 27.296875 
Q 18.109375 17.390625 22.1875 11.75 
Q 26.265625 6.109375 33.40625 6.109375 
Q 40.53125 6.109375 44.609375 11.75 
Q 48.6875 17.390625 48.6875 27.296875 
z
M 18.109375 46.390625 
Q 20.953125 51.265625 25.265625 53.625 
Q 29.59375 56 35.59375 56 
Q 45.5625 56 51.78125 48.09375 
Q 58.015625 40.1875 58.015625 27.296875 
Q 58.015625 14.40625 51.78125 6.484375 
Q 45.5625 -1.421875 35.59375 -1.421875 
Q 29.59375 -1.421875 25.265625 0.953125 
Q 20.953125 3.328125 18.109375 8.203125 
L 18.109375 0 
L 9.078125 0 
L 9.078125 75.984375 
L 18.109375 75.984375 
z
" id="DejaVuSans-98"/>
      <path d="M 4.890625 31.390625 
L 31.203125 31.390625 
L 31.203125 23.390625 
L 4.890625 23.390625 
z
" id="DejaVuSans-45"/>
      <path d="M 12.40625 8.296875 
L 28.515625 8.296875 
L 28.515625 63.921875 
L 10.984375 60.40625 
L 10.984375 69.390625 
L 28.421875 72.90625 
L 38.28125 72.90625 
L 38.28125 8.296875 
L 54.390625 8.296875 
L 54.390625 0 
L 12.40625 0 
z
" id="DejaVuSans-49"/>
      <path d="M 10.6875 12.40625 
L 21 12.40625 
L 21 0 
L 10.6875 0 
z
" id="DejaVuSans-46"/>
      <path d="M 11.71875 12.40625 
L 22.015625 12.40625 
L 22.015625 4 
L 14.015625 -11.625 
L 7.71875 -11.625 
L 11.71875 4 
z
" id="DejaVuSans-44"/>
      <path d="M 25.390625 72.90625 
L 33.6875 72.90625 
L 8.296875 -9.28125 
L 0 -9.28125 
z
" id="DejaVuSans-47"/>
     </defs>
     <use xlink:href="#DejaVuSans-104"/>
     <use x="63.378906" xlink:href="#DejaVuSans-97"/>
     <use x="124.658203" xlink:href="#DejaVuSans-114"/>
     <use x="165.771484" xlink:href="#DejaVuSans-102"/>
     <use x="200.976562" xlink:href="#DejaVuSans-98"/>
     <use x="264.453125" xlink:href="#DejaVuSans-117"/>
     <use x="327.832031" xlink:href="#DejaVuSans-122"/>
     <use x="380.322266" xlink:href="#DejaVuSans-122"/>
     <use x="432.8125" xlink:href="#DejaVuSans-45"/>
     <use x="468.896484" xlink:href="#DejaVuSans-49"/>
     <use x="532.519531" xlink:href="#DejaVuSans-46"/>
     <use x="564.306641" xlink:href="#DejaVuSans-51"/>
     <use x="627.929688" xlink:href="#DejaVuSans-46"/>
     <use x="659.716797" xlink:href="#DejaVuSans-50"/>
     <use x="723.339844" xlink:href="#DejaVuSans-32"/>
     <use x="755.126953" xlink:href="#DejaVuSans-40"/>
     <use x="794.140625" xlink:href="#DejaVuSans-50"/>
     <use x="857.763672" xlink:href="#DejaVuSans-104"/>
     <use x="921.142578" xlink:href="#DejaVuSans-44"/>
     <use x="952.929688" xlink:href="#DejaVuSans-32"/>
     <use x="984.716797" xlink:href="#DejaVuSans-53"/>
     <use x="1048.339844" xlink:href="#DejaVuSans-32"/>
     <use x="1080.126953" xlink:href="#DejaVuSans-116"/>
     <use x="1119.335938" xlink:href="#DejaVuSans-114"/>
     <use x="1160.449219" xlink:href="#DejaVuSans-105"/>
     <use x="1188.232422" xlink:href="#DejaVuSans-97"/>
     <use x="1249.511719" xlink:href="#DejaVuSans-108"/>
     <use x="1277.294922" xlink:href="#DejaVuSans-115"/>
     <use x="1329.394531" xlink:href="#DejaVuSans-47"/>
     <use x="1363.085938" xlink:href="#DejaVuSans-102"/>
     <use x="1398.291016" xlink:href="#DejaVuSans-117"/>
     <use x="1461.669922" xlink:href="#DejaVuSans-122"/>
     <use x="1514.160156" xlink:href="#DejaVuSans-122"/>
     <use x="1566.650391" xlink:href="#DejaVuSans-101"/>
     <use x="1628.173828" xlink:href="#DejaVuSans-114"/>
     <use x="1669.287109" xlink:href="#DejaVuSans-41"/>
    </g>
   </g>
  </g>
 </g>
 <defs>
  <clipPath id="pb19909a16b">
   <rect height="266.112" width="357.12" x="53.328125" y="22.318125"/>
  </clipPath>
 </defs>
</svg>
