<?xml version="1.0" encoding="utf-8" standalone="no"?>
<!DOCTYPE svg PUBLIC "-//W3C//DTD SVG 1.1//EN"
  "http://www.w3.org/Graphics/SVG/1.1/DTD/svg11.dtd">
<!-- Created with matplotlib (https://matplotlib.org/) -->
<svg height="375.89624pt" version="1.1" viewBox="0 0 417.648125 375.89624" width="417.648125pt" xmlns="http://www.w3.org/2000/svg" xmlns:xlink="http://www.w3.org/1999/xlink">
 <metadata>
  <rdf:RDF xmlns:cc="http://creativecommons.org/ns#" xmlns:dc="http://purl.org/dc/elements/1.1/" xmlns:rdf="http://www.w3.org/1999/02/22-rdf-syntax-ns#">
   <cc:Work>
    <dc:type rdf:resource="http://purl.org/dc/dcmitype/StillImage"/>
    <dc:date>2020-11-16T19:30:45.961941</dc:date>
    <dc:format>image/svg+xml</dc:format>
    <dc:creator>
     <cc:Agent>
      <dc:title>Matplotlib v3.3.2, https://matplotlib.org/</dc:title>
     </cc:Agent>
    </dc:creator>
   </cc:Work>
  </rdf:RDF>
 </metadata>
 <defs>
  <style type="text/css">*{stroke-linecap:butt;stroke-linejoin:round;}</style>
 </defs>
 <g id="figure_1">
  <g id="patch_1">
   <path d="M 0 375.89624 
L 417.648125 375.89624 
L 417.648125 0 
L 0 0 
z
" style="fill:#ffffff;"/>
  </g>
  <g id="axes_1">
   <g id="patch_2">
    <path d="M 53.328125 288.430125 
L 410.448125 288.430125 
L 410.448125 22.318125 
L 53.328125 22.318125 
z
" style="fill:#ffffff;"/>
   </g>
   <g id="PolyCollection_1">
    <defs>
     <path d="M 114.015557 -146.184135 
L 111.680693 -146.184135 
L 111.480997 -148.156842 
L 111.256792 -150.129549 
L 111.0069 -152.102255 
L 110.730403 -154.074962 
L 110.426688 -156.047669 
L 110.095487 -158.020376 
L 109.736906 -159.993083 
L 109.351443 -161.96579 
L 108.939988 -163.938497 
L 108.503808 -165.911204 
L 108.044513 -167.88391 
L 107.564005 -169.856617 
L 107.064404 -171.829324 
L 106.547961 -173.802031 
L 106.016958 -175.774738 
L 105.473597 -177.747445 
L 104.919884 -179.720152 
L 104.357522 -181.692859 
L 103.787804 -183.665565 
L 103.21153 -185.638272 
L 102.628948 -187.610979 
L 102.039717 -189.583686 
L 101.442915 -191.556393 
L 100.837083 -193.5291 
L 100.220308 -195.501807 
L 99.590346 -197.474514 
L 98.944793 -199.44722 
L 98.281273 -201.419927 
L 97.597662 -203.392634 
L 96.892318 -205.365341 
L 96.164327 -207.338048 
L 95.413717 -209.310755 
L 94.641671 -211.283462 
L 93.850685 -213.256169 
L 93.044686 -215.228875 
L 92.229087 -217.201582 
L 91.410774 -219.174289 
L 90.598025 -221.146996 
L 89.800349 -223.119703 
L 89.028263 -225.09241 
L 88.293003 -227.065117 
L 87.606184 -229.037824 
L 86.979417 -231.01053 
L 86.423916 -232.983237 
L 85.950094 -234.955944 
L 85.567174 -236.928651 
L 85.28284 -238.901358 
L 85.102937 -240.874065 
L 85.03124 -242.846772 
L 85.069299 -244.819479 
L 85.216374 -246.792185 
L 85.469459 -248.764892 
L 85.823394 -250.737599 
L 86.271062 -252.710306 
L 86.803662 -254.683013 
L 87.411035 -256.65572 
L 88.082043 -258.628427 
L 88.804971 -260.601134 
L 89.567932 -262.57384 
L 90.359266 -264.546547 
L 91.167905 -266.519254 
L 91.983697 -268.491961 
L 92.797667 -270.464668 
L 93.602217 -272.437375 
L 94.391248 -274.410082 
L 95.160209 -276.382789 
L 95.906081 -278.355495 
L 96.627281 -280.328202 
L 97.323525 -282.300909 
L 97.995635 -284.273616 
L 98.645316 -286.246323 
L 99.274913 -288.21903 
L 99.887166 -290.191737 
L 100.484967 -292.164444 
L 101.071137 -294.13715 
L 101.648235 -296.109857 
L 102.218399 -298.082564 
L 102.783228 -300.055271 
L 103.343706 -302.027978 
L 103.900172 -304.000685 
L 104.452323 -305.973392 
L 104.99926 -307.946099 
L 105.539559 -309.918805 
L 106.071365 -311.891512 
L 106.592504 -313.864219 
L 107.100602 -315.836926 
L 107.593206 -317.809633 
L 108.067898 -319.78234 
L 108.522398 -321.755047 
L 108.95466 -323.727754 
L 109.362939 -325.70046 
L 109.745849 -327.673167 
L 110.102393 -329.645874 
L 110.431983 -331.618581 
L 110.734434 -333.591288 
L 111.009946 -335.563995 
L 111.259078 -337.536702 
L 111.4827 -339.509409 
L 111.681953 -341.482115 
L 114.014297 -341.482115 
L 114.014297 -341.482115 
L 114.21355 -339.509409 
L 114.437172 -337.536702 
L 114.686304 -335.563995 
L 114.961816 -333.591288 
L 115.264267 -331.618581 
L 115.593857 -329.645874 
L 115.950401 -327.673167 
L 116.333311 -325.70046 
L 116.74159 -323.727754 
L 117.173852 -321.755047 
L 117.628352 -319.78234 
L 118.103044 -317.809633 
L 118.595648 -315.836926 
L 119.103746 -313.864219 
L 119.624885 -311.891512 
L 120.156691 -309.918805 
L 120.69699 -307.946099 
L 121.243927 -305.973392 
L 121.796078 -304.000685 
L 122.352544 -302.027978 
L 122.913022 -300.055271 
L 123.477851 -298.082564 
L 124.048015 -296.109857 
L 124.625113 -294.13715 
L 125.211283 -292.164444 
L 125.809084 -290.191737 
L 126.421337 -288.21903 
L 127.050934 -286.246323 
L 127.700615 -284.273616 
L 128.372725 -282.300909 
L 129.068969 -280.328202 
L 129.790169 -278.355495 
L 130.536041 -276.382789 
L 131.305002 -274.410082 
L 132.094033 -272.437375 
L 132.898583 -270.464668 
L 133.712553 -268.491961 
L 134.528345 -266.519254 
L 135.336984 -264.546547 
L 136.128318 -262.57384 
L 136.891279 -260.601134 
L 137.614207 -258.628427 
L 138.285215 -256.65572 
L 138.892588 -254.683013 
L 139.425188 -252.710306 
L 139.872856 -250.737599 
L 140.226791 -248.764892 
L 140.479876 -246.792185 
L 140.626951 -244.819479 
L 140.66501 -242.846772 
L 140.593313 -240.874065 
L 140.41341 -238.901358 
L 140.129076 -236.928651 
L 139.746156 -234.955944 
L 139.272334 -232.983237 
L 138.716833 -231.01053 
L 138.090066 -229.037824 
L 137.403247 -227.065117 
L 136.667987 -225.09241 
L 135.895901 -223.119703 
L 135.098225 -221.146996 
L 134.285476 -219.174289 
L 133.467163 -217.201582 
L 132.651564 -215.228875 
L 131.845565 -213.256169 
L 131.054579 -211.283462 
L 130.282533 -209.310755 
L 129.531923 -207.338048 
L 128.803932 -205.365341 
L 128.098588 -203.392634 
L 127.414977 -201.419927 
L 126.751457 -199.44722 
L 126.105904 -197.474514 
L 125.475942 -195.501807 
L 124.859167 -193.5291 
L 124.253335 -191.556393 
L 123.656533 -189.583686 
L 123.067302 -187.610979 
L 122.48472 -185.638272 
L 121.908446 -183.665565 
L 121.338728 -181.692859 
L 120.776366 -179.720152 
L 120.222653 -177.747445 
L 119.679292 -175.774738 
L 119.148289 -173.802031 
L 118.631846 -171.829324 
L 118.132245 -169.856617 
L 117.651737 -167.88391 
L 117.192442 -165.911204 
L 116.756262 -163.938497 
L 116.344807 -161.96579 
L 115.959344 -159.993083 
L 115.600763 -158.020376 
L 115.269562 -156.047669 
L 114.965847 -154.074962 
L 114.68935 -152.102255 
L 114.439458 -150.129549 
L 114.215253 -148.156842 
L 114.015557 -146.184135 
z
" id="m33935a400c" style="stroke:#3f3f3f;stroke-width:1.5;"/>
    </defs>
    <g clip-path="url(#p72cdab2686)">
     <use style="fill:#c03d3e;stroke:#3f3f3f;stroke-width:1.5;" x="0" xlink:href="#m33935a400c" y="375.89624"/>
    </g>
   </g>
   <g id="PolyCollection_2">
    <defs>
     <path d="M 236.405617 -199.239922 
L 227.370633 -199.239922 
L 226.613308 -200.532075 
L 225.761469 -201.824229 
L 224.809549 -203.116382 
L 223.752803 -204.408536 
L 222.587542 -205.700689 
L 221.311372 -206.992842 
L 219.923434 -208.284996 
L 218.424634 -209.577149 
L 216.817852 -210.869302 
L 215.108123 -212.161456 
L 213.302782 -213.453609 
L 211.411563 -214.745763 
L 209.446636 -216.037916 
L 207.422587 -217.330069 
L 205.356325 -218.622223 
L 203.266919 -219.914376 
L 201.175358 -221.206529 
L 199.104244 -222.498683 
L 197.077409 -223.790836 
L 195.119477 -225.08299 
L 193.255375 -226.375143 
L 191.509804 -227.667296 
L 189.906685 -228.95945 
L 188.468603 -230.251603 
L 187.216258 -231.543756 
L 186.167946 -232.83591 
L 185.339084 -234.128063 
L 184.741802 -235.420217 
L 184.384603 -236.71237 
L 184.272125 -238.004523 
L 184.404987 -239.296677 
L 184.779748 -240.58883 
L 185.388967 -241.880983 
L 186.221366 -243.173137 
L 187.262095 -244.46529 
L 188.493079 -245.757444 
L 189.893453 -247.049597 
L 191.440045 -248.34175 
L 193.107921 -249.633904 
L 194.87095 -250.926057 
L 196.702387 -252.21821 
L 198.57545 -253.510364 
L 200.463871 -254.802517 
L 202.342423 -256.094671 
L 204.187391 -257.386824 
L 205.976987 -258.678977 
L 207.691697 -259.971131 
L 209.314566 -261.263284 
L 210.831396 -262.555437 
L 212.230881 -263.847591 
L 213.504666 -265.139744 
L 214.647335 -266.431898 
L 215.65634 -267.724051 
L 216.531872 -269.016204 
L 217.276681 -270.308358 
L 217.895851 -271.600511 
L 218.39655 -272.892664 
L 218.78774 -274.184818 
L 219.079881 -275.476971 
L 219.284616 -276.769125 
L 219.414454 -278.061278 
L 219.482449 -279.353431 
L 219.501901 -280.645585 
L 219.486054 -281.937738 
L 219.447822 -283.229891 
L 219.399536 -284.522045 
L 219.352719 -285.814198 
L 219.317884 -287.106352 
L 219.304374 -288.398505 
L 219.320232 -289.690658 
L 219.372108 -290.982812 
L 219.465199 -292.274965 
L 219.603234 -293.567118 
L 219.788485 -294.859272 
L 220.021818 -296.151425 
L 220.302768 -297.443578 
L 220.629651 -298.735732 
L 220.999688 -300.027885 
L 221.409157 -301.320039 
L 221.853549 -302.612192 
L 222.327747 -303.904345 
L 222.826188 -305.196499 
L 223.343042 -306.488652 
L 223.872377 -307.780805 
L 224.408306 -309.072959 
L 224.945133 -310.365112 
L 225.477475 -311.657266 
L 226.000361 -312.949419 
L 226.509317 -314.241572 
L 227.000423 -315.533726 
L 227.47036 -316.825879 
L 227.916419 -318.118032 
L 228.336512 -319.410186 
L 228.729148 -320.702339 
L 229.093406 -321.994493 
L 229.428893 -323.286646 
L 229.735693 -324.578799 
L 230.014307 -325.870953 
L 230.265595 -327.163106 
L 233.510655 -327.163106 
L 233.510655 -327.163106 
L 233.761943 -325.870953 
L 234.040557 -324.578799 
L 234.347357 -323.286646 
L 234.682844 -321.994493 
L 235.047102 -320.702339 
L 235.439738 -319.410186 
L 235.859831 -318.118032 
L 236.30589 -316.825879 
L 236.775827 -315.533726 
L 237.266933 -314.241572 
L 237.775889 -312.949419 
L 238.298775 -311.657266 
L 238.831117 -310.365112 
L 239.367944 -309.072959 
L 239.903873 -307.780805 
L 240.433208 -306.488652 
L 240.950062 -305.196499 
L 241.448503 -303.904345 
L 241.922701 -302.612192 
L 242.367093 -301.320039 
L 242.776562 -300.027885 
L 243.146599 -298.735732 
L 243.473482 -297.443578 
L 243.754432 -296.151425 
L 243.987765 -294.859272 
L 244.173016 -293.567118 
L 244.311051 -292.274965 
L 244.404142 -290.982812 
L 244.456018 -289.690658 
L 244.471876 -288.398505 
L 244.458366 -287.106352 
L 244.423531 -285.814198 
L 244.376714 -284.522045 
L 244.328428 -283.229891 
L 244.290196 -281.937738 
L 244.274349 -280.645585 
L 244.293801 -279.353431 
L 244.361796 -278.061278 
L 244.491634 -276.769125 
L 244.696369 -275.476971 
L 244.98851 -274.184818 
L 245.3797 -272.892664 
L 245.880399 -271.600511 
L 246.499569 -270.308358 
L 247.244378 -269.016204 
L 248.11991 -267.724051 
L 249.128915 -266.431898 
L 250.271584 -265.139744 
L 251.545369 -263.847591 
L 252.944854 -262.555437 
L 254.461684 -261.263284 
L 256.084553 -259.971131 
L 257.799263 -258.678977 
L 259.588859 -257.386824 
L 261.433827 -256.094671 
L 263.312379 -254.802517 
L 265.2008 -253.510364 
L 267.073863 -252.21821 
L 268.9053 -250.926057 
L 270.668329 -249.633904 
L 272.336205 -248.34175 
L 273.882797 -247.049597 
L 275.283171 -245.757444 
L 276.514155 -244.46529 
L 277.554884 -243.173137 
L 278.387283 -241.880983 
L 278.996502 -240.58883 
L 279.371263 -239.296677 
L 279.504125 -238.004523 
L 279.391647 -236.71237 
L 279.034448 -235.420217 
L 278.437166 -234.128063 
L 277.608304 -232.83591 
L 276.559992 -231.543756 
L 275.307647 -230.251603 
L 273.869565 -228.95945 
L 272.266446 -227.667296 
L 270.520875 -226.375143 
L 268.656773 -225.08299 
L 266.698841 -223.790836 
L 264.672006 -222.498683 
L 262.600892 -221.206529 
L 260.509331 -219.914376 
L 258.419925 -218.622223 
L 256.353663 -217.330069 
L 254.329614 -216.037916 
L 252.364687 -214.745763 
L 250.473468 -213.453609 
L 248.668127 -212.161456 
L 246.958398 -210.869302 
L 245.351616 -209.577149 
L 243.852816 -208.284996 
L 242.464878 -206.992842 
L 241.188708 -205.700689 
L 240.023447 -204.408536 
L 238.966701 -203.116382 
L 238.014781 -201.824229 
L 237.162942 -200.532075 
L 236.405617 -199.239922 
z
" id="mae4c83be32" style="stroke:#3f3f3f;stroke-width:1.5;"/>
    </defs>
    <g clip-path="url(#p72cdab2686)">
     <use style="fill:#9fd495;stroke:#3f3f3f;stroke-width:1.5;" x="0" xlink:href="#mae4c83be32" y="375.89624"/>
    </g>
   </g>
   <g id="PolyCollection_3">
    <defs>
     <path d="M 351.972063 -99.562115 
L 349.884187 -99.562115 
L 349.72346 -101.559196 
L 349.545353 -103.556276 
L 349.349318 -105.553356 
L 349.135036 -107.550437 
L 348.902449 -109.547517 
L 348.651798 -111.544597 
L 348.383654 -113.541678 
L 348.09895 -115.538758 
L 347.798991 -117.535839 
L 347.485472 -119.532919 
L 347.160478 -121.529999 
L 346.826467 -123.52708 
L 346.486251 -125.52416 
L 346.142958 -127.52124 
L 345.799981 -129.518321 
L 345.460914 -131.515401 
L 345.12948 -133.512481 
L 344.809441 -135.509562 
L 344.504503 -137.506642 
L 344.218216 -139.503722 
L 343.953864 -141.500803 
L 343.714358 -143.497883 
L 343.502133 -145.494963 
L 343.319037 -147.492044 
L 343.166247 -149.489124 
L 343.044181 -151.486204 
L 342.952428 -153.483285 
L 342.8897 -155.480365 
L 342.853795 -157.477445 
L 342.841584 -159.474526 
L 342.849022 -161.471606 
L 342.871176 -163.468686 
L 342.90228 -165.465767 
L 342.935812 -167.462847 
L 342.96459 -169.459927 
L 342.980892 -171.457008 
L 342.976594 -173.454088 
L 342.943323 -175.451168 
L 342.872628 -177.448249 
L 342.756161 -179.445329 
L 342.585871 -181.44241 
L 342.354194 -183.43949 
L 342.05426 -185.43657 
L 341.680087 -187.433651 
L 341.226772 -189.430731 
L 340.690675 -191.427811 
L 340.069586 -193.424892 
L 339.362867 -195.421972 
L 338.571582 -197.419052 
L 337.698582 -199.416133 
L 336.748569 -201.413213 
L 335.728112 -203.410293 
L 334.645628 -205.407374 
L 333.511313 -207.404454 
L 332.337032 -209.401534 
L 331.136158 -211.398615 
L 329.92337 -213.395695 
L 328.714404 -215.392775 
L 327.525767 -217.389856 
L 326.374422 -219.386936 
L 325.277442 -221.384016 
L 324.251651 -223.381097 
L 323.313259 -225.378177 
L 322.477494 -227.375257 
L 321.75826 -229.372338 
L 321.167809 -231.369418 
L 320.716455 -233.366498 
L 320.41233 -235.363579 
L 320.261199 -237.360659 
L 320.266324 -239.357739 
L 320.428402 -241.35482 
L 320.745563 -243.3519 
L 321.213438 -245.348981 
L 321.825284 -247.346061 
L 322.572173 -249.343141 
L 323.443236 -251.340222 
L 324.425936 -253.337302 
L 325.506393 -255.334382 
L 326.669721 -257.331463 
L 327.900376 -259.328543 
L 329.182511 -261.325623 
L 330.500316 -263.322704 
L 331.838342 -265.319784 
L 333.181793 -267.316864 
L 334.516784 -269.313945 
L 335.830559 -271.311025 
L 337.111666 -273.308105 
L 338.350077 -275.305186 
L 339.537277 -277.302266 
L 340.66629 -279.299346 
L 341.731683 -281.296427 
L 342.729514 -283.293507 
L 343.657258 -285.290587 
L 344.513705 -287.287668 
L 345.298834 -289.284748 
L 346.013674 -291.281828 
L 346.660158 -293.278909 
L 347.240968 -295.275989 
L 347.759384 -297.273069 
L 354.096866 -297.273069 
L 354.096866 -297.273069 
L 354.615282 -295.275989 
L 355.196092 -293.278909 
L 355.842576 -291.281828 
L 356.557416 -289.284748 
L 357.342545 -287.287668 
L 358.198992 -285.290587 
L 359.126736 -283.293507 
L 360.124567 -281.296427 
L 361.18996 -279.299346 
L 362.318973 -277.302266 
L 363.506173 -275.305186 
L 364.744584 -273.308105 
L 366.025691 -271.311025 
L 367.339466 -269.313945 
L 368.674457 -267.316864 
L 370.017908 -265.319784 
L 371.355934 -263.322704 
L 372.673739 -261.325623 
L 373.955874 -259.328543 
L 375.186529 -257.331463 
L 376.349857 -255.334382 
L 377.430314 -253.337302 
L 378.413014 -251.340222 
L 379.284077 -249.343141 
L 380.030966 -247.346061 
L 380.642812 -245.348981 
L 381.110687 -243.3519 
L 381.427848 -241.35482 
L 381.589926 -239.357739 
L 381.595051 -237.360659 
L 381.44392 -235.363579 
L 381.139795 -233.366498 
L 380.688441 -231.369418 
L 380.09799 -229.372338 
L 379.378756 -227.375257 
L 378.542991 -225.378177 
L 377.604599 -223.381097 
L 376.578808 -221.384016 
L 375.481828 -219.386936 
L 374.330483 -217.389856 
L 373.141846 -215.392775 
L 371.93288 -213.395695 
L 370.720092 -211.398615 
L 369.519218 -209.401534 
L 368.344937 -207.404454 
L 367.210622 -205.407374 
L 366.128138 -203.410293 
L 365.107681 -201.413213 
L 364.157668 -199.416133 
L 363.284668 -197.419052 
L 362.493383 -195.421972 
L 361.786664 -193.424892 
L 361.165575 -191.427811 
L 360.629478 -189.430731 
L 360.176163 -187.433651 
L 359.80199 -185.43657 
L 359.502056 -183.43949 
L 359.270379 -181.44241 
L 359.100089 -179.445329 
L 358.983622 -177.448249 
L 358.912927 -175.451168 
L 358.879656 -173.454088 
L 358.875358 -171.457008 
L 358.89166 -169.459927 
L 358.920438 -167.462847 
L 358.95397 -165.465767 
L 358.985074 -163.468686 
L 359.007228 -161.471606 
L 359.014666 -159.474526 
L 359.002455 -157.477445 
L 358.96655 -155.480365 
L 358.903822 -153.483285 
L 358.812069 -151.486204 
L 358.690003 -149.489124 
L 358.537213 -147.492044 
L 358.354117 -145.494963 
L 358.141892 -143.497883 
L 357.902386 -141.500803 
L 357.638034 -139.503722 
L 357.351747 -137.506642 
L 357.046809 -135.509562 
L 356.72677 -133.512481 
L 356.395336 -131.515401 
L 356.056269 -129.518321 
L 355.713292 -127.52124 
L 355.369999 -125.52416 
L 355.029783 -123.52708 
L 354.695772 -121.529999 
L 354.370778 -119.532919 
L 354.057259 -117.535839 
L 353.7573 -115.538758 
L 353.472596 -113.541678 
L 353.204452 -111.544597 
L 352.953801 -109.547517 
L 352.721214 -107.550437 
L 352.506932 -105.553356 
L 352.310897 -103.556276 
L 352.13279 -101.559196 
L 351.972063 -99.562115 
z
" id="mac94c98977" style="stroke:#3f3f3f;stroke-width:1.5;"/>
    </defs>
    <g clip-path="url(#p72cdab2686)">
     <use style="fill:#3274a1;stroke:#3f3f3f;stroke-width:1.5;" x="0" xlink:href="#mac94c98977" y="375.89624"/>
    </g>
   </g>
   <g id="matplotlib.axis_1">
    <g id="xtick_1">
     <g id="line2d_1">
      <defs>
       <path d="M 0 0 
L 0 3.5 
" id="m5043665ffa" style="stroke:#000000;stroke-width:0.8;"/>
      </defs>
      <g>
       <use style="stroke:#000000;stroke-width:0.8;" x="112.848125" xlink:href="#m5043665ffa" y="288.430125"/>
      </g>
     </g>
     <g id="text_1">
      <!-- aflplusplus_hier_fast -->
      <g transform="translate(23.394167 352.97619)rotate(-30)scale(0.1 -0.1)">
       <defs>
        <path d="M 34.28125 27.484375 
Q 23.390625 27.484375 19.1875 25 
Q 14.984375 22.515625 14.984375 16.5 
Q 14.984375 11.71875 18.140625 8.90625 
Q 21.296875 6.109375 26.703125 6.109375 
Q 34.1875 6.109375 38.703125 11.40625 
Q 43.21875 16.703125 43.21875 25.484375 
L 43.21875 27.484375 
z
M 52.203125 31.203125 
L 52.203125 0 
L 43.21875 0 
L 43.21875 8.296875 
Q 40.140625 3.328125 35.546875 0.953125 
Q 30.953125 -1.421875 24.3125 -1.421875 
Q 15.921875 -1.421875 10.953125 3.296875 
Q 6 8.015625 6 15.921875 
Q 6 25.140625 12.171875 29.828125 
Q 18.359375 34.515625 30.609375 34.515625 
L 43.21875 34.515625 
L 43.21875 35.40625 
Q 43.21875 41.609375 39.140625 45 
Q 35.0625 48.390625 27.6875 48.390625 
Q 23 48.390625 18.546875 47.265625 
Q 14.109375 46.140625 10.015625 43.890625 
L 10.015625 52.203125 
Q 14.9375 54.109375 19.578125 55.046875 
Q 24.21875 56 28.609375 56 
Q 40.484375 56 46.34375 49.84375 
Q 52.203125 43.703125 52.203125 31.203125 
z
" id="DejaVuSans-97"/>
        <path d="M 37.109375 75.984375 
L 37.109375 68.5 
L 28.515625 68.5 
Q 23.6875 68.5 21.796875 66.546875 
Q 19.921875 64.59375 19.921875 59.515625 
L 19.921875 54.6875 
L 34.71875 54.6875 
L 34.71875 47.703125 
L 19.921875 47.703125 
L 19.921875 0 
L 10.890625 0 
L 10.890625 47.703125 
L 2.296875 47.703125 
L 2.296875 54.6875 
L 10.890625 54.6875 
L 10.890625 58.5 
Q 10.890625 67.625 15.140625 71.796875 
Q 19.390625 75.984375 28.609375 75.984375 
z
" id="DejaVuSans-102"/>
        <path d="M 9.421875 75.984375 
L 18.40625 75.984375 
L 18.40625 0 
L 9.421875 0 
z
" id="DejaVuSans-108"/>
        <path d="M 18.109375 8.203125 
L 18.109375 -20.796875 
L 9.078125 -20.796875 
L 9.078125 54.6875 
L 18.109375 54.6875 
L 18.109375 46.390625 
Q 20.953125 51.265625 25.265625 53.625 
Q 29.59375 56 35.59375 56 
Q 45.5625 56 51.78125 48.09375 
Q 58.015625 40.1875 58.015625 27.296875 
Q 58.015625 14.40625 51.78125 6.484375 
Q 45.5625 -1.421875 35.59375 -1.421875 
Q 29.59375 -1.421875 25.265625 0.953125 
Q 20.953125 3.328125 18.109375 8.203125 
z
M 48.6875 27.296875 
Q 48.6875 37.203125 44.609375 42.84375 
Q 40.53125 48.484375 33.40625 48.484375 
Q 26.265625 48.484375 22.1875 42.84375 
Q 18.109375 37.203125 18.109375 27.296875 
Q 18.109375 17.390625 22.1875 11.75 
Q 26.265625 6.109375 33.40625 6.109375 
Q 40.53125 6.109375 44.609375 11.75 
Q 48.6875 17.390625 48.6875 27.296875 
z
" id="DejaVuSans-112"/>
        <path d="M 8.5 21.578125 
L 8.5 54.6875 
L 17.484375 54.6875 
L 17.484375 21.921875 
Q 17.484375 14.15625 20.5 10.265625 
Q 23.53125 6.390625 29.59375 6.390625 
Q 36.859375 6.390625 41.078125 11.03125 
Q 45.3125 15.671875 45.3125 23.6875 
L 45.3125 54.6875 
L 54.296875 54.6875 
L 54.296875 0 
L 45.3125 0 
L 45.3125 8.40625 
Q 42.046875 3.421875 37.71875 1 
Q 33.40625 -1.421875 27.6875 -1.421875 
Q 18.265625 -1.421875 13.375 4.4375 
Q 8.5 10.296875 8.5 21.578125 
z
M 31.109375 56 
z
" id="DejaVuSans-117"/>
        <path d="M 44.28125 53.078125 
L 44.28125 44.578125 
Q 40.484375 46.53125 36.375 47.5 
Q 32.28125 48.484375 27.875 48.484375 
Q 21.1875 48.484375 17.84375 46.4375 
Q 14.5 44.390625 14.5 40.28125 
Q 14.5 37.15625 16.890625 35.375 
Q 19.28125 33.59375 26.515625 31.984375 
L 29.59375 31.296875 
Q 39.15625 29.25 43.1875 25.515625 
Q 47.21875 21.78125 47.21875 15.09375 
Q 47.21875 7.46875 41.1875 3.015625 
Q 35.15625 -1.421875 24.609375 -1.421875 
Q 20.21875 -1.421875 15.453125 -0.5625 
Q 10.6875 0.296875 5.421875 2 
L 5.421875 11.28125 
Q 10.40625 8.6875 15.234375 7.390625 
Q 20.0625 6.109375 24.8125 6.109375 
Q 31.15625 6.109375 34.5625 8.28125 
Q 37.984375 10.453125 37.984375 14.40625 
Q 37.984375 18.0625 35.515625 20.015625 
Q 33.0625 21.96875 24.703125 23.78125 
L 21.578125 24.515625 
Q 13.234375 26.265625 9.515625 29.90625 
Q 5.8125 33.546875 5.8125 39.890625 
Q 5.8125 47.609375 11.28125 51.796875 
Q 16.75 56 26.8125 56 
Q 31.78125 56 36.171875 55.265625 
Q 40.578125 54.546875 44.28125 53.078125 
z
" id="DejaVuSans-115"/>
        <path d="M 50.984375 -16.609375 
L 50.984375 -23.578125 
L -0.984375 -23.578125 
L -0.984375 -16.609375 
z
" id="DejaVuSans-95"/>
        <path d="M 54.890625 33.015625 
L 54.890625 0 
L 45.90625 0 
L 45.90625 32.71875 
Q 45.90625 40.484375 42.875 44.328125 
Q 39.84375 48.1875 33.796875 48.1875 
Q 26.515625 48.1875 22.3125 43.546875 
Q 18.109375 38.921875 18.109375 30.90625 
L 18.109375 0 
L 9.078125 0 
L 9.078125 75.984375 
L 18.109375 75.984375 
L 18.109375 46.1875 
Q 21.34375 51.125 25.703125 53.5625 
Q 30.078125 56 35.796875 56 
Q 45.21875 56 50.046875 50.171875 
Q 54.890625 44.34375 54.890625 33.015625 
z
" id="DejaVuSans-104"/>
        <path d="M 9.421875 54.6875 
L 18.40625 54.6875 
L 18.40625 0 
L 9.421875 0 
z
M 9.421875 75.984375 
L 18.40625 75.984375 
L 18.40625 64.59375 
L 9.421875 64.59375 
z
" id="DejaVuSans-105"/>
        <path d="M 56.203125 29.59375 
L 56.203125 25.203125 
L 14.890625 25.203125 
Q 15.484375 15.921875 20.484375 11.0625 
Q 25.484375 6.203125 34.421875 6.203125 
Q 39.59375 6.203125 44.453125 7.46875 
Q 49.3125 8.734375 54.109375 11.28125 
L 54.109375 2.78125 
Q 49.265625 0.734375 44.1875 -0.34375 
Q 39.109375 -1.421875 33.890625 -1.421875 
Q 20.796875 -1.421875 13.15625 6.1875 
Q 5.515625 13.8125 5.515625 26.8125 
Q 5.515625 40.234375 12.765625 48.109375 
Q 20.015625 56 32.328125 56 
Q 43.359375 56 49.78125 48.890625 
Q 56.203125 41.796875 56.203125 29.59375 
z
M 47.21875 32.234375 
Q 47.125 39.59375 43.09375 43.984375 
Q 39.0625 48.390625 32.421875 48.390625 
Q 24.90625 48.390625 20.390625 44.140625 
Q 15.875 39.890625 15.1875 32.171875 
z
" id="DejaVuSans-101"/>
        <path d="M 41.109375 46.296875 
Q 39.59375 47.171875 37.8125 47.578125 
Q 36.03125 48 33.890625 48 
Q 26.265625 48 22.1875 43.046875 
Q 18.109375 38.09375 18.109375 28.8125 
L 18.109375 0 
L 9.078125 0 
L 9.078125 54.6875 
L 18.109375 54.6875 
L 18.109375 46.1875 
Q 20.953125 51.171875 25.484375 53.578125 
Q 30.03125 56 36.53125 56 
Q 37.453125 56 38.578125 55.875 
Q 39.703125 55.765625 41.0625 55.515625 
z
" id="DejaVuSans-114"/>
        <path d="M 18.3125 70.21875 
L 18.3125 54.6875 
L 36.8125 54.6875 
L 36.8125 47.703125 
L 18.3125 47.703125 
L 18.3125 18.015625 
Q 18.3125 11.328125 20.140625 9.421875 
Q 21.96875 7.515625 27.59375 7.515625 
L 36.8125 7.515625 
L 36.8125 0 
L 27.59375 0 
Q 17.1875 0 13.234375 3.875 
Q 9.28125 7.765625 9.28125 18.015625 
L 9.28125 47.703125 
L 2.6875 47.703125 
L 2.6875 54.6875 
L 9.28125 54.6875 
L 9.28125 70.21875 
z
" id="DejaVuSans-116"/>
       </defs>
       <use xlink:href="#DejaVuSans-97"/>
       <use x="61.279297" xlink:href="#DejaVuSans-102"/>
       <use x="96.484375" xlink:href="#DejaVuSans-108"/>
       <use x="124.267578" xlink:href="#DejaVuSans-112"/>
       <use x="187.744141" xlink:href="#DejaVuSans-108"/>
       <use x="215.527344" xlink:href="#DejaVuSans-117"/>
       <use x="278.90625" xlink:href="#DejaVuSans-115"/>
       <use x="331.005859" xlink:href="#DejaVuSans-112"/>
       <use x="394.482422" xlink:href="#DejaVuSans-108"/>
       <use x="422.265625" xlink:href="#DejaVuSans-117"/>
       <use x="485.644531" xlink:href="#DejaVuSans-115"/>
       <use x="537.744141" xlink:href="#DejaVuSans-95"/>
       <use x="587.744141" xlink:href="#DejaVuSans-104"/>
       <use x="651.123047" xlink:href="#DejaVuSans-105"/>
       <use x="678.90625" xlink:href="#DejaVuSans-101"/>
       <use x="740.429688" xlink:href="#DejaVuSans-114"/>
       <use x="781.542969" xlink:href="#DejaVuSans-95"/>
       <use x="831.542969" xlink:href="#DejaVuSans-102"/>
       <use x="866.748047" xlink:href="#DejaVuSans-97"/>
       <use x="928.027344" xlink:href="#DejaVuSans-115"/>
       <use x="980.126953" xlink:href="#DejaVuSans-116"/>
      </g>
     </g>
    </g>
    <g id="xtick_2">
     <g id="line2d_2">
      <g>
       <use style="stroke:#000000;stroke-width:0.8;" x="231.888125" xlink:href="#m5043665ffa" y="288.430125"/>
      </g>
     </g>
     <g id="text_2">
      <!-- aflplusplus_hier_coe -->
      <g transform="translate(143.306958 352.472284)rotate(-30)scale(0.1 -0.1)">
       <defs>
        <path d="M 48.78125 52.59375 
L 48.78125 44.1875 
Q 44.96875 46.296875 41.140625 47.34375 
Q 37.3125 48.390625 33.40625 48.390625 
Q 24.65625 48.390625 19.8125 42.84375 
Q 14.984375 37.3125 14.984375 27.296875 
Q 14.984375 17.28125 19.8125 11.734375 
Q 24.65625 6.203125 33.40625 6.203125 
Q 37.3125 6.203125 41.140625 7.25 
Q 44.96875 8.296875 48.78125 10.40625 
L 48.78125 2.09375 
Q 45.015625 0.34375 40.984375 -0.53125 
Q 36.96875 -1.421875 32.421875 -1.421875 
Q 20.0625 -1.421875 12.78125 6.34375 
Q 5.515625 14.109375 5.515625 27.296875 
Q 5.515625 40.671875 12.859375 48.328125 
Q 20.21875 56 33.015625 56 
Q 37.15625 56 41.109375 55.140625 
Q 45.0625 54.296875 48.78125 52.59375 
z
" id="DejaVuSans-99"/>
        <path d="M 30.609375 48.390625 
Q 23.390625 48.390625 19.1875 42.75 
Q 14.984375 37.109375 14.984375 27.296875 
Q 14.984375 17.484375 19.15625 11.84375 
Q 23.34375 6.203125 30.609375 6.203125 
Q 37.796875 6.203125 41.984375 11.859375 
Q 46.1875 17.53125 46.1875 27.296875 
Q 46.1875 37.015625 41.984375 42.703125 
Q 37.796875 48.390625 30.609375 48.390625 
z
M 30.609375 56 
Q 42.328125 56 49.015625 48.375 
Q 55.71875 40.765625 55.71875 27.296875 
Q 55.71875 13.875 49.015625 6.21875 
Q 42.328125 -1.421875 30.609375 -1.421875 
Q 18.84375 -1.421875 12.171875 6.21875 
Q 5.515625 13.875 5.515625 27.296875 
Q 5.515625 40.765625 12.171875 48.375 
Q 18.84375 56 30.609375 56 
z
" id="DejaVuSans-111"/>
       </defs>
       <use xlink:href="#DejaVuSans-97"/>
       <use x="61.279297" xlink:href="#DejaVuSans-102"/>
       <use x="96.484375" xlink:href="#DejaVuSans-108"/>
       <use x="124.267578" xlink:href="#DejaVuSans-112"/>
       <use x="187.744141" xlink:href="#DejaVuSans-108"/>
       <use x="215.527344" xlink:href="#DejaVuSans-117"/>
       <use x="278.90625" xlink:href="#DejaVuSans-115"/>
       <use x="331.005859" xlink:href="#DejaVuSans-112"/>
       <use x="394.482422" xlink:href="#DejaVuSans-108"/>
       <use x="422.265625" xlink:href="#DejaVuSans-117"/>
       <use x="485.644531" xlink:href="#DejaVuSans-115"/>
       <use x="537.744141" xlink:href="#DejaVuSans-95"/>
       <use x="587.744141" xlink:href="#DejaVuSans-104"/>
       <use x="651.123047" xlink:href="#DejaVuSans-105"/>
       <use x="678.90625" xlink:href="#DejaVuSans-101"/>
       <use x="740.429688" xlink:href="#DejaVuSans-114"/>
       <use x="781.542969" xlink:href="#DejaVuSans-95"/>
       <use x="831.542969" xlink:href="#DejaVuSans-99"/>
       <use x="886.523438" xlink:href="#DejaVuSans-111"/>
       <use x="947.705078" xlink:href="#DejaVuSans-101"/>
      </g>
     </g>
    </g>
    <g id="xtick_3">
     <g id="line2d_3">
      <g>
       <use style="stroke:#000000;stroke-width:0.8;" x="350.928125" xlink:href="#m5043665ffa" y="288.430125"/>
      </g>
     </g>
     <g id="text_3">
      <!-- aflplusplus_hier -->
      <g transform="translate(282.066627 341.087127)rotate(-30)scale(0.1 -0.1)">
       <use xlink:href="#DejaVuSans-97"/>
       <use x="61.279297" xlink:href="#DejaVuSans-102"/>
       <use x="96.484375" xlink:href="#DejaVuSans-108"/>
       <use x="124.267578" xlink:href="#DejaVuSans-112"/>
       <use x="187.744141" xlink:href="#DejaVuSans-108"/>
       <use x="215.527344" xlink:href="#DejaVuSans-117"/>
       <use x="278.90625" xlink:href="#DejaVuSans-115"/>
       <use x="331.005859" xlink:href="#DejaVuSans-112"/>
       <use x="394.482422" xlink:href="#DejaVuSans-108"/>
       <use x="422.265625" xlink:href="#DejaVuSans-117"/>
       <use x="485.644531" xlink:href="#DejaVuSans-115"/>
       <use x="537.744141" xlink:href="#DejaVuSans-95"/>
       <use x="587.744141" xlink:href="#DejaVuSans-104"/>
       <use x="651.123047" xlink:href="#DejaVuSans-105"/>
       <use x="678.90625" xlink:href="#DejaVuSans-101"/>
       <use x="740.429688" xlink:href="#DejaVuSans-114"/>
      </g>
     </g>
    </g>
    <g id="text_4">
     <!-- Fuzzer (highest median coverage on the left) -->
     <g transform="translate(119.270156 366.616553)scale(0.1 -0.1)">
      <defs>
       <path d="M 9.8125 72.90625 
L 51.703125 72.90625 
L 51.703125 64.59375 
L 19.671875 64.59375 
L 19.671875 43.109375 
L 48.578125 43.109375 
L 48.578125 34.8125 
L 19.671875 34.8125 
L 19.671875 0 
L 9.8125 0 
z
" id="DejaVuSans-70"/>
       <path d="M 5.515625 54.6875 
L 48.1875 54.6875 
L 48.1875 46.484375 
L 14.40625 7.171875 
L 48.1875 7.171875 
L 48.1875 0 
L 4.296875 0 
L 4.296875 8.203125 
L 38.09375 47.515625 
L 5.515625 47.515625 
z
" id="DejaVuSans-122"/>
       <path id="DejaVuSans-32"/>
       <path d="M 31 75.875 
Q 24.46875 64.65625 21.28125 53.65625 
Q 18.109375 42.671875 18.109375 31.390625 
Q 18.109375 20.125 21.3125 9.0625 
Q 24.515625 -2 31 -13.1875 
L 23.1875 -13.1875 
Q 15.875 -1.703125 12.234375 9.375 
Q 8.59375 20.453125 8.59375 31.390625 
Q 8.59375 42.28125 12.203125 53.3125 
Q 15.828125 64.359375 23.1875 75.875 
z
" id="DejaVuSans-40"/>
       <path d="M 45.40625 27.984375 
Q 45.40625 37.75 41.375 43.109375 
Q 37.359375 48.484375 30.078125 48.484375 
Q 22.859375 48.484375 18.828125 43.109375 
Q 14.796875 37.75 14.796875 27.984375 
Q 14.796875 18.265625 18.828125 12.890625 
Q 22.859375 7.515625 30.078125 7.515625 
Q 37.359375 7.515625 41.375 12.890625 
Q 45.40625 18.265625 45.40625 27.984375 
z
M 54.390625 6.78125 
Q 54.390625 -7.171875 48.1875 -13.984375 
Q 42 -20.796875 29.203125 -20.796875 
Q 24.46875 -20.796875 20.265625 -20.09375 
Q 16.0625 -19.390625 12.109375 -17.921875 
L 12.109375 -9.1875 
Q 16.0625 -11.328125 19.921875 -12.34375 
Q 23.78125 -13.375 27.78125 -13.375 
Q 36.625 -13.375 41.015625 -8.765625 
Q 45.40625 -4.15625 45.40625 5.171875 
L 45.40625 9.625 
Q 42.625 4.78125 38.28125 2.390625 
Q 33.9375 0 27.875 0 
Q 17.828125 0 11.671875 7.65625 
Q 5.515625 15.328125 5.515625 27.984375 
Q 5.515625 40.671875 11.671875 48.328125 
Q 17.828125 56 27.875 56 
Q 33.9375 56 38.28125 53.609375 
Q 42.625 51.21875 45.40625 46.390625 
L 45.40625 54.6875 
L 54.390625 54.6875 
z
" id="DejaVuSans-103"/>
       <path d="M 52 44.1875 
Q 55.375 50.25 60.0625 53.125 
Q 64.75 56 71.09375 56 
Q 79.640625 56 84.28125 50.015625 
Q 88.921875 44.046875 88.921875 33.015625 
L 88.921875 0 
L 79.890625 0 
L 79.890625 32.71875 
Q 79.890625 40.578125 77.09375 44.375 
Q 74.3125 48.1875 68.609375 48.1875 
Q 61.625 48.1875 57.5625 43.546875 
Q 53.515625 38.921875 53.515625 30.90625 
L 53.515625 0 
L 44.484375 0 
L 44.484375 32.71875 
Q 44.484375 40.625 41.703125 44.40625 
Q 38.921875 48.1875 33.109375 48.1875 
Q 26.21875 48.1875 22.15625 43.53125 
Q 18.109375 38.875 18.109375 30.90625 
L 18.109375 0 
L 9.078125 0 
L 9.078125 54.6875 
L 18.109375 54.6875 
L 18.109375 46.1875 
Q 21.1875 51.21875 25.484375 53.609375 
Q 29.78125 56 35.6875 56 
Q 41.65625 56 45.828125 52.96875 
Q 50 49.953125 52 44.1875 
z
" id="DejaVuSans-109"/>
       <path d="M 45.40625 46.390625 
L 45.40625 75.984375 
L 54.390625 75.984375 
L 54.390625 0 
L 45.40625 0 
L 45.40625 8.203125 
Q 42.578125 3.328125 38.25 0.953125 
Q 33.9375 -1.421875 27.875 -1.421875 
Q 17.96875 -1.421875 11.734375 6.484375 
Q 5.515625 14.40625 5.515625 27.296875 
Q 5.515625 40.1875 11.734375 48.09375 
Q 17.96875 56 27.875 56 
Q 33.9375 56 38.25 53.625 
Q 42.578125 51.265625 45.40625 46.390625 
z
M 14.796875 27.296875 
Q 14.796875 17.390625 18.875 11.75 
Q 22.953125 6.109375 30.078125 6.109375 
Q 37.203125 6.109375 41.296875 11.75 
Q 45.40625 17.390625 45.40625 27.296875 
Q 45.40625 37.203125 41.296875 42.84375 
Q 37.203125 48.484375 30.078125 48.484375 
Q 22.953125 48.484375 18.875 42.84375 
Q 14.796875 37.203125 14.796875 27.296875 
z
" id="DejaVuSans-100"/>
       <path d="M 54.890625 33.015625 
L 54.890625 0 
L 45.90625 0 
L 45.90625 32.71875 
Q 45.90625 40.484375 42.875 44.328125 
Q 39.84375 48.1875 33.796875 48.1875 
Q 26.515625 48.1875 22.3125 43.546875 
Q 18.109375 38.921875 18.109375 30.90625 
L 18.109375 0 
L 9.078125 0 
L 9.078125 54.6875 
L 18.109375 54.6875 
L 18.109375 46.1875 
Q 21.34375 51.125 25.703125 53.5625 
Q 30.078125 56 35.796875 56 
Q 45.21875 56 50.046875 50.171875 
Q 54.890625 44.34375 54.890625 33.015625 
z
" id="DejaVuSans-110"/>
       <path d="M 2.984375 54.6875 
L 12.5 54.6875 
L 29.59375 8.796875 
L 46.6875 54.6875 
L 56.203125 54.6875 
L 35.6875 0 
L 23.484375 0 
z
" id="DejaVuSans-118"/>
       <path d="M 8.015625 75.875 
L 15.828125 75.875 
Q 23.140625 64.359375 26.78125 53.3125 
Q 30.421875 42.28125 30.421875 31.390625 
Q 30.421875 20.453125 26.78125 9.375 
Q 23.140625 -1.703125 15.828125 -13.1875 
L 8.015625 -13.1875 
Q 14.5 -2 17.703125 9.0625 
Q 20.90625 20.125 20.90625 31.390625 
Q 20.90625 42.671875 17.703125 53.65625 
Q 14.5 64.65625 8.015625 75.875 
z
" id="DejaVuSans-41"/>
      </defs>
      <use xlink:href="#DejaVuSans-70"/>
      <use x="52.019531" xlink:href="#DejaVuSans-117"/>
      <use x="115.398438" xlink:href="#DejaVuSans-122"/>
      <use x="167.888672" xlink:href="#DejaVuSans-122"/>
      <use x="220.378906" xlink:href="#DejaVuSans-101"/>
      <use x="281.902344" xlink:href="#DejaVuSans-114"/>
      <use x="323.015625" xlink:href="#DejaVuSans-32"/>
      <use x="354.802734" xlink:href="#DejaVuSans-40"/>
      <use x="393.816406" xlink:href="#DejaVuSans-104"/>
      <use x="457.195312" xlink:href="#DejaVuSans-105"/>
      <use x="484.978516" xlink:href="#DejaVuSans-103"/>
      <use x="548.455078" xlink:href="#DejaVuSans-104"/>
      <use x="611.833984" xlink:href="#DejaVuSans-101"/>
      <use x="673.357422" xlink:href="#DejaVuSans-115"/>
      <use x="725.457031" xlink:href="#DejaVuSans-116"/>
      <use x="764.666016" xlink:href="#DejaVuSans-32"/>
      <use x="796.453125" xlink:href="#DejaVuSans-109"/>
      <use x="893.865234" xlink:href="#DejaVuSans-101"/>
      <use x="955.388672" xlink:href="#DejaVuSans-100"/>
      <use x="1018.865234" xlink:href="#DejaVuSans-105"/>
      <use x="1046.648438" xlink:href="#DejaVuSans-97"/>
      <use x="1107.927734" xlink:href="#DejaVuSans-110"/>
      <use x="1171.306641" xlink:href="#DejaVuSans-32"/>
      <use x="1203.09375" xlink:href="#DejaVuSans-99"/>
      <use x="1258.074219" xlink:href="#DejaVuSans-111"/>
      <use x="1319.255859" xlink:href="#DejaVuSans-118"/>
      <use x="1378.435547" xlink:href="#DejaVuSans-101"/>
      <use x="1439.958984" xlink:href="#DejaVuSans-114"/>
      <use x="1481.072266" xlink:href="#DejaVuSans-97"/>
      <use x="1542.351562" xlink:href="#DejaVuSans-103"/>
      <use x="1605.828125" xlink:href="#DejaVuSans-101"/>
      <use x="1667.351562" xlink:href="#DejaVuSans-32"/>
      <use x="1699.138672" xlink:href="#DejaVuSans-111"/>
      <use x="1760.320312" xlink:href="#DejaVuSans-110"/>
      <use x="1823.699219" xlink:href="#DejaVuSans-32"/>
      <use x="1855.486328" xlink:href="#DejaVuSans-116"/>
      <use x="1894.695312" xlink:href="#DejaVuSans-104"/>
      <use x="1958.074219" xlink:href="#DejaVuSans-101"/>
      <use x="2019.597656" xlink:href="#DejaVuSans-32"/>
      <use x="2051.384766" xlink:href="#DejaVuSans-108"/>
      <use x="2079.167969" xlink:href="#DejaVuSans-101"/>
      <use x="2140.691406" xlink:href="#DejaVuSans-102"/>
      <use x="2174.146484" xlink:href="#DejaVuSans-116"/>
      <use x="2213.355469" xlink:href="#DejaVuSans-41"/>
     </g>
    </g>
   </g>
   <g id="matplotlib.axis_2">
    <g id="ytick_1">
     <g id="line2d_4">
      <defs>
       <path d="M 0 0 
L -3.5 0 
" id="ma10ab3d475" style="stroke:#000000;stroke-width:0.8;"/>
      </defs>
      <g>
       <use style="stroke:#000000;stroke-width:0.8;" x="53.328125" xlink:href="#ma10ab3d475" y="257.623706"/>
      </g>
     </g>
     <g id="text_5">
      <!-- 1475 -->
      <g transform="translate(20.878125 261.422924)scale(0.1 -0.1)">
       <defs>
        <path d="M 12.40625 8.296875 
L 28.515625 8.296875 
L 28.515625 63.921875 
L 10.984375 60.40625 
L 10.984375 69.390625 
L 28.421875 72.90625 
L 38.28125 72.90625 
L 38.28125 8.296875 
L 54.390625 8.296875 
L 54.390625 0 
L 12.40625 0 
z
" id="DejaVuSans-49"/>
        <path d="M 37.796875 64.3125 
L 12.890625 25.390625 
L 37.796875 25.390625 
z
M 35.203125 72.90625 
L 47.609375 72.90625 
L 47.609375 25.390625 
L 58.015625 25.390625 
L 58.015625 17.1875 
L 47.609375 17.1875 
L 47.609375 0 
L 37.796875 0 
L 37.796875 17.1875 
L 4.890625 17.1875 
L 4.890625 26.703125 
z
" id="DejaVuSans-52"/>
        <path d="M 8.203125 72.90625 
L 55.078125 72.90625 
L 55.078125 68.703125 
L 28.609375 0 
L 18.3125 0 
L 43.21875 64.59375 
L 8.203125 64.59375 
z
" id="DejaVuSans-55"/>
        <path d="M 10.796875 72.90625 
L 49.515625 72.90625 
L 49.515625 64.59375 
L 19.828125 64.59375 
L 19.828125 46.734375 
Q 21.96875 47.46875 24.109375 47.828125 
Q 26.265625 48.1875 28.421875 48.1875 
Q 40.625 48.1875 47.75 41.5 
Q 54.890625 34.8125 54.890625 23.390625 
Q 54.890625 11.625 47.5625 5.09375 
Q 40.234375 -1.421875 26.90625 -1.421875 
Q 22.3125 -1.421875 17.546875 -0.640625 
Q 12.796875 0.140625 7.71875 1.703125 
L 7.71875 11.625 
Q 12.109375 9.234375 16.796875 8.0625 
Q 21.484375 6.890625 26.703125 6.890625 
Q 35.15625 6.890625 40.078125 11.328125 
Q 45.015625 15.765625 45.015625 23.390625 
Q 45.015625 31 40.078125 35.4375 
Q 35.15625 39.890625 26.703125 39.890625 
Q 22.75 39.890625 18.8125 39.015625 
Q 14.890625 38.140625 10.796875 36.28125 
z
" id="DejaVuSans-53"/>
       </defs>
       <use xlink:href="#DejaVuSans-49"/>
       <use x="63.623047" xlink:href="#DejaVuSans-52"/>
       <use x="127.246094" xlink:href="#DejaVuSans-55"/>
       <use x="190.869141" xlink:href="#DejaVuSans-53"/>
      </g>
     </g>
    </g>
    <g id="ytick_2">
     <g id="line2d_5">
      <g>
       <use style="stroke:#000000;stroke-width:0.8;" x="53.328125" xlink:href="#ma10ab3d475" y="224.229932"/>
      </g>
     </g>
     <g id="text_6">
      <!-- 1500 -->
      <g transform="translate(20.878125 228.02915)scale(0.1 -0.1)">
       <defs>
        <path d="M 31.78125 66.40625 
Q 24.171875 66.40625 20.328125 58.90625 
Q 16.5 51.421875 16.5 36.375 
Q 16.5 21.390625 20.328125 13.890625 
Q 24.171875 6.390625 31.78125 6.390625 
Q 39.453125 6.390625 43.28125 13.890625 
Q 47.125 21.390625 47.125 36.375 
Q 47.125 51.421875 43.28125 58.90625 
Q 39.453125 66.40625 31.78125 66.40625 
z
M 31.78125 74.21875 
Q 44.046875 74.21875 50.515625 64.515625 
Q 56.984375 54.828125 56.984375 36.375 
Q 56.984375 17.96875 50.515625 8.265625 
Q 44.046875 -1.421875 31.78125 -1.421875 
Q 19.53125 -1.421875 13.0625 8.265625 
Q 6.59375 17.96875 6.59375 36.375 
Q 6.59375 54.828125 13.0625 64.515625 
Q 19.53125 74.21875 31.78125 74.21875 
z
" id="DejaVuSans-48"/>
       </defs>
       <use xlink:href="#DejaVuSans-49"/>
       <use x="63.623047" xlink:href="#DejaVuSans-53"/>
       <use x="127.246094" xlink:href="#DejaVuSans-48"/>
       <use x="190.869141" xlink:href="#DejaVuSans-48"/>
      </g>
     </g>
    </g>
    <g id="ytick_3">
     <g id="line2d_6">
      <g>
       <use style="stroke:#000000;stroke-width:0.8;" x="53.328125" xlink:href="#ma10ab3d475" y="190.836158"/>
      </g>
     </g>
     <g id="text_7">
      <!-- 1525 -->
      <g transform="translate(20.878125 194.635376)scale(0.1 -0.1)">
       <defs>
        <path d="M 19.1875 8.296875 
L 53.609375 8.296875 
L 53.609375 0 
L 7.328125 0 
L 7.328125 8.296875 
Q 12.9375 14.109375 22.625 23.890625 
Q 32.328125 33.6875 34.8125 36.53125 
Q 39.546875 41.84375 41.421875 45.53125 
Q 43.3125 49.21875 43.3125 52.78125 
Q 43.3125 58.59375 39.234375 62.25 
Q 35.15625 65.921875 28.609375 65.921875 
Q 23.96875 65.921875 18.8125 64.3125 
Q 13.671875 62.703125 7.8125 59.421875 
L 7.8125 69.390625 
Q 13.765625 71.78125 18.9375 73 
Q 24.125 74.21875 28.421875 74.21875 
Q 39.75 74.21875 46.484375 68.546875 
Q 53.21875 62.890625 53.21875 53.421875 
Q 53.21875 48.921875 51.53125 44.890625 
Q 49.859375 40.875 45.40625 35.40625 
Q 44.1875 33.984375 37.640625 27.21875 
Q 31.109375 20.453125 19.1875 8.296875 
z
" id="DejaVuSans-50"/>
       </defs>
       <use xlink:href="#DejaVuSans-49"/>
       <use x="63.623047" xlink:href="#DejaVuSans-53"/>
       <use x="127.246094" xlink:href="#DejaVuSans-50"/>
       <use x="190.869141" xlink:href="#DejaVuSans-53"/>
      </g>
     </g>
    </g>
    <g id="ytick_4">
     <g id="line2d_7">
      <g>
       <use style="stroke:#000000;stroke-width:0.8;" x="53.328125" xlink:href="#ma10ab3d475" y="157.442384"/>
      </g>
     </g>
     <g id="text_8">
      <!-- 1550 -->
      <g transform="translate(20.878125 161.241602)scale(0.1 -0.1)">
       <use xlink:href="#DejaVuSans-49"/>
       <use x="63.623047" xlink:href="#DejaVuSans-53"/>
       <use x="127.246094" xlink:href="#DejaVuSans-53"/>
       <use x="190.869141" xlink:href="#DejaVuSans-48"/>
      </g>
     </g>
    </g>
    <g id="ytick_5">
     <g id="line2d_8">
      <g>
       <use style="stroke:#000000;stroke-width:0.8;" x="53.328125" xlink:href="#ma10ab3d475" y="124.04861"/>
      </g>
     </g>
     <g id="text_9">
      <!-- 1575 -->
      <g transform="translate(20.878125 127.847828)scale(0.1 -0.1)">
       <use xlink:href="#DejaVuSans-49"/>
       <use x="63.623047" xlink:href="#DejaVuSans-53"/>
       <use x="127.246094" xlink:href="#DejaVuSans-55"/>
       <use x="190.869141" xlink:href="#DejaVuSans-53"/>
      </g>
     </g>
    </g>
    <g id="ytick_6">
     <g id="line2d_9">
      <g>
       <use style="stroke:#000000;stroke-width:0.8;" x="53.328125" xlink:href="#ma10ab3d475" y="90.654835"/>
      </g>
     </g>
     <g id="text_10">
      <!-- 1600 -->
      <g transform="translate(20.878125 94.454054)scale(0.1 -0.1)">
       <defs>
        <path d="M 33.015625 40.375 
Q 26.375 40.375 22.484375 35.828125 
Q 18.609375 31.296875 18.609375 23.390625 
Q 18.609375 15.53125 22.484375 10.953125 
Q 26.375 6.390625 33.015625 6.390625 
Q 39.65625 6.390625 43.53125 10.953125 
Q 47.40625 15.53125 47.40625 23.390625 
Q 47.40625 31.296875 43.53125 35.828125 
Q 39.65625 40.375 33.015625 40.375 
z
M 52.59375 71.296875 
L 52.59375 62.3125 
Q 48.875 64.0625 45.09375 64.984375 
Q 41.3125 65.921875 37.59375 65.921875 
Q 27.828125 65.921875 22.671875 59.328125 
Q 17.53125 52.734375 16.796875 39.40625 
Q 19.671875 43.65625 24.015625 45.921875 
Q 28.375 48.1875 33.59375 48.1875 
Q 44.578125 48.1875 50.953125 41.515625 
Q 57.328125 34.859375 57.328125 23.390625 
Q 57.328125 12.15625 50.6875 5.359375 
Q 44.046875 -1.421875 33.015625 -1.421875 
Q 20.359375 -1.421875 13.671875 8.265625 
Q 6.984375 17.96875 6.984375 36.375 
Q 6.984375 53.65625 15.1875 63.9375 
Q 23.390625 74.21875 37.203125 74.21875 
Q 40.921875 74.21875 44.703125 73.484375 
Q 48.484375 72.75 52.59375 71.296875 
z
" id="DejaVuSans-54"/>
       </defs>
       <use xlink:href="#DejaVuSans-49"/>
       <use x="63.623047" xlink:href="#DejaVuSans-54"/>
       <use x="127.246094" xlink:href="#DejaVuSans-48"/>
       <use x="190.869141" xlink:href="#DejaVuSans-48"/>
      </g>
     </g>
    </g>
    <g id="ytick_7">
     <g id="line2d_10">
      <g>
       <use style="stroke:#000000;stroke-width:0.8;" x="53.328125" xlink:href="#ma10ab3d475" y="57.261061"/>
      </g>
     </g>
     <g id="text_11">
      <!-- 1625 -->
      <g transform="translate(20.878125 61.06028)scale(0.1 -0.1)">
       <use xlink:href="#DejaVuSans-49"/>
       <use x="63.623047" xlink:href="#DejaVuSans-54"/>
       <use x="127.246094" xlink:href="#DejaVuSans-50"/>
       <use x="190.869141" xlink:href="#DejaVuSans-53"/>
      </g>
     </g>
    </g>
    <g id="ytick_8">
     <g id="line2d_11">
      <g>
       <use style="stroke:#000000;stroke-width:0.8;" x="53.328125" xlink:href="#ma10ab3d475" y="23.867287"/>
      </g>
     </g>
     <g id="text_12">
      <!-- 1650 -->
      <g transform="translate(20.878125 27.666506)scale(0.1 -0.1)">
       <use xlink:href="#DejaVuSans-49"/>
       <use x="63.623047" xlink:href="#DejaVuSans-54"/>
       <use x="127.246094" xlink:href="#DejaVuSans-53"/>
       <use x="190.869141" xlink:href="#DejaVuSans-48"/>
      </g>
     </g>
    </g>
    <g id="text_13">
     <!-- Reached region coverage -->
     <g transform="translate(14.798438 219.136625)rotate(-90)scale(0.1 -0.1)">
      <defs>
       <path d="M 44.390625 34.1875 
Q 47.5625 33.109375 50.5625 29.59375 
Q 53.5625 26.078125 56.59375 19.921875 
L 66.609375 0 
L 56 0 
L 46.6875 18.703125 
Q 43.0625 26.03125 39.671875 28.421875 
Q 36.28125 30.8125 30.421875 30.8125 
L 19.671875 30.8125 
L 19.671875 0 
L 9.8125 0 
L 9.8125 72.90625 
L 32.078125 72.90625 
Q 44.578125 72.90625 50.734375 67.671875 
Q 56.890625 62.453125 56.890625 51.90625 
Q 56.890625 45.015625 53.6875 40.46875 
Q 50.484375 35.9375 44.390625 34.1875 
z
M 19.671875 64.796875 
L 19.671875 38.921875 
L 32.078125 38.921875 
Q 39.203125 38.921875 42.84375 42.21875 
Q 46.484375 45.515625 46.484375 51.90625 
Q 46.484375 58.296875 42.84375 61.546875 
Q 39.203125 64.796875 32.078125 64.796875 
z
" id="DejaVuSans-82"/>
      </defs>
      <use xlink:href="#DejaVuSans-82"/>
      <use x="64.982422" xlink:href="#DejaVuSans-101"/>
      <use x="126.505859" xlink:href="#DejaVuSans-97"/>
      <use x="187.785156" xlink:href="#DejaVuSans-99"/>
      <use x="242.765625" xlink:href="#DejaVuSans-104"/>
      <use x="306.144531" xlink:href="#DejaVuSans-101"/>
      <use x="367.667969" xlink:href="#DejaVuSans-100"/>
      <use x="431.144531" xlink:href="#DejaVuSans-32"/>
      <use x="462.931641" xlink:href="#DejaVuSans-114"/>
      <use x="501.794922" xlink:href="#DejaVuSans-101"/>
      <use x="563.318359" xlink:href="#DejaVuSans-103"/>
      <use x="626.794922" xlink:href="#DejaVuSans-105"/>
      <use x="654.578125" xlink:href="#DejaVuSans-111"/>
      <use x="715.759766" xlink:href="#DejaVuSans-110"/>
      <use x="779.138672" xlink:href="#DejaVuSans-32"/>
      <use x="810.925781" xlink:href="#DejaVuSans-99"/>
      <use x="865.90625" xlink:href="#DejaVuSans-111"/>
      <use x="927.087891" xlink:href="#DejaVuSans-118"/>
      <use x="986.267578" xlink:href="#DejaVuSans-101"/>
      <use x="1047.791016" xlink:href="#DejaVuSans-114"/>
      <use x="1088.904297" xlink:href="#DejaVuSans-97"/>
      <use x="1150.183594" xlink:href="#DejaVuSans-103"/>
      <use x="1213.660156" xlink:href="#DejaVuSans-101"/>
     </g>
    </g>
   </g>
   <g id="line2d_12">
    <path clip-path="url(#p72cdab2686)" d="M 112.848125 136.070368 
L 112.848125 126.720111 
" style="fill:none;stroke:#3f3f3f;stroke-linecap:square;stroke-width:1.5;"/>
   </g>
   <g id="line2d_13">
    <path clip-path="url(#p72cdab2686)" d="M 112.848125 136.070368 
L 112.848125 126.720111 
" style="fill:none;stroke:#3f3f3f;stroke-linecap:square;stroke-width:4.5;"/>
   </g>
   <g id="line2d_14">
    <path clip-path="url(#p72cdab2686)" d="M 231.888125 141.413372 
L 231.888125 134.734617 
" style="fill:none;stroke:#3f3f3f;stroke-linecap:square;stroke-width:1.5;"/>
   </g>
   <g id="line2d_15">
    <path clip-path="url(#p72cdab2686)" d="M 231.888125 138.74187 
L 231.888125 134.734617 
" style="fill:none;stroke:#3f3f3f;stroke-linecap:square;stroke-width:4.5;"/>
   </g>
   <g id="line2d_16">
    <path clip-path="url(#p72cdab2686)" d="M 350.928125 141.413372 
L 350.928125 133.398866 
" style="fill:none;stroke:#3f3f3f;stroke-linecap:square;stroke-width:1.5;"/>
   </g>
   <g id="line2d_17">
    <path clip-path="url(#p72cdab2686)" d="M 350.928125 141.413372 
L 350.928125 134.734617 
" style="fill:none;stroke:#3f3f3f;stroke-linecap:square;stroke-width:4.5;"/>
   </g>
   <g id="patch_3">
    <path d="M 53.328125 257.623706 
L 53.328125 23.867287 
" style="fill:none;stroke:#000000;stroke-linecap:square;stroke-linejoin:miter;stroke-width:0.8;"/>
   </g>
   <g id="patch_4">
    <path d="M 112.848125 288.430125 
L 350.928125 288.430125 
" style="fill:none;stroke:#000000;stroke-linecap:square;stroke-linejoin:miter;stroke-width:0.8;"/>
   </g>
   <g id="PathCollection_1">
    <defs>
     <path d="M 0 1.5 
C 0.397805 1.5 0.77937 1.341951 1.06066 1.06066 
C 1.341951 0.77937 1.5 0.397805 1.5 0 
C 1.5 -0.397805 1.341951 -0.77937 1.06066 -1.06066 
C 0.77937 -1.341951 0.397805 -1.5 0 -1.5 
C -0.397805 -1.5 -0.77937 -1.341951 -1.06066 -1.06066 
C -1.341951 -0.77937 -1.5 -0.397805 -1.5 0 
C -1.5 0.397805 -1.341951 0.77937 -1.06066 1.06066 
C -0.77937 1.341951 -0.397805 1.5 0 1.5 
z
" id="m22c41d12d6" style="stroke:#3f3f3f;"/>
    </defs>
    <g clip-path="url(#p72cdab2686)">
     <use style="fill:#ffffff;stroke:#3f3f3f;" x="112.848125" xlink:href="#m22c41d12d6" y="134.734617"/>
    </g>
   </g>
   <g id="PathCollection_2">
    <g clip-path="url(#p72cdab2686)">
     <use style="fill:#ffffff;stroke:#3f3f3f;" x="231.888125" xlink:href="#m22c41d12d6" y="137.406119"/>
    </g>
   </g>
   <g id="PathCollection_3">
    <g clip-path="url(#p72cdab2686)">
     <use style="fill:#ffffff;stroke:#3f3f3f;" x="350.928125" xlink:href="#m22c41d12d6" y="140.077621"/>
    </g>
   </g>
   <g id="text_14">
    <!-- libpng-1.2.56 (2h, 5 trials/fuzzer) -->
    <g transform="translate(132.981875 16.318125)scale(0.12 -0.12)">
     <defs>
      <path d="M 48.6875 27.296875 
Q 48.6875 37.203125 44.609375 42.84375 
Q 40.53125 48.484375 33.40625 48.484375 
Q 26.265625 48.484375 22.1875 42.84375 
Q 18.109375 37.203125 18.109375 27.296875 
Q 18.109375 17.390625 22.1875 11.75 
Q 26.265625 6.109375 33.40625 6.109375 
Q 40.53125 6.109375 44.609375 11.75 
Q 48.6875 17.390625 48.6875 27.296875 
z
M 18.109375 46.390625 
Q 20.953125 51.265625 25.265625 53.625 
Q 29.59375 56 35.59375 56 
Q 45.5625 56 51.78125 48.09375 
Q 58.015625 40.1875 58.015625 27.296875 
Q 58.015625 14.40625 51.78125 6.484375 
Q 45.5625 -1.421875 35.59375 -1.421875 
Q 29.59375 -1.421875 25.265625 0.953125 
Q 20.953125 3.328125 18.109375 8.203125 
L 18.109375 0 
L 9.078125 0 
L 9.078125 75.984375 
L 18.109375 75.984375 
z
" id="DejaVuSans-98"/>
      <path d="M 4.890625 31.390625 
L 31.203125 31.390625 
L 31.203125 23.390625 
L 4.890625 23.390625 
z
" id="DejaVuSans-45"/>
      <path d="M 10.6875 12.40625 
L 21 12.40625 
L 21 0 
L 10.6875 0 
z
" id="DejaVuSans-46"/>
      <path d="M 11.71875 12.40625 
L 22.015625 12.40625 
L 22.015625 4 
L 14.015625 -11.625 
L 7.71875 -11.625 
L 11.71875 4 
z
" id="DejaVuSans-44"/>
      <path d="M 25.390625 72.90625 
L 33.6875 72.90625 
L 8.296875 -9.28125 
L 0 -9.28125 
z
" id="DejaVuSans-47"/>
     </defs>
     <use xlink:href="#DejaVuSans-108"/>
     <use x="27.783203" xlink:href="#DejaVuSans-105"/>
     <use x="55.566406" xlink:href="#DejaVuSans-98"/>
     <use x="119.042969" xlink:href="#DejaVuSans-112"/>
     <use x="182.519531" xlink:href="#DejaVuSans-110"/>
     <use x="245.898438" xlink:href="#DejaVuSans-103"/>
     <use x="309.375" xlink:href="#DejaVuSans-45"/>
     <use x="345.458984" xlink:href="#DejaVuSans-49"/>
     <use x="409.082031" xlink:href="#DejaVuSans-46"/>
     <use x="440.869141" xlink:href="#DejaVuSans-50"/>
     <use x="504.492188" xlink:href="#DejaVuSans-46"/>
     <use x="536.279297" xlink:href="#DejaVuSans-53"/>
     <use x="599.902344" xlink:href="#DejaVuSans-54"/>
     <use x="663.525391" xlink:href="#DejaVuSans-32"/>
     <use x="695.3125" xlink:href="#DejaVuSans-40"/>
     <use x="734.326172" xlink:href="#DejaVuSans-50"/>
     <use x="797.949219" xlink:href="#DejaVuSans-104"/>
     <use x="861.328125" xlink:href="#DejaVuSans-44"/>
     <use x="893.115234" xlink:href="#DejaVuSans-32"/>
     <use x="924.902344" xlink:href="#DejaVuSans-53"/>
     <use x="988.525391" xlink:href="#DejaVuSans-32"/>
     <use x="1020.3125" xlink:href="#DejaVuSans-116"/>
     <use x="1059.521484" xlink:href="#DejaVuSans-114"/>
     <use x="1100.634766" xlink:href="#DejaVuSans-105"/>
     <use x="1128.417969" xlink:href="#DejaVuSans-97"/>
     <use x="1189.697266" xlink:href="#DejaVuSans-108"/>
     <use x="1217.480469" xlink:href="#DejaVuSans-115"/>
     <use x="1269.580078" xlink:href="#DejaVuSans-47"/>
     <use x="1303.271484" xlink:href="#DejaVuSans-102"/>
     <use x="1338.476562" xlink:href="#DejaVuSans-117"/>
     <use x="1401.855469" xlink:href="#DejaVuSans-122"/>
     <use x="1454.345703" xlink:href="#DejaVuSans-122"/>
     <use x="1506.835938" xlink:href="#DejaVuSans-101"/>
     <use x="1568.359375" xlink:href="#DejaVuSans-114"/>
     <use x="1609.472656" xlink:href="#DejaVuSans-41"/>
    </g>
   </g>
  </g>
 </g>
 <defs>
  <clipPath id="p72cdab2686">
   <rect height="266.112" width="357.12" x="53.328125" y="22.318125"/>
  </clipPath>
 </defs>
</svg>
