<?xml version="1.0" encoding="utf-8" standalone="no"?>
<!DOCTYPE svg PUBLIC "-//W3C//DTD SVG 1.1//EN"
  "http://www.w3.org/Graphics/SVG/1.1/DTD/svg11.dtd">
<!-- Created with matplotlib (https://matplotlib.org/) -->
<svg height="375.89624pt" version="1.1" viewBox="0 0 417.648125 375.89624" width="417.648125pt" xmlns="http://www.w3.org/2000/svg" xmlns:xlink="http://www.w3.org/1999/xlink">
 <metadata>
  <rdf:RDF xmlns:cc="http://creativecommons.org/ns#" xmlns:dc="http://purl.org/dc/elements/1.1/" xmlns:rdf="http://www.w3.org/1999/02/22-rdf-syntax-ns#">
   <cc:Work>
    <dc:type rdf:resource="http://purl.org/dc/dcmitype/StillImage"/>
    <dc:date>2020-11-16T19:30:57.166097</dc:date>
    <dc:format>image/svg+xml</dc:format>
    <dc:creator>
     <cc:Agent>
      <dc:title>Matplotlib v3.3.2, https://matplotlib.org/</dc:title>
     </cc:Agent>
    </dc:creator>
   </cc:Work>
  </rdf:RDF>
 </metadata>
 <defs>
  <style type="text/css">*{stroke-linecap:butt;stroke-linejoin:round;}</style>
 </defs>
 <g id="figure_1">
  <g id="patch_1">
   <path d="M 0 375.89624 
L 417.648125 375.89624 
L 417.648125 0 
L 0 0 
z
" style="fill:#ffffff;"/>
  </g>
  <g id="axes_1">
   <g id="patch_2">
    <path d="M 53.328125 288.430125 
L 410.448125 288.430125 
L 410.448125 22.318125 
L 53.328125 22.318125 
z
" style="fill:#ffffff;"/>
   </g>
   <g id="PolyCollection_1">
    <defs>
     <path d="M 115.538525 -99.562115 
L 110.157725 -99.562115 
L 109.72455 -101.651795 
L 109.240183 -103.741475 
L 108.702 -105.831155 
L 108.10785 -107.920834 
L 107.456165 -110.010514 
L 106.746075 -112.100194 
L 105.97751 -114.189873 
L 105.151296 -116.279553 
L 104.269243 -118.369233 
L 103.334201 -120.458912 
L 102.350107 -122.548592 
L 101.321993 -124.638272 
L 100.25597 -126.727952 
L 99.159178 -128.817631 
L 98.039694 -130.907311 
L 96.906411 -132.996991 
L 95.768878 -135.08667 
L 94.637112 -137.17635 
L 93.521374 -139.26603 
L 92.431924 -141.355709 
L 91.378769 -143.445389 
L 90.371384 -145.535069 
L 89.418454 -147.624749 
L 88.527608 -149.714428 
L 87.705187 -151.804108 
L 86.956033 -153.893788 
L 86.28332 -155.983467 
L 85.688433 -158.073147 
L 85.170896 -160.162827 
L 84.728364 -162.252506 
L 84.356673 -164.342186 
L 84.049951 -166.431866 
L 83.800789 -168.521546 
L 83.600471 -170.611225 
L 83.439249 -172.700905 
L 83.306657 -174.790585 
L 83.191862 -176.880264 
L 83.084021 -178.969944 
L 82.972659 -181.059624 
L 82.848023 -183.149303 
L 82.701428 -185.238983 
L 82.525562 -187.328663 
L 82.314751 -189.418343 
L 82.065171 -191.508022 
L 81.774996 -193.597702 
L 81.44448 -195.687382 
L 81.075979 -197.777061 
L 80.67389 -199.866741 
L 80.244538 -201.956421 
L 79.795993 -204.0461 
L 79.337841 -206.13578 
L 78.880896 -208.22546 
L 78.436897 -210.31514 
L 78.018162 -212.404819 
L 77.637243 -214.494499 
L 77.306576 -216.584179 
L 77.038138 -218.673858 
L 76.843134 -220.763538 
L 76.731704 -222.853218 
L 76.712676 -224.942897 
L 76.79336 -227.032577 
L 76.979386 -229.122257 
L 77.274597 -231.211937 
L 77.680993 -233.301616 
L 78.198719 -235.391296 
L 78.826107 -237.480976 
L 79.559753 -239.570655 
L 80.394641 -241.660335 
L 81.32429 -243.750015 
L 82.340934 -245.839694 
L 83.435715 -247.929374 
L 84.598898 -250.019054 
L 85.820083 -252.108734 
L 87.088427 -254.198413 
L 88.39285 -256.288093 
L 89.722247 -258.377773 
L 91.065674 -260.467452 
L 92.412524 -262.557132 
L 93.752683 -264.646812 
L 95.076661 -266.736492 
L 96.375711 -268.826171 
L 97.641912 -270.915851 
L 98.86824 -273.005531 
L 100.048611 -275.09521 
L 101.177908 -277.18489 
L 102.251979 -279.27457 
L 103.267626 -281.364249 
L 104.222575 -283.453929 
L 105.115429 -285.543609 
L 105.94561 -287.633289 
L 106.713292 -289.722968 
L 107.41933 -291.812648 
L 108.065174 -293.902328 
L 108.652792 -295.992007 
L 109.184581 -298.081687 
L 109.663288 -300.171367 
L 110.091927 -302.261046 
L 110.473704 -304.350726 
L 110.811946 -306.440406 
L 114.884304 -306.440406 
L 114.884304 -306.440406 
L 115.222546 -304.350726 
L 115.604323 -302.261046 
L 116.032962 -300.171367 
L 116.511669 -298.081687 
L 117.043458 -295.992007 
L 117.631076 -293.902328 
L 118.27692 -291.812648 
L 118.982958 -289.722968 
L 119.75064 -287.633289 
L 120.580821 -285.543609 
L 121.473675 -283.453929 
L 122.428624 -281.364249 
L 123.444271 -279.27457 
L 124.518342 -277.18489 
L 125.647639 -275.09521 
L 126.82801 -273.005531 
L 128.054338 -270.915851 
L 129.320539 -268.826171 
L 130.619589 -266.736492 
L 131.943567 -264.646812 
L 133.283726 -262.557132 
L 134.630576 -260.467452 
L 135.974003 -258.377773 
L 137.3034 -256.288093 
L 138.607823 -254.198413 
L 139.876167 -252.108734 
L 141.097352 -250.019054 
L 142.260535 -247.929374 
L 143.355316 -245.839694 
L 144.37196 -243.750015 
L 145.301609 -241.660335 
L 146.136497 -239.570655 
L 146.870143 -237.480976 
L 147.497531 -235.391296 
L 148.015257 -233.301616 
L 148.421653 -231.211937 
L 148.716864 -229.122257 
L 148.90289 -227.032577 
L 148.983574 -224.942897 
L 148.964546 -222.853218 
L 148.853116 -220.763538 
L 148.658112 -218.673858 
L 148.389674 -216.584179 
L 148.059007 -214.494499 
L 147.678088 -212.404819 
L 147.259353 -210.31514 
L 146.815354 -208.22546 
L 146.358409 -206.13578 
L 145.900257 -204.0461 
L 145.451712 -201.956421 
L 145.02236 -199.866741 
L 144.620271 -197.777061 
L 144.25177 -195.687382 
L 143.921254 -193.597702 
L 143.631079 -191.508022 
L 143.381499 -189.418343 
L 143.170688 -187.328663 
L 142.994822 -185.238983 
L 142.848227 -183.149303 
L 142.723591 -181.059624 
L 142.612229 -178.969944 
L 142.504388 -176.880264 
L 142.389593 -174.790585 
L 142.257001 -172.700905 
L 142.095779 -170.611225 
L 141.895461 -168.521546 
L 141.646299 -166.431866 
L 141.339577 -164.342186 
L 140.967886 -162.252506 
L 140.525354 -160.162827 
L 140.007817 -158.073147 
L 139.41293 -155.983467 
L 138.740217 -153.893788 
L 137.991063 -151.804108 
L 137.168642 -149.714428 
L 136.277796 -147.624749 
L 135.324866 -145.535069 
L 134.317481 -143.445389 
L 133.264326 -141.355709 
L 132.174876 -139.26603 
L 131.059138 -137.17635 
L 129.927372 -135.08667 
L 128.789839 -132.996991 
L 127.656556 -130.907311 
L 126.537072 -128.817631 
L 125.44028 -126.727952 
L 124.374257 -124.638272 
L 123.346143 -122.548592 
L 122.362049 -120.458912 
L 121.427007 -118.369233 
L 120.544954 -116.279553 
L 119.71874 -114.189873 
L 118.950175 -112.100194 
L 118.240085 -110.010514 
L 117.5884 -107.920834 
L 116.99425 -105.831155 
L 116.456067 -103.741475 
L 115.9717 -101.651795 
L 115.538525 -99.562115 
z
" id="md568830249" style="stroke:#3f3f3f;stroke-width:1.5;"/>
    </defs>
    <g clip-path="url(#pfd1a3dad8c)">
     <use style="fill:#9fd495;stroke:#3f3f3f;stroke-width:1.5;" x="0" xlink:href="#md568830249" y="375.89624"/>
    </g>
   </g>
   <g id="PolyCollection_2">
    <defs>
     <path d="M 235.979643 -118.900159 
L 227.796607 -118.900159 
L 227.186121 -121.148462 
L 226.50885 -123.396765 
L 225.761654 -125.645067 
L 224.941937 -127.89337 
L 224.047762 -130.141672 
L 223.077975 -132.389975 
L 222.032322 -134.638278 
L 220.911554 -136.88658 
L 219.717531 -139.134883 
L 218.453302 -141.383185 
L 217.123175 -143.631488 
L 215.732752 -145.87979 
L 214.288955 -148.128093 
L 212.800009 -150.376396 
L 211.275401 -152.624698 
L 209.725805 -154.873001 
L 208.162978 -157.121303 
L 206.599618 -159.369606 
L 205.049193 -161.617909 
L 203.525746 -163.866211 
L 202.043671 -166.114514 
L 200.617468 -168.362816 
L 199.261489 -170.611119 
L 197.989668 -172.859422 
L 196.815257 -175.107724 
L 195.750557 -177.356027 
L 194.80667 -179.604329 
L 193.993263 -181.852632 
L 193.318359 -184.100934 
L 192.788166 -186.349237 
L 192.406928 -188.59754 
L 192.176827 -190.845842 
L 192.097932 -193.094145 
L 192.168181 -195.342447 
L 192.383418 -197.59075 
L 192.73748 -199.839053 
L 193.222316 -202.087355 
L 193.828155 -204.335658 
L 194.543715 -206.58396 
L 195.356431 -208.832263 
L 196.252722 -211.080565 
L 197.218268 -213.328868 
L 198.23831 -215.577171 
L 199.297938 -217.825473 
L 200.382398 -220.073776 
L 201.477375 -222.322078 
L 202.56926 -224.570381 
L 203.645408 -226.818684 
L 204.694351 -229.066986 
L 205.70599 -231.315289 
L 206.671748 -233.563591 
L 207.584679 -235.811894 
L 208.439539 -238.060196 
L 209.232819 -240.308499 
L 209.962727 -242.556802 
L 210.62914 -244.805104 
L 211.233509 -247.053407 
L 211.778735 -249.301709 
L 212.269013 -251.550012 
L 212.709654 -253.798315 
L 213.106882 -256.046617 
L 213.467617 -258.29492 
L 213.799259 -260.543222 
L 214.109455 -262.791525 
L 214.405889 -265.039828 
L 214.696064 -267.28813 
L 214.987113 -269.536433 
L 215.28562 -271.784735 
L 215.597475 -274.033038 
L 215.927746 -276.28134 
L 216.280586 -278.529643 
L 216.659169 -280.777946 
L 217.065657 -283.026248 
L 217.501196 -285.274551 
L 217.965942 -287.522853 
L 218.459107 -289.771156 
L 218.979041 -292.019459 
L 219.523315 -294.267761 
L 220.088837 -296.516064 
L 220.671969 -298.764366 
L 221.26865 -301.012669 
L 221.874531 -303.260971 
L 222.485097 -305.509274 
L 223.095791 -307.757577 
L 223.70213 -310.005879 
L 224.299805 -312.254182 
L 224.884775 -314.502484 
L 225.453336 -316.750787 
L 226.002189 -318.99909 
L 226.528476 -321.247392 
L 227.029815 -323.495695 
L 227.504309 -325.743997 
L 227.950547 -327.9923 
L 228.367591 -330.240602 
L 228.754955 -332.488905 
L 229.112567 -334.737208 
L 229.440737 -336.98551 
L 229.74011 -339.233813 
L 230.011616 -341.482115 
L 233.764634 -341.482115 
L 233.764634 -341.482115 
L 234.03614 -339.233813 
L 234.335513 -336.98551 
L 234.663683 -334.737208 
L 235.021295 -332.488905 
L 235.408659 -330.240602 
L 235.825703 -327.9923 
L 236.271941 -325.743997 
L 236.746435 -323.495695 
L 237.247774 -321.247392 
L 237.774061 -318.99909 
L 238.322914 -316.750787 
L 238.891475 -314.502484 
L 239.476445 -312.254182 
L 240.07412 -310.005879 
L 240.680459 -307.757577 
L 241.291153 -305.509274 
L 241.901719 -303.260971 
L 242.5076 -301.012669 
L 243.104281 -298.764366 
L 243.687413 -296.516064 
L 244.252935 -294.267761 
L 244.797209 -292.019459 
L 245.317143 -289.771156 
L 245.810308 -287.522853 
L 246.275054 -285.274551 
L 246.710593 -283.026248 
L 247.117081 -280.777946 
L 247.495664 -278.529643 
L 247.848504 -276.28134 
L 248.178775 -274.033038 
L 248.49063 -271.784735 
L 248.789137 -269.536433 
L 249.080186 -267.28813 
L 249.370361 -265.039828 
L 249.666795 -262.791525 
L 249.976991 -260.543222 
L 250.308633 -258.29492 
L 250.669368 -256.046617 
L 251.066596 -253.798315 
L 251.507237 -251.550012 
L 251.997515 -249.301709 
L 252.542741 -247.053407 
L 253.14711 -244.805104 
L 253.813523 -242.556802 
L 254.543431 -240.308499 
L 255.336711 -238.060196 
L 256.191571 -235.811894 
L 257.104502 -233.563591 
L 258.07026 -231.315289 
L 259.081899 -229.066986 
L 260.130842 -226.818684 
L 261.20699 -224.570381 
L 262.298875 -222.322078 
L 263.393852 -220.073776 
L 264.478312 -217.825473 
L 265.53794 -215.577171 
L 266.557982 -213.328868 
L 267.523528 -211.080565 
L 268.419819 -208.832263 
L 269.232535 -206.58396 
L 269.948095 -204.335658 
L 270.553934 -202.087355 
L 271.03877 -199.839053 
L 271.392832 -197.59075 
L 271.608069 -195.342447 
L 271.678318 -193.094145 
L 271.599423 -190.845842 
L 271.369322 -188.59754 
L 270.988084 -186.349237 
L 270.457891 -184.100934 
L 269.782987 -181.852632 
L 268.96958 -179.604329 
L 268.025693 -177.356027 
L 266.960993 -175.107724 
L 265.786582 -172.859422 
L 264.514761 -170.611119 
L 263.158782 -168.362816 
L 261.732579 -166.114514 
L 260.250504 -163.866211 
L 258.727057 -161.617909 
L 257.176632 -159.369606 
L 255.613272 -157.121303 
L 254.050445 -154.873001 
L 252.500849 -152.624698 
L 250.976241 -150.376396 
L 249.487295 -148.128093 
L 248.043498 -145.87979 
L 246.653075 -143.631488 
L 245.322948 -141.383185 
L 244.058719 -139.134883 
L 242.864696 -136.88658 
L 241.743928 -134.638278 
L 240.698275 -132.389975 
L 239.728488 -130.141672 
L 238.834313 -127.89337 
L 238.014596 -125.645067 
L 237.2674 -123.396765 
L 236.590129 -121.148462 
L 235.979643 -118.900159 
z
" id="m3e603bf20a" style="stroke:#3f3f3f;stroke-width:1.5;"/>
    </defs>
    <g clip-path="url(#pfd1a3dad8c)">
     <use style="fill:#c03d3e;stroke:#3f3f3f;stroke-width:1.5;" x="0" xlink:href="#m3e603bf20a" y="375.89624"/>
    </g>
   </g>
   <g id="PolyCollection_3">
    <defs>
     <path d="M 354.561905 -107.023278 
L 347.294345 -107.023278 
L 346.771063 -108.662614 
L 346.191057 -110.30195 
L 345.551187 -111.941286 
L 344.848595 -113.580622 
L 344.08078 -115.219958 
L 343.245676 -116.859295 
L 342.341737 -118.498631 
L 341.368004 -120.137967 
L 340.324187 -121.777303 
L 339.210727 -123.416639 
L 338.028859 -125.055976 
L 336.78066 -126.695312 
L 335.469085 -128.334648 
L 334.097993 -129.973984 
L 332.672157 -131.61332 
L 331.19725 -133.252656 
L 329.679824 -134.891993 
L 328.127261 -136.531329 
L 326.547715 -138.170665 
L 324.950024 -139.810001 
L 323.34362 -141.449337 
L 321.738406 -143.088674 
L 320.144632 -144.72801 
L 318.572753 -146.367346 
L 317.033278 -148.006682 
L 315.536616 -149.646018 
L 314.092911 -151.285355 
L 312.711887 -152.924691 
L 311.402693 -154.564027 
L 310.17375 -156.203363 
L 309.032618 -157.842699 
L 307.985876 -159.482035 
L 307.039009 -161.121372 
L 306.196335 -162.760708 
L 305.460934 -164.400044 
L 304.83462 -166.03938 
L 304.317924 -167.678716 
L 303.910116 -169.318053 
L 303.609247 -170.957389 
L 303.412217 -172.596725 
L 303.314873 -174.236061 
L 303.312125 -175.875397 
L 303.398083 -177.514734 
L 303.566211 -179.15407 
L 303.809496 -180.793406 
L 304.120619 -182.432742 
L 304.492141 -184.072078 
L 304.916674 -185.711414 
L 305.387059 -187.350751 
L 305.896523 -188.990087 
L 306.438831 -190.629423 
L 307.008406 -192.268759 
L 307.600439 -193.908095 
L 308.210966 -195.547432 
L 308.836913 -197.186768 
L 309.476123 -198.826104 
L 310.127343 -200.46544 
L 310.790187 -202.104776 
L 311.46507 -203.744112 
L 312.153117 -205.383449 
L 312.85605 -207.022785 
L 313.576061 -208.662121 
L 314.315663 -210.301457 
L 315.077542 -211.940793 
L 315.864406 -213.58013 
L 316.678824 -215.219466 
L 317.523092 -216.858802 
L 318.399092 -218.498138 
L 319.30818 -220.137474 
L 320.251091 -221.776811 
L 321.227861 -223.416147 
L 322.237784 -225.055483 
L 323.279384 -226.694819 
L 324.350417 -228.334155 
L 325.447902 -229.973491 
L 326.568167 -231.612828 
L 327.706924 -233.252164 
L 328.859353 -234.8915 
L 330.020205 -236.530836 
L 331.183917 -238.170172 
L 332.344732 -239.809509 
L 333.496816 -241.448845 
L 334.634381 -243.088181 
L 335.7518 -244.727517 
L 336.843709 -246.366853 
L 337.905111 -248.006189 
L 338.931447 -249.645526 
L 339.918672 -251.284862 
L 340.863303 -252.924198 
L 341.762455 -254.563534 
L 342.613856 -256.20287 
L 343.41586 -257.842207 
L 344.167428 -259.481543 
L 344.868108 -261.120879 
L 345.518002 -262.760215 
L 346.117722 -264.399551 
L 346.668335 -266.038888 
L 347.171316 -267.678224 
L 347.628481 -269.31756 
L 354.227769 -269.31756 
L 354.227769 -269.31756 
L 354.684934 -267.678224 
L 355.187915 -266.038888 
L 355.738528 -264.399551 
L 356.338248 -262.760215 
L 356.988142 -261.120879 
L 357.688822 -259.481543 
L 358.44039 -257.842207 
L 359.242394 -256.20287 
L 360.093795 -254.563534 
L 360.992947 -252.924198 
L 361.937578 -251.284862 
L 362.924803 -249.645526 
L 363.951139 -248.006189 
L 365.012541 -246.366853 
L 366.10445 -244.727517 
L 367.221869 -243.088181 
L 368.359434 -241.448845 
L 369.511518 -239.809509 
L 370.672333 -238.170172 
L 371.836045 -236.530836 
L 372.996897 -234.8915 
L 374.149326 -233.252164 
L 375.288083 -231.612828 
L 376.408348 -229.973491 
L 377.505833 -228.334155 
L 378.576866 -226.694819 
L 379.618466 -225.055483 
L 380.628389 -223.416147 
L 381.605159 -221.776811 
L 382.54807 -220.137474 
L 383.457158 -218.498138 
L 384.333158 -216.858802 
L 385.177426 -215.219466 
L 385.991844 -213.58013 
L 386.778708 -211.940793 
L 387.540587 -210.301457 
L 388.280189 -208.662121 
L 389.0002 -207.022785 
L 389.703133 -205.383449 
L 390.39118 -203.744112 
L 391.066063 -202.104776 
L 391.728907 -200.46544 
L 392.380127 -198.826104 
L 393.019337 -197.186768 
L 393.645284 -195.547432 
L 394.255811 -193.908095 
L 394.847844 -192.268759 
L 395.417419 -190.629423 
L 395.959727 -188.990087 
L 396.469191 -187.350751 
L 396.939576 -185.711414 
L 397.364109 -184.072078 
L 397.735631 -182.432742 
L 398.046754 -180.793406 
L 398.290039 -179.15407 
L 398.458167 -177.514734 
L 398.544125 -175.875397 
L 398.541377 -174.236061 
L 398.444033 -172.596725 
L 398.247003 -170.957389 
L 397.946134 -169.318053 
L 397.538326 -167.678716 
L 397.02163 -166.03938 
L 396.395316 -164.400044 
L 395.659915 -162.760708 
L 394.817241 -161.121372 
L 393.870374 -159.482035 
L 392.823632 -157.842699 
L 391.6825 -156.203363 
L 390.453557 -154.564027 
L 389.144363 -152.924691 
L 387.763339 -151.285355 
L 386.319634 -149.646018 
L 384.822972 -148.006682 
L 383.283497 -146.367346 
L 381.711618 -144.72801 
L 380.117844 -143.088674 
L 378.51263 -141.449337 
L 376.906226 -139.810001 
L 375.308535 -138.170665 
L 373.728989 -136.531329 
L 372.176426 -134.891993 
L 370.659 -133.252656 
L 369.184093 -131.61332 
L 367.758257 -129.973984 
L 366.387165 -128.334648 
L 365.07559 -126.695312 
L 363.827391 -125.055976 
L 362.645523 -123.416639 
L 361.532063 -121.777303 
L 360.488246 -120.137967 
L 359.514513 -118.498631 
L 358.610574 -116.859295 
L 357.77547 -115.219958 
L 357.007655 -113.580622 
L 356.305063 -111.941286 
L 355.665193 -110.30195 
L 355.085187 -108.662614 
L 354.561905 -107.023278 
z
" id="m9e2259b879" style="stroke:#3f3f3f;stroke-width:1.5;"/>
    </defs>
    <g clip-path="url(#pfd1a3dad8c)">
     <use style="fill:#3274a1;stroke:#3f3f3f;stroke-width:1.5;" x="0" xlink:href="#m9e2259b879" y="375.89624"/>
    </g>
   </g>
   <g id="matplotlib.axis_1">
    <g id="xtick_1">
     <g id="line2d_1">
      <defs>
       <path d="M 0 0 
L 0 3.5 
" id="m7625afc4bc" style="stroke:#000000;stroke-width:0.8;"/>
      </defs>
      <g>
       <use style="stroke:#000000;stroke-width:0.8;" x="112.848125" xlink:href="#m7625afc4bc" y="288.430125"/>
      </g>
     </g>
     <g id="text_1">
      <!-- aflplusplus_hier_coe -->
      <g transform="translate(24.266958 352.472284)rotate(-30)scale(0.1 -0.1)">
       <defs>
        <path d="M 34.28125 27.484375 
Q 23.390625 27.484375 19.1875 25 
Q 14.984375 22.515625 14.984375 16.5 
Q 14.984375 11.71875 18.140625 8.90625 
Q 21.296875 6.109375 26.703125 6.109375 
Q 34.1875 6.109375 38.703125 11.40625 
Q 43.21875 16.703125 43.21875 25.484375 
L 43.21875 27.484375 
z
M 52.203125 31.203125 
L 52.203125 0 
L 43.21875 0 
L 43.21875 8.296875 
Q 40.140625 3.328125 35.546875 0.953125 
Q 30.953125 -1.421875 24.3125 -1.421875 
Q 15.921875 -1.421875 10.953125 3.296875 
Q 6 8.015625 6 15.921875 
Q 6 25.140625 12.171875 29.828125 
Q 18.359375 34.515625 30.609375 34.515625 
L 43.21875 34.515625 
L 43.21875 35.40625 
Q 43.21875 41.609375 39.140625 45 
Q 35.0625 48.390625 27.6875 48.390625 
Q 23 48.390625 18.546875 47.265625 
Q 14.109375 46.140625 10.015625 43.890625 
L 10.015625 52.203125 
Q 14.9375 54.109375 19.578125 55.046875 
Q 24.21875 56 28.609375 56 
Q 40.484375 56 46.34375 49.84375 
Q 52.203125 43.703125 52.203125 31.203125 
z
" id="DejaVuSans-97"/>
        <path d="M 37.109375 75.984375 
L 37.109375 68.5 
L 28.515625 68.5 
Q 23.6875 68.5 21.796875 66.546875 
Q 19.921875 64.59375 19.921875 59.515625 
L 19.921875 54.6875 
L 34.71875 54.6875 
L 34.71875 47.703125 
L 19.921875 47.703125 
L 19.921875 0 
L 10.890625 0 
L 10.890625 47.703125 
L 2.296875 47.703125 
L 2.296875 54.6875 
L 10.890625 54.6875 
L 10.890625 58.5 
Q 10.890625 67.625 15.140625 71.796875 
Q 19.390625 75.984375 28.609375 75.984375 
z
" id="DejaVuSans-102"/>
        <path d="M 9.421875 75.984375 
L 18.40625 75.984375 
L 18.40625 0 
L 9.421875 0 
z
" id="DejaVuSans-108"/>
        <path d="M 18.109375 8.203125 
L 18.109375 -20.796875 
L 9.078125 -20.796875 
L 9.078125 54.6875 
L 18.109375 54.6875 
L 18.109375 46.390625 
Q 20.953125 51.265625 25.265625 53.625 
Q 29.59375 56 35.59375 56 
Q 45.5625 56 51.78125 48.09375 
Q 58.015625 40.1875 58.015625 27.296875 
Q 58.015625 14.40625 51.78125 6.484375 
Q 45.5625 -1.421875 35.59375 -1.421875 
Q 29.59375 -1.421875 25.265625 0.953125 
Q 20.953125 3.328125 18.109375 8.203125 
z
M 48.6875 27.296875 
Q 48.6875 37.203125 44.609375 42.84375 
Q 40.53125 48.484375 33.40625 48.484375 
Q 26.265625 48.484375 22.1875 42.84375 
Q 18.109375 37.203125 18.109375 27.296875 
Q 18.109375 17.390625 22.1875 11.75 
Q 26.265625 6.109375 33.40625 6.109375 
Q 40.53125 6.109375 44.609375 11.75 
Q 48.6875 17.390625 48.6875 27.296875 
z
" id="DejaVuSans-112"/>
        <path d="M 8.5 21.578125 
L 8.5 54.6875 
L 17.484375 54.6875 
L 17.484375 21.921875 
Q 17.484375 14.15625 20.5 10.265625 
Q 23.53125 6.390625 29.59375 6.390625 
Q 36.859375 6.390625 41.078125 11.03125 
Q 45.3125 15.671875 45.3125 23.6875 
L 45.3125 54.6875 
L 54.296875 54.6875 
L 54.296875 0 
L 45.3125 0 
L 45.3125 8.40625 
Q 42.046875 3.421875 37.71875 1 
Q 33.40625 -1.421875 27.6875 -1.421875 
Q 18.265625 -1.421875 13.375 4.4375 
Q 8.5 10.296875 8.5 21.578125 
z
M 31.109375 56 
z
" id="DejaVuSans-117"/>
        <path d="M 44.28125 53.078125 
L 44.28125 44.578125 
Q 40.484375 46.53125 36.375 47.5 
Q 32.28125 48.484375 27.875 48.484375 
Q 21.1875 48.484375 17.84375 46.4375 
Q 14.5 44.390625 14.5 40.28125 
Q 14.5 37.15625 16.890625 35.375 
Q 19.28125 33.59375 26.515625 31.984375 
L 29.59375 31.296875 
Q 39.15625 29.25 43.1875 25.515625 
Q 47.21875 21.78125 47.21875 15.09375 
Q 47.21875 7.46875 41.1875 3.015625 
Q 35.15625 -1.421875 24.609375 -1.421875 
Q 20.21875 -1.421875 15.453125 -0.5625 
Q 10.6875 0.296875 5.421875 2 
L 5.421875 11.28125 
Q 10.40625 8.6875 15.234375 7.390625 
Q 20.0625 6.109375 24.8125 6.109375 
Q 31.15625 6.109375 34.5625 8.28125 
Q 37.984375 10.453125 37.984375 14.40625 
Q 37.984375 18.0625 35.515625 20.015625 
Q 33.0625 21.96875 24.703125 23.78125 
L 21.578125 24.515625 
Q 13.234375 26.265625 9.515625 29.90625 
Q 5.8125 33.546875 5.8125 39.890625 
Q 5.8125 47.609375 11.28125 51.796875 
Q 16.75 56 26.8125 56 
Q 31.78125 56 36.171875 55.265625 
Q 40.578125 54.546875 44.28125 53.078125 
z
" id="DejaVuSans-115"/>
        <path d="M 50.984375 -16.609375 
L 50.984375 -23.578125 
L -0.984375 -23.578125 
L -0.984375 -16.609375 
z
" id="DejaVuSans-95"/>
        <path d="M 54.890625 33.015625 
L 54.890625 0 
L 45.90625 0 
L 45.90625 32.71875 
Q 45.90625 40.484375 42.875 44.328125 
Q 39.84375 48.1875 33.796875 48.1875 
Q 26.515625 48.1875 22.3125 43.546875 
Q 18.109375 38.921875 18.109375 30.90625 
L 18.109375 0 
L 9.078125 0 
L 9.078125 75.984375 
L 18.109375 75.984375 
L 18.109375 46.1875 
Q 21.34375 51.125 25.703125 53.5625 
Q 30.078125 56 35.796875 56 
Q 45.21875 56 50.046875 50.171875 
Q 54.890625 44.34375 54.890625 33.015625 
z
" id="DejaVuSans-104"/>
        <path d="M 9.421875 54.6875 
L 18.40625 54.6875 
L 18.40625 0 
L 9.421875 0 
z
M 9.421875 75.984375 
L 18.40625 75.984375 
L 18.40625 64.59375 
L 9.421875 64.59375 
z
" id="DejaVuSans-105"/>
        <path d="M 56.203125 29.59375 
L 56.203125 25.203125 
L 14.890625 25.203125 
Q 15.484375 15.921875 20.484375 11.0625 
Q 25.484375 6.203125 34.421875 6.203125 
Q 39.59375 6.203125 44.453125 7.46875 
Q 49.3125 8.734375 54.109375 11.28125 
L 54.109375 2.78125 
Q 49.265625 0.734375 44.1875 -0.34375 
Q 39.109375 -1.421875 33.890625 -1.421875 
Q 20.796875 -1.421875 13.15625 6.1875 
Q 5.515625 13.8125 5.515625 26.8125 
Q 5.515625 40.234375 12.765625 48.109375 
Q 20.015625 56 32.328125 56 
Q 43.359375 56 49.78125 48.890625 
Q 56.203125 41.796875 56.203125 29.59375 
z
M 47.21875 32.234375 
Q 47.125 39.59375 43.09375 43.984375 
Q 39.0625 48.390625 32.421875 48.390625 
Q 24.90625 48.390625 20.390625 44.140625 
Q 15.875 39.890625 15.1875 32.171875 
z
" id="DejaVuSans-101"/>
        <path d="M 41.109375 46.296875 
Q 39.59375 47.171875 37.8125 47.578125 
Q 36.03125 48 33.890625 48 
Q 26.265625 48 22.1875 43.046875 
Q 18.109375 38.09375 18.109375 28.8125 
L 18.109375 0 
L 9.078125 0 
L 9.078125 54.6875 
L 18.109375 54.6875 
L 18.109375 46.1875 
Q 20.953125 51.171875 25.484375 53.578125 
Q 30.03125 56 36.53125 56 
Q 37.453125 56 38.578125 55.875 
Q 39.703125 55.765625 41.0625 55.515625 
z
" id="DejaVuSans-114"/>
        <path d="M 48.78125 52.59375 
L 48.78125 44.1875 
Q 44.96875 46.296875 41.140625 47.34375 
Q 37.3125 48.390625 33.40625 48.390625 
Q 24.65625 48.390625 19.8125 42.84375 
Q 14.984375 37.3125 14.984375 27.296875 
Q 14.984375 17.28125 19.8125 11.734375 
Q 24.65625 6.203125 33.40625 6.203125 
Q 37.3125 6.203125 41.140625 7.25 
Q 44.96875 8.296875 48.78125 10.40625 
L 48.78125 2.09375 
Q 45.015625 0.34375 40.984375 -0.53125 
Q 36.96875 -1.421875 32.421875 -1.421875 
Q 20.0625 -1.421875 12.78125 6.34375 
Q 5.515625 14.109375 5.515625 27.296875 
Q 5.515625 40.671875 12.859375 48.328125 
Q 20.21875 56 33.015625 56 
Q 37.15625 56 41.109375 55.140625 
Q 45.0625 54.296875 48.78125 52.59375 
z
" id="DejaVuSans-99"/>
        <path d="M 30.609375 48.390625 
Q 23.390625 48.390625 19.1875 42.75 
Q 14.984375 37.109375 14.984375 27.296875 
Q 14.984375 17.484375 19.15625 11.84375 
Q 23.34375 6.203125 30.609375 6.203125 
Q 37.796875 6.203125 41.984375 11.859375 
Q 46.1875 17.53125 46.1875 27.296875 
Q 46.1875 37.015625 41.984375 42.703125 
Q 37.796875 48.390625 30.609375 48.390625 
z
M 30.609375 56 
Q 42.328125 56 49.015625 48.375 
Q 55.71875 40.765625 55.71875 27.296875 
Q 55.71875 13.875 49.015625 6.21875 
Q 42.328125 -1.421875 30.609375 -1.421875 
Q 18.84375 -1.421875 12.171875 6.21875 
Q 5.515625 13.875 5.515625 27.296875 
Q 5.515625 40.765625 12.171875 48.375 
Q 18.84375 56 30.609375 56 
z
" id="DejaVuSans-111"/>
       </defs>
       <use xlink:href="#DejaVuSans-97"/>
       <use x="61.279297" xlink:href="#DejaVuSans-102"/>
       <use x="96.484375" xlink:href="#DejaVuSans-108"/>
       <use x="124.267578" xlink:href="#DejaVuSans-112"/>
       <use x="187.744141" xlink:href="#DejaVuSans-108"/>
       <use x="215.527344" xlink:href="#DejaVuSans-117"/>
       <use x="278.90625" xlink:href="#DejaVuSans-115"/>
       <use x="331.005859" xlink:href="#DejaVuSans-112"/>
       <use x="394.482422" xlink:href="#DejaVuSans-108"/>
       <use x="422.265625" xlink:href="#DejaVuSans-117"/>
       <use x="485.644531" xlink:href="#DejaVuSans-115"/>
       <use x="537.744141" xlink:href="#DejaVuSans-95"/>
       <use x="587.744141" xlink:href="#DejaVuSans-104"/>
       <use x="651.123047" xlink:href="#DejaVuSans-105"/>
       <use x="678.90625" xlink:href="#DejaVuSans-101"/>
       <use x="740.429688" xlink:href="#DejaVuSans-114"/>
       <use x="781.542969" xlink:href="#DejaVuSans-95"/>
       <use x="831.542969" xlink:href="#DejaVuSans-99"/>
       <use x="886.523438" xlink:href="#DejaVuSans-111"/>
       <use x="947.705078" xlink:href="#DejaVuSans-101"/>
      </g>
     </g>
    </g>
    <g id="xtick_2">
     <g id="line2d_2">
      <g>
       <use style="stroke:#000000;stroke-width:0.8;" x="231.888125" xlink:href="#m7625afc4bc" y="288.430125"/>
      </g>
     </g>
     <g id="text_2">
      <!-- aflplusplus_hier_fast -->
      <g transform="translate(142.434167 352.97619)rotate(-30)scale(0.1 -0.1)">
       <defs>
        <path d="M 18.3125 70.21875 
L 18.3125 54.6875 
L 36.8125 54.6875 
L 36.8125 47.703125 
L 18.3125 47.703125 
L 18.3125 18.015625 
Q 18.3125 11.328125 20.140625 9.421875 
Q 21.96875 7.515625 27.59375 7.515625 
L 36.8125 7.515625 
L 36.8125 0 
L 27.59375 0 
Q 17.1875 0 13.234375 3.875 
Q 9.28125 7.765625 9.28125 18.015625 
L 9.28125 47.703125 
L 2.6875 47.703125 
L 2.6875 54.6875 
L 9.28125 54.6875 
L 9.28125 70.21875 
z
" id="DejaVuSans-116"/>
       </defs>
       <use xlink:href="#DejaVuSans-97"/>
       <use x="61.279297" xlink:href="#DejaVuSans-102"/>
       <use x="96.484375" xlink:href="#DejaVuSans-108"/>
       <use x="124.267578" xlink:href="#DejaVuSans-112"/>
       <use x="187.744141" xlink:href="#DejaVuSans-108"/>
       <use x="215.527344" xlink:href="#DejaVuSans-117"/>
       <use x="278.90625" xlink:href="#DejaVuSans-115"/>
       <use x="331.005859" xlink:href="#DejaVuSans-112"/>
       <use x="394.482422" xlink:href="#DejaVuSans-108"/>
       <use x="422.265625" xlink:href="#DejaVuSans-117"/>
       <use x="485.644531" xlink:href="#DejaVuSans-115"/>
       <use x="537.744141" xlink:href="#DejaVuSans-95"/>
       <use x="587.744141" xlink:href="#DejaVuSans-104"/>
       <use x="651.123047" xlink:href="#DejaVuSans-105"/>
       <use x="678.90625" xlink:href="#DejaVuSans-101"/>
       <use x="740.429688" xlink:href="#DejaVuSans-114"/>
       <use x="781.542969" xlink:href="#DejaVuSans-95"/>
       <use x="831.542969" xlink:href="#DejaVuSans-102"/>
       <use x="866.748047" xlink:href="#DejaVuSans-97"/>
       <use x="928.027344" xlink:href="#DejaVuSans-115"/>
       <use x="980.126953" xlink:href="#DejaVuSans-116"/>
      </g>
     </g>
    </g>
    <g id="xtick_3">
     <g id="line2d_3">
      <g>
       <use style="stroke:#000000;stroke-width:0.8;" x="350.928125" xlink:href="#m7625afc4bc" y="288.430125"/>
      </g>
     </g>
     <g id="text_3">
      <!-- aflplusplus_hier -->
      <g transform="translate(282.066627 341.087127)rotate(-30)scale(0.1 -0.1)">
       <use xlink:href="#DejaVuSans-97"/>
       <use x="61.279297" xlink:href="#DejaVuSans-102"/>
       <use x="96.484375" xlink:href="#DejaVuSans-108"/>
       <use x="124.267578" xlink:href="#DejaVuSans-112"/>
       <use x="187.744141" xlink:href="#DejaVuSans-108"/>
       <use x="215.527344" xlink:href="#DejaVuSans-117"/>
       <use x="278.90625" xlink:href="#DejaVuSans-115"/>
       <use x="331.005859" xlink:href="#DejaVuSans-112"/>
       <use x="394.482422" xlink:href="#DejaVuSans-108"/>
       <use x="422.265625" xlink:href="#DejaVuSans-117"/>
       <use x="485.644531" xlink:href="#DejaVuSans-115"/>
       <use x="537.744141" xlink:href="#DejaVuSans-95"/>
       <use x="587.744141" xlink:href="#DejaVuSans-104"/>
       <use x="651.123047" xlink:href="#DejaVuSans-105"/>
       <use x="678.90625" xlink:href="#DejaVuSans-101"/>
       <use x="740.429688" xlink:href="#DejaVuSans-114"/>
      </g>
     </g>
    </g>
    <g id="text_4">
     <!-- Fuzzer (highest median coverage on the left) -->
     <g transform="translate(119.270156 366.616553)scale(0.1 -0.1)">
      <defs>
       <path d="M 9.8125 72.90625 
L 51.703125 72.90625 
L 51.703125 64.59375 
L 19.671875 64.59375 
L 19.671875 43.109375 
L 48.578125 43.109375 
L 48.578125 34.8125 
L 19.671875 34.8125 
L 19.671875 0 
L 9.8125 0 
z
" id="DejaVuSans-70"/>
       <path d="M 5.515625 54.6875 
L 48.1875 54.6875 
L 48.1875 46.484375 
L 14.40625 7.171875 
L 48.1875 7.171875 
L 48.1875 0 
L 4.296875 0 
L 4.296875 8.203125 
L 38.09375 47.515625 
L 5.515625 47.515625 
z
" id="DejaVuSans-122"/>
       <path id="DejaVuSans-32"/>
       <path d="M 31 75.875 
Q 24.46875 64.65625 21.28125 53.65625 
Q 18.109375 42.671875 18.109375 31.390625 
Q 18.109375 20.125 21.3125 9.0625 
Q 24.515625 -2 31 -13.1875 
L 23.1875 -13.1875 
Q 15.875 -1.703125 12.234375 9.375 
Q 8.59375 20.453125 8.59375 31.390625 
Q 8.59375 42.28125 12.203125 53.3125 
Q 15.828125 64.359375 23.1875 75.875 
z
" id="DejaVuSans-40"/>
       <path d="M 45.40625 27.984375 
Q 45.40625 37.75 41.375 43.109375 
Q 37.359375 48.484375 30.078125 48.484375 
Q 22.859375 48.484375 18.828125 43.109375 
Q 14.796875 37.75 14.796875 27.984375 
Q 14.796875 18.265625 18.828125 12.890625 
Q 22.859375 7.515625 30.078125 7.515625 
Q 37.359375 7.515625 41.375 12.890625 
Q 45.40625 18.265625 45.40625 27.984375 
z
M 54.390625 6.78125 
Q 54.390625 -7.171875 48.1875 -13.984375 
Q 42 -20.796875 29.203125 -20.796875 
Q 24.46875 -20.796875 20.265625 -20.09375 
Q 16.0625 -19.390625 12.109375 -17.921875 
L 12.109375 -9.1875 
Q 16.0625 -11.328125 19.921875 -12.34375 
Q 23.78125 -13.375 27.78125 -13.375 
Q 36.625 -13.375 41.015625 -8.765625 
Q 45.40625 -4.15625 45.40625 5.171875 
L 45.40625 9.625 
Q 42.625 4.78125 38.28125 2.390625 
Q 33.9375 0 27.875 0 
Q 17.828125 0 11.671875 7.65625 
Q 5.515625 15.328125 5.515625 27.984375 
Q 5.515625 40.671875 11.671875 48.328125 
Q 17.828125 56 27.875 56 
Q 33.9375 56 38.28125 53.609375 
Q 42.625 51.21875 45.40625 46.390625 
L 45.40625 54.6875 
L 54.390625 54.6875 
z
" id="DejaVuSans-103"/>
       <path d="M 52 44.1875 
Q 55.375 50.25 60.0625 53.125 
Q 64.75 56 71.09375 56 
Q 79.640625 56 84.28125 50.015625 
Q 88.921875 44.046875 88.921875 33.015625 
L 88.921875 0 
L 79.890625 0 
L 79.890625 32.71875 
Q 79.890625 40.578125 77.09375 44.375 
Q 74.3125 48.1875 68.609375 48.1875 
Q 61.625 48.1875 57.5625 43.546875 
Q 53.515625 38.921875 53.515625 30.90625 
L 53.515625 0 
L 44.484375 0 
L 44.484375 32.71875 
Q 44.484375 40.625 41.703125 44.40625 
Q 38.921875 48.1875 33.109375 48.1875 
Q 26.21875 48.1875 22.15625 43.53125 
Q 18.109375 38.875 18.109375 30.90625 
L 18.109375 0 
L 9.078125 0 
L 9.078125 54.6875 
L 18.109375 54.6875 
L 18.109375 46.1875 
Q 21.1875 51.21875 25.484375 53.609375 
Q 29.78125 56 35.6875 56 
Q 41.65625 56 45.828125 52.96875 
Q 50 49.953125 52 44.1875 
z
" id="DejaVuSans-109"/>
       <path d="M 45.40625 46.390625 
L 45.40625 75.984375 
L 54.390625 75.984375 
L 54.390625 0 
L 45.40625 0 
L 45.40625 8.203125 
Q 42.578125 3.328125 38.25 0.953125 
Q 33.9375 -1.421875 27.875 -1.421875 
Q 17.96875 -1.421875 11.734375 6.484375 
Q 5.515625 14.40625 5.515625 27.296875 
Q 5.515625 40.1875 11.734375 48.09375 
Q 17.96875 56 27.875 56 
Q 33.9375 56 38.25 53.625 
Q 42.578125 51.265625 45.40625 46.390625 
z
M 14.796875 27.296875 
Q 14.796875 17.390625 18.875 11.75 
Q 22.953125 6.109375 30.078125 6.109375 
Q 37.203125 6.109375 41.296875 11.75 
Q 45.40625 17.390625 45.40625 27.296875 
Q 45.40625 37.203125 41.296875 42.84375 
Q 37.203125 48.484375 30.078125 48.484375 
Q 22.953125 48.484375 18.875 42.84375 
Q 14.796875 37.203125 14.796875 27.296875 
z
" id="DejaVuSans-100"/>
       <path d="M 54.890625 33.015625 
L 54.890625 0 
L 45.90625 0 
L 45.90625 32.71875 
Q 45.90625 40.484375 42.875 44.328125 
Q 39.84375 48.1875 33.796875 48.1875 
Q 26.515625 48.1875 22.3125 43.546875 
Q 18.109375 38.921875 18.109375 30.90625 
L 18.109375 0 
L 9.078125 0 
L 9.078125 54.6875 
L 18.109375 54.6875 
L 18.109375 46.1875 
Q 21.34375 51.125 25.703125 53.5625 
Q 30.078125 56 35.796875 56 
Q 45.21875 56 50.046875 50.171875 
Q 54.890625 44.34375 54.890625 33.015625 
z
" id="DejaVuSans-110"/>
       <path d="M 2.984375 54.6875 
L 12.5 54.6875 
L 29.59375 8.796875 
L 46.6875 54.6875 
L 56.203125 54.6875 
L 35.6875 0 
L 23.484375 0 
z
" id="DejaVuSans-118"/>
       <path d="M 8.015625 75.875 
L 15.828125 75.875 
Q 23.140625 64.359375 26.78125 53.3125 
Q 30.421875 42.28125 30.421875 31.390625 
Q 30.421875 20.453125 26.78125 9.375 
Q 23.140625 -1.703125 15.828125 -13.1875 
L 8.015625 -13.1875 
Q 14.5 -2 17.703125 9.0625 
Q 20.90625 20.125 20.90625 31.390625 
Q 20.90625 42.671875 17.703125 53.65625 
Q 14.5 64.65625 8.015625 75.875 
z
" id="DejaVuSans-41"/>
      </defs>
      <use xlink:href="#DejaVuSans-70"/>
      <use x="52.019531" xlink:href="#DejaVuSans-117"/>
      <use x="115.398438" xlink:href="#DejaVuSans-122"/>
      <use x="167.888672" xlink:href="#DejaVuSans-122"/>
      <use x="220.378906" xlink:href="#DejaVuSans-101"/>
      <use x="281.902344" xlink:href="#DejaVuSans-114"/>
      <use x="323.015625" xlink:href="#DejaVuSans-32"/>
      <use x="354.802734" xlink:href="#DejaVuSans-40"/>
      <use x="393.816406" xlink:href="#DejaVuSans-104"/>
      <use x="457.195312" xlink:href="#DejaVuSans-105"/>
      <use x="484.978516" xlink:href="#DejaVuSans-103"/>
      <use x="548.455078" xlink:href="#DejaVuSans-104"/>
      <use x="611.833984" xlink:href="#DejaVuSans-101"/>
      <use x="673.357422" xlink:href="#DejaVuSans-115"/>
      <use x="725.457031" xlink:href="#DejaVuSans-116"/>
      <use x="764.666016" xlink:href="#DejaVuSans-32"/>
      <use x="796.453125" xlink:href="#DejaVuSans-109"/>
      <use x="893.865234" xlink:href="#DejaVuSans-101"/>
      <use x="955.388672" xlink:href="#DejaVuSans-100"/>
      <use x="1018.865234" xlink:href="#DejaVuSans-105"/>
      <use x="1046.648438" xlink:href="#DejaVuSans-97"/>
      <use x="1107.927734" xlink:href="#DejaVuSans-110"/>
      <use x="1171.306641" xlink:href="#DejaVuSans-32"/>
      <use x="1203.09375" xlink:href="#DejaVuSans-99"/>
      <use x="1258.074219" xlink:href="#DejaVuSans-111"/>
      <use x="1319.255859" xlink:href="#DejaVuSans-118"/>
      <use x="1378.435547" xlink:href="#DejaVuSans-101"/>
      <use x="1439.958984" xlink:href="#DejaVuSans-114"/>
      <use x="1481.072266" xlink:href="#DejaVuSans-97"/>
      <use x="1542.351562" xlink:href="#DejaVuSans-103"/>
      <use x="1605.828125" xlink:href="#DejaVuSans-101"/>
      <use x="1667.351562" xlink:href="#DejaVuSans-32"/>
      <use x="1699.138672" xlink:href="#DejaVuSans-111"/>
      <use x="1760.320312" xlink:href="#DejaVuSans-110"/>
      <use x="1823.699219" xlink:href="#DejaVuSans-32"/>
      <use x="1855.486328" xlink:href="#DejaVuSans-116"/>
      <use x="1894.695312" xlink:href="#DejaVuSans-104"/>
      <use x="1958.074219" xlink:href="#DejaVuSans-101"/>
      <use x="2019.597656" xlink:href="#DejaVuSans-32"/>
      <use x="2051.384766" xlink:href="#DejaVuSans-108"/>
      <use x="2079.167969" xlink:href="#DejaVuSans-101"/>
      <use x="2140.691406" xlink:href="#DejaVuSans-102"/>
      <use x="2174.146484" xlink:href="#DejaVuSans-116"/>
      <use x="2213.355469" xlink:href="#DejaVuSans-41"/>
     </g>
    </g>
   </g>
   <g id="matplotlib.axis_2">
    <g id="ytick_1">
     <g id="line2d_4">
      <defs>
       <path d="M 0 0 
L -3.5 0 
" id="m8b22078315" style="stroke:#000000;stroke-width:0.8;"/>
      </defs>
      <g>
       <use style="stroke:#000000;stroke-width:0.8;" x="53.328125" xlink:href="#m8b22078315" y="258.172321"/>
      </g>
     </g>
     <g id="text_5">
      <!-- 1975 -->
      <g transform="translate(20.878125 261.971539)scale(0.1 -0.1)">
       <defs>
        <path d="M 12.40625 8.296875 
L 28.515625 8.296875 
L 28.515625 63.921875 
L 10.984375 60.40625 
L 10.984375 69.390625 
L 28.421875 72.90625 
L 38.28125 72.90625 
L 38.28125 8.296875 
L 54.390625 8.296875 
L 54.390625 0 
L 12.40625 0 
z
" id="DejaVuSans-49"/>
        <path d="M 10.984375 1.515625 
L 10.984375 10.5 
Q 14.703125 8.734375 18.5 7.8125 
Q 22.3125 6.890625 25.984375 6.890625 
Q 35.75 6.890625 40.890625 13.453125 
Q 46.046875 20.015625 46.78125 33.40625 
Q 43.953125 29.203125 39.59375 26.953125 
Q 35.25 24.703125 29.984375 24.703125 
Q 19.046875 24.703125 12.671875 31.3125 
Q 6.296875 37.9375 6.296875 49.421875 
Q 6.296875 60.640625 12.9375 67.421875 
Q 19.578125 74.21875 30.609375 74.21875 
Q 43.265625 74.21875 49.921875 64.515625 
Q 56.59375 54.828125 56.59375 36.375 
Q 56.59375 19.140625 48.40625 8.859375 
Q 40.234375 -1.421875 26.421875 -1.421875 
Q 22.703125 -1.421875 18.890625 -0.6875 
Q 15.09375 0.046875 10.984375 1.515625 
z
M 30.609375 32.421875 
Q 37.25 32.421875 41.125 36.953125 
Q 45.015625 41.5 45.015625 49.421875 
Q 45.015625 57.28125 41.125 61.84375 
Q 37.25 66.40625 30.609375 66.40625 
Q 23.96875 66.40625 20.09375 61.84375 
Q 16.21875 57.28125 16.21875 49.421875 
Q 16.21875 41.5 20.09375 36.953125 
Q 23.96875 32.421875 30.609375 32.421875 
z
" id="DejaVuSans-57"/>
        <path d="M 8.203125 72.90625 
L 55.078125 72.90625 
L 55.078125 68.703125 
L 28.609375 0 
L 18.3125 0 
L 43.21875 64.59375 
L 8.203125 64.59375 
z
" id="DejaVuSans-55"/>
        <path d="M 10.796875 72.90625 
L 49.515625 72.90625 
L 49.515625 64.59375 
L 19.828125 64.59375 
L 19.828125 46.734375 
Q 21.96875 47.46875 24.109375 47.828125 
Q 26.265625 48.1875 28.421875 48.1875 
Q 40.625 48.1875 47.75 41.5 
Q 54.890625 34.8125 54.890625 23.390625 
Q 54.890625 11.625 47.5625 5.09375 
Q 40.234375 -1.421875 26.90625 -1.421875 
Q 22.3125 -1.421875 17.546875 -0.640625 
Q 12.796875 0.140625 7.71875 1.703125 
L 7.71875 11.625 
Q 12.109375 9.234375 16.796875 8.0625 
Q 21.484375 6.890625 26.703125 6.890625 
Q 35.15625 6.890625 40.078125 11.328125 
Q 45.015625 15.765625 45.015625 23.390625 
Q 45.015625 31 40.078125 35.4375 
Q 35.15625 39.890625 26.703125 39.890625 
Q 22.75 39.890625 18.8125 39.015625 
Q 14.890625 38.140625 10.796875 36.28125 
z
" id="DejaVuSans-53"/>
       </defs>
       <use xlink:href="#DejaVuSans-49"/>
       <use x="63.623047" xlink:href="#DejaVuSans-57"/>
       <use x="127.246094" xlink:href="#DejaVuSans-55"/>
       <use x="190.869141" xlink:href="#DejaVuSans-53"/>
      </g>
     </g>
    </g>
    <g id="ytick_2">
     <g id="line2d_5">
      <g>
       <use style="stroke:#000000;stroke-width:0.8;" x="53.328125" xlink:href="#m8b22078315" y="227.274733"/>
      </g>
     </g>
     <g id="text_6">
      <!-- 2000 -->
      <g transform="translate(20.878125 231.073952)scale(0.1 -0.1)">
       <defs>
        <path d="M 19.1875 8.296875 
L 53.609375 8.296875 
L 53.609375 0 
L 7.328125 0 
L 7.328125 8.296875 
Q 12.9375 14.109375 22.625 23.890625 
Q 32.328125 33.6875 34.8125 36.53125 
Q 39.546875 41.84375 41.421875 45.53125 
Q 43.3125 49.21875 43.3125 52.78125 
Q 43.3125 58.59375 39.234375 62.25 
Q 35.15625 65.921875 28.609375 65.921875 
Q 23.96875 65.921875 18.8125 64.3125 
Q 13.671875 62.703125 7.8125 59.421875 
L 7.8125 69.390625 
Q 13.765625 71.78125 18.9375 73 
Q 24.125 74.21875 28.421875 74.21875 
Q 39.75 74.21875 46.484375 68.546875 
Q 53.21875 62.890625 53.21875 53.421875 
Q 53.21875 48.921875 51.53125 44.890625 
Q 49.859375 40.875 45.40625 35.40625 
Q 44.1875 33.984375 37.640625 27.21875 
Q 31.109375 20.453125 19.1875 8.296875 
z
" id="DejaVuSans-50"/>
        <path d="M 31.78125 66.40625 
Q 24.171875 66.40625 20.328125 58.90625 
Q 16.5 51.421875 16.5 36.375 
Q 16.5 21.390625 20.328125 13.890625 
Q 24.171875 6.390625 31.78125 6.390625 
Q 39.453125 6.390625 43.28125 13.890625 
Q 47.125 21.390625 47.125 36.375 
Q 47.125 51.421875 43.28125 58.90625 
Q 39.453125 66.40625 31.78125 66.40625 
z
M 31.78125 74.21875 
Q 44.046875 74.21875 50.515625 64.515625 
Q 56.984375 54.828125 56.984375 36.375 
Q 56.984375 17.96875 50.515625 8.265625 
Q 44.046875 -1.421875 31.78125 -1.421875 
Q 19.53125 -1.421875 13.0625 8.265625 
Q 6.59375 17.96875 6.59375 36.375 
Q 6.59375 54.828125 13.0625 64.515625 
Q 19.53125 74.21875 31.78125 74.21875 
z
" id="DejaVuSans-48"/>
       </defs>
       <use xlink:href="#DejaVuSans-50"/>
       <use x="63.623047" xlink:href="#DejaVuSans-48"/>
       <use x="127.246094" xlink:href="#DejaVuSans-48"/>
       <use x="190.869141" xlink:href="#DejaVuSans-48"/>
      </g>
     </g>
    </g>
    <g id="ytick_3">
     <g id="line2d_6">
      <g>
       <use style="stroke:#000000;stroke-width:0.8;" x="53.328125" xlink:href="#m8b22078315" y="196.377146"/>
      </g>
     </g>
     <g id="text_7">
      <!-- 2025 -->
      <g transform="translate(20.878125 200.176365)scale(0.1 -0.1)">
       <use xlink:href="#DejaVuSans-50"/>
       <use x="63.623047" xlink:href="#DejaVuSans-48"/>
       <use x="127.246094" xlink:href="#DejaVuSans-50"/>
       <use x="190.869141" xlink:href="#DejaVuSans-53"/>
      </g>
     </g>
    </g>
    <g id="ytick_4">
     <g id="line2d_7">
      <g>
       <use style="stroke:#000000;stroke-width:0.8;" x="53.328125" xlink:href="#m8b22078315" y="165.479559"/>
      </g>
     </g>
     <g id="text_8">
      <!-- 2050 -->
      <g transform="translate(20.878125 169.278778)scale(0.1 -0.1)">
       <use xlink:href="#DejaVuSans-50"/>
       <use x="63.623047" xlink:href="#DejaVuSans-48"/>
       <use x="127.246094" xlink:href="#DejaVuSans-53"/>
       <use x="190.869141" xlink:href="#DejaVuSans-48"/>
      </g>
     </g>
    </g>
    <g id="ytick_5">
     <g id="line2d_8">
      <g>
       <use style="stroke:#000000;stroke-width:0.8;" x="53.328125" xlink:href="#m8b22078315" y="134.581972"/>
      </g>
     </g>
     <g id="text_9">
      <!-- 2075 -->
      <g transform="translate(20.878125 138.38119)scale(0.1 -0.1)">
       <use xlink:href="#DejaVuSans-50"/>
       <use x="63.623047" xlink:href="#DejaVuSans-48"/>
       <use x="127.246094" xlink:href="#DejaVuSans-55"/>
       <use x="190.869141" xlink:href="#DejaVuSans-53"/>
      </g>
     </g>
    </g>
    <g id="ytick_6">
     <g id="line2d_9">
      <g>
       <use style="stroke:#000000;stroke-width:0.8;" x="53.328125" xlink:href="#m8b22078315" y="103.684384"/>
      </g>
     </g>
     <g id="text_10">
      <!-- 2100 -->
      <g transform="translate(20.878125 107.483603)scale(0.1 -0.1)">
       <use xlink:href="#DejaVuSans-50"/>
       <use x="63.623047" xlink:href="#DejaVuSans-49"/>
       <use x="127.246094" xlink:href="#DejaVuSans-48"/>
       <use x="190.869141" xlink:href="#DejaVuSans-48"/>
      </g>
     </g>
    </g>
    <g id="ytick_7">
     <g id="line2d_10">
      <g>
       <use style="stroke:#000000;stroke-width:0.8;" x="53.328125" xlink:href="#m8b22078315" y="72.786797"/>
      </g>
     </g>
     <g id="text_11">
      <!-- 2125 -->
      <g transform="translate(20.878125 76.586016)scale(0.1 -0.1)">
       <use xlink:href="#DejaVuSans-50"/>
       <use x="63.623047" xlink:href="#DejaVuSans-49"/>
       <use x="127.246094" xlink:href="#DejaVuSans-50"/>
       <use x="190.869141" xlink:href="#DejaVuSans-53"/>
      </g>
     </g>
    </g>
    <g id="ytick_8">
     <g id="line2d_11">
      <g>
       <use style="stroke:#000000;stroke-width:0.8;" x="53.328125" xlink:href="#m8b22078315" y="41.88921"/>
      </g>
     </g>
     <g id="text_12">
      <!-- 2150 -->
      <g transform="translate(20.878125 45.688428)scale(0.1 -0.1)">
       <use xlink:href="#DejaVuSans-50"/>
       <use x="63.623047" xlink:href="#DejaVuSans-49"/>
       <use x="127.246094" xlink:href="#DejaVuSans-53"/>
       <use x="190.869141" xlink:href="#DejaVuSans-48"/>
      </g>
     </g>
    </g>
    <g id="text_13">
     <!-- Reached region coverage -->
     <g transform="translate(14.798438 219.136625)rotate(-90)scale(0.1 -0.1)">
      <defs>
       <path d="M 44.390625 34.1875 
Q 47.5625 33.109375 50.5625 29.59375 
Q 53.5625 26.078125 56.59375 19.921875 
L 66.609375 0 
L 56 0 
L 46.6875 18.703125 
Q 43.0625 26.03125 39.671875 28.421875 
Q 36.28125 30.8125 30.421875 30.8125 
L 19.671875 30.8125 
L 19.671875 0 
L 9.8125 0 
L 9.8125 72.90625 
L 32.078125 72.90625 
Q 44.578125 72.90625 50.734375 67.671875 
Q 56.890625 62.453125 56.890625 51.90625 
Q 56.890625 45.015625 53.6875 40.46875 
Q 50.484375 35.9375 44.390625 34.1875 
z
M 19.671875 64.796875 
L 19.671875 38.921875 
L 32.078125 38.921875 
Q 39.203125 38.921875 42.84375 42.21875 
Q 46.484375 45.515625 46.484375 51.90625 
Q 46.484375 58.296875 42.84375 61.546875 
Q 39.203125 64.796875 32.078125 64.796875 
z
" id="DejaVuSans-82"/>
      </defs>
      <use xlink:href="#DejaVuSans-82"/>
      <use x="64.982422" xlink:href="#DejaVuSans-101"/>
      <use x="126.505859" xlink:href="#DejaVuSans-97"/>
      <use x="187.785156" xlink:href="#DejaVuSans-99"/>
      <use x="242.765625" xlink:href="#DejaVuSans-104"/>
      <use x="306.144531" xlink:href="#DejaVuSans-101"/>
      <use x="367.667969" xlink:href="#DejaVuSans-100"/>
      <use x="431.144531" xlink:href="#DejaVuSans-32"/>
      <use x="462.931641" xlink:href="#DejaVuSans-114"/>
      <use x="501.794922" xlink:href="#DejaVuSans-101"/>
      <use x="563.318359" xlink:href="#DejaVuSans-103"/>
      <use x="626.794922" xlink:href="#DejaVuSans-105"/>
      <use x="654.578125" xlink:href="#DejaVuSans-111"/>
      <use x="715.759766" xlink:href="#DejaVuSans-110"/>
      <use x="779.138672" xlink:href="#DejaVuSans-32"/>
      <use x="810.925781" xlink:href="#DejaVuSans-99"/>
      <use x="865.90625" xlink:href="#DejaVuSans-111"/>
      <use x="927.087891" xlink:href="#DejaVuSans-118"/>
      <use x="986.267578" xlink:href="#DejaVuSans-101"/>
      <use x="1047.791016" xlink:href="#DejaVuSans-114"/>
      <use x="1088.904297" xlink:href="#DejaVuSans-97"/>
      <use x="1150.183594" xlink:href="#DejaVuSans-103"/>
      <use x="1213.660156" xlink:href="#DejaVuSans-101"/>
     </g>
    </g>
   </g>
   <g id="line2d_12">
    <path clip-path="url(#pfd1a3dad8c)" d="M 112.848125 218.623409 
L 112.848125 127.166551 
" style="fill:none;stroke:#3f3f3f;stroke-linecap:square;stroke-width:1.5;"/>
   </g>
   <g id="line2d_13">
    <path clip-path="url(#pfd1a3dad8c)" d="M 112.848125 211.207988 
L 112.848125 153.120524 
" style="fill:none;stroke:#3f3f3f;stroke-linecap:square;stroke-width:4.5;"/>
   </g>
   <g id="line2d_14">
    <path clip-path="url(#pfd1a3dad8c)" d="M 231.888125 191.433532 
L 231.888125 99.976674 
" style="fill:none;stroke:#3f3f3f;stroke-linecap:square;stroke-width:1.5;"/>
   </g>
   <g id="line2d_15">
    <path clip-path="url(#pfd1a3dad8c)" d="M 231.888125 191.433532 
L 231.888125 150.957693 
" style="fill:none;stroke:#3f3f3f;stroke-linecap:square;stroke-width:4.5;"/>
   </g>
   <g id="line2d_16">
    <path clip-path="url(#pfd1a3dad8c)" d="M 350.928125 218.623409 
L 350.928125 156.828234 
" style="fill:none;stroke:#3f3f3f;stroke-linecap:square;stroke-width:1.5;"/>
   </g>
   <g id="line2d_17">
    <path clip-path="url(#pfd1a3dad8c)" d="M 350.928125 207.500278 
L 350.928125 176.60269 
" style="fill:none;stroke:#3f3f3f;stroke-linecap:square;stroke-width:4.5;"/>
   </g>
   <g id="patch_3">
    <path d="M 53.328125 258.172321 
L 53.328125 41.88921 
" style="fill:none;stroke:#000000;stroke-linecap:square;stroke-linejoin:miter;stroke-width:0.8;"/>
   </g>
   <g id="patch_4">
    <path d="M 112.848125 288.430125 
L 350.928125 288.430125 
" style="fill:none;stroke:#000000;stroke-linecap:square;stroke-linejoin:miter;stroke-width:0.8;"/>
   </g>
   <g id="PathCollection_1">
    <defs>
     <path d="M 0 1.5 
C 0.397805 1.5 0.77937 1.341951 1.06066 1.06066 
C 1.341951 0.77937 1.5 0.397805 1.5 0 
C 1.5 -0.397805 1.341951 -0.77937 1.06066 -1.06066 
C 0.77937 -1.341951 0.397805 -1.5 0 -1.5 
C -0.397805 -1.5 -0.77937 -1.341951 -1.06066 -1.06066 
C -1.341951 -0.77937 -1.5 -0.397805 -1.5 0 
C -1.5 0.397805 -1.341951 0.77937 -1.06066 1.06066 
C -0.77937 1.341951 -0.397805 1.5 0 1.5 
z
" id="m92a38c9c68" style="stroke:#3f3f3f;"/>
    </defs>
    <g clip-path="url(#pfd1a3dad8c)">
     <use style="fill:#ffffff;stroke:#3f3f3f;" x="112.848125" xlink:href="#m92a38c9c68" y="155.592331"/>
    </g>
   </g>
   <g id="PathCollection_2">
    <g clip-path="url(#pfd1a3dad8c)">
     <use style="fill:#ffffff;stroke:#3f3f3f;" x="231.888125" xlink:href="#m92a38c9c68" y="179.692449"/>
    </g>
   </g>
   <g id="PathCollection_3">
    <g clip-path="url(#pfd1a3dad8c)">
     <use style="fill:#ffffff;stroke:#3f3f3f;" x="350.928125" xlink:href="#m92a38c9c68" y="196.377146"/>
    </g>
   </g>
   <g id="text_14">
    <!-- vorbis-2017-12-11 (2h, 3 trials/fuzzer) -->
    <g transform="translate(117.469063 16.318125)scale(0.12 -0.12)">
     <defs>
      <path d="M 48.6875 27.296875 
Q 48.6875 37.203125 44.609375 42.84375 
Q 40.53125 48.484375 33.40625 48.484375 
Q 26.265625 48.484375 22.1875 42.84375 
Q 18.109375 37.203125 18.109375 27.296875 
Q 18.109375 17.390625 22.1875 11.75 
Q 26.265625 6.109375 33.40625 6.109375 
Q 40.53125 6.109375 44.609375 11.75 
Q 48.6875 17.390625 48.6875 27.296875 
z
M 18.109375 46.390625 
Q 20.953125 51.265625 25.265625 53.625 
Q 29.59375 56 35.59375 56 
Q 45.5625 56 51.78125 48.09375 
Q 58.015625 40.1875 58.015625 27.296875 
Q 58.015625 14.40625 51.78125 6.484375 
Q 45.5625 -1.421875 35.59375 -1.421875 
Q 29.59375 -1.421875 25.265625 0.953125 
Q 20.953125 3.328125 18.109375 8.203125 
L 18.109375 0 
L 9.078125 0 
L 9.078125 75.984375 
L 18.109375 75.984375 
z
" id="DejaVuSans-98"/>
      <path d="M 4.890625 31.390625 
L 31.203125 31.390625 
L 31.203125 23.390625 
L 4.890625 23.390625 
z
" id="DejaVuSans-45"/>
      <path d="M 11.71875 12.40625 
L 22.015625 12.40625 
L 22.015625 4 
L 14.015625 -11.625 
L 7.71875 -11.625 
L 11.71875 4 
z
" id="DejaVuSans-44"/>
      <path d="M 40.578125 39.3125 
Q 47.65625 37.796875 51.625 33 
Q 55.609375 28.21875 55.609375 21.1875 
Q 55.609375 10.40625 48.1875 4.484375 
Q 40.765625 -1.421875 27.09375 -1.421875 
Q 22.515625 -1.421875 17.65625 -0.515625 
Q 12.796875 0.390625 7.625 2.203125 
L 7.625 11.71875 
Q 11.71875 9.328125 16.59375 8.109375 
Q 21.484375 6.890625 26.8125 6.890625 
Q 36.078125 6.890625 40.9375 10.546875 
Q 45.796875 14.203125 45.796875 21.1875 
Q 45.796875 27.640625 41.28125 31.265625 
Q 36.765625 34.90625 28.71875 34.90625 
L 20.21875 34.90625 
L 20.21875 43.015625 
L 29.109375 43.015625 
Q 36.375 43.015625 40.234375 45.921875 
Q 44.09375 48.828125 44.09375 54.296875 
Q 44.09375 59.90625 40.109375 62.90625 
Q 36.140625 65.921875 28.71875 65.921875 
Q 24.65625 65.921875 20.015625 65.03125 
Q 15.375 64.15625 9.8125 62.3125 
L 9.8125 71.09375 
Q 15.4375 72.65625 20.34375 73.4375 
Q 25.25 74.21875 29.59375 74.21875 
Q 40.828125 74.21875 47.359375 69.109375 
Q 53.90625 64.015625 53.90625 55.328125 
Q 53.90625 49.265625 50.4375 45.09375 
Q 46.96875 40.921875 40.578125 39.3125 
z
" id="DejaVuSans-51"/>
      <path d="M 25.390625 72.90625 
L 33.6875 72.90625 
L 8.296875 -9.28125 
L 0 -9.28125 
z
" id="DejaVuSans-47"/>
     </defs>
     <use xlink:href="#DejaVuSans-118"/>
     <use x="59.179688" xlink:href="#DejaVuSans-111"/>
     <use x="120.361328" xlink:href="#DejaVuSans-114"/>
     <use x="161.474609" xlink:href="#DejaVuSans-98"/>
     <use x="224.951172" xlink:href="#DejaVuSans-105"/>
     <use x="252.734375" xlink:href="#DejaVuSans-115"/>
     <use x="304.833984" xlink:href="#DejaVuSans-45"/>
     <use x="340.917969" xlink:href="#DejaVuSans-50"/>
     <use x="404.541016" xlink:href="#DejaVuSans-48"/>
     <use x="468.164062" xlink:href="#DejaVuSans-49"/>
     <use x="531.787109" xlink:href="#DejaVuSans-55"/>
     <use x="595.410156" xlink:href="#DejaVuSans-45"/>
     <use x="631.494141" xlink:href="#DejaVuSans-49"/>
     <use x="695.117188" xlink:href="#DejaVuSans-50"/>
     <use x="758.740234" xlink:href="#DejaVuSans-45"/>
     <use x="794.824219" xlink:href="#DejaVuSans-49"/>
     <use x="858.447266" xlink:href="#DejaVuSans-49"/>
     <use x="922.070312" xlink:href="#DejaVuSans-32"/>
     <use x="953.857422" xlink:href="#DejaVuSans-40"/>
     <use x="992.871094" xlink:href="#DejaVuSans-50"/>
     <use x="1056.494141" xlink:href="#DejaVuSans-104"/>
     <use x="1119.873047" xlink:href="#DejaVuSans-44"/>
     <use x="1151.660156" xlink:href="#DejaVuSans-32"/>
     <use x="1183.447266" xlink:href="#DejaVuSans-51"/>
     <use x="1247.070312" xlink:href="#DejaVuSans-32"/>
     <use x="1278.857422" xlink:href="#DejaVuSans-116"/>
     <use x="1318.066406" xlink:href="#DejaVuSans-114"/>
     <use x="1359.179688" xlink:href="#DejaVuSans-105"/>
     <use x="1386.962891" xlink:href="#DejaVuSans-97"/>
     <use x="1448.242188" xlink:href="#DejaVuSans-108"/>
     <use x="1476.025391" xlink:href="#DejaVuSans-115"/>
     <use x="1528.125" xlink:href="#DejaVuSans-47"/>
     <use x="1561.816406" xlink:href="#DejaVuSans-102"/>
     <use x="1597.021484" xlink:href="#DejaVuSans-117"/>
     <use x="1660.400391" xlink:href="#DejaVuSans-122"/>
     <use x="1712.890625" xlink:href="#DejaVuSans-122"/>
     <use x="1765.380859" xlink:href="#DejaVuSans-101"/>
     <use x="1826.904297" xlink:href="#DejaVuSans-114"/>
     <use x="1868.017578" xlink:href="#DejaVuSans-41"/>
    </g>
   </g>
  </g>
 </g>
 <defs>
  <clipPath id="pfd1a3dad8c">
   <rect height="266.112" width="357.12" x="53.328125" y="22.318125"/>
  </clipPath>
 </defs>
</svg>
