<?xml version="1.0" encoding="utf-8" standalone="no"?>
<!DOCTYPE svg PUBLIC "-//W3C//DTD SVG 1.1//EN"
  "http://www.w3.org/Graphics/SVG/1.1/DTD/svg11.dtd">
<!-- Created with matplotlib (https://matplotlib.org/) -->
<svg height="375.392334pt" version="1.1" viewBox="0 0 424.010625 375.392334" width="424.010625pt" xmlns="http://www.w3.org/2000/svg" xmlns:xlink="http://www.w3.org/1999/xlink">
 <metadata>
  <rdf:RDF xmlns:cc="http://creativecommons.org/ns#" xmlns:dc="http://purl.org/dc/elements/1.1/" xmlns:rdf="http://www.w3.org/1999/02/22-rdf-syntax-ns#">
   <cc:Work>
    <dc:type rdf:resource="http://purl.org/dc/dcmitype/StillImage"/>
    <dc:date>2020-11-17T21:16:39.357729</dc:date>
    <dc:format>image/svg+xml</dc:format>
    <dc:creator>
     <cc:Agent>
      <dc:title>Matplotlib v3.3.2, https://matplotlib.org/</dc:title>
     </cc:Agent>
    </dc:creator>
   </cc:Work>
  </rdf:RDF>
 </metadata>
 <defs>
  <style type="text/css">*{stroke-linecap:butt;stroke-linejoin:round;}</style>
 </defs>
 <g id="figure_1">
  <g id="patch_1">
   <path d="M 0 375.392334 
L 424.010625 375.392334 
L 424.010625 0 
L 0 0 
z
" style="fill:#ffffff;"/>
  </g>
  <g id="axes_1">
   <g id="patch_2">
    <path d="M 59.690625 288.430125 
L 416.810625 288.430125 
L 416.810625 22.318125 
L 59.690625 22.318125 
z
" style="fill:#ffffff;"/>
   </g>
   <g id="PolyCollection_1">
    <defs>
     <path d="M 119.654156 -226.39842 
L 118.767094 -226.39842 
L 118.714031 -227.555791 
L 118.65636 -228.713163 
L 118.59392 -229.870535 
L 118.526579 -231.027906 
L 118.454237 -232.185278 
L 118.376826 -233.342649 
L 118.294318 -234.500021 
L 118.206728 -235.657393 
L 118.114116 -236.814764 
L 118.016588 -237.972136 
L 117.914302 -239.129507 
L 117.807465 -240.286879 
L 117.696337 -241.444251 
L 117.581227 -242.601622 
L 117.462494 -243.758994 
L 117.340545 -244.916366 
L 117.215829 -246.073737 
L 117.088836 -247.231109 
L 116.960089 -248.38848 
L 116.830141 -249.545852 
L 116.699566 -250.703224 
L 116.568953 -251.860595 
L 116.4389 -253.017967 
L 116.310002 -254.175338 
L 116.182848 -255.33271 
L 116.05801 -256.490082 
L 115.936035 -257.647453 
L 115.81744 -258.804825 
L 115.702707 -259.962196 
L 115.592274 -261.119568 
L 115.486529 -262.27694 
L 115.385815 -263.434311 
L 115.290418 -264.591683 
L 115.200571 -265.749055 
L 115.116456 -266.906426 
L 115.038199 -268.063798 
L 114.965882 -269.221169 
L 114.899538 -270.378541 
L 114.839162 -271.535913 
L 114.784715 -272.693284 
L 114.73613 -273.850656 
L 114.693319 -275.008027 
L 114.656181 -276.165399 
L 114.624609 -277.322771 
L 114.598496 -278.480142 
L 114.577742 -279.637514 
L 114.56226 -280.794885 
L 114.551979 -281.952257 
L 114.546851 -283.109629 
L 114.546851 -284.267 
L 114.551979 -285.424372 
L 114.56226 -286.581743 
L 114.577742 -287.739115 
L 114.598496 -288.896487 
L 114.624609 -290.053858 
L 114.656181 -291.21123 
L 114.693319 -292.368602 
L 114.73613 -293.525973 
L 114.784715 -294.683345 
L 114.839162 -295.840716 
L 114.899538 -296.998088 
L 114.965882 -298.15546 
L 115.038199 -299.312831 
L 115.116456 -300.470203 
L 115.200571 -301.627574 
L 115.290418 -302.784946 
L 115.385815 -303.942318 
L 115.486529 -305.099689 
L 115.592274 -306.257061 
L 115.702707 -307.414432 
L 115.81744 -308.571804 
L 115.936035 -309.729176 
L 116.05801 -310.886547 
L 116.182848 -312.043919 
L 116.310002 -313.201291 
L 116.4389 -314.358662 
L 116.568953 -315.516034 
L 116.699566 -316.673405 
L 116.830141 -317.830777 
L 116.960089 -318.988149 
L 117.088836 -320.14552 
L 117.215829 -321.302892 
L 117.340545 -322.460263 
L 117.462494 -323.617635 
L 117.581227 -324.775007 
L 117.696337 -325.932378 
L 117.807465 -327.08975 
L 117.914302 -328.247121 
L 118.016588 -329.404493 
L 118.114116 -330.561865 
L 118.206728 -331.719236 
L 118.294318 -332.876608 
L 118.376826 -334.03398 
L 118.454237 -335.191351 
L 118.526579 -336.348723 
L 118.59392 -337.506094 
L 118.65636 -338.663466 
L 118.714031 -339.820838 
L 118.767094 -340.978209 
L 119.654156 -340.978209 
L 119.654156 -340.978209 
L 119.707219 -339.820838 
L 119.76489 -338.663466 
L 119.82733 -337.506094 
L 119.894671 -336.348723 
L 119.967013 -335.191351 
L 120.044424 -334.03398 
L 120.126932 -332.876608 
L 120.214522 -331.719236 
L 120.307134 -330.561865 
L 120.404662 -329.404493 
L 120.506948 -328.247121 
L 120.613785 -327.08975 
L 120.724913 -325.932378 
L 120.840023 -324.775007 
L 120.958756 -323.617635 
L 121.080705 -322.460263 
L 121.205421 -321.302892 
L 121.332414 -320.14552 
L 121.461161 -318.988149 
L 121.591109 -317.830777 
L 121.721684 -316.673405 
L 121.852297 -315.516034 
L 121.98235 -314.358662 
L 122.111248 -313.201291 
L 122.238402 -312.043919 
L 122.36324 -310.886547 
L 122.485215 -309.729176 
L 122.60381 -308.571804 
L 122.718543 -307.414432 
L 122.828976 -306.257061 
L 122.934721 -305.099689 
L 123.035435 -303.942318 
L 123.130832 -302.784946 
L 123.220679 -301.627574 
L 123.304794 -300.470203 
L 123.383051 -299.312831 
L 123.455368 -298.15546 
L 123.521712 -296.998088 
L 123.582088 -295.840716 
L 123.636535 -294.683345 
L 123.68512 -293.525973 
L 123.727931 -292.368602 
L 123.765069 -291.21123 
L 123.796641 -290.053858 
L 123.822754 -288.896487 
L 123.843508 -287.739115 
L 123.85899 -286.581743 
L 123.869271 -285.424372 
L 123.874399 -284.267 
L 123.874399 -283.109629 
L 123.869271 -281.952257 
L 123.85899 -280.794885 
L 123.843508 -279.637514 
L 123.822754 -278.480142 
L 123.796641 -277.322771 
L 123.765069 -276.165399 
L 123.727931 -275.008027 
L 123.68512 -273.850656 
L 123.636535 -272.693284 
L 123.582088 -271.535913 
L 123.521712 -270.378541 
L 123.455368 -269.221169 
L 123.383051 -268.063798 
L 123.304794 -266.906426 
L 123.220679 -265.749055 
L 123.130832 -264.591683 
L 123.035435 -263.434311 
L 122.934721 -262.27694 
L 122.828976 -261.119568 
L 122.718543 -259.962196 
L 122.60381 -258.804825 
L 122.485215 -257.647453 
L 122.36324 -256.490082 
L 122.238402 -255.33271 
L 122.111248 -254.175338 
L 121.98235 -253.017967 
L 121.852297 -251.860595 
L 121.721684 -250.703224 
L 121.591109 -249.545852 
L 121.461161 -248.38848 
L 121.332414 -247.231109 
L 121.205421 -246.073737 
L 121.080705 -244.916366 
L 120.958756 -243.758994 
L 120.840023 -242.601622 
L 120.724913 -241.444251 
L 120.613785 -240.286879 
L 120.506948 -239.129507 
L 120.404662 -237.972136 
L 120.307134 -236.814764 
L 120.214522 -235.657393 
L 120.126932 -234.500021 
L 120.044424 -233.342649 
L 119.967013 -232.185278 
L 119.894671 -231.027906 
L 119.82733 -229.870535 
L 119.76489 -228.713163 
L 119.707219 -227.555791 
L 119.654156 -226.39842 
z
" id="m1269aa5187" style="stroke:#3f3f3f;stroke-width:1.5;"/>
    </defs>
    <g clip-path="url(#pc7d6a88100)">
     <use style="fill:#3274a1;stroke:#3f3f3f;stroke-width:1.5;" x="0" xlink:href="#m1269aa5187" y="375.392334"/>
    </g>
   </g>
   <g id="PolyCollection_2">
    <defs>
     <path d="M 241.321042 -267.308214 
L 235.180208 -267.308214 
L 234.773135 -267.430964 
L 234.327487 -267.553714 
L 233.841991 -267.676464 
L 233.31569 -267.799214 
L 232.747995 -267.921965 
L 232.138727 -268.044715 
L 231.488164 -268.167465 
L 230.797073 -268.290215 
L 230.066739 -268.412966 
L 229.298987 -268.535716 
L 228.496184 -268.658466 
L 227.661239 -268.781216 
L 226.797581 -268.903967 
L 225.909128 -269.026717 
L 225.000239 -269.149467 
L 224.075652 -269.272217 
L 223.140403 -269.394968 
L 222.199742 -269.517718 
L 221.259023 -269.640468 
L 220.323597 -269.763218 
L 219.39869 -269.885969 
L 218.489278 -270.008719 
L 217.59996 -270.131469 
L 216.734838 -270.254219 
L 215.8974 -270.376969 
L 215.09041 -270.49972 
L 214.315821 -270.62247 
L 213.574698 -270.74522 
L 212.867165 -270.86797 
L 212.192381 -270.990721 
L 211.548536 -271.113471 
L 210.932879 -271.236221 
L 210.341774 -271.358971 
L 209.770791 -271.481722 
L 209.214816 -271.604472 
L 208.668193 -271.727222 
L 208.124892 -271.849972 
L 207.578692 -271.972723 
L 207.023382 -272.095473 
L 206.452971 -272.218223 
L 205.861903 -272.340973 
L 205.245273 -272.463724 
L 204.599027 -272.586474 
L 203.920155 -272.709224 
L 203.206861 -272.831974 
L 202.458703 -272.954724 
L 201.676706 -273.077475 
L 200.863431 -273.200225 
L 200.023018 -273.322975 
L 199.16117 -273.445725 
L 198.285109 -273.568476 
L 197.403476 -273.691226 
L 196.526201 -273.813976 
L 195.664328 -273.936726 
L 194.829805 -274.059477 
L 194.035247 -274.182227 
L 193.293675 -274.304977 
L 192.618236 -274.427727 
L 192.021916 -274.550478 
L 191.51725 -274.673228 
L 191.116039 -274.795978 
L 190.829081 -274.918728 
L 190.665919 -275.041479 
L 190.634625 -275.164229 
L 190.741607 -275.286979 
L 190.991463 -275.409729 
L 191.386872 -275.532479 
L 191.928531 -275.65523 
L 192.615136 -275.77798 
L 193.443409 -275.90073 
L 194.408167 -276.02348 
L 195.502435 -276.146231 
L 196.717592 -276.268981 
L 198.043551 -276.391731 
L 199.468965 -276.514481 
L 200.981454 -276.637232 
L 202.567846 -276.759982 
L 204.214427 -276.882732 
L 205.907187 -277.005482 
L 207.632068 -277.128233 
L 209.375199 -277.250983 
L 211.12311 -277.373733 
L 212.862933 -277.496483 
L 214.582573 -277.619234 
L 216.270863 -277.741984 
L 217.917674 -277.864734 
L 219.514013 -277.987484 
L 221.052082 -278.110234 
L 222.52531 -278.232985 
L 223.928361 -278.355735 
L 225.257118 -278.478485 
L 226.508638 -278.601235 
L 227.681096 -278.723986 
L 228.773709 -278.846736 
L 229.786648 -278.969486 
L 230.720939 -279.092236 
L 231.578361 -279.214987 
L 232.361339 -279.337737 
L 233.072836 -279.460487 
L 243.428414 -279.460487 
L 243.428414 -279.460487 
L 244.139911 -279.337737 
L 244.922889 -279.214987 
L 245.780311 -279.092236 
L 246.714602 -278.969486 
L 247.727541 -278.846736 
L 248.820154 -278.723986 
L 249.992612 -278.601235 
L 251.244132 -278.478485 
L 252.572889 -278.355735 
L 253.97594 -278.232985 
L 255.449168 -278.110234 
L 256.987237 -277.987484 
L 258.583576 -277.864734 
L 260.230387 -277.741984 
L 261.918677 -277.619234 
L 263.638317 -277.496483 
L 265.37814 -277.373733 
L 267.126051 -277.250983 
L 268.869182 -277.128233 
L 270.594063 -277.005482 
L 272.286823 -276.882732 
L 273.933404 -276.759982 
L 275.519796 -276.637232 
L 277.032285 -276.514481 
L 278.457699 -276.391731 
L 279.783658 -276.268981 
L 280.998815 -276.146231 
L 282.093083 -276.02348 
L 283.057841 -275.90073 
L 283.886114 -275.77798 
L 284.572719 -275.65523 
L 285.114378 -275.532479 
L 285.509787 -275.409729 
L 285.759643 -275.286979 
L 285.866625 -275.164229 
L 285.835331 -275.041479 
L 285.672169 -274.918728 
L 285.385211 -274.795978 
L 284.984 -274.673228 
L 284.479334 -274.550478 
L 283.883014 -274.427727 
L 283.207575 -274.304977 
L 282.466003 -274.182227 
L 281.671445 -274.059477 
L 280.836922 -273.936726 
L 279.975049 -273.813976 
L 279.097774 -273.691226 
L 278.216141 -273.568476 
L 277.34008 -273.445725 
L 276.478232 -273.322975 
L 275.637819 -273.200225 
L 274.824544 -273.077475 
L 274.042547 -272.954724 
L 273.294389 -272.831974 
L 272.581095 -272.709224 
L 271.902223 -272.586474 
L 271.255977 -272.463724 
L 270.639347 -272.340973 
L 270.048279 -272.218223 
L 269.477868 -272.095473 
L 268.922558 -271.972723 
L 268.376358 -271.849972 
L 267.833057 -271.727222 
L 267.286434 -271.604472 
L 266.730459 -271.481722 
L 266.159476 -271.358971 
L 265.568371 -271.236221 
L 264.952714 -271.113471 
L 264.308869 -270.990721 
L 263.634085 -270.86797 
L 262.926552 -270.74522 
L 262.185429 -270.62247 
L 261.41084 -270.49972 
L 260.60385 -270.376969 
L 259.766412 -270.254219 
L 258.90129 -270.131469 
L 258.011972 -270.008719 
L 257.10256 -269.885969 
L 256.177653 -269.763218 
L 255.242227 -269.640468 
L 254.301508 -269.517718 
L 253.360847 -269.394968 
L 252.425598 -269.272217 
L 251.501011 -269.149467 
L 250.592122 -269.026717 
L 249.703669 -268.903967 
L 248.840011 -268.781216 
L 248.005066 -268.658466 
L 247.202263 -268.535716 
L 246.434511 -268.412966 
L 245.704177 -268.290215 
L 245.013086 -268.167465 
L 244.362523 -268.044715 
L 243.753255 -267.921965 
L 243.18556 -267.799214 
L 242.659259 -267.676464 
L 242.173763 -267.553714 
L 241.728115 -267.430964 
L 241.321042 -267.308214 
z
" id="me24459c241" style="stroke:#3f3f3f;stroke-width:1.5;"/>
    </defs>
    <g clip-path="url(#pc7d6a88100)">
     <use style="fill:#c03d3e;stroke:#3f3f3f;stroke-width:1.5;" x="0" xlink:href="#me24459c241" y="375.392334"/>
    </g>
   </g>
   <g id="PolyCollection_3">
    <defs>
     <path d="M 357.446442 -99.058209 
L 357.134808 -99.058209 
L 357.114071 -101.485905 
L 357.091361 -103.9136 
L 357.066612 -106.341296 
L 357.039777 -108.768991 
L 357.010823 -111.196686 
L 356.979742 -113.624382 
L 356.946548 -116.052077 
L 356.91128 -118.479773 
L 356.874005 -120.907468 
L 356.834816 -123.335164 
L 356.793834 -125.762859 
L 356.751208 -128.190555 
L 356.707116 -130.61825 
L 356.661757 -133.045946 
L 356.615355 -135.473641 
L 356.568153 -137.901336 
L 356.520409 -140.329032 
L 356.472392 -142.756727 
L 356.424374 -145.184423 
L 356.376629 -147.612118 
L 356.329424 -150.039814 
L 356.283012 -152.467509 
L 356.237627 -154.895205 
L 356.193476 -157.3229 
L 356.150735 -159.750595 
L 356.109544 -162.178291 
L 356.069998 -164.605986 
L 356.03215 -167.033682 
L 355.996003 -169.461377 
L 355.961511 -171.889073 
L 355.928578 -174.316768 
L 355.897063 -176.744464 
L 355.866776 -179.172159 
L 355.837493 -181.599855 
L 355.80895 -184.02755 
L 355.780861 -186.455245 
L 355.752921 -188.882941 
L 355.724816 -191.310636 
L 355.696235 -193.738332 
L 355.666878 -196.166027 
L 355.636471 -198.593723 
L 355.604775 -201.021418 
L 355.571594 -203.449114 
L 355.536787 -205.876809 
L 355.500277 -208.304505 
L 355.462057 -210.7322 
L 355.422192 -213.159895 
L 355.38083 -215.587591 
L 355.338196 -218.015286 
L 355.294595 -220.442982 
L 355.250408 -222.870677 
L 355.206085 -225.298373 
L 355.162143 -227.726068 
L 355.119149 -230.153764 
L 355.077716 -232.581459 
L 355.038487 -235.009155 
L 355.002123 -237.43685 
L 354.969285 -239.864545 
L 354.940627 -242.292241 
L 354.916773 -244.719936 
L 354.898306 -247.147632 
L 354.885757 -249.575327 
L 354.87959 -252.003023 
L 354.88019 -254.430718 
L 354.887858 -256.858414 
L 354.9028 -259.286109 
L 354.925123 -261.713805 
L 354.954834 -264.1415 
L 354.99184 -266.569195 
L 355.035946 -268.996891 
L 355.086864 -271.424586 
L 355.144216 -273.852282 
L 355.207543 -276.279977 
L 355.276313 -278.707673 
L 355.349937 -281.135368 
L 355.427774 -283.563064 
L 355.509146 -285.990759 
L 355.593353 -288.418454 
L 355.679684 -290.84615 
L 355.767427 -293.273845 
L 355.855884 -295.701541 
L 355.94438 -298.129236 
L 356.032274 -300.556932 
L 356.118966 -302.984627 
L 356.203905 -305.412323 
L 356.286595 -307.840018 
L 356.366597 -310.267714 
L 356.443536 -312.695409 
L 356.517096 -315.123104 
L 356.587027 -317.5508 
L 356.653138 -319.978495 
L 356.715299 -322.406191 
L 356.773433 -324.833886 
L 356.827516 -327.261582 
L 356.877571 -329.689277 
L 356.923663 -332.116973 
L 356.965892 -334.544668 
L 357.004392 -336.972364 
L 357.03932 -339.400059 
L 357.54193 -339.400059 
L 357.54193 -339.400059 
L 357.576858 -336.972364 
L 357.615358 -334.544668 
L 357.657587 -332.116973 
L 357.703679 -329.689277 
L 357.753734 -327.261582 
L 357.807817 -324.833886 
L 357.865951 -322.406191 
L 357.928112 -319.978495 
L 357.994223 -317.5508 
L 358.064154 -315.123104 
L 358.137714 -312.695409 
L 358.214653 -310.267714 
L 358.294655 -307.840018 
L 358.377345 -305.412323 
L 358.462284 -302.984627 
L 358.548976 -300.556932 
L 358.63687 -298.129236 
L 358.725366 -295.701541 
L 358.813823 -293.273845 
L 358.901566 -290.84615 
L 358.987897 -288.418454 
L 359.072104 -285.990759 
L 359.153476 -283.563064 
L 359.231313 -281.135368 
L 359.304937 -278.707673 
L 359.373707 -276.279977 
L 359.437034 -273.852282 
L 359.494386 -271.424586 
L 359.545304 -268.996891 
L 359.58941 -266.569195 
L 359.626416 -264.1415 
L 359.656127 -261.713805 
L 359.67845 -259.286109 
L 359.693392 -256.858414 
L 359.70106 -254.430718 
L 359.70166 -252.003023 
L 359.695493 -249.575327 
L 359.682944 -247.147632 
L 359.664477 -244.719936 
L 359.640623 -242.292241 
L 359.611965 -239.864545 
L 359.579127 -237.43685 
L 359.542763 -235.009155 
L 359.503534 -232.581459 
L 359.462101 -230.153764 
L 359.419107 -227.726068 
L 359.375165 -225.298373 
L 359.330842 -222.870677 
L 359.286655 -220.442982 
L 359.243054 -218.015286 
L 359.20042 -215.587591 
L 359.159058 -213.159895 
L 359.119193 -210.7322 
L 359.080973 -208.304505 
L 359.044463 -205.876809 
L 359.009656 -203.449114 
L 358.976475 -201.021418 
L 358.944779 -198.593723 
L 358.914372 -196.166027 
L 358.885015 -193.738332 
L 358.856434 -191.310636 
L 358.828329 -188.882941 
L 358.800389 -186.455245 
L 358.7723 -184.02755 
L 358.743757 -181.599855 
L 358.714474 -179.172159 
L 358.684187 -176.744464 
L 358.652672 -174.316768 
L 358.619739 -171.889073 
L 358.585247 -169.461377 
L 358.5491 -167.033682 
L 358.511252 -164.605986 
L 358.471706 -162.178291 
L 358.430515 -159.750595 
L 358.387774 -157.3229 
L 358.343623 -154.895205 
L 358.298238 -152.467509 
L 358.251826 -150.039814 
L 358.204621 -147.612118 
L 358.156876 -145.184423 
L 358.108858 -142.756727 
L 358.060841 -140.329032 
L 358.013097 -137.901336 
L 357.965895 -135.473641 
L 357.919493 -133.045946 
L 357.874134 -130.61825 
L 357.830042 -128.190555 
L 357.787416 -125.762859 
L 357.746434 -123.335164 
L 357.707245 -120.907468 
L 357.66997 -118.479773 
L 357.634702 -116.052077 
L 357.601508 -113.624382 
L 357.570427 -111.196686 
L 357.541473 -108.768991 
L 357.514638 -106.341296 
L 357.489889 -103.9136 
L 357.467179 -101.485905 
L 357.446442 -99.058209 
z
" id="m4827d86b39" style="stroke:#3f3f3f;stroke-width:1.5;"/>
    </defs>
    <g clip-path="url(#pc7d6a88100)">
     <use style="fill:#9fd495;stroke:#3f3f3f;stroke-width:1.5;" x="0" xlink:href="#m4827d86b39" y="375.392334"/>
    </g>
   </g>
   <g id="matplotlib.axis_1">
    <g id="xtick_1">
     <g id="line2d_1">
      <defs>
       <path d="M 0 0 
L 0 3.5 
" id="m786f6e95f8" style="stroke:#000000;stroke-width:0.8;"/>
      </defs>
      <g>
       <use style="stroke:#000000;stroke-width:0.8;" x="119.210625" xlink:href="#m786f6e95f8" y="288.430125"/>
      </g>
     </g>
     <g id="text_1">
      <!-- aflplusplus_hier -->
      <g transform="translate(50.349127 341.087127)rotate(-30)scale(0.1 -0.1)">
       <defs>
        <path d="M 34.28125 27.484375 
Q 23.390625 27.484375 19.1875 25 
Q 14.984375 22.515625 14.984375 16.5 
Q 14.984375 11.71875 18.140625 8.90625 
Q 21.296875 6.109375 26.703125 6.109375 
Q 34.1875 6.109375 38.703125 11.40625 
Q 43.21875 16.703125 43.21875 25.484375 
L 43.21875 27.484375 
z
M 52.203125 31.203125 
L 52.203125 0 
L 43.21875 0 
L 43.21875 8.296875 
Q 40.140625 3.328125 35.546875 0.953125 
Q 30.953125 -1.421875 24.3125 -1.421875 
Q 15.921875 -1.421875 10.953125 3.296875 
Q 6 8.015625 6 15.921875 
Q 6 25.140625 12.171875 29.828125 
Q 18.359375 34.515625 30.609375 34.515625 
L 43.21875 34.515625 
L 43.21875 35.40625 
Q 43.21875 41.609375 39.140625 45 
Q 35.0625 48.390625 27.6875 48.390625 
Q 23 48.390625 18.546875 47.265625 
Q 14.109375 46.140625 10.015625 43.890625 
L 10.015625 52.203125 
Q 14.9375 54.109375 19.578125 55.046875 
Q 24.21875 56 28.609375 56 
Q 40.484375 56 46.34375 49.84375 
Q 52.203125 43.703125 52.203125 31.203125 
z
" id="DejaVuSans-97"/>
        <path d="M 37.109375 75.984375 
L 37.109375 68.5 
L 28.515625 68.5 
Q 23.6875 68.5 21.796875 66.546875 
Q 19.921875 64.59375 19.921875 59.515625 
L 19.921875 54.6875 
L 34.71875 54.6875 
L 34.71875 47.703125 
L 19.921875 47.703125 
L 19.921875 0 
L 10.890625 0 
L 10.890625 47.703125 
L 2.296875 47.703125 
L 2.296875 54.6875 
L 10.890625 54.6875 
L 10.890625 58.5 
Q 10.890625 67.625 15.140625 71.796875 
Q 19.390625 75.984375 28.609375 75.984375 
z
" id="DejaVuSans-102"/>
        <path d="M 9.421875 75.984375 
L 18.40625 75.984375 
L 18.40625 0 
L 9.421875 0 
z
" id="DejaVuSans-108"/>
        <path d="M 18.109375 8.203125 
L 18.109375 -20.796875 
L 9.078125 -20.796875 
L 9.078125 54.6875 
L 18.109375 54.6875 
L 18.109375 46.390625 
Q 20.953125 51.265625 25.265625 53.625 
Q 29.59375 56 35.59375 56 
Q 45.5625 56 51.78125 48.09375 
Q 58.015625 40.1875 58.015625 27.296875 
Q 58.015625 14.40625 51.78125 6.484375 
Q 45.5625 -1.421875 35.59375 -1.421875 
Q 29.59375 -1.421875 25.265625 0.953125 
Q 20.953125 3.328125 18.109375 8.203125 
z
M 48.6875 27.296875 
Q 48.6875 37.203125 44.609375 42.84375 
Q 40.53125 48.484375 33.40625 48.484375 
Q 26.265625 48.484375 22.1875 42.84375 
Q 18.109375 37.203125 18.109375 27.296875 
Q 18.109375 17.390625 22.1875 11.75 
Q 26.265625 6.109375 33.40625 6.109375 
Q 40.53125 6.109375 44.609375 11.75 
Q 48.6875 17.390625 48.6875 27.296875 
z
" id="DejaVuSans-112"/>
        <path d="M 8.5 21.578125 
L 8.5 54.6875 
L 17.484375 54.6875 
L 17.484375 21.921875 
Q 17.484375 14.15625 20.5 10.265625 
Q 23.53125 6.390625 29.59375 6.390625 
Q 36.859375 6.390625 41.078125 11.03125 
Q 45.3125 15.671875 45.3125 23.6875 
L 45.3125 54.6875 
L 54.296875 54.6875 
L 54.296875 0 
L 45.3125 0 
L 45.3125 8.40625 
Q 42.046875 3.421875 37.71875 1 
Q 33.40625 -1.421875 27.6875 -1.421875 
Q 18.265625 -1.421875 13.375 4.4375 
Q 8.5 10.296875 8.5 21.578125 
z
M 31.109375 56 
z
" id="DejaVuSans-117"/>
        <path d="M 44.28125 53.078125 
L 44.28125 44.578125 
Q 40.484375 46.53125 36.375 47.5 
Q 32.28125 48.484375 27.875 48.484375 
Q 21.1875 48.484375 17.84375 46.4375 
Q 14.5 44.390625 14.5 40.28125 
Q 14.5 37.15625 16.890625 35.375 
Q 19.28125 33.59375 26.515625 31.984375 
L 29.59375 31.296875 
Q 39.15625 29.25 43.1875 25.515625 
Q 47.21875 21.78125 47.21875 15.09375 
Q 47.21875 7.46875 41.1875 3.015625 
Q 35.15625 -1.421875 24.609375 -1.421875 
Q 20.21875 -1.421875 15.453125 -0.5625 
Q 10.6875 0.296875 5.421875 2 
L 5.421875 11.28125 
Q 10.40625 8.6875 15.234375 7.390625 
Q 20.0625 6.109375 24.8125 6.109375 
Q 31.15625 6.109375 34.5625 8.28125 
Q 37.984375 10.453125 37.984375 14.40625 
Q 37.984375 18.0625 35.515625 20.015625 
Q 33.0625 21.96875 24.703125 23.78125 
L 21.578125 24.515625 
Q 13.234375 26.265625 9.515625 29.90625 
Q 5.8125 33.546875 5.8125 39.890625 
Q 5.8125 47.609375 11.28125 51.796875 
Q 16.75 56 26.8125 56 
Q 31.78125 56 36.171875 55.265625 
Q 40.578125 54.546875 44.28125 53.078125 
z
" id="DejaVuSans-115"/>
        <path d="M 50.984375 -16.609375 
L 50.984375 -23.578125 
L -0.984375 -23.578125 
L -0.984375 -16.609375 
z
" id="DejaVuSans-95"/>
        <path d="M 54.890625 33.015625 
L 54.890625 0 
L 45.90625 0 
L 45.90625 32.71875 
Q 45.90625 40.484375 42.875 44.328125 
Q 39.84375 48.1875 33.796875 48.1875 
Q 26.515625 48.1875 22.3125 43.546875 
Q 18.109375 38.921875 18.109375 30.90625 
L 18.109375 0 
L 9.078125 0 
L 9.078125 75.984375 
L 18.109375 75.984375 
L 18.109375 46.1875 
Q 21.34375 51.125 25.703125 53.5625 
Q 30.078125 56 35.796875 56 
Q 45.21875 56 50.046875 50.171875 
Q 54.890625 44.34375 54.890625 33.015625 
z
" id="DejaVuSans-104"/>
        <path d="M 9.421875 54.6875 
L 18.40625 54.6875 
L 18.40625 0 
L 9.421875 0 
z
M 9.421875 75.984375 
L 18.40625 75.984375 
L 18.40625 64.59375 
L 9.421875 64.59375 
z
" id="DejaVuSans-105"/>
        <path d="M 56.203125 29.59375 
L 56.203125 25.203125 
L 14.890625 25.203125 
Q 15.484375 15.921875 20.484375 11.0625 
Q 25.484375 6.203125 34.421875 6.203125 
Q 39.59375 6.203125 44.453125 7.46875 
Q 49.3125 8.734375 54.109375 11.28125 
L 54.109375 2.78125 
Q 49.265625 0.734375 44.1875 -0.34375 
Q 39.109375 -1.421875 33.890625 -1.421875 
Q 20.796875 -1.421875 13.15625 6.1875 
Q 5.515625 13.8125 5.515625 26.8125 
Q 5.515625 40.234375 12.765625 48.109375 
Q 20.015625 56 32.328125 56 
Q 43.359375 56 49.78125 48.890625 
Q 56.203125 41.796875 56.203125 29.59375 
z
M 47.21875 32.234375 
Q 47.125 39.59375 43.09375 43.984375 
Q 39.0625 48.390625 32.421875 48.390625 
Q 24.90625 48.390625 20.390625 44.140625 
Q 15.875 39.890625 15.1875 32.171875 
z
" id="DejaVuSans-101"/>
        <path d="M 41.109375 46.296875 
Q 39.59375 47.171875 37.8125 47.578125 
Q 36.03125 48 33.890625 48 
Q 26.265625 48 22.1875 43.046875 
Q 18.109375 38.09375 18.109375 28.8125 
L 18.109375 0 
L 9.078125 0 
L 9.078125 54.6875 
L 18.109375 54.6875 
L 18.109375 46.1875 
Q 20.953125 51.171875 25.484375 53.578125 
Q 30.03125 56 36.53125 56 
Q 37.453125 56 38.578125 55.875 
Q 39.703125 55.765625 41.0625 55.515625 
z
" id="DejaVuSans-114"/>
       </defs>
       <use xlink:href="#DejaVuSans-97"/>
       <use x="61.279297" xlink:href="#DejaVuSans-102"/>
       <use x="96.484375" xlink:href="#DejaVuSans-108"/>
       <use x="124.267578" xlink:href="#DejaVuSans-112"/>
       <use x="187.744141" xlink:href="#DejaVuSans-108"/>
       <use x="215.527344" xlink:href="#DejaVuSans-117"/>
       <use x="278.90625" xlink:href="#DejaVuSans-115"/>
       <use x="331.005859" xlink:href="#DejaVuSans-112"/>
       <use x="394.482422" xlink:href="#DejaVuSans-108"/>
       <use x="422.265625" xlink:href="#DejaVuSans-117"/>
       <use x="485.644531" xlink:href="#DejaVuSans-115"/>
       <use x="537.744141" xlink:href="#DejaVuSans-95"/>
       <use x="587.744141" xlink:href="#DejaVuSans-104"/>
       <use x="651.123047" xlink:href="#DejaVuSans-105"/>
       <use x="678.90625" xlink:href="#DejaVuSans-101"/>
       <use x="740.429688" xlink:href="#DejaVuSans-114"/>
      </g>
     </g>
    </g>
    <g id="xtick_2">
     <g id="line2d_2">
      <g>
       <use style="stroke:#000000;stroke-width:0.8;" x="238.250625" xlink:href="#m786f6e95f8" y="288.430125"/>
      </g>
     </g>
     <g id="text_2">
      <!-- aflplusplus_hier_x -->
      <g transform="translate(159.933212 346.546502)rotate(-30)scale(0.1 -0.1)">
       <defs>
        <path d="M 54.890625 54.6875 
L 35.109375 28.078125 
L 55.90625 0 
L 45.3125 0 
L 29.390625 21.484375 
L 13.484375 0 
L 2.875 0 
L 24.125 28.609375 
L 4.6875 54.6875 
L 15.28125 54.6875 
L 29.78125 35.203125 
L 44.28125 54.6875 
z
" id="DejaVuSans-120"/>
       </defs>
       <use xlink:href="#DejaVuSans-97"/>
       <use x="61.279297" xlink:href="#DejaVuSans-102"/>
       <use x="96.484375" xlink:href="#DejaVuSans-108"/>
       <use x="124.267578" xlink:href="#DejaVuSans-112"/>
       <use x="187.744141" xlink:href="#DejaVuSans-108"/>
       <use x="215.527344" xlink:href="#DejaVuSans-117"/>
       <use x="278.90625" xlink:href="#DejaVuSans-115"/>
       <use x="331.005859" xlink:href="#DejaVuSans-112"/>
       <use x="394.482422" xlink:href="#DejaVuSans-108"/>
       <use x="422.265625" xlink:href="#DejaVuSans-117"/>
       <use x="485.644531" xlink:href="#DejaVuSans-115"/>
       <use x="537.744141" xlink:href="#DejaVuSans-95"/>
       <use x="587.744141" xlink:href="#DejaVuSans-104"/>
       <use x="651.123047" xlink:href="#DejaVuSans-105"/>
       <use x="678.90625" xlink:href="#DejaVuSans-101"/>
       <use x="740.429688" xlink:href="#DejaVuSans-114"/>
       <use x="781.542969" xlink:href="#DejaVuSans-95"/>
       <use x="831.542969" xlink:href="#DejaVuSans-120"/>
      </g>
     </g>
    </g>
    <g id="xtick_3">
     <g id="line2d_3">
      <g>
       <use style="stroke:#000000;stroke-width:0.8;" x="357.290625" xlink:href="#m786f6e95f8" y="288.430125"/>
      </g>
     </g>
     <g id="text_3">
      <!-- aflplusplus_hier_coe -->
      <g transform="translate(268.709458 352.472284)rotate(-30)scale(0.1 -0.1)">
       <defs>
        <path d="M 48.78125 52.59375 
L 48.78125 44.1875 
Q 44.96875 46.296875 41.140625 47.34375 
Q 37.3125 48.390625 33.40625 48.390625 
Q 24.65625 48.390625 19.8125 42.84375 
Q 14.984375 37.3125 14.984375 27.296875 
Q 14.984375 17.28125 19.8125 11.734375 
Q 24.65625 6.203125 33.40625 6.203125 
Q 37.3125 6.203125 41.140625 7.25 
Q 44.96875 8.296875 48.78125 10.40625 
L 48.78125 2.09375 
Q 45.015625 0.34375 40.984375 -0.53125 
Q 36.96875 -1.421875 32.421875 -1.421875 
Q 20.0625 -1.421875 12.78125 6.34375 
Q 5.515625 14.109375 5.515625 27.296875 
Q 5.515625 40.671875 12.859375 48.328125 
Q 20.21875 56 33.015625 56 
Q 37.15625 56 41.109375 55.140625 
Q 45.0625 54.296875 48.78125 52.59375 
z
" id="DejaVuSans-99"/>
        <path d="M 30.609375 48.390625 
Q 23.390625 48.390625 19.1875 42.75 
Q 14.984375 37.109375 14.984375 27.296875 
Q 14.984375 17.484375 19.15625 11.84375 
Q 23.34375 6.203125 30.609375 6.203125 
Q 37.796875 6.203125 41.984375 11.859375 
Q 46.1875 17.53125 46.1875 27.296875 
Q 46.1875 37.015625 41.984375 42.703125 
Q 37.796875 48.390625 30.609375 48.390625 
z
M 30.609375 56 
Q 42.328125 56 49.015625 48.375 
Q 55.71875 40.765625 55.71875 27.296875 
Q 55.71875 13.875 49.015625 6.21875 
Q 42.328125 -1.421875 30.609375 -1.421875 
Q 18.84375 -1.421875 12.171875 6.21875 
Q 5.515625 13.875 5.515625 27.296875 
Q 5.515625 40.765625 12.171875 48.375 
Q 18.84375 56 30.609375 56 
z
" id="DejaVuSans-111"/>
       </defs>
       <use xlink:href="#DejaVuSans-97"/>
       <use x="61.279297" xlink:href="#DejaVuSans-102"/>
       <use x="96.484375" xlink:href="#DejaVuSans-108"/>
       <use x="124.267578" xlink:href="#DejaVuSans-112"/>
       <use x="187.744141" xlink:href="#DejaVuSans-108"/>
       <use x="215.527344" xlink:href="#DejaVuSans-117"/>
       <use x="278.90625" xlink:href="#DejaVuSans-115"/>
       <use x="331.005859" xlink:href="#DejaVuSans-112"/>
       <use x="394.482422" xlink:href="#DejaVuSans-108"/>
       <use x="422.265625" xlink:href="#DejaVuSans-117"/>
       <use x="485.644531" xlink:href="#DejaVuSans-115"/>
       <use x="537.744141" xlink:href="#DejaVuSans-95"/>
       <use x="587.744141" xlink:href="#DejaVuSans-104"/>
       <use x="651.123047" xlink:href="#DejaVuSans-105"/>
       <use x="678.90625" xlink:href="#DejaVuSans-101"/>
       <use x="740.429688" xlink:href="#DejaVuSans-114"/>
       <use x="781.542969" xlink:href="#DejaVuSans-95"/>
       <use x="831.542969" xlink:href="#DejaVuSans-99"/>
       <use x="886.523438" xlink:href="#DejaVuSans-111"/>
       <use x="947.705078" xlink:href="#DejaVuSans-101"/>
      </g>
     </g>
    </g>
    <g id="text_4">
     <!-- Fuzzer (highest median coverage on the left) -->
     <g transform="translate(125.632656 366.112647)scale(0.1 -0.1)">
      <defs>
       <path d="M 9.8125 72.90625 
L 51.703125 72.90625 
L 51.703125 64.59375 
L 19.671875 64.59375 
L 19.671875 43.109375 
L 48.578125 43.109375 
L 48.578125 34.8125 
L 19.671875 34.8125 
L 19.671875 0 
L 9.8125 0 
z
" id="DejaVuSans-70"/>
       <path d="M 5.515625 54.6875 
L 48.1875 54.6875 
L 48.1875 46.484375 
L 14.40625 7.171875 
L 48.1875 7.171875 
L 48.1875 0 
L 4.296875 0 
L 4.296875 8.203125 
L 38.09375 47.515625 
L 5.515625 47.515625 
z
" id="DejaVuSans-122"/>
       <path id="DejaVuSans-32"/>
       <path d="M 31 75.875 
Q 24.46875 64.65625 21.28125 53.65625 
Q 18.109375 42.671875 18.109375 31.390625 
Q 18.109375 20.125 21.3125 9.0625 
Q 24.515625 -2 31 -13.1875 
L 23.1875 -13.1875 
Q 15.875 -1.703125 12.234375 9.375 
Q 8.59375 20.453125 8.59375 31.390625 
Q 8.59375 42.28125 12.203125 53.3125 
Q 15.828125 64.359375 23.1875 75.875 
z
" id="DejaVuSans-40"/>
       <path d="M 45.40625 27.984375 
Q 45.40625 37.75 41.375 43.109375 
Q 37.359375 48.484375 30.078125 48.484375 
Q 22.859375 48.484375 18.828125 43.109375 
Q 14.796875 37.75 14.796875 27.984375 
Q 14.796875 18.265625 18.828125 12.890625 
Q 22.859375 7.515625 30.078125 7.515625 
Q 37.359375 7.515625 41.375 12.890625 
Q 45.40625 18.265625 45.40625 27.984375 
z
M 54.390625 6.78125 
Q 54.390625 -7.171875 48.1875 -13.984375 
Q 42 -20.796875 29.203125 -20.796875 
Q 24.46875 -20.796875 20.265625 -20.09375 
Q 16.0625 -19.390625 12.109375 -17.921875 
L 12.109375 -9.1875 
Q 16.0625 -11.328125 19.921875 -12.34375 
Q 23.78125 -13.375 27.78125 -13.375 
Q 36.625 -13.375 41.015625 -8.765625 
Q 45.40625 -4.15625 45.40625 5.171875 
L 45.40625 9.625 
Q 42.625 4.78125 38.28125 2.390625 
Q 33.9375 0 27.875 0 
Q 17.828125 0 11.671875 7.65625 
Q 5.515625 15.328125 5.515625 27.984375 
Q 5.515625 40.671875 11.671875 48.328125 
Q 17.828125 56 27.875 56 
Q 33.9375 56 38.28125 53.609375 
Q 42.625 51.21875 45.40625 46.390625 
L 45.40625 54.6875 
L 54.390625 54.6875 
z
" id="DejaVuSans-103"/>
       <path d="M 18.3125 70.21875 
L 18.3125 54.6875 
L 36.8125 54.6875 
L 36.8125 47.703125 
L 18.3125 47.703125 
L 18.3125 18.015625 
Q 18.3125 11.328125 20.140625 9.421875 
Q 21.96875 7.515625 27.59375 7.515625 
L 36.8125 7.515625 
L 36.8125 0 
L 27.59375 0 
Q 17.1875 0 13.234375 3.875 
Q 9.28125 7.765625 9.28125 18.015625 
L 9.28125 47.703125 
L 2.6875 47.703125 
L 2.6875 54.6875 
L 9.28125 54.6875 
L 9.28125 70.21875 
z
" id="DejaVuSans-116"/>
       <path d="M 52 44.1875 
Q 55.375 50.25 60.0625 53.125 
Q 64.75 56 71.09375 56 
Q 79.640625 56 84.28125 50.015625 
Q 88.921875 44.046875 88.921875 33.015625 
L 88.921875 0 
L 79.890625 0 
L 79.890625 32.71875 
Q 79.890625 40.578125 77.09375 44.375 
Q 74.3125 48.1875 68.609375 48.1875 
Q 61.625 48.1875 57.5625 43.546875 
Q 53.515625 38.921875 53.515625 30.90625 
L 53.515625 0 
L 44.484375 0 
L 44.484375 32.71875 
Q 44.484375 40.625 41.703125 44.40625 
Q 38.921875 48.1875 33.109375 48.1875 
Q 26.21875 48.1875 22.15625 43.53125 
Q 18.109375 38.875 18.109375 30.90625 
L 18.109375 0 
L 9.078125 0 
L 9.078125 54.6875 
L 18.109375 54.6875 
L 18.109375 46.1875 
Q 21.1875 51.21875 25.484375 53.609375 
Q 29.78125 56 35.6875 56 
Q 41.65625 56 45.828125 52.96875 
Q 50 49.953125 52 44.1875 
z
" id="DejaVuSans-109"/>
       <path d="M 45.40625 46.390625 
L 45.40625 75.984375 
L 54.390625 75.984375 
L 54.390625 0 
L 45.40625 0 
L 45.40625 8.203125 
Q 42.578125 3.328125 38.25 0.953125 
Q 33.9375 -1.421875 27.875 -1.421875 
Q 17.96875 -1.421875 11.734375 6.484375 
Q 5.515625 14.40625 5.515625 27.296875 
Q 5.515625 40.1875 11.734375 48.09375 
Q 17.96875 56 27.875 56 
Q 33.9375 56 38.25 53.625 
Q 42.578125 51.265625 45.40625 46.390625 
z
M 14.796875 27.296875 
Q 14.796875 17.390625 18.875 11.75 
Q 22.953125 6.109375 30.078125 6.109375 
Q 37.203125 6.109375 41.296875 11.75 
Q 45.40625 17.390625 45.40625 27.296875 
Q 45.40625 37.203125 41.296875 42.84375 
Q 37.203125 48.484375 30.078125 48.484375 
Q 22.953125 48.484375 18.875 42.84375 
Q 14.796875 37.203125 14.796875 27.296875 
z
" id="DejaVuSans-100"/>
       <path d="M 54.890625 33.015625 
L 54.890625 0 
L 45.90625 0 
L 45.90625 32.71875 
Q 45.90625 40.484375 42.875 44.328125 
Q 39.84375 48.1875 33.796875 48.1875 
Q 26.515625 48.1875 22.3125 43.546875 
Q 18.109375 38.921875 18.109375 30.90625 
L 18.109375 0 
L 9.078125 0 
L 9.078125 54.6875 
L 18.109375 54.6875 
L 18.109375 46.1875 
Q 21.34375 51.125 25.703125 53.5625 
Q 30.078125 56 35.796875 56 
Q 45.21875 56 50.046875 50.171875 
Q 54.890625 44.34375 54.890625 33.015625 
z
" id="DejaVuSans-110"/>
       <path d="M 2.984375 54.6875 
L 12.5 54.6875 
L 29.59375 8.796875 
L 46.6875 54.6875 
L 56.203125 54.6875 
L 35.6875 0 
L 23.484375 0 
z
" id="DejaVuSans-118"/>
       <path d="M 8.015625 75.875 
L 15.828125 75.875 
Q 23.140625 64.359375 26.78125 53.3125 
Q 30.421875 42.28125 30.421875 31.390625 
Q 30.421875 20.453125 26.78125 9.375 
Q 23.140625 -1.703125 15.828125 -13.1875 
L 8.015625 -13.1875 
Q 14.5 -2 17.703125 9.0625 
Q 20.90625 20.125 20.90625 31.390625 
Q 20.90625 42.671875 17.703125 53.65625 
Q 14.5 64.65625 8.015625 75.875 
z
" id="DejaVuSans-41"/>
      </defs>
      <use xlink:href="#DejaVuSans-70"/>
      <use x="52.019531" xlink:href="#DejaVuSans-117"/>
      <use x="115.398438" xlink:href="#DejaVuSans-122"/>
      <use x="167.888672" xlink:href="#DejaVuSans-122"/>
      <use x="220.378906" xlink:href="#DejaVuSans-101"/>
      <use x="281.902344" xlink:href="#DejaVuSans-114"/>
      <use x="323.015625" xlink:href="#DejaVuSans-32"/>
      <use x="354.802734" xlink:href="#DejaVuSans-40"/>
      <use x="393.816406" xlink:href="#DejaVuSans-104"/>
      <use x="457.195312" xlink:href="#DejaVuSans-105"/>
      <use x="484.978516" xlink:href="#DejaVuSans-103"/>
      <use x="548.455078" xlink:href="#DejaVuSans-104"/>
      <use x="611.833984" xlink:href="#DejaVuSans-101"/>
      <use x="673.357422" xlink:href="#DejaVuSans-115"/>
      <use x="725.457031" xlink:href="#DejaVuSans-116"/>
      <use x="764.666016" xlink:href="#DejaVuSans-32"/>
      <use x="796.453125" xlink:href="#DejaVuSans-109"/>
      <use x="893.865234" xlink:href="#DejaVuSans-101"/>
      <use x="955.388672" xlink:href="#DejaVuSans-100"/>
      <use x="1018.865234" xlink:href="#DejaVuSans-105"/>
      <use x="1046.648438" xlink:href="#DejaVuSans-97"/>
      <use x="1107.927734" xlink:href="#DejaVuSans-110"/>
      <use x="1171.306641" xlink:href="#DejaVuSans-32"/>
      <use x="1203.09375" xlink:href="#DejaVuSans-99"/>
      <use x="1258.074219" xlink:href="#DejaVuSans-111"/>
      <use x="1319.255859" xlink:href="#DejaVuSans-118"/>
      <use x="1378.435547" xlink:href="#DejaVuSans-101"/>
      <use x="1439.958984" xlink:href="#DejaVuSans-114"/>
      <use x="1481.072266" xlink:href="#DejaVuSans-97"/>
      <use x="1542.351562" xlink:href="#DejaVuSans-103"/>
      <use x="1605.828125" xlink:href="#DejaVuSans-101"/>
      <use x="1667.351562" xlink:href="#DejaVuSans-32"/>
      <use x="1699.138672" xlink:href="#DejaVuSans-111"/>
      <use x="1760.320312" xlink:href="#DejaVuSans-110"/>
      <use x="1823.699219" xlink:href="#DejaVuSans-32"/>
      <use x="1855.486328" xlink:href="#DejaVuSans-116"/>
      <use x="1894.695312" xlink:href="#DejaVuSans-104"/>
      <use x="1958.074219" xlink:href="#DejaVuSans-101"/>
      <use x="2019.597656" xlink:href="#DejaVuSans-32"/>
      <use x="2051.384766" xlink:href="#DejaVuSans-108"/>
      <use x="2079.167969" xlink:href="#DejaVuSans-101"/>
      <use x="2140.691406" xlink:href="#DejaVuSans-102"/>
      <use x="2174.146484" xlink:href="#DejaVuSans-116"/>
      <use x="2213.355469" xlink:href="#DejaVuSans-41"/>
     </g>
    </g>
   </g>
   <g id="matplotlib.axis_2">
    <g id="ytick_1">
     <g id="line2d_4">
      <defs>
       <path d="M 0 0 
L -3.5 0 
" id="mfe18a5e3a5" style="stroke:#000000;stroke-width:0.8;"/>
      </defs>
      <g>
       <use style="stroke:#000000;stroke-width:0.8;" x="59.690625" xlink:href="#mfe18a5e3a5" y="255.357756"/>
      </g>
     </g>
     <g id="text_5">
      <!-- 12000 -->
      <g transform="translate(20.878125 259.156975)scale(0.1 -0.1)">
       <defs>
        <path d="M 12.40625 8.296875 
L 28.515625 8.296875 
L 28.515625 63.921875 
L 10.984375 60.40625 
L 10.984375 69.390625 
L 28.421875 72.90625 
L 38.28125 72.90625 
L 38.28125 8.296875 
L 54.390625 8.296875 
L 54.390625 0 
L 12.40625 0 
z
" id="DejaVuSans-49"/>
        <path d="M 19.1875 8.296875 
L 53.609375 8.296875 
L 53.609375 0 
L 7.328125 0 
L 7.328125 8.296875 
Q 12.9375 14.109375 22.625 23.890625 
Q 32.328125 33.6875 34.8125 36.53125 
Q 39.546875 41.84375 41.421875 45.53125 
Q 43.3125 49.21875 43.3125 52.78125 
Q 43.3125 58.59375 39.234375 62.25 
Q 35.15625 65.921875 28.609375 65.921875 
Q 23.96875 65.921875 18.8125 64.3125 
Q 13.671875 62.703125 7.8125 59.421875 
L 7.8125 69.390625 
Q 13.765625 71.78125 18.9375 73 
Q 24.125 74.21875 28.421875 74.21875 
Q 39.75 74.21875 46.484375 68.546875 
Q 53.21875 62.890625 53.21875 53.421875 
Q 53.21875 48.921875 51.53125 44.890625 
Q 49.859375 40.875 45.40625 35.40625 
Q 44.1875 33.984375 37.640625 27.21875 
Q 31.109375 20.453125 19.1875 8.296875 
z
" id="DejaVuSans-50"/>
        <path d="M 31.78125 66.40625 
Q 24.171875 66.40625 20.328125 58.90625 
Q 16.5 51.421875 16.5 36.375 
Q 16.5 21.390625 20.328125 13.890625 
Q 24.171875 6.390625 31.78125 6.390625 
Q 39.453125 6.390625 43.28125 13.890625 
Q 47.125 21.390625 47.125 36.375 
Q 47.125 51.421875 43.28125 58.90625 
Q 39.453125 66.40625 31.78125 66.40625 
z
M 31.78125 74.21875 
Q 44.046875 74.21875 50.515625 64.515625 
Q 56.984375 54.828125 56.984375 36.375 
Q 56.984375 17.96875 50.515625 8.265625 
Q 44.046875 -1.421875 31.78125 -1.421875 
Q 19.53125 -1.421875 13.0625 8.265625 
Q 6.59375 17.96875 6.59375 36.375 
Q 6.59375 54.828125 13.0625 64.515625 
Q 19.53125 74.21875 31.78125 74.21875 
z
" id="DejaVuSans-48"/>
       </defs>
       <use xlink:href="#DejaVuSans-49"/>
       <use x="63.623047" xlink:href="#DejaVuSans-50"/>
       <use x="127.246094" xlink:href="#DejaVuSans-48"/>
       <use x="190.869141" xlink:href="#DejaVuSans-48"/>
       <use x="254.492188" xlink:href="#DejaVuSans-48"/>
      </g>
     </g>
    </g>
    <g id="ytick_2">
     <g id="line2d_5">
      <g>
       <use style="stroke:#000000;stroke-width:0.8;" x="59.690625" xlink:href="#mfe18a5e3a5" y="212.154552"/>
      </g>
     </g>
     <g id="text_6">
      <!-- 13000 -->
      <g transform="translate(20.878125 215.953771)scale(0.1 -0.1)">
       <defs>
        <path d="M 40.578125 39.3125 
Q 47.65625 37.796875 51.625 33 
Q 55.609375 28.21875 55.609375 21.1875 
Q 55.609375 10.40625 48.1875 4.484375 
Q 40.765625 -1.421875 27.09375 -1.421875 
Q 22.515625 -1.421875 17.65625 -0.515625 
Q 12.796875 0.390625 7.625 2.203125 
L 7.625 11.71875 
Q 11.71875 9.328125 16.59375 8.109375 
Q 21.484375 6.890625 26.8125 6.890625 
Q 36.078125 6.890625 40.9375 10.546875 
Q 45.796875 14.203125 45.796875 21.1875 
Q 45.796875 27.640625 41.28125 31.265625 
Q 36.765625 34.90625 28.71875 34.90625 
L 20.21875 34.90625 
L 20.21875 43.015625 
L 29.109375 43.015625 
Q 36.375 43.015625 40.234375 45.921875 
Q 44.09375 48.828125 44.09375 54.296875 
Q 44.09375 59.90625 40.109375 62.90625 
Q 36.140625 65.921875 28.71875 65.921875 
Q 24.65625 65.921875 20.015625 65.03125 
Q 15.375 64.15625 9.8125 62.3125 
L 9.8125 71.09375 
Q 15.4375 72.65625 20.34375 73.4375 
Q 25.25 74.21875 29.59375 74.21875 
Q 40.828125 74.21875 47.359375 69.109375 
Q 53.90625 64.015625 53.90625 55.328125 
Q 53.90625 49.265625 50.4375 45.09375 
Q 46.96875 40.921875 40.578125 39.3125 
z
" id="DejaVuSans-51"/>
       </defs>
       <use xlink:href="#DejaVuSans-49"/>
       <use x="63.623047" xlink:href="#DejaVuSans-51"/>
       <use x="127.246094" xlink:href="#DejaVuSans-48"/>
       <use x="190.869141" xlink:href="#DejaVuSans-48"/>
       <use x="254.492188" xlink:href="#DejaVuSans-48"/>
      </g>
     </g>
    </g>
    <g id="ytick_3">
     <g id="line2d_6">
      <g>
       <use style="stroke:#000000;stroke-width:0.8;" x="59.690625" xlink:href="#mfe18a5e3a5" y="168.951348"/>
      </g>
     </g>
     <g id="text_7">
      <!-- 14000 -->
      <g transform="translate(20.878125 172.750567)scale(0.1 -0.1)">
       <defs>
        <path d="M 37.796875 64.3125 
L 12.890625 25.390625 
L 37.796875 25.390625 
z
M 35.203125 72.90625 
L 47.609375 72.90625 
L 47.609375 25.390625 
L 58.015625 25.390625 
L 58.015625 17.1875 
L 47.609375 17.1875 
L 47.609375 0 
L 37.796875 0 
L 37.796875 17.1875 
L 4.890625 17.1875 
L 4.890625 26.703125 
z
" id="DejaVuSans-52"/>
       </defs>
       <use xlink:href="#DejaVuSans-49"/>
       <use x="63.623047" xlink:href="#DejaVuSans-52"/>
       <use x="127.246094" xlink:href="#DejaVuSans-48"/>
       <use x="190.869141" xlink:href="#DejaVuSans-48"/>
       <use x="254.492188" xlink:href="#DejaVuSans-48"/>
      </g>
     </g>
    </g>
    <g id="ytick_4">
     <g id="line2d_7">
      <g>
       <use style="stroke:#000000;stroke-width:0.8;" x="59.690625" xlink:href="#mfe18a5e3a5" y="125.748144"/>
      </g>
     </g>
     <g id="text_8">
      <!-- 15000 -->
      <g transform="translate(20.878125 129.547363)scale(0.1 -0.1)">
       <defs>
        <path d="M 10.796875 72.90625 
L 49.515625 72.90625 
L 49.515625 64.59375 
L 19.828125 64.59375 
L 19.828125 46.734375 
Q 21.96875 47.46875 24.109375 47.828125 
Q 26.265625 48.1875 28.421875 48.1875 
Q 40.625 48.1875 47.75 41.5 
Q 54.890625 34.8125 54.890625 23.390625 
Q 54.890625 11.625 47.5625 5.09375 
Q 40.234375 -1.421875 26.90625 -1.421875 
Q 22.3125 -1.421875 17.546875 -0.640625 
Q 12.796875 0.140625 7.71875 1.703125 
L 7.71875 11.625 
Q 12.109375 9.234375 16.796875 8.0625 
Q 21.484375 6.890625 26.703125 6.890625 
Q 35.15625 6.890625 40.078125 11.328125 
Q 45.015625 15.765625 45.015625 23.390625 
Q 45.015625 31 40.078125 35.4375 
Q 35.15625 39.890625 26.703125 39.890625 
Q 22.75 39.890625 18.8125 39.015625 
Q 14.890625 38.140625 10.796875 36.28125 
z
" id="DejaVuSans-53"/>
       </defs>
       <use xlink:href="#DejaVuSans-49"/>
       <use x="63.623047" xlink:href="#DejaVuSans-53"/>
       <use x="127.246094" xlink:href="#DejaVuSans-48"/>
       <use x="190.869141" xlink:href="#DejaVuSans-48"/>
       <use x="254.492188" xlink:href="#DejaVuSans-48"/>
      </g>
     </g>
    </g>
    <g id="ytick_5">
     <g id="line2d_8">
      <g>
       <use style="stroke:#000000;stroke-width:0.8;" x="59.690625" xlink:href="#mfe18a5e3a5" y="82.54494"/>
      </g>
     </g>
     <g id="text_9">
      <!-- 16000 -->
      <g transform="translate(20.878125 86.344159)scale(0.1 -0.1)">
       <defs>
        <path d="M 33.015625 40.375 
Q 26.375 40.375 22.484375 35.828125 
Q 18.609375 31.296875 18.609375 23.390625 
Q 18.609375 15.53125 22.484375 10.953125 
Q 26.375 6.390625 33.015625 6.390625 
Q 39.65625 6.390625 43.53125 10.953125 
Q 47.40625 15.53125 47.40625 23.390625 
Q 47.40625 31.296875 43.53125 35.828125 
Q 39.65625 40.375 33.015625 40.375 
z
M 52.59375 71.296875 
L 52.59375 62.3125 
Q 48.875 64.0625 45.09375 64.984375 
Q 41.3125 65.921875 37.59375 65.921875 
Q 27.828125 65.921875 22.671875 59.328125 
Q 17.53125 52.734375 16.796875 39.40625 
Q 19.671875 43.65625 24.015625 45.921875 
Q 28.375 48.1875 33.59375 48.1875 
Q 44.578125 48.1875 50.953125 41.515625 
Q 57.328125 34.859375 57.328125 23.390625 
Q 57.328125 12.15625 50.6875 5.359375 
Q 44.046875 -1.421875 33.015625 -1.421875 
Q 20.359375 -1.421875 13.671875 8.265625 
Q 6.984375 17.96875 6.984375 36.375 
Q 6.984375 53.65625 15.1875 63.9375 
Q 23.390625 74.21875 37.203125 74.21875 
Q 40.921875 74.21875 44.703125 73.484375 
Q 48.484375 72.75 52.59375 71.296875 
z
" id="DejaVuSans-54"/>
       </defs>
       <use xlink:href="#DejaVuSans-49"/>
       <use x="63.623047" xlink:href="#DejaVuSans-54"/>
       <use x="127.246094" xlink:href="#DejaVuSans-48"/>
       <use x="190.869141" xlink:href="#DejaVuSans-48"/>
       <use x="254.492188" xlink:href="#DejaVuSans-48"/>
      </g>
     </g>
    </g>
    <g id="ytick_6">
     <g id="line2d_9">
      <g>
       <use style="stroke:#000000;stroke-width:0.8;" x="59.690625" xlink:href="#mfe18a5e3a5" y="39.341736"/>
      </g>
     </g>
     <g id="text_10">
      <!-- 17000 -->
      <g transform="translate(20.878125 43.140955)scale(0.1 -0.1)">
       <defs>
        <path d="M 8.203125 72.90625 
L 55.078125 72.90625 
L 55.078125 68.703125 
L 28.609375 0 
L 18.3125 0 
L 43.21875 64.59375 
L 8.203125 64.59375 
z
" id="DejaVuSans-55"/>
       </defs>
       <use xlink:href="#DejaVuSans-49"/>
       <use x="63.623047" xlink:href="#DejaVuSans-55"/>
       <use x="127.246094" xlink:href="#DejaVuSans-48"/>
       <use x="190.869141" xlink:href="#DejaVuSans-48"/>
       <use x="254.492188" xlink:href="#DejaVuSans-48"/>
      </g>
     </g>
    </g>
    <g id="text_11">
     <!-- Reached region coverage -->
     <g transform="translate(14.798438 219.136625)rotate(-90)scale(0.1 -0.1)">
      <defs>
       <path d="M 44.390625 34.1875 
Q 47.5625 33.109375 50.5625 29.59375 
Q 53.5625 26.078125 56.59375 19.921875 
L 66.609375 0 
L 56 0 
L 46.6875 18.703125 
Q 43.0625 26.03125 39.671875 28.421875 
Q 36.28125 30.8125 30.421875 30.8125 
L 19.671875 30.8125 
L 19.671875 0 
L 9.8125 0 
L 9.8125 72.90625 
L 32.078125 72.90625 
Q 44.578125 72.90625 50.734375 67.671875 
Q 56.890625 62.453125 56.890625 51.90625 
Q 56.890625 45.015625 53.6875 40.46875 
Q 50.484375 35.9375 44.390625 34.1875 
z
M 19.671875 64.796875 
L 19.671875 38.921875 
L 32.078125 38.921875 
Q 39.203125 38.921875 42.84375 42.21875 
Q 46.484375 45.515625 46.484375 51.90625 
Q 46.484375 58.296875 42.84375 61.546875 
Q 39.203125 64.796875 32.078125 64.796875 
z
" id="DejaVuSans-82"/>
      </defs>
      <use xlink:href="#DejaVuSans-82"/>
      <use x="64.982422" xlink:href="#DejaVuSans-101"/>
      <use x="126.505859" xlink:href="#DejaVuSans-97"/>
      <use x="187.785156" xlink:href="#DejaVuSans-99"/>
      <use x="242.765625" xlink:href="#DejaVuSans-104"/>
      <use x="306.144531" xlink:href="#DejaVuSans-101"/>
      <use x="367.667969" xlink:href="#DejaVuSans-100"/>
      <use x="431.144531" xlink:href="#DejaVuSans-32"/>
      <use x="462.931641" xlink:href="#DejaVuSans-114"/>
      <use x="501.794922" xlink:href="#DejaVuSans-101"/>
      <use x="563.318359" xlink:href="#DejaVuSans-103"/>
      <use x="626.794922" xlink:href="#DejaVuSans-105"/>
      <use x="654.578125" xlink:href="#DejaVuSans-111"/>
      <use x="715.759766" xlink:href="#DejaVuSans-110"/>
      <use x="779.138672" xlink:href="#DejaVuSans-32"/>
      <use x="810.925781" xlink:href="#DejaVuSans-99"/>
      <use x="865.90625" xlink:href="#DejaVuSans-111"/>
      <use x="927.087891" xlink:href="#DejaVuSans-118"/>
      <use x="986.267578" xlink:href="#DejaVuSans-101"/>
      <use x="1047.791016" xlink:href="#DejaVuSans-114"/>
      <use x="1088.904297" xlink:href="#DejaVuSans-97"/>
      <use x="1150.183594" xlink:href="#DejaVuSans-103"/>
      <use x="1213.660156" xlink:href="#DejaVuSans-101"/>
     </g>
    </g>
   </g>
   <g id="line2d_10">
    <path clip-path="url(#pc7d6a88100)" d="M 119.210625 108.250847 
L 119.210625 75.157193 
" style="fill:none;stroke:#3f3f3f;stroke-linecap:square;stroke-width:1.5;"/>
   </g>
   <g id="line2d_11">
    <path clip-path="url(#pc7d6a88100)" d="M 119.210625 99.977433 
L 119.210625 83.430606 
" style="fill:none;stroke:#3f3f3f;stroke-linecap:square;stroke-width:4.5;"/>
   </g>
   <g id="line2d_12">
    <path clip-path="url(#pc7d6a88100)" d="M 238.250625 104.189746 
L 238.250625 99.826222 
" style="fill:none;stroke:#3f3f3f;stroke-linecap:square;stroke-width:1.5;"/>
   </g>
   <g id="line2d_13">
    <path clip-path="url(#pc7d6a88100)" d="M 238.250625 102.180797 
L 238.250625 99.999035 
" style="fill:none;stroke:#3f3f3f;stroke-linecap:square;stroke-width:4.5;"/>
   </g>
   <g id="line2d_14">
    <path clip-path="url(#pc7d6a88100)" d="M 357.290625 199.58242 
L 357.290625 112.74398 
" style="fill:none;stroke:#3f3f3f;stroke-linecap:square;stroke-width:1.5;"/>
   </g>
   <g id="line2d_15">
    <path clip-path="url(#pc7d6a88100)" d="M 357.290625 160.548325 
L 357.290625 117.129105 
" style="fill:none;stroke:#3f3f3f;stroke-linecap:square;stroke-width:4.5;"/>
   </g>
   <g id="patch_3">
    <path d="M 59.690625 255.357756 
L 59.690625 39.341736 
" style="fill:none;stroke:#000000;stroke-linecap:square;stroke-linejoin:miter;stroke-width:0.8;"/>
   </g>
   <g id="patch_4">
    <path d="M 119.210625 288.430125 
L 357.290625 288.430125 
" style="fill:none;stroke:#000000;stroke-linecap:square;stroke-linejoin:miter;stroke-width:0.8;"/>
   </g>
   <g id="PathCollection_1">
    <defs>
     <path d="M 0 1.5 
C 0.397805 1.5 0.77937 1.341951 1.06066 1.06066 
C 1.341951 0.77937 1.5 0.397805 1.5 0 
C 1.5 -0.397805 1.341951 -0.77937 1.06066 -1.06066 
C 0.77937 -1.341951 0.397805 -1.5 0 -1.5 
C -0.397805 -1.5 -0.77937 -1.341951 -1.06066 -1.06066 
C -1.341951 -0.77937 -1.5 -0.397805 -1.5 0 
C -1.5 0.397805 -1.341951 0.77937 -1.06066 1.06066 
C -0.77937 1.341951 -0.397805 1.5 0 1.5 
z
" id="m997ead5744" style="stroke:#3f3f3f;"/>
    </defs>
    <g clip-path="url(#pc7d6a88100)">
     <use style="fill:#ffffff;stroke:#3f3f3f;" x="119.210625" xlink:href="#m997ead5744" y="91.70402"/>
    </g>
   </g>
   <g id="PathCollection_2">
    <g clip-path="url(#pc7d6a88100)">
     <use style="fill:#ffffff;stroke:#3f3f3f;" x="238.250625" xlink:href="#m997ead5744" y="100.171848"/>
    </g>
   </g>
   <g id="PathCollection_3">
    <g clip-path="url(#pc7d6a88100)">
     <use style="fill:#ffffff;stroke:#3f3f3f;" x="357.290625" xlink:href="#m997ead5744" y="121.51423"/>
    </g>
   </g>
   <g id="text_12">
    <!-- freetype2-2017 (2h, 2 trials/fuzzer) -->
    <g transform="translate(132.672188 16.318125)scale(0.12 -0.12)">
     <defs>
      <path d="M 32.171875 -5.078125 
Q 28.375 -14.84375 24.75 -17.8125 
Q 21.140625 -20.796875 15.09375 -20.796875 
L 7.90625 -20.796875 
L 7.90625 -13.28125 
L 13.1875 -13.28125 
Q 16.890625 -13.28125 18.9375 -11.515625 
Q 21 -9.765625 23.484375 -3.21875 
L 25.09375 0.875 
L 2.984375 54.6875 
L 12.5 54.6875 
L 29.59375 11.921875 
L 46.6875 54.6875 
L 56.203125 54.6875 
z
" id="DejaVuSans-121"/>
      <path d="M 4.890625 31.390625 
L 31.203125 31.390625 
L 31.203125 23.390625 
L 4.890625 23.390625 
z
" id="DejaVuSans-45"/>
      <path d="M 11.71875 12.40625 
L 22.015625 12.40625 
L 22.015625 4 
L 14.015625 -11.625 
L 7.71875 -11.625 
L 11.71875 4 
z
" id="DejaVuSans-44"/>
      <path d="M 25.390625 72.90625 
L 33.6875 72.90625 
L 8.296875 -9.28125 
L 0 -9.28125 
z
" id="DejaVuSans-47"/>
     </defs>
     <use xlink:href="#DejaVuSans-102"/>
     <use x="35.205078" xlink:href="#DejaVuSans-114"/>
     <use x="74.068359" xlink:href="#DejaVuSans-101"/>
     <use x="135.591797" xlink:href="#DejaVuSans-101"/>
     <use x="197.115234" xlink:href="#DejaVuSans-116"/>
     <use x="236.324219" xlink:href="#DejaVuSans-121"/>
     <use x="295.503906" xlink:href="#DejaVuSans-112"/>
     <use x="358.980469" xlink:href="#DejaVuSans-101"/>
     <use x="420.503906" xlink:href="#DejaVuSans-50"/>
     <use x="484.126953" xlink:href="#DejaVuSans-45"/>
     <use x="520.210938" xlink:href="#DejaVuSans-50"/>
     <use x="583.833984" xlink:href="#DejaVuSans-48"/>
     <use x="647.457031" xlink:href="#DejaVuSans-49"/>
     <use x="711.080078" xlink:href="#DejaVuSans-55"/>
     <use x="774.703125" xlink:href="#DejaVuSans-32"/>
     <use x="806.490234" xlink:href="#DejaVuSans-40"/>
     <use x="845.503906" xlink:href="#DejaVuSans-50"/>
     <use x="909.126953" xlink:href="#DejaVuSans-104"/>
     <use x="972.505859" xlink:href="#DejaVuSans-44"/>
     <use x="1004.292969" xlink:href="#DejaVuSans-32"/>
     <use x="1036.080078" xlink:href="#DejaVuSans-50"/>
     <use x="1099.703125" xlink:href="#DejaVuSans-32"/>
     <use x="1131.490234" xlink:href="#DejaVuSans-116"/>
     <use x="1170.699219" xlink:href="#DejaVuSans-114"/>
     <use x="1211.8125" xlink:href="#DejaVuSans-105"/>
     <use x="1239.595703" xlink:href="#DejaVuSans-97"/>
     <use x="1300.875" xlink:href="#DejaVuSans-108"/>
     <use x="1328.658203" xlink:href="#DejaVuSans-115"/>
     <use x="1380.757812" xlink:href="#DejaVuSans-47"/>
     <use x="1414.449219" xlink:href="#DejaVuSans-102"/>
     <use x="1449.654297" xlink:href="#DejaVuSans-117"/>
     <use x="1513.033203" xlink:href="#DejaVuSans-122"/>
     <use x="1565.523438" xlink:href="#DejaVuSans-122"/>
     <use x="1618.013672" xlink:href="#DejaVuSans-101"/>
     <use x="1679.537109" xlink:href="#DejaVuSans-114"/>
     <use x="1720.650391" xlink:href="#DejaVuSans-41"/>
    </g>
   </g>
  </g>
 </g>
 <defs>
  <clipPath id="pc7d6a88100">
   <rect height="266.112" width="357.12" x="59.690625" y="22.318125"/>
  </clipPath>
 </defs>
</svg>
