<?xml version="1.0" encoding="utf-8" standalone="no"?>
<!DOCTYPE svg PUBLIC "-//W3C//DTD SVG 1.1//EN"
  "http://www.w3.org/Graphics/SVG/1.1/DTD/svg11.dtd">
<!-- Created with matplotlib (https://matplotlib.org/) -->
<svg height="375.392334pt" version="1.1" viewBox="0 0 417.648125 375.392334" width="417.648125pt" xmlns="http://www.w3.org/2000/svg" xmlns:xlink="http://www.w3.org/1999/xlink">
 <metadata>
  <rdf:RDF xmlns:cc="http://creativecommons.org/ns#" xmlns:dc="http://purl.org/dc/elements/1.1/" xmlns:rdf="http://www.w3.org/1999/02/22-rdf-syntax-ns#">
   <cc:Work>
    <dc:type rdf:resource="http://purl.org/dc/dcmitype/StillImage"/>
    <dc:date>2020-11-17T21:16:44.169085</dc:date>
    <dc:format>image/svg+xml</dc:format>
    <dc:creator>
     <cc:Agent>
      <dc:title>Matplotlib v3.3.2, https://matplotlib.org/</dc:title>
     </cc:Agent>
    </dc:creator>
   </cc:Work>
  </rdf:RDF>
 </metadata>
 <defs>
  <style type="text/css">*{stroke-linecap:butt;stroke-linejoin:round;}</style>
 </defs>
 <g id="figure_1">
  <g id="patch_1">
   <path d="M 0 375.392334 
L 417.648125 375.392334 
L 417.648125 0 
L 0 0 
z
" style="fill:#ffffff;"/>
  </g>
  <g id="axes_1">
   <g id="patch_2">
    <path d="M 53.328125 288.430125 
L 410.448125 288.430125 
L 410.448125 22.318125 
L 53.328125 22.318125 
z
" style="fill:#ffffff;"/>
   </g>
   <g id="PolyCollection_1">
    <defs>
     <path d="M 113.232019 -114.119982 
L 112.464231 -114.119982 
L 112.401668 -116.411479 
L 112.331284 -118.702977 
L 112.252533 -120.994474 
L 112.164903 -123.285971 
L 112.067932 -125.577468 
L 111.961224 -127.868966 
L 111.844462 -130.160463 
L 111.717429 -132.45196 
L 111.580017 -134.743457 
L 111.432249 -137.034954 
L 111.274288 -139.326452 
L 111.10645 -141.617949 
L 110.929219 -143.909446 
L 110.743246 -146.200943 
L 110.549359 -148.492441 
L 110.348563 -150.783938 
L 110.142035 -153.075435 
L 109.931116 -155.366932 
L 109.717302 -157.65843 
L 109.502227 -159.949927 
L 109.287641 -162.241424 
L 109.075387 -164.532921 
L 108.867378 -166.824419 
L 108.665558 -169.115916 
L 108.471876 -171.407413 
L 108.288248 -173.69891 
L 108.116525 -175.990408 
L 107.958452 -178.281905 
L 107.815639 -180.573402 
L 107.689525 -182.864899 
L 107.581348 -185.156397 
L 107.492118 -187.447894 
L 107.422597 -189.739391 
L 107.373279 -192.030888 
L 107.344378 -194.322386 
L 107.335821 -196.613883 
L 107.34725 -198.90538 
L 107.378028 -201.196877 
L 107.427248 -203.488375 
L 107.493757 -205.779872 
L 107.576173 -208.071369 
L 107.672919 -210.362866 
L 107.782257 -212.654364 
L 107.90232 -214.945861 
L 108.031155 -217.237358 
L 108.166764 -219.528855 
L 108.307148 -221.820353 
L 108.450342 -224.11185 
L 108.594464 -226.403347 
L 108.737743 -228.694844 
L 108.878563 -230.986341 
L 109.015485 -233.277839 
L 109.147275 -235.569336 
L 109.272923 -237.860833 
L 109.391656 -240.15233 
L 109.502942 -242.443828 
L 109.606494 -244.735325 
L 109.702263 -247.026822 
L 109.790421 -249.318319 
L 109.87135 -251.609817 
L 109.945615 -253.901314 
L 110.013936 -256.192811 
L 110.077162 -258.484308 
L 110.136234 -260.775806 
L 110.192154 -263.067303 
L 110.24595 -265.3588 
L 110.298644 -267.650297 
L 110.351219 -269.941795 
L 110.40459 -272.233292 
L 110.459583 -274.524789 
L 110.516908 -276.816286 
L 110.577148 -279.107784 
L 110.640743 -281.399281 
L 110.707987 -283.690778 
L 110.779023 -285.982275 
L 110.853851 -288.273773 
L 110.932328 -290.56527 
L 111.014187 -292.856767 
L 111.099044 -295.148264 
L 111.186422 -297.439762 
L 111.275765 -299.731259 
L 111.36646 -302.022756 
L 111.457854 -304.314253 
L 111.54928 -306.605751 
L 111.640069 -308.897248 
L 111.729572 -311.188745 
L 111.817175 -313.480242 
L 111.902311 -315.771739 
L 111.98447 -318.063237 
L 112.063209 -320.354734 
L 112.138158 -322.646231 
L 112.20902 -324.937728 
L 112.275575 -327.229226 
L 112.337678 -329.520723 
L 112.395252 -331.81222 
L 112.448288 -334.103717 
L 112.496838 -336.395215 
L 112.541003 -338.686712 
L 112.580934 -340.978209 
L 113.115316 -340.978209 
L 113.115316 -340.978209 
L 113.155247 -338.686712 
L 113.199412 -336.395215 
L 113.247962 -334.103717 
L 113.300998 -331.81222 
L 113.358572 -329.520723 
L 113.420675 -327.229226 
L 113.48723 -324.937728 
L 113.558092 -322.646231 
L 113.633041 -320.354734 
L 113.71178 -318.063237 
L 113.793939 -315.771739 
L 113.879075 -313.480242 
L 113.966678 -311.188745 
L 114.056181 -308.897248 
L 114.14697 -306.605751 
L 114.238396 -304.314253 
L 114.32979 -302.022756 
L 114.420485 -299.731259 
L 114.509828 -297.439762 
L 114.597206 -295.148264 
L 114.682063 -292.856767 
L 114.763922 -290.56527 
L 114.842399 -288.273773 
L 114.917227 -285.982275 
L 114.988263 -283.690778 
L 115.055507 -281.399281 
L 115.119102 -279.107784 
L 115.179342 -276.816286 
L 115.236667 -274.524789 
L 115.29166 -272.233292 
L 115.345031 -269.941795 
L 115.397606 -267.650297 
L 115.4503 -265.3588 
L 115.504096 -263.067303 
L 115.560016 -260.775806 
L 115.619088 -258.484308 
L 115.682314 -256.192811 
L 115.750635 -253.901314 
L 115.8249 -251.609817 
L 115.905829 -249.318319 
L 115.993987 -247.026822 
L 116.089756 -244.735325 
L 116.193308 -242.443828 
L 116.304594 -240.15233 
L 116.423327 -237.860833 
L 116.548975 -235.569336 
L 116.680765 -233.277839 
L 116.817687 -230.986341 
L 116.958507 -228.694844 
L 117.101786 -226.403347 
L 117.245908 -224.11185 
L 117.389102 -221.820353 
L 117.529486 -219.528855 
L 117.665095 -217.237358 
L 117.79393 -214.945861 
L 117.913993 -212.654364 
L 118.023331 -210.362866 
L 118.120077 -208.071369 
L 118.202493 -205.779872 
L 118.269002 -203.488375 
L 118.318222 -201.196877 
L 118.349 -198.90538 
L 118.360429 -196.613883 
L 118.351872 -194.322386 
L 118.322971 -192.030888 
L 118.273653 -189.739391 
L 118.204132 -187.447894 
L 118.114902 -185.156397 
L 118.006725 -182.864899 
L 117.880611 -180.573402 
L 117.737798 -178.281905 
L 117.579725 -175.990408 
L 117.408002 -173.69891 
L 117.224374 -171.407413 
L 117.030692 -169.115916 
L 116.828872 -166.824419 
L 116.620863 -164.532921 
L 116.408609 -162.241424 
L 116.194023 -159.949927 
L 115.978948 -157.65843 
L 115.765134 -155.366932 
L 115.554215 -153.075435 
L 115.347687 -150.783938 
L 115.146891 -148.492441 
L 114.953004 -146.200943 
L 114.767031 -143.909446 
L 114.5898 -141.617949 
L 114.421962 -139.326452 
L 114.264001 -137.034954 
L 114.116233 -134.743457 
L 113.978821 -132.45196 
L 113.851788 -130.160463 
L 113.735026 -127.868966 
L 113.628318 -125.577468 
L 113.531347 -123.285971 
L 113.443717 -120.994474 
L 113.364966 -118.702977 
L 113.294582 -116.411479 
L 113.232019 -114.119982 
z
" id="m8ed033f526" style="stroke:#3f3f3f;stroke-width:1.5;"/>
    </defs>
    <g clip-path="url(#p9e7894eeef)">
     <use style="fill:#9fd495;stroke:#3f3f3f;stroke-width:1.5;" x="0" xlink:href="#m8ed033f526" y="375.392334"/>
    </g>
   </g>
   <g id="PolyCollection_2">
    <defs>
     <path d="M 232.421121 -99.058209 
L 231.355129 -99.058209 
L 231.277013 -101.416138 
L 231.190646 -103.774067 
L 231.095703 -106.131996 
L 230.991942 -108.489925 
L 230.879214 -110.847854 
L 230.757482 -113.205784 
L 230.626833 -115.563713 
L 230.487491 -117.921642 
L 230.339831 -120.279571 
L 230.184382 -122.6375 
L 230.02184 -124.995429 
L 229.853063 -127.353358 
L 229.679076 -129.711287 
L 229.50106 -132.069216 
L 229.320344 -134.427145 
L 229.13839 -136.785074 
L 228.956775 -139.143003 
L 228.777164 -141.500932 
L 228.601287 -143.858861 
L 228.430903 -146.21679 
L 228.267771 -148.574719 
L 228.113611 -150.932648 
L 227.970069 -153.290577 
L 227.838677 -155.648507 
L 227.720823 -158.006436 
L 227.61771 -160.364365 
L 227.530331 -162.722294 
L 227.45944 -165.080223 
L 227.405529 -167.438152 
L 227.368816 -169.796081 
L 227.349234 -172.15401 
L 227.346427 -174.511939 
L 227.359758 -176.869868 
L 227.388317 -179.227797 
L 227.430945 -181.585726 
L 227.486256 -183.943655 
L 227.552667 -186.301584 
L 227.62844 -188.659513 
L 227.711716 -191.017442 
L 227.800562 -193.375371 
L 227.893017 -195.733301 
L 227.987134 -198.09123 
L 228.08103 -200.449159 
L 228.172925 -202.807088 
L 228.261183 -205.165017 
L 228.34435 -207.522946 
L 228.421182 -209.880875 
L 228.490673 -212.238804 
L 228.552069 -214.596733 
L 228.604885 -216.954662 
L 228.648905 -219.312591 
L 228.684184 -221.67052 
L 228.711036 -224.028449 
L 228.730017 -226.386378 
L 228.741907 -228.744307 
L 228.747683 -231.102236 
L 228.748486 -233.460165 
L 228.745587 -235.818094 
L 228.740351 -238.176024 
L 228.734201 -240.533953 
L 228.728574 -242.891882 
L 228.724891 -245.249811 
L 228.724514 -247.60774 
L 228.728717 -249.965669 
L 228.738656 -252.323598 
L 228.755341 -254.681527 
L 228.779619 -257.039456 
L 228.812152 -259.397385 
L 228.853414 -261.755314 
L 228.903678 -264.113243 
L 228.963023 -266.471172 
L 229.031333 -268.829101 
L 229.108312 -271.18703 
L 229.193491 -273.544959 
L 229.286253 -275.902888 
L 229.385849 -278.260817 
L 229.491418 -280.618747 
L 229.602018 -282.976676 
L 229.716644 -285.334605 
L 229.834254 -287.692534 
L 229.953797 -290.050463 
L 230.074228 -292.408392 
L 230.194538 -294.766321 
L 230.313763 -297.12425 
L 230.431007 -299.482179 
L 230.545453 -301.840108 
L 230.656371 -304.198037 
L 230.763128 -306.555966 
L 230.865192 -308.913895 
L 230.962132 -311.271824 
L 231.05362 -313.629753 
L 231.139423 -315.987682 
L 231.219405 -318.345611 
L 231.293513 -320.703541 
L 231.361775 -323.06147 
L 231.424287 -325.419399 
L 231.481208 -327.777328 
L 231.532744 -330.135257 
L 231.579146 -332.493186 
L 232.197104 -332.493186 
L 232.197104 -332.493186 
L 232.243506 -330.135257 
L 232.295042 -327.777328 
L 232.351963 -325.419399 
L 232.414475 -323.06147 
L 232.482737 -320.703541 
L 232.556845 -318.345611 
L 232.636827 -315.987682 
L 232.72263 -313.629753 
L 232.814118 -311.271824 
L 232.911058 -308.913895 
L 233.013122 -306.555966 
L 233.119879 -304.198037 
L 233.230797 -301.840108 
L 233.345243 -299.482179 
L 233.462487 -297.12425 
L 233.581712 -294.766321 
L 233.702022 -292.408392 
L 233.822453 -290.050463 
L 233.941996 -287.692534 
L 234.059606 -285.334605 
L 234.174232 -282.976676 
L 234.284832 -280.618747 
L 234.390401 -278.260817 
L 234.489997 -275.902888 
L 234.582759 -273.544959 
L 234.667938 -271.18703 
L 234.744917 -268.829101 
L 234.813227 -266.471172 
L 234.872572 -264.113243 
L 234.922836 -261.755314 
L 234.964098 -259.397385 
L 234.996631 -257.039456 
L 235.020909 -254.681527 
L 235.037594 -252.323598 
L 235.047533 -249.965669 
L 235.051736 -247.60774 
L 235.051359 -245.249811 
L 235.047676 -242.891882 
L 235.042049 -240.533953 
L 235.035899 -238.176024 
L 235.030663 -235.818094 
L 235.027764 -233.460165 
L 235.028567 -231.102236 
L 235.034343 -228.744307 
L 235.046233 -226.386378 
L 235.065214 -224.028449 
L 235.092066 -221.67052 
L 235.127345 -219.312591 
L 235.171365 -216.954662 
L 235.224181 -214.596733 
L 235.285577 -212.238804 
L 235.355068 -209.880875 
L 235.4319 -207.522946 
L 235.515067 -205.165017 
L 235.603325 -202.807088 
L 235.69522 -200.449159 
L 235.789116 -198.09123 
L 235.883233 -195.733301 
L 235.975688 -193.375371 
L 236.064534 -191.017442 
L 236.14781 -188.659513 
L 236.223583 -186.301584 
L 236.289994 -183.943655 
L 236.345305 -181.585726 
L 236.387933 -179.227797 
L 236.416492 -176.869868 
L 236.429823 -174.511939 
L 236.427016 -172.15401 
L 236.407434 -169.796081 
L 236.370721 -167.438152 
L 236.31681 -165.080223 
L 236.245919 -162.722294 
L 236.15854 -160.364365 
L 236.055427 -158.006436 
L 235.937573 -155.648507 
L 235.806181 -153.290577 
L 235.662639 -150.932648 
L 235.508479 -148.574719 
L 235.345347 -146.21679 
L 235.174963 -143.858861 
L 234.999086 -141.500932 
L 234.819475 -139.143003 
L 234.63786 -136.785074 
L 234.455906 -134.427145 
L 234.27519 -132.069216 
L 234.097174 -129.711287 
L 233.923187 -127.353358 
L 233.75441 -124.995429 
L 233.591868 -122.6375 
L 233.436419 -120.279571 
L 233.288759 -117.921642 
L 233.149417 -115.563713 
L 233.018768 -113.205784 
L 232.897036 -110.847854 
L 232.784308 -108.489925 
L 232.680547 -106.131996 
L 232.585604 -103.774067 
L 232.499237 -101.416138 
L 232.421121 -99.058209 
z
" id="m92e2b919d9" style="stroke:#3f3f3f;stroke-width:1.5;"/>
    </defs>
    <g clip-path="url(#p9e7894eeef)">
     <use style="fill:#c03d3e;stroke:#3f3f3f;stroke-width:1.5;" x="0" xlink:href="#m92e2b919d9" y="375.392334"/>
    </g>
   </g>
   <g id="PolyCollection_3">
    <defs>
     <path d="M 353.453391 -155.428637 
L 348.402859 -155.428637 
L 347.949266 -155.711249 
L 347.432352 -155.993862 
L 346.846808 -156.276474 
L 346.187508 -156.559086 
L 345.449632 -156.841698 
L 344.628808 -157.124311 
L 343.721255 -157.406923 
L 342.723928 -157.689535 
L 341.634672 -157.972147 
L 340.452366 -158.254759 
L 339.177057 -158.537372 
L 337.810088 -158.819984 
L 336.3542 -159.102596 
L 334.81362 -159.385208 
L 333.194116 -159.667821 
L 331.503029 -159.950433 
L 329.749266 -160.233045 
L 327.943264 -160.515657 
L 326.096918 -160.79827 
L 324.223466 -161.080882 
L 322.33735 -161.363494 
L 320.454034 -161.646106 
L 318.589802 -161.928718 
L 316.761516 -162.211331 
L 314.986368 -162.493943 
L 313.281599 -162.776555 
L 311.664217 -163.059167 
L 310.150707 -163.34178 
L 308.756738 -163.624392 
L 307.496885 -163.907004 
L 306.38435 -164.189616 
L 305.430718 -164.472228 
L 304.645727 -164.754841 
L 304.037066 -165.037453 
L 303.610219 -165.320065 
L 303.36833 -165.602677 
L 303.312125 -165.88529 
L 303.439868 -166.167902 
L 303.747367 -166.450514 
L 304.228026 -166.733126 
L 304.872947 -167.015738 
L 305.671073 -167.298351 
L 306.609377 -167.580963 
L 307.6731 -167.863575 
L 308.846018 -168.146187 
L 310.110748 -168.4288 
L 311.44908 -168.711412 
L 312.842329 -168.994024 
L 314.271705 -169.276636 
L 315.71868 -169.559248 
L 317.165361 -169.841861 
L 318.59484 -170.124473 
L 319.991529 -170.407085 
L 321.341461 -170.689697 
L 322.632549 -170.97231 
L 323.854798 -171.254922 
L 325.000465 -171.537534 
L 326.064158 -171.820146 
L 327.042868 -172.102758 
L 327.935943 -172.385371 
L 328.744994 -172.667983 
L 329.473743 -172.950595 
L 330.127809 -173.233207 
L 330.714457 -173.51582 
L 331.24229 -173.798432 
L 331.720925 -174.081044 
L 332.160644 -174.363656 
L 332.572037 -174.646269 
L 332.965648 -174.928881 
L 333.351649 -175.211493 
L 333.739523 -175.494105 
L 334.1378 -175.776717 
L 334.553831 -176.05933 
L 334.993614 -176.341942 
L 335.461674 -176.624554 
L 335.961 -176.907166 
L 336.493041 -177.189779 
L 337.057753 -177.472391 
L 337.653688 -177.755003 
L 338.278138 -178.037615 
L 338.927301 -178.320227 
L 339.596477 -178.60284 
L 340.280284 -178.885452 
L 340.972873 -179.168064 
L 341.668147 -179.450676 
L 342.359974 -179.733289 
L 343.042372 -180.015901 
L 343.709686 -180.298513 
L 344.356726 -180.581125 
L 344.978885 -180.863737 
L 345.572223 -181.14635 
L 346.13352 -181.428962 
L 346.660301 -181.711574 
L 347.150836 -181.994186 
L 347.604112 -182.276799 
L 348.019792 -182.559411 
L 348.398149 -182.842023 
L 348.739998 -183.124635 
L 349.046616 -183.407247 
L 352.809634 -183.407247 
L 352.809634 -183.407247 
L 353.116252 -183.124635 
L 353.458101 -182.842023 
L 353.836458 -182.559411 
L 354.252138 -182.276799 
L 354.705414 -181.994186 
L 355.195949 -181.711574 
L 355.72273 -181.428962 
L 356.284027 -181.14635 
L 356.877365 -180.863737 
L 357.499524 -180.581125 
L 358.146564 -180.298513 
L 358.813878 -180.015901 
L 359.496276 -179.733289 
L 360.188103 -179.450676 
L 360.883377 -179.168064 
L 361.575966 -178.885452 
L 362.259773 -178.60284 
L 362.928949 -178.320227 
L 363.578112 -178.037615 
L 364.202562 -177.755003 
L 364.798497 -177.472391 
L 365.363209 -177.189779 
L 365.89525 -176.907166 
L 366.394576 -176.624554 
L 366.862636 -176.341942 
L 367.302419 -176.05933 
L 367.71845 -175.776717 
L 368.116727 -175.494105 
L 368.504601 -175.211493 
L 368.890602 -174.928881 
L 369.284213 -174.646269 
L 369.695606 -174.363656 
L 370.135325 -174.081044 
L 370.61396 -173.798432 
L 371.141793 -173.51582 
L 371.728441 -173.233207 
L 372.382507 -172.950595 
L 373.111256 -172.667983 
L 373.920307 -172.385371 
L 374.813382 -172.102758 
L 375.792092 -171.820146 
L 376.855785 -171.537534 
L 378.001452 -171.254922 
L 379.223701 -170.97231 
L 380.514789 -170.689697 
L 381.864721 -170.407085 
L 383.26141 -170.124473 
L 384.690889 -169.841861 
L 386.13757 -169.559248 
L 387.584545 -169.276636 
L 389.013921 -168.994024 
L 390.40717 -168.711412 
L 391.745502 -168.4288 
L 393.010232 -168.146187 
L 394.18315 -167.863575 
L 395.246873 -167.580963 
L 396.185177 -167.298351 
L 396.983303 -167.015738 
L 397.628224 -166.733126 
L 398.108883 -166.450514 
L 398.416382 -166.167902 
L 398.544125 -165.88529 
L 398.48792 -165.602677 
L 398.246031 -165.320065 
L 397.819184 -165.037453 
L 397.210523 -164.754841 
L 396.425532 -164.472228 
L 395.4719 -164.189616 
L 394.359365 -163.907004 
L 393.099512 -163.624392 
L 391.705543 -163.34178 
L 390.192033 -163.059167 
L 388.574651 -162.776555 
L 386.869882 -162.493943 
L 385.094734 -162.211331 
L 383.266448 -161.928718 
L 381.402216 -161.646106 
L 379.5189 -161.363494 
L 377.632784 -161.080882 
L 375.759332 -160.79827 
L 373.912986 -160.515657 
L 372.106984 -160.233045 
L 370.353221 -159.950433 
L 368.662134 -159.667821 
L 367.04263 -159.385208 
L 365.50205 -159.102596 
L 364.046162 -158.819984 
L 362.679193 -158.537372 
L 361.403884 -158.254759 
L 360.221578 -157.972147 
L 359.132322 -157.689535 
L 358.134995 -157.406923 
L 357.227442 -157.124311 
L 356.406618 -156.841698 
L 355.668742 -156.559086 
L 355.009442 -156.276474 
L 354.423898 -155.993862 
L 353.906984 -155.711249 
L 353.453391 -155.428637 
z
" id="m8699949f10" style="stroke:#3f3f3f;stroke-width:1.5;"/>
    </defs>
    <g clip-path="url(#p9e7894eeef)">
     <use style="fill:#3274a1;stroke:#3f3f3f;stroke-width:1.5;" x="0" xlink:href="#m8699949f10" y="375.392334"/>
    </g>
   </g>
   <g id="matplotlib.axis_1">
    <g id="xtick_1">
     <g id="line2d_1">
      <defs>
       <path d="M 0 0 
L 0 3.5 
" id="m92df6c0fcc" style="stroke:#000000;stroke-width:0.8;"/>
      </defs>
      <g>
       <use style="stroke:#000000;stroke-width:0.8;" x="112.848125" xlink:href="#m92df6c0fcc" y="288.430125"/>
      </g>
     </g>
     <g id="text_1">
      <!-- aflplusplus_hier_coe -->
      <g transform="translate(24.266958 352.472284)rotate(-30)scale(0.1 -0.1)">
       <defs>
        <path d="M 34.28125 27.484375 
Q 23.390625 27.484375 19.1875 25 
Q 14.984375 22.515625 14.984375 16.5 
Q 14.984375 11.71875 18.140625 8.90625 
Q 21.296875 6.109375 26.703125 6.109375 
Q 34.1875 6.109375 38.703125 11.40625 
Q 43.21875 16.703125 43.21875 25.484375 
L 43.21875 27.484375 
z
M 52.203125 31.203125 
L 52.203125 0 
L 43.21875 0 
L 43.21875 8.296875 
Q 40.140625 3.328125 35.546875 0.953125 
Q 30.953125 -1.421875 24.3125 -1.421875 
Q 15.921875 -1.421875 10.953125 3.296875 
Q 6 8.015625 6 15.921875 
Q 6 25.140625 12.171875 29.828125 
Q 18.359375 34.515625 30.609375 34.515625 
L 43.21875 34.515625 
L 43.21875 35.40625 
Q 43.21875 41.609375 39.140625 45 
Q 35.0625 48.390625 27.6875 48.390625 
Q 23 48.390625 18.546875 47.265625 
Q 14.109375 46.140625 10.015625 43.890625 
L 10.015625 52.203125 
Q 14.9375 54.109375 19.578125 55.046875 
Q 24.21875 56 28.609375 56 
Q 40.484375 56 46.34375 49.84375 
Q 52.203125 43.703125 52.203125 31.203125 
z
" id="DejaVuSans-97"/>
        <path d="M 37.109375 75.984375 
L 37.109375 68.5 
L 28.515625 68.5 
Q 23.6875 68.5 21.796875 66.546875 
Q 19.921875 64.59375 19.921875 59.515625 
L 19.921875 54.6875 
L 34.71875 54.6875 
L 34.71875 47.703125 
L 19.921875 47.703125 
L 19.921875 0 
L 10.890625 0 
L 10.890625 47.703125 
L 2.296875 47.703125 
L 2.296875 54.6875 
L 10.890625 54.6875 
L 10.890625 58.5 
Q 10.890625 67.625 15.140625 71.796875 
Q 19.390625 75.984375 28.609375 75.984375 
z
" id="DejaVuSans-102"/>
        <path d="M 9.421875 75.984375 
L 18.40625 75.984375 
L 18.40625 0 
L 9.421875 0 
z
" id="DejaVuSans-108"/>
        <path d="M 18.109375 8.203125 
L 18.109375 -20.796875 
L 9.078125 -20.796875 
L 9.078125 54.6875 
L 18.109375 54.6875 
L 18.109375 46.390625 
Q 20.953125 51.265625 25.265625 53.625 
Q 29.59375 56 35.59375 56 
Q 45.5625 56 51.78125 48.09375 
Q 58.015625 40.1875 58.015625 27.296875 
Q 58.015625 14.40625 51.78125 6.484375 
Q 45.5625 -1.421875 35.59375 -1.421875 
Q 29.59375 -1.421875 25.265625 0.953125 
Q 20.953125 3.328125 18.109375 8.203125 
z
M 48.6875 27.296875 
Q 48.6875 37.203125 44.609375 42.84375 
Q 40.53125 48.484375 33.40625 48.484375 
Q 26.265625 48.484375 22.1875 42.84375 
Q 18.109375 37.203125 18.109375 27.296875 
Q 18.109375 17.390625 22.1875 11.75 
Q 26.265625 6.109375 33.40625 6.109375 
Q 40.53125 6.109375 44.609375 11.75 
Q 48.6875 17.390625 48.6875 27.296875 
z
" id="DejaVuSans-112"/>
        <path d="M 8.5 21.578125 
L 8.5 54.6875 
L 17.484375 54.6875 
L 17.484375 21.921875 
Q 17.484375 14.15625 20.5 10.265625 
Q 23.53125 6.390625 29.59375 6.390625 
Q 36.859375 6.390625 41.078125 11.03125 
Q 45.3125 15.671875 45.3125 23.6875 
L 45.3125 54.6875 
L 54.296875 54.6875 
L 54.296875 0 
L 45.3125 0 
L 45.3125 8.40625 
Q 42.046875 3.421875 37.71875 1 
Q 33.40625 -1.421875 27.6875 -1.421875 
Q 18.265625 -1.421875 13.375 4.4375 
Q 8.5 10.296875 8.5 21.578125 
z
M 31.109375 56 
z
" id="DejaVuSans-117"/>
        <path d="M 44.28125 53.078125 
L 44.28125 44.578125 
Q 40.484375 46.53125 36.375 47.5 
Q 32.28125 48.484375 27.875 48.484375 
Q 21.1875 48.484375 17.84375 46.4375 
Q 14.5 44.390625 14.5 40.28125 
Q 14.5 37.15625 16.890625 35.375 
Q 19.28125 33.59375 26.515625 31.984375 
L 29.59375 31.296875 
Q 39.15625 29.25 43.1875 25.515625 
Q 47.21875 21.78125 47.21875 15.09375 
Q 47.21875 7.46875 41.1875 3.015625 
Q 35.15625 -1.421875 24.609375 -1.421875 
Q 20.21875 -1.421875 15.453125 -0.5625 
Q 10.6875 0.296875 5.421875 2 
L 5.421875 11.28125 
Q 10.40625 8.6875 15.234375 7.390625 
Q 20.0625 6.109375 24.8125 6.109375 
Q 31.15625 6.109375 34.5625 8.28125 
Q 37.984375 10.453125 37.984375 14.40625 
Q 37.984375 18.0625 35.515625 20.015625 
Q 33.0625 21.96875 24.703125 23.78125 
L 21.578125 24.515625 
Q 13.234375 26.265625 9.515625 29.90625 
Q 5.8125 33.546875 5.8125 39.890625 
Q 5.8125 47.609375 11.28125 51.796875 
Q 16.75 56 26.8125 56 
Q 31.78125 56 36.171875 55.265625 
Q 40.578125 54.546875 44.28125 53.078125 
z
" id="DejaVuSans-115"/>
        <path d="M 50.984375 -16.609375 
L 50.984375 -23.578125 
L -0.984375 -23.578125 
L -0.984375 -16.609375 
z
" id="DejaVuSans-95"/>
        <path d="M 54.890625 33.015625 
L 54.890625 0 
L 45.90625 0 
L 45.90625 32.71875 
Q 45.90625 40.484375 42.875 44.328125 
Q 39.84375 48.1875 33.796875 48.1875 
Q 26.515625 48.1875 22.3125 43.546875 
Q 18.109375 38.921875 18.109375 30.90625 
L 18.109375 0 
L 9.078125 0 
L 9.078125 75.984375 
L 18.109375 75.984375 
L 18.109375 46.1875 
Q 21.34375 51.125 25.703125 53.5625 
Q 30.078125 56 35.796875 56 
Q 45.21875 56 50.046875 50.171875 
Q 54.890625 44.34375 54.890625 33.015625 
z
" id="DejaVuSans-104"/>
        <path d="M 9.421875 54.6875 
L 18.40625 54.6875 
L 18.40625 0 
L 9.421875 0 
z
M 9.421875 75.984375 
L 18.40625 75.984375 
L 18.40625 64.59375 
L 9.421875 64.59375 
z
" id="DejaVuSans-105"/>
        <path d="M 56.203125 29.59375 
L 56.203125 25.203125 
L 14.890625 25.203125 
Q 15.484375 15.921875 20.484375 11.0625 
Q 25.484375 6.203125 34.421875 6.203125 
Q 39.59375 6.203125 44.453125 7.46875 
Q 49.3125 8.734375 54.109375 11.28125 
L 54.109375 2.78125 
Q 49.265625 0.734375 44.1875 -0.34375 
Q 39.109375 -1.421875 33.890625 -1.421875 
Q 20.796875 -1.421875 13.15625 6.1875 
Q 5.515625 13.8125 5.515625 26.8125 
Q 5.515625 40.234375 12.765625 48.109375 
Q 20.015625 56 32.328125 56 
Q 43.359375 56 49.78125 48.890625 
Q 56.203125 41.796875 56.203125 29.59375 
z
M 47.21875 32.234375 
Q 47.125 39.59375 43.09375 43.984375 
Q 39.0625 48.390625 32.421875 48.390625 
Q 24.90625 48.390625 20.390625 44.140625 
Q 15.875 39.890625 15.1875 32.171875 
z
" id="DejaVuSans-101"/>
        <path d="M 41.109375 46.296875 
Q 39.59375 47.171875 37.8125 47.578125 
Q 36.03125 48 33.890625 48 
Q 26.265625 48 22.1875 43.046875 
Q 18.109375 38.09375 18.109375 28.8125 
L 18.109375 0 
L 9.078125 0 
L 9.078125 54.6875 
L 18.109375 54.6875 
L 18.109375 46.1875 
Q 20.953125 51.171875 25.484375 53.578125 
Q 30.03125 56 36.53125 56 
Q 37.453125 56 38.578125 55.875 
Q 39.703125 55.765625 41.0625 55.515625 
z
" id="DejaVuSans-114"/>
        <path d="M 48.78125 52.59375 
L 48.78125 44.1875 
Q 44.96875 46.296875 41.140625 47.34375 
Q 37.3125 48.390625 33.40625 48.390625 
Q 24.65625 48.390625 19.8125 42.84375 
Q 14.984375 37.3125 14.984375 27.296875 
Q 14.984375 17.28125 19.8125 11.734375 
Q 24.65625 6.203125 33.40625 6.203125 
Q 37.3125 6.203125 41.140625 7.25 
Q 44.96875 8.296875 48.78125 10.40625 
L 48.78125 2.09375 
Q 45.015625 0.34375 40.984375 -0.53125 
Q 36.96875 -1.421875 32.421875 -1.421875 
Q 20.0625 -1.421875 12.78125 6.34375 
Q 5.515625 14.109375 5.515625 27.296875 
Q 5.515625 40.671875 12.859375 48.328125 
Q 20.21875 56 33.015625 56 
Q 37.15625 56 41.109375 55.140625 
Q 45.0625 54.296875 48.78125 52.59375 
z
" id="DejaVuSans-99"/>
        <path d="M 30.609375 48.390625 
Q 23.390625 48.390625 19.1875 42.75 
Q 14.984375 37.109375 14.984375 27.296875 
Q 14.984375 17.484375 19.15625 11.84375 
Q 23.34375 6.203125 30.609375 6.203125 
Q 37.796875 6.203125 41.984375 11.859375 
Q 46.1875 17.53125 46.1875 27.296875 
Q 46.1875 37.015625 41.984375 42.703125 
Q 37.796875 48.390625 30.609375 48.390625 
z
M 30.609375 56 
Q 42.328125 56 49.015625 48.375 
Q 55.71875 40.765625 55.71875 27.296875 
Q 55.71875 13.875 49.015625 6.21875 
Q 42.328125 -1.421875 30.609375 -1.421875 
Q 18.84375 -1.421875 12.171875 6.21875 
Q 5.515625 13.875 5.515625 27.296875 
Q 5.515625 40.765625 12.171875 48.375 
Q 18.84375 56 30.609375 56 
z
" id="DejaVuSans-111"/>
       </defs>
       <use xlink:href="#DejaVuSans-97"/>
       <use x="61.279297" xlink:href="#DejaVuSans-102"/>
       <use x="96.484375" xlink:href="#DejaVuSans-108"/>
       <use x="124.267578" xlink:href="#DejaVuSans-112"/>
       <use x="187.744141" xlink:href="#DejaVuSans-108"/>
       <use x="215.527344" xlink:href="#DejaVuSans-117"/>
       <use x="278.90625" xlink:href="#DejaVuSans-115"/>
       <use x="331.005859" xlink:href="#DejaVuSans-112"/>
       <use x="394.482422" xlink:href="#DejaVuSans-108"/>
       <use x="422.265625" xlink:href="#DejaVuSans-117"/>
       <use x="485.644531" xlink:href="#DejaVuSans-115"/>
       <use x="537.744141" xlink:href="#DejaVuSans-95"/>
       <use x="587.744141" xlink:href="#DejaVuSans-104"/>
       <use x="651.123047" xlink:href="#DejaVuSans-105"/>
       <use x="678.90625" xlink:href="#DejaVuSans-101"/>
       <use x="740.429688" xlink:href="#DejaVuSans-114"/>
       <use x="781.542969" xlink:href="#DejaVuSans-95"/>
       <use x="831.542969" xlink:href="#DejaVuSans-99"/>
       <use x="886.523438" xlink:href="#DejaVuSans-111"/>
       <use x="947.705078" xlink:href="#DejaVuSans-101"/>
      </g>
     </g>
    </g>
    <g id="xtick_2">
     <g id="line2d_2">
      <g>
       <use style="stroke:#000000;stroke-width:0.8;" x="231.888125" xlink:href="#m92df6c0fcc" y="288.430125"/>
      </g>
     </g>
     <g id="text_2">
      <!-- aflplusplus_hier_x -->
      <g transform="translate(153.570712 346.546502)rotate(-30)scale(0.1 -0.1)">
       <defs>
        <path d="M 54.890625 54.6875 
L 35.109375 28.078125 
L 55.90625 0 
L 45.3125 0 
L 29.390625 21.484375 
L 13.484375 0 
L 2.875 0 
L 24.125 28.609375 
L 4.6875 54.6875 
L 15.28125 54.6875 
L 29.78125 35.203125 
L 44.28125 54.6875 
z
" id="DejaVuSans-120"/>
       </defs>
       <use xlink:href="#DejaVuSans-97"/>
       <use x="61.279297" xlink:href="#DejaVuSans-102"/>
       <use x="96.484375" xlink:href="#DejaVuSans-108"/>
       <use x="124.267578" xlink:href="#DejaVuSans-112"/>
       <use x="187.744141" xlink:href="#DejaVuSans-108"/>
       <use x="215.527344" xlink:href="#DejaVuSans-117"/>
       <use x="278.90625" xlink:href="#DejaVuSans-115"/>
       <use x="331.005859" xlink:href="#DejaVuSans-112"/>
       <use x="394.482422" xlink:href="#DejaVuSans-108"/>
       <use x="422.265625" xlink:href="#DejaVuSans-117"/>
       <use x="485.644531" xlink:href="#DejaVuSans-115"/>
       <use x="537.744141" xlink:href="#DejaVuSans-95"/>
       <use x="587.744141" xlink:href="#DejaVuSans-104"/>
       <use x="651.123047" xlink:href="#DejaVuSans-105"/>
       <use x="678.90625" xlink:href="#DejaVuSans-101"/>
       <use x="740.429688" xlink:href="#DejaVuSans-114"/>
       <use x="781.542969" xlink:href="#DejaVuSans-95"/>
       <use x="831.542969" xlink:href="#DejaVuSans-120"/>
      </g>
     </g>
    </g>
    <g id="xtick_3">
     <g id="line2d_3">
      <g>
       <use style="stroke:#000000;stroke-width:0.8;" x="350.928125" xlink:href="#m92df6c0fcc" y="288.430125"/>
      </g>
     </g>
     <g id="text_3">
      <!-- aflplusplus_hier -->
      <g transform="translate(282.066627 341.087127)rotate(-30)scale(0.1 -0.1)">
       <use xlink:href="#DejaVuSans-97"/>
       <use x="61.279297" xlink:href="#DejaVuSans-102"/>
       <use x="96.484375" xlink:href="#DejaVuSans-108"/>
       <use x="124.267578" xlink:href="#DejaVuSans-112"/>
       <use x="187.744141" xlink:href="#DejaVuSans-108"/>
       <use x="215.527344" xlink:href="#DejaVuSans-117"/>
       <use x="278.90625" xlink:href="#DejaVuSans-115"/>
       <use x="331.005859" xlink:href="#DejaVuSans-112"/>
       <use x="394.482422" xlink:href="#DejaVuSans-108"/>
       <use x="422.265625" xlink:href="#DejaVuSans-117"/>
       <use x="485.644531" xlink:href="#DejaVuSans-115"/>
       <use x="537.744141" xlink:href="#DejaVuSans-95"/>
       <use x="587.744141" xlink:href="#DejaVuSans-104"/>
       <use x="651.123047" xlink:href="#DejaVuSans-105"/>
       <use x="678.90625" xlink:href="#DejaVuSans-101"/>
       <use x="740.429688" xlink:href="#DejaVuSans-114"/>
      </g>
     </g>
    </g>
    <g id="text_4">
     <!-- Fuzzer (highest median coverage on the left) -->
     <g transform="translate(119.270156 366.112647)scale(0.1 -0.1)">
      <defs>
       <path d="M 9.8125 72.90625 
L 51.703125 72.90625 
L 51.703125 64.59375 
L 19.671875 64.59375 
L 19.671875 43.109375 
L 48.578125 43.109375 
L 48.578125 34.8125 
L 19.671875 34.8125 
L 19.671875 0 
L 9.8125 0 
z
" id="DejaVuSans-70"/>
       <path d="M 5.515625 54.6875 
L 48.1875 54.6875 
L 48.1875 46.484375 
L 14.40625 7.171875 
L 48.1875 7.171875 
L 48.1875 0 
L 4.296875 0 
L 4.296875 8.203125 
L 38.09375 47.515625 
L 5.515625 47.515625 
z
" id="DejaVuSans-122"/>
       <path id="DejaVuSans-32"/>
       <path d="M 31 75.875 
Q 24.46875 64.65625 21.28125 53.65625 
Q 18.109375 42.671875 18.109375 31.390625 
Q 18.109375 20.125 21.3125 9.0625 
Q 24.515625 -2 31 -13.1875 
L 23.1875 -13.1875 
Q 15.875 -1.703125 12.234375 9.375 
Q 8.59375 20.453125 8.59375 31.390625 
Q 8.59375 42.28125 12.203125 53.3125 
Q 15.828125 64.359375 23.1875 75.875 
z
" id="DejaVuSans-40"/>
       <path d="M 45.40625 27.984375 
Q 45.40625 37.75 41.375 43.109375 
Q 37.359375 48.484375 30.078125 48.484375 
Q 22.859375 48.484375 18.828125 43.109375 
Q 14.796875 37.75 14.796875 27.984375 
Q 14.796875 18.265625 18.828125 12.890625 
Q 22.859375 7.515625 30.078125 7.515625 
Q 37.359375 7.515625 41.375 12.890625 
Q 45.40625 18.265625 45.40625 27.984375 
z
M 54.390625 6.78125 
Q 54.390625 -7.171875 48.1875 -13.984375 
Q 42 -20.796875 29.203125 -20.796875 
Q 24.46875 -20.796875 20.265625 -20.09375 
Q 16.0625 -19.390625 12.109375 -17.921875 
L 12.109375 -9.1875 
Q 16.0625 -11.328125 19.921875 -12.34375 
Q 23.78125 -13.375 27.78125 -13.375 
Q 36.625 -13.375 41.015625 -8.765625 
Q 45.40625 -4.15625 45.40625 5.171875 
L 45.40625 9.625 
Q 42.625 4.78125 38.28125 2.390625 
Q 33.9375 0 27.875 0 
Q 17.828125 0 11.671875 7.65625 
Q 5.515625 15.328125 5.515625 27.984375 
Q 5.515625 40.671875 11.671875 48.328125 
Q 17.828125 56 27.875 56 
Q 33.9375 56 38.28125 53.609375 
Q 42.625 51.21875 45.40625 46.390625 
L 45.40625 54.6875 
L 54.390625 54.6875 
z
" id="DejaVuSans-103"/>
       <path d="M 18.3125 70.21875 
L 18.3125 54.6875 
L 36.8125 54.6875 
L 36.8125 47.703125 
L 18.3125 47.703125 
L 18.3125 18.015625 
Q 18.3125 11.328125 20.140625 9.421875 
Q 21.96875 7.515625 27.59375 7.515625 
L 36.8125 7.515625 
L 36.8125 0 
L 27.59375 0 
Q 17.1875 0 13.234375 3.875 
Q 9.28125 7.765625 9.28125 18.015625 
L 9.28125 47.703125 
L 2.6875 47.703125 
L 2.6875 54.6875 
L 9.28125 54.6875 
L 9.28125 70.21875 
z
" id="DejaVuSans-116"/>
       <path d="M 52 44.1875 
Q 55.375 50.25 60.0625 53.125 
Q 64.75 56 71.09375 56 
Q 79.640625 56 84.28125 50.015625 
Q 88.921875 44.046875 88.921875 33.015625 
L 88.921875 0 
L 79.890625 0 
L 79.890625 32.71875 
Q 79.890625 40.578125 77.09375 44.375 
Q 74.3125 48.1875 68.609375 48.1875 
Q 61.625 48.1875 57.5625 43.546875 
Q 53.515625 38.921875 53.515625 30.90625 
L 53.515625 0 
L 44.484375 0 
L 44.484375 32.71875 
Q 44.484375 40.625 41.703125 44.40625 
Q 38.921875 48.1875 33.109375 48.1875 
Q 26.21875 48.1875 22.15625 43.53125 
Q 18.109375 38.875 18.109375 30.90625 
L 18.109375 0 
L 9.078125 0 
L 9.078125 54.6875 
L 18.109375 54.6875 
L 18.109375 46.1875 
Q 21.1875 51.21875 25.484375 53.609375 
Q 29.78125 56 35.6875 56 
Q 41.65625 56 45.828125 52.96875 
Q 50 49.953125 52 44.1875 
z
" id="DejaVuSans-109"/>
       <path d="M 45.40625 46.390625 
L 45.40625 75.984375 
L 54.390625 75.984375 
L 54.390625 0 
L 45.40625 0 
L 45.40625 8.203125 
Q 42.578125 3.328125 38.25 0.953125 
Q 33.9375 -1.421875 27.875 -1.421875 
Q 17.96875 -1.421875 11.734375 6.484375 
Q 5.515625 14.40625 5.515625 27.296875 
Q 5.515625 40.1875 11.734375 48.09375 
Q 17.96875 56 27.875 56 
Q 33.9375 56 38.25 53.625 
Q 42.578125 51.265625 45.40625 46.390625 
z
M 14.796875 27.296875 
Q 14.796875 17.390625 18.875 11.75 
Q 22.953125 6.109375 30.078125 6.109375 
Q 37.203125 6.109375 41.296875 11.75 
Q 45.40625 17.390625 45.40625 27.296875 
Q 45.40625 37.203125 41.296875 42.84375 
Q 37.203125 48.484375 30.078125 48.484375 
Q 22.953125 48.484375 18.875 42.84375 
Q 14.796875 37.203125 14.796875 27.296875 
z
" id="DejaVuSans-100"/>
       <path d="M 54.890625 33.015625 
L 54.890625 0 
L 45.90625 0 
L 45.90625 32.71875 
Q 45.90625 40.484375 42.875 44.328125 
Q 39.84375 48.1875 33.796875 48.1875 
Q 26.515625 48.1875 22.3125 43.546875 
Q 18.109375 38.921875 18.109375 30.90625 
L 18.109375 0 
L 9.078125 0 
L 9.078125 54.6875 
L 18.109375 54.6875 
L 18.109375 46.1875 
Q 21.34375 51.125 25.703125 53.5625 
Q 30.078125 56 35.796875 56 
Q 45.21875 56 50.046875 50.171875 
Q 54.890625 44.34375 54.890625 33.015625 
z
" id="DejaVuSans-110"/>
       <path d="M 2.984375 54.6875 
L 12.5 54.6875 
L 29.59375 8.796875 
L 46.6875 54.6875 
L 56.203125 54.6875 
L 35.6875 0 
L 23.484375 0 
z
" id="DejaVuSans-118"/>
       <path d="M 8.015625 75.875 
L 15.828125 75.875 
Q 23.140625 64.359375 26.78125 53.3125 
Q 30.421875 42.28125 30.421875 31.390625 
Q 30.421875 20.453125 26.78125 9.375 
Q 23.140625 -1.703125 15.828125 -13.1875 
L 8.015625 -13.1875 
Q 14.5 -2 17.703125 9.0625 
Q 20.90625 20.125 20.90625 31.390625 
Q 20.90625 42.671875 17.703125 53.65625 
Q 14.5 64.65625 8.015625 75.875 
z
" id="DejaVuSans-41"/>
      </defs>
      <use xlink:href="#DejaVuSans-70"/>
      <use x="52.019531" xlink:href="#DejaVuSans-117"/>
      <use x="115.398438" xlink:href="#DejaVuSans-122"/>
      <use x="167.888672" xlink:href="#DejaVuSans-122"/>
      <use x="220.378906" xlink:href="#DejaVuSans-101"/>
      <use x="281.902344" xlink:href="#DejaVuSans-114"/>
      <use x="323.015625" xlink:href="#DejaVuSans-32"/>
      <use x="354.802734" xlink:href="#DejaVuSans-40"/>
      <use x="393.816406" xlink:href="#DejaVuSans-104"/>
      <use x="457.195312" xlink:href="#DejaVuSans-105"/>
      <use x="484.978516" xlink:href="#DejaVuSans-103"/>
      <use x="548.455078" xlink:href="#DejaVuSans-104"/>
      <use x="611.833984" xlink:href="#DejaVuSans-101"/>
      <use x="673.357422" xlink:href="#DejaVuSans-115"/>
      <use x="725.457031" xlink:href="#DejaVuSans-116"/>
      <use x="764.666016" xlink:href="#DejaVuSans-32"/>
      <use x="796.453125" xlink:href="#DejaVuSans-109"/>
      <use x="893.865234" xlink:href="#DejaVuSans-101"/>
      <use x="955.388672" xlink:href="#DejaVuSans-100"/>
      <use x="1018.865234" xlink:href="#DejaVuSans-105"/>
      <use x="1046.648438" xlink:href="#DejaVuSans-97"/>
      <use x="1107.927734" xlink:href="#DejaVuSans-110"/>
      <use x="1171.306641" xlink:href="#DejaVuSans-32"/>
      <use x="1203.09375" xlink:href="#DejaVuSans-99"/>
      <use x="1258.074219" xlink:href="#DejaVuSans-111"/>
      <use x="1319.255859" xlink:href="#DejaVuSans-118"/>
      <use x="1378.435547" xlink:href="#DejaVuSans-101"/>
      <use x="1439.958984" xlink:href="#DejaVuSans-114"/>
      <use x="1481.072266" xlink:href="#DejaVuSans-97"/>
      <use x="1542.351562" xlink:href="#DejaVuSans-103"/>
      <use x="1605.828125" xlink:href="#DejaVuSans-101"/>
      <use x="1667.351562" xlink:href="#DejaVuSans-32"/>
      <use x="1699.138672" xlink:href="#DejaVuSans-111"/>
      <use x="1760.320312" xlink:href="#DejaVuSans-110"/>
      <use x="1823.699219" xlink:href="#DejaVuSans-32"/>
      <use x="1855.486328" xlink:href="#DejaVuSans-116"/>
      <use x="1894.695312" xlink:href="#DejaVuSans-104"/>
      <use x="1958.074219" xlink:href="#DejaVuSans-101"/>
      <use x="2019.597656" xlink:href="#DejaVuSans-32"/>
      <use x="2051.384766" xlink:href="#DejaVuSans-108"/>
      <use x="2079.167969" xlink:href="#DejaVuSans-101"/>
      <use x="2140.691406" xlink:href="#DejaVuSans-102"/>
      <use x="2174.146484" xlink:href="#DejaVuSans-116"/>
      <use x="2213.355469" xlink:href="#DejaVuSans-41"/>
     </g>
    </g>
   </g>
   <g id="matplotlib.axis_2">
    <g id="ytick_1">
     <g id="line2d_4">
      <defs>
       <path d="M 0 0 
L -3.5 0 
" id="mf5652066ab" style="stroke:#000000;stroke-width:0.8;"/>
      </defs>
      <g>
       <use style="stroke:#000000;stroke-width:0.8;" x="53.328125" xlink:href="#mf5652066ab" y="267.048895"/>
      </g>
     </g>
     <g id="text_5">
      <!-- 1000 -->
      <g transform="translate(20.878125 270.848113)scale(0.1 -0.1)">
       <defs>
        <path d="M 12.40625 8.296875 
L 28.515625 8.296875 
L 28.515625 63.921875 
L 10.984375 60.40625 
L 10.984375 69.390625 
L 28.421875 72.90625 
L 38.28125 72.90625 
L 38.28125 8.296875 
L 54.390625 8.296875 
L 54.390625 0 
L 12.40625 0 
z
" id="DejaVuSans-49"/>
        <path d="M 31.78125 66.40625 
Q 24.171875 66.40625 20.328125 58.90625 
Q 16.5 51.421875 16.5 36.375 
Q 16.5 21.390625 20.328125 13.890625 
Q 24.171875 6.390625 31.78125 6.390625 
Q 39.453125 6.390625 43.28125 13.890625 
Q 47.125 21.390625 47.125 36.375 
Q 47.125 51.421875 43.28125 58.90625 
Q 39.453125 66.40625 31.78125 66.40625 
z
M 31.78125 74.21875 
Q 44.046875 74.21875 50.515625 64.515625 
Q 56.984375 54.828125 56.984375 36.375 
Q 56.984375 17.96875 50.515625 8.265625 
Q 44.046875 -1.421875 31.78125 -1.421875 
Q 19.53125 -1.421875 13.0625 8.265625 
Q 6.59375 17.96875 6.59375 36.375 
Q 6.59375 54.828125 13.0625 64.515625 
Q 19.53125 74.21875 31.78125 74.21875 
z
" id="DejaVuSans-48"/>
       </defs>
       <use xlink:href="#DejaVuSans-49"/>
       <use x="63.623047" xlink:href="#DejaVuSans-48"/>
       <use x="127.246094" xlink:href="#DejaVuSans-48"/>
       <use x="190.869141" xlink:href="#DejaVuSans-48"/>
      </g>
     </g>
    </g>
    <g id="ytick_2">
     <g id="line2d_5">
      <g>
       <use style="stroke:#000000;stroke-width:0.8;" x="53.328125" xlink:href="#mf5652066ab" y="230.257025"/>
      </g>
     </g>
     <g id="text_6">
      <!-- 1050 -->
      <g transform="translate(20.878125 234.056244)scale(0.1 -0.1)">
       <defs>
        <path d="M 10.796875 72.90625 
L 49.515625 72.90625 
L 49.515625 64.59375 
L 19.828125 64.59375 
L 19.828125 46.734375 
Q 21.96875 47.46875 24.109375 47.828125 
Q 26.265625 48.1875 28.421875 48.1875 
Q 40.625 48.1875 47.75 41.5 
Q 54.890625 34.8125 54.890625 23.390625 
Q 54.890625 11.625 47.5625 5.09375 
Q 40.234375 -1.421875 26.90625 -1.421875 
Q 22.3125 -1.421875 17.546875 -0.640625 
Q 12.796875 0.140625 7.71875 1.703125 
L 7.71875 11.625 
Q 12.109375 9.234375 16.796875 8.0625 
Q 21.484375 6.890625 26.703125 6.890625 
Q 35.15625 6.890625 40.078125 11.328125 
Q 45.015625 15.765625 45.015625 23.390625 
Q 45.015625 31 40.078125 35.4375 
Q 35.15625 39.890625 26.703125 39.890625 
Q 22.75 39.890625 18.8125 39.015625 
Q 14.890625 38.140625 10.796875 36.28125 
z
" id="DejaVuSans-53"/>
       </defs>
       <use xlink:href="#DejaVuSans-49"/>
       <use x="63.623047" xlink:href="#DejaVuSans-48"/>
       <use x="127.246094" xlink:href="#DejaVuSans-53"/>
       <use x="190.869141" xlink:href="#DejaVuSans-48"/>
      </g>
     </g>
    </g>
    <g id="ytick_3">
     <g id="line2d_6">
      <g>
       <use style="stroke:#000000;stroke-width:0.8;" x="53.328125" xlink:href="#mf5652066ab" y="193.465156"/>
      </g>
     </g>
     <g id="text_7">
      <!-- 1100 -->
      <g transform="translate(20.878125 197.264375)scale(0.1 -0.1)">
       <use xlink:href="#DejaVuSans-49"/>
       <use x="63.623047" xlink:href="#DejaVuSans-49"/>
       <use x="127.246094" xlink:href="#DejaVuSans-48"/>
       <use x="190.869141" xlink:href="#DejaVuSans-48"/>
      </g>
     </g>
    </g>
    <g id="ytick_4">
     <g id="line2d_7">
      <g>
       <use style="stroke:#000000;stroke-width:0.8;" x="53.328125" xlink:href="#mf5652066ab" y="156.673287"/>
      </g>
     </g>
     <g id="text_8">
      <!-- 1150 -->
      <g transform="translate(20.878125 160.472506)scale(0.1 -0.1)">
       <use xlink:href="#DejaVuSans-49"/>
       <use x="63.623047" xlink:href="#DejaVuSans-49"/>
       <use x="127.246094" xlink:href="#DejaVuSans-53"/>
       <use x="190.869141" xlink:href="#DejaVuSans-48"/>
      </g>
     </g>
    </g>
    <g id="ytick_5">
     <g id="line2d_8">
      <g>
       <use style="stroke:#000000;stroke-width:0.8;" x="53.328125" xlink:href="#mf5652066ab" y="119.881418"/>
      </g>
     </g>
     <g id="text_9">
      <!-- 1200 -->
      <g transform="translate(20.878125 123.680637)scale(0.1 -0.1)">
       <defs>
        <path d="M 19.1875 8.296875 
L 53.609375 8.296875 
L 53.609375 0 
L 7.328125 0 
L 7.328125 8.296875 
Q 12.9375 14.109375 22.625 23.890625 
Q 32.328125 33.6875 34.8125 36.53125 
Q 39.546875 41.84375 41.421875 45.53125 
Q 43.3125 49.21875 43.3125 52.78125 
Q 43.3125 58.59375 39.234375 62.25 
Q 35.15625 65.921875 28.609375 65.921875 
Q 23.96875 65.921875 18.8125 64.3125 
Q 13.671875 62.703125 7.8125 59.421875 
L 7.8125 69.390625 
Q 13.765625 71.78125 18.9375 73 
Q 24.125 74.21875 28.421875 74.21875 
Q 39.75 74.21875 46.484375 68.546875 
Q 53.21875 62.890625 53.21875 53.421875 
Q 53.21875 48.921875 51.53125 44.890625 
Q 49.859375 40.875 45.40625 35.40625 
Q 44.1875 33.984375 37.640625 27.21875 
Q 31.109375 20.453125 19.1875 8.296875 
z
" id="DejaVuSans-50"/>
       </defs>
       <use xlink:href="#DejaVuSans-49"/>
       <use x="63.623047" xlink:href="#DejaVuSans-50"/>
       <use x="127.246094" xlink:href="#DejaVuSans-48"/>
       <use x="190.869141" xlink:href="#DejaVuSans-48"/>
      </g>
     </g>
    </g>
    <g id="ytick_6">
     <g id="line2d_9">
      <g>
       <use style="stroke:#000000;stroke-width:0.8;" x="53.328125" xlink:href="#mf5652066ab" y="83.089549"/>
      </g>
     </g>
     <g id="text_10">
      <!-- 1250 -->
      <g transform="translate(20.878125 86.888768)scale(0.1 -0.1)">
       <use xlink:href="#DejaVuSans-49"/>
       <use x="63.623047" xlink:href="#DejaVuSans-50"/>
       <use x="127.246094" xlink:href="#DejaVuSans-53"/>
       <use x="190.869141" xlink:href="#DejaVuSans-48"/>
      </g>
     </g>
    </g>
    <g id="ytick_7">
     <g id="line2d_10">
      <g>
       <use style="stroke:#000000;stroke-width:0.8;" x="53.328125" xlink:href="#mf5652066ab" y="46.29768"/>
      </g>
     </g>
     <g id="text_11">
      <!-- 1300 -->
      <g transform="translate(20.878125 50.096898)scale(0.1 -0.1)">
       <defs>
        <path d="M 40.578125 39.3125 
Q 47.65625 37.796875 51.625 33 
Q 55.609375 28.21875 55.609375 21.1875 
Q 55.609375 10.40625 48.1875 4.484375 
Q 40.765625 -1.421875 27.09375 -1.421875 
Q 22.515625 -1.421875 17.65625 -0.515625 
Q 12.796875 0.390625 7.625 2.203125 
L 7.625 11.71875 
Q 11.71875 9.328125 16.59375 8.109375 
Q 21.484375 6.890625 26.8125 6.890625 
Q 36.078125 6.890625 40.9375 10.546875 
Q 45.796875 14.203125 45.796875 21.1875 
Q 45.796875 27.640625 41.28125 31.265625 
Q 36.765625 34.90625 28.71875 34.90625 
L 20.21875 34.90625 
L 20.21875 43.015625 
L 29.109375 43.015625 
Q 36.375 43.015625 40.234375 45.921875 
Q 44.09375 48.828125 44.09375 54.296875 
Q 44.09375 59.90625 40.109375 62.90625 
Q 36.140625 65.921875 28.71875 65.921875 
Q 24.65625 65.921875 20.015625 65.03125 
Q 15.375 64.15625 9.8125 62.3125 
L 9.8125 71.09375 
Q 15.4375 72.65625 20.34375 73.4375 
Q 25.25 74.21875 29.59375 74.21875 
Q 40.828125 74.21875 47.359375 69.109375 
Q 53.90625 64.015625 53.90625 55.328125 
Q 53.90625 49.265625 50.4375 45.09375 
Q 46.96875 40.921875 40.578125 39.3125 
z
" id="DejaVuSans-51"/>
       </defs>
       <use xlink:href="#DejaVuSans-49"/>
       <use x="63.623047" xlink:href="#DejaVuSans-51"/>
       <use x="127.246094" xlink:href="#DejaVuSans-48"/>
       <use x="190.869141" xlink:href="#DejaVuSans-48"/>
      </g>
     </g>
    </g>
    <g id="text_12">
     <!-- Reached region coverage -->
     <g transform="translate(14.798438 219.136625)rotate(-90)scale(0.1 -0.1)">
      <defs>
       <path d="M 44.390625 34.1875 
Q 47.5625 33.109375 50.5625 29.59375 
Q 53.5625 26.078125 56.59375 19.921875 
L 66.609375 0 
L 56 0 
L 46.6875 18.703125 
Q 43.0625 26.03125 39.671875 28.421875 
Q 36.28125 30.8125 30.421875 30.8125 
L 19.671875 30.8125 
L 19.671875 0 
L 9.8125 0 
L 9.8125 72.90625 
L 32.078125 72.90625 
Q 44.578125 72.90625 50.734375 67.671875 
Q 56.890625 62.453125 56.890625 51.90625 
Q 56.890625 45.015625 53.6875 40.46875 
Q 50.484375 35.9375 44.390625 34.1875 
z
M 19.671875 64.796875 
L 19.671875 38.921875 
L 32.078125 38.921875 
Q 39.203125 38.921875 42.84375 42.21875 
Q 46.484375 45.515625 46.484375 51.90625 
Q 46.484375 58.296875 42.84375 61.546875 
Q 39.203125 64.796875 32.078125 64.796875 
z
" id="DejaVuSans-82"/>
      </defs>
      <use xlink:href="#DejaVuSans-82"/>
      <use x="64.982422" xlink:href="#DejaVuSans-101"/>
      <use x="126.505859" xlink:href="#DejaVuSans-97"/>
      <use x="187.785156" xlink:href="#DejaVuSans-99"/>
      <use x="242.765625" xlink:href="#DejaVuSans-104"/>
      <use x="306.144531" xlink:href="#DejaVuSans-101"/>
      <use x="367.667969" xlink:href="#DejaVuSans-100"/>
      <use x="431.144531" xlink:href="#DejaVuSans-32"/>
      <use x="462.931641" xlink:href="#DejaVuSans-114"/>
      <use x="501.794922" xlink:href="#DejaVuSans-101"/>
      <use x="563.318359" xlink:href="#DejaVuSans-103"/>
      <use x="626.794922" xlink:href="#DejaVuSans-105"/>
      <use x="654.578125" xlink:href="#DejaVuSans-111"/>
      <use x="715.759766" xlink:href="#DejaVuSans-110"/>
      <use x="779.138672" xlink:href="#DejaVuSans-32"/>
      <use x="810.925781" xlink:href="#DejaVuSans-99"/>
      <use x="865.90625" xlink:href="#DejaVuSans-111"/>
      <use x="927.087891" xlink:href="#DejaVuSans-118"/>
      <use x="986.267578" xlink:href="#DejaVuSans-101"/>
      <use x="1047.791016" xlink:href="#DejaVuSans-114"/>
      <use x="1088.904297" xlink:href="#DejaVuSans-97"/>
      <use x="1150.183594" xlink:href="#DejaVuSans-103"/>
      <use x="1213.660156" xlink:href="#DejaVuSans-101"/>
     </g>
    </g>
   </g>
   <g id="line2d_11">
    <path clip-path="url(#p9e7894eeef)" d="M 112.848125 196.408506 
L 112.848125 99.277971 
" style="fill:none;stroke:#3f3f3f;stroke-linecap:square;stroke-width:1.5;"/>
   </g>
   <g id="line2d_12">
    <path clip-path="url(#p9e7894eeef)" d="M 112.848125 185.370945 
L 112.848125 147.291361 
" style="fill:none;stroke:#3f3f3f;stroke-linecap:square;stroke-width:4.5;"/>
   </g>
   <g id="line2d_13">
    <path clip-path="url(#p9e7894eeef)" d="M 231.888125 206.710229 
L 231.888125 112.523044 
" style="fill:none;stroke:#3f3f3f;stroke-linecap:square;stroke-width:1.5;"/>
   </g>
   <g id="line2d_14">
    <path clip-path="url(#p9e7894eeef)" d="M 231.888125 204.502717 
L 231.888125 122.08893 
" style="fill:none;stroke:#3f3f3f;stroke-linecap:square;stroke-width:4.5;"/>
   </g>
   <g id="line2d_15">
    <path clip-path="url(#p9e7894eeef)" d="M 350.928125 212.596928 
L 350.928125 206.710229 
" style="fill:none;stroke:#3f3f3f;stroke-linecap:square;stroke-width:1.5;"/>
   </g>
   <g id="line2d_16">
    <path clip-path="url(#p9e7894eeef)" d="M 350.928125 210.389416 
L 350.928125 206.710229 
" style="fill:none;stroke:#3f3f3f;stroke-linecap:square;stroke-width:4.5;"/>
   </g>
   <g id="patch_3">
    <path d="M 53.328125 267.048895 
L 53.328125 46.29768 
" style="fill:none;stroke:#000000;stroke-linecap:square;stroke-linejoin:miter;stroke-width:0.8;"/>
   </g>
   <g id="patch_4">
    <path d="M 112.848125 288.430125 
L 350.928125 288.430125 
" style="fill:none;stroke:#000000;stroke-linecap:square;stroke-linejoin:miter;stroke-width:0.8;"/>
   </g>
   <g id="PathCollection_1">
    <defs>
     <path d="M 0 1.5 
C 0.397805 1.5 0.77937 1.341951 1.06066 1.06066 
C 1.341951 0.77937 1.5 0.397805 1.5 0 
C 1.5 -0.397805 1.341951 -0.77937 1.06066 -1.06066 
C 0.77937 -1.341951 0.397805 -1.5 0 -1.5 
C -0.397805 -1.5 -0.77937 -1.341951 -1.06066 -1.06066 
C -1.341951 -0.77937 -1.5 -0.397805 -1.5 0 
C -1.5 0.397805 -1.341951 0.77937 -1.06066 1.06066 
C -0.77937 1.341951 -0.397805 1.5 0 1.5 
z
" id="m57e19a3b8d" style="stroke:#3f3f3f;"/>
    </defs>
    <g clip-path="url(#p9e7894eeef)">
     <use style="fill:#ffffff;stroke:#3f3f3f;" x="112.848125" xlink:href="#m57e19a3b8d" y="172.493791"/>
    </g>
   </g>
   <g id="PathCollection_2">
    <g clip-path="url(#p9e7894eeef)">
     <use style="fill:#ffffff;stroke:#3f3f3f;" x="231.888125" xlink:href="#m57e19a3b8d" y="203.031042"/>
    </g>
   </g>
   <g id="PathCollection_3">
    <g clip-path="url(#p9e7894eeef)">
     <use style="fill:#ffffff;stroke:#3f3f3f;" x="350.928125" xlink:href="#m57e19a3b8d" y="208.917741"/>
    </g>
   </g>
   <g id="text_13">
    <!-- lcms-2017-03-21 (1h:45m, 4 trials/fuzzer) -->
    <g transform="translate(106.323125 16.318125)scale(0.12 -0.12)">
     <defs>
      <path d="M 4.890625 31.390625 
L 31.203125 31.390625 
L 31.203125 23.390625 
L 4.890625 23.390625 
z
" id="DejaVuSans-45"/>
      <path d="M 8.203125 72.90625 
L 55.078125 72.90625 
L 55.078125 68.703125 
L 28.609375 0 
L 18.3125 0 
L 43.21875 64.59375 
L 8.203125 64.59375 
z
" id="DejaVuSans-55"/>
      <path d="M 11.71875 12.40625 
L 22.015625 12.40625 
L 22.015625 0 
L 11.71875 0 
z
M 11.71875 51.703125 
L 22.015625 51.703125 
L 22.015625 39.3125 
L 11.71875 39.3125 
z
" id="DejaVuSans-58"/>
      <path d="M 37.796875 64.3125 
L 12.890625 25.390625 
L 37.796875 25.390625 
z
M 35.203125 72.90625 
L 47.609375 72.90625 
L 47.609375 25.390625 
L 58.015625 25.390625 
L 58.015625 17.1875 
L 47.609375 17.1875 
L 47.609375 0 
L 37.796875 0 
L 37.796875 17.1875 
L 4.890625 17.1875 
L 4.890625 26.703125 
z
" id="DejaVuSans-52"/>
      <path d="M 11.71875 12.40625 
L 22.015625 12.40625 
L 22.015625 4 
L 14.015625 -11.625 
L 7.71875 -11.625 
L 11.71875 4 
z
" id="DejaVuSans-44"/>
      <path d="M 25.390625 72.90625 
L 33.6875 72.90625 
L 8.296875 -9.28125 
L 0 -9.28125 
z
" id="DejaVuSans-47"/>
     </defs>
     <use xlink:href="#DejaVuSans-108"/>
     <use x="27.783203" xlink:href="#DejaVuSans-99"/>
     <use x="82.763672" xlink:href="#DejaVuSans-109"/>
     <use x="180.175781" xlink:href="#DejaVuSans-115"/>
     <use x="232.275391" xlink:href="#DejaVuSans-45"/>
     <use x="268.359375" xlink:href="#DejaVuSans-50"/>
     <use x="331.982422" xlink:href="#DejaVuSans-48"/>
     <use x="395.605469" xlink:href="#DejaVuSans-49"/>
     <use x="459.228516" xlink:href="#DejaVuSans-55"/>
     <use x="522.851562" xlink:href="#DejaVuSans-45"/>
     <use x="558.935547" xlink:href="#DejaVuSans-48"/>
     <use x="622.558594" xlink:href="#DejaVuSans-51"/>
     <use x="686.181641" xlink:href="#DejaVuSans-45"/>
     <use x="722.265625" xlink:href="#DejaVuSans-50"/>
     <use x="785.888672" xlink:href="#DejaVuSans-49"/>
     <use x="849.511719" xlink:href="#DejaVuSans-32"/>
     <use x="881.298828" xlink:href="#DejaVuSans-40"/>
     <use x="920.3125" xlink:href="#DejaVuSans-49"/>
     <use x="983.935547" xlink:href="#DejaVuSans-104"/>
     <use x="1047.314453" xlink:href="#DejaVuSans-58"/>
     <use x="1081.005859" xlink:href="#DejaVuSans-52"/>
     <use x="1144.628906" xlink:href="#DejaVuSans-53"/>
     <use x="1208.251953" xlink:href="#DejaVuSans-109"/>
     <use x="1305.664062" xlink:href="#DejaVuSans-44"/>
     <use x="1337.451172" xlink:href="#DejaVuSans-32"/>
     <use x="1369.238281" xlink:href="#DejaVuSans-52"/>
     <use x="1432.861328" xlink:href="#DejaVuSans-32"/>
     <use x="1464.648438" xlink:href="#DejaVuSans-116"/>
     <use x="1503.857422" xlink:href="#DejaVuSans-114"/>
     <use x="1544.970703" xlink:href="#DejaVuSans-105"/>
     <use x="1572.753906" xlink:href="#DejaVuSans-97"/>
     <use x="1634.033203" xlink:href="#DejaVuSans-108"/>
     <use x="1661.816406" xlink:href="#DejaVuSans-115"/>
     <use x="1713.916016" xlink:href="#DejaVuSans-47"/>
     <use x="1747.607422" xlink:href="#DejaVuSans-102"/>
     <use x="1782.8125" xlink:href="#DejaVuSans-117"/>
     <use x="1846.191406" xlink:href="#DejaVuSans-122"/>
     <use x="1898.681641" xlink:href="#DejaVuSans-122"/>
     <use x="1951.171875" xlink:href="#DejaVuSans-101"/>
     <use x="2012.695312" xlink:href="#DejaVuSans-114"/>
     <use x="2053.808594" xlink:href="#DejaVuSans-41"/>
    </g>
   </g>
  </g>
 </g>
 <defs>
  <clipPath id="p9e7894eeef">
   <rect height="266.112" width="357.12" x="53.328125" y="22.318125"/>
  </clipPath>
 </defs>
</svg>
