<?xml version="1.0" encoding="utf-8" standalone="no"?>
<!DOCTYPE svg PUBLIC "-//W3C//DTD SVG 1.1//EN"
  "http://www.w3.org/Graphics/SVG/1.1/DTD/svg11.dtd">
<!-- Created with matplotlib (https://matplotlib.org/) -->
<svg height="375.392334pt" version="1.1" viewBox="0 0 424.010625 375.392334" width="424.010625pt" xmlns="http://www.w3.org/2000/svg" xmlns:xlink="http://www.w3.org/1999/xlink">
 <metadata>
  <rdf:RDF xmlns:cc="http://creativecommons.org/ns#" xmlns:dc="http://purl.org/dc/elements/1.1/" xmlns:rdf="http://www.w3.org/1999/02/22-rdf-syntax-ns#">
   <cc:Work>
    <dc:type rdf:resource="http://purl.org/dc/dcmitype/StillImage"/>
    <dc:date>2020-11-17T21:16:52.589097</dc:date>
    <dc:format>image/svg+xml</dc:format>
    <dc:creator>
     <cc:Agent>
      <dc:title>Matplotlib v3.3.2, https://matplotlib.org/</dc:title>
     </cc:Agent>
    </dc:creator>
   </cc:Work>
  </rdf:RDF>
 </metadata>
 <defs>
  <style type="text/css">*{stroke-linecap:butt;stroke-linejoin:round;}</style>
 </defs>
 <g id="figure_1">
  <g id="patch_1">
   <path d="M 0 375.392334 
L 424.010625 375.392334 
L 424.010625 0 
L 0 0 
z
" style="fill:#ffffff;"/>
  </g>
  <g id="axes_1">
   <g id="patch_2">
    <path d="M 59.690625 288.430125 
L 416.810625 288.430125 
L 416.810625 22.318125 
L 59.690625 22.318125 
z
" style="fill:#ffffff;"/>
   </g>
   <g id="PolyCollection_1">
    <defs>
     <path d="M 122.439288 -100.609166 
L 115.981962 -100.609166 
L 115.408487 -103.037136 
L 114.756462 -105.465106 
L 114.019747 -107.893076 
L 113.192574 -110.321046 
L 112.269741 -112.749016 
L 111.246812 -115.176987 
L 110.120324 -117.604957 
L 108.888009 -120.032927 
L 107.549002 -122.460897 
L 106.10405 -124.888867 
L 104.555701 -127.316837 
L 102.908464 -129.744807 
L 101.168941 -132.172778 
L 99.345918 -134.600748 
L 97.450407 -137.028718 
L 95.495629 -139.456688 
L 93.496946 -141.884658 
L 91.471722 -144.312628 
L 89.439124 -146.740598 
L 87.419861 -149.168568 
L 85.435854 -151.596539 
L 83.509863 -154.024509 
L 81.66506 -156.452479 
L 79.924565 -158.880449 
L 78.31096 -161.308419 
L 76.84579 -163.736389 
L 75.549067 -166.164359 
L 74.438792 -168.59233 
L 73.53051 -171.0203 
L 72.836914 -173.44827 
L 72.367507 -175.87624 
L 72.128341 -178.30421 
L 72.121828 -180.73218 
L 72.346653 -183.16015 
L 72.797767 -185.588121 
L 73.466476 -188.016091 
L 74.340629 -190.444061 
L 75.404874 -192.872031 
L 76.641008 -195.300001 
L 78.028386 -197.727971 
L 79.544384 -200.155941 
L 81.164905 -202.583911 
L 82.864911 -205.011882 
L 84.618964 -207.439852 
L 86.401766 -209.867822 
L 88.188676 -212.295792 
L 89.9562 -214.723762 
L 91.682434 -217.151732 
L 93.347458 -219.579702 
L 94.933665 -222.007673 
L 96.426027 -224.435643 
L 97.812282 -226.863613 
L 99.083065 -229.291583 
L 100.231947 -231.719553 
L 101.255424 -234.147523 
L 102.152826 -236.575493 
L 102.926172 -239.003463 
L 103.579969 -241.431434 
L 104.120969 -243.859404 
L 104.557877 -246.287374 
L 104.90104 -248.715344 
L 105.162103 -251.143314 
L 105.353667 -253.571284 
L 105.488926 -255.999254 
L 105.58132 -258.427225 
L 105.6442 -260.855195 
L 105.690506 -263.283165 
L 105.732484 -265.711135 
L 105.78142 -268.139105 
L 105.84743 -270.567075 
L 105.939279 -272.995045 
L 106.06425 -275.423016 
L 106.228058 -277.850986 
L 106.434814 -280.278956 
L 106.687025 -282.706926 
L 106.985648 -285.134896 
L 107.330173 -287.562866 
L 107.718749 -289.990836 
L 108.148328 -292.418806 
L 108.614845 -294.846777 
L 109.113399 -297.274747 
L 109.638458 -299.702717 
L 110.184052 -302.130687 
L 110.743975 -304.558657 
L 111.311966 -306.986627 
L 111.881884 -309.414597 
L 112.447861 -311.842568 
L 113.004428 -314.270538 
L 113.546626 -316.698508 
L 114.070085 -319.126478 
L 114.571077 -321.554448 
L 115.046552 -323.982418 
L 115.49414 -326.410388 
L 115.912142 -328.838358 
L 116.2995 -331.266329 
L 116.655749 -333.694299 
L 116.980961 -336.122269 
L 117.275684 -338.550239 
L 117.540866 -340.978209 
L 120.880384 -340.978209 
L 120.880384 -340.978209 
L 121.145566 -338.550239 
L 121.440289 -336.122269 
L 121.765501 -333.694299 
L 122.12175 -331.266329 
L 122.509108 -328.838358 
L 122.92711 -326.410388 
L 123.374698 -323.982418 
L 123.850173 -321.554448 
L 124.351165 -319.126478 
L 124.874624 -316.698508 
L 125.416822 -314.270538 
L 125.973389 -311.842568 
L 126.539366 -309.414597 
L 127.109284 -306.986627 
L 127.677275 -304.558657 
L 128.237198 -302.130687 
L 128.782792 -299.702717 
L 129.307851 -297.274747 
L 129.806405 -294.846777 
L 130.272922 -292.418806 
L 130.702501 -289.990836 
L 131.091077 -287.562866 
L 131.435602 -285.134896 
L 131.734225 -282.706926 
L 131.986436 -280.278956 
L 132.193192 -277.850986 
L 132.357 -275.423016 
L 132.481971 -272.995045 
L 132.57382 -270.567075 
L 132.63983 -268.139105 
L 132.688766 -265.711135 
L 132.730744 -263.283165 
L 132.77705 -260.855195 
L 132.83993 -258.427225 
L 132.932324 -255.999254 
L 133.067583 -253.571284 
L 133.259147 -251.143314 
L 133.52021 -248.715344 
L 133.863373 -246.287374 
L 134.300281 -243.859404 
L 134.841281 -241.431434 
L 135.495078 -239.003463 
L 136.268424 -236.575493 
L 137.165826 -234.147523 
L 138.189303 -231.719553 
L 139.338185 -229.291583 
L 140.608968 -226.863613 
L 141.995223 -224.435643 
L 143.487585 -222.007673 
L 145.073792 -219.579702 
L 146.738816 -217.151732 
L 148.46505 -214.723762 
L 150.232574 -212.295792 
L 152.019484 -209.867822 
L 153.802286 -207.439852 
L 155.556339 -205.011882 
L 157.256345 -202.583911 
L 158.876866 -200.155941 
L 160.392864 -197.727971 
L 161.780242 -195.300001 
L 163.016376 -192.872031 
L 164.080621 -190.444061 
L 164.954774 -188.016091 
L 165.623483 -185.588121 
L 166.074597 -183.16015 
L 166.299422 -180.73218 
L 166.292909 -178.30421 
L 166.053743 -175.87624 
L 165.584336 -173.44827 
L 164.89074 -171.0203 
L 163.982458 -168.59233 
L 162.872183 -166.164359 
L 161.57546 -163.736389 
L 160.11029 -161.308419 
L 158.496685 -158.880449 
L 156.75619 -156.452479 
L 154.911387 -154.024509 
L 152.985396 -151.596539 
L 151.001389 -149.168568 
L 148.982126 -146.740598 
L 146.949528 -144.312628 
L 144.924304 -141.884658 
L 142.925621 -139.456688 
L 140.970843 -137.028718 
L 139.075332 -134.600748 
L 137.252309 -132.172778 
L 135.512786 -129.744807 
L 133.865549 -127.316837 
L 132.3172 -124.888867 
L 130.872248 -122.460897 
L 129.533241 -120.032927 
L 128.300926 -117.604957 
L 127.174438 -115.176987 
L 126.151509 -112.749016 
L 125.228676 -110.321046 
L 124.401503 -107.893076 
L 123.664788 -105.465106 
L 123.012763 -103.037136 
L 122.439288 -100.609166 
z
" id="mc55f51faf0" style="stroke:#3f3f3f;stroke-width:1.5;"/>
    </defs>
    <g clip-path="url(#paf89524aaf)">
     <use style="fill:#c03d3e;stroke:#3f3f3f;stroke-width:1.5;" x="0" xlink:href="#mc55f51faf0" y="375.392334"/>
    </g>
   </g>
   <g id="PolyCollection_2">
    <defs>
     <path d="M 241.925697 -99.888953 
L 234.575553 -99.888953 
L 234.023627 -102.245215 
L 233.41077 -104.601476 
L 232.734078 -106.957738 
L 231.991157 -109.314 
L 231.180239 -111.670262 
L 230.300294 -114.026523 
L 229.351149 -116.382785 
L 228.333592 -118.739047 
L 227.249472 -121.095309 
L 226.101775 -123.45157 
L 224.894696 -125.807832 
L 223.633672 -128.164094 
L 222.325403 -130.520356 
L 220.977831 -132.876617 
L 219.600099 -135.232879 
L 218.202468 -137.589141 
L 216.796201 -139.945403 
L 215.393418 -142.301664 
L 214.00691 -144.657926 
L 212.649934 -147.014188 
L 211.335974 -149.37045 
L 210.078482 -151.726711 
L 208.89061 -154.082973 
L 207.784925 -156.439235 
L 206.773133 -158.795497 
L 205.865805 -161.151758 
L 205.072119 -163.50802 
L 204.399627 -165.864282 
L 203.854053 -168.220544 
L 203.43913 -170.576805 
L 203.15648 -172.933067 
L 203.005541 -175.289329 
L 202.983551 -177.645591 
L 203.085584 -180.001852 
L 203.304637 -182.358114 
L 203.631774 -184.714376 
L 204.05632 -187.070638 
L 204.566097 -189.426899 
L 205.1477 -191.783161 
L 205.786808 -194.139423 
L 206.468515 -196.495685 
L 207.177673 -198.851946 
L 207.899252 -201.208208 
L 208.618678 -203.56447 
L 209.322175 -205.920732 
L 209.99707 -208.276993 
L 210.632077 -210.633255 
L 211.217539 -212.989517 
L 211.745621 -215.345779 
L 212.210467 -217.70204 
L 212.608286 -220.058302 
L 212.937403 -222.414564 
L 213.198242 -224.770826 
L 213.393259 -227.127087 
L 213.526828 -229.483349 
L 213.605078 -231.839611 
L 213.635684 -234.195873 
L 213.627632 -236.552134 
L 213.590951 -238.908396 
L 213.536422 -241.264658 
L 213.475283 -243.62092 
L 213.418924 -245.977181 
L 213.37859 -248.333443 
L 213.365094 -250.689705 
L 213.388553 -253.045967 
L 213.458149 -255.402228 
L 213.581923 -257.75849 
L 213.766602 -260.114752 
L 214.017474 -262.471014 
L 214.338296 -264.827275 
L 214.731249 -267.183537 
L 215.19694 -269.539799 
L 215.734434 -271.896061 
L 216.341332 -274.252322 
L 217.013883 -276.608584 
L 217.747117 -278.964846 
L 218.535009 -281.321108 
L 219.370663 -283.677369 
L 220.246498 -286.033631 
L 221.154448 -288.389893 
L 222.086162 -290.746155 
L 223.033193 -293.102416 
L 223.987182 -295.458678 
L 224.940026 -297.81494 
L 225.884023 -300.171202 
L 226.812006 -302.527463 
L 227.717445 -304.883725 
L 228.594528 -307.239987 
L 229.438222 -309.596249 
L 230.244304 -311.95251 
L 231.009372 -314.308772 
L 231.730844 -316.665034 
L 232.406922 -319.021296 
L 233.036558 -321.377557 
L 233.619394 -323.733819 
L 234.155701 -326.090081 
L 234.646304 -328.446343 
L 235.09251 -330.802604 
L 235.496026 -333.158866 
L 241.005224 -333.158866 
L 241.005224 -333.158866 
L 241.40874 -330.802604 
L 241.854946 -328.446343 
L 242.345549 -326.090081 
L 242.881856 -323.733819 
L 243.464692 -321.377557 
L 244.094328 -319.021296 
L 244.770406 -316.665034 
L 245.491878 -314.308772 
L 246.256946 -311.95251 
L 247.063028 -309.596249 
L 247.906722 -307.239987 
L 248.783805 -304.883725 
L 249.689244 -302.527463 
L 250.617227 -300.171202 
L 251.561224 -297.81494 
L 252.514068 -295.458678 
L 253.468057 -293.102416 
L 254.415088 -290.746155 
L 255.346802 -288.389893 
L 256.254752 -286.033631 
L 257.130587 -283.677369 
L 257.966241 -281.321108 
L 258.754133 -278.964846 
L 259.487367 -276.608584 
L 260.159918 -274.252322 
L 260.766816 -271.896061 
L 261.30431 -269.539799 
L 261.770001 -267.183537 
L 262.162954 -264.827275 
L 262.483776 -262.471014 
L 262.734648 -260.114752 
L 262.919327 -257.75849 
L 263.043101 -255.402228 
L 263.112697 -253.045967 
L 263.136156 -250.689705 
L 263.12266 -248.333443 
L 263.082326 -245.977181 
L 263.025967 -243.62092 
L 262.964828 -241.264658 
L 262.910299 -238.908396 
L 262.873618 -236.552134 
L 262.865566 -234.195873 
L 262.896172 -231.839611 
L 262.974422 -229.483349 
L 263.107991 -227.127087 
L 263.303008 -224.770826 
L 263.563847 -222.414564 
L 263.892964 -220.058302 
L 264.290783 -217.70204 
L 264.755629 -215.345779 
L 265.283711 -212.989517 
L 265.869173 -210.633255 
L 266.50418 -208.276993 
L 267.179075 -205.920732 
L 267.882572 -203.56447 
L 268.601998 -201.208208 
L 269.323577 -198.851946 
L 270.032735 -196.495685 
L 270.714442 -194.139423 
L 271.35355 -191.783161 
L 271.935153 -189.426899 
L 272.44493 -187.070638 
L 272.869476 -184.714376 
L 273.196613 -182.358114 
L 273.415666 -180.001852 
L 273.517699 -177.645591 
L 273.495709 -175.289329 
L 273.34477 -172.933067 
L 273.06212 -170.576805 
L 272.647197 -168.220544 
L 272.101623 -165.864282 
L 271.429131 -163.50802 
L 270.635445 -161.151758 
L 269.728117 -158.795497 
L 268.716325 -156.439235 
L 267.61064 -154.082973 
L 266.422768 -151.726711 
L 265.165276 -149.37045 
L 263.851316 -147.014188 
L 262.49434 -144.657926 
L 261.107832 -142.301664 
L 259.705049 -139.945403 
L 258.298782 -137.589141 
L 256.901151 -135.232879 
L 255.523419 -132.876617 
L 254.175847 -130.520356 
L 252.867578 -128.164094 
L 251.606554 -125.807832 
L 250.399475 -123.45157 
L 249.251778 -121.095309 
L 248.167658 -118.739047 
L 247.150101 -116.382785 
L 246.200956 -114.026523 
L 245.321011 -111.670262 
L 244.510093 -109.314 
L 243.767172 -106.957738 
L 243.09048 -104.601476 
L 242.477623 -102.245215 
L 241.925697 -99.888953 
z
" id="mc2113af184" style="stroke:#3f3f3f;stroke-width:1.5;"/>
    </defs>
    <g clip-path="url(#paf89524aaf)">
     <use style="fill:#9fd495;stroke:#3f3f3f;stroke-width:1.5;" x="0" xlink:href="#mc2113af184" y="375.392334"/>
    </g>
   </g>
   <g id="PolyCollection_3">
    <defs>
     <path d="M 362.190479 -99.058209 
L 352.390771 -99.058209 
L 351.592305 -101.474383 
L 350.69809 -103.890556 
L 349.703093 -106.30673 
L 348.603187 -108.722903 
L 347.395381 -111.139077 
L 346.078049 -113.55525 
L 344.651153 -115.971424 
L 343.116453 -118.387597 
L 341.4777 -120.803771 
L 339.74079 -123.219944 
L 337.913884 -125.636118 
L 336.007473 -128.052291 
L 334.034398 -130.468465 
L 332.009794 -132.884638 
L 329.950976 -135.300812 
L 327.877255 -137.716986 
L 325.809679 -140.133159 
L 323.770711 -142.549333 
L 321.78385 -144.965506 
L 319.873184 -147.38168 
L 318.062913 -149.797853 
L 316.376836 -152.214027 
L 314.837818 -154.6302 
L 313.467262 -157.046374 
L 312.284592 -159.462547 
L 311.306771 -161.878721 
L 310.547866 -164.294894 
L 310.018676 -166.711068 
L 309.726441 -169.127241 
L 309.674625 -171.543415 
L 309.86281 -173.959588 
L 310.286673 -176.375762 
L 310.938073 -178.791935 
L 311.805226 -181.208109 
L 312.87298 -183.624282 
L 314.123162 -186.040456 
L 315.535002 -188.456629 
L 317.085613 -190.872803 
L 318.750506 -193.288977 
L 320.504143 -195.70515 
L 322.320485 -198.121324 
L 324.173543 -200.537497 
L 326.037908 -202.953671 
L 327.889238 -205.369844 
L 329.704705 -207.786018 
L 331.463391 -210.202191 
L 333.146609 -212.618365 
L 334.738165 -215.034538 
L 336.224551 -217.450712 
L 337.595066 -219.866885 
L 338.841863 -222.283059 
L 339.959943 -224.699232 
L 340.947078 -227.115406 
L 341.803687 -229.531579 
L 342.532657 -231.947753 
L 343.139135 -234.363926 
L 343.63027 -236.7801 
L 344.014948 -239.196273 
L 344.303495 -241.612447 
L 344.507369 -244.02862 
L 344.638861 -246.444794 
L 344.710776 -248.860968 
L 344.736142 -251.277141 
L 344.727917 -253.693315 
L 344.698724 -256.109488 
L 344.660598 -258.525662 
L 344.624771 -260.941835 
L 344.601476 -263.358009 
L 344.599792 -265.774182 
L 344.627514 -268.190356 
L 344.691065 -270.606529 
L 344.795444 -273.022703 
L 344.944206 -275.438876 
L 345.139481 -277.85505 
L 345.382018 -280.271223 
L 345.671272 -282.687397 
L 346.005504 -285.10357 
L 346.381909 -287.519744 
L 346.796766 -289.935917 
L 347.245594 -292.352091 
L 347.723318 -294.768264 
L 348.224441 -297.184438 
L 348.743213 -299.600611 
L 349.273785 -302.016785 
L 349.810369 -304.432959 
L 350.347365 -306.849132 
L 350.879486 -309.265306 
L 351.401855 -311.681479 
L 351.910086 -314.097653 
L 352.40034 -316.513826 
L 352.869365 -318.93 
L 353.314516 -321.346173 
L 353.733751 -323.762347 
L 354.125617 -326.17852 
L 354.489223 -328.594694 
L 354.824192 -331.010867 
L 355.130617 -333.427041 
L 355.409002 -335.843214 
L 355.660201 -338.259388 
L 358.921049 -338.259388 
L 358.921049 -338.259388 
L 359.172248 -335.843214 
L 359.450633 -333.427041 
L 359.757058 -331.010867 
L 360.092027 -328.594694 
L 360.455633 -326.17852 
L 360.847499 -323.762347 
L 361.266734 -321.346173 
L 361.711885 -318.93 
L 362.18091 -316.513826 
L 362.671164 -314.097653 
L 363.179395 -311.681479 
L 363.701764 -309.265306 
L 364.233885 -306.849132 
L 364.770881 -304.432959 
L 365.307465 -302.016785 
L 365.838037 -299.600611 
L 366.356809 -297.184438 
L 366.857932 -294.768264 
L 367.335656 -292.352091 
L 367.784484 -289.935917 
L 368.199341 -287.519744 
L 368.575746 -285.10357 
L 368.909978 -282.687397 
L 369.199232 -280.271223 
L 369.441769 -277.85505 
L 369.637044 -275.438876 
L 369.785806 -273.022703 
L 369.890185 -270.606529 
L 369.953736 -268.190356 
L 369.981458 -265.774182 
L 369.979774 -263.358009 
L 369.956479 -260.941835 
L 369.920652 -258.525662 
L 369.882526 -256.109488 
L 369.853333 -253.693315 
L 369.845108 -251.277141 
L 369.870474 -248.860968 
L 369.942389 -246.444794 
L 370.073881 -244.02862 
L 370.277755 -241.612447 
L 370.566302 -239.196273 
L 370.95098 -236.7801 
L 371.442115 -234.363926 
L 372.048593 -231.947753 
L 372.777563 -229.531579 
L 373.634172 -227.115406 
L 374.621307 -224.699232 
L 375.739387 -222.283059 
L 376.986184 -219.866885 
L 378.356699 -217.450712 
L 379.843085 -215.034538 
L 381.434641 -212.618365 
L 383.117859 -210.202191 
L 384.876545 -207.786018 
L 386.692012 -205.369844 
L 388.543342 -202.953671 
L 390.407707 -200.537497 
L 392.260765 -198.121324 
L 394.077107 -195.70515 
L 395.830744 -193.288977 
L 397.495637 -190.872803 
L 399.046248 -188.456629 
L 400.458088 -186.040456 
L 401.70827 -183.624282 
L 402.776024 -181.208109 
L 403.643177 -178.791935 
L 404.294577 -176.375762 
L 404.71844 -173.959588 
L 404.906625 -171.543415 
L 404.854809 -169.127241 
L 404.562574 -166.711068 
L 404.033384 -164.294894 
L 403.274479 -161.878721 
L 402.296658 -159.462547 
L 401.113988 -157.046374 
L 399.743432 -154.6302 
L 398.204414 -152.214027 
L 396.518337 -149.797853 
L 394.708066 -147.38168 
L 392.7974 -144.965506 
L 390.810539 -142.549333 
L 388.771571 -140.133159 
L 386.703995 -137.716986 
L 384.630274 -135.300812 
L 382.571456 -132.884638 
L 380.546852 -130.468465 
L 378.573777 -128.052291 
L 376.667366 -125.636118 
L 374.84046 -123.219944 
L 373.10355 -120.803771 
L 371.464797 -118.387597 
L 369.930097 -115.971424 
L 368.503201 -113.55525 
L 367.185869 -111.139077 
L 365.978063 -108.722903 
L 364.878157 -106.30673 
L 363.88316 -103.890556 
L 362.988945 -101.474383 
L 362.190479 -99.058209 
z
" id="m3ce24ce869" style="stroke:#3f3f3f;stroke-width:1.5;"/>
    </defs>
    <g clip-path="url(#paf89524aaf)">
     <use style="fill:#3274a1;stroke:#3f3f3f;stroke-width:1.5;" x="0" xlink:href="#m3ce24ce869" y="375.392334"/>
    </g>
   </g>
   <g id="matplotlib.axis_1">
    <g id="xtick_1">
     <g id="line2d_1">
      <defs>
       <path d="M 0 0 
L 0 3.5 
" id="m20e96e3f02" style="stroke:#000000;stroke-width:0.8;"/>
      </defs>
      <g>
       <use style="stroke:#000000;stroke-width:0.8;" x="119.210625" xlink:href="#m20e96e3f02" y="288.430125"/>
      </g>
     </g>
     <g id="text_1">
      <!-- aflplusplus_hier_x -->
      <g transform="translate(40.893212 346.546502)rotate(-30)scale(0.1 -0.1)">
       <defs>
        <path d="M 34.28125 27.484375 
Q 23.390625 27.484375 19.1875 25 
Q 14.984375 22.515625 14.984375 16.5 
Q 14.984375 11.71875 18.140625 8.90625 
Q 21.296875 6.109375 26.703125 6.109375 
Q 34.1875 6.109375 38.703125 11.40625 
Q 43.21875 16.703125 43.21875 25.484375 
L 43.21875 27.484375 
z
M 52.203125 31.203125 
L 52.203125 0 
L 43.21875 0 
L 43.21875 8.296875 
Q 40.140625 3.328125 35.546875 0.953125 
Q 30.953125 -1.421875 24.3125 -1.421875 
Q 15.921875 -1.421875 10.953125 3.296875 
Q 6 8.015625 6 15.921875 
Q 6 25.140625 12.171875 29.828125 
Q 18.359375 34.515625 30.609375 34.515625 
L 43.21875 34.515625 
L 43.21875 35.40625 
Q 43.21875 41.609375 39.140625 45 
Q 35.0625 48.390625 27.6875 48.390625 
Q 23 48.390625 18.546875 47.265625 
Q 14.109375 46.140625 10.015625 43.890625 
L 10.015625 52.203125 
Q 14.9375 54.109375 19.578125 55.046875 
Q 24.21875 56 28.609375 56 
Q 40.484375 56 46.34375 49.84375 
Q 52.203125 43.703125 52.203125 31.203125 
z
" id="DejaVuSans-97"/>
        <path d="M 37.109375 75.984375 
L 37.109375 68.5 
L 28.515625 68.5 
Q 23.6875 68.5 21.796875 66.546875 
Q 19.921875 64.59375 19.921875 59.515625 
L 19.921875 54.6875 
L 34.71875 54.6875 
L 34.71875 47.703125 
L 19.921875 47.703125 
L 19.921875 0 
L 10.890625 0 
L 10.890625 47.703125 
L 2.296875 47.703125 
L 2.296875 54.6875 
L 10.890625 54.6875 
L 10.890625 58.5 
Q 10.890625 67.625 15.140625 71.796875 
Q 19.390625 75.984375 28.609375 75.984375 
z
" id="DejaVuSans-102"/>
        <path d="M 9.421875 75.984375 
L 18.40625 75.984375 
L 18.40625 0 
L 9.421875 0 
z
" id="DejaVuSans-108"/>
        <path d="M 18.109375 8.203125 
L 18.109375 -20.796875 
L 9.078125 -20.796875 
L 9.078125 54.6875 
L 18.109375 54.6875 
L 18.109375 46.390625 
Q 20.953125 51.265625 25.265625 53.625 
Q 29.59375 56 35.59375 56 
Q 45.5625 56 51.78125 48.09375 
Q 58.015625 40.1875 58.015625 27.296875 
Q 58.015625 14.40625 51.78125 6.484375 
Q 45.5625 -1.421875 35.59375 -1.421875 
Q 29.59375 -1.421875 25.265625 0.953125 
Q 20.953125 3.328125 18.109375 8.203125 
z
M 48.6875 27.296875 
Q 48.6875 37.203125 44.609375 42.84375 
Q 40.53125 48.484375 33.40625 48.484375 
Q 26.265625 48.484375 22.1875 42.84375 
Q 18.109375 37.203125 18.109375 27.296875 
Q 18.109375 17.390625 22.1875 11.75 
Q 26.265625 6.109375 33.40625 6.109375 
Q 40.53125 6.109375 44.609375 11.75 
Q 48.6875 17.390625 48.6875 27.296875 
z
" id="DejaVuSans-112"/>
        <path d="M 8.5 21.578125 
L 8.5 54.6875 
L 17.484375 54.6875 
L 17.484375 21.921875 
Q 17.484375 14.15625 20.5 10.265625 
Q 23.53125 6.390625 29.59375 6.390625 
Q 36.859375 6.390625 41.078125 11.03125 
Q 45.3125 15.671875 45.3125 23.6875 
L 45.3125 54.6875 
L 54.296875 54.6875 
L 54.296875 0 
L 45.3125 0 
L 45.3125 8.40625 
Q 42.046875 3.421875 37.71875 1 
Q 33.40625 -1.421875 27.6875 -1.421875 
Q 18.265625 -1.421875 13.375 4.4375 
Q 8.5 10.296875 8.5 21.578125 
z
M 31.109375 56 
z
" id="DejaVuSans-117"/>
        <path d="M 44.28125 53.078125 
L 44.28125 44.578125 
Q 40.484375 46.53125 36.375 47.5 
Q 32.28125 48.484375 27.875 48.484375 
Q 21.1875 48.484375 17.84375 46.4375 
Q 14.5 44.390625 14.5 40.28125 
Q 14.5 37.15625 16.890625 35.375 
Q 19.28125 33.59375 26.515625 31.984375 
L 29.59375 31.296875 
Q 39.15625 29.25 43.1875 25.515625 
Q 47.21875 21.78125 47.21875 15.09375 
Q 47.21875 7.46875 41.1875 3.015625 
Q 35.15625 -1.421875 24.609375 -1.421875 
Q 20.21875 -1.421875 15.453125 -0.5625 
Q 10.6875 0.296875 5.421875 2 
L 5.421875 11.28125 
Q 10.40625 8.6875 15.234375 7.390625 
Q 20.0625 6.109375 24.8125 6.109375 
Q 31.15625 6.109375 34.5625 8.28125 
Q 37.984375 10.453125 37.984375 14.40625 
Q 37.984375 18.0625 35.515625 20.015625 
Q 33.0625 21.96875 24.703125 23.78125 
L 21.578125 24.515625 
Q 13.234375 26.265625 9.515625 29.90625 
Q 5.8125 33.546875 5.8125 39.890625 
Q 5.8125 47.609375 11.28125 51.796875 
Q 16.75 56 26.8125 56 
Q 31.78125 56 36.171875 55.265625 
Q 40.578125 54.546875 44.28125 53.078125 
z
" id="DejaVuSans-115"/>
        <path d="M 50.984375 -16.609375 
L 50.984375 -23.578125 
L -0.984375 -23.578125 
L -0.984375 -16.609375 
z
" id="DejaVuSans-95"/>
        <path d="M 54.890625 33.015625 
L 54.890625 0 
L 45.90625 0 
L 45.90625 32.71875 
Q 45.90625 40.484375 42.875 44.328125 
Q 39.84375 48.1875 33.796875 48.1875 
Q 26.515625 48.1875 22.3125 43.546875 
Q 18.109375 38.921875 18.109375 30.90625 
L 18.109375 0 
L 9.078125 0 
L 9.078125 75.984375 
L 18.109375 75.984375 
L 18.109375 46.1875 
Q 21.34375 51.125 25.703125 53.5625 
Q 30.078125 56 35.796875 56 
Q 45.21875 56 50.046875 50.171875 
Q 54.890625 44.34375 54.890625 33.015625 
z
" id="DejaVuSans-104"/>
        <path d="M 9.421875 54.6875 
L 18.40625 54.6875 
L 18.40625 0 
L 9.421875 0 
z
M 9.421875 75.984375 
L 18.40625 75.984375 
L 18.40625 64.59375 
L 9.421875 64.59375 
z
" id="DejaVuSans-105"/>
        <path d="M 56.203125 29.59375 
L 56.203125 25.203125 
L 14.890625 25.203125 
Q 15.484375 15.921875 20.484375 11.0625 
Q 25.484375 6.203125 34.421875 6.203125 
Q 39.59375 6.203125 44.453125 7.46875 
Q 49.3125 8.734375 54.109375 11.28125 
L 54.109375 2.78125 
Q 49.265625 0.734375 44.1875 -0.34375 
Q 39.109375 -1.421875 33.890625 -1.421875 
Q 20.796875 -1.421875 13.15625 6.1875 
Q 5.515625 13.8125 5.515625 26.8125 
Q 5.515625 40.234375 12.765625 48.109375 
Q 20.015625 56 32.328125 56 
Q 43.359375 56 49.78125 48.890625 
Q 56.203125 41.796875 56.203125 29.59375 
z
M 47.21875 32.234375 
Q 47.125 39.59375 43.09375 43.984375 
Q 39.0625 48.390625 32.421875 48.390625 
Q 24.90625 48.390625 20.390625 44.140625 
Q 15.875 39.890625 15.1875 32.171875 
z
" id="DejaVuSans-101"/>
        <path d="M 41.109375 46.296875 
Q 39.59375 47.171875 37.8125 47.578125 
Q 36.03125 48 33.890625 48 
Q 26.265625 48 22.1875 43.046875 
Q 18.109375 38.09375 18.109375 28.8125 
L 18.109375 0 
L 9.078125 0 
L 9.078125 54.6875 
L 18.109375 54.6875 
L 18.109375 46.1875 
Q 20.953125 51.171875 25.484375 53.578125 
Q 30.03125 56 36.53125 56 
Q 37.453125 56 38.578125 55.875 
Q 39.703125 55.765625 41.0625 55.515625 
z
" id="DejaVuSans-114"/>
        <path d="M 54.890625 54.6875 
L 35.109375 28.078125 
L 55.90625 0 
L 45.3125 0 
L 29.390625 21.484375 
L 13.484375 0 
L 2.875 0 
L 24.125 28.609375 
L 4.6875 54.6875 
L 15.28125 54.6875 
L 29.78125 35.203125 
L 44.28125 54.6875 
z
" id="DejaVuSans-120"/>
       </defs>
       <use xlink:href="#DejaVuSans-97"/>
       <use x="61.279297" xlink:href="#DejaVuSans-102"/>
       <use x="96.484375" xlink:href="#DejaVuSans-108"/>
       <use x="124.267578" xlink:href="#DejaVuSans-112"/>
       <use x="187.744141" xlink:href="#DejaVuSans-108"/>
       <use x="215.527344" xlink:href="#DejaVuSans-117"/>
       <use x="278.90625" xlink:href="#DejaVuSans-115"/>
       <use x="331.005859" xlink:href="#DejaVuSans-112"/>
       <use x="394.482422" xlink:href="#DejaVuSans-108"/>
       <use x="422.265625" xlink:href="#DejaVuSans-117"/>
       <use x="485.644531" xlink:href="#DejaVuSans-115"/>
       <use x="537.744141" xlink:href="#DejaVuSans-95"/>
       <use x="587.744141" xlink:href="#DejaVuSans-104"/>
       <use x="651.123047" xlink:href="#DejaVuSans-105"/>
       <use x="678.90625" xlink:href="#DejaVuSans-101"/>
       <use x="740.429688" xlink:href="#DejaVuSans-114"/>
       <use x="781.542969" xlink:href="#DejaVuSans-95"/>
       <use x="831.542969" xlink:href="#DejaVuSans-120"/>
      </g>
     </g>
    </g>
    <g id="xtick_2">
     <g id="line2d_2">
      <g>
       <use style="stroke:#000000;stroke-width:0.8;" x="238.250625" xlink:href="#m20e96e3f02" y="288.430125"/>
      </g>
     </g>
     <g id="text_2">
      <!-- aflplusplus_hier_coe -->
      <g transform="translate(149.669458 352.472284)rotate(-30)scale(0.1 -0.1)">
       <defs>
        <path d="M 48.78125 52.59375 
L 48.78125 44.1875 
Q 44.96875 46.296875 41.140625 47.34375 
Q 37.3125 48.390625 33.40625 48.390625 
Q 24.65625 48.390625 19.8125 42.84375 
Q 14.984375 37.3125 14.984375 27.296875 
Q 14.984375 17.28125 19.8125 11.734375 
Q 24.65625 6.203125 33.40625 6.203125 
Q 37.3125 6.203125 41.140625 7.25 
Q 44.96875 8.296875 48.78125 10.40625 
L 48.78125 2.09375 
Q 45.015625 0.34375 40.984375 -0.53125 
Q 36.96875 -1.421875 32.421875 -1.421875 
Q 20.0625 -1.421875 12.78125 6.34375 
Q 5.515625 14.109375 5.515625 27.296875 
Q 5.515625 40.671875 12.859375 48.328125 
Q 20.21875 56 33.015625 56 
Q 37.15625 56 41.109375 55.140625 
Q 45.0625 54.296875 48.78125 52.59375 
z
" id="DejaVuSans-99"/>
        <path d="M 30.609375 48.390625 
Q 23.390625 48.390625 19.1875 42.75 
Q 14.984375 37.109375 14.984375 27.296875 
Q 14.984375 17.484375 19.15625 11.84375 
Q 23.34375 6.203125 30.609375 6.203125 
Q 37.796875 6.203125 41.984375 11.859375 
Q 46.1875 17.53125 46.1875 27.296875 
Q 46.1875 37.015625 41.984375 42.703125 
Q 37.796875 48.390625 30.609375 48.390625 
z
M 30.609375 56 
Q 42.328125 56 49.015625 48.375 
Q 55.71875 40.765625 55.71875 27.296875 
Q 55.71875 13.875 49.015625 6.21875 
Q 42.328125 -1.421875 30.609375 -1.421875 
Q 18.84375 -1.421875 12.171875 6.21875 
Q 5.515625 13.875 5.515625 27.296875 
Q 5.515625 40.765625 12.171875 48.375 
Q 18.84375 56 30.609375 56 
z
" id="DejaVuSans-111"/>
       </defs>
       <use xlink:href="#DejaVuSans-97"/>
       <use x="61.279297" xlink:href="#DejaVuSans-102"/>
       <use x="96.484375" xlink:href="#DejaVuSans-108"/>
       <use x="124.267578" xlink:href="#DejaVuSans-112"/>
       <use x="187.744141" xlink:href="#DejaVuSans-108"/>
       <use x="215.527344" xlink:href="#DejaVuSans-117"/>
       <use x="278.90625" xlink:href="#DejaVuSans-115"/>
       <use x="331.005859" xlink:href="#DejaVuSans-112"/>
       <use x="394.482422" xlink:href="#DejaVuSans-108"/>
       <use x="422.265625" xlink:href="#DejaVuSans-117"/>
       <use x="485.644531" xlink:href="#DejaVuSans-115"/>
       <use x="537.744141" xlink:href="#DejaVuSans-95"/>
       <use x="587.744141" xlink:href="#DejaVuSans-104"/>
       <use x="651.123047" xlink:href="#DejaVuSans-105"/>
       <use x="678.90625" xlink:href="#DejaVuSans-101"/>
       <use x="740.429688" xlink:href="#DejaVuSans-114"/>
       <use x="781.542969" xlink:href="#DejaVuSans-95"/>
       <use x="831.542969" xlink:href="#DejaVuSans-99"/>
       <use x="886.523438" xlink:href="#DejaVuSans-111"/>
       <use x="947.705078" xlink:href="#DejaVuSans-101"/>
      </g>
     </g>
    </g>
    <g id="xtick_3">
     <g id="line2d_3">
      <g>
       <use style="stroke:#000000;stroke-width:0.8;" x="357.290625" xlink:href="#m20e96e3f02" y="288.430125"/>
      </g>
     </g>
     <g id="text_3">
      <!-- aflplusplus_hier -->
      <g transform="translate(288.429127 341.087127)rotate(-30)scale(0.1 -0.1)">
       <use xlink:href="#DejaVuSans-97"/>
       <use x="61.279297" xlink:href="#DejaVuSans-102"/>
       <use x="96.484375" xlink:href="#DejaVuSans-108"/>
       <use x="124.267578" xlink:href="#DejaVuSans-112"/>
       <use x="187.744141" xlink:href="#DejaVuSans-108"/>
       <use x="215.527344" xlink:href="#DejaVuSans-117"/>
       <use x="278.90625" xlink:href="#DejaVuSans-115"/>
       <use x="331.005859" xlink:href="#DejaVuSans-112"/>
       <use x="394.482422" xlink:href="#DejaVuSans-108"/>
       <use x="422.265625" xlink:href="#DejaVuSans-117"/>
       <use x="485.644531" xlink:href="#DejaVuSans-115"/>
       <use x="537.744141" xlink:href="#DejaVuSans-95"/>
       <use x="587.744141" xlink:href="#DejaVuSans-104"/>
       <use x="651.123047" xlink:href="#DejaVuSans-105"/>
       <use x="678.90625" xlink:href="#DejaVuSans-101"/>
       <use x="740.429688" xlink:href="#DejaVuSans-114"/>
      </g>
     </g>
    </g>
    <g id="text_4">
     <!-- Fuzzer (highest median coverage on the left) -->
     <g transform="translate(125.632656 366.112647)scale(0.1 -0.1)">
      <defs>
       <path d="M 9.8125 72.90625 
L 51.703125 72.90625 
L 51.703125 64.59375 
L 19.671875 64.59375 
L 19.671875 43.109375 
L 48.578125 43.109375 
L 48.578125 34.8125 
L 19.671875 34.8125 
L 19.671875 0 
L 9.8125 0 
z
" id="DejaVuSans-70"/>
       <path d="M 5.515625 54.6875 
L 48.1875 54.6875 
L 48.1875 46.484375 
L 14.40625 7.171875 
L 48.1875 7.171875 
L 48.1875 0 
L 4.296875 0 
L 4.296875 8.203125 
L 38.09375 47.515625 
L 5.515625 47.515625 
z
" id="DejaVuSans-122"/>
       <path id="DejaVuSans-32"/>
       <path d="M 31 75.875 
Q 24.46875 64.65625 21.28125 53.65625 
Q 18.109375 42.671875 18.109375 31.390625 
Q 18.109375 20.125 21.3125 9.0625 
Q 24.515625 -2 31 -13.1875 
L 23.1875 -13.1875 
Q 15.875 -1.703125 12.234375 9.375 
Q 8.59375 20.453125 8.59375 31.390625 
Q 8.59375 42.28125 12.203125 53.3125 
Q 15.828125 64.359375 23.1875 75.875 
z
" id="DejaVuSans-40"/>
       <path d="M 45.40625 27.984375 
Q 45.40625 37.75 41.375 43.109375 
Q 37.359375 48.484375 30.078125 48.484375 
Q 22.859375 48.484375 18.828125 43.109375 
Q 14.796875 37.75 14.796875 27.984375 
Q 14.796875 18.265625 18.828125 12.890625 
Q 22.859375 7.515625 30.078125 7.515625 
Q 37.359375 7.515625 41.375 12.890625 
Q 45.40625 18.265625 45.40625 27.984375 
z
M 54.390625 6.78125 
Q 54.390625 -7.171875 48.1875 -13.984375 
Q 42 -20.796875 29.203125 -20.796875 
Q 24.46875 -20.796875 20.265625 -20.09375 
Q 16.0625 -19.390625 12.109375 -17.921875 
L 12.109375 -9.1875 
Q 16.0625 -11.328125 19.921875 -12.34375 
Q 23.78125 -13.375 27.78125 -13.375 
Q 36.625 -13.375 41.015625 -8.765625 
Q 45.40625 -4.15625 45.40625 5.171875 
L 45.40625 9.625 
Q 42.625 4.78125 38.28125 2.390625 
Q 33.9375 0 27.875 0 
Q 17.828125 0 11.671875 7.65625 
Q 5.515625 15.328125 5.515625 27.984375 
Q 5.515625 40.671875 11.671875 48.328125 
Q 17.828125 56 27.875 56 
Q 33.9375 56 38.28125 53.609375 
Q 42.625 51.21875 45.40625 46.390625 
L 45.40625 54.6875 
L 54.390625 54.6875 
z
" id="DejaVuSans-103"/>
       <path d="M 18.3125 70.21875 
L 18.3125 54.6875 
L 36.8125 54.6875 
L 36.8125 47.703125 
L 18.3125 47.703125 
L 18.3125 18.015625 
Q 18.3125 11.328125 20.140625 9.421875 
Q 21.96875 7.515625 27.59375 7.515625 
L 36.8125 7.515625 
L 36.8125 0 
L 27.59375 0 
Q 17.1875 0 13.234375 3.875 
Q 9.28125 7.765625 9.28125 18.015625 
L 9.28125 47.703125 
L 2.6875 47.703125 
L 2.6875 54.6875 
L 9.28125 54.6875 
L 9.28125 70.21875 
z
" id="DejaVuSans-116"/>
       <path d="M 52 44.1875 
Q 55.375 50.25 60.0625 53.125 
Q 64.75 56 71.09375 56 
Q 79.640625 56 84.28125 50.015625 
Q 88.921875 44.046875 88.921875 33.015625 
L 88.921875 0 
L 79.890625 0 
L 79.890625 32.71875 
Q 79.890625 40.578125 77.09375 44.375 
Q 74.3125 48.1875 68.609375 48.1875 
Q 61.625 48.1875 57.5625 43.546875 
Q 53.515625 38.921875 53.515625 30.90625 
L 53.515625 0 
L 44.484375 0 
L 44.484375 32.71875 
Q 44.484375 40.625 41.703125 44.40625 
Q 38.921875 48.1875 33.109375 48.1875 
Q 26.21875 48.1875 22.15625 43.53125 
Q 18.109375 38.875 18.109375 30.90625 
L 18.109375 0 
L 9.078125 0 
L 9.078125 54.6875 
L 18.109375 54.6875 
L 18.109375 46.1875 
Q 21.1875 51.21875 25.484375 53.609375 
Q 29.78125 56 35.6875 56 
Q 41.65625 56 45.828125 52.96875 
Q 50 49.953125 52 44.1875 
z
" id="DejaVuSans-109"/>
       <path d="M 45.40625 46.390625 
L 45.40625 75.984375 
L 54.390625 75.984375 
L 54.390625 0 
L 45.40625 0 
L 45.40625 8.203125 
Q 42.578125 3.328125 38.25 0.953125 
Q 33.9375 -1.421875 27.875 -1.421875 
Q 17.96875 -1.421875 11.734375 6.484375 
Q 5.515625 14.40625 5.515625 27.296875 
Q 5.515625 40.1875 11.734375 48.09375 
Q 17.96875 56 27.875 56 
Q 33.9375 56 38.25 53.625 
Q 42.578125 51.265625 45.40625 46.390625 
z
M 14.796875 27.296875 
Q 14.796875 17.390625 18.875 11.75 
Q 22.953125 6.109375 30.078125 6.109375 
Q 37.203125 6.109375 41.296875 11.75 
Q 45.40625 17.390625 45.40625 27.296875 
Q 45.40625 37.203125 41.296875 42.84375 
Q 37.203125 48.484375 30.078125 48.484375 
Q 22.953125 48.484375 18.875 42.84375 
Q 14.796875 37.203125 14.796875 27.296875 
z
" id="DejaVuSans-100"/>
       <path d="M 54.890625 33.015625 
L 54.890625 0 
L 45.90625 0 
L 45.90625 32.71875 
Q 45.90625 40.484375 42.875 44.328125 
Q 39.84375 48.1875 33.796875 48.1875 
Q 26.515625 48.1875 22.3125 43.546875 
Q 18.109375 38.921875 18.109375 30.90625 
L 18.109375 0 
L 9.078125 0 
L 9.078125 54.6875 
L 18.109375 54.6875 
L 18.109375 46.1875 
Q 21.34375 51.125 25.703125 53.5625 
Q 30.078125 56 35.796875 56 
Q 45.21875 56 50.046875 50.171875 
Q 54.890625 44.34375 54.890625 33.015625 
z
" id="DejaVuSans-110"/>
       <path d="M 2.984375 54.6875 
L 12.5 54.6875 
L 29.59375 8.796875 
L 46.6875 54.6875 
L 56.203125 54.6875 
L 35.6875 0 
L 23.484375 0 
z
" id="DejaVuSans-118"/>
       <path d="M 8.015625 75.875 
L 15.828125 75.875 
Q 23.140625 64.359375 26.78125 53.3125 
Q 30.421875 42.28125 30.421875 31.390625 
Q 30.421875 20.453125 26.78125 9.375 
Q 23.140625 -1.703125 15.828125 -13.1875 
L 8.015625 -13.1875 
Q 14.5 -2 17.703125 9.0625 
Q 20.90625 20.125 20.90625 31.390625 
Q 20.90625 42.671875 17.703125 53.65625 
Q 14.5 64.65625 8.015625 75.875 
z
" id="DejaVuSans-41"/>
      </defs>
      <use xlink:href="#DejaVuSans-70"/>
      <use x="52.019531" xlink:href="#DejaVuSans-117"/>
      <use x="115.398438" xlink:href="#DejaVuSans-122"/>
      <use x="167.888672" xlink:href="#DejaVuSans-122"/>
      <use x="220.378906" xlink:href="#DejaVuSans-101"/>
      <use x="281.902344" xlink:href="#DejaVuSans-114"/>
      <use x="323.015625" xlink:href="#DejaVuSans-32"/>
      <use x="354.802734" xlink:href="#DejaVuSans-40"/>
      <use x="393.816406" xlink:href="#DejaVuSans-104"/>
      <use x="457.195312" xlink:href="#DejaVuSans-105"/>
      <use x="484.978516" xlink:href="#DejaVuSans-103"/>
      <use x="548.455078" xlink:href="#DejaVuSans-104"/>
      <use x="611.833984" xlink:href="#DejaVuSans-101"/>
      <use x="673.357422" xlink:href="#DejaVuSans-115"/>
      <use x="725.457031" xlink:href="#DejaVuSans-116"/>
      <use x="764.666016" xlink:href="#DejaVuSans-32"/>
      <use x="796.453125" xlink:href="#DejaVuSans-109"/>
      <use x="893.865234" xlink:href="#DejaVuSans-101"/>
      <use x="955.388672" xlink:href="#DejaVuSans-100"/>
      <use x="1018.865234" xlink:href="#DejaVuSans-105"/>
      <use x="1046.648438" xlink:href="#DejaVuSans-97"/>
      <use x="1107.927734" xlink:href="#DejaVuSans-110"/>
      <use x="1171.306641" xlink:href="#DejaVuSans-32"/>
      <use x="1203.09375" xlink:href="#DejaVuSans-99"/>
      <use x="1258.074219" xlink:href="#DejaVuSans-111"/>
      <use x="1319.255859" xlink:href="#DejaVuSans-118"/>
      <use x="1378.435547" xlink:href="#DejaVuSans-101"/>
      <use x="1439.958984" xlink:href="#DejaVuSans-114"/>
      <use x="1481.072266" xlink:href="#DejaVuSans-97"/>
      <use x="1542.351562" xlink:href="#DejaVuSans-103"/>
      <use x="1605.828125" xlink:href="#DejaVuSans-101"/>
      <use x="1667.351562" xlink:href="#DejaVuSans-32"/>
      <use x="1699.138672" xlink:href="#DejaVuSans-111"/>
      <use x="1760.320312" xlink:href="#DejaVuSans-110"/>
      <use x="1823.699219" xlink:href="#DejaVuSans-32"/>
      <use x="1855.486328" xlink:href="#DejaVuSans-116"/>
      <use x="1894.695312" xlink:href="#DejaVuSans-104"/>
      <use x="1958.074219" xlink:href="#DejaVuSans-101"/>
      <use x="2019.597656" xlink:href="#DejaVuSans-32"/>
      <use x="2051.384766" xlink:href="#DejaVuSans-108"/>
      <use x="2079.167969" xlink:href="#DejaVuSans-101"/>
      <use x="2140.691406" xlink:href="#DejaVuSans-102"/>
      <use x="2174.146484" xlink:href="#DejaVuSans-116"/>
      <use x="2213.355469" xlink:href="#DejaVuSans-41"/>
     </g>
    </g>
   </g>
   <g id="matplotlib.axis_2">
    <g id="ytick_1">
     <g id="line2d_4">
      <defs>
       <path d="M 0 0 
L -3.5 0 
" id="mca660f09b5" style="stroke:#000000;stroke-width:0.8;"/>
      </defs>
      <g>
       <use style="stroke:#000000;stroke-width:0.8;" x="59.690625" xlink:href="#mca660f09b5" y="278.422208"/>
      </g>
     </g>
     <g id="text_5">
      <!-- 13670 -->
      <g transform="translate(20.878125 282.221427)scale(0.1 -0.1)">
       <defs>
        <path d="M 12.40625 8.296875 
L 28.515625 8.296875 
L 28.515625 63.921875 
L 10.984375 60.40625 
L 10.984375 69.390625 
L 28.421875 72.90625 
L 38.28125 72.90625 
L 38.28125 8.296875 
L 54.390625 8.296875 
L 54.390625 0 
L 12.40625 0 
z
" id="DejaVuSans-49"/>
        <path d="M 40.578125 39.3125 
Q 47.65625 37.796875 51.625 33 
Q 55.609375 28.21875 55.609375 21.1875 
Q 55.609375 10.40625 48.1875 4.484375 
Q 40.765625 -1.421875 27.09375 -1.421875 
Q 22.515625 -1.421875 17.65625 -0.515625 
Q 12.796875 0.390625 7.625 2.203125 
L 7.625 11.71875 
Q 11.71875 9.328125 16.59375 8.109375 
Q 21.484375 6.890625 26.8125 6.890625 
Q 36.078125 6.890625 40.9375 10.546875 
Q 45.796875 14.203125 45.796875 21.1875 
Q 45.796875 27.640625 41.28125 31.265625 
Q 36.765625 34.90625 28.71875 34.90625 
L 20.21875 34.90625 
L 20.21875 43.015625 
L 29.109375 43.015625 
Q 36.375 43.015625 40.234375 45.921875 
Q 44.09375 48.828125 44.09375 54.296875 
Q 44.09375 59.90625 40.109375 62.90625 
Q 36.140625 65.921875 28.71875 65.921875 
Q 24.65625 65.921875 20.015625 65.03125 
Q 15.375 64.15625 9.8125 62.3125 
L 9.8125 71.09375 
Q 15.4375 72.65625 20.34375 73.4375 
Q 25.25 74.21875 29.59375 74.21875 
Q 40.828125 74.21875 47.359375 69.109375 
Q 53.90625 64.015625 53.90625 55.328125 
Q 53.90625 49.265625 50.4375 45.09375 
Q 46.96875 40.921875 40.578125 39.3125 
z
" id="DejaVuSans-51"/>
        <path d="M 33.015625 40.375 
Q 26.375 40.375 22.484375 35.828125 
Q 18.609375 31.296875 18.609375 23.390625 
Q 18.609375 15.53125 22.484375 10.953125 
Q 26.375 6.390625 33.015625 6.390625 
Q 39.65625 6.390625 43.53125 10.953125 
Q 47.40625 15.53125 47.40625 23.390625 
Q 47.40625 31.296875 43.53125 35.828125 
Q 39.65625 40.375 33.015625 40.375 
z
M 52.59375 71.296875 
L 52.59375 62.3125 
Q 48.875 64.0625 45.09375 64.984375 
Q 41.3125 65.921875 37.59375 65.921875 
Q 27.828125 65.921875 22.671875 59.328125 
Q 17.53125 52.734375 16.796875 39.40625 
Q 19.671875 43.65625 24.015625 45.921875 
Q 28.375 48.1875 33.59375 48.1875 
Q 44.578125 48.1875 50.953125 41.515625 
Q 57.328125 34.859375 57.328125 23.390625 
Q 57.328125 12.15625 50.6875 5.359375 
Q 44.046875 -1.421875 33.015625 -1.421875 
Q 20.359375 -1.421875 13.671875 8.265625 
Q 6.984375 17.96875 6.984375 36.375 
Q 6.984375 53.65625 15.1875 63.9375 
Q 23.390625 74.21875 37.203125 74.21875 
Q 40.921875 74.21875 44.703125 73.484375 
Q 48.484375 72.75 52.59375 71.296875 
z
" id="DejaVuSans-54"/>
        <path d="M 8.203125 72.90625 
L 55.078125 72.90625 
L 55.078125 68.703125 
L 28.609375 0 
L 18.3125 0 
L 43.21875 64.59375 
L 8.203125 64.59375 
z
" id="DejaVuSans-55"/>
        <path d="M 31.78125 66.40625 
Q 24.171875 66.40625 20.328125 58.90625 
Q 16.5 51.421875 16.5 36.375 
Q 16.5 21.390625 20.328125 13.890625 
Q 24.171875 6.390625 31.78125 6.390625 
Q 39.453125 6.390625 43.28125 13.890625 
Q 47.125 21.390625 47.125 36.375 
Q 47.125 51.421875 43.28125 58.90625 
Q 39.453125 66.40625 31.78125 66.40625 
z
M 31.78125 74.21875 
Q 44.046875 74.21875 50.515625 64.515625 
Q 56.984375 54.828125 56.984375 36.375 
Q 56.984375 17.96875 50.515625 8.265625 
Q 44.046875 -1.421875 31.78125 -1.421875 
Q 19.53125 -1.421875 13.0625 8.265625 
Q 6.59375 17.96875 6.59375 36.375 
Q 6.59375 54.828125 13.0625 64.515625 
Q 19.53125 74.21875 31.78125 74.21875 
z
" id="DejaVuSans-48"/>
       </defs>
       <use xlink:href="#DejaVuSans-49"/>
       <use x="63.623047" xlink:href="#DejaVuSans-51"/>
       <use x="127.246094" xlink:href="#DejaVuSans-54"/>
       <use x="190.869141" xlink:href="#DejaVuSans-55"/>
       <use x="254.492188" xlink:href="#DejaVuSans-48"/>
      </g>
     </g>
    </g>
    <g id="ytick_2">
     <g id="line2d_5">
      <g>
       <use style="stroke:#000000;stroke-width:0.8;" x="59.690625" xlink:href="#mca660f09b5" y="235.724428"/>
      </g>
     </g>
     <g id="text_6">
      <!-- 13680 -->
      <g transform="translate(20.878125 239.523647)scale(0.1 -0.1)">
       <defs>
        <path d="M 31.78125 34.625 
Q 24.75 34.625 20.71875 30.859375 
Q 16.703125 27.09375 16.703125 20.515625 
Q 16.703125 13.921875 20.71875 10.15625 
Q 24.75 6.390625 31.78125 6.390625 
Q 38.8125 6.390625 42.859375 10.171875 
Q 46.921875 13.96875 46.921875 20.515625 
Q 46.921875 27.09375 42.890625 30.859375 
Q 38.875 34.625 31.78125 34.625 
z
M 21.921875 38.8125 
Q 15.578125 40.375 12.03125 44.71875 
Q 8.5 49.078125 8.5 55.328125 
Q 8.5 64.0625 14.71875 69.140625 
Q 20.953125 74.21875 31.78125 74.21875 
Q 42.671875 74.21875 48.875 69.140625 
Q 55.078125 64.0625 55.078125 55.328125 
Q 55.078125 49.078125 51.53125 44.71875 
Q 48 40.375 41.703125 38.8125 
Q 48.828125 37.15625 52.796875 32.3125 
Q 56.78125 27.484375 56.78125 20.515625 
Q 56.78125 9.90625 50.3125 4.234375 
Q 43.84375 -1.421875 31.78125 -1.421875 
Q 19.734375 -1.421875 13.25 4.234375 
Q 6.78125 9.90625 6.78125 20.515625 
Q 6.78125 27.484375 10.78125 32.3125 
Q 14.796875 37.15625 21.921875 38.8125 
z
M 18.3125 54.390625 
Q 18.3125 48.734375 21.84375 45.5625 
Q 25.390625 42.390625 31.78125 42.390625 
Q 38.140625 42.390625 41.71875 45.5625 
Q 45.3125 48.734375 45.3125 54.390625 
Q 45.3125 60.0625 41.71875 63.234375 
Q 38.140625 66.40625 31.78125 66.40625 
Q 25.390625 66.40625 21.84375 63.234375 
Q 18.3125 60.0625 18.3125 54.390625 
z
" id="DejaVuSans-56"/>
       </defs>
       <use xlink:href="#DejaVuSans-49"/>
       <use x="63.623047" xlink:href="#DejaVuSans-51"/>
       <use x="127.246094" xlink:href="#DejaVuSans-54"/>
       <use x="190.869141" xlink:href="#DejaVuSans-56"/>
       <use x="254.492188" xlink:href="#DejaVuSans-48"/>
      </g>
     </g>
    </g>
    <g id="ytick_3">
     <g id="line2d_6">
      <g>
       <use style="stroke:#000000;stroke-width:0.8;" x="59.690625" xlink:href="#mca660f09b5" y="193.026648"/>
      </g>
     </g>
     <g id="text_7">
      <!-- 13690 -->
      <g transform="translate(20.878125 196.825867)scale(0.1 -0.1)">
       <defs>
        <path d="M 10.984375 1.515625 
L 10.984375 10.5 
Q 14.703125 8.734375 18.5 7.8125 
Q 22.3125 6.890625 25.984375 6.890625 
Q 35.75 6.890625 40.890625 13.453125 
Q 46.046875 20.015625 46.78125 33.40625 
Q 43.953125 29.203125 39.59375 26.953125 
Q 35.25 24.703125 29.984375 24.703125 
Q 19.046875 24.703125 12.671875 31.3125 
Q 6.296875 37.9375 6.296875 49.421875 
Q 6.296875 60.640625 12.9375 67.421875 
Q 19.578125 74.21875 30.609375 74.21875 
Q 43.265625 74.21875 49.921875 64.515625 
Q 56.59375 54.828125 56.59375 36.375 
Q 56.59375 19.140625 48.40625 8.859375 
Q 40.234375 -1.421875 26.421875 -1.421875 
Q 22.703125 -1.421875 18.890625 -0.6875 
Q 15.09375 0.046875 10.984375 1.515625 
z
M 30.609375 32.421875 
Q 37.25 32.421875 41.125 36.953125 
Q 45.015625 41.5 45.015625 49.421875 
Q 45.015625 57.28125 41.125 61.84375 
Q 37.25 66.40625 30.609375 66.40625 
Q 23.96875 66.40625 20.09375 61.84375 
Q 16.21875 57.28125 16.21875 49.421875 
Q 16.21875 41.5 20.09375 36.953125 
Q 23.96875 32.421875 30.609375 32.421875 
z
" id="DejaVuSans-57"/>
       </defs>
       <use xlink:href="#DejaVuSans-49"/>
       <use x="63.623047" xlink:href="#DejaVuSans-51"/>
       <use x="127.246094" xlink:href="#DejaVuSans-54"/>
       <use x="190.869141" xlink:href="#DejaVuSans-57"/>
       <use x="254.492188" xlink:href="#DejaVuSans-48"/>
      </g>
     </g>
    </g>
    <g id="ytick_4">
     <g id="line2d_7">
      <g>
       <use style="stroke:#000000;stroke-width:0.8;" x="59.690625" xlink:href="#mca660f09b5" y="150.328869"/>
      </g>
     </g>
     <g id="text_8">
      <!-- 13700 -->
      <g transform="translate(20.878125 154.128087)scale(0.1 -0.1)">
       <use xlink:href="#DejaVuSans-49"/>
       <use x="63.623047" xlink:href="#DejaVuSans-51"/>
       <use x="127.246094" xlink:href="#DejaVuSans-55"/>
       <use x="190.869141" xlink:href="#DejaVuSans-48"/>
       <use x="254.492188" xlink:href="#DejaVuSans-48"/>
      </g>
     </g>
    </g>
    <g id="ytick_5">
     <g id="line2d_8">
      <g>
       <use style="stroke:#000000;stroke-width:0.8;" x="59.690625" xlink:href="#mca660f09b5" y="107.631089"/>
      </g>
     </g>
     <g id="text_9">
      <!-- 13710 -->
      <g transform="translate(20.878125 111.430308)scale(0.1 -0.1)">
       <use xlink:href="#DejaVuSans-49"/>
       <use x="63.623047" xlink:href="#DejaVuSans-51"/>
       <use x="127.246094" xlink:href="#DejaVuSans-55"/>
       <use x="190.869141" xlink:href="#DejaVuSans-49"/>
       <use x="254.492188" xlink:href="#DejaVuSans-48"/>
      </g>
     </g>
    </g>
    <g id="ytick_6">
     <g id="line2d_9">
      <g>
       <use style="stroke:#000000;stroke-width:0.8;" x="59.690625" xlink:href="#mca660f09b5" y="64.933309"/>
      </g>
     </g>
     <g id="text_10">
      <!-- 13720 -->
      <g transform="translate(20.878125 68.732528)scale(0.1 -0.1)">
       <defs>
        <path d="M 19.1875 8.296875 
L 53.609375 8.296875 
L 53.609375 0 
L 7.328125 0 
L 7.328125 8.296875 
Q 12.9375 14.109375 22.625 23.890625 
Q 32.328125 33.6875 34.8125 36.53125 
Q 39.546875 41.84375 41.421875 45.53125 
Q 43.3125 49.21875 43.3125 52.78125 
Q 43.3125 58.59375 39.234375 62.25 
Q 35.15625 65.921875 28.609375 65.921875 
Q 23.96875 65.921875 18.8125 64.3125 
Q 13.671875 62.703125 7.8125 59.421875 
L 7.8125 69.390625 
Q 13.765625 71.78125 18.9375 73 
Q 24.125 74.21875 28.421875 74.21875 
Q 39.75 74.21875 46.484375 68.546875 
Q 53.21875 62.890625 53.21875 53.421875 
Q 53.21875 48.921875 51.53125 44.890625 
Q 49.859375 40.875 45.40625 35.40625 
Q 44.1875 33.984375 37.640625 27.21875 
Q 31.109375 20.453125 19.1875 8.296875 
z
" id="DejaVuSans-50"/>
       </defs>
       <use xlink:href="#DejaVuSans-49"/>
       <use x="63.623047" xlink:href="#DejaVuSans-51"/>
       <use x="127.246094" xlink:href="#DejaVuSans-55"/>
       <use x="190.869141" xlink:href="#DejaVuSans-50"/>
       <use x="254.492188" xlink:href="#DejaVuSans-48"/>
      </g>
     </g>
    </g>
    <g id="text_11">
     <!-- Reached region coverage -->
     <g transform="translate(14.798438 219.136625)rotate(-90)scale(0.1 -0.1)">
      <defs>
       <path d="M 44.390625 34.1875 
Q 47.5625 33.109375 50.5625 29.59375 
Q 53.5625 26.078125 56.59375 19.921875 
L 66.609375 0 
L 56 0 
L 46.6875 18.703125 
Q 43.0625 26.03125 39.671875 28.421875 
Q 36.28125 30.8125 30.421875 30.8125 
L 19.671875 30.8125 
L 19.671875 0 
L 9.8125 0 
L 9.8125 72.90625 
L 32.078125 72.90625 
Q 44.578125 72.90625 50.734375 67.671875 
Q 56.890625 62.453125 56.890625 51.90625 
Q 56.890625 45.015625 53.6875 40.46875 
Q 50.484375 35.9375 44.390625 34.1875 
z
M 19.671875 64.796875 
L 19.671875 38.921875 
L 32.078125 38.921875 
Q 39.203125 38.921875 42.84375 42.21875 
Q 46.484375 45.515625 46.484375 51.90625 
Q 46.484375 58.296875 42.84375 61.546875 
Q 39.203125 64.796875 32.078125 64.796875 
z
" id="DejaVuSans-82"/>
      </defs>
      <use xlink:href="#DejaVuSans-82"/>
      <use x="64.982422" xlink:href="#DejaVuSans-101"/>
      <use x="126.505859" xlink:href="#DejaVuSans-97"/>
      <use x="187.785156" xlink:href="#DejaVuSans-99"/>
      <use x="242.765625" xlink:href="#DejaVuSans-104"/>
      <use x="306.144531" xlink:href="#DejaVuSans-101"/>
      <use x="367.667969" xlink:href="#DejaVuSans-100"/>
      <use x="431.144531" xlink:href="#DejaVuSans-32"/>
      <use x="462.931641" xlink:href="#DejaVuSans-114"/>
      <use x="501.794922" xlink:href="#DejaVuSans-101"/>
      <use x="563.318359" xlink:href="#DejaVuSans-103"/>
      <use x="626.794922" xlink:href="#DejaVuSans-105"/>
      <use x="654.578125" xlink:href="#DejaVuSans-111"/>
      <use x="715.759766" xlink:href="#DejaVuSans-110"/>
      <use x="779.138672" xlink:href="#DejaVuSans-32"/>
      <use x="810.925781" xlink:href="#DejaVuSans-99"/>
      <use x="865.90625" xlink:href="#DejaVuSans-111"/>
      <use x="927.087891" xlink:href="#DejaVuSans-118"/>
      <use x="986.267578" xlink:href="#DejaVuSans-101"/>
      <use x="1047.791016" xlink:href="#DejaVuSans-114"/>
      <use x="1088.904297" xlink:href="#DejaVuSans-97"/>
      <use x="1150.183594" xlink:href="#DejaVuSans-103"/>
      <use x="1213.660156" xlink:href="#DejaVuSans-101"/>
     </g>
    </g>
   </g>
   <g id="line2d_10">
    <path clip-path="url(#paf89524aaf)" d="M 119.210625 210.10576 
L 119.210625 184.487093 
" style="fill:none;stroke:#3f3f3f;stroke-linecap:square;stroke-width:1.5;"/>
   </g>
   <g id="line2d_11">
    <path clip-path="url(#paf89524aaf)" d="M 119.210625 201.566204 
L 119.210625 184.487093 
" style="fill:none;stroke:#3f3f3f;stroke-linecap:square;stroke-width:4.5;"/>
   </g>
   <g id="line2d_12">
    <path clip-path="url(#paf89524aaf)" d="M 238.250625 205.835982 
L 238.250625 111.900867 
" style="fill:none;stroke:#3f3f3f;stroke-linecap:square;stroke-width:1.5;"/>
   </g>
   <g id="line2d_13">
    <path clip-path="url(#paf89524aaf)" d="M 238.250625 201.566204 
L 238.250625 116.170645 
" style="fill:none;stroke:#3f3f3f;stroke-linecap:square;stroke-width:4.5;"/>
   </g>
   <g id="line2d_14">
    <path clip-path="url(#paf89524aaf)" d="M 357.290625 210.10576 
L 357.290625 197.296426 
" style="fill:none;stroke:#3f3f3f;stroke-linecap:square;stroke-width:1.5;"/>
   </g>
   <g id="line2d_15">
    <path clip-path="url(#paf89524aaf)" d="M 357.290625 210.10576 
L 357.290625 197.296426 
" style="fill:none;stroke:#3f3f3f;stroke-linecap:square;stroke-width:4.5;"/>
   </g>
   <g id="patch_3">
    <path d="M 59.690625 278.422208 
L 59.690625 64.933309 
" style="fill:none;stroke:#000000;stroke-linecap:square;stroke-linejoin:miter;stroke-width:0.8;"/>
   </g>
   <g id="patch_4">
    <path d="M 119.210625 288.430125 
L 357.290625 288.430125 
" style="fill:none;stroke:#000000;stroke-linecap:square;stroke-linejoin:miter;stroke-width:0.8;"/>
   </g>
   <g id="PathCollection_1">
    <defs>
     <path d="M 0 1.5 
C 0.397805 1.5 0.77937 1.341951 1.06066 1.06066 
C 1.341951 0.77937 1.5 0.397805 1.5 0 
C 1.5 -0.397805 1.341951 -0.77937 1.06066 -1.06066 
C 0.77937 -1.341951 0.397805 -1.5 0 -1.5 
C -0.397805 -1.5 -0.77937 -1.341951 -1.06066 -1.06066 
C -1.341951 -0.77937 -1.5 -0.397805 -1.5 0 
C -1.5 0.397805 -1.341951 0.77937 -1.06066 1.06066 
C -0.77937 1.341951 -0.397805 1.5 0 1.5 
z
" id="mc10b42f9e8" style="stroke:#3f3f3f;"/>
    </defs>
    <g clip-path="url(#paf89524aaf)">
     <use style="fill:#ffffff;stroke:#3f3f3f;" x="119.210625" xlink:href="#mc10b42f9e8" y="188.756871"/>
    </g>
   </g>
   <g id="PathCollection_2">
    <g clip-path="url(#paf89524aaf)">
     <use style="fill:#ffffff;stroke:#3f3f3f;" x="238.250625" xlink:href="#mc10b42f9e8" y="197.296426"/>
    </g>
   </g>
   <g id="PathCollection_3">
    <g clip-path="url(#paf89524aaf)">
     <use style="fill:#ffffff;stroke:#3f3f3f;" x="357.290625" xlink:href="#mc10b42f9e8" y="201.566204"/>
    </g>
   </g>
   <g id="text_12">
    <!-- openssl_x509 (1h:45m, 5 trials/fuzzer) -->
    <g transform="translate(122.759063 16.318125)scale(0.12 -0.12)">
     <defs>
      <path d="M 10.796875 72.90625 
L 49.515625 72.90625 
L 49.515625 64.59375 
L 19.828125 64.59375 
L 19.828125 46.734375 
Q 21.96875 47.46875 24.109375 47.828125 
Q 26.265625 48.1875 28.421875 48.1875 
Q 40.625 48.1875 47.75 41.5 
Q 54.890625 34.8125 54.890625 23.390625 
Q 54.890625 11.625 47.5625 5.09375 
Q 40.234375 -1.421875 26.90625 -1.421875 
Q 22.3125 -1.421875 17.546875 -0.640625 
Q 12.796875 0.140625 7.71875 1.703125 
L 7.71875 11.625 
Q 12.109375 9.234375 16.796875 8.0625 
Q 21.484375 6.890625 26.703125 6.890625 
Q 35.15625 6.890625 40.078125 11.328125 
Q 45.015625 15.765625 45.015625 23.390625 
Q 45.015625 31 40.078125 35.4375 
Q 35.15625 39.890625 26.703125 39.890625 
Q 22.75 39.890625 18.8125 39.015625 
Q 14.890625 38.140625 10.796875 36.28125 
z
" id="DejaVuSans-53"/>
      <path d="M 11.71875 12.40625 
L 22.015625 12.40625 
L 22.015625 0 
L 11.71875 0 
z
M 11.71875 51.703125 
L 22.015625 51.703125 
L 22.015625 39.3125 
L 11.71875 39.3125 
z
" id="DejaVuSans-58"/>
      <path d="M 37.796875 64.3125 
L 12.890625 25.390625 
L 37.796875 25.390625 
z
M 35.203125 72.90625 
L 47.609375 72.90625 
L 47.609375 25.390625 
L 58.015625 25.390625 
L 58.015625 17.1875 
L 47.609375 17.1875 
L 47.609375 0 
L 37.796875 0 
L 37.796875 17.1875 
L 4.890625 17.1875 
L 4.890625 26.703125 
z
" id="DejaVuSans-52"/>
      <path d="M 11.71875 12.40625 
L 22.015625 12.40625 
L 22.015625 4 
L 14.015625 -11.625 
L 7.71875 -11.625 
L 11.71875 4 
z
" id="DejaVuSans-44"/>
      <path d="M 25.390625 72.90625 
L 33.6875 72.90625 
L 8.296875 -9.28125 
L 0 -9.28125 
z
" id="DejaVuSans-47"/>
     </defs>
     <use xlink:href="#DejaVuSans-111"/>
     <use x="61.181641" xlink:href="#DejaVuSans-112"/>
     <use x="124.658203" xlink:href="#DejaVuSans-101"/>
     <use x="186.181641" xlink:href="#DejaVuSans-110"/>
     <use x="249.560547" xlink:href="#DejaVuSans-115"/>
     <use x="301.660156" xlink:href="#DejaVuSans-115"/>
     <use x="353.759766" xlink:href="#DejaVuSans-108"/>
     <use x="381.542969" xlink:href="#DejaVuSans-95"/>
     <use x="431.542969" xlink:href="#DejaVuSans-120"/>
     <use x="490.722656" xlink:href="#DejaVuSans-53"/>
     <use x="554.345703" xlink:href="#DejaVuSans-48"/>
     <use x="617.96875" xlink:href="#DejaVuSans-57"/>
     <use x="681.591797" xlink:href="#DejaVuSans-32"/>
     <use x="713.378906" xlink:href="#DejaVuSans-40"/>
     <use x="752.392578" xlink:href="#DejaVuSans-49"/>
     <use x="816.015625" xlink:href="#DejaVuSans-104"/>
     <use x="879.394531" xlink:href="#DejaVuSans-58"/>
     <use x="913.085938" xlink:href="#DejaVuSans-52"/>
     <use x="976.708984" xlink:href="#DejaVuSans-53"/>
     <use x="1040.332031" xlink:href="#DejaVuSans-109"/>
     <use x="1137.744141" xlink:href="#DejaVuSans-44"/>
     <use x="1169.53125" xlink:href="#DejaVuSans-32"/>
     <use x="1201.318359" xlink:href="#DejaVuSans-53"/>
     <use x="1264.941406" xlink:href="#DejaVuSans-32"/>
     <use x="1296.728516" xlink:href="#DejaVuSans-116"/>
     <use x="1335.9375" xlink:href="#DejaVuSans-114"/>
     <use x="1377.050781" xlink:href="#DejaVuSans-105"/>
     <use x="1404.833984" xlink:href="#DejaVuSans-97"/>
     <use x="1466.113281" xlink:href="#DejaVuSans-108"/>
     <use x="1493.896484" xlink:href="#DejaVuSans-115"/>
     <use x="1545.996094" xlink:href="#DejaVuSans-47"/>
     <use x="1579.6875" xlink:href="#DejaVuSans-102"/>
     <use x="1614.892578" xlink:href="#DejaVuSans-117"/>
     <use x="1678.271484" xlink:href="#DejaVuSans-122"/>
     <use x="1730.761719" xlink:href="#DejaVuSans-122"/>
     <use x="1783.251953" xlink:href="#DejaVuSans-101"/>
     <use x="1844.775391" xlink:href="#DejaVuSans-114"/>
     <use x="1885.888672" xlink:href="#DejaVuSans-41"/>
    </g>
   </g>
  </g>
 </g>
 <defs>
  <clipPath id="paf89524aaf">
   <rect height="266.112" width="357.12" x="59.690625" y="22.318125"/>
  </clipPath>
 </defs>
</svg>
