<?xml version="1.0" encoding="utf-8" standalone="no"?>
<!DOCTYPE svg PUBLIC "-//W3C//DTD SVG 1.1//EN"
  "http://www.w3.org/Graphics/SVG/1.1/DTD/svg11.dtd">
<!-- Created with matplotlib (https://matplotlib.org/) -->
<svg height="375.392334pt" version="1.1" viewBox="0 0 424.010625 375.392334" width="424.010625pt" xmlns="http://www.w3.org/2000/svg" xmlns:xlink="http://www.w3.org/1999/xlink">
 <metadata>
  <rdf:RDF xmlns:cc="http://creativecommons.org/ns#" xmlns:dc="http://purl.org/dc/elements/1.1/" xmlns:rdf="http://www.w3.org/1999/02/22-rdf-syntax-ns#">
   <cc:Work>
    <dc:type rdf:resource="http://purl.org/dc/dcmitype/StillImage"/>
    <dc:date>2020-11-17T21:16:57.109322</dc:date>
    <dc:format>image/svg+xml</dc:format>
    <dc:creator>
     <cc:Agent>
      <dc:title>Matplotlib v3.3.2, https://matplotlib.org/</dc:title>
     </cc:Agent>
    </dc:creator>
   </cc:Work>
  </rdf:RDF>
 </metadata>
 <defs>
  <style type="text/css">*{stroke-linecap:butt;stroke-linejoin:round;}</style>
 </defs>
 <g id="figure_1">
  <g id="patch_1">
   <path d="M 0 375.392334 
L 424.010625 375.392334 
L 424.010625 0 
L 0 0 
z
" style="fill:#ffffff;"/>
  </g>
  <g id="axes_1">
   <g id="patch_2">
    <path d="M 59.690625 288.430125 
L 416.810625 288.430125 
L 416.810625 22.318125 
L 59.690625 22.318125 
z
" style="fill:#ffffff;"/>
   </g>
   <g id="PolyCollection_1">
    <defs>
     <path d="M 122.073909 -129.164448 
L 116.347341 -129.164448 
L 115.873508 -131.238744 
L 115.340958 -133.313041 
L 114.746093 -135.387337 
L 114.085744 -137.461634 
L 113.357294 -139.53593 
L 112.558808 -141.610226 
L 111.689156 -143.684523 
L 110.748136 -145.758819 
L 109.73658 -147.833116 
L 108.656445 -149.907412 
L 107.510886 -151.981708 
L 106.304294 -154.056005 
L 105.042315 -156.130301 
L 103.731823 -158.204598 
L 102.380863 -160.278894 
L 100.998552 -162.35319 
L 99.594941 -164.427487 
L 98.180845 -166.501783 
L 96.767624 -168.57608 
L 95.366954 -170.650376 
L 93.990556 -172.724672 
L 92.649921 -174.798969 
L 91.356019 -176.873265 
L 90.119019 -178.947562 
L 88.948011 -181.021858 
L 87.850759 -183.096154 
L 86.833483 -185.170451 
L 85.900679 -187.244747 
L 85.054997 -189.319044 
L 84.297164 -191.39334 
L 83.625976 -193.467636 
L 83.038345 -195.541933 
L 82.529411 -197.616229 
L 82.092715 -199.690526 
L 81.720422 -201.764822 
L 81.403589 -203.839118 
L 81.132482 -205.913415 
L 80.896905 -207.987711 
L 80.686555 -210.062008 
L 80.491378 -212.136304 
L 80.301913 -214.210601 
L 80.109621 -216.284897 
L 79.907172 -218.359193 
L 79.688701 -220.43349 
L 79.450008 -222.507786 
L 79.188702 -224.582083 
L 78.904289 -226.656379 
L 78.598194 -228.730675 
L 78.273725 -230.804972 
L 77.935978 -232.879268 
L 77.591688 -234.953565 
L 77.24903 -237.027861 
L 76.917386 -239.102157 
L 76.607073 -241.176454 
L 76.329053 -243.25075 
L 76.094629 -245.325047 
L 75.915131 -247.399343 
L 75.80162 -249.473639 
L 75.764589 -251.547936 
L 75.813696 -253.622232 
L 75.957518 -255.696529 
L 76.203337 -257.770825 
L 76.55697 -259.845121 
L 77.022625 -261.919418 
L 77.602808 -263.993714 
L 78.298269 -266.068011 
L 79.107989 -268.142307 
L 80.029207 -270.216603 
L 81.057485 -272.2909 
L 82.186808 -274.365196 
L 83.409717 -276.439493 
L 84.717466 -278.513789 
L 86.100207 -280.588085 
L 87.547185 -282.662382 
L 89.046953 -284.736678 
L 90.587592 -286.810975 
L 92.15693 -288.885271 
L 93.742761 -290.959568 
L 95.333056 -293.033864 
L 96.916163 -295.10816 
L 98.480982 -297.182457 
L 100.017133 -299.256753 
L 101.51509 -301.33105 
L 102.966292 -303.405346 
L 104.363238 -305.479642 
L 105.699537 -307.553939 
L 106.969945 -309.628235 
L 108.170373 -311.702532 
L 109.297868 -313.776828 
L 110.350569 -315.851124 
L 111.327656 -317.925421 
L 112.229266 -319.999717 
L 113.056407 -322.074014 
L 113.81086 -324.14831 
L 114.495068 -326.222606 
L 115.112035 -328.296903 
L 115.665209 -330.371199 
L 116.158379 -332.445496 
L 116.595574 -334.519792 
L 121.825676 -334.519792 
L 121.825676 -334.519792 
L 122.262871 -332.445496 
L 122.756041 -330.371199 
L 123.309215 -328.296903 
L 123.926182 -326.222606 
L 124.61039 -324.14831 
L 125.364843 -322.074014 
L 126.191984 -319.999717 
L 127.093594 -317.925421 
L 128.070681 -315.851124 
L 129.123382 -313.776828 
L 130.250877 -311.702532 
L 131.451305 -309.628235 
L 132.721713 -307.553939 
L 134.058012 -305.479642 
L 135.454958 -303.405346 
L 136.90616 -301.33105 
L 138.404117 -299.256753 
L 139.940268 -297.182457 
L 141.505087 -295.10816 
L 143.088194 -293.033864 
L 144.678489 -290.959568 
L 146.26432 -288.885271 
L 147.833658 -286.810975 
L 149.374297 -284.736678 
L 150.874065 -282.662382 
L 152.321043 -280.588085 
L 153.703784 -278.513789 
L 155.011533 -276.439493 
L 156.234442 -274.365196 
L 157.363765 -272.2909 
L 158.392043 -270.216603 
L 159.313261 -268.142307 
L 160.122981 -266.068011 
L 160.818442 -263.993714 
L 161.398625 -261.919418 
L 161.86428 -259.845121 
L 162.217913 -257.770825 
L 162.463732 -255.696529 
L 162.607554 -253.622232 
L 162.656661 -251.547936 
L 162.61963 -249.473639 
L 162.506119 -247.399343 
L 162.326621 -245.325047 
L 162.092197 -243.25075 
L 161.814177 -241.176454 
L 161.503864 -239.102157 
L 161.17222 -237.027861 
L 160.829562 -234.953565 
L 160.485272 -232.879268 
L 160.147525 -230.804972 
L 159.823056 -228.730675 
L 159.516961 -226.656379 
L 159.232548 -224.582083 
L 158.971242 -222.507786 
L 158.732549 -220.43349 
L 158.514078 -218.359193 
L 158.311629 -216.284897 
L 158.119337 -214.210601 
L 157.929872 -212.136304 
L 157.734695 -210.062008 
L 157.524345 -207.987711 
L 157.288768 -205.913415 
L 157.017661 -203.839118 
L 156.700828 -201.764822 
L 156.328535 -199.690526 
L 155.891839 -197.616229 
L 155.382905 -195.541933 
L 154.795274 -193.467636 
L 154.124086 -191.39334 
L 153.366253 -189.319044 
L 152.520571 -187.244747 
L 151.587767 -185.170451 
L 150.570491 -183.096154 
L 149.473239 -181.021858 
L 148.302231 -178.947562 
L 147.065231 -176.873265 
L 145.771329 -174.798969 
L 144.430694 -172.724672 
L 143.054296 -170.650376 
L 141.653626 -168.57608 
L 140.240405 -166.501783 
L 138.826309 -164.427487 
L 137.422698 -162.35319 
L 136.040387 -160.278894 
L 134.689427 -158.204598 
L 133.378935 -156.130301 
L 132.116956 -154.056005 
L 130.910364 -151.981708 
L 129.764805 -149.907412 
L 128.68467 -147.833116 
L 127.673114 -145.758819 
L 126.732094 -143.684523 
L 125.862442 -141.610226 
L 125.063956 -139.53593 
L 124.335506 -137.461634 
L 123.675157 -135.387337 
L 123.080292 -133.313041 
L 122.547742 -131.238744 
L 122.073909 -129.164448 
z
" id="ma8f7562256" style="stroke:#3f3f3f;stroke-width:1.5;"/>
    </defs>
    <g clip-path="url(#p53c719fe12)">
     <use style="fill:#9fd495;stroke:#3f3f3f;stroke-width:1.5;" x="0" xlink:href="#ma8f7562256" y="375.392334"/>
    </g>
   </g>
   <g id="PolyCollection_2">
    <defs>
     <path d="M 241.416696 -127.680012 
L 235.084554 -127.680012 
L 234.636062 -129.834539 
L 234.140598 -131.989066 
L 233.595872 -134.143594 
L 232.999873 -136.298121 
L 232.350923 -138.452648 
L 231.647742 -140.607175 
L 230.889497 -142.761703 
L 230.07586 -144.91623 
L 229.207047 -147.070757 
L 228.28386 -149.225284 
L 227.307716 -151.379812 
L 226.280663 -153.534339 
L 225.205387 -155.688866 
L 224.085208 -157.843393 
L 222.924057 -159.997921 
L 221.726447 -162.152448 
L 220.497427 -164.306975 
L 219.242524 -166.461502 
L 217.967674 -168.61603 
L 216.679144 -170.770557 
L 215.383445 -172.925084 
L 214.08724 -175.079611 
L 212.797247 -177.234139 
L 211.520145 -179.388666 
L 210.262474 -181.543193 
L 209.030546 -183.69772 
L 207.830356 -185.852248 
L 206.667509 -188.006775 
L 205.547147 -190.161302 
L 204.473899 -192.315829 
L 203.451829 -194.470357 
L 202.484416 -196.624884 
L 201.57453 -198.779411 
L 200.724433 -200.933938 
L 199.935791 -203.088466 
L 199.209692 -205.242993 
L 198.546687 -207.39752 
L 197.946828 -209.552047 
L 197.409726 -211.706575 
L 196.934609 -213.861102 
L 196.520382 -216.015629 
L 196.165702 -218.170156 
L 195.869044 -220.324683 
L 195.628767 -222.479211 
L 195.443186 -224.633738 
L 195.310633 -226.788265 
L 195.229515 -228.942792 
L 195.19837 -231.09732 
L 195.215909 -233.251847 
L 195.281055 -235.406374 
L 195.39297 -237.560901 
L 195.551073 -239.715429 
L 195.75505 -241.869956 
L 196.004845 -244.024483 
L 196.300651 -246.17901 
L 196.642883 -248.333538 
L 197.032143 -250.488065 
L 197.469173 -252.642592 
L 197.954806 -254.797119 
L 198.489898 -256.951647 
L 199.075268 -259.106174 
L 199.711623 -261.260701 
L 200.399486 -263.415228 
L 201.139125 -265.569756 
L 201.930481 -267.724283 
L 202.773105 -269.87881 
L 203.666103 -272.033337 
L 204.608084 -274.187865 
L 205.597127 -276.342392 
L 206.630758 -278.496919 
L 207.705941 -280.651446 
L 208.819084 -282.805974 
L 209.966061 -284.960501 
L 211.142251 -287.115028 
L 212.342584 -289.269555 
L 213.561613 -291.424083 
L 214.79358 -293.57861 
L 216.032507 -295.733137 
L 217.272285 -297.887664 
L 218.506769 -300.042192 
L 219.729872 -302.196719 
L 220.935664 -304.351246 
L 222.118461 -306.505773 
L 223.27291 -308.660301 
L 224.394061 -310.814828 
L 225.477439 -312.969355 
L 226.519092 -315.123882 
L 227.515634 -317.278409 
L 228.464272 -319.432937 
L 229.362821 -321.587464 
L 230.209702 -323.741991 
L 231.003937 -325.896518 
L 231.745118 -328.051046 
L 232.433381 -330.205573 
L 233.069363 -332.3601 
L 233.654155 -334.514627 
L 234.189249 -336.669155 
L 234.676481 -338.823682 
L 235.117976 -340.978209 
L 241.383274 -340.978209 
L 241.383274 -340.978209 
L 241.824769 -338.823682 
L 242.312001 -336.669155 
L 242.847095 -334.514627 
L 243.431887 -332.3601 
L 244.067869 -330.205573 
L 244.756132 -328.051046 
L 245.497313 -325.896518 
L 246.291548 -323.741991 
L 247.138429 -321.587464 
L 248.036978 -319.432937 
L 248.985616 -317.278409 
L 249.982158 -315.123882 
L 251.023811 -312.969355 
L 252.107189 -310.814828 
L 253.22834 -308.660301 
L 254.382789 -306.505773 
L 255.565586 -304.351246 
L 256.771378 -302.196719 
L 257.994481 -300.042192 
L 259.228965 -297.887664 
L 260.468743 -295.733137 
L 261.70767 -293.57861 
L 262.939637 -291.424083 
L 264.158666 -289.269555 
L 265.358999 -287.115028 
L 266.535189 -284.960501 
L 267.682166 -282.805974 
L 268.795309 -280.651446 
L 269.870492 -278.496919 
L 270.904123 -276.342392 
L 271.893166 -274.187865 
L 272.835147 -272.033337 
L 273.728145 -269.87881 
L 274.570769 -267.724283 
L 275.362125 -265.569756 
L 276.101764 -263.415228 
L 276.789627 -261.260701 
L 277.425982 -259.106174 
L 278.011352 -256.951647 
L 278.546444 -254.797119 
L 279.032077 -252.642592 
L 279.469107 -250.488065 
L 279.858367 -248.333538 
L 280.200599 -246.17901 
L 280.496405 -244.024483 
L 280.7462 -241.869956 
L 280.950177 -239.715429 
L 281.10828 -237.560901 
L 281.220195 -235.406374 
L 281.285341 -233.251847 
L 281.30288 -231.09732 
L 281.271735 -228.942792 
L 281.190617 -226.788265 
L 281.058064 -224.633738 
L 280.872483 -222.479211 
L 280.632206 -220.324683 
L 280.335548 -218.170156 
L 279.980868 -216.015629 
L 279.566641 -213.861102 
L 279.091524 -211.706575 
L 278.554422 -209.552047 
L 277.954563 -207.39752 
L 277.291558 -205.242993 
L 276.565459 -203.088466 
L 275.776817 -200.933938 
L 274.92672 -198.779411 
L 274.016834 -196.624884 
L 273.049421 -194.470357 
L 272.027351 -192.315829 
L 270.954103 -190.161302 
L 269.833741 -188.006775 
L 268.670894 -185.852248 
L 267.470704 -183.69772 
L 266.238776 -181.543193 
L 264.981105 -179.388666 
L 263.704003 -177.234139 
L 262.41401 -175.079611 
L 261.117805 -172.925084 
L 259.822106 -170.770557 
L 258.533576 -168.61603 
L 257.258726 -166.461502 
L 256.003823 -164.306975 
L 254.774803 -162.152448 
L 253.577193 -159.997921 
L 252.416042 -157.843393 
L 251.295863 -155.688866 
L 250.220587 -153.534339 
L 249.193534 -151.379812 
L 248.21739 -149.225284 
L 247.294203 -147.070757 
L 246.42539 -144.91623 
L 245.611753 -142.761703 
L 244.853508 -140.607175 
L 244.150327 -138.452648 
L 243.501377 -136.298121 
L 242.905378 -134.143594 
L 242.360652 -131.989066 
L 241.865188 -129.834539 
L 241.416696 -127.680012 
z
" id="m498291bc54" style="stroke:#3f3f3f;stroke-width:1.5;"/>
    </defs>
    <g clip-path="url(#p53c719fe12)">
     <use style="fill:#c03d3e;stroke:#3f3f3f;stroke-width:1.5;" x="0" xlink:href="#m498291bc54" y="375.392334"/>
    </g>
   </g>
   <g id="PolyCollection_3">
    <defs>
     <path d="M 362.235159 -99.058209 
L 352.346091 -99.058209 
L 351.658224 -101.112684 
L 350.899904 -103.16716 
L 350.068001 -105.221635 
L 349.159887 -107.27611 
L 348.173548 -109.330586 
L 347.107683 -111.385061 
L 345.961821 -113.439536 
L 344.736411 -115.494012 
L 343.432918 -117.548487 
L 342.053907 -119.602962 
L 340.603101 -121.657438 
L 339.085434 -123.711913 
L 337.507072 -125.766388 
L 335.875422 -127.820864 
L 334.199097 -129.875339 
L 332.487873 -131.929814 
L 330.752604 -133.98429 
L 329.00511 -136.038765 
L 327.258038 -138.09324 
L 325.524697 -140.147715 
L 323.818867 -142.202191 
L 322.154583 -144.256666 
L 320.545908 -146.311141 
L 319.006687 -148.365617 
L 317.550302 -150.420092 
L 316.189415 -152.474567 
L 314.935731 -154.529043 
L 313.799758 -156.583518 
L 312.7906 -158.637993 
L 311.91576 -160.692469 
L 311.18099 -162.746944 
L 310.590163 -164.801419 
L 310.145192 -166.855895 
L 309.845991 -168.91037 
L 309.690477 -170.964845 
L 309.674625 -173.01932 
L 309.792562 -175.073796 
L 310.036703 -177.128271 
L 310.397933 -179.182746 
L 310.865818 -181.237222 
L 311.428847 -183.291697 
L 312.0747 -185.346172 
L 312.790528 -187.400648 
L 313.563242 -189.455123 
L 314.379806 -191.509598 
L 315.227518 -193.564074 
L 316.094278 -195.618549 
L 316.968835 -197.673024 
L 317.841 -199.7275 
L 318.701838 -201.781975 
L 319.543803 -203.83645 
L 320.360851 -205.890926 
L 321.148495 -207.945401 
L 321.903827 -209.999876 
L 322.625488 -212.054351 
L 323.313606 -214.108827 
L 323.969689 -216.163302 
L 324.596491 -218.217777 
L 325.197845 -220.272253 
L 325.778475 -222.326728 
L 326.343793 -224.381203 
L 326.899686 -226.435679 
L 327.452297 -228.490154 
L 328.007814 -230.544629 
L 328.572265 -232.599105 
L 329.151326 -234.65358 
L 329.750156 -236.708055 
L 330.373245 -238.762531 
L 331.024295 -240.817006 
L 331.706134 -242.871481 
L 332.420645 -244.925956 
L 333.168741 -246.980432 
L 333.950362 -249.034907 
L 334.764495 -251.089382 
L 335.609229 -253.143858 
L 336.481827 -255.198333 
L 337.378813 -257.252808 
L 338.296083 -259.307284 
L 339.229023 -261.361759 
L 340.172627 -263.416234 
L 341.121632 -265.47071 
L 342.070638 -267.525185 
L 343.014236 -269.57966 
L 343.947117 -271.634136 
L 344.864184 -273.688611 
L 345.760639 -275.743086 
L 346.632063 -277.797561 
L 347.474483 -279.852037 
L 348.284421 -281.906512 
L 349.058925 -283.960987 
L 349.795593 -286.015463 
L 350.492574 -288.069938 
L 351.148563 -290.124413 
L 351.762783 -292.178889 
L 352.334954 -294.233364 
L 352.865258 -296.287839 
L 353.354299 -298.342315 
L 353.803049 -300.39679 
L 354.212803 -302.451265 
L 360.368447 -302.451265 
L 360.368447 -302.451265 
L 360.778201 -300.39679 
L 361.226951 -298.342315 
L 361.715992 -296.287839 
L 362.246296 -294.233364 
L 362.818467 -292.178889 
L 363.432687 -290.124413 
L 364.088676 -288.069938 
L 364.785657 -286.015463 
L 365.522325 -283.960987 
L 366.296829 -281.906512 
L 367.106767 -279.852037 
L 367.949187 -277.797561 
L 368.820611 -275.743086 
L 369.717066 -273.688611 
L 370.634133 -271.634136 
L 371.567014 -269.57966 
L 372.510612 -267.525185 
L 373.459618 -265.47071 
L 374.408623 -263.416234 
L 375.352227 -261.361759 
L 376.285167 -259.307284 
L 377.202437 -257.252808 
L 378.099423 -255.198333 
L 378.972021 -253.143858 
L 379.816755 -251.089382 
L 380.630888 -249.034907 
L 381.412509 -246.980432 
L 382.160605 -244.925956 
L 382.875116 -242.871481 
L 383.556955 -240.817006 
L 384.208005 -238.762531 
L 384.831094 -236.708055 
L 385.429924 -234.65358 
L 386.008985 -232.599105 
L 386.573436 -230.544629 
L 387.128953 -228.490154 
L 387.681564 -226.435679 
L 388.237457 -224.381203 
L 388.802775 -222.326728 
L 389.383405 -220.272253 
L 389.984759 -218.217777 
L 390.611561 -216.163302 
L 391.267644 -214.108827 
L 391.955762 -212.054351 
L 392.677423 -209.999876 
L 393.432755 -207.945401 
L 394.220399 -205.890926 
L 395.037447 -203.83645 
L 395.879412 -201.781975 
L 396.74025 -199.7275 
L 397.612415 -197.673024 
L 398.486972 -195.618549 
L 399.353732 -193.564074 
L 400.201444 -191.509598 
L 401.018008 -189.455123 
L 401.790722 -187.400648 
L 402.50655 -185.346172 
L 403.152403 -183.291697 
L 403.715432 -181.237222 
L 404.183317 -179.182746 
L 404.544547 -177.128271 
L 404.788688 -175.073796 
L 404.906625 -173.01932 
L 404.890773 -170.964845 
L 404.735259 -168.91037 
L 404.436058 -166.855895 
L 403.991087 -164.801419 
L 403.40026 -162.746944 
L 402.66549 -160.692469 
L 401.79065 -158.637993 
L 400.781492 -156.583518 
L 399.645519 -154.529043 
L 398.391835 -152.474567 
L 397.030948 -150.420092 
L 395.574563 -148.365617 
L 394.035342 -146.311141 
L 392.426667 -144.256666 
L 390.762383 -142.202191 
L 389.056553 -140.147715 
L 387.323212 -138.09324 
L 385.57614 -136.038765 
L 383.828646 -133.98429 
L 382.093377 -131.929814 
L 380.382153 -129.875339 
L 378.705828 -127.820864 
L 377.074178 -125.766388 
L 375.495816 -123.711913 
L 373.978149 -121.657438 
L 372.527343 -119.602962 
L 371.148332 -117.548487 
L 369.844839 -115.494012 
L 368.619429 -113.439536 
L 367.473567 -111.385061 
L 366.407702 -109.330586 
L 365.421363 -107.27611 
L 364.513249 -105.221635 
L 363.681346 -103.16716 
L 362.923026 -101.112684 
L 362.235159 -99.058209 
z
" id="m1014ddb996" style="stroke:#3f3f3f;stroke-width:1.5;"/>
    </defs>
    <g clip-path="url(#p53c719fe12)">
     <use style="fill:#3274a1;stroke:#3f3f3f;stroke-width:1.5;" x="0" xlink:href="#m1014ddb996" y="375.392334"/>
    </g>
   </g>
   <g id="matplotlib.axis_1">
    <g id="xtick_1">
     <g id="line2d_1">
      <defs>
       <path d="M 0 0 
L 0 3.5 
" id="m5c9e509510" style="stroke:#000000;stroke-width:0.8;"/>
      </defs>
      <g>
       <use style="stroke:#000000;stroke-width:0.8;" x="119.210625" xlink:href="#m5c9e509510" y="288.430125"/>
      </g>
     </g>
     <g id="text_1">
      <!-- aflplusplus_hier_coe -->
      <g transform="translate(30.629458 352.472284)rotate(-30)scale(0.1 -0.1)">
       <defs>
        <path d="M 34.28125 27.484375 
Q 23.390625 27.484375 19.1875 25 
Q 14.984375 22.515625 14.984375 16.5 
Q 14.984375 11.71875 18.140625 8.90625 
Q 21.296875 6.109375 26.703125 6.109375 
Q 34.1875 6.109375 38.703125 11.40625 
Q 43.21875 16.703125 43.21875 25.484375 
L 43.21875 27.484375 
z
M 52.203125 31.203125 
L 52.203125 0 
L 43.21875 0 
L 43.21875 8.296875 
Q 40.140625 3.328125 35.546875 0.953125 
Q 30.953125 -1.421875 24.3125 -1.421875 
Q 15.921875 -1.421875 10.953125 3.296875 
Q 6 8.015625 6 15.921875 
Q 6 25.140625 12.171875 29.828125 
Q 18.359375 34.515625 30.609375 34.515625 
L 43.21875 34.515625 
L 43.21875 35.40625 
Q 43.21875 41.609375 39.140625 45 
Q 35.0625 48.390625 27.6875 48.390625 
Q 23 48.390625 18.546875 47.265625 
Q 14.109375 46.140625 10.015625 43.890625 
L 10.015625 52.203125 
Q 14.9375 54.109375 19.578125 55.046875 
Q 24.21875 56 28.609375 56 
Q 40.484375 56 46.34375 49.84375 
Q 52.203125 43.703125 52.203125 31.203125 
z
" id="DejaVuSans-97"/>
        <path d="M 37.109375 75.984375 
L 37.109375 68.5 
L 28.515625 68.5 
Q 23.6875 68.5 21.796875 66.546875 
Q 19.921875 64.59375 19.921875 59.515625 
L 19.921875 54.6875 
L 34.71875 54.6875 
L 34.71875 47.703125 
L 19.921875 47.703125 
L 19.921875 0 
L 10.890625 0 
L 10.890625 47.703125 
L 2.296875 47.703125 
L 2.296875 54.6875 
L 10.890625 54.6875 
L 10.890625 58.5 
Q 10.890625 67.625 15.140625 71.796875 
Q 19.390625 75.984375 28.609375 75.984375 
z
" id="DejaVuSans-102"/>
        <path d="M 9.421875 75.984375 
L 18.40625 75.984375 
L 18.40625 0 
L 9.421875 0 
z
" id="DejaVuSans-108"/>
        <path d="M 18.109375 8.203125 
L 18.109375 -20.796875 
L 9.078125 -20.796875 
L 9.078125 54.6875 
L 18.109375 54.6875 
L 18.109375 46.390625 
Q 20.953125 51.265625 25.265625 53.625 
Q 29.59375 56 35.59375 56 
Q 45.5625 56 51.78125 48.09375 
Q 58.015625 40.1875 58.015625 27.296875 
Q 58.015625 14.40625 51.78125 6.484375 
Q 45.5625 -1.421875 35.59375 -1.421875 
Q 29.59375 -1.421875 25.265625 0.953125 
Q 20.953125 3.328125 18.109375 8.203125 
z
M 48.6875 27.296875 
Q 48.6875 37.203125 44.609375 42.84375 
Q 40.53125 48.484375 33.40625 48.484375 
Q 26.265625 48.484375 22.1875 42.84375 
Q 18.109375 37.203125 18.109375 27.296875 
Q 18.109375 17.390625 22.1875 11.75 
Q 26.265625 6.109375 33.40625 6.109375 
Q 40.53125 6.109375 44.609375 11.75 
Q 48.6875 17.390625 48.6875 27.296875 
z
" id="DejaVuSans-112"/>
        <path d="M 8.5 21.578125 
L 8.5 54.6875 
L 17.484375 54.6875 
L 17.484375 21.921875 
Q 17.484375 14.15625 20.5 10.265625 
Q 23.53125 6.390625 29.59375 6.390625 
Q 36.859375 6.390625 41.078125 11.03125 
Q 45.3125 15.671875 45.3125 23.6875 
L 45.3125 54.6875 
L 54.296875 54.6875 
L 54.296875 0 
L 45.3125 0 
L 45.3125 8.40625 
Q 42.046875 3.421875 37.71875 1 
Q 33.40625 -1.421875 27.6875 -1.421875 
Q 18.265625 -1.421875 13.375 4.4375 
Q 8.5 10.296875 8.5 21.578125 
z
M 31.109375 56 
z
" id="DejaVuSans-117"/>
        <path d="M 44.28125 53.078125 
L 44.28125 44.578125 
Q 40.484375 46.53125 36.375 47.5 
Q 32.28125 48.484375 27.875 48.484375 
Q 21.1875 48.484375 17.84375 46.4375 
Q 14.5 44.390625 14.5 40.28125 
Q 14.5 37.15625 16.890625 35.375 
Q 19.28125 33.59375 26.515625 31.984375 
L 29.59375 31.296875 
Q 39.15625 29.25 43.1875 25.515625 
Q 47.21875 21.78125 47.21875 15.09375 
Q 47.21875 7.46875 41.1875 3.015625 
Q 35.15625 -1.421875 24.609375 -1.421875 
Q 20.21875 -1.421875 15.453125 -0.5625 
Q 10.6875 0.296875 5.421875 2 
L 5.421875 11.28125 
Q 10.40625 8.6875 15.234375 7.390625 
Q 20.0625 6.109375 24.8125 6.109375 
Q 31.15625 6.109375 34.5625 8.28125 
Q 37.984375 10.453125 37.984375 14.40625 
Q 37.984375 18.0625 35.515625 20.015625 
Q 33.0625 21.96875 24.703125 23.78125 
L 21.578125 24.515625 
Q 13.234375 26.265625 9.515625 29.90625 
Q 5.8125 33.546875 5.8125 39.890625 
Q 5.8125 47.609375 11.28125 51.796875 
Q 16.75 56 26.8125 56 
Q 31.78125 56 36.171875 55.265625 
Q 40.578125 54.546875 44.28125 53.078125 
z
" id="DejaVuSans-115"/>
        <path d="M 50.984375 -16.609375 
L 50.984375 -23.578125 
L -0.984375 -23.578125 
L -0.984375 -16.609375 
z
" id="DejaVuSans-95"/>
        <path d="M 54.890625 33.015625 
L 54.890625 0 
L 45.90625 0 
L 45.90625 32.71875 
Q 45.90625 40.484375 42.875 44.328125 
Q 39.84375 48.1875 33.796875 48.1875 
Q 26.515625 48.1875 22.3125 43.546875 
Q 18.109375 38.921875 18.109375 30.90625 
L 18.109375 0 
L 9.078125 0 
L 9.078125 75.984375 
L 18.109375 75.984375 
L 18.109375 46.1875 
Q 21.34375 51.125 25.703125 53.5625 
Q 30.078125 56 35.796875 56 
Q 45.21875 56 50.046875 50.171875 
Q 54.890625 44.34375 54.890625 33.015625 
z
" id="DejaVuSans-104"/>
        <path d="M 9.421875 54.6875 
L 18.40625 54.6875 
L 18.40625 0 
L 9.421875 0 
z
M 9.421875 75.984375 
L 18.40625 75.984375 
L 18.40625 64.59375 
L 9.421875 64.59375 
z
" id="DejaVuSans-105"/>
        <path d="M 56.203125 29.59375 
L 56.203125 25.203125 
L 14.890625 25.203125 
Q 15.484375 15.921875 20.484375 11.0625 
Q 25.484375 6.203125 34.421875 6.203125 
Q 39.59375 6.203125 44.453125 7.46875 
Q 49.3125 8.734375 54.109375 11.28125 
L 54.109375 2.78125 
Q 49.265625 0.734375 44.1875 -0.34375 
Q 39.109375 -1.421875 33.890625 -1.421875 
Q 20.796875 -1.421875 13.15625 6.1875 
Q 5.515625 13.8125 5.515625 26.8125 
Q 5.515625 40.234375 12.765625 48.109375 
Q 20.015625 56 32.328125 56 
Q 43.359375 56 49.78125 48.890625 
Q 56.203125 41.796875 56.203125 29.59375 
z
M 47.21875 32.234375 
Q 47.125 39.59375 43.09375 43.984375 
Q 39.0625 48.390625 32.421875 48.390625 
Q 24.90625 48.390625 20.390625 44.140625 
Q 15.875 39.890625 15.1875 32.171875 
z
" id="DejaVuSans-101"/>
        <path d="M 41.109375 46.296875 
Q 39.59375 47.171875 37.8125 47.578125 
Q 36.03125 48 33.890625 48 
Q 26.265625 48 22.1875 43.046875 
Q 18.109375 38.09375 18.109375 28.8125 
L 18.109375 0 
L 9.078125 0 
L 9.078125 54.6875 
L 18.109375 54.6875 
L 18.109375 46.1875 
Q 20.953125 51.171875 25.484375 53.578125 
Q 30.03125 56 36.53125 56 
Q 37.453125 56 38.578125 55.875 
Q 39.703125 55.765625 41.0625 55.515625 
z
" id="DejaVuSans-114"/>
        <path d="M 48.78125 52.59375 
L 48.78125 44.1875 
Q 44.96875 46.296875 41.140625 47.34375 
Q 37.3125 48.390625 33.40625 48.390625 
Q 24.65625 48.390625 19.8125 42.84375 
Q 14.984375 37.3125 14.984375 27.296875 
Q 14.984375 17.28125 19.8125 11.734375 
Q 24.65625 6.203125 33.40625 6.203125 
Q 37.3125 6.203125 41.140625 7.25 
Q 44.96875 8.296875 48.78125 10.40625 
L 48.78125 2.09375 
Q 45.015625 0.34375 40.984375 -0.53125 
Q 36.96875 -1.421875 32.421875 -1.421875 
Q 20.0625 -1.421875 12.78125 6.34375 
Q 5.515625 14.109375 5.515625 27.296875 
Q 5.515625 40.671875 12.859375 48.328125 
Q 20.21875 56 33.015625 56 
Q 37.15625 56 41.109375 55.140625 
Q 45.0625 54.296875 48.78125 52.59375 
z
" id="DejaVuSans-99"/>
        <path d="M 30.609375 48.390625 
Q 23.390625 48.390625 19.1875 42.75 
Q 14.984375 37.109375 14.984375 27.296875 
Q 14.984375 17.484375 19.15625 11.84375 
Q 23.34375 6.203125 30.609375 6.203125 
Q 37.796875 6.203125 41.984375 11.859375 
Q 46.1875 17.53125 46.1875 27.296875 
Q 46.1875 37.015625 41.984375 42.703125 
Q 37.796875 48.390625 30.609375 48.390625 
z
M 30.609375 56 
Q 42.328125 56 49.015625 48.375 
Q 55.71875 40.765625 55.71875 27.296875 
Q 55.71875 13.875 49.015625 6.21875 
Q 42.328125 -1.421875 30.609375 -1.421875 
Q 18.84375 -1.421875 12.171875 6.21875 
Q 5.515625 13.875 5.515625 27.296875 
Q 5.515625 40.765625 12.171875 48.375 
Q 18.84375 56 30.609375 56 
z
" id="DejaVuSans-111"/>
       </defs>
       <use xlink:href="#DejaVuSans-97"/>
       <use x="61.279297" xlink:href="#DejaVuSans-102"/>
       <use x="96.484375" xlink:href="#DejaVuSans-108"/>
       <use x="124.267578" xlink:href="#DejaVuSans-112"/>
       <use x="187.744141" xlink:href="#DejaVuSans-108"/>
       <use x="215.527344" xlink:href="#DejaVuSans-117"/>
       <use x="278.90625" xlink:href="#DejaVuSans-115"/>
       <use x="331.005859" xlink:href="#DejaVuSans-112"/>
       <use x="394.482422" xlink:href="#DejaVuSans-108"/>
       <use x="422.265625" xlink:href="#DejaVuSans-117"/>
       <use x="485.644531" xlink:href="#DejaVuSans-115"/>
       <use x="537.744141" xlink:href="#DejaVuSans-95"/>
       <use x="587.744141" xlink:href="#DejaVuSans-104"/>
       <use x="651.123047" xlink:href="#DejaVuSans-105"/>
       <use x="678.90625" xlink:href="#DejaVuSans-101"/>
       <use x="740.429688" xlink:href="#DejaVuSans-114"/>
       <use x="781.542969" xlink:href="#DejaVuSans-95"/>
       <use x="831.542969" xlink:href="#DejaVuSans-99"/>
       <use x="886.523438" xlink:href="#DejaVuSans-111"/>
       <use x="947.705078" xlink:href="#DejaVuSans-101"/>
      </g>
     </g>
    </g>
    <g id="xtick_2">
     <g id="line2d_2">
      <g>
       <use style="stroke:#000000;stroke-width:0.8;" x="238.250625" xlink:href="#m5c9e509510" y="288.430125"/>
      </g>
     </g>
     <g id="text_2">
      <!-- aflplusplus_hier_x -->
      <g transform="translate(159.933212 346.546502)rotate(-30)scale(0.1 -0.1)">
       <defs>
        <path d="M 54.890625 54.6875 
L 35.109375 28.078125 
L 55.90625 0 
L 45.3125 0 
L 29.390625 21.484375 
L 13.484375 0 
L 2.875 0 
L 24.125 28.609375 
L 4.6875 54.6875 
L 15.28125 54.6875 
L 29.78125 35.203125 
L 44.28125 54.6875 
z
" id="DejaVuSans-120"/>
       </defs>
       <use xlink:href="#DejaVuSans-97"/>
       <use x="61.279297" xlink:href="#DejaVuSans-102"/>
       <use x="96.484375" xlink:href="#DejaVuSans-108"/>
       <use x="124.267578" xlink:href="#DejaVuSans-112"/>
       <use x="187.744141" xlink:href="#DejaVuSans-108"/>
       <use x="215.527344" xlink:href="#DejaVuSans-117"/>
       <use x="278.90625" xlink:href="#DejaVuSans-115"/>
       <use x="331.005859" xlink:href="#DejaVuSans-112"/>
       <use x="394.482422" xlink:href="#DejaVuSans-108"/>
       <use x="422.265625" xlink:href="#DejaVuSans-117"/>
       <use x="485.644531" xlink:href="#DejaVuSans-115"/>
       <use x="537.744141" xlink:href="#DejaVuSans-95"/>
       <use x="587.744141" xlink:href="#DejaVuSans-104"/>
       <use x="651.123047" xlink:href="#DejaVuSans-105"/>
       <use x="678.90625" xlink:href="#DejaVuSans-101"/>
       <use x="740.429688" xlink:href="#DejaVuSans-114"/>
       <use x="781.542969" xlink:href="#DejaVuSans-95"/>
       <use x="831.542969" xlink:href="#DejaVuSans-120"/>
      </g>
     </g>
    </g>
    <g id="xtick_3">
     <g id="line2d_3">
      <g>
       <use style="stroke:#000000;stroke-width:0.8;" x="357.290625" xlink:href="#m5c9e509510" y="288.430125"/>
      </g>
     </g>
     <g id="text_3">
      <!-- aflplusplus_hier -->
      <g transform="translate(288.429127 341.087127)rotate(-30)scale(0.1 -0.1)">
       <use xlink:href="#DejaVuSans-97"/>
       <use x="61.279297" xlink:href="#DejaVuSans-102"/>
       <use x="96.484375" xlink:href="#DejaVuSans-108"/>
       <use x="124.267578" xlink:href="#DejaVuSans-112"/>
       <use x="187.744141" xlink:href="#DejaVuSans-108"/>
       <use x="215.527344" xlink:href="#DejaVuSans-117"/>
       <use x="278.90625" xlink:href="#DejaVuSans-115"/>
       <use x="331.005859" xlink:href="#DejaVuSans-112"/>
       <use x="394.482422" xlink:href="#DejaVuSans-108"/>
       <use x="422.265625" xlink:href="#DejaVuSans-117"/>
       <use x="485.644531" xlink:href="#DejaVuSans-115"/>
       <use x="537.744141" xlink:href="#DejaVuSans-95"/>
       <use x="587.744141" xlink:href="#DejaVuSans-104"/>
       <use x="651.123047" xlink:href="#DejaVuSans-105"/>
       <use x="678.90625" xlink:href="#DejaVuSans-101"/>
       <use x="740.429688" xlink:href="#DejaVuSans-114"/>
      </g>
     </g>
    </g>
    <g id="text_4">
     <!-- Fuzzer (highest median coverage on the left) -->
     <g transform="translate(125.632656 366.112647)scale(0.1 -0.1)">
      <defs>
       <path d="M 9.8125 72.90625 
L 51.703125 72.90625 
L 51.703125 64.59375 
L 19.671875 64.59375 
L 19.671875 43.109375 
L 48.578125 43.109375 
L 48.578125 34.8125 
L 19.671875 34.8125 
L 19.671875 0 
L 9.8125 0 
z
" id="DejaVuSans-70"/>
       <path d="M 5.515625 54.6875 
L 48.1875 54.6875 
L 48.1875 46.484375 
L 14.40625 7.171875 
L 48.1875 7.171875 
L 48.1875 0 
L 4.296875 0 
L 4.296875 8.203125 
L 38.09375 47.515625 
L 5.515625 47.515625 
z
" id="DejaVuSans-122"/>
       <path id="DejaVuSans-32"/>
       <path d="M 31 75.875 
Q 24.46875 64.65625 21.28125 53.65625 
Q 18.109375 42.671875 18.109375 31.390625 
Q 18.109375 20.125 21.3125 9.0625 
Q 24.515625 -2 31 -13.1875 
L 23.1875 -13.1875 
Q 15.875 -1.703125 12.234375 9.375 
Q 8.59375 20.453125 8.59375 31.390625 
Q 8.59375 42.28125 12.203125 53.3125 
Q 15.828125 64.359375 23.1875 75.875 
z
" id="DejaVuSans-40"/>
       <path d="M 45.40625 27.984375 
Q 45.40625 37.75 41.375 43.109375 
Q 37.359375 48.484375 30.078125 48.484375 
Q 22.859375 48.484375 18.828125 43.109375 
Q 14.796875 37.75 14.796875 27.984375 
Q 14.796875 18.265625 18.828125 12.890625 
Q 22.859375 7.515625 30.078125 7.515625 
Q 37.359375 7.515625 41.375 12.890625 
Q 45.40625 18.265625 45.40625 27.984375 
z
M 54.390625 6.78125 
Q 54.390625 -7.171875 48.1875 -13.984375 
Q 42 -20.796875 29.203125 -20.796875 
Q 24.46875 -20.796875 20.265625 -20.09375 
Q 16.0625 -19.390625 12.109375 -17.921875 
L 12.109375 -9.1875 
Q 16.0625 -11.328125 19.921875 -12.34375 
Q 23.78125 -13.375 27.78125 -13.375 
Q 36.625 -13.375 41.015625 -8.765625 
Q 45.40625 -4.15625 45.40625 5.171875 
L 45.40625 9.625 
Q 42.625 4.78125 38.28125 2.390625 
Q 33.9375 0 27.875 0 
Q 17.828125 0 11.671875 7.65625 
Q 5.515625 15.328125 5.515625 27.984375 
Q 5.515625 40.671875 11.671875 48.328125 
Q 17.828125 56 27.875 56 
Q 33.9375 56 38.28125 53.609375 
Q 42.625 51.21875 45.40625 46.390625 
L 45.40625 54.6875 
L 54.390625 54.6875 
z
" id="DejaVuSans-103"/>
       <path d="M 18.3125 70.21875 
L 18.3125 54.6875 
L 36.8125 54.6875 
L 36.8125 47.703125 
L 18.3125 47.703125 
L 18.3125 18.015625 
Q 18.3125 11.328125 20.140625 9.421875 
Q 21.96875 7.515625 27.59375 7.515625 
L 36.8125 7.515625 
L 36.8125 0 
L 27.59375 0 
Q 17.1875 0 13.234375 3.875 
Q 9.28125 7.765625 9.28125 18.015625 
L 9.28125 47.703125 
L 2.6875 47.703125 
L 2.6875 54.6875 
L 9.28125 54.6875 
L 9.28125 70.21875 
z
" id="DejaVuSans-116"/>
       <path d="M 52 44.1875 
Q 55.375 50.25 60.0625 53.125 
Q 64.75 56 71.09375 56 
Q 79.640625 56 84.28125 50.015625 
Q 88.921875 44.046875 88.921875 33.015625 
L 88.921875 0 
L 79.890625 0 
L 79.890625 32.71875 
Q 79.890625 40.578125 77.09375 44.375 
Q 74.3125 48.1875 68.609375 48.1875 
Q 61.625 48.1875 57.5625 43.546875 
Q 53.515625 38.921875 53.515625 30.90625 
L 53.515625 0 
L 44.484375 0 
L 44.484375 32.71875 
Q 44.484375 40.625 41.703125 44.40625 
Q 38.921875 48.1875 33.109375 48.1875 
Q 26.21875 48.1875 22.15625 43.53125 
Q 18.109375 38.875 18.109375 30.90625 
L 18.109375 0 
L 9.078125 0 
L 9.078125 54.6875 
L 18.109375 54.6875 
L 18.109375 46.1875 
Q 21.1875 51.21875 25.484375 53.609375 
Q 29.78125 56 35.6875 56 
Q 41.65625 56 45.828125 52.96875 
Q 50 49.953125 52 44.1875 
z
" id="DejaVuSans-109"/>
       <path d="M 45.40625 46.390625 
L 45.40625 75.984375 
L 54.390625 75.984375 
L 54.390625 0 
L 45.40625 0 
L 45.40625 8.203125 
Q 42.578125 3.328125 38.25 0.953125 
Q 33.9375 -1.421875 27.875 -1.421875 
Q 17.96875 -1.421875 11.734375 6.484375 
Q 5.515625 14.40625 5.515625 27.296875 
Q 5.515625 40.1875 11.734375 48.09375 
Q 17.96875 56 27.875 56 
Q 33.9375 56 38.25 53.625 
Q 42.578125 51.265625 45.40625 46.390625 
z
M 14.796875 27.296875 
Q 14.796875 17.390625 18.875 11.75 
Q 22.953125 6.109375 30.078125 6.109375 
Q 37.203125 6.109375 41.296875 11.75 
Q 45.40625 17.390625 45.40625 27.296875 
Q 45.40625 37.203125 41.296875 42.84375 
Q 37.203125 48.484375 30.078125 48.484375 
Q 22.953125 48.484375 18.875 42.84375 
Q 14.796875 37.203125 14.796875 27.296875 
z
" id="DejaVuSans-100"/>
       <path d="M 54.890625 33.015625 
L 54.890625 0 
L 45.90625 0 
L 45.90625 32.71875 
Q 45.90625 40.484375 42.875 44.328125 
Q 39.84375 48.1875 33.796875 48.1875 
Q 26.515625 48.1875 22.3125 43.546875 
Q 18.109375 38.921875 18.109375 30.90625 
L 18.109375 0 
L 9.078125 0 
L 9.078125 54.6875 
L 18.109375 54.6875 
L 18.109375 46.1875 
Q 21.34375 51.125 25.703125 53.5625 
Q 30.078125 56 35.796875 56 
Q 45.21875 56 50.046875 50.171875 
Q 54.890625 44.34375 54.890625 33.015625 
z
" id="DejaVuSans-110"/>
       <path d="M 2.984375 54.6875 
L 12.5 54.6875 
L 29.59375 8.796875 
L 46.6875 54.6875 
L 56.203125 54.6875 
L 35.6875 0 
L 23.484375 0 
z
" id="DejaVuSans-118"/>
       <path d="M 8.015625 75.875 
L 15.828125 75.875 
Q 23.140625 64.359375 26.78125 53.3125 
Q 30.421875 42.28125 30.421875 31.390625 
Q 30.421875 20.453125 26.78125 9.375 
Q 23.140625 -1.703125 15.828125 -13.1875 
L 8.015625 -13.1875 
Q 14.5 -2 17.703125 9.0625 
Q 20.90625 20.125 20.90625 31.390625 
Q 20.90625 42.671875 17.703125 53.65625 
Q 14.5 64.65625 8.015625 75.875 
z
" id="DejaVuSans-41"/>
      </defs>
      <use xlink:href="#DejaVuSans-70"/>
      <use x="52.019531" xlink:href="#DejaVuSans-117"/>
      <use x="115.398438" xlink:href="#DejaVuSans-122"/>
      <use x="167.888672" xlink:href="#DejaVuSans-122"/>
      <use x="220.378906" xlink:href="#DejaVuSans-101"/>
      <use x="281.902344" xlink:href="#DejaVuSans-114"/>
      <use x="323.015625" xlink:href="#DejaVuSans-32"/>
      <use x="354.802734" xlink:href="#DejaVuSans-40"/>
      <use x="393.816406" xlink:href="#DejaVuSans-104"/>
      <use x="457.195312" xlink:href="#DejaVuSans-105"/>
      <use x="484.978516" xlink:href="#DejaVuSans-103"/>
      <use x="548.455078" xlink:href="#DejaVuSans-104"/>
      <use x="611.833984" xlink:href="#DejaVuSans-101"/>
      <use x="673.357422" xlink:href="#DejaVuSans-115"/>
      <use x="725.457031" xlink:href="#DejaVuSans-116"/>
      <use x="764.666016" xlink:href="#DejaVuSans-32"/>
      <use x="796.453125" xlink:href="#DejaVuSans-109"/>
      <use x="893.865234" xlink:href="#DejaVuSans-101"/>
      <use x="955.388672" xlink:href="#DejaVuSans-100"/>
      <use x="1018.865234" xlink:href="#DejaVuSans-105"/>
      <use x="1046.648438" xlink:href="#DejaVuSans-97"/>
      <use x="1107.927734" xlink:href="#DejaVuSans-110"/>
      <use x="1171.306641" xlink:href="#DejaVuSans-32"/>
      <use x="1203.09375" xlink:href="#DejaVuSans-99"/>
      <use x="1258.074219" xlink:href="#DejaVuSans-111"/>
      <use x="1319.255859" xlink:href="#DejaVuSans-118"/>
      <use x="1378.435547" xlink:href="#DejaVuSans-101"/>
      <use x="1439.958984" xlink:href="#DejaVuSans-114"/>
      <use x="1481.072266" xlink:href="#DejaVuSans-97"/>
      <use x="1542.351562" xlink:href="#DejaVuSans-103"/>
      <use x="1605.828125" xlink:href="#DejaVuSans-101"/>
      <use x="1667.351562" xlink:href="#DejaVuSans-32"/>
      <use x="1699.138672" xlink:href="#DejaVuSans-111"/>
      <use x="1760.320312" xlink:href="#DejaVuSans-110"/>
      <use x="1823.699219" xlink:href="#DejaVuSans-32"/>
      <use x="1855.486328" xlink:href="#DejaVuSans-116"/>
      <use x="1894.695312" xlink:href="#DejaVuSans-104"/>
      <use x="1958.074219" xlink:href="#DejaVuSans-101"/>
      <use x="2019.597656" xlink:href="#DejaVuSans-32"/>
      <use x="2051.384766" xlink:href="#DejaVuSans-108"/>
      <use x="2079.167969" xlink:href="#DejaVuSans-101"/>
      <use x="2140.691406" xlink:href="#DejaVuSans-102"/>
      <use x="2174.146484" xlink:href="#DejaVuSans-116"/>
      <use x="2213.355469" xlink:href="#DejaVuSans-41"/>
     </g>
    </g>
   </g>
   <g id="matplotlib.axis_2">
    <g id="ytick_1">
     <g id="line2d_4">
      <defs>
       <path d="M 0 0 
L -3.5 0 
" id="m8b60407fab" style="stroke:#000000;stroke-width:0.8;"/>
      </defs>
      <g>
       <use style="stroke:#000000;stroke-width:0.8;" x="59.690625" xlink:href="#m8b60407fab" y="249.355446"/>
      </g>
     </g>
     <g id="text_5">
      <!-- 18500 -->
      <g transform="translate(20.878125 253.154664)scale(0.1 -0.1)">
       <defs>
        <path d="M 12.40625 8.296875 
L 28.515625 8.296875 
L 28.515625 63.921875 
L 10.984375 60.40625 
L 10.984375 69.390625 
L 28.421875 72.90625 
L 38.28125 72.90625 
L 38.28125 8.296875 
L 54.390625 8.296875 
L 54.390625 0 
L 12.40625 0 
z
" id="DejaVuSans-49"/>
        <path d="M 31.78125 34.625 
Q 24.75 34.625 20.71875 30.859375 
Q 16.703125 27.09375 16.703125 20.515625 
Q 16.703125 13.921875 20.71875 10.15625 
Q 24.75 6.390625 31.78125 6.390625 
Q 38.8125 6.390625 42.859375 10.171875 
Q 46.921875 13.96875 46.921875 20.515625 
Q 46.921875 27.09375 42.890625 30.859375 
Q 38.875 34.625 31.78125 34.625 
z
M 21.921875 38.8125 
Q 15.578125 40.375 12.03125 44.71875 
Q 8.5 49.078125 8.5 55.328125 
Q 8.5 64.0625 14.71875 69.140625 
Q 20.953125 74.21875 31.78125 74.21875 
Q 42.671875 74.21875 48.875 69.140625 
Q 55.078125 64.0625 55.078125 55.328125 
Q 55.078125 49.078125 51.53125 44.71875 
Q 48 40.375 41.703125 38.8125 
Q 48.828125 37.15625 52.796875 32.3125 
Q 56.78125 27.484375 56.78125 20.515625 
Q 56.78125 9.90625 50.3125 4.234375 
Q 43.84375 -1.421875 31.78125 -1.421875 
Q 19.734375 -1.421875 13.25 4.234375 
Q 6.78125 9.90625 6.78125 20.515625 
Q 6.78125 27.484375 10.78125 32.3125 
Q 14.796875 37.15625 21.921875 38.8125 
z
M 18.3125 54.390625 
Q 18.3125 48.734375 21.84375 45.5625 
Q 25.390625 42.390625 31.78125 42.390625 
Q 38.140625 42.390625 41.71875 45.5625 
Q 45.3125 48.734375 45.3125 54.390625 
Q 45.3125 60.0625 41.71875 63.234375 
Q 38.140625 66.40625 31.78125 66.40625 
Q 25.390625 66.40625 21.84375 63.234375 
Q 18.3125 60.0625 18.3125 54.390625 
z
" id="DejaVuSans-56"/>
        <path d="M 10.796875 72.90625 
L 49.515625 72.90625 
L 49.515625 64.59375 
L 19.828125 64.59375 
L 19.828125 46.734375 
Q 21.96875 47.46875 24.109375 47.828125 
Q 26.265625 48.1875 28.421875 48.1875 
Q 40.625 48.1875 47.75 41.5 
Q 54.890625 34.8125 54.890625 23.390625 
Q 54.890625 11.625 47.5625 5.09375 
Q 40.234375 -1.421875 26.90625 -1.421875 
Q 22.3125 -1.421875 17.546875 -0.640625 
Q 12.796875 0.140625 7.71875 1.703125 
L 7.71875 11.625 
Q 12.109375 9.234375 16.796875 8.0625 
Q 21.484375 6.890625 26.703125 6.890625 
Q 35.15625 6.890625 40.078125 11.328125 
Q 45.015625 15.765625 45.015625 23.390625 
Q 45.015625 31 40.078125 35.4375 
Q 35.15625 39.890625 26.703125 39.890625 
Q 22.75 39.890625 18.8125 39.015625 
Q 14.890625 38.140625 10.796875 36.28125 
z
" id="DejaVuSans-53"/>
        <path d="M 31.78125 66.40625 
Q 24.171875 66.40625 20.328125 58.90625 
Q 16.5 51.421875 16.5 36.375 
Q 16.5 21.390625 20.328125 13.890625 
Q 24.171875 6.390625 31.78125 6.390625 
Q 39.453125 6.390625 43.28125 13.890625 
Q 47.125 21.390625 47.125 36.375 
Q 47.125 51.421875 43.28125 58.90625 
Q 39.453125 66.40625 31.78125 66.40625 
z
M 31.78125 74.21875 
Q 44.046875 74.21875 50.515625 64.515625 
Q 56.984375 54.828125 56.984375 36.375 
Q 56.984375 17.96875 50.515625 8.265625 
Q 44.046875 -1.421875 31.78125 -1.421875 
Q 19.53125 -1.421875 13.0625 8.265625 
Q 6.59375 17.96875 6.59375 36.375 
Q 6.59375 54.828125 13.0625 64.515625 
Q 19.53125 74.21875 31.78125 74.21875 
z
" id="DejaVuSans-48"/>
       </defs>
       <use xlink:href="#DejaVuSans-49"/>
       <use x="63.623047" xlink:href="#DejaVuSans-56"/>
       <use x="127.246094" xlink:href="#DejaVuSans-53"/>
       <use x="190.869141" xlink:href="#DejaVuSans-48"/>
       <use x="254.492188" xlink:href="#DejaVuSans-48"/>
      </g>
     </g>
    </g>
    <g id="ytick_2">
     <g id="line2d_5">
      <g>
       <use style="stroke:#000000;stroke-width:0.8;" x="59.690625" xlink:href="#m8b60407fab" y="195.290432"/>
      </g>
     </g>
     <g id="text_6">
      <!-- 19000 -->
      <g transform="translate(20.878125 199.089651)scale(0.1 -0.1)">
       <defs>
        <path d="M 10.984375 1.515625 
L 10.984375 10.5 
Q 14.703125 8.734375 18.5 7.8125 
Q 22.3125 6.890625 25.984375 6.890625 
Q 35.75 6.890625 40.890625 13.453125 
Q 46.046875 20.015625 46.78125 33.40625 
Q 43.953125 29.203125 39.59375 26.953125 
Q 35.25 24.703125 29.984375 24.703125 
Q 19.046875 24.703125 12.671875 31.3125 
Q 6.296875 37.9375 6.296875 49.421875 
Q 6.296875 60.640625 12.9375 67.421875 
Q 19.578125 74.21875 30.609375 74.21875 
Q 43.265625 74.21875 49.921875 64.515625 
Q 56.59375 54.828125 56.59375 36.375 
Q 56.59375 19.140625 48.40625 8.859375 
Q 40.234375 -1.421875 26.421875 -1.421875 
Q 22.703125 -1.421875 18.890625 -0.6875 
Q 15.09375 0.046875 10.984375 1.515625 
z
M 30.609375 32.421875 
Q 37.25 32.421875 41.125 36.953125 
Q 45.015625 41.5 45.015625 49.421875 
Q 45.015625 57.28125 41.125 61.84375 
Q 37.25 66.40625 30.609375 66.40625 
Q 23.96875 66.40625 20.09375 61.84375 
Q 16.21875 57.28125 16.21875 49.421875 
Q 16.21875 41.5 20.09375 36.953125 
Q 23.96875 32.421875 30.609375 32.421875 
z
" id="DejaVuSans-57"/>
       </defs>
       <use xlink:href="#DejaVuSans-49"/>
       <use x="63.623047" xlink:href="#DejaVuSans-57"/>
       <use x="127.246094" xlink:href="#DejaVuSans-48"/>
       <use x="190.869141" xlink:href="#DejaVuSans-48"/>
       <use x="254.492188" xlink:href="#DejaVuSans-48"/>
      </g>
     </g>
    </g>
    <g id="ytick_3">
     <g id="line2d_6">
      <g>
       <use style="stroke:#000000;stroke-width:0.8;" x="59.690625" xlink:href="#m8b60407fab" y="141.225419"/>
      </g>
     </g>
     <g id="text_7">
      <!-- 19500 -->
      <g transform="translate(20.878125 145.024637)scale(0.1 -0.1)">
       <use xlink:href="#DejaVuSans-49"/>
       <use x="63.623047" xlink:href="#DejaVuSans-57"/>
       <use x="127.246094" xlink:href="#DejaVuSans-53"/>
       <use x="190.869141" xlink:href="#DejaVuSans-48"/>
       <use x="254.492188" xlink:href="#DejaVuSans-48"/>
      </g>
     </g>
    </g>
    <g id="ytick_4">
     <g id="line2d_7">
      <g>
       <use style="stroke:#000000;stroke-width:0.8;" x="59.690625" xlink:href="#m8b60407fab" y="87.160405"/>
      </g>
     </g>
     <g id="text_8">
      <!-- 20000 -->
      <g transform="translate(20.878125 90.959624)scale(0.1 -0.1)">
       <defs>
        <path d="M 19.1875 8.296875 
L 53.609375 8.296875 
L 53.609375 0 
L 7.328125 0 
L 7.328125 8.296875 
Q 12.9375 14.109375 22.625 23.890625 
Q 32.328125 33.6875 34.8125 36.53125 
Q 39.546875 41.84375 41.421875 45.53125 
Q 43.3125 49.21875 43.3125 52.78125 
Q 43.3125 58.59375 39.234375 62.25 
Q 35.15625 65.921875 28.609375 65.921875 
Q 23.96875 65.921875 18.8125 64.3125 
Q 13.671875 62.703125 7.8125 59.421875 
L 7.8125 69.390625 
Q 13.765625 71.78125 18.9375 73 
Q 24.125 74.21875 28.421875 74.21875 
Q 39.75 74.21875 46.484375 68.546875 
Q 53.21875 62.890625 53.21875 53.421875 
Q 53.21875 48.921875 51.53125 44.890625 
Q 49.859375 40.875 45.40625 35.40625 
Q 44.1875 33.984375 37.640625 27.21875 
Q 31.109375 20.453125 19.1875 8.296875 
z
" id="DejaVuSans-50"/>
       </defs>
       <use xlink:href="#DejaVuSans-50"/>
       <use x="63.623047" xlink:href="#DejaVuSans-48"/>
       <use x="127.246094" xlink:href="#DejaVuSans-48"/>
       <use x="190.869141" xlink:href="#DejaVuSans-48"/>
       <use x="254.492188" xlink:href="#DejaVuSans-48"/>
      </g>
     </g>
    </g>
    <g id="ytick_5">
     <g id="line2d_8">
      <g>
       <use style="stroke:#000000;stroke-width:0.8;" x="59.690625" xlink:href="#m8b60407fab" y="33.095392"/>
      </g>
     </g>
     <g id="text_9">
      <!-- 20500 -->
      <g transform="translate(20.878125 36.894611)scale(0.1 -0.1)">
       <use xlink:href="#DejaVuSans-50"/>
       <use x="63.623047" xlink:href="#DejaVuSans-48"/>
       <use x="127.246094" xlink:href="#DejaVuSans-53"/>
       <use x="190.869141" xlink:href="#DejaVuSans-48"/>
       <use x="254.492188" xlink:href="#DejaVuSans-48"/>
      </g>
     </g>
    </g>
    <g id="text_10">
     <!-- Reached region coverage -->
     <g transform="translate(14.798438 219.136625)rotate(-90)scale(0.1 -0.1)">
      <defs>
       <path d="M 44.390625 34.1875 
Q 47.5625 33.109375 50.5625 29.59375 
Q 53.5625 26.078125 56.59375 19.921875 
L 66.609375 0 
L 56 0 
L 46.6875 18.703125 
Q 43.0625 26.03125 39.671875 28.421875 
Q 36.28125 30.8125 30.421875 30.8125 
L 19.671875 30.8125 
L 19.671875 0 
L 9.8125 0 
L 9.8125 72.90625 
L 32.078125 72.90625 
Q 44.578125 72.90625 50.734375 67.671875 
Q 56.890625 62.453125 56.890625 51.90625 
Q 56.890625 45.015625 53.6875 40.46875 
Q 50.484375 35.9375 44.390625 34.1875 
z
M 19.671875 64.796875 
L 19.671875 38.921875 
L 32.078125 38.921875 
Q 39.203125 38.921875 42.84375 42.21875 
Q 46.484375 45.515625 46.484375 51.90625 
Q 46.484375 58.296875 42.84375 61.546875 
Q 39.203125 64.796875 32.078125 64.796875 
z
" id="DejaVuSans-82"/>
      </defs>
      <use xlink:href="#DejaVuSans-82"/>
      <use x="64.982422" xlink:href="#DejaVuSans-101"/>
      <use x="126.505859" xlink:href="#DejaVuSans-97"/>
      <use x="187.785156" xlink:href="#DejaVuSans-99"/>
      <use x="242.765625" xlink:href="#DejaVuSans-104"/>
      <use x="306.144531" xlink:href="#DejaVuSans-101"/>
      <use x="367.667969" xlink:href="#DejaVuSans-100"/>
      <use x="431.144531" xlink:href="#DejaVuSans-32"/>
      <use x="462.931641" xlink:href="#DejaVuSans-114"/>
      <use x="501.794922" xlink:href="#DejaVuSans-101"/>
      <use x="563.318359" xlink:href="#DejaVuSans-103"/>
      <use x="626.794922" xlink:href="#DejaVuSans-105"/>
      <use x="654.578125" xlink:href="#DejaVuSans-111"/>
      <use x="715.759766" xlink:href="#DejaVuSans-110"/>
      <use x="779.138672" xlink:href="#DejaVuSans-32"/>
      <use x="810.925781" xlink:href="#DejaVuSans-99"/>
      <use x="865.90625" xlink:href="#DejaVuSans-111"/>
      <use x="927.087891" xlink:href="#DejaVuSans-118"/>
      <use x="986.267578" xlink:href="#DejaVuSans-101"/>
      <use x="1047.791016" xlink:href="#DejaVuSans-114"/>
      <use x="1088.904297" xlink:href="#DejaVuSans-97"/>
      <use x="1150.183594" xlink:href="#DejaVuSans-103"/>
      <use x="1213.660156" xlink:href="#DejaVuSans-101"/>
     </g>
    </g>
   </g>
   <g id="line2d_9">
    <path clip-path="url(#p53c719fe12)" d="M 119.210625 189.559541 
L 119.210625 97.540888 
" style="fill:none;stroke:#3f3f3f;stroke-linecap:square;stroke-width:1.5;"/>
   </g>
   <g id="line2d_10">
    <path clip-path="url(#p53c719fe12)" d="M 119.210625 176.367677 
L 119.210625 116.463642 
" style="fill:none;stroke:#3f3f3f;stroke-linecap:square;stroke-width:4.5;"/>
   </g>
   <g id="line2d_11">
    <path clip-path="url(#p53c719fe12)" d="M 238.250625 181.990439 
L 238.250625 100.136008 
" style="fill:none;stroke:#3f3f3f;stroke-linecap:square;stroke-width:1.5;"/>
   </g>
   <g id="line2d_12">
    <path clip-path="url(#p53c719fe12)" d="M 238.250625 162.256709 
L 238.250625 121.329494 
" style="fill:none;stroke:#3f3f3f;stroke-linecap:square;stroke-width:4.5;"/>
   </g>
   <g id="line2d_13">
    <path clip-path="url(#p53c719fe12)" d="M 357.290625 211.401806 
L 357.290625 137.873388 
" style="fill:none;stroke:#3f3f3f;stroke-linecap:square;stroke-width:1.5;"/>
   </g>
   <g id="line2d_14">
    <path clip-path="url(#p53c719fe12)" d="M 357.290625 207.617255 
L 357.290625 170.853046 
" style="fill:none;stroke:#3f3f3f;stroke-linecap:square;stroke-width:4.5;"/>
   </g>
   <g id="patch_3">
    <path d="M 59.690625 249.355446 
L 59.690625 33.095392 
" style="fill:none;stroke:#000000;stroke-linecap:square;stroke-linejoin:miter;stroke-width:0.8;"/>
   </g>
   <g id="patch_4">
    <path d="M 119.210625 288.430125 
L 357.290625 288.430125 
" style="fill:none;stroke:#000000;stroke-linecap:square;stroke-linejoin:miter;stroke-width:0.8;"/>
   </g>
   <g id="PathCollection_1">
    <defs>
     <path d="M 0 1.5 
C 0.397805 1.5 0.77937 1.341951 1.06066 1.06066 
C 1.341951 0.77937 1.5 0.397805 1.5 0 
C 1.5 -0.397805 1.341951 -0.77937 1.06066 -1.06066 
C 0.77937 -1.341951 0.397805 -1.5 0 -1.5 
C -0.397805 -1.5 -0.77937 -1.341951 -1.06066 -1.06066 
C -1.341951 -0.77937 -1.5 -0.397805 -1.5 0 
C -1.5 0.397805 -1.341951 0.77937 -1.06066 1.06066 
C -0.77937 1.341951 -0.397805 1.5 0 1.5 
z
" id="m879521d9e9" style="stroke:#3f3f3f;"/>
    </defs>
    <g clip-path="url(#p53c719fe12)">
     <use style="fill:#ffffff;stroke:#3f3f3f;" x="119.210625" xlink:href="#m879521d9e9" y="135.170137"/>
    </g>
   </g>
   <g id="PathCollection_2">
    <g clip-path="url(#p53c719fe12)">
     <use style="fill:#ffffff;stroke:#3f3f3f;" x="238.250625" xlink:href="#m879521d9e9" y="142.522979"/>
    </g>
   </g>
   <g id="PathCollection_3">
    <g clip-path="url(#p53c719fe12)">
     <use style="fill:#ffffff;stroke:#3f3f3f;" x="357.290625" xlink:href="#m879521d9e9" y="203.832704"/>
    </g>
   </g>
   <g id="text_11">
    <!-- sqlite3_ossfuzz (2h, 3 trials/fuzzer) -->
    <g transform="translate(133.890938 16.318125)scale(0.12 -0.12)">
     <defs>
      <path d="M 14.796875 27.296875 
Q 14.796875 17.390625 18.875 11.75 
Q 22.953125 6.109375 30.078125 6.109375 
Q 37.203125 6.109375 41.296875 11.75 
Q 45.40625 17.390625 45.40625 27.296875 
Q 45.40625 37.203125 41.296875 42.84375 
Q 37.203125 48.484375 30.078125 48.484375 
Q 22.953125 48.484375 18.875 42.84375 
Q 14.796875 37.203125 14.796875 27.296875 
z
M 45.40625 8.203125 
Q 42.578125 3.328125 38.25 0.953125 
Q 33.9375 -1.421875 27.875 -1.421875 
Q 17.96875 -1.421875 11.734375 6.484375 
Q 5.515625 14.40625 5.515625 27.296875 
Q 5.515625 40.1875 11.734375 48.09375 
Q 17.96875 56 27.875 56 
Q 33.9375 56 38.25 53.625 
Q 42.578125 51.265625 45.40625 46.390625 
L 45.40625 54.6875 
L 54.390625 54.6875 
L 54.390625 -20.796875 
L 45.40625 -20.796875 
z
" id="DejaVuSans-113"/>
      <path d="M 40.578125 39.3125 
Q 47.65625 37.796875 51.625 33 
Q 55.609375 28.21875 55.609375 21.1875 
Q 55.609375 10.40625 48.1875 4.484375 
Q 40.765625 -1.421875 27.09375 -1.421875 
Q 22.515625 -1.421875 17.65625 -0.515625 
Q 12.796875 0.390625 7.625 2.203125 
L 7.625 11.71875 
Q 11.71875 9.328125 16.59375 8.109375 
Q 21.484375 6.890625 26.8125 6.890625 
Q 36.078125 6.890625 40.9375 10.546875 
Q 45.796875 14.203125 45.796875 21.1875 
Q 45.796875 27.640625 41.28125 31.265625 
Q 36.765625 34.90625 28.71875 34.90625 
L 20.21875 34.90625 
L 20.21875 43.015625 
L 29.109375 43.015625 
Q 36.375 43.015625 40.234375 45.921875 
Q 44.09375 48.828125 44.09375 54.296875 
Q 44.09375 59.90625 40.109375 62.90625 
Q 36.140625 65.921875 28.71875 65.921875 
Q 24.65625 65.921875 20.015625 65.03125 
Q 15.375 64.15625 9.8125 62.3125 
L 9.8125 71.09375 
Q 15.4375 72.65625 20.34375 73.4375 
Q 25.25 74.21875 29.59375 74.21875 
Q 40.828125 74.21875 47.359375 69.109375 
Q 53.90625 64.015625 53.90625 55.328125 
Q 53.90625 49.265625 50.4375 45.09375 
Q 46.96875 40.921875 40.578125 39.3125 
z
" id="DejaVuSans-51"/>
      <path d="M 11.71875 12.40625 
L 22.015625 12.40625 
L 22.015625 4 
L 14.015625 -11.625 
L 7.71875 -11.625 
L 11.71875 4 
z
" id="DejaVuSans-44"/>
      <path d="M 25.390625 72.90625 
L 33.6875 72.90625 
L 8.296875 -9.28125 
L 0 -9.28125 
z
" id="DejaVuSans-47"/>
     </defs>
     <use xlink:href="#DejaVuSans-115"/>
     <use x="52.099609" xlink:href="#DejaVuSans-113"/>
     <use x="115.576172" xlink:href="#DejaVuSans-108"/>
     <use x="143.359375" xlink:href="#DejaVuSans-105"/>
     <use x="171.142578" xlink:href="#DejaVuSans-116"/>
     <use x="210.351562" xlink:href="#DejaVuSans-101"/>
     <use x="271.875" xlink:href="#DejaVuSans-51"/>
     <use x="335.498047" xlink:href="#DejaVuSans-95"/>
     <use x="385.498047" xlink:href="#DejaVuSans-111"/>
     <use x="446.679688" xlink:href="#DejaVuSans-115"/>
     <use x="498.779297" xlink:href="#DejaVuSans-115"/>
     <use x="550.878906" xlink:href="#DejaVuSans-102"/>
     <use x="586.083984" xlink:href="#DejaVuSans-117"/>
     <use x="649.462891" xlink:href="#DejaVuSans-122"/>
     <use x="701.953125" xlink:href="#DejaVuSans-122"/>
     <use x="754.443359" xlink:href="#DejaVuSans-32"/>
     <use x="786.230469" xlink:href="#DejaVuSans-40"/>
     <use x="825.244141" xlink:href="#DejaVuSans-50"/>
     <use x="888.867188" xlink:href="#DejaVuSans-104"/>
     <use x="952.246094" xlink:href="#DejaVuSans-44"/>
     <use x="984.033203" xlink:href="#DejaVuSans-32"/>
     <use x="1015.820312" xlink:href="#DejaVuSans-51"/>
     <use x="1079.443359" xlink:href="#DejaVuSans-32"/>
     <use x="1111.230469" xlink:href="#DejaVuSans-116"/>
     <use x="1150.439453" xlink:href="#DejaVuSans-114"/>
     <use x="1191.552734" xlink:href="#DejaVuSans-105"/>
     <use x="1219.335938" xlink:href="#DejaVuSans-97"/>
     <use x="1280.615234" xlink:href="#DejaVuSans-108"/>
     <use x="1308.398438" xlink:href="#DejaVuSans-115"/>
     <use x="1360.498047" xlink:href="#DejaVuSans-47"/>
     <use x="1394.189453" xlink:href="#DejaVuSans-102"/>
     <use x="1429.394531" xlink:href="#DejaVuSans-117"/>
     <use x="1492.773438" xlink:href="#DejaVuSans-122"/>
     <use x="1545.263672" xlink:href="#DejaVuSans-122"/>
     <use x="1597.753906" xlink:href="#DejaVuSans-101"/>
     <use x="1659.277344" xlink:href="#DejaVuSans-114"/>
     <use x="1700.390625" xlink:href="#DejaVuSans-41"/>
    </g>
   </g>
  </g>
 </g>
 <defs>
  <clipPath id="p53c719fe12">
   <rect height="266.112" width="357.12" x="59.690625" y="22.318125"/>
  </clipPath>
 </defs>
</svg>
