<?xml version="1.0" encoding="utf-8" standalone="no"?>
<!DOCTYPE svg PUBLIC "-//W3C//DTD SVG 1.1//EN"
  "http://www.w3.org/Graphics/SVG/1.1/DTD/svg11.dtd">
<!-- Created with matplotlib (https://matplotlib.org/) -->
<svg height="375.392334pt" version="1.1" viewBox="0 0 417.648125 375.392334" width="417.648125pt" xmlns="http://www.w3.org/2000/svg" xmlns:xlink="http://www.w3.org/1999/xlink">
 <metadata>
  <rdf:RDF xmlns:cc="http://creativecommons.org/ns#" xmlns:dc="http://purl.org/dc/elements/1.1/" xmlns:rdf="http://www.w3.org/1999/02/22-rdf-syntax-ns#">
   <cc:Work>
    <dc:type rdf:resource="http://purl.org/dc/dcmitype/StillImage"/>
    <dc:date>2020-11-17T21:16:59.561428</dc:date>
    <dc:format>image/svg+xml</dc:format>
    <dc:creator>
     <cc:Agent>
      <dc:title>Matplotlib v3.3.2, https://matplotlib.org/</dc:title>
     </cc:Agent>
    </dc:creator>
   </cc:Work>
  </rdf:RDF>
 </metadata>
 <defs>
  <style type="text/css">*{stroke-linecap:butt;stroke-linejoin:round;}</style>
 </defs>
 <g id="figure_1">
  <g id="patch_1">
   <path d="M 0 375.392334 
L 417.648125 375.392334 
L 417.648125 0 
L 0 0 
z
" style="fill:#ffffff;"/>
  </g>
  <g id="axes_1">
   <g id="patch_2">
    <path d="M 53.328125 288.430125 
L 410.448125 288.430125 
L 410.448125 22.318125 
L 53.328125 22.318125 
z
" style="fill:#ffffff;"/>
   </g>
   <g id="PolyCollection_1">
    <defs>
     <path d="M 115.051118 -105.105293 
L 110.645132 -105.105293 
L 110.313823 -106.425668 
L 109.946979 -107.746044 
L 109.54326 -109.066419 
L 109.101685 -110.386794 
L 108.621696 -111.70717 
L 108.103209 -113.027545 
L 107.546669 -114.34792 
L 106.953085 -115.668296 
L 106.324055 -116.988671 
L 105.661784 -118.309046 
L 104.96907 -119.629422 
L 104.249285 -120.949797 
L 103.506329 -122.270173 
L 102.744563 -123.590548 
L 101.968727 -124.910923 
L 101.183832 -126.231299 
L 100.395042 -127.551674 
L 99.607536 -128.872049 
L 98.826363 -130.192425 
L 98.056295 -131.5128 
L 97.301666 -132.833175 
L 96.566234 -134.153551 
L 95.853038 -135.473926 
L 95.164278 -136.794301 
L 94.501218 -138.114677 
L 93.864112 -139.435052 
L 93.252161 -140.755428 
L 92.663506 -142.075803 
L 92.095253 -143.396178 
L 91.543545 -144.716554 
L 91.003651 -146.036929 
L 90.470112 -147.357304 
L 89.936902 -148.67768 
L 89.397621 -149.998055 
L 88.84571 -151.31843 
L 88.274679 -152.638806 
L 87.678343 -153.959181 
L 87.051057 -155.279557 
L 86.387944 -156.599932 
L 85.685109 -157.920307 
L 84.939828 -159.240683 
L 84.150711 -160.561058 
L 83.317833 -161.881433 
L 82.442819 -163.201809 
L 81.528899 -164.522184 
L 80.580914 -165.842559 
L 79.605276 -167.162935 
L 78.609896 -168.48331 
L 77.60406 -169.803686 
L 76.598277 -171.124061 
L 75.604086 -172.444436 
L 74.633847 -173.764812 
L 73.700495 -175.085187 
L 72.817288 -176.405562 
L 71.997541 -177.725938 
L 71.254358 -179.046313 
L 70.600363 -180.366688 
L 70.047446 -181.687064 
L 69.606516 -183.007439 
L 69.287279 -184.327815 
L 69.098038 -185.64819 
L 69.045525 -186.968565 
L 69.13476 -188.288941 
L 69.368951 -189.609316 
L 69.749425 -190.929691 
L 70.275603 -192.250067 
L 70.945005 -193.570442 
L 71.753305 -194.890817 
L 72.694408 -196.211193 
L 73.76057 -197.531568 
L 74.942547 -198.851944 
L 76.229773 -200.172319 
L 77.610552 -201.492694 
L 79.07228 -202.81307 
L 80.601671 -204.133445 
L 82.184995 -205.45382 
L 83.808313 -206.774196 
L 85.457713 -208.094571 
L 87.119533 -209.414946 
L 88.780571 -210.735322 
L 90.428279 -212.055697 
L 92.05093 -213.376072 
L 93.637763 -214.696448 
L 95.179101 -216.016823 
L 96.66644 -217.337199 
L 98.092504 -218.657574 
L 99.451281 -219.977949 
L 100.73802 -221.298325 
L 101.949213 -222.6187 
L 103.082546 -223.939075 
L 104.136832 -225.259451 
L 105.111928 -226.579826 
L 106.00864 -227.900201 
L 106.82861 -229.220577 
L 107.574209 -230.540952 
L 108.248417 -231.861328 
L 108.854707 -233.181703 
L 109.396933 -234.502078 
L 109.879224 -235.822454 
L 115.817026 -235.822454 
L 115.817026 -235.822454 
L 116.299317 -234.502078 
L 116.841543 -233.181703 
L 117.447833 -231.861328 
L 118.122041 -230.540952 
L 118.86764 -229.220577 
L 119.68761 -227.900201 
L 120.584322 -226.579826 
L 121.559418 -225.259451 
L 122.613704 -223.939075 
L 123.747037 -222.6187 
L 124.95823 -221.298325 
L 126.244969 -219.977949 
L 127.603746 -218.657574 
L 129.02981 -217.337199 
L 130.517149 -216.016823 
L 132.058487 -214.696448 
L 133.64532 -213.376072 
L 135.267971 -212.055697 
L 136.915679 -210.735322 
L 138.576717 -209.414946 
L 140.238537 -208.094571 
L 141.887937 -206.774196 
L 143.511255 -205.45382 
L 145.094579 -204.133445 
L 146.62397 -202.81307 
L 148.085698 -201.492694 
L 149.466477 -200.172319 
L 150.753703 -198.851944 
L 151.93568 -197.531568 
L 153.001842 -196.211193 
L 153.942945 -194.890817 
L 154.751245 -193.570442 
L 155.420647 -192.250067 
L 155.946825 -190.929691 
L 156.327299 -189.609316 
L 156.56149 -188.288941 
L 156.650725 -186.968565 
L 156.598212 -185.64819 
L 156.408971 -184.327815 
L 156.089734 -183.007439 
L 155.648804 -181.687064 
L 155.095887 -180.366688 
L 154.441892 -179.046313 
L 153.698709 -177.725938 
L 152.878962 -176.405562 
L 151.995755 -175.085187 
L 151.062403 -173.764812 
L 150.092164 -172.444436 
L 149.097973 -171.124061 
L 148.09219 -169.803686 
L 147.086354 -168.48331 
L 146.090974 -167.162935 
L 145.115336 -165.842559 
L 144.167351 -164.522184 
L 143.253431 -163.201809 
L 142.378417 -161.881433 
L 141.545539 -160.561058 
L 140.756422 -159.240683 
L 140.011141 -157.920307 
L 139.308306 -156.599932 
L 138.645193 -155.279557 
L 138.017907 -153.959181 
L 137.421571 -152.638806 
L 136.85054 -151.31843 
L 136.298629 -149.998055 
L 135.759348 -148.67768 
L 135.226138 -147.357304 
L 134.692599 -146.036929 
L 134.152705 -144.716554 
L 133.600997 -143.396178 
L 133.032744 -142.075803 
L 132.444089 -140.755428 
L 131.832138 -139.435052 
L 131.195032 -138.114677 
L 130.531972 -136.794301 
L 129.843212 -135.473926 
L 129.130016 -134.153551 
L 128.394584 -132.833175 
L 127.639955 -131.5128 
L 126.869887 -130.192425 
L 126.088714 -128.872049 
L 125.301208 -127.551674 
L 124.512418 -126.231299 
L 123.727523 -124.910923 
L 122.951687 -123.590548 
L 122.189921 -122.270173 
L 121.446965 -120.949797 
L 120.72718 -119.629422 
L 120.034466 -118.309046 
L 119.372195 -116.988671 
L 118.743165 -115.668296 
L 118.149581 -114.34792 
L 117.593041 -113.027545 
L 117.074554 -111.70717 
L 116.594565 -110.386794 
L 116.15299 -109.066419 
L 115.749271 -107.746044 
L 115.382427 -106.425668 
L 115.051118 -105.105293 
z
" id="m41dd623a80" style="stroke:#3f3f3f;stroke-width:1.5;"/>
    </defs>
    <g clip-path="url(#p8e6650ec02)">
     <use style="fill:#c03d3e;stroke:#3f3f3f;stroke-width:1.5;" x="0" xlink:href="#m41dd623a80" y="375.392334"/>
    </g>
   </g>
   <g id="PolyCollection_2">
    <defs>
     <path d="M 234.257601 -99.058209 
L 229.518649 -99.058209 
L 229.148116 -101.501846 
L 228.734251 -103.945482 
L 228.274608 -106.389118 
L 227.767058 -108.832755 
L 227.209873 -111.276391 
L 226.601815 -113.720027 
L 225.942228 -116.163664 
L 225.231127 -118.6073 
L 224.469274 -121.050936 
L 223.658259 -123.494573 
L 222.800558 -125.938209 
L 221.89958 -128.381846 
L 220.959699 -130.825482 
L 219.986261 -133.269118 
L 218.985572 -135.712755 
L 217.964856 -138.156391 
L 216.932196 -140.600027 
L 215.896438 -143.043664 
L 214.867081 -145.4873 
L 213.854131 -147.930936 
L 212.867941 -150.374573 
L 211.91903 -152.818209 
L 211.017886 -155.261846 
L 210.174761 -157.705482 
L 209.399457 -160.149118 
L 208.701115 -162.592755 
L 208.088017 -165.036391 
L 207.567386 -167.480027 
L 207.145222 -169.923664 
L 206.826149 -172.3673 
L 206.613296 -174.810936 
L 206.508214 -177.254573 
L 206.510821 -179.698209 
L 206.619396 -182.141846 
L 206.830598 -184.585482 
L 207.13954 -187.029118 
L 207.539887 -189.472755 
L 208.023993 -191.916391 
L 208.58307 -194.360027 
L 209.207382 -196.803664 
L 209.886458 -199.2473 
L 210.609322 -201.690936 
L 211.364731 -204.134573 
L 212.141412 -206.578209 
L 212.9283 -209.021846 
L 213.714758 -211.465482 
L 214.49079 -213.909118 
L 215.247221 -216.352755 
L 215.975866 -218.796391 
L 216.669657 -221.240027 
L 217.322743 -223.683664 
L 217.930563 -226.1273 
L 218.489875 -228.570936 
L 218.998761 -231.014573 
L 219.456592 -233.458209 
L 219.863973 -235.901846 
L 220.222651 -238.345482 
L 220.535406 -240.789118 
L 220.805919 -243.232755 
L 221.038629 -245.676391 
L 221.23857 -248.120027 
L 221.411213 -250.563664 
L 221.562299 -253.0073 
L 221.697673 -255.450936 
L 221.823133 -257.894573 
L 221.944278 -260.338209 
L 222.066382 -262.781846 
L 222.194271 -265.225482 
L 222.332231 -267.669118 
L 222.483931 -270.112755 
L 222.652361 -272.556391 
L 222.839802 -275.000027 
L 223.047812 -277.443664 
L 223.27723 -279.8873 
L 223.528201 -282.330936 
L 223.800219 -284.774573 
L 224.092182 -287.218209 
L 224.40246 -289.661846 
L 224.728971 -292.105482 
L 225.069268 -294.549118 
L 225.420622 -296.992755 
L 225.780111 -299.436391 
L 226.144706 -301.880027 
L 226.511354 -304.323664 
L 226.877051 -306.7673 
L 227.238913 -309.210936 
L 227.594233 -311.654573 
L 227.940528 -314.098209 
L 228.275583 -316.541846 
L 228.597473 -318.985482 
L 228.904584 -321.429118 
L 229.195623 -323.872755 
L 229.469612 -326.316391 
L 229.725882 -328.760027 
L 229.964059 -331.203664 
L 230.184038 -333.6473 
L 230.385963 -336.090936 
L 230.570194 -338.534573 
L 230.737279 -340.978209 
L 233.038971 -340.978209 
L 233.038971 -340.978209 
L 233.206056 -338.534573 
L 233.390287 -336.090936 
L 233.592212 -333.6473 
L 233.812191 -331.203664 
L 234.050368 -328.760027 
L 234.306638 -326.316391 
L 234.580627 -323.872755 
L 234.871666 -321.429118 
L 235.178777 -318.985482 
L 235.500667 -316.541846 
L 235.835722 -314.098209 
L 236.182017 -311.654573 
L 236.537337 -309.210936 
L 236.899199 -306.7673 
L 237.264896 -304.323664 
L 237.631544 -301.880027 
L 237.996139 -299.436391 
L 238.355628 -296.992755 
L 238.706982 -294.549118 
L 239.047279 -292.105482 
L 239.37379 -289.661846 
L 239.684068 -287.218209 
L 239.976031 -284.774573 
L 240.248049 -282.330936 
L 240.49902 -279.8873 
L 240.728438 -277.443664 
L 240.936448 -275.000027 
L 241.123889 -272.556391 
L 241.292319 -270.112755 
L 241.444019 -267.669118 
L 241.581979 -265.225482 
L 241.709868 -262.781846 
L 241.831972 -260.338209 
L 241.953117 -257.894573 
L 242.078577 -255.450936 
L 242.213951 -253.0073 
L 242.365037 -250.563664 
L 242.53768 -248.120027 
L 242.737621 -245.676391 
L 242.970331 -243.232755 
L 243.240844 -240.789118 
L 243.553599 -238.345482 
L 243.912277 -235.901846 
L 244.319658 -233.458209 
L 244.777489 -231.014573 
L 245.286375 -228.570936 
L 245.845687 -226.1273 
L 246.453507 -223.683664 
L 247.106593 -221.240027 
L 247.800384 -218.796391 
L 248.529029 -216.352755 
L 249.28546 -213.909118 
L 250.061492 -211.465482 
L 250.84795 -209.021846 
L 251.634838 -206.578209 
L 252.411519 -204.134573 
L 253.166928 -201.690936 
L 253.889792 -199.2473 
L 254.568868 -196.803664 
L 255.19318 -194.360027 
L 255.752257 -191.916391 
L 256.236363 -189.472755 
L 256.63671 -187.029118 
L 256.945652 -184.585482 
L 257.156854 -182.141846 
L 257.265429 -179.698209 
L 257.268036 -177.254573 
L 257.162954 -174.810936 
L 256.950101 -172.3673 
L 256.631028 -169.923664 
L 256.208864 -167.480027 
L 255.688233 -165.036391 
L 255.075135 -162.592755 
L 254.376793 -160.149118 
L 253.601489 -157.705482 
L 252.758364 -155.261846 
L 251.85722 -152.818209 
L 250.908309 -150.374573 
L 249.922119 -147.930936 
L 248.909169 -145.4873 
L 247.879812 -143.043664 
L 246.844054 -140.600027 
L 245.811394 -138.156391 
L 244.790678 -135.712755 
L 243.789989 -133.269118 
L 242.816551 -130.825482 
L 241.87667 -128.381846 
L 240.975692 -125.938209 
L 240.117991 -123.494573 
L 239.306976 -121.050936 
L 238.545123 -118.6073 
L 237.834022 -116.163664 
L 237.174435 -113.720027 
L 236.566377 -111.276391 
L 236.009192 -108.832755 
L 235.501642 -106.389118 
L 235.041999 -103.945482 
L 234.628134 -101.501846 
L 234.257601 -99.058209 
z
" id="m98624a35de" style="stroke:#3f3f3f;stroke-width:1.5;"/>
    </defs>
    <g clip-path="url(#p8e6650ec02)">
     <use style="fill:#3274a1;stroke:#3f3f3f;stroke-width:1.5;" x="0" xlink:href="#m98624a35de" y="375.392334"/>
    </g>
   </g>
   <g id="PolyCollection_3">
    <defs>
     <path d="M 354.800277 -126.028381 
L 347.055973 -126.028381 
L 346.426713 -127.070457 
L 345.721446 -128.112533 
L 344.935798 -129.154609 
L 344.065974 -130.196684 
L 343.10891 -131.23876 
L 342.062429 -132.280836 
L 340.925391 -133.322912 
L 339.697835 -134.364988 
L 338.381104 -135.407063 
L 336.977952 -136.449139 
L 335.492622 -137.491215 
L 333.930896 -138.533291 
L 332.3001 -139.575367 
L 330.609086 -140.617442 
L 328.868153 -141.659518 
L 327.088938 -142.701594 
L 325.284263 -143.74367 
L 323.467936 -144.785746 
L 321.654518 -145.827821 
L 319.859067 -146.869897 
L 318.096838 -147.911973 
L 316.38299 -148.954049 
L 314.732263 -149.996125 
L 313.158674 -151.0382 
L 311.675211 -152.080276 
L 310.293553 -153.122352 
L 309.023823 -154.164428 
L 307.874368 -155.206504 
L 306.851593 -156.248579 
L 305.959841 -157.290655 
L 305.201325 -158.332731 
L 304.576115 -159.374807 
L 304.082186 -160.416883 
L 303.715511 -161.458958 
L 303.470208 -162.501034 
L 303.338737 -163.54311 
L 303.312125 -164.585186 
L 303.380233 -165.627262 
L 303.532042 -166.669337 
L 303.755951 -167.711413 
L 304.040091 -168.753489 
L 304.372625 -169.795565 
L 304.742048 -170.837641 
L 305.137464 -171.879716 
L 305.548841 -172.921792 
L 305.967234 -173.963868 
L 306.384974 -175.005944 
L 306.795819 -176.04802 
L 307.195061 -177.090095 
L 307.579594 -178.132171 
L 307.947932 -179.174247 
L 308.300188 -180.216323 
L 308.638013 -181.258399 
L 308.964488 -182.300474 
L 309.283991 -183.34255 
L 309.602023 -184.384626 
L 309.92501 -185.426702 
L 310.260085 -186.468778 
L 310.614855 -187.510853 
L 310.997155 -188.552929 
L 311.414801 -189.595005 
L 311.875348 -190.637081 
L 312.385859 -191.679156 
L 312.952685 -192.721232 
L 313.581275 -193.763308 
L 314.276003 -194.805384 
L 315.040035 -195.84746 
L 315.875225 -196.889535 
L 316.782051 -197.931611 
L 317.759586 -198.973687 
L 318.805508 -200.015763 
L 319.916148 -201.057839 
L 321.086569 -202.099914 
L 322.310682 -203.14199 
L 323.581386 -204.184066 
L 324.890729 -205.226142 
L 326.230093 -206.268218 
L 327.590382 -207.310293 
L 328.962219 -208.352369 
L 330.336151 -209.394445 
L 331.702832 -210.436521 
L 333.053212 -211.478597 
L 334.378698 -212.520672 
L 335.671301 -213.562748 
L 336.923765 -214.604824 
L 338.129659 -215.6469 
L 339.283458 -216.688976 
L 340.380585 -217.731051 
L 341.417439 -218.773127 
L 342.391389 -219.815203 
L 343.300751 -220.857279 
L 344.144743 -221.899355 
L 344.923428 -222.94143 
L 345.637633 -223.983506 
L 346.288867 -225.025582 
L 346.879232 -226.067658 
L 347.411322 -227.109734 
L 347.88813 -228.151809 
L 348.312951 -229.193885 
L 353.543299 -229.193885 
L 353.543299 -229.193885 
L 353.96812 -228.151809 
L 354.444928 -227.109734 
L 354.977018 -226.067658 
L 355.567383 -225.025582 
L 356.218617 -223.983506 
L 356.932822 -222.94143 
L 357.711507 -221.899355 
L 358.555499 -220.857279 
L 359.464861 -219.815203 
L 360.438811 -218.773127 
L 361.475665 -217.731051 
L 362.572792 -216.688976 
L 363.726591 -215.6469 
L 364.932485 -214.604824 
L 366.184949 -213.562748 
L 367.477552 -212.520672 
L 368.803038 -211.478597 
L 370.153418 -210.436521 
L 371.520099 -209.394445 
L 372.894031 -208.352369 
L 374.265868 -207.310293 
L 375.626157 -206.268218 
L 376.965521 -205.226142 
L 378.274864 -204.184066 
L 379.545568 -203.14199 
L 380.769681 -202.099914 
L 381.940102 -201.057839 
L 383.050742 -200.015763 
L 384.096664 -198.973687 
L 385.074199 -197.931611 
L 385.981025 -196.889535 
L 386.816215 -195.84746 
L 387.580247 -194.805384 
L 388.274975 -193.763308 
L 388.903565 -192.721232 
L 389.470391 -191.679156 
L 389.980902 -190.637081 
L 390.441449 -189.595005 
L 390.859095 -188.552929 
L 391.241395 -187.510853 
L 391.596165 -186.468778 
L 391.93124 -185.426702 
L 392.254227 -184.384626 
L 392.572259 -183.34255 
L 392.891762 -182.300474 
L 393.218237 -181.258399 
L 393.556062 -180.216323 
L 393.908318 -179.174247 
L 394.276656 -178.132171 
L 394.661189 -177.090095 
L 395.060431 -176.04802 
L 395.471276 -175.005944 
L 395.889016 -173.963868 
L 396.307409 -172.921792 
L 396.718786 -171.879716 
L 397.114202 -170.837641 
L 397.483625 -169.795565 
L 397.816159 -168.753489 
L 398.100299 -167.711413 
L 398.324208 -166.669337 
L 398.476017 -165.627262 
L 398.544125 -164.585186 
L 398.517513 -163.54311 
L 398.386042 -162.501034 
L 398.140739 -161.458958 
L 397.774064 -160.416883 
L 397.280135 -159.374807 
L 396.654925 -158.332731 
L 395.896409 -157.290655 
L 395.004657 -156.248579 
L 393.981882 -155.206504 
L 392.832427 -154.164428 
L 391.562697 -153.122352 
L 390.181039 -152.080276 
L 388.697576 -151.0382 
L 387.123987 -149.996125 
L 385.47326 -148.954049 
L 383.759412 -147.911973 
L 381.997183 -146.869897 
L 380.201732 -145.827821 
L 378.388314 -144.785746 
L 376.571987 -143.74367 
L 374.767312 -142.701594 
L 372.988097 -141.659518 
L 371.247164 -140.617442 
L 369.55615 -139.575367 
L 367.925354 -138.533291 
L 366.363628 -137.491215 
L 364.878298 -136.449139 
L 363.475146 -135.407063 
L 362.158415 -134.364988 
L 360.930859 -133.322912 
L 359.793821 -132.280836 
L 358.74734 -131.23876 
L 357.790276 -130.196684 
L 356.920452 -129.154609 
L 356.134804 -128.112533 
L 355.429537 -127.070457 
L 354.800277 -126.028381 
z
" id="m3472d1dfec" style="stroke:#3f3f3f;stroke-width:1.5;"/>
    </defs>
    <g clip-path="url(#p8e6650ec02)">
     <use style="fill:#9fd495;stroke:#3f3f3f;stroke-width:1.5;" x="0" xlink:href="#m3472d1dfec" y="375.392334"/>
    </g>
   </g>
   <g id="matplotlib.axis_1">
    <g id="xtick_1">
     <g id="line2d_1">
      <defs>
       <path d="M 0 0 
L 0 3.5 
" id="m3d0c2e1d7f" style="stroke:#000000;stroke-width:0.8;"/>
      </defs>
      <g>
       <use style="stroke:#000000;stroke-width:0.8;" x="112.848125" xlink:href="#m3d0c2e1d7f" y="288.430125"/>
      </g>
     </g>
     <g id="text_1">
      <!-- aflplusplus_hier_x -->
      <g transform="translate(34.530712 346.546502)rotate(-30)scale(0.1 -0.1)">
       <defs>
        <path d="M 34.28125 27.484375 
Q 23.390625 27.484375 19.1875 25 
Q 14.984375 22.515625 14.984375 16.5 
Q 14.984375 11.71875 18.140625 8.90625 
Q 21.296875 6.109375 26.703125 6.109375 
Q 34.1875 6.109375 38.703125 11.40625 
Q 43.21875 16.703125 43.21875 25.484375 
L 43.21875 27.484375 
z
M 52.203125 31.203125 
L 52.203125 0 
L 43.21875 0 
L 43.21875 8.296875 
Q 40.140625 3.328125 35.546875 0.953125 
Q 30.953125 -1.421875 24.3125 -1.421875 
Q 15.921875 -1.421875 10.953125 3.296875 
Q 6 8.015625 6 15.921875 
Q 6 25.140625 12.171875 29.828125 
Q 18.359375 34.515625 30.609375 34.515625 
L 43.21875 34.515625 
L 43.21875 35.40625 
Q 43.21875 41.609375 39.140625 45 
Q 35.0625 48.390625 27.6875 48.390625 
Q 23 48.390625 18.546875 47.265625 
Q 14.109375 46.140625 10.015625 43.890625 
L 10.015625 52.203125 
Q 14.9375 54.109375 19.578125 55.046875 
Q 24.21875 56 28.609375 56 
Q 40.484375 56 46.34375 49.84375 
Q 52.203125 43.703125 52.203125 31.203125 
z
" id="DejaVuSans-97"/>
        <path d="M 37.109375 75.984375 
L 37.109375 68.5 
L 28.515625 68.5 
Q 23.6875 68.5 21.796875 66.546875 
Q 19.921875 64.59375 19.921875 59.515625 
L 19.921875 54.6875 
L 34.71875 54.6875 
L 34.71875 47.703125 
L 19.921875 47.703125 
L 19.921875 0 
L 10.890625 0 
L 10.890625 47.703125 
L 2.296875 47.703125 
L 2.296875 54.6875 
L 10.890625 54.6875 
L 10.890625 58.5 
Q 10.890625 67.625 15.140625 71.796875 
Q 19.390625 75.984375 28.609375 75.984375 
z
" id="DejaVuSans-102"/>
        <path d="M 9.421875 75.984375 
L 18.40625 75.984375 
L 18.40625 0 
L 9.421875 0 
z
" id="DejaVuSans-108"/>
        <path d="M 18.109375 8.203125 
L 18.109375 -20.796875 
L 9.078125 -20.796875 
L 9.078125 54.6875 
L 18.109375 54.6875 
L 18.109375 46.390625 
Q 20.953125 51.265625 25.265625 53.625 
Q 29.59375 56 35.59375 56 
Q 45.5625 56 51.78125 48.09375 
Q 58.015625 40.1875 58.015625 27.296875 
Q 58.015625 14.40625 51.78125 6.484375 
Q 45.5625 -1.421875 35.59375 -1.421875 
Q 29.59375 -1.421875 25.265625 0.953125 
Q 20.953125 3.328125 18.109375 8.203125 
z
M 48.6875 27.296875 
Q 48.6875 37.203125 44.609375 42.84375 
Q 40.53125 48.484375 33.40625 48.484375 
Q 26.265625 48.484375 22.1875 42.84375 
Q 18.109375 37.203125 18.109375 27.296875 
Q 18.109375 17.390625 22.1875 11.75 
Q 26.265625 6.109375 33.40625 6.109375 
Q 40.53125 6.109375 44.609375 11.75 
Q 48.6875 17.390625 48.6875 27.296875 
z
" id="DejaVuSans-112"/>
        <path d="M 8.5 21.578125 
L 8.5 54.6875 
L 17.484375 54.6875 
L 17.484375 21.921875 
Q 17.484375 14.15625 20.5 10.265625 
Q 23.53125 6.390625 29.59375 6.390625 
Q 36.859375 6.390625 41.078125 11.03125 
Q 45.3125 15.671875 45.3125 23.6875 
L 45.3125 54.6875 
L 54.296875 54.6875 
L 54.296875 0 
L 45.3125 0 
L 45.3125 8.40625 
Q 42.046875 3.421875 37.71875 1 
Q 33.40625 -1.421875 27.6875 -1.421875 
Q 18.265625 -1.421875 13.375 4.4375 
Q 8.5 10.296875 8.5 21.578125 
z
M 31.109375 56 
z
" id="DejaVuSans-117"/>
        <path d="M 44.28125 53.078125 
L 44.28125 44.578125 
Q 40.484375 46.53125 36.375 47.5 
Q 32.28125 48.484375 27.875 48.484375 
Q 21.1875 48.484375 17.84375 46.4375 
Q 14.5 44.390625 14.5 40.28125 
Q 14.5 37.15625 16.890625 35.375 
Q 19.28125 33.59375 26.515625 31.984375 
L 29.59375 31.296875 
Q 39.15625 29.25 43.1875 25.515625 
Q 47.21875 21.78125 47.21875 15.09375 
Q 47.21875 7.46875 41.1875 3.015625 
Q 35.15625 -1.421875 24.609375 -1.421875 
Q 20.21875 -1.421875 15.453125 -0.5625 
Q 10.6875 0.296875 5.421875 2 
L 5.421875 11.28125 
Q 10.40625 8.6875 15.234375 7.390625 
Q 20.0625 6.109375 24.8125 6.109375 
Q 31.15625 6.109375 34.5625 8.28125 
Q 37.984375 10.453125 37.984375 14.40625 
Q 37.984375 18.0625 35.515625 20.015625 
Q 33.0625 21.96875 24.703125 23.78125 
L 21.578125 24.515625 
Q 13.234375 26.265625 9.515625 29.90625 
Q 5.8125 33.546875 5.8125 39.890625 
Q 5.8125 47.609375 11.28125 51.796875 
Q 16.75 56 26.8125 56 
Q 31.78125 56 36.171875 55.265625 
Q 40.578125 54.546875 44.28125 53.078125 
z
" id="DejaVuSans-115"/>
        <path d="M 50.984375 -16.609375 
L 50.984375 -23.578125 
L -0.984375 -23.578125 
L -0.984375 -16.609375 
z
" id="DejaVuSans-95"/>
        <path d="M 54.890625 33.015625 
L 54.890625 0 
L 45.90625 0 
L 45.90625 32.71875 
Q 45.90625 40.484375 42.875 44.328125 
Q 39.84375 48.1875 33.796875 48.1875 
Q 26.515625 48.1875 22.3125 43.546875 
Q 18.109375 38.921875 18.109375 30.90625 
L 18.109375 0 
L 9.078125 0 
L 9.078125 75.984375 
L 18.109375 75.984375 
L 18.109375 46.1875 
Q 21.34375 51.125 25.703125 53.5625 
Q 30.078125 56 35.796875 56 
Q 45.21875 56 50.046875 50.171875 
Q 54.890625 44.34375 54.890625 33.015625 
z
" id="DejaVuSans-104"/>
        <path d="M 9.421875 54.6875 
L 18.40625 54.6875 
L 18.40625 0 
L 9.421875 0 
z
M 9.421875 75.984375 
L 18.40625 75.984375 
L 18.40625 64.59375 
L 9.421875 64.59375 
z
" id="DejaVuSans-105"/>
        <path d="M 56.203125 29.59375 
L 56.203125 25.203125 
L 14.890625 25.203125 
Q 15.484375 15.921875 20.484375 11.0625 
Q 25.484375 6.203125 34.421875 6.203125 
Q 39.59375 6.203125 44.453125 7.46875 
Q 49.3125 8.734375 54.109375 11.28125 
L 54.109375 2.78125 
Q 49.265625 0.734375 44.1875 -0.34375 
Q 39.109375 -1.421875 33.890625 -1.421875 
Q 20.796875 -1.421875 13.15625 6.1875 
Q 5.515625 13.8125 5.515625 26.8125 
Q 5.515625 40.234375 12.765625 48.109375 
Q 20.015625 56 32.328125 56 
Q 43.359375 56 49.78125 48.890625 
Q 56.203125 41.796875 56.203125 29.59375 
z
M 47.21875 32.234375 
Q 47.125 39.59375 43.09375 43.984375 
Q 39.0625 48.390625 32.421875 48.390625 
Q 24.90625 48.390625 20.390625 44.140625 
Q 15.875 39.890625 15.1875 32.171875 
z
" id="DejaVuSans-101"/>
        <path d="M 41.109375 46.296875 
Q 39.59375 47.171875 37.8125 47.578125 
Q 36.03125 48 33.890625 48 
Q 26.265625 48 22.1875 43.046875 
Q 18.109375 38.09375 18.109375 28.8125 
L 18.109375 0 
L 9.078125 0 
L 9.078125 54.6875 
L 18.109375 54.6875 
L 18.109375 46.1875 
Q 20.953125 51.171875 25.484375 53.578125 
Q 30.03125 56 36.53125 56 
Q 37.453125 56 38.578125 55.875 
Q 39.703125 55.765625 41.0625 55.515625 
z
" id="DejaVuSans-114"/>
        <path d="M 54.890625 54.6875 
L 35.109375 28.078125 
L 55.90625 0 
L 45.3125 0 
L 29.390625 21.484375 
L 13.484375 0 
L 2.875 0 
L 24.125 28.609375 
L 4.6875 54.6875 
L 15.28125 54.6875 
L 29.78125 35.203125 
L 44.28125 54.6875 
z
" id="DejaVuSans-120"/>
       </defs>
       <use xlink:href="#DejaVuSans-97"/>
       <use x="61.279297" xlink:href="#DejaVuSans-102"/>
       <use x="96.484375" xlink:href="#DejaVuSans-108"/>
       <use x="124.267578" xlink:href="#DejaVuSans-112"/>
       <use x="187.744141" xlink:href="#DejaVuSans-108"/>
       <use x="215.527344" xlink:href="#DejaVuSans-117"/>
       <use x="278.90625" xlink:href="#DejaVuSans-115"/>
       <use x="331.005859" xlink:href="#DejaVuSans-112"/>
       <use x="394.482422" xlink:href="#DejaVuSans-108"/>
       <use x="422.265625" xlink:href="#DejaVuSans-117"/>
       <use x="485.644531" xlink:href="#DejaVuSans-115"/>
       <use x="537.744141" xlink:href="#DejaVuSans-95"/>
       <use x="587.744141" xlink:href="#DejaVuSans-104"/>
       <use x="651.123047" xlink:href="#DejaVuSans-105"/>
       <use x="678.90625" xlink:href="#DejaVuSans-101"/>
       <use x="740.429688" xlink:href="#DejaVuSans-114"/>
       <use x="781.542969" xlink:href="#DejaVuSans-95"/>
       <use x="831.542969" xlink:href="#DejaVuSans-120"/>
      </g>
     </g>
    </g>
    <g id="xtick_2">
     <g id="line2d_2">
      <g>
       <use style="stroke:#000000;stroke-width:0.8;" x="231.888125" xlink:href="#m3d0c2e1d7f" y="288.430125"/>
      </g>
     </g>
     <g id="text_2">
      <!-- aflplusplus_hier -->
      <g transform="translate(163.026627 341.087127)rotate(-30)scale(0.1 -0.1)">
       <use xlink:href="#DejaVuSans-97"/>
       <use x="61.279297" xlink:href="#DejaVuSans-102"/>
       <use x="96.484375" xlink:href="#DejaVuSans-108"/>
       <use x="124.267578" xlink:href="#DejaVuSans-112"/>
       <use x="187.744141" xlink:href="#DejaVuSans-108"/>
       <use x="215.527344" xlink:href="#DejaVuSans-117"/>
       <use x="278.90625" xlink:href="#DejaVuSans-115"/>
       <use x="331.005859" xlink:href="#DejaVuSans-112"/>
       <use x="394.482422" xlink:href="#DejaVuSans-108"/>
       <use x="422.265625" xlink:href="#DejaVuSans-117"/>
       <use x="485.644531" xlink:href="#DejaVuSans-115"/>
       <use x="537.744141" xlink:href="#DejaVuSans-95"/>
       <use x="587.744141" xlink:href="#DejaVuSans-104"/>
       <use x="651.123047" xlink:href="#DejaVuSans-105"/>
       <use x="678.90625" xlink:href="#DejaVuSans-101"/>
       <use x="740.429688" xlink:href="#DejaVuSans-114"/>
      </g>
     </g>
    </g>
    <g id="xtick_3">
     <g id="line2d_3">
      <g>
       <use style="stroke:#000000;stroke-width:0.8;" x="350.928125" xlink:href="#m3d0c2e1d7f" y="288.430125"/>
      </g>
     </g>
     <g id="text_3">
      <!-- aflplusplus_hier_coe -->
      <g transform="translate(262.346958 352.472284)rotate(-30)scale(0.1 -0.1)">
       <defs>
        <path d="M 48.78125 52.59375 
L 48.78125 44.1875 
Q 44.96875 46.296875 41.140625 47.34375 
Q 37.3125 48.390625 33.40625 48.390625 
Q 24.65625 48.390625 19.8125 42.84375 
Q 14.984375 37.3125 14.984375 27.296875 
Q 14.984375 17.28125 19.8125 11.734375 
Q 24.65625 6.203125 33.40625 6.203125 
Q 37.3125 6.203125 41.140625 7.25 
Q 44.96875 8.296875 48.78125 10.40625 
L 48.78125 2.09375 
Q 45.015625 0.34375 40.984375 -0.53125 
Q 36.96875 -1.421875 32.421875 -1.421875 
Q 20.0625 -1.421875 12.78125 6.34375 
Q 5.515625 14.109375 5.515625 27.296875 
Q 5.515625 40.671875 12.859375 48.328125 
Q 20.21875 56 33.015625 56 
Q 37.15625 56 41.109375 55.140625 
Q 45.0625 54.296875 48.78125 52.59375 
z
" id="DejaVuSans-99"/>
        <path d="M 30.609375 48.390625 
Q 23.390625 48.390625 19.1875 42.75 
Q 14.984375 37.109375 14.984375 27.296875 
Q 14.984375 17.484375 19.15625 11.84375 
Q 23.34375 6.203125 30.609375 6.203125 
Q 37.796875 6.203125 41.984375 11.859375 
Q 46.1875 17.53125 46.1875 27.296875 
Q 46.1875 37.015625 41.984375 42.703125 
Q 37.796875 48.390625 30.609375 48.390625 
z
M 30.609375 56 
Q 42.328125 56 49.015625 48.375 
Q 55.71875 40.765625 55.71875 27.296875 
Q 55.71875 13.875 49.015625 6.21875 
Q 42.328125 -1.421875 30.609375 -1.421875 
Q 18.84375 -1.421875 12.171875 6.21875 
Q 5.515625 13.875 5.515625 27.296875 
Q 5.515625 40.765625 12.171875 48.375 
Q 18.84375 56 30.609375 56 
z
" id="DejaVuSans-111"/>
       </defs>
       <use xlink:href="#DejaVuSans-97"/>
       <use x="61.279297" xlink:href="#DejaVuSans-102"/>
       <use x="96.484375" xlink:href="#DejaVuSans-108"/>
       <use x="124.267578" xlink:href="#DejaVuSans-112"/>
       <use x="187.744141" xlink:href="#DejaVuSans-108"/>
       <use x="215.527344" xlink:href="#DejaVuSans-117"/>
       <use x="278.90625" xlink:href="#DejaVuSans-115"/>
       <use x="331.005859" xlink:href="#DejaVuSans-112"/>
       <use x="394.482422" xlink:href="#DejaVuSans-108"/>
       <use x="422.265625" xlink:href="#DejaVuSans-117"/>
       <use x="485.644531" xlink:href="#DejaVuSans-115"/>
       <use x="537.744141" xlink:href="#DejaVuSans-95"/>
       <use x="587.744141" xlink:href="#DejaVuSans-104"/>
       <use x="651.123047" xlink:href="#DejaVuSans-105"/>
       <use x="678.90625" xlink:href="#DejaVuSans-101"/>
       <use x="740.429688" xlink:href="#DejaVuSans-114"/>
       <use x="781.542969" xlink:href="#DejaVuSans-95"/>
       <use x="831.542969" xlink:href="#DejaVuSans-99"/>
       <use x="886.523438" xlink:href="#DejaVuSans-111"/>
       <use x="947.705078" xlink:href="#DejaVuSans-101"/>
      </g>
     </g>
    </g>
    <g id="text_4">
     <!-- Fuzzer (highest median coverage on the left) -->
     <g transform="translate(119.270156 366.112647)scale(0.1 -0.1)">
      <defs>
       <path d="M 9.8125 72.90625 
L 51.703125 72.90625 
L 51.703125 64.59375 
L 19.671875 64.59375 
L 19.671875 43.109375 
L 48.578125 43.109375 
L 48.578125 34.8125 
L 19.671875 34.8125 
L 19.671875 0 
L 9.8125 0 
z
" id="DejaVuSans-70"/>
       <path d="M 5.515625 54.6875 
L 48.1875 54.6875 
L 48.1875 46.484375 
L 14.40625 7.171875 
L 48.1875 7.171875 
L 48.1875 0 
L 4.296875 0 
L 4.296875 8.203125 
L 38.09375 47.515625 
L 5.515625 47.515625 
z
" id="DejaVuSans-122"/>
       <path id="DejaVuSans-32"/>
       <path d="M 31 75.875 
Q 24.46875 64.65625 21.28125 53.65625 
Q 18.109375 42.671875 18.109375 31.390625 
Q 18.109375 20.125 21.3125 9.0625 
Q 24.515625 -2 31 -13.1875 
L 23.1875 -13.1875 
Q 15.875 -1.703125 12.234375 9.375 
Q 8.59375 20.453125 8.59375 31.390625 
Q 8.59375 42.28125 12.203125 53.3125 
Q 15.828125 64.359375 23.1875 75.875 
z
" id="DejaVuSans-40"/>
       <path d="M 45.40625 27.984375 
Q 45.40625 37.75 41.375 43.109375 
Q 37.359375 48.484375 30.078125 48.484375 
Q 22.859375 48.484375 18.828125 43.109375 
Q 14.796875 37.75 14.796875 27.984375 
Q 14.796875 18.265625 18.828125 12.890625 
Q 22.859375 7.515625 30.078125 7.515625 
Q 37.359375 7.515625 41.375 12.890625 
Q 45.40625 18.265625 45.40625 27.984375 
z
M 54.390625 6.78125 
Q 54.390625 -7.171875 48.1875 -13.984375 
Q 42 -20.796875 29.203125 -20.796875 
Q 24.46875 -20.796875 20.265625 -20.09375 
Q 16.0625 -19.390625 12.109375 -17.921875 
L 12.109375 -9.1875 
Q 16.0625 -11.328125 19.921875 -12.34375 
Q 23.78125 -13.375 27.78125 -13.375 
Q 36.625 -13.375 41.015625 -8.765625 
Q 45.40625 -4.15625 45.40625 5.171875 
L 45.40625 9.625 
Q 42.625 4.78125 38.28125 2.390625 
Q 33.9375 0 27.875 0 
Q 17.828125 0 11.671875 7.65625 
Q 5.515625 15.328125 5.515625 27.984375 
Q 5.515625 40.671875 11.671875 48.328125 
Q 17.828125 56 27.875 56 
Q 33.9375 56 38.28125 53.609375 
Q 42.625 51.21875 45.40625 46.390625 
L 45.40625 54.6875 
L 54.390625 54.6875 
z
" id="DejaVuSans-103"/>
       <path d="M 18.3125 70.21875 
L 18.3125 54.6875 
L 36.8125 54.6875 
L 36.8125 47.703125 
L 18.3125 47.703125 
L 18.3125 18.015625 
Q 18.3125 11.328125 20.140625 9.421875 
Q 21.96875 7.515625 27.59375 7.515625 
L 36.8125 7.515625 
L 36.8125 0 
L 27.59375 0 
Q 17.1875 0 13.234375 3.875 
Q 9.28125 7.765625 9.28125 18.015625 
L 9.28125 47.703125 
L 2.6875 47.703125 
L 2.6875 54.6875 
L 9.28125 54.6875 
L 9.28125 70.21875 
z
" id="DejaVuSans-116"/>
       <path d="M 52 44.1875 
Q 55.375 50.25 60.0625 53.125 
Q 64.75 56 71.09375 56 
Q 79.640625 56 84.28125 50.015625 
Q 88.921875 44.046875 88.921875 33.015625 
L 88.921875 0 
L 79.890625 0 
L 79.890625 32.71875 
Q 79.890625 40.578125 77.09375 44.375 
Q 74.3125 48.1875 68.609375 48.1875 
Q 61.625 48.1875 57.5625 43.546875 
Q 53.515625 38.921875 53.515625 30.90625 
L 53.515625 0 
L 44.484375 0 
L 44.484375 32.71875 
Q 44.484375 40.625 41.703125 44.40625 
Q 38.921875 48.1875 33.109375 48.1875 
Q 26.21875 48.1875 22.15625 43.53125 
Q 18.109375 38.875 18.109375 30.90625 
L 18.109375 0 
L 9.078125 0 
L 9.078125 54.6875 
L 18.109375 54.6875 
L 18.109375 46.1875 
Q 21.1875 51.21875 25.484375 53.609375 
Q 29.78125 56 35.6875 56 
Q 41.65625 56 45.828125 52.96875 
Q 50 49.953125 52 44.1875 
z
" id="DejaVuSans-109"/>
       <path d="M 45.40625 46.390625 
L 45.40625 75.984375 
L 54.390625 75.984375 
L 54.390625 0 
L 45.40625 0 
L 45.40625 8.203125 
Q 42.578125 3.328125 38.25 0.953125 
Q 33.9375 -1.421875 27.875 -1.421875 
Q 17.96875 -1.421875 11.734375 6.484375 
Q 5.515625 14.40625 5.515625 27.296875 
Q 5.515625 40.1875 11.734375 48.09375 
Q 17.96875 56 27.875 56 
Q 33.9375 56 38.25 53.625 
Q 42.578125 51.265625 45.40625 46.390625 
z
M 14.796875 27.296875 
Q 14.796875 17.390625 18.875 11.75 
Q 22.953125 6.109375 30.078125 6.109375 
Q 37.203125 6.109375 41.296875 11.75 
Q 45.40625 17.390625 45.40625 27.296875 
Q 45.40625 37.203125 41.296875 42.84375 
Q 37.203125 48.484375 30.078125 48.484375 
Q 22.953125 48.484375 18.875 42.84375 
Q 14.796875 37.203125 14.796875 27.296875 
z
" id="DejaVuSans-100"/>
       <path d="M 54.890625 33.015625 
L 54.890625 0 
L 45.90625 0 
L 45.90625 32.71875 
Q 45.90625 40.484375 42.875 44.328125 
Q 39.84375 48.1875 33.796875 48.1875 
Q 26.515625 48.1875 22.3125 43.546875 
Q 18.109375 38.921875 18.109375 30.90625 
L 18.109375 0 
L 9.078125 0 
L 9.078125 54.6875 
L 18.109375 54.6875 
L 18.109375 46.1875 
Q 21.34375 51.125 25.703125 53.5625 
Q 30.078125 56 35.796875 56 
Q 45.21875 56 50.046875 50.171875 
Q 54.890625 44.34375 54.890625 33.015625 
z
" id="DejaVuSans-110"/>
       <path d="M 2.984375 54.6875 
L 12.5 54.6875 
L 29.59375 8.796875 
L 46.6875 54.6875 
L 56.203125 54.6875 
L 35.6875 0 
L 23.484375 0 
z
" id="DejaVuSans-118"/>
       <path d="M 8.015625 75.875 
L 15.828125 75.875 
Q 23.140625 64.359375 26.78125 53.3125 
Q 30.421875 42.28125 30.421875 31.390625 
Q 30.421875 20.453125 26.78125 9.375 
Q 23.140625 -1.703125 15.828125 -13.1875 
L 8.015625 -13.1875 
Q 14.5 -2 17.703125 9.0625 
Q 20.90625 20.125 20.90625 31.390625 
Q 20.90625 42.671875 17.703125 53.65625 
Q 14.5 64.65625 8.015625 75.875 
z
" id="DejaVuSans-41"/>
      </defs>
      <use xlink:href="#DejaVuSans-70"/>
      <use x="52.019531" xlink:href="#DejaVuSans-117"/>
      <use x="115.398438" xlink:href="#DejaVuSans-122"/>
      <use x="167.888672" xlink:href="#DejaVuSans-122"/>
      <use x="220.378906" xlink:href="#DejaVuSans-101"/>
      <use x="281.902344" xlink:href="#DejaVuSans-114"/>
      <use x="323.015625" xlink:href="#DejaVuSans-32"/>
      <use x="354.802734" xlink:href="#DejaVuSans-40"/>
      <use x="393.816406" xlink:href="#DejaVuSans-104"/>
      <use x="457.195312" xlink:href="#DejaVuSans-105"/>
      <use x="484.978516" xlink:href="#DejaVuSans-103"/>
      <use x="548.455078" xlink:href="#DejaVuSans-104"/>
      <use x="611.833984" xlink:href="#DejaVuSans-101"/>
      <use x="673.357422" xlink:href="#DejaVuSans-115"/>
      <use x="725.457031" xlink:href="#DejaVuSans-116"/>
      <use x="764.666016" xlink:href="#DejaVuSans-32"/>
      <use x="796.453125" xlink:href="#DejaVuSans-109"/>
      <use x="893.865234" xlink:href="#DejaVuSans-101"/>
      <use x="955.388672" xlink:href="#DejaVuSans-100"/>
      <use x="1018.865234" xlink:href="#DejaVuSans-105"/>
      <use x="1046.648438" xlink:href="#DejaVuSans-97"/>
      <use x="1107.927734" xlink:href="#DejaVuSans-110"/>
      <use x="1171.306641" xlink:href="#DejaVuSans-32"/>
      <use x="1203.09375" xlink:href="#DejaVuSans-99"/>
      <use x="1258.074219" xlink:href="#DejaVuSans-111"/>
      <use x="1319.255859" xlink:href="#DejaVuSans-118"/>
      <use x="1378.435547" xlink:href="#DejaVuSans-101"/>
      <use x="1439.958984" xlink:href="#DejaVuSans-114"/>
      <use x="1481.072266" xlink:href="#DejaVuSans-97"/>
      <use x="1542.351562" xlink:href="#DejaVuSans-103"/>
      <use x="1605.828125" xlink:href="#DejaVuSans-101"/>
      <use x="1667.351562" xlink:href="#DejaVuSans-32"/>
      <use x="1699.138672" xlink:href="#DejaVuSans-111"/>
      <use x="1760.320312" xlink:href="#DejaVuSans-110"/>
      <use x="1823.699219" xlink:href="#DejaVuSans-32"/>
      <use x="1855.486328" xlink:href="#DejaVuSans-116"/>
      <use x="1894.695312" xlink:href="#DejaVuSans-104"/>
      <use x="1958.074219" xlink:href="#DejaVuSans-101"/>
      <use x="2019.597656" xlink:href="#DejaVuSans-32"/>
      <use x="2051.384766" xlink:href="#DejaVuSans-108"/>
      <use x="2079.167969" xlink:href="#DejaVuSans-101"/>
      <use x="2140.691406" xlink:href="#DejaVuSans-102"/>
      <use x="2174.146484" xlink:href="#DejaVuSans-116"/>
      <use x="2213.355469" xlink:href="#DejaVuSans-41"/>
     </g>
    </g>
   </g>
   <g id="matplotlib.axis_2">
    <g id="ytick_1">
     <g id="line2d_4">
      <defs>
       <path d="M 0 0 
L -3.5 0 
" id="m9f78725d75" style="stroke:#000000;stroke-width:0.8;"/>
      </defs>
      <g>
       <use style="stroke:#000000;stroke-width:0.8;" x="53.328125" xlink:href="#m9f78725d75" y="245.429601"/>
      </g>
     </g>
     <g id="text_5">
      <!-- 1950 -->
      <g transform="translate(20.878125 249.22882)scale(0.1 -0.1)">
       <defs>
        <path d="M 12.40625 8.296875 
L 28.515625 8.296875 
L 28.515625 63.921875 
L 10.984375 60.40625 
L 10.984375 69.390625 
L 28.421875 72.90625 
L 38.28125 72.90625 
L 38.28125 8.296875 
L 54.390625 8.296875 
L 54.390625 0 
L 12.40625 0 
z
" id="DejaVuSans-49"/>
        <path d="M 10.984375 1.515625 
L 10.984375 10.5 
Q 14.703125 8.734375 18.5 7.8125 
Q 22.3125 6.890625 25.984375 6.890625 
Q 35.75 6.890625 40.890625 13.453125 
Q 46.046875 20.015625 46.78125 33.40625 
Q 43.953125 29.203125 39.59375 26.953125 
Q 35.25 24.703125 29.984375 24.703125 
Q 19.046875 24.703125 12.671875 31.3125 
Q 6.296875 37.9375 6.296875 49.421875 
Q 6.296875 60.640625 12.9375 67.421875 
Q 19.578125 74.21875 30.609375 74.21875 
Q 43.265625 74.21875 49.921875 64.515625 
Q 56.59375 54.828125 56.59375 36.375 
Q 56.59375 19.140625 48.40625 8.859375 
Q 40.234375 -1.421875 26.421875 -1.421875 
Q 22.703125 -1.421875 18.890625 -0.6875 
Q 15.09375 0.046875 10.984375 1.515625 
z
M 30.609375 32.421875 
Q 37.25 32.421875 41.125 36.953125 
Q 45.015625 41.5 45.015625 49.421875 
Q 45.015625 57.28125 41.125 61.84375 
Q 37.25 66.40625 30.609375 66.40625 
Q 23.96875 66.40625 20.09375 61.84375 
Q 16.21875 57.28125 16.21875 49.421875 
Q 16.21875 41.5 20.09375 36.953125 
Q 23.96875 32.421875 30.609375 32.421875 
z
" id="DejaVuSans-57"/>
        <path d="M 10.796875 72.90625 
L 49.515625 72.90625 
L 49.515625 64.59375 
L 19.828125 64.59375 
L 19.828125 46.734375 
Q 21.96875 47.46875 24.109375 47.828125 
Q 26.265625 48.1875 28.421875 48.1875 
Q 40.625 48.1875 47.75 41.5 
Q 54.890625 34.8125 54.890625 23.390625 
Q 54.890625 11.625 47.5625 5.09375 
Q 40.234375 -1.421875 26.90625 -1.421875 
Q 22.3125 -1.421875 17.546875 -0.640625 
Q 12.796875 0.140625 7.71875 1.703125 
L 7.71875 11.625 
Q 12.109375 9.234375 16.796875 8.0625 
Q 21.484375 6.890625 26.703125 6.890625 
Q 35.15625 6.890625 40.078125 11.328125 
Q 45.015625 15.765625 45.015625 23.390625 
Q 45.015625 31 40.078125 35.4375 
Q 35.15625 39.890625 26.703125 39.890625 
Q 22.75 39.890625 18.8125 39.015625 
Q 14.890625 38.140625 10.796875 36.28125 
z
" id="DejaVuSans-53"/>
        <path d="M 31.78125 66.40625 
Q 24.171875 66.40625 20.328125 58.90625 
Q 16.5 51.421875 16.5 36.375 
Q 16.5 21.390625 20.328125 13.890625 
Q 24.171875 6.390625 31.78125 6.390625 
Q 39.453125 6.390625 43.28125 13.890625 
Q 47.125 21.390625 47.125 36.375 
Q 47.125 51.421875 43.28125 58.90625 
Q 39.453125 66.40625 31.78125 66.40625 
z
M 31.78125 74.21875 
Q 44.046875 74.21875 50.515625 64.515625 
Q 56.984375 54.828125 56.984375 36.375 
Q 56.984375 17.96875 50.515625 8.265625 
Q 44.046875 -1.421875 31.78125 -1.421875 
Q 19.53125 -1.421875 13.0625 8.265625 
Q 6.59375 17.96875 6.59375 36.375 
Q 6.59375 54.828125 13.0625 64.515625 
Q 19.53125 74.21875 31.78125 74.21875 
z
" id="DejaVuSans-48"/>
       </defs>
       <use xlink:href="#DejaVuSans-49"/>
       <use x="63.623047" xlink:href="#DejaVuSans-57"/>
       <use x="127.246094" xlink:href="#DejaVuSans-53"/>
       <use x="190.869141" xlink:href="#DejaVuSans-48"/>
      </g>
     </g>
    </g>
    <g id="ytick_2">
     <g id="line2d_5">
      <g>
       <use style="stroke:#000000;stroke-width:0.8;" x="53.328125" xlink:href="#m9f78725d75" y="197.781201"/>
      </g>
     </g>
     <g id="text_6">
      <!-- 2000 -->
      <g transform="translate(20.878125 201.58042)scale(0.1 -0.1)">
       <defs>
        <path d="M 19.1875 8.296875 
L 53.609375 8.296875 
L 53.609375 0 
L 7.328125 0 
L 7.328125 8.296875 
Q 12.9375 14.109375 22.625 23.890625 
Q 32.328125 33.6875 34.8125 36.53125 
Q 39.546875 41.84375 41.421875 45.53125 
Q 43.3125 49.21875 43.3125 52.78125 
Q 43.3125 58.59375 39.234375 62.25 
Q 35.15625 65.921875 28.609375 65.921875 
Q 23.96875 65.921875 18.8125 64.3125 
Q 13.671875 62.703125 7.8125 59.421875 
L 7.8125 69.390625 
Q 13.765625 71.78125 18.9375 73 
Q 24.125 74.21875 28.421875 74.21875 
Q 39.75 74.21875 46.484375 68.546875 
Q 53.21875 62.890625 53.21875 53.421875 
Q 53.21875 48.921875 51.53125 44.890625 
Q 49.859375 40.875 45.40625 35.40625 
Q 44.1875 33.984375 37.640625 27.21875 
Q 31.109375 20.453125 19.1875 8.296875 
z
" id="DejaVuSans-50"/>
       </defs>
       <use xlink:href="#DejaVuSans-50"/>
       <use x="63.623047" xlink:href="#DejaVuSans-48"/>
       <use x="127.246094" xlink:href="#DejaVuSans-48"/>
       <use x="190.869141" xlink:href="#DejaVuSans-48"/>
      </g>
     </g>
    </g>
    <g id="ytick_3">
     <g id="line2d_6">
      <g>
       <use style="stroke:#000000;stroke-width:0.8;" x="53.328125" xlink:href="#m9f78725d75" y="150.132801"/>
      </g>
     </g>
     <g id="text_7">
      <!-- 2050 -->
      <g transform="translate(20.878125 153.93202)scale(0.1 -0.1)">
       <use xlink:href="#DejaVuSans-50"/>
       <use x="63.623047" xlink:href="#DejaVuSans-48"/>
       <use x="127.246094" xlink:href="#DejaVuSans-53"/>
       <use x="190.869141" xlink:href="#DejaVuSans-48"/>
      </g>
     </g>
    </g>
    <g id="ytick_4">
     <g id="line2d_7">
      <g>
       <use style="stroke:#000000;stroke-width:0.8;" x="53.328125" xlink:href="#m9f78725d75" y="102.484401"/>
      </g>
     </g>
     <g id="text_8">
      <!-- 2100 -->
      <g transform="translate(20.878125 106.28362)scale(0.1 -0.1)">
       <use xlink:href="#DejaVuSans-50"/>
       <use x="63.623047" xlink:href="#DejaVuSans-49"/>
       <use x="127.246094" xlink:href="#DejaVuSans-48"/>
       <use x="190.869141" xlink:href="#DejaVuSans-48"/>
      </g>
     </g>
    </g>
    <g id="ytick_5">
     <g id="line2d_8">
      <g>
       <use style="stroke:#000000;stroke-width:0.8;" x="53.328125" xlink:href="#m9f78725d75" y="54.836001"/>
      </g>
     </g>
     <g id="text_9">
      <!-- 2150 -->
      <g transform="translate(20.878125 58.63522)scale(0.1 -0.1)">
       <use xlink:href="#DejaVuSans-50"/>
       <use x="63.623047" xlink:href="#DejaVuSans-49"/>
       <use x="127.246094" xlink:href="#DejaVuSans-53"/>
       <use x="190.869141" xlink:href="#DejaVuSans-48"/>
      </g>
     </g>
    </g>
    <g id="text_10">
     <!-- Reached region coverage -->
     <g transform="translate(14.798438 219.136625)rotate(-90)scale(0.1 -0.1)">
      <defs>
       <path d="M 44.390625 34.1875 
Q 47.5625 33.109375 50.5625 29.59375 
Q 53.5625 26.078125 56.59375 19.921875 
L 66.609375 0 
L 56 0 
L 46.6875 18.703125 
Q 43.0625 26.03125 39.671875 28.421875 
Q 36.28125 30.8125 30.421875 30.8125 
L 19.671875 30.8125 
L 19.671875 0 
L 9.8125 0 
L 9.8125 72.90625 
L 32.078125 72.90625 
Q 44.578125 72.90625 50.734375 67.671875 
Q 56.890625 62.453125 56.890625 51.90625 
Q 56.890625 45.015625 53.6875 40.46875 
Q 50.484375 35.9375 44.390625 34.1875 
z
M 19.671875 64.796875 
L 19.671875 38.921875 
L 32.078125 38.921875 
Q 39.203125 38.921875 42.84375 42.21875 
Q 46.484375 45.515625 46.484375 51.90625 
Q 46.484375 58.296875 42.84375 61.546875 
Q 39.203125 64.796875 32.078125 64.796875 
z
" id="DejaVuSans-82"/>
      </defs>
      <use xlink:href="#DejaVuSans-82"/>
      <use x="64.982422" xlink:href="#DejaVuSans-101"/>
      <use x="126.505859" xlink:href="#DejaVuSans-97"/>
      <use x="187.785156" xlink:href="#DejaVuSans-99"/>
      <use x="242.765625" xlink:href="#DejaVuSans-104"/>
      <use x="306.144531" xlink:href="#DejaVuSans-101"/>
      <use x="367.667969" xlink:href="#DejaVuSans-100"/>
      <use x="431.144531" xlink:href="#DejaVuSans-32"/>
      <use x="462.931641" xlink:href="#DejaVuSans-114"/>
      <use x="501.794922" xlink:href="#DejaVuSans-101"/>
      <use x="563.318359" xlink:href="#DejaVuSans-103"/>
      <use x="626.794922" xlink:href="#DejaVuSans-105"/>
      <use x="654.578125" xlink:href="#DejaVuSans-111"/>
      <use x="715.759766" xlink:href="#DejaVuSans-110"/>
      <use x="779.138672" xlink:href="#DejaVuSans-32"/>
      <use x="810.925781" xlink:href="#DejaVuSans-99"/>
      <use x="865.90625" xlink:href="#DejaVuSans-111"/>
      <use x="927.087891" xlink:href="#DejaVuSans-118"/>
      <use x="986.267578" xlink:href="#DejaVuSans-101"/>
      <use x="1047.791016" xlink:href="#DejaVuSans-114"/>
      <use x="1088.904297" xlink:href="#DejaVuSans-97"/>
      <use x="1150.183594" xlink:href="#DejaVuSans-103"/>
      <use x="1213.660156" xlink:href="#DejaVuSans-101"/>
     </g>
    </g>
   </g>
   <g id="line2d_9">
    <path clip-path="url(#p8e6650ec02)" d="M 112.848125 233.041017 
L 112.848125 176.815905 
" style="fill:none;stroke:#3f3f3f;stroke-linecap:square;stroke-width:1.5;"/>
   </g>
   <g id="line2d_10">
    <path clip-path="url(#p8e6650ec02)" d="M 112.848125 208.025607 
L 112.848125 183.963165 
" style="fill:none;stroke:#3f3f3f;stroke-linecap:square;stroke-width:4.5;"/>
   </g>
   <g id="line2d_11">
    <path clip-path="url(#p8e6650ec02)" d="M 231.888125 205.404945 
L 231.888125 190.157457 
" style="fill:none;stroke:#3f3f3f;stroke-linecap:square;stroke-width:1.5;"/>
   </g>
   <g id="line2d_12">
    <path clip-path="url(#p8e6650ec02)" d="M 231.888125 200.401863 
L 231.888125 168.953919 
" style="fill:none;stroke:#3f3f3f;stroke-linecap:square;stroke-width:4.5;"/>
   </g>
   <g id="line2d_13">
    <path clip-path="url(#p8e6650ec02)" d="M 350.928125 220.652433 
L 350.928125 174.909969 
" style="fill:none;stroke:#3f3f3f;stroke-linecap:square;stroke-width:1.5;"/>
   </g>
   <g id="line2d_14">
    <path clip-path="url(#p8e6650ec02)" d="M 350.928125 217.793529 
L 350.928125 186.345585 
" style="fill:none;stroke:#3f3f3f;stroke-linecap:square;stroke-width:4.5;"/>
   </g>
   <g id="patch_3">
    <path d="M 53.328125 245.429601 
L 53.328125 54.836001 
" style="fill:none;stroke:#000000;stroke-linecap:square;stroke-linejoin:miter;stroke-width:0.8;"/>
   </g>
   <g id="patch_4">
    <path d="M 112.848125 288.430125 
L 350.928125 288.430125 
" style="fill:none;stroke:#000000;stroke-linecap:square;stroke-linejoin:miter;stroke-width:0.8;"/>
   </g>
   <g id="PathCollection_1">
    <defs>
     <path d="M 0 1.5 
C 0.397805 1.5 0.77937 1.341951 1.06066 1.06066 
C 1.341951 0.77937 1.5 0.397805 1.5 0 
C 1.5 -0.397805 1.341951 -0.77937 1.06066 -1.06066 
C 0.77937 -1.341951 0.397805 -1.5 0 -1.5 
C -0.397805 -1.5 -0.77937 -1.341951 -1.06066 -1.06066 
C -1.341951 -0.77937 -1.5 -0.397805 -1.5 0 
C -1.5 0.397805 -1.341951 0.77937 -1.06066 1.06066 
C -0.77937 1.341951 -0.397805 1.5 0 1.5 
z
" id="m6a931a389a" style="stroke:#3f3f3f;"/>
    </defs>
    <g clip-path="url(#p8e6650ec02)">
     <use style="fill:#ffffff;stroke:#3f3f3f;" x="112.848125" xlink:href="#m6a931a389a" y="193.016361"/>
    </g>
   </g>
   <g id="PathCollection_2">
    <g clip-path="url(#p8e6650ec02)">
     <use style="fill:#ffffff;stroke:#3f3f3f;" x="231.888125" xlink:href="#m6a931a389a" y="194.445813"/>
    </g>
   </g>
   <g id="PathCollection_3">
    <g clip-path="url(#p8e6650ec02)">
     <use style="fill:#ffffff;stroke:#3f3f3f;" x="350.928125" xlink:href="#m6a931a389a" y="203.499009"/>
    </g>
   </g>
   <g id="text_11">
    <!-- vorbis-2017-12-11 (1h:45m, 4 trials/fuzzer) -->
    <g transform="translate(101.968438 16.318125)scale(0.12 -0.12)">
     <defs>
      <path d="M 48.6875 27.296875 
Q 48.6875 37.203125 44.609375 42.84375 
Q 40.53125 48.484375 33.40625 48.484375 
Q 26.265625 48.484375 22.1875 42.84375 
Q 18.109375 37.203125 18.109375 27.296875 
Q 18.109375 17.390625 22.1875 11.75 
Q 26.265625 6.109375 33.40625 6.109375 
Q 40.53125 6.109375 44.609375 11.75 
Q 48.6875 17.390625 48.6875 27.296875 
z
M 18.109375 46.390625 
Q 20.953125 51.265625 25.265625 53.625 
Q 29.59375 56 35.59375 56 
Q 45.5625 56 51.78125 48.09375 
Q 58.015625 40.1875 58.015625 27.296875 
Q 58.015625 14.40625 51.78125 6.484375 
Q 45.5625 -1.421875 35.59375 -1.421875 
Q 29.59375 -1.421875 25.265625 0.953125 
Q 20.953125 3.328125 18.109375 8.203125 
L 18.109375 0 
L 9.078125 0 
L 9.078125 75.984375 
L 18.109375 75.984375 
z
" id="DejaVuSans-98"/>
      <path d="M 4.890625 31.390625 
L 31.203125 31.390625 
L 31.203125 23.390625 
L 4.890625 23.390625 
z
" id="DejaVuSans-45"/>
      <path d="M 8.203125 72.90625 
L 55.078125 72.90625 
L 55.078125 68.703125 
L 28.609375 0 
L 18.3125 0 
L 43.21875 64.59375 
L 8.203125 64.59375 
z
" id="DejaVuSans-55"/>
      <path d="M 11.71875 12.40625 
L 22.015625 12.40625 
L 22.015625 0 
L 11.71875 0 
z
M 11.71875 51.703125 
L 22.015625 51.703125 
L 22.015625 39.3125 
L 11.71875 39.3125 
z
" id="DejaVuSans-58"/>
      <path d="M 37.796875 64.3125 
L 12.890625 25.390625 
L 37.796875 25.390625 
z
M 35.203125 72.90625 
L 47.609375 72.90625 
L 47.609375 25.390625 
L 58.015625 25.390625 
L 58.015625 17.1875 
L 47.609375 17.1875 
L 47.609375 0 
L 37.796875 0 
L 37.796875 17.1875 
L 4.890625 17.1875 
L 4.890625 26.703125 
z
" id="DejaVuSans-52"/>
      <path d="M 11.71875 12.40625 
L 22.015625 12.40625 
L 22.015625 4 
L 14.015625 -11.625 
L 7.71875 -11.625 
L 11.71875 4 
z
" id="DejaVuSans-44"/>
      <path d="M 25.390625 72.90625 
L 33.6875 72.90625 
L 8.296875 -9.28125 
L 0 -9.28125 
z
" id="DejaVuSans-47"/>
     </defs>
     <use xlink:href="#DejaVuSans-118"/>
     <use x="59.179688" xlink:href="#DejaVuSans-111"/>
     <use x="120.361328" xlink:href="#DejaVuSans-114"/>
     <use x="161.474609" xlink:href="#DejaVuSans-98"/>
     <use x="224.951172" xlink:href="#DejaVuSans-105"/>
     <use x="252.734375" xlink:href="#DejaVuSans-115"/>
     <use x="304.833984" xlink:href="#DejaVuSans-45"/>
     <use x="340.917969" xlink:href="#DejaVuSans-50"/>
     <use x="404.541016" xlink:href="#DejaVuSans-48"/>
     <use x="468.164062" xlink:href="#DejaVuSans-49"/>
     <use x="531.787109" xlink:href="#DejaVuSans-55"/>
     <use x="595.410156" xlink:href="#DejaVuSans-45"/>
     <use x="631.494141" xlink:href="#DejaVuSans-49"/>
     <use x="695.117188" xlink:href="#DejaVuSans-50"/>
     <use x="758.740234" xlink:href="#DejaVuSans-45"/>
     <use x="794.824219" xlink:href="#DejaVuSans-49"/>
     <use x="858.447266" xlink:href="#DejaVuSans-49"/>
     <use x="922.070312" xlink:href="#DejaVuSans-32"/>
     <use x="953.857422" xlink:href="#DejaVuSans-40"/>
     <use x="992.871094" xlink:href="#DejaVuSans-49"/>
     <use x="1056.494141" xlink:href="#DejaVuSans-104"/>
     <use x="1119.873047" xlink:href="#DejaVuSans-58"/>
     <use x="1153.564453" xlink:href="#DejaVuSans-52"/>
     <use x="1217.1875" xlink:href="#DejaVuSans-53"/>
     <use x="1280.810547" xlink:href="#DejaVuSans-109"/>
     <use x="1378.222656" xlink:href="#DejaVuSans-44"/>
     <use x="1410.009766" xlink:href="#DejaVuSans-32"/>
     <use x="1441.796875" xlink:href="#DejaVuSans-52"/>
     <use x="1505.419922" xlink:href="#DejaVuSans-32"/>
     <use x="1537.207031" xlink:href="#DejaVuSans-116"/>
     <use x="1576.416016" xlink:href="#DejaVuSans-114"/>
     <use x="1617.529297" xlink:href="#DejaVuSans-105"/>
     <use x="1645.3125" xlink:href="#DejaVuSans-97"/>
     <use x="1706.591797" xlink:href="#DejaVuSans-108"/>
     <use x="1734.375" xlink:href="#DejaVuSans-115"/>
     <use x="1786.474609" xlink:href="#DejaVuSans-47"/>
     <use x="1820.166016" xlink:href="#DejaVuSans-102"/>
     <use x="1855.371094" xlink:href="#DejaVuSans-117"/>
     <use x="1918.75" xlink:href="#DejaVuSans-122"/>
     <use x="1971.240234" xlink:href="#DejaVuSans-122"/>
     <use x="2023.730469" xlink:href="#DejaVuSans-101"/>
     <use x="2085.253906" xlink:href="#DejaVuSans-114"/>
     <use x="2126.367188" xlink:href="#DejaVuSans-41"/>
    </g>
   </g>
  </g>
 </g>
 <defs>
  <clipPath id="p8e6650ec02">
   <rect height="266.112" width="357.12" x="53.328125" y="22.318125"/>
  </clipPath>
 </defs>
</svg>
