<?xml version="1.0" encoding="utf-8" standalone="no"?>
<!DOCTYPE svg PUBLIC "-//W3C//DTD SVG 1.1//EN"
  "http://www.w3.org/Graphics/SVG/1.1/DTD/svg11.dtd">
<!-- Created with matplotlib (https://matplotlib.org/) -->
<svg height="364.007178pt" version="1.1" viewBox="0 0 417.648125 364.007178" width="417.648125pt" xmlns="http://www.w3.org/2000/svg" xmlns:xlink="http://www.w3.org/1999/xlink">
 <metadata>
  <rdf:RDF xmlns:cc="http://creativecommons.org/ns#" xmlns:dc="http://purl.org/dc/elements/1.1/" xmlns:rdf="http://www.w3.org/1999/02/22-rdf-syntax-ns#">
   <cc:Work>
    <dc:type rdf:resource="http://purl.org/dc/dcmitype/StillImage"/>
    <dc:date>2020-11-08T21:44:02.640436</dc:date>
    <dc:format>image/svg+xml</dc:format>
    <dc:creator>
     <cc:Agent>
      <dc:title>Matplotlib v3.3.2, https://matplotlib.org/</dc:title>
     </cc:Agent>
    </dc:creator>
   </cc:Work>
  </rdf:RDF>
 </metadata>
 <defs>
  <style type="text/css">*{stroke-linecap:butt;stroke-linejoin:round;}</style>
 </defs>
 <g id="figure_1">
  <g id="patch_1">
   <path d="M 0 364.007178 
L 417.648125 364.007178 
L 417.648125 0 
L 0 0 
z
" style="fill:#ffffff;"/>
  </g>
  <g id="axes_1">
   <g id="patch_2">
    <path d="M 53.328125 288.430125 
L 410.448125 288.430125 
L 410.448125 22.318125 
L 53.328125 22.318125 
z
" style="fill:#ffffff;"/>
   </g>
   <g id="PolyCollection_1">
    <defs>
     <path d="M 116.886928 -292.408713 
L 108.809322 -292.408713 
L 108.149402 -292.784312 
L 107.409727 -293.159912 
L 106.585904 -293.535511 
L 105.67424 -293.911111 
L 104.671919 -294.28671 
L 103.577187 -294.662309 
L 102.389526 -295.037909 
L 101.109827 -295.413508 
L 99.740529 -295.789108 
L 98.285751 -296.164707 
L 96.751376 -296.540306 
L 95.145106 -296.915906 
L 93.476468 -297.291505 
L 91.756766 -297.667105 
L 89.99899 -298.042704 
L 88.217661 -298.418303 
L 86.428625 -298.793903 
L 84.648798 -299.169502 
L 82.89586 -299.545101 
L 81.187911 -299.920701 
L 79.543095 -300.2963 
L 77.97921 -300.6719 
L 76.513298 -301.047499 
L 75.161251 -301.423098 
L 73.937431 -301.798698 
L 72.854321 -302.174297 
L 71.922222 -302.549897 
L 71.149004 -302.925496 
L 70.539924 -303.301095 
L 70.097509 -303.676695 
L 69.821522 -304.052294 
L 69.709003 -304.427894 
L 69.754382 -304.803493 
L 69.949667 -305.179092 
L 70.284693 -305.554692 
L 70.747427 -305.930291 
L 71.324316 -306.305891 
L 72.000663 -306.68149 
L 72.76102 -307.057089 
L 73.589586 -307.432689 
L 74.470594 -307.808288 
L 75.388673 -308.183888 
L 76.329184 -308.559487 
L 77.278503 -308.935086 
L 78.224272 -309.310686 
L 79.155581 -309.686285 
L 80.063112 -310.061884 
L 80.939218 -310.437484 
L 81.777953 -310.813083 
L 82.575065 -311.188683 
L 83.327928 -311.564282 
L 84.035458 -311.939881 
L 84.697988 -312.315481 
L 85.317124 -312.69108 
L 85.895584 -313.06668 
L 86.437033 -313.442279 
L 86.945907 -313.817878 
L 87.42724 -314.193478 
L 87.886495 -314.569077 
L 88.329403 -314.944677 
L 88.76181 -315.320276 
L 89.189533 -315.695875 
L 89.61823 -316.071475 
L 90.053276 -316.447074 
L 90.49966 -316.822674 
L 90.961885 -317.198273 
L 91.443888 -317.573872 
L 91.948967 -317.949472 
L 92.479727 -318.325071 
L 93.038034 -318.700671 
L 93.624993 -319.07627 
L 94.24093 -319.451869 
L 94.885401 -319.827469 
L 95.557209 -320.203068 
L 96.254444 -320.578667 
L 96.974528 -320.954267 
L 97.714292 -321.329866 
L 98.470046 -321.705466 
L 99.237675 -322.081065 
L 100.012737 -322.456664 
L 100.790568 -322.832264 
L 101.566392 -323.207863 
L 102.335426 -323.583463 
L 103.092985 -323.959062 
L 103.834583 -324.334661 
L 104.556017 -324.710261 
L 105.253449 -325.08586 
L 105.923468 -325.46146 
L 106.563141 -325.837059 
L 107.170047 -326.212658 
L 107.742296 -326.588258 
L 108.278536 -326.963857 
L 108.77794 -327.339457 
L 109.240187 -327.715056 
L 109.665431 -328.090655 
L 110.054254 -328.466255 
L 110.407621 -328.841854 
L 110.726828 -329.217454 
L 111.013445 -329.593053 
L 114.682805 -329.593053 
L 114.682805 -329.593053 
L 114.969422 -329.217454 
L 115.288629 -328.841854 
L 115.641996 -328.466255 
L 116.030819 -328.090655 
L 116.456063 -327.715056 
L 116.91831 -327.339457 
L 117.417714 -326.963857 
L 117.953954 -326.588258 
L 118.526203 -326.212658 
L 119.133109 -325.837059 
L 119.772782 -325.46146 
L 120.442801 -325.08586 
L 121.140233 -324.710261 
L 121.861667 -324.334661 
L 122.603265 -323.959062 
L 123.360824 -323.583463 
L 124.129858 -323.207863 
L 124.905682 -322.832264 
L 125.683513 -322.456664 
L 126.458575 -322.081065 
L 127.226204 -321.705466 
L 127.981958 -321.329866 
L 128.721722 -320.954267 
L 129.441806 -320.578667 
L 130.139041 -320.203068 
L 130.810849 -319.827469 
L 131.45532 -319.451869 
L 132.071257 -319.07627 
L 132.658216 -318.700671 
L 133.216523 -318.325071 
L 133.747283 -317.949472 
L 134.252362 -317.573872 
L 134.734365 -317.198273 
L 135.19659 -316.822674 
L 135.642974 -316.447074 
L 136.07802 -316.071475 
L 136.506717 -315.695875 
L 136.93444 -315.320276 
L 137.366847 -314.944677 
L 137.809755 -314.569077 
L 138.26901 -314.193478 
L 138.750343 -313.817878 
L 139.259217 -313.442279 
L 139.800666 -313.06668 
L 140.379126 -312.69108 
L 140.998262 -312.315481 
L 141.660792 -311.939881 
L 142.368322 -311.564282 
L 143.121185 -311.188683 
L 143.918297 -310.813083 
L 144.757032 -310.437484 
L 145.633138 -310.061884 
L 146.540669 -309.686285 
L 147.471978 -309.310686 
L 148.417747 -308.935086 
L 149.367066 -308.559487 
L 150.307577 -308.183888 
L 151.225656 -307.808288 
L 152.106664 -307.432689 
L 152.93523 -307.057089 
L 153.695587 -306.68149 
L 154.371934 -306.305891 
L 154.948823 -305.930291 
L 155.411557 -305.554692 
L 155.746583 -305.179092 
L 155.941868 -304.803493 
L 155.987247 -304.427894 
L 155.874728 -304.052294 
L 155.598741 -303.676695 
L 155.156326 -303.301095 
L 154.547246 -302.925496 
L 153.774028 -302.549897 
L 152.841929 -302.174297 
L 151.758819 -301.798698 
L 150.534999 -301.423098 
L 149.182952 -301.047499 
L 147.71704 -300.6719 
L 146.153155 -300.2963 
L 144.508339 -299.920701 
L 142.80039 -299.545101 
L 141.047452 -299.169502 
L 139.267625 -298.793903 
L 137.478589 -298.418303 
L 135.69726 -298.042704 
L 133.939484 -297.667105 
L 132.219782 -297.291505 
L 130.551144 -296.915906 
L 128.944874 -296.540306 
L 127.410499 -296.164707 
L 125.955721 -295.789108 
L 124.586423 -295.413508 
L 123.306724 -295.037909 
L 122.119063 -294.662309 
L 121.024331 -294.28671 
L 120.02201 -293.911111 
L 119.110346 -293.535511 
L 118.286523 -293.159912 
L 117.546848 -292.784312 
L 116.886928 -292.408713 
z
" id="m82244c6177" style="stroke:#3f3f3f;stroke-width:1.5;"/>
    </defs>
    <g clip-path="url(#pa647f798aa)">
     <use style="fill:#3274a1;stroke:#3f3f3f;stroke-width:1.5;" x="0" xlink:href="#m82244c6177" y="364.007178"/>
    </g>
   </g>
   <g id="PolyCollection_2">
    <defs>
     <path d="M 235.213556 -241.062207 
L 228.562694 -241.062207 
L 228.052686 -241.363677 
L 227.485148 -241.665147 
L 226.857251 -241.966616 
L 226.166655 -242.268086 
L 225.411618 -242.569556 
L 224.591112 -242.871026 
L 223.70493 -243.172496 
L 222.753789 -243.473966 
L 221.73942 -243.775436 
L 220.664641 -244.076905 
L 219.533413 -244.378375 
L 218.350867 -244.679845 
L 217.123309 -244.981315 
L 215.858189 -245.282785 
L 214.564035 -245.584255 
L 213.250361 -245.885725 
L 211.927529 -246.187194 
L 210.606582 -246.488664 
L 209.299045 -246.790134 
L 208.016697 -247.091604 
L 206.771315 -247.393074 
L 205.574401 -247.694544 
L 204.436904 -247.996014 
L 203.368933 -248.297483 
L 202.379471 -248.598953 
L 201.476116 -248.900423 
L 200.664831 -249.201893 
L 199.949739 -249.503363 
L 199.332949 -249.804833 
L 198.814437 -250.106303 
L 198.391974 -250.407772 
L 198.06112 -250.709242 
L 197.815274 -251.010712 
L 197.645791 -251.312182 
L 197.542158 -251.613652 
L 197.492229 -251.915122 
L 197.482518 -252.216592 
L 197.498538 -252.518061 
L 197.525171 -252.819531 
L 197.547083 -253.121001 
L 197.549141 -253.422471 
L 197.516849 -253.723941 
L 197.436768 -254.025411 
L 197.296924 -254.326881 
L 197.08718 -254.62835 
L 196.799574 -254.92982 
L 196.428591 -255.23129 
L 195.971391 -255.53276 
L 195.427948 -255.83423 
L 194.801134 -256.1357 
L 194.096711 -256.43717 
L 193.323253 -256.738639 
L 192.491987 -257.040109 
L 191.616561 -257.341579 
L 190.712744 -257.643049 
L 189.798071 -257.944519 
L 188.89143 -258.245989 
L 188.012613 -258.547458 
L 187.181847 -258.848928 
L 186.419301 -259.150398 
L 185.7446 -259.451868 
L 185.176355 -259.753338 
L 184.731712 -260.054808 
L 184.425951 -260.356278 
L 184.272125 -260.657747 
L 184.280765 -260.959217 
L 184.459653 -261.260687 
L 184.81366 -261.562157 
L 185.34467 -261.863627 
L 186.051572 -262.165097 
L 186.930325 -262.466567 
L 187.974104 -262.768036 
L 189.173496 -263.069506 
L 190.516767 -263.370976 
L 191.990161 -263.672446 
L 193.578249 -263.973916 
L 195.264299 -264.275386 
L 197.030656 -264.576856 
L 198.859135 -264.878325 
L 200.731395 -265.179795 
L 202.629305 -265.481265 
L 204.535278 -265.782735 
L 206.432574 -266.084205 
L 208.305562 -266.385675 
L 210.139936 -266.687145 
L 211.922891 -266.988614 
L 213.64324 -267.290084 
L 215.291496 -267.591554 
L 216.859902 -267.893024 
L 218.342416 -268.194494 
L 219.734671 -268.495964 
L 221.033886 -268.797434 
L 222.23876 -269.098903 
L 223.349343 -269.400373 
L 224.366889 -269.701843 
L 225.293698 -270.003313 
L 226.132958 -270.304783 
L 226.888582 -270.606253 
L 227.565047 -270.907723 
L 236.211203 -270.907723 
L 236.211203 -270.907723 
L 236.887668 -270.606253 
L 237.643292 -270.304783 
L 238.482552 -270.003313 
L 239.409361 -269.701843 
L 240.426907 -269.400373 
L 241.53749 -269.098903 
L 242.742364 -268.797434 
L 244.041579 -268.495964 
L 245.433834 -268.194494 
L 246.916348 -267.893024 
L 248.484754 -267.591554 
L 250.13301 -267.290084 
L 251.853359 -266.988614 
L 253.636314 -266.687145 
L 255.470688 -266.385675 
L 257.343676 -266.084205 
L 259.240972 -265.782735 
L 261.146945 -265.481265 
L 263.044855 -265.179795 
L 264.917115 -264.878325 
L 266.745594 -264.576856 
L 268.511951 -264.275386 
L 270.198001 -263.973916 
L 271.786089 -263.672446 
L 273.259483 -263.370976 
L 274.602754 -263.069506 
L 275.802146 -262.768036 
L 276.845925 -262.466567 
L 277.724678 -262.165097 
L 278.43158 -261.863627 
L 278.96259 -261.562157 
L 279.316597 -261.260687 
L 279.495485 -260.959217 
L 279.504125 -260.657747 
L 279.350299 -260.356278 
L 279.044538 -260.054808 
L 278.599895 -259.753338 
L 278.03165 -259.451868 
L 277.356949 -259.150398 
L 276.594403 -258.848928 
L 275.763637 -258.547458 
L 274.88482 -258.245989 
L 273.978179 -257.944519 
L 273.063506 -257.643049 
L 272.159689 -257.341579 
L 271.284263 -257.040109 
L 270.452997 -256.738639 
L 269.679539 -256.43717 
L 268.975116 -256.1357 
L 268.348302 -255.83423 
L 267.804859 -255.53276 
L 267.347659 -255.23129 
L 266.976676 -254.92982 
L 266.68907 -254.62835 
L 266.479326 -254.326881 
L 266.339482 -254.025411 
L 266.259401 -253.723941 
L 266.227109 -253.422471 
L 266.229167 -253.121001 
L 266.251079 -252.819531 
L 266.277712 -252.518061 
L 266.293732 -252.216592 
L 266.284021 -251.915122 
L 266.234092 -251.613652 
L 266.130459 -251.312182 
L 265.960976 -251.010712 
L 265.71513 -250.709242 
L 265.384276 -250.407772 
L 264.961813 -250.106303 
L 264.443301 -249.804833 
L 263.826511 -249.503363 
L 263.111419 -249.201893 
L 262.300134 -248.900423 
L 261.396779 -248.598953 
L 260.407317 -248.297483 
L 259.339346 -247.996014 
L 258.201849 -247.694544 
L 257.004935 -247.393074 
L 255.759553 -247.091604 
L 254.477205 -246.790134 
L 253.169668 -246.488664 
L 251.848721 -246.187194 
L 250.525889 -245.885725 
L 249.212215 -245.584255 
L 247.918061 -245.282785 
L 246.652941 -244.981315 
L 245.425383 -244.679845 
L 244.242837 -244.378375 
L 243.111609 -244.076905 
L 242.03683 -243.775436 
L 241.022461 -243.473966 
L 240.07132 -243.172496 
L 239.185138 -242.871026 
L 238.364632 -242.569556 
L 237.609595 -242.268086 
L 236.918999 -241.966616 
L 236.291102 -241.665147 
L 235.723564 -241.363677 
L 235.213556 -241.062207 
z
" id="m3ad799612a" style="stroke:#3f3f3f;stroke-width:1.5;"/>
    </defs>
    <g clip-path="url(#pa647f798aa)">
     <use style="fill:#c03d3e;stroke:#3f3f3f;stroke-width:1.5;" x="0" xlink:href="#m3ad799612a" y="364.007178"/>
    </g>
   </g>
   <g id="PolyCollection_3">
    <defs>
     <path d="M 354.177578 -87.673053 
L 347.678672 -87.673053 
L 347.170627 -87.990795 
L 346.603744 -88.308538 
L 345.974872 -88.62628 
L 345.281311 -88.944022 
L 344.520925 -89.261765 
L 343.692248 -89.579507 
L 342.794597 -89.89725 
L 341.82817 -90.214992 
L 340.79414 -90.532734 
L 339.694722 -90.850477 
L 338.533233 -91.168219 
L 337.314122 -91.485962 
L 336.042976 -91.803704 
L 334.726492 -92.121446 
L 333.372429 -92.439189 
L 331.989512 -92.756931 
L 330.587322 -93.074673 
L 329.176142 -93.392416 
L 327.766781 -93.710158 
L 326.370375 -94.027901 
L 324.998166 -94.345643 
L 323.661272 -94.663385 
L 322.370442 -94.981128 
L 321.135822 -95.29887 
L 319.966721 -95.616613 
L 318.871395 -95.934355 
L 317.856852 -96.252097 
L 316.928691 -96.56984 
L 316.090969 -96.887582 
L 315.346109 -97.205325 
L 314.694853 -97.523067 
L 314.13626 -97.840809 
L 313.667741 -98.158552 
L 313.285152 -98.476294 
L 312.98291 -98.794036 
L 312.754165 -99.111779 
L 312.59099 -99.429521 
L 312.484608 -99.747264 
L 312.42563 -100.065006 
L 312.404314 -100.382748 
L 312.410825 -100.700491 
L 312.435498 -101.018233 
L 312.469088 -101.335976 
L 312.503013 -101.653718 
L 312.529568 -101.97146 
L 312.542125 -102.289203 
L 312.535296 -102.606945 
L 312.505068 -102.924687 
L 312.448903 -103.24243 
L 312.365799 -103.560172 
L 312.256323 -103.877915 
L 312.122591 -104.195657 
L 311.968231 -104.513399 
L 311.798292 -104.831142 
L 311.619132 -105.148884 
L 311.43827 -105.466627 
L 311.264211 -105.784369 
L 311.106243 -106.102111 
L 310.974216 -106.419854 
L 310.878309 -106.737596 
L 310.828776 -107.055338 
L 310.835697 -107.373081 
L 310.908724 -107.690823 
L 311.056834 -108.008566 
L 311.288099 -108.326308 
L 311.609469 -108.64405 
L 312.026587 -108.961793 
L 312.543628 -109.279535 
L 313.16318 -109.597278 
L 313.886154 -109.91502 
L 314.711746 -110.232762 
L 315.637432 -110.550505 
L 316.659015 -110.868247 
L 317.770706 -111.18599 
L 318.96525 -111.503732 
L 320.234078 -111.821474 
L 321.567503 -112.139217 
L 322.954925 -112.456959 
L 324.385066 -112.774701 
L 325.846207 -113.092444 
L 327.326435 -113.410186 
L 328.813877 -113.727929 
L 330.296936 -114.045671 
L 331.764498 -114.363413 
L 333.206122 -114.681156 
L 334.612211 -114.998898 
L 335.974136 -115.316641 
L 337.284346 -115.634383 
L 338.536437 -115.952125 
L 339.725189 -116.269868 
L 340.846575 -116.58761 
L 341.897738 -116.905352 
L 342.876948 -117.223095 
L 343.78353 -117.540837 
L 344.617781 -117.85858 
L 345.380868 -118.176322 
L 346.074717 -118.494064 
L 346.701904 -118.811807 
L 347.265527 -119.129549 
L 354.590723 -119.129549 
L 354.590723 -119.129549 
L 355.154346 -118.811807 
L 355.781533 -118.494064 
L 356.475382 -118.176322 
L 357.238469 -117.85858 
L 358.07272 -117.540837 
L 358.979302 -117.223095 
L 359.958512 -116.905352 
L 361.009675 -116.58761 
L 362.131061 -116.269868 
L 363.319813 -115.952125 
L 364.571904 -115.634383 
L 365.882114 -115.316641 
L 367.244039 -114.998898 
L 368.650128 -114.681156 
L 370.091752 -114.363413 
L 371.559314 -114.045671 
L 373.042373 -113.727929 
L 374.529815 -113.410186 
L 376.010043 -113.092444 
L 377.471184 -112.774701 
L 378.901325 -112.456959 
L 380.288747 -112.139217 
L 381.622172 -111.821474 
L 382.891 -111.503732 
L 384.085544 -111.18599 
L 385.197235 -110.868247 
L 386.218818 -110.550505 
L 387.144504 -110.232762 
L 387.970096 -109.91502 
L 388.69307 -109.597278 
L 389.312622 -109.279535 
L 389.829663 -108.961793 
L 390.246781 -108.64405 
L 390.568151 -108.326308 
L 390.799416 -108.008566 
L 390.947526 -107.690823 
L 391.020553 -107.373081 
L 391.027474 -107.055338 
L 390.977941 -106.737596 
L 390.882034 -106.419854 
L 390.750007 -106.102111 
L 390.592039 -105.784369 
L 390.41798 -105.466627 
L 390.237118 -105.148884 
L 390.057958 -104.831142 
L 389.888019 -104.513399 
L 389.733659 -104.195657 
L 389.599927 -103.877915 
L 389.490451 -103.560172 
L 389.407347 -103.24243 
L 389.351182 -102.924687 
L 389.320954 -102.606945 
L 389.314125 -102.289203 
L 389.326682 -101.97146 
L 389.353237 -101.653718 
L 389.387162 -101.335976 
L 389.420752 -101.018233 
L 389.445425 -100.700491 
L 389.451936 -100.382748 
L 389.43062 -100.065006 
L 389.371642 -99.747264 
L 389.26526 -99.429521 
L 389.102085 -99.111779 
L 388.87334 -98.794036 
L 388.571098 -98.476294 
L 388.188509 -98.158552 
L 387.71999 -97.840809 
L 387.161397 -97.523067 
L 386.510141 -97.205325 
L 385.765281 -96.887582 
L 384.927559 -96.56984 
L 383.999398 -96.252097 
L 382.984855 -95.934355 
L 381.889529 -95.616613 
L 380.720428 -95.29887 
L 379.485808 -94.981128 
L 378.194978 -94.663385 
L 376.858084 -94.345643 
L 375.485875 -94.027901 
L 374.089469 -93.710158 
L 372.680108 -93.392416 
L 371.268928 -93.074673 
L 369.866738 -92.756931 
L 368.483821 -92.439189 
L 367.129758 -92.121446 
L 365.813274 -91.803704 
L 364.542128 -91.485962 
L 363.323017 -91.168219 
L 362.161528 -90.850477 
L 361.06211 -90.532734 
L 360.02808 -90.214992 
L 359.061653 -89.89725 
L 358.164002 -89.579507 
L 357.335325 -89.261765 
L 356.574939 -88.944022 
L 355.881378 -88.62628 
L 355.252506 -88.308538 
L 354.685623 -87.990795 
L 354.177578 -87.673053 
z
" id="m386b990b9b" style="stroke:#3f3f3f;stroke-width:1.5;"/>
    </defs>
    <g clip-path="url(#pa647f798aa)">
     <use style="fill:#9fd495;stroke:#3f3f3f;stroke-width:1.5;" x="0" xlink:href="#m386b990b9b" y="364.007178"/>
    </g>
   </g>
   <g id="matplotlib.axis_1">
    <g id="xtick_1">
     <g id="line2d_1">
      <defs>
       <path d="M 0 0 
L 0 3.5 
" id="ma2685bb333" style="stroke:#000000;stroke-width:0.8;"/>
      </defs>
      <g>
       <use style="stroke:#000000;stroke-width:0.8;" x="112.848125" xlink:href="#ma2685bb333" y="288.430125"/>
      </g>
     </g>
     <g id="text_1">
      <!-- aflplusplus -->
      <g transform="translate(65.239118 328.897284)rotate(-30)scale(0.1 -0.1)">
       <defs>
        <path d="M 34.28125 27.484375 
Q 23.390625 27.484375 19.1875 25 
Q 14.984375 22.515625 14.984375 16.5 
Q 14.984375 11.71875 18.140625 8.90625 
Q 21.296875 6.109375 26.703125 6.109375 
Q 34.1875 6.109375 38.703125 11.40625 
Q 43.21875 16.703125 43.21875 25.484375 
L 43.21875 27.484375 
z
M 52.203125 31.203125 
L 52.203125 0 
L 43.21875 0 
L 43.21875 8.296875 
Q 40.140625 3.328125 35.546875 0.953125 
Q 30.953125 -1.421875 24.3125 -1.421875 
Q 15.921875 -1.421875 10.953125 3.296875 
Q 6 8.015625 6 15.921875 
Q 6 25.140625 12.171875 29.828125 
Q 18.359375 34.515625 30.609375 34.515625 
L 43.21875 34.515625 
L 43.21875 35.40625 
Q 43.21875 41.609375 39.140625 45 
Q 35.0625 48.390625 27.6875 48.390625 
Q 23 48.390625 18.546875 47.265625 
Q 14.109375 46.140625 10.015625 43.890625 
L 10.015625 52.203125 
Q 14.9375 54.109375 19.578125 55.046875 
Q 24.21875 56 28.609375 56 
Q 40.484375 56 46.34375 49.84375 
Q 52.203125 43.703125 52.203125 31.203125 
z
" id="DejaVuSans-97"/>
        <path d="M 37.109375 75.984375 
L 37.109375 68.5 
L 28.515625 68.5 
Q 23.6875 68.5 21.796875 66.546875 
Q 19.921875 64.59375 19.921875 59.515625 
L 19.921875 54.6875 
L 34.71875 54.6875 
L 34.71875 47.703125 
L 19.921875 47.703125 
L 19.921875 0 
L 10.890625 0 
L 10.890625 47.703125 
L 2.296875 47.703125 
L 2.296875 54.6875 
L 10.890625 54.6875 
L 10.890625 58.5 
Q 10.890625 67.625 15.140625 71.796875 
Q 19.390625 75.984375 28.609375 75.984375 
z
" id="DejaVuSans-102"/>
        <path d="M 9.421875 75.984375 
L 18.40625 75.984375 
L 18.40625 0 
L 9.421875 0 
z
" id="DejaVuSans-108"/>
        <path d="M 18.109375 8.203125 
L 18.109375 -20.796875 
L 9.078125 -20.796875 
L 9.078125 54.6875 
L 18.109375 54.6875 
L 18.109375 46.390625 
Q 20.953125 51.265625 25.265625 53.625 
Q 29.59375 56 35.59375 56 
Q 45.5625 56 51.78125 48.09375 
Q 58.015625 40.1875 58.015625 27.296875 
Q 58.015625 14.40625 51.78125 6.484375 
Q 45.5625 -1.421875 35.59375 -1.421875 
Q 29.59375 -1.421875 25.265625 0.953125 
Q 20.953125 3.328125 18.109375 8.203125 
z
M 48.6875 27.296875 
Q 48.6875 37.203125 44.609375 42.84375 
Q 40.53125 48.484375 33.40625 48.484375 
Q 26.265625 48.484375 22.1875 42.84375 
Q 18.109375 37.203125 18.109375 27.296875 
Q 18.109375 17.390625 22.1875 11.75 
Q 26.265625 6.109375 33.40625 6.109375 
Q 40.53125 6.109375 44.609375 11.75 
Q 48.6875 17.390625 48.6875 27.296875 
z
" id="DejaVuSans-112"/>
        <path d="M 8.5 21.578125 
L 8.5 54.6875 
L 17.484375 54.6875 
L 17.484375 21.921875 
Q 17.484375 14.15625 20.5 10.265625 
Q 23.53125 6.390625 29.59375 6.390625 
Q 36.859375 6.390625 41.078125 11.03125 
Q 45.3125 15.671875 45.3125 23.6875 
L 45.3125 54.6875 
L 54.296875 54.6875 
L 54.296875 0 
L 45.3125 0 
L 45.3125 8.40625 
Q 42.046875 3.421875 37.71875 1 
Q 33.40625 -1.421875 27.6875 -1.421875 
Q 18.265625 -1.421875 13.375 4.4375 
Q 8.5 10.296875 8.5 21.578125 
z
M 31.109375 56 
z
" id="DejaVuSans-117"/>
        <path d="M 44.28125 53.078125 
L 44.28125 44.578125 
Q 40.484375 46.53125 36.375 47.5 
Q 32.28125 48.484375 27.875 48.484375 
Q 21.1875 48.484375 17.84375 46.4375 
Q 14.5 44.390625 14.5 40.28125 
Q 14.5 37.15625 16.890625 35.375 
Q 19.28125 33.59375 26.515625 31.984375 
L 29.59375 31.296875 
Q 39.15625 29.25 43.1875 25.515625 
Q 47.21875 21.78125 47.21875 15.09375 
Q 47.21875 7.46875 41.1875 3.015625 
Q 35.15625 -1.421875 24.609375 -1.421875 
Q 20.21875 -1.421875 15.453125 -0.5625 
Q 10.6875 0.296875 5.421875 2 
L 5.421875 11.28125 
Q 10.40625 8.6875 15.234375 7.390625 
Q 20.0625 6.109375 24.8125 6.109375 
Q 31.15625 6.109375 34.5625 8.28125 
Q 37.984375 10.453125 37.984375 14.40625 
Q 37.984375 18.0625 35.515625 20.015625 
Q 33.0625 21.96875 24.703125 23.78125 
L 21.578125 24.515625 
Q 13.234375 26.265625 9.515625 29.90625 
Q 5.8125 33.546875 5.8125 39.890625 
Q 5.8125 47.609375 11.28125 51.796875 
Q 16.75 56 26.8125 56 
Q 31.78125 56 36.171875 55.265625 
Q 40.578125 54.546875 44.28125 53.078125 
z
" id="DejaVuSans-115"/>
       </defs>
       <use xlink:href="#DejaVuSans-97"/>
       <use x="61.279297" xlink:href="#DejaVuSans-102"/>
       <use x="96.484375" xlink:href="#DejaVuSans-108"/>
       <use x="124.267578" xlink:href="#DejaVuSans-112"/>
       <use x="187.744141" xlink:href="#DejaVuSans-108"/>
       <use x="215.527344" xlink:href="#DejaVuSans-117"/>
       <use x="278.90625" xlink:href="#DejaVuSans-115"/>
       <use x="331.005859" xlink:href="#DejaVuSans-112"/>
       <use x="394.482422" xlink:href="#DejaVuSans-108"/>
       <use x="422.265625" xlink:href="#DejaVuSans-117"/>
       <use x="485.644531" xlink:href="#DejaVuSans-115"/>
      </g>
     </g>
    </g>
    <g id="xtick_2">
     <g id="line2d_2">
      <g>
       <use style="stroke:#000000;stroke-width:0.8;" x="231.888125" xlink:href="#ma2685bb333" y="288.430125"/>
      </g>
     </g>
     <g id="text_2">
      <!-- entropic -->
      <g transform="translate(195.306057 322.530877)rotate(-30)scale(0.1 -0.1)">
       <defs>
        <path d="M 56.203125 29.59375 
L 56.203125 25.203125 
L 14.890625 25.203125 
Q 15.484375 15.921875 20.484375 11.0625 
Q 25.484375 6.203125 34.421875 6.203125 
Q 39.59375 6.203125 44.453125 7.46875 
Q 49.3125 8.734375 54.109375 11.28125 
L 54.109375 2.78125 
Q 49.265625 0.734375 44.1875 -0.34375 
Q 39.109375 -1.421875 33.890625 -1.421875 
Q 20.796875 -1.421875 13.15625 6.1875 
Q 5.515625 13.8125 5.515625 26.8125 
Q 5.515625 40.234375 12.765625 48.109375 
Q 20.015625 56 32.328125 56 
Q 43.359375 56 49.78125 48.890625 
Q 56.203125 41.796875 56.203125 29.59375 
z
M 47.21875 32.234375 
Q 47.125 39.59375 43.09375 43.984375 
Q 39.0625 48.390625 32.421875 48.390625 
Q 24.90625 48.390625 20.390625 44.140625 
Q 15.875 39.890625 15.1875 32.171875 
z
" id="DejaVuSans-101"/>
        <path d="M 54.890625 33.015625 
L 54.890625 0 
L 45.90625 0 
L 45.90625 32.71875 
Q 45.90625 40.484375 42.875 44.328125 
Q 39.84375 48.1875 33.796875 48.1875 
Q 26.515625 48.1875 22.3125 43.546875 
Q 18.109375 38.921875 18.109375 30.90625 
L 18.109375 0 
L 9.078125 0 
L 9.078125 54.6875 
L 18.109375 54.6875 
L 18.109375 46.1875 
Q 21.34375 51.125 25.703125 53.5625 
Q 30.078125 56 35.796875 56 
Q 45.21875 56 50.046875 50.171875 
Q 54.890625 44.34375 54.890625 33.015625 
z
" id="DejaVuSans-110"/>
        <path d="M 18.3125 70.21875 
L 18.3125 54.6875 
L 36.8125 54.6875 
L 36.8125 47.703125 
L 18.3125 47.703125 
L 18.3125 18.015625 
Q 18.3125 11.328125 20.140625 9.421875 
Q 21.96875 7.515625 27.59375 7.515625 
L 36.8125 7.515625 
L 36.8125 0 
L 27.59375 0 
Q 17.1875 0 13.234375 3.875 
Q 9.28125 7.765625 9.28125 18.015625 
L 9.28125 47.703125 
L 2.6875 47.703125 
L 2.6875 54.6875 
L 9.28125 54.6875 
L 9.28125 70.21875 
z
" id="DejaVuSans-116"/>
        <path d="M 41.109375 46.296875 
Q 39.59375 47.171875 37.8125 47.578125 
Q 36.03125 48 33.890625 48 
Q 26.265625 48 22.1875 43.046875 
Q 18.109375 38.09375 18.109375 28.8125 
L 18.109375 0 
L 9.078125 0 
L 9.078125 54.6875 
L 18.109375 54.6875 
L 18.109375 46.1875 
Q 20.953125 51.171875 25.484375 53.578125 
Q 30.03125 56 36.53125 56 
Q 37.453125 56 38.578125 55.875 
Q 39.703125 55.765625 41.0625 55.515625 
z
" id="DejaVuSans-114"/>
        <path d="M 30.609375 48.390625 
Q 23.390625 48.390625 19.1875 42.75 
Q 14.984375 37.109375 14.984375 27.296875 
Q 14.984375 17.484375 19.15625 11.84375 
Q 23.34375 6.203125 30.609375 6.203125 
Q 37.796875 6.203125 41.984375 11.859375 
Q 46.1875 17.53125 46.1875 27.296875 
Q 46.1875 37.015625 41.984375 42.703125 
Q 37.796875 48.390625 30.609375 48.390625 
z
M 30.609375 56 
Q 42.328125 56 49.015625 48.375 
Q 55.71875 40.765625 55.71875 27.296875 
Q 55.71875 13.875 49.015625 6.21875 
Q 42.328125 -1.421875 30.609375 -1.421875 
Q 18.84375 -1.421875 12.171875 6.21875 
Q 5.515625 13.875 5.515625 27.296875 
Q 5.515625 40.765625 12.171875 48.375 
Q 18.84375 56 30.609375 56 
z
" id="DejaVuSans-111"/>
        <path d="M 9.421875 54.6875 
L 18.40625 54.6875 
L 18.40625 0 
L 9.421875 0 
z
M 9.421875 75.984375 
L 18.40625 75.984375 
L 18.40625 64.59375 
L 9.421875 64.59375 
z
" id="DejaVuSans-105"/>
        <path d="M 48.78125 52.59375 
L 48.78125 44.1875 
Q 44.96875 46.296875 41.140625 47.34375 
Q 37.3125 48.390625 33.40625 48.390625 
Q 24.65625 48.390625 19.8125 42.84375 
Q 14.984375 37.3125 14.984375 27.296875 
Q 14.984375 17.28125 19.8125 11.734375 
Q 24.65625 6.203125 33.40625 6.203125 
Q 37.3125 6.203125 41.140625 7.25 
Q 44.96875 8.296875 48.78125 10.40625 
L 48.78125 2.09375 
Q 45.015625 0.34375 40.984375 -0.53125 
Q 36.96875 -1.421875 32.421875 -1.421875 
Q 20.0625 -1.421875 12.78125 6.34375 
Q 5.515625 14.109375 5.515625 27.296875 
Q 5.515625 40.671875 12.859375 48.328125 
Q 20.21875 56 33.015625 56 
Q 37.15625 56 41.109375 55.140625 
Q 45.0625 54.296875 48.78125 52.59375 
z
" id="DejaVuSans-99"/>
       </defs>
       <use xlink:href="#DejaVuSans-101"/>
       <use x="61.523438" xlink:href="#DejaVuSans-110"/>
       <use x="124.902344" xlink:href="#DejaVuSans-116"/>
       <use x="164.111328" xlink:href="#DejaVuSans-114"/>
       <use x="202.974609" xlink:href="#DejaVuSans-111"/>
       <use x="264.15625" xlink:href="#DejaVuSans-112"/>
       <use x="327.632812" xlink:href="#DejaVuSans-105"/>
       <use x="355.416016" xlink:href="#DejaVuSans-99"/>
      </g>
     </g>
    </g>
    <g id="xtick_3">
     <g id="line2d_3">
      <g>
       <use style="stroke:#000000;stroke-width:0.8;" x="350.928125" xlink:href="#ma2685bb333" y="288.430125"/>
      </g>
     </g>
     <g id="text_3">
      <!-- aflplusplus_hier -->
      <g transform="translate(282.066627 341.087127)rotate(-30)scale(0.1 -0.1)">
       <defs>
        <path d="M 50.984375 -16.609375 
L 50.984375 -23.578125 
L -0.984375 -23.578125 
L -0.984375 -16.609375 
z
" id="DejaVuSans-95"/>
        <path d="M 54.890625 33.015625 
L 54.890625 0 
L 45.90625 0 
L 45.90625 32.71875 
Q 45.90625 40.484375 42.875 44.328125 
Q 39.84375 48.1875 33.796875 48.1875 
Q 26.515625 48.1875 22.3125 43.546875 
Q 18.109375 38.921875 18.109375 30.90625 
L 18.109375 0 
L 9.078125 0 
L 9.078125 75.984375 
L 18.109375 75.984375 
L 18.109375 46.1875 
Q 21.34375 51.125 25.703125 53.5625 
Q 30.078125 56 35.796875 56 
Q 45.21875 56 50.046875 50.171875 
Q 54.890625 44.34375 54.890625 33.015625 
z
" id="DejaVuSans-104"/>
       </defs>
       <use xlink:href="#DejaVuSans-97"/>
       <use x="61.279297" xlink:href="#DejaVuSans-102"/>
       <use x="96.484375" xlink:href="#DejaVuSans-108"/>
       <use x="124.267578" xlink:href="#DejaVuSans-112"/>
       <use x="187.744141" xlink:href="#DejaVuSans-108"/>
       <use x="215.527344" xlink:href="#DejaVuSans-117"/>
       <use x="278.90625" xlink:href="#DejaVuSans-115"/>
       <use x="331.005859" xlink:href="#DejaVuSans-112"/>
       <use x="394.482422" xlink:href="#DejaVuSans-108"/>
       <use x="422.265625" xlink:href="#DejaVuSans-117"/>
       <use x="485.644531" xlink:href="#DejaVuSans-115"/>
       <use x="537.744141" xlink:href="#DejaVuSans-95"/>
       <use x="587.744141" xlink:href="#DejaVuSans-104"/>
       <use x="651.123047" xlink:href="#DejaVuSans-105"/>
       <use x="678.90625" xlink:href="#DejaVuSans-101"/>
       <use x="740.429688" xlink:href="#DejaVuSans-114"/>
      </g>
     </g>
    </g>
    <g id="text_4">
     <!-- Fuzzer (highest median coverage on the left) -->
     <g transform="translate(119.270156 354.72749)scale(0.1 -0.1)">
      <defs>
       <path d="M 9.8125 72.90625 
L 51.703125 72.90625 
L 51.703125 64.59375 
L 19.671875 64.59375 
L 19.671875 43.109375 
L 48.578125 43.109375 
L 48.578125 34.8125 
L 19.671875 34.8125 
L 19.671875 0 
L 9.8125 0 
z
" id="DejaVuSans-70"/>
       <path d="M 5.515625 54.6875 
L 48.1875 54.6875 
L 48.1875 46.484375 
L 14.40625 7.171875 
L 48.1875 7.171875 
L 48.1875 0 
L 4.296875 0 
L 4.296875 8.203125 
L 38.09375 47.515625 
L 5.515625 47.515625 
z
" id="DejaVuSans-122"/>
       <path id="DejaVuSans-32"/>
       <path d="M 31 75.875 
Q 24.46875 64.65625 21.28125 53.65625 
Q 18.109375 42.671875 18.109375 31.390625 
Q 18.109375 20.125 21.3125 9.0625 
Q 24.515625 -2 31 -13.1875 
L 23.1875 -13.1875 
Q 15.875 -1.703125 12.234375 9.375 
Q 8.59375 20.453125 8.59375 31.390625 
Q 8.59375 42.28125 12.203125 53.3125 
Q 15.828125 64.359375 23.1875 75.875 
z
" id="DejaVuSans-40"/>
       <path d="M 45.40625 27.984375 
Q 45.40625 37.75 41.375 43.109375 
Q 37.359375 48.484375 30.078125 48.484375 
Q 22.859375 48.484375 18.828125 43.109375 
Q 14.796875 37.75 14.796875 27.984375 
Q 14.796875 18.265625 18.828125 12.890625 
Q 22.859375 7.515625 30.078125 7.515625 
Q 37.359375 7.515625 41.375 12.890625 
Q 45.40625 18.265625 45.40625 27.984375 
z
M 54.390625 6.78125 
Q 54.390625 -7.171875 48.1875 -13.984375 
Q 42 -20.796875 29.203125 -20.796875 
Q 24.46875 -20.796875 20.265625 -20.09375 
Q 16.0625 -19.390625 12.109375 -17.921875 
L 12.109375 -9.1875 
Q 16.0625 -11.328125 19.921875 -12.34375 
Q 23.78125 -13.375 27.78125 -13.375 
Q 36.625 -13.375 41.015625 -8.765625 
Q 45.40625 -4.15625 45.40625 5.171875 
L 45.40625 9.625 
Q 42.625 4.78125 38.28125 2.390625 
Q 33.9375 0 27.875 0 
Q 17.828125 0 11.671875 7.65625 
Q 5.515625 15.328125 5.515625 27.984375 
Q 5.515625 40.671875 11.671875 48.328125 
Q 17.828125 56 27.875 56 
Q 33.9375 56 38.28125 53.609375 
Q 42.625 51.21875 45.40625 46.390625 
L 45.40625 54.6875 
L 54.390625 54.6875 
z
" id="DejaVuSans-103"/>
       <path d="M 52 44.1875 
Q 55.375 50.25 60.0625 53.125 
Q 64.75 56 71.09375 56 
Q 79.640625 56 84.28125 50.015625 
Q 88.921875 44.046875 88.921875 33.015625 
L 88.921875 0 
L 79.890625 0 
L 79.890625 32.71875 
Q 79.890625 40.578125 77.09375 44.375 
Q 74.3125 48.1875 68.609375 48.1875 
Q 61.625 48.1875 57.5625 43.546875 
Q 53.515625 38.921875 53.515625 30.90625 
L 53.515625 0 
L 44.484375 0 
L 44.484375 32.71875 
Q 44.484375 40.625 41.703125 44.40625 
Q 38.921875 48.1875 33.109375 48.1875 
Q 26.21875 48.1875 22.15625 43.53125 
Q 18.109375 38.875 18.109375 30.90625 
L 18.109375 0 
L 9.078125 0 
L 9.078125 54.6875 
L 18.109375 54.6875 
L 18.109375 46.1875 
Q 21.1875 51.21875 25.484375 53.609375 
Q 29.78125 56 35.6875 56 
Q 41.65625 56 45.828125 52.96875 
Q 50 49.953125 52 44.1875 
z
" id="DejaVuSans-109"/>
       <path d="M 45.40625 46.390625 
L 45.40625 75.984375 
L 54.390625 75.984375 
L 54.390625 0 
L 45.40625 0 
L 45.40625 8.203125 
Q 42.578125 3.328125 38.25 0.953125 
Q 33.9375 -1.421875 27.875 -1.421875 
Q 17.96875 -1.421875 11.734375 6.484375 
Q 5.515625 14.40625 5.515625 27.296875 
Q 5.515625 40.1875 11.734375 48.09375 
Q 17.96875 56 27.875 56 
Q 33.9375 56 38.25 53.625 
Q 42.578125 51.265625 45.40625 46.390625 
z
M 14.796875 27.296875 
Q 14.796875 17.390625 18.875 11.75 
Q 22.953125 6.109375 30.078125 6.109375 
Q 37.203125 6.109375 41.296875 11.75 
Q 45.40625 17.390625 45.40625 27.296875 
Q 45.40625 37.203125 41.296875 42.84375 
Q 37.203125 48.484375 30.078125 48.484375 
Q 22.953125 48.484375 18.875 42.84375 
Q 14.796875 37.203125 14.796875 27.296875 
z
" id="DejaVuSans-100"/>
       <path d="M 2.984375 54.6875 
L 12.5 54.6875 
L 29.59375 8.796875 
L 46.6875 54.6875 
L 56.203125 54.6875 
L 35.6875 0 
L 23.484375 0 
z
" id="DejaVuSans-118"/>
       <path d="M 8.015625 75.875 
L 15.828125 75.875 
Q 23.140625 64.359375 26.78125 53.3125 
Q 30.421875 42.28125 30.421875 31.390625 
Q 30.421875 20.453125 26.78125 9.375 
Q 23.140625 -1.703125 15.828125 -13.1875 
L 8.015625 -13.1875 
Q 14.5 -2 17.703125 9.0625 
Q 20.90625 20.125 20.90625 31.390625 
Q 20.90625 42.671875 17.703125 53.65625 
Q 14.5 64.65625 8.015625 75.875 
z
" id="DejaVuSans-41"/>
      </defs>
      <use xlink:href="#DejaVuSans-70"/>
      <use x="52.019531" xlink:href="#DejaVuSans-117"/>
      <use x="115.398438" xlink:href="#DejaVuSans-122"/>
      <use x="167.888672" xlink:href="#DejaVuSans-122"/>
      <use x="220.378906" xlink:href="#DejaVuSans-101"/>
      <use x="281.902344" xlink:href="#DejaVuSans-114"/>
      <use x="323.015625" xlink:href="#DejaVuSans-32"/>
      <use x="354.802734" xlink:href="#DejaVuSans-40"/>
      <use x="393.816406" xlink:href="#DejaVuSans-104"/>
      <use x="457.195312" xlink:href="#DejaVuSans-105"/>
      <use x="484.978516" xlink:href="#DejaVuSans-103"/>
      <use x="548.455078" xlink:href="#DejaVuSans-104"/>
      <use x="611.833984" xlink:href="#DejaVuSans-101"/>
      <use x="673.357422" xlink:href="#DejaVuSans-115"/>
      <use x="725.457031" xlink:href="#DejaVuSans-116"/>
      <use x="764.666016" xlink:href="#DejaVuSans-32"/>
      <use x="796.453125" xlink:href="#DejaVuSans-109"/>
      <use x="893.865234" xlink:href="#DejaVuSans-101"/>
      <use x="955.388672" xlink:href="#DejaVuSans-100"/>
      <use x="1018.865234" xlink:href="#DejaVuSans-105"/>
      <use x="1046.648438" xlink:href="#DejaVuSans-97"/>
      <use x="1107.927734" xlink:href="#DejaVuSans-110"/>
      <use x="1171.306641" xlink:href="#DejaVuSans-32"/>
      <use x="1203.09375" xlink:href="#DejaVuSans-99"/>
      <use x="1258.074219" xlink:href="#DejaVuSans-111"/>
      <use x="1319.255859" xlink:href="#DejaVuSans-118"/>
      <use x="1378.435547" xlink:href="#DejaVuSans-101"/>
      <use x="1439.958984" xlink:href="#DejaVuSans-114"/>
      <use x="1481.072266" xlink:href="#DejaVuSans-97"/>
      <use x="1542.351562" xlink:href="#DejaVuSans-103"/>
      <use x="1605.828125" xlink:href="#DejaVuSans-101"/>
      <use x="1667.351562" xlink:href="#DejaVuSans-32"/>
      <use x="1699.138672" xlink:href="#DejaVuSans-111"/>
      <use x="1760.320312" xlink:href="#DejaVuSans-110"/>
      <use x="1823.699219" xlink:href="#DejaVuSans-32"/>
      <use x="1855.486328" xlink:href="#DejaVuSans-116"/>
      <use x="1894.695312" xlink:href="#DejaVuSans-104"/>
      <use x="1958.074219" xlink:href="#DejaVuSans-101"/>
      <use x="2019.597656" xlink:href="#DejaVuSans-32"/>
      <use x="2051.384766" xlink:href="#DejaVuSans-108"/>
      <use x="2079.167969" xlink:href="#DejaVuSans-101"/>
      <use x="2140.691406" xlink:href="#DejaVuSans-102"/>
      <use x="2174.146484" xlink:href="#DejaVuSans-116"/>
      <use x="2213.355469" xlink:href="#DejaVuSans-41"/>
     </g>
    </g>
   </g>
   <g id="matplotlib.axis_2">
    <g id="ytick_1">
     <g id="line2d_4">
      <defs>
       <path d="M 0 0 
L -3.5 0 
" id="m76728c4239" style="stroke:#000000;stroke-width:0.8;"/>
      </defs>
      <g>
       <use style="stroke:#000000;stroke-width:0.8;" x="53.328125" xlink:href="#m76728c4239" y="277.591824"/>
      </g>
     </g>
     <g id="text_5">
      <!-- 1000 -->
      <g transform="translate(20.878125 281.391043)scale(0.1 -0.1)">
       <defs>
        <path d="M 12.40625 8.296875 
L 28.515625 8.296875 
L 28.515625 63.921875 
L 10.984375 60.40625 
L 10.984375 69.390625 
L 28.421875 72.90625 
L 38.28125 72.90625 
L 38.28125 8.296875 
L 54.390625 8.296875 
L 54.390625 0 
L 12.40625 0 
z
" id="DejaVuSans-49"/>
        <path d="M 31.78125 66.40625 
Q 24.171875 66.40625 20.328125 58.90625 
Q 16.5 51.421875 16.5 36.375 
Q 16.5 21.390625 20.328125 13.890625 
Q 24.171875 6.390625 31.78125 6.390625 
Q 39.453125 6.390625 43.28125 13.890625 
Q 47.125 21.390625 47.125 36.375 
Q 47.125 51.421875 43.28125 58.90625 
Q 39.453125 66.40625 31.78125 66.40625 
z
M 31.78125 74.21875 
Q 44.046875 74.21875 50.515625 64.515625 
Q 56.984375 54.828125 56.984375 36.375 
Q 56.984375 17.96875 50.515625 8.265625 
Q 44.046875 -1.421875 31.78125 -1.421875 
Q 19.53125 -1.421875 13.0625 8.265625 
Q 6.59375 17.96875 6.59375 36.375 
Q 6.59375 54.828125 13.0625 64.515625 
Q 19.53125 74.21875 31.78125 74.21875 
z
" id="DejaVuSans-48"/>
       </defs>
       <use xlink:href="#DejaVuSans-49"/>
       <use x="63.623047" xlink:href="#DejaVuSans-48"/>
       <use x="127.246094" xlink:href="#DejaVuSans-48"/>
       <use x="190.869141" xlink:href="#DejaVuSans-48"/>
      </g>
     </g>
    </g>
    <g id="ytick_2">
     <g id="line2d_5">
      <g>
       <use style="stroke:#000000;stroke-width:0.8;" x="53.328125" xlink:href="#m76728c4239" y="219.619308"/>
      </g>
     </g>
     <g id="text_6">
      <!-- 1500 -->
      <g transform="translate(20.878125 223.418526)scale(0.1 -0.1)">
       <defs>
        <path d="M 10.796875 72.90625 
L 49.515625 72.90625 
L 49.515625 64.59375 
L 19.828125 64.59375 
L 19.828125 46.734375 
Q 21.96875 47.46875 24.109375 47.828125 
Q 26.265625 48.1875 28.421875 48.1875 
Q 40.625 48.1875 47.75 41.5 
Q 54.890625 34.8125 54.890625 23.390625 
Q 54.890625 11.625 47.5625 5.09375 
Q 40.234375 -1.421875 26.90625 -1.421875 
Q 22.3125 -1.421875 17.546875 -0.640625 
Q 12.796875 0.140625 7.71875 1.703125 
L 7.71875 11.625 
Q 12.109375 9.234375 16.796875 8.0625 
Q 21.484375 6.890625 26.703125 6.890625 
Q 35.15625 6.890625 40.078125 11.328125 
Q 45.015625 15.765625 45.015625 23.390625 
Q 45.015625 31 40.078125 35.4375 
Q 35.15625 39.890625 26.703125 39.890625 
Q 22.75 39.890625 18.8125 39.015625 
Q 14.890625 38.140625 10.796875 36.28125 
z
" id="DejaVuSans-53"/>
       </defs>
       <use xlink:href="#DejaVuSans-49"/>
       <use x="63.623047" xlink:href="#DejaVuSans-53"/>
       <use x="127.246094" xlink:href="#DejaVuSans-48"/>
       <use x="190.869141" xlink:href="#DejaVuSans-48"/>
      </g>
     </g>
    </g>
    <g id="ytick_3">
     <g id="line2d_6">
      <g>
       <use style="stroke:#000000;stroke-width:0.8;" x="53.328125" xlink:href="#m76728c4239" y="161.646791"/>
      </g>
     </g>
     <g id="text_7">
      <!-- 2000 -->
      <g transform="translate(20.878125 165.44601)scale(0.1 -0.1)">
       <defs>
        <path d="M 19.1875 8.296875 
L 53.609375 8.296875 
L 53.609375 0 
L 7.328125 0 
L 7.328125 8.296875 
Q 12.9375 14.109375 22.625 23.890625 
Q 32.328125 33.6875 34.8125 36.53125 
Q 39.546875 41.84375 41.421875 45.53125 
Q 43.3125 49.21875 43.3125 52.78125 
Q 43.3125 58.59375 39.234375 62.25 
Q 35.15625 65.921875 28.609375 65.921875 
Q 23.96875 65.921875 18.8125 64.3125 
Q 13.671875 62.703125 7.8125 59.421875 
L 7.8125 69.390625 
Q 13.765625 71.78125 18.9375 73 
Q 24.125 74.21875 28.421875 74.21875 
Q 39.75 74.21875 46.484375 68.546875 
Q 53.21875 62.890625 53.21875 53.421875 
Q 53.21875 48.921875 51.53125 44.890625 
Q 49.859375 40.875 45.40625 35.40625 
Q 44.1875 33.984375 37.640625 27.21875 
Q 31.109375 20.453125 19.1875 8.296875 
z
" id="DejaVuSans-50"/>
       </defs>
       <use xlink:href="#DejaVuSans-50"/>
       <use x="63.623047" xlink:href="#DejaVuSans-48"/>
       <use x="127.246094" xlink:href="#DejaVuSans-48"/>
       <use x="190.869141" xlink:href="#DejaVuSans-48"/>
      </g>
     </g>
    </g>
    <g id="ytick_4">
     <g id="line2d_7">
      <g>
       <use style="stroke:#000000;stroke-width:0.8;" x="53.328125" xlink:href="#m76728c4239" y="103.674274"/>
      </g>
     </g>
     <g id="text_8">
      <!-- 2500 -->
      <g transform="translate(20.878125 107.473493)scale(0.1 -0.1)">
       <use xlink:href="#DejaVuSans-50"/>
       <use x="63.623047" xlink:href="#DejaVuSans-53"/>
       <use x="127.246094" xlink:href="#DejaVuSans-48"/>
       <use x="190.869141" xlink:href="#DejaVuSans-48"/>
      </g>
     </g>
    </g>
    <g id="ytick_5">
     <g id="line2d_8">
      <g>
       <use style="stroke:#000000;stroke-width:0.8;" x="53.328125" xlink:href="#m76728c4239" y="45.701758"/>
      </g>
     </g>
     <g id="text_9">
      <!-- 3000 -->
      <g transform="translate(20.878125 49.500977)scale(0.1 -0.1)">
       <defs>
        <path d="M 40.578125 39.3125 
Q 47.65625 37.796875 51.625 33 
Q 55.609375 28.21875 55.609375 21.1875 
Q 55.609375 10.40625 48.1875 4.484375 
Q 40.765625 -1.421875 27.09375 -1.421875 
Q 22.515625 -1.421875 17.65625 -0.515625 
Q 12.796875 0.390625 7.625 2.203125 
L 7.625 11.71875 
Q 11.71875 9.328125 16.59375 8.109375 
Q 21.484375 6.890625 26.8125 6.890625 
Q 36.078125 6.890625 40.9375 10.546875 
Q 45.796875 14.203125 45.796875 21.1875 
Q 45.796875 27.640625 41.28125 31.265625 
Q 36.765625 34.90625 28.71875 34.90625 
L 20.21875 34.90625 
L 20.21875 43.015625 
L 29.109375 43.015625 
Q 36.375 43.015625 40.234375 45.921875 
Q 44.09375 48.828125 44.09375 54.296875 
Q 44.09375 59.90625 40.109375 62.90625 
Q 36.140625 65.921875 28.71875 65.921875 
Q 24.65625 65.921875 20.015625 65.03125 
Q 15.375 64.15625 9.8125 62.3125 
L 9.8125 71.09375 
Q 15.4375 72.65625 20.34375 73.4375 
Q 25.25 74.21875 29.59375 74.21875 
Q 40.828125 74.21875 47.359375 69.109375 
Q 53.90625 64.015625 53.90625 55.328125 
Q 53.90625 49.265625 50.4375 45.09375 
Q 46.96875 40.921875 40.578125 39.3125 
z
" id="DejaVuSans-51"/>
       </defs>
       <use xlink:href="#DejaVuSans-51"/>
       <use x="63.623047" xlink:href="#DejaVuSans-48"/>
       <use x="127.246094" xlink:href="#DejaVuSans-48"/>
       <use x="190.869141" xlink:href="#DejaVuSans-48"/>
      </g>
     </g>
    </g>
    <g id="text_10">
     <!-- Reached region coverage -->
     <g transform="translate(14.798438 219.136625)rotate(-90)scale(0.1 -0.1)">
      <defs>
       <path d="M 44.390625 34.1875 
Q 47.5625 33.109375 50.5625 29.59375 
Q 53.5625 26.078125 56.59375 19.921875 
L 66.609375 0 
L 56 0 
L 46.6875 18.703125 
Q 43.0625 26.03125 39.671875 28.421875 
Q 36.28125 30.8125 30.421875 30.8125 
L 19.671875 30.8125 
L 19.671875 0 
L 9.8125 0 
L 9.8125 72.90625 
L 32.078125 72.90625 
Q 44.578125 72.90625 50.734375 67.671875 
Q 56.890625 62.453125 56.890625 51.90625 
Q 56.890625 45.015625 53.6875 40.46875 
Q 50.484375 35.9375 44.390625 34.1875 
z
M 19.671875 64.796875 
L 19.671875 38.921875 
L 32.078125 38.921875 
Q 39.203125 38.921875 42.84375 42.21875 
Q 46.484375 45.515625 46.484375 51.90625 
Q 46.484375 58.296875 42.84375 61.546875 
Q 39.203125 64.796875 32.078125 64.796875 
z
" id="DejaVuSans-82"/>
      </defs>
      <use xlink:href="#DejaVuSans-82"/>
      <use x="64.982422" xlink:href="#DejaVuSans-101"/>
      <use x="126.505859" xlink:href="#DejaVuSans-97"/>
      <use x="187.785156" xlink:href="#DejaVuSans-99"/>
      <use x="242.765625" xlink:href="#DejaVuSans-104"/>
      <use x="306.144531" xlink:href="#DejaVuSans-101"/>
      <use x="367.667969" xlink:href="#DejaVuSans-100"/>
      <use x="431.144531" xlink:href="#DejaVuSans-32"/>
      <use x="462.931641" xlink:href="#DejaVuSans-114"/>
      <use x="501.794922" xlink:href="#DejaVuSans-101"/>
      <use x="563.318359" xlink:href="#DejaVuSans-103"/>
      <use x="626.794922" xlink:href="#DejaVuSans-105"/>
      <use x="654.578125" xlink:href="#DejaVuSans-111"/>
      <use x="715.759766" xlink:href="#DejaVuSans-110"/>
      <use x="779.138672" xlink:href="#DejaVuSans-32"/>
      <use x="810.925781" xlink:href="#DejaVuSans-99"/>
      <use x="865.90625" xlink:href="#DejaVuSans-111"/>
      <use x="927.087891" xlink:href="#DejaVuSans-118"/>
      <use x="986.267578" xlink:href="#DejaVuSans-101"/>
      <use x="1047.791016" xlink:href="#DejaVuSans-114"/>
      <use x="1088.904297" xlink:href="#DejaVuSans-97"/>
      <use x="1150.183594" xlink:href="#DejaVuSans-103"/>
      <use x="1213.660156" xlink:href="#DejaVuSans-101"/>
     </g>
    </g>
   </g>
   <g id="line2d_9">
    <path clip-path="url(#pa647f798aa)" d="M 112.848125 61.238392 
L 112.848125 44.774198 
" style="fill:none;stroke:#3f3f3f;stroke-linecap:square;stroke-width:1.5;"/>
   </g>
   <g id="line2d_10">
    <path clip-path="url(#pa647f798aa)" d="M 112.848125 60.426777 
L 112.848125 51.7309 
" style="fill:none;stroke:#3f3f3f;stroke-linecap:square;stroke-width:4.5;"/>
   </g>
   <g id="line2d_11">
    <path clip-path="url(#pa647f798aa)" d="M 231.888125 114.225272 
L 231.888125 101.819154 
" style="fill:none;stroke:#3f3f3f;stroke-linecap:square;stroke-width:1.5;"/>
   </g>
   <g id="line2d_12">
    <path clip-path="url(#pa647f798aa)" d="M 231.888125 113.065822 
L 231.888125 102.514824 
" style="fill:none;stroke:#3f3f3f;stroke-linecap:square;stroke-width:4.5;"/>
   </g>
   <g id="line2d_13">
    <path clip-path="url(#pa647f798aa)" d="M 350.928125 267.272716 
L 350.928125 253.939037 
" style="fill:none;stroke:#3f3f3f;stroke-linecap:square;stroke-width:1.5;"/>
   </g>
   <g id="line2d_14">
    <path clip-path="url(#pa647f798aa)" d="M 350.928125 266.113266 
L 350.928125 254.518763 
" style="fill:none;stroke:#3f3f3f;stroke-linecap:square;stroke-width:4.5;"/>
   </g>
   <g id="patch_3">
    <path d="M 53.328125 277.591824 
L 53.328125 45.701758 
" style="fill:none;stroke:#000000;stroke-linecap:square;stroke-linejoin:miter;stroke-width:0.8;"/>
   </g>
   <g id="patch_4">
    <path d="M 112.848125 288.430125 
L 350.928125 288.430125 
" style="fill:none;stroke:#000000;stroke-linecap:square;stroke-linejoin:miter;stroke-width:0.8;"/>
   </g>
   <g id="PathCollection_1">
    <defs>
     <path d="M 0 1.5 
C 0.397805 1.5 0.77937 1.341951 1.06066 1.06066 
C 1.341951 0.77937 1.5 0.397805 1.5 0 
C 1.5 -0.397805 1.341951 -0.77937 1.06066 -1.06066 
C 0.77937 -1.341951 0.397805 -1.5 0 -1.5 
C -0.397805 -1.5 -0.77937 -1.341951 -1.06066 -1.06066 
C -1.341951 -0.77937 -1.5 -0.397805 -1.5 0 
C -1.5 0.397805 -1.341951 0.77937 -1.06066 1.06066 
C -0.77937 1.341951 -0.397805 1.5 0 1.5 
z
" id="m0c5364fe51" style="stroke:#3f3f3f;"/>
    </defs>
    <g clip-path="url(#pa647f798aa)">
     <use style="fill:#ffffff;stroke:#3f3f3f;" x="112.848125" xlink:href="#m0c5364fe51" y="59.731107"/>
    </g>
   </g>
   <g id="PathCollection_2">
    <g clip-path="url(#pa647f798aa)">
     <use style="fill:#ffffff;stroke:#3f3f3f;" x="231.888125" xlink:href="#m0c5364fe51" y="104.02211"/>
    </g>
   </g>
   <g id="PathCollection_3">
    <g clip-path="url(#pa647f798aa)">
     <use style="fill:#ffffff;stroke:#3f3f3f;" x="350.928125" xlink:href="#m0c5364fe51" y="260.084124"/>
    </g>
   </g>
   <g id="text_11">
    <!-- lcms-2017-03-21 (2h, 5 trials/fuzzer) -->
    <g transform="translate(121.82375 16.318125)scale(0.12 -0.12)">
     <defs>
      <path d="M 4.890625 31.390625 
L 31.203125 31.390625 
L 31.203125 23.390625 
L 4.890625 23.390625 
z
" id="DejaVuSans-45"/>
      <path d="M 8.203125 72.90625 
L 55.078125 72.90625 
L 55.078125 68.703125 
L 28.609375 0 
L 18.3125 0 
L 43.21875 64.59375 
L 8.203125 64.59375 
z
" id="DejaVuSans-55"/>
      <path d="M 11.71875 12.40625 
L 22.015625 12.40625 
L 22.015625 4 
L 14.015625 -11.625 
L 7.71875 -11.625 
L 11.71875 4 
z
" id="DejaVuSans-44"/>
      <path d="M 25.390625 72.90625 
L 33.6875 72.90625 
L 8.296875 -9.28125 
L 0 -9.28125 
z
" id="DejaVuSans-47"/>
     </defs>
     <use xlink:href="#DejaVuSans-108"/>
     <use x="27.783203" xlink:href="#DejaVuSans-99"/>
     <use x="82.763672" xlink:href="#DejaVuSans-109"/>
     <use x="180.175781" xlink:href="#DejaVuSans-115"/>
     <use x="232.275391" xlink:href="#DejaVuSans-45"/>
     <use x="268.359375" xlink:href="#DejaVuSans-50"/>
     <use x="331.982422" xlink:href="#DejaVuSans-48"/>
     <use x="395.605469" xlink:href="#DejaVuSans-49"/>
     <use x="459.228516" xlink:href="#DejaVuSans-55"/>
     <use x="522.851562" xlink:href="#DejaVuSans-45"/>
     <use x="558.935547" xlink:href="#DejaVuSans-48"/>
     <use x="622.558594" xlink:href="#DejaVuSans-51"/>
     <use x="686.181641" xlink:href="#DejaVuSans-45"/>
     <use x="722.265625" xlink:href="#DejaVuSans-50"/>
     <use x="785.888672" xlink:href="#DejaVuSans-49"/>
     <use x="849.511719" xlink:href="#DejaVuSans-32"/>
     <use x="881.298828" xlink:href="#DejaVuSans-40"/>
     <use x="920.3125" xlink:href="#DejaVuSans-50"/>
     <use x="983.935547" xlink:href="#DejaVuSans-104"/>
     <use x="1047.314453" xlink:href="#DejaVuSans-44"/>
     <use x="1079.101562" xlink:href="#DejaVuSans-32"/>
     <use x="1110.888672" xlink:href="#DejaVuSans-53"/>
     <use x="1174.511719" xlink:href="#DejaVuSans-32"/>
     <use x="1206.298828" xlink:href="#DejaVuSans-116"/>
     <use x="1245.507812" xlink:href="#DejaVuSans-114"/>
     <use x="1286.621094" xlink:href="#DejaVuSans-105"/>
     <use x="1314.404297" xlink:href="#DejaVuSans-97"/>
     <use x="1375.683594" xlink:href="#DejaVuSans-108"/>
     <use x="1403.466797" xlink:href="#DejaVuSans-115"/>
     <use x="1455.566406" xlink:href="#DejaVuSans-47"/>
     <use x="1489.257812" xlink:href="#DejaVuSans-102"/>
     <use x="1524.462891" xlink:href="#DejaVuSans-117"/>
     <use x="1587.841797" xlink:href="#DejaVuSans-122"/>
     <use x="1640.332031" xlink:href="#DejaVuSans-122"/>
     <use x="1692.822266" xlink:href="#DejaVuSans-101"/>
     <use x="1754.345703" xlink:href="#DejaVuSans-114"/>
     <use x="1795.458984" xlink:href="#DejaVuSans-41"/>
    </g>
   </g>
  </g>
 </g>
 <defs>
  <clipPath id="pa647f798aa">
   <rect height="266.112" width="357.12" x="53.328125" y="22.318125"/>
  </clipPath>
 </defs>
</svg>
