<?xml version="1.0" encoding="utf-8" standalone="no"?>
<!DOCTYPE svg PUBLIC "-//W3C//DTD SVG 1.1//EN"
  "http://www.w3.org/Graphics/SVG/1.1/DTD/svg11.dtd">
<!-- Created with matplotlib (https://matplotlib.org/) -->
<svg height="364.007178pt" version="1.1" viewBox="0 0 417.648125 364.007178" width="417.648125pt" xmlns="http://www.w3.org/2000/svg" xmlns:xlink="http://www.w3.org/1999/xlink">
 <metadata>
  <rdf:RDF xmlns:cc="http://creativecommons.org/ns#" xmlns:dc="http://purl.org/dc/elements/1.1/" xmlns:rdf="http://www.w3.org/1999/02/22-rdf-syntax-ns#">
   <cc:Work>
    <dc:type rdf:resource="http://purl.org/dc/dcmitype/StillImage"/>
    <dc:date>2020-11-08T21:44:05.710566</dc:date>
    <dc:format>image/svg+xml</dc:format>
    <dc:creator>
     <cc:Agent>
      <dc:title>Matplotlib v3.3.2, https://matplotlib.org/</dc:title>
     </cc:Agent>
    </dc:creator>
   </cc:Work>
  </rdf:RDF>
 </metadata>
 <defs>
  <style type="text/css">*{stroke-linecap:butt;stroke-linejoin:round;}</style>
 </defs>
 <g id="figure_1">
  <g id="patch_1">
   <path d="M 0 364.007178 
L 417.648125 364.007178 
L 417.648125 0 
L 0 0 
z
" style="fill:#ffffff;"/>
  </g>
  <g id="axes_1">
   <g id="patch_2">
    <path d="M 53.328125 288.430125 
L 410.448125 288.430125 
L 410.448125 22.318125 
L 53.328125 22.318125 
z
" style="fill:#ffffff;"/>
   </g>
   <g id="PolyCollection_1">
    <defs>
     <path d="M 114.095 -320.505066 
L 111.60125 -320.505066 
L 111.392565 -320.596863 
L 111.158984 -320.688661 
L 110.899437 -320.780459 
L 110.613142 -320.872257 
L 110.299666 -320.964055 
L 109.958964 -321.055853 
L 109.591423 -321.147651 
L 109.197886 -321.239448 
L 108.779665 -321.331246 
L 108.338541 -321.423044 
L 107.876737 -321.514842 
L 107.396878 -321.60664 
L 106.901933 -321.698438 
L 106.395127 -321.790236 
L 105.879852 -321.882033 
L 105.359544 -321.973831 
L 104.837563 -322.065629 
L 104.317063 -322.157427 
L 103.800857 -322.249225 
L 103.291292 -322.341023 
L 102.790132 -322.432821 
L 102.298459 -322.524618 
L 101.816602 -322.616416 
L 101.344088 -322.708214 
L 100.879629 -322.800012 
L 100.421147 -322.89181 
L 99.965835 -322.983608 
L 99.510249 -323.075405 
L 99.050445 -323.167203 
L 98.582137 -323.259001 
L 98.100887 -323.350799 
L 97.602309 -323.442597 
L 97.082288 -323.534395 
L 96.537195 -323.626193 
L 95.964099 -323.71799 
L 95.360961 -323.809788 
L 94.7268 -323.901586 
L 94.061832 -323.993384 
L 93.367566 -324.085182 
L 92.646851 -324.17698 
L 91.903886 -324.268778 
L 91.144174 -324.360575 
L 90.374427 -324.452373 
L 89.602435 -324.544171 
L 88.836884 -324.635969 
L 88.087146 -324.727767 
L 87.363045 -324.819565 
L 86.674601 -324.911363 
L 86.031768 -325.00316 
L 85.444175 -325.094958 
L 84.920878 -325.186756 
L 84.470131 -325.278554 
L 84.099187 -325.370352 
L 83.81413 -325.46215 
L 83.619753 -325.553947 
L 83.51947 -325.645745 
L 83.515281 -325.737543 
L 83.607773 -325.829341 
L 83.796164 -325.921139 
L 84.078386 -326.012937 
L 84.451193 -326.104735 
L 84.910303 -326.196532 
L 85.450545 -326.28833 
L 86.066029 -326.380128 
L 86.750307 -326.471926 
L 87.496541 -326.563724 
L 88.29765 -326.655522 
L 89.146453 -326.74732 
L 90.035785 -326.839117 
L 90.9586 -326.930915 
L 91.908046 -327.022713 
L 92.87753 -327.114511 
L 93.860753 -327.206309 
L 94.851736 -327.298107 
L 95.844833 -327.389904 
L 96.834731 -327.481702 
L 97.816449 -327.5735 
L 98.785329 -327.665298 
L 99.737035 -327.757096 
L 100.667542 -327.848894 
L 101.573145 -327.940692 
L 102.450457 -328.032489 
L 103.296422 -328.124287 
L 104.108326 -328.216085 
L 104.883813 -328.307883 
L 105.6209 -328.399681 
L 106.317993 -328.491479 
L 106.973896 -328.583277 
L 107.587824 -328.675074 
L 108.159396 -328.766872 
L 108.688636 -328.85867 
L 109.175959 -328.950468 
L 109.622146 -329.042266 
L 110.028321 -329.134064 
L 110.395913 -329.225862 
L 110.726619 -329.317659 
L 111.022357 -329.409457 
L 111.285223 -329.501255 
L 111.517443 -329.593053 
L 114.178807 -329.593053 
L 114.178807 -329.593053 
L 114.411027 -329.501255 
L 114.673893 -329.409457 
L 114.969631 -329.317659 
L 115.300337 -329.225862 
L 115.667929 -329.134064 
L 116.074104 -329.042266 
L 116.520291 -328.950468 
L 117.007614 -328.85867 
L 117.536854 -328.766872 
L 118.108426 -328.675074 
L 118.722354 -328.583277 
L 119.378257 -328.491479 
L 120.07535 -328.399681 
L 120.812437 -328.307883 
L 121.587924 -328.216085 
L 122.399828 -328.124287 
L 123.245793 -328.032489 
L 124.123105 -327.940692 
L 125.028708 -327.848894 
L 125.959215 -327.757096 
L 126.910921 -327.665298 
L 127.879801 -327.5735 
L 128.861519 -327.481702 
L 129.851417 -327.389904 
L 130.844514 -327.298107 
L 131.835497 -327.206309 
L 132.81872 -327.114511 
L 133.788204 -327.022713 
L 134.73765 -326.930915 
L 135.660465 -326.839117 
L 136.549797 -326.74732 
L 137.3986 -326.655522 
L 138.199709 -326.563724 
L 138.945943 -326.471926 
L 139.630221 -326.380128 
L 140.245705 -326.28833 
L 140.785947 -326.196532 
L 141.245057 -326.104735 
L 141.617864 -326.012937 
L 141.900086 -325.921139 
L 142.088477 -325.829341 
L 142.180969 -325.737543 
L 142.17678 -325.645745 
L 142.076497 -325.553947 
L 141.88212 -325.46215 
L 141.597063 -325.370352 
L 141.226119 -325.278554 
L 140.775372 -325.186756 
L 140.252075 -325.094958 
L 139.664482 -325.00316 
L 139.021649 -324.911363 
L 138.333205 -324.819565 
L 137.609104 -324.727767 
L 136.859366 -324.635969 
L 136.093815 -324.544171 
L 135.321823 -324.452373 
L 134.552076 -324.360575 
L 133.792364 -324.268778 
L 133.049399 -324.17698 
L 132.328684 -324.085182 
L 131.634418 -323.993384 
L 130.96945 -323.901586 
L 130.335289 -323.809788 
L 129.732151 -323.71799 
L 129.159055 -323.626193 
L 128.613962 -323.534395 
L 128.093941 -323.442597 
L 127.595363 -323.350799 
L 127.114113 -323.259001 
L 126.645805 -323.167203 
L 126.186001 -323.075405 
L 125.730415 -322.983608 
L 125.275103 -322.89181 
L 124.816621 -322.800012 
L 124.352162 -322.708214 
L 123.879648 -322.616416 
L 123.397791 -322.524618 
L 122.906118 -322.432821 
L 122.404958 -322.341023 
L 121.895393 -322.249225 
L 121.379187 -322.157427 
L 120.858687 -322.065629 
L 120.336706 -321.973831 
L 119.816398 -321.882033 
L 119.301123 -321.790236 
L 118.794317 -321.698438 
L 118.299372 -321.60664 
L 117.819513 -321.514842 
L 117.357709 -321.423044 
L 116.916585 -321.331246 
L 116.498364 -321.239448 
L 116.104827 -321.147651 
L 115.737286 -321.055853 
L 115.396584 -320.964055 
L 115.083108 -320.872257 
L 114.796813 -320.780459 
L 114.537266 -320.688661 
L 114.303685 -320.596863 
L 114.095 -320.505066 
z
" id="m4d3a4dd359" style="stroke:#3f3f3f;stroke-width:1.5;"/>
    </defs>
    <g clip-path="url(#p54ef0d4ec3)">
     <use style="fill:#c03d3e;stroke:#3f3f3f;stroke-width:1.5;" x="0" xlink:href="#m4d3a4dd359" y="364.007178"/>
    </g>
   </g>
   <g id="PolyCollection_2">
    <defs>
     <path d="M 236.271709 -296.14181 
L 227.504541 -296.14181 
L 226.855286 -296.188282 
L 226.138104 -296.234753 
L 225.350789 -296.281225 
L 224.491906 -296.327696 
L 223.56092 -296.374168 
L 222.558314 -296.420639 
L 221.485696 -296.467111 
L 220.345894 -296.513582 
L 219.143016 -296.560054 
L 217.882492 -296.606525 
L 216.571077 -296.652997 
L 215.21682 -296.699468 
L 213.828995 -296.74594 
L 212.417982 -296.792411 
L 210.995121 -296.838883 
L 209.572513 -296.885354 
L 208.162785 -296.931826 
L 206.778831 -296.978297 
L 205.433514 -297.024769 
L 204.139354 -297.07124 
L 202.90821 -297.117712 
L 201.750949 -297.164183 
L 200.67714 -297.210655 
L 199.694754 -297.257126 
L 198.809909 -297.303598 
L 198.026649 -297.350069 
L 197.34678 -297.396541 
L 196.769758 -297.443012 
L 196.292654 -297.489484 
L 195.910182 -297.535955 
L 195.614801 -297.582427 
L 195.396888 -297.628898 
L 195.244984 -297.67537 
L 195.146093 -297.721841 
L 195.08605 -297.768313 
L 195.049919 -297.814784 
L 195.022433 -297.861256 
L 194.98845 -297.907727 
L 194.933416 -297.954199 
L 194.843817 -298.00067 
L 194.707603 -298.047142 
L 194.514584 -298.093613 
L 194.256766 -298.140085 
L 193.92863 -298.186556 
L 193.527339 -298.233028 
L 193.052865 -298.279499 
L 192.508042 -298.325971 
L 191.898524 -298.372442 
L 191.232675 -298.418914 
L 190.521366 -298.465385 
L 189.77771 -298.511857 
L 189.016735 -298.558328 
L 188.254992 -298.6048 
L 187.510136 -298.651271 
L 186.800472 -298.697743 
L 186.144486 -298.744214 
L 185.560379 -298.790686 
L 185.065611 -298.837157 
L 184.676476 -298.883629 
L 184.407704 -298.9301 
L 184.272125 -298.976572 
L 184.280374 -299.023043 
L 184.44067 -299.069515 
L 184.758656 -299.115986 
L 185.237306 -299.162458 
L 185.876905 -299.208929 
L 186.675091 -299.255401 
L 187.626967 -299.301872 
L 188.725254 -299.348344 
L 189.960516 -299.394815 
L 191.321405 -299.441287 
L 192.794955 -299.487758 
L 194.36689 -299.53423 
L 196.02195 -299.580701 
L 197.744222 -299.627173 
L 199.517464 -299.673644 
L 201.325423 -299.720116 
L 203.152126 -299.766587 
L 204.982153 -299.813059 
L 206.800875 -299.85953 
L 208.59466 -299.906002 
L 210.351043 -299.952473 
L 212.058857 -299.998945 
L 213.708325 -300.045416 
L 215.29112 -300.091888 
L 216.800384 -300.138359 
L 218.230718 -300.184831 
L 219.578144 -300.231302 
L 220.840035 -300.277774 
L 222.015036 -300.324245 
L 223.102952 -300.370717 
L 224.10464 -300.417188 
L 225.021878 -300.46366 
L 225.857236 -300.510131 
L 226.613951 -300.556603 
L 227.29579 -300.603074 
L 227.906932 -300.649546 
L 228.451851 -300.696017 
L 228.935205 -300.742489 
L 234.841045 -300.742489 
L 234.841045 -300.742489 
L 235.324399 -300.696017 
L 235.869318 -300.649546 
L 236.48046 -300.603074 
L 237.162299 -300.556603 
L 237.919014 -300.510131 
L 238.754372 -300.46366 
L 239.67161 -300.417188 
L 240.673298 -300.370717 
L 241.761214 -300.324245 
L 242.936215 -300.277774 
L 244.198106 -300.231302 
L 245.545532 -300.184831 
L 246.975866 -300.138359 
L 248.48513 -300.091888 
L 250.067925 -300.045416 
L 251.717393 -299.998945 
L 253.425207 -299.952473 
L 255.18159 -299.906002 
L 256.975375 -299.85953 
L 258.794097 -299.813059 
L 260.624124 -299.766587 
L 262.450827 -299.720116 
L 264.258786 -299.673644 
L 266.032028 -299.627173 
L 267.7543 -299.580701 
L 269.40936 -299.53423 
L 270.981295 -299.487758 
L 272.454845 -299.441287 
L 273.815734 -299.394815 
L 275.050996 -299.348344 
L 276.149283 -299.301872 
L 277.101159 -299.255401 
L 277.899345 -299.208929 
L 278.538944 -299.162458 
L 279.017594 -299.115986 
L 279.33558 -299.069515 
L 279.495876 -299.023043 
L 279.504125 -298.976572 
L 279.368546 -298.9301 
L 279.099774 -298.883629 
L 278.710639 -298.837157 
L 278.215871 -298.790686 
L 277.631764 -298.744214 
L 276.975778 -298.697743 
L 276.266114 -298.651271 
L 275.521258 -298.6048 
L 274.759515 -298.558328 
L 273.99854 -298.511857 
L 273.254884 -298.465385 
L 272.543575 -298.418914 
L 271.877726 -298.372442 
L 271.268208 -298.325971 
L 270.723385 -298.279499 
L 270.248911 -298.233028 
L 269.84762 -298.186556 
L 269.519484 -298.140085 
L 269.261666 -298.093613 
L 269.068647 -298.047142 
L 268.932433 -298.00067 
L 268.842834 -297.954199 
L 268.7878 -297.907727 
L 268.753817 -297.861256 
L 268.726331 -297.814784 
L 268.6902 -297.768313 
L 268.630157 -297.721841 
L 268.531266 -297.67537 
L 268.379362 -297.628898 
L 268.161449 -297.582427 
L 267.866068 -297.535955 
L 267.483596 -297.489484 
L 267.006492 -297.443012 
L 266.42947 -297.396541 
L 265.749601 -297.350069 
L 264.966341 -297.303598 
L 264.081496 -297.257126 
L 263.09911 -297.210655 
L 262.025301 -297.164183 
L 260.86804 -297.117712 
L 259.636896 -297.07124 
L 258.342736 -297.024769 
L 256.997419 -296.978297 
L 255.613465 -296.931826 
L 254.203737 -296.885354 
L 252.781129 -296.838883 
L 251.358268 -296.792411 
L 249.947255 -296.74594 
L 248.55943 -296.699468 
L 247.205173 -296.652997 
L 245.893758 -296.606525 
L 244.633234 -296.560054 
L 243.430356 -296.513582 
L 242.290554 -296.467111 
L 241.217936 -296.420639 
L 240.21533 -296.374168 
L 239.284344 -296.327696 
L 238.425461 -296.281225 
L 237.638146 -296.234753 
L 236.920964 -296.188282 
L 236.271709 -296.14181 
z
" id="mc82fb22b91" style="stroke:#3f3f3f;stroke-width:1.5;"/>
    </defs>
    <g clip-path="url(#p54ef0d4ec3)">
     <use style="fill:#3274a1;stroke:#3f3f3f;stroke-width:1.5;" x="0" xlink:href="#mc82fb22b91" y="364.007178"/>
    </g>
   </g>
   <g id="PolyCollection_3">
    <defs>
     <path d="M 351.229149 -87.673053 
L 350.627101 -87.673053 
L 350.580582 -88.025413 
L 350.529015 -88.377773 
L 350.472241 -88.730133 
L 350.410166 -89.082493 
L 350.342775 -89.434854 
L 350.270139 -89.787214 
L 350.192425 -90.139574 
L 350.109908 -90.491934 
L 350.02297 -90.844294 
L 349.932107 -91.196654 
L 349.837929 -91.549014 
L 349.741155 -91.901375 
L 349.642606 -92.253735 
L 349.543195 -92.606095 
L 349.443912 -92.958455 
L 349.345802 -93.310815 
L 349.249949 -93.663175 
L 349.157444 -94.015535 
L 349.06936 -94.367895 
L 348.986722 -94.720256 
L 348.910473 -95.072616 
L 348.841447 -95.424976 
L 348.780332 -95.777336 
L 348.727646 -96.129696 
L 348.683704 -96.482056 
L 348.6486 -96.834416 
L 348.622183 -97.186777 
L 348.604043 -97.539137 
L 348.593506 -97.891497 
L 348.589624 -98.243857 
L 348.591187 -98.596217 
L 348.596725 -98.948577 
L 348.604532 -99.300937 
L 348.612683 -99.653297 
L 348.619071 -100.005658 
L 348.621437 -100.358018 
L 348.617415 -100.710378 
L 348.604577 -101.062738 
L 348.580484 -101.415098 
L 348.542738 -101.767458 
L 348.489043 -102.119818 
L 348.417258 -102.472179 
L 348.325455 -102.824539 
L 348.211982 -103.176899 
L 348.07551 -103.529259 
L 347.915091 -103.881619 
L 347.730201 -104.233979 
L 347.520784 -104.586339 
L 347.287281 -104.938699 
L 347.030656 -105.29106 
L 346.75241 -105.64342 
L 346.454582 -105.99578 
L 346.139739 -106.34814 
L 345.810955 -106.7005 
L 345.471769 -107.05286 
L 345.126143 -107.40522 
L 344.778392 -107.757581 
L 344.433113 -108.109941 
L 344.0951 -108.462301 
L 343.769248 -108.814661 
L 343.460453 -109.167021 
L 343.173512 -109.519381 
L 342.913008 -109.871741 
L 342.683216 -110.224102 
L 342.488001 -110.576462 
L 342.330724 -110.928822 
L 342.21417 -111.281182 
L 342.140478 -111.633542 
L 342.111092 -111.985902 
L 342.12673 -112.338262 
L 342.187369 -112.690622 
L 342.292252 -113.042983 
L 342.439915 -113.395343 
L 342.628222 -113.747703 
L 342.854432 -114.100063 
L 343.115263 -114.452423 
L 343.406987 -114.804783 
L 343.725513 -115.157143 
L 344.066493 -115.509504 
L 344.425419 -115.861864 
L 344.797729 -116.214224 
L 345.178898 -116.566584 
L 345.56453 -116.918944 
L 345.950444 -117.271304 
L 346.332739 -117.623664 
L 346.707858 -117.976024 
L 347.072628 -118.328385 
L 347.424297 -118.680745 
L 347.760553 -119.033105 
L 348.079528 -119.385465 
L 348.379793 -119.737825 
L 348.660345 -120.090185 
L 348.920579 -120.442545 
L 349.160261 -120.794906 
L 349.379483 -121.147266 
L 349.578629 -121.499626 
L 349.758329 -121.851986 
L 349.919416 -122.204346 
L 350.06288 -122.556706 
L 351.79337 -122.556706 
L 351.79337 -122.556706 
L 351.936834 -122.204346 
L 352.097921 -121.851986 
L 352.277621 -121.499626 
L 352.476767 -121.147266 
L 352.695989 -120.794906 
L 352.935671 -120.442545 
L 353.195905 -120.090185 
L 353.476457 -119.737825 
L 353.776722 -119.385465 
L 354.095697 -119.033105 
L 354.431953 -118.680745 
L 354.783622 -118.328385 
L 355.148392 -117.976024 
L 355.523511 -117.623664 
L 355.905806 -117.271304 
L 356.29172 -116.918944 
L 356.677352 -116.566584 
L 357.058521 -116.214224 
L 357.430831 -115.861864 
L 357.789757 -115.509504 
L 358.130737 -115.157143 
L 358.449263 -114.804783 
L 358.740987 -114.452423 
L 359.001818 -114.100063 
L 359.228028 -113.747703 
L 359.416335 -113.395343 
L 359.563998 -113.042983 
L 359.668881 -112.690622 
L 359.72952 -112.338262 
L 359.745158 -111.985902 
L 359.715772 -111.633542 
L 359.64208 -111.281182 
L 359.525526 -110.928822 
L 359.368249 -110.576462 
L 359.173034 -110.224102 
L 358.943242 -109.871741 
L 358.682738 -109.519381 
L 358.395797 -109.167021 
L 358.087002 -108.814661 
L 357.76115 -108.462301 
L 357.423137 -108.109941 
L 357.077858 -107.757581 
L 356.730107 -107.40522 
L 356.384481 -107.05286 
L 356.045295 -106.7005 
L 355.716511 -106.34814 
L 355.401668 -105.99578 
L 355.10384 -105.64342 
L 354.825594 -105.29106 
L 354.568969 -104.938699 
L 354.335466 -104.586339 
L 354.126049 -104.233979 
L 353.941159 -103.881619 
L 353.78074 -103.529259 
L 353.644268 -103.176899 
L 353.530795 -102.824539 
L 353.438992 -102.472179 
L 353.367207 -102.119818 
L 353.313512 -101.767458 
L 353.275766 -101.415098 
L 353.251673 -101.062738 
L 353.238835 -100.710378 
L 353.234813 -100.358018 
L 353.237179 -100.005658 
L 353.243567 -99.653297 
L 353.251718 -99.300937 
L 353.259525 -98.948577 
L 353.265063 -98.596217 
L 353.266626 -98.243857 
L 353.262744 -97.891497 
L 353.252207 -97.539137 
L 353.234067 -97.186777 
L 353.20765 -96.834416 
L 353.172546 -96.482056 
L 353.128604 -96.129696 
L 353.075918 -95.777336 
L 353.014803 -95.424976 
L 352.945777 -95.072616 
L 352.869528 -94.720256 
L 352.78689 -94.367895 
L 352.698806 -94.015535 
L 352.606301 -93.663175 
L 352.510448 -93.310815 
L 352.412338 -92.958455 
L 352.313055 -92.606095 
L 352.213644 -92.253735 
L 352.115095 -91.901375 
L 352.018321 -91.549014 
L 351.924143 -91.196654 
L 351.83328 -90.844294 
L 351.746342 -90.491934 
L 351.663825 -90.139574 
L 351.586111 -89.787214 
L 351.513475 -89.434854 
L 351.446084 -89.082493 
L 351.384009 -88.730133 
L 351.327235 -88.377773 
L 351.275668 -88.025413 
L 351.229149 -87.673053 
z
" id="m89fd428d4a" style="stroke:#3f3f3f;stroke-width:1.5;"/>
    </defs>
    <g clip-path="url(#p54ef0d4ec3)">
     <use style="fill:#9fd495;stroke:#3f3f3f;stroke-width:1.5;" x="0" xlink:href="#m89fd428d4a" y="364.007178"/>
    </g>
   </g>
   <g id="matplotlib.axis_1">
    <g id="xtick_1">
     <g id="line2d_1">
      <defs>
       <path d="M 0 0 
L 0 3.5 
" id="md19faa391c" style="stroke:#000000;stroke-width:0.8;"/>
      </defs>
      <g>
       <use style="stroke:#000000;stroke-width:0.8;" x="112.848125" xlink:href="#md19faa391c" y="288.430125"/>
      </g>
     </g>
     <g id="text_1">
      <!-- entropic -->
      <g transform="translate(76.266057 322.530877)rotate(-30)scale(0.1 -0.1)">
       <defs>
        <path d="M 56.203125 29.59375 
L 56.203125 25.203125 
L 14.890625 25.203125 
Q 15.484375 15.921875 20.484375 11.0625 
Q 25.484375 6.203125 34.421875 6.203125 
Q 39.59375 6.203125 44.453125 7.46875 
Q 49.3125 8.734375 54.109375 11.28125 
L 54.109375 2.78125 
Q 49.265625 0.734375 44.1875 -0.34375 
Q 39.109375 -1.421875 33.890625 -1.421875 
Q 20.796875 -1.421875 13.15625 6.1875 
Q 5.515625 13.8125 5.515625 26.8125 
Q 5.515625 40.234375 12.765625 48.109375 
Q 20.015625 56 32.328125 56 
Q 43.359375 56 49.78125 48.890625 
Q 56.203125 41.796875 56.203125 29.59375 
z
M 47.21875 32.234375 
Q 47.125 39.59375 43.09375 43.984375 
Q 39.0625 48.390625 32.421875 48.390625 
Q 24.90625 48.390625 20.390625 44.140625 
Q 15.875 39.890625 15.1875 32.171875 
z
" id="DejaVuSans-101"/>
        <path d="M 54.890625 33.015625 
L 54.890625 0 
L 45.90625 0 
L 45.90625 32.71875 
Q 45.90625 40.484375 42.875 44.328125 
Q 39.84375 48.1875 33.796875 48.1875 
Q 26.515625 48.1875 22.3125 43.546875 
Q 18.109375 38.921875 18.109375 30.90625 
L 18.109375 0 
L 9.078125 0 
L 9.078125 54.6875 
L 18.109375 54.6875 
L 18.109375 46.1875 
Q 21.34375 51.125 25.703125 53.5625 
Q 30.078125 56 35.796875 56 
Q 45.21875 56 50.046875 50.171875 
Q 54.890625 44.34375 54.890625 33.015625 
z
" id="DejaVuSans-110"/>
        <path d="M 18.3125 70.21875 
L 18.3125 54.6875 
L 36.8125 54.6875 
L 36.8125 47.703125 
L 18.3125 47.703125 
L 18.3125 18.015625 
Q 18.3125 11.328125 20.140625 9.421875 
Q 21.96875 7.515625 27.59375 7.515625 
L 36.8125 7.515625 
L 36.8125 0 
L 27.59375 0 
Q 17.1875 0 13.234375 3.875 
Q 9.28125 7.765625 9.28125 18.015625 
L 9.28125 47.703125 
L 2.6875 47.703125 
L 2.6875 54.6875 
L 9.28125 54.6875 
L 9.28125 70.21875 
z
" id="DejaVuSans-116"/>
        <path d="M 41.109375 46.296875 
Q 39.59375 47.171875 37.8125 47.578125 
Q 36.03125 48 33.890625 48 
Q 26.265625 48 22.1875 43.046875 
Q 18.109375 38.09375 18.109375 28.8125 
L 18.109375 0 
L 9.078125 0 
L 9.078125 54.6875 
L 18.109375 54.6875 
L 18.109375 46.1875 
Q 20.953125 51.171875 25.484375 53.578125 
Q 30.03125 56 36.53125 56 
Q 37.453125 56 38.578125 55.875 
Q 39.703125 55.765625 41.0625 55.515625 
z
" id="DejaVuSans-114"/>
        <path d="M 30.609375 48.390625 
Q 23.390625 48.390625 19.1875 42.75 
Q 14.984375 37.109375 14.984375 27.296875 
Q 14.984375 17.484375 19.15625 11.84375 
Q 23.34375 6.203125 30.609375 6.203125 
Q 37.796875 6.203125 41.984375 11.859375 
Q 46.1875 17.53125 46.1875 27.296875 
Q 46.1875 37.015625 41.984375 42.703125 
Q 37.796875 48.390625 30.609375 48.390625 
z
M 30.609375 56 
Q 42.328125 56 49.015625 48.375 
Q 55.71875 40.765625 55.71875 27.296875 
Q 55.71875 13.875 49.015625 6.21875 
Q 42.328125 -1.421875 30.609375 -1.421875 
Q 18.84375 -1.421875 12.171875 6.21875 
Q 5.515625 13.875 5.515625 27.296875 
Q 5.515625 40.765625 12.171875 48.375 
Q 18.84375 56 30.609375 56 
z
" id="DejaVuSans-111"/>
        <path d="M 18.109375 8.203125 
L 18.109375 -20.796875 
L 9.078125 -20.796875 
L 9.078125 54.6875 
L 18.109375 54.6875 
L 18.109375 46.390625 
Q 20.953125 51.265625 25.265625 53.625 
Q 29.59375 56 35.59375 56 
Q 45.5625 56 51.78125 48.09375 
Q 58.015625 40.1875 58.015625 27.296875 
Q 58.015625 14.40625 51.78125 6.484375 
Q 45.5625 -1.421875 35.59375 -1.421875 
Q 29.59375 -1.421875 25.265625 0.953125 
Q 20.953125 3.328125 18.109375 8.203125 
z
M 48.6875 27.296875 
Q 48.6875 37.203125 44.609375 42.84375 
Q 40.53125 48.484375 33.40625 48.484375 
Q 26.265625 48.484375 22.1875 42.84375 
Q 18.109375 37.203125 18.109375 27.296875 
Q 18.109375 17.390625 22.1875 11.75 
Q 26.265625 6.109375 33.40625 6.109375 
Q 40.53125 6.109375 44.609375 11.75 
Q 48.6875 17.390625 48.6875 27.296875 
z
" id="DejaVuSans-112"/>
        <path d="M 9.421875 54.6875 
L 18.40625 54.6875 
L 18.40625 0 
L 9.421875 0 
z
M 9.421875 75.984375 
L 18.40625 75.984375 
L 18.40625 64.59375 
L 9.421875 64.59375 
z
" id="DejaVuSans-105"/>
        <path d="M 48.78125 52.59375 
L 48.78125 44.1875 
Q 44.96875 46.296875 41.140625 47.34375 
Q 37.3125 48.390625 33.40625 48.390625 
Q 24.65625 48.390625 19.8125 42.84375 
Q 14.984375 37.3125 14.984375 27.296875 
Q 14.984375 17.28125 19.8125 11.734375 
Q 24.65625 6.203125 33.40625 6.203125 
Q 37.3125 6.203125 41.140625 7.25 
Q 44.96875 8.296875 48.78125 10.40625 
L 48.78125 2.09375 
Q 45.015625 0.34375 40.984375 -0.53125 
Q 36.96875 -1.421875 32.421875 -1.421875 
Q 20.0625 -1.421875 12.78125 6.34375 
Q 5.515625 14.109375 5.515625 27.296875 
Q 5.515625 40.671875 12.859375 48.328125 
Q 20.21875 56 33.015625 56 
Q 37.15625 56 41.109375 55.140625 
Q 45.0625 54.296875 48.78125 52.59375 
z
" id="DejaVuSans-99"/>
       </defs>
       <use xlink:href="#DejaVuSans-101"/>
       <use x="61.523438" xlink:href="#DejaVuSans-110"/>
       <use x="124.902344" xlink:href="#DejaVuSans-116"/>
       <use x="164.111328" xlink:href="#DejaVuSans-114"/>
       <use x="202.974609" xlink:href="#DejaVuSans-111"/>
       <use x="264.15625" xlink:href="#DejaVuSans-112"/>
       <use x="327.632812" xlink:href="#DejaVuSans-105"/>
       <use x="355.416016" xlink:href="#DejaVuSans-99"/>
      </g>
     </g>
    </g>
    <g id="xtick_2">
     <g id="line2d_2">
      <g>
       <use style="stroke:#000000;stroke-width:0.8;" x="231.888125" xlink:href="#md19faa391c" y="288.430125"/>
      </g>
     </g>
     <g id="text_2">
      <!-- aflplusplus -->
      <g transform="translate(184.279118 328.897284)rotate(-30)scale(0.1 -0.1)">
       <defs>
        <path d="M 34.28125 27.484375 
Q 23.390625 27.484375 19.1875 25 
Q 14.984375 22.515625 14.984375 16.5 
Q 14.984375 11.71875 18.140625 8.90625 
Q 21.296875 6.109375 26.703125 6.109375 
Q 34.1875 6.109375 38.703125 11.40625 
Q 43.21875 16.703125 43.21875 25.484375 
L 43.21875 27.484375 
z
M 52.203125 31.203125 
L 52.203125 0 
L 43.21875 0 
L 43.21875 8.296875 
Q 40.140625 3.328125 35.546875 0.953125 
Q 30.953125 -1.421875 24.3125 -1.421875 
Q 15.921875 -1.421875 10.953125 3.296875 
Q 6 8.015625 6 15.921875 
Q 6 25.140625 12.171875 29.828125 
Q 18.359375 34.515625 30.609375 34.515625 
L 43.21875 34.515625 
L 43.21875 35.40625 
Q 43.21875 41.609375 39.140625 45 
Q 35.0625 48.390625 27.6875 48.390625 
Q 23 48.390625 18.546875 47.265625 
Q 14.109375 46.140625 10.015625 43.890625 
L 10.015625 52.203125 
Q 14.9375 54.109375 19.578125 55.046875 
Q 24.21875 56 28.609375 56 
Q 40.484375 56 46.34375 49.84375 
Q 52.203125 43.703125 52.203125 31.203125 
z
" id="DejaVuSans-97"/>
        <path d="M 37.109375 75.984375 
L 37.109375 68.5 
L 28.515625 68.5 
Q 23.6875 68.5 21.796875 66.546875 
Q 19.921875 64.59375 19.921875 59.515625 
L 19.921875 54.6875 
L 34.71875 54.6875 
L 34.71875 47.703125 
L 19.921875 47.703125 
L 19.921875 0 
L 10.890625 0 
L 10.890625 47.703125 
L 2.296875 47.703125 
L 2.296875 54.6875 
L 10.890625 54.6875 
L 10.890625 58.5 
Q 10.890625 67.625 15.140625 71.796875 
Q 19.390625 75.984375 28.609375 75.984375 
z
" id="DejaVuSans-102"/>
        <path d="M 9.421875 75.984375 
L 18.40625 75.984375 
L 18.40625 0 
L 9.421875 0 
z
" id="DejaVuSans-108"/>
        <path d="M 8.5 21.578125 
L 8.5 54.6875 
L 17.484375 54.6875 
L 17.484375 21.921875 
Q 17.484375 14.15625 20.5 10.265625 
Q 23.53125 6.390625 29.59375 6.390625 
Q 36.859375 6.390625 41.078125 11.03125 
Q 45.3125 15.671875 45.3125 23.6875 
L 45.3125 54.6875 
L 54.296875 54.6875 
L 54.296875 0 
L 45.3125 0 
L 45.3125 8.40625 
Q 42.046875 3.421875 37.71875 1 
Q 33.40625 -1.421875 27.6875 -1.421875 
Q 18.265625 -1.421875 13.375 4.4375 
Q 8.5 10.296875 8.5 21.578125 
z
M 31.109375 56 
z
" id="DejaVuSans-117"/>
        <path d="M 44.28125 53.078125 
L 44.28125 44.578125 
Q 40.484375 46.53125 36.375 47.5 
Q 32.28125 48.484375 27.875 48.484375 
Q 21.1875 48.484375 17.84375 46.4375 
Q 14.5 44.390625 14.5 40.28125 
Q 14.5 37.15625 16.890625 35.375 
Q 19.28125 33.59375 26.515625 31.984375 
L 29.59375 31.296875 
Q 39.15625 29.25 43.1875 25.515625 
Q 47.21875 21.78125 47.21875 15.09375 
Q 47.21875 7.46875 41.1875 3.015625 
Q 35.15625 -1.421875 24.609375 -1.421875 
Q 20.21875 -1.421875 15.453125 -0.5625 
Q 10.6875 0.296875 5.421875 2 
L 5.421875 11.28125 
Q 10.40625 8.6875 15.234375 7.390625 
Q 20.0625 6.109375 24.8125 6.109375 
Q 31.15625 6.109375 34.5625 8.28125 
Q 37.984375 10.453125 37.984375 14.40625 
Q 37.984375 18.0625 35.515625 20.015625 
Q 33.0625 21.96875 24.703125 23.78125 
L 21.578125 24.515625 
Q 13.234375 26.265625 9.515625 29.90625 
Q 5.8125 33.546875 5.8125 39.890625 
Q 5.8125 47.609375 11.28125 51.796875 
Q 16.75 56 26.8125 56 
Q 31.78125 56 36.171875 55.265625 
Q 40.578125 54.546875 44.28125 53.078125 
z
" id="DejaVuSans-115"/>
       </defs>
       <use xlink:href="#DejaVuSans-97"/>
       <use x="61.279297" xlink:href="#DejaVuSans-102"/>
       <use x="96.484375" xlink:href="#DejaVuSans-108"/>
       <use x="124.267578" xlink:href="#DejaVuSans-112"/>
       <use x="187.744141" xlink:href="#DejaVuSans-108"/>
       <use x="215.527344" xlink:href="#DejaVuSans-117"/>
       <use x="278.90625" xlink:href="#DejaVuSans-115"/>
       <use x="331.005859" xlink:href="#DejaVuSans-112"/>
       <use x="394.482422" xlink:href="#DejaVuSans-108"/>
       <use x="422.265625" xlink:href="#DejaVuSans-117"/>
       <use x="485.644531" xlink:href="#DejaVuSans-115"/>
      </g>
     </g>
    </g>
    <g id="xtick_3">
     <g id="line2d_3">
      <g>
       <use style="stroke:#000000;stroke-width:0.8;" x="350.928125" xlink:href="#md19faa391c" y="288.430125"/>
      </g>
     </g>
     <g id="text_3">
      <!-- aflplusplus_hier -->
      <g transform="translate(282.066627 341.087127)rotate(-30)scale(0.1 -0.1)">
       <defs>
        <path d="M 50.984375 -16.609375 
L 50.984375 -23.578125 
L -0.984375 -23.578125 
L -0.984375 -16.609375 
z
" id="DejaVuSans-95"/>
        <path d="M 54.890625 33.015625 
L 54.890625 0 
L 45.90625 0 
L 45.90625 32.71875 
Q 45.90625 40.484375 42.875 44.328125 
Q 39.84375 48.1875 33.796875 48.1875 
Q 26.515625 48.1875 22.3125 43.546875 
Q 18.109375 38.921875 18.109375 30.90625 
L 18.109375 0 
L 9.078125 0 
L 9.078125 75.984375 
L 18.109375 75.984375 
L 18.109375 46.1875 
Q 21.34375 51.125 25.703125 53.5625 
Q 30.078125 56 35.796875 56 
Q 45.21875 56 50.046875 50.171875 
Q 54.890625 44.34375 54.890625 33.015625 
z
" id="DejaVuSans-104"/>
       </defs>
       <use xlink:href="#DejaVuSans-97"/>
       <use x="61.279297" xlink:href="#DejaVuSans-102"/>
       <use x="96.484375" xlink:href="#DejaVuSans-108"/>
       <use x="124.267578" xlink:href="#DejaVuSans-112"/>
       <use x="187.744141" xlink:href="#DejaVuSans-108"/>
       <use x="215.527344" xlink:href="#DejaVuSans-117"/>
       <use x="278.90625" xlink:href="#DejaVuSans-115"/>
       <use x="331.005859" xlink:href="#DejaVuSans-112"/>
       <use x="394.482422" xlink:href="#DejaVuSans-108"/>
       <use x="422.265625" xlink:href="#DejaVuSans-117"/>
       <use x="485.644531" xlink:href="#DejaVuSans-115"/>
       <use x="537.744141" xlink:href="#DejaVuSans-95"/>
       <use x="587.744141" xlink:href="#DejaVuSans-104"/>
       <use x="651.123047" xlink:href="#DejaVuSans-105"/>
       <use x="678.90625" xlink:href="#DejaVuSans-101"/>
       <use x="740.429688" xlink:href="#DejaVuSans-114"/>
      </g>
     </g>
    </g>
    <g id="text_4">
     <!-- Fuzzer (highest median coverage on the left) -->
     <g transform="translate(119.270156 354.72749)scale(0.1 -0.1)">
      <defs>
       <path d="M 9.8125 72.90625 
L 51.703125 72.90625 
L 51.703125 64.59375 
L 19.671875 64.59375 
L 19.671875 43.109375 
L 48.578125 43.109375 
L 48.578125 34.8125 
L 19.671875 34.8125 
L 19.671875 0 
L 9.8125 0 
z
" id="DejaVuSans-70"/>
       <path d="M 5.515625 54.6875 
L 48.1875 54.6875 
L 48.1875 46.484375 
L 14.40625 7.171875 
L 48.1875 7.171875 
L 48.1875 0 
L 4.296875 0 
L 4.296875 8.203125 
L 38.09375 47.515625 
L 5.515625 47.515625 
z
" id="DejaVuSans-122"/>
       <path id="DejaVuSans-32"/>
       <path d="M 31 75.875 
Q 24.46875 64.65625 21.28125 53.65625 
Q 18.109375 42.671875 18.109375 31.390625 
Q 18.109375 20.125 21.3125 9.0625 
Q 24.515625 -2 31 -13.1875 
L 23.1875 -13.1875 
Q 15.875 -1.703125 12.234375 9.375 
Q 8.59375 20.453125 8.59375 31.390625 
Q 8.59375 42.28125 12.203125 53.3125 
Q 15.828125 64.359375 23.1875 75.875 
z
" id="DejaVuSans-40"/>
       <path d="M 45.40625 27.984375 
Q 45.40625 37.75 41.375 43.109375 
Q 37.359375 48.484375 30.078125 48.484375 
Q 22.859375 48.484375 18.828125 43.109375 
Q 14.796875 37.75 14.796875 27.984375 
Q 14.796875 18.265625 18.828125 12.890625 
Q 22.859375 7.515625 30.078125 7.515625 
Q 37.359375 7.515625 41.375 12.890625 
Q 45.40625 18.265625 45.40625 27.984375 
z
M 54.390625 6.78125 
Q 54.390625 -7.171875 48.1875 -13.984375 
Q 42 -20.796875 29.203125 -20.796875 
Q 24.46875 -20.796875 20.265625 -20.09375 
Q 16.0625 -19.390625 12.109375 -17.921875 
L 12.109375 -9.1875 
Q 16.0625 -11.328125 19.921875 -12.34375 
Q 23.78125 -13.375 27.78125 -13.375 
Q 36.625 -13.375 41.015625 -8.765625 
Q 45.40625 -4.15625 45.40625 5.171875 
L 45.40625 9.625 
Q 42.625 4.78125 38.28125 2.390625 
Q 33.9375 0 27.875 0 
Q 17.828125 0 11.671875 7.65625 
Q 5.515625 15.328125 5.515625 27.984375 
Q 5.515625 40.671875 11.671875 48.328125 
Q 17.828125 56 27.875 56 
Q 33.9375 56 38.28125 53.609375 
Q 42.625 51.21875 45.40625 46.390625 
L 45.40625 54.6875 
L 54.390625 54.6875 
z
" id="DejaVuSans-103"/>
       <path d="M 52 44.1875 
Q 55.375 50.25 60.0625 53.125 
Q 64.75 56 71.09375 56 
Q 79.640625 56 84.28125 50.015625 
Q 88.921875 44.046875 88.921875 33.015625 
L 88.921875 0 
L 79.890625 0 
L 79.890625 32.71875 
Q 79.890625 40.578125 77.09375 44.375 
Q 74.3125 48.1875 68.609375 48.1875 
Q 61.625 48.1875 57.5625 43.546875 
Q 53.515625 38.921875 53.515625 30.90625 
L 53.515625 0 
L 44.484375 0 
L 44.484375 32.71875 
Q 44.484375 40.625 41.703125 44.40625 
Q 38.921875 48.1875 33.109375 48.1875 
Q 26.21875 48.1875 22.15625 43.53125 
Q 18.109375 38.875 18.109375 30.90625 
L 18.109375 0 
L 9.078125 0 
L 9.078125 54.6875 
L 18.109375 54.6875 
L 18.109375 46.1875 
Q 21.1875 51.21875 25.484375 53.609375 
Q 29.78125 56 35.6875 56 
Q 41.65625 56 45.828125 52.96875 
Q 50 49.953125 52 44.1875 
z
" id="DejaVuSans-109"/>
       <path d="M 45.40625 46.390625 
L 45.40625 75.984375 
L 54.390625 75.984375 
L 54.390625 0 
L 45.40625 0 
L 45.40625 8.203125 
Q 42.578125 3.328125 38.25 0.953125 
Q 33.9375 -1.421875 27.875 -1.421875 
Q 17.96875 -1.421875 11.734375 6.484375 
Q 5.515625 14.40625 5.515625 27.296875 
Q 5.515625 40.1875 11.734375 48.09375 
Q 17.96875 56 27.875 56 
Q 33.9375 56 38.25 53.625 
Q 42.578125 51.265625 45.40625 46.390625 
z
M 14.796875 27.296875 
Q 14.796875 17.390625 18.875 11.75 
Q 22.953125 6.109375 30.078125 6.109375 
Q 37.203125 6.109375 41.296875 11.75 
Q 45.40625 17.390625 45.40625 27.296875 
Q 45.40625 37.203125 41.296875 42.84375 
Q 37.203125 48.484375 30.078125 48.484375 
Q 22.953125 48.484375 18.875 42.84375 
Q 14.796875 37.203125 14.796875 27.296875 
z
" id="DejaVuSans-100"/>
       <path d="M 2.984375 54.6875 
L 12.5 54.6875 
L 29.59375 8.796875 
L 46.6875 54.6875 
L 56.203125 54.6875 
L 35.6875 0 
L 23.484375 0 
z
" id="DejaVuSans-118"/>
       <path d="M 8.015625 75.875 
L 15.828125 75.875 
Q 23.140625 64.359375 26.78125 53.3125 
Q 30.421875 42.28125 30.421875 31.390625 
Q 30.421875 20.453125 26.78125 9.375 
Q 23.140625 -1.703125 15.828125 -13.1875 
L 8.015625 -13.1875 
Q 14.5 -2 17.703125 9.0625 
Q 20.90625 20.125 20.90625 31.390625 
Q 20.90625 42.671875 17.703125 53.65625 
Q 14.5 64.65625 8.015625 75.875 
z
" id="DejaVuSans-41"/>
      </defs>
      <use xlink:href="#DejaVuSans-70"/>
      <use x="52.019531" xlink:href="#DejaVuSans-117"/>
      <use x="115.398438" xlink:href="#DejaVuSans-122"/>
      <use x="167.888672" xlink:href="#DejaVuSans-122"/>
      <use x="220.378906" xlink:href="#DejaVuSans-101"/>
      <use x="281.902344" xlink:href="#DejaVuSans-114"/>
      <use x="323.015625" xlink:href="#DejaVuSans-32"/>
      <use x="354.802734" xlink:href="#DejaVuSans-40"/>
      <use x="393.816406" xlink:href="#DejaVuSans-104"/>
      <use x="457.195312" xlink:href="#DejaVuSans-105"/>
      <use x="484.978516" xlink:href="#DejaVuSans-103"/>
      <use x="548.455078" xlink:href="#DejaVuSans-104"/>
      <use x="611.833984" xlink:href="#DejaVuSans-101"/>
      <use x="673.357422" xlink:href="#DejaVuSans-115"/>
      <use x="725.457031" xlink:href="#DejaVuSans-116"/>
      <use x="764.666016" xlink:href="#DejaVuSans-32"/>
      <use x="796.453125" xlink:href="#DejaVuSans-109"/>
      <use x="893.865234" xlink:href="#DejaVuSans-101"/>
      <use x="955.388672" xlink:href="#DejaVuSans-100"/>
      <use x="1018.865234" xlink:href="#DejaVuSans-105"/>
      <use x="1046.648438" xlink:href="#DejaVuSans-97"/>
      <use x="1107.927734" xlink:href="#DejaVuSans-110"/>
      <use x="1171.306641" xlink:href="#DejaVuSans-32"/>
      <use x="1203.09375" xlink:href="#DejaVuSans-99"/>
      <use x="1258.074219" xlink:href="#DejaVuSans-111"/>
      <use x="1319.255859" xlink:href="#DejaVuSans-118"/>
      <use x="1378.435547" xlink:href="#DejaVuSans-101"/>
      <use x="1439.958984" xlink:href="#DejaVuSans-114"/>
      <use x="1481.072266" xlink:href="#DejaVuSans-97"/>
      <use x="1542.351562" xlink:href="#DejaVuSans-103"/>
      <use x="1605.828125" xlink:href="#DejaVuSans-101"/>
      <use x="1667.351562" xlink:href="#DejaVuSans-32"/>
      <use x="1699.138672" xlink:href="#DejaVuSans-111"/>
      <use x="1760.320312" xlink:href="#DejaVuSans-110"/>
      <use x="1823.699219" xlink:href="#DejaVuSans-32"/>
      <use x="1855.486328" xlink:href="#DejaVuSans-116"/>
      <use x="1894.695312" xlink:href="#DejaVuSans-104"/>
      <use x="1958.074219" xlink:href="#DejaVuSans-101"/>
      <use x="2019.597656" xlink:href="#DejaVuSans-32"/>
      <use x="2051.384766" xlink:href="#DejaVuSans-108"/>
      <use x="2079.167969" xlink:href="#DejaVuSans-101"/>
      <use x="2140.691406" xlink:href="#DejaVuSans-102"/>
      <use x="2174.146484" xlink:href="#DejaVuSans-116"/>
      <use x="2213.355469" xlink:href="#DejaVuSans-41"/>
     </g>
    </g>
   </g>
   <g id="matplotlib.axis_2">
    <g id="ytick_1">
     <g id="line2d_4">
      <defs>
       <path d="M 0 0 
L -3.5 0 
" id="m03e9c83667" style="stroke:#000000;stroke-width:0.8;"/>
      </defs>
      <g>
       <use style="stroke:#000000;stroke-width:0.8;" x="53.328125" xlink:href="#m03e9c83667" y="282.814107"/>
      </g>
     </g>
     <g id="text_5">
      <!-- 1500 -->
      <g transform="translate(20.878125 286.613326)scale(0.1 -0.1)">
       <defs>
        <path d="M 12.40625 8.296875 
L 28.515625 8.296875 
L 28.515625 63.921875 
L 10.984375 60.40625 
L 10.984375 69.390625 
L 28.421875 72.90625 
L 38.28125 72.90625 
L 38.28125 8.296875 
L 54.390625 8.296875 
L 54.390625 0 
L 12.40625 0 
z
" id="DejaVuSans-49"/>
        <path d="M 10.796875 72.90625 
L 49.515625 72.90625 
L 49.515625 64.59375 
L 19.828125 64.59375 
L 19.828125 46.734375 
Q 21.96875 47.46875 24.109375 47.828125 
Q 26.265625 48.1875 28.421875 48.1875 
Q 40.625 48.1875 47.75 41.5 
Q 54.890625 34.8125 54.890625 23.390625 
Q 54.890625 11.625 47.5625 5.09375 
Q 40.234375 -1.421875 26.90625 -1.421875 
Q 22.3125 -1.421875 17.546875 -0.640625 
Q 12.796875 0.140625 7.71875 1.703125 
L 7.71875 11.625 
Q 12.109375 9.234375 16.796875 8.0625 
Q 21.484375 6.890625 26.703125 6.890625 
Q 35.15625 6.890625 40.078125 11.328125 
Q 45.015625 15.765625 45.015625 23.390625 
Q 45.015625 31 40.078125 35.4375 
Q 35.15625 39.890625 26.703125 39.890625 
Q 22.75 39.890625 18.8125 39.015625 
Q 14.890625 38.140625 10.796875 36.28125 
z
" id="DejaVuSans-53"/>
        <path d="M 31.78125 66.40625 
Q 24.171875 66.40625 20.328125 58.90625 
Q 16.5 51.421875 16.5 36.375 
Q 16.5 21.390625 20.328125 13.890625 
Q 24.171875 6.390625 31.78125 6.390625 
Q 39.453125 6.390625 43.28125 13.890625 
Q 47.125 21.390625 47.125 36.375 
Q 47.125 51.421875 43.28125 58.90625 
Q 39.453125 66.40625 31.78125 66.40625 
z
M 31.78125 74.21875 
Q 44.046875 74.21875 50.515625 64.515625 
Q 56.984375 54.828125 56.984375 36.375 
Q 56.984375 17.96875 50.515625 8.265625 
Q 44.046875 -1.421875 31.78125 -1.421875 
Q 19.53125 -1.421875 13.0625 8.265625 
Q 6.59375 17.96875 6.59375 36.375 
Q 6.59375 54.828125 13.0625 64.515625 
Q 19.53125 74.21875 31.78125 74.21875 
z
" id="DejaVuSans-48"/>
       </defs>
       <use xlink:href="#DejaVuSans-49"/>
       <use x="63.623047" xlink:href="#DejaVuSans-53"/>
       <use x="127.246094" xlink:href="#DejaVuSans-48"/>
       <use x="190.869141" xlink:href="#DejaVuSans-48"/>
      </g>
     </g>
    </g>
    <g id="ytick_2">
     <g id="line2d_5">
      <g>
       <use style="stroke:#000000;stroke-width:0.8;" x="53.328125" xlink:href="#m03e9c83667" y="233.994089"/>
      </g>
     </g>
     <g id="text_6">
      <!-- 1600 -->
      <g transform="translate(20.878125 237.793308)scale(0.1 -0.1)">
       <defs>
        <path d="M 33.015625 40.375 
Q 26.375 40.375 22.484375 35.828125 
Q 18.609375 31.296875 18.609375 23.390625 
Q 18.609375 15.53125 22.484375 10.953125 
Q 26.375 6.390625 33.015625 6.390625 
Q 39.65625 6.390625 43.53125 10.953125 
Q 47.40625 15.53125 47.40625 23.390625 
Q 47.40625 31.296875 43.53125 35.828125 
Q 39.65625 40.375 33.015625 40.375 
z
M 52.59375 71.296875 
L 52.59375 62.3125 
Q 48.875 64.0625 45.09375 64.984375 
Q 41.3125 65.921875 37.59375 65.921875 
Q 27.828125 65.921875 22.671875 59.328125 
Q 17.53125 52.734375 16.796875 39.40625 
Q 19.671875 43.65625 24.015625 45.921875 
Q 28.375 48.1875 33.59375 48.1875 
Q 44.578125 48.1875 50.953125 41.515625 
Q 57.328125 34.859375 57.328125 23.390625 
Q 57.328125 12.15625 50.6875 5.359375 
Q 44.046875 -1.421875 33.015625 -1.421875 
Q 20.359375 -1.421875 13.671875 8.265625 
Q 6.984375 17.96875 6.984375 36.375 
Q 6.984375 53.65625 15.1875 63.9375 
Q 23.390625 74.21875 37.203125 74.21875 
Q 40.921875 74.21875 44.703125 73.484375 
Q 48.484375 72.75 52.59375 71.296875 
z
" id="DejaVuSans-54"/>
       </defs>
       <use xlink:href="#DejaVuSans-49"/>
       <use x="63.623047" xlink:href="#DejaVuSans-54"/>
       <use x="127.246094" xlink:href="#DejaVuSans-48"/>
       <use x="190.869141" xlink:href="#DejaVuSans-48"/>
      </g>
     </g>
    </g>
    <g id="ytick_3">
     <g id="line2d_6">
      <g>
       <use style="stroke:#000000;stroke-width:0.8;" x="53.328125" xlink:href="#m03e9c83667" y="185.174072"/>
      </g>
     </g>
     <g id="text_7">
      <!-- 1700 -->
      <g transform="translate(20.878125 188.97329)scale(0.1 -0.1)">
       <defs>
        <path d="M 8.203125 72.90625 
L 55.078125 72.90625 
L 55.078125 68.703125 
L 28.609375 0 
L 18.3125 0 
L 43.21875 64.59375 
L 8.203125 64.59375 
z
" id="DejaVuSans-55"/>
       </defs>
       <use xlink:href="#DejaVuSans-49"/>
       <use x="63.623047" xlink:href="#DejaVuSans-55"/>
       <use x="127.246094" xlink:href="#DejaVuSans-48"/>
       <use x="190.869141" xlink:href="#DejaVuSans-48"/>
      </g>
     </g>
    </g>
    <g id="ytick_4">
     <g id="line2d_7">
      <g>
       <use style="stroke:#000000;stroke-width:0.8;" x="53.328125" xlink:href="#m03e9c83667" y="136.354054"/>
      </g>
     </g>
     <g id="text_8">
      <!-- 1800 -->
      <g transform="translate(20.878125 140.153273)scale(0.1 -0.1)">
       <defs>
        <path d="M 31.78125 34.625 
Q 24.75 34.625 20.71875 30.859375 
Q 16.703125 27.09375 16.703125 20.515625 
Q 16.703125 13.921875 20.71875 10.15625 
Q 24.75 6.390625 31.78125 6.390625 
Q 38.8125 6.390625 42.859375 10.171875 
Q 46.921875 13.96875 46.921875 20.515625 
Q 46.921875 27.09375 42.890625 30.859375 
Q 38.875 34.625 31.78125 34.625 
z
M 21.921875 38.8125 
Q 15.578125 40.375 12.03125 44.71875 
Q 8.5 49.078125 8.5 55.328125 
Q 8.5 64.0625 14.71875 69.140625 
Q 20.953125 74.21875 31.78125 74.21875 
Q 42.671875 74.21875 48.875 69.140625 
Q 55.078125 64.0625 55.078125 55.328125 
Q 55.078125 49.078125 51.53125 44.71875 
Q 48 40.375 41.703125 38.8125 
Q 48.828125 37.15625 52.796875 32.3125 
Q 56.78125 27.484375 56.78125 20.515625 
Q 56.78125 9.90625 50.3125 4.234375 
Q 43.84375 -1.421875 31.78125 -1.421875 
Q 19.734375 -1.421875 13.25 4.234375 
Q 6.78125 9.90625 6.78125 20.515625 
Q 6.78125 27.484375 10.78125 32.3125 
Q 14.796875 37.15625 21.921875 38.8125 
z
M 18.3125 54.390625 
Q 18.3125 48.734375 21.84375 45.5625 
Q 25.390625 42.390625 31.78125 42.390625 
Q 38.140625 42.390625 41.71875 45.5625 
Q 45.3125 48.734375 45.3125 54.390625 
Q 45.3125 60.0625 41.71875 63.234375 
Q 38.140625 66.40625 31.78125 66.40625 
Q 25.390625 66.40625 21.84375 63.234375 
Q 18.3125 60.0625 18.3125 54.390625 
z
" id="DejaVuSans-56"/>
       </defs>
       <use xlink:href="#DejaVuSans-49"/>
       <use x="63.623047" xlink:href="#DejaVuSans-56"/>
       <use x="127.246094" xlink:href="#DejaVuSans-48"/>
       <use x="190.869141" xlink:href="#DejaVuSans-48"/>
      </g>
     </g>
    </g>
    <g id="ytick_5">
     <g id="line2d_8">
      <g>
       <use style="stroke:#000000;stroke-width:0.8;" x="53.328125" xlink:href="#m03e9c83667" y="87.534036"/>
      </g>
     </g>
     <g id="text_9">
      <!-- 1900 -->
      <g transform="translate(20.878125 91.333255)scale(0.1 -0.1)">
       <defs>
        <path d="M 10.984375 1.515625 
L 10.984375 10.5 
Q 14.703125 8.734375 18.5 7.8125 
Q 22.3125 6.890625 25.984375 6.890625 
Q 35.75 6.890625 40.890625 13.453125 
Q 46.046875 20.015625 46.78125 33.40625 
Q 43.953125 29.203125 39.59375 26.953125 
Q 35.25 24.703125 29.984375 24.703125 
Q 19.046875 24.703125 12.671875 31.3125 
Q 6.296875 37.9375 6.296875 49.421875 
Q 6.296875 60.640625 12.9375 67.421875 
Q 19.578125 74.21875 30.609375 74.21875 
Q 43.265625 74.21875 49.921875 64.515625 
Q 56.59375 54.828125 56.59375 36.375 
Q 56.59375 19.140625 48.40625 8.859375 
Q 40.234375 -1.421875 26.421875 -1.421875 
Q 22.703125 -1.421875 18.890625 -0.6875 
Q 15.09375 0.046875 10.984375 1.515625 
z
M 30.609375 32.421875 
Q 37.25 32.421875 41.125 36.953125 
Q 45.015625 41.5 45.015625 49.421875 
Q 45.015625 57.28125 41.125 61.84375 
Q 37.25 66.40625 30.609375 66.40625 
Q 23.96875 66.40625 20.09375 61.84375 
Q 16.21875 57.28125 16.21875 49.421875 
Q 16.21875 41.5 20.09375 36.953125 
Q 23.96875 32.421875 30.609375 32.421875 
z
" id="DejaVuSans-57"/>
       </defs>
       <use xlink:href="#DejaVuSans-49"/>
       <use x="63.623047" xlink:href="#DejaVuSans-57"/>
       <use x="127.246094" xlink:href="#DejaVuSans-48"/>
       <use x="190.869141" xlink:href="#DejaVuSans-48"/>
      </g>
     </g>
    </g>
    <g id="ytick_6">
     <g id="line2d_9">
      <g>
       <use style="stroke:#000000;stroke-width:0.8;" x="53.328125" xlink:href="#m03e9c83667" y="38.714019"/>
      </g>
     </g>
     <g id="text_10">
      <!-- 2000 -->
      <g transform="translate(20.878125 42.513237)scale(0.1 -0.1)">
       <defs>
        <path d="M 19.1875 8.296875 
L 53.609375 8.296875 
L 53.609375 0 
L 7.328125 0 
L 7.328125 8.296875 
Q 12.9375 14.109375 22.625 23.890625 
Q 32.328125 33.6875 34.8125 36.53125 
Q 39.546875 41.84375 41.421875 45.53125 
Q 43.3125 49.21875 43.3125 52.78125 
Q 43.3125 58.59375 39.234375 62.25 
Q 35.15625 65.921875 28.609375 65.921875 
Q 23.96875 65.921875 18.8125 64.3125 
Q 13.671875 62.703125 7.8125 59.421875 
L 7.8125 69.390625 
Q 13.765625 71.78125 18.9375 73 
Q 24.125 74.21875 28.421875 74.21875 
Q 39.75 74.21875 46.484375 68.546875 
Q 53.21875 62.890625 53.21875 53.421875 
Q 53.21875 48.921875 51.53125 44.890625 
Q 49.859375 40.875 45.40625 35.40625 
Q 44.1875 33.984375 37.640625 27.21875 
Q 31.109375 20.453125 19.1875 8.296875 
z
" id="DejaVuSans-50"/>
       </defs>
       <use xlink:href="#DejaVuSans-50"/>
       <use x="63.623047" xlink:href="#DejaVuSans-48"/>
       <use x="127.246094" xlink:href="#DejaVuSans-48"/>
       <use x="190.869141" xlink:href="#DejaVuSans-48"/>
      </g>
     </g>
    </g>
    <g id="text_11">
     <!-- Reached region coverage -->
     <g transform="translate(14.798438 219.136625)rotate(-90)scale(0.1 -0.1)">
      <defs>
       <path d="M 44.390625 34.1875 
Q 47.5625 33.109375 50.5625 29.59375 
Q 53.5625 26.078125 56.59375 19.921875 
L 66.609375 0 
L 56 0 
L 46.6875 18.703125 
Q 43.0625 26.03125 39.671875 28.421875 
Q 36.28125 30.8125 30.421875 30.8125 
L 19.671875 30.8125 
L 19.671875 0 
L 9.8125 0 
L 9.8125 72.90625 
L 32.078125 72.90625 
Q 44.578125 72.90625 50.734375 67.671875 
Q 56.890625 62.453125 56.890625 51.90625 
Q 56.890625 45.015625 53.6875 40.46875 
Q 50.484375 35.9375 44.390625 34.1875 
z
M 19.671875 64.796875 
L 19.671875 38.921875 
L 32.078125 38.921875 
Q 39.203125 38.921875 42.84375 42.21875 
Q 46.484375 45.515625 46.484375 51.90625 
Q 46.484375 58.296875 42.84375 61.546875 
Q 39.203125 64.796875 32.078125 64.796875 
z
" id="DejaVuSans-82"/>
      </defs>
      <use xlink:href="#DejaVuSans-82"/>
      <use x="64.982422" xlink:href="#DejaVuSans-101"/>
      <use x="126.505859" xlink:href="#DejaVuSans-97"/>
      <use x="187.785156" xlink:href="#DejaVuSans-99"/>
      <use x="242.765625" xlink:href="#DejaVuSans-104"/>
      <use x="306.144531" xlink:href="#DejaVuSans-101"/>
      <use x="367.667969" xlink:href="#DejaVuSans-100"/>
      <use x="431.144531" xlink:href="#DejaVuSans-32"/>
      <use x="462.931641" xlink:href="#DejaVuSans-114"/>
      <use x="501.794922" xlink:href="#DejaVuSans-101"/>
      <use x="563.318359" xlink:href="#DejaVuSans-103"/>
      <use x="626.794922" xlink:href="#DejaVuSans-105"/>
      <use x="654.578125" xlink:href="#DejaVuSans-111"/>
      <use x="715.759766" xlink:href="#DejaVuSans-110"/>
      <use x="779.138672" xlink:href="#DejaVuSans-32"/>
      <use x="810.925781" xlink:href="#DejaVuSans-99"/>
      <use x="865.90625" xlink:href="#DejaVuSans-111"/>
      <use x="927.087891" xlink:href="#DejaVuSans-118"/>
      <use x="986.267578" xlink:href="#DejaVuSans-101"/>
      <use x="1047.791016" xlink:href="#DejaVuSans-114"/>
      <use x="1088.904297" xlink:href="#DejaVuSans-97"/>
      <use x="1150.183594" xlink:href="#DejaVuSans-103"/>
      <use x="1213.660156" xlink:href="#DejaVuSans-101"/>
     </g>
    </g>
   </g>
   <g id="line2d_10">
    <path clip-path="url(#p54ef0d4ec3)" d="M 112.848125 39.202219 
L 112.848125 36.761218 
" style="fill:none;stroke:#3f3f3f;stroke-linecap:square;stroke-width:1.5;"/>
   </g>
   <g id="line2d_11">
    <path clip-path="url(#p54ef0d4ec3)" d="M 112.848125 39.202219 
L 112.848125 38.225818 
" style="fill:none;stroke:#3f3f3f;stroke-linecap:square;stroke-width:4.5;"/>
   </g>
   <g id="line2d_12">
    <path clip-path="url(#p54ef0d4ec3)" d="M 231.888125 66.541429 
L 231.888125 64.588628 
" style="fill:none;stroke:#3f3f3f;stroke-linecap:square;stroke-width:1.5;"/>
   </g>
   <g id="line2d_13">
    <path clip-path="url(#p54ef0d4ec3)" d="M 231.888125 66.541429 
L 231.888125 65.076828 
" style="fill:none;stroke:#3f3f3f;stroke-linecap:square;stroke-width:4.5;"/>
   </g>
   <g id="line2d_14">
    <path clip-path="url(#p54ef0d4ec3)" d="M 350.928125 253.033896 
L 350.928125 251.081096 
" style="fill:none;stroke:#3f3f3f;stroke-linecap:square;stroke-width:1.5;"/>
   </g>
   <g id="line2d_15">
    <path clip-path="url(#p54ef0d4ec3)" d="M 350.928125 253.033896 
L 350.928125 251.569296 
" style="fill:none;stroke:#3f3f3f;stroke-linecap:square;stroke-width:4.5;"/>
   </g>
   <g id="patch_3">
    <path d="M 53.328125 282.814107 
L 53.328125 38.714019 
" style="fill:none;stroke:#000000;stroke-linecap:square;stroke-linejoin:miter;stroke-width:0.8;"/>
   </g>
   <g id="patch_4">
    <path d="M 112.848125 288.430125 
L 350.928125 288.430125 
" style="fill:none;stroke:#000000;stroke-linecap:square;stroke-linejoin:miter;stroke-width:0.8;"/>
   </g>
   <g id="PathCollection_1">
    <defs>
     <path d="M 0 1.5 
C 0.397805 1.5 0.77937 1.341951 1.06066 1.06066 
C 1.341951 0.77937 1.5 0.397805 1.5 0 
C 1.5 -0.397805 1.341951 -0.77937 1.06066 -1.06066 
C 0.77937 -1.341951 0.397805 -1.5 0 -1.5 
C -0.397805 -1.5 -0.77937 -1.341951 -1.06066 -1.06066 
C -1.341951 -0.77937 -1.5 -0.397805 -1.5 0 
C -1.5 0.397805 -1.341951 0.77937 -1.06066 1.06066 
C -0.77937 1.341951 -0.397805 1.5 0 1.5 
z
" id="m85ced5d8f1" style="stroke:#3f3f3f;"/>
    </defs>
    <g clip-path="url(#p54ef0d4ec3)">
     <use style="fill:#ffffff;stroke:#3f3f3f;" x="112.848125" xlink:href="#m85ced5d8f1" y="38.225818"/>
    </g>
   </g>
   <g id="PathCollection_2">
    <g clip-path="url(#p54ef0d4ec3)">
     <use style="fill:#ffffff;stroke:#3f3f3f;" x="231.888125" xlink:href="#m85ced5d8f1" y="65.076828"/>
    </g>
   </g>
   <g id="PathCollection_3">
    <g clip-path="url(#p54ef0d4ec3)">
     <use style="fill:#ffffff;stroke:#3f3f3f;" x="350.928125" xlink:href="#m85ced5d8f1" y="252.057496"/>
    </g>
   </g>
   <g id="text_12">
    <!-- libpng-1.2.56 (2h, 5 trials/fuzzer) -->
    <g transform="translate(132.981875 16.318125)scale(0.12 -0.12)">
     <defs>
      <path d="M 48.6875 27.296875 
Q 48.6875 37.203125 44.609375 42.84375 
Q 40.53125 48.484375 33.40625 48.484375 
Q 26.265625 48.484375 22.1875 42.84375 
Q 18.109375 37.203125 18.109375 27.296875 
Q 18.109375 17.390625 22.1875 11.75 
Q 26.265625 6.109375 33.40625 6.109375 
Q 40.53125 6.109375 44.609375 11.75 
Q 48.6875 17.390625 48.6875 27.296875 
z
M 18.109375 46.390625 
Q 20.953125 51.265625 25.265625 53.625 
Q 29.59375 56 35.59375 56 
Q 45.5625 56 51.78125 48.09375 
Q 58.015625 40.1875 58.015625 27.296875 
Q 58.015625 14.40625 51.78125 6.484375 
Q 45.5625 -1.421875 35.59375 -1.421875 
Q 29.59375 -1.421875 25.265625 0.953125 
Q 20.953125 3.328125 18.109375 8.203125 
L 18.109375 0 
L 9.078125 0 
L 9.078125 75.984375 
L 18.109375 75.984375 
z
" id="DejaVuSans-98"/>
      <path d="M 4.890625 31.390625 
L 31.203125 31.390625 
L 31.203125 23.390625 
L 4.890625 23.390625 
z
" id="DejaVuSans-45"/>
      <path d="M 10.6875 12.40625 
L 21 12.40625 
L 21 0 
L 10.6875 0 
z
" id="DejaVuSans-46"/>
      <path d="M 11.71875 12.40625 
L 22.015625 12.40625 
L 22.015625 4 
L 14.015625 -11.625 
L 7.71875 -11.625 
L 11.71875 4 
z
" id="DejaVuSans-44"/>
      <path d="M 25.390625 72.90625 
L 33.6875 72.90625 
L 8.296875 -9.28125 
L 0 -9.28125 
z
" id="DejaVuSans-47"/>
     </defs>
     <use xlink:href="#DejaVuSans-108"/>
     <use x="27.783203" xlink:href="#DejaVuSans-105"/>
     <use x="55.566406" xlink:href="#DejaVuSans-98"/>
     <use x="119.042969" xlink:href="#DejaVuSans-112"/>
     <use x="182.519531" xlink:href="#DejaVuSans-110"/>
     <use x="245.898438" xlink:href="#DejaVuSans-103"/>
     <use x="309.375" xlink:href="#DejaVuSans-45"/>
     <use x="345.458984" xlink:href="#DejaVuSans-49"/>
     <use x="409.082031" xlink:href="#DejaVuSans-46"/>
     <use x="440.869141" xlink:href="#DejaVuSans-50"/>
     <use x="504.492188" xlink:href="#DejaVuSans-46"/>
     <use x="536.279297" xlink:href="#DejaVuSans-53"/>
     <use x="599.902344" xlink:href="#DejaVuSans-54"/>
     <use x="663.525391" xlink:href="#DejaVuSans-32"/>
     <use x="695.3125" xlink:href="#DejaVuSans-40"/>
     <use x="734.326172" xlink:href="#DejaVuSans-50"/>
     <use x="797.949219" xlink:href="#DejaVuSans-104"/>
     <use x="861.328125" xlink:href="#DejaVuSans-44"/>
     <use x="893.115234" xlink:href="#DejaVuSans-32"/>
     <use x="924.902344" xlink:href="#DejaVuSans-53"/>
     <use x="988.525391" xlink:href="#DejaVuSans-32"/>
     <use x="1020.3125" xlink:href="#DejaVuSans-116"/>
     <use x="1059.521484" xlink:href="#DejaVuSans-114"/>
     <use x="1100.634766" xlink:href="#DejaVuSans-105"/>
     <use x="1128.417969" xlink:href="#DejaVuSans-97"/>
     <use x="1189.697266" xlink:href="#DejaVuSans-108"/>
     <use x="1217.480469" xlink:href="#DejaVuSans-115"/>
     <use x="1269.580078" xlink:href="#DejaVuSans-47"/>
     <use x="1303.271484" xlink:href="#DejaVuSans-102"/>
     <use x="1338.476562" xlink:href="#DejaVuSans-117"/>
     <use x="1401.855469" xlink:href="#DejaVuSans-122"/>
     <use x="1454.345703" xlink:href="#DejaVuSans-122"/>
     <use x="1506.835938" xlink:href="#DejaVuSans-101"/>
     <use x="1568.359375" xlink:href="#DejaVuSans-114"/>
     <use x="1609.472656" xlink:href="#DejaVuSans-41"/>
    </g>
   </g>
  </g>
 </g>
 <defs>
  <clipPath id="p54ef0d4ec3">
   <rect height="266.112" width="357.12" x="53.328125" y="22.318125"/>
  </clipPath>
 </defs>
</svg>
