<?xml version="1.0" encoding="utf-8" standalone="no"?>
<!DOCTYPE svg PUBLIC "-//W3C//DTD SVG 1.1//EN"
  "http://www.w3.org/Graphics/SVG/1.1/DTD/svg11.dtd">
<!-- Created with matplotlib (https://matplotlib.org/) -->
<svg height="364.007178pt" version="1.1" viewBox="0 0 424.010625 364.007178" width="424.010625pt" xmlns="http://www.w3.org/2000/svg" xmlns:xlink="http://www.w3.org/1999/xlink">
 <metadata>
  <rdf:RDF xmlns:cc="http://creativecommons.org/ns#" xmlns:dc="http://purl.org/dc/elements/1.1/" xmlns:rdf="http://www.w3.org/1999/02/22-rdf-syntax-ns#">
   <cc:Work>
    <dc:type rdf:resource="http://purl.org/dc/dcmitype/StillImage"/>
    <dc:date>2020-11-08T21:44:07.204753</dc:date>
    <dc:format>image/svg+xml</dc:format>
    <dc:creator>
     <cc:Agent>
      <dc:title>Matplotlib v3.3.2, https://matplotlib.org/</dc:title>
     </cc:Agent>
    </dc:creator>
   </cc:Work>
  </rdf:RDF>
 </metadata>
 <defs>
  <style type="text/css">*{stroke-linecap:butt;stroke-linejoin:round;}</style>
 </defs>
 <g id="figure_1">
  <g id="patch_1">
   <path d="M 0 364.007178 
L 424.010625 364.007178 
L 424.010625 0 
L 0 0 
z
" style="fill:#ffffff;"/>
  </g>
  <g id="axes_1">
   <g id="patch_2">
    <path d="M 59.690625 288.430125 
L 416.810625 288.430125 
L 416.810625 22.318125 
L 59.690625 22.318125 
z
" style="fill:#ffffff;"/>
   </g>
   <g id="PolyCollection_1">
    <defs>
     <path d="M 119.264724 -87.673053 
L 119.156526 -87.673053 
L 119.148087 -90.116689 
L 119.138724 -92.560326 
L 119.128406 -95.003962 
L 119.117117 -97.447598 
L 119.104852 -99.891235 
L 119.091625 -102.334871 
L 119.077466 -104.778507 
L 119.062424 -107.222144 
L 119.04657 -109.66578 
L 119.029994 -112.109417 
L 119.012807 -114.553053 
L 118.995139 -116.996689 
L 118.977138 -119.440326 
L 118.958971 -121.883962 
L 118.940813 -124.327598 
L 118.922851 -126.771235 
L 118.905278 -129.214871 
L 118.888284 -131.658507 
L 118.872056 -134.102144 
L 118.856768 -136.54578 
L 118.84258 -138.989417 
L 118.829625 -141.433053 
L 118.81801 -143.876689 
L 118.80781 -146.320326 
L 118.799058 -148.763962 
L 118.791747 -151.207598 
L 118.785824 -153.651235 
L 118.78119 -156.094871 
L 118.777697 -158.538507 
L 118.775151 -160.982144 
L 118.773311 -163.42578 
L 118.771895 -165.869417 
L 118.770582 -168.313053 
L 118.76902 -170.756689 
L 118.76683 -173.200326 
L 118.763617 -175.643962 
L 118.758975 -178.087598 
L 118.752499 -180.531235 
L 118.743795 -182.974871 
L 118.732485 -185.418507 
L 118.718226 -187.862144 
L 118.70071 -190.30578 
L 118.67968 -192.749417 
L 118.654937 -195.193053 
L 118.626349 -197.636689 
L 118.593856 -200.080326 
L 118.557476 -202.523962 
L 118.51731 -204.967598 
L 118.473548 -207.411235 
L 118.426461 -209.854871 
L 118.376411 -212.298507 
L 118.323838 -214.742144 
L 118.269264 -217.18578 
L 118.21328 -219.629417 
L 118.156537 -222.073053 
L 118.099743 -224.516689 
L 118.043639 -226.960326 
L 117.988998 -229.403962 
L 117.936599 -231.847598 
L 117.88722 -234.291235 
L 117.841616 -236.734871 
L 117.800508 -239.178507 
L 117.764564 -241.622144 
L 117.734384 -244.06578 
L 117.710491 -246.509417 
L 117.693314 -248.953053 
L 117.68318 -251.396689 
L 117.680311 -253.840326 
L 117.68481 -256.283962 
L 117.696669 -258.727598 
L 117.715763 -261.171235 
L 117.741855 -263.614871 
L 117.774604 -266.058507 
L 117.813573 -268.502144 
L 117.858238 -270.94578 
L 117.908004 -273.389417 
L 117.962215 -275.833053 
L 118.020174 -278.276689 
L 118.081154 -280.720326 
L 118.144416 -283.163962 
L 118.209225 -285.607598 
L 118.274863 -288.051235 
L 118.34064 -290.494871 
L 118.405912 -292.938507 
L 118.470084 -295.382144 
L 118.532622 -297.82578 
L 118.593058 -300.269417 
L 118.650994 -302.713053 
L 118.706101 -305.156689 
L 118.758124 -307.600326 
L 118.806875 -310.043962 
L 118.852236 -312.487598 
L 118.894147 -314.931235 
L 118.932605 -317.374871 
L 118.967657 -319.818507 
L 118.999393 -322.262144 
L 119.02794 -324.70578 
L 119.053452 -327.149417 
L 119.076107 -329.593053 
L 119.345143 -329.593053 
L 119.345143 -329.593053 
L 119.367798 -327.149417 
L 119.39331 -324.70578 
L 119.421857 -322.262144 
L 119.453593 -319.818507 
L 119.488645 -317.374871 
L 119.527103 -314.931235 
L 119.569014 -312.487598 
L 119.614375 -310.043962 
L 119.663126 -307.600326 
L 119.715149 -305.156689 
L 119.770256 -302.713053 
L 119.828192 -300.269417 
L 119.888628 -297.82578 
L 119.951166 -295.382144 
L 120.015338 -292.938507 
L 120.08061 -290.494871 
L 120.146387 -288.051235 
L 120.212025 -285.607598 
L 120.276834 -283.163962 
L 120.340096 -280.720326 
L 120.401076 -278.276689 
L 120.459035 -275.833053 
L 120.513246 -273.389417 
L 120.563012 -270.94578 
L 120.607677 -268.502144 
L 120.646646 -266.058507 
L 120.679395 -263.614871 
L 120.705487 -261.171235 
L 120.724581 -258.727598 
L 120.73644 -256.283962 
L 120.740939 -253.840326 
L 120.73807 -251.396689 
L 120.727936 -248.953053 
L 120.710759 -246.509417 
L 120.686866 -244.06578 
L 120.656686 -241.622144 
L 120.620742 -239.178507 
L 120.579634 -236.734871 
L 120.53403 -234.291235 
L 120.484651 -231.847598 
L 120.432252 -229.403962 
L 120.377611 -226.960326 
L 120.321507 -224.516689 
L 120.264713 -222.073053 
L 120.20797 -219.629417 
L 120.151986 -217.18578 
L 120.097412 -214.742144 
L 120.044839 -212.298507 
L 119.994789 -209.854871 
L 119.947702 -207.411235 
L 119.90394 -204.967598 
L 119.863774 -202.523962 
L 119.827394 -200.080326 
L 119.794901 -197.636689 
L 119.766313 -195.193053 
L 119.74157 -192.749417 
L 119.72054 -190.30578 
L 119.703024 -187.862144 
L 119.688765 -185.418507 
L 119.677455 -182.974871 
L 119.668751 -180.531235 
L 119.662275 -178.087598 
L 119.657633 -175.643962 
L 119.65442 -173.200326 
L 119.65223 -170.756689 
L 119.650668 -168.313053 
L 119.649355 -165.869417 
L 119.647939 -163.42578 
L 119.646099 -160.982144 
L 119.643553 -158.538507 
L 119.64006 -156.094871 
L 119.635426 -153.651235 
L 119.629503 -151.207598 
L 119.622192 -148.763962 
L 119.61344 -146.320326 
L 119.60324 -143.876689 
L 119.591625 -141.433053 
L 119.57867 -138.989417 
L 119.564482 -136.54578 
L 119.549194 -134.102144 
L 119.532966 -131.658507 
L 119.515972 -129.214871 
L 119.498399 -126.771235 
L 119.480437 -124.327598 
L 119.462279 -121.883962 
L 119.444112 -119.440326 
L 119.426111 -116.996689 
L 119.408443 -114.553053 
L 119.391256 -112.109417 
L 119.37468 -109.66578 
L 119.358826 -107.222144 
L 119.343784 -104.778507 
L 119.329625 -102.334871 
L 119.316398 -99.891235 
L 119.304133 -97.447598 
L 119.292844 -95.003962 
L 119.282526 -92.560326 
L 119.273163 -90.116689 
L 119.264724 -87.673053 
z
" id="mbe052d629a" style="stroke:#3f3f3f;stroke-width:1.5;"/>
    </defs>
    <g clip-path="url(#p4227e86ee7)">
     <use style="fill:#3274a1;stroke:#3f3f3f;stroke-width:1.5;" x="0" xlink:href="#mbe052d629a" y="364.007178"/>
    </g>
   </g>
   <g id="PolyCollection_2">
    <defs>
     <path d="M 239.297654 -132.155928 
L 237.203596 -132.155928 
L 237.03166 -132.28845 
L 236.839874 -132.420972 
L 236.627541 -132.553493 
L 236.394234 -132.686015 
L 236.139846 -132.818537 
L 235.86463 -132.951059 
L 235.569236 -133.083581 
L 235.254734 -133.216103 
L 234.92263 -133.348624 
L 234.574865 -133.481146 
L 234.2138 -133.613668 
L 233.842179 -133.74619 
L 233.463074 -133.878712 
L 233.079822 -134.011234 
L 232.695927 -134.143755 
L 232.31496 -134.276277 
L 231.940441 -134.408799 
L 231.575705 -134.541321 
L 231.223777 -134.673843 
L 230.88723 -134.806365 
L 230.568059 -134.938886 
L 230.267563 -135.071408 
L 229.98624 -135.20393 
L 229.723709 -135.336452 
L 229.478656 -135.468974 
L 229.248813 -135.601496 
L 229.030971 -135.734017 
L 228.821024 -135.866539 
L 228.614063 -135.999061 
L 228.404489 -136.131583 
L 228.186175 -136.264105 
L 227.952645 -136.396627 
L 227.697285 -136.529148 
L 227.413565 -136.66167 
L 227.095278 -136.794192 
L 226.73677 -136.926714 
L 226.333172 -137.059236 
L 225.880614 -137.191758 
L 225.376408 -137.324279 
L 224.819212 -137.456801 
L 224.20914 -137.589323 
L 223.547847 -137.721845 
L 222.838555 -137.854367 
L 222.086033 -137.986889 
L 221.296533 -138.11941 
L 220.47768 -138.251932 
L 219.638316 -138.384454 
L 218.788308 -138.516976 
L 217.938331 -138.649498 
L 217.099621 -138.78202 
L 216.283716 -138.914541 
L 215.502195 -139.047063 
L 214.766413 -139.179585 
L 214.087253 -139.312107 
L 213.474889 -139.444629 
L 212.938579 -139.577151 
L 212.48649 -139.709672 
L 212.125545 -139.842194 
L 211.861316 -139.974716 
L 211.697952 -140.107238 
L 211.638138 -140.23976 
L 211.683096 -140.372282 
L 211.832607 -140.504803 
L 212.085076 -140.637325 
L 212.437608 -140.769847 
L 212.886111 -140.902369 
L 213.425416 -141.034891 
L 214.049403 -141.167413 
L 214.751141 -141.299934 
L 215.523028 -141.432456 
L 216.356932 -141.564978 
L 217.244338 -141.6975 
L 218.176478 -141.830022 
L 219.144466 -141.962544 
L 220.139428 -142.095065 
L 221.152613 -142.227587 
L 222.175507 -142.360109 
L 223.199931 -142.492631 
L 224.218132 -142.625153 
L 225.222863 -142.757675 
L 226.207454 -142.890196 
L 227.165863 -143.022718 
L 228.092728 -143.15524 
L 228.983397 -143.287762 
L 229.833946 -143.420284 
L 230.641191 -143.552806 
L 231.40268 -143.685327 
L 232.116678 -143.817849 
L 232.782135 -143.950371 
L 233.398653 -144.082893 
L 233.966433 -144.215415 
L 234.486223 -144.347937 
L 234.959254 -144.480458 
L 235.387177 -144.61298 
L 235.771994 -144.745502 
L 236.11599 -144.878024 
L 236.421662 -145.010546 
L 236.691661 -145.143068 
L 236.928725 -145.275589 
L 239.572525 -145.275589 
L 239.572525 -145.275589 
L 239.809589 -145.143068 
L 240.079588 -145.010546 
L 240.38526 -144.878024 
L 240.729256 -144.745502 
L 241.114073 -144.61298 
L 241.541996 -144.480458 
L 242.015027 -144.347937 
L 242.534817 -144.215415 
L 243.102597 -144.082893 
L 243.719115 -143.950371 
L 244.384572 -143.817849 
L 245.09857 -143.685327 
L 245.860059 -143.552806 
L 246.667304 -143.420284 
L 247.517853 -143.287762 
L 248.408522 -143.15524 
L 249.335387 -143.022718 
L 250.293796 -142.890196 
L 251.278387 -142.757675 
L 252.283118 -142.625153 
L 253.301319 -142.492631 
L 254.325743 -142.360109 
L 255.348637 -142.227587 
L 256.361822 -142.095065 
L 257.356784 -141.962544 
L 258.324772 -141.830022 
L 259.256912 -141.6975 
L 260.144318 -141.564978 
L 260.978222 -141.432456 
L 261.750109 -141.299934 
L 262.451847 -141.167413 
L 263.075834 -141.034891 
L 263.615139 -140.902369 
L 264.063642 -140.769847 
L 264.416174 -140.637325 
L 264.668643 -140.504803 
L 264.818154 -140.372282 
L 264.863112 -140.23976 
L 264.803298 -140.107238 
L 264.639934 -139.974716 
L 264.375705 -139.842194 
L 264.01476 -139.709672 
L 263.562671 -139.577151 
L 263.026361 -139.444629 
L 262.413997 -139.312107 
L 261.734837 -139.179585 
L 260.999055 -139.047063 
L 260.217534 -138.914541 
L 259.401629 -138.78202 
L 258.562919 -138.649498 
L 257.712942 -138.516976 
L 256.862934 -138.384454 
L 256.02357 -138.251932 
L 255.204717 -138.11941 
L 254.415217 -137.986889 
L 253.662695 -137.854367 
L 252.953403 -137.721845 
L 252.29211 -137.589323 
L 251.682038 -137.456801 
L 251.124842 -137.324279 
L 250.620636 -137.191758 
L 250.168078 -137.059236 
L 249.76448 -136.926714 
L 249.405972 -136.794192 
L 249.087685 -136.66167 
L 248.803965 -136.529148 
L 248.548605 -136.396627 
L 248.315075 -136.264105 
L 248.096761 -136.131583 
L 247.887187 -135.999061 
L 247.680226 -135.866539 
L 247.470279 -135.734017 
L 247.252437 -135.601496 
L 247.022594 -135.468974 
L 246.777541 -135.336452 
L 246.51501 -135.20393 
L 246.233687 -135.071408 
L 245.933191 -134.938886 
L 245.61402 -134.806365 
L 245.277473 -134.673843 
L 244.925545 -134.541321 
L 244.560809 -134.408799 
L 244.18629 -134.276277 
L 243.805323 -134.143755 
L 243.421428 -134.011234 
L 243.038176 -133.878712 
L 242.659071 -133.74619 
L 242.28745 -133.613668 
L 241.926385 -133.481146 
L 241.57862 -133.348624 
L 241.246516 -133.216103 
L 240.932014 -133.083581 
L 240.63662 -132.951059 
L 240.361404 -132.818537 
L 240.107016 -132.686015 
L 239.873709 -132.553493 
L 239.661376 -132.420972 
L 239.46959 -132.28845 
L 239.297654 -132.155928 
z
" id="mcb2ce3bad2" style="stroke:#3f3f3f;stroke-width:1.5;"/>
    </defs>
    <g clip-path="url(#p4227e86ee7)">
     <use style="fill:#c03d3e;stroke:#3f3f3f;stroke-width:1.5;" x="0" xlink:href="#mcb2ce3bad2" y="364.007178"/>
    </g>
   </g>
   <g id="PolyCollection_3">
    <defs>
     <path d="M 358.987863 -109.432107 
L 355.593387 -109.432107 
L 355.320611 -109.512237 
L 355.017108 -109.592367 
L 354.681883 -109.672497 
L 354.314374 -109.752627 
L 353.91452 -109.832757 
L 353.482838 -109.912887 
L 353.020475 -109.993017 
L 352.529262 -110.073148 
L 352.01174 -110.153278 
L 351.471177 -110.233408 
L 350.911551 -110.313538 
L 350.337518 -110.393668 
L 349.754346 -110.473798 
L 349.167827 -110.553928 
L 348.584154 -110.634058 
L 348.009782 -110.714188 
L 347.451254 -110.794318 
L 346.915019 -110.874448 
L 346.407222 -110.954578 
L 345.933498 -111.034708 
L 345.498752 -111.114838 
L 345.106952 -111.194969 
L 344.760925 -111.275099 
L 344.462183 -111.355229 
L 344.210764 -111.435359 
L 344.005116 -111.515489 
L 343.842015 -111.595619 
L 343.716529 -111.675749 
L 343.622028 -111.755879 
L 343.550248 -111.836009 
L 343.4914 -111.916139 
L 343.434339 -111.996269 
L 343.36677 -112.076399 
L 343.275506 -112.156529 
L 343.146769 -112.236659 
L 342.966512 -112.31679 
L 342.720784 -112.39692 
L 342.3961 -112.47705 
L 341.979826 -112.55718 
L 341.460565 -112.63731 
L 340.828529 -112.71744 
L 340.075896 -112.79757 
L 339.197127 -112.8777 
L 338.189258 -112.95783 
L 337.052126 -113.03796 
L 335.788548 -113.11809 
L 334.404433 -113.19822 
L 332.908815 -113.27835 
L 331.313822 -113.35848 
L 329.634554 -113.438611 
L 327.88889 -113.518741 
L 326.09721 -113.598871 
L 324.282052 -113.679001 
L 322.46769 -113.759131 
L 320.679664 -113.839261 
L 318.944255 -113.919391 
L 317.287932 -113.999521 
L 315.736769 -114.079651 
L 314.315873 -114.159781 
L 313.048809 -114.239911 
L 311.957066 -114.320041 
L 311.059565 -114.400171 
L 310.372224 -114.480301 
L 309.907603 -114.560432 
L 309.674625 -114.640562 
L 309.678401 -114.720692 
L 309.920143 -114.800822 
L 310.397177 -114.880952 
L 311.103063 -114.961082 
L 312.027791 -115.041212 
L 313.158082 -115.121342 
L 314.477744 -115.201472 
L 315.9681 -115.281602 
L 317.608461 -115.361732 
L 319.376627 -115.441862 
L 321.249405 -115.521992 
L 323.203123 -115.602122 
L 325.214134 -115.682252 
L 327.259286 -115.762383 
L 329.316349 -115.842513 
L 331.364395 -115.922643 
L 333.384119 -116.002773 
L 335.358094 -116.082903 
L 337.270959 -116.163033 
L 339.10955 -116.243163 
L 340.862954 -116.323293 
L 342.522517 -116.403423 
L 344.081785 -116.483553 
L 345.536408 -116.563683 
L 346.884001 -116.643813 
L 348.12397 -116.723943 
L 349.257322 -116.804073 
L 350.286451 -116.884204 
L 351.214927 -116.964334 
L 352.04728 -117.044464 
L 352.788782 -117.124594 
L 353.445256 -117.204724 
L 354.022884 -117.284854 
L 354.528045 -117.364984 
L 360.053205 -117.364984 
L 360.053205 -117.364984 
L 360.558366 -117.284854 
L 361.135994 -117.204724 
L 361.792468 -117.124594 
L 362.53397 -117.044464 
L 363.366323 -116.964334 
L 364.294799 -116.884204 
L 365.323928 -116.804073 
L 366.45728 -116.723943 
L 367.697249 -116.643813 
L 369.044842 -116.563683 
L 370.499465 -116.483553 
L 372.058733 -116.403423 
L 373.718296 -116.323293 
L 375.4717 -116.243163 
L 377.310291 -116.163033 
L 379.223156 -116.082903 
L 381.197131 -116.002773 
L 383.216855 -115.922643 
L 385.264901 -115.842513 
L 387.321964 -115.762383 
L 389.367116 -115.682252 
L 391.378127 -115.602122 
L 393.331845 -115.521992 
L 395.204623 -115.441862 
L 396.972789 -115.361732 
L 398.61315 -115.281602 
L 400.103506 -115.201472 
L 401.423168 -115.121342 
L 402.553459 -115.041212 
L 403.478187 -114.961082 
L 404.184073 -114.880952 
L 404.661107 -114.800822 
L 404.902849 -114.720692 
L 404.906625 -114.640562 
L 404.673647 -114.560432 
L 404.209026 -114.480301 
L 403.521685 -114.400171 
L 402.624184 -114.320041 
L 401.532441 -114.239911 
L 400.265377 -114.159781 
L 398.844481 -114.079651 
L 397.293318 -113.999521 
L 395.636995 -113.919391 
L 393.901586 -113.839261 
L 392.11356 -113.759131 
L 390.299198 -113.679001 
L 388.48404 -113.598871 
L 386.69236 -113.518741 
L 384.946696 -113.438611 
L 383.267428 -113.35848 
L 381.672435 -113.27835 
L 380.176817 -113.19822 
L 378.792702 -113.11809 
L 377.529124 -113.03796 
L 376.391992 -112.95783 
L 375.384123 -112.8777 
L 374.505354 -112.79757 
L 373.752721 -112.71744 
L 373.120685 -112.63731 
L 372.601424 -112.55718 
L 372.18515 -112.47705 
L 371.860466 -112.39692 
L 371.614738 -112.31679 
L 371.434481 -112.236659 
L 371.305744 -112.156529 
L 371.21448 -112.076399 
L 371.146911 -111.996269 
L 371.08985 -111.916139 
L 371.031002 -111.836009 
L 370.959222 -111.755879 
L 370.864721 -111.675749 
L 370.739235 -111.595619 
L 370.576134 -111.515489 
L 370.370486 -111.435359 
L 370.119067 -111.355229 
L 369.820325 -111.275099 
L 369.474298 -111.194969 
L 369.082498 -111.114838 
L 368.647752 -111.034708 
L 368.174028 -110.954578 
L 367.666231 -110.874448 
L 367.129996 -110.794318 
L 366.571468 -110.714188 
L 365.997096 -110.634058 
L 365.413423 -110.553928 
L 364.826904 -110.473798 
L 364.243732 -110.393668 
L 363.669699 -110.313538 
L 363.110073 -110.233408 
L 362.56951 -110.153278 
L 362.051988 -110.073148 
L 361.560775 -109.993017 
L 361.098412 -109.912887 
L 360.66673 -109.832757 
L 360.266876 -109.752627 
L 359.899367 -109.672497 
L 359.564142 -109.592367 
L 359.260639 -109.512237 
L 358.987863 -109.432107 
z
" id="m86f3c67a6d" style="stroke:#3f3f3f;stroke-width:1.5;"/>
    </defs>
    <g clip-path="url(#p4227e86ee7)">
     <use style="fill:#9fd495;stroke:#3f3f3f;stroke-width:1.5;" x="0" xlink:href="#m86f3c67a6d" y="364.007178"/>
    </g>
   </g>
   <g id="matplotlib.axis_1">
    <g id="xtick_1">
     <g id="line2d_1">
      <defs>
       <path d="M 0 0 
L 0 3.5 
" id="m4b91f87e38" style="stroke:#000000;stroke-width:0.8;"/>
      </defs>
      <g>
       <use style="stroke:#000000;stroke-width:0.8;" x="119.210625" xlink:href="#m4b91f87e38" y="288.430125"/>
      </g>
     </g>
     <g id="text_1">
      <!-- aflplusplus -->
      <g transform="translate(71.601618 328.897284)rotate(-30)scale(0.1 -0.1)">
       <defs>
        <path d="M 34.28125 27.484375 
Q 23.390625 27.484375 19.1875 25 
Q 14.984375 22.515625 14.984375 16.5 
Q 14.984375 11.71875 18.140625 8.90625 
Q 21.296875 6.109375 26.703125 6.109375 
Q 34.1875 6.109375 38.703125 11.40625 
Q 43.21875 16.703125 43.21875 25.484375 
L 43.21875 27.484375 
z
M 52.203125 31.203125 
L 52.203125 0 
L 43.21875 0 
L 43.21875 8.296875 
Q 40.140625 3.328125 35.546875 0.953125 
Q 30.953125 -1.421875 24.3125 -1.421875 
Q 15.921875 -1.421875 10.953125 3.296875 
Q 6 8.015625 6 15.921875 
Q 6 25.140625 12.171875 29.828125 
Q 18.359375 34.515625 30.609375 34.515625 
L 43.21875 34.515625 
L 43.21875 35.40625 
Q 43.21875 41.609375 39.140625 45 
Q 35.0625 48.390625 27.6875 48.390625 
Q 23 48.390625 18.546875 47.265625 
Q 14.109375 46.140625 10.015625 43.890625 
L 10.015625 52.203125 
Q 14.9375 54.109375 19.578125 55.046875 
Q 24.21875 56 28.609375 56 
Q 40.484375 56 46.34375 49.84375 
Q 52.203125 43.703125 52.203125 31.203125 
z
" id="DejaVuSans-97"/>
        <path d="M 37.109375 75.984375 
L 37.109375 68.5 
L 28.515625 68.5 
Q 23.6875 68.5 21.796875 66.546875 
Q 19.921875 64.59375 19.921875 59.515625 
L 19.921875 54.6875 
L 34.71875 54.6875 
L 34.71875 47.703125 
L 19.921875 47.703125 
L 19.921875 0 
L 10.890625 0 
L 10.890625 47.703125 
L 2.296875 47.703125 
L 2.296875 54.6875 
L 10.890625 54.6875 
L 10.890625 58.5 
Q 10.890625 67.625 15.140625 71.796875 
Q 19.390625 75.984375 28.609375 75.984375 
z
" id="DejaVuSans-102"/>
        <path d="M 9.421875 75.984375 
L 18.40625 75.984375 
L 18.40625 0 
L 9.421875 0 
z
" id="DejaVuSans-108"/>
        <path d="M 18.109375 8.203125 
L 18.109375 -20.796875 
L 9.078125 -20.796875 
L 9.078125 54.6875 
L 18.109375 54.6875 
L 18.109375 46.390625 
Q 20.953125 51.265625 25.265625 53.625 
Q 29.59375 56 35.59375 56 
Q 45.5625 56 51.78125 48.09375 
Q 58.015625 40.1875 58.015625 27.296875 
Q 58.015625 14.40625 51.78125 6.484375 
Q 45.5625 -1.421875 35.59375 -1.421875 
Q 29.59375 -1.421875 25.265625 0.953125 
Q 20.953125 3.328125 18.109375 8.203125 
z
M 48.6875 27.296875 
Q 48.6875 37.203125 44.609375 42.84375 
Q 40.53125 48.484375 33.40625 48.484375 
Q 26.265625 48.484375 22.1875 42.84375 
Q 18.109375 37.203125 18.109375 27.296875 
Q 18.109375 17.390625 22.1875 11.75 
Q 26.265625 6.109375 33.40625 6.109375 
Q 40.53125 6.109375 44.609375 11.75 
Q 48.6875 17.390625 48.6875 27.296875 
z
" id="DejaVuSans-112"/>
        <path d="M 8.5 21.578125 
L 8.5 54.6875 
L 17.484375 54.6875 
L 17.484375 21.921875 
Q 17.484375 14.15625 20.5 10.265625 
Q 23.53125 6.390625 29.59375 6.390625 
Q 36.859375 6.390625 41.078125 11.03125 
Q 45.3125 15.671875 45.3125 23.6875 
L 45.3125 54.6875 
L 54.296875 54.6875 
L 54.296875 0 
L 45.3125 0 
L 45.3125 8.40625 
Q 42.046875 3.421875 37.71875 1 
Q 33.40625 -1.421875 27.6875 -1.421875 
Q 18.265625 -1.421875 13.375 4.4375 
Q 8.5 10.296875 8.5 21.578125 
z
M 31.109375 56 
z
" id="DejaVuSans-117"/>
        <path d="M 44.28125 53.078125 
L 44.28125 44.578125 
Q 40.484375 46.53125 36.375 47.5 
Q 32.28125 48.484375 27.875 48.484375 
Q 21.1875 48.484375 17.84375 46.4375 
Q 14.5 44.390625 14.5 40.28125 
Q 14.5 37.15625 16.890625 35.375 
Q 19.28125 33.59375 26.515625 31.984375 
L 29.59375 31.296875 
Q 39.15625 29.25 43.1875 25.515625 
Q 47.21875 21.78125 47.21875 15.09375 
Q 47.21875 7.46875 41.1875 3.015625 
Q 35.15625 -1.421875 24.609375 -1.421875 
Q 20.21875 -1.421875 15.453125 -0.5625 
Q 10.6875 0.296875 5.421875 2 
L 5.421875 11.28125 
Q 10.40625 8.6875 15.234375 7.390625 
Q 20.0625 6.109375 24.8125 6.109375 
Q 31.15625 6.109375 34.5625 8.28125 
Q 37.984375 10.453125 37.984375 14.40625 
Q 37.984375 18.0625 35.515625 20.015625 
Q 33.0625 21.96875 24.703125 23.78125 
L 21.578125 24.515625 
Q 13.234375 26.265625 9.515625 29.90625 
Q 5.8125 33.546875 5.8125 39.890625 
Q 5.8125 47.609375 11.28125 51.796875 
Q 16.75 56 26.8125 56 
Q 31.78125 56 36.171875 55.265625 
Q 40.578125 54.546875 44.28125 53.078125 
z
" id="DejaVuSans-115"/>
       </defs>
       <use xlink:href="#DejaVuSans-97"/>
       <use x="61.279297" xlink:href="#DejaVuSans-102"/>
       <use x="96.484375" xlink:href="#DejaVuSans-108"/>
       <use x="124.267578" xlink:href="#DejaVuSans-112"/>
       <use x="187.744141" xlink:href="#DejaVuSans-108"/>
       <use x="215.527344" xlink:href="#DejaVuSans-117"/>
       <use x="278.90625" xlink:href="#DejaVuSans-115"/>
       <use x="331.005859" xlink:href="#DejaVuSans-112"/>
       <use x="394.482422" xlink:href="#DejaVuSans-108"/>
       <use x="422.265625" xlink:href="#DejaVuSans-117"/>
       <use x="485.644531" xlink:href="#DejaVuSans-115"/>
      </g>
     </g>
    </g>
    <g id="xtick_2">
     <g id="line2d_2">
      <g>
       <use style="stroke:#000000;stroke-width:0.8;" x="238.250625" xlink:href="#m4b91f87e38" y="288.430125"/>
      </g>
     </g>
     <g id="text_2">
      <!-- entropic -->
      <g transform="translate(201.668557 322.530877)rotate(-30)scale(0.1 -0.1)">
       <defs>
        <path d="M 56.203125 29.59375 
L 56.203125 25.203125 
L 14.890625 25.203125 
Q 15.484375 15.921875 20.484375 11.0625 
Q 25.484375 6.203125 34.421875 6.203125 
Q 39.59375 6.203125 44.453125 7.46875 
Q 49.3125 8.734375 54.109375 11.28125 
L 54.109375 2.78125 
Q 49.265625 0.734375 44.1875 -0.34375 
Q 39.109375 -1.421875 33.890625 -1.421875 
Q 20.796875 -1.421875 13.15625 6.1875 
Q 5.515625 13.8125 5.515625 26.8125 
Q 5.515625 40.234375 12.765625 48.109375 
Q 20.015625 56 32.328125 56 
Q 43.359375 56 49.78125 48.890625 
Q 56.203125 41.796875 56.203125 29.59375 
z
M 47.21875 32.234375 
Q 47.125 39.59375 43.09375 43.984375 
Q 39.0625 48.390625 32.421875 48.390625 
Q 24.90625 48.390625 20.390625 44.140625 
Q 15.875 39.890625 15.1875 32.171875 
z
" id="DejaVuSans-101"/>
        <path d="M 54.890625 33.015625 
L 54.890625 0 
L 45.90625 0 
L 45.90625 32.71875 
Q 45.90625 40.484375 42.875 44.328125 
Q 39.84375 48.1875 33.796875 48.1875 
Q 26.515625 48.1875 22.3125 43.546875 
Q 18.109375 38.921875 18.109375 30.90625 
L 18.109375 0 
L 9.078125 0 
L 9.078125 54.6875 
L 18.109375 54.6875 
L 18.109375 46.1875 
Q 21.34375 51.125 25.703125 53.5625 
Q 30.078125 56 35.796875 56 
Q 45.21875 56 50.046875 50.171875 
Q 54.890625 44.34375 54.890625 33.015625 
z
" id="DejaVuSans-110"/>
        <path d="M 18.3125 70.21875 
L 18.3125 54.6875 
L 36.8125 54.6875 
L 36.8125 47.703125 
L 18.3125 47.703125 
L 18.3125 18.015625 
Q 18.3125 11.328125 20.140625 9.421875 
Q 21.96875 7.515625 27.59375 7.515625 
L 36.8125 7.515625 
L 36.8125 0 
L 27.59375 0 
Q 17.1875 0 13.234375 3.875 
Q 9.28125 7.765625 9.28125 18.015625 
L 9.28125 47.703125 
L 2.6875 47.703125 
L 2.6875 54.6875 
L 9.28125 54.6875 
L 9.28125 70.21875 
z
" id="DejaVuSans-116"/>
        <path d="M 41.109375 46.296875 
Q 39.59375 47.171875 37.8125 47.578125 
Q 36.03125 48 33.890625 48 
Q 26.265625 48 22.1875 43.046875 
Q 18.109375 38.09375 18.109375 28.8125 
L 18.109375 0 
L 9.078125 0 
L 9.078125 54.6875 
L 18.109375 54.6875 
L 18.109375 46.1875 
Q 20.953125 51.171875 25.484375 53.578125 
Q 30.03125 56 36.53125 56 
Q 37.453125 56 38.578125 55.875 
Q 39.703125 55.765625 41.0625 55.515625 
z
" id="DejaVuSans-114"/>
        <path d="M 30.609375 48.390625 
Q 23.390625 48.390625 19.1875 42.75 
Q 14.984375 37.109375 14.984375 27.296875 
Q 14.984375 17.484375 19.15625 11.84375 
Q 23.34375 6.203125 30.609375 6.203125 
Q 37.796875 6.203125 41.984375 11.859375 
Q 46.1875 17.53125 46.1875 27.296875 
Q 46.1875 37.015625 41.984375 42.703125 
Q 37.796875 48.390625 30.609375 48.390625 
z
M 30.609375 56 
Q 42.328125 56 49.015625 48.375 
Q 55.71875 40.765625 55.71875 27.296875 
Q 55.71875 13.875 49.015625 6.21875 
Q 42.328125 -1.421875 30.609375 -1.421875 
Q 18.84375 -1.421875 12.171875 6.21875 
Q 5.515625 13.875 5.515625 27.296875 
Q 5.515625 40.765625 12.171875 48.375 
Q 18.84375 56 30.609375 56 
z
" id="DejaVuSans-111"/>
        <path d="M 9.421875 54.6875 
L 18.40625 54.6875 
L 18.40625 0 
L 9.421875 0 
z
M 9.421875 75.984375 
L 18.40625 75.984375 
L 18.40625 64.59375 
L 9.421875 64.59375 
z
" id="DejaVuSans-105"/>
        <path d="M 48.78125 52.59375 
L 48.78125 44.1875 
Q 44.96875 46.296875 41.140625 47.34375 
Q 37.3125 48.390625 33.40625 48.390625 
Q 24.65625 48.390625 19.8125 42.84375 
Q 14.984375 37.3125 14.984375 27.296875 
Q 14.984375 17.28125 19.8125 11.734375 
Q 24.65625 6.203125 33.40625 6.203125 
Q 37.3125 6.203125 41.140625 7.25 
Q 44.96875 8.296875 48.78125 10.40625 
L 48.78125 2.09375 
Q 45.015625 0.34375 40.984375 -0.53125 
Q 36.96875 -1.421875 32.421875 -1.421875 
Q 20.0625 -1.421875 12.78125 6.34375 
Q 5.515625 14.109375 5.515625 27.296875 
Q 5.515625 40.671875 12.859375 48.328125 
Q 20.21875 56 33.015625 56 
Q 37.15625 56 41.109375 55.140625 
Q 45.0625 54.296875 48.78125 52.59375 
z
" id="DejaVuSans-99"/>
       </defs>
       <use xlink:href="#DejaVuSans-101"/>
       <use x="61.523438" xlink:href="#DejaVuSans-110"/>
       <use x="124.902344" xlink:href="#DejaVuSans-116"/>
       <use x="164.111328" xlink:href="#DejaVuSans-114"/>
       <use x="202.974609" xlink:href="#DejaVuSans-111"/>
       <use x="264.15625" xlink:href="#DejaVuSans-112"/>
       <use x="327.632812" xlink:href="#DejaVuSans-105"/>
       <use x="355.416016" xlink:href="#DejaVuSans-99"/>
      </g>
     </g>
    </g>
    <g id="xtick_3">
     <g id="line2d_3">
      <g>
       <use style="stroke:#000000;stroke-width:0.8;" x="357.290625" xlink:href="#m4b91f87e38" y="288.430125"/>
      </g>
     </g>
     <g id="text_3">
      <!-- aflplusplus_hier -->
      <g transform="translate(288.429127 341.087127)rotate(-30)scale(0.1 -0.1)">
       <defs>
        <path d="M 50.984375 -16.609375 
L 50.984375 -23.578125 
L -0.984375 -23.578125 
L -0.984375 -16.609375 
z
" id="DejaVuSans-95"/>
        <path d="M 54.890625 33.015625 
L 54.890625 0 
L 45.90625 0 
L 45.90625 32.71875 
Q 45.90625 40.484375 42.875 44.328125 
Q 39.84375 48.1875 33.796875 48.1875 
Q 26.515625 48.1875 22.3125 43.546875 
Q 18.109375 38.921875 18.109375 30.90625 
L 18.109375 0 
L 9.078125 0 
L 9.078125 75.984375 
L 18.109375 75.984375 
L 18.109375 46.1875 
Q 21.34375 51.125 25.703125 53.5625 
Q 30.078125 56 35.796875 56 
Q 45.21875 56 50.046875 50.171875 
Q 54.890625 44.34375 54.890625 33.015625 
z
" id="DejaVuSans-104"/>
       </defs>
       <use xlink:href="#DejaVuSans-97"/>
       <use x="61.279297" xlink:href="#DejaVuSans-102"/>
       <use x="96.484375" xlink:href="#DejaVuSans-108"/>
       <use x="124.267578" xlink:href="#DejaVuSans-112"/>
       <use x="187.744141" xlink:href="#DejaVuSans-108"/>
       <use x="215.527344" xlink:href="#DejaVuSans-117"/>
       <use x="278.90625" xlink:href="#DejaVuSans-115"/>
       <use x="331.005859" xlink:href="#DejaVuSans-112"/>
       <use x="394.482422" xlink:href="#DejaVuSans-108"/>
       <use x="422.265625" xlink:href="#DejaVuSans-117"/>
       <use x="485.644531" xlink:href="#DejaVuSans-115"/>
       <use x="537.744141" xlink:href="#DejaVuSans-95"/>
       <use x="587.744141" xlink:href="#DejaVuSans-104"/>
       <use x="651.123047" xlink:href="#DejaVuSans-105"/>
       <use x="678.90625" xlink:href="#DejaVuSans-101"/>
       <use x="740.429688" xlink:href="#DejaVuSans-114"/>
      </g>
     </g>
    </g>
    <g id="text_4">
     <!-- Fuzzer (highest median coverage on the left) -->
     <g transform="translate(125.632656 354.72749)scale(0.1 -0.1)">
      <defs>
       <path d="M 9.8125 72.90625 
L 51.703125 72.90625 
L 51.703125 64.59375 
L 19.671875 64.59375 
L 19.671875 43.109375 
L 48.578125 43.109375 
L 48.578125 34.8125 
L 19.671875 34.8125 
L 19.671875 0 
L 9.8125 0 
z
" id="DejaVuSans-70"/>
       <path d="M 5.515625 54.6875 
L 48.1875 54.6875 
L 48.1875 46.484375 
L 14.40625 7.171875 
L 48.1875 7.171875 
L 48.1875 0 
L 4.296875 0 
L 4.296875 8.203125 
L 38.09375 47.515625 
L 5.515625 47.515625 
z
" id="DejaVuSans-122"/>
       <path id="DejaVuSans-32"/>
       <path d="M 31 75.875 
Q 24.46875 64.65625 21.28125 53.65625 
Q 18.109375 42.671875 18.109375 31.390625 
Q 18.109375 20.125 21.3125 9.0625 
Q 24.515625 -2 31 -13.1875 
L 23.1875 -13.1875 
Q 15.875 -1.703125 12.234375 9.375 
Q 8.59375 20.453125 8.59375 31.390625 
Q 8.59375 42.28125 12.203125 53.3125 
Q 15.828125 64.359375 23.1875 75.875 
z
" id="DejaVuSans-40"/>
       <path d="M 45.40625 27.984375 
Q 45.40625 37.75 41.375 43.109375 
Q 37.359375 48.484375 30.078125 48.484375 
Q 22.859375 48.484375 18.828125 43.109375 
Q 14.796875 37.75 14.796875 27.984375 
Q 14.796875 18.265625 18.828125 12.890625 
Q 22.859375 7.515625 30.078125 7.515625 
Q 37.359375 7.515625 41.375 12.890625 
Q 45.40625 18.265625 45.40625 27.984375 
z
M 54.390625 6.78125 
Q 54.390625 -7.171875 48.1875 -13.984375 
Q 42 -20.796875 29.203125 -20.796875 
Q 24.46875 -20.796875 20.265625 -20.09375 
Q 16.0625 -19.390625 12.109375 -17.921875 
L 12.109375 -9.1875 
Q 16.0625 -11.328125 19.921875 -12.34375 
Q 23.78125 -13.375 27.78125 -13.375 
Q 36.625 -13.375 41.015625 -8.765625 
Q 45.40625 -4.15625 45.40625 5.171875 
L 45.40625 9.625 
Q 42.625 4.78125 38.28125 2.390625 
Q 33.9375 0 27.875 0 
Q 17.828125 0 11.671875 7.65625 
Q 5.515625 15.328125 5.515625 27.984375 
Q 5.515625 40.671875 11.671875 48.328125 
Q 17.828125 56 27.875 56 
Q 33.9375 56 38.28125 53.609375 
Q 42.625 51.21875 45.40625 46.390625 
L 45.40625 54.6875 
L 54.390625 54.6875 
z
" id="DejaVuSans-103"/>
       <path d="M 52 44.1875 
Q 55.375 50.25 60.0625 53.125 
Q 64.75 56 71.09375 56 
Q 79.640625 56 84.28125 50.015625 
Q 88.921875 44.046875 88.921875 33.015625 
L 88.921875 0 
L 79.890625 0 
L 79.890625 32.71875 
Q 79.890625 40.578125 77.09375 44.375 
Q 74.3125 48.1875 68.609375 48.1875 
Q 61.625 48.1875 57.5625 43.546875 
Q 53.515625 38.921875 53.515625 30.90625 
L 53.515625 0 
L 44.484375 0 
L 44.484375 32.71875 
Q 44.484375 40.625 41.703125 44.40625 
Q 38.921875 48.1875 33.109375 48.1875 
Q 26.21875 48.1875 22.15625 43.53125 
Q 18.109375 38.875 18.109375 30.90625 
L 18.109375 0 
L 9.078125 0 
L 9.078125 54.6875 
L 18.109375 54.6875 
L 18.109375 46.1875 
Q 21.1875 51.21875 25.484375 53.609375 
Q 29.78125 56 35.6875 56 
Q 41.65625 56 45.828125 52.96875 
Q 50 49.953125 52 44.1875 
z
" id="DejaVuSans-109"/>
       <path d="M 45.40625 46.390625 
L 45.40625 75.984375 
L 54.390625 75.984375 
L 54.390625 0 
L 45.40625 0 
L 45.40625 8.203125 
Q 42.578125 3.328125 38.25 0.953125 
Q 33.9375 -1.421875 27.875 -1.421875 
Q 17.96875 -1.421875 11.734375 6.484375 
Q 5.515625 14.40625 5.515625 27.296875 
Q 5.515625 40.1875 11.734375 48.09375 
Q 17.96875 56 27.875 56 
Q 33.9375 56 38.25 53.625 
Q 42.578125 51.265625 45.40625 46.390625 
z
M 14.796875 27.296875 
Q 14.796875 17.390625 18.875 11.75 
Q 22.953125 6.109375 30.078125 6.109375 
Q 37.203125 6.109375 41.296875 11.75 
Q 45.40625 17.390625 45.40625 27.296875 
Q 45.40625 37.203125 41.296875 42.84375 
Q 37.203125 48.484375 30.078125 48.484375 
Q 22.953125 48.484375 18.875 42.84375 
Q 14.796875 37.203125 14.796875 27.296875 
z
" id="DejaVuSans-100"/>
       <path d="M 2.984375 54.6875 
L 12.5 54.6875 
L 29.59375 8.796875 
L 46.6875 54.6875 
L 56.203125 54.6875 
L 35.6875 0 
L 23.484375 0 
z
" id="DejaVuSans-118"/>
       <path d="M 8.015625 75.875 
L 15.828125 75.875 
Q 23.140625 64.359375 26.78125 53.3125 
Q 30.421875 42.28125 30.421875 31.390625 
Q 30.421875 20.453125 26.78125 9.375 
Q 23.140625 -1.703125 15.828125 -13.1875 
L 8.015625 -13.1875 
Q 14.5 -2 17.703125 9.0625 
Q 20.90625 20.125 20.90625 31.390625 
Q 20.90625 42.671875 17.703125 53.65625 
Q 14.5 64.65625 8.015625 75.875 
z
" id="DejaVuSans-41"/>
      </defs>
      <use xlink:href="#DejaVuSans-70"/>
      <use x="52.019531" xlink:href="#DejaVuSans-117"/>
      <use x="115.398438" xlink:href="#DejaVuSans-122"/>
      <use x="167.888672" xlink:href="#DejaVuSans-122"/>
      <use x="220.378906" xlink:href="#DejaVuSans-101"/>
      <use x="281.902344" xlink:href="#DejaVuSans-114"/>
      <use x="323.015625" xlink:href="#DejaVuSans-32"/>
      <use x="354.802734" xlink:href="#DejaVuSans-40"/>
      <use x="393.816406" xlink:href="#DejaVuSans-104"/>
      <use x="457.195312" xlink:href="#DejaVuSans-105"/>
      <use x="484.978516" xlink:href="#DejaVuSans-103"/>
      <use x="548.455078" xlink:href="#DejaVuSans-104"/>
      <use x="611.833984" xlink:href="#DejaVuSans-101"/>
      <use x="673.357422" xlink:href="#DejaVuSans-115"/>
      <use x="725.457031" xlink:href="#DejaVuSans-116"/>
      <use x="764.666016" xlink:href="#DejaVuSans-32"/>
      <use x="796.453125" xlink:href="#DejaVuSans-109"/>
      <use x="893.865234" xlink:href="#DejaVuSans-101"/>
      <use x="955.388672" xlink:href="#DejaVuSans-100"/>
      <use x="1018.865234" xlink:href="#DejaVuSans-105"/>
      <use x="1046.648438" xlink:href="#DejaVuSans-97"/>
      <use x="1107.927734" xlink:href="#DejaVuSans-110"/>
      <use x="1171.306641" xlink:href="#DejaVuSans-32"/>
      <use x="1203.09375" xlink:href="#DejaVuSans-99"/>
      <use x="1258.074219" xlink:href="#DejaVuSans-111"/>
      <use x="1319.255859" xlink:href="#DejaVuSans-118"/>
      <use x="1378.435547" xlink:href="#DejaVuSans-101"/>
      <use x="1439.958984" xlink:href="#DejaVuSans-114"/>
      <use x="1481.072266" xlink:href="#DejaVuSans-97"/>
      <use x="1542.351562" xlink:href="#DejaVuSans-103"/>
      <use x="1605.828125" xlink:href="#DejaVuSans-101"/>
      <use x="1667.351562" xlink:href="#DejaVuSans-32"/>
      <use x="1699.138672" xlink:href="#DejaVuSans-111"/>
      <use x="1760.320312" xlink:href="#DejaVuSans-110"/>
      <use x="1823.699219" xlink:href="#DejaVuSans-32"/>
      <use x="1855.486328" xlink:href="#DejaVuSans-116"/>
      <use x="1894.695312" xlink:href="#DejaVuSans-104"/>
      <use x="1958.074219" xlink:href="#DejaVuSans-101"/>
      <use x="2019.597656" xlink:href="#DejaVuSans-32"/>
      <use x="2051.384766" xlink:href="#DejaVuSans-108"/>
      <use x="2079.167969" xlink:href="#DejaVuSans-101"/>
      <use x="2140.691406" xlink:href="#DejaVuSans-102"/>
      <use x="2174.146484" xlink:href="#DejaVuSans-116"/>
      <use x="2213.355469" xlink:href="#DejaVuSans-41"/>
     </g>
    </g>
   </g>
   <g id="matplotlib.axis_2">
    <g id="ytick_1">
     <g id="line2d_4">
      <defs>
       <path d="M 0 0 
L -3.5 0 
" id="mbbe440d6a8" style="stroke:#000000;stroke-width:0.8;"/>
      </defs>
      <g>
       <use style="stroke:#000000;stroke-width:0.8;" x="59.690625" xlink:href="#mbbe440d6a8" y="281.542334"/>
      </g>
     </g>
     <g id="text_5">
      <!-- 4000 -->
      <g transform="translate(27.240625 285.341553)scale(0.1 -0.1)">
       <defs>
        <path d="M 37.796875 64.3125 
L 12.890625 25.390625 
L 37.796875 25.390625 
z
M 35.203125 72.90625 
L 47.609375 72.90625 
L 47.609375 25.390625 
L 58.015625 25.390625 
L 58.015625 17.1875 
L 47.609375 17.1875 
L 47.609375 0 
L 37.796875 0 
L 37.796875 17.1875 
L 4.890625 17.1875 
L 4.890625 26.703125 
z
" id="DejaVuSans-52"/>
        <path d="M 31.78125 66.40625 
Q 24.171875 66.40625 20.328125 58.90625 
Q 16.5 51.421875 16.5 36.375 
Q 16.5 21.390625 20.328125 13.890625 
Q 24.171875 6.390625 31.78125 6.390625 
Q 39.453125 6.390625 43.28125 13.890625 
Q 47.125 21.390625 47.125 36.375 
Q 47.125 51.421875 43.28125 58.90625 
Q 39.453125 66.40625 31.78125 66.40625 
z
M 31.78125 74.21875 
Q 44.046875 74.21875 50.515625 64.515625 
Q 56.984375 54.828125 56.984375 36.375 
Q 56.984375 17.96875 50.515625 8.265625 
Q 44.046875 -1.421875 31.78125 -1.421875 
Q 19.53125 -1.421875 13.0625 8.265625 
Q 6.59375 17.96875 6.59375 36.375 
Q 6.59375 54.828125 13.0625 64.515625 
Q 19.53125 74.21875 31.78125 74.21875 
z
" id="DejaVuSans-48"/>
       </defs>
       <use xlink:href="#DejaVuSans-52"/>
       <use x="63.623047" xlink:href="#DejaVuSans-48"/>
       <use x="127.246094" xlink:href="#DejaVuSans-48"/>
       <use x="190.869141" xlink:href="#DejaVuSans-48"/>
      </g>
     </g>
    </g>
    <g id="ytick_2">
     <g id="line2d_5">
      <g>
       <use style="stroke:#000000;stroke-width:0.8;" x="59.690625" xlink:href="#mbbe440d6a8" y="232.382697"/>
      </g>
     </g>
     <g id="text_6">
      <!-- 6000 -->
      <g transform="translate(27.240625 236.181916)scale(0.1 -0.1)">
       <defs>
        <path d="M 33.015625 40.375 
Q 26.375 40.375 22.484375 35.828125 
Q 18.609375 31.296875 18.609375 23.390625 
Q 18.609375 15.53125 22.484375 10.953125 
Q 26.375 6.390625 33.015625 6.390625 
Q 39.65625 6.390625 43.53125 10.953125 
Q 47.40625 15.53125 47.40625 23.390625 
Q 47.40625 31.296875 43.53125 35.828125 
Q 39.65625 40.375 33.015625 40.375 
z
M 52.59375 71.296875 
L 52.59375 62.3125 
Q 48.875 64.0625 45.09375 64.984375 
Q 41.3125 65.921875 37.59375 65.921875 
Q 27.828125 65.921875 22.671875 59.328125 
Q 17.53125 52.734375 16.796875 39.40625 
Q 19.671875 43.65625 24.015625 45.921875 
Q 28.375 48.1875 33.59375 48.1875 
Q 44.578125 48.1875 50.953125 41.515625 
Q 57.328125 34.859375 57.328125 23.390625 
Q 57.328125 12.15625 50.6875 5.359375 
Q 44.046875 -1.421875 33.015625 -1.421875 
Q 20.359375 -1.421875 13.671875 8.265625 
Q 6.984375 17.96875 6.984375 36.375 
Q 6.984375 53.65625 15.1875 63.9375 
Q 23.390625 74.21875 37.203125 74.21875 
Q 40.921875 74.21875 44.703125 73.484375 
Q 48.484375 72.75 52.59375 71.296875 
z
" id="DejaVuSans-54"/>
       </defs>
       <use xlink:href="#DejaVuSans-54"/>
       <use x="63.623047" xlink:href="#DejaVuSans-48"/>
       <use x="127.246094" xlink:href="#DejaVuSans-48"/>
       <use x="190.869141" xlink:href="#DejaVuSans-48"/>
      </g>
     </g>
    </g>
    <g id="ytick_3">
     <g id="line2d_6">
      <g>
       <use style="stroke:#000000;stroke-width:0.8;" x="59.690625" xlink:href="#mbbe440d6a8" y="183.22306"/>
      </g>
     </g>
     <g id="text_7">
      <!-- 8000 -->
      <g transform="translate(27.240625 187.022278)scale(0.1 -0.1)">
       <defs>
        <path d="M 31.78125 34.625 
Q 24.75 34.625 20.71875 30.859375 
Q 16.703125 27.09375 16.703125 20.515625 
Q 16.703125 13.921875 20.71875 10.15625 
Q 24.75 6.390625 31.78125 6.390625 
Q 38.8125 6.390625 42.859375 10.171875 
Q 46.921875 13.96875 46.921875 20.515625 
Q 46.921875 27.09375 42.890625 30.859375 
Q 38.875 34.625 31.78125 34.625 
z
M 21.921875 38.8125 
Q 15.578125 40.375 12.03125 44.71875 
Q 8.5 49.078125 8.5 55.328125 
Q 8.5 64.0625 14.71875 69.140625 
Q 20.953125 74.21875 31.78125 74.21875 
Q 42.671875 74.21875 48.875 69.140625 
Q 55.078125 64.0625 55.078125 55.328125 
Q 55.078125 49.078125 51.53125 44.71875 
Q 48 40.375 41.703125 38.8125 
Q 48.828125 37.15625 52.796875 32.3125 
Q 56.78125 27.484375 56.78125 20.515625 
Q 56.78125 9.90625 50.3125 4.234375 
Q 43.84375 -1.421875 31.78125 -1.421875 
Q 19.734375 -1.421875 13.25 4.234375 
Q 6.78125 9.90625 6.78125 20.515625 
Q 6.78125 27.484375 10.78125 32.3125 
Q 14.796875 37.15625 21.921875 38.8125 
z
M 18.3125 54.390625 
Q 18.3125 48.734375 21.84375 45.5625 
Q 25.390625 42.390625 31.78125 42.390625 
Q 38.140625 42.390625 41.71875 45.5625 
Q 45.3125 48.734375 45.3125 54.390625 
Q 45.3125 60.0625 41.71875 63.234375 
Q 38.140625 66.40625 31.78125 66.40625 
Q 25.390625 66.40625 21.84375 63.234375 
Q 18.3125 60.0625 18.3125 54.390625 
z
" id="DejaVuSans-56"/>
       </defs>
       <use xlink:href="#DejaVuSans-56"/>
       <use x="63.623047" xlink:href="#DejaVuSans-48"/>
       <use x="127.246094" xlink:href="#DejaVuSans-48"/>
       <use x="190.869141" xlink:href="#DejaVuSans-48"/>
      </g>
     </g>
    </g>
    <g id="ytick_4">
     <g id="line2d_7">
      <g>
       <use style="stroke:#000000;stroke-width:0.8;" x="59.690625" xlink:href="#mbbe440d6a8" y="134.063422"/>
      </g>
     </g>
     <g id="text_8">
      <!-- 10000 -->
      <g transform="translate(20.878125 137.862641)scale(0.1 -0.1)">
       <defs>
        <path d="M 12.40625 8.296875 
L 28.515625 8.296875 
L 28.515625 63.921875 
L 10.984375 60.40625 
L 10.984375 69.390625 
L 28.421875 72.90625 
L 38.28125 72.90625 
L 38.28125 8.296875 
L 54.390625 8.296875 
L 54.390625 0 
L 12.40625 0 
z
" id="DejaVuSans-49"/>
       </defs>
       <use xlink:href="#DejaVuSans-49"/>
       <use x="63.623047" xlink:href="#DejaVuSans-48"/>
       <use x="127.246094" xlink:href="#DejaVuSans-48"/>
       <use x="190.869141" xlink:href="#DejaVuSans-48"/>
       <use x="254.492188" xlink:href="#DejaVuSans-48"/>
      </g>
     </g>
    </g>
    <g id="ytick_5">
     <g id="line2d_8">
      <g>
       <use style="stroke:#000000;stroke-width:0.8;" x="59.690625" xlink:href="#mbbe440d6a8" y="84.903785"/>
      </g>
     </g>
     <g id="text_9">
      <!-- 12000 -->
      <g transform="translate(20.878125 88.703004)scale(0.1 -0.1)">
       <defs>
        <path d="M 19.1875 8.296875 
L 53.609375 8.296875 
L 53.609375 0 
L 7.328125 0 
L 7.328125 8.296875 
Q 12.9375 14.109375 22.625 23.890625 
Q 32.328125 33.6875 34.8125 36.53125 
Q 39.546875 41.84375 41.421875 45.53125 
Q 43.3125 49.21875 43.3125 52.78125 
Q 43.3125 58.59375 39.234375 62.25 
Q 35.15625 65.921875 28.609375 65.921875 
Q 23.96875 65.921875 18.8125 64.3125 
Q 13.671875 62.703125 7.8125 59.421875 
L 7.8125 69.390625 
Q 13.765625 71.78125 18.9375 73 
Q 24.125 74.21875 28.421875 74.21875 
Q 39.75 74.21875 46.484375 68.546875 
Q 53.21875 62.890625 53.21875 53.421875 
Q 53.21875 48.921875 51.53125 44.890625 
Q 49.859375 40.875 45.40625 35.40625 
Q 44.1875 33.984375 37.640625 27.21875 
Q 31.109375 20.453125 19.1875 8.296875 
z
" id="DejaVuSans-50"/>
       </defs>
       <use xlink:href="#DejaVuSans-49"/>
       <use x="63.623047" xlink:href="#DejaVuSans-50"/>
       <use x="127.246094" xlink:href="#DejaVuSans-48"/>
       <use x="190.869141" xlink:href="#DejaVuSans-48"/>
       <use x="254.492188" xlink:href="#DejaVuSans-48"/>
      </g>
     </g>
    </g>
    <g id="ytick_6">
     <g id="line2d_9">
      <g>
       <use style="stroke:#000000;stroke-width:0.8;" x="59.690625" xlink:href="#mbbe440d6a8" y="35.744148"/>
      </g>
     </g>
     <g id="text_10">
      <!-- 14000 -->
      <g transform="translate(20.878125 39.543366)scale(0.1 -0.1)">
       <use xlink:href="#DejaVuSans-49"/>
       <use x="63.623047" xlink:href="#DejaVuSans-52"/>
       <use x="127.246094" xlink:href="#DejaVuSans-48"/>
       <use x="190.869141" xlink:href="#DejaVuSans-48"/>
       <use x="254.492188" xlink:href="#DejaVuSans-48"/>
      </g>
     </g>
    </g>
    <g id="text_11">
     <!-- Reached region coverage -->
     <g transform="translate(14.798438 219.136625)rotate(-90)scale(0.1 -0.1)">
      <defs>
       <path d="M 44.390625 34.1875 
Q 47.5625 33.109375 50.5625 29.59375 
Q 53.5625 26.078125 56.59375 19.921875 
L 66.609375 0 
L 56 0 
L 46.6875 18.703125 
Q 43.0625 26.03125 39.671875 28.421875 
Q 36.28125 30.8125 30.421875 30.8125 
L 19.671875 30.8125 
L 19.671875 0 
L 9.8125 0 
L 9.8125 72.90625 
L 32.078125 72.90625 
Q 44.578125 72.90625 50.734375 67.671875 
Q 56.890625 62.453125 56.890625 51.90625 
Q 56.890625 45.015625 53.6875 40.46875 
Q 50.484375 35.9375 44.390625 34.1875 
z
M 19.671875 64.796875 
L 19.671875 38.921875 
L 32.078125 38.921875 
Q 39.203125 38.921875 42.84375 42.21875 
Q 46.484375 45.515625 46.484375 51.90625 
Q 46.484375 58.296875 42.84375 61.546875 
Q 39.203125 64.796875 32.078125 64.796875 
z
" id="DejaVuSans-82"/>
      </defs>
      <use xlink:href="#DejaVuSans-82"/>
      <use x="64.982422" xlink:href="#DejaVuSans-101"/>
      <use x="126.505859" xlink:href="#DejaVuSans-97"/>
      <use x="187.785156" xlink:href="#DejaVuSans-99"/>
      <use x="242.765625" xlink:href="#DejaVuSans-104"/>
      <use x="306.144531" xlink:href="#DejaVuSans-101"/>
      <use x="367.667969" xlink:href="#DejaVuSans-100"/>
      <use x="431.144531" xlink:href="#DejaVuSans-32"/>
      <use x="462.931641" xlink:href="#DejaVuSans-114"/>
      <use x="501.794922" xlink:href="#DejaVuSans-101"/>
      <use x="563.318359" xlink:href="#DejaVuSans-103"/>
      <use x="626.794922" xlink:href="#DejaVuSans-105"/>
      <use x="654.578125" xlink:href="#DejaVuSans-111"/>
      <use x="715.759766" xlink:href="#DejaVuSans-110"/>
      <use x="779.138672" xlink:href="#DejaVuSans-32"/>
      <use x="810.925781" xlink:href="#DejaVuSans-99"/>
      <use x="865.90625" xlink:href="#DejaVuSans-111"/>
      <use x="927.087891" xlink:href="#DejaVuSans-118"/>
      <use x="986.267578" xlink:href="#DejaVuSans-101"/>
      <use x="1047.791016" xlink:href="#DejaVuSans-114"/>
      <use x="1088.904297" xlink:href="#DejaVuSans-97"/>
      <use x="1150.183594" xlink:href="#DejaVuSans-103"/>
      <use x="1213.660156" xlink:href="#DejaVuSans-101"/>
     </g>
    </g>
   </g>
   <g id="line2d_10">
    <path clip-path="url(#p4227e86ee7)" d="M 119.210625 127.279392 
L 119.210625 100.634869 
" style="fill:none;stroke:#3f3f3f;stroke-linecap:square;stroke-width:1.5;"/>
   </g>
   <g id="line2d_11">
    <path clip-path="url(#p4227e86ee7)" d="M 119.210625 127.279392 
L 119.210625 104.346421 
" style="fill:none;stroke:#3f3f3f;stroke-linecap:square;stroke-width:4.5;"/>
   </g>
   <g id="line2d_12">
    <path clip-path="url(#p4227e86ee7)" d="M 238.250625 224.590894 
L 238.250625 222.157492 
" style="fill:none;stroke:#3f3f3f;stroke-linecap:square;stroke-width:1.5;"/>
   </g>
   <g id="line2d_13">
    <path clip-path="url(#p4227e86ee7)" d="M 238.250625 224.590894 
L 238.250625 223.288164 
" style="fill:none;stroke:#3f3f3f;stroke-linecap:square;stroke-width:4.5;"/>
   </g>
   <g id="line2d_14">
    <path clip-path="url(#p4227e86ee7)" d="M 357.290625 249.736049 
L 357.290625 248.752856 
" style="fill:none;stroke:#3f3f3f;stroke-linecap:square;stroke-width:1.5;"/>
   </g>
   <g id="line2d_15">
    <path clip-path="url(#p4227e86ee7)" d="M 357.290625 249.736049 
L 357.290625 249.342772 
" style="fill:none;stroke:#3f3f3f;stroke-linecap:square;stroke-width:4.5;"/>
   </g>
   <g id="patch_3">
    <path d="M 59.690625 281.542334 
L 59.690625 35.744148 
" style="fill:none;stroke:#000000;stroke-linecap:square;stroke-linejoin:miter;stroke-width:0.8;"/>
   </g>
   <g id="patch_4">
    <path d="M 119.210625 288.430125 
L 357.290625 288.430125 
" style="fill:none;stroke:#000000;stroke-linecap:square;stroke-linejoin:miter;stroke-width:0.8;"/>
   </g>
   <g id="PathCollection_1">
    <defs>
     <path d="M 0 1.5 
C 0.397805 1.5 0.77937 1.341951 1.06066 1.06066 
C 1.341951 0.77937 1.5 0.397805 1.5 0 
C 1.5 -0.397805 1.341951 -0.77937 1.06066 -1.06066 
C 0.77937 -1.341951 0.397805 -1.5 0 -1.5 
C -0.397805 -1.5 -0.77937 -1.341951 -1.06066 -1.06066 
C -1.341951 -0.77937 -1.5 -0.397805 -1.5 0 
C -1.5 0.397805 -1.341951 0.77937 -1.06066 1.06066 
C -0.77937 1.341951 -0.397805 1.5 0 1.5 
z
" id="m73dd9c100a" style="stroke:#3f3f3f;"/>
    </defs>
    <g clip-path="url(#p4227e86ee7)">
     <use style="fill:#ffffff;stroke:#3f3f3f;" x="119.210625" xlink:href="#m73dd9c100a" y="109.92604"/>
    </g>
   </g>
   <g id="PathCollection_2">
    <g clip-path="url(#p4227e86ee7)">
     <use style="fill:#ffffff;stroke:#3f3f3f;" x="238.250625" xlink:href="#m73dd9c100a" y="224.443415"/>
    </g>
   </g>
   <g id="PathCollection_3">
    <g clip-path="url(#p4227e86ee7)">
     <use style="fill:#ffffff;stroke:#3f3f3f;" x="357.290625" xlink:href="#m73dd9c100a" y="249.391931"/>
    </g>
   </g>
   <g id="text_12">
    <!-- libxml2-v2.9.2 (2h, 5 trials/fuzzer) -->
    <g transform="translate(136.30875 16.318125)scale(0.12 -0.12)">
     <defs>
      <path d="M 48.6875 27.296875 
Q 48.6875 37.203125 44.609375 42.84375 
Q 40.53125 48.484375 33.40625 48.484375 
Q 26.265625 48.484375 22.1875 42.84375 
Q 18.109375 37.203125 18.109375 27.296875 
Q 18.109375 17.390625 22.1875 11.75 
Q 26.265625 6.109375 33.40625 6.109375 
Q 40.53125 6.109375 44.609375 11.75 
Q 48.6875 17.390625 48.6875 27.296875 
z
M 18.109375 46.390625 
Q 20.953125 51.265625 25.265625 53.625 
Q 29.59375 56 35.59375 56 
Q 45.5625 56 51.78125 48.09375 
Q 58.015625 40.1875 58.015625 27.296875 
Q 58.015625 14.40625 51.78125 6.484375 
Q 45.5625 -1.421875 35.59375 -1.421875 
Q 29.59375 -1.421875 25.265625 0.953125 
Q 20.953125 3.328125 18.109375 8.203125 
L 18.109375 0 
L 9.078125 0 
L 9.078125 75.984375 
L 18.109375 75.984375 
z
" id="DejaVuSans-98"/>
      <path d="M 54.890625 54.6875 
L 35.109375 28.078125 
L 55.90625 0 
L 45.3125 0 
L 29.390625 21.484375 
L 13.484375 0 
L 2.875 0 
L 24.125 28.609375 
L 4.6875 54.6875 
L 15.28125 54.6875 
L 29.78125 35.203125 
L 44.28125 54.6875 
z
" id="DejaVuSans-120"/>
      <path d="M 4.890625 31.390625 
L 31.203125 31.390625 
L 31.203125 23.390625 
L 4.890625 23.390625 
z
" id="DejaVuSans-45"/>
      <path d="M 10.6875 12.40625 
L 21 12.40625 
L 21 0 
L 10.6875 0 
z
" id="DejaVuSans-46"/>
      <path d="M 10.984375 1.515625 
L 10.984375 10.5 
Q 14.703125 8.734375 18.5 7.8125 
Q 22.3125 6.890625 25.984375 6.890625 
Q 35.75 6.890625 40.890625 13.453125 
Q 46.046875 20.015625 46.78125 33.40625 
Q 43.953125 29.203125 39.59375 26.953125 
Q 35.25 24.703125 29.984375 24.703125 
Q 19.046875 24.703125 12.671875 31.3125 
Q 6.296875 37.9375 6.296875 49.421875 
Q 6.296875 60.640625 12.9375 67.421875 
Q 19.578125 74.21875 30.609375 74.21875 
Q 43.265625 74.21875 49.921875 64.515625 
Q 56.59375 54.828125 56.59375 36.375 
Q 56.59375 19.140625 48.40625 8.859375 
Q 40.234375 -1.421875 26.421875 -1.421875 
Q 22.703125 -1.421875 18.890625 -0.6875 
Q 15.09375 0.046875 10.984375 1.515625 
z
M 30.609375 32.421875 
Q 37.25 32.421875 41.125 36.953125 
Q 45.015625 41.5 45.015625 49.421875 
Q 45.015625 57.28125 41.125 61.84375 
Q 37.25 66.40625 30.609375 66.40625 
Q 23.96875 66.40625 20.09375 61.84375 
Q 16.21875 57.28125 16.21875 49.421875 
Q 16.21875 41.5 20.09375 36.953125 
Q 23.96875 32.421875 30.609375 32.421875 
z
" id="DejaVuSans-57"/>
      <path d="M 11.71875 12.40625 
L 22.015625 12.40625 
L 22.015625 4 
L 14.015625 -11.625 
L 7.71875 -11.625 
L 11.71875 4 
z
" id="DejaVuSans-44"/>
      <path d="M 10.796875 72.90625 
L 49.515625 72.90625 
L 49.515625 64.59375 
L 19.828125 64.59375 
L 19.828125 46.734375 
Q 21.96875 47.46875 24.109375 47.828125 
Q 26.265625 48.1875 28.421875 48.1875 
Q 40.625 48.1875 47.75 41.5 
Q 54.890625 34.8125 54.890625 23.390625 
Q 54.890625 11.625 47.5625 5.09375 
Q 40.234375 -1.421875 26.90625 -1.421875 
Q 22.3125 -1.421875 17.546875 -0.640625 
Q 12.796875 0.140625 7.71875 1.703125 
L 7.71875 11.625 
Q 12.109375 9.234375 16.796875 8.0625 
Q 21.484375 6.890625 26.703125 6.890625 
Q 35.15625 6.890625 40.078125 11.328125 
Q 45.015625 15.765625 45.015625 23.390625 
Q 45.015625 31 40.078125 35.4375 
Q 35.15625 39.890625 26.703125 39.890625 
Q 22.75 39.890625 18.8125 39.015625 
Q 14.890625 38.140625 10.796875 36.28125 
z
" id="DejaVuSans-53"/>
      <path d="M 25.390625 72.90625 
L 33.6875 72.90625 
L 8.296875 -9.28125 
L 0 -9.28125 
z
" id="DejaVuSans-47"/>
     </defs>
     <use xlink:href="#DejaVuSans-108"/>
     <use x="27.783203" xlink:href="#DejaVuSans-105"/>
     <use x="55.566406" xlink:href="#DejaVuSans-98"/>
     <use x="119.042969" xlink:href="#DejaVuSans-120"/>
     <use x="178.222656" xlink:href="#DejaVuSans-109"/>
     <use x="275.634766" xlink:href="#DejaVuSans-108"/>
     <use x="303.417969" xlink:href="#DejaVuSans-50"/>
     <use x="367.041016" xlink:href="#DejaVuSans-45"/>
     <use x="400.5" xlink:href="#DejaVuSans-118"/>
     <use x="459.679688" xlink:href="#DejaVuSans-50"/>
     <use x="523.302734" xlink:href="#DejaVuSans-46"/>
     <use x="555.089844" xlink:href="#DejaVuSans-57"/>
     <use x="618.712891" xlink:href="#DejaVuSans-46"/>
     <use x="650.5" xlink:href="#DejaVuSans-50"/>
     <use x="714.123047" xlink:href="#DejaVuSans-32"/>
     <use x="745.910156" xlink:href="#DejaVuSans-40"/>
     <use x="784.923828" xlink:href="#DejaVuSans-50"/>
     <use x="848.546875" xlink:href="#DejaVuSans-104"/>
     <use x="911.925781" xlink:href="#DejaVuSans-44"/>
     <use x="943.712891" xlink:href="#DejaVuSans-32"/>
     <use x="975.5" xlink:href="#DejaVuSans-53"/>
     <use x="1039.123047" xlink:href="#DejaVuSans-32"/>
     <use x="1070.910156" xlink:href="#DejaVuSans-116"/>
     <use x="1110.119141" xlink:href="#DejaVuSans-114"/>
     <use x="1151.232422" xlink:href="#DejaVuSans-105"/>
     <use x="1179.015625" xlink:href="#DejaVuSans-97"/>
     <use x="1240.294922" xlink:href="#DejaVuSans-108"/>
     <use x="1268.078125" xlink:href="#DejaVuSans-115"/>
     <use x="1320.177734" xlink:href="#DejaVuSans-47"/>
     <use x="1353.869141" xlink:href="#DejaVuSans-102"/>
     <use x="1389.074219" xlink:href="#DejaVuSans-117"/>
     <use x="1452.453125" xlink:href="#DejaVuSans-122"/>
     <use x="1504.943359" xlink:href="#DejaVuSans-122"/>
     <use x="1557.433594" xlink:href="#DejaVuSans-101"/>
     <use x="1618.957031" xlink:href="#DejaVuSans-114"/>
     <use x="1660.070312" xlink:href="#DejaVuSans-41"/>
    </g>
   </g>
  </g>
 </g>
 <defs>
  <clipPath id="p4227e86ee7">
   <rect height="266.112" width="357.12" x="59.690625" y="22.318125"/>
  </clipPath>
 </defs>
</svg>
