<?xml version="1.0" encoding="utf-8" standalone="no"?>
<!DOCTYPE svg PUBLIC "-//W3C//DTD SVG 1.1//EN"
  "http://www.w3.org/Graphics/SVG/1.1/DTD/svg11.dtd">
<!-- Created with matplotlib (https://matplotlib.org/) -->
<svg height="364.007178pt" version="1.1" viewBox="0 0 424.010625 364.007178" width="424.010625pt" xmlns="http://www.w3.org/2000/svg" xmlns:xlink="http://www.w3.org/1999/xlink">
 <metadata>
  <rdf:RDF xmlns:cc="http://creativecommons.org/ns#" xmlns:dc="http://purl.org/dc/elements/1.1/" xmlns:rdf="http://www.w3.org/1999/02/22-rdf-syntax-ns#">
   <cc:Work>
    <dc:type rdf:resource="http://purl.org/dc/dcmitype/StillImage"/>
    <dc:date>2020-11-08T21:44:08.899706</dc:date>
    <dc:format>image/svg+xml</dc:format>
    <dc:creator>
     <cc:Agent>
      <dc:title>Matplotlib v3.3.2, https://matplotlib.org/</dc:title>
     </cc:Agent>
    </dc:creator>
   </cc:Work>
  </rdf:RDF>
 </metadata>
 <defs>
  <style type="text/css">*{stroke-linecap:butt;stroke-linejoin:round;}</style>
 </defs>
 <g id="figure_1">
  <g id="patch_1">
   <path d="M 0 364.007178 
L 424.010625 364.007178 
L 424.010625 0 
L 0 0 
z
" style="fill:#ffffff;"/>
  </g>
  <g id="axes_1">
   <g id="patch_2">
    <path d="M 59.690625 288.430125 
L 416.810625 288.430125 
L 416.810625 22.318125 
L 59.690625 22.318125 
z
" style="fill:#ffffff;"/>
   </g>
   <g id="PolyCollection_1">
    <defs>
     <path d="M 119.88336 -230.636427 
L 118.53789 -230.636427 
L 118.421063 -231.635989 
L 118.289085 -232.635551 
L 118.140946 -233.635112 
L 117.975728 -234.634674 
L 117.792626 -235.634236 
L 117.590975 -236.633798 
L 117.370272 -237.63336 
L 117.130191 -238.632922 
L 116.870603 -239.632484 
L 116.591583 -240.632046 
L 116.293409 -241.631608 
L 115.976568 -242.631169 
L 115.641742 -243.630731 
L 115.289792 -244.630293 
L 114.921746 -245.629855 
L 114.538768 -246.629417 
L 114.142138 -247.628979 
L 113.733221 -248.628541 
L 113.313445 -249.628103 
L 112.884276 -250.627664 
L 112.4472 -251.627226 
L 112.003708 -252.626788 
L 111.555291 -253.62635 
L 111.103446 -254.625912 
L 110.649678 -255.625474 
L 110.195526 -256.625036 
L 109.742581 -257.624598 
L 109.292516 -258.624159 
L 108.847118 -259.623721 
L 108.408321 -260.623283 
L 107.978231 -261.622845 
L 107.559148 -262.622407 
L 107.153583 -263.621969 
L 106.764254 -264.621531 
L 106.394079 -265.621093 
L 106.046142 -266.620655 
L 105.723652 -267.620216 
L 105.429883 -268.619778 
L 105.168096 -269.61934 
L 104.941455 -270.618902 
L 104.75293 -271.618464 
L 104.605194 -272.618026 
L 104.50052 -273.617588 
L 104.440688 -274.61715 
L 104.42689 -275.616711 
L 104.459662 -276.616273 
L 104.538827 -277.615835 
L 104.66346 -278.615397 
L 104.831888 -279.614959 
L 105.041702 -280.614521 
L 105.289811 -281.614083 
L 105.572513 -282.613645 
L 105.885594 -283.613206 
L 106.224446 -284.612768 
L 106.584198 -285.61233 
L 106.959863 -286.611892 
L 107.346487 -287.611454 
L 107.739287 -288.611016 
L 108.133795 -289.610578 
L 108.525976 -290.61014 
L 108.912332 -291.609701 
L 109.289977 -292.609263 
L 109.656694 -293.608825 
L 110.010949 -294.608387 
L 110.351897 -295.607949 
L 110.679336 -296.607511 
L 110.993661 -297.607073 
L 111.295775 -298.606635 
L 111.586997 -299.606197 
L 111.868951 -300.605758 
L 112.143457 -301.60532 
L 112.412411 -302.604882 
L 112.677674 -303.604444 
L 112.940976 -304.604006 
L 113.203826 -305.603568 
L 113.467443 -306.60313 
L 113.732705 -307.602692 
L 114.000114 -308.602253 
L 114.269793 -309.601815 
L 114.541487 -310.601377 
L 114.81459 -311.600939 
L 115.088188 -312.600501 
L 115.361107 -313.600063 
L 115.631977 -314.599625 
L 115.899292 -315.599187 
L 116.161479 -316.598748 
L 116.416963 -317.59831 
L 116.664223 -318.597872 
L 116.901848 -319.597434 
L 117.128582 -320.596996 
L 117.343353 -321.596558 
L 117.545304 -322.59612 
L 117.733804 -323.595682 
L 117.908452 -324.595244 
L 118.069073 -325.594805 
L 118.215707 -326.594367 
L 118.348591 -327.593929 
L 118.468134 -328.593491 
L 118.574894 -329.593053 
L 119.846356 -329.593053 
L 119.846356 -329.593053 
L 119.953116 -328.593491 
L 120.072659 -327.593929 
L 120.205543 -326.594367 
L 120.352177 -325.594805 
L 120.512798 -324.595244 
L 120.687446 -323.595682 
L 120.875946 -322.59612 
L 121.077897 -321.596558 
L 121.292668 -320.596996 
L 121.519402 -319.597434 
L 121.757027 -318.597872 
L 122.004287 -317.59831 
L 122.259771 -316.598748 
L 122.521958 -315.599187 
L 122.789273 -314.599625 
L 123.060143 -313.600063 
L 123.333062 -312.600501 
L 123.60666 -311.600939 
L 123.879763 -310.601377 
L 124.151457 -309.601815 
L 124.421136 -308.602253 
L 124.688545 -307.602692 
L 124.953807 -306.60313 
L 125.217424 -305.603568 
L 125.480274 -304.604006 
L 125.743576 -303.604444 
L 126.008839 -302.604882 
L 126.277793 -301.60532 
L 126.552299 -300.605758 
L 126.834253 -299.606197 
L 127.125475 -298.606635 
L 127.427589 -297.607073 
L 127.741914 -296.607511 
L 128.069353 -295.607949 
L 128.410301 -294.608387 
L 128.764556 -293.608825 
L 129.131273 -292.609263 
L 129.508918 -291.609701 
L 129.895274 -290.61014 
L 130.287455 -289.610578 
L 130.681963 -288.611016 
L 131.074763 -287.611454 
L 131.461387 -286.611892 
L 131.837052 -285.61233 
L 132.196804 -284.612768 
L 132.535656 -283.613206 
L 132.848737 -282.613645 
L 133.131439 -281.614083 
L 133.379548 -280.614521 
L 133.589362 -279.614959 
L 133.75779 -278.615397 
L 133.882423 -277.615835 
L 133.961588 -276.616273 
L 133.99436 -275.616711 
L 133.980562 -274.61715 
L 133.92073 -273.617588 
L 133.816056 -272.618026 
L 133.66832 -271.618464 
L 133.479795 -270.618902 
L 133.253154 -269.61934 
L 132.991367 -268.619778 
L 132.697598 -267.620216 
L 132.375108 -266.620655 
L 132.027171 -265.621093 
L 131.656996 -264.621531 
L 131.267667 -263.621969 
L 130.862102 -262.622407 
L 130.443019 -261.622845 
L 130.012929 -260.623283 
L 129.574132 -259.623721 
L 129.128734 -258.624159 
L 128.678669 -257.624598 
L 128.225724 -256.625036 
L 127.771572 -255.625474 
L 127.317804 -254.625912 
L 126.865959 -253.62635 
L 126.417542 -252.626788 
L 125.97405 -251.627226 
L 125.536974 -250.627664 
L 125.107805 -249.628103 
L 124.688029 -248.628541 
L 124.279112 -247.628979 
L 123.882482 -246.629417 
L 123.499504 -245.629855 
L 123.131458 -244.630293 
L 122.779508 -243.630731 
L 122.444682 -242.631169 
L 122.127841 -241.631608 
L 121.829667 -240.632046 
L 121.550647 -239.632484 
L 121.291059 -238.632922 
L 121.050978 -237.63336 
L 120.830275 -236.633798 
L 120.628624 -235.634236 
L 120.445522 -234.634674 
L 120.280304 -233.635112 
L 120.132165 -232.635551 
L 120.000187 -231.635989 
L 119.88336 -230.636427 
z
" id="m4787449fdb" style="stroke:#3f3f3f;stroke-width:1.5;"/>
    </defs>
    <g clip-path="url(#pc962f7370a)">
     <use style="fill:#c03d3e;stroke:#3f3f3f;stroke-width:1.5;" x="0" xlink:href="#m4787449fdb" y="364.007178"/>
    </g>
   </g>
   <g id="PolyCollection_2">
    <defs>
     <path d="M 238.555799 -107.450264 
L 237.945451 -107.450264 
L 237.896963 -109.426335 
L 237.843069 -111.402405 
L 237.783594 -113.378476 
L 237.718436 -115.354547 
L 237.647581 -117.330617 
L 237.571111 -119.306688 
L 237.489215 -121.282758 
L 237.4022 -123.258829 
L 237.310494 -125.2349 
L 237.21465 -127.21097 
L 237.11534 -129.187041 
L 237.013355 -131.163111 
L 236.909589 -133.139182 
L 236.80503 -135.115253 
L 236.700734 -137.091323 
L 236.597804 -139.067394 
L 236.497365 -141.043464 
L 236.400524 -143.019535 
L 236.308346 -144.995606 
L 236.221811 -146.971676 
L 236.141779 -148.947747 
L 236.068956 -150.923817 
L 236.00386 -152.899888 
L 235.946788 -154.875959 
L 235.89779 -156.852029 
L 235.856651 -158.8281 
L 235.822875 -160.804171 
L 235.795674 -162.780241 
L 235.773975 -164.756312 
L 235.756429 -166.732382 
L 235.741423 -168.708453 
L 235.727114 -170.684524 
L 235.711458 -172.660594 
L 235.692258 -174.636665 
L 235.667208 -176.612735 
L 235.633949 -178.588806 
L 235.590131 -180.564877 
L 235.533472 -182.540947 
L 235.461821 -184.517018 
L 235.373225 -186.493088 
L 235.265987 -188.469159 
L 235.138729 -190.44523 
L 234.990438 -192.4213 
L 234.820522 -194.397371 
L 234.628839 -196.373442 
L 234.415735 -198.349512 
L 234.182056 -200.325583 
L 233.929163 -202.301653 
L 233.65892 -204.277724 
L 233.373683 -206.253795 
L 233.07627 -208.229865 
L 232.769918 -210.205936 
L 232.458235 -212.182006 
L 232.145133 -214.158077 
L 231.834757 -216.134148 
L 231.531408 -218.110218 
L 231.239454 -220.086289 
L 230.963243 -222.062359 
L 230.707011 -224.03843 
L 230.474794 -226.014501 
L 230.270339 -227.990571 
L 230.097024 -229.966642 
L 229.957787 -231.942712 
L 229.855059 -233.918783 
L 229.790715 -235.894854 
L 229.766036 -237.870924 
L 229.781681 -239.846995 
L 229.837684 -241.823066 
L 229.933452 -243.799136 
L 230.06779 -245.775207 
L 230.238933 -247.751277 
L 230.444592 -249.727348 
L 230.682014 -251.703419 
L 230.948047 -253.679489 
L 231.239215 -255.65556 
L 231.551797 -257.63163 
L 231.881908 -259.607701 
L 232.225583 -261.583772 
L 232.578855 -263.559842 
L 232.937834 -265.535913 
L 233.298771 -267.511983 
L 233.658127 -269.488054 
L 234.012624 -271.464125 
L 234.359285 -273.440195 
L 234.695476 -275.416266 
L 235.018919 -277.392337 
L 235.327713 -279.368407 
L 235.620333 -281.344478 
L 235.895626 -283.320548 
L 236.152795 -285.296619 
L 236.391378 -287.27269 
L 236.611224 -289.24876 
L 236.812461 -291.224831 
L 236.995459 -293.200901 
L 237.160797 -295.176972 
L 237.30923 -297.153043 
L 237.441645 -299.129113 
L 237.559033 -301.105184 
L 237.662456 -303.081254 
L 238.838794 -303.081254 
L 238.838794 -303.081254 
L 238.942217 -301.105184 
L 239.059605 -299.129113 
L 239.19202 -297.153043 
L 239.340453 -295.176972 
L 239.505791 -293.200901 
L 239.688789 -291.224831 
L 239.890026 -289.24876 
L 240.109872 -287.27269 
L 240.348455 -285.296619 
L 240.605624 -283.320548 
L 240.880917 -281.344478 
L 241.173537 -279.368407 
L 241.482331 -277.392337 
L 241.805774 -275.416266 
L 242.141965 -273.440195 
L 242.488626 -271.464125 
L 242.843123 -269.488054 
L 243.202479 -267.511983 
L 243.563416 -265.535913 
L 243.922395 -263.559842 
L 244.275667 -261.583772 
L 244.619342 -259.607701 
L 244.949453 -257.63163 
L 245.262035 -255.65556 
L 245.553203 -253.679489 
L 245.819236 -251.703419 
L 246.056658 -249.727348 
L 246.262317 -247.751277 
L 246.43346 -245.775207 
L 246.567798 -243.799136 
L 246.663566 -241.823066 
L 246.719569 -239.846995 
L 246.735214 -237.870924 
L 246.710535 -235.894854 
L 246.646191 -233.918783 
L 246.543463 -231.942712 
L 246.404226 -229.966642 
L 246.230911 -227.990571 
L 246.026456 -226.014501 
L 245.794239 -224.03843 
L 245.538007 -222.062359 
L 245.261796 -220.086289 
L 244.969842 -218.110218 
L 244.666493 -216.134148 
L 244.356117 -214.158077 
L 244.043015 -212.182006 
L 243.731332 -210.205936 
L 243.42498 -208.229865 
L 243.127567 -206.253795 
L 242.84233 -204.277724 
L 242.572087 -202.301653 
L 242.319194 -200.325583 
L 242.085515 -198.349512 
L 241.872411 -196.373442 
L 241.680728 -194.397371 
L 241.510812 -192.4213 
L 241.362521 -190.44523 
L 241.235263 -188.469159 
L 241.128025 -186.493088 
L 241.039429 -184.517018 
L 240.967778 -182.540947 
L 240.911119 -180.564877 
L 240.867301 -178.588806 
L 240.834042 -176.612735 
L 240.808992 -174.636665 
L 240.789792 -172.660594 
L 240.774136 -170.684524 
L 240.759827 -168.708453 
L 240.744821 -166.732382 
L 240.727275 -164.756312 
L 240.705576 -162.780241 
L 240.678375 -160.804171 
L 240.644599 -158.8281 
L 240.60346 -156.852029 
L 240.554462 -154.875959 
L 240.49739 -152.899888 
L 240.432294 -150.923817 
L 240.359471 -148.947747 
L 240.279439 -146.971676 
L 240.192904 -144.995606 
L 240.100726 -143.019535 
L 240.003885 -141.043464 
L 239.903446 -139.067394 
L 239.800516 -137.091323 
L 239.69622 -135.115253 
L 239.591661 -133.139182 
L 239.487895 -131.163111 
L 239.38591 -129.187041 
L 239.2866 -127.21097 
L 239.190756 -125.2349 
L 239.09905 -123.258829 
L 239.012035 -121.282758 
L 238.930139 -119.306688 
L 238.853669 -117.330617 
L 238.782814 -115.354547 
L 238.717656 -113.378476 
L 238.658181 -111.402405 
L 238.604287 -109.426335 
L 238.555799 -107.450264 
z
" id="m83fc2f24f7" style="stroke:#3f3f3f;stroke-width:1.5;"/>
    </defs>
    <g clip-path="url(#pc962f7370a)">
     <use style="fill:#3274a1;stroke:#3f3f3f;stroke-width:1.5;" x="0" xlink:href="#m83fc2f24f7" y="364.007178"/>
    </g>
   </g>
   <g id="PolyCollection_3">
    <defs>
     <path d="M 361.963425 -87.673053 
L 352.617825 -87.673053 
L 351.894526 -87.937428 
L 351.089288 -88.201804 
L 350.198137 -88.466179 
L 349.217809 -88.730555 
L 348.145903 -88.99493 
L 346.981046 -89.259305 
L 345.723039 -89.523681 
L 344.372996 -89.788056 
L 342.93347 -90.052432 
L 341.408551 -90.316807 
L 339.803935 -90.581182 
L 338.126964 -90.845558 
L 336.386626 -91.109933 
L 334.593512 -91.374309 
L 332.759731 -91.638684 
L 330.89878 -91.903059 
L 329.025372 -92.167435 
L 327.155211 -92.43181 
L 325.304746 -92.696186 
L 323.49087 -92.960561 
L 321.73061 -93.224936 
L 320.040784 -93.489312 
L 318.437652 -93.753687 
L 316.936569 -94.018063 
L 315.551641 -94.282438 
L 314.295403 -94.546813 
L 313.17853 -94.811189 
L 312.209576 -95.075564 
L 311.394776 -95.33994 
L 310.737887 -95.604315 
L 310.240101 -95.86869 
L 309.900012 -96.133066 
L 309.713659 -96.397441 
L 309.674625 -96.661817 
L 309.774204 -96.926192 
L 310.001628 -97.190567 
L 310.344343 -97.454943 
L 310.788329 -97.719318 
L 311.318465 -97.983694 
L 311.918907 -98.248069 
L 312.573485 -98.512444 
L 313.266111 -98.77682 
L 313.981163 -99.041195 
L 314.703864 -99.305571 
L 315.420625 -99.569946 
L 316.119345 -99.834321 
L 316.789673 -100.098697 
L 317.423211 -100.363072 
L 318.01366 -100.627448 
L 318.556907 -100.891823 
L 319.051043 -101.156198 
L 319.496334 -101.420574 
L 319.895117 -101.684949 
L 320.251655 -101.949325 
L 320.571935 -102.2137 
L 320.863429 -102.478076 
L 321.134821 -102.742451 
L 321.395708 -103.006826 
L 321.656286 -103.271202 
L 321.927029 -103.535577 
L 322.218374 -103.799953 
L 322.540414 -104.064328 
L 322.902616 -104.328703 
L 323.313557 -104.593079 
L 323.780707 -104.857454 
L 324.310237 -105.12183 
L 324.906876 -105.386205 
L 325.573817 -105.65058 
L 326.312651 -105.914956 
L 327.123371 -106.179331 
L 328.004392 -106.443707 
L 328.952633 -106.708082 
L 329.963624 -106.972457 
L 331.031645 -107.236833 
L 332.149892 -107.501208 
L 333.310667 -107.765584 
L 334.505573 -108.029959 
L 335.725724 -108.294334 
L 336.961952 -108.55871 
L 338.205012 -108.823085 
L 339.445777 -109.087461 
L 340.675414 -109.351836 
L 341.88555 -109.616211 
L 343.068407 -109.880587 
L 344.216922 -110.144962 
L 345.324839 -110.409338 
L 346.386769 -110.673713 
L 347.398235 -110.938088 
L 348.355687 -111.202464 
L 349.256495 -111.466839 
L 350.098924 -111.731215 
L 350.882084 -111.99559 
L 351.605876 -112.259965 
L 352.270918 -112.524341 
L 352.878465 -112.788716 
L 353.430324 -113.053092 
L 353.928763 -113.317467 
L 354.376425 -113.581842 
L 354.776238 -113.846218 
L 359.805012 -113.846218 
L 359.805012 -113.846218 
L 360.204825 -113.581842 
L 360.652487 -113.317467 
L 361.150926 -113.053092 
L 361.702785 -112.788716 
L 362.310332 -112.524341 
L 362.975374 -112.259965 
L 363.699166 -111.99559 
L 364.482326 -111.731215 
L 365.324755 -111.466839 
L 366.225563 -111.202464 
L 367.183015 -110.938088 
L 368.194481 -110.673713 
L 369.256411 -110.409338 
L 370.364328 -110.144962 
L 371.512843 -109.880587 
L 372.6957 -109.616211 
L 373.905836 -109.351836 
L 375.135473 -109.087461 
L 376.376238 -108.823085 
L 377.619298 -108.55871 
L 378.855526 -108.294334 
L 380.075677 -108.029959 
L 381.270583 -107.765584 
L 382.431358 -107.501208 
L 383.549605 -107.236833 
L 384.617626 -106.972457 
L 385.628617 -106.708082 
L 386.576858 -106.443707 
L 387.457879 -106.179331 
L 388.268599 -105.914956 
L 389.007433 -105.65058 
L 389.674374 -105.386205 
L 390.271013 -105.12183 
L 390.800543 -104.857454 
L 391.267693 -104.593079 
L 391.678634 -104.328703 
L 392.040836 -104.064328 
L 392.362876 -103.799953 
L 392.654221 -103.535577 
L 392.924964 -103.271202 
L 393.185542 -103.006826 
L 393.446429 -102.742451 
L 393.717821 -102.478076 
L 394.009315 -102.2137 
L 394.329595 -101.949325 
L 394.686133 -101.684949 
L 395.084916 -101.420574 
L 395.530207 -101.156198 
L 396.024343 -100.891823 
L 396.56759 -100.627448 
L 397.158039 -100.363072 
L 397.791577 -100.098697 
L 398.461905 -99.834321 
L 399.160625 -99.569946 
L 399.877386 -99.305571 
L 400.600087 -99.041195 
L 401.315139 -98.77682 
L 402.007765 -98.512444 
L 402.662343 -98.248069 
L 403.262785 -97.983694 
L 403.792921 -97.719318 
L 404.236907 -97.454943 
L 404.579622 -97.190567 
L 404.807046 -96.926192 
L 404.906625 -96.661817 
L 404.867591 -96.397441 
L 404.681238 -96.133066 
L 404.341149 -95.86869 
L 403.843363 -95.604315 
L 403.186474 -95.33994 
L 402.371674 -95.075564 
L 401.40272 -94.811189 
L 400.285847 -94.546813 
L 399.029609 -94.282438 
L 397.644681 -94.018063 
L 396.143598 -93.753687 
L 394.540466 -93.489312 
L 392.85064 -93.224936 
L 391.09038 -92.960561 
L 389.276504 -92.696186 
L 387.426039 -92.43181 
L 385.555878 -92.167435 
L 383.68247 -91.903059 
L 381.821519 -91.638684 
L 379.987738 -91.374309 
L 378.194624 -91.109933 
L 376.454286 -90.845558 
L 374.777315 -90.581182 
L 373.172699 -90.316807 
L 371.64778 -90.052432 
L 370.208254 -89.788056 
L 368.858211 -89.523681 
L 367.600204 -89.259305 
L 366.435347 -88.99493 
L 365.363441 -88.730555 
L 364.383113 -88.466179 
L 363.491962 -88.201804 
L 362.686724 -87.937428 
L 361.963425 -87.673053 
z
" id="m279d666c22" style="stroke:#3f3f3f;stroke-width:1.5;"/>
    </defs>
    <g clip-path="url(#pc962f7370a)">
     <use style="fill:#9fd495;stroke:#3f3f3f;stroke-width:1.5;" x="0" xlink:href="#m279d666c22" y="364.007178"/>
    </g>
   </g>
   <g id="matplotlib.axis_1">
    <g id="xtick_1">
     <g id="line2d_1">
      <defs>
       <path d="M 0 0 
L 0 3.5 
" id="m895924dac1" style="stroke:#000000;stroke-width:0.8;"/>
      </defs>
      <g>
       <use style="stroke:#000000;stroke-width:0.8;" x="119.210625" xlink:href="#m895924dac1" y="288.430125"/>
      </g>
     </g>
     <g id="text_1">
      <!-- entropic -->
      <g transform="translate(82.628557 322.530877)rotate(-30)scale(0.1 -0.1)">
       <defs>
        <path d="M 56.203125 29.59375 
L 56.203125 25.203125 
L 14.890625 25.203125 
Q 15.484375 15.921875 20.484375 11.0625 
Q 25.484375 6.203125 34.421875 6.203125 
Q 39.59375 6.203125 44.453125 7.46875 
Q 49.3125 8.734375 54.109375 11.28125 
L 54.109375 2.78125 
Q 49.265625 0.734375 44.1875 -0.34375 
Q 39.109375 -1.421875 33.890625 -1.421875 
Q 20.796875 -1.421875 13.15625 6.1875 
Q 5.515625 13.8125 5.515625 26.8125 
Q 5.515625 40.234375 12.765625 48.109375 
Q 20.015625 56 32.328125 56 
Q 43.359375 56 49.78125 48.890625 
Q 56.203125 41.796875 56.203125 29.59375 
z
M 47.21875 32.234375 
Q 47.125 39.59375 43.09375 43.984375 
Q 39.0625 48.390625 32.421875 48.390625 
Q 24.90625 48.390625 20.390625 44.140625 
Q 15.875 39.890625 15.1875 32.171875 
z
" id="DejaVuSans-101"/>
        <path d="M 54.890625 33.015625 
L 54.890625 0 
L 45.90625 0 
L 45.90625 32.71875 
Q 45.90625 40.484375 42.875 44.328125 
Q 39.84375 48.1875 33.796875 48.1875 
Q 26.515625 48.1875 22.3125 43.546875 
Q 18.109375 38.921875 18.109375 30.90625 
L 18.109375 0 
L 9.078125 0 
L 9.078125 54.6875 
L 18.109375 54.6875 
L 18.109375 46.1875 
Q 21.34375 51.125 25.703125 53.5625 
Q 30.078125 56 35.796875 56 
Q 45.21875 56 50.046875 50.171875 
Q 54.890625 44.34375 54.890625 33.015625 
z
" id="DejaVuSans-110"/>
        <path d="M 18.3125 70.21875 
L 18.3125 54.6875 
L 36.8125 54.6875 
L 36.8125 47.703125 
L 18.3125 47.703125 
L 18.3125 18.015625 
Q 18.3125 11.328125 20.140625 9.421875 
Q 21.96875 7.515625 27.59375 7.515625 
L 36.8125 7.515625 
L 36.8125 0 
L 27.59375 0 
Q 17.1875 0 13.234375 3.875 
Q 9.28125 7.765625 9.28125 18.015625 
L 9.28125 47.703125 
L 2.6875 47.703125 
L 2.6875 54.6875 
L 9.28125 54.6875 
L 9.28125 70.21875 
z
" id="DejaVuSans-116"/>
        <path d="M 41.109375 46.296875 
Q 39.59375 47.171875 37.8125 47.578125 
Q 36.03125 48 33.890625 48 
Q 26.265625 48 22.1875 43.046875 
Q 18.109375 38.09375 18.109375 28.8125 
L 18.109375 0 
L 9.078125 0 
L 9.078125 54.6875 
L 18.109375 54.6875 
L 18.109375 46.1875 
Q 20.953125 51.171875 25.484375 53.578125 
Q 30.03125 56 36.53125 56 
Q 37.453125 56 38.578125 55.875 
Q 39.703125 55.765625 41.0625 55.515625 
z
" id="DejaVuSans-114"/>
        <path d="M 30.609375 48.390625 
Q 23.390625 48.390625 19.1875 42.75 
Q 14.984375 37.109375 14.984375 27.296875 
Q 14.984375 17.484375 19.15625 11.84375 
Q 23.34375 6.203125 30.609375 6.203125 
Q 37.796875 6.203125 41.984375 11.859375 
Q 46.1875 17.53125 46.1875 27.296875 
Q 46.1875 37.015625 41.984375 42.703125 
Q 37.796875 48.390625 30.609375 48.390625 
z
M 30.609375 56 
Q 42.328125 56 49.015625 48.375 
Q 55.71875 40.765625 55.71875 27.296875 
Q 55.71875 13.875 49.015625 6.21875 
Q 42.328125 -1.421875 30.609375 -1.421875 
Q 18.84375 -1.421875 12.171875 6.21875 
Q 5.515625 13.875 5.515625 27.296875 
Q 5.515625 40.765625 12.171875 48.375 
Q 18.84375 56 30.609375 56 
z
" id="DejaVuSans-111"/>
        <path d="M 18.109375 8.203125 
L 18.109375 -20.796875 
L 9.078125 -20.796875 
L 9.078125 54.6875 
L 18.109375 54.6875 
L 18.109375 46.390625 
Q 20.953125 51.265625 25.265625 53.625 
Q 29.59375 56 35.59375 56 
Q 45.5625 56 51.78125 48.09375 
Q 58.015625 40.1875 58.015625 27.296875 
Q 58.015625 14.40625 51.78125 6.484375 
Q 45.5625 -1.421875 35.59375 -1.421875 
Q 29.59375 -1.421875 25.265625 0.953125 
Q 20.953125 3.328125 18.109375 8.203125 
z
M 48.6875 27.296875 
Q 48.6875 37.203125 44.609375 42.84375 
Q 40.53125 48.484375 33.40625 48.484375 
Q 26.265625 48.484375 22.1875 42.84375 
Q 18.109375 37.203125 18.109375 27.296875 
Q 18.109375 17.390625 22.1875 11.75 
Q 26.265625 6.109375 33.40625 6.109375 
Q 40.53125 6.109375 44.609375 11.75 
Q 48.6875 17.390625 48.6875 27.296875 
z
" id="DejaVuSans-112"/>
        <path d="M 9.421875 54.6875 
L 18.40625 54.6875 
L 18.40625 0 
L 9.421875 0 
z
M 9.421875 75.984375 
L 18.40625 75.984375 
L 18.40625 64.59375 
L 9.421875 64.59375 
z
" id="DejaVuSans-105"/>
        <path d="M 48.78125 52.59375 
L 48.78125 44.1875 
Q 44.96875 46.296875 41.140625 47.34375 
Q 37.3125 48.390625 33.40625 48.390625 
Q 24.65625 48.390625 19.8125 42.84375 
Q 14.984375 37.3125 14.984375 27.296875 
Q 14.984375 17.28125 19.8125 11.734375 
Q 24.65625 6.203125 33.40625 6.203125 
Q 37.3125 6.203125 41.140625 7.25 
Q 44.96875 8.296875 48.78125 10.40625 
L 48.78125 2.09375 
Q 45.015625 0.34375 40.984375 -0.53125 
Q 36.96875 -1.421875 32.421875 -1.421875 
Q 20.0625 -1.421875 12.78125 6.34375 
Q 5.515625 14.109375 5.515625 27.296875 
Q 5.515625 40.671875 12.859375 48.328125 
Q 20.21875 56 33.015625 56 
Q 37.15625 56 41.109375 55.140625 
Q 45.0625 54.296875 48.78125 52.59375 
z
" id="DejaVuSans-99"/>
       </defs>
       <use xlink:href="#DejaVuSans-101"/>
       <use x="61.523438" xlink:href="#DejaVuSans-110"/>
       <use x="124.902344" xlink:href="#DejaVuSans-116"/>
       <use x="164.111328" xlink:href="#DejaVuSans-114"/>
       <use x="202.974609" xlink:href="#DejaVuSans-111"/>
       <use x="264.15625" xlink:href="#DejaVuSans-112"/>
       <use x="327.632812" xlink:href="#DejaVuSans-105"/>
       <use x="355.416016" xlink:href="#DejaVuSans-99"/>
      </g>
     </g>
    </g>
    <g id="xtick_2">
     <g id="line2d_2">
      <g>
       <use style="stroke:#000000;stroke-width:0.8;" x="238.250625" xlink:href="#m895924dac1" y="288.430125"/>
      </g>
     </g>
     <g id="text_2">
      <!-- aflplusplus -->
      <g transform="translate(190.641618 328.897284)rotate(-30)scale(0.1 -0.1)">
       <defs>
        <path d="M 34.28125 27.484375 
Q 23.390625 27.484375 19.1875 25 
Q 14.984375 22.515625 14.984375 16.5 
Q 14.984375 11.71875 18.140625 8.90625 
Q 21.296875 6.109375 26.703125 6.109375 
Q 34.1875 6.109375 38.703125 11.40625 
Q 43.21875 16.703125 43.21875 25.484375 
L 43.21875 27.484375 
z
M 52.203125 31.203125 
L 52.203125 0 
L 43.21875 0 
L 43.21875 8.296875 
Q 40.140625 3.328125 35.546875 0.953125 
Q 30.953125 -1.421875 24.3125 -1.421875 
Q 15.921875 -1.421875 10.953125 3.296875 
Q 6 8.015625 6 15.921875 
Q 6 25.140625 12.171875 29.828125 
Q 18.359375 34.515625 30.609375 34.515625 
L 43.21875 34.515625 
L 43.21875 35.40625 
Q 43.21875 41.609375 39.140625 45 
Q 35.0625 48.390625 27.6875 48.390625 
Q 23 48.390625 18.546875 47.265625 
Q 14.109375 46.140625 10.015625 43.890625 
L 10.015625 52.203125 
Q 14.9375 54.109375 19.578125 55.046875 
Q 24.21875 56 28.609375 56 
Q 40.484375 56 46.34375 49.84375 
Q 52.203125 43.703125 52.203125 31.203125 
z
" id="DejaVuSans-97"/>
        <path d="M 37.109375 75.984375 
L 37.109375 68.5 
L 28.515625 68.5 
Q 23.6875 68.5 21.796875 66.546875 
Q 19.921875 64.59375 19.921875 59.515625 
L 19.921875 54.6875 
L 34.71875 54.6875 
L 34.71875 47.703125 
L 19.921875 47.703125 
L 19.921875 0 
L 10.890625 0 
L 10.890625 47.703125 
L 2.296875 47.703125 
L 2.296875 54.6875 
L 10.890625 54.6875 
L 10.890625 58.5 
Q 10.890625 67.625 15.140625 71.796875 
Q 19.390625 75.984375 28.609375 75.984375 
z
" id="DejaVuSans-102"/>
        <path d="M 9.421875 75.984375 
L 18.40625 75.984375 
L 18.40625 0 
L 9.421875 0 
z
" id="DejaVuSans-108"/>
        <path d="M 8.5 21.578125 
L 8.5 54.6875 
L 17.484375 54.6875 
L 17.484375 21.921875 
Q 17.484375 14.15625 20.5 10.265625 
Q 23.53125 6.390625 29.59375 6.390625 
Q 36.859375 6.390625 41.078125 11.03125 
Q 45.3125 15.671875 45.3125 23.6875 
L 45.3125 54.6875 
L 54.296875 54.6875 
L 54.296875 0 
L 45.3125 0 
L 45.3125 8.40625 
Q 42.046875 3.421875 37.71875 1 
Q 33.40625 -1.421875 27.6875 -1.421875 
Q 18.265625 -1.421875 13.375 4.4375 
Q 8.5 10.296875 8.5 21.578125 
z
M 31.109375 56 
z
" id="DejaVuSans-117"/>
        <path d="M 44.28125 53.078125 
L 44.28125 44.578125 
Q 40.484375 46.53125 36.375 47.5 
Q 32.28125 48.484375 27.875 48.484375 
Q 21.1875 48.484375 17.84375 46.4375 
Q 14.5 44.390625 14.5 40.28125 
Q 14.5 37.15625 16.890625 35.375 
Q 19.28125 33.59375 26.515625 31.984375 
L 29.59375 31.296875 
Q 39.15625 29.25 43.1875 25.515625 
Q 47.21875 21.78125 47.21875 15.09375 
Q 47.21875 7.46875 41.1875 3.015625 
Q 35.15625 -1.421875 24.609375 -1.421875 
Q 20.21875 -1.421875 15.453125 -0.5625 
Q 10.6875 0.296875 5.421875 2 
L 5.421875 11.28125 
Q 10.40625 8.6875 15.234375 7.390625 
Q 20.0625 6.109375 24.8125 6.109375 
Q 31.15625 6.109375 34.5625 8.28125 
Q 37.984375 10.453125 37.984375 14.40625 
Q 37.984375 18.0625 35.515625 20.015625 
Q 33.0625 21.96875 24.703125 23.78125 
L 21.578125 24.515625 
Q 13.234375 26.265625 9.515625 29.90625 
Q 5.8125 33.546875 5.8125 39.890625 
Q 5.8125 47.609375 11.28125 51.796875 
Q 16.75 56 26.8125 56 
Q 31.78125 56 36.171875 55.265625 
Q 40.578125 54.546875 44.28125 53.078125 
z
" id="DejaVuSans-115"/>
       </defs>
       <use xlink:href="#DejaVuSans-97"/>
       <use x="61.279297" xlink:href="#DejaVuSans-102"/>
       <use x="96.484375" xlink:href="#DejaVuSans-108"/>
       <use x="124.267578" xlink:href="#DejaVuSans-112"/>
       <use x="187.744141" xlink:href="#DejaVuSans-108"/>
       <use x="215.527344" xlink:href="#DejaVuSans-117"/>
       <use x="278.90625" xlink:href="#DejaVuSans-115"/>
       <use x="331.005859" xlink:href="#DejaVuSans-112"/>
       <use x="394.482422" xlink:href="#DejaVuSans-108"/>
       <use x="422.265625" xlink:href="#DejaVuSans-117"/>
       <use x="485.644531" xlink:href="#DejaVuSans-115"/>
      </g>
     </g>
    </g>
    <g id="xtick_3">
     <g id="line2d_3">
      <g>
       <use style="stroke:#000000;stroke-width:0.8;" x="357.290625" xlink:href="#m895924dac1" y="288.430125"/>
      </g>
     </g>
     <g id="text_3">
      <!-- aflplusplus_hier -->
      <g transform="translate(288.429127 341.087127)rotate(-30)scale(0.1 -0.1)">
       <defs>
        <path d="M 50.984375 -16.609375 
L 50.984375 -23.578125 
L -0.984375 -23.578125 
L -0.984375 -16.609375 
z
" id="DejaVuSans-95"/>
        <path d="M 54.890625 33.015625 
L 54.890625 0 
L 45.90625 0 
L 45.90625 32.71875 
Q 45.90625 40.484375 42.875 44.328125 
Q 39.84375 48.1875 33.796875 48.1875 
Q 26.515625 48.1875 22.3125 43.546875 
Q 18.109375 38.921875 18.109375 30.90625 
L 18.109375 0 
L 9.078125 0 
L 9.078125 75.984375 
L 18.109375 75.984375 
L 18.109375 46.1875 
Q 21.34375 51.125 25.703125 53.5625 
Q 30.078125 56 35.796875 56 
Q 45.21875 56 50.046875 50.171875 
Q 54.890625 44.34375 54.890625 33.015625 
z
" id="DejaVuSans-104"/>
       </defs>
       <use xlink:href="#DejaVuSans-97"/>
       <use x="61.279297" xlink:href="#DejaVuSans-102"/>
       <use x="96.484375" xlink:href="#DejaVuSans-108"/>
       <use x="124.267578" xlink:href="#DejaVuSans-112"/>
       <use x="187.744141" xlink:href="#DejaVuSans-108"/>
       <use x="215.527344" xlink:href="#DejaVuSans-117"/>
       <use x="278.90625" xlink:href="#DejaVuSans-115"/>
       <use x="331.005859" xlink:href="#DejaVuSans-112"/>
       <use x="394.482422" xlink:href="#DejaVuSans-108"/>
       <use x="422.265625" xlink:href="#DejaVuSans-117"/>
       <use x="485.644531" xlink:href="#DejaVuSans-115"/>
       <use x="537.744141" xlink:href="#DejaVuSans-95"/>
       <use x="587.744141" xlink:href="#DejaVuSans-104"/>
       <use x="651.123047" xlink:href="#DejaVuSans-105"/>
       <use x="678.90625" xlink:href="#DejaVuSans-101"/>
       <use x="740.429688" xlink:href="#DejaVuSans-114"/>
      </g>
     </g>
    </g>
    <g id="text_4">
     <!-- Fuzzer (highest median coverage on the left) -->
     <g transform="translate(125.632656 354.72749)scale(0.1 -0.1)">
      <defs>
       <path d="M 9.8125 72.90625 
L 51.703125 72.90625 
L 51.703125 64.59375 
L 19.671875 64.59375 
L 19.671875 43.109375 
L 48.578125 43.109375 
L 48.578125 34.8125 
L 19.671875 34.8125 
L 19.671875 0 
L 9.8125 0 
z
" id="DejaVuSans-70"/>
       <path d="M 5.515625 54.6875 
L 48.1875 54.6875 
L 48.1875 46.484375 
L 14.40625 7.171875 
L 48.1875 7.171875 
L 48.1875 0 
L 4.296875 0 
L 4.296875 8.203125 
L 38.09375 47.515625 
L 5.515625 47.515625 
z
" id="DejaVuSans-122"/>
       <path id="DejaVuSans-32"/>
       <path d="M 31 75.875 
Q 24.46875 64.65625 21.28125 53.65625 
Q 18.109375 42.671875 18.109375 31.390625 
Q 18.109375 20.125 21.3125 9.0625 
Q 24.515625 -2 31 -13.1875 
L 23.1875 -13.1875 
Q 15.875 -1.703125 12.234375 9.375 
Q 8.59375 20.453125 8.59375 31.390625 
Q 8.59375 42.28125 12.203125 53.3125 
Q 15.828125 64.359375 23.1875 75.875 
z
" id="DejaVuSans-40"/>
       <path d="M 45.40625 27.984375 
Q 45.40625 37.75 41.375 43.109375 
Q 37.359375 48.484375 30.078125 48.484375 
Q 22.859375 48.484375 18.828125 43.109375 
Q 14.796875 37.75 14.796875 27.984375 
Q 14.796875 18.265625 18.828125 12.890625 
Q 22.859375 7.515625 30.078125 7.515625 
Q 37.359375 7.515625 41.375 12.890625 
Q 45.40625 18.265625 45.40625 27.984375 
z
M 54.390625 6.78125 
Q 54.390625 -7.171875 48.1875 -13.984375 
Q 42 -20.796875 29.203125 -20.796875 
Q 24.46875 -20.796875 20.265625 -20.09375 
Q 16.0625 -19.390625 12.109375 -17.921875 
L 12.109375 -9.1875 
Q 16.0625 -11.328125 19.921875 -12.34375 
Q 23.78125 -13.375 27.78125 -13.375 
Q 36.625 -13.375 41.015625 -8.765625 
Q 45.40625 -4.15625 45.40625 5.171875 
L 45.40625 9.625 
Q 42.625 4.78125 38.28125 2.390625 
Q 33.9375 0 27.875 0 
Q 17.828125 0 11.671875 7.65625 
Q 5.515625 15.328125 5.515625 27.984375 
Q 5.515625 40.671875 11.671875 48.328125 
Q 17.828125 56 27.875 56 
Q 33.9375 56 38.28125 53.609375 
Q 42.625 51.21875 45.40625 46.390625 
L 45.40625 54.6875 
L 54.390625 54.6875 
z
" id="DejaVuSans-103"/>
       <path d="M 52 44.1875 
Q 55.375 50.25 60.0625 53.125 
Q 64.75 56 71.09375 56 
Q 79.640625 56 84.28125 50.015625 
Q 88.921875 44.046875 88.921875 33.015625 
L 88.921875 0 
L 79.890625 0 
L 79.890625 32.71875 
Q 79.890625 40.578125 77.09375 44.375 
Q 74.3125 48.1875 68.609375 48.1875 
Q 61.625 48.1875 57.5625 43.546875 
Q 53.515625 38.921875 53.515625 30.90625 
L 53.515625 0 
L 44.484375 0 
L 44.484375 32.71875 
Q 44.484375 40.625 41.703125 44.40625 
Q 38.921875 48.1875 33.109375 48.1875 
Q 26.21875 48.1875 22.15625 43.53125 
Q 18.109375 38.875 18.109375 30.90625 
L 18.109375 0 
L 9.078125 0 
L 9.078125 54.6875 
L 18.109375 54.6875 
L 18.109375 46.1875 
Q 21.1875 51.21875 25.484375 53.609375 
Q 29.78125 56 35.6875 56 
Q 41.65625 56 45.828125 52.96875 
Q 50 49.953125 52 44.1875 
z
" id="DejaVuSans-109"/>
       <path d="M 45.40625 46.390625 
L 45.40625 75.984375 
L 54.390625 75.984375 
L 54.390625 0 
L 45.40625 0 
L 45.40625 8.203125 
Q 42.578125 3.328125 38.25 0.953125 
Q 33.9375 -1.421875 27.875 -1.421875 
Q 17.96875 -1.421875 11.734375 6.484375 
Q 5.515625 14.40625 5.515625 27.296875 
Q 5.515625 40.1875 11.734375 48.09375 
Q 17.96875 56 27.875 56 
Q 33.9375 56 38.25 53.625 
Q 42.578125 51.265625 45.40625 46.390625 
z
M 14.796875 27.296875 
Q 14.796875 17.390625 18.875 11.75 
Q 22.953125 6.109375 30.078125 6.109375 
Q 37.203125 6.109375 41.296875 11.75 
Q 45.40625 17.390625 45.40625 27.296875 
Q 45.40625 37.203125 41.296875 42.84375 
Q 37.203125 48.484375 30.078125 48.484375 
Q 22.953125 48.484375 18.875 42.84375 
Q 14.796875 37.203125 14.796875 27.296875 
z
" id="DejaVuSans-100"/>
       <path d="M 2.984375 54.6875 
L 12.5 54.6875 
L 29.59375 8.796875 
L 46.6875 54.6875 
L 56.203125 54.6875 
L 35.6875 0 
L 23.484375 0 
z
" id="DejaVuSans-118"/>
       <path d="M 8.015625 75.875 
L 15.828125 75.875 
Q 23.140625 64.359375 26.78125 53.3125 
Q 30.421875 42.28125 30.421875 31.390625 
Q 30.421875 20.453125 26.78125 9.375 
Q 23.140625 -1.703125 15.828125 -13.1875 
L 8.015625 -13.1875 
Q 14.5 -2 17.703125 9.0625 
Q 20.90625 20.125 20.90625 31.390625 
Q 20.90625 42.671875 17.703125 53.65625 
Q 14.5 64.65625 8.015625 75.875 
z
" id="DejaVuSans-41"/>
      </defs>
      <use xlink:href="#DejaVuSans-70"/>
      <use x="52.019531" xlink:href="#DejaVuSans-117"/>
      <use x="115.398438" xlink:href="#DejaVuSans-122"/>
      <use x="167.888672" xlink:href="#DejaVuSans-122"/>
      <use x="220.378906" xlink:href="#DejaVuSans-101"/>
      <use x="281.902344" xlink:href="#DejaVuSans-114"/>
      <use x="323.015625" xlink:href="#DejaVuSans-32"/>
      <use x="354.802734" xlink:href="#DejaVuSans-40"/>
      <use x="393.816406" xlink:href="#DejaVuSans-104"/>
      <use x="457.195312" xlink:href="#DejaVuSans-105"/>
      <use x="484.978516" xlink:href="#DejaVuSans-103"/>
      <use x="548.455078" xlink:href="#DejaVuSans-104"/>
      <use x="611.833984" xlink:href="#DejaVuSans-101"/>
      <use x="673.357422" xlink:href="#DejaVuSans-115"/>
      <use x="725.457031" xlink:href="#DejaVuSans-116"/>
      <use x="764.666016" xlink:href="#DejaVuSans-32"/>
      <use x="796.453125" xlink:href="#DejaVuSans-109"/>
      <use x="893.865234" xlink:href="#DejaVuSans-101"/>
      <use x="955.388672" xlink:href="#DejaVuSans-100"/>
      <use x="1018.865234" xlink:href="#DejaVuSans-105"/>
      <use x="1046.648438" xlink:href="#DejaVuSans-97"/>
      <use x="1107.927734" xlink:href="#DejaVuSans-110"/>
      <use x="1171.306641" xlink:href="#DejaVuSans-32"/>
      <use x="1203.09375" xlink:href="#DejaVuSans-99"/>
      <use x="1258.074219" xlink:href="#DejaVuSans-111"/>
      <use x="1319.255859" xlink:href="#DejaVuSans-118"/>
      <use x="1378.435547" xlink:href="#DejaVuSans-101"/>
      <use x="1439.958984" xlink:href="#DejaVuSans-114"/>
      <use x="1481.072266" xlink:href="#DejaVuSans-97"/>
      <use x="1542.351562" xlink:href="#DejaVuSans-103"/>
      <use x="1605.828125" xlink:href="#DejaVuSans-101"/>
      <use x="1667.351562" xlink:href="#DejaVuSans-32"/>
      <use x="1699.138672" xlink:href="#DejaVuSans-111"/>
      <use x="1760.320312" xlink:href="#DejaVuSans-110"/>
      <use x="1823.699219" xlink:href="#DejaVuSans-32"/>
      <use x="1855.486328" xlink:href="#DejaVuSans-116"/>
      <use x="1894.695312" xlink:href="#DejaVuSans-104"/>
      <use x="1958.074219" xlink:href="#DejaVuSans-101"/>
      <use x="2019.597656" xlink:href="#DejaVuSans-32"/>
      <use x="2051.384766" xlink:href="#DejaVuSans-108"/>
      <use x="2079.167969" xlink:href="#DejaVuSans-101"/>
      <use x="2140.691406" xlink:href="#DejaVuSans-102"/>
      <use x="2174.146484" xlink:href="#DejaVuSans-116"/>
      <use x="2213.355469" xlink:href="#DejaVuSans-41"/>
     </g>
    </g>
   </g>
   <g id="matplotlib.axis_2">
    <g id="ytick_1">
     <g id="line2d_4">
      <defs>
       <path d="M 0 0 
L -3.5 0 
" id="me7eeaa1ed9" style="stroke:#000000;stroke-width:0.8;"/>
      </defs>
      <g>
       <use style="stroke:#000000;stroke-width:0.8;" x="59.690625" xlink:href="#me7eeaa1ed9" y="285.843461"/>
      </g>
     </g>
     <g id="text_5">
      <!-- 13680 -->
      <g transform="translate(20.878125 289.64268)scale(0.1 -0.1)">
       <defs>
        <path d="M 12.40625 8.296875 
L 28.515625 8.296875 
L 28.515625 63.921875 
L 10.984375 60.40625 
L 10.984375 69.390625 
L 28.421875 72.90625 
L 38.28125 72.90625 
L 38.28125 8.296875 
L 54.390625 8.296875 
L 54.390625 0 
L 12.40625 0 
z
" id="DejaVuSans-49"/>
        <path d="M 40.578125 39.3125 
Q 47.65625 37.796875 51.625 33 
Q 55.609375 28.21875 55.609375 21.1875 
Q 55.609375 10.40625 48.1875 4.484375 
Q 40.765625 -1.421875 27.09375 -1.421875 
Q 22.515625 -1.421875 17.65625 -0.515625 
Q 12.796875 0.390625 7.625 2.203125 
L 7.625 11.71875 
Q 11.71875 9.328125 16.59375 8.109375 
Q 21.484375 6.890625 26.8125 6.890625 
Q 36.078125 6.890625 40.9375 10.546875 
Q 45.796875 14.203125 45.796875 21.1875 
Q 45.796875 27.640625 41.28125 31.265625 
Q 36.765625 34.90625 28.71875 34.90625 
L 20.21875 34.90625 
L 20.21875 43.015625 
L 29.109375 43.015625 
Q 36.375 43.015625 40.234375 45.921875 
Q 44.09375 48.828125 44.09375 54.296875 
Q 44.09375 59.90625 40.109375 62.90625 
Q 36.140625 65.921875 28.71875 65.921875 
Q 24.65625 65.921875 20.015625 65.03125 
Q 15.375 64.15625 9.8125 62.3125 
L 9.8125 71.09375 
Q 15.4375 72.65625 20.34375 73.4375 
Q 25.25 74.21875 29.59375 74.21875 
Q 40.828125 74.21875 47.359375 69.109375 
Q 53.90625 64.015625 53.90625 55.328125 
Q 53.90625 49.265625 50.4375 45.09375 
Q 46.96875 40.921875 40.578125 39.3125 
z
" id="DejaVuSans-51"/>
        <path d="M 33.015625 40.375 
Q 26.375 40.375 22.484375 35.828125 
Q 18.609375 31.296875 18.609375 23.390625 
Q 18.609375 15.53125 22.484375 10.953125 
Q 26.375 6.390625 33.015625 6.390625 
Q 39.65625 6.390625 43.53125 10.953125 
Q 47.40625 15.53125 47.40625 23.390625 
Q 47.40625 31.296875 43.53125 35.828125 
Q 39.65625 40.375 33.015625 40.375 
z
M 52.59375 71.296875 
L 52.59375 62.3125 
Q 48.875 64.0625 45.09375 64.984375 
Q 41.3125 65.921875 37.59375 65.921875 
Q 27.828125 65.921875 22.671875 59.328125 
Q 17.53125 52.734375 16.796875 39.40625 
Q 19.671875 43.65625 24.015625 45.921875 
Q 28.375 48.1875 33.59375 48.1875 
Q 44.578125 48.1875 50.953125 41.515625 
Q 57.328125 34.859375 57.328125 23.390625 
Q 57.328125 12.15625 50.6875 5.359375 
Q 44.046875 -1.421875 33.015625 -1.421875 
Q 20.359375 -1.421875 13.671875 8.265625 
Q 6.984375 17.96875 6.984375 36.375 
Q 6.984375 53.65625 15.1875 63.9375 
Q 23.390625 74.21875 37.203125 74.21875 
Q 40.921875 74.21875 44.703125 73.484375 
Q 48.484375 72.75 52.59375 71.296875 
z
" id="DejaVuSans-54"/>
        <path d="M 31.78125 34.625 
Q 24.75 34.625 20.71875 30.859375 
Q 16.703125 27.09375 16.703125 20.515625 
Q 16.703125 13.921875 20.71875 10.15625 
Q 24.75 6.390625 31.78125 6.390625 
Q 38.8125 6.390625 42.859375 10.171875 
Q 46.921875 13.96875 46.921875 20.515625 
Q 46.921875 27.09375 42.890625 30.859375 
Q 38.875 34.625 31.78125 34.625 
z
M 21.921875 38.8125 
Q 15.578125 40.375 12.03125 44.71875 
Q 8.5 49.078125 8.5 55.328125 
Q 8.5 64.0625 14.71875 69.140625 
Q 20.953125 74.21875 31.78125 74.21875 
Q 42.671875 74.21875 48.875 69.140625 
Q 55.078125 64.0625 55.078125 55.328125 
Q 55.078125 49.078125 51.53125 44.71875 
Q 48 40.375 41.703125 38.8125 
Q 48.828125 37.15625 52.796875 32.3125 
Q 56.78125 27.484375 56.78125 20.515625 
Q 56.78125 9.90625 50.3125 4.234375 
Q 43.84375 -1.421875 31.78125 -1.421875 
Q 19.734375 -1.421875 13.25 4.234375 
Q 6.78125 9.90625 6.78125 20.515625 
Q 6.78125 27.484375 10.78125 32.3125 
Q 14.796875 37.15625 21.921875 38.8125 
z
M 18.3125 54.390625 
Q 18.3125 48.734375 21.84375 45.5625 
Q 25.390625 42.390625 31.78125 42.390625 
Q 38.140625 42.390625 41.71875 45.5625 
Q 45.3125 48.734375 45.3125 54.390625 
Q 45.3125 60.0625 41.71875 63.234375 
Q 38.140625 66.40625 31.78125 66.40625 
Q 25.390625 66.40625 21.84375 63.234375 
Q 18.3125 60.0625 18.3125 54.390625 
z
" id="DejaVuSans-56"/>
        <path d="M 31.78125 66.40625 
Q 24.171875 66.40625 20.328125 58.90625 
Q 16.5 51.421875 16.5 36.375 
Q 16.5 21.390625 20.328125 13.890625 
Q 24.171875 6.390625 31.78125 6.390625 
Q 39.453125 6.390625 43.28125 13.890625 
Q 47.125 21.390625 47.125 36.375 
Q 47.125 51.421875 43.28125 58.90625 
Q 39.453125 66.40625 31.78125 66.40625 
z
M 31.78125 74.21875 
Q 44.046875 74.21875 50.515625 64.515625 
Q 56.984375 54.828125 56.984375 36.375 
Q 56.984375 17.96875 50.515625 8.265625 
Q 44.046875 -1.421875 31.78125 -1.421875 
Q 19.53125 -1.421875 13.0625 8.265625 
Q 6.59375 17.96875 6.59375 36.375 
Q 6.59375 54.828125 13.0625 64.515625 
Q 19.53125 74.21875 31.78125 74.21875 
z
" id="DejaVuSans-48"/>
       </defs>
       <use xlink:href="#DejaVuSans-49"/>
       <use x="63.623047" xlink:href="#DejaVuSans-51"/>
       <use x="127.246094" xlink:href="#DejaVuSans-54"/>
       <use x="190.869141" xlink:href="#DejaVuSans-56"/>
       <use x="254.492188" xlink:href="#DejaVuSans-48"/>
      </g>
     </g>
    </g>
    <g id="ytick_2">
     <g id="line2d_5">
      <g>
       <use style="stroke:#000000;stroke-width:0.8;" x="59.690625" xlink:href="#me7eeaa1ed9" y="229.353665"/>
      </g>
     </g>
     <g id="text_6">
      <!-- 13700 -->
      <g transform="translate(20.878125 233.152883)scale(0.1 -0.1)">
       <defs>
        <path d="M 8.203125 72.90625 
L 55.078125 72.90625 
L 55.078125 68.703125 
L 28.609375 0 
L 18.3125 0 
L 43.21875 64.59375 
L 8.203125 64.59375 
z
" id="DejaVuSans-55"/>
       </defs>
       <use xlink:href="#DejaVuSans-49"/>
       <use x="63.623047" xlink:href="#DejaVuSans-51"/>
       <use x="127.246094" xlink:href="#DejaVuSans-55"/>
       <use x="190.869141" xlink:href="#DejaVuSans-48"/>
       <use x="254.492188" xlink:href="#DejaVuSans-48"/>
      </g>
     </g>
    </g>
    <g id="ytick_3">
     <g id="line2d_6">
      <g>
       <use style="stroke:#000000;stroke-width:0.8;" x="59.690625" xlink:href="#me7eeaa1ed9" y="172.863868"/>
      </g>
     </g>
     <g id="text_7">
      <!-- 13720 -->
      <g transform="translate(20.878125 176.663087)scale(0.1 -0.1)">
       <defs>
        <path d="M 19.1875 8.296875 
L 53.609375 8.296875 
L 53.609375 0 
L 7.328125 0 
L 7.328125 8.296875 
Q 12.9375 14.109375 22.625 23.890625 
Q 32.328125 33.6875 34.8125 36.53125 
Q 39.546875 41.84375 41.421875 45.53125 
Q 43.3125 49.21875 43.3125 52.78125 
Q 43.3125 58.59375 39.234375 62.25 
Q 35.15625 65.921875 28.609375 65.921875 
Q 23.96875 65.921875 18.8125 64.3125 
Q 13.671875 62.703125 7.8125 59.421875 
L 7.8125 69.390625 
Q 13.765625 71.78125 18.9375 73 
Q 24.125 74.21875 28.421875 74.21875 
Q 39.75 74.21875 46.484375 68.546875 
Q 53.21875 62.890625 53.21875 53.421875 
Q 53.21875 48.921875 51.53125 44.890625 
Q 49.859375 40.875 45.40625 35.40625 
Q 44.1875 33.984375 37.640625 27.21875 
Q 31.109375 20.453125 19.1875 8.296875 
z
" id="DejaVuSans-50"/>
       </defs>
       <use xlink:href="#DejaVuSans-49"/>
       <use x="63.623047" xlink:href="#DejaVuSans-51"/>
       <use x="127.246094" xlink:href="#DejaVuSans-55"/>
       <use x="190.869141" xlink:href="#DejaVuSans-50"/>
       <use x="254.492188" xlink:href="#DejaVuSans-48"/>
      </g>
     </g>
    </g>
    <g id="ytick_4">
     <g id="line2d_7">
      <g>
       <use style="stroke:#000000;stroke-width:0.8;" x="59.690625" xlink:href="#me7eeaa1ed9" y="116.374071"/>
      </g>
     </g>
     <g id="text_8">
      <!-- 13740 -->
      <g transform="translate(20.878125 120.17329)scale(0.1 -0.1)">
       <defs>
        <path d="M 37.796875 64.3125 
L 12.890625 25.390625 
L 37.796875 25.390625 
z
M 35.203125 72.90625 
L 47.609375 72.90625 
L 47.609375 25.390625 
L 58.015625 25.390625 
L 58.015625 17.1875 
L 47.609375 17.1875 
L 47.609375 0 
L 37.796875 0 
L 37.796875 17.1875 
L 4.890625 17.1875 
L 4.890625 26.703125 
z
" id="DejaVuSans-52"/>
       </defs>
       <use xlink:href="#DejaVuSans-49"/>
       <use x="63.623047" xlink:href="#DejaVuSans-51"/>
       <use x="127.246094" xlink:href="#DejaVuSans-55"/>
       <use x="190.869141" xlink:href="#DejaVuSans-52"/>
       <use x="254.492188" xlink:href="#DejaVuSans-48"/>
      </g>
     </g>
    </g>
    <g id="ytick_5">
     <g id="line2d_8">
      <g>
       <use style="stroke:#000000;stroke-width:0.8;" x="59.690625" xlink:href="#me7eeaa1ed9" y="59.884274"/>
      </g>
     </g>
     <g id="text_9">
      <!-- 13760 -->
      <g transform="translate(20.878125 63.683493)scale(0.1 -0.1)">
       <use xlink:href="#DejaVuSans-49"/>
       <use x="63.623047" xlink:href="#DejaVuSans-51"/>
       <use x="127.246094" xlink:href="#DejaVuSans-55"/>
       <use x="190.869141" xlink:href="#DejaVuSans-54"/>
       <use x="254.492188" xlink:href="#DejaVuSans-48"/>
      </g>
     </g>
    </g>
    <g id="text_10">
     <!-- Reached region coverage -->
     <g transform="translate(14.798438 219.136625)rotate(-90)scale(0.1 -0.1)">
      <defs>
       <path d="M 44.390625 34.1875 
Q 47.5625 33.109375 50.5625 29.59375 
Q 53.5625 26.078125 56.59375 19.921875 
L 66.609375 0 
L 56 0 
L 46.6875 18.703125 
Q 43.0625 26.03125 39.671875 28.421875 
Q 36.28125 30.8125 30.421875 30.8125 
L 19.671875 30.8125 
L 19.671875 0 
L 9.8125 0 
L 9.8125 72.90625 
L 32.078125 72.90625 
Q 44.578125 72.90625 50.734375 67.671875 
Q 56.890625 62.453125 56.890625 51.90625 
Q 56.890625 45.015625 53.6875 40.46875 
Q 50.484375 35.9375 44.390625 34.1875 
z
M 19.671875 64.796875 
L 19.671875 38.921875 
L 32.078125 38.921875 
Q 39.203125 38.921875 42.84375 42.21875 
Q 46.484375 45.515625 46.484375 51.90625 
Q 46.484375 58.296875 42.84375 61.546875 
Q 39.203125 64.796875 32.078125 64.796875 
z
" id="DejaVuSans-82"/>
      </defs>
      <use xlink:href="#DejaVuSans-82"/>
      <use x="64.982422" xlink:href="#DejaVuSans-101"/>
      <use x="126.505859" xlink:href="#DejaVuSans-97"/>
      <use x="187.785156" xlink:href="#DejaVuSans-99"/>
      <use x="242.765625" xlink:href="#DejaVuSans-104"/>
      <use x="306.144531" xlink:href="#DejaVuSans-101"/>
      <use x="367.667969" xlink:href="#DejaVuSans-100"/>
      <use x="431.144531" xlink:href="#DejaVuSans-32"/>
      <use x="462.931641" xlink:href="#DejaVuSans-114"/>
      <use x="501.794922" xlink:href="#DejaVuSans-101"/>
      <use x="563.318359" xlink:href="#DejaVuSans-103"/>
      <use x="626.794922" xlink:href="#DejaVuSans-105"/>
      <use x="654.578125" xlink:href="#DejaVuSans-111"/>
      <use x="715.759766" xlink:href="#DejaVuSans-110"/>
      <use x="779.138672" xlink:href="#DejaVuSans-32"/>
      <use x="810.925781" xlink:href="#DejaVuSans-99"/>
      <use x="865.90625" xlink:href="#DejaVuSans-111"/>
      <use x="927.087891" xlink:href="#DejaVuSans-118"/>
      <use x="986.267578" xlink:href="#DejaVuSans-101"/>
      <use x="1047.791016" xlink:href="#DejaVuSans-114"/>
      <use x="1088.904297" xlink:href="#DejaVuSans-97"/>
      <use x="1150.183594" xlink:href="#DejaVuSans-103"/>
      <use x="1213.660156" xlink:href="#DejaVuSans-101"/>
     </g>
    </g>
   </g>
   <g id="line2d_9">
    <path clip-path="url(#pc962f7370a)" d="M 119.210625 107.900602 
L 119.210625 82.480193 
" style="fill:none;stroke:#3f3f3f;stroke-linecap:square;stroke-width:1.5;"/>
   </g>
   <g id="line2d_10">
    <path clip-path="url(#pc962f7370a)" d="M 119.210625 93.778152 
L 119.210625 82.480193 
" style="fill:none;stroke:#3f3f3f;stroke-linecap:square;stroke-width:4.5;"/>
   </g>
   <g id="line2d_11">
    <path clip-path="url(#pc962f7370a)" d="M 238.250625 136.1455 
L 238.250625 113.549581 
" style="fill:none;stroke:#3f3f3f;stroke-linecap:square;stroke-width:1.5;"/>
   </g>
   <g id="line2d_12">
    <path clip-path="url(#pc962f7370a)" d="M 238.250625 136.1455 
L 238.250625 119.198561 
" style="fill:none;stroke:#3f3f3f;stroke-linecap:square;stroke-width:4.5;"/>
   </g>
   <g id="line2d_13">
    <path clip-path="url(#pc962f7370a)" d="M 357.290625 268.896522 
L 357.290625 257.598563 
" style="fill:none;stroke:#3f3f3f;stroke-linecap:square;stroke-width:1.5;"/>
   </g>
   <g id="line2d_14">
    <path clip-path="url(#pc962f7370a)" d="M 357.290625 268.896522 
L 357.290625 260.423053 
" style="fill:none;stroke:#3f3f3f;stroke-linecap:square;stroke-width:4.5;"/>
   </g>
   <g id="patch_3">
    <path d="M 59.690625 285.843461 
L 59.690625 59.884274 
" style="fill:none;stroke:#000000;stroke-linecap:square;stroke-linejoin:miter;stroke-width:0.8;"/>
   </g>
   <g id="patch_4">
    <path d="M 119.210625 288.430125 
L 357.290625 288.430125 
" style="fill:none;stroke:#000000;stroke-linecap:square;stroke-linejoin:miter;stroke-width:0.8;"/>
   </g>
   <g id="PathCollection_1">
    <defs>
     <path d="M 0 1.5 
C 0.397805 1.5 0.77937 1.341951 1.06066 1.06066 
C 1.341951 0.77937 1.5 0.397805 1.5 0 
C 1.5 -0.397805 1.341951 -0.77937 1.06066 -1.06066 
C 0.77937 -1.341951 0.397805 -1.5 0 -1.5 
C -0.397805 -1.5 -0.77937 -1.341951 -1.06066 -1.06066 
C -1.341951 -0.77937 -1.5 -0.397805 -1.5 0 
C -1.5 0.397805 -1.341951 0.77937 -1.06066 1.06066 
C -0.77937 1.341951 -0.397805 1.5 0 1.5 
z
" id="md1f4349b55" style="stroke:#3f3f3f;"/>
    </defs>
    <g clip-path="url(#pc962f7370a)">
     <use style="fill:#ffffff;stroke:#3f3f3f;" x="119.210625" xlink:href="#md1f4349b55" y="85.304683"/>
    </g>
   </g>
   <g id="PathCollection_2">
    <g clip-path="url(#pc962f7370a)">
     <use style="fill:#ffffff;stroke:#3f3f3f;" x="238.250625" xlink:href="#md1f4349b55" y="133.32101"/>
    </g>
   </g>
   <g id="PathCollection_3">
    <g clip-path="url(#pc962f7370a)">
     <use style="fill:#ffffff;stroke:#3f3f3f;" x="357.290625" xlink:href="#md1f4349b55" y="266.072032"/>
    </g>
   </g>
   <g id="text_11">
    <!-- openssl_x509 (2h, 5 trials/fuzzer) -->
    <g transform="translate(138.259688 16.318125)scale(0.12 -0.12)">
     <defs>
      <path d="M 54.890625 54.6875 
L 35.109375 28.078125 
L 55.90625 0 
L 45.3125 0 
L 29.390625 21.484375 
L 13.484375 0 
L 2.875 0 
L 24.125 28.609375 
L 4.6875 54.6875 
L 15.28125 54.6875 
L 29.78125 35.203125 
L 44.28125 54.6875 
z
" id="DejaVuSans-120"/>
      <path d="M 10.796875 72.90625 
L 49.515625 72.90625 
L 49.515625 64.59375 
L 19.828125 64.59375 
L 19.828125 46.734375 
Q 21.96875 47.46875 24.109375 47.828125 
Q 26.265625 48.1875 28.421875 48.1875 
Q 40.625 48.1875 47.75 41.5 
Q 54.890625 34.8125 54.890625 23.390625 
Q 54.890625 11.625 47.5625 5.09375 
Q 40.234375 -1.421875 26.90625 -1.421875 
Q 22.3125 -1.421875 17.546875 -0.640625 
Q 12.796875 0.140625 7.71875 1.703125 
L 7.71875 11.625 
Q 12.109375 9.234375 16.796875 8.0625 
Q 21.484375 6.890625 26.703125 6.890625 
Q 35.15625 6.890625 40.078125 11.328125 
Q 45.015625 15.765625 45.015625 23.390625 
Q 45.015625 31 40.078125 35.4375 
Q 35.15625 39.890625 26.703125 39.890625 
Q 22.75 39.890625 18.8125 39.015625 
Q 14.890625 38.140625 10.796875 36.28125 
z
" id="DejaVuSans-53"/>
      <path d="M 10.984375 1.515625 
L 10.984375 10.5 
Q 14.703125 8.734375 18.5 7.8125 
Q 22.3125 6.890625 25.984375 6.890625 
Q 35.75 6.890625 40.890625 13.453125 
Q 46.046875 20.015625 46.78125 33.40625 
Q 43.953125 29.203125 39.59375 26.953125 
Q 35.25 24.703125 29.984375 24.703125 
Q 19.046875 24.703125 12.671875 31.3125 
Q 6.296875 37.9375 6.296875 49.421875 
Q 6.296875 60.640625 12.9375 67.421875 
Q 19.578125 74.21875 30.609375 74.21875 
Q 43.265625 74.21875 49.921875 64.515625 
Q 56.59375 54.828125 56.59375 36.375 
Q 56.59375 19.140625 48.40625 8.859375 
Q 40.234375 -1.421875 26.421875 -1.421875 
Q 22.703125 -1.421875 18.890625 -0.6875 
Q 15.09375 0.046875 10.984375 1.515625 
z
M 30.609375 32.421875 
Q 37.25 32.421875 41.125 36.953125 
Q 45.015625 41.5 45.015625 49.421875 
Q 45.015625 57.28125 41.125 61.84375 
Q 37.25 66.40625 30.609375 66.40625 
Q 23.96875 66.40625 20.09375 61.84375 
Q 16.21875 57.28125 16.21875 49.421875 
Q 16.21875 41.5 20.09375 36.953125 
Q 23.96875 32.421875 30.609375 32.421875 
z
" id="DejaVuSans-57"/>
      <path d="M 11.71875 12.40625 
L 22.015625 12.40625 
L 22.015625 4 
L 14.015625 -11.625 
L 7.71875 -11.625 
L 11.71875 4 
z
" id="DejaVuSans-44"/>
      <path d="M 25.390625 72.90625 
L 33.6875 72.90625 
L 8.296875 -9.28125 
L 0 -9.28125 
z
" id="DejaVuSans-47"/>
     </defs>
     <use xlink:href="#DejaVuSans-111"/>
     <use x="61.181641" xlink:href="#DejaVuSans-112"/>
     <use x="124.658203" xlink:href="#DejaVuSans-101"/>
     <use x="186.181641" xlink:href="#DejaVuSans-110"/>
     <use x="249.560547" xlink:href="#DejaVuSans-115"/>
     <use x="301.660156" xlink:href="#DejaVuSans-115"/>
     <use x="353.759766" xlink:href="#DejaVuSans-108"/>
     <use x="381.542969" xlink:href="#DejaVuSans-95"/>
     <use x="431.542969" xlink:href="#DejaVuSans-120"/>
     <use x="490.722656" xlink:href="#DejaVuSans-53"/>
     <use x="554.345703" xlink:href="#DejaVuSans-48"/>
     <use x="617.96875" xlink:href="#DejaVuSans-57"/>
     <use x="681.591797" xlink:href="#DejaVuSans-32"/>
     <use x="713.378906" xlink:href="#DejaVuSans-40"/>
     <use x="752.392578" xlink:href="#DejaVuSans-50"/>
     <use x="816.015625" xlink:href="#DejaVuSans-104"/>
     <use x="879.394531" xlink:href="#DejaVuSans-44"/>
     <use x="911.181641" xlink:href="#DejaVuSans-32"/>
     <use x="942.96875" xlink:href="#DejaVuSans-53"/>
     <use x="1006.591797" xlink:href="#DejaVuSans-32"/>
     <use x="1038.378906" xlink:href="#DejaVuSans-116"/>
     <use x="1077.587891" xlink:href="#DejaVuSans-114"/>
     <use x="1118.701172" xlink:href="#DejaVuSans-105"/>
     <use x="1146.484375" xlink:href="#DejaVuSans-97"/>
     <use x="1207.763672" xlink:href="#DejaVuSans-108"/>
     <use x="1235.546875" xlink:href="#DejaVuSans-115"/>
     <use x="1287.646484" xlink:href="#DejaVuSans-47"/>
     <use x="1321.337891" xlink:href="#DejaVuSans-102"/>
     <use x="1356.542969" xlink:href="#DejaVuSans-117"/>
     <use x="1419.921875" xlink:href="#DejaVuSans-122"/>
     <use x="1472.412109" xlink:href="#DejaVuSans-122"/>
     <use x="1524.902344" xlink:href="#DejaVuSans-101"/>
     <use x="1586.425781" xlink:href="#DejaVuSans-114"/>
     <use x="1627.539062" xlink:href="#DejaVuSans-41"/>
    </g>
   </g>
  </g>
 </g>
 <defs>
  <clipPath id="pc962f7370a">
   <rect height="266.112" width="357.12" x="59.690625" y="22.318125"/>
  </clipPath>
 </defs>
</svg>
