<?xml version="1.0" encoding="utf-8" standalone="no"?>
<!DOCTYPE svg PUBLIC "-//W3C//DTD SVG 1.1//EN"
  "http://www.w3.org/Graphics/SVG/1.1/DTD/svg11.dtd">
<!-- Created with matplotlib (https://matplotlib.org/) -->
<svg height="364.007178pt" version="1.1" viewBox="0 0 424.010625 364.007178" width="424.010625pt" xmlns="http://www.w3.org/2000/svg" xmlns:xlink="http://www.w3.org/1999/xlink">
 <metadata>
  <rdf:RDF xmlns:cc="http://creativecommons.org/ns#" xmlns:dc="http://purl.org/dc/elements/1.1/" xmlns:rdf="http://www.w3.org/1999/02/22-rdf-syntax-ns#">
   <cc:Work>
    <dc:type rdf:resource="http://purl.org/dc/dcmitype/StillImage"/>
    <dc:date>2020-11-08T21:44:10.430567</dc:date>
    <dc:format>image/svg+xml</dc:format>
    <dc:creator>
     <cc:Agent>
      <dc:title>Matplotlib v3.3.2, https://matplotlib.org/</dc:title>
     </cc:Agent>
    </dc:creator>
   </cc:Work>
  </rdf:RDF>
 </metadata>
 <defs>
  <style type="text/css">*{stroke-linecap:butt;stroke-linejoin:round;}</style>
 </defs>
 <g id="figure_1">
  <g id="patch_1">
   <path d="M 0 364.007178 
L 424.010625 364.007178 
L 424.010625 0 
L 0 0 
z
" style="fill:#ffffff;"/>
  </g>
  <g id="axes_1">
   <g id="patch_2">
    <path d="M 59.690625 288.430125 
L 416.810625 288.430125 
L 416.810625 22.318125 
L 59.690625 22.318125 
z
" style="fill:#ffffff;"/>
   </g>
   <g id="PolyCollection_1">
    <defs>
     <path d="M 120.010235 -166.795568 
L 118.411015 -166.795568 
L 118.289071 -168.439987 
L 118.153334 -170.084406 
L 118.003076 -171.728825 
L 117.837672 -173.373244 
L 117.656616 -175.017663 
L 117.459553 -176.662082 
L 117.246303 -178.306501 
L 117.016878 -179.950921 
L 116.771512 -181.59534 
L 116.51067 -183.239759 
L 116.235073 -184.884178 
L 115.9457 -186.528597 
L 115.643797 -188.173016 
L 115.330876 -189.817435 
L 115.008709 -191.461854 
L 114.679315 -193.106273 
L 114.344937 -194.750692 
L 114.008021 -196.395111 
L 113.671177 -198.03953 
L 113.337145 -199.683949 
L 113.008747 -201.328368 
L 112.688841 -202.972787 
L 112.380269 -204.617206 
L 112.0858 -206.261625 
L 111.808077 -207.906044 
L 111.549563 -209.550463 
L 111.312489 -211.194882 
L 111.098802 -212.839301 
L 110.910126 -214.48372 
L 110.747718 -216.128139 
L 110.612443 -217.772558 
L 110.504747 -219.416977 
L 110.424647 -221.061396 
L 110.371724 -222.705815 
L 110.345135 -224.350235 
L 110.34362 -225.994654 
L 110.365536 -227.639073 
L 110.40889 -229.283492 
L 110.471377 -230.927911 
L 110.550441 -232.57233 
L 110.643325 -234.216749 
L 110.747137 -235.861168 
L 110.858917 -237.505587 
L 110.975702 -239.150006 
L 111.094602 -240.794425 
L 111.212859 -242.438844 
L 111.327919 -244.083263 
L 111.437487 -245.727682 
L 111.539582 -247.372101 
L 111.632585 -249.01652 
L 111.71527 -250.660939 
L 111.786838 -252.305358 
L 111.846926 -253.949777 
L 111.895615 -255.594196 
L 111.933422 -257.238615 
L 111.961281 -258.883034 
L 111.980513 -260.527453 
L 111.992784 -262.171872 
L 112.00006 -263.816291 
L 112.004545 -265.46071 
L 112.008621 -267.10513 
L 112.014778 -268.749549 
L 112.025544 -270.393968 
L 112.043416 -272.038387 
L 112.070786 -273.682806 
L 112.109883 -275.327225 
L 112.162706 -276.971644 
L 112.230978 -278.616063 
L 112.316095 -280.260482 
L 112.419097 -281.904901 
L 112.540644 -283.54932 
L 112.681002 -285.193739 
L 112.84004 -286.838158 
L 113.017246 -288.482577 
L 113.211739 -290.126996 
L 113.422304 -291.771415 
L 113.647426 -293.415834 
L 113.885334 -295.060253 
L 114.134048 -296.704672 
L 114.391436 -298.349091 
L 114.65526 -299.99351 
L 114.923236 -301.637929 
L 115.193079 -303.282348 
L 115.462558 -304.926767 
L 115.729534 -306.571186 
L 115.992004 -308.215605 
L 116.248128 -309.860024 
L 116.49626 -311.504444 
L 116.734967 -313.148863 
L 116.963038 -314.793282 
L 117.179491 -316.437701 
L 117.383577 -318.08212 
L 117.57477 -319.726539 
L 117.752756 -321.370958 
L 117.917423 -323.015377 
L 118.068839 -324.659796 
L 118.207235 -326.304215 
L 118.332979 -327.948634 
L 118.44656 -329.593053 
L 119.97469 -329.593053 
L 119.97469 -329.593053 
L 120.088271 -327.948634 
L 120.214015 -326.304215 
L 120.352411 -324.659796 
L 120.503827 -323.015377 
L 120.668494 -321.370958 
L 120.84648 -319.726539 
L 121.037673 -318.08212 
L 121.241759 -316.437701 
L 121.458212 -314.793282 
L 121.686283 -313.148863 
L 121.92499 -311.504444 
L 122.173122 -309.860024 
L 122.429246 -308.215605 
L 122.691716 -306.571186 
L 122.958692 -304.926767 
L 123.228171 -303.282348 
L 123.498014 -301.637929 
L 123.76599 -299.99351 
L 124.029814 -298.349091 
L 124.287202 -296.704672 
L 124.535916 -295.060253 
L 124.773824 -293.415834 
L 124.998946 -291.771415 
L 125.209511 -290.126996 
L 125.404004 -288.482577 
L 125.58121 -286.838158 
L 125.740248 -285.193739 
L 125.880606 -283.54932 
L 126.002153 -281.904901 
L 126.105155 -280.260482 
L 126.190272 -278.616063 
L 126.258544 -276.971644 
L 126.311367 -275.327225 
L 126.350464 -273.682806 
L 126.377834 -272.038387 
L 126.395706 -270.393968 
L 126.406472 -268.749549 
L 126.412629 -267.10513 
L 126.416705 -265.46071 
L 126.42119 -263.816291 
L 126.428466 -262.171872 
L 126.440737 -260.527453 
L 126.459969 -258.883034 
L 126.487828 -257.238615 
L 126.525635 -255.594196 
L 126.574324 -253.949777 
L 126.634412 -252.305358 
L 126.70598 -250.660939 
L 126.788665 -249.01652 
L 126.881668 -247.372101 
L 126.983763 -245.727682 
L 127.093331 -244.083263 
L 127.208391 -242.438844 
L 127.326648 -240.794425 
L 127.445548 -239.150006 
L 127.562333 -237.505587 
L 127.674113 -235.861168 
L 127.777925 -234.216749 
L 127.870809 -232.57233 
L 127.949873 -230.927911 
L 128.01236 -229.283492 
L 128.055714 -227.639073 
L 128.07763 -225.994654 
L 128.076115 -224.350235 
L 128.049526 -222.705815 
L 127.996603 -221.061396 
L 127.916503 -219.416977 
L 127.808807 -217.772558 
L 127.673532 -216.128139 
L 127.511124 -214.48372 
L 127.322448 -212.839301 
L 127.108761 -211.194882 
L 126.871687 -209.550463 
L 126.613173 -207.906044 
L 126.33545 -206.261625 
L 126.040981 -204.617206 
L 125.732409 -202.972787 
L 125.412503 -201.328368 
L 125.084105 -199.683949 
L 124.750073 -198.03953 
L 124.413229 -196.395111 
L 124.076313 -194.750692 
L 123.741935 -193.106273 
L 123.412541 -191.461854 
L 123.090374 -189.817435 
L 122.777453 -188.173016 
L 122.47555 -186.528597 
L 122.186177 -184.884178 
L 121.91058 -183.239759 
L 121.649738 -181.59534 
L 121.404372 -179.950921 
L 121.174947 -178.306501 
L 120.961697 -176.662082 
L 120.764634 -175.017663 
L 120.583578 -173.373244 
L 120.418174 -171.728825 
L 120.267916 -170.084406 
L 120.132179 -168.439987 
L 120.010235 -166.795568 
z
" id="m3085d262b7" style="stroke:#3f3f3f;stroke-width:1.5;"/>
    </defs>
    <g clip-path="url(#p387ea1bf28)">
     <use style="fill:#c03d3e;stroke:#3f3f3f;stroke-width:1.5;" x="0" xlink:href="#m3085d262b7" y="364.007178"/>
    </g>
   </g>
   <g id="PolyCollection_2">
    <defs>
     <path d="M 240.843364 -120.761291 
L 235.657886 -120.761291 
L 235.195292 -121.164773 
L 234.668989 -121.568254 
L 234.073847 -121.971736 
L 233.404964 -122.375217 
L 232.657794 -122.778699 
L 231.828283 -123.18218 
L 230.913011 -123.585662 
L 229.909333 -123.989144 
L 228.815519 -124.392625 
L 227.630882 -124.796107 
L 226.355906 -125.199588 
L 224.992343 -125.60307 
L 223.543302 -126.006551 
L 222.013309 -126.410033 
L 220.408337 -126.813514 
L 218.735818 -127.216996 
L 217.004612 -127.620477 
L 215.224951 -128.023959 
L 213.408349 -128.42744 
L 211.567487 -128.830922 
L 209.716068 -129.234404 
L 207.868643 -129.637885 
L 206.04042 -130.041367 
L 204.247059 -130.444848 
L 202.504443 -130.84833 
L 200.828451 -131.251811 
L 199.234722 -131.655293 
L 197.738412 -132.058774 
L 196.353966 -132.462256 
L 195.094887 -132.865737 
L 193.97352 -133.269219 
L 193.000847 -133.6727 
L 192.186295 -134.076182 
L 191.537571 -134.479664 
L 191.060509 -134.883145 
L 190.758946 -135.286627 
L 190.634625 -135.690108 
L 190.687125 -136.09359 
L 190.913824 -136.497071 
L 191.309902 -136.900553 
L 191.868373 -137.304034 
L 192.580166 -137.707516 
L 193.434245 -138.110997 
L 194.417766 -138.514479 
L 195.516283 -138.91796 
L 196.713995 -139.321442 
L 197.99402 -139.724924 
L 199.338717 -140.128405 
L 200.730021 -140.531887 
L 202.149806 -140.935368 
L 203.580251 -141.33885 
L 205.004215 -141.742331 
L 206.405591 -142.145813 
L 207.769645 -142.549294 
L 209.083323 -142.952776 
L 210.335506 -143.356257 
L 211.517226 -143.759739 
L 212.621813 -144.16322 
L 213.644976 -144.566702 
L 214.584822 -144.970184 
L 215.4418 -145.373665 
L 216.218577 -145.777147 
L 216.919851 -146.180628 
L 217.55211 -146.58411 
L 218.123338 -146.987591 
L 218.642685 -147.391073 
L 219.120113 -147.794554 
L 219.566031 -148.198036 
L 219.990925 -148.601517 
L 220.405012 -149.004999 
L 220.817906 -149.40848 
L 221.238334 -149.811962 
L 221.673889 -150.215443 
L 222.130842 -150.618925 
L 222.614003 -151.022407 
L 223.126646 -151.425888 
L 223.670493 -151.82937 
L 224.245752 -152.232851 
L 224.851206 -152.636333 
L 225.484342 -153.039814 
L 226.141525 -153.443296 
L 226.818192 -153.846777 
L 227.509067 -154.250259 
L 228.208379 -154.65374 
L 228.910088 -155.057222 
L 229.608096 -155.460703 
L 230.296441 -155.864185 
L 230.969473 -156.267667 
L 231.622 -156.671148 
L 232.249405 -157.07463 
L 232.847736 -157.478111 
L 233.41376 -157.881593 
L 233.944991 -158.285074 
L 234.439687 -158.688556 
L 234.896829 -159.092037 
L 235.316075 -159.495519 
L 235.697699 -159.899 
L 236.042522 -160.302482 
L 236.351825 -160.705963 
L 240.149425 -160.705963 
L 240.149425 -160.705963 
L 240.458728 -160.302482 
L 240.803551 -159.899 
L 241.185175 -159.495519 
L 241.604421 -159.092037 
L 242.061563 -158.688556 
L 242.556259 -158.285074 
L 243.08749 -157.881593 
L 243.653514 -157.478111 
L 244.251845 -157.07463 
L 244.87925 -156.671148 
L 245.531777 -156.267667 
L 246.204809 -155.864185 
L 246.893154 -155.460703 
L 247.591162 -155.057222 
L 248.292871 -154.65374 
L 248.992183 -154.250259 
L 249.683058 -153.846777 
L 250.359725 -153.443296 
L 251.016908 -153.039814 
L 251.650044 -152.636333 
L 252.255498 -152.232851 
L 252.830757 -151.82937 
L 253.374604 -151.425888 
L 253.887247 -151.022407 
L 254.370408 -150.618925 
L 254.827361 -150.215443 
L 255.262916 -149.811962 
L 255.683344 -149.40848 
L 256.096238 -149.004999 
L 256.510325 -148.601517 
L 256.935219 -148.198036 
L 257.381137 -147.794554 
L 257.858565 -147.391073 
L 258.377912 -146.987591 
L 258.94914 -146.58411 
L 259.581399 -146.180628 
L 260.282673 -145.777147 
L 261.05945 -145.373665 
L 261.916428 -144.970184 
L 262.856274 -144.566702 
L 263.879437 -144.16322 
L 264.984024 -143.759739 
L 266.165744 -143.356257 
L 267.417927 -142.952776 
L 268.731605 -142.549294 
L 270.095659 -142.145813 
L 271.497035 -141.742331 
L 272.920999 -141.33885 
L 274.351444 -140.935368 
L 275.771229 -140.531887 
L 277.162533 -140.128405 
L 278.50723 -139.724924 
L 279.787255 -139.321442 
L 280.984967 -138.91796 
L 282.083484 -138.514479 
L 283.067005 -138.110997 
L 283.921084 -137.707516 
L 284.632877 -137.304034 
L 285.191348 -136.900553 
L 285.587426 -136.497071 
L 285.814125 -136.09359 
L 285.866625 -135.690108 
L 285.742304 -135.286627 
L 285.440741 -134.883145 
L 284.963679 -134.479664 
L 284.314955 -134.076182 
L 283.500403 -133.6727 
L 282.52773 -133.269219 
L 281.406363 -132.865737 
L 280.147284 -132.462256 
L 278.762838 -132.058774 
L 277.266528 -131.655293 
L 275.672799 -131.251811 
L 273.996807 -130.84833 
L 272.254191 -130.444848 
L 270.46083 -130.041367 
L 268.632607 -129.637885 
L 266.785182 -129.234404 
L 264.933763 -128.830922 
L 263.092901 -128.42744 
L 261.276299 -128.023959 
L 259.496638 -127.620477 
L 257.765432 -127.216996 
L 256.092913 -126.813514 
L 254.487941 -126.410033 
L 252.957948 -126.006551 
L 251.508907 -125.60307 
L 250.145344 -125.199588 
L 248.870368 -124.796107 
L 247.685731 -124.392625 
L 246.591917 -123.989144 
L 245.588239 -123.585662 
L 244.672967 -123.18218 
L 243.843456 -122.778699 
L 243.096286 -122.375217 
L 242.427403 -121.971736 
L 241.832261 -121.568254 
L 241.305958 -121.164773 
L 240.843364 -120.761291 
z
" id="ma6ac87fb5c" style="stroke:#3f3f3f;stroke-width:1.5;"/>
    </defs>
    <g clip-path="url(#p387ea1bf28)">
     <use style="fill:#9fd495;stroke:#3f3f3f;stroke-width:1.5;" x="0" xlink:href="#ma6ac87fb5c" y="364.007178"/>
    </g>
   </g>
   <g id="PolyCollection_3">
    <defs>
     <path d="M 358.233565 -87.673053 
L 356.347685 -87.673053 
L 356.178901 -88.858208 
L 355.986717 -90.043363 
L 355.76922 -91.228518 
L 355.52458 -92.413674 
L 355.251097 -93.598829 
L 354.947256 -94.783984 
L 354.611781 -95.969139 
L 354.243693 -97.154294 
L 353.842365 -98.33945 
L 353.407577 -99.524605 
L 352.939566 -100.70976 
L 352.43907 -101.894915 
L 351.907368 -103.08007 
L 351.346304 -104.265225 
L 350.758304 -105.450381 
L 350.146386 -106.635536 
L 349.514145 -107.820691 
L 348.865737 -109.005846 
L 348.205838 -110.191001 
L 347.539596 -111.376157 
L 346.872569 -112.561312 
L 346.210646 -113.746467 
L 345.559962 -114.931622 
L 344.926802 -116.116777 
L 344.317498 -117.301933 
L 343.738322 -118.487088 
L 343.195372 -119.672243 
L 342.694465 -120.857398 
L 342.241028 -122.042553 
L 341.839992 -123.227708 
L 341.495702 -124.412864 
L 341.211825 -125.598019 
L 340.991278 -126.783174 
L 340.836167 -127.968329 
L 340.747738 -129.153484 
L 340.726347 -130.33864 
L 340.771446 -131.523795 
L 340.881582 -132.70895 
L 341.054423 -133.894105 
L 341.286788 -135.07926 
L 341.574708 -136.264415 
L 341.91349 -137.449571 
L 342.297806 -138.634726 
L 342.721789 -139.819881 
L 343.179144 -141.005036 
L 343.663265 -142.190191 
L 344.167367 -143.375347 
L 344.684611 -144.560502 
L 345.208239 -145.745657 
L 345.731708 -146.930812 
L 346.248812 -148.115967 
L 346.753805 -149.301122 
L 347.241503 -150.486278 
L 347.707388 -151.671433 
L 348.147676 -152.856588 
L 348.559381 -154.041743 
L 348.940357 -155.226898 
L 349.289308 -156.412054 
L 349.60579 -157.597209 
L 349.890179 -158.782364 
L 350.143627 -159.967519 
L 350.367994 -161.152674 
L 350.565758 -162.337829 
L 350.73992 -163.522985 
L 350.89389 -164.70814 
L 351.031367 -165.893295 
L 351.156216 -167.07845 
L 351.272344 -168.263605 
L 351.38358 -169.448761 
L 351.493563 -170.633916 
L 351.60564 -171.819071 
L 351.722783 -173.004226 
L 351.847515 -174.189381 
L 351.981858 -175.374537 
L 352.127302 -176.559692 
L 352.284791 -177.744847 
L 352.454725 -178.930002 
L 352.636985 -180.115157 
L 352.830972 -181.300312 
L 353.035654 -182.485468 
L 353.249634 -183.670623 
L 353.471213 -184.855778 
L 353.69847 -186.040933 
L 353.929335 -187.226088 
L 354.161662 -188.411244 
L 354.393304 -189.596399 
L 354.622174 -190.781554 
L 354.846304 -191.966709 
L 355.063893 -193.151864 
L 355.27334 -194.337019 
L 355.473278 -195.522175 
L 355.662588 -196.70733 
L 355.840407 -197.892485 
L 356.006124 -199.07764 
L 356.159377 -200.262795 
L 356.30003 -201.447951 
L 356.428158 -202.633106 
L 356.54402 -203.818261 
L 356.64803 -205.003416 
L 357.93322 -205.003416 
L 357.93322 -205.003416 
L 358.03723 -203.818261 
L 358.153092 -202.633106 
L 358.28122 -201.447951 
L 358.421873 -200.262795 
L 358.575126 -199.07764 
L 358.740843 -197.892485 
L 358.918662 -196.70733 
L 359.107972 -195.522175 
L 359.30791 -194.337019 
L 359.517357 -193.151864 
L 359.734946 -191.966709 
L 359.959076 -190.781554 
L 360.187946 -189.596399 
L 360.419588 -188.411244 
L 360.651915 -187.226088 
L 360.88278 -186.040933 
L 361.110037 -184.855778 
L 361.331616 -183.670623 
L 361.545596 -182.485468 
L 361.750278 -181.300312 
L 361.944265 -180.115157 
L 362.126525 -178.930002 
L 362.296459 -177.744847 
L 362.453948 -176.559692 
L 362.599392 -175.374537 
L 362.733735 -174.189381 
L 362.858467 -173.004226 
L 362.97561 -171.819071 
L 363.087687 -170.633916 
L 363.19767 -169.448761 
L 363.308906 -168.263605 
L 363.425034 -167.07845 
L 363.549883 -165.893295 
L 363.68736 -164.70814 
L 363.84133 -163.522985 
L 364.015492 -162.337829 
L 364.213256 -161.152674 
L 364.437623 -159.967519 
L 364.691071 -158.782364 
L 364.97546 -157.597209 
L 365.291942 -156.412054 
L 365.640893 -155.226898 
L 366.021869 -154.041743 
L 366.433574 -152.856588 
L 366.873862 -151.671433 
L 367.339747 -150.486278 
L 367.827445 -149.301122 
L 368.332438 -148.115967 
L 368.849542 -146.930812 
L 369.373011 -145.745657 
L 369.896639 -144.560502 
L 370.413883 -143.375347 
L 370.917985 -142.190191 
L 371.402106 -141.005036 
L 371.859461 -139.819881 
L 372.283444 -138.634726 
L 372.66776 -137.449571 
L 373.006542 -136.264415 
L 373.294462 -135.07926 
L 373.526827 -133.894105 
L 373.699668 -132.70895 
L 373.809804 -131.523795 
L 373.854903 -130.33864 
L 373.833512 -129.153484 
L 373.745083 -127.968329 
L 373.589972 -126.783174 
L 373.369425 -125.598019 
L 373.085548 -124.412864 
L 372.741258 -123.227708 
L 372.340222 -122.042553 
L 371.886785 -120.857398 
L 371.385878 -119.672243 
L 370.842928 -118.487088 
L 370.263752 -117.301933 
L 369.654448 -116.116777 
L 369.021288 -114.931622 
L 368.370604 -113.746467 
L 367.708681 -112.561312 
L 367.041654 -111.376157 
L 366.375412 -110.191001 
L 365.715513 -109.005846 
L 365.067105 -107.820691 
L 364.434864 -106.635536 
L 363.822946 -105.450381 
L 363.234946 -104.265225 
L 362.673882 -103.08007 
L 362.14218 -101.894915 
L 361.641684 -100.70976 
L 361.173673 -99.524605 
L 360.738885 -98.33945 
L 360.337557 -97.154294 
L 359.969469 -95.969139 
L 359.633994 -94.783984 
L 359.330153 -93.598829 
L 359.05667 -92.413674 
L 358.81203 -91.228518 
L 358.594533 -90.043363 
L 358.402349 -88.858208 
L 358.233565 -87.673053 
z
" id="m8c5264949f" style="stroke:#3f3f3f;stroke-width:1.5;"/>
    </defs>
    <g clip-path="url(#p387ea1bf28)">
     <use style="fill:#3274a1;stroke:#3f3f3f;stroke-width:1.5;" x="0" xlink:href="#m8c5264949f" y="364.007178"/>
    </g>
   </g>
   <g id="matplotlib.axis_1">
    <g id="xtick_1">
     <g id="line2d_1">
      <defs>
       <path d="M 0 0 
L 0 3.5 
" id="mcf5abd3d46" style="stroke:#000000;stroke-width:0.8;"/>
      </defs>
      <g>
       <use style="stroke:#000000;stroke-width:0.8;" x="119.210625" xlink:href="#mcf5abd3d46" y="288.430125"/>
      </g>
     </g>
     <g id="text_1">
      <!-- entropic -->
      <g transform="translate(82.628557 322.530877)rotate(-30)scale(0.1 -0.1)">
       <defs>
        <path d="M 56.203125 29.59375 
L 56.203125 25.203125 
L 14.890625 25.203125 
Q 15.484375 15.921875 20.484375 11.0625 
Q 25.484375 6.203125 34.421875 6.203125 
Q 39.59375 6.203125 44.453125 7.46875 
Q 49.3125 8.734375 54.109375 11.28125 
L 54.109375 2.78125 
Q 49.265625 0.734375 44.1875 -0.34375 
Q 39.109375 -1.421875 33.890625 -1.421875 
Q 20.796875 -1.421875 13.15625 6.1875 
Q 5.515625 13.8125 5.515625 26.8125 
Q 5.515625 40.234375 12.765625 48.109375 
Q 20.015625 56 32.328125 56 
Q 43.359375 56 49.78125 48.890625 
Q 56.203125 41.796875 56.203125 29.59375 
z
M 47.21875 32.234375 
Q 47.125 39.59375 43.09375 43.984375 
Q 39.0625 48.390625 32.421875 48.390625 
Q 24.90625 48.390625 20.390625 44.140625 
Q 15.875 39.890625 15.1875 32.171875 
z
" id="DejaVuSans-101"/>
        <path d="M 54.890625 33.015625 
L 54.890625 0 
L 45.90625 0 
L 45.90625 32.71875 
Q 45.90625 40.484375 42.875 44.328125 
Q 39.84375 48.1875 33.796875 48.1875 
Q 26.515625 48.1875 22.3125 43.546875 
Q 18.109375 38.921875 18.109375 30.90625 
L 18.109375 0 
L 9.078125 0 
L 9.078125 54.6875 
L 18.109375 54.6875 
L 18.109375 46.1875 
Q 21.34375 51.125 25.703125 53.5625 
Q 30.078125 56 35.796875 56 
Q 45.21875 56 50.046875 50.171875 
Q 54.890625 44.34375 54.890625 33.015625 
z
" id="DejaVuSans-110"/>
        <path d="M 18.3125 70.21875 
L 18.3125 54.6875 
L 36.8125 54.6875 
L 36.8125 47.703125 
L 18.3125 47.703125 
L 18.3125 18.015625 
Q 18.3125 11.328125 20.140625 9.421875 
Q 21.96875 7.515625 27.59375 7.515625 
L 36.8125 7.515625 
L 36.8125 0 
L 27.59375 0 
Q 17.1875 0 13.234375 3.875 
Q 9.28125 7.765625 9.28125 18.015625 
L 9.28125 47.703125 
L 2.6875 47.703125 
L 2.6875 54.6875 
L 9.28125 54.6875 
L 9.28125 70.21875 
z
" id="DejaVuSans-116"/>
        <path d="M 41.109375 46.296875 
Q 39.59375 47.171875 37.8125 47.578125 
Q 36.03125 48 33.890625 48 
Q 26.265625 48 22.1875 43.046875 
Q 18.109375 38.09375 18.109375 28.8125 
L 18.109375 0 
L 9.078125 0 
L 9.078125 54.6875 
L 18.109375 54.6875 
L 18.109375 46.1875 
Q 20.953125 51.171875 25.484375 53.578125 
Q 30.03125 56 36.53125 56 
Q 37.453125 56 38.578125 55.875 
Q 39.703125 55.765625 41.0625 55.515625 
z
" id="DejaVuSans-114"/>
        <path d="M 30.609375 48.390625 
Q 23.390625 48.390625 19.1875 42.75 
Q 14.984375 37.109375 14.984375 27.296875 
Q 14.984375 17.484375 19.15625 11.84375 
Q 23.34375 6.203125 30.609375 6.203125 
Q 37.796875 6.203125 41.984375 11.859375 
Q 46.1875 17.53125 46.1875 27.296875 
Q 46.1875 37.015625 41.984375 42.703125 
Q 37.796875 48.390625 30.609375 48.390625 
z
M 30.609375 56 
Q 42.328125 56 49.015625 48.375 
Q 55.71875 40.765625 55.71875 27.296875 
Q 55.71875 13.875 49.015625 6.21875 
Q 42.328125 -1.421875 30.609375 -1.421875 
Q 18.84375 -1.421875 12.171875 6.21875 
Q 5.515625 13.875 5.515625 27.296875 
Q 5.515625 40.765625 12.171875 48.375 
Q 18.84375 56 30.609375 56 
z
" id="DejaVuSans-111"/>
        <path d="M 18.109375 8.203125 
L 18.109375 -20.796875 
L 9.078125 -20.796875 
L 9.078125 54.6875 
L 18.109375 54.6875 
L 18.109375 46.390625 
Q 20.953125 51.265625 25.265625 53.625 
Q 29.59375 56 35.59375 56 
Q 45.5625 56 51.78125 48.09375 
Q 58.015625 40.1875 58.015625 27.296875 
Q 58.015625 14.40625 51.78125 6.484375 
Q 45.5625 -1.421875 35.59375 -1.421875 
Q 29.59375 -1.421875 25.265625 0.953125 
Q 20.953125 3.328125 18.109375 8.203125 
z
M 48.6875 27.296875 
Q 48.6875 37.203125 44.609375 42.84375 
Q 40.53125 48.484375 33.40625 48.484375 
Q 26.265625 48.484375 22.1875 42.84375 
Q 18.109375 37.203125 18.109375 27.296875 
Q 18.109375 17.390625 22.1875 11.75 
Q 26.265625 6.109375 33.40625 6.109375 
Q 40.53125 6.109375 44.609375 11.75 
Q 48.6875 17.390625 48.6875 27.296875 
z
" id="DejaVuSans-112"/>
        <path d="M 9.421875 54.6875 
L 18.40625 54.6875 
L 18.40625 0 
L 9.421875 0 
z
M 9.421875 75.984375 
L 18.40625 75.984375 
L 18.40625 64.59375 
L 9.421875 64.59375 
z
" id="DejaVuSans-105"/>
        <path d="M 48.78125 52.59375 
L 48.78125 44.1875 
Q 44.96875 46.296875 41.140625 47.34375 
Q 37.3125 48.390625 33.40625 48.390625 
Q 24.65625 48.390625 19.8125 42.84375 
Q 14.984375 37.3125 14.984375 27.296875 
Q 14.984375 17.28125 19.8125 11.734375 
Q 24.65625 6.203125 33.40625 6.203125 
Q 37.3125 6.203125 41.140625 7.25 
Q 44.96875 8.296875 48.78125 10.40625 
L 48.78125 2.09375 
Q 45.015625 0.34375 40.984375 -0.53125 
Q 36.96875 -1.421875 32.421875 -1.421875 
Q 20.0625 -1.421875 12.78125 6.34375 
Q 5.515625 14.109375 5.515625 27.296875 
Q 5.515625 40.671875 12.859375 48.328125 
Q 20.21875 56 33.015625 56 
Q 37.15625 56 41.109375 55.140625 
Q 45.0625 54.296875 48.78125 52.59375 
z
" id="DejaVuSans-99"/>
       </defs>
       <use xlink:href="#DejaVuSans-101"/>
       <use x="61.523438" xlink:href="#DejaVuSans-110"/>
       <use x="124.902344" xlink:href="#DejaVuSans-116"/>
       <use x="164.111328" xlink:href="#DejaVuSans-114"/>
       <use x="202.974609" xlink:href="#DejaVuSans-111"/>
       <use x="264.15625" xlink:href="#DejaVuSans-112"/>
       <use x="327.632812" xlink:href="#DejaVuSans-105"/>
       <use x="355.416016" xlink:href="#DejaVuSans-99"/>
      </g>
     </g>
    </g>
    <g id="xtick_2">
     <g id="line2d_2">
      <g>
       <use style="stroke:#000000;stroke-width:0.8;" x="238.250625" xlink:href="#mcf5abd3d46" y="288.430125"/>
      </g>
     </g>
     <g id="text_2">
      <!-- aflplusplus_hier -->
      <g transform="translate(169.389127 341.087127)rotate(-30)scale(0.1 -0.1)">
       <defs>
        <path d="M 34.28125 27.484375 
Q 23.390625 27.484375 19.1875 25 
Q 14.984375 22.515625 14.984375 16.5 
Q 14.984375 11.71875 18.140625 8.90625 
Q 21.296875 6.109375 26.703125 6.109375 
Q 34.1875 6.109375 38.703125 11.40625 
Q 43.21875 16.703125 43.21875 25.484375 
L 43.21875 27.484375 
z
M 52.203125 31.203125 
L 52.203125 0 
L 43.21875 0 
L 43.21875 8.296875 
Q 40.140625 3.328125 35.546875 0.953125 
Q 30.953125 -1.421875 24.3125 -1.421875 
Q 15.921875 -1.421875 10.953125 3.296875 
Q 6 8.015625 6 15.921875 
Q 6 25.140625 12.171875 29.828125 
Q 18.359375 34.515625 30.609375 34.515625 
L 43.21875 34.515625 
L 43.21875 35.40625 
Q 43.21875 41.609375 39.140625 45 
Q 35.0625 48.390625 27.6875 48.390625 
Q 23 48.390625 18.546875 47.265625 
Q 14.109375 46.140625 10.015625 43.890625 
L 10.015625 52.203125 
Q 14.9375 54.109375 19.578125 55.046875 
Q 24.21875 56 28.609375 56 
Q 40.484375 56 46.34375 49.84375 
Q 52.203125 43.703125 52.203125 31.203125 
z
" id="DejaVuSans-97"/>
        <path d="M 37.109375 75.984375 
L 37.109375 68.5 
L 28.515625 68.5 
Q 23.6875 68.5 21.796875 66.546875 
Q 19.921875 64.59375 19.921875 59.515625 
L 19.921875 54.6875 
L 34.71875 54.6875 
L 34.71875 47.703125 
L 19.921875 47.703125 
L 19.921875 0 
L 10.890625 0 
L 10.890625 47.703125 
L 2.296875 47.703125 
L 2.296875 54.6875 
L 10.890625 54.6875 
L 10.890625 58.5 
Q 10.890625 67.625 15.140625 71.796875 
Q 19.390625 75.984375 28.609375 75.984375 
z
" id="DejaVuSans-102"/>
        <path d="M 9.421875 75.984375 
L 18.40625 75.984375 
L 18.40625 0 
L 9.421875 0 
z
" id="DejaVuSans-108"/>
        <path d="M 8.5 21.578125 
L 8.5 54.6875 
L 17.484375 54.6875 
L 17.484375 21.921875 
Q 17.484375 14.15625 20.5 10.265625 
Q 23.53125 6.390625 29.59375 6.390625 
Q 36.859375 6.390625 41.078125 11.03125 
Q 45.3125 15.671875 45.3125 23.6875 
L 45.3125 54.6875 
L 54.296875 54.6875 
L 54.296875 0 
L 45.3125 0 
L 45.3125 8.40625 
Q 42.046875 3.421875 37.71875 1 
Q 33.40625 -1.421875 27.6875 -1.421875 
Q 18.265625 -1.421875 13.375 4.4375 
Q 8.5 10.296875 8.5 21.578125 
z
M 31.109375 56 
z
" id="DejaVuSans-117"/>
        <path d="M 44.28125 53.078125 
L 44.28125 44.578125 
Q 40.484375 46.53125 36.375 47.5 
Q 32.28125 48.484375 27.875 48.484375 
Q 21.1875 48.484375 17.84375 46.4375 
Q 14.5 44.390625 14.5 40.28125 
Q 14.5 37.15625 16.890625 35.375 
Q 19.28125 33.59375 26.515625 31.984375 
L 29.59375 31.296875 
Q 39.15625 29.25 43.1875 25.515625 
Q 47.21875 21.78125 47.21875 15.09375 
Q 47.21875 7.46875 41.1875 3.015625 
Q 35.15625 -1.421875 24.609375 -1.421875 
Q 20.21875 -1.421875 15.453125 -0.5625 
Q 10.6875 0.296875 5.421875 2 
L 5.421875 11.28125 
Q 10.40625 8.6875 15.234375 7.390625 
Q 20.0625 6.109375 24.8125 6.109375 
Q 31.15625 6.109375 34.5625 8.28125 
Q 37.984375 10.453125 37.984375 14.40625 
Q 37.984375 18.0625 35.515625 20.015625 
Q 33.0625 21.96875 24.703125 23.78125 
L 21.578125 24.515625 
Q 13.234375 26.265625 9.515625 29.90625 
Q 5.8125 33.546875 5.8125 39.890625 
Q 5.8125 47.609375 11.28125 51.796875 
Q 16.75 56 26.8125 56 
Q 31.78125 56 36.171875 55.265625 
Q 40.578125 54.546875 44.28125 53.078125 
z
" id="DejaVuSans-115"/>
        <path d="M 50.984375 -16.609375 
L 50.984375 -23.578125 
L -0.984375 -23.578125 
L -0.984375 -16.609375 
z
" id="DejaVuSans-95"/>
        <path d="M 54.890625 33.015625 
L 54.890625 0 
L 45.90625 0 
L 45.90625 32.71875 
Q 45.90625 40.484375 42.875 44.328125 
Q 39.84375 48.1875 33.796875 48.1875 
Q 26.515625 48.1875 22.3125 43.546875 
Q 18.109375 38.921875 18.109375 30.90625 
L 18.109375 0 
L 9.078125 0 
L 9.078125 75.984375 
L 18.109375 75.984375 
L 18.109375 46.1875 
Q 21.34375 51.125 25.703125 53.5625 
Q 30.078125 56 35.796875 56 
Q 45.21875 56 50.046875 50.171875 
Q 54.890625 44.34375 54.890625 33.015625 
z
" id="DejaVuSans-104"/>
       </defs>
       <use xlink:href="#DejaVuSans-97"/>
       <use x="61.279297" xlink:href="#DejaVuSans-102"/>
       <use x="96.484375" xlink:href="#DejaVuSans-108"/>
       <use x="124.267578" xlink:href="#DejaVuSans-112"/>
       <use x="187.744141" xlink:href="#DejaVuSans-108"/>
       <use x="215.527344" xlink:href="#DejaVuSans-117"/>
       <use x="278.90625" xlink:href="#DejaVuSans-115"/>
       <use x="331.005859" xlink:href="#DejaVuSans-112"/>
       <use x="394.482422" xlink:href="#DejaVuSans-108"/>
       <use x="422.265625" xlink:href="#DejaVuSans-117"/>
       <use x="485.644531" xlink:href="#DejaVuSans-115"/>
       <use x="537.744141" xlink:href="#DejaVuSans-95"/>
       <use x="587.744141" xlink:href="#DejaVuSans-104"/>
       <use x="651.123047" xlink:href="#DejaVuSans-105"/>
       <use x="678.90625" xlink:href="#DejaVuSans-101"/>
       <use x="740.429688" xlink:href="#DejaVuSans-114"/>
      </g>
     </g>
    </g>
    <g id="xtick_3">
     <g id="line2d_3">
      <g>
       <use style="stroke:#000000;stroke-width:0.8;" x="357.290625" xlink:href="#mcf5abd3d46" y="288.430125"/>
      </g>
     </g>
     <g id="text_3">
      <!-- aflplusplus -->
      <g transform="translate(309.681618 328.897284)rotate(-30)scale(0.1 -0.1)">
       <use xlink:href="#DejaVuSans-97"/>
       <use x="61.279297" xlink:href="#DejaVuSans-102"/>
       <use x="96.484375" xlink:href="#DejaVuSans-108"/>
       <use x="124.267578" xlink:href="#DejaVuSans-112"/>
       <use x="187.744141" xlink:href="#DejaVuSans-108"/>
       <use x="215.527344" xlink:href="#DejaVuSans-117"/>
       <use x="278.90625" xlink:href="#DejaVuSans-115"/>
       <use x="331.005859" xlink:href="#DejaVuSans-112"/>
       <use x="394.482422" xlink:href="#DejaVuSans-108"/>
       <use x="422.265625" xlink:href="#DejaVuSans-117"/>
       <use x="485.644531" xlink:href="#DejaVuSans-115"/>
      </g>
     </g>
    </g>
    <g id="text_4">
     <!-- Fuzzer (highest median coverage on the left) -->
     <g transform="translate(125.632656 354.72749)scale(0.1 -0.1)">
      <defs>
       <path d="M 9.8125 72.90625 
L 51.703125 72.90625 
L 51.703125 64.59375 
L 19.671875 64.59375 
L 19.671875 43.109375 
L 48.578125 43.109375 
L 48.578125 34.8125 
L 19.671875 34.8125 
L 19.671875 0 
L 9.8125 0 
z
" id="DejaVuSans-70"/>
       <path d="M 5.515625 54.6875 
L 48.1875 54.6875 
L 48.1875 46.484375 
L 14.40625 7.171875 
L 48.1875 7.171875 
L 48.1875 0 
L 4.296875 0 
L 4.296875 8.203125 
L 38.09375 47.515625 
L 5.515625 47.515625 
z
" id="DejaVuSans-122"/>
       <path id="DejaVuSans-32"/>
       <path d="M 31 75.875 
Q 24.46875 64.65625 21.28125 53.65625 
Q 18.109375 42.671875 18.109375 31.390625 
Q 18.109375 20.125 21.3125 9.0625 
Q 24.515625 -2 31 -13.1875 
L 23.1875 -13.1875 
Q 15.875 -1.703125 12.234375 9.375 
Q 8.59375 20.453125 8.59375 31.390625 
Q 8.59375 42.28125 12.203125 53.3125 
Q 15.828125 64.359375 23.1875 75.875 
z
" id="DejaVuSans-40"/>
       <path d="M 45.40625 27.984375 
Q 45.40625 37.75 41.375 43.109375 
Q 37.359375 48.484375 30.078125 48.484375 
Q 22.859375 48.484375 18.828125 43.109375 
Q 14.796875 37.75 14.796875 27.984375 
Q 14.796875 18.265625 18.828125 12.890625 
Q 22.859375 7.515625 30.078125 7.515625 
Q 37.359375 7.515625 41.375 12.890625 
Q 45.40625 18.265625 45.40625 27.984375 
z
M 54.390625 6.78125 
Q 54.390625 -7.171875 48.1875 -13.984375 
Q 42 -20.796875 29.203125 -20.796875 
Q 24.46875 -20.796875 20.265625 -20.09375 
Q 16.0625 -19.390625 12.109375 -17.921875 
L 12.109375 -9.1875 
Q 16.0625 -11.328125 19.921875 -12.34375 
Q 23.78125 -13.375 27.78125 -13.375 
Q 36.625 -13.375 41.015625 -8.765625 
Q 45.40625 -4.15625 45.40625 5.171875 
L 45.40625 9.625 
Q 42.625 4.78125 38.28125 2.390625 
Q 33.9375 0 27.875 0 
Q 17.828125 0 11.671875 7.65625 
Q 5.515625 15.328125 5.515625 27.984375 
Q 5.515625 40.671875 11.671875 48.328125 
Q 17.828125 56 27.875 56 
Q 33.9375 56 38.28125 53.609375 
Q 42.625 51.21875 45.40625 46.390625 
L 45.40625 54.6875 
L 54.390625 54.6875 
z
" id="DejaVuSans-103"/>
       <path d="M 52 44.1875 
Q 55.375 50.25 60.0625 53.125 
Q 64.75 56 71.09375 56 
Q 79.640625 56 84.28125 50.015625 
Q 88.921875 44.046875 88.921875 33.015625 
L 88.921875 0 
L 79.890625 0 
L 79.890625 32.71875 
Q 79.890625 40.578125 77.09375 44.375 
Q 74.3125 48.1875 68.609375 48.1875 
Q 61.625 48.1875 57.5625 43.546875 
Q 53.515625 38.921875 53.515625 30.90625 
L 53.515625 0 
L 44.484375 0 
L 44.484375 32.71875 
Q 44.484375 40.625 41.703125 44.40625 
Q 38.921875 48.1875 33.109375 48.1875 
Q 26.21875 48.1875 22.15625 43.53125 
Q 18.109375 38.875 18.109375 30.90625 
L 18.109375 0 
L 9.078125 0 
L 9.078125 54.6875 
L 18.109375 54.6875 
L 18.109375 46.1875 
Q 21.1875 51.21875 25.484375 53.609375 
Q 29.78125 56 35.6875 56 
Q 41.65625 56 45.828125 52.96875 
Q 50 49.953125 52 44.1875 
z
" id="DejaVuSans-109"/>
       <path d="M 45.40625 46.390625 
L 45.40625 75.984375 
L 54.390625 75.984375 
L 54.390625 0 
L 45.40625 0 
L 45.40625 8.203125 
Q 42.578125 3.328125 38.25 0.953125 
Q 33.9375 -1.421875 27.875 -1.421875 
Q 17.96875 -1.421875 11.734375 6.484375 
Q 5.515625 14.40625 5.515625 27.296875 
Q 5.515625 40.1875 11.734375 48.09375 
Q 17.96875 56 27.875 56 
Q 33.9375 56 38.25 53.625 
Q 42.578125 51.265625 45.40625 46.390625 
z
M 14.796875 27.296875 
Q 14.796875 17.390625 18.875 11.75 
Q 22.953125 6.109375 30.078125 6.109375 
Q 37.203125 6.109375 41.296875 11.75 
Q 45.40625 17.390625 45.40625 27.296875 
Q 45.40625 37.203125 41.296875 42.84375 
Q 37.203125 48.484375 30.078125 48.484375 
Q 22.953125 48.484375 18.875 42.84375 
Q 14.796875 37.203125 14.796875 27.296875 
z
" id="DejaVuSans-100"/>
       <path d="M 2.984375 54.6875 
L 12.5 54.6875 
L 29.59375 8.796875 
L 46.6875 54.6875 
L 56.203125 54.6875 
L 35.6875 0 
L 23.484375 0 
z
" id="DejaVuSans-118"/>
       <path d="M 8.015625 75.875 
L 15.828125 75.875 
Q 23.140625 64.359375 26.78125 53.3125 
Q 30.421875 42.28125 30.421875 31.390625 
Q 30.421875 20.453125 26.78125 9.375 
Q 23.140625 -1.703125 15.828125 -13.1875 
L 8.015625 -13.1875 
Q 14.5 -2 17.703125 9.0625 
Q 20.90625 20.125 20.90625 31.390625 
Q 20.90625 42.671875 17.703125 53.65625 
Q 14.5 64.65625 8.015625 75.875 
z
" id="DejaVuSans-41"/>
      </defs>
      <use xlink:href="#DejaVuSans-70"/>
      <use x="52.019531" xlink:href="#DejaVuSans-117"/>
      <use x="115.398438" xlink:href="#DejaVuSans-122"/>
      <use x="167.888672" xlink:href="#DejaVuSans-122"/>
      <use x="220.378906" xlink:href="#DejaVuSans-101"/>
      <use x="281.902344" xlink:href="#DejaVuSans-114"/>
      <use x="323.015625" xlink:href="#DejaVuSans-32"/>
      <use x="354.802734" xlink:href="#DejaVuSans-40"/>
      <use x="393.816406" xlink:href="#DejaVuSans-104"/>
      <use x="457.195312" xlink:href="#DejaVuSans-105"/>
      <use x="484.978516" xlink:href="#DejaVuSans-103"/>
      <use x="548.455078" xlink:href="#DejaVuSans-104"/>
      <use x="611.833984" xlink:href="#DejaVuSans-101"/>
      <use x="673.357422" xlink:href="#DejaVuSans-115"/>
      <use x="725.457031" xlink:href="#DejaVuSans-116"/>
      <use x="764.666016" xlink:href="#DejaVuSans-32"/>
      <use x="796.453125" xlink:href="#DejaVuSans-109"/>
      <use x="893.865234" xlink:href="#DejaVuSans-101"/>
      <use x="955.388672" xlink:href="#DejaVuSans-100"/>
      <use x="1018.865234" xlink:href="#DejaVuSans-105"/>
      <use x="1046.648438" xlink:href="#DejaVuSans-97"/>
      <use x="1107.927734" xlink:href="#DejaVuSans-110"/>
      <use x="1171.306641" xlink:href="#DejaVuSans-32"/>
      <use x="1203.09375" xlink:href="#DejaVuSans-99"/>
      <use x="1258.074219" xlink:href="#DejaVuSans-111"/>
      <use x="1319.255859" xlink:href="#DejaVuSans-118"/>
      <use x="1378.435547" xlink:href="#DejaVuSans-101"/>
      <use x="1439.958984" xlink:href="#DejaVuSans-114"/>
      <use x="1481.072266" xlink:href="#DejaVuSans-97"/>
      <use x="1542.351562" xlink:href="#DejaVuSans-103"/>
      <use x="1605.828125" xlink:href="#DejaVuSans-101"/>
      <use x="1667.351562" xlink:href="#DejaVuSans-32"/>
      <use x="1699.138672" xlink:href="#DejaVuSans-111"/>
      <use x="1760.320312" xlink:href="#DejaVuSans-110"/>
      <use x="1823.699219" xlink:href="#DejaVuSans-32"/>
      <use x="1855.486328" xlink:href="#DejaVuSans-116"/>
      <use x="1894.695312" xlink:href="#DejaVuSans-104"/>
      <use x="1958.074219" xlink:href="#DejaVuSans-101"/>
      <use x="2019.597656" xlink:href="#DejaVuSans-32"/>
      <use x="2051.384766" xlink:href="#DejaVuSans-108"/>
      <use x="2079.167969" xlink:href="#DejaVuSans-101"/>
      <use x="2140.691406" xlink:href="#DejaVuSans-102"/>
      <use x="2174.146484" xlink:href="#DejaVuSans-116"/>
      <use x="2213.355469" xlink:href="#DejaVuSans-41"/>
     </g>
    </g>
   </g>
   <g id="matplotlib.axis_2">
    <g id="ytick_1">
     <g id="line2d_4">
      <defs>
       <path d="M 0 0 
L -3.5 0 
" id="m97156cc8d0" style="stroke:#000000;stroke-width:0.8;"/>
      </defs>
      <g>
       <use style="stroke:#000000;stroke-width:0.8;" x="59.690625" xlink:href="#m97156cc8d0" y="280.87846"/>
      </g>
     </g>
     <g id="text_5">
      <!-- 18000 -->
      <g transform="translate(20.878125 284.677679)scale(0.1 -0.1)">
       <defs>
        <path d="M 12.40625 8.296875 
L 28.515625 8.296875 
L 28.515625 63.921875 
L 10.984375 60.40625 
L 10.984375 69.390625 
L 28.421875 72.90625 
L 38.28125 72.90625 
L 38.28125 8.296875 
L 54.390625 8.296875 
L 54.390625 0 
L 12.40625 0 
z
" id="DejaVuSans-49"/>
        <path d="M 31.78125 34.625 
Q 24.75 34.625 20.71875 30.859375 
Q 16.703125 27.09375 16.703125 20.515625 
Q 16.703125 13.921875 20.71875 10.15625 
Q 24.75 6.390625 31.78125 6.390625 
Q 38.8125 6.390625 42.859375 10.171875 
Q 46.921875 13.96875 46.921875 20.515625 
Q 46.921875 27.09375 42.890625 30.859375 
Q 38.875 34.625 31.78125 34.625 
z
M 21.921875 38.8125 
Q 15.578125 40.375 12.03125 44.71875 
Q 8.5 49.078125 8.5 55.328125 
Q 8.5 64.0625 14.71875 69.140625 
Q 20.953125 74.21875 31.78125 74.21875 
Q 42.671875 74.21875 48.875 69.140625 
Q 55.078125 64.0625 55.078125 55.328125 
Q 55.078125 49.078125 51.53125 44.71875 
Q 48 40.375 41.703125 38.8125 
Q 48.828125 37.15625 52.796875 32.3125 
Q 56.78125 27.484375 56.78125 20.515625 
Q 56.78125 9.90625 50.3125 4.234375 
Q 43.84375 -1.421875 31.78125 -1.421875 
Q 19.734375 -1.421875 13.25 4.234375 
Q 6.78125 9.90625 6.78125 20.515625 
Q 6.78125 27.484375 10.78125 32.3125 
Q 14.796875 37.15625 21.921875 38.8125 
z
M 18.3125 54.390625 
Q 18.3125 48.734375 21.84375 45.5625 
Q 25.390625 42.390625 31.78125 42.390625 
Q 38.140625 42.390625 41.71875 45.5625 
Q 45.3125 48.734375 45.3125 54.390625 
Q 45.3125 60.0625 41.71875 63.234375 
Q 38.140625 66.40625 31.78125 66.40625 
Q 25.390625 66.40625 21.84375 63.234375 
Q 18.3125 60.0625 18.3125 54.390625 
z
" id="DejaVuSans-56"/>
        <path d="M 31.78125 66.40625 
Q 24.171875 66.40625 20.328125 58.90625 
Q 16.5 51.421875 16.5 36.375 
Q 16.5 21.390625 20.328125 13.890625 
Q 24.171875 6.390625 31.78125 6.390625 
Q 39.453125 6.390625 43.28125 13.890625 
Q 47.125 21.390625 47.125 36.375 
Q 47.125 51.421875 43.28125 58.90625 
Q 39.453125 66.40625 31.78125 66.40625 
z
M 31.78125 74.21875 
Q 44.046875 74.21875 50.515625 64.515625 
Q 56.984375 54.828125 56.984375 36.375 
Q 56.984375 17.96875 50.515625 8.265625 
Q 44.046875 -1.421875 31.78125 -1.421875 
Q 19.53125 -1.421875 13.0625 8.265625 
Q 6.59375 17.96875 6.59375 36.375 
Q 6.59375 54.828125 13.0625 64.515625 
Q 19.53125 74.21875 31.78125 74.21875 
z
" id="DejaVuSans-48"/>
       </defs>
       <use xlink:href="#DejaVuSans-49"/>
       <use x="63.623047" xlink:href="#DejaVuSans-56"/>
       <use x="127.246094" xlink:href="#DejaVuSans-48"/>
       <use x="190.869141" xlink:href="#DejaVuSans-48"/>
       <use x="254.492188" xlink:href="#DejaVuSans-48"/>
      </g>
     </g>
    </g>
    <g id="ytick_2">
     <g id="line2d_5">
      <g>
       <use style="stroke:#000000;stroke-width:0.8;" x="59.690625" xlink:href="#m97156cc8d0" y="244.83597"/>
      </g>
     </g>
     <g id="text_6">
      <!-- 20000 -->
      <g transform="translate(20.878125 248.635189)scale(0.1 -0.1)">
       <defs>
        <path d="M 19.1875 8.296875 
L 53.609375 8.296875 
L 53.609375 0 
L 7.328125 0 
L 7.328125 8.296875 
Q 12.9375 14.109375 22.625 23.890625 
Q 32.328125 33.6875 34.8125 36.53125 
Q 39.546875 41.84375 41.421875 45.53125 
Q 43.3125 49.21875 43.3125 52.78125 
Q 43.3125 58.59375 39.234375 62.25 
Q 35.15625 65.921875 28.609375 65.921875 
Q 23.96875 65.921875 18.8125 64.3125 
Q 13.671875 62.703125 7.8125 59.421875 
L 7.8125 69.390625 
Q 13.765625 71.78125 18.9375 73 
Q 24.125 74.21875 28.421875 74.21875 
Q 39.75 74.21875 46.484375 68.546875 
Q 53.21875 62.890625 53.21875 53.421875 
Q 53.21875 48.921875 51.53125 44.890625 
Q 49.859375 40.875 45.40625 35.40625 
Q 44.1875 33.984375 37.640625 27.21875 
Q 31.109375 20.453125 19.1875 8.296875 
z
" id="DejaVuSans-50"/>
       </defs>
       <use xlink:href="#DejaVuSans-50"/>
       <use x="63.623047" xlink:href="#DejaVuSans-48"/>
       <use x="127.246094" xlink:href="#DejaVuSans-48"/>
       <use x="190.869141" xlink:href="#DejaVuSans-48"/>
       <use x="254.492188" xlink:href="#DejaVuSans-48"/>
      </g>
     </g>
    </g>
    <g id="ytick_3">
     <g id="line2d_6">
      <g>
       <use style="stroke:#000000;stroke-width:0.8;" x="59.690625" xlink:href="#m97156cc8d0" y="208.79348"/>
      </g>
     </g>
     <g id="text_7">
      <!-- 22000 -->
      <g transform="translate(20.878125 212.592699)scale(0.1 -0.1)">
       <use xlink:href="#DejaVuSans-50"/>
       <use x="63.623047" xlink:href="#DejaVuSans-50"/>
       <use x="127.246094" xlink:href="#DejaVuSans-48"/>
       <use x="190.869141" xlink:href="#DejaVuSans-48"/>
       <use x="254.492188" xlink:href="#DejaVuSans-48"/>
      </g>
     </g>
    </g>
    <g id="ytick_4">
     <g id="line2d_7">
      <g>
       <use style="stroke:#000000;stroke-width:0.8;" x="59.690625" xlink:href="#m97156cc8d0" y="172.750991"/>
      </g>
     </g>
     <g id="text_8">
      <!-- 24000 -->
      <g transform="translate(20.878125 176.550209)scale(0.1 -0.1)">
       <defs>
        <path d="M 37.796875 64.3125 
L 12.890625 25.390625 
L 37.796875 25.390625 
z
M 35.203125 72.90625 
L 47.609375 72.90625 
L 47.609375 25.390625 
L 58.015625 25.390625 
L 58.015625 17.1875 
L 47.609375 17.1875 
L 47.609375 0 
L 37.796875 0 
L 37.796875 17.1875 
L 4.890625 17.1875 
L 4.890625 26.703125 
z
" id="DejaVuSans-52"/>
       </defs>
       <use xlink:href="#DejaVuSans-50"/>
       <use x="63.623047" xlink:href="#DejaVuSans-52"/>
       <use x="127.246094" xlink:href="#DejaVuSans-48"/>
       <use x="190.869141" xlink:href="#DejaVuSans-48"/>
       <use x="254.492188" xlink:href="#DejaVuSans-48"/>
      </g>
     </g>
    </g>
    <g id="ytick_5">
     <g id="line2d_8">
      <g>
       <use style="stroke:#000000;stroke-width:0.8;" x="59.690625" xlink:href="#m97156cc8d0" y="136.708501"/>
      </g>
     </g>
     <g id="text_9">
      <!-- 26000 -->
      <g transform="translate(20.878125 140.50772)scale(0.1 -0.1)">
       <defs>
        <path d="M 33.015625 40.375 
Q 26.375 40.375 22.484375 35.828125 
Q 18.609375 31.296875 18.609375 23.390625 
Q 18.609375 15.53125 22.484375 10.953125 
Q 26.375 6.390625 33.015625 6.390625 
Q 39.65625 6.390625 43.53125 10.953125 
Q 47.40625 15.53125 47.40625 23.390625 
Q 47.40625 31.296875 43.53125 35.828125 
Q 39.65625 40.375 33.015625 40.375 
z
M 52.59375 71.296875 
L 52.59375 62.3125 
Q 48.875 64.0625 45.09375 64.984375 
Q 41.3125 65.921875 37.59375 65.921875 
Q 27.828125 65.921875 22.671875 59.328125 
Q 17.53125 52.734375 16.796875 39.40625 
Q 19.671875 43.65625 24.015625 45.921875 
Q 28.375 48.1875 33.59375 48.1875 
Q 44.578125 48.1875 50.953125 41.515625 
Q 57.328125 34.859375 57.328125 23.390625 
Q 57.328125 12.15625 50.6875 5.359375 
Q 44.046875 -1.421875 33.015625 -1.421875 
Q 20.359375 -1.421875 13.671875 8.265625 
Q 6.984375 17.96875 6.984375 36.375 
Q 6.984375 53.65625 15.1875 63.9375 
Q 23.390625 74.21875 37.203125 74.21875 
Q 40.921875 74.21875 44.703125 73.484375 
Q 48.484375 72.75 52.59375 71.296875 
z
" id="DejaVuSans-54"/>
       </defs>
       <use xlink:href="#DejaVuSans-50"/>
       <use x="63.623047" xlink:href="#DejaVuSans-54"/>
       <use x="127.246094" xlink:href="#DejaVuSans-48"/>
       <use x="190.869141" xlink:href="#DejaVuSans-48"/>
       <use x="254.492188" xlink:href="#DejaVuSans-48"/>
      </g>
     </g>
    </g>
    <g id="ytick_6">
     <g id="line2d_9">
      <g>
       <use style="stroke:#000000;stroke-width:0.8;" x="59.690625" xlink:href="#m97156cc8d0" y="100.666011"/>
      </g>
     </g>
     <g id="text_10">
      <!-- 28000 -->
      <g transform="translate(20.878125 104.46523)scale(0.1 -0.1)">
       <use xlink:href="#DejaVuSans-50"/>
       <use x="63.623047" xlink:href="#DejaVuSans-56"/>
       <use x="127.246094" xlink:href="#DejaVuSans-48"/>
       <use x="190.869141" xlink:href="#DejaVuSans-48"/>
       <use x="254.492188" xlink:href="#DejaVuSans-48"/>
      </g>
     </g>
    </g>
    <g id="ytick_7">
     <g id="line2d_10">
      <g>
       <use style="stroke:#000000;stroke-width:0.8;" x="59.690625" xlink:href="#m97156cc8d0" y="64.623521"/>
      </g>
     </g>
     <g id="text_11">
      <!-- 30000 -->
      <g transform="translate(20.878125 68.42274)scale(0.1 -0.1)">
       <defs>
        <path d="M 40.578125 39.3125 
Q 47.65625 37.796875 51.625 33 
Q 55.609375 28.21875 55.609375 21.1875 
Q 55.609375 10.40625 48.1875 4.484375 
Q 40.765625 -1.421875 27.09375 -1.421875 
Q 22.515625 -1.421875 17.65625 -0.515625 
Q 12.796875 0.390625 7.625 2.203125 
L 7.625 11.71875 
Q 11.71875 9.328125 16.59375 8.109375 
Q 21.484375 6.890625 26.8125 6.890625 
Q 36.078125 6.890625 40.9375 10.546875 
Q 45.796875 14.203125 45.796875 21.1875 
Q 45.796875 27.640625 41.28125 31.265625 
Q 36.765625 34.90625 28.71875 34.90625 
L 20.21875 34.90625 
L 20.21875 43.015625 
L 29.109375 43.015625 
Q 36.375 43.015625 40.234375 45.921875 
Q 44.09375 48.828125 44.09375 54.296875 
Q 44.09375 59.90625 40.109375 62.90625 
Q 36.140625 65.921875 28.71875 65.921875 
Q 24.65625 65.921875 20.015625 65.03125 
Q 15.375 64.15625 9.8125 62.3125 
L 9.8125 71.09375 
Q 15.4375 72.65625 20.34375 73.4375 
Q 25.25 74.21875 29.59375 74.21875 
Q 40.828125 74.21875 47.359375 69.109375 
Q 53.90625 64.015625 53.90625 55.328125 
Q 53.90625 49.265625 50.4375 45.09375 
Q 46.96875 40.921875 40.578125 39.3125 
z
" id="DejaVuSans-51"/>
       </defs>
       <use xlink:href="#DejaVuSans-51"/>
       <use x="63.623047" xlink:href="#DejaVuSans-48"/>
       <use x="127.246094" xlink:href="#DejaVuSans-48"/>
       <use x="190.869141" xlink:href="#DejaVuSans-48"/>
       <use x="254.492188" xlink:href="#DejaVuSans-48"/>
      </g>
     </g>
    </g>
    <g id="ytick_8">
     <g id="line2d_11">
      <g>
       <use style="stroke:#000000;stroke-width:0.8;" x="59.690625" xlink:href="#m97156cc8d0" y="28.581032"/>
      </g>
     </g>
     <g id="text_12">
      <!-- 32000 -->
      <g transform="translate(20.878125 32.38025)scale(0.1 -0.1)">
       <use xlink:href="#DejaVuSans-51"/>
       <use x="63.623047" xlink:href="#DejaVuSans-50"/>
       <use x="127.246094" xlink:href="#DejaVuSans-48"/>
       <use x="190.869141" xlink:href="#DejaVuSans-48"/>
       <use x="254.492188" xlink:href="#DejaVuSans-48"/>
      </g>
     </g>
    </g>
    <g id="text_13">
     <!-- Reached region coverage -->
     <g transform="translate(14.798438 219.136625)rotate(-90)scale(0.1 -0.1)">
      <defs>
       <path d="M 44.390625 34.1875 
Q 47.5625 33.109375 50.5625 29.59375 
Q 53.5625 26.078125 56.59375 19.921875 
L 66.609375 0 
L 56 0 
L 46.6875 18.703125 
Q 43.0625 26.03125 39.671875 28.421875 
Q 36.28125 30.8125 30.421875 30.8125 
L 19.671875 30.8125 
L 19.671875 0 
L 9.8125 0 
L 9.8125 72.90625 
L 32.078125 72.90625 
Q 44.578125 72.90625 50.734375 67.671875 
Q 56.890625 62.453125 56.890625 51.90625 
Q 56.890625 45.015625 53.6875 40.46875 
Q 50.484375 35.9375 44.390625 34.1875 
z
M 19.671875 64.796875 
L 19.671875 38.921875 
L 32.078125 38.921875 
Q 39.203125 38.921875 42.84375 42.21875 
Q 46.484375 45.515625 46.484375 51.90625 
Q 46.484375 58.296875 42.84375 61.546875 
Q 39.203125 64.796875 32.078125 64.796875 
z
" id="DejaVuSans-82"/>
      </defs>
      <use xlink:href="#DejaVuSans-82"/>
      <use x="64.982422" xlink:href="#DejaVuSans-101"/>
      <use x="126.505859" xlink:href="#DejaVuSans-97"/>
      <use x="187.785156" xlink:href="#DejaVuSans-99"/>
      <use x="242.765625" xlink:href="#DejaVuSans-104"/>
      <use x="306.144531" xlink:href="#DejaVuSans-101"/>
      <use x="367.667969" xlink:href="#DejaVuSans-100"/>
      <use x="431.144531" xlink:href="#DejaVuSans-32"/>
      <use x="462.931641" xlink:href="#DejaVuSans-114"/>
      <use x="501.794922" xlink:href="#DejaVuSans-101"/>
      <use x="563.318359" xlink:href="#DejaVuSans-103"/>
      <use x="626.794922" xlink:href="#DejaVuSans-105"/>
      <use x="654.578125" xlink:href="#DejaVuSans-111"/>
      <use x="715.759766" xlink:href="#DejaVuSans-110"/>
      <use x="779.138672" xlink:href="#DejaVuSans-32"/>
      <use x="810.925781" xlink:href="#DejaVuSans-99"/>
      <use x="865.90625" xlink:href="#DejaVuSans-111"/>
      <use x="927.087891" xlink:href="#DejaVuSans-118"/>
      <use x="986.267578" xlink:href="#DejaVuSans-101"/>
      <use x="1047.791016" xlink:href="#DejaVuSans-114"/>
      <use x="1088.904297" xlink:href="#DejaVuSans-97"/>
      <use x="1150.183594" xlink:href="#DejaVuSans-103"/>
      <use x="1213.660156" xlink:href="#DejaVuSans-101"/>
     </g>
    </g>
   </g>
   <g id="line2d_12">
    <path clip-path="url(#p387ea1bf28)" d="M 119.210625 149.467542 
L 119.210625 82.158193 
" style="fill:none;stroke:#3f3f3f;stroke-linecap:square;stroke-width:1.5;"/>
   </g>
   <g id="line2d_13">
    <path clip-path="url(#p387ea1bf28)" d="M 119.210625 147.034674 
L 119.210625 84.374806 
" style="fill:none;stroke:#3f3f3f;stroke-linecap:square;stroke-width:4.5;"/>
   </g>
   <g id="line2d_14">
    <path clip-path="url(#p387ea1bf28)" d="M 238.250625 232.725694 
L 238.250625 224.56207 
" style="fill:none;stroke:#3f3f3f;stroke-linecap:square;stroke-width:1.5;"/>
   </g>
   <g id="line2d_15">
    <path clip-path="url(#p387ea1bf28)" d="M 238.250625 229.968443 
L 238.250625 224.56207 
" style="fill:none;stroke:#3f3f3f;stroke-linecap:square;stroke-width:4.5;"/>
   </g>
   <g id="line2d_16">
    <path clip-path="url(#p387ea1bf28)" d="M 357.290625 245.26848 
L 357.290625 222.68786 
" style="fill:none;stroke:#3f3f3f;stroke-linecap:square;stroke-width:1.5;"/>
   </g>
   <g id="line2d_17">
    <path clip-path="url(#p387ea1bf28)" d="M 357.290625 238.078003 
L 357.290625 222.68786 
" style="fill:none;stroke:#3f3f3f;stroke-linecap:square;stroke-width:4.5;"/>
   </g>
   <g id="patch_3">
    <path d="M 59.690625 280.87846 
L 59.690625 28.581032 
" style="fill:none;stroke:#000000;stroke-linecap:square;stroke-linejoin:miter;stroke-width:0.8;"/>
   </g>
   <g id="patch_4">
    <path d="M 119.210625 288.430125 
L 357.290625 288.430125 
" style="fill:none;stroke:#000000;stroke-linecap:square;stroke-linejoin:miter;stroke-width:0.8;"/>
   </g>
   <g id="PathCollection_1">
    <defs>
     <path d="M 0 1.5 
C 0.397805 1.5 0.77937 1.341951 1.06066 1.06066 
C 1.341951 0.77937 1.5 0.397805 1.5 0 
C 1.5 -0.397805 1.341951 -0.77937 1.06066 -1.06066 
C 0.77937 -1.341951 0.397805 -1.5 0 -1.5 
C -0.397805 -1.5 -0.77937 -1.341951 -1.06066 -1.06066 
C -1.341951 -0.77937 -1.5 -0.397805 -1.5 0 
C -1.5 0.397805 -1.341951 0.77937 -1.06066 1.06066 
C -0.77937 1.341951 -0.397805 1.5 0 1.5 
z
" id="me75f0a926b" style="stroke:#3f3f3f;"/>
    </defs>
    <g clip-path="url(#p387ea1bf28)">
     <use style="fill:#ffffff;stroke:#3f3f3f;" x="119.210625" xlink:href="#me75f0a926b" y="127.535687"/>
    </g>
   </g>
   <g id="PathCollection_2">
    <g clip-path="url(#p387ea1bf28)">
     <use style="fill:#ffffff;stroke:#3f3f3f;" x="238.250625" xlink:href="#me75f0a926b" y="226.616491"/>
    </g>
   </g>
   <g id="PathCollection_3">
    <g clip-path="url(#p387ea1bf28)">
     <use style="fill:#ffffff;stroke:#3f3f3f;" x="357.290625" xlink:href="#me75f0a926b" y="230.50908"/>
    </g>
   </g>
   <g id="text_14">
    <!-- sqlite3_ossfuzz (2h, 5 trials/fuzzer) -->
    <g transform="translate(133.890938 16.318125)scale(0.12 -0.12)">
     <defs>
      <path d="M 14.796875 27.296875 
Q 14.796875 17.390625 18.875 11.75 
Q 22.953125 6.109375 30.078125 6.109375 
Q 37.203125 6.109375 41.296875 11.75 
Q 45.40625 17.390625 45.40625 27.296875 
Q 45.40625 37.203125 41.296875 42.84375 
Q 37.203125 48.484375 30.078125 48.484375 
Q 22.953125 48.484375 18.875 42.84375 
Q 14.796875 37.203125 14.796875 27.296875 
z
M 45.40625 8.203125 
Q 42.578125 3.328125 38.25 0.953125 
Q 33.9375 -1.421875 27.875 -1.421875 
Q 17.96875 -1.421875 11.734375 6.484375 
Q 5.515625 14.40625 5.515625 27.296875 
Q 5.515625 40.1875 11.734375 48.09375 
Q 17.96875 56 27.875 56 
Q 33.9375 56 38.25 53.625 
Q 42.578125 51.265625 45.40625 46.390625 
L 45.40625 54.6875 
L 54.390625 54.6875 
L 54.390625 -20.796875 
L 45.40625 -20.796875 
z
" id="DejaVuSans-113"/>
      <path d="M 11.71875 12.40625 
L 22.015625 12.40625 
L 22.015625 4 
L 14.015625 -11.625 
L 7.71875 -11.625 
L 11.71875 4 
z
" id="DejaVuSans-44"/>
      <path d="M 10.796875 72.90625 
L 49.515625 72.90625 
L 49.515625 64.59375 
L 19.828125 64.59375 
L 19.828125 46.734375 
Q 21.96875 47.46875 24.109375 47.828125 
Q 26.265625 48.1875 28.421875 48.1875 
Q 40.625 48.1875 47.75 41.5 
Q 54.890625 34.8125 54.890625 23.390625 
Q 54.890625 11.625 47.5625 5.09375 
Q 40.234375 -1.421875 26.90625 -1.421875 
Q 22.3125 -1.421875 17.546875 -0.640625 
Q 12.796875 0.140625 7.71875 1.703125 
L 7.71875 11.625 
Q 12.109375 9.234375 16.796875 8.0625 
Q 21.484375 6.890625 26.703125 6.890625 
Q 35.15625 6.890625 40.078125 11.328125 
Q 45.015625 15.765625 45.015625 23.390625 
Q 45.015625 31 40.078125 35.4375 
Q 35.15625 39.890625 26.703125 39.890625 
Q 22.75 39.890625 18.8125 39.015625 
Q 14.890625 38.140625 10.796875 36.28125 
z
" id="DejaVuSans-53"/>
      <path d="M 25.390625 72.90625 
L 33.6875 72.90625 
L 8.296875 -9.28125 
L 0 -9.28125 
z
" id="DejaVuSans-47"/>
     </defs>
     <use xlink:href="#DejaVuSans-115"/>
     <use x="52.099609" xlink:href="#DejaVuSans-113"/>
     <use x="115.576172" xlink:href="#DejaVuSans-108"/>
     <use x="143.359375" xlink:href="#DejaVuSans-105"/>
     <use x="171.142578" xlink:href="#DejaVuSans-116"/>
     <use x="210.351562" xlink:href="#DejaVuSans-101"/>
     <use x="271.875" xlink:href="#DejaVuSans-51"/>
     <use x="335.498047" xlink:href="#DejaVuSans-95"/>
     <use x="385.498047" xlink:href="#DejaVuSans-111"/>
     <use x="446.679688" xlink:href="#DejaVuSans-115"/>
     <use x="498.779297" xlink:href="#DejaVuSans-115"/>
     <use x="550.878906" xlink:href="#DejaVuSans-102"/>
     <use x="586.083984" xlink:href="#DejaVuSans-117"/>
     <use x="649.462891" xlink:href="#DejaVuSans-122"/>
     <use x="701.953125" xlink:href="#DejaVuSans-122"/>
     <use x="754.443359" xlink:href="#DejaVuSans-32"/>
     <use x="786.230469" xlink:href="#DejaVuSans-40"/>
     <use x="825.244141" xlink:href="#DejaVuSans-50"/>
     <use x="888.867188" xlink:href="#DejaVuSans-104"/>
     <use x="952.246094" xlink:href="#DejaVuSans-44"/>
     <use x="984.033203" xlink:href="#DejaVuSans-32"/>
     <use x="1015.820312" xlink:href="#DejaVuSans-53"/>
     <use x="1079.443359" xlink:href="#DejaVuSans-32"/>
     <use x="1111.230469" xlink:href="#DejaVuSans-116"/>
     <use x="1150.439453" xlink:href="#DejaVuSans-114"/>
     <use x="1191.552734" xlink:href="#DejaVuSans-105"/>
     <use x="1219.335938" xlink:href="#DejaVuSans-97"/>
     <use x="1280.615234" xlink:href="#DejaVuSans-108"/>
     <use x="1308.398438" xlink:href="#DejaVuSans-115"/>
     <use x="1360.498047" xlink:href="#DejaVuSans-47"/>
     <use x="1394.189453" xlink:href="#DejaVuSans-102"/>
     <use x="1429.394531" xlink:href="#DejaVuSans-117"/>
     <use x="1492.773438" xlink:href="#DejaVuSans-122"/>
     <use x="1545.263672" xlink:href="#DejaVuSans-122"/>
     <use x="1597.753906" xlink:href="#DejaVuSans-101"/>
     <use x="1659.277344" xlink:href="#DejaVuSans-114"/>
     <use x="1700.390625" xlink:href="#DejaVuSans-41"/>
    </g>
   </g>
  </g>
 </g>
 <defs>
  <clipPath id="p387ea1bf28">
   <rect height="266.112" width="357.12" x="59.690625" y="22.318125"/>
  </clipPath>
 </defs>
</svg>
