<?xml version="1.0" encoding="utf-8" standalone="no"?>
<!DOCTYPE svg PUBLIC "-//W3C//DTD SVG 1.1//EN"
  "http://www.w3.org/Graphics/SVG/1.1/DTD/svg11.dtd">
<!-- Created with matplotlib (https://matplotlib.org/) -->
<svg height="364.007178pt" version="1.1" viewBox="0 0 417.648125 364.007178" width="417.648125pt" xmlns="http://www.w3.org/2000/svg" xmlns:xlink="http://www.w3.org/1999/xlink">
 <metadata>
  <rdf:RDF xmlns:cc="http://creativecommons.org/ns#" xmlns:dc="http://purl.org/dc/elements/1.1/" xmlns:rdf="http://www.w3.org/1999/02/22-rdf-syntax-ns#">
   <cc:Work>
    <dc:type rdf:resource="http://purl.org/dc/dcmitype/StillImage"/>
    <dc:date>2020-11-08T21:44:12.213247</dc:date>
    <dc:format>image/svg+xml</dc:format>
    <dc:creator>
     <cc:Agent>
      <dc:title>Matplotlib v3.3.2, https://matplotlib.org/</dc:title>
     </cc:Agent>
    </dc:creator>
   </cc:Work>
  </rdf:RDF>
 </metadata>
 <defs>
  <style type="text/css">*{stroke-linecap:butt;stroke-linejoin:round;}</style>
 </defs>
 <g id="figure_1">
  <g id="patch_1">
   <path d="M 0 364.007178 
L 417.648125 364.007178 
L 417.648125 0 
L 0 0 
z
" style="fill:#ffffff;"/>
  </g>
  <g id="axes_1">
   <g id="patch_2">
    <path d="M 53.328125 288.430125 
L 410.448125 288.430125 
L 410.448125 22.318125 
L 53.328125 22.318125 
z
" style="fill:#ffffff;"/>
   </g>
   <g id="PolyCollection_1">
    <defs>
     <path d="M 115.101836 -295.624191 
L 110.594414 -295.624191 
L 110.209148 -295.967311 
L 109.774809 -296.310431 
L 109.288227 -296.653551 
L 108.746522 -296.99667 
L 108.147188 -297.33979 
L 107.488165 -297.68291 
L 106.767911 -298.02603 
L 105.985456 -298.36915 
L 105.140451 -298.712269 
L 104.233196 -299.055389 
L 103.264656 -299.398509 
L 102.236453 -299.741629 
L 101.150847 -300.084749 
L 100.010697 -300.427869 
L 98.819405 -300.770988 
L 97.580854 -301.114108 
L 96.299333 -301.457228 
L 94.979465 -301.800348 
L 93.626126 -302.143468 
L 92.244379 -302.486587 
L 90.839416 -302.829707 
L 89.416508 -303.172827 
L 87.980977 -303.515947 
L 86.538187 -303.859067 
L 85.093541 -304.202187 
L 83.652509 -304.545306 
L 82.220653 -304.888426 
L 80.803674 -305.231546 
L 79.407451 -305.574666 
L 78.038082 -305.917786 
L 76.701914 -306.260905 
L 75.405555 -306.604025 
L 74.155871 -306.947145 
L 72.959951 -307.290265 
L 71.825046 -307.633385 
L 70.75848 -307.976504 
L 69.767538 -308.319624 
L 68.85932 -308.662744 
L 68.040584 -309.005864 
L 67.317574 -309.348984 
L 66.695842 -309.692104 
L 66.180078 -310.035223 
L 65.773951 -310.378343 
L 65.479973 -310.721463 
L 65.299392 -311.064583 
L 65.232125 -311.407703 
L 65.27673 -311.750822 
L 65.430424 -312.093942 
L 65.689145 -312.437062 
L 66.047659 -312.780182 
L 66.499709 -313.123302 
L 67.038197 -313.466422 
L 67.655386 -313.809541 
L 68.343138 -314.152661 
L 69.093141 -314.495781 
L 69.897149 -314.838901 
L 70.747203 -315.182021 
L 71.635842 -315.52514 
L 72.556271 -315.86826 
L 73.502511 -316.21138 
L 74.469492 -316.5545 
L 75.45312 -316.89762 
L 76.450283 -317.24074 
L 77.458821 -317.583859 
L 78.477456 -317.926979 
L 79.50568 -318.270099 
L 80.543615 -318.613219 
L 81.591846 -318.956339 
L 82.651244 -319.299458 
L 83.722775 -319.642578 
L 84.807321 -319.985698 
L 85.905499 -320.328818 
L 87.017514 -320.671938 
L 88.143023 -321.015058 
L 89.281042 -321.358177 
L 90.429881 -321.701297 
L 91.587115 -322.044417 
L 92.749603 -322.387537 
L 93.913525 -322.730657 
L 95.07447 -323.073776 
L 96.227538 -323.416896 
L 97.367473 -323.760016 
L 98.488803 -324.103136 
L 99.585997 -324.446256 
L 100.653619 -324.789375 
L 101.686475 -325.132495 
L 102.679751 -325.475615 
L 103.629137 -325.818735 
L 104.53092 -326.161855 
L 105.382068 -326.504975 
L 106.180275 -326.848094 
L 106.923986 -327.191214 
L 107.612401 -327.534334 
L 108.245449 -327.877454 
L 108.823745 -328.220574 
L 109.348531 -328.563693 
L 109.821605 -328.906813 
L 110.245232 -329.249933 
L 110.622064 -329.593053 
L 115.074186 -329.593053 
L 115.074186 -329.593053 
L 115.451018 -329.249933 
L 115.874645 -328.906813 
L 116.347719 -328.563693 
L 116.872505 -328.220574 
L 117.450801 -327.877454 
L 118.083849 -327.534334 
L 118.772264 -327.191214 
L 119.515975 -326.848094 
L 120.314182 -326.504975 
L 121.16533 -326.161855 
L 122.067113 -325.818735 
L 123.016499 -325.475615 
L 124.009775 -325.132495 
L 125.042631 -324.789375 
L 126.110253 -324.446256 
L 127.207447 -324.103136 
L 128.328777 -323.760016 
L 129.468712 -323.416896 
L 130.62178 -323.073776 
L 131.782725 -322.730657 
L 132.946647 -322.387537 
L 134.109135 -322.044417 
L 135.266369 -321.701297 
L 136.415208 -321.358177 
L 137.553227 -321.015058 
L 138.678736 -320.671938 
L 139.790751 -320.328818 
L 140.888929 -319.985698 
L 141.973475 -319.642578 
L 143.045006 -319.299458 
L 144.104404 -318.956339 
L 145.152635 -318.613219 
L 146.19057 -318.270099 
L 147.218794 -317.926979 
L 148.237429 -317.583859 
L 149.245967 -317.24074 
L 150.24313 -316.89762 
L 151.226758 -316.5545 
L 152.193739 -316.21138 
L 153.139979 -315.86826 
L 154.060408 -315.52514 
L 154.949047 -315.182021 
L 155.799101 -314.838901 
L 156.603109 -314.495781 
L 157.353112 -314.152661 
L 158.040864 -313.809541 
L 158.658053 -313.466422 
L 159.196541 -313.123302 
L 159.648591 -312.780182 
L 160.007105 -312.437062 
L 160.265826 -312.093942 
L 160.41952 -311.750822 
L 160.464125 -311.407703 
L 160.396858 -311.064583 
L 160.216277 -310.721463 
L 159.922299 -310.378343 
L 159.516172 -310.035223 
L 159.000408 -309.692104 
L 158.378676 -309.348984 
L 157.655666 -309.005864 
L 156.83693 -308.662744 
L 155.928712 -308.319624 
L 154.93777 -307.976504 
L 153.871204 -307.633385 
L 152.736299 -307.290265 
L 151.540379 -306.947145 
L 150.290695 -306.604025 
L 148.994336 -306.260905 
L 147.658168 -305.917786 
L 146.288799 -305.574666 
L 144.892576 -305.231546 
L 143.475597 -304.888426 
L 142.043741 -304.545306 
L 140.602709 -304.202187 
L 139.158063 -303.859067 
L 137.715273 -303.515947 
L 136.279742 -303.172827 
L 134.856834 -302.829707 
L 133.451871 -302.486587 
L 132.070124 -302.143468 
L 130.716785 -301.800348 
L 129.396917 -301.457228 
L 128.115396 -301.114108 
L 126.876845 -300.770988 
L 125.685553 -300.427869 
L 124.545403 -300.084749 
L 123.459797 -299.741629 
L 122.431594 -299.398509 
L 121.463054 -299.055389 
L 120.555799 -298.712269 
L 119.710794 -298.36915 
L 118.928339 -298.02603 
L 118.208085 -297.68291 
L 117.549062 -297.33979 
L 116.949728 -296.99667 
L 116.408023 -296.653551 
L 115.921441 -296.310431 
L 115.487102 -295.967311 
L 115.101836 -295.624191 
z
" id="mfd936959bf" style="stroke:#3f3f3f;stroke-width:1.5;"/>
    </defs>
    <g clip-path="url(#pd865cb0c13)">
     <use style="fill:#c03d3e;stroke:#3f3f3f;stroke-width:1.5;" x="0" xlink:href="#mfd936959bf" y="364.007178"/>
    </g>
   </g>
   <g id="PolyCollection_2">
    <defs>
     <path d="M 232.323902 -139.580532 
L 231.452348 -139.580532 
L 231.380174 -141.273396 
L 231.299597 -142.96626 
L 231.210318 -144.659124 
L 231.112154 -146.351988 
L 231.005059 -148.044852 
L 230.889143 -149.737716 
L 230.764682 -151.43058 
L 230.632137 -153.123444 
L 230.492151 -154.816308 
L 230.345556 -156.509172 
L 230.193359 -158.202036 
L 230.03673 -159.8949 
L 229.876978 -161.587764 
L 229.715518 -163.280628 
L 229.553835 -164.973492 
L 229.393435 -166.666356 
L 229.235792 -168.35922 
L 229.082299 -170.052084 
L 228.934201 -171.744948 
L 228.792545 -173.437812 
L 228.658122 -175.130676 
L 228.531413 -176.82354 
L 228.412553 -178.516404 
L 228.301294 -180.209268 
L 228.196985 -181.902132 
L 228.098569 -183.594996 
L 228.004585 -185.28786 
L 227.913199 -186.980724 
L 227.822242 -188.673588 
L 227.729266 -190.366452 
L 227.631616 -192.059316 
L 227.526511 -193.75218 
L 227.411142 -195.445044 
L 227.282764 -197.137908 
L 227.138808 -198.830772 
L 226.976977 -200.523636 
L 226.795353 -202.2165 
L 226.592479 -203.909364 
L 226.367448 -205.602228 
L 226.119963 -207.295092 
L 225.850385 -208.987956 
L 225.559763 -210.68082 
L 225.249839 -212.373684 
L 224.923031 -214.066548 
L 224.5824 -215.759412 
L 224.231589 -217.452276 
L 223.874744 -219.14514 
L 223.516425 -220.838004 
L 223.161497 -222.530867 
L 222.81501 -224.223731 
L 222.48208 -225.916595 
L 222.167763 -227.609459 
L 221.876936 -229.302323 
L 221.614176 -230.995187 
L 221.383661 -232.688051 
L 221.189074 -234.380915 
L 221.033529 -236.073779 
L 220.919514 -237.766643 
L 220.848849 -239.459507 
L 220.82267 -241.152371 
L 220.841422 -242.845235 
L 220.904882 -244.538099 
L 221.012185 -246.230963 
L 221.161874 -247.923827 
L 221.351955 -249.616691 
L 221.579964 -251.309555 
L 221.843035 -253.002419 
L 222.137981 -254.695283 
L 222.461361 -256.388147 
L 222.80956 -258.081011 
L 223.178856 -259.773875 
L 223.565483 -261.466739 
L 223.965695 -263.159603 
L 224.375817 -264.852467 
L 224.792287 -266.545331 
L 225.211702 -268.238195 
L 225.630845 -269.931059 
L 226.046714 -271.623923 
L 226.456542 -273.316787 
L 226.857813 -275.009651 
L 227.248274 -276.702515 
L 227.625939 -278.395379 
L 227.989098 -280.088243 
L 228.336311 -281.781107 
L 228.666409 -283.473971 
L 228.978486 -285.166835 
L 229.271891 -286.859699 
L 229.546219 -288.552563 
L 229.801293 -290.245427 
L 230.037154 -291.938291 
L 230.254037 -293.631155 
L 230.452358 -295.324019 
L 230.632686 -297.016883 
L 230.795727 -298.709747 
L 230.942301 -300.402611 
L 231.073314 -302.095475 
L 231.189744 -303.788339 
L 231.292612 -305.481203 
L 231.382965 -307.174067 
L 232.393285 -307.174067 
L 232.393285 -307.174067 
L 232.483638 -305.481203 
L 232.586506 -303.788339 
L 232.702936 -302.095475 
L 232.833949 -300.402611 
L 232.980523 -298.709747 
L 233.143564 -297.016883 
L 233.323892 -295.324019 
L 233.522213 -293.631155 
L 233.739096 -291.938291 
L 233.974957 -290.245427 
L 234.230031 -288.552563 
L 234.504359 -286.859699 
L 234.797764 -285.166835 
L 235.109841 -283.473971 
L 235.439939 -281.781107 
L 235.787152 -280.088243 
L 236.150311 -278.395379 
L 236.527976 -276.702515 
L 236.918437 -275.009651 
L 237.319708 -273.316787 
L 237.729536 -271.623923 
L 238.145405 -269.931059 
L 238.564548 -268.238195 
L 238.983963 -266.545331 
L 239.400433 -264.852467 
L 239.810555 -263.159603 
L 240.210767 -261.466739 
L 240.597394 -259.773875 
L 240.96669 -258.081011 
L 241.314889 -256.388147 
L 241.638269 -254.695283 
L 241.933215 -253.002419 
L 242.196286 -251.309555 
L 242.424295 -249.616691 
L 242.614376 -247.923827 
L 242.764065 -246.230963 
L 242.871368 -244.538099 
L 242.934828 -242.845235 
L 242.95358 -241.152371 
L 242.927401 -239.459507 
L 242.856736 -237.766643 
L 242.742721 -236.073779 
L 242.587176 -234.380915 
L 242.392589 -232.688051 
L 242.162074 -230.995187 
L 241.899314 -229.302323 
L 241.608487 -227.609459 
L 241.29417 -225.916595 
L 240.96124 -224.223731 
L 240.614753 -222.530867 
L 240.259825 -220.838004 
L 239.901506 -219.14514 
L 239.544661 -217.452276 
L 239.19385 -215.759412 
L 238.853219 -214.066548 
L 238.526411 -212.373684 
L 238.216487 -210.68082 
L 237.925865 -208.987956 
L 237.656287 -207.295092 
L 237.408802 -205.602228 
L 237.183771 -203.909364 
L 236.980897 -202.2165 
L 236.799273 -200.523636 
L 236.637442 -198.830772 
L 236.493486 -197.137908 
L 236.365108 -195.445044 
L 236.249739 -193.75218 
L 236.144634 -192.059316 
L 236.046984 -190.366452 
L 235.954008 -188.673588 
L 235.863051 -186.980724 
L 235.771665 -185.28786 
L 235.677681 -183.594996 
L 235.579265 -181.902132 
L 235.474956 -180.209268 
L 235.363697 -178.516404 
L 235.244837 -176.82354 
L 235.118128 -175.130676 
L 234.983705 -173.437812 
L 234.842049 -171.744948 
L 234.693951 -170.052084 
L 234.540458 -168.35922 
L 234.382815 -166.666356 
L 234.222415 -164.973492 
L 234.060732 -163.280628 
L 233.899272 -161.587764 
L 233.73952 -159.8949 
L 233.582891 -158.202036 
L 233.430694 -156.509172 
L 233.284099 -154.816308 
L 233.144113 -153.123444 
L 233.011568 -151.43058 
L 232.887107 -149.737716 
L 232.771191 -148.044852 
L 232.664096 -146.351988 
L 232.565932 -144.659124 
L 232.476653 -142.96626 
L 232.396076 -141.273396 
L 232.323902 -139.580532 
z
" id="me1eba8650f" style="stroke:#3f3f3f;stroke-width:1.5;"/>
    </defs>
    <g clip-path="url(#pd865cb0c13)">
     <use style="fill:#9fd495;stroke:#3f3f3f;stroke-width:1.5;" x="0" xlink:href="#me1eba8650f" y="364.007178"/>
    </g>
   </g>
   <g id="PolyCollection_3">
    <defs>
     <path d="M 352.121443 -87.673053 
L 349.734807 -87.673053 
L 349.520032 -88.447399 
L 349.275201 -89.221746 
L 348.997758 -89.996092 
L 348.685217 -90.770438 
L 348.335211 -91.544784 
L 347.945557 -92.319131 
L 347.514315 -93.093477 
L 347.039853 -93.867823 
L 346.520911 -94.64217 
L 345.956661 -95.416516 
L 345.346775 -96.190862 
L 344.691472 -96.965209 
L 343.991574 -97.739555 
L 343.248546 -98.513901 
L 342.464532 -99.288247 
L 341.642377 -100.062594 
L 340.785644 -100.83694 
L 339.898611 -101.611286 
L 338.986264 -102.385633 
L 338.054273 -103.159979 
L 337.108954 -103.934325 
L 336.157221 -104.708671 
L 335.206524 -105.483018 
L 334.264767 -106.257364 
L 333.340229 -107.03171 
L 332.44145 -107.806057 
L 331.577129 -108.580403 
L 330.755989 -109.354749 
L 329.986652 -110.129096 
L 329.277487 -110.903442 
L 328.636471 -111.677788 
L 328.071029 -112.452134 
L 327.587885 -113.226481 
L 327.192909 -114.000827 
L 326.89098 -114.775173 
L 326.685848 -115.54952 
L 326.580018 -116.323866 
L 326.574658 -117.098212 
L 326.669522 -117.872559 
L 326.862911 -118.646905 
L 327.151656 -119.421251 
L 327.531145 -120.195597 
L 327.995379 -120.969944 
L 328.537072 -121.74429 
L 329.147775 -122.518636 
L 329.818047 -123.292983 
L 330.537649 -124.067329 
L 331.295761 -124.841675 
L 332.081224 -125.616022 
L 332.882792 -126.390368 
L 333.689389 -127.164714 
L 334.490359 -127.93906 
L 335.275714 -128.713407 
L 336.036353 -129.487753 
L 336.764259 -130.262099 
L 337.452666 -131.036446 
L 338.096182 -131.810792 
L 338.690871 -132.585138 
L 339.234299 -133.359485 
L 339.725522 -134.133831 
L 340.165041 -134.908177 
L 340.554708 -135.682523 
L 340.897598 -136.45687 
L 341.19785 -137.231216 
L 341.460474 -138.005562 
L 341.691151 -138.779909 
L 341.896011 -139.554255 
L 342.081414 -140.328601 
L 342.25373 -141.102948 
L 342.419139 -141.877294 
L 342.583438 -142.65164 
L 342.751877 -143.425986 
L 342.92903 -144.200333 
L 343.118683 -144.974679 
L 343.323767 -145.749025 
L 343.54632 -146.523372 
L 343.787483 -147.297718 
L 344.047527 -148.072064 
L 344.325909 -148.84641 
L 344.621345 -149.620757 
L 344.931917 -150.395103 
L 345.255178 -151.169449 
L 345.588273 -151.943796 
L 345.92807 -152.718142 
L 346.271276 -153.492488 
L 346.614558 -154.266835 
L 346.954651 -155.041181 
L 347.288456 -155.815527 
L 347.613116 -156.589873 
L 347.926082 -157.36422 
L 348.225164 -158.138566 
L 348.508555 -158.912912 
L 348.774852 -159.687259 
L 349.023051 -160.461605 
L 349.252536 -161.235951 
L 349.463054 -162.010298 
L 349.654683 -162.784644 
L 349.827794 -163.55899 
L 349.983004 -164.333336 
L 351.873246 -164.333336 
L 351.873246 -164.333336 
L 352.028456 -163.55899 
L 352.201567 -162.784644 
L 352.393196 -162.010298 
L 352.603714 -161.235951 
L 352.833199 -160.461605 
L 353.081398 -159.687259 
L 353.347695 -158.912912 
L 353.631086 -158.138566 
L 353.930168 -157.36422 
L 354.243134 -156.589873 
L 354.567794 -155.815527 
L 354.901599 -155.041181 
L 355.241692 -154.266835 
L 355.584974 -153.492488 
L 355.92818 -152.718142 
L 356.267977 -151.943796 
L 356.601072 -151.169449 
L 356.924333 -150.395103 
L 357.234905 -149.620757 
L 357.530341 -148.84641 
L 357.808723 -148.072064 
L 358.068767 -147.297718 
L 358.30993 -146.523372 
L 358.532483 -145.749025 
L 358.737567 -144.974679 
L 358.92722 -144.200333 
L 359.104373 -143.425986 
L 359.272812 -142.65164 
L 359.437111 -141.877294 
L 359.60252 -141.102948 
L 359.774836 -140.328601 
L 359.960239 -139.554255 
L 360.165099 -138.779909 
L 360.395776 -138.005562 
L 360.6584 -137.231216 
L 360.958652 -136.45687 
L 361.301542 -135.682523 
L 361.691209 -134.908177 
L 362.130728 -134.133831 
L 362.621951 -133.359485 
L 363.165379 -132.585138 
L 363.760068 -131.810792 
L 364.403584 -131.036446 
L 365.091991 -130.262099 
L 365.819897 -129.487753 
L 366.580536 -128.713407 
L 367.365891 -127.93906 
L 368.166861 -127.164714 
L 368.973458 -126.390368 
L 369.775026 -125.616022 
L 370.560489 -124.841675 
L 371.318601 -124.067329 
L 372.038203 -123.292983 
L 372.708475 -122.518636 
L 373.319178 -121.74429 
L 373.860871 -120.969944 
L 374.325105 -120.195597 
L 374.704594 -119.421251 
L 374.993339 -118.646905 
L 375.186728 -117.872559 
L 375.281592 -117.098212 
L 375.276232 -116.323866 
L 375.170402 -115.54952 
L 374.96527 -114.775173 
L 374.663341 -114.000827 
L 374.268365 -113.226481 
L 373.785221 -112.452134 
L 373.219779 -111.677788 
L 372.578763 -110.903442 
L 371.869598 -110.129096 
L 371.100261 -109.354749 
L 370.279121 -108.580403 
L 369.4148 -107.806057 
L 368.516021 -107.03171 
L 367.591483 -106.257364 
L 366.649726 -105.483018 
L 365.699029 -104.708671 
L 364.747296 -103.934325 
L 363.801977 -103.159979 
L 362.869986 -102.385633 
L 361.957639 -101.611286 
L 361.070606 -100.83694 
L 360.213873 -100.062594 
L 359.391718 -99.288247 
L 358.607704 -98.513901 
L 357.864676 -97.739555 
L 357.164778 -96.965209 
L 356.509475 -96.190862 
L 355.899589 -95.416516 
L 355.335339 -94.64217 
L 354.816397 -93.867823 
L 354.341935 -93.093477 
L 353.910693 -92.319131 
L 353.521039 -91.544784 
L 353.171033 -90.770438 
L 352.858492 -89.996092 
L 352.581049 -89.221746 
L 352.336218 -88.447399 
L 352.121443 -87.673053 
z
" id="m405cc9060e" style="stroke:#3f3f3f;stroke-width:1.5;"/>
    </defs>
    <g clip-path="url(#pd865cb0c13)">
     <use style="fill:#3274a1;stroke:#3f3f3f;stroke-width:1.5;" x="0" xlink:href="#m405cc9060e" y="364.007178"/>
    </g>
   </g>
   <g id="matplotlib.axis_1">
    <g id="xtick_1">
     <g id="line2d_1">
      <defs>
       <path d="M 0 0 
L 0 3.5 
" id="mdc3e6de00b" style="stroke:#000000;stroke-width:0.8;"/>
      </defs>
      <g>
       <use style="stroke:#000000;stroke-width:0.8;" x="112.848125" xlink:href="#mdc3e6de00b" y="288.430125"/>
      </g>
     </g>
     <g id="text_1">
      <!-- entropic -->
      <g transform="translate(76.266057 322.530877)rotate(-30)scale(0.1 -0.1)">
       <defs>
        <path d="M 56.203125 29.59375 
L 56.203125 25.203125 
L 14.890625 25.203125 
Q 15.484375 15.921875 20.484375 11.0625 
Q 25.484375 6.203125 34.421875 6.203125 
Q 39.59375 6.203125 44.453125 7.46875 
Q 49.3125 8.734375 54.109375 11.28125 
L 54.109375 2.78125 
Q 49.265625 0.734375 44.1875 -0.34375 
Q 39.109375 -1.421875 33.890625 -1.421875 
Q 20.796875 -1.421875 13.15625 6.1875 
Q 5.515625 13.8125 5.515625 26.8125 
Q 5.515625 40.234375 12.765625 48.109375 
Q 20.015625 56 32.328125 56 
Q 43.359375 56 49.78125 48.890625 
Q 56.203125 41.796875 56.203125 29.59375 
z
M 47.21875 32.234375 
Q 47.125 39.59375 43.09375 43.984375 
Q 39.0625 48.390625 32.421875 48.390625 
Q 24.90625 48.390625 20.390625 44.140625 
Q 15.875 39.890625 15.1875 32.171875 
z
" id="DejaVuSans-101"/>
        <path d="M 54.890625 33.015625 
L 54.890625 0 
L 45.90625 0 
L 45.90625 32.71875 
Q 45.90625 40.484375 42.875 44.328125 
Q 39.84375 48.1875 33.796875 48.1875 
Q 26.515625 48.1875 22.3125 43.546875 
Q 18.109375 38.921875 18.109375 30.90625 
L 18.109375 0 
L 9.078125 0 
L 9.078125 54.6875 
L 18.109375 54.6875 
L 18.109375 46.1875 
Q 21.34375 51.125 25.703125 53.5625 
Q 30.078125 56 35.796875 56 
Q 45.21875 56 50.046875 50.171875 
Q 54.890625 44.34375 54.890625 33.015625 
z
" id="DejaVuSans-110"/>
        <path d="M 18.3125 70.21875 
L 18.3125 54.6875 
L 36.8125 54.6875 
L 36.8125 47.703125 
L 18.3125 47.703125 
L 18.3125 18.015625 
Q 18.3125 11.328125 20.140625 9.421875 
Q 21.96875 7.515625 27.59375 7.515625 
L 36.8125 7.515625 
L 36.8125 0 
L 27.59375 0 
Q 17.1875 0 13.234375 3.875 
Q 9.28125 7.765625 9.28125 18.015625 
L 9.28125 47.703125 
L 2.6875 47.703125 
L 2.6875 54.6875 
L 9.28125 54.6875 
L 9.28125 70.21875 
z
" id="DejaVuSans-116"/>
        <path d="M 41.109375 46.296875 
Q 39.59375 47.171875 37.8125 47.578125 
Q 36.03125 48 33.890625 48 
Q 26.265625 48 22.1875 43.046875 
Q 18.109375 38.09375 18.109375 28.8125 
L 18.109375 0 
L 9.078125 0 
L 9.078125 54.6875 
L 18.109375 54.6875 
L 18.109375 46.1875 
Q 20.953125 51.171875 25.484375 53.578125 
Q 30.03125 56 36.53125 56 
Q 37.453125 56 38.578125 55.875 
Q 39.703125 55.765625 41.0625 55.515625 
z
" id="DejaVuSans-114"/>
        <path d="M 30.609375 48.390625 
Q 23.390625 48.390625 19.1875 42.75 
Q 14.984375 37.109375 14.984375 27.296875 
Q 14.984375 17.484375 19.15625 11.84375 
Q 23.34375 6.203125 30.609375 6.203125 
Q 37.796875 6.203125 41.984375 11.859375 
Q 46.1875 17.53125 46.1875 27.296875 
Q 46.1875 37.015625 41.984375 42.703125 
Q 37.796875 48.390625 30.609375 48.390625 
z
M 30.609375 56 
Q 42.328125 56 49.015625 48.375 
Q 55.71875 40.765625 55.71875 27.296875 
Q 55.71875 13.875 49.015625 6.21875 
Q 42.328125 -1.421875 30.609375 -1.421875 
Q 18.84375 -1.421875 12.171875 6.21875 
Q 5.515625 13.875 5.515625 27.296875 
Q 5.515625 40.765625 12.171875 48.375 
Q 18.84375 56 30.609375 56 
z
" id="DejaVuSans-111"/>
        <path d="M 18.109375 8.203125 
L 18.109375 -20.796875 
L 9.078125 -20.796875 
L 9.078125 54.6875 
L 18.109375 54.6875 
L 18.109375 46.390625 
Q 20.953125 51.265625 25.265625 53.625 
Q 29.59375 56 35.59375 56 
Q 45.5625 56 51.78125 48.09375 
Q 58.015625 40.1875 58.015625 27.296875 
Q 58.015625 14.40625 51.78125 6.484375 
Q 45.5625 -1.421875 35.59375 -1.421875 
Q 29.59375 -1.421875 25.265625 0.953125 
Q 20.953125 3.328125 18.109375 8.203125 
z
M 48.6875 27.296875 
Q 48.6875 37.203125 44.609375 42.84375 
Q 40.53125 48.484375 33.40625 48.484375 
Q 26.265625 48.484375 22.1875 42.84375 
Q 18.109375 37.203125 18.109375 27.296875 
Q 18.109375 17.390625 22.1875 11.75 
Q 26.265625 6.109375 33.40625 6.109375 
Q 40.53125 6.109375 44.609375 11.75 
Q 48.6875 17.390625 48.6875 27.296875 
z
" id="DejaVuSans-112"/>
        <path d="M 9.421875 54.6875 
L 18.40625 54.6875 
L 18.40625 0 
L 9.421875 0 
z
M 9.421875 75.984375 
L 18.40625 75.984375 
L 18.40625 64.59375 
L 9.421875 64.59375 
z
" id="DejaVuSans-105"/>
        <path d="M 48.78125 52.59375 
L 48.78125 44.1875 
Q 44.96875 46.296875 41.140625 47.34375 
Q 37.3125 48.390625 33.40625 48.390625 
Q 24.65625 48.390625 19.8125 42.84375 
Q 14.984375 37.3125 14.984375 27.296875 
Q 14.984375 17.28125 19.8125 11.734375 
Q 24.65625 6.203125 33.40625 6.203125 
Q 37.3125 6.203125 41.140625 7.25 
Q 44.96875 8.296875 48.78125 10.40625 
L 48.78125 2.09375 
Q 45.015625 0.34375 40.984375 -0.53125 
Q 36.96875 -1.421875 32.421875 -1.421875 
Q 20.0625 -1.421875 12.78125 6.34375 
Q 5.515625 14.109375 5.515625 27.296875 
Q 5.515625 40.671875 12.859375 48.328125 
Q 20.21875 56 33.015625 56 
Q 37.15625 56 41.109375 55.140625 
Q 45.0625 54.296875 48.78125 52.59375 
z
" id="DejaVuSans-99"/>
       </defs>
       <use xlink:href="#DejaVuSans-101"/>
       <use x="61.523438" xlink:href="#DejaVuSans-110"/>
       <use x="124.902344" xlink:href="#DejaVuSans-116"/>
       <use x="164.111328" xlink:href="#DejaVuSans-114"/>
       <use x="202.974609" xlink:href="#DejaVuSans-111"/>
       <use x="264.15625" xlink:href="#DejaVuSans-112"/>
       <use x="327.632812" xlink:href="#DejaVuSans-105"/>
       <use x="355.416016" xlink:href="#DejaVuSans-99"/>
      </g>
     </g>
    </g>
    <g id="xtick_2">
     <g id="line2d_2">
      <g>
       <use style="stroke:#000000;stroke-width:0.8;" x="231.888125" xlink:href="#mdc3e6de00b" y="288.430125"/>
      </g>
     </g>
     <g id="text_2">
      <!-- aflplusplus_hier -->
      <g transform="translate(163.026627 341.087127)rotate(-30)scale(0.1 -0.1)">
       <defs>
        <path d="M 34.28125 27.484375 
Q 23.390625 27.484375 19.1875 25 
Q 14.984375 22.515625 14.984375 16.5 
Q 14.984375 11.71875 18.140625 8.90625 
Q 21.296875 6.109375 26.703125 6.109375 
Q 34.1875 6.109375 38.703125 11.40625 
Q 43.21875 16.703125 43.21875 25.484375 
L 43.21875 27.484375 
z
M 52.203125 31.203125 
L 52.203125 0 
L 43.21875 0 
L 43.21875 8.296875 
Q 40.140625 3.328125 35.546875 0.953125 
Q 30.953125 -1.421875 24.3125 -1.421875 
Q 15.921875 -1.421875 10.953125 3.296875 
Q 6 8.015625 6 15.921875 
Q 6 25.140625 12.171875 29.828125 
Q 18.359375 34.515625 30.609375 34.515625 
L 43.21875 34.515625 
L 43.21875 35.40625 
Q 43.21875 41.609375 39.140625 45 
Q 35.0625 48.390625 27.6875 48.390625 
Q 23 48.390625 18.546875 47.265625 
Q 14.109375 46.140625 10.015625 43.890625 
L 10.015625 52.203125 
Q 14.9375 54.109375 19.578125 55.046875 
Q 24.21875 56 28.609375 56 
Q 40.484375 56 46.34375 49.84375 
Q 52.203125 43.703125 52.203125 31.203125 
z
" id="DejaVuSans-97"/>
        <path d="M 37.109375 75.984375 
L 37.109375 68.5 
L 28.515625 68.5 
Q 23.6875 68.5 21.796875 66.546875 
Q 19.921875 64.59375 19.921875 59.515625 
L 19.921875 54.6875 
L 34.71875 54.6875 
L 34.71875 47.703125 
L 19.921875 47.703125 
L 19.921875 0 
L 10.890625 0 
L 10.890625 47.703125 
L 2.296875 47.703125 
L 2.296875 54.6875 
L 10.890625 54.6875 
L 10.890625 58.5 
Q 10.890625 67.625 15.140625 71.796875 
Q 19.390625 75.984375 28.609375 75.984375 
z
" id="DejaVuSans-102"/>
        <path d="M 9.421875 75.984375 
L 18.40625 75.984375 
L 18.40625 0 
L 9.421875 0 
z
" id="DejaVuSans-108"/>
        <path d="M 8.5 21.578125 
L 8.5 54.6875 
L 17.484375 54.6875 
L 17.484375 21.921875 
Q 17.484375 14.15625 20.5 10.265625 
Q 23.53125 6.390625 29.59375 6.390625 
Q 36.859375 6.390625 41.078125 11.03125 
Q 45.3125 15.671875 45.3125 23.6875 
L 45.3125 54.6875 
L 54.296875 54.6875 
L 54.296875 0 
L 45.3125 0 
L 45.3125 8.40625 
Q 42.046875 3.421875 37.71875 1 
Q 33.40625 -1.421875 27.6875 -1.421875 
Q 18.265625 -1.421875 13.375 4.4375 
Q 8.5 10.296875 8.5 21.578125 
z
M 31.109375 56 
z
" id="DejaVuSans-117"/>
        <path d="M 44.28125 53.078125 
L 44.28125 44.578125 
Q 40.484375 46.53125 36.375 47.5 
Q 32.28125 48.484375 27.875 48.484375 
Q 21.1875 48.484375 17.84375 46.4375 
Q 14.5 44.390625 14.5 40.28125 
Q 14.5 37.15625 16.890625 35.375 
Q 19.28125 33.59375 26.515625 31.984375 
L 29.59375 31.296875 
Q 39.15625 29.25 43.1875 25.515625 
Q 47.21875 21.78125 47.21875 15.09375 
Q 47.21875 7.46875 41.1875 3.015625 
Q 35.15625 -1.421875 24.609375 -1.421875 
Q 20.21875 -1.421875 15.453125 -0.5625 
Q 10.6875 0.296875 5.421875 2 
L 5.421875 11.28125 
Q 10.40625 8.6875 15.234375 7.390625 
Q 20.0625 6.109375 24.8125 6.109375 
Q 31.15625 6.109375 34.5625 8.28125 
Q 37.984375 10.453125 37.984375 14.40625 
Q 37.984375 18.0625 35.515625 20.015625 
Q 33.0625 21.96875 24.703125 23.78125 
L 21.578125 24.515625 
Q 13.234375 26.265625 9.515625 29.90625 
Q 5.8125 33.546875 5.8125 39.890625 
Q 5.8125 47.609375 11.28125 51.796875 
Q 16.75 56 26.8125 56 
Q 31.78125 56 36.171875 55.265625 
Q 40.578125 54.546875 44.28125 53.078125 
z
" id="DejaVuSans-115"/>
        <path d="M 50.984375 -16.609375 
L 50.984375 -23.578125 
L -0.984375 -23.578125 
L -0.984375 -16.609375 
z
" id="DejaVuSans-95"/>
        <path d="M 54.890625 33.015625 
L 54.890625 0 
L 45.90625 0 
L 45.90625 32.71875 
Q 45.90625 40.484375 42.875 44.328125 
Q 39.84375 48.1875 33.796875 48.1875 
Q 26.515625 48.1875 22.3125 43.546875 
Q 18.109375 38.921875 18.109375 30.90625 
L 18.109375 0 
L 9.078125 0 
L 9.078125 75.984375 
L 18.109375 75.984375 
L 18.109375 46.1875 
Q 21.34375 51.125 25.703125 53.5625 
Q 30.078125 56 35.796875 56 
Q 45.21875 56 50.046875 50.171875 
Q 54.890625 44.34375 54.890625 33.015625 
z
" id="DejaVuSans-104"/>
       </defs>
       <use xlink:href="#DejaVuSans-97"/>
       <use x="61.279297" xlink:href="#DejaVuSans-102"/>
       <use x="96.484375" xlink:href="#DejaVuSans-108"/>
       <use x="124.267578" xlink:href="#DejaVuSans-112"/>
       <use x="187.744141" xlink:href="#DejaVuSans-108"/>
       <use x="215.527344" xlink:href="#DejaVuSans-117"/>
       <use x="278.90625" xlink:href="#DejaVuSans-115"/>
       <use x="331.005859" xlink:href="#DejaVuSans-112"/>
       <use x="394.482422" xlink:href="#DejaVuSans-108"/>
       <use x="422.265625" xlink:href="#DejaVuSans-117"/>
       <use x="485.644531" xlink:href="#DejaVuSans-115"/>
       <use x="537.744141" xlink:href="#DejaVuSans-95"/>
       <use x="587.744141" xlink:href="#DejaVuSans-104"/>
       <use x="651.123047" xlink:href="#DejaVuSans-105"/>
       <use x="678.90625" xlink:href="#DejaVuSans-101"/>
       <use x="740.429688" xlink:href="#DejaVuSans-114"/>
      </g>
     </g>
    </g>
    <g id="xtick_3">
     <g id="line2d_3">
      <g>
       <use style="stroke:#000000;stroke-width:0.8;" x="350.928125" xlink:href="#mdc3e6de00b" y="288.430125"/>
      </g>
     </g>
     <g id="text_3">
      <!-- aflplusplus -->
      <g transform="translate(303.319118 328.897284)rotate(-30)scale(0.1 -0.1)">
       <use xlink:href="#DejaVuSans-97"/>
       <use x="61.279297" xlink:href="#DejaVuSans-102"/>
       <use x="96.484375" xlink:href="#DejaVuSans-108"/>
       <use x="124.267578" xlink:href="#DejaVuSans-112"/>
       <use x="187.744141" xlink:href="#DejaVuSans-108"/>
       <use x="215.527344" xlink:href="#DejaVuSans-117"/>
       <use x="278.90625" xlink:href="#DejaVuSans-115"/>
       <use x="331.005859" xlink:href="#DejaVuSans-112"/>
       <use x="394.482422" xlink:href="#DejaVuSans-108"/>
       <use x="422.265625" xlink:href="#DejaVuSans-117"/>
       <use x="485.644531" xlink:href="#DejaVuSans-115"/>
      </g>
     </g>
    </g>
    <g id="text_4">
     <!-- Fuzzer (highest median coverage on the left) -->
     <g transform="translate(119.270156 354.72749)scale(0.1 -0.1)">
      <defs>
       <path d="M 9.8125 72.90625 
L 51.703125 72.90625 
L 51.703125 64.59375 
L 19.671875 64.59375 
L 19.671875 43.109375 
L 48.578125 43.109375 
L 48.578125 34.8125 
L 19.671875 34.8125 
L 19.671875 0 
L 9.8125 0 
z
" id="DejaVuSans-70"/>
       <path d="M 5.515625 54.6875 
L 48.1875 54.6875 
L 48.1875 46.484375 
L 14.40625 7.171875 
L 48.1875 7.171875 
L 48.1875 0 
L 4.296875 0 
L 4.296875 8.203125 
L 38.09375 47.515625 
L 5.515625 47.515625 
z
" id="DejaVuSans-122"/>
       <path id="DejaVuSans-32"/>
       <path d="M 31 75.875 
Q 24.46875 64.65625 21.28125 53.65625 
Q 18.109375 42.671875 18.109375 31.390625 
Q 18.109375 20.125 21.3125 9.0625 
Q 24.515625 -2 31 -13.1875 
L 23.1875 -13.1875 
Q 15.875 -1.703125 12.234375 9.375 
Q 8.59375 20.453125 8.59375 31.390625 
Q 8.59375 42.28125 12.203125 53.3125 
Q 15.828125 64.359375 23.1875 75.875 
z
" id="DejaVuSans-40"/>
       <path d="M 45.40625 27.984375 
Q 45.40625 37.75 41.375 43.109375 
Q 37.359375 48.484375 30.078125 48.484375 
Q 22.859375 48.484375 18.828125 43.109375 
Q 14.796875 37.75 14.796875 27.984375 
Q 14.796875 18.265625 18.828125 12.890625 
Q 22.859375 7.515625 30.078125 7.515625 
Q 37.359375 7.515625 41.375 12.890625 
Q 45.40625 18.265625 45.40625 27.984375 
z
M 54.390625 6.78125 
Q 54.390625 -7.171875 48.1875 -13.984375 
Q 42 -20.796875 29.203125 -20.796875 
Q 24.46875 -20.796875 20.265625 -20.09375 
Q 16.0625 -19.390625 12.109375 -17.921875 
L 12.109375 -9.1875 
Q 16.0625 -11.328125 19.921875 -12.34375 
Q 23.78125 -13.375 27.78125 -13.375 
Q 36.625 -13.375 41.015625 -8.765625 
Q 45.40625 -4.15625 45.40625 5.171875 
L 45.40625 9.625 
Q 42.625 4.78125 38.28125 2.390625 
Q 33.9375 0 27.875 0 
Q 17.828125 0 11.671875 7.65625 
Q 5.515625 15.328125 5.515625 27.984375 
Q 5.515625 40.671875 11.671875 48.328125 
Q 17.828125 56 27.875 56 
Q 33.9375 56 38.28125 53.609375 
Q 42.625 51.21875 45.40625 46.390625 
L 45.40625 54.6875 
L 54.390625 54.6875 
z
" id="DejaVuSans-103"/>
       <path d="M 52 44.1875 
Q 55.375 50.25 60.0625 53.125 
Q 64.75 56 71.09375 56 
Q 79.640625 56 84.28125 50.015625 
Q 88.921875 44.046875 88.921875 33.015625 
L 88.921875 0 
L 79.890625 0 
L 79.890625 32.71875 
Q 79.890625 40.578125 77.09375 44.375 
Q 74.3125 48.1875 68.609375 48.1875 
Q 61.625 48.1875 57.5625 43.546875 
Q 53.515625 38.921875 53.515625 30.90625 
L 53.515625 0 
L 44.484375 0 
L 44.484375 32.71875 
Q 44.484375 40.625 41.703125 44.40625 
Q 38.921875 48.1875 33.109375 48.1875 
Q 26.21875 48.1875 22.15625 43.53125 
Q 18.109375 38.875 18.109375 30.90625 
L 18.109375 0 
L 9.078125 0 
L 9.078125 54.6875 
L 18.109375 54.6875 
L 18.109375 46.1875 
Q 21.1875 51.21875 25.484375 53.609375 
Q 29.78125 56 35.6875 56 
Q 41.65625 56 45.828125 52.96875 
Q 50 49.953125 52 44.1875 
z
" id="DejaVuSans-109"/>
       <path d="M 45.40625 46.390625 
L 45.40625 75.984375 
L 54.390625 75.984375 
L 54.390625 0 
L 45.40625 0 
L 45.40625 8.203125 
Q 42.578125 3.328125 38.25 0.953125 
Q 33.9375 -1.421875 27.875 -1.421875 
Q 17.96875 -1.421875 11.734375 6.484375 
Q 5.515625 14.40625 5.515625 27.296875 
Q 5.515625 40.1875 11.734375 48.09375 
Q 17.96875 56 27.875 56 
Q 33.9375 56 38.25 53.625 
Q 42.578125 51.265625 45.40625 46.390625 
z
M 14.796875 27.296875 
Q 14.796875 17.390625 18.875 11.75 
Q 22.953125 6.109375 30.078125 6.109375 
Q 37.203125 6.109375 41.296875 11.75 
Q 45.40625 17.390625 45.40625 27.296875 
Q 45.40625 37.203125 41.296875 42.84375 
Q 37.203125 48.484375 30.078125 48.484375 
Q 22.953125 48.484375 18.875 42.84375 
Q 14.796875 37.203125 14.796875 27.296875 
z
" id="DejaVuSans-100"/>
       <path d="M 2.984375 54.6875 
L 12.5 54.6875 
L 29.59375 8.796875 
L 46.6875 54.6875 
L 56.203125 54.6875 
L 35.6875 0 
L 23.484375 0 
z
" id="DejaVuSans-118"/>
       <path d="M 8.015625 75.875 
L 15.828125 75.875 
Q 23.140625 64.359375 26.78125 53.3125 
Q 30.421875 42.28125 30.421875 31.390625 
Q 30.421875 20.453125 26.78125 9.375 
Q 23.140625 -1.703125 15.828125 -13.1875 
L 8.015625 -13.1875 
Q 14.5 -2 17.703125 9.0625 
Q 20.90625 20.125 20.90625 31.390625 
Q 20.90625 42.671875 17.703125 53.65625 
Q 14.5 64.65625 8.015625 75.875 
z
" id="DejaVuSans-41"/>
      </defs>
      <use xlink:href="#DejaVuSans-70"/>
      <use x="52.019531" xlink:href="#DejaVuSans-117"/>
      <use x="115.398438" xlink:href="#DejaVuSans-122"/>
      <use x="167.888672" xlink:href="#DejaVuSans-122"/>
      <use x="220.378906" xlink:href="#DejaVuSans-101"/>
      <use x="281.902344" xlink:href="#DejaVuSans-114"/>
      <use x="323.015625" xlink:href="#DejaVuSans-32"/>
      <use x="354.802734" xlink:href="#DejaVuSans-40"/>
      <use x="393.816406" xlink:href="#DejaVuSans-104"/>
      <use x="457.195312" xlink:href="#DejaVuSans-105"/>
      <use x="484.978516" xlink:href="#DejaVuSans-103"/>
      <use x="548.455078" xlink:href="#DejaVuSans-104"/>
      <use x="611.833984" xlink:href="#DejaVuSans-101"/>
      <use x="673.357422" xlink:href="#DejaVuSans-115"/>
      <use x="725.457031" xlink:href="#DejaVuSans-116"/>
      <use x="764.666016" xlink:href="#DejaVuSans-32"/>
      <use x="796.453125" xlink:href="#DejaVuSans-109"/>
      <use x="893.865234" xlink:href="#DejaVuSans-101"/>
      <use x="955.388672" xlink:href="#DejaVuSans-100"/>
      <use x="1018.865234" xlink:href="#DejaVuSans-105"/>
      <use x="1046.648438" xlink:href="#DejaVuSans-97"/>
      <use x="1107.927734" xlink:href="#DejaVuSans-110"/>
      <use x="1171.306641" xlink:href="#DejaVuSans-32"/>
      <use x="1203.09375" xlink:href="#DejaVuSans-99"/>
      <use x="1258.074219" xlink:href="#DejaVuSans-111"/>
      <use x="1319.255859" xlink:href="#DejaVuSans-118"/>
      <use x="1378.435547" xlink:href="#DejaVuSans-101"/>
      <use x="1439.958984" xlink:href="#DejaVuSans-114"/>
      <use x="1481.072266" xlink:href="#DejaVuSans-97"/>
      <use x="1542.351562" xlink:href="#DejaVuSans-103"/>
      <use x="1605.828125" xlink:href="#DejaVuSans-101"/>
      <use x="1667.351562" xlink:href="#DejaVuSans-32"/>
      <use x="1699.138672" xlink:href="#DejaVuSans-111"/>
      <use x="1760.320312" xlink:href="#DejaVuSans-110"/>
      <use x="1823.699219" xlink:href="#DejaVuSans-32"/>
      <use x="1855.486328" xlink:href="#DejaVuSans-116"/>
      <use x="1894.695312" xlink:href="#DejaVuSans-104"/>
      <use x="1958.074219" xlink:href="#DejaVuSans-101"/>
      <use x="2019.597656" xlink:href="#DejaVuSans-32"/>
      <use x="2051.384766" xlink:href="#DejaVuSans-108"/>
      <use x="2079.167969" xlink:href="#DejaVuSans-101"/>
      <use x="2140.691406" xlink:href="#DejaVuSans-102"/>
      <use x="2174.146484" xlink:href="#DejaVuSans-116"/>
      <use x="2213.355469" xlink:href="#DejaVuSans-41"/>
     </g>
    </g>
   </g>
   <g id="matplotlib.axis_2">
    <g id="ytick_1">
     <g id="line2d_4">
      <defs>
       <path d="M 0 0 
L -3.5 0 
" id="m316ebe5818" style="stroke:#000000;stroke-width:0.8;"/>
      </defs>
      <g>
       <use style="stroke:#000000;stroke-width:0.8;" x="53.328125" xlink:href="#m316ebe5818" y="283.467851"/>
      </g>
     </g>
     <g id="text_5">
      <!-- 1800 -->
      <g transform="translate(20.878125 287.26707)scale(0.1 -0.1)">
       <defs>
        <path d="M 12.40625 8.296875 
L 28.515625 8.296875 
L 28.515625 63.921875 
L 10.984375 60.40625 
L 10.984375 69.390625 
L 28.421875 72.90625 
L 38.28125 72.90625 
L 38.28125 8.296875 
L 54.390625 8.296875 
L 54.390625 0 
L 12.40625 0 
z
" id="DejaVuSans-49"/>
        <path d="M 31.78125 34.625 
Q 24.75 34.625 20.71875 30.859375 
Q 16.703125 27.09375 16.703125 20.515625 
Q 16.703125 13.921875 20.71875 10.15625 
Q 24.75 6.390625 31.78125 6.390625 
Q 38.8125 6.390625 42.859375 10.171875 
Q 46.921875 13.96875 46.921875 20.515625 
Q 46.921875 27.09375 42.890625 30.859375 
Q 38.875 34.625 31.78125 34.625 
z
M 21.921875 38.8125 
Q 15.578125 40.375 12.03125 44.71875 
Q 8.5 49.078125 8.5 55.328125 
Q 8.5 64.0625 14.71875 69.140625 
Q 20.953125 74.21875 31.78125 74.21875 
Q 42.671875 74.21875 48.875 69.140625 
Q 55.078125 64.0625 55.078125 55.328125 
Q 55.078125 49.078125 51.53125 44.71875 
Q 48 40.375 41.703125 38.8125 
Q 48.828125 37.15625 52.796875 32.3125 
Q 56.78125 27.484375 56.78125 20.515625 
Q 56.78125 9.90625 50.3125 4.234375 
Q 43.84375 -1.421875 31.78125 -1.421875 
Q 19.734375 -1.421875 13.25 4.234375 
Q 6.78125 9.90625 6.78125 20.515625 
Q 6.78125 27.484375 10.78125 32.3125 
Q 14.796875 37.15625 21.921875 38.8125 
z
M 18.3125 54.390625 
Q 18.3125 48.734375 21.84375 45.5625 
Q 25.390625 42.390625 31.78125 42.390625 
Q 38.140625 42.390625 41.71875 45.5625 
Q 45.3125 48.734375 45.3125 54.390625 
Q 45.3125 60.0625 41.71875 63.234375 
Q 38.140625 66.40625 31.78125 66.40625 
Q 25.390625 66.40625 21.84375 63.234375 
Q 18.3125 60.0625 18.3125 54.390625 
z
" id="DejaVuSans-56"/>
        <path d="M 31.78125 66.40625 
Q 24.171875 66.40625 20.328125 58.90625 
Q 16.5 51.421875 16.5 36.375 
Q 16.5 21.390625 20.328125 13.890625 
Q 24.171875 6.390625 31.78125 6.390625 
Q 39.453125 6.390625 43.28125 13.890625 
Q 47.125 21.390625 47.125 36.375 
Q 47.125 51.421875 43.28125 58.90625 
Q 39.453125 66.40625 31.78125 66.40625 
z
M 31.78125 74.21875 
Q 44.046875 74.21875 50.515625 64.515625 
Q 56.984375 54.828125 56.984375 36.375 
Q 56.984375 17.96875 50.515625 8.265625 
Q 44.046875 -1.421875 31.78125 -1.421875 
Q 19.53125 -1.421875 13.0625 8.265625 
Q 6.59375 17.96875 6.59375 36.375 
Q 6.59375 54.828125 13.0625 64.515625 
Q 19.53125 74.21875 31.78125 74.21875 
z
" id="DejaVuSans-48"/>
       </defs>
       <use xlink:href="#DejaVuSans-49"/>
       <use x="63.623047" xlink:href="#DejaVuSans-56"/>
       <use x="127.246094" xlink:href="#DejaVuSans-48"/>
       <use x="190.869141" xlink:href="#DejaVuSans-48"/>
      </g>
     </g>
    </g>
    <g id="ytick_2">
     <g id="line2d_5">
      <g>
       <use style="stroke:#000000;stroke-width:0.8;" x="53.328125" xlink:href="#m316ebe5818" y="249.539591"/>
      </g>
     </g>
     <g id="text_6">
      <!-- 1850 -->
      <g transform="translate(20.878125 253.33881)scale(0.1 -0.1)">
       <defs>
        <path d="M 10.796875 72.90625 
L 49.515625 72.90625 
L 49.515625 64.59375 
L 19.828125 64.59375 
L 19.828125 46.734375 
Q 21.96875 47.46875 24.109375 47.828125 
Q 26.265625 48.1875 28.421875 48.1875 
Q 40.625 48.1875 47.75 41.5 
Q 54.890625 34.8125 54.890625 23.390625 
Q 54.890625 11.625 47.5625 5.09375 
Q 40.234375 -1.421875 26.90625 -1.421875 
Q 22.3125 -1.421875 17.546875 -0.640625 
Q 12.796875 0.140625 7.71875 1.703125 
L 7.71875 11.625 
Q 12.109375 9.234375 16.796875 8.0625 
Q 21.484375 6.890625 26.703125 6.890625 
Q 35.15625 6.890625 40.078125 11.328125 
Q 45.015625 15.765625 45.015625 23.390625 
Q 45.015625 31 40.078125 35.4375 
Q 35.15625 39.890625 26.703125 39.890625 
Q 22.75 39.890625 18.8125 39.015625 
Q 14.890625 38.140625 10.796875 36.28125 
z
" id="DejaVuSans-53"/>
       </defs>
       <use xlink:href="#DejaVuSans-49"/>
       <use x="63.623047" xlink:href="#DejaVuSans-56"/>
       <use x="127.246094" xlink:href="#DejaVuSans-53"/>
       <use x="190.869141" xlink:href="#DejaVuSans-48"/>
      </g>
     </g>
    </g>
    <g id="ytick_3">
     <g id="line2d_6">
      <g>
       <use style="stroke:#000000;stroke-width:0.8;" x="53.328125" xlink:href="#m316ebe5818" y="215.611332"/>
      </g>
     </g>
     <g id="text_7">
      <!-- 1900 -->
      <g transform="translate(20.878125 219.410551)scale(0.1 -0.1)">
       <defs>
        <path d="M 10.984375 1.515625 
L 10.984375 10.5 
Q 14.703125 8.734375 18.5 7.8125 
Q 22.3125 6.890625 25.984375 6.890625 
Q 35.75 6.890625 40.890625 13.453125 
Q 46.046875 20.015625 46.78125 33.40625 
Q 43.953125 29.203125 39.59375 26.953125 
Q 35.25 24.703125 29.984375 24.703125 
Q 19.046875 24.703125 12.671875 31.3125 
Q 6.296875 37.9375 6.296875 49.421875 
Q 6.296875 60.640625 12.9375 67.421875 
Q 19.578125 74.21875 30.609375 74.21875 
Q 43.265625 74.21875 49.921875 64.515625 
Q 56.59375 54.828125 56.59375 36.375 
Q 56.59375 19.140625 48.40625 8.859375 
Q 40.234375 -1.421875 26.421875 -1.421875 
Q 22.703125 -1.421875 18.890625 -0.6875 
Q 15.09375 0.046875 10.984375 1.515625 
z
M 30.609375 32.421875 
Q 37.25 32.421875 41.125 36.953125 
Q 45.015625 41.5 45.015625 49.421875 
Q 45.015625 57.28125 41.125 61.84375 
Q 37.25 66.40625 30.609375 66.40625 
Q 23.96875 66.40625 20.09375 61.84375 
Q 16.21875 57.28125 16.21875 49.421875 
Q 16.21875 41.5 20.09375 36.953125 
Q 23.96875 32.421875 30.609375 32.421875 
z
" id="DejaVuSans-57"/>
       </defs>
       <use xlink:href="#DejaVuSans-49"/>
       <use x="63.623047" xlink:href="#DejaVuSans-57"/>
       <use x="127.246094" xlink:href="#DejaVuSans-48"/>
       <use x="190.869141" xlink:href="#DejaVuSans-48"/>
      </g>
     </g>
    </g>
    <g id="ytick_4">
     <g id="line2d_7">
      <g>
       <use style="stroke:#000000;stroke-width:0.8;" x="53.328125" xlink:href="#m316ebe5818" y="181.683072"/>
      </g>
     </g>
     <g id="text_8">
      <!-- 1950 -->
      <g transform="translate(20.878125 185.482291)scale(0.1 -0.1)">
       <use xlink:href="#DejaVuSans-49"/>
       <use x="63.623047" xlink:href="#DejaVuSans-57"/>
       <use x="127.246094" xlink:href="#DejaVuSans-53"/>
       <use x="190.869141" xlink:href="#DejaVuSans-48"/>
      </g>
     </g>
    </g>
    <g id="ytick_5">
     <g id="line2d_8">
      <g>
       <use style="stroke:#000000;stroke-width:0.8;" x="53.328125" xlink:href="#m316ebe5818" y="147.754813"/>
      </g>
     </g>
     <g id="text_9">
      <!-- 2000 -->
      <g transform="translate(20.878125 151.554032)scale(0.1 -0.1)">
       <defs>
        <path d="M 19.1875 8.296875 
L 53.609375 8.296875 
L 53.609375 0 
L 7.328125 0 
L 7.328125 8.296875 
Q 12.9375 14.109375 22.625 23.890625 
Q 32.328125 33.6875 34.8125 36.53125 
Q 39.546875 41.84375 41.421875 45.53125 
Q 43.3125 49.21875 43.3125 52.78125 
Q 43.3125 58.59375 39.234375 62.25 
Q 35.15625 65.921875 28.609375 65.921875 
Q 23.96875 65.921875 18.8125 64.3125 
Q 13.671875 62.703125 7.8125 59.421875 
L 7.8125 69.390625 
Q 13.765625 71.78125 18.9375 73 
Q 24.125 74.21875 28.421875 74.21875 
Q 39.75 74.21875 46.484375 68.546875 
Q 53.21875 62.890625 53.21875 53.421875 
Q 53.21875 48.921875 51.53125 44.890625 
Q 49.859375 40.875 45.40625 35.40625 
Q 44.1875 33.984375 37.640625 27.21875 
Q 31.109375 20.453125 19.1875 8.296875 
z
" id="DejaVuSans-50"/>
       </defs>
       <use xlink:href="#DejaVuSans-50"/>
       <use x="63.623047" xlink:href="#DejaVuSans-48"/>
       <use x="127.246094" xlink:href="#DejaVuSans-48"/>
       <use x="190.869141" xlink:href="#DejaVuSans-48"/>
      </g>
     </g>
    </g>
    <g id="ytick_6">
     <g id="line2d_9">
      <g>
       <use style="stroke:#000000;stroke-width:0.8;" x="53.328125" xlink:href="#m316ebe5818" y="113.826553"/>
      </g>
     </g>
     <g id="text_10">
      <!-- 2050 -->
      <g transform="translate(20.878125 117.625772)scale(0.1 -0.1)">
       <use xlink:href="#DejaVuSans-50"/>
       <use x="63.623047" xlink:href="#DejaVuSans-48"/>
       <use x="127.246094" xlink:href="#DejaVuSans-53"/>
       <use x="190.869141" xlink:href="#DejaVuSans-48"/>
      </g>
     </g>
    </g>
    <g id="ytick_7">
     <g id="line2d_10">
      <g>
       <use style="stroke:#000000;stroke-width:0.8;" x="53.328125" xlink:href="#m316ebe5818" y="79.898294"/>
      </g>
     </g>
     <g id="text_11">
      <!-- 2100 -->
      <g transform="translate(20.878125 83.697513)scale(0.1 -0.1)">
       <use xlink:href="#DejaVuSans-50"/>
       <use x="63.623047" xlink:href="#DejaVuSans-49"/>
       <use x="127.246094" xlink:href="#DejaVuSans-48"/>
       <use x="190.869141" xlink:href="#DejaVuSans-48"/>
      </g>
     </g>
    </g>
    <g id="ytick_8">
     <g id="line2d_11">
      <g>
       <use style="stroke:#000000;stroke-width:0.8;" x="53.328125" xlink:href="#m316ebe5818" y="45.970034"/>
      </g>
     </g>
     <g id="text_12">
      <!-- 2150 -->
      <g transform="translate(20.878125 49.769253)scale(0.1 -0.1)">
       <use xlink:href="#DejaVuSans-50"/>
       <use x="63.623047" xlink:href="#DejaVuSans-49"/>
       <use x="127.246094" xlink:href="#DejaVuSans-53"/>
       <use x="190.869141" xlink:href="#DejaVuSans-48"/>
      </g>
     </g>
    </g>
    <g id="text_13">
     <!-- Reached region coverage -->
     <g transform="translate(14.798438 219.136625)rotate(-90)scale(0.1 -0.1)">
      <defs>
       <path d="M 44.390625 34.1875 
Q 47.5625 33.109375 50.5625 29.59375 
Q 53.5625 26.078125 56.59375 19.921875 
L 66.609375 0 
L 56 0 
L 46.6875 18.703125 
Q 43.0625 26.03125 39.671875 28.421875 
Q 36.28125 30.8125 30.421875 30.8125 
L 19.671875 30.8125 
L 19.671875 0 
L 9.8125 0 
L 9.8125 72.90625 
L 32.078125 72.90625 
Q 44.578125 72.90625 50.734375 67.671875 
Q 56.890625 62.453125 56.890625 51.90625 
Q 56.890625 45.015625 53.6875 40.46875 
Q 50.484375 35.9375 44.390625 34.1875 
z
M 19.671875 64.796875 
L 19.671875 38.921875 
L 32.078125 38.921875 
Q 39.203125 38.921875 42.84375 42.21875 
Q 46.484375 45.515625 46.484375 51.90625 
Q 46.484375 58.296875 42.84375 61.546875 
Q 39.203125 64.796875 32.078125 64.796875 
z
" id="DejaVuSans-82"/>
      </defs>
      <use xlink:href="#DejaVuSans-82"/>
      <use x="64.982422" xlink:href="#DejaVuSans-101"/>
      <use x="126.505859" xlink:href="#DejaVuSans-97"/>
      <use x="187.785156" xlink:href="#DejaVuSans-99"/>
      <use x="242.765625" xlink:href="#DejaVuSans-104"/>
      <use x="306.144531" xlink:href="#DejaVuSans-101"/>
      <use x="367.667969" xlink:href="#DejaVuSans-100"/>
      <use x="431.144531" xlink:href="#DejaVuSans-32"/>
      <use x="462.931641" xlink:href="#DejaVuSans-114"/>
      <use x="501.794922" xlink:href="#DejaVuSans-101"/>
      <use x="563.318359" xlink:href="#DejaVuSans-103"/>
      <use x="626.794922" xlink:href="#DejaVuSans-105"/>
      <use x="654.578125" xlink:href="#DejaVuSans-111"/>
      <use x="715.759766" xlink:href="#DejaVuSans-110"/>
      <use x="779.138672" xlink:href="#DejaVuSans-32"/>
      <use x="810.925781" xlink:href="#DejaVuSans-99"/>
      <use x="865.90625" xlink:href="#DejaVuSans-111"/>
      <use x="927.087891" xlink:href="#DejaVuSans-118"/>
      <use x="986.267578" xlink:href="#DejaVuSans-101"/>
      <use x="1047.791016" xlink:href="#DejaVuSans-114"/>
      <use x="1088.904297" xlink:href="#DejaVuSans-97"/>
      <use x="1150.183594" xlink:href="#DejaVuSans-103"/>
      <use x="1213.660156" xlink:href="#DejaVuSans-101"/>
     </g>
    </g>
   </g>
   <g id="line2d_12">
    <path clip-path="url(#pd865cb0c13)" d="M 112.848125 59.541338 
L 112.848125 43.255774 
" style="fill:none;stroke:#3f3f3f;stroke-linecap:square;stroke-width:1.5;"/>
   </g>
   <g id="line2d_13">
    <path clip-path="url(#pd865cb0c13)" d="M 112.848125 54.112817 
L 112.848125 48.684295 
" style="fill:none;stroke:#3f3f3f;stroke-linecap:square;stroke-width:4.5;"/>
   </g>
   <g id="line2d_14">
    <path clip-path="url(#pd865cb0c13)" d="M 231.888125 134.862074 
L 231.888125 100.25525 
" style="fill:none;stroke:#3f3f3f;stroke-linecap:square;stroke-width:1.5;"/>
   </g>
   <g id="line2d_15">
    <path clip-path="url(#pd865cb0c13)" d="M 231.888125 134.862074 
L 231.888125 119.93364 
" style="fill:none;stroke:#3f3f3f;stroke-linecap:square;stroke-width:4.5;"/>
   </g>
   <g id="line2d_16">
    <path clip-path="url(#pd865cb0c13)" d="M 350.928125 256.325243 
L 350.928125 242.75394 
" style="fill:none;stroke:#3f3f3f;stroke-linecap:square;stroke-width:1.5;"/>
   </g>
   <g id="line2d_17">
    <path clip-path="url(#pd865cb0c13)" d="M 350.928125 249.539591 
L 350.928125 242.75394 
" style="fill:none;stroke:#3f3f3f;stroke-linecap:square;stroke-width:4.5;"/>
   </g>
   <g id="patch_3">
    <path d="M 53.328125 283.467851 
L 53.328125 45.970034 
" style="fill:none;stroke:#000000;stroke-linecap:square;stroke-linejoin:miter;stroke-width:0.8;"/>
   </g>
   <g id="patch_4">
    <path d="M 112.848125 288.430125 
L 350.928125 288.430125 
" style="fill:none;stroke:#000000;stroke-linecap:square;stroke-linejoin:miter;stroke-width:0.8;"/>
   </g>
   <g id="PathCollection_1">
    <defs>
     <path d="M 0 1.5 
C 0.397805 1.5 0.77937 1.341951 1.06066 1.06066 
C 1.341951 0.77937 1.5 0.397805 1.5 0 
C 1.5 -0.397805 1.341951 -0.77937 1.06066 -1.06066 
C 0.77937 -1.341951 0.397805 -1.5 0 -1.5 
C -0.397805 -1.5 -0.77937 -1.341951 -1.06066 -1.06066 
C -1.341951 -0.77937 -1.5 -0.397805 -1.5 0 
C -1.5 0.397805 -1.341951 0.77937 -1.06066 1.06066 
C -0.77937 1.341951 -0.397805 1.5 0 1.5 
z
" id="mc945453fd5" style="stroke:#3f3f3f;"/>
    </defs>
    <g clip-path="url(#pd865cb0c13)">
     <use style="fill:#ffffff;stroke:#3f3f3f;" x="112.848125" xlink:href="#mc945453fd5" y="52.755686"/>
    </g>
   </g>
   <g id="PathCollection_2">
    <g clip-path="url(#pd865cb0c13)">
     <use style="fill:#ffffff;stroke:#3f3f3f;" x="231.888125" xlink:href="#mc945453fd5" y="126.719292"/>
    </g>
   </g>
   <g id="PathCollection_3">
    <g clip-path="url(#pd865cb0c13)">
     <use style="fill:#ffffff;stroke:#3f3f3f;" x="350.928125" xlink:href="#mc945453fd5" y="243.432505"/>
    </g>
   </g>
   <g id="text_14">
    <!-- vorbis-2017-12-11 (2h, 5 trials/fuzzer) -->
    <g transform="translate(117.469063 16.318125)scale(0.12 -0.12)">
     <defs>
      <path d="M 48.6875 27.296875 
Q 48.6875 37.203125 44.609375 42.84375 
Q 40.53125 48.484375 33.40625 48.484375 
Q 26.265625 48.484375 22.1875 42.84375 
Q 18.109375 37.203125 18.109375 27.296875 
Q 18.109375 17.390625 22.1875 11.75 
Q 26.265625 6.109375 33.40625 6.109375 
Q 40.53125 6.109375 44.609375 11.75 
Q 48.6875 17.390625 48.6875 27.296875 
z
M 18.109375 46.390625 
Q 20.953125 51.265625 25.265625 53.625 
Q 29.59375 56 35.59375 56 
Q 45.5625 56 51.78125 48.09375 
Q 58.015625 40.1875 58.015625 27.296875 
Q 58.015625 14.40625 51.78125 6.484375 
Q 45.5625 -1.421875 35.59375 -1.421875 
Q 29.59375 -1.421875 25.265625 0.953125 
Q 20.953125 3.328125 18.109375 8.203125 
L 18.109375 0 
L 9.078125 0 
L 9.078125 75.984375 
L 18.109375 75.984375 
z
" id="DejaVuSans-98"/>
      <path d="M 4.890625 31.390625 
L 31.203125 31.390625 
L 31.203125 23.390625 
L 4.890625 23.390625 
z
" id="DejaVuSans-45"/>
      <path d="M 8.203125 72.90625 
L 55.078125 72.90625 
L 55.078125 68.703125 
L 28.609375 0 
L 18.3125 0 
L 43.21875 64.59375 
L 8.203125 64.59375 
z
" id="DejaVuSans-55"/>
      <path d="M 11.71875 12.40625 
L 22.015625 12.40625 
L 22.015625 4 
L 14.015625 -11.625 
L 7.71875 -11.625 
L 11.71875 4 
z
" id="DejaVuSans-44"/>
      <path d="M 25.390625 72.90625 
L 33.6875 72.90625 
L 8.296875 -9.28125 
L 0 -9.28125 
z
" id="DejaVuSans-47"/>
     </defs>
     <use xlink:href="#DejaVuSans-118"/>
     <use x="59.179688" xlink:href="#DejaVuSans-111"/>
     <use x="120.361328" xlink:href="#DejaVuSans-114"/>
     <use x="161.474609" xlink:href="#DejaVuSans-98"/>
     <use x="224.951172" xlink:href="#DejaVuSans-105"/>
     <use x="252.734375" xlink:href="#DejaVuSans-115"/>
     <use x="304.833984" xlink:href="#DejaVuSans-45"/>
     <use x="340.917969" xlink:href="#DejaVuSans-50"/>
     <use x="404.541016" xlink:href="#DejaVuSans-48"/>
     <use x="468.164062" xlink:href="#DejaVuSans-49"/>
     <use x="531.787109" xlink:href="#DejaVuSans-55"/>
     <use x="595.410156" xlink:href="#DejaVuSans-45"/>
     <use x="631.494141" xlink:href="#DejaVuSans-49"/>
     <use x="695.117188" xlink:href="#DejaVuSans-50"/>
     <use x="758.740234" xlink:href="#DejaVuSans-45"/>
     <use x="794.824219" xlink:href="#DejaVuSans-49"/>
     <use x="858.447266" xlink:href="#DejaVuSans-49"/>
     <use x="922.070312" xlink:href="#DejaVuSans-32"/>
     <use x="953.857422" xlink:href="#DejaVuSans-40"/>
     <use x="992.871094" xlink:href="#DejaVuSans-50"/>
     <use x="1056.494141" xlink:href="#DejaVuSans-104"/>
     <use x="1119.873047" xlink:href="#DejaVuSans-44"/>
     <use x="1151.660156" xlink:href="#DejaVuSans-32"/>
     <use x="1183.447266" xlink:href="#DejaVuSans-53"/>
     <use x="1247.070312" xlink:href="#DejaVuSans-32"/>
     <use x="1278.857422" xlink:href="#DejaVuSans-116"/>
     <use x="1318.066406" xlink:href="#DejaVuSans-114"/>
     <use x="1359.179688" xlink:href="#DejaVuSans-105"/>
     <use x="1386.962891" xlink:href="#DejaVuSans-97"/>
     <use x="1448.242188" xlink:href="#DejaVuSans-108"/>
     <use x="1476.025391" xlink:href="#DejaVuSans-115"/>
     <use x="1528.125" xlink:href="#DejaVuSans-47"/>
     <use x="1561.816406" xlink:href="#DejaVuSans-102"/>
     <use x="1597.021484" xlink:href="#DejaVuSans-117"/>
     <use x="1660.400391" xlink:href="#DejaVuSans-122"/>
     <use x="1712.890625" xlink:href="#DejaVuSans-122"/>
     <use x="1765.380859" xlink:href="#DejaVuSans-101"/>
     <use x="1826.904297" xlink:href="#DejaVuSans-114"/>
     <use x="1868.017578" xlink:href="#DejaVuSans-41"/>
    </g>
   </g>
  </g>
 </g>
 <defs>
  <clipPath id="pd865cb0c13">
   <rect height="266.112" width="357.12" x="53.328125" y="22.318125"/>
  </clipPath>
 </defs>
</svg>
