<?xml version="1.0" encoding="utf-8" standalone="no"?>
<!DOCTYPE svg PUBLIC "-//W3C//DTD SVG 1.1//EN"
  "http://www.w3.org/Graphics/SVG/1.1/DTD/svg11.dtd">
<!-- Created with matplotlib (https://matplotlib.org/) -->
<svg height="364.007178pt" version="1.1" viewBox="0 0 417.648125 364.007178" width="417.648125pt" xmlns="http://www.w3.org/2000/svg" xmlns:xlink="http://www.w3.org/1999/xlink">
 <metadata>
  <rdf:RDF xmlns:cc="http://creativecommons.org/ns#" xmlns:dc="http://purl.org/dc/elements/1.1/" xmlns:rdf="http://www.w3.org/1999/02/22-rdf-syntax-ns#">
   <cc:Work>
    <dc:type rdf:resource="http://purl.org/dc/dcmitype/StillImage"/>
    <dc:date>2020-11-09T03:13:17.607488</dc:date>
    <dc:format>image/svg+xml</dc:format>
    <dc:creator>
     <cc:Agent>
      <dc:title>Matplotlib v3.3.2, https://matplotlib.org/</dc:title>
     </cc:Agent>
    </dc:creator>
   </cc:Work>
  </rdf:RDF>
 </metadata>
 <defs>
  <style type="text/css">*{stroke-linecap:butt;stroke-linejoin:round;}</style>
 </defs>
 <g id="figure_1">
  <g id="patch_1">
   <path d="M 0 364.007178 
L 417.648125 364.007178 
L 417.648125 0 
L 0 0 
z
" style="fill:#ffffff;"/>
  </g>
  <g id="axes_1">
   <g id="patch_2">
    <path d="M 53.328125 288.430125 
L 410.448125 288.430125 
L 410.448125 22.318125 
L 53.328125 22.318125 
z
" style="fill:#ffffff;"/>
   </g>
   <g id="PolyCollection_1">
    <defs>
     <path d="M 115.054002 -280.665787 
L 110.642248 -280.665787 
L 110.26235 -281.123009 
L 109.833971 -281.580231 
L 109.354087 -282.037453 
L 108.820014 -282.494675 
L 108.229493 -282.951897 
L 107.58077 -283.409119 
L 106.872676 -283.866341 
L 106.104681 -284.323563 
L 105.276944 -284.780785 
L 104.390339 -285.238007 
L 103.446457 -285.695229 
L 102.447592 -286.152451 
L 101.396697 -286.609673 
L 100.29732 -287.066895 
L 99.15352 -287.524117 
L 97.969765 -287.981339 
L 96.750812 -288.438561 
L 95.501591 -288.895783 
L 94.227075 -289.353005 
L 92.932167 -289.810227 
L 91.62159 -290.267449 
L 90.299805 -290.724671 
L 88.970946 -291.181893 
L 87.638792 -291.639115 
L 86.306764 -292.096337 
L 84.977965 -292.553559 
L 83.655245 -293.010781 
L 82.341298 -293.468003 
L 81.038788 -293.925225 
L 79.750489 -294.382447 
L 78.479435 -294.839669 
L 77.229071 -295.296891 
L 76.003394 -295.754113 
L 74.807067 -296.211335 
L 73.645511 -296.668557 
L 72.524948 -297.125779 
L 71.452403 -297.583001 
L 70.435652 -298.040223 
L 69.483112 -298.497445 
L 68.603687 -298.954667 
L 67.806554 -299.411889 
L 67.100918 -299.869111 
L 66.495721 -300.326333 
L 65.999348 -300.783555 
L 65.619308 -301.240777 
L 65.361938 -301.697999 
L 65.232125 -302.155221 
L 65.233067 -302.612443 
L 65.366085 -303.069665 
L 65.630505 -303.526887 
L 66.023602 -303.984109 
L 66.540628 -304.441331 
L 67.174918 -304.898553 
L 67.918061 -305.355775 
L 68.760156 -305.812997 
L 69.690106 -306.270219 
L 70.695974 -306.727441 
L 71.765352 -307.184663 
L 72.885751 -307.641885 
L 74.04498 -308.099107 
L 75.231497 -308.556329 
L 76.434724 -309.013551 
L 77.645303 -309.470773 
L 78.855292 -309.927995 
L 80.058278 -310.385217 
L 81.249428 -310.842439 
L 82.425453 -311.299661 
L 83.584512 -311.756883 
L 84.726046 -312.214105 
L 85.850571 -312.671327 
L 86.959425 -313.128549 
L 88.054505 -313.585771 
L 89.137989 -314.042993 
L 90.212067 -314.500215 
L 91.278703 -314.957437 
L 92.339421 -315.414659 
L 93.395139 -315.871881 
L 94.446049 -316.329103 
L 95.491553 -316.786325 
L 96.530248 -317.243547 
L 97.559958 -317.700769 
L 98.577814 -318.157991 
L 99.580364 -318.615213 
L 100.56372 -319.072435 
L 101.523711 -319.529657 
L 102.456056 -319.986879 
L 103.356528 -320.444101 
L 104.221113 -320.901323 
L 105.046149 -321.358545 
L 105.82845 -321.815767 
L 106.565396 -322.272989 
L 107.255001 -322.730211 
L 107.89595 -323.187433 
L 108.487611 -323.644655 
L 109.030014 -324.101877 
L 109.52382 -324.559099 
L 109.970261 -325.016321 
L 110.371074 -325.473543 
L 110.728417 -325.930765 
L 114.967833 -325.930765 
L 114.967833 -325.930765 
L 115.325176 -325.473543 
L 115.725989 -325.016321 
L 116.17243 -324.559099 
L 116.666236 -324.101877 
L 117.208639 -323.644655 
L 117.8003 -323.187433 
L 118.441249 -322.730211 
L 119.130854 -322.272989 
L 119.8678 -321.815767 
L 120.650101 -321.358545 
L 121.475137 -320.901323 
L 122.339722 -320.444101 
L 123.240194 -319.986879 
L 124.172539 -319.529657 
L 125.13253 -319.072435 
L 126.115886 -318.615213 
L 127.118436 -318.157991 
L 128.136292 -317.700769 
L 129.166002 -317.243547 
L 130.204697 -316.786325 
L 131.250201 -316.329103 
L 132.301111 -315.871881 
L 133.356829 -315.414659 
L 134.417547 -314.957437 
L 135.484183 -314.500215 
L 136.558261 -314.042993 
L 137.641745 -313.585771 
L 138.736825 -313.128549 
L 139.845679 -312.671327 
L 140.970204 -312.214105 
L 142.111738 -311.756883 
L 143.270797 -311.299661 
L 144.446822 -310.842439 
L 145.637972 -310.385217 
L 146.840958 -309.927995 
L 148.050947 -309.470773 
L 149.261526 -309.013551 
L 150.464753 -308.556329 
L 151.65127 -308.099107 
L 152.810499 -307.641885 
L 153.930898 -307.184663 
L 155.000276 -306.727441 
L 156.006144 -306.270219 
L 156.936094 -305.812997 
L 157.778189 -305.355775 
L 158.521332 -304.898553 
L 159.155622 -304.441331 
L 159.672648 -303.984109 
L 160.065745 -303.526887 
L 160.330165 -303.069665 
L 160.463183 -302.612443 
L 160.464125 -302.155221 
L 160.334312 -301.697999 
L 160.076942 -301.240777 
L 159.696902 -300.783555 
L 159.200529 -300.326333 
L 158.595332 -299.869111 
L 157.889696 -299.411889 
L 157.092563 -298.954667 
L 156.213138 -298.497445 
L 155.260598 -298.040223 
L 154.243847 -297.583001 
L 153.171302 -297.125779 
L 152.050739 -296.668557 
L 150.889183 -296.211335 
L 149.692856 -295.754113 
L 148.467179 -295.296891 
L 147.216815 -294.839669 
L 145.945761 -294.382447 
L 144.657462 -293.925225 
L 143.354952 -293.468003 
L 142.041005 -293.010781 
L 140.718285 -292.553559 
L 139.389486 -292.096337 
L 138.057458 -291.639115 
L 136.725304 -291.181893 
L 135.396445 -290.724671 
L 134.07466 -290.267449 
L 132.764083 -289.810227 
L 131.469175 -289.353005 
L 130.194659 -288.895783 
L 128.945438 -288.438561 
L 127.726485 -287.981339 
L 126.54273 -287.524117 
L 125.39893 -287.066895 
L 124.299553 -286.609673 
L 123.248658 -286.152451 
L 122.249793 -285.695229 
L 121.305911 -285.238007 
L 120.419306 -284.780785 
L 119.591569 -284.323563 
L 118.823574 -283.866341 
L 118.11548 -283.409119 
L 117.466757 -282.951897 
L 116.876236 -282.494675 
L 116.342163 -282.037453 
L 115.862279 -281.580231 
L 115.4339 -281.123009 
L 115.054002 -280.665787 
z
" id="m1303ecba27" style="stroke:#3f3f3f;stroke-width:1.5;"/>
    </defs>
    <g clip-path="url(#p1f1df5ea48)">
     <use style="fill:#3274a1;stroke:#3f3f3f;stroke-width:1.5;" x="0" xlink:href="#m1303ecba27" y="364.007178"/>
    </g>
   </g>
   <g id="PolyCollection_2">
    <defs>
     <path d="M 233.1871 -211.611184 
L 230.58915 -211.611184 
L 230.350867 -212.80292 
L 230.078256 -213.994656 
L 229.76828 -215.186392 
L 229.417997 -216.378128 
L 229.02464 -217.569865 
L 228.585707 -218.761601 
L 228.09906 -219.953337 
L 227.56303 -221.145073 
L 226.976519 -222.336809 
L 226.339108 -223.528545 
L 225.651162 -224.720281 
L 224.91392 -225.912017 
L 224.129582 -227.103753 
L 223.301376 -228.295489 
L 222.433605 -229.487225 
L 221.531672 -230.678961 
L 220.602074 -231.870697 
L 219.652371 -233.062433 
L 218.69112 -234.254169 
L 217.727775 -235.445905 
L 216.772554 -236.637641 
L 215.83628 -237.829377 
L 214.930183 -239.021113 
L 214.065687 -240.212849 
L 213.254171 -241.404585 
L 212.506717 -242.596322 
L 211.833855 -243.788058 
L 211.245307 -244.979794 
L 210.749741 -246.17153 
L 210.354541 -247.363266 
L 210.065609 -248.555002 
L 209.887191 -249.746738 
L 209.821751 -250.938474 
L 209.86988 -252.13021 
L 210.030266 -253.321946 
L 210.299697 -254.513682 
L 210.673129 -255.705418 
L 211.143794 -256.897154 
L 211.703355 -258.08889 
L 212.342099 -259.280626 
L 213.049168 -260.472362 
L 213.812813 -261.664098 
L 214.620668 -262.855834 
L 215.460034 -264.04757 
L 216.318161 -265.239306 
L 217.182533 -266.431042 
L 218.041124 -267.622778 
L 218.882647 -268.814515 
L 219.696764 -270.006251 
L 220.474273 -271.197987 
L 221.207252 -272.389723 
L 221.889172 -273.581459 
L 222.514966 -274.773195 
L 223.081061 -275.964931 
L 223.585372 -277.156667 
L 224.027264 -278.348403 
L 224.407481 -279.540139 
L 224.72804 -280.731875 
L 224.992109 -281.923611 
L 225.203865 -283.115347 
L 225.368324 -284.307083 
L 225.491182 -285.498819 
L 225.578627 -286.690555 
L 225.637166 -287.882291 
L 225.673445 -289.074027 
L 225.694084 -290.265763 
L 225.705514 -291.457499 
L 225.713834 -292.649235 
L 225.724681 -293.840972 
L 225.743124 -295.032708 
L 225.77357 -296.224444 
L 225.819704 -297.41618 
L 225.884441 -298.607916 
L 225.969906 -299.799652 
L 226.077437 -300.991388 
L 226.207607 -302.183124 
L 226.360266 -303.37486 
L 226.534597 -304.566596 
L 226.729192 -305.758332 
L 226.942135 -306.950068 
L 227.171094 -308.141804 
L 227.413415 -309.33354 
L 227.666226 -310.525276 
L 227.926529 -311.717012 
L 228.19129 -312.908748 
L 228.457529 -314.100484 
L 228.722393 -315.29222 
L 228.983216 -316.483956 
L 229.237581 -317.675692 
L 229.483351 -318.867429 
L 229.718702 -320.059165 
L 229.942138 -321.250901 
L 230.152495 -322.442637 
L 230.348931 -323.634373 
L 230.53092 -324.826109 
L 230.698222 -326.017845 
L 230.850859 -327.209581 
L 230.989084 -328.401317 
L 231.113345 -329.593053 
L 232.662905 -329.593053 
L 232.662905 -329.593053 
L 232.787166 -328.401317 
L 232.925391 -327.209581 
L 233.078028 -326.017845 
L 233.24533 -324.826109 
L 233.427319 -323.634373 
L 233.623755 -322.442637 
L 233.834112 -321.250901 
L 234.057548 -320.059165 
L 234.292899 -318.867429 
L 234.538669 -317.675692 
L 234.793034 -316.483956 
L 235.053857 -315.29222 
L 235.318721 -314.100484 
L 235.58496 -312.908748 
L 235.849721 -311.717012 
L 236.110024 -310.525276 
L 236.362835 -309.33354 
L 236.605156 -308.141804 
L 236.834115 -306.950068 
L 237.047058 -305.758332 
L 237.241653 -304.566596 
L 237.415984 -303.37486 
L 237.568643 -302.183124 
L 237.698813 -300.991388 
L 237.806344 -299.799652 
L 237.891809 -298.607916 
L 237.956546 -297.41618 
L 238.00268 -296.224444 
L 238.033126 -295.032708 
L 238.051569 -293.840972 
L 238.062416 -292.649235 
L 238.070736 -291.457499 
L 238.082166 -290.265763 
L 238.102805 -289.074027 
L 238.139084 -287.882291 
L 238.197623 -286.690555 
L 238.285068 -285.498819 
L 238.407926 -284.307083 
L 238.572385 -283.115347 
L 238.784141 -281.923611 
L 239.04821 -280.731875 
L 239.368769 -279.540139 
L 239.748986 -278.348403 
L 240.190878 -277.156667 
L 240.695189 -275.964931 
L 241.261284 -274.773195 
L 241.887078 -273.581459 
L 242.568998 -272.389723 
L 243.301977 -271.197987 
L 244.079486 -270.006251 
L 244.893603 -268.814515 
L 245.735126 -267.622778 
L 246.593717 -266.431042 
L 247.458089 -265.239306 
L 248.316216 -264.04757 
L 249.155582 -262.855834 
L 249.963437 -261.664098 
L 250.727082 -260.472362 
L 251.434151 -259.280626 
L 252.072895 -258.08889 
L 252.632456 -256.897154 
L 253.103121 -255.705418 
L 253.476553 -254.513682 
L 253.745984 -253.321946 
L 253.90637 -252.13021 
L 253.954499 -250.938474 
L 253.889059 -249.746738 
L 253.710641 -248.555002 
L 253.421709 -247.363266 
L 253.026509 -246.17153 
L 252.530943 -244.979794 
L 251.942395 -243.788058 
L 251.269533 -242.596322 
L 250.522079 -241.404585 
L 249.710563 -240.212849 
L 248.846067 -239.021113 
L 247.93997 -237.829377 
L 247.003696 -236.637641 
L 246.048475 -235.445905 
L 245.08513 -234.254169 
L 244.123879 -233.062433 
L 243.174176 -231.870697 
L 242.244578 -230.678961 
L 241.342645 -229.487225 
L 240.474874 -228.295489 
L 239.646668 -227.103753 
L 238.86233 -225.912017 
L 238.125088 -224.720281 
L 237.437142 -223.528545 
L 236.799731 -222.336809 
L 236.21322 -221.145073 
L 235.67719 -219.953337 
L 235.190543 -218.761601 
L 234.75161 -217.569865 
L 234.358253 -216.378128 
L 234.00797 -215.186392 
L 233.697994 -213.994656 
L 233.425383 -212.80292 
L 233.1871 -211.611184 
z
" id="m6d23339226" style="stroke:#3f3f3f;stroke-width:1.5;"/>
    </defs>
    <g clip-path="url(#p1f1df5ea48)">
     <use style="fill:#c03d3e;stroke:#3f3f3f;stroke-width:1.5;" x="0" xlink:href="#m6d23339226" y="364.007178"/>
    </g>
   </g>
   <g id="PolyCollection_3">
    <defs>
     <path d="M 353.949637 -87.673053 
L 347.906613 -87.673053 
L 347.462698 -88.188509 
L 346.972077 -88.703964 
L 346.433016 -89.21942 
L 345.844252 -89.734875 
L 345.205083 -90.250331 
L 344.515449 -90.765787 
L 343.776007 -91.281242 
L 342.988202 -91.796698 
L 342.154317 -92.312154 
L 341.277518 -92.827609 
L 340.361867 -93.343065 
L 339.412326 -93.858521 
L 338.434729 -94.373976 
L 337.435728 -94.889432 
L 336.422717 -95.404888 
L 335.403727 -95.920343 
L 334.387295 -96.435799 
L 333.382304 -96.951254 
L 332.397812 -97.46671 
L 331.442853 -97.982166 
L 330.526231 -98.497621 
L 329.656302 -99.013077 
L 328.840759 -99.528533 
L 328.086419 -100.043988 
L 327.399022 -100.559444 
L 326.783052 -101.0749 
L 326.241578 -101.590355 
L 325.776129 -102.105811 
L 325.386609 -102.621266 
L 325.071249 -103.136722 
L 324.826604 -103.652178 
L 324.647599 -104.167633 
L 324.527621 -104.683089 
L 324.458654 -105.198545 
L 324.431467 -105.714 
L 324.435826 -106.229456 
L 324.460758 -106.744912 
L 324.49483 -107.260367 
L 324.526455 -107.775823 
L 324.544208 -108.291278 
L 324.537144 -108.806734 
L 324.495115 -109.32219 
L 324.409064 -109.837645 
L 324.271305 -110.353101 
L 324.07576 -110.868557 
L 323.818169 -111.384012 
L 323.496242 -111.899468 
L 323.10977 -112.414924 
L 322.660677 -112.930379 
L 322.153015 -113.445835 
L 321.592907 -113.96129 
L 320.98843 -114.476746 
L 320.349445 -114.992202 
L 319.687384 -115.507657 
L 319.014991 -116.023113 
L 318.346023 -116.538569 
L 317.694934 -117.054024 
L 317.076531 -117.56948 
L 316.505621 -118.084936 
L 315.996666 -118.600391 
L 315.563441 -119.115847 
L 315.218707 -119.631303 
L 314.973924 -120.146758 
L 314.838985 -120.662214 
L 314.821999 -121.177669 
L 314.929121 -121.693125 
L 315.164428 -122.208581 
L 315.529851 -122.724036 
L 316.025163 -123.239492 
L 316.648008 -123.754948 
L 317.393997 -124.270403 
L 318.256834 -124.785859 
L 319.228494 -125.301315 
L 320.299431 -125.81677 
L 321.458811 -126.332226 
L 322.694776 -126.847681 
L 323.994705 -127.363137 
L 325.345495 -127.878593 
L 326.733832 -128.394048 
L 328.146446 -128.909504 
L 329.570366 -129.42496 
L 330.993138 -129.940415 
L 332.403024 -130.455871 
L 333.78917 -130.971327 
L 335.141744 -131.486782 
L 336.452037 -132.002238 
L 337.712535 -132.517693 
L 338.916954 -133.033149 
L 340.06025 -133.548605 
L 341.138599 -134.06406 
L 342.149349 -134.579516 
L 343.090955 -135.094972 
L 343.962896 -135.610427 
L 344.765575 -136.125883 
L 345.500218 -136.641339 
L 346.168754 -137.156794 
L 346.773707 -137.67225 
L 347.318079 -138.187706 
L 347.805243 -138.703161 
L 354.051007 -138.703161 
L 354.051007 -138.703161 
L 354.538171 -138.187706 
L 355.082543 -137.67225 
L 355.687496 -137.156794 
L 356.356032 -136.641339 
L 357.090675 -136.125883 
L 357.893354 -135.610427 
L 358.765295 -135.094972 
L 359.706901 -134.579516 
L 360.717651 -134.06406 
L 361.796 -133.548605 
L 362.939296 -133.033149 
L 364.143715 -132.517693 
L 365.404213 -132.002238 
L 366.714506 -131.486782 
L 368.06708 -130.971327 
L 369.453226 -130.455871 
L 370.863112 -129.940415 
L 372.285884 -129.42496 
L 373.709804 -128.909504 
L 375.122418 -128.394048 
L 376.510755 -127.878593 
L 377.861545 -127.363137 
L 379.161474 -126.847681 
L 380.397439 -126.332226 
L 381.556819 -125.81677 
L 382.627756 -125.301315 
L 383.599416 -124.785859 
L 384.462253 -124.270403 
L 385.208242 -123.754948 
L 385.831087 -123.239492 
L 386.326399 -122.724036 
L 386.691822 -122.208581 
L 386.927129 -121.693125 
L 387.034251 -121.177669 
L 387.017265 -120.662214 
L 386.882326 -120.146758 
L 386.637543 -119.631303 
L 386.292809 -119.115847 
L 385.859584 -118.600391 
L 385.350629 -118.084936 
L 384.779719 -117.56948 
L 384.161316 -117.054024 
L 383.510227 -116.538569 
L 382.841259 -116.023113 
L 382.168866 -115.507657 
L 381.506805 -114.992202 
L 380.86782 -114.476746 
L 380.263343 -113.96129 
L 379.703235 -113.445835 
L 379.195573 -112.930379 
L 378.74648 -112.414924 
L 378.360008 -111.899468 
L 378.038081 -111.384012 
L 377.78049 -110.868557 
L 377.584945 -110.353101 
L 377.447186 -109.837645 
L 377.361135 -109.32219 
L 377.319106 -108.806734 
L 377.312042 -108.291278 
L 377.329795 -107.775823 
L 377.36142 -107.260367 
L 377.395492 -106.744912 
L 377.420424 -106.229456 
L 377.424783 -105.714 
L 377.397596 -105.198545 
L 377.328629 -104.683089 
L 377.208651 -104.167633 
L 377.029646 -103.652178 
L 376.785001 -103.136722 
L 376.469641 -102.621266 
L 376.080121 -102.105811 
L 375.614672 -101.590355 
L 375.073198 -101.0749 
L 374.457228 -100.559444 
L 373.769831 -100.043988 
L 373.015491 -99.528533 
L 372.199948 -99.013077 
L 371.330019 -98.497621 
L 370.413397 -97.982166 
L 369.458438 -97.46671 
L 368.473946 -96.951254 
L 367.468955 -96.435799 
L 366.452523 -95.920343 
L 365.433533 -95.404888 
L 364.420522 -94.889432 
L 363.421521 -94.373976 
L 362.443924 -93.858521 
L 361.494383 -93.343065 
L 360.578732 -92.827609 
L 359.701933 -92.312154 
L 358.868048 -91.796698 
L 358.080243 -91.281242 
L 357.340801 -90.765787 
L 356.651167 -90.250331 
L 356.011998 -89.734875 
L 355.423234 -89.21942 
L 354.884173 -88.703964 
L 354.393552 -88.188509 
L 353.949637 -87.673053 
z
" id="m0cd97d7852" style="stroke:#3f3f3f;stroke-width:1.5;"/>
    </defs>
    <g clip-path="url(#p1f1df5ea48)">
     <use style="fill:#9fd495;stroke:#3f3f3f;stroke-width:1.5;" x="0" xlink:href="#m0cd97d7852" y="364.007178"/>
    </g>
   </g>
   <g id="matplotlib.axis_1">
    <g id="xtick_1">
     <g id="line2d_1">
      <defs>
       <path d="M 0 0 
L 0 3.5 
" id="m24c8e9fb9b" style="stroke:#000000;stroke-width:0.8;"/>
      </defs>
      <g>
       <use style="stroke:#000000;stroke-width:0.8;" x="112.848125" xlink:href="#m24c8e9fb9b" y="288.430125"/>
      </g>
     </g>
     <g id="text_1">
      <!-- aflplusplus -->
      <g transform="translate(65.239118 328.897284)rotate(-30)scale(0.1 -0.1)">
       <defs>
        <path d="M 34.28125 27.484375 
Q 23.390625 27.484375 19.1875 25 
Q 14.984375 22.515625 14.984375 16.5 
Q 14.984375 11.71875 18.140625 8.90625 
Q 21.296875 6.109375 26.703125 6.109375 
Q 34.1875 6.109375 38.703125 11.40625 
Q 43.21875 16.703125 43.21875 25.484375 
L 43.21875 27.484375 
z
M 52.203125 31.203125 
L 52.203125 0 
L 43.21875 0 
L 43.21875 8.296875 
Q 40.140625 3.328125 35.546875 0.953125 
Q 30.953125 -1.421875 24.3125 -1.421875 
Q 15.921875 -1.421875 10.953125 3.296875 
Q 6 8.015625 6 15.921875 
Q 6 25.140625 12.171875 29.828125 
Q 18.359375 34.515625 30.609375 34.515625 
L 43.21875 34.515625 
L 43.21875 35.40625 
Q 43.21875 41.609375 39.140625 45 
Q 35.0625 48.390625 27.6875 48.390625 
Q 23 48.390625 18.546875 47.265625 
Q 14.109375 46.140625 10.015625 43.890625 
L 10.015625 52.203125 
Q 14.9375 54.109375 19.578125 55.046875 
Q 24.21875 56 28.609375 56 
Q 40.484375 56 46.34375 49.84375 
Q 52.203125 43.703125 52.203125 31.203125 
z
" id="DejaVuSans-97"/>
        <path d="M 37.109375 75.984375 
L 37.109375 68.5 
L 28.515625 68.5 
Q 23.6875 68.5 21.796875 66.546875 
Q 19.921875 64.59375 19.921875 59.515625 
L 19.921875 54.6875 
L 34.71875 54.6875 
L 34.71875 47.703125 
L 19.921875 47.703125 
L 19.921875 0 
L 10.890625 0 
L 10.890625 47.703125 
L 2.296875 47.703125 
L 2.296875 54.6875 
L 10.890625 54.6875 
L 10.890625 58.5 
Q 10.890625 67.625 15.140625 71.796875 
Q 19.390625 75.984375 28.609375 75.984375 
z
" id="DejaVuSans-102"/>
        <path d="M 9.421875 75.984375 
L 18.40625 75.984375 
L 18.40625 0 
L 9.421875 0 
z
" id="DejaVuSans-108"/>
        <path d="M 18.109375 8.203125 
L 18.109375 -20.796875 
L 9.078125 -20.796875 
L 9.078125 54.6875 
L 18.109375 54.6875 
L 18.109375 46.390625 
Q 20.953125 51.265625 25.265625 53.625 
Q 29.59375 56 35.59375 56 
Q 45.5625 56 51.78125 48.09375 
Q 58.015625 40.1875 58.015625 27.296875 
Q 58.015625 14.40625 51.78125 6.484375 
Q 45.5625 -1.421875 35.59375 -1.421875 
Q 29.59375 -1.421875 25.265625 0.953125 
Q 20.953125 3.328125 18.109375 8.203125 
z
M 48.6875 27.296875 
Q 48.6875 37.203125 44.609375 42.84375 
Q 40.53125 48.484375 33.40625 48.484375 
Q 26.265625 48.484375 22.1875 42.84375 
Q 18.109375 37.203125 18.109375 27.296875 
Q 18.109375 17.390625 22.1875 11.75 
Q 26.265625 6.109375 33.40625 6.109375 
Q 40.53125 6.109375 44.609375 11.75 
Q 48.6875 17.390625 48.6875 27.296875 
z
" id="DejaVuSans-112"/>
        <path d="M 8.5 21.578125 
L 8.5 54.6875 
L 17.484375 54.6875 
L 17.484375 21.921875 
Q 17.484375 14.15625 20.5 10.265625 
Q 23.53125 6.390625 29.59375 6.390625 
Q 36.859375 6.390625 41.078125 11.03125 
Q 45.3125 15.671875 45.3125 23.6875 
L 45.3125 54.6875 
L 54.296875 54.6875 
L 54.296875 0 
L 45.3125 0 
L 45.3125 8.40625 
Q 42.046875 3.421875 37.71875 1 
Q 33.40625 -1.421875 27.6875 -1.421875 
Q 18.265625 -1.421875 13.375 4.4375 
Q 8.5 10.296875 8.5 21.578125 
z
M 31.109375 56 
z
" id="DejaVuSans-117"/>
        <path d="M 44.28125 53.078125 
L 44.28125 44.578125 
Q 40.484375 46.53125 36.375 47.5 
Q 32.28125 48.484375 27.875 48.484375 
Q 21.1875 48.484375 17.84375 46.4375 
Q 14.5 44.390625 14.5 40.28125 
Q 14.5 37.15625 16.890625 35.375 
Q 19.28125 33.59375 26.515625 31.984375 
L 29.59375 31.296875 
Q 39.15625 29.25 43.1875 25.515625 
Q 47.21875 21.78125 47.21875 15.09375 
Q 47.21875 7.46875 41.1875 3.015625 
Q 35.15625 -1.421875 24.609375 -1.421875 
Q 20.21875 -1.421875 15.453125 -0.5625 
Q 10.6875 0.296875 5.421875 2 
L 5.421875 11.28125 
Q 10.40625 8.6875 15.234375 7.390625 
Q 20.0625 6.109375 24.8125 6.109375 
Q 31.15625 6.109375 34.5625 8.28125 
Q 37.984375 10.453125 37.984375 14.40625 
Q 37.984375 18.0625 35.515625 20.015625 
Q 33.0625 21.96875 24.703125 23.78125 
L 21.578125 24.515625 
Q 13.234375 26.265625 9.515625 29.90625 
Q 5.8125 33.546875 5.8125 39.890625 
Q 5.8125 47.609375 11.28125 51.796875 
Q 16.75 56 26.8125 56 
Q 31.78125 56 36.171875 55.265625 
Q 40.578125 54.546875 44.28125 53.078125 
z
" id="DejaVuSans-115"/>
       </defs>
       <use xlink:href="#DejaVuSans-97"/>
       <use x="61.279297" xlink:href="#DejaVuSans-102"/>
       <use x="96.484375" xlink:href="#DejaVuSans-108"/>
       <use x="124.267578" xlink:href="#DejaVuSans-112"/>
       <use x="187.744141" xlink:href="#DejaVuSans-108"/>
       <use x="215.527344" xlink:href="#DejaVuSans-117"/>
       <use x="278.90625" xlink:href="#DejaVuSans-115"/>
       <use x="331.005859" xlink:href="#DejaVuSans-112"/>
       <use x="394.482422" xlink:href="#DejaVuSans-108"/>
       <use x="422.265625" xlink:href="#DejaVuSans-117"/>
       <use x="485.644531" xlink:href="#DejaVuSans-115"/>
      </g>
     </g>
    </g>
    <g id="xtick_2">
     <g id="line2d_2">
      <g>
       <use style="stroke:#000000;stroke-width:0.8;" x="231.888125" xlink:href="#m24c8e9fb9b" y="288.430125"/>
      </g>
     </g>
     <g id="text_2">
      <!-- entropic -->
      <g transform="translate(195.306057 322.530877)rotate(-30)scale(0.1 -0.1)">
       <defs>
        <path d="M 56.203125 29.59375 
L 56.203125 25.203125 
L 14.890625 25.203125 
Q 15.484375 15.921875 20.484375 11.0625 
Q 25.484375 6.203125 34.421875 6.203125 
Q 39.59375 6.203125 44.453125 7.46875 
Q 49.3125 8.734375 54.109375 11.28125 
L 54.109375 2.78125 
Q 49.265625 0.734375 44.1875 -0.34375 
Q 39.109375 -1.421875 33.890625 -1.421875 
Q 20.796875 -1.421875 13.15625 6.1875 
Q 5.515625 13.8125 5.515625 26.8125 
Q 5.515625 40.234375 12.765625 48.109375 
Q 20.015625 56 32.328125 56 
Q 43.359375 56 49.78125 48.890625 
Q 56.203125 41.796875 56.203125 29.59375 
z
M 47.21875 32.234375 
Q 47.125 39.59375 43.09375 43.984375 
Q 39.0625 48.390625 32.421875 48.390625 
Q 24.90625 48.390625 20.390625 44.140625 
Q 15.875 39.890625 15.1875 32.171875 
z
" id="DejaVuSans-101"/>
        <path d="M 54.890625 33.015625 
L 54.890625 0 
L 45.90625 0 
L 45.90625 32.71875 
Q 45.90625 40.484375 42.875 44.328125 
Q 39.84375 48.1875 33.796875 48.1875 
Q 26.515625 48.1875 22.3125 43.546875 
Q 18.109375 38.921875 18.109375 30.90625 
L 18.109375 0 
L 9.078125 0 
L 9.078125 54.6875 
L 18.109375 54.6875 
L 18.109375 46.1875 
Q 21.34375 51.125 25.703125 53.5625 
Q 30.078125 56 35.796875 56 
Q 45.21875 56 50.046875 50.171875 
Q 54.890625 44.34375 54.890625 33.015625 
z
" id="DejaVuSans-110"/>
        <path d="M 18.3125 70.21875 
L 18.3125 54.6875 
L 36.8125 54.6875 
L 36.8125 47.703125 
L 18.3125 47.703125 
L 18.3125 18.015625 
Q 18.3125 11.328125 20.140625 9.421875 
Q 21.96875 7.515625 27.59375 7.515625 
L 36.8125 7.515625 
L 36.8125 0 
L 27.59375 0 
Q 17.1875 0 13.234375 3.875 
Q 9.28125 7.765625 9.28125 18.015625 
L 9.28125 47.703125 
L 2.6875 47.703125 
L 2.6875 54.6875 
L 9.28125 54.6875 
L 9.28125 70.21875 
z
" id="DejaVuSans-116"/>
        <path d="M 41.109375 46.296875 
Q 39.59375 47.171875 37.8125 47.578125 
Q 36.03125 48 33.890625 48 
Q 26.265625 48 22.1875 43.046875 
Q 18.109375 38.09375 18.109375 28.8125 
L 18.109375 0 
L 9.078125 0 
L 9.078125 54.6875 
L 18.109375 54.6875 
L 18.109375 46.1875 
Q 20.953125 51.171875 25.484375 53.578125 
Q 30.03125 56 36.53125 56 
Q 37.453125 56 38.578125 55.875 
Q 39.703125 55.765625 41.0625 55.515625 
z
" id="DejaVuSans-114"/>
        <path d="M 30.609375 48.390625 
Q 23.390625 48.390625 19.1875 42.75 
Q 14.984375 37.109375 14.984375 27.296875 
Q 14.984375 17.484375 19.15625 11.84375 
Q 23.34375 6.203125 30.609375 6.203125 
Q 37.796875 6.203125 41.984375 11.859375 
Q 46.1875 17.53125 46.1875 27.296875 
Q 46.1875 37.015625 41.984375 42.703125 
Q 37.796875 48.390625 30.609375 48.390625 
z
M 30.609375 56 
Q 42.328125 56 49.015625 48.375 
Q 55.71875 40.765625 55.71875 27.296875 
Q 55.71875 13.875 49.015625 6.21875 
Q 42.328125 -1.421875 30.609375 -1.421875 
Q 18.84375 -1.421875 12.171875 6.21875 
Q 5.515625 13.875 5.515625 27.296875 
Q 5.515625 40.765625 12.171875 48.375 
Q 18.84375 56 30.609375 56 
z
" id="DejaVuSans-111"/>
        <path d="M 9.421875 54.6875 
L 18.40625 54.6875 
L 18.40625 0 
L 9.421875 0 
z
M 9.421875 75.984375 
L 18.40625 75.984375 
L 18.40625 64.59375 
L 9.421875 64.59375 
z
" id="DejaVuSans-105"/>
        <path d="M 48.78125 52.59375 
L 48.78125 44.1875 
Q 44.96875 46.296875 41.140625 47.34375 
Q 37.3125 48.390625 33.40625 48.390625 
Q 24.65625 48.390625 19.8125 42.84375 
Q 14.984375 37.3125 14.984375 27.296875 
Q 14.984375 17.28125 19.8125 11.734375 
Q 24.65625 6.203125 33.40625 6.203125 
Q 37.3125 6.203125 41.140625 7.25 
Q 44.96875 8.296875 48.78125 10.40625 
L 48.78125 2.09375 
Q 45.015625 0.34375 40.984375 -0.53125 
Q 36.96875 -1.421875 32.421875 -1.421875 
Q 20.0625 -1.421875 12.78125 6.34375 
Q 5.515625 14.109375 5.515625 27.296875 
Q 5.515625 40.671875 12.859375 48.328125 
Q 20.21875 56 33.015625 56 
Q 37.15625 56 41.109375 55.140625 
Q 45.0625 54.296875 48.78125 52.59375 
z
" id="DejaVuSans-99"/>
       </defs>
       <use xlink:href="#DejaVuSans-101"/>
       <use x="61.523438" xlink:href="#DejaVuSans-110"/>
       <use x="124.902344" xlink:href="#DejaVuSans-116"/>
       <use x="164.111328" xlink:href="#DejaVuSans-114"/>
       <use x="202.974609" xlink:href="#DejaVuSans-111"/>
       <use x="264.15625" xlink:href="#DejaVuSans-112"/>
       <use x="327.632812" xlink:href="#DejaVuSans-105"/>
       <use x="355.416016" xlink:href="#DejaVuSans-99"/>
      </g>
     </g>
    </g>
    <g id="xtick_3">
     <g id="line2d_3">
      <g>
       <use style="stroke:#000000;stroke-width:0.8;" x="350.928125" xlink:href="#m24c8e9fb9b" y="288.430125"/>
      </g>
     </g>
     <g id="text_3">
      <!-- aflplusplus_hier -->
      <g transform="translate(282.066627 341.087127)rotate(-30)scale(0.1 -0.1)">
       <defs>
        <path d="M 50.984375 -16.609375 
L 50.984375 -23.578125 
L -0.984375 -23.578125 
L -0.984375 -16.609375 
z
" id="DejaVuSans-95"/>
        <path d="M 54.890625 33.015625 
L 54.890625 0 
L 45.90625 0 
L 45.90625 32.71875 
Q 45.90625 40.484375 42.875 44.328125 
Q 39.84375 48.1875 33.796875 48.1875 
Q 26.515625 48.1875 22.3125 43.546875 
Q 18.109375 38.921875 18.109375 30.90625 
L 18.109375 0 
L 9.078125 0 
L 9.078125 75.984375 
L 18.109375 75.984375 
L 18.109375 46.1875 
Q 21.34375 51.125 25.703125 53.5625 
Q 30.078125 56 35.796875 56 
Q 45.21875 56 50.046875 50.171875 
Q 54.890625 44.34375 54.890625 33.015625 
z
" id="DejaVuSans-104"/>
       </defs>
       <use xlink:href="#DejaVuSans-97"/>
       <use x="61.279297" xlink:href="#DejaVuSans-102"/>
       <use x="96.484375" xlink:href="#DejaVuSans-108"/>
       <use x="124.267578" xlink:href="#DejaVuSans-112"/>
       <use x="187.744141" xlink:href="#DejaVuSans-108"/>
       <use x="215.527344" xlink:href="#DejaVuSans-117"/>
       <use x="278.90625" xlink:href="#DejaVuSans-115"/>
       <use x="331.005859" xlink:href="#DejaVuSans-112"/>
       <use x="394.482422" xlink:href="#DejaVuSans-108"/>
       <use x="422.265625" xlink:href="#DejaVuSans-117"/>
       <use x="485.644531" xlink:href="#DejaVuSans-115"/>
       <use x="537.744141" xlink:href="#DejaVuSans-95"/>
       <use x="587.744141" xlink:href="#DejaVuSans-104"/>
       <use x="651.123047" xlink:href="#DejaVuSans-105"/>
       <use x="678.90625" xlink:href="#DejaVuSans-101"/>
       <use x="740.429688" xlink:href="#DejaVuSans-114"/>
      </g>
     </g>
    </g>
    <g id="text_4">
     <!-- Fuzzer (highest median coverage on the left) -->
     <g transform="translate(119.270156 354.72749)scale(0.1 -0.1)">
      <defs>
       <path d="M 9.8125 72.90625 
L 51.703125 72.90625 
L 51.703125 64.59375 
L 19.671875 64.59375 
L 19.671875 43.109375 
L 48.578125 43.109375 
L 48.578125 34.8125 
L 19.671875 34.8125 
L 19.671875 0 
L 9.8125 0 
z
" id="DejaVuSans-70"/>
       <path d="M 5.515625 54.6875 
L 48.1875 54.6875 
L 48.1875 46.484375 
L 14.40625 7.171875 
L 48.1875 7.171875 
L 48.1875 0 
L 4.296875 0 
L 4.296875 8.203125 
L 38.09375 47.515625 
L 5.515625 47.515625 
z
" id="DejaVuSans-122"/>
       <path id="DejaVuSans-32"/>
       <path d="M 31 75.875 
Q 24.46875 64.65625 21.28125 53.65625 
Q 18.109375 42.671875 18.109375 31.390625 
Q 18.109375 20.125 21.3125 9.0625 
Q 24.515625 -2 31 -13.1875 
L 23.1875 -13.1875 
Q 15.875 -1.703125 12.234375 9.375 
Q 8.59375 20.453125 8.59375 31.390625 
Q 8.59375 42.28125 12.203125 53.3125 
Q 15.828125 64.359375 23.1875 75.875 
z
" id="DejaVuSans-40"/>
       <path d="M 45.40625 27.984375 
Q 45.40625 37.75 41.375 43.109375 
Q 37.359375 48.484375 30.078125 48.484375 
Q 22.859375 48.484375 18.828125 43.109375 
Q 14.796875 37.75 14.796875 27.984375 
Q 14.796875 18.265625 18.828125 12.890625 
Q 22.859375 7.515625 30.078125 7.515625 
Q 37.359375 7.515625 41.375 12.890625 
Q 45.40625 18.265625 45.40625 27.984375 
z
M 54.390625 6.78125 
Q 54.390625 -7.171875 48.1875 -13.984375 
Q 42 -20.796875 29.203125 -20.796875 
Q 24.46875 -20.796875 20.265625 -20.09375 
Q 16.0625 -19.390625 12.109375 -17.921875 
L 12.109375 -9.1875 
Q 16.0625 -11.328125 19.921875 -12.34375 
Q 23.78125 -13.375 27.78125 -13.375 
Q 36.625 -13.375 41.015625 -8.765625 
Q 45.40625 -4.15625 45.40625 5.171875 
L 45.40625 9.625 
Q 42.625 4.78125 38.28125 2.390625 
Q 33.9375 0 27.875 0 
Q 17.828125 0 11.671875 7.65625 
Q 5.515625 15.328125 5.515625 27.984375 
Q 5.515625 40.671875 11.671875 48.328125 
Q 17.828125 56 27.875 56 
Q 33.9375 56 38.28125 53.609375 
Q 42.625 51.21875 45.40625 46.390625 
L 45.40625 54.6875 
L 54.390625 54.6875 
z
" id="DejaVuSans-103"/>
       <path d="M 52 44.1875 
Q 55.375 50.25 60.0625 53.125 
Q 64.75 56 71.09375 56 
Q 79.640625 56 84.28125 50.015625 
Q 88.921875 44.046875 88.921875 33.015625 
L 88.921875 0 
L 79.890625 0 
L 79.890625 32.71875 
Q 79.890625 40.578125 77.09375 44.375 
Q 74.3125 48.1875 68.609375 48.1875 
Q 61.625 48.1875 57.5625 43.546875 
Q 53.515625 38.921875 53.515625 30.90625 
L 53.515625 0 
L 44.484375 0 
L 44.484375 32.71875 
Q 44.484375 40.625 41.703125 44.40625 
Q 38.921875 48.1875 33.109375 48.1875 
Q 26.21875 48.1875 22.15625 43.53125 
Q 18.109375 38.875 18.109375 30.90625 
L 18.109375 0 
L 9.078125 0 
L 9.078125 54.6875 
L 18.109375 54.6875 
L 18.109375 46.1875 
Q 21.1875 51.21875 25.484375 53.609375 
Q 29.78125 56 35.6875 56 
Q 41.65625 56 45.828125 52.96875 
Q 50 49.953125 52 44.1875 
z
" id="DejaVuSans-109"/>
       <path d="M 45.40625 46.390625 
L 45.40625 75.984375 
L 54.390625 75.984375 
L 54.390625 0 
L 45.40625 0 
L 45.40625 8.203125 
Q 42.578125 3.328125 38.25 0.953125 
Q 33.9375 -1.421875 27.875 -1.421875 
Q 17.96875 -1.421875 11.734375 6.484375 
Q 5.515625 14.40625 5.515625 27.296875 
Q 5.515625 40.1875 11.734375 48.09375 
Q 17.96875 56 27.875 56 
Q 33.9375 56 38.25 53.625 
Q 42.578125 51.265625 45.40625 46.390625 
z
M 14.796875 27.296875 
Q 14.796875 17.390625 18.875 11.75 
Q 22.953125 6.109375 30.078125 6.109375 
Q 37.203125 6.109375 41.296875 11.75 
Q 45.40625 17.390625 45.40625 27.296875 
Q 45.40625 37.203125 41.296875 42.84375 
Q 37.203125 48.484375 30.078125 48.484375 
Q 22.953125 48.484375 18.875 42.84375 
Q 14.796875 37.203125 14.796875 27.296875 
z
" id="DejaVuSans-100"/>
       <path d="M 2.984375 54.6875 
L 12.5 54.6875 
L 29.59375 8.796875 
L 46.6875 54.6875 
L 56.203125 54.6875 
L 35.6875 0 
L 23.484375 0 
z
" id="DejaVuSans-118"/>
       <path d="M 8.015625 75.875 
L 15.828125 75.875 
Q 23.140625 64.359375 26.78125 53.3125 
Q 30.421875 42.28125 30.421875 31.390625 
Q 30.421875 20.453125 26.78125 9.375 
Q 23.140625 -1.703125 15.828125 -13.1875 
L 8.015625 -13.1875 
Q 14.5 -2 17.703125 9.0625 
Q 20.90625 20.125 20.90625 31.390625 
Q 20.90625 42.671875 17.703125 53.65625 
Q 14.5 64.65625 8.015625 75.875 
z
" id="DejaVuSans-41"/>
      </defs>
      <use xlink:href="#DejaVuSans-70"/>
      <use x="52.019531" xlink:href="#DejaVuSans-117"/>
      <use x="115.398438" xlink:href="#DejaVuSans-122"/>
      <use x="167.888672" xlink:href="#DejaVuSans-122"/>
      <use x="220.378906" xlink:href="#DejaVuSans-101"/>
      <use x="281.902344" xlink:href="#DejaVuSans-114"/>
      <use x="323.015625" xlink:href="#DejaVuSans-32"/>
      <use x="354.802734" xlink:href="#DejaVuSans-40"/>
      <use x="393.816406" xlink:href="#DejaVuSans-104"/>
      <use x="457.195312" xlink:href="#DejaVuSans-105"/>
      <use x="484.978516" xlink:href="#DejaVuSans-103"/>
      <use x="548.455078" xlink:href="#DejaVuSans-104"/>
      <use x="611.833984" xlink:href="#DejaVuSans-101"/>
      <use x="673.357422" xlink:href="#DejaVuSans-115"/>
      <use x="725.457031" xlink:href="#DejaVuSans-116"/>
      <use x="764.666016" xlink:href="#DejaVuSans-32"/>
      <use x="796.453125" xlink:href="#DejaVuSans-109"/>
      <use x="893.865234" xlink:href="#DejaVuSans-101"/>
      <use x="955.388672" xlink:href="#DejaVuSans-100"/>
      <use x="1018.865234" xlink:href="#DejaVuSans-105"/>
      <use x="1046.648438" xlink:href="#DejaVuSans-97"/>
      <use x="1107.927734" xlink:href="#DejaVuSans-110"/>
      <use x="1171.306641" xlink:href="#DejaVuSans-32"/>
      <use x="1203.09375" xlink:href="#DejaVuSans-99"/>
      <use x="1258.074219" xlink:href="#DejaVuSans-111"/>
      <use x="1319.255859" xlink:href="#DejaVuSans-118"/>
      <use x="1378.435547" xlink:href="#DejaVuSans-101"/>
      <use x="1439.958984" xlink:href="#DejaVuSans-114"/>
      <use x="1481.072266" xlink:href="#DejaVuSans-97"/>
      <use x="1542.351562" xlink:href="#DejaVuSans-103"/>
      <use x="1605.828125" xlink:href="#DejaVuSans-101"/>
      <use x="1667.351562" xlink:href="#DejaVuSans-32"/>
      <use x="1699.138672" xlink:href="#DejaVuSans-111"/>
      <use x="1760.320312" xlink:href="#DejaVuSans-110"/>
      <use x="1823.699219" xlink:href="#DejaVuSans-32"/>
      <use x="1855.486328" xlink:href="#DejaVuSans-116"/>
      <use x="1894.695312" xlink:href="#DejaVuSans-104"/>
      <use x="1958.074219" xlink:href="#DejaVuSans-101"/>
      <use x="2019.597656" xlink:href="#DejaVuSans-32"/>
      <use x="2051.384766" xlink:href="#DejaVuSans-108"/>
      <use x="2079.167969" xlink:href="#DejaVuSans-101"/>
      <use x="2140.691406" xlink:href="#DejaVuSans-102"/>
      <use x="2174.146484" xlink:href="#DejaVuSans-116"/>
      <use x="2213.355469" xlink:href="#DejaVuSans-41"/>
     </g>
    </g>
   </g>
   <g id="matplotlib.axis_2">
    <g id="ytick_1">
     <g id="line2d_4">
      <defs>
       <path d="M 0 0 
L -3.5 0 
" id="m8386a40dce" style="stroke:#000000;stroke-width:0.8;"/>
      </defs>
      <g>
       <use style="stroke:#000000;stroke-width:0.8;" x="53.328125" xlink:href="#m8386a40dce" y="271.166926"/>
      </g>
     </g>
     <g id="text_5">
      <!-- 1000 -->
      <g transform="translate(20.878125 274.966144)scale(0.1 -0.1)">
       <defs>
        <path d="M 12.40625 8.296875 
L 28.515625 8.296875 
L 28.515625 63.921875 
L 10.984375 60.40625 
L 10.984375 69.390625 
L 28.421875 72.90625 
L 38.28125 72.90625 
L 38.28125 8.296875 
L 54.390625 8.296875 
L 54.390625 0 
L 12.40625 0 
z
" id="DejaVuSans-49"/>
        <path d="M 31.78125 66.40625 
Q 24.171875 66.40625 20.328125 58.90625 
Q 16.5 51.421875 16.5 36.375 
Q 16.5 21.390625 20.328125 13.890625 
Q 24.171875 6.390625 31.78125 6.390625 
Q 39.453125 6.390625 43.28125 13.890625 
Q 47.125 21.390625 47.125 36.375 
Q 47.125 51.421875 43.28125 58.90625 
Q 39.453125 66.40625 31.78125 66.40625 
z
M 31.78125 74.21875 
Q 44.046875 74.21875 50.515625 64.515625 
Q 56.984375 54.828125 56.984375 36.375 
Q 56.984375 17.96875 50.515625 8.265625 
Q 44.046875 -1.421875 31.78125 -1.421875 
Q 19.53125 -1.421875 13.0625 8.265625 
Q 6.59375 17.96875 6.59375 36.375 
Q 6.59375 54.828125 13.0625 64.515625 
Q 19.53125 74.21875 31.78125 74.21875 
z
" id="DejaVuSans-48"/>
       </defs>
       <use xlink:href="#DejaVuSans-49"/>
       <use x="63.623047" xlink:href="#DejaVuSans-48"/>
       <use x="127.246094" xlink:href="#DejaVuSans-48"/>
       <use x="190.869141" xlink:href="#DejaVuSans-48"/>
      </g>
     </g>
    </g>
    <g id="ytick_2">
     <g id="line2d_5">
      <g>
       <use style="stroke:#000000;stroke-width:0.8;" x="53.328125" xlink:href="#m8386a40dce" y="217.478654"/>
      </g>
     </g>
     <g id="text_6">
      <!-- 1500 -->
      <g transform="translate(20.878125 221.277873)scale(0.1 -0.1)">
       <defs>
        <path d="M 10.796875 72.90625 
L 49.515625 72.90625 
L 49.515625 64.59375 
L 19.828125 64.59375 
L 19.828125 46.734375 
Q 21.96875 47.46875 24.109375 47.828125 
Q 26.265625 48.1875 28.421875 48.1875 
Q 40.625 48.1875 47.75 41.5 
Q 54.890625 34.8125 54.890625 23.390625 
Q 54.890625 11.625 47.5625 5.09375 
Q 40.234375 -1.421875 26.90625 -1.421875 
Q 22.3125 -1.421875 17.546875 -0.640625 
Q 12.796875 0.140625 7.71875 1.703125 
L 7.71875 11.625 
Q 12.109375 9.234375 16.796875 8.0625 
Q 21.484375 6.890625 26.703125 6.890625 
Q 35.15625 6.890625 40.078125 11.328125 
Q 45.015625 15.765625 45.015625 23.390625 
Q 45.015625 31 40.078125 35.4375 
Q 35.15625 39.890625 26.703125 39.890625 
Q 22.75 39.890625 18.8125 39.015625 
Q 14.890625 38.140625 10.796875 36.28125 
z
" id="DejaVuSans-53"/>
       </defs>
       <use xlink:href="#DejaVuSans-49"/>
       <use x="63.623047" xlink:href="#DejaVuSans-53"/>
       <use x="127.246094" xlink:href="#DejaVuSans-48"/>
       <use x="190.869141" xlink:href="#DejaVuSans-48"/>
      </g>
     </g>
    </g>
    <g id="ytick_3">
     <g id="line2d_6">
      <g>
       <use style="stroke:#000000;stroke-width:0.8;" x="53.328125" xlink:href="#m8386a40dce" y="163.790383"/>
      </g>
     </g>
     <g id="text_7">
      <!-- 2000 -->
      <g transform="translate(20.878125 167.589602)scale(0.1 -0.1)">
       <defs>
        <path d="M 19.1875 8.296875 
L 53.609375 8.296875 
L 53.609375 0 
L 7.328125 0 
L 7.328125 8.296875 
Q 12.9375 14.109375 22.625 23.890625 
Q 32.328125 33.6875 34.8125 36.53125 
Q 39.546875 41.84375 41.421875 45.53125 
Q 43.3125 49.21875 43.3125 52.78125 
Q 43.3125 58.59375 39.234375 62.25 
Q 35.15625 65.921875 28.609375 65.921875 
Q 23.96875 65.921875 18.8125 64.3125 
Q 13.671875 62.703125 7.8125 59.421875 
L 7.8125 69.390625 
Q 13.765625 71.78125 18.9375 73 
Q 24.125 74.21875 28.421875 74.21875 
Q 39.75 74.21875 46.484375 68.546875 
Q 53.21875 62.890625 53.21875 53.421875 
Q 53.21875 48.921875 51.53125 44.890625 
Q 49.859375 40.875 45.40625 35.40625 
Q 44.1875 33.984375 37.640625 27.21875 
Q 31.109375 20.453125 19.1875 8.296875 
z
" id="DejaVuSans-50"/>
       </defs>
       <use xlink:href="#DejaVuSans-50"/>
       <use x="63.623047" xlink:href="#DejaVuSans-48"/>
       <use x="127.246094" xlink:href="#DejaVuSans-48"/>
       <use x="190.869141" xlink:href="#DejaVuSans-48"/>
      </g>
     </g>
    </g>
    <g id="ytick_4">
     <g id="line2d_7">
      <g>
       <use style="stroke:#000000;stroke-width:0.8;" x="53.328125" xlink:href="#m8386a40dce" y="110.102112"/>
      </g>
     </g>
     <g id="text_8">
      <!-- 2500 -->
      <g transform="translate(20.878125 113.90133)scale(0.1 -0.1)">
       <use xlink:href="#DejaVuSans-50"/>
       <use x="63.623047" xlink:href="#DejaVuSans-53"/>
       <use x="127.246094" xlink:href="#DejaVuSans-48"/>
       <use x="190.869141" xlink:href="#DejaVuSans-48"/>
      </g>
     </g>
    </g>
    <g id="ytick_5">
     <g id="line2d_8">
      <g>
       <use style="stroke:#000000;stroke-width:0.8;" x="53.328125" xlink:href="#m8386a40dce" y="56.41384"/>
      </g>
     </g>
     <g id="text_9">
      <!-- 3000 -->
      <g transform="translate(20.878125 60.213059)scale(0.1 -0.1)">
       <defs>
        <path d="M 40.578125 39.3125 
Q 47.65625 37.796875 51.625 33 
Q 55.609375 28.21875 55.609375 21.1875 
Q 55.609375 10.40625 48.1875 4.484375 
Q 40.765625 -1.421875 27.09375 -1.421875 
Q 22.515625 -1.421875 17.65625 -0.515625 
Q 12.796875 0.390625 7.625 2.203125 
L 7.625 11.71875 
Q 11.71875 9.328125 16.59375 8.109375 
Q 21.484375 6.890625 26.8125 6.890625 
Q 36.078125 6.890625 40.9375 10.546875 
Q 45.796875 14.203125 45.796875 21.1875 
Q 45.796875 27.640625 41.28125 31.265625 
Q 36.765625 34.90625 28.71875 34.90625 
L 20.21875 34.90625 
L 20.21875 43.015625 
L 29.109375 43.015625 
Q 36.375 43.015625 40.234375 45.921875 
Q 44.09375 48.828125 44.09375 54.296875 
Q 44.09375 59.90625 40.109375 62.90625 
Q 36.140625 65.921875 28.71875 65.921875 
Q 24.65625 65.921875 20.015625 65.03125 
Q 15.375 64.15625 9.8125 62.3125 
L 9.8125 71.09375 
Q 15.4375 72.65625 20.34375 73.4375 
Q 25.25 74.21875 29.59375 74.21875 
Q 40.828125 74.21875 47.359375 69.109375 
Q 53.90625 64.015625 53.90625 55.328125 
Q 53.90625 49.265625 50.4375 45.09375 
Q 46.96875 40.921875 40.578125 39.3125 
z
" id="DejaVuSans-51"/>
       </defs>
       <use xlink:href="#DejaVuSans-51"/>
       <use x="63.623047" xlink:href="#DejaVuSans-48"/>
       <use x="127.246094" xlink:href="#DejaVuSans-48"/>
       <use x="190.869141" xlink:href="#DejaVuSans-48"/>
      </g>
     </g>
    </g>
    <g id="text_10">
     <!-- Reached region coverage -->
     <g transform="translate(14.798438 219.136625)rotate(-90)scale(0.1 -0.1)">
      <defs>
       <path d="M 44.390625 34.1875 
Q 47.5625 33.109375 50.5625 29.59375 
Q 53.5625 26.078125 56.59375 19.921875 
L 66.609375 0 
L 56 0 
L 46.6875 18.703125 
Q 43.0625 26.03125 39.671875 28.421875 
Q 36.28125 30.8125 30.421875 30.8125 
L 19.671875 30.8125 
L 19.671875 0 
L 9.8125 0 
L 9.8125 72.90625 
L 32.078125 72.90625 
Q 44.578125 72.90625 50.734375 67.671875 
Q 56.890625 62.453125 56.890625 51.90625 
Q 56.890625 45.015625 53.6875 40.46875 
Q 50.484375 35.9375 44.390625 34.1875 
z
M 19.671875 64.796875 
L 19.671875 38.921875 
L 32.078125 38.921875 
Q 39.203125 38.921875 42.84375 42.21875 
Q 46.484375 45.515625 46.484375 51.90625 
Q 46.484375 58.296875 42.84375 61.546875 
Q 39.203125 64.796875 32.078125 64.796875 
z
" id="DejaVuSans-82"/>
      </defs>
      <use xlink:href="#DejaVuSans-82"/>
      <use x="64.982422" xlink:href="#DejaVuSans-101"/>
      <use x="126.505859" xlink:href="#DejaVuSans-97"/>
      <use x="187.785156" xlink:href="#DejaVuSans-99"/>
      <use x="242.765625" xlink:href="#DejaVuSans-104"/>
      <use x="306.144531" xlink:href="#DejaVuSans-101"/>
      <use x="367.667969" xlink:href="#DejaVuSans-100"/>
      <use x="431.144531" xlink:href="#DejaVuSans-32"/>
      <use x="462.931641" xlink:href="#DejaVuSans-114"/>
      <use x="501.794922" xlink:href="#DejaVuSans-101"/>
      <use x="563.318359" xlink:href="#DejaVuSans-103"/>
      <use x="626.794922" xlink:href="#DejaVuSans-105"/>
      <use x="654.578125" xlink:href="#DejaVuSans-111"/>
      <use x="715.759766" xlink:href="#DejaVuSans-110"/>
      <use x="779.138672" xlink:href="#DejaVuSans-32"/>
      <use x="810.925781" xlink:href="#DejaVuSans-99"/>
      <use x="865.90625" xlink:href="#DejaVuSans-111"/>
      <use x="927.087891" xlink:href="#DejaVuSans-118"/>
      <use x="986.267578" xlink:href="#DejaVuSans-101"/>
      <use x="1047.791016" xlink:href="#DejaVuSans-114"/>
      <use x="1088.904297" xlink:href="#DejaVuSans-97"/>
      <use x="1150.183594" xlink:href="#DejaVuSans-103"/>
      <use x="1213.660156" xlink:href="#DejaVuSans-101"/>
     </g>
    </g>
   </g>
   <g id="line2d_9">
    <path clip-path="url(#p1f1df5ea48)" d="M 112.848125 71.661309 
L 112.848125 59.313007 
" style="fill:none;stroke:#3f3f3f;stroke-linecap:square;stroke-width:1.5;"/>
   </g>
   <g id="line2d_10">
    <path clip-path="url(#p1f1df5ea48)" d="M 112.848125 65.003964 
L 112.848125 59.313007 
" style="fill:none;stroke:#3f3f3f;stroke-linecap:square;stroke-width:4.5;"/>
   </g>
   <g id="line2d_11">
    <path clip-path="url(#p1f1df5ea48)" d="M 231.888125 111.820136 
L 231.888125 109.350476 
" style="fill:none;stroke:#3f3f3f;stroke-linecap:square;stroke-width:1.5;"/>
   </g>
   <g id="line2d_12">
    <path clip-path="url(#p1f1df5ea48)" d="M 231.888125 111.820136 
L 231.888125 109.350476 
" style="fill:none;stroke:#3f3f3f;stroke-linecap:square;stroke-width:4.5;"/>
   </g>
   <g id="line2d_13">
    <path clip-path="url(#p1f1df5ea48)" d="M 350.928125 261.288284 
L 350.928125 240.349858 
" style="fill:none;stroke:#3f3f3f;stroke-linecap:square;stroke-width:1.5;"/>
   </g>
   <g id="line2d_14">
    <path clip-path="url(#p1f1df5ea48)" d="M 350.928125 260.751401 
L 350.928125 241.85313 
" style="fill:none;stroke:#3f3f3f;stroke-linecap:square;stroke-width:4.5;"/>
   </g>
   <g id="patch_3">
    <path d="M 53.328125 271.166926 
L 53.328125 56.41384 
" style="fill:none;stroke:#000000;stroke-linecap:square;stroke-linejoin:miter;stroke-width:0.8;"/>
   </g>
   <g id="patch_4">
    <path d="M 112.848125 288.430125 
L 350.928125 288.430125 
" style="fill:none;stroke:#000000;stroke-linecap:square;stroke-linejoin:miter;stroke-width:0.8;"/>
   </g>
   <g id="PathCollection_1">
    <defs>
     <path d="M 0 1.5 
C 0.397805 1.5 0.77937 1.341951 1.06066 1.06066 
C 1.341951 0.77937 1.5 0.397805 1.5 0 
C 1.5 -0.397805 1.341951 -0.77937 1.06066 -1.06066 
C 0.77937 -1.341951 0.397805 -1.5 0 -1.5 
C -0.397805 -1.5 -0.77937 -1.341951 -1.06066 -1.06066 
C -1.341951 -0.77937 -1.5 -0.397805 -1.5 0 
C -1.5 0.397805 -1.341951 0.77937 -1.06066 1.06066 
C -0.77937 1.341951 -0.397805 1.5 0 1.5 
z
" id="m03dee73eeb" style="stroke:#3f3f3f;"/>
    </defs>
    <g clip-path="url(#p1f1df5ea48)">
     <use style="fill:#ffffff;stroke:#3f3f3f;" x="112.848125" xlink:href="#m03dee73eeb" y="60.064643"/>
    </g>
   </g>
   <g id="PathCollection_2">
    <g clip-path="url(#p1f1df5ea48)">
     <use style="fill:#ffffff;stroke:#3f3f3f;" x="231.888125" xlink:href="#m03dee73eeb" y="111.175877"/>
    </g>
   </g>
   <g id="PathCollection_3">
    <g clip-path="url(#p1f1df5ea48)">
     <use style="fill:#ffffff;stroke:#3f3f3f;" x="350.928125" xlink:href="#m03dee73eeb" y="244.64492"/>
    </g>
   </g>
   <g id="text_11">
    <!-- lcms-2017-03-21 (1h:45m, 5 trials/fuzzer) -->
    <g transform="translate(106.323125 16.318125)scale(0.12 -0.12)">
     <defs>
      <path d="M 4.890625 31.390625 
L 31.203125 31.390625 
L 31.203125 23.390625 
L 4.890625 23.390625 
z
" id="DejaVuSans-45"/>
      <path d="M 8.203125 72.90625 
L 55.078125 72.90625 
L 55.078125 68.703125 
L 28.609375 0 
L 18.3125 0 
L 43.21875 64.59375 
L 8.203125 64.59375 
z
" id="DejaVuSans-55"/>
      <path d="M 11.71875 12.40625 
L 22.015625 12.40625 
L 22.015625 0 
L 11.71875 0 
z
M 11.71875 51.703125 
L 22.015625 51.703125 
L 22.015625 39.3125 
L 11.71875 39.3125 
z
" id="DejaVuSans-58"/>
      <path d="M 37.796875 64.3125 
L 12.890625 25.390625 
L 37.796875 25.390625 
z
M 35.203125 72.90625 
L 47.609375 72.90625 
L 47.609375 25.390625 
L 58.015625 25.390625 
L 58.015625 17.1875 
L 47.609375 17.1875 
L 47.609375 0 
L 37.796875 0 
L 37.796875 17.1875 
L 4.890625 17.1875 
L 4.890625 26.703125 
z
" id="DejaVuSans-52"/>
      <path d="M 11.71875 12.40625 
L 22.015625 12.40625 
L 22.015625 4 
L 14.015625 -11.625 
L 7.71875 -11.625 
L 11.71875 4 
z
" id="DejaVuSans-44"/>
      <path d="M 25.390625 72.90625 
L 33.6875 72.90625 
L 8.296875 -9.28125 
L 0 -9.28125 
z
" id="DejaVuSans-47"/>
     </defs>
     <use xlink:href="#DejaVuSans-108"/>
     <use x="27.783203" xlink:href="#DejaVuSans-99"/>
     <use x="82.763672" xlink:href="#DejaVuSans-109"/>
     <use x="180.175781" xlink:href="#DejaVuSans-115"/>
     <use x="232.275391" xlink:href="#DejaVuSans-45"/>
     <use x="268.359375" xlink:href="#DejaVuSans-50"/>
     <use x="331.982422" xlink:href="#DejaVuSans-48"/>
     <use x="395.605469" xlink:href="#DejaVuSans-49"/>
     <use x="459.228516" xlink:href="#DejaVuSans-55"/>
     <use x="522.851562" xlink:href="#DejaVuSans-45"/>
     <use x="558.935547" xlink:href="#DejaVuSans-48"/>
     <use x="622.558594" xlink:href="#DejaVuSans-51"/>
     <use x="686.181641" xlink:href="#DejaVuSans-45"/>
     <use x="722.265625" xlink:href="#DejaVuSans-50"/>
     <use x="785.888672" xlink:href="#DejaVuSans-49"/>
     <use x="849.511719" xlink:href="#DejaVuSans-32"/>
     <use x="881.298828" xlink:href="#DejaVuSans-40"/>
     <use x="920.3125" xlink:href="#DejaVuSans-49"/>
     <use x="983.935547" xlink:href="#DejaVuSans-104"/>
     <use x="1047.314453" xlink:href="#DejaVuSans-58"/>
     <use x="1081.005859" xlink:href="#DejaVuSans-52"/>
     <use x="1144.628906" xlink:href="#DejaVuSans-53"/>
     <use x="1208.251953" xlink:href="#DejaVuSans-109"/>
     <use x="1305.664062" xlink:href="#DejaVuSans-44"/>
     <use x="1337.451172" xlink:href="#DejaVuSans-32"/>
     <use x="1369.238281" xlink:href="#DejaVuSans-53"/>
     <use x="1432.861328" xlink:href="#DejaVuSans-32"/>
     <use x="1464.648438" xlink:href="#DejaVuSans-116"/>
     <use x="1503.857422" xlink:href="#DejaVuSans-114"/>
     <use x="1544.970703" xlink:href="#DejaVuSans-105"/>
     <use x="1572.753906" xlink:href="#DejaVuSans-97"/>
     <use x="1634.033203" xlink:href="#DejaVuSans-108"/>
     <use x="1661.816406" xlink:href="#DejaVuSans-115"/>
     <use x="1713.916016" xlink:href="#DejaVuSans-47"/>
     <use x="1747.607422" xlink:href="#DejaVuSans-102"/>
     <use x="1782.8125" xlink:href="#DejaVuSans-117"/>
     <use x="1846.191406" xlink:href="#DejaVuSans-122"/>
     <use x="1898.681641" xlink:href="#DejaVuSans-122"/>
     <use x="1951.171875" xlink:href="#DejaVuSans-101"/>
     <use x="2012.695312" xlink:href="#DejaVuSans-114"/>
     <use x="2053.808594" xlink:href="#DejaVuSans-41"/>
    </g>
   </g>
  </g>
 </g>
 <defs>
  <clipPath id="p1f1df5ea48">
   <rect height="266.112" width="357.12" x="53.328125" y="22.318125"/>
  </clipPath>
 </defs>
</svg>
