<?xml version="1.0" encoding="utf-8" standalone="no"?>
<!DOCTYPE svg PUBLIC "-//W3C//DTD SVG 1.1//EN"
  "http://www.w3.org/Graphics/SVG/1.1/DTD/svg11.dtd">
<!-- Created with matplotlib (https://matplotlib.org/) -->
<svg height="364.007178pt" version="1.1" viewBox="0 0 417.648125 364.007178" width="417.648125pt" xmlns="http://www.w3.org/2000/svg" xmlns:xlink="http://www.w3.org/1999/xlink">
 <metadata>
  <rdf:RDF xmlns:cc="http://creativecommons.org/ns#" xmlns:dc="http://purl.org/dc/elements/1.1/" xmlns:rdf="http://www.w3.org/1999/02/22-rdf-syntax-ns#">
   <cc:Work>
    <dc:type rdf:resource="http://purl.org/dc/dcmitype/StillImage"/>
    <dc:date>2020-11-09T03:13:20.893639</dc:date>
    <dc:format>image/svg+xml</dc:format>
    <dc:creator>
     <cc:Agent>
      <dc:title>Matplotlib v3.3.2, https://matplotlib.org/</dc:title>
     </cc:Agent>
    </dc:creator>
   </cc:Work>
  </rdf:RDF>
 </metadata>
 <defs>
  <style type="text/css">*{stroke-linecap:butt;stroke-linejoin:round;}</style>
 </defs>
 <g id="figure_1">
  <g id="patch_1">
   <path d="M 0 364.007178 
L 417.648125 364.007178 
L 417.648125 0 
L 0 0 
z
" style="fill:#ffffff;"/>
  </g>
  <g id="axes_1">
   <g id="patch_2">
    <path d="M 53.328125 288.430125 
L 410.448125 288.430125 
L 410.448125 22.318125 
L 53.328125 22.318125 
z
" style="fill:#ffffff;"/>
   </g>
   <g id="PolyCollection_1">
    <defs>
     <path d="M 113.46534 -207.013727 
L 112.23091 -207.013727 
L 112.136769 -208.251902 
L 112.032536 -209.490077 
L 111.917897 -210.728252 
L 111.792665 -211.966427 
L 111.656801 -213.204602 
L 111.510439 -214.442777 
L 111.353899 -215.680952 
L 111.187708 -216.919127 
L 111.012604 -218.157302 
L 110.829549 -219.395477 
L 110.639728 -220.633652 
L 110.444542 -221.871827 
L 110.245593 -223.110002 
L 110.044672 -224.348177 
L 109.843721 -225.586352 
L 109.644807 -226.824527 
L 109.450077 -228.062702 
L 109.261708 -229.300877 
L 109.081859 -230.539052 
L 108.912607 -231.777227 
L 108.755895 -233.015402 
L 108.613462 -234.253577 
L 108.486791 -235.491752 
L 108.377044 -236.729927 
L 108.28501 -237.968102 
L 108.211057 -239.206277 
L 108.155092 -240.444452 
L 108.116523 -241.682627 
L 108.094242 -242.920802 
L 108.086614 -244.158977 
L 108.091471 -245.397152 
L 108.106133 -246.635327 
L 108.127426 -247.873502 
L 108.151726 -249.111677 
L 108.175004 -250.349852 
L 108.192891 -251.588027 
L 108.200751 -252.826202 
L 108.193762 -254.064377 
L 108.167008 -255.302552 
L 108.115582 -256.540727 
L 108.034687 -257.778902 
L 107.919749 -259.017077 
L 107.766531 -260.255252 
L 107.571243 -261.493427 
L 107.330656 -262.731602 
L 107.042211 -263.969777 
L 106.70412 -265.207952 
L 106.315457 -266.446127 
L 105.876236 -267.684302 
L 105.387482 -268.922477 
L 104.851275 -270.160653 
L 104.270774 -271.398828 
L 103.650227 -272.637003 
L 102.994948 -273.875178 
L 102.31127 -275.113353 
L 101.606472 -276.351528 
L 100.88868 -277.589703 
L 100.16674 -278.827878 
L 99.450069 -280.066053 
L 98.748481 -281.304228 
L 98.071996 -282.542403 
L 97.430643 -283.780578 
L 96.834241 -285.018753 
L 96.292187 -286.256928 
L 95.813249 -287.495103 
L 95.405361 -288.733278 
L 95.075443 -289.971453 
L 94.829235 -291.209628 
L 94.671167 -292.447803 
L 94.604254 -293.685978 
L 94.630029 -294.924153 
L 94.748516 -296.162328 
L 94.958238 -297.400503 
L 95.256264 -298.638678 
L 95.638293 -299.876853 
L 96.098775 -301.115028 
L 96.631051 -302.353203 
L 97.227531 -303.591378 
L 97.879876 -304.829553 
L 98.579204 -306.067728 
L 99.316294 -307.305903 
L 100.081791 -308.544078 
L 100.866406 -309.782253 
L 101.661099 -311.020428 
L 102.457249 -312.258603 
L 103.246799 -313.496778 
L 104.022378 -314.734953 
L 104.777401 -315.973128 
L 105.506128 -317.211303 
L 106.203718 -318.449478 
L 106.866234 -319.687653 
L 107.490642 -320.925828 
L 108.074777 -322.164003 
L 108.617298 -323.402178 
L 109.117624 -324.640353 
L 109.575858 -325.878528 
L 109.992705 -327.116703 
L 110.369386 -328.354878 
L 110.707547 -329.593053 
L 114.988703 -329.593053 
L 114.988703 -329.593053 
L 115.326864 -328.354878 
L 115.703545 -327.116703 
L 116.120392 -325.878528 
L 116.578626 -324.640353 
L 117.078952 -323.402178 
L 117.621473 -322.164003 
L 118.205608 -320.925828 
L 118.830016 -319.687653 
L 119.492532 -318.449478 
L 120.190122 -317.211303 
L 120.918849 -315.973128 
L 121.673872 -314.734953 
L 122.449451 -313.496778 
L 123.239001 -312.258603 
L 124.035151 -311.020428 
L 124.829844 -309.782253 
L 125.614459 -308.544078 
L 126.379956 -307.305903 
L 127.117046 -306.067728 
L 127.816374 -304.829553 
L 128.468719 -303.591378 
L 129.065199 -302.353203 
L 129.597475 -301.115028 
L 130.057957 -299.876853 
L 130.439986 -298.638678 
L 130.738012 -297.400503 
L 130.947734 -296.162328 
L 131.066221 -294.924153 
L 131.091996 -293.685978 
L 131.025083 -292.447803 
L 130.867015 -291.209628 
L 130.620807 -289.971453 
L 130.290889 -288.733278 
L 129.883001 -287.495103 
L 129.404063 -286.256928 
L 128.862009 -285.018753 
L 128.265607 -283.780578 
L 127.624254 -282.542403 
L 126.947769 -281.304228 
L 126.246181 -280.066053 
L 125.52951 -278.827878 
L 124.80757 -277.589703 
L 124.089778 -276.351528 
L 123.38498 -275.113353 
L 122.701302 -273.875178 
L 122.046023 -272.637003 
L 121.425476 -271.398828 
L 120.844975 -270.160653 
L 120.308768 -268.922477 
L 119.820014 -267.684302 
L 119.380793 -266.446127 
L 118.99213 -265.207952 
L 118.654039 -263.969777 
L 118.365594 -262.731602 
L 118.125007 -261.493427 
L 117.929719 -260.255252 
L 117.776501 -259.017077 
L 117.661563 -257.778902 
L 117.580668 -256.540727 
L 117.529242 -255.302552 
L 117.502488 -254.064377 
L 117.495499 -252.826202 
L 117.503359 -251.588027 
L 117.521246 -250.349852 
L 117.544524 -249.111677 
L 117.568824 -247.873502 
L 117.590117 -246.635327 
L 117.604779 -245.397152 
L 117.609636 -244.158977 
L 117.602008 -242.920802 
L 117.579727 -241.682627 
L 117.541158 -240.444452 
L 117.485193 -239.206277 
L 117.41124 -237.968102 
L 117.319206 -236.729927 
L 117.209459 -235.491752 
L 117.082788 -234.253577 
L 116.940355 -233.015402 
L 116.783643 -231.777227 
L 116.614391 -230.539052 
L 116.434542 -229.300877 
L 116.246173 -228.062702 
L 116.051443 -226.824527 
L 115.852529 -225.586352 
L 115.651578 -224.348177 
L 115.450657 -223.110002 
L 115.251708 -221.871827 
L 115.056522 -220.633652 
L 114.866701 -219.395477 
L 114.683646 -218.157302 
L 114.508542 -216.919127 
L 114.342351 -215.680952 
L 114.185811 -214.442777 
L 114.039449 -213.204602 
L 113.903585 -211.966427 
L 113.778353 -210.728252 
L 113.663714 -209.490077 
L 113.559481 -208.251902 
L 113.46534 -207.013727 
z
" id="m3d302f8254" style="stroke:#3f3f3f;stroke-width:1.5;"/>
    </defs>
    <g clip-path="url(#pc0f4f3f365)">
     <use style="fill:#c03d3e;stroke:#3f3f3f;stroke-width:1.5;" x="0" xlink:href="#m3d302f8254" y="364.007178"/>
    </g>
   </g>
   <g id="PolyCollection_2">
    <defs>
     <path d="M 235.803571 -205.286495 
L 227.972679 -205.286495 
L 227.356809 -205.624581 
L 226.670811 -205.962667 
L 225.911555 -206.300753 
L 225.076628 -206.638839 
L 224.164476 -206.976925 
L 223.174554 -207.315011 
L 222.107455 -207.653097 
L 220.965033 -207.991183 
L 219.75049 -208.329269 
L 218.468453 -208.667355 
L 217.125 -209.005441 
L 215.727657 -209.343527 
L 214.285348 -209.681613 
L 212.808299 -210.019699 
L 211.307897 -210.357785 
L 209.796496 -210.695871 
L 208.287183 -211.033957 
L 206.793504 -211.372043 
L 205.329154 -211.710129 
L 203.907638 -212.048215 
L 202.541926 -212.386301 
L 201.244091 -212.724387 
L 200.024961 -213.062473 
L 198.893799 -213.400559 
L 197.857997 -213.738645 
L 196.92284 -214.076731 
L 196.091307 -214.414817 
L 195.363949 -214.752903 
L 194.738842 -215.090989 
L 194.211611 -215.429075 
L 193.775545 -215.767161 
L 193.421785 -216.105247 
L 193.139588 -216.443333 
L 192.916666 -216.781419 
L 192.73957 -217.119505 
L 192.594136 -217.457591 
L 192.465948 -217.795677 
L 192.340823 -218.133763 
L 192.205287 -218.471849 
L 192.047043 -218.809935 
L 191.855393 -219.148021 
L 191.62161 -219.486107 
L 191.339252 -219.824193 
L 191.004396 -220.162279 
L 190.61579 -220.500365 
L 190.174922 -220.838451 
L 189.685989 -221.176537 
L 189.155792 -221.514623 
L 188.593538 -221.852709 
L 188.010576 -222.190795 
L 187.42006 -222.528881 
L 186.83657 -222.866967 
L 186.275688 -223.205053 
L 185.753554 -223.543139 
L 185.286414 -223.881225 
L 184.890173 -224.219311 
L 184.579973 -224.557397 
L 184.369798 -224.895483 
L 184.272125 -225.233569 
L 184.297631 -225.571655 
L 184.454954 -225.909741 
L 184.750514 -226.247827 
L 185.188409 -226.585913 
L 185.770364 -226.923999 
L 186.495748 -227.262085 
L 187.361642 -227.600171 
L 188.362968 -227.938257 
L 189.492652 -228.276343 
L 190.741833 -228.614429 
L 192.100095 -228.952515 
L 193.555724 -229.290601 
L 195.095974 -229.628687 
L 196.707347 -229.966773 
L 198.375856 -230.304859 
L 200.0873 -230.642945 
L 201.827505 -230.981031 
L 203.582568 -231.319117 
L 205.339061 -231.657203 
L 207.084222 -231.995289 
L 208.806116 -232.333375 
L 210.493766 -232.671461 
L 212.137265 -233.009547 
L 213.727848 -233.347633 
L 215.257942 -233.685719 
L 216.721199 -234.023805 
L 218.112487 -234.361891 
L 219.427877 -234.699977 
L 220.664598 -235.038063 
L 221.820978 -235.376149 
L 222.896375 -235.714235 
L 223.891088 -236.052321 
L 224.80627 -236.390407 
L 225.64382 -236.728493 
L 226.406285 -237.066579 
L 227.096754 -237.404665 
L 227.718753 -237.742751 
L 228.276147 -238.080837 
L 228.773042 -238.418923 
L 229.213698 -238.757009 
L 234.562552 -238.757009 
L 234.562552 -238.757009 
L 235.003208 -238.418923 
L 235.500103 -238.080837 
L 236.057497 -237.742751 
L 236.679496 -237.404665 
L 237.369965 -237.066579 
L 238.13243 -236.728493 
L 238.96998 -236.390407 
L 239.885162 -236.052321 
L 240.879875 -235.714235 
L 241.955272 -235.376149 
L 243.111652 -235.038063 
L 244.348373 -234.699977 
L 245.663763 -234.361891 
L 247.055051 -234.023805 
L 248.518308 -233.685719 
L 250.048402 -233.347633 
L 251.638985 -233.009547 
L 253.282484 -232.671461 
L 254.970134 -232.333375 
L 256.692028 -231.995289 
L 258.437189 -231.657203 
L 260.193682 -231.319117 
L 261.948745 -230.981031 
L 263.68895 -230.642945 
L 265.400394 -230.304859 
L 267.068903 -229.966773 
L 268.680276 -229.628687 
L 270.220526 -229.290601 
L 271.676155 -228.952515 
L 273.034417 -228.614429 
L 274.283598 -228.276343 
L 275.413282 -227.938257 
L 276.414608 -227.600171 
L 277.280502 -227.262085 
L 278.005886 -226.923999 
L 278.587841 -226.585913 
L 279.025736 -226.247827 
L 279.321296 -225.909741 
L 279.478619 -225.571655 
L 279.504125 -225.233569 
L 279.406452 -224.895483 
L 279.196277 -224.557397 
L 278.886077 -224.219311 
L 278.489836 -223.881225 
L 278.022696 -223.543139 
L 277.500562 -223.205053 
L 276.93968 -222.866967 
L 276.35619 -222.528881 
L 275.765674 -222.190795 
L 275.182712 -221.852709 
L 274.620458 -221.514623 
L 274.090261 -221.176537 
L 273.601328 -220.838451 
L 273.16046 -220.500365 
L 272.771854 -220.162279 
L 272.436998 -219.824193 
L 272.15464 -219.486107 
L 271.920857 -219.148021 
L 271.729207 -218.809935 
L 271.570963 -218.471849 
L 271.435427 -218.133763 
L 271.310302 -217.795677 
L 271.182114 -217.457591 
L 271.03668 -217.119505 
L 270.859584 -216.781419 
L 270.636662 -216.443333 
L 270.354465 -216.105247 
L 270.000705 -215.767161 
L 269.564639 -215.429075 
L 269.037408 -215.090989 
L 268.412301 -214.752903 
L 267.684943 -214.414817 
L 266.85341 -214.076731 
L 265.918253 -213.738645 
L 264.882451 -213.400559 
L 263.751289 -213.062473 
L 262.532159 -212.724387 
L 261.234324 -212.386301 
L 259.868612 -212.048215 
L 258.447096 -211.710129 
L 256.982746 -211.372043 
L 255.489067 -211.033957 
L 253.979754 -210.695871 
L 252.468353 -210.357785 
L 250.967951 -210.019699 
L 249.490902 -209.681613 
L 248.048593 -209.343527 
L 246.65125 -209.005441 
L 245.307797 -208.667355 
L 244.02576 -208.329269 
L 242.811217 -207.991183 
L 241.668795 -207.653097 
L 240.601696 -207.315011 
L 239.611774 -206.976925 
L 238.699622 -206.638839 
L 237.864695 -206.300753 
L 237.105439 -205.962667 
L 236.419441 -205.624581 
L 235.803571 -205.286495 
z
" id="m8c93a9d0a8" style="stroke:#3f3f3f;stroke-width:1.5;"/>
    </defs>
    <g clip-path="url(#pc0f4f3f365)">
     <use style="fill:#3274a1;stroke:#3f3f3f;stroke-width:1.5;" x="0" xlink:href="#m8c93a9d0a8" y="364.007178"/>
    </g>
   </g>
   <g id="PolyCollection_3">
    <defs>
     <path d="M 351.653174 -87.673053 
L 350.203076 -87.673053 
L 350.09814 -89.485328 
L 349.982298 -91.297604 
L 349.855144 -93.10988 
L 349.716375 -94.922155 
L 349.565813 -96.734431 
L 349.403425 -98.546706 
L 349.22934 -100.358982 
L 349.04386 -102.171257 
L 348.847481 -103.983533 
L 348.640896 -105.795809 
L 348.425003 -107.608084 
L 348.200907 -109.42036 
L 347.969913 -111.232635 
L 347.733517 -113.044911 
L 347.493394 -114.857186 
L 347.251369 -116.669462 
L 347.009396 -118.481738 
L 346.769523 -120.294013 
L 346.53385 -122.106289 
L 346.304493 -123.918564 
L 346.083532 -125.73084 
L 345.872968 -127.543115 
L 345.67467 -129.355391 
L 345.490328 -131.167667 
L 345.321404 -132.979942 
L 345.169091 -134.792218 
L 345.034272 -136.604493 
L 344.917491 -138.416769 
L 344.818919 -140.229044 
L 344.738349 -142.04132 
L 344.67518 -143.853596 
L 344.628423 -145.665871 
L 344.596715 -147.478147 
L 344.578344 -149.290422 
L 344.571278 -151.102698 
L 344.573216 -152.914973 
L 344.581637 -154.727249 
L 344.593859 -156.539525 
L 344.607107 -158.3518 
L 344.618586 -160.164076 
L 344.625549 -161.976351 
L 344.625375 -163.788627 
L 344.615642 -165.600902 
L 344.594194 -167.413178 
L 344.559204 -169.225453 
L 344.509235 -171.037729 
L 344.443284 -172.850005 
L 344.360818 -174.66228 
L 344.261807 -176.474556 
L 344.146728 -178.286831 
L 344.016573 -180.099107 
L 343.87283 -181.911382 
L 343.717464 -183.723658 
L 343.552874 -185.535934 
L 343.381844 -187.348209 
L 343.207484 -189.160485 
L 343.033162 -190.97276 
L 342.862425 -192.785036 
L 342.698924 -194.597311 
L 342.546324 -196.409587 
L 342.408223 -198.221863 
L 342.28807 -200.034138 
L 342.189084 -201.846414 
L 342.114184 -203.658689 
L 342.06592 -205.470965 
L 342.046419 -207.28324 
L 342.057343 -209.095516 
L 342.09985 -210.907792 
L 342.174579 -212.720067 
L 342.281639 -214.532343 
L 342.420615 -216.344618 
L 342.590587 -218.156894 
L 342.790154 -219.969169 
L 343.01748 -221.781445 
L 343.270335 -223.593721 
L 343.546157 -225.405996 
L 343.842109 -227.218272 
L 344.155145 -229.030547 
L 344.482077 -230.842823 
L 344.819641 -232.655098 
L 345.164561 -234.467374 
L 345.513616 -236.27965 
L 345.863686 -238.091925 
L 346.211815 -239.904201 
L 346.555245 -241.716476 
L 346.891458 -243.528752 
L 347.2182 -245.341027 
L 347.533506 -247.153303 
L 347.835707 -248.965578 
L 348.12344 -250.777854 
L 348.39564 -252.59013 
L 348.651535 -254.402405 
L 348.890632 -256.214681 
L 349.112695 -258.026956 
L 349.317725 -259.839232 
L 349.505936 -261.651507 
L 349.677723 -263.463783 
L 349.833641 -265.276059 
L 349.974372 -267.088334 
L 351.881878 -267.088334 
L 351.881878 -267.088334 
L 352.022609 -265.276059 
L 352.178527 -263.463783 
L 352.350314 -261.651507 
L 352.538525 -259.839232 
L 352.743555 -258.026956 
L 352.965618 -256.214681 
L 353.204715 -254.402405 
L 353.46061 -252.59013 
L 353.73281 -250.777854 
L 354.020543 -248.965578 
L 354.322744 -247.153303 
L 354.63805 -245.341027 
L 354.964792 -243.528752 
L 355.301005 -241.716476 
L 355.644435 -239.904201 
L 355.992564 -238.091925 
L 356.342634 -236.27965 
L 356.691689 -234.467374 
L 357.036609 -232.655098 
L 357.374173 -230.842823 
L 357.701105 -229.030547 
L 358.014141 -227.218272 
L 358.310093 -225.405996 
L 358.585915 -223.593721 
L 358.83877 -221.781445 
L 359.066096 -219.969169 
L 359.265663 -218.156894 
L 359.435635 -216.344618 
L 359.574611 -214.532343 
L 359.681671 -212.720067 
L 359.7564 -210.907792 
L 359.798907 -209.095516 
L 359.809831 -207.28324 
L 359.79033 -205.470965 
L 359.742066 -203.658689 
L 359.667166 -201.846414 
L 359.56818 -200.034138 
L 359.448027 -198.221863 
L 359.309926 -196.409587 
L 359.157326 -194.597311 
L 358.993825 -192.785036 
L 358.823088 -190.97276 
L 358.648766 -189.160485 
L 358.474406 -187.348209 
L 358.303376 -185.535934 
L 358.138786 -183.723658 
L 357.98342 -181.911382 
L 357.839677 -180.099107 
L 357.709522 -178.286831 
L 357.594443 -176.474556 
L 357.495432 -174.66228 
L 357.412966 -172.850005 
L 357.347015 -171.037729 
L 357.297046 -169.225453 
L 357.262056 -167.413178 
L 357.240608 -165.600902 
L 357.230875 -163.788627 
L 357.230701 -161.976351 
L 357.237664 -160.164076 
L 357.249143 -158.3518 
L 357.262391 -156.539525 
L 357.274613 -154.727249 
L 357.283034 -152.914973 
L 357.284972 -151.102698 
L 357.277906 -149.290422 
L 357.259535 -147.478147 
L 357.227827 -145.665871 
L 357.18107 -143.853596 
L 357.117901 -142.04132 
L 357.037331 -140.229044 
L 356.938759 -138.416769 
L 356.821978 -136.604493 
L 356.687159 -134.792218 
L 356.534846 -132.979942 
L 356.365922 -131.167667 
L 356.18158 -129.355391 
L 355.983282 -127.543115 
L 355.772718 -125.73084 
L 355.551757 -123.918564 
L 355.3224 -122.106289 
L 355.086727 -120.294013 
L 354.846854 -118.481738 
L 354.604881 -116.669462 
L 354.362856 -114.857186 
L 354.122733 -113.044911 
L 353.886337 -111.232635 
L 353.655343 -109.42036 
L 353.431247 -107.608084 
L 353.215354 -105.795809 
L 353.008769 -103.983533 
L 352.81239 -102.171257 
L 352.62691 -100.358982 
L 352.452825 -98.546706 
L 352.290437 -96.734431 
L 352.139875 -94.922155 
L 352.001106 -93.10988 
L 351.873952 -91.297604 
L 351.75811 -89.485328 
L 351.653174 -87.673053 
z
" id="m26103f496e" style="stroke:#3f3f3f;stroke-width:1.5;"/>
    </defs>
    <g clip-path="url(#pc0f4f3f365)">
     <use style="fill:#9fd495;stroke:#3f3f3f;stroke-width:1.5;" x="0" xlink:href="#m26103f496e" y="364.007178"/>
    </g>
   </g>
   <g id="matplotlib.axis_1">
    <g id="xtick_1">
     <g id="line2d_1">
      <defs>
       <path d="M 0 0 
L 0 3.5 
" id="m8e27428e2b" style="stroke:#000000;stroke-width:0.8;"/>
      </defs>
      <g>
       <use style="stroke:#000000;stroke-width:0.8;" x="112.848125" xlink:href="#m8e27428e2b" y="288.430125"/>
      </g>
     </g>
     <g id="text_1">
      <!-- entropic -->
      <g transform="translate(76.266057 322.530877)rotate(-30)scale(0.1 -0.1)">
       <defs>
        <path d="M 56.203125 29.59375 
L 56.203125 25.203125 
L 14.890625 25.203125 
Q 15.484375 15.921875 20.484375 11.0625 
Q 25.484375 6.203125 34.421875 6.203125 
Q 39.59375 6.203125 44.453125 7.46875 
Q 49.3125 8.734375 54.109375 11.28125 
L 54.109375 2.78125 
Q 49.265625 0.734375 44.1875 -0.34375 
Q 39.109375 -1.421875 33.890625 -1.421875 
Q 20.796875 -1.421875 13.15625 6.1875 
Q 5.515625 13.8125 5.515625 26.8125 
Q 5.515625 40.234375 12.765625 48.109375 
Q 20.015625 56 32.328125 56 
Q 43.359375 56 49.78125 48.890625 
Q 56.203125 41.796875 56.203125 29.59375 
z
M 47.21875 32.234375 
Q 47.125 39.59375 43.09375 43.984375 
Q 39.0625 48.390625 32.421875 48.390625 
Q 24.90625 48.390625 20.390625 44.140625 
Q 15.875 39.890625 15.1875 32.171875 
z
" id="DejaVuSans-101"/>
        <path d="M 54.890625 33.015625 
L 54.890625 0 
L 45.90625 0 
L 45.90625 32.71875 
Q 45.90625 40.484375 42.875 44.328125 
Q 39.84375 48.1875 33.796875 48.1875 
Q 26.515625 48.1875 22.3125 43.546875 
Q 18.109375 38.921875 18.109375 30.90625 
L 18.109375 0 
L 9.078125 0 
L 9.078125 54.6875 
L 18.109375 54.6875 
L 18.109375 46.1875 
Q 21.34375 51.125 25.703125 53.5625 
Q 30.078125 56 35.796875 56 
Q 45.21875 56 50.046875 50.171875 
Q 54.890625 44.34375 54.890625 33.015625 
z
" id="DejaVuSans-110"/>
        <path d="M 18.3125 70.21875 
L 18.3125 54.6875 
L 36.8125 54.6875 
L 36.8125 47.703125 
L 18.3125 47.703125 
L 18.3125 18.015625 
Q 18.3125 11.328125 20.140625 9.421875 
Q 21.96875 7.515625 27.59375 7.515625 
L 36.8125 7.515625 
L 36.8125 0 
L 27.59375 0 
Q 17.1875 0 13.234375 3.875 
Q 9.28125 7.765625 9.28125 18.015625 
L 9.28125 47.703125 
L 2.6875 47.703125 
L 2.6875 54.6875 
L 9.28125 54.6875 
L 9.28125 70.21875 
z
" id="DejaVuSans-116"/>
        <path d="M 41.109375 46.296875 
Q 39.59375 47.171875 37.8125 47.578125 
Q 36.03125 48 33.890625 48 
Q 26.265625 48 22.1875 43.046875 
Q 18.109375 38.09375 18.109375 28.8125 
L 18.109375 0 
L 9.078125 0 
L 9.078125 54.6875 
L 18.109375 54.6875 
L 18.109375 46.1875 
Q 20.953125 51.171875 25.484375 53.578125 
Q 30.03125 56 36.53125 56 
Q 37.453125 56 38.578125 55.875 
Q 39.703125 55.765625 41.0625 55.515625 
z
" id="DejaVuSans-114"/>
        <path d="M 30.609375 48.390625 
Q 23.390625 48.390625 19.1875 42.75 
Q 14.984375 37.109375 14.984375 27.296875 
Q 14.984375 17.484375 19.15625 11.84375 
Q 23.34375 6.203125 30.609375 6.203125 
Q 37.796875 6.203125 41.984375 11.859375 
Q 46.1875 17.53125 46.1875 27.296875 
Q 46.1875 37.015625 41.984375 42.703125 
Q 37.796875 48.390625 30.609375 48.390625 
z
M 30.609375 56 
Q 42.328125 56 49.015625 48.375 
Q 55.71875 40.765625 55.71875 27.296875 
Q 55.71875 13.875 49.015625 6.21875 
Q 42.328125 -1.421875 30.609375 -1.421875 
Q 18.84375 -1.421875 12.171875 6.21875 
Q 5.515625 13.875 5.515625 27.296875 
Q 5.515625 40.765625 12.171875 48.375 
Q 18.84375 56 30.609375 56 
z
" id="DejaVuSans-111"/>
        <path d="M 18.109375 8.203125 
L 18.109375 -20.796875 
L 9.078125 -20.796875 
L 9.078125 54.6875 
L 18.109375 54.6875 
L 18.109375 46.390625 
Q 20.953125 51.265625 25.265625 53.625 
Q 29.59375 56 35.59375 56 
Q 45.5625 56 51.78125 48.09375 
Q 58.015625 40.1875 58.015625 27.296875 
Q 58.015625 14.40625 51.78125 6.484375 
Q 45.5625 -1.421875 35.59375 -1.421875 
Q 29.59375 -1.421875 25.265625 0.953125 
Q 20.953125 3.328125 18.109375 8.203125 
z
M 48.6875 27.296875 
Q 48.6875 37.203125 44.609375 42.84375 
Q 40.53125 48.484375 33.40625 48.484375 
Q 26.265625 48.484375 22.1875 42.84375 
Q 18.109375 37.203125 18.109375 27.296875 
Q 18.109375 17.390625 22.1875 11.75 
Q 26.265625 6.109375 33.40625 6.109375 
Q 40.53125 6.109375 44.609375 11.75 
Q 48.6875 17.390625 48.6875 27.296875 
z
" id="DejaVuSans-112"/>
        <path d="M 9.421875 54.6875 
L 18.40625 54.6875 
L 18.40625 0 
L 9.421875 0 
z
M 9.421875 75.984375 
L 18.40625 75.984375 
L 18.40625 64.59375 
L 9.421875 64.59375 
z
" id="DejaVuSans-105"/>
        <path d="M 48.78125 52.59375 
L 48.78125 44.1875 
Q 44.96875 46.296875 41.140625 47.34375 
Q 37.3125 48.390625 33.40625 48.390625 
Q 24.65625 48.390625 19.8125 42.84375 
Q 14.984375 37.3125 14.984375 27.296875 
Q 14.984375 17.28125 19.8125 11.734375 
Q 24.65625 6.203125 33.40625 6.203125 
Q 37.3125 6.203125 41.140625 7.25 
Q 44.96875 8.296875 48.78125 10.40625 
L 48.78125 2.09375 
Q 45.015625 0.34375 40.984375 -0.53125 
Q 36.96875 -1.421875 32.421875 -1.421875 
Q 20.0625 -1.421875 12.78125 6.34375 
Q 5.515625 14.109375 5.515625 27.296875 
Q 5.515625 40.671875 12.859375 48.328125 
Q 20.21875 56 33.015625 56 
Q 37.15625 56 41.109375 55.140625 
Q 45.0625 54.296875 48.78125 52.59375 
z
" id="DejaVuSans-99"/>
       </defs>
       <use xlink:href="#DejaVuSans-101"/>
       <use x="61.523438" xlink:href="#DejaVuSans-110"/>
       <use x="124.902344" xlink:href="#DejaVuSans-116"/>
       <use x="164.111328" xlink:href="#DejaVuSans-114"/>
       <use x="202.974609" xlink:href="#DejaVuSans-111"/>
       <use x="264.15625" xlink:href="#DejaVuSans-112"/>
       <use x="327.632812" xlink:href="#DejaVuSans-105"/>
       <use x="355.416016" xlink:href="#DejaVuSans-99"/>
      </g>
     </g>
    </g>
    <g id="xtick_2">
     <g id="line2d_2">
      <g>
       <use style="stroke:#000000;stroke-width:0.8;" x="231.888125" xlink:href="#m8e27428e2b" y="288.430125"/>
      </g>
     </g>
     <g id="text_2">
      <!-- aflplusplus -->
      <g transform="translate(184.279118 328.897284)rotate(-30)scale(0.1 -0.1)">
       <defs>
        <path d="M 34.28125 27.484375 
Q 23.390625 27.484375 19.1875 25 
Q 14.984375 22.515625 14.984375 16.5 
Q 14.984375 11.71875 18.140625 8.90625 
Q 21.296875 6.109375 26.703125 6.109375 
Q 34.1875 6.109375 38.703125 11.40625 
Q 43.21875 16.703125 43.21875 25.484375 
L 43.21875 27.484375 
z
M 52.203125 31.203125 
L 52.203125 0 
L 43.21875 0 
L 43.21875 8.296875 
Q 40.140625 3.328125 35.546875 0.953125 
Q 30.953125 -1.421875 24.3125 -1.421875 
Q 15.921875 -1.421875 10.953125 3.296875 
Q 6 8.015625 6 15.921875 
Q 6 25.140625 12.171875 29.828125 
Q 18.359375 34.515625 30.609375 34.515625 
L 43.21875 34.515625 
L 43.21875 35.40625 
Q 43.21875 41.609375 39.140625 45 
Q 35.0625 48.390625 27.6875 48.390625 
Q 23 48.390625 18.546875 47.265625 
Q 14.109375 46.140625 10.015625 43.890625 
L 10.015625 52.203125 
Q 14.9375 54.109375 19.578125 55.046875 
Q 24.21875 56 28.609375 56 
Q 40.484375 56 46.34375 49.84375 
Q 52.203125 43.703125 52.203125 31.203125 
z
" id="DejaVuSans-97"/>
        <path d="M 37.109375 75.984375 
L 37.109375 68.5 
L 28.515625 68.5 
Q 23.6875 68.5 21.796875 66.546875 
Q 19.921875 64.59375 19.921875 59.515625 
L 19.921875 54.6875 
L 34.71875 54.6875 
L 34.71875 47.703125 
L 19.921875 47.703125 
L 19.921875 0 
L 10.890625 0 
L 10.890625 47.703125 
L 2.296875 47.703125 
L 2.296875 54.6875 
L 10.890625 54.6875 
L 10.890625 58.5 
Q 10.890625 67.625 15.140625 71.796875 
Q 19.390625 75.984375 28.609375 75.984375 
z
" id="DejaVuSans-102"/>
        <path d="M 9.421875 75.984375 
L 18.40625 75.984375 
L 18.40625 0 
L 9.421875 0 
z
" id="DejaVuSans-108"/>
        <path d="M 8.5 21.578125 
L 8.5 54.6875 
L 17.484375 54.6875 
L 17.484375 21.921875 
Q 17.484375 14.15625 20.5 10.265625 
Q 23.53125 6.390625 29.59375 6.390625 
Q 36.859375 6.390625 41.078125 11.03125 
Q 45.3125 15.671875 45.3125 23.6875 
L 45.3125 54.6875 
L 54.296875 54.6875 
L 54.296875 0 
L 45.3125 0 
L 45.3125 8.40625 
Q 42.046875 3.421875 37.71875 1 
Q 33.40625 -1.421875 27.6875 -1.421875 
Q 18.265625 -1.421875 13.375 4.4375 
Q 8.5 10.296875 8.5 21.578125 
z
M 31.109375 56 
z
" id="DejaVuSans-117"/>
        <path d="M 44.28125 53.078125 
L 44.28125 44.578125 
Q 40.484375 46.53125 36.375 47.5 
Q 32.28125 48.484375 27.875 48.484375 
Q 21.1875 48.484375 17.84375 46.4375 
Q 14.5 44.390625 14.5 40.28125 
Q 14.5 37.15625 16.890625 35.375 
Q 19.28125 33.59375 26.515625 31.984375 
L 29.59375 31.296875 
Q 39.15625 29.25 43.1875 25.515625 
Q 47.21875 21.78125 47.21875 15.09375 
Q 47.21875 7.46875 41.1875 3.015625 
Q 35.15625 -1.421875 24.609375 -1.421875 
Q 20.21875 -1.421875 15.453125 -0.5625 
Q 10.6875 0.296875 5.421875 2 
L 5.421875 11.28125 
Q 10.40625 8.6875 15.234375 7.390625 
Q 20.0625 6.109375 24.8125 6.109375 
Q 31.15625 6.109375 34.5625 8.28125 
Q 37.984375 10.453125 37.984375 14.40625 
Q 37.984375 18.0625 35.515625 20.015625 
Q 33.0625 21.96875 24.703125 23.78125 
L 21.578125 24.515625 
Q 13.234375 26.265625 9.515625 29.90625 
Q 5.8125 33.546875 5.8125 39.890625 
Q 5.8125 47.609375 11.28125 51.796875 
Q 16.75 56 26.8125 56 
Q 31.78125 56 36.171875 55.265625 
Q 40.578125 54.546875 44.28125 53.078125 
z
" id="DejaVuSans-115"/>
       </defs>
       <use xlink:href="#DejaVuSans-97"/>
       <use x="61.279297" xlink:href="#DejaVuSans-102"/>
       <use x="96.484375" xlink:href="#DejaVuSans-108"/>
       <use x="124.267578" xlink:href="#DejaVuSans-112"/>
       <use x="187.744141" xlink:href="#DejaVuSans-108"/>
       <use x="215.527344" xlink:href="#DejaVuSans-117"/>
       <use x="278.90625" xlink:href="#DejaVuSans-115"/>
       <use x="331.005859" xlink:href="#DejaVuSans-112"/>
       <use x="394.482422" xlink:href="#DejaVuSans-108"/>
       <use x="422.265625" xlink:href="#DejaVuSans-117"/>
       <use x="485.644531" xlink:href="#DejaVuSans-115"/>
      </g>
     </g>
    </g>
    <g id="xtick_3">
     <g id="line2d_3">
      <g>
       <use style="stroke:#000000;stroke-width:0.8;" x="350.928125" xlink:href="#m8e27428e2b" y="288.430125"/>
      </g>
     </g>
     <g id="text_3">
      <!-- aflplusplus_hier -->
      <g transform="translate(282.066627 341.087127)rotate(-30)scale(0.1 -0.1)">
       <defs>
        <path d="M 50.984375 -16.609375 
L 50.984375 -23.578125 
L -0.984375 -23.578125 
L -0.984375 -16.609375 
z
" id="DejaVuSans-95"/>
        <path d="M 54.890625 33.015625 
L 54.890625 0 
L 45.90625 0 
L 45.90625 32.71875 
Q 45.90625 40.484375 42.875 44.328125 
Q 39.84375 48.1875 33.796875 48.1875 
Q 26.515625 48.1875 22.3125 43.546875 
Q 18.109375 38.921875 18.109375 30.90625 
L 18.109375 0 
L 9.078125 0 
L 9.078125 75.984375 
L 18.109375 75.984375 
L 18.109375 46.1875 
Q 21.34375 51.125 25.703125 53.5625 
Q 30.078125 56 35.796875 56 
Q 45.21875 56 50.046875 50.171875 
Q 54.890625 44.34375 54.890625 33.015625 
z
" id="DejaVuSans-104"/>
       </defs>
       <use xlink:href="#DejaVuSans-97"/>
       <use x="61.279297" xlink:href="#DejaVuSans-102"/>
       <use x="96.484375" xlink:href="#DejaVuSans-108"/>
       <use x="124.267578" xlink:href="#DejaVuSans-112"/>
       <use x="187.744141" xlink:href="#DejaVuSans-108"/>
       <use x="215.527344" xlink:href="#DejaVuSans-117"/>
       <use x="278.90625" xlink:href="#DejaVuSans-115"/>
       <use x="331.005859" xlink:href="#DejaVuSans-112"/>
       <use x="394.482422" xlink:href="#DejaVuSans-108"/>
       <use x="422.265625" xlink:href="#DejaVuSans-117"/>
       <use x="485.644531" xlink:href="#DejaVuSans-115"/>
       <use x="537.744141" xlink:href="#DejaVuSans-95"/>
       <use x="587.744141" xlink:href="#DejaVuSans-104"/>
       <use x="651.123047" xlink:href="#DejaVuSans-105"/>
       <use x="678.90625" xlink:href="#DejaVuSans-101"/>
       <use x="740.429688" xlink:href="#DejaVuSans-114"/>
      </g>
     </g>
    </g>
    <g id="text_4">
     <!-- Fuzzer (highest median coverage on the left) -->
     <g transform="translate(119.270156 354.72749)scale(0.1 -0.1)">
      <defs>
       <path d="M 9.8125 72.90625 
L 51.703125 72.90625 
L 51.703125 64.59375 
L 19.671875 64.59375 
L 19.671875 43.109375 
L 48.578125 43.109375 
L 48.578125 34.8125 
L 19.671875 34.8125 
L 19.671875 0 
L 9.8125 0 
z
" id="DejaVuSans-70"/>
       <path d="M 5.515625 54.6875 
L 48.1875 54.6875 
L 48.1875 46.484375 
L 14.40625 7.171875 
L 48.1875 7.171875 
L 48.1875 0 
L 4.296875 0 
L 4.296875 8.203125 
L 38.09375 47.515625 
L 5.515625 47.515625 
z
" id="DejaVuSans-122"/>
       <path id="DejaVuSans-32"/>
       <path d="M 31 75.875 
Q 24.46875 64.65625 21.28125 53.65625 
Q 18.109375 42.671875 18.109375 31.390625 
Q 18.109375 20.125 21.3125 9.0625 
Q 24.515625 -2 31 -13.1875 
L 23.1875 -13.1875 
Q 15.875 -1.703125 12.234375 9.375 
Q 8.59375 20.453125 8.59375 31.390625 
Q 8.59375 42.28125 12.203125 53.3125 
Q 15.828125 64.359375 23.1875 75.875 
z
" id="DejaVuSans-40"/>
       <path d="M 45.40625 27.984375 
Q 45.40625 37.75 41.375 43.109375 
Q 37.359375 48.484375 30.078125 48.484375 
Q 22.859375 48.484375 18.828125 43.109375 
Q 14.796875 37.75 14.796875 27.984375 
Q 14.796875 18.265625 18.828125 12.890625 
Q 22.859375 7.515625 30.078125 7.515625 
Q 37.359375 7.515625 41.375 12.890625 
Q 45.40625 18.265625 45.40625 27.984375 
z
M 54.390625 6.78125 
Q 54.390625 -7.171875 48.1875 -13.984375 
Q 42 -20.796875 29.203125 -20.796875 
Q 24.46875 -20.796875 20.265625 -20.09375 
Q 16.0625 -19.390625 12.109375 -17.921875 
L 12.109375 -9.1875 
Q 16.0625 -11.328125 19.921875 -12.34375 
Q 23.78125 -13.375 27.78125 -13.375 
Q 36.625 -13.375 41.015625 -8.765625 
Q 45.40625 -4.15625 45.40625 5.171875 
L 45.40625 9.625 
Q 42.625 4.78125 38.28125 2.390625 
Q 33.9375 0 27.875 0 
Q 17.828125 0 11.671875 7.65625 
Q 5.515625 15.328125 5.515625 27.984375 
Q 5.515625 40.671875 11.671875 48.328125 
Q 17.828125 56 27.875 56 
Q 33.9375 56 38.28125 53.609375 
Q 42.625 51.21875 45.40625 46.390625 
L 45.40625 54.6875 
L 54.390625 54.6875 
z
" id="DejaVuSans-103"/>
       <path d="M 52 44.1875 
Q 55.375 50.25 60.0625 53.125 
Q 64.75 56 71.09375 56 
Q 79.640625 56 84.28125 50.015625 
Q 88.921875 44.046875 88.921875 33.015625 
L 88.921875 0 
L 79.890625 0 
L 79.890625 32.71875 
Q 79.890625 40.578125 77.09375 44.375 
Q 74.3125 48.1875 68.609375 48.1875 
Q 61.625 48.1875 57.5625 43.546875 
Q 53.515625 38.921875 53.515625 30.90625 
L 53.515625 0 
L 44.484375 0 
L 44.484375 32.71875 
Q 44.484375 40.625 41.703125 44.40625 
Q 38.921875 48.1875 33.109375 48.1875 
Q 26.21875 48.1875 22.15625 43.53125 
Q 18.109375 38.875 18.109375 30.90625 
L 18.109375 0 
L 9.078125 0 
L 9.078125 54.6875 
L 18.109375 54.6875 
L 18.109375 46.1875 
Q 21.1875 51.21875 25.484375 53.609375 
Q 29.78125 56 35.6875 56 
Q 41.65625 56 45.828125 52.96875 
Q 50 49.953125 52 44.1875 
z
" id="DejaVuSans-109"/>
       <path d="M 45.40625 46.390625 
L 45.40625 75.984375 
L 54.390625 75.984375 
L 54.390625 0 
L 45.40625 0 
L 45.40625 8.203125 
Q 42.578125 3.328125 38.25 0.953125 
Q 33.9375 -1.421875 27.875 -1.421875 
Q 17.96875 -1.421875 11.734375 6.484375 
Q 5.515625 14.40625 5.515625 27.296875 
Q 5.515625 40.1875 11.734375 48.09375 
Q 17.96875 56 27.875 56 
Q 33.9375 56 38.25 53.625 
Q 42.578125 51.265625 45.40625 46.390625 
z
M 14.796875 27.296875 
Q 14.796875 17.390625 18.875 11.75 
Q 22.953125 6.109375 30.078125 6.109375 
Q 37.203125 6.109375 41.296875 11.75 
Q 45.40625 17.390625 45.40625 27.296875 
Q 45.40625 37.203125 41.296875 42.84375 
Q 37.203125 48.484375 30.078125 48.484375 
Q 22.953125 48.484375 18.875 42.84375 
Q 14.796875 37.203125 14.796875 27.296875 
z
" id="DejaVuSans-100"/>
       <path d="M 2.984375 54.6875 
L 12.5 54.6875 
L 29.59375 8.796875 
L 46.6875 54.6875 
L 56.203125 54.6875 
L 35.6875 0 
L 23.484375 0 
z
" id="DejaVuSans-118"/>
       <path d="M 8.015625 75.875 
L 15.828125 75.875 
Q 23.140625 64.359375 26.78125 53.3125 
Q 30.421875 42.28125 30.421875 31.390625 
Q 30.421875 20.453125 26.78125 9.375 
Q 23.140625 -1.703125 15.828125 -13.1875 
L 8.015625 -13.1875 
Q 14.5 -2 17.703125 9.0625 
Q 20.90625 20.125 20.90625 31.390625 
Q 20.90625 42.671875 17.703125 53.65625 
Q 14.5 64.65625 8.015625 75.875 
z
" id="DejaVuSans-41"/>
      </defs>
      <use xlink:href="#DejaVuSans-70"/>
      <use x="52.019531" xlink:href="#DejaVuSans-117"/>
      <use x="115.398438" xlink:href="#DejaVuSans-122"/>
      <use x="167.888672" xlink:href="#DejaVuSans-122"/>
      <use x="220.378906" xlink:href="#DejaVuSans-101"/>
      <use x="281.902344" xlink:href="#DejaVuSans-114"/>
      <use x="323.015625" xlink:href="#DejaVuSans-32"/>
      <use x="354.802734" xlink:href="#DejaVuSans-40"/>
      <use x="393.816406" xlink:href="#DejaVuSans-104"/>
      <use x="457.195312" xlink:href="#DejaVuSans-105"/>
      <use x="484.978516" xlink:href="#DejaVuSans-103"/>
      <use x="548.455078" xlink:href="#DejaVuSans-104"/>
      <use x="611.833984" xlink:href="#DejaVuSans-101"/>
      <use x="673.357422" xlink:href="#DejaVuSans-115"/>
      <use x="725.457031" xlink:href="#DejaVuSans-116"/>
      <use x="764.666016" xlink:href="#DejaVuSans-32"/>
      <use x="796.453125" xlink:href="#DejaVuSans-109"/>
      <use x="893.865234" xlink:href="#DejaVuSans-101"/>
      <use x="955.388672" xlink:href="#DejaVuSans-100"/>
      <use x="1018.865234" xlink:href="#DejaVuSans-105"/>
      <use x="1046.648438" xlink:href="#DejaVuSans-97"/>
      <use x="1107.927734" xlink:href="#DejaVuSans-110"/>
      <use x="1171.306641" xlink:href="#DejaVuSans-32"/>
      <use x="1203.09375" xlink:href="#DejaVuSans-99"/>
      <use x="1258.074219" xlink:href="#DejaVuSans-111"/>
      <use x="1319.255859" xlink:href="#DejaVuSans-118"/>
      <use x="1378.435547" xlink:href="#DejaVuSans-101"/>
      <use x="1439.958984" xlink:href="#DejaVuSans-114"/>
      <use x="1481.072266" xlink:href="#DejaVuSans-97"/>
      <use x="1542.351562" xlink:href="#DejaVuSans-103"/>
      <use x="1605.828125" xlink:href="#DejaVuSans-101"/>
      <use x="1667.351562" xlink:href="#DejaVuSans-32"/>
      <use x="1699.138672" xlink:href="#DejaVuSans-111"/>
      <use x="1760.320312" xlink:href="#DejaVuSans-110"/>
      <use x="1823.699219" xlink:href="#DejaVuSans-32"/>
      <use x="1855.486328" xlink:href="#DejaVuSans-116"/>
      <use x="1894.695312" xlink:href="#DejaVuSans-104"/>
      <use x="1958.074219" xlink:href="#DejaVuSans-101"/>
      <use x="2019.597656" xlink:href="#DejaVuSans-32"/>
      <use x="2051.384766" xlink:href="#DejaVuSans-108"/>
      <use x="2079.167969" xlink:href="#DejaVuSans-101"/>
      <use x="2140.691406" xlink:href="#DejaVuSans-102"/>
      <use x="2174.146484" xlink:href="#DejaVuSans-116"/>
      <use x="2213.355469" xlink:href="#DejaVuSans-41"/>
     </g>
    </g>
   </g>
   <g id="matplotlib.axis_2">
    <g id="ytick_1">
     <g id="line2d_4">
      <defs>
       <path d="M 0 0 
L -3.5 0 
" id="m4ecb0b1ec4" style="stroke:#000000;stroke-width:0.8;"/>
      </defs>
      <g>
       <use style="stroke:#000000;stroke-width:0.8;" x="53.328125" xlink:href="#m4ecb0b1ec4" y="268.310122"/>
      </g>
     </g>
     <g id="text_5">
      <!-- 2600 -->
      <g transform="translate(20.878125 272.109341)scale(0.1 -0.1)">
       <defs>
        <path d="M 19.1875 8.296875 
L 53.609375 8.296875 
L 53.609375 0 
L 7.328125 0 
L 7.328125 8.296875 
Q 12.9375 14.109375 22.625 23.890625 
Q 32.328125 33.6875 34.8125 36.53125 
Q 39.546875 41.84375 41.421875 45.53125 
Q 43.3125 49.21875 43.3125 52.78125 
Q 43.3125 58.59375 39.234375 62.25 
Q 35.15625 65.921875 28.609375 65.921875 
Q 23.96875 65.921875 18.8125 64.3125 
Q 13.671875 62.703125 7.8125 59.421875 
L 7.8125 69.390625 
Q 13.765625 71.78125 18.9375 73 
Q 24.125 74.21875 28.421875 74.21875 
Q 39.75 74.21875 46.484375 68.546875 
Q 53.21875 62.890625 53.21875 53.421875 
Q 53.21875 48.921875 51.53125 44.890625 
Q 49.859375 40.875 45.40625 35.40625 
Q 44.1875 33.984375 37.640625 27.21875 
Q 31.109375 20.453125 19.1875 8.296875 
z
" id="DejaVuSans-50"/>
        <path d="M 33.015625 40.375 
Q 26.375 40.375 22.484375 35.828125 
Q 18.609375 31.296875 18.609375 23.390625 
Q 18.609375 15.53125 22.484375 10.953125 
Q 26.375 6.390625 33.015625 6.390625 
Q 39.65625 6.390625 43.53125 10.953125 
Q 47.40625 15.53125 47.40625 23.390625 
Q 47.40625 31.296875 43.53125 35.828125 
Q 39.65625 40.375 33.015625 40.375 
z
M 52.59375 71.296875 
L 52.59375 62.3125 
Q 48.875 64.0625 45.09375 64.984375 
Q 41.3125 65.921875 37.59375 65.921875 
Q 27.828125 65.921875 22.671875 59.328125 
Q 17.53125 52.734375 16.796875 39.40625 
Q 19.671875 43.65625 24.015625 45.921875 
Q 28.375 48.1875 33.59375 48.1875 
Q 44.578125 48.1875 50.953125 41.515625 
Q 57.328125 34.859375 57.328125 23.390625 
Q 57.328125 12.15625 50.6875 5.359375 
Q 44.046875 -1.421875 33.015625 -1.421875 
Q 20.359375 -1.421875 13.671875 8.265625 
Q 6.984375 17.96875 6.984375 36.375 
Q 6.984375 53.65625 15.1875 63.9375 
Q 23.390625 74.21875 37.203125 74.21875 
Q 40.921875 74.21875 44.703125 73.484375 
Q 48.484375 72.75 52.59375 71.296875 
z
" id="DejaVuSans-54"/>
        <path d="M 31.78125 66.40625 
Q 24.171875 66.40625 20.328125 58.90625 
Q 16.5 51.421875 16.5 36.375 
Q 16.5 21.390625 20.328125 13.890625 
Q 24.171875 6.390625 31.78125 6.390625 
Q 39.453125 6.390625 43.28125 13.890625 
Q 47.125 21.390625 47.125 36.375 
Q 47.125 51.421875 43.28125 58.90625 
Q 39.453125 66.40625 31.78125 66.40625 
z
M 31.78125 74.21875 
Q 44.046875 74.21875 50.515625 64.515625 
Q 56.984375 54.828125 56.984375 36.375 
Q 56.984375 17.96875 50.515625 8.265625 
Q 44.046875 -1.421875 31.78125 -1.421875 
Q 19.53125 -1.421875 13.0625 8.265625 
Q 6.59375 17.96875 6.59375 36.375 
Q 6.59375 54.828125 13.0625 64.515625 
Q 19.53125 74.21875 31.78125 74.21875 
z
" id="DejaVuSans-48"/>
       </defs>
       <use xlink:href="#DejaVuSans-50"/>
       <use x="63.623047" xlink:href="#DejaVuSans-54"/>
       <use x="127.246094" xlink:href="#DejaVuSans-48"/>
       <use x="190.869141" xlink:href="#DejaVuSans-48"/>
      </g>
     </g>
    </g>
    <g id="ytick_2">
     <g id="line2d_5">
      <g>
       <use style="stroke:#000000;stroke-width:0.8;" x="53.328125" xlink:href="#m4ecb0b1ec4" y="233.771586"/>
      </g>
     </g>
     <g id="text_6">
      <!-- 2800 -->
      <g transform="translate(20.878125 237.570805)scale(0.1 -0.1)">
       <defs>
        <path d="M 31.78125 34.625 
Q 24.75 34.625 20.71875 30.859375 
Q 16.703125 27.09375 16.703125 20.515625 
Q 16.703125 13.921875 20.71875 10.15625 
Q 24.75 6.390625 31.78125 6.390625 
Q 38.8125 6.390625 42.859375 10.171875 
Q 46.921875 13.96875 46.921875 20.515625 
Q 46.921875 27.09375 42.890625 30.859375 
Q 38.875 34.625 31.78125 34.625 
z
M 21.921875 38.8125 
Q 15.578125 40.375 12.03125 44.71875 
Q 8.5 49.078125 8.5 55.328125 
Q 8.5 64.0625 14.71875 69.140625 
Q 20.953125 74.21875 31.78125 74.21875 
Q 42.671875 74.21875 48.875 69.140625 
Q 55.078125 64.0625 55.078125 55.328125 
Q 55.078125 49.078125 51.53125 44.71875 
Q 48 40.375 41.703125 38.8125 
Q 48.828125 37.15625 52.796875 32.3125 
Q 56.78125 27.484375 56.78125 20.515625 
Q 56.78125 9.90625 50.3125 4.234375 
Q 43.84375 -1.421875 31.78125 -1.421875 
Q 19.734375 -1.421875 13.25 4.234375 
Q 6.78125 9.90625 6.78125 20.515625 
Q 6.78125 27.484375 10.78125 32.3125 
Q 14.796875 37.15625 21.921875 38.8125 
z
M 18.3125 54.390625 
Q 18.3125 48.734375 21.84375 45.5625 
Q 25.390625 42.390625 31.78125 42.390625 
Q 38.140625 42.390625 41.71875 45.5625 
Q 45.3125 48.734375 45.3125 54.390625 
Q 45.3125 60.0625 41.71875 63.234375 
Q 38.140625 66.40625 31.78125 66.40625 
Q 25.390625 66.40625 21.84375 63.234375 
Q 18.3125 60.0625 18.3125 54.390625 
z
" id="DejaVuSans-56"/>
       </defs>
       <use xlink:href="#DejaVuSans-50"/>
       <use x="63.623047" xlink:href="#DejaVuSans-56"/>
       <use x="127.246094" xlink:href="#DejaVuSans-48"/>
       <use x="190.869141" xlink:href="#DejaVuSans-48"/>
      </g>
     </g>
    </g>
    <g id="ytick_3">
     <g id="line2d_6">
      <g>
       <use style="stroke:#000000;stroke-width:0.8;" x="53.328125" xlink:href="#m4ecb0b1ec4" y="199.23305"/>
      </g>
     </g>
     <g id="text_7">
      <!-- 3000 -->
      <g transform="translate(20.878125 203.032269)scale(0.1 -0.1)">
       <defs>
        <path d="M 40.578125 39.3125 
Q 47.65625 37.796875 51.625 33 
Q 55.609375 28.21875 55.609375 21.1875 
Q 55.609375 10.40625 48.1875 4.484375 
Q 40.765625 -1.421875 27.09375 -1.421875 
Q 22.515625 -1.421875 17.65625 -0.515625 
Q 12.796875 0.390625 7.625 2.203125 
L 7.625 11.71875 
Q 11.71875 9.328125 16.59375 8.109375 
Q 21.484375 6.890625 26.8125 6.890625 
Q 36.078125 6.890625 40.9375 10.546875 
Q 45.796875 14.203125 45.796875 21.1875 
Q 45.796875 27.640625 41.28125 31.265625 
Q 36.765625 34.90625 28.71875 34.90625 
L 20.21875 34.90625 
L 20.21875 43.015625 
L 29.109375 43.015625 
Q 36.375 43.015625 40.234375 45.921875 
Q 44.09375 48.828125 44.09375 54.296875 
Q 44.09375 59.90625 40.109375 62.90625 
Q 36.140625 65.921875 28.71875 65.921875 
Q 24.65625 65.921875 20.015625 65.03125 
Q 15.375 64.15625 9.8125 62.3125 
L 9.8125 71.09375 
Q 15.4375 72.65625 20.34375 73.4375 
Q 25.25 74.21875 29.59375 74.21875 
Q 40.828125 74.21875 47.359375 69.109375 
Q 53.90625 64.015625 53.90625 55.328125 
Q 53.90625 49.265625 50.4375 45.09375 
Q 46.96875 40.921875 40.578125 39.3125 
z
" id="DejaVuSans-51"/>
       </defs>
       <use xlink:href="#DejaVuSans-51"/>
       <use x="63.623047" xlink:href="#DejaVuSans-48"/>
       <use x="127.246094" xlink:href="#DejaVuSans-48"/>
       <use x="190.869141" xlink:href="#DejaVuSans-48"/>
      </g>
     </g>
    </g>
    <g id="ytick_4">
     <g id="line2d_7">
      <g>
       <use style="stroke:#000000;stroke-width:0.8;" x="53.328125" xlink:href="#m4ecb0b1ec4" y="164.694514"/>
      </g>
     </g>
     <g id="text_8">
      <!-- 3200 -->
      <g transform="translate(20.878125 168.493733)scale(0.1 -0.1)">
       <use xlink:href="#DejaVuSans-51"/>
       <use x="63.623047" xlink:href="#DejaVuSans-50"/>
       <use x="127.246094" xlink:href="#DejaVuSans-48"/>
       <use x="190.869141" xlink:href="#DejaVuSans-48"/>
      </g>
     </g>
    </g>
    <g id="ytick_5">
     <g id="line2d_8">
      <g>
       <use style="stroke:#000000;stroke-width:0.8;" x="53.328125" xlink:href="#m4ecb0b1ec4" y="130.155978"/>
      </g>
     </g>
     <g id="text_9">
      <!-- 3400 -->
      <g transform="translate(20.878125 133.955197)scale(0.1 -0.1)">
       <defs>
        <path d="M 37.796875 64.3125 
L 12.890625 25.390625 
L 37.796875 25.390625 
z
M 35.203125 72.90625 
L 47.609375 72.90625 
L 47.609375 25.390625 
L 58.015625 25.390625 
L 58.015625 17.1875 
L 47.609375 17.1875 
L 47.609375 0 
L 37.796875 0 
L 37.796875 17.1875 
L 4.890625 17.1875 
L 4.890625 26.703125 
z
" id="DejaVuSans-52"/>
       </defs>
       <use xlink:href="#DejaVuSans-51"/>
       <use x="63.623047" xlink:href="#DejaVuSans-52"/>
       <use x="127.246094" xlink:href="#DejaVuSans-48"/>
       <use x="190.869141" xlink:href="#DejaVuSans-48"/>
      </g>
     </g>
    </g>
    <g id="ytick_6">
     <g id="line2d_9">
      <g>
       <use style="stroke:#000000;stroke-width:0.8;" x="53.328125" xlink:href="#m4ecb0b1ec4" y="95.617442"/>
      </g>
     </g>
     <g id="text_10">
      <!-- 3600 -->
      <g transform="translate(20.878125 99.41666)scale(0.1 -0.1)">
       <use xlink:href="#DejaVuSans-51"/>
       <use x="63.623047" xlink:href="#DejaVuSans-54"/>
       <use x="127.246094" xlink:href="#DejaVuSans-48"/>
       <use x="190.869141" xlink:href="#DejaVuSans-48"/>
      </g>
     </g>
    </g>
    <g id="ytick_7">
     <g id="line2d_10">
      <g>
       <use style="stroke:#000000;stroke-width:0.8;" x="53.328125" xlink:href="#m4ecb0b1ec4" y="61.078905"/>
      </g>
     </g>
     <g id="text_11">
      <!-- 3800 -->
      <g transform="translate(20.878125 64.878124)scale(0.1 -0.1)">
       <use xlink:href="#DejaVuSans-51"/>
       <use x="63.623047" xlink:href="#DejaVuSans-56"/>
       <use x="127.246094" xlink:href="#DejaVuSans-48"/>
       <use x="190.869141" xlink:href="#DejaVuSans-48"/>
      </g>
     </g>
    </g>
    <g id="ytick_8">
     <g id="line2d_11">
      <g>
       <use style="stroke:#000000;stroke-width:0.8;" x="53.328125" xlink:href="#m4ecb0b1ec4" y="26.540369"/>
      </g>
     </g>
     <g id="text_12">
      <!-- 4000 -->
      <g transform="translate(20.878125 30.339588)scale(0.1 -0.1)">
       <use xlink:href="#DejaVuSans-52"/>
       <use x="63.623047" xlink:href="#DejaVuSans-48"/>
       <use x="127.246094" xlink:href="#DejaVuSans-48"/>
       <use x="190.869141" xlink:href="#DejaVuSans-48"/>
      </g>
     </g>
    </g>
    <g id="text_13">
     <!-- Reached region coverage -->
     <g transform="translate(14.798438 219.136625)rotate(-90)scale(0.1 -0.1)">
      <defs>
       <path d="M 44.390625 34.1875 
Q 47.5625 33.109375 50.5625 29.59375 
Q 53.5625 26.078125 56.59375 19.921875 
L 66.609375 0 
L 56 0 
L 46.6875 18.703125 
Q 43.0625 26.03125 39.671875 28.421875 
Q 36.28125 30.8125 30.421875 30.8125 
L 19.671875 30.8125 
L 19.671875 0 
L 9.8125 0 
L 9.8125 72.90625 
L 32.078125 72.90625 
Q 44.578125 72.90625 50.734375 67.671875 
Q 56.890625 62.453125 56.890625 51.90625 
Q 56.890625 45.015625 53.6875 40.46875 
Q 50.484375 35.9375 44.390625 34.1875 
z
M 19.671875 64.796875 
L 19.671875 38.921875 
L 32.078125 38.921875 
Q 39.203125 38.921875 42.84375 42.21875 
Q 46.484375 45.515625 46.484375 51.90625 
Q 46.484375 58.296875 42.84375 61.546875 
Q 39.203125 64.796875 32.078125 64.796875 
z
" id="DejaVuSans-82"/>
      </defs>
      <use xlink:href="#DejaVuSans-82"/>
      <use x="64.982422" xlink:href="#DejaVuSans-101"/>
      <use x="126.505859" xlink:href="#DejaVuSans-97"/>
      <use x="187.785156" xlink:href="#DejaVuSans-99"/>
      <use x="242.765625" xlink:href="#DejaVuSans-104"/>
      <use x="306.144531" xlink:href="#DejaVuSans-101"/>
      <use x="367.667969" xlink:href="#DejaVuSans-100"/>
      <use x="431.144531" xlink:href="#DejaVuSans-32"/>
      <use x="462.931641" xlink:href="#DejaVuSans-114"/>
      <use x="501.794922" xlink:href="#DejaVuSans-101"/>
      <use x="563.318359" xlink:href="#DejaVuSans-103"/>
      <use x="626.794922" xlink:href="#DejaVuSans-105"/>
      <use x="654.578125" xlink:href="#DejaVuSans-111"/>
      <use x="715.759766" xlink:href="#DejaVuSans-110"/>
      <use x="779.138672" xlink:href="#DejaVuSans-32"/>
      <use x="810.925781" xlink:href="#DejaVuSans-99"/>
      <use x="865.90625" xlink:href="#DejaVuSans-111"/>
      <use x="927.087891" xlink:href="#DejaVuSans-118"/>
      <use x="986.267578" xlink:href="#DejaVuSans-101"/>
      <use x="1047.791016" xlink:href="#DejaVuSans-114"/>
      <use x="1088.904297" xlink:href="#DejaVuSans-97"/>
      <use x="1150.183594" xlink:href="#DejaVuSans-103"/>
      <use x="1213.660156" xlink:href="#DejaVuSans-101"/>
     </g>
    </g>
   </g>
   <g id="line2d_12">
    <path clip-path="url(#pc0f4f3f365)" d="M 112.848125 71.613159 
L 112.848125 68.677383 
" style="fill:none;stroke:#3f3f3f;stroke-linecap:square;stroke-width:1.5;"/>
   </g>
   <g id="line2d_13">
    <path clip-path="url(#pc0f4f3f365)" d="M 112.848125 71.613159 
L 112.848125 69.713539 
" style="fill:none;stroke:#3f3f3f;stroke-linecap:square;stroke-width:4.5;"/>
   </g>
   <g id="line2d_14">
    <path clip-path="url(#pc0f4f3f365)" d="M 231.888125 149.324865 
L 231.888125 134.645987 
" style="fill:none;stroke:#3f3f3f;stroke-linecap:square;stroke-width:1.5;"/>
   </g>
   <g id="line2d_15">
    <path clip-path="url(#pc0f4f3f365)" d="M 231.888125 148.634095 
L 231.888125 138.963304 
" style="fill:none;stroke:#3f3f3f;stroke-linecap:square;stroke-width:4.5;"/>
   </g>
   <g id="line2d_16">
    <path clip-path="url(#pc0f4f3f365)" d="M 350.928125 222.546562 
L 350.928125 150.706407 
" style="fill:none;stroke:#3f3f3f;stroke-linecap:square;stroke-width:1.5;"/>
   </g>
   <g id="line2d_17">
    <path clip-path="url(#pc0f4f3f365)" d="M 350.928125 220.301557 
L 350.928125 151.224485 
" style="fill:none;stroke:#3f3f3f;stroke-linecap:square;stroke-width:4.5;"/>
   </g>
   <g id="patch_3">
    <path d="M 53.328125 268.310122 
L 53.328125 26.540369 
" style="fill:none;stroke:#000000;stroke-linecap:square;stroke-linejoin:miter;stroke-width:0.8;"/>
   </g>
   <g id="patch_4">
    <path d="M 112.848125 288.430125 
L 350.928125 288.430125 
" style="fill:none;stroke:#000000;stroke-linecap:square;stroke-linejoin:miter;stroke-width:0.8;"/>
   </g>
   <g id="PathCollection_1">
    <defs>
     <path d="M 0 1.5 
C 0.397805 1.5 0.77937 1.341951 1.06066 1.06066 
C 1.341951 0.77937 1.5 0.397805 1.5 0 
C 1.5 -0.397805 1.341951 -0.77937 1.06066 -1.06066 
C 0.77937 -1.341951 0.397805 -1.5 0 -1.5 
C -0.397805 -1.5 -0.77937 -1.341951 -1.06066 -1.06066 
C -1.341951 -0.77937 -1.5 -0.397805 -1.5 0 
C -1.5 0.397805 -1.341951 0.77937 -1.06066 1.06066 
C -0.77937 1.341951 -0.397805 1.5 0 1.5 
z
" id="m9da958100f" style="stroke:#3f3f3f;"/>
    </defs>
    <g clip-path="url(#pc0f4f3f365)">
     <use style="fill:#ffffff;stroke:#3f3f3f;" x="112.848125" xlink:href="#m9da958100f" y="69.713539"/>
    </g>
   </g>
   <g id="PathCollection_2">
    <g clip-path="url(#pc0f4f3f365)">
     <use style="fill:#ffffff;stroke:#3f3f3f;" x="231.888125" xlink:href="#m9da958100f" y="139.30869"/>
    </g>
   </g>
   <g id="PathCollection_3">
    <g clip-path="url(#pc0f4f3f365)">
     <use style="fill:#ffffff;stroke:#3f3f3f;" x="350.928125" xlink:href="#m9da958100f" y="160.204504"/>
    </g>
   </g>
   <g id="text_14">
    <!-- libjpeg-turbo-07-2017 (1h:45m, 5 trials/fuzzer) -->
    <g transform="translate(91.560313 16.318125)scale(0.12 -0.12)">
     <defs>
      <path d="M 48.6875 27.296875 
Q 48.6875 37.203125 44.609375 42.84375 
Q 40.53125 48.484375 33.40625 48.484375 
Q 26.265625 48.484375 22.1875 42.84375 
Q 18.109375 37.203125 18.109375 27.296875 
Q 18.109375 17.390625 22.1875 11.75 
Q 26.265625 6.109375 33.40625 6.109375 
Q 40.53125 6.109375 44.609375 11.75 
Q 48.6875 17.390625 48.6875 27.296875 
z
M 18.109375 46.390625 
Q 20.953125 51.265625 25.265625 53.625 
Q 29.59375 56 35.59375 56 
Q 45.5625 56 51.78125 48.09375 
Q 58.015625 40.1875 58.015625 27.296875 
Q 58.015625 14.40625 51.78125 6.484375 
Q 45.5625 -1.421875 35.59375 -1.421875 
Q 29.59375 -1.421875 25.265625 0.953125 
Q 20.953125 3.328125 18.109375 8.203125 
L 18.109375 0 
L 9.078125 0 
L 9.078125 75.984375 
L 18.109375 75.984375 
z
" id="DejaVuSans-98"/>
      <path d="M 9.421875 54.6875 
L 18.40625 54.6875 
L 18.40625 -0.984375 
Q 18.40625 -11.421875 14.421875 -16.109375 
Q 10.453125 -20.796875 1.609375 -20.796875 
L -1.8125 -20.796875 
L -1.8125 -13.1875 
L 0.59375 -13.1875 
Q 5.71875 -13.1875 7.5625 -10.8125 
Q 9.421875 -8.453125 9.421875 -0.984375 
z
M 9.421875 75.984375 
L 18.40625 75.984375 
L 18.40625 64.59375 
L 9.421875 64.59375 
z
" id="DejaVuSans-106"/>
      <path d="M 4.890625 31.390625 
L 31.203125 31.390625 
L 31.203125 23.390625 
L 4.890625 23.390625 
z
" id="DejaVuSans-45"/>
      <path d="M 8.203125 72.90625 
L 55.078125 72.90625 
L 55.078125 68.703125 
L 28.609375 0 
L 18.3125 0 
L 43.21875 64.59375 
L 8.203125 64.59375 
z
" id="DejaVuSans-55"/>
      <path d="M 12.40625 8.296875 
L 28.515625 8.296875 
L 28.515625 63.921875 
L 10.984375 60.40625 
L 10.984375 69.390625 
L 28.421875 72.90625 
L 38.28125 72.90625 
L 38.28125 8.296875 
L 54.390625 8.296875 
L 54.390625 0 
L 12.40625 0 
z
" id="DejaVuSans-49"/>
      <path d="M 11.71875 12.40625 
L 22.015625 12.40625 
L 22.015625 0 
L 11.71875 0 
z
M 11.71875 51.703125 
L 22.015625 51.703125 
L 22.015625 39.3125 
L 11.71875 39.3125 
z
" id="DejaVuSans-58"/>
      <path d="M 10.796875 72.90625 
L 49.515625 72.90625 
L 49.515625 64.59375 
L 19.828125 64.59375 
L 19.828125 46.734375 
Q 21.96875 47.46875 24.109375 47.828125 
Q 26.265625 48.1875 28.421875 48.1875 
Q 40.625 48.1875 47.75 41.5 
Q 54.890625 34.8125 54.890625 23.390625 
Q 54.890625 11.625 47.5625 5.09375 
Q 40.234375 -1.421875 26.90625 -1.421875 
Q 22.3125 -1.421875 17.546875 -0.640625 
Q 12.796875 0.140625 7.71875 1.703125 
L 7.71875 11.625 
Q 12.109375 9.234375 16.796875 8.0625 
Q 21.484375 6.890625 26.703125 6.890625 
Q 35.15625 6.890625 40.078125 11.328125 
Q 45.015625 15.765625 45.015625 23.390625 
Q 45.015625 31 40.078125 35.4375 
Q 35.15625 39.890625 26.703125 39.890625 
Q 22.75 39.890625 18.8125 39.015625 
Q 14.890625 38.140625 10.796875 36.28125 
z
" id="DejaVuSans-53"/>
      <path d="M 11.71875 12.40625 
L 22.015625 12.40625 
L 22.015625 4 
L 14.015625 -11.625 
L 7.71875 -11.625 
L 11.71875 4 
z
" id="DejaVuSans-44"/>
      <path d="M 25.390625 72.90625 
L 33.6875 72.90625 
L 8.296875 -9.28125 
L 0 -9.28125 
z
" id="DejaVuSans-47"/>
     </defs>
     <use xlink:href="#DejaVuSans-108"/>
     <use x="27.783203" xlink:href="#DejaVuSans-105"/>
     <use x="55.566406" xlink:href="#DejaVuSans-98"/>
     <use x="119.042969" xlink:href="#DejaVuSans-106"/>
     <use x="146.826172" xlink:href="#DejaVuSans-112"/>
     <use x="210.302734" xlink:href="#DejaVuSans-101"/>
     <use x="271.826172" xlink:href="#DejaVuSans-103"/>
     <use x="335.302734" xlink:href="#DejaVuSans-45"/>
     <use x="371.386719" xlink:href="#DejaVuSans-116"/>
     <use x="410.595703" xlink:href="#DejaVuSans-117"/>
     <use x="473.974609" xlink:href="#DejaVuSans-114"/>
     <use x="515.087891" xlink:href="#DejaVuSans-98"/>
     <use x="578.564453" xlink:href="#DejaVuSans-111"/>
     <use x="641.621094" xlink:href="#DejaVuSans-45"/>
     <use x="677.705078" xlink:href="#DejaVuSans-48"/>
     <use x="741.328125" xlink:href="#DejaVuSans-55"/>
     <use x="804.951172" xlink:href="#DejaVuSans-45"/>
     <use x="841.035156" xlink:href="#DejaVuSans-50"/>
     <use x="904.658203" xlink:href="#DejaVuSans-48"/>
     <use x="968.28125" xlink:href="#DejaVuSans-49"/>
     <use x="1031.904297" xlink:href="#DejaVuSans-55"/>
     <use x="1095.527344" xlink:href="#DejaVuSans-32"/>
     <use x="1127.314453" xlink:href="#DejaVuSans-40"/>
     <use x="1166.328125" xlink:href="#DejaVuSans-49"/>
     <use x="1229.951172" xlink:href="#DejaVuSans-104"/>
     <use x="1293.330078" xlink:href="#DejaVuSans-58"/>
     <use x="1327.021484" xlink:href="#DejaVuSans-52"/>
     <use x="1390.644531" xlink:href="#DejaVuSans-53"/>
     <use x="1454.267578" xlink:href="#DejaVuSans-109"/>
     <use x="1551.679688" xlink:href="#DejaVuSans-44"/>
     <use x="1583.466797" xlink:href="#DejaVuSans-32"/>
     <use x="1615.253906" xlink:href="#DejaVuSans-53"/>
     <use x="1678.876953" xlink:href="#DejaVuSans-32"/>
     <use x="1710.664062" xlink:href="#DejaVuSans-116"/>
     <use x="1749.873047" xlink:href="#DejaVuSans-114"/>
     <use x="1790.986328" xlink:href="#DejaVuSans-105"/>
     <use x="1818.769531" xlink:href="#DejaVuSans-97"/>
     <use x="1880.048828" xlink:href="#DejaVuSans-108"/>
     <use x="1907.832031" xlink:href="#DejaVuSans-115"/>
     <use x="1959.931641" xlink:href="#DejaVuSans-47"/>
     <use x="1993.623047" xlink:href="#DejaVuSans-102"/>
     <use x="2028.828125" xlink:href="#DejaVuSans-117"/>
     <use x="2092.207031" xlink:href="#DejaVuSans-122"/>
     <use x="2144.697266" xlink:href="#DejaVuSans-122"/>
     <use x="2197.1875" xlink:href="#DejaVuSans-101"/>
     <use x="2258.710938" xlink:href="#DejaVuSans-114"/>
     <use x="2299.824219" xlink:href="#DejaVuSans-41"/>
    </g>
   </g>
  </g>
 </g>
 <defs>
  <clipPath id="pc0f4f3f365">
   <rect height="266.112" width="357.12" x="53.328125" y="22.318125"/>
  </clipPath>
 </defs>
</svg>
