<?xml version="1.0" encoding="utf-8" standalone="no"?>
<!DOCTYPE svg PUBLIC "-//W3C//DTD SVG 1.1//EN"
  "http://www.w3.org/Graphics/SVG/1.1/DTD/svg11.dtd">
<!-- Created with matplotlib (https://matplotlib.org/) -->
<svg height="364.007178pt" version="1.1" viewBox="0 0 424.010625 364.007178" width="424.010625pt" xmlns="http://www.w3.org/2000/svg" xmlns:xlink="http://www.w3.org/1999/xlink">
 <metadata>
  <rdf:RDF xmlns:cc="http://creativecommons.org/ns#" xmlns:dc="http://purl.org/dc/elements/1.1/" xmlns:rdf="http://www.w3.org/1999/02/22-rdf-syntax-ns#">
   <cc:Work>
    <dc:type rdf:resource="http://purl.org/dc/dcmitype/StillImage"/>
    <dc:date>2020-11-09T03:13:31.550545</dc:date>
    <dc:format>image/svg+xml</dc:format>
    <dc:creator>
     <cc:Agent>
      <dc:title>Matplotlib v3.3.2, https://matplotlib.org/</dc:title>
     </cc:Agent>
    </dc:creator>
   </cc:Work>
  </rdf:RDF>
 </metadata>
 <defs>
  <style type="text/css">*{stroke-linecap:butt;stroke-linejoin:round;}</style>
 </defs>
 <g id="figure_1">
  <g id="patch_1">
   <path d="M 0 364.007178 
L 424.010625 364.007178 
L 424.010625 0 
L 0 0 
z
" style="fill:#ffffff;"/>
  </g>
  <g id="axes_1">
   <g id="patch_2">
    <path d="M 59.690625 288.430125 
L 416.810625 288.430125 
L 416.810625 22.318125 
L 59.690625 22.318125 
z
" style="fill:#ffffff;"/>
   </g>
   <g id="PolyCollection_1">
    <defs>
     <path d="M 122.02488 -273.15763 
L 116.39637 -273.15763 
L 115.93399 -273.727685 
L 115.416027 -274.29774 
L 114.839593 -274.867795 
L 114.202315 -275.43785 
L 113.502454 -276.007904 
L 112.739019 -276.577959 
L 111.911875 -277.148014 
L 111.021836 -277.718069 
L 110.070738 -278.288123 
L 109.061495 -278.858178 
L 107.998123 -279.428233 
L 106.885733 -279.998288 
L 105.730495 -280.568343 
L 104.539559 -281.138397 
L 103.320953 -281.708452 
L 102.083434 -282.278507 
L 100.836319 -282.848562 
L 99.589286 -283.418616 
L 98.352156 -283.988671 
L 97.134665 -284.558726 
L 95.946231 -285.128781 
L 94.795727 -285.698835 
L 93.691273 -286.26889 
L 92.640049 -286.838945 
L 91.648138 -287.409 
L 90.720418 -287.979055 
L 89.86049 -288.549109 
L 89.070658 -289.119164 
L 88.351957 -289.689219 
L 87.70423 -290.259274 
L 87.126246 -290.829328 
L 86.615858 -291.399383 
L 86.170191 -291.969438 
L 85.785847 -292.539493 
L 85.459117 -293.109547 
L 85.186202 -293.679602 
L 84.963408 -294.249657 
L 84.787324 -294.819712 
L 84.654974 -295.389767 
L 84.563923 -295.959821 
L 84.512345 -296.529876 
L 84.499047 -297.099931 
L 84.523451 -297.669986 
L 84.585532 -298.24004 
L 84.685727 -298.810095 
L 84.824816 -299.38015 
L 85.003779 -299.950205 
L 85.223655 -300.52026 
L 85.485394 -301.090314 
L 85.78972 -301.660369 
L 86.137019 -302.230424 
L 86.527245 -302.800479 
L 86.959861 -303.370533 
L 87.433809 -303.940588 
L 87.94752 -304.510643 
L 88.498946 -305.080698 
L 89.085628 -305.650752 
L 89.70478 -306.220807 
L 90.353396 -306.790862 
L 91.028357 -307.360917 
L 91.726541 -307.930972 
L 92.444933 -308.501026 
L 93.180708 -309.071081 
L 93.93131 -309.641136 
L 94.694496 -310.211191 
L 95.468359 -310.781245 
L 96.251332 -311.3513 
L 97.042157 -311.921355 
L 97.839836 -312.49141 
L 98.643574 -313.061465 
L 99.452691 -313.631519 
L 100.266546 -314.201574 
L 101.084452 -314.771629 
L 101.90559 -315.341684 
L 102.728945 -315.911738 
L 103.55325 -316.481793 
L 104.376946 -317.051848 
L 105.198164 -317.621903 
L 106.01473 -318.191957 
L 106.824181 -318.762012 
L 107.623814 -319.332067 
L 108.410732 -319.902122 
L 109.18192 -320.472177 
L 109.934316 -321.042231 
L 110.664896 -321.612286 
L 111.370751 -322.182341 
L 112.049168 -322.752396 
L 112.697698 -323.32245 
L 113.314218 -323.892505 
L 113.896977 -324.46256 
L 114.444632 -325.032615 
L 114.956271 -325.60267 
L 115.431412 -326.172724 
L 115.870006 -326.742779 
L 116.272407 -327.312834 
L 116.639352 -327.882889 
L 116.971915 -328.452943 
L 117.271466 -329.022998 
L 117.539623 -329.593053 
L 120.881627 -329.593053 
L 120.881627 -329.593053 
L 121.149784 -329.022998 
L 121.449335 -328.452943 
L 121.781898 -327.882889 
L 122.148843 -327.312834 
L 122.551244 -326.742779 
L 122.989838 -326.172724 
L 123.464979 -325.60267 
L 123.976618 -325.032615 
L 124.524273 -324.46256 
L 125.107032 -323.892505 
L 125.723552 -323.32245 
L 126.372082 -322.752396 
L 127.050499 -322.182341 
L 127.756354 -321.612286 
L 128.486934 -321.042231 
L 129.23933 -320.472177 
L 130.010518 -319.902122 
L 130.797436 -319.332067 
L 131.597069 -318.762012 
L 132.40652 -318.191957 
L 133.223086 -317.621903 
L 134.044304 -317.051848 
L 134.868 -316.481793 
L 135.692305 -315.911738 
L 136.51566 -315.341684 
L 137.336798 -314.771629 
L 138.154704 -314.201574 
L 138.968559 -313.631519 
L 139.777676 -313.061465 
L 140.581414 -312.49141 
L 141.379093 -311.921355 
L 142.169918 -311.3513 
L 142.952891 -310.781245 
L 143.726754 -310.211191 
L 144.48994 -309.641136 
L 145.240542 -309.071081 
L 145.976317 -308.501026 
L 146.694709 -307.930972 
L 147.392893 -307.360917 
L 148.067854 -306.790862 
L 148.71647 -306.220807 
L 149.335622 -305.650752 
L 149.922304 -305.080698 
L 150.47373 -304.510643 
L 150.987441 -303.940588 
L 151.461389 -303.370533 
L 151.894005 -302.800479 
L 152.284231 -302.230424 
L 152.63153 -301.660369 
L 152.935856 -301.090314 
L 153.197595 -300.52026 
L 153.417471 -299.950205 
L 153.596434 -299.38015 
L 153.735523 -298.810095 
L 153.835718 -298.24004 
L 153.897799 -297.669986 
L 153.922203 -297.099931 
L 153.908905 -296.529876 
L 153.857327 -295.959821 
L 153.766276 -295.389767 
L 153.633926 -294.819712 
L 153.457842 -294.249657 
L 153.235048 -293.679602 
L 152.962133 -293.109547 
L 152.635403 -292.539493 
L 152.251059 -291.969438 
L 151.805392 -291.399383 
L 151.295004 -290.829328 
L 150.71702 -290.259274 
L 150.069293 -289.689219 
L 149.350592 -289.119164 
L 148.56076 -288.549109 
L 147.700832 -287.979055 
L 146.773112 -287.409 
L 145.781201 -286.838945 
L 144.729977 -286.26889 
L 143.625523 -285.698835 
L 142.475019 -285.128781 
L 141.286585 -284.558726 
L 140.069094 -283.988671 
L 138.831964 -283.418616 
L 137.584931 -282.848562 
L 136.337816 -282.278507 
L 135.100297 -281.708452 
L 133.881691 -281.138397 
L 132.690755 -280.568343 
L 131.535517 -279.998288 
L 130.423127 -279.428233 
L 129.359755 -278.858178 
L 128.350512 -278.288123 
L 127.399414 -277.718069 
L 126.509375 -277.148014 
L 125.682231 -276.577959 
L 124.918796 -276.007904 
L 124.218935 -275.43785 
L 123.581657 -274.867795 
L 123.005223 -274.29774 
L 122.48726 -273.727685 
L 122.02488 -273.15763 
z
" id="m152d3a039a" style="stroke:#3f3f3f;stroke-width:1.5;"/>
    </defs>
    <g clip-path="url(#p0b63421198)">
     <use style="fill:#c03d3e;stroke:#3f3f3f;stroke-width:1.5;" x="0" xlink:href="#m152d3a039a" y="364.007178"/>
    </g>
   </g>
   <g id="PolyCollection_2">
    <defs>
     <path d="M 239.83945 -87.673053 
L 236.6618 -87.673053 
L 236.39964 -88.656779 
L 236.105487 -89.640505 
L 235.777531 -90.624231 
L 235.414223 -91.607957 
L 235.014344 -92.591683 
L 234.577071 -93.575409 
L 234.102043 -94.559136 
L 233.589416 -95.542862 
L 233.039914 -96.526588 
L 232.454869 -97.510314 
L 231.836247 -98.49404 
L 231.186659 -99.477766 
L 230.509353 -100.461492 
L 229.808192 -101.445218 
L 229.087607 -102.428944 
L 228.352539 -103.41267 
L 227.608354 -104.396397 
L 226.860749 -105.380123 
L 226.115641 -106.363849 
L 225.379051 -107.347575 
L 224.656969 -108.331301 
L 223.955235 -109.315027 
L 223.279402 -110.298753 
L 222.634624 -111.282479 
L 222.025545 -112.266205 
L 221.456203 -113.249931 
L 220.929956 -114.233657 
L 220.449431 -115.217384 
L 220.016489 -116.20111 
L 219.632223 -117.184836 
L 219.296968 -118.168562 
L 219.010348 -119.152288 
L 218.771326 -120.136014 
L 218.578289 -121.11974 
L 218.429132 -122.103466 
L 218.321354 -123.087192 
L 218.252171 -124.070918 
L 218.21861 -125.054645 
L 218.217615 -126.038371 
L 218.24614 -127.022097 
L 218.30123 -128.005823 
L 218.380092 -128.989549 
L 218.480152 -129.973275 
L 218.599096 -130.957001 
L 218.734892 -131.940727 
L 218.88581 -132.924453 
L 219.050414 -133.908179 
L 219.227553 -134.891905 
L 219.416346 -135.875632 
L 219.616148 -136.859358 
L 219.826528 -137.843084 
L 220.047234 -138.82681 
L 220.278163 -139.810536 
L 220.519336 -140.794262 
L 220.770867 -141.777988 
L 221.032945 -142.761714 
L 221.305814 -143.74544 
L 221.589757 -144.729166 
L 221.885082 -145.712893 
L 222.192112 -146.696619 
L 222.511174 -147.680345 
L 222.842584 -148.664071 
L 223.186639 -149.647797 
L 223.543598 -150.631523 
L 223.913664 -151.615249 
L 224.296969 -152.598975 
L 224.693545 -153.582701 
L 225.103307 -154.566427 
L 225.526024 -155.550153 
L 225.961302 -156.53388 
L 226.408555 -157.517606 
L 226.866996 -158.501332 
L 227.335619 -159.485058 
L 227.813196 -160.468784 
L 228.298277 -161.45251 
L 228.789197 -162.436236 
L 229.284096 -163.419962 
L 229.78094 -164.403688 
L 230.277554 -165.387414 
L 230.771657 -166.371141 
L 231.260909 -167.354867 
L 231.742952 -168.338593 
L 232.215459 -169.322319 
L 232.676181 -170.306045 
L 233.122995 -171.289771 
L 233.553942 -172.273497 
L 233.967265 -173.257223 
L 234.361441 -174.240949 
L 234.735205 -175.224675 
L 235.087565 -176.208401 
L 235.41781 -177.192128 
L 235.725511 -178.175854 
L 236.010518 -179.15958 
L 236.27294 -180.143306 
L 236.513131 -181.127032 
L 236.731665 -182.110758 
L 236.929309 -183.094484 
L 237.106992 -184.07821 
L 237.265775 -185.061936 
L 239.235475 -185.061936 
L 239.235475 -185.061936 
L 239.394258 -184.07821 
L 239.571941 -183.094484 
L 239.769585 -182.110758 
L 239.988119 -181.127032 
L 240.22831 -180.143306 
L 240.490732 -179.15958 
L 240.775739 -178.175854 
L 241.08344 -177.192128 
L 241.413685 -176.208401 
L 241.766045 -175.224675 
L 242.139809 -174.240949 
L 242.533985 -173.257223 
L 242.947308 -172.273497 
L 243.378255 -171.289771 
L 243.825069 -170.306045 
L 244.285791 -169.322319 
L 244.758298 -168.338593 
L 245.240341 -167.354867 
L 245.729593 -166.371141 
L 246.223696 -165.387414 
L 246.72031 -164.403688 
L 247.217154 -163.419962 
L 247.712053 -162.436236 
L 248.202973 -161.45251 
L 248.688054 -160.468784 
L 249.165631 -159.485058 
L 249.634254 -158.501332 
L 250.092695 -157.517606 
L 250.539948 -156.53388 
L 250.975226 -155.550153 
L 251.397943 -154.566427 
L 251.807705 -153.582701 
L 252.204281 -152.598975 
L 252.587586 -151.615249 
L 252.957652 -150.631523 
L 253.314611 -149.647797 
L 253.658666 -148.664071 
L 253.990076 -147.680345 
L 254.309138 -146.696619 
L 254.616168 -145.712893 
L 254.911493 -144.729166 
L 255.195436 -143.74544 
L 255.468305 -142.761714 
L 255.730383 -141.777988 
L 255.981914 -140.794262 
L 256.223087 -139.810536 
L 256.454016 -138.82681 
L 256.674722 -137.843084 
L 256.885102 -136.859358 
L 257.084904 -135.875632 
L 257.273697 -134.891905 
L 257.450836 -133.908179 
L 257.61544 -132.924453 
L 257.766358 -131.940727 
L 257.902154 -130.957001 
L 258.021098 -129.973275 
L 258.121158 -128.989549 
L 258.20002 -128.005823 
L 258.25511 -127.022097 
L 258.283635 -126.038371 
L 258.28264 -125.054645 
L 258.249079 -124.070918 
L 258.179896 -123.087192 
L 258.072118 -122.103466 
L 257.922961 -121.11974 
L 257.729924 -120.136014 
L 257.490902 -119.152288 
L 257.204282 -118.168562 
L 256.869027 -117.184836 
L 256.484761 -116.20111 
L 256.051819 -115.217384 
L 255.571294 -114.233657 
L 255.045047 -113.249931 
L 254.475705 -112.266205 
L 253.866626 -111.282479 
L 253.221848 -110.298753 
L 252.546015 -109.315027 
L 251.844281 -108.331301 
L 251.122199 -107.347575 
L 250.385609 -106.363849 
L 249.640501 -105.380123 
L 248.892896 -104.396397 
L 248.148711 -103.41267 
L 247.413643 -102.428944 
L 246.693058 -101.445218 
L 245.991897 -100.461492 
L 245.314591 -99.477766 
L 244.665003 -98.49404 
L 244.046381 -97.510314 
L 243.461336 -96.526588 
L 242.911834 -95.542862 
L 242.399207 -94.559136 
L 241.924179 -93.575409 
L 241.486906 -92.591683 
L 241.087027 -91.607957 
L 240.723719 -90.624231 
L 240.395763 -89.640505 
L 240.10161 -88.656779 
L 239.83945 -87.673053 
z
" id="m5d1f421444" style="stroke:#3f3f3f;stroke-width:1.5;"/>
    </defs>
    <g clip-path="url(#p0b63421198)">
     <use style="fill:#3274a1;stroke:#3f3f3f;stroke-width:1.5;" x="0" xlink:href="#m5d1f421444" y="364.007178"/>
    </g>
   </g>
   <g id="PolyCollection_3">
    <defs>
     <path d="M 360.451256 -98.089185 
L 354.129994 -98.089185 
L 353.578869 -98.574459 
L 352.954399 -99.059734 
L 352.25122 -99.545009 
L 351.464364 -100.030284 
L 350.589423 -100.515559 
L 349.622714 -101.000833 
L 348.561458 -101.486108 
L 347.403945 -101.971383 
L 346.149702 -102.456658 
L 344.799641 -102.941932 
L 343.356193 -103.427207 
L 341.823404 -103.912482 
L 340.207019 -104.397757 
L 338.514505 -104.883032 
L 336.755054 -105.368306 
L 334.939529 -105.853581 
L 333.080365 -106.338856 
L 331.191429 -106.824131 
L 329.287835 -107.309405 
L 327.38571 -107.79468 
L 325.501934 -108.279955 
L 323.653845 -108.76523 
L 321.858925 -109.250505 
L 320.134472 -109.735779 
L 318.497269 -110.221054 
L 316.963261 -110.706329 
L 315.547242 -111.191604 
L 314.26258 -111.676878 
L 313.120961 -112.162153 
L 312.132178 -112.647428 
L 311.303972 -113.132703 
L 310.64191 -113.617978 
L 310.14932 -114.103252 
L 309.827275 -114.588527 
L 309.674625 -115.073802 
L 309.688074 -115.559077 
L 309.862297 -116.044351 
L 310.190094 -116.529626 
L 310.662574 -117.014901 
L 311.269356 -117.500176 
L 311.998796 -117.985451 
L 312.838221 -118.470725 
L 313.774164 -118.956 
L 314.792612 -119.441275 
L 315.879238 -119.92655 
L 317.019638 -120.411824 
L 318.199554 -120.897099 
L 319.405086 -121.382374 
L 320.622898 -121.867649 
L 321.840401 -122.352924 
L 323.045933 -122.838198 
L 324.22891 -123.323473 
L 325.37997 -123.808748 
L 326.491085 -124.294023 
L 327.555664 -124.779297 
L 328.568619 -125.264572 
L 329.526411 -125.749847 
L 330.427061 -126.235122 
L 331.270131 -126.720397 
L 332.056674 -127.205671 
L 332.789148 -127.690946 
L 333.471295 -128.176221 
L 334.107991 -128.661496 
L 334.705069 -129.14677 
L 335.269112 -129.632045 
L 335.807233 -130.11732 
L 336.326841 -130.602595 
L 336.835396 -131.08787 
L 337.340179 -131.573144 
L 337.848059 -132.058419 
L 338.365287 -132.543694 
L 338.897315 -133.028969 
L 339.448636 -133.514243 
L 340.022676 -133.999518 
L 340.621715 -134.484793 
L 341.246849 -134.970068 
L 341.897997 -135.455343 
L 342.573952 -135.940617 
L 343.272452 -136.425892 
L 343.990305 -136.911167 
L 344.723521 -137.396442 
L 345.467475 -137.881716 
L 346.217075 -138.366991 
L 346.966946 -138.852266 
L 347.711596 -139.337541 
L 348.445592 -139.822816 
L 349.163712 -140.30809 
L 349.861077 -140.793365 
L 350.533271 -141.27864 
L 351.176431 -141.763915 
L 351.787307 -142.249189 
L 352.363309 -142.734464 
L 352.902521 -143.219739 
L 353.403694 -143.705014 
L 353.866219 -144.190289 
L 354.290089 -144.675563 
L 354.675839 -145.160838 
L 355.024483 -145.646113 
L 355.337443 -146.131388 
L 359.243807 -146.131388 
L 359.243807 -146.131388 
L 359.556767 -145.646113 
L 359.905411 -145.160838 
L 360.291161 -144.675563 
L 360.715031 -144.190289 
L 361.177556 -143.705014 
L 361.678729 -143.219739 
L 362.217941 -142.734464 
L 362.793943 -142.249189 
L 363.404819 -141.763915 
L 364.047979 -141.27864 
L 364.720173 -140.793365 
L 365.417538 -140.30809 
L 366.135658 -139.822816 
L 366.869654 -139.337541 
L 367.614304 -138.852266 
L 368.364175 -138.366991 
L 369.113775 -137.881716 
L 369.857729 -137.396442 
L 370.590945 -136.911167 
L 371.308798 -136.425892 
L 372.007298 -135.940617 
L 372.683253 -135.455343 
L 373.334401 -134.970068 
L 373.959535 -134.484793 
L 374.558574 -133.999518 
L 375.132614 -133.514243 
L 375.683935 -133.028969 
L 376.215963 -132.543694 
L 376.733191 -132.058419 
L 377.241071 -131.573144 
L 377.745854 -131.08787 
L 378.254409 -130.602595 
L 378.774017 -130.11732 
L 379.312138 -129.632045 
L 379.876181 -129.14677 
L 380.473259 -128.661496 
L 381.109955 -128.176221 
L 381.792102 -127.690946 
L 382.524576 -127.205671 
L 383.311119 -126.720397 
L 384.154189 -126.235122 
L 385.054839 -125.749847 
L 386.012631 -125.264572 
L 387.025586 -124.779297 
L 388.090165 -124.294023 
L 389.20128 -123.808748 
L 390.35234 -123.323473 
L 391.535317 -122.838198 
L 392.740849 -122.352924 
L 393.958352 -121.867649 
L 395.176164 -121.382374 
L 396.381696 -120.897099 
L 397.561612 -120.411824 
L 398.702012 -119.92655 
L 399.788638 -119.441275 
L 400.807086 -118.956 
L 401.743029 -118.470725 
L 402.582454 -117.985451 
L 403.311894 -117.500176 
L 403.918676 -117.014901 
L 404.391156 -116.529626 
L 404.718953 -116.044351 
L 404.893176 -115.559077 
L 404.906625 -115.073802 
L 404.753975 -114.588527 
L 404.43193 -114.103252 
L 403.93934 -113.617978 
L 403.277278 -113.132703 
L 402.449072 -112.647428 
L 401.460289 -112.162153 
L 400.31867 -111.676878 
L 399.034008 -111.191604 
L 397.617989 -110.706329 
L 396.083981 -110.221054 
L 394.446778 -109.735779 
L 392.722325 -109.250505 
L 390.927405 -108.76523 
L 389.079316 -108.279955 
L 387.19554 -107.79468 
L 385.293415 -107.309405 
L 383.389821 -106.824131 
L 381.500885 -106.338856 
L 379.641721 -105.853581 
L 377.826196 -105.368306 
L 376.066745 -104.883032 
L 374.374231 -104.397757 
L 372.757846 -103.912482 
L 371.225057 -103.427207 
L 369.781609 -102.941932 
L 368.431548 -102.456658 
L 367.177305 -101.971383 
L 366.019792 -101.486108 
L 364.958536 -101.000833 
L 363.991827 -100.515559 
L 363.116886 -100.030284 
L 362.33003 -99.545009 
L 361.626851 -99.059734 
L 361.002381 -98.574459 
L 360.451256 -98.089185 
z
" id="m2b066251e5" style="stroke:#3f3f3f;stroke-width:1.5;"/>
    </defs>
    <g clip-path="url(#p0b63421198)">
     <use style="fill:#9fd495;stroke:#3f3f3f;stroke-width:1.5;" x="0" xlink:href="#m2b066251e5" y="364.007178"/>
    </g>
   </g>
   <g id="matplotlib.axis_1">
    <g id="xtick_1">
     <g id="line2d_1">
      <defs>
       <path d="M 0 0 
L 0 3.5 
" id="m26676b4c25" style="stroke:#000000;stroke-width:0.8;"/>
      </defs>
      <g>
       <use style="stroke:#000000;stroke-width:0.8;" x="119.210625" xlink:href="#m26676b4c25" y="288.430125"/>
      </g>
     </g>
     <g id="text_1">
      <!-- entropic -->
      <g transform="translate(82.628557 322.530877)rotate(-30)scale(0.1 -0.1)">
       <defs>
        <path d="M 56.203125 29.59375 
L 56.203125 25.203125 
L 14.890625 25.203125 
Q 15.484375 15.921875 20.484375 11.0625 
Q 25.484375 6.203125 34.421875 6.203125 
Q 39.59375 6.203125 44.453125 7.46875 
Q 49.3125 8.734375 54.109375 11.28125 
L 54.109375 2.78125 
Q 49.265625 0.734375 44.1875 -0.34375 
Q 39.109375 -1.421875 33.890625 -1.421875 
Q 20.796875 -1.421875 13.15625 6.1875 
Q 5.515625 13.8125 5.515625 26.8125 
Q 5.515625 40.234375 12.765625 48.109375 
Q 20.015625 56 32.328125 56 
Q 43.359375 56 49.78125 48.890625 
Q 56.203125 41.796875 56.203125 29.59375 
z
M 47.21875 32.234375 
Q 47.125 39.59375 43.09375 43.984375 
Q 39.0625 48.390625 32.421875 48.390625 
Q 24.90625 48.390625 20.390625 44.140625 
Q 15.875 39.890625 15.1875 32.171875 
z
" id="DejaVuSans-101"/>
        <path d="M 54.890625 33.015625 
L 54.890625 0 
L 45.90625 0 
L 45.90625 32.71875 
Q 45.90625 40.484375 42.875 44.328125 
Q 39.84375 48.1875 33.796875 48.1875 
Q 26.515625 48.1875 22.3125 43.546875 
Q 18.109375 38.921875 18.109375 30.90625 
L 18.109375 0 
L 9.078125 0 
L 9.078125 54.6875 
L 18.109375 54.6875 
L 18.109375 46.1875 
Q 21.34375 51.125 25.703125 53.5625 
Q 30.078125 56 35.796875 56 
Q 45.21875 56 50.046875 50.171875 
Q 54.890625 44.34375 54.890625 33.015625 
z
" id="DejaVuSans-110"/>
        <path d="M 18.3125 70.21875 
L 18.3125 54.6875 
L 36.8125 54.6875 
L 36.8125 47.703125 
L 18.3125 47.703125 
L 18.3125 18.015625 
Q 18.3125 11.328125 20.140625 9.421875 
Q 21.96875 7.515625 27.59375 7.515625 
L 36.8125 7.515625 
L 36.8125 0 
L 27.59375 0 
Q 17.1875 0 13.234375 3.875 
Q 9.28125 7.765625 9.28125 18.015625 
L 9.28125 47.703125 
L 2.6875 47.703125 
L 2.6875 54.6875 
L 9.28125 54.6875 
L 9.28125 70.21875 
z
" id="DejaVuSans-116"/>
        <path d="M 41.109375 46.296875 
Q 39.59375 47.171875 37.8125 47.578125 
Q 36.03125 48 33.890625 48 
Q 26.265625 48 22.1875 43.046875 
Q 18.109375 38.09375 18.109375 28.8125 
L 18.109375 0 
L 9.078125 0 
L 9.078125 54.6875 
L 18.109375 54.6875 
L 18.109375 46.1875 
Q 20.953125 51.171875 25.484375 53.578125 
Q 30.03125 56 36.53125 56 
Q 37.453125 56 38.578125 55.875 
Q 39.703125 55.765625 41.0625 55.515625 
z
" id="DejaVuSans-114"/>
        <path d="M 30.609375 48.390625 
Q 23.390625 48.390625 19.1875 42.75 
Q 14.984375 37.109375 14.984375 27.296875 
Q 14.984375 17.484375 19.15625 11.84375 
Q 23.34375 6.203125 30.609375 6.203125 
Q 37.796875 6.203125 41.984375 11.859375 
Q 46.1875 17.53125 46.1875 27.296875 
Q 46.1875 37.015625 41.984375 42.703125 
Q 37.796875 48.390625 30.609375 48.390625 
z
M 30.609375 56 
Q 42.328125 56 49.015625 48.375 
Q 55.71875 40.765625 55.71875 27.296875 
Q 55.71875 13.875 49.015625 6.21875 
Q 42.328125 -1.421875 30.609375 -1.421875 
Q 18.84375 -1.421875 12.171875 6.21875 
Q 5.515625 13.875 5.515625 27.296875 
Q 5.515625 40.765625 12.171875 48.375 
Q 18.84375 56 30.609375 56 
z
" id="DejaVuSans-111"/>
        <path d="M 18.109375 8.203125 
L 18.109375 -20.796875 
L 9.078125 -20.796875 
L 9.078125 54.6875 
L 18.109375 54.6875 
L 18.109375 46.390625 
Q 20.953125 51.265625 25.265625 53.625 
Q 29.59375 56 35.59375 56 
Q 45.5625 56 51.78125 48.09375 
Q 58.015625 40.1875 58.015625 27.296875 
Q 58.015625 14.40625 51.78125 6.484375 
Q 45.5625 -1.421875 35.59375 -1.421875 
Q 29.59375 -1.421875 25.265625 0.953125 
Q 20.953125 3.328125 18.109375 8.203125 
z
M 48.6875 27.296875 
Q 48.6875 37.203125 44.609375 42.84375 
Q 40.53125 48.484375 33.40625 48.484375 
Q 26.265625 48.484375 22.1875 42.84375 
Q 18.109375 37.203125 18.109375 27.296875 
Q 18.109375 17.390625 22.1875 11.75 
Q 26.265625 6.109375 33.40625 6.109375 
Q 40.53125 6.109375 44.609375 11.75 
Q 48.6875 17.390625 48.6875 27.296875 
z
" id="DejaVuSans-112"/>
        <path d="M 9.421875 54.6875 
L 18.40625 54.6875 
L 18.40625 0 
L 9.421875 0 
z
M 9.421875 75.984375 
L 18.40625 75.984375 
L 18.40625 64.59375 
L 9.421875 64.59375 
z
" id="DejaVuSans-105"/>
        <path d="M 48.78125 52.59375 
L 48.78125 44.1875 
Q 44.96875 46.296875 41.140625 47.34375 
Q 37.3125 48.390625 33.40625 48.390625 
Q 24.65625 48.390625 19.8125 42.84375 
Q 14.984375 37.3125 14.984375 27.296875 
Q 14.984375 17.28125 19.8125 11.734375 
Q 24.65625 6.203125 33.40625 6.203125 
Q 37.3125 6.203125 41.140625 7.25 
Q 44.96875 8.296875 48.78125 10.40625 
L 48.78125 2.09375 
Q 45.015625 0.34375 40.984375 -0.53125 
Q 36.96875 -1.421875 32.421875 -1.421875 
Q 20.0625 -1.421875 12.78125 6.34375 
Q 5.515625 14.109375 5.515625 27.296875 
Q 5.515625 40.671875 12.859375 48.328125 
Q 20.21875 56 33.015625 56 
Q 37.15625 56 41.109375 55.140625 
Q 45.0625 54.296875 48.78125 52.59375 
z
" id="DejaVuSans-99"/>
       </defs>
       <use xlink:href="#DejaVuSans-101"/>
       <use x="61.523438" xlink:href="#DejaVuSans-110"/>
       <use x="124.902344" xlink:href="#DejaVuSans-116"/>
       <use x="164.111328" xlink:href="#DejaVuSans-114"/>
       <use x="202.974609" xlink:href="#DejaVuSans-111"/>
       <use x="264.15625" xlink:href="#DejaVuSans-112"/>
       <use x="327.632812" xlink:href="#DejaVuSans-105"/>
       <use x="355.416016" xlink:href="#DejaVuSans-99"/>
      </g>
     </g>
    </g>
    <g id="xtick_2">
     <g id="line2d_2">
      <g>
       <use style="stroke:#000000;stroke-width:0.8;" x="238.250625" xlink:href="#m26676b4c25" y="288.430125"/>
      </g>
     </g>
     <g id="text_2">
      <!-- aflplusplus -->
      <g transform="translate(190.641618 328.897284)rotate(-30)scale(0.1 -0.1)">
       <defs>
        <path d="M 34.28125 27.484375 
Q 23.390625 27.484375 19.1875 25 
Q 14.984375 22.515625 14.984375 16.5 
Q 14.984375 11.71875 18.140625 8.90625 
Q 21.296875 6.109375 26.703125 6.109375 
Q 34.1875 6.109375 38.703125 11.40625 
Q 43.21875 16.703125 43.21875 25.484375 
L 43.21875 27.484375 
z
M 52.203125 31.203125 
L 52.203125 0 
L 43.21875 0 
L 43.21875 8.296875 
Q 40.140625 3.328125 35.546875 0.953125 
Q 30.953125 -1.421875 24.3125 -1.421875 
Q 15.921875 -1.421875 10.953125 3.296875 
Q 6 8.015625 6 15.921875 
Q 6 25.140625 12.171875 29.828125 
Q 18.359375 34.515625 30.609375 34.515625 
L 43.21875 34.515625 
L 43.21875 35.40625 
Q 43.21875 41.609375 39.140625 45 
Q 35.0625 48.390625 27.6875 48.390625 
Q 23 48.390625 18.546875 47.265625 
Q 14.109375 46.140625 10.015625 43.890625 
L 10.015625 52.203125 
Q 14.9375 54.109375 19.578125 55.046875 
Q 24.21875 56 28.609375 56 
Q 40.484375 56 46.34375 49.84375 
Q 52.203125 43.703125 52.203125 31.203125 
z
" id="DejaVuSans-97"/>
        <path d="M 37.109375 75.984375 
L 37.109375 68.5 
L 28.515625 68.5 
Q 23.6875 68.5 21.796875 66.546875 
Q 19.921875 64.59375 19.921875 59.515625 
L 19.921875 54.6875 
L 34.71875 54.6875 
L 34.71875 47.703125 
L 19.921875 47.703125 
L 19.921875 0 
L 10.890625 0 
L 10.890625 47.703125 
L 2.296875 47.703125 
L 2.296875 54.6875 
L 10.890625 54.6875 
L 10.890625 58.5 
Q 10.890625 67.625 15.140625 71.796875 
Q 19.390625 75.984375 28.609375 75.984375 
z
" id="DejaVuSans-102"/>
        <path d="M 9.421875 75.984375 
L 18.40625 75.984375 
L 18.40625 0 
L 9.421875 0 
z
" id="DejaVuSans-108"/>
        <path d="M 8.5 21.578125 
L 8.5 54.6875 
L 17.484375 54.6875 
L 17.484375 21.921875 
Q 17.484375 14.15625 20.5 10.265625 
Q 23.53125 6.390625 29.59375 6.390625 
Q 36.859375 6.390625 41.078125 11.03125 
Q 45.3125 15.671875 45.3125 23.6875 
L 45.3125 54.6875 
L 54.296875 54.6875 
L 54.296875 0 
L 45.3125 0 
L 45.3125 8.40625 
Q 42.046875 3.421875 37.71875 1 
Q 33.40625 -1.421875 27.6875 -1.421875 
Q 18.265625 -1.421875 13.375 4.4375 
Q 8.5 10.296875 8.5 21.578125 
z
M 31.109375 56 
z
" id="DejaVuSans-117"/>
        <path d="M 44.28125 53.078125 
L 44.28125 44.578125 
Q 40.484375 46.53125 36.375 47.5 
Q 32.28125 48.484375 27.875 48.484375 
Q 21.1875 48.484375 17.84375 46.4375 
Q 14.5 44.390625 14.5 40.28125 
Q 14.5 37.15625 16.890625 35.375 
Q 19.28125 33.59375 26.515625 31.984375 
L 29.59375 31.296875 
Q 39.15625 29.25 43.1875 25.515625 
Q 47.21875 21.78125 47.21875 15.09375 
Q 47.21875 7.46875 41.1875 3.015625 
Q 35.15625 -1.421875 24.609375 -1.421875 
Q 20.21875 -1.421875 15.453125 -0.5625 
Q 10.6875 0.296875 5.421875 2 
L 5.421875 11.28125 
Q 10.40625 8.6875 15.234375 7.390625 
Q 20.0625 6.109375 24.8125 6.109375 
Q 31.15625 6.109375 34.5625 8.28125 
Q 37.984375 10.453125 37.984375 14.40625 
Q 37.984375 18.0625 35.515625 20.015625 
Q 33.0625 21.96875 24.703125 23.78125 
L 21.578125 24.515625 
Q 13.234375 26.265625 9.515625 29.90625 
Q 5.8125 33.546875 5.8125 39.890625 
Q 5.8125 47.609375 11.28125 51.796875 
Q 16.75 56 26.8125 56 
Q 31.78125 56 36.171875 55.265625 
Q 40.578125 54.546875 44.28125 53.078125 
z
" id="DejaVuSans-115"/>
       </defs>
       <use xlink:href="#DejaVuSans-97"/>
       <use x="61.279297" xlink:href="#DejaVuSans-102"/>
       <use x="96.484375" xlink:href="#DejaVuSans-108"/>
       <use x="124.267578" xlink:href="#DejaVuSans-112"/>
       <use x="187.744141" xlink:href="#DejaVuSans-108"/>
       <use x="215.527344" xlink:href="#DejaVuSans-117"/>
       <use x="278.90625" xlink:href="#DejaVuSans-115"/>
       <use x="331.005859" xlink:href="#DejaVuSans-112"/>
       <use x="394.482422" xlink:href="#DejaVuSans-108"/>
       <use x="422.265625" xlink:href="#DejaVuSans-117"/>
       <use x="485.644531" xlink:href="#DejaVuSans-115"/>
      </g>
     </g>
    </g>
    <g id="xtick_3">
     <g id="line2d_3">
      <g>
       <use style="stroke:#000000;stroke-width:0.8;" x="357.290625" xlink:href="#m26676b4c25" y="288.430125"/>
      </g>
     </g>
     <g id="text_3">
      <!-- aflplusplus_hier -->
      <g transform="translate(288.429127 341.087127)rotate(-30)scale(0.1 -0.1)">
       <defs>
        <path d="M 50.984375 -16.609375 
L 50.984375 -23.578125 
L -0.984375 -23.578125 
L -0.984375 -16.609375 
z
" id="DejaVuSans-95"/>
        <path d="M 54.890625 33.015625 
L 54.890625 0 
L 45.90625 0 
L 45.90625 32.71875 
Q 45.90625 40.484375 42.875 44.328125 
Q 39.84375 48.1875 33.796875 48.1875 
Q 26.515625 48.1875 22.3125 43.546875 
Q 18.109375 38.921875 18.109375 30.90625 
L 18.109375 0 
L 9.078125 0 
L 9.078125 75.984375 
L 18.109375 75.984375 
L 18.109375 46.1875 
Q 21.34375 51.125 25.703125 53.5625 
Q 30.078125 56 35.796875 56 
Q 45.21875 56 50.046875 50.171875 
Q 54.890625 44.34375 54.890625 33.015625 
z
" id="DejaVuSans-104"/>
       </defs>
       <use xlink:href="#DejaVuSans-97"/>
       <use x="61.279297" xlink:href="#DejaVuSans-102"/>
       <use x="96.484375" xlink:href="#DejaVuSans-108"/>
       <use x="124.267578" xlink:href="#DejaVuSans-112"/>
       <use x="187.744141" xlink:href="#DejaVuSans-108"/>
       <use x="215.527344" xlink:href="#DejaVuSans-117"/>
       <use x="278.90625" xlink:href="#DejaVuSans-115"/>
       <use x="331.005859" xlink:href="#DejaVuSans-112"/>
       <use x="394.482422" xlink:href="#DejaVuSans-108"/>
       <use x="422.265625" xlink:href="#DejaVuSans-117"/>
       <use x="485.644531" xlink:href="#DejaVuSans-115"/>
       <use x="537.744141" xlink:href="#DejaVuSans-95"/>
       <use x="587.744141" xlink:href="#DejaVuSans-104"/>
       <use x="651.123047" xlink:href="#DejaVuSans-105"/>
       <use x="678.90625" xlink:href="#DejaVuSans-101"/>
       <use x="740.429688" xlink:href="#DejaVuSans-114"/>
      </g>
     </g>
    </g>
    <g id="text_4">
     <!-- Fuzzer (highest median coverage on the left) -->
     <g transform="translate(125.632656 354.72749)scale(0.1 -0.1)">
      <defs>
       <path d="M 9.8125 72.90625 
L 51.703125 72.90625 
L 51.703125 64.59375 
L 19.671875 64.59375 
L 19.671875 43.109375 
L 48.578125 43.109375 
L 48.578125 34.8125 
L 19.671875 34.8125 
L 19.671875 0 
L 9.8125 0 
z
" id="DejaVuSans-70"/>
       <path d="M 5.515625 54.6875 
L 48.1875 54.6875 
L 48.1875 46.484375 
L 14.40625 7.171875 
L 48.1875 7.171875 
L 48.1875 0 
L 4.296875 0 
L 4.296875 8.203125 
L 38.09375 47.515625 
L 5.515625 47.515625 
z
" id="DejaVuSans-122"/>
       <path id="DejaVuSans-32"/>
       <path d="M 31 75.875 
Q 24.46875 64.65625 21.28125 53.65625 
Q 18.109375 42.671875 18.109375 31.390625 
Q 18.109375 20.125 21.3125 9.0625 
Q 24.515625 -2 31 -13.1875 
L 23.1875 -13.1875 
Q 15.875 -1.703125 12.234375 9.375 
Q 8.59375 20.453125 8.59375 31.390625 
Q 8.59375 42.28125 12.203125 53.3125 
Q 15.828125 64.359375 23.1875 75.875 
z
" id="DejaVuSans-40"/>
       <path d="M 45.40625 27.984375 
Q 45.40625 37.75 41.375 43.109375 
Q 37.359375 48.484375 30.078125 48.484375 
Q 22.859375 48.484375 18.828125 43.109375 
Q 14.796875 37.75 14.796875 27.984375 
Q 14.796875 18.265625 18.828125 12.890625 
Q 22.859375 7.515625 30.078125 7.515625 
Q 37.359375 7.515625 41.375 12.890625 
Q 45.40625 18.265625 45.40625 27.984375 
z
M 54.390625 6.78125 
Q 54.390625 -7.171875 48.1875 -13.984375 
Q 42 -20.796875 29.203125 -20.796875 
Q 24.46875 -20.796875 20.265625 -20.09375 
Q 16.0625 -19.390625 12.109375 -17.921875 
L 12.109375 -9.1875 
Q 16.0625 -11.328125 19.921875 -12.34375 
Q 23.78125 -13.375 27.78125 -13.375 
Q 36.625 -13.375 41.015625 -8.765625 
Q 45.40625 -4.15625 45.40625 5.171875 
L 45.40625 9.625 
Q 42.625 4.78125 38.28125 2.390625 
Q 33.9375 0 27.875 0 
Q 17.828125 0 11.671875 7.65625 
Q 5.515625 15.328125 5.515625 27.984375 
Q 5.515625 40.671875 11.671875 48.328125 
Q 17.828125 56 27.875 56 
Q 33.9375 56 38.28125 53.609375 
Q 42.625 51.21875 45.40625 46.390625 
L 45.40625 54.6875 
L 54.390625 54.6875 
z
" id="DejaVuSans-103"/>
       <path d="M 52 44.1875 
Q 55.375 50.25 60.0625 53.125 
Q 64.75 56 71.09375 56 
Q 79.640625 56 84.28125 50.015625 
Q 88.921875 44.046875 88.921875 33.015625 
L 88.921875 0 
L 79.890625 0 
L 79.890625 32.71875 
Q 79.890625 40.578125 77.09375 44.375 
Q 74.3125 48.1875 68.609375 48.1875 
Q 61.625 48.1875 57.5625 43.546875 
Q 53.515625 38.921875 53.515625 30.90625 
L 53.515625 0 
L 44.484375 0 
L 44.484375 32.71875 
Q 44.484375 40.625 41.703125 44.40625 
Q 38.921875 48.1875 33.109375 48.1875 
Q 26.21875 48.1875 22.15625 43.53125 
Q 18.109375 38.875 18.109375 30.90625 
L 18.109375 0 
L 9.078125 0 
L 9.078125 54.6875 
L 18.109375 54.6875 
L 18.109375 46.1875 
Q 21.1875 51.21875 25.484375 53.609375 
Q 29.78125 56 35.6875 56 
Q 41.65625 56 45.828125 52.96875 
Q 50 49.953125 52 44.1875 
z
" id="DejaVuSans-109"/>
       <path d="M 45.40625 46.390625 
L 45.40625 75.984375 
L 54.390625 75.984375 
L 54.390625 0 
L 45.40625 0 
L 45.40625 8.203125 
Q 42.578125 3.328125 38.25 0.953125 
Q 33.9375 -1.421875 27.875 -1.421875 
Q 17.96875 -1.421875 11.734375 6.484375 
Q 5.515625 14.40625 5.515625 27.296875 
Q 5.515625 40.1875 11.734375 48.09375 
Q 17.96875 56 27.875 56 
Q 33.9375 56 38.25 53.625 
Q 42.578125 51.265625 45.40625 46.390625 
z
M 14.796875 27.296875 
Q 14.796875 17.390625 18.875 11.75 
Q 22.953125 6.109375 30.078125 6.109375 
Q 37.203125 6.109375 41.296875 11.75 
Q 45.40625 17.390625 45.40625 27.296875 
Q 45.40625 37.203125 41.296875 42.84375 
Q 37.203125 48.484375 30.078125 48.484375 
Q 22.953125 48.484375 18.875 42.84375 
Q 14.796875 37.203125 14.796875 27.296875 
z
" id="DejaVuSans-100"/>
       <path d="M 2.984375 54.6875 
L 12.5 54.6875 
L 29.59375 8.796875 
L 46.6875 54.6875 
L 56.203125 54.6875 
L 35.6875 0 
L 23.484375 0 
z
" id="DejaVuSans-118"/>
       <path d="M 8.015625 75.875 
L 15.828125 75.875 
Q 23.140625 64.359375 26.78125 53.3125 
Q 30.421875 42.28125 30.421875 31.390625 
Q 30.421875 20.453125 26.78125 9.375 
Q 23.140625 -1.703125 15.828125 -13.1875 
L 8.015625 -13.1875 
Q 14.5 -2 17.703125 9.0625 
Q 20.90625 20.125 20.90625 31.390625 
Q 20.90625 42.671875 17.703125 53.65625 
Q 14.5 64.65625 8.015625 75.875 
z
" id="DejaVuSans-41"/>
      </defs>
      <use xlink:href="#DejaVuSans-70"/>
      <use x="52.019531" xlink:href="#DejaVuSans-117"/>
      <use x="115.398438" xlink:href="#DejaVuSans-122"/>
      <use x="167.888672" xlink:href="#DejaVuSans-122"/>
      <use x="220.378906" xlink:href="#DejaVuSans-101"/>
      <use x="281.902344" xlink:href="#DejaVuSans-114"/>
      <use x="323.015625" xlink:href="#DejaVuSans-32"/>
      <use x="354.802734" xlink:href="#DejaVuSans-40"/>
      <use x="393.816406" xlink:href="#DejaVuSans-104"/>
      <use x="457.195312" xlink:href="#DejaVuSans-105"/>
      <use x="484.978516" xlink:href="#DejaVuSans-103"/>
      <use x="548.455078" xlink:href="#DejaVuSans-104"/>
      <use x="611.833984" xlink:href="#DejaVuSans-101"/>
      <use x="673.357422" xlink:href="#DejaVuSans-115"/>
      <use x="725.457031" xlink:href="#DejaVuSans-116"/>
      <use x="764.666016" xlink:href="#DejaVuSans-32"/>
      <use x="796.453125" xlink:href="#DejaVuSans-109"/>
      <use x="893.865234" xlink:href="#DejaVuSans-101"/>
      <use x="955.388672" xlink:href="#DejaVuSans-100"/>
      <use x="1018.865234" xlink:href="#DejaVuSans-105"/>
      <use x="1046.648438" xlink:href="#DejaVuSans-97"/>
      <use x="1107.927734" xlink:href="#DejaVuSans-110"/>
      <use x="1171.306641" xlink:href="#DejaVuSans-32"/>
      <use x="1203.09375" xlink:href="#DejaVuSans-99"/>
      <use x="1258.074219" xlink:href="#DejaVuSans-111"/>
      <use x="1319.255859" xlink:href="#DejaVuSans-118"/>
      <use x="1378.435547" xlink:href="#DejaVuSans-101"/>
      <use x="1439.958984" xlink:href="#DejaVuSans-114"/>
      <use x="1481.072266" xlink:href="#DejaVuSans-97"/>
      <use x="1542.351562" xlink:href="#DejaVuSans-103"/>
      <use x="1605.828125" xlink:href="#DejaVuSans-101"/>
      <use x="1667.351562" xlink:href="#DejaVuSans-32"/>
      <use x="1699.138672" xlink:href="#DejaVuSans-111"/>
      <use x="1760.320312" xlink:href="#DejaVuSans-110"/>
      <use x="1823.699219" xlink:href="#DejaVuSans-32"/>
      <use x="1855.486328" xlink:href="#DejaVuSans-116"/>
      <use x="1894.695312" xlink:href="#DejaVuSans-104"/>
      <use x="1958.074219" xlink:href="#DejaVuSans-101"/>
      <use x="2019.597656" xlink:href="#DejaVuSans-32"/>
      <use x="2051.384766" xlink:href="#DejaVuSans-108"/>
      <use x="2079.167969" xlink:href="#DejaVuSans-101"/>
      <use x="2140.691406" xlink:href="#DejaVuSans-102"/>
      <use x="2174.146484" xlink:href="#DejaVuSans-116"/>
      <use x="2213.355469" xlink:href="#DejaVuSans-41"/>
     </g>
    </g>
   </g>
   <g id="matplotlib.axis_2">
    <g id="ytick_1">
     <g id="line2d_4">
      <defs>
       <path d="M 0 0 
L -3.5 0 
" id="m5b92845732" style="stroke:#000000;stroke-width:0.8;"/>
      </defs>
      <g>
       <use style="stroke:#000000;stroke-width:0.8;" x="59.690625" xlink:href="#m5b92845732" y="258.585562"/>
      </g>
     </g>
     <g id="text_5">
      <!-- 20000 -->
      <g transform="translate(20.878125 262.384781)scale(0.1 -0.1)">
       <defs>
        <path d="M 19.1875 8.296875 
L 53.609375 8.296875 
L 53.609375 0 
L 7.328125 0 
L 7.328125 8.296875 
Q 12.9375 14.109375 22.625 23.890625 
Q 32.328125 33.6875 34.8125 36.53125 
Q 39.546875 41.84375 41.421875 45.53125 
Q 43.3125 49.21875 43.3125 52.78125 
Q 43.3125 58.59375 39.234375 62.25 
Q 35.15625 65.921875 28.609375 65.921875 
Q 23.96875 65.921875 18.8125 64.3125 
Q 13.671875 62.703125 7.8125 59.421875 
L 7.8125 69.390625 
Q 13.765625 71.78125 18.9375 73 
Q 24.125 74.21875 28.421875 74.21875 
Q 39.75 74.21875 46.484375 68.546875 
Q 53.21875 62.890625 53.21875 53.421875 
Q 53.21875 48.921875 51.53125 44.890625 
Q 49.859375 40.875 45.40625 35.40625 
Q 44.1875 33.984375 37.640625 27.21875 
Q 31.109375 20.453125 19.1875 8.296875 
z
" id="DejaVuSans-50"/>
        <path d="M 31.78125 66.40625 
Q 24.171875 66.40625 20.328125 58.90625 
Q 16.5 51.421875 16.5 36.375 
Q 16.5 21.390625 20.328125 13.890625 
Q 24.171875 6.390625 31.78125 6.390625 
Q 39.453125 6.390625 43.28125 13.890625 
Q 47.125 21.390625 47.125 36.375 
Q 47.125 51.421875 43.28125 58.90625 
Q 39.453125 66.40625 31.78125 66.40625 
z
M 31.78125 74.21875 
Q 44.046875 74.21875 50.515625 64.515625 
Q 56.984375 54.828125 56.984375 36.375 
Q 56.984375 17.96875 50.515625 8.265625 
Q 44.046875 -1.421875 31.78125 -1.421875 
Q 19.53125 -1.421875 13.0625 8.265625 
Q 6.59375 17.96875 6.59375 36.375 
Q 6.59375 54.828125 13.0625 64.515625 
Q 19.53125 74.21875 31.78125 74.21875 
z
" id="DejaVuSans-48"/>
       </defs>
       <use xlink:href="#DejaVuSans-50"/>
       <use x="63.623047" xlink:href="#DejaVuSans-48"/>
       <use x="127.246094" xlink:href="#DejaVuSans-48"/>
       <use x="190.869141" xlink:href="#DejaVuSans-48"/>
       <use x="254.492188" xlink:href="#DejaVuSans-48"/>
      </g>
     </g>
    </g>
    <g id="ytick_2">
     <g id="line2d_5">
      <g>
       <use style="stroke:#000000;stroke-width:0.8;" x="59.690625" xlink:href="#m5b92845732" y="214.377164"/>
      </g>
     </g>
     <g id="text_6">
      <!-- 22000 -->
      <g transform="translate(20.878125 218.176383)scale(0.1 -0.1)">
       <use xlink:href="#DejaVuSans-50"/>
       <use x="63.623047" xlink:href="#DejaVuSans-50"/>
       <use x="127.246094" xlink:href="#DejaVuSans-48"/>
       <use x="190.869141" xlink:href="#DejaVuSans-48"/>
       <use x="254.492188" xlink:href="#DejaVuSans-48"/>
      </g>
     </g>
    </g>
    <g id="ytick_3">
     <g id="line2d_6">
      <g>
       <use style="stroke:#000000;stroke-width:0.8;" x="59.690625" xlink:href="#m5b92845732" y="170.168765"/>
      </g>
     </g>
     <g id="text_7">
      <!-- 24000 -->
      <g transform="translate(20.878125 173.967984)scale(0.1 -0.1)">
       <defs>
        <path d="M 37.796875 64.3125 
L 12.890625 25.390625 
L 37.796875 25.390625 
z
M 35.203125 72.90625 
L 47.609375 72.90625 
L 47.609375 25.390625 
L 58.015625 25.390625 
L 58.015625 17.1875 
L 47.609375 17.1875 
L 47.609375 0 
L 37.796875 0 
L 37.796875 17.1875 
L 4.890625 17.1875 
L 4.890625 26.703125 
z
" id="DejaVuSans-52"/>
       </defs>
       <use xlink:href="#DejaVuSans-50"/>
       <use x="63.623047" xlink:href="#DejaVuSans-52"/>
       <use x="127.246094" xlink:href="#DejaVuSans-48"/>
       <use x="190.869141" xlink:href="#DejaVuSans-48"/>
       <use x="254.492188" xlink:href="#DejaVuSans-48"/>
      </g>
     </g>
    </g>
    <g id="ytick_4">
     <g id="line2d_7">
      <g>
       <use style="stroke:#000000;stroke-width:0.8;" x="59.690625" xlink:href="#m5b92845732" y="125.960367"/>
      </g>
     </g>
     <g id="text_8">
      <!-- 26000 -->
      <g transform="translate(20.878125 129.759586)scale(0.1 -0.1)">
       <defs>
        <path d="M 33.015625 40.375 
Q 26.375 40.375 22.484375 35.828125 
Q 18.609375 31.296875 18.609375 23.390625 
Q 18.609375 15.53125 22.484375 10.953125 
Q 26.375 6.390625 33.015625 6.390625 
Q 39.65625 6.390625 43.53125 10.953125 
Q 47.40625 15.53125 47.40625 23.390625 
Q 47.40625 31.296875 43.53125 35.828125 
Q 39.65625 40.375 33.015625 40.375 
z
M 52.59375 71.296875 
L 52.59375 62.3125 
Q 48.875 64.0625 45.09375 64.984375 
Q 41.3125 65.921875 37.59375 65.921875 
Q 27.828125 65.921875 22.671875 59.328125 
Q 17.53125 52.734375 16.796875 39.40625 
Q 19.671875 43.65625 24.015625 45.921875 
Q 28.375 48.1875 33.59375 48.1875 
Q 44.578125 48.1875 50.953125 41.515625 
Q 57.328125 34.859375 57.328125 23.390625 
Q 57.328125 12.15625 50.6875 5.359375 
Q 44.046875 -1.421875 33.015625 -1.421875 
Q 20.359375 -1.421875 13.671875 8.265625 
Q 6.984375 17.96875 6.984375 36.375 
Q 6.984375 53.65625 15.1875 63.9375 
Q 23.390625 74.21875 37.203125 74.21875 
Q 40.921875 74.21875 44.703125 73.484375 
Q 48.484375 72.75 52.59375 71.296875 
z
" id="DejaVuSans-54"/>
       </defs>
       <use xlink:href="#DejaVuSans-50"/>
       <use x="63.623047" xlink:href="#DejaVuSans-54"/>
       <use x="127.246094" xlink:href="#DejaVuSans-48"/>
       <use x="190.869141" xlink:href="#DejaVuSans-48"/>
       <use x="254.492188" xlink:href="#DejaVuSans-48"/>
      </g>
     </g>
    </g>
    <g id="ytick_5">
     <g id="line2d_8">
      <g>
       <use style="stroke:#000000;stroke-width:0.8;" x="59.690625" xlink:href="#m5b92845732" y="81.751969"/>
      </g>
     </g>
     <g id="text_9">
      <!-- 28000 -->
      <g transform="translate(20.878125 85.551187)scale(0.1 -0.1)">
       <defs>
        <path d="M 31.78125 34.625 
Q 24.75 34.625 20.71875 30.859375 
Q 16.703125 27.09375 16.703125 20.515625 
Q 16.703125 13.921875 20.71875 10.15625 
Q 24.75 6.390625 31.78125 6.390625 
Q 38.8125 6.390625 42.859375 10.171875 
Q 46.921875 13.96875 46.921875 20.515625 
Q 46.921875 27.09375 42.890625 30.859375 
Q 38.875 34.625 31.78125 34.625 
z
M 21.921875 38.8125 
Q 15.578125 40.375 12.03125 44.71875 
Q 8.5 49.078125 8.5 55.328125 
Q 8.5 64.0625 14.71875 69.140625 
Q 20.953125 74.21875 31.78125 74.21875 
Q 42.671875 74.21875 48.875 69.140625 
Q 55.078125 64.0625 55.078125 55.328125 
Q 55.078125 49.078125 51.53125 44.71875 
Q 48 40.375 41.703125 38.8125 
Q 48.828125 37.15625 52.796875 32.3125 
Q 56.78125 27.484375 56.78125 20.515625 
Q 56.78125 9.90625 50.3125 4.234375 
Q 43.84375 -1.421875 31.78125 -1.421875 
Q 19.734375 -1.421875 13.25 4.234375 
Q 6.78125 9.90625 6.78125 20.515625 
Q 6.78125 27.484375 10.78125 32.3125 
Q 14.796875 37.15625 21.921875 38.8125 
z
M 18.3125 54.390625 
Q 18.3125 48.734375 21.84375 45.5625 
Q 25.390625 42.390625 31.78125 42.390625 
Q 38.140625 42.390625 41.71875 45.5625 
Q 45.3125 48.734375 45.3125 54.390625 
Q 45.3125 60.0625 41.71875 63.234375 
Q 38.140625 66.40625 31.78125 66.40625 
Q 25.390625 66.40625 21.84375 63.234375 
Q 18.3125 60.0625 18.3125 54.390625 
z
" id="DejaVuSans-56"/>
       </defs>
       <use xlink:href="#DejaVuSans-50"/>
       <use x="63.623047" xlink:href="#DejaVuSans-56"/>
       <use x="127.246094" xlink:href="#DejaVuSans-48"/>
       <use x="190.869141" xlink:href="#DejaVuSans-48"/>
       <use x="254.492188" xlink:href="#DejaVuSans-48"/>
      </g>
     </g>
    </g>
    <g id="ytick_6">
     <g id="line2d_9">
      <g>
       <use style="stroke:#000000;stroke-width:0.8;" x="59.690625" xlink:href="#m5b92845732" y="37.54357"/>
      </g>
     </g>
     <g id="text_10">
      <!-- 30000 -->
      <g transform="translate(20.878125 41.342789)scale(0.1 -0.1)">
       <defs>
        <path d="M 40.578125 39.3125 
Q 47.65625 37.796875 51.625 33 
Q 55.609375 28.21875 55.609375 21.1875 
Q 55.609375 10.40625 48.1875 4.484375 
Q 40.765625 -1.421875 27.09375 -1.421875 
Q 22.515625 -1.421875 17.65625 -0.515625 
Q 12.796875 0.390625 7.625 2.203125 
L 7.625 11.71875 
Q 11.71875 9.328125 16.59375 8.109375 
Q 21.484375 6.890625 26.8125 6.890625 
Q 36.078125 6.890625 40.9375 10.546875 
Q 45.796875 14.203125 45.796875 21.1875 
Q 45.796875 27.640625 41.28125 31.265625 
Q 36.765625 34.90625 28.71875 34.90625 
L 20.21875 34.90625 
L 20.21875 43.015625 
L 29.109375 43.015625 
Q 36.375 43.015625 40.234375 45.921875 
Q 44.09375 48.828125 44.09375 54.296875 
Q 44.09375 59.90625 40.109375 62.90625 
Q 36.140625 65.921875 28.71875 65.921875 
Q 24.65625 65.921875 20.015625 65.03125 
Q 15.375 64.15625 9.8125 62.3125 
L 9.8125 71.09375 
Q 15.4375 72.65625 20.34375 73.4375 
Q 25.25 74.21875 29.59375 74.21875 
Q 40.828125 74.21875 47.359375 69.109375 
Q 53.90625 64.015625 53.90625 55.328125 
Q 53.90625 49.265625 50.4375 45.09375 
Q 46.96875 40.921875 40.578125 39.3125 
z
" id="DejaVuSans-51"/>
       </defs>
       <use xlink:href="#DejaVuSans-51"/>
       <use x="63.623047" xlink:href="#DejaVuSans-48"/>
       <use x="127.246094" xlink:href="#DejaVuSans-48"/>
       <use x="190.869141" xlink:href="#DejaVuSans-48"/>
       <use x="254.492188" xlink:href="#DejaVuSans-48"/>
      </g>
     </g>
    </g>
    <g id="text_11">
     <!-- Reached region coverage -->
     <g transform="translate(14.798438 219.136625)rotate(-90)scale(0.1 -0.1)">
      <defs>
       <path d="M 44.390625 34.1875 
Q 47.5625 33.109375 50.5625 29.59375 
Q 53.5625 26.078125 56.59375 19.921875 
L 66.609375 0 
L 56 0 
L 46.6875 18.703125 
Q 43.0625 26.03125 39.671875 28.421875 
Q 36.28125 30.8125 30.421875 30.8125 
L 19.671875 30.8125 
L 19.671875 0 
L 9.8125 0 
L 9.8125 72.90625 
L 32.078125 72.90625 
Q 44.578125 72.90625 50.734375 67.671875 
Q 56.890625 62.453125 56.890625 51.90625 
Q 56.890625 45.015625 53.6875 40.46875 
Q 50.484375 35.9375 44.390625 34.1875 
z
M 19.671875 64.796875 
L 19.671875 38.921875 
L 32.078125 38.921875 
Q 39.203125 38.921875 42.84375 42.21875 
Q 46.484375 45.515625 46.484375 51.90625 
Q 46.484375 58.296875 42.84375 61.546875 
Q 39.203125 64.796875 32.078125 64.796875 
z
" id="DejaVuSans-82"/>
      </defs>
      <use xlink:href="#DejaVuSans-82"/>
      <use x="64.982422" xlink:href="#DejaVuSans-101"/>
      <use x="126.505859" xlink:href="#DejaVuSans-97"/>
      <use x="187.785156" xlink:href="#DejaVuSans-99"/>
      <use x="242.765625" xlink:href="#DejaVuSans-104"/>
      <use x="306.144531" xlink:href="#DejaVuSans-101"/>
      <use x="367.667969" xlink:href="#DejaVuSans-100"/>
      <use x="431.144531" xlink:href="#DejaVuSans-32"/>
      <use x="462.931641" xlink:href="#DejaVuSans-114"/>
      <use x="501.794922" xlink:href="#DejaVuSans-101"/>
      <use x="563.318359" xlink:href="#DejaVuSans-103"/>
      <use x="626.794922" xlink:href="#DejaVuSans-105"/>
      <use x="654.578125" xlink:href="#DejaVuSans-111"/>
      <use x="715.759766" xlink:href="#DejaVuSans-110"/>
      <use x="779.138672" xlink:href="#DejaVuSans-32"/>
      <use x="810.925781" xlink:href="#DejaVuSans-99"/>
      <use x="865.90625" xlink:href="#DejaVuSans-111"/>
      <use x="927.087891" xlink:href="#DejaVuSans-118"/>
      <use x="986.267578" xlink:href="#DejaVuSans-101"/>
      <use x="1047.791016" xlink:href="#DejaVuSans-114"/>
      <use x="1088.904297" xlink:href="#DejaVuSans-97"/>
      <use x="1150.183594" xlink:href="#DejaVuSans-103"/>
      <use x="1213.660156" xlink:href="#DejaVuSans-101"/>
     </g>
    </g>
   </g>
   <g id="line2d_10">
    <path clip-path="url(#p0b63421198)" d="M 119.210625 75.518584 
L 119.210625 49.745088 
" style="fill:none;stroke:#3f3f3f;stroke-linecap:square;stroke-width:1.5;"/>
   </g>
   <g id="line2d_11">
    <path clip-path="url(#p0b63421198)" d="M 119.210625 74.258645 
L 119.210625 61.172959 
" style="fill:none;stroke:#3f3f3f;stroke-linecap:square;stroke-width:4.5;"/>
   </g>
   <g id="line2d_12">
    <path clip-path="url(#p0b63421198)" d="M 238.250625 249.721778 
L 238.250625 205.557588 
" style="fill:none;stroke:#3f3f3f;stroke-linecap:square;stroke-width:1.5;"/>
   </g>
   <g id="line2d_13">
    <path clip-path="url(#p0b63421198)" d="M 238.250625 247.091379 
L 238.250625 221.472612 
" style="fill:none;stroke:#3f3f3f;stroke-linecap:square;stroke-width:4.5;"/>
   </g>
   <g id="line2d_14">
    <path clip-path="url(#p0b63421198)" d="M 357.290625 253.015304 
L 357.290625 230.77848 
" style="fill:none;stroke:#3f3f3f;stroke-linecap:square;stroke-width:1.5;"/>
   </g>
   <g id="line2d_15">
    <path clip-path="url(#p0b63421198)" d="M 357.290625 250.937509 
L 357.290625 241.963204 
" style="fill:none;stroke:#3f3f3f;stroke-linecap:square;stroke-width:4.5;"/>
   </g>
   <g id="patch_3">
    <path d="M 59.690625 258.585562 
L 59.690625 37.54357 
" style="fill:none;stroke:#000000;stroke-linecap:square;stroke-linejoin:miter;stroke-width:0.8;"/>
   </g>
   <g id="patch_4">
    <path d="M 119.210625 288.430125 
L 357.290625 288.430125 
" style="fill:none;stroke:#000000;stroke-linecap:square;stroke-linejoin:miter;stroke-width:0.8;"/>
   </g>
   <g id="PathCollection_1">
    <defs>
     <path d="M 0 1.5 
C 0.397805 1.5 0.77937 1.341951 1.06066 1.06066 
C 1.341951 0.77937 1.5 0.397805 1.5 0 
C 1.5 -0.397805 1.341951 -0.77937 1.06066 -1.06066 
C 0.77937 -1.341951 0.397805 -1.5 0 -1.5 
C -0.397805 -1.5 -0.77937 -1.341951 -1.06066 -1.06066 
C -1.341951 -0.77937 -1.5 -0.397805 -1.5 0 
C -1.5 0.397805 -1.341951 0.77937 -1.06066 1.06066 
C -0.77937 1.341951 -0.397805 1.5 0 1.5 
z
" id="mc37fdffb6b" style="stroke:#3f3f3f;"/>
    </defs>
    <g clip-path="url(#p0b63421198)">
     <use style="fill:#ffffff;stroke:#3f3f3f;" x="119.210625" xlink:href="#mc37fdffb6b" y="62.985503"/>
    </g>
   </g>
   <g id="PathCollection_2">
    <g clip-path="url(#p0b63421198)">
     <use style="fill:#ffffff;stroke:#3f3f3f;" x="238.250625" xlink:href="#mc37fdffb6b" y="231.88369"/>
    </g>
   </g>
   <g id="PathCollection_3">
    <g clip-path="url(#p0b63421198)">
     <use style="fill:#ffffff;stroke:#3f3f3f;" x="357.290625" xlink:href="#mc37fdffb6b" y="247.46715"/>
    </g>
   </g>
   <g id="text_12">
    <!-- sqlite3_ossfuzz (1h:45m, 5 trials/fuzzer) -->
    <g transform="translate(118.390313 16.318125)scale(0.12 -0.12)">
     <defs>
      <path d="M 14.796875 27.296875 
Q 14.796875 17.390625 18.875 11.75 
Q 22.953125 6.109375 30.078125 6.109375 
Q 37.203125 6.109375 41.296875 11.75 
Q 45.40625 17.390625 45.40625 27.296875 
Q 45.40625 37.203125 41.296875 42.84375 
Q 37.203125 48.484375 30.078125 48.484375 
Q 22.953125 48.484375 18.875 42.84375 
Q 14.796875 37.203125 14.796875 27.296875 
z
M 45.40625 8.203125 
Q 42.578125 3.328125 38.25 0.953125 
Q 33.9375 -1.421875 27.875 -1.421875 
Q 17.96875 -1.421875 11.734375 6.484375 
Q 5.515625 14.40625 5.515625 27.296875 
Q 5.515625 40.1875 11.734375 48.09375 
Q 17.96875 56 27.875 56 
Q 33.9375 56 38.25 53.625 
Q 42.578125 51.265625 45.40625 46.390625 
L 45.40625 54.6875 
L 54.390625 54.6875 
L 54.390625 -20.796875 
L 45.40625 -20.796875 
z
" id="DejaVuSans-113"/>
      <path d="M 12.40625 8.296875 
L 28.515625 8.296875 
L 28.515625 63.921875 
L 10.984375 60.40625 
L 10.984375 69.390625 
L 28.421875 72.90625 
L 38.28125 72.90625 
L 38.28125 8.296875 
L 54.390625 8.296875 
L 54.390625 0 
L 12.40625 0 
z
" id="DejaVuSans-49"/>
      <path d="M 11.71875 12.40625 
L 22.015625 12.40625 
L 22.015625 0 
L 11.71875 0 
z
M 11.71875 51.703125 
L 22.015625 51.703125 
L 22.015625 39.3125 
L 11.71875 39.3125 
z
" id="DejaVuSans-58"/>
      <path d="M 10.796875 72.90625 
L 49.515625 72.90625 
L 49.515625 64.59375 
L 19.828125 64.59375 
L 19.828125 46.734375 
Q 21.96875 47.46875 24.109375 47.828125 
Q 26.265625 48.1875 28.421875 48.1875 
Q 40.625 48.1875 47.75 41.5 
Q 54.890625 34.8125 54.890625 23.390625 
Q 54.890625 11.625 47.5625 5.09375 
Q 40.234375 -1.421875 26.90625 -1.421875 
Q 22.3125 -1.421875 17.546875 -0.640625 
Q 12.796875 0.140625 7.71875 1.703125 
L 7.71875 11.625 
Q 12.109375 9.234375 16.796875 8.0625 
Q 21.484375 6.890625 26.703125 6.890625 
Q 35.15625 6.890625 40.078125 11.328125 
Q 45.015625 15.765625 45.015625 23.390625 
Q 45.015625 31 40.078125 35.4375 
Q 35.15625 39.890625 26.703125 39.890625 
Q 22.75 39.890625 18.8125 39.015625 
Q 14.890625 38.140625 10.796875 36.28125 
z
" id="DejaVuSans-53"/>
      <path d="M 11.71875 12.40625 
L 22.015625 12.40625 
L 22.015625 4 
L 14.015625 -11.625 
L 7.71875 -11.625 
L 11.71875 4 
z
" id="DejaVuSans-44"/>
      <path d="M 25.390625 72.90625 
L 33.6875 72.90625 
L 8.296875 -9.28125 
L 0 -9.28125 
z
" id="DejaVuSans-47"/>
     </defs>
     <use xlink:href="#DejaVuSans-115"/>
     <use x="52.099609" xlink:href="#DejaVuSans-113"/>
     <use x="115.576172" xlink:href="#DejaVuSans-108"/>
     <use x="143.359375" xlink:href="#DejaVuSans-105"/>
     <use x="171.142578" xlink:href="#DejaVuSans-116"/>
     <use x="210.351562" xlink:href="#DejaVuSans-101"/>
     <use x="271.875" xlink:href="#DejaVuSans-51"/>
     <use x="335.498047" xlink:href="#DejaVuSans-95"/>
     <use x="385.498047" xlink:href="#DejaVuSans-111"/>
     <use x="446.679688" xlink:href="#DejaVuSans-115"/>
     <use x="498.779297" xlink:href="#DejaVuSans-115"/>
     <use x="550.878906" xlink:href="#DejaVuSans-102"/>
     <use x="586.083984" xlink:href="#DejaVuSans-117"/>
     <use x="649.462891" xlink:href="#DejaVuSans-122"/>
     <use x="701.953125" xlink:href="#DejaVuSans-122"/>
     <use x="754.443359" xlink:href="#DejaVuSans-32"/>
     <use x="786.230469" xlink:href="#DejaVuSans-40"/>
     <use x="825.244141" xlink:href="#DejaVuSans-49"/>
     <use x="888.867188" xlink:href="#DejaVuSans-104"/>
     <use x="952.246094" xlink:href="#DejaVuSans-58"/>
     <use x="985.9375" xlink:href="#DejaVuSans-52"/>
     <use x="1049.560547" xlink:href="#DejaVuSans-53"/>
     <use x="1113.183594" xlink:href="#DejaVuSans-109"/>
     <use x="1210.595703" xlink:href="#DejaVuSans-44"/>
     <use x="1242.382812" xlink:href="#DejaVuSans-32"/>
     <use x="1274.169922" xlink:href="#DejaVuSans-53"/>
     <use x="1337.792969" xlink:href="#DejaVuSans-32"/>
     <use x="1369.580078" xlink:href="#DejaVuSans-116"/>
     <use x="1408.789062" xlink:href="#DejaVuSans-114"/>
     <use x="1449.902344" xlink:href="#DejaVuSans-105"/>
     <use x="1477.685547" xlink:href="#DejaVuSans-97"/>
     <use x="1538.964844" xlink:href="#DejaVuSans-108"/>
     <use x="1566.748047" xlink:href="#DejaVuSans-115"/>
     <use x="1618.847656" xlink:href="#DejaVuSans-47"/>
     <use x="1652.539062" xlink:href="#DejaVuSans-102"/>
     <use x="1687.744141" xlink:href="#DejaVuSans-117"/>
     <use x="1751.123047" xlink:href="#DejaVuSans-122"/>
     <use x="1803.613281" xlink:href="#DejaVuSans-122"/>
     <use x="1856.103516" xlink:href="#DejaVuSans-101"/>
     <use x="1917.626953" xlink:href="#DejaVuSans-114"/>
     <use x="1958.740234" xlink:href="#DejaVuSans-41"/>
    </g>
   </g>
  </g>
 </g>
 <defs>
  <clipPath id="p0b63421198">
   <rect height="266.112" width="357.12" x="59.690625" y="22.318125"/>
  </clipPath>
 </defs>
</svg>
