<?xml version="1.0" encoding="utf-8" standalone="no"?>
<!DOCTYPE svg PUBLIC "-//W3C//DTD SVG 1.1//EN"
  "http://www.w3.org/Graphics/SVG/1.1/DTD/svg11.dtd">
<!-- Created with matplotlib (https://matplotlib.org/) -->
<svg height="367.928272pt" version="1.1" viewBox="0 0 426.027812 367.928272" width="426.027812pt" xmlns="http://www.w3.org/2000/svg" xmlns:xlink="http://www.w3.org/1999/xlink">
 <metadata>
  <rdf:RDF xmlns:cc="http://creativecommons.org/ns#" xmlns:dc="http://purl.org/dc/elements/1.1/" xmlns:rdf="http://www.w3.org/1999/02/22-rdf-syntax-ns#">
   <cc:Work>
    <dc:type rdf:resource="http://purl.org/dc/dcmitype/StillImage"/>
    <dc:date>2020-12-08T16:45:52.149350</dc:date>
    <dc:format>image/svg+xml</dc:format>
    <dc:creator>
     <cc:Agent>
      <dc:title>Matplotlib v3.3.3, https://matplotlib.org/</dc:title>
     </cc:Agent>
    </dc:creator>
   </cc:Work>
  </rdf:RDF>
 </metadata>
 <defs>
  <style type="text/css">*{stroke-linecap:butt;stroke-linejoin:round;}</style>
 </defs>
 <g id="figure_1">
  <g id="patch_1">
   <path d="M 0 367.928272 
L 426.027812 367.928272 
L 426.027812 0 
L 0 0 
z
" style="fill:#ffffff;"/>
  </g>
  <g id="axes_1">
   <g id="patch_2">
    <path d="M 61.707813 288.430125 
L 418.827813 288.430125 
L 418.827813 22.318125 
L 61.707813 22.318125 
z
" style="fill:#ffffff;"/>
   </g>
   <g id="PolyCollection_1">
    <defs>
     <path d="M 151.571394 -108.271371 
L 150.404231 -108.271371 
L 150.247974 -110.428531 
L 150.063819 -112.58569 
L 149.850977 -114.74285 
L 149.609893 -116.900009 
L 149.342506 -119.057169 
L 149.052429 -121.214329 
L 148.745046 -123.371488 
L 148.427468 -125.528648 
L 148.108362 -127.685807 
L 147.797613 -129.842967 
L 147.505857 -132.000126 
L 147.243901 -134.157286 
L 147.022065 -136.314446 
L 146.849517 -138.471605 
L 146.733639 -140.628765 
L 146.679511 -142.785924 
L 146.689537 -144.943084 
L 146.763266 -147.100243 
L 146.897428 -149.257403 
L 147.086171 -151.414563 
L 147.321483 -153.571722 
L 147.593748 -155.728882 
L 147.892393 -157.886041 
L 148.206548 -160.043201 
L 148.525683 -162.20036 
L 148.840137 -164.35752 
L 149.141537 -166.51468 
L 149.423059 -168.671839 
L 149.679531 -170.828999 
L 149.907393 -172.986158 
L 150.10453 -175.143318 
L 150.270006 -177.300477 
L 150.403738 -179.457637 
L 150.50614 -181.614797 
L 150.57777 -183.771956 
L 150.619011 -185.929116 
L 150.629799 -188.086275 
L 150.609429 -190.243435 
L 150.556439 -192.400595 
L 150.468578 -194.557754 
L 150.342876 -196.714914 
L 150.175786 -198.872073 
L 149.963414 -201.029233 
L 149.701802 -203.186392 
L 149.387242 -205.343552 
L 149.016596 -207.500712 
L 148.587561 -209.657871 
L 148.098847 -211.815031 
L 147.550212 -213.97219 
L 146.942296 -216.12935 
L 146.276233 -218.286509 
L 145.553017 -220.443669 
L 144.772625 -222.600829 
L 143.93295 -224.757988 
L 143.02862 -226.915148 
L 142.049823 -229.072307 
L 140.981296 -231.229467 
L 139.801653 -233.386626 
L 138.483232 -235.543786 
L 136.992644 -237.700946 
L 135.292144 -239.858105 
L 133.341902 -242.015265 
L 131.103152 -244.172424 
L 128.542096 -246.329584 
L 125.634333 -248.486743 
L 122.369478 -250.643903 
L 118.75554 -252.801063 
L 114.822587 -254.958222 
L 110.625218 -257.115382 
L 106.243415 -259.272541 
L 101.781444 -261.429701 
L 97.364652 -263.58686 
L 93.134185 -265.74402 
L 89.239884 -267.90118 
L 85.831821 -270.058339 
L 83.051105 -272.215499 
L 81.020719 -274.372658 
L 79.837185 -276.529818 
L 79.563812 -278.686978 
L 80.226151 -280.844137 
L 81.810066 -283.001297 
L 84.26262 -285.158456 
L 87.495657 -287.315616 
L 91.391725 -289.472775 
L 95.811793 -291.629935 
L 100.604028 -293.787095 
L 105.612877 -295.944254 
L 110.687696 -298.101414 
L 115.690279 -300.258573 
L 120.500802 -302.415733 
L 125.021881 -304.572892 
L 129.180664 -306.730052 
L 132.929049 -308.887212 
L 136.242286 -311.044371 
L 139.116323 -313.201531 
L 141.564299 -315.35869 
L 143.612615 -317.51585 
L 145.296948 -319.673009 
L 146.658511 -321.830169 
L 155.317114 -321.830169 
L 155.317114 -321.830169 
L 156.678677 -319.673009 
L 158.36301 -317.51585 
L 160.411326 -315.35869 
L 162.859302 -313.201531 
L 165.733339 -311.044371 
L 169.046576 -308.887212 
L 172.794961 -306.730052 
L 176.953744 -304.572892 
L 181.474823 -302.415733 
L 186.285346 -300.258573 
L 191.287929 -298.101414 
L 196.362748 -295.944254 
L 201.371597 -293.787095 
L 206.163832 -291.629935 
L 210.5839 -289.472775 
L 214.479968 -287.315616 
L 217.713005 -285.158456 
L 220.165559 -283.001297 
L 221.749474 -280.844137 
L 222.411813 -278.686978 
L 222.13844 -276.529818 
L 220.954906 -274.372658 
L 218.92452 -272.215499 
L 216.143804 -270.058339 
L 212.735741 -267.90118 
L 208.84144 -265.74402 
L 204.610973 -263.58686 
L 200.194181 -261.429701 
L 195.73221 -259.272541 
L 191.350407 -257.115382 
L 187.153038 -254.958222 
L 183.220085 -252.801063 
L 179.606147 -250.643903 
L 176.341292 -248.486743 
L 173.433529 -246.329584 
L 170.872473 -244.172424 
L 168.633723 -242.015265 
L 166.683481 -239.858105 
L 164.982981 -237.700946 
L 163.492393 -235.543786 
L 162.173972 -233.386626 
L 160.994329 -231.229467 
L 159.925802 -229.072307 
L 158.947005 -226.915148 
L 158.042675 -224.757988 
L 157.203 -222.600829 
L 156.422608 -220.443669 
L 155.699392 -218.286509 
L 155.033329 -216.12935 
L 154.425413 -213.97219 
L 153.876778 -211.815031 
L 153.388064 -209.657871 
L 152.959029 -207.500712 
L 152.588383 -205.343552 
L 152.273823 -203.186392 
L 152.012211 -201.029233 
L 151.799839 -198.872073 
L 151.632749 -196.714914 
L 151.507047 -194.557754 
L 151.419186 -192.400595 
L 151.366196 -190.243435 
L 151.345826 -188.086275 
L 151.356614 -185.929116 
L 151.397855 -183.771956 
L 151.469485 -181.614797 
L 151.571887 -179.457637 
L 151.705619 -177.300477 
L 151.871095 -175.143318 
L 152.068232 -172.986158 
L 152.296094 -170.828999 
L 152.552566 -168.671839 
L 152.834088 -166.51468 
L 153.135488 -164.35752 
L 153.449942 -162.20036 
L 153.769077 -160.043201 
L 154.083232 -157.886041 
L 154.381877 -155.728882 
L 154.654142 -153.571722 
L 154.889454 -151.414563 
L 155.078197 -149.257403 
L 155.212359 -147.100243 
L 155.286088 -144.943084 
L 155.296114 -142.785924 
L 155.241986 -140.628765 
L 155.126108 -138.471605 
L 154.95356 -136.314446 
L 154.731724 -134.157286 
L 154.469768 -132.000126 
L 154.178012 -129.842967 
L 153.867263 -127.685807 
L 153.548157 -125.528648 
L 153.230579 -123.371488 
L 152.923196 -121.214329 
L 152.633119 -119.057169 
L 152.365732 -116.900009 
L 152.124648 -114.74285 
L 151.911806 -112.58569 
L 151.727651 -110.428531 
L 151.571394 -108.271371 
z
" id="mae5f9dd634" style="stroke:#3f3f3f;stroke-width:1.5;"/>
    </defs>
    <g clip-path="url(#p86ca32c577)">
     <use style="fill:#9fd495;stroke:#3f3f3f;stroke-width:1.5;" x="0" xlink:href="#mae5f9dd634" y="367.928272"/>
    </g>
   </g>
   <g id="PolyCollection_2">
    <defs>
     <path d="M 330.733867 -91.594147 
L 328.361758 -91.594147 
L 328.122328 -94.037783 
L 327.849668 -96.481419 
L 327.54269 -98.925056 
L 327.201093 -101.368692 
L 326.825514 -103.812328 
L 326.417668 -106.255965 
L 325.980449 -108.699601 
L 325.518003 -111.143238 
L 325.035738 -113.586874 
L 324.540293 -116.03051 
L 324.039433 -118.474147 
L 323.541881 -120.917783 
L 323.057097 -123.361419 
L 322.594987 -125.805056 
L 322.165583 -128.248692 
L 321.778677 -130.692328 
L 321.44345 -133.135965 
L 321.168101 -135.579601 
L 320.959506 -138.023238 
L 320.822917 -140.466874 
L 320.761719 -142.91051 
L 320.777267 -145.354147 
L 320.868801 -147.797783 
L 321.033454 -150.241419 
L 321.266336 -152.685056 
L 321.560709 -155.128692 
L 321.908214 -157.572328 
L 322.299163 -160.015965 
L 322.722856 -162.459601 
L 323.167912 -164.903238 
L 323.622596 -167.346874 
L 324.075128 -169.79051 
L 324.513939 -172.234147 
L 324.927898 -174.677783 
L 325.306464 -177.121419 
L 325.639793 -179.565056 
L 325.918783 -182.008692 
L 326.135065 -184.452328 
L 326.28096 -186.895965 
L 326.349399 -189.339601 
L 326.333823 -191.783238 
L 326.228087 -194.226874 
L 326.026363 -196.67051 
L 325.723066 -199.114147 
L 325.312808 -201.557783 
L 324.7904 -204.001419 
L 324.150887 -206.445056 
L 323.38964 -208.888692 
L 322.502501 -211.332328 
L 321.485982 -213.775965 
L 320.337503 -216.219601 
L 319.05569 -218.663238 
L 317.640697 -221.106874 
L 316.094562 -223.55051 
L 314.421567 -225.994147 
L 312.6286 -228.437783 
L 310.725488 -230.881419 
L 308.725276 -233.325056 
L 306.644446 -235.768692 
L 304.503024 -238.212328 
L 302.324578 -240.655965 
L 300.136062 -243.099601 
L 297.967511 -245.543238 
L 295.851562 -247.986874 
L 293.822805 -250.43051 
L 291.916975 -252.874147 
L 290.170007 -255.317783 
L 288.616973 -257.761419 
L 287.290956 -260.205056 
L 286.221905 -262.648692 
L 285.435521 -265.092328 
L 284.952242 -267.535965 
L 284.786372 -269.979601 
L 284.945414 -272.423238 
L 285.429648 -274.866874 
L 286.231979 -277.31051 
L 287.338076 -279.754147 
L 288.726795 -282.197783 
L 290.370874 -284.641419 
L 292.237864 -287.085056 
L 294.291251 -289.528692 
L 296.491702 -291.972328 
L 298.798393 -294.415965 
L 301.170333 -296.859601 
L 303.567627 -299.303238 
L 305.952633 -301.746874 
L 308.290943 -304.19051 
L 310.552177 -306.634147 
L 312.710552 -309.077783 
L 314.74522 -311.521419 
L 316.640394 -313.965056 
L 318.385255 -316.408692 
L 319.973691 -318.852328 
L 321.403882 -321.295965 
L 322.67778 -323.739601 
L 323.80052 -326.183238 
L 324.779787 -328.626874 
L 325.625194 -331.07051 
L 326.347683 -333.514147 
L 332.747942 -333.514147 
L 332.747942 -333.514147 
L 333.470431 -331.07051 
L 334.315838 -328.626874 
L 335.295105 -326.183238 
L 336.417845 -323.739601 
L 337.691743 -321.295965 
L 339.121934 -318.852328 
L 340.71037 -316.408692 
L 342.455231 -313.965056 
L 344.350405 -311.521419 
L 346.385073 -309.077783 
L 348.543448 -306.634147 
L 350.804682 -304.19051 
L 353.142992 -301.746874 
L 355.527998 -299.303238 
L 357.925292 -296.859601 
L 360.297232 -294.415965 
L 362.603923 -291.972328 
L 364.804374 -289.528692 
L 366.857761 -287.085056 
L 368.724751 -284.641419 
L 370.36883 -282.197783 
L 371.757549 -279.754147 
L 372.863646 -277.31051 
L 373.665977 -274.866874 
L 374.150211 -272.423238 
L 374.309253 -269.979601 
L 374.143383 -267.535965 
L 373.660104 -265.092328 
L 372.87372 -262.648692 
L 371.804669 -260.205056 
L 370.478652 -257.761419 
L 368.925618 -255.317783 
L 367.17865 -252.874147 
L 365.27282 -250.43051 
L 363.244063 -247.986874 
L 361.128114 -245.543238 
L 358.959563 -243.099601 
L 356.771047 -240.655965 
L 354.592601 -238.212328 
L 352.451179 -235.768692 
L 350.370349 -233.325056 
L 348.370137 -230.881419 
L 346.467025 -228.437783 
L 344.674058 -225.994147 
L 343.001063 -223.55051 
L 341.454928 -221.106874 
L 340.039935 -218.663238 
L 338.758122 -216.219601 
L 337.609643 -213.775965 
L 336.593124 -211.332328 
L 335.705985 -208.888692 
L 334.944738 -206.445056 
L 334.305225 -204.001419 
L 333.782817 -201.557783 
L 333.372559 -199.114147 
L 333.069262 -196.67051 
L 332.867538 -194.226874 
L 332.761802 -191.783238 
L 332.746226 -189.339601 
L 332.814665 -186.895965 
L 332.96056 -184.452328 
L 333.176842 -182.008692 
L 333.455832 -179.565056 
L 333.789161 -177.121419 
L 334.167727 -174.677783 
L 334.581686 -172.234147 
L 335.020497 -169.79051 
L 335.473029 -167.346874 
L 335.927713 -164.903238 
L 336.372769 -162.459601 
L 336.796462 -160.015965 
L 337.187411 -157.572328 
L 337.534916 -155.128692 
L 337.829289 -152.685056 
L 338.062171 -150.241419 
L 338.226824 -147.797783 
L 338.318358 -145.354147 
L 338.333906 -142.91051 
L 338.272708 -140.466874 
L 338.136119 -138.023238 
L 337.927524 -135.579601 
L 337.652175 -133.135965 
L 337.316948 -130.692328 
L 336.930042 -128.248692 
L 336.500638 -125.805056 
L 336.038528 -123.361419 
L 335.553744 -120.917783 
L 335.056192 -118.474147 
L 334.555332 -116.03051 
L 334.059887 -113.586874 
L 333.577622 -111.143238 
L 333.115176 -108.699601 
L 332.677957 -106.255965 
L 332.270111 -103.812328 
L 331.894532 -101.368692 
L 331.552935 -98.925056 
L 331.245957 -96.481419 
L 330.973297 -94.037783 
L 330.733867 -91.594147 
z
" id="me897090028" style="stroke:#3f3f3f;stroke-width:1.5;"/>
    </defs>
    <g clip-path="url(#p86ca32c577)">
     <use style="fill:#3274a1;stroke:#3f3f3f;stroke-width:1.5;" x="0" xlink:href="#me897090028" y="367.928272"/>
    </g>
   </g>
   <g id="matplotlib.axis_1">
    <g id="xtick_1">
     <g id="line2d_1">
      <defs>
       <path d="M 0 0 
L 0 3.5 
" id="m905e7f63bd" style="stroke:#000000;stroke-width:0.8;"/>
      </defs>
      <g>
       <use style="stroke:#000000;stroke-width:0.8;" x="150.987813" xlink:href="#m905e7f63bd" y="288.430125"/>
      </g>
     </g>
     <g id="text_1">
      <!-- aflplusplus_some -->
      <g transform="translate(75.334781 345.008221)rotate(-30)scale(0.1 -0.1)">
       <defs>
        <path d="M 34.28125 27.484375 
Q 23.390625 27.484375 19.1875 25 
Q 14.984375 22.515625 14.984375 16.5 
Q 14.984375 11.71875 18.140625 8.90625 
Q 21.296875 6.109375 26.703125 6.109375 
Q 34.1875 6.109375 38.703125 11.40625 
Q 43.21875 16.703125 43.21875 25.484375 
L 43.21875 27.484375 
z
M 52.203125 31.203125 
L 52.203125 0 
L 43.21875 0 
L 43.21875 8.296875 
Q 40.140625 3.328125 35.546875 0.953125 
Q 30.953125 -1.421875 24.3125 -1.421875 
Q 15.921875 -1.421875 10.953125 3.296875 
Q 6 8.015625 6 15.921875 
Q 6 25.140625 12.171875 29.828125 
Q 18.359375 34.515625 30.609375 34.515625 
L 43.21875 34.515625 
L 43.21875 35.40625 
Q 43.21875 41.609375 39.140625 45 
Q 35.0625 48.390625 27.6875 48.390625 
Q 23 48.390625 18.546875 47.265625 
Q 14.109375 46.140625 10.015625 43.890625 
L 10.015625 52.203125 
Q 14.9375 54.109375 19.578125 55.046875 
Q 24.21875 56 28.609375 56 
Q 40.484375 56 46.34375 49.84375 
Q 52.203125 43.703125 52.203125 31.203125 
z
" id="DejaVuSans-97"/>
        <path d="M 37.109375 75.984375 
L 37.109375 68.5 
L 28.515625 68.5 
Q 23.6875 68.5 21.796875 66.546875 
Q 19.921875 64.59375 19.921875 59.515625 
L 19.921875 54.6875 
L 34.71875 54.6875 
L 34.71875 47.703125 
L 19.921875 47.703125 
L 19.921875 0 
L 10.890625 0 
L 10.890625 47.703125 
L 2.296875 47.703125 
L 2.296875 54.6875 
L 10.890625 54.6875 
L 10.890625 58.5 
Q 10.890625 67.625 15.140625 71.796875 
Q 19.390625 75.984375 28.609375 75.984375 
z
" id="DejaVuSans-102"/>
        <path d="M 9.421875 75.984375 
L 18.40625 75.984375 
L 18.40625 0 
L 9.421875 0 
z
" id="DejaVuSans-108"/>
        <path d="M 18.109375 8.203125 
L 18.109375 -20.796875 
L 9.078125 -20.796875 
L 9.078125 54.6875 
L 18.109375 54.6875 
L 18.109375 46.390625 
Q 20.953125 51.265625 25.265625 53.625 
Q 29.59375 56 35.59375 56 
Q 45.5625 56 51.78125 48.09375 
Q 58.015625 40.1875 58.015625 27.296875 
Q 58.015625 14.40625 51.78125 6.484375 
Q 45.5625 -1.421875 35.59375 -1.421875 
Q 29.59375 -1.421875 25.265625 0.953125 
Q 20.953125 3.328125 18.109375 8.203125 
z
M 48.6875 27.296875 
Q 48.6875 37.203125 44.609375 42.84375 
Q 40.53125 48.484375 33.40625 48.484375 
Q 26.265625 48.484375 22.1875 42.84375 
Q 18.109375 37.203125 18.109375 27.296875 
Q 18.109375 17.390625 22.1875 11.75 
Q 26.265625 6.109375 33.40625 6.109375 
Q 40.53125 6.109375 44.609375 11.75 
Q 48.6875 17.390625 48.6875 27.296875 
z
" id="DejaVuSans-112"/>
        <path d="M 8.5 21.578125 
L 8.5 54.6875 
L 17.484375 54.6875 
L 17.484375 21.921875 
Q 17.484375 14.15625 20.5 10.265625 
Q 23.53125 6.390625 29.59375 6.390625 
Q 36.859375 6.390625 41.078125 11.03125 
Q 45.3125 15.671875 45.3125 23.6875 
L 45.3125 54.6875 
L 54.296875 54.6875 
L 54.296875 0 
L 45.3125 0 
L 45.3125 8.40625 
Q 42.046875 3.421875 37.71875 1 
Q 33.40625 -1.421875 27.6875 -1.421875 
Q 18.265625 -1.421875 13.375 4.4375 
Q 8.5 10.296875 8.5 21.578125 
z
M 31.109375 56 
z
" id="DejaVuSans-117"/>
        <path d="M 44.28125 53.078125 
L 44.28125 44.578125 
Q 40.484375 46.53125 36.375 47.5 
Q 32.28125 48.484375 27.875 48.484375 
Q 21.1875 48.484375 17.84375 46.4375 
Q 14.5 44.390625 14.5 40.28125 
Q 14.5 37.15625 16.890625 35.375 
Q 19.28125 33.59375 26.515625 31.984375 
L 29.59375 31.296875 
Q 39.15625 29.25 43.1875 25.515625 
Q 47.21875 21.78125 47.21875 15.09375 
Q 47.21875 7.46875 41.1875 3.015625 
Q 35.15625 -1.421875 24.609375 -1.421875 
Q 20.21875 -1.421875 15.453125 -0.5625 
Q 10.6875 0.296875 5.421875 2 
L 5.421875 11.28125 
Q 10.40625 8.6875 15.234375 7.390625 
Q 20.0625 6.109375 24.8125 6.109375 
Q 31.15625 6.109375 34.5625 8.28125 
Q 37.984375 10.453125 37.984375 14.40625 
Q 37.984375 18.0625 35.515625 20.015625 
Q 33.0625 21.96875 24.703125 23.78125 
L 21.578125 24.515625 
Q 13.234375 26.265625 9.515625 29.90625 
Q 5.8125 33.546875 5.8125 39.890625 
Q 5.8125 47.609375 11.28125 51.796875 
Q 16.75 56 26.8125 56 
Q 31.78125 56 36.171875 55.265625 
Q 40.578125 54.546875 44.28125 53.078125 
z
" id="DejaVuSans-115"/>
        <path d="M 50.984375 -16.609375 
L 50.984375 -23.578125 
L -0.984375 -23.578125 
L -0.984375 -16.609375 
z
" id="DejaVuSans-95"/>
        <path d="M 30.609375 48.390625 
Q 23.390625 48.390625 19.1875 42.75 
Q 14.984375 37.109375 14.984375 27.296875 
Q 14.984375 17.484375 19.15625 11.84375 
Q 23.34375 6.203125 30.609375 6.203125 
Q 37.796875 6.203125 41.984375 11.859375 
Q 46.1875 17.53125 46.1875 27.296875 
Q 46.1875 37.015625 41.984375 42.703125 
Q 37.796875 48.390625 30.609375 48.390625 
z
M 30.609375 56 
Q 42.328125 56 49.015625 48.375 
Q 55.71875 40.765625 55.71875 27.296875 
Q 55.71875 13.875 49.015625 6.21875 
Q 42.328125 -1.421875 30.609375 -1.421875 
Q 18.84375 -1.421875 12.171875 6.21875 
Q 5.515625 13.875 5.515625 27.296875 
Q 5.515625 40.765625 12.171875 48.375 
Q 18.84375 56 30.609375 56 
z
" id="DejaVuSans-111"/>
        <path d="M 52 44.1875 
Q 55.375 50.25 60.0625 53.125 
Q 64.75 56 71.09375 56 
Q 79.640625 56 84.28125 50.015625 
Q 88.921875 44.046875 88.921875 33.015625 
L 88.921875 0 
L 79.890625 0 
L 79.890625 32.71875 
Q 79.890625 40.578125 77.09375 44.375 
Q 74.3125 48.1875 68.609375 48.1875 
Q 61.625 48.1875 57.5625 43.546875 
Q 53.515625 38.921875 53.515625 30.90625 
L 53.515625 0 
L 44.484375 0 
L 44.484375 32.71875 
Q 44.484375 40.625 41.703125 44.40625 
Q 38.921875 48.1875 33.109375 48.1875 
Q 26.21875 48.1875 22.15625 43.53125 
Q 18.109375 38.875 18.109375 30.90625 
L 18.109375 0 
L 9.078125 0 
L 9.078125 54.6875 
L 18.109375 54.6875 
L 18.109375 46.1875 
Q 21.1875 51.21875 25.484375 53.609375 
Q 29.78125 56 35.6875 56 
Q 41.65625 56 45.828125 52.96875 
Q 50 49.953125 52 44.1875 
z
" id="DejaVuSans-109"/>
        <path d="M 56.203125 29.59375 
L 56.203125 25.203125 
L 14.890625 25.203125 
Q 15.484375 15.921875 20.484375 11.0625 
Q 25.484375 6.203125 34.421875 6.203125 
Q 39.59375 6.203125 44.453125 7.46875 
Q 49.3125 8.734375 54.109375 11.28125 
L 54.109375 2.78125 
Q 49.265625 0.734375 44.1875 -0.34375 
Q 39.109375 -1.421875 33.890625 -1.421875 
Q 20.796875 -1.421875 13.15625 6.1875 
Q 5.515625 13.8125 5.515625 26.8125 
Q 5.515625 40.234375 12.765625 48.109375 
Q 20.015625 56 32.328125 56 
Q 43.359375 56 49.78125 48.890625 
Q 56.203125 41.796875 56.203125 29.59375 
z
M 47.21875 32.234375 
Q 47.125 39.59375 43.09375 43.984375 
Q 39.0625 48.390625 32.421875 48.390625 
Q 24.90625 48.390625 20.390625 44.140625 
Q 15.875 39.890625 15.1875 32.171875 
z
" id="DejaVuSans-101"/>
       </defs>
       <use xlink:href="#DejaVuSans-97"/>
       <use x="61.279297" xlink:href="#DejaVuSans-102"/>
       <use x="96.484375" xlink:href="#DejaVuSans-108"/>
       <use x="124.267578" xlink:href="#DejaVuSans-112"/>
       <use x="187.744141" xlink:href="#DejaVuSans-108"/>
       <use x="215.527344" xlink:href="#DejaVuSans-117"/>
       <use x="278.90625" xlink:href="#DejaVuSans-115"/>
       <use x="331.005859" xlink:href="#DejaVuSans-112"/>
       <use x="394.482422" xlink:href="#DejaVuSans-108"/>
       <use x="422.265625" xlink:href="#DejaVuSans-117"/>
       <use x="485.644531" xlink:href="#DejaVuSans-115"/>
       <use x="537.744141" xlink:href="#DejaVuSans-95"/>
       <use x="587.744141" xlink:href="#DejaVuSans-115"/>
       <use x="639.84375" xlink:href="#DejaVuSans-111"/>
       <use x="701.025391" xlink:href="#DejaVuSans-109"/>
       <use x="798.4375" xlink:href="#DejaVuSans-101"/>
      </g>
     </g>
    </g>
    <g id="xtick_2">
     <g id="line2d_2">
      <g>
       <use style="stroke:#000000;stroke-width:0.8;" x="329.547813" xlink:href="#m905e7f63bd" y="288.430125"/>
      </g>
     </g>
     <g id="text_2">
      <!-- aflplusplus_flat -->
      <g transform="translate(263.312807 339.570721)rotate(-30)scale(0.1 -0.1)">
       <defs>
        <path d="M 18.3125 70.21875 
L 18.3125 54.6875 
L 36.8125 54.6875 
L 36.8125 47.703125 
L 18.3125 47.703125 
L 18.3125 18.015625 
Q 18.3125 11.328125 20.140625 9.421875 
Q 21.96875 7.515625 27.59375 7.515625 
L 36.8125 7.515625 
L 36.8125 0 
L 27.59375 0 
Q 17.1875 0 13.234375 3.875 
Q 9.28125 7.765625 9.28125 18.015625 
L 9.28125 47.703125 
L 2.6875 47.703125 
L 2.6875 54.6875 
L 9.28125 54.6875 
L 9.28125 70.21875 
z
" id="DejaVuSans-116"/>
       </defs>
       <use xlink:href="#DejaVuSans-97"/>
       <use x="61.279297" xlink:href="#DejaVuSans-102"/>
       <use x="96.484375" xlink:href="#DejaVuSans-108"/>
       <use x="124.267578" xlink:href="#DejaVuSans-112"/>
       <use x="187.744141" xlink:href="#DejaVuSans-108"/>
       <use x="215.527344" xlink:href="#DejaVuSans-117"/>
       <use x="278.90625" xlink:href="#DejaVuSans-115"/>
       <use x="331.005859" xlink:href="#DejaVuSans-112"/>
       <use x="394.482422" xlink:href="#DejaVuSans-108"/>
       <use x="422.265625" xlink:href="#DejaVuSans-117"/>
       <use x="485.644531" xlink:href="#DejaVuSans-115"/>
       <use x="537.744141" xlink:href="#DejaVuSans-95"/>
       <use x="587.744141" xlink:href="#DejaVuSans-102"/>
       <use x="622.949219" xlink:href="#DejaVuSans-108"/>
       <use x="650.732422" xlink:href="#DejaVuSans-97"/>
       <use x="712.011719" xlink:href="#DejaVuSans-116"/>
      </g>
     </g>
    </g>
    <g id="text_3">
     <!-- Fuzzer (highest median coverage on the left) -->
     <g transform="translate(127.649844 358.648584)scale(0.1 -0.1)">
      <defs>
       <path d="M 9.8125 72.90625 
L 51.703125 72.90625 
L 51.703125 64.59375 
L 19.671875 64.59375 
L 19.671875 43.109375 
L 48.578125 43.109375 
L 48.578125 34.8125 
L 19.671875 34.8125 
L 19.671875 0 
L 9.8125 0 
z
" id="DejaVuSans-70"/>
       <path d="M 5.515625 54.6875 
L 48.1875 54.6875 
L 48.1875 46.484375 
L 14.40625 7.171875 
L 48.1875 7.171875 
L 48.1875 0 
L 4.296875 0 
L 4.296875 8.203125 
L 38.09375 47.515625 
L 5.515625 47.515625 
z
" id="DejaVuSans-122"/>
       <path d="M 41.109375 46.296875 
Q 39.59375 47.171875 37.8125 47.578125 
Q 36.03125 48 33.890625 48 
Q 26.265625 48 22.1875 43.046875 
Q 18.109375 38.09375 18.109375 28.8125 
L 18.109375 0 
L 9.078125 0 
L 9.078125 54.6875 
L 18.109375 54.6875 
L 18.109375 46.1875 
Q 20.953125 51.171875 25.484375 53.578125 
Q 30.03125 56 36.53125 56 
Q 37.453125 56 38.578125 55.875 
Q 39.703125 55.765625 41.0625 55.515625 
z
" id="DejaVuSans-114"/>
       <path id="DejaVuSans-32"/>
       <path d="M 31 75.875 
Q 24.46875 64.65625 21.28125 53.65625 
Q 18.109375 42.671875 18.109375 31.390625 
Q 18.109375 20.125 21.3125 9.0625 
Q 24.515625 -2 31 -13.1875 
L 23.1875 -13.1875 
Q 15.875 -1.703125 12.234375 9.375 
Q 8.59375 20.453125 8.59375 31.390625 
Q 8.59375 42.28125 12.203125 53.3125 
Q 15.828125 64.359375 23.1875 75.875 
z
" id="DejaVuSans-40"/>
       <path d="M 54.890625 33.015625 
L 54.890625 0 
L 45.90625 0 
L 45.90625 32.71875 
Q 45.90625 40.484375 42.875 44.328125 
Q 39.84375 48.1875 33.796875 48.1875 
Q 26.515625 48.1875 22.3125 43.546875 
Q 18.109375 38.921875 18.109375 30.90625 
L 18.109375 0 
L 9.078125 0 
L 9.078125 75.984375 
L 18.109375 75.984375 
L 18.109375 46.1875 
Q 21.34375 51.125 25.703125 53.5625 
Q 30.078125 56 35.796875 56 
Q 45.21875 56 50.046875 50.171875 
Q 54.890625 44.34375 54.890625 33.015625 
z
" id="DejaVuSans-104"/>
       <path d="M 9.421875 54.6875 
L 18.40625 54.6875 
L 18.40625 0 
L 9.421875 0 
z
M 9.421875 75.984375 
L 18.40625 75.984375 
L 18.40625 64.59375 
L 9.421875 64.59375 
z
" id="DejaVuSans-105"/>
       <path d="M 45.40625 27.984375 
Q 45.40625 37.75 41.375 43.109375 
Q 37.359375 48.484375 30.078125 48.484375 
Q 22.859375 48.484375 18.828125 43.109375 
Q 14.796875 37.75 14.796875 27.984375 
Q 14.796875 18.265625 18.828125 12.890625 
Q 22.859375 7.515625 30.078125 7.515625 
Q 37.359375 7.515625 41.375 12.890625 
Q 45.40625 18.265625 45.40625 27.984375 
z
M 54.390625 6.78125 
Q 54.390625 -7.171875 48.1875 -13.984375 
Q 42 -20.796875 29.203125 -20.796875 
Q 24.46875 -20.796875 20.265625 -20.09375 
Q 16.0625 -19.390625 12.109375 -17.921875 
L 12.109375 -9.1875 
Q 16.0625 -11.328125 19.921875 -12.34375 
Q 23.78125 -13.375 27.78125 -13.375 
Q 36.625 -13.375 41.015625 -8.765625 
Q 45.40625 -4.15625 45.40625 5.171875 
L 45.40625 9.625 
Q 42.625 4.78125 38.28125 2.390625 
Q 33.9375 0 27.875 0 
Q 17.828125 0 11.671875 7.65625 
Q 5.515625 15.328125 5.515625 27.984375 
Q 5.515625 40.671875 11.671875 48.328125 
Q 17.828125 56 27.875 56 
Q 33.9375 56 38.28125 53.609375 
Q 42.625 51.21875 45.40625 46.390625 
L 45.40625 54.6875 
L 54.390625 54.6875 
z
" id="DejaVuSans-103"/>
       <path d="M 45.40625 46.390625 
L 45.40625 75.984375 
L 54.390625 75.984375 
L 54.390625 0 
L 45.40625 0 
L 45.40625 8.203125 
Q 42.578125 3.328125 38.25 0.953125 
Q 33.9375 -1.421875 27.875 -1.421875 
Q 17.96875 -1.421875 11.734375 6.484375 
Q 5.515625 14.40625 5.515625 27.296875 
Q 5.515625 40.1875 11.734375 48.09375 
Q 17.96875 56 27.875 56 
Q 33.9375 56 38.25 53.625 
Q 42.578125 51.265625 45.40625 46.390625 
z
M 14.796875 27.296875 
Q 14.796875 17.390625 18.875 11.75 
Q 22.953125 6.109375 30.078125 6.109375 
Q 37.203125 6.109375 41.296875 11.75 
Q 45.40625 17.390625 45.40625 27.296875 
Q 45.40625 37.203125 41.296875 42.84375 
Q 37.203125 48.484375 30.078125 48.484375 
Q 22.953125 48.484375 18.875 42.84375 
Q 14.796875 37.203125 14.796875 27.296875 
z
" id="DejaVuSans-100"/>
       <path d="M 54.890625 33.015625 
L 54.890625 0 
L 45.90625 0 
L 45.90625 32.71875 
Q 45.90625 40.484375 42.875 44.328125 
Q 39.84375 48.1875 33.796875 48.1875 
Q 26.515625 48.1875 22.3125 43.546875 
Q 18.109375 38.921875 18.109375 30.90625 
L 18.109375 0 
L 9.078125 0 
L 9.078125 54.6875 
L 18.109375 54.6875 
L 18.109375 46.1875 
Q 21.34375 51.125 25.703125 53.5625 
Q 30.078125 56 35.796875 56 
Q 45.21875 56 50.046875 50.171875 
Q 54.890625 44.34375 54.890625 33.015625 
z
" id="DejaVuSans-110"/>
       <path d="M 48.78125 52.59375 
L 48.78125 44.1875 
Q 44.96875 46.296875 41.140625 47.34375 
Q 37.3125 48.390625 33.40625 48.390625 
Q 24.65625 48.390625 19.8125 42.84375 
Q 14.984375 37.3125 14.984375 27.296875 
Q 14.984375 17.28125 19.8125 11.734375 
Q 24.65625 6.203125 33.40625 6.203125 
Q 37.3125 6.203125 41.140625 7.25 
Q 44.96875 8.296875 48.78125 10.40625 
L 48.78125 2.09375 
Q 45.015625 0.34375 40.984375 -0.53125 
Q 36.96875 -1.421875 32.421875 -1.421875 
Q 20.0625 -1.421875 12.78125 6.34375 
Q 5.515625 14.109375 5.515625 27.296875 
Q 5.515625 40.671875 12.859375 48.328125 
Q 20.21875 56 33.015625 56 
Q 37.15625 56 41.109375 55.140625 
Q 45.0625 54.296875 48.78125 52.59375 
z
" id="DejaVuSans-99"/>
       <path d="M 2.984375 54.6875 
L 12.5 54.6875 
L 29.59375 8.796875 
L 46.6875 54.6875 
L 56.203125 54.6875 
L 35.6875 0 
L 23.484375 0 
z
" id="DejaVuSans-118"/>
       <path d="M 8.015625 75.875 
L 15.828125 75.875 
Q 23.140625 64.359375 26.78125 53.3125 
Q 30.421875 42.28125 30.421875 31.390625 
Q 30.421875 20.453125 26.78125 9.375 
Q 23.140625 -1.703125 15.828125 -13.1875 
L 8.015625 -13.1875 
Q 14.5 -2 17.703125 9.0625 
Q 20.90625 20.125 20.90625 31.390625 
Q 20.90625 42.671875 17.703125 53.65625 
Q 14.5 64.65625 8.015625 75.875 
z
" id="DejaVuSans-41"/>
      </defs>
      <use xlink:href="#DejaVuSans-70"/>
      <use x="52.019531" xlink:href="#DejaVuSans-117"/>
      <use x="115.398438" xlink:href="#DejaVuSans-122"/>
      <use x="167.888672" xlink:href="#DejaVuSans-122"/>
      <use x="220.378906" xlink:href="#DejaVuSans-101"/>
      <use x="281.902344" xlink:href="#DejaVuSans-114"/>
      <use x="323.015625" xlink:href="#DejaVuSans-32"/>
      <use x="354.802734" xlink:href="#DejaVuSans-40"/>
      <use x="393.816406" xlink:href="#DejaVuSans-104"/>
      <use x="457.195312" xlink:href="#DejaVuSans-105"/>
      <use x="484.978516" xlink:href="#DejaVuSans-103"/>
      <use x="548.455078" xlink:href="#DejaVuSans-104"/>
      <use x="611.833984" xlink:href="#DejaVuSans-101"/>
      <use x="673.357422" xlink:href="#DejaVuSans-115"/>
      <use x="725.457031" xlink:href="#DejaVuSans-116"/>
      <use x="764.666016" xlink:href="#DejaVuSans-32"/>
      <use x="796.453125" xlink:href="#DejaVuSans-109"/>
      <use x="893.865234" xlink:href="#DejaVuSans-101"/>
      <use x="955.388672" xlink:href="#DejaVuSans-100"/>
      <use x="1018.865234" xlink:href="#DejaVuSans-105"/>
      <use x="1046.648438" xlink:href="#DejaVuSans-97"/>
      <use x="1107.927734" xlink:href="#DejaVuSans-110"/>
      <use x="1171.306641" xlink:href="#DejaVuSans-32"/>
      <use x="1203.09375" xlink:href="#DejaVuSans-99"/>
      <use x="1258.074219" xlink:href="#DejaVuSans-111"/>
      <use x="1319.255859" xlink:href="#DejaVuSans-118"/>
      <use x="1378.435547" xlink:href="#DejaVuSans-101"/>
      <use x="1439.958984" xlink:href="#DejaVuSans-114"/>
      <use x="1481.072266" xlink:href="#DejaVuSans-97"/>
      <use x="1542.351562" xlink:href="#DejaVuSans-103"/>
      <use x="1605.828125" xlink:href="#DejaVuSans-101"/>
      <use x="1667.351562" xlink:href="#DejaVuSans-32"/>
      <use x="1699.138672" xlink:href="#DejaVuSans-111"/>
      <use x="1760.320312" xlink:href="#DejaVuSans-110"/>
      <use x="1823.699219" xlink:href="#DejaVuSans-32"/>
      <use x="1855.486328" xlink:href="#DejaVuSans-116"/>
      <use x="1894.695312" xlink:href="#DejaVuSans-104"/>
      <use x="1958.074219" xlink:href="#DejaVuSans-101"/>
      <use x="2019.597656" xlink:href="#DejaVuSans-32"/>
      <use x="2051.384766" xlink:href="#DejaVuSans-108"/>
      <use x="2079.167969" xlink:href="#DejaVuSans-101"/>
      <use x="2140.691406" xlink:href="#DejaVuSans-102"/>
      <use x="2174.146484" xlink:href="#DejaVuSans-116"/>
      <use x="2213.355469" xlink:href="#DejaVuSans-41"/>
     </g>
    </g>
   </g>
   <g id="matplotlib.axis_2">
    <g id="ytick_1">
     <g id="line2d_3">
      <defs>
       <path d="M 0 0 
L -3.5 0 
" id="mef0b8e20f7" style="stroke:#000000;stroke-width:0.8;"/>
      </defs>
      <g>
       <use style="stroke:#000000;stroke-width:0.8;" x="61.707813" xlink:href="#mef0b8e20f7" y="269.461627"/>
      </g>
     </g>
     <g id="text_4">
      <!-- −1000 -->
      <g transform="translate(20.878125 273.260846)scale(0.1 -0.1)">
       <defs>
        <path d="M 10.59375 35.5 
L 73.1875 35.5 
L 73.1875 27.203125 
L 10.59375 27.203125 
z
" id="DejaVuSans-8722"/>
        <path d="M 12.40625 8.296875 
L 28.515625 8.296875 
L 28.515625 63.921875 
L 10.984375 60.40625 
L 10.984375 69.390625 
L 28.421875 72.90625 
L 38.28125 72.90625 
L 38.28125 8.296875 
L 54.390625 8.296875 
L 54.390625 0 
L 12.40625 0 
z
" id="DejaVuSans-49"/>
        <path d="M 31.78125 66.40625 
Q 24.171875 66.40625 20.328125 58.90625 
Q 16.5 51.421875 16.5 36.375 
Q 16.5 21.390625 20.328125 13.890625 
Q 24.171875 6.390625 31.78125 6.390625 
Q 39.453125 6.390625 43.28125 13.890625 
Q 47.125 21.390625 47.125 36.375 
Q 47.125 51.421875 43.28125 58.90625 
Q 39.453125 66.40625 31.78125 66.40625 
z
M 31.78125 74.21875 
Q 44.046875 74.21875 50.515625 64.515625 
Q 56.984375 54.828125 56.984375 36.375 
Q 56.984375 17.96875 50.515625 8.265625 
Q 44.046875 -1.421875 31.78125 -1.421875 
Q 19.53125 -1.421875 13.0625 8.265625 
Q 6.59375 17.96875 6.59375 36.375 
Q 6.59375 54.828125 13.0625 64.515625 
Q 19.53125 74.21875 31.78125 74.21875 
z
" id="DejaVuSans-48"/>
       </defs>
       <use xlink:href="#DejaVuSans-8722"/>
       <use x="83.789062" xlink:href="#DejaVuSans-49"/>
       <use x="147.412109" xlink:href="#DejaVuSans-48"/>
       <use x="211.035156" xlink:href="#DejaVuSans-48"/>
       <use x="274.658203" xlink:href="#DejaVuSans-48"/>
      </g>
     </g>
    </g>
    <g id="ytick_2">
     <g id="line2d_4">
      <g>
       <use style="stroke:#000000;stroke-width:0.8;" x="61.707813" xlink:href="#mef0b8e20f7" y="228.533375"/>
      </g>
     </g>
     <g id="text_5">
      <!-- 0 -->
      <g transform="translate(48.345313 232.332594)scale(0.1 -0.1)">
       <use xlink:href="#DejaVuSans-48"/>
      </g>
     </g>
    </g>
    <g id="ytick_3">
     <g id="line2d_5">
      <g>
       <use style="stroke:#000000;stroke-width:0.8;" x="61.707813" xlink:href="#mef0b8e20f7" y="187.605123"/>
      </g>
     </g>
     <g id="text_6">
      <!-- 1000 -->
      <g transform="translate(29.257812 191.404342)scale(0.1 -0.1)">
       <use xlink:href="#DejaVuSans-49"/>
       <use x="63.623047" xlink:href="#DejaVuSans-48"/>
       <use x="127.246094" xlink:href="#DejaVuSans-48"/>
       <use x="190.869141" xlink:href="#DejaVuSans-48"/>
      </g>
     </g>
    </g>
    <g id="ytick_4">
     <g id="line2d_6">
      <g>
       <use style="stroke:#000000;stroke-width:0.8;" x="61.707813" xlink:href="#mef0b8e20f7" y="146.676871"/>
      </g>
     </g>
     <g id="text_7">
      <!-- 2000 -->
      <g transform="translate(29.257812 150.47609)scale(0.1 -0.1)">
       <defs>
        <path d="M 19.1875 8.296875 
L 53.609375 8.296875 
L 53.609375 0 
L 7.328125 0 
L 7.328125 8.296875 
Q 12.9375 14.109375 22.625 23.890625 
Q 32.328125 33.6875 34.8125 36.53125 
Q 39.546875 41.84375 41.421875 45.53125 
Q 43.3125 49.21875 43.3125 52.78125 
Q 43.3125 58.59375 39.234375 62.25 
Q 35.15625 65.921875 28.609375 65.921875 
Q 23.96875 65.921875 18.8125 64.3125 
Q 13.671875 62.703125 7.8125 59.421875 
L 7.8125 69.390625 
Q 13.765625 71.78125 18.9375 73 
Q 24.125 74.21875 28.421875 74.21875 
Q 39.75 74.21875 46.484375 68.546875 
Q 53.21875 62.890625 53.21875 53.421875 
Q 53.21875 48.921875 51.53125 44.890625 
Q 49.859375 40.875 45.40625 35.40625 
Q 44.1875 33.984375 37.640625 27.21875 
Q 31.109375 20.453125 19.1875 8.296875 
z
" id="DejaVuSans-50"/>
       </defs>
       <use xlink:href="#DejaVuSans-50"/>
       <use x="63.623047" xlink:href="#DejaVuSans-48"/>
       <use x="127.246094" xlink:href="#DejaVuSans-48"/>
       <use x="190.869141" xlink:href="#DejaVuSans-48"/>
      </g>
     </g>
    </g>
    <g id="ytick_5">
     <g id="line2d_7">
      <g>
       <use style="stroke:#000000;stroke-width:0.8;" x="61.707813" xlink:href="#mef0b8e20f7" y="105.748619"/>
      </g>
     </g>
     <g id="text_8">
      <!-- 3000 -->
      <g transform="translate(29.257812 109.547838)scale(0.1 -0.1)">
       <defs>
        <path d="M 40.578125 39.3125 
Q 47.65625 37.796875 51.625 33 
Q 55.609375 28.21875 55.609375 21.1875 
Q 55.609375 10.40625 48.1875 4.484375 
Q 40.765625 -1.421875 27.09375 -1.421875 
Q 22.515625 -1.421875 17.65625 -0.515625 
Q 12.796875 0.390625 7.625 2.203125 
L 7.625 11.71875 
Q 11.71875 9.328125 16.59375 8.109375 
Q 21.484375 6.890625 26.8125 6.890625 
Q 36.078125 6.890625 40.9375 10.546875 
Q 45.796875 14.203125 45.796875 21.1875 
Q 45.796875 27.640625 41.28125 31.265625 
Q 36.765625 34.90625 28.71875 34.90625 
L 20.21875 34.90625 
L 20.21875 43.015625 
L 29.109375 43.015625 
Q 36.375 43.015625 40.234375 45.921875 
Q 44.09375 48.828125 44.09375 54.296875 
Q 44.09375 59.90625 40.109375 62.90625 
Q 36.140625 65.921875 28.71875 65.921875 
Q 24.65625 65.921875 20.015625 65.03125 
Q 15.375 64.15625 9.8125 62.3125 
L 9.8125 71.09375 
Q 15.4375 72.65625 20.34375 73.4375 
Q 25.25 74.21875 29.59375 74.21875 
Q 40.828125 74.21875 47.359375 69.109375 
Q 53.90625 64.015625 53.90625 55.328125 
Q 53.90625 49.265625 50.4375 45.09375 
Q 46.96875 40.921875 40.578125 39.3125 
z
" id="DejaVuSans-51"/>
       </defs>
       <use xlink:href="#DejaVuSans-51"/>
       <use x="63.623047" xlink:href="#DejaVuSans-48"/>
       <use x="127.246094" xlink:href="#DejaVuSans-48"/>
       <use x="190.869141" xlink:href="#DejaVuSans-48"/>
      </g>
     </g>
    </g>
    <g id="ytick_6">
     <g id="line2d_8">
      <g>
       <use style="stroke:#000000;stroke-width:0.8;" x="61.707813" xlink:href="#mef0b8e20f7" y="64.820368"/>
      </g>
     </g>
     <g id="text_9">
      <!-- 4000 -->
      <g transform="translate(29.257812 68.619586)scale(0.1 -0.1)">
       <defs>
        <path d="M 37.796875 64.3125 
L 12.890625 25.390625 
L 37.796875 25.390625 
z
M 35.203125 72.90625 
L 47.609375 72.90625 
L 47.609375 25.390625 
L 58.015625 25.390625 
L 58.015625 17.1875 
L 47.609375 17.1875 
L 47.609375 0 
L 37.796875 0 
L 37.796875 17.1875 
L 4.890625 17.1875 
L 4.890625 26.703125 
z
" id="DejaVuSans-52"/>
       </defs>
       <use xlink:href="#DejaVuSans-52"/>
       <use x="63.623047" xlink:href="#DejaVuSans-48"/>
       <use x="127.246094" xlink:href="#DejaVuSans-48"/>
       <use x="190.869141" xlink:href="#DejaVuSans-48"/>
      </g>
     </g>
    </g>
    <g id="ytick_7">
     <g id="line2d_9">
      <g>
       <use style="stroke:#000000;stroke-width:0.8;" x="61.707813" xlink:href="#mef0b8e20f7" y="23.892116"/>
      </g>
     </g>
     <g id="text_10">
      <!-- 5000 -->
      <g transform="translate(29.257812 27.691334)scale(0.1 -0.1)">
       <defs>
        <path d="M 10.796875 72.90625 
L 49.515625 72.90625 
L 49.515625 64.59375 
L 19.828125 64.59375 
L 19.828125 46.734375 
Q 21.96875 47.46875 24.109375 47.828125 
Q 26.265625 48.1875 28.421875 48.1875 
Q 40.625 48.1875 47.75 41.5 
Q 54.890625 34.8125 54.890625 23.390625 
Q 54.890625 11.625 47.5625 5.09375 
Q 40.234375 -1.421875 26.90625 -1.421875 
Q 22.3125 -1.421875 17.546875 -0.640625 
Q 12.796875 0.140625 7.71875 1.703125 
L 7.71875 11.625 
Q 12.109375 9.234375 16.796875 8.0625 
Q 21.484375 6.890625 26.703125 6.890625 
Q 35.15625 6.890625 40.078125 11.328125 
Q 45.015625 15.765625 45.015625 23.390625 
Q 45.015625 31 40.078125 35.4375 
Q 35.15625 39.890625 26.703125 39.890625 
Q 22.75 39.890625 18.8125 39.015625 
Q 14.890625 38.140625 10.796875 36.28125 
z
" id="DejaVuSans-53"/>
       </defs>
       <use xlink:href="#DejaVuSans-53"/>
       <use x="63.623047" xlink:href="#DejaVuSans-48"/>
       <use x="127.246094" xlink:href="#DejaVuSans-48"/>
       <use x="190.869141" xlink:href="#DejaVuSans-48"/>
      </g>
     </g>
    </g>
    <g id="text_11">
     <!-- Reached region coverage -->
     <g transform="translate(14.798438 219.136625)rotate(-90)scale(0.1 -0.1)">
      <defs>
       <path d="M 44.390625 34.1875 
Q 47.5625 33.109375 50.5625 29.59375 
Q 53.5625 26.078125 56.59375 19.921875 
L 66.609375 0 
L 56 0 
L 46.6875 18.703125 
Q 43.0625 26.03125 39.671875 28.421875 
Q 36.28125 30.8125 30.421875 30.8125 
L 19.671875 30.8125 
L 19.671875 0 
L 9.8125 0 
L 9.8125 72.90625 
L 32.078125 72.90625 
Q 44.578125 72.90625 50.734375 67.671875 
Q 56.890625 62.453125 56.890625 51.90625 
Q 56.890625 45.015625 53.6875 40.46875 
Q 50.484375 35.9375 44.390625 34.1875 
z
M 19.671875 64.796875 
L 19.671875 38.921875 
L 32.078125 38.921875 
Q 39.203125 38.921875 42.84375 42.21875 
Q 46.484375 45.515625 46.484375 51.90625 
Q 46.484375 58.296875 42.84375 61.546875 
Q 39.203125 64.796875 32.078125 64.796875 
z
" id="DejaVuSans-82"/>
      </defs>
      <use xlink:href="#DejaVuSans-82"/>
      <use x="64.982422" xlink:href="#DejaVuSans-101"/>
      <use x="126.505859" xlink:href="#DejaVuSans-97"/>
      <use x="187.785156" xlink:href="#DejaVuSans-99"/>
      <use x="242.765625" xlink:href="#DejaVuSans-104"/>
      <use x="306.144531" xlink:href="#DejaVuSans-101"/>
      <use x="367.667969" xlink:href="#DejaVuSans-100"/>
      <use x="431.144531" xlink:href="#DejaVuSans-32"/>
      <use x="462.931641" xlink:href="#DejaVuSans-114"/>
      <use x="501.794922" xlink:href="#DejaVuSans-101"/>
      <use x="563.318359" xlink:href="#DejaVuSans-103"/>
      <use x="626.794922" xlink:href="#DejaVuSans-105"/>
      <use x="654.578125" xlink:href="#DejaVuSans-111"/>
      <use x="715.759766" xlink:href="#DejaVuSans-110"/>
      <use x="779.138672" xlink:href="#DejaVuSans-32"/>
      <use x="810.925781" xlink:href="#DejaVuSans-99"/>
      <use x="865.90625" xlink:href="#DejaVuSans-111"/>
      <use x="927.087891" xlink:href="#DejaVuSans-118"/>
      <use x="986.267578" xlink:href="#DejaVuSans-101"/>
      <use x="1047.791016" xlink:href="#DejaVuSans-114"/>
      <use x="1088.904297" xlink:href="#DejaVuSans-97"/>
      <use x="1150.183594" xlink:href="#DejaVuSans-103"/>
      <use x="1213.660156" xlink:href="#DejaVuSans-101"/>
     </g>
    </g>
   </g>
   <g id="line2d_10">
    <path clip-path="url(#p86ca32c577)" d="M 150.987813 98.01318 
L 150.987813 81.355381 
" style="fill:none;stroke:#3f3f3f;stroke-linecap:square;stroke-width:1.5;"/>
   </g>
   <g id="line2d_11">
    <path clip-path="url(#p86ca32c577)" d="M 150.987813 96.42721 
L 150.987813 86.205379 
" style="fill:none;stroke:#3f3f3f;stroke-linecap:square;stroke-width:4.5;"/>
   </g>
   <g id="line2d_12">
    <path clip-path="url(#p86ca32c577)" d="M 329.547813 129.85536 
L 329.547813 86.348628 
" style="fill:none;stroke:#3f3f3f;stroke-linecap:square;stroke-width:1.5;"/>
   </g>
   <g id="line2d_13">
    <path clip-path="url(#p86ca32c577)" d="M 329.547813 117.709901 
L 329.547813 90.533542 
" style="fill:none;stroke:#3f3f3f;stroke-linecap:square;stroke-width:4.5;"/>
   </g>
   <g id="patch_3">
    <path d="M 61.707813 269.461627 
L 61.707813 23.892116 
" style="fill:none;stroke:#000000;stroke-linecap:square;stroke-linejoin:miter;stroke-width:0.8;"/>
   </g>
   <g id="patch_4">
    <path d="M 150.987813 288.430125 
L 329.547813 288.430125 
" style="fill:none;stroke:#000000;stroke-linecap:square;stroke-linejoin:miter;stroke-width:0.8;"/>
   </g>
   <g id="PathCollection_1">
    <defs>
     <path d="M 0 1.5 
C 0.397805 1.5 0.77937 1.341951 1.06066 1.06066 
C 1.341951 0.77937 1.5 0.397805 1.5 0 
C 1.5 -0.397805 1.341951 -0.77937 1.06066 -1.06066 
C 0.77937 -1.341951 0.397805 -1.5 0 -1.5 
C -0.397805 -1.5 -0.77937 -1.341951 -1.06066 -1.06066 
C -1.341951 -0.77937 -1.5 -0.397805 -1.5 0 
C -1.5 0.397805 -1.341951 0.77937 -1.06066 1.06066 
C -0.77937 1.341951 -0.397805 1.5 0 1.5 
z
" id="m995438ce8c" style="stroke:#3f3f3f;"/>
    </defs>
    <g clip-path="url(#p86ca32c577)">
     <use style="fill:#ffffff;stroke:#3f3f3f;" x="150.987813" xlink:href="#m995438ce8c" y="89.868458"/>
    </g>
   </g>
   <g id="PathCollection_2">
    <g clip-path="url(#p86ca32c577)">
     <use style="fill:#ffffff;stroke:#3f3f3f;" x="329.547813" xlink:href="#m995438ce8c" y="99.200099"/>
    </g>
   </g>
   <g id="text_12">
    <!-- libpcap_fuzz_both (16h:30m, 20 trials/fuzzer) -->
    <g transform="translate(104.453125 16.318125)scale(0.12 -0.12)">
     <defs>
      <path d="M 48.6875 27.296875 
Q 48.6875 37.203125 44.609375 42.84375 
Q 40.53125 48.484375 33.40625 48.484375 
Q 26.265625 48.484375 22.1875 42.84375 
Q 18.109375 37.203125 18.109375 27.296875 
Q 18.109375 17.390625 22.1875 11.75 
Q 26.265625 6.109375 33.40625 6.109375 
Q 40.53125 6.109375 44.609375 11.75 
Q 48.6875 17.390625 48.6875 27.296875 
z
M 18.109375 46.390625 
Q 20.953125 51.265625 25.265625 53.625 
Q 29.59375 56 35.59375 56 
Q 45.5625 56 51.78125 48.09375 
Q 58.015625 40.1875 58.015625 27.296875 
Q 58.015625 14.40625 51.78125 6.484375 
Q 45.5625 -1.421875 35.59375 -1.421875 
Q 29.59375 -1.421875 25.265625 0.953125 
Q 20.953125 3.328125 18.109375 8.203125 
L 18.109375 0 
L 9.078125 0 
L 9.078125 75.984375 
L 18.109375 75.984375 
z
" id="DejaVuSans-98"/>
      <path d="M 33.015625 40.375 
Q 26.375 40.375 22.484375 35.828125 
Q 18.609375 31.296875 18.609375 23.390625 
Q 18.609375 15.53125 22.484375 10.953125 
Q 26.375 6.390625 33.015625 6.390625 
Q 39.65625 6.390625 43.53125 10.953125 
Q 47.40625 15.53125 47.40625 23.390625 
Q 47.40625 31.296875 43.53125 35.828125 
Q 39.65625 40.375 33.015625 40.375 
z
M 52.59375 71.296875 
L 52.59375 62.3125 
Q 48.875 64.0625 45.09375 64.984375 
Q 41.3125 65.921875 37.59375 65.921875 
Q 27.828125 65.921875 22.671875 59.328125 
Q 17.53125 52.734375 16.796875 39.40625 
Q 19.671875 43.65625 24.015625 45.921875 
Q 28.375 48.1875 33.59375 48.1875 
Q 44.578125 48.1875 50.953125 41.515625 
Q 57.328125 34.859375 57.328125 23.390625 
Q 57.328125 12.15625 50.6875 5.359375 
Q 44.046875 -1.421875 33.015625 -1.421875 
Q 20.359375 -1.421875 13.671875 8.265625 
Q 6.984375 17.96875 6.984375 36.375 
Q 6.984375 53.65625 15.1875 63.9375 
Q 23.390625 74.21875 37.203125 74.21875 
Q 40.921875 74.21875 44.703125 73.484375 
Q 48.484375 72.75 52.59375 71.296875 
z
" id="DejaVuSans-54"/>
      <path d="M 11.71875 12.40625 
L 22.015625 12.40625 
L 22.015625 0 
L 11.71875 0 
z
M 11.71875 51.703125 
L 22.015625 51.703125 
L 22.015625 39.3125 
L 11.71875 39.3125 
z
" id="DejaVuSans-58"/>
      <path d="M 11.71875 12.40625 
L 22.015625 12.40625 
L 22.015625 4 
L 14.015625 -11.625 
L 7.71875 -11.625 
L 11.71875 4 
z
" id="DejaVuSans-44"/>
      <path d="M 25.390625 72.90625 
L 33.6875 72.90625 
L 8.296875 -9.28125 
L 0 -9.28125 
z
" id="DejaVuSans-47"/>
     </defs>
     <use xlink:href="#DejaVuSans-108"/>
     <use x="27.783203" xlink:href="#DejaVuSans-105"/>
     <use x="55.566406" xlink:href="#DejaVuSans-98"/>
     <use x="119.042969" xlink:href="#DejaVuSans-112"/>
     <use x="182.519531" xlink:href="#DejaVuSans-99"/>
     <use x="237.5" xlink:href="#DejaVuSans-97"/>
     <use x="298.779297" xlink:href="#DejaVuSans-112"/>
     <use x="362.255859" xlink:href="#DejaVuSans-95"/>
     <use x="412.255859" xlink:href="#DejaVuSans-102"/>
     <use x="447.460938" xlink:href="#DejaVuSans-117"/>
     <use x="510.839844" xlink:href="#DejaVuSans-122"/>
     <use x="563.330078" xlink:href="#DejaVuSans-122"/>
     <use x="615.820312" xlink:href="#DejaVuSans-95"/>
     <use x="665.820312" xlink:href="#DejaVuSans-98"/>
     <use x="729.296875" xlink:href="#DejaVuSans-111"/>
     <use x="790.478516" xlink:href="#DejaVuSans-116"/>
     <use x="829.6875" xlink:href="#DejaVuSans-104"/>
     <use x="893.066406" xlink:href="#DejaVuSans-32"/>
     <use x="924.853516" xlink:href="#DejaVuSans-40"/>
     <use x="963.867188" xlink:href="#DejaVuSans-49"/>
     <use x="1027.490234" xlink:href="#DejaVuSans-54"/>
     <use x="1091.113281" xlink:href="#DejaVuSans-104"/>
     <use x="1154.492188" xlink:href="#DejaVuSans-58"/>
     <use x="1188.183594" xlink:href="#DejaVuSans-51"/>
     <use x="1251.806641" xlink:href="#DejaVuSans-48"/>
     <use x="1315.429688" xlink:href="#DejaVuSans-109"/>
     <use x="1412.841797" xlink:href="#DejaVuSans-44"/>
     <use x="1444.628906" xlink:href="#DejaVuSans-32"/>
     <use x="1476.416016" xlink:href="#DejaVuSans-50"/>
     <use x="1540.039062" xlink:href="#DejaVuSans-48"/>
     <use x="1603.662109" xlink:href="#DejaVuSans-32"/>
     <use x="1635.449219" xlink:href="#DejaVuSans-116"/>
     <use x="1674.658203" xlink:href="#DejaVuSans-114"/>
     <use x="1715.771484" xlink:href="#DejaVuSans-105"/>
     <use x="1743.554688" xlink:href="#DejaVuSans-97"/>
     <use x="1804.833984" xlink:href="#DejaVuSans-108"/>
     <use x="1832.617188" xlink:href="#DejaVuSans-115"/>
     <use x="1884.716797" xlink:href="#DejaVuSans-47"/>
     <use x="1918.408203" xlink:href="#DejaVuSans-102"/>
     <use x="1953.613281" xlink:href="#DejaVuSans-117"/>
     <use x="2016.992188" xlink:href="#DejaVuSans-122"/>
     <use x="2069.482422" xlink:href="#DejaVuSans-122"/>
     <use x="2121.972656" xlink:href="#DejaVuSans-101"/>
     <use x="2183.496094" xlink:href="#DejaVuSans-114"/>
     <use x="2224.609375" xlink:href="#DejaVuSans-41"/>
    </g>
   </g>
  </g>
 </g>
 <defs>
  <clipPath id="p86ca32c577">
   <rect height="266.112" width="357.12" x="61.707813" y="22.318125"/>
  </clipPath>
 </defs>
</svg>
