<?xml version="1.0" encoding="utf-8" standalone="no"?>
<!DOCTYPE svg PUBLIC "-//W3C//DTD SVG 1.1//EN"
  "http://www.w3.org/Graphics/SVG/1.1/DTD/svg11.dtd">
<!-- Created with matplotlib (https://matplotlib.org/) -->
<svg height="325.986375pt" version="1.1" viewBox="0 0 896.763437 325.986375" width="896.763437pt" xmlns="http://www.w3.org/2000/svg" xmlns:xlink="http://www.w3.org/1999/xlink">
 <metadata>
  <rdf:RDF xmlns:cc="http://creativecommons.org/ns#" xmlns:dc="http://purl.org/dc/elements/1.1/" xmlns:rdf="http://www.w3.org/1999/02/22-rdf-syntax-ns#">
   <cc:Work>
    <dc:type rdf:resource="http://purl.org/dc/dcmitype/StillImage"/>
    <dc:date>2020-12-08T16:47:52.297564</dc:date>
    <dc:format>image/svg+xml</dc:format>
    <dc:creator>
     <cc:Agent>
      <dc:title>Matplotlib v3.3.3, https://matplotlib.org/</dc:title>
     </cc:Agent>
    </dc:creator>
   </cc:Work>
  </rdf:RDF>
 </metadata>
 <defs>
  <style type="text/css">*{stroke-linecap:butt;stroke-linejoin:round;}</style>
 </defs>
 <g id="figure_1">
  <g id="patch_1">
   <path d="M 0 325.986375 
L 896.763438 325.986375 
L 896.763438 0 
L 0 0 
z
" style="fill:#ffffff;"/>
  </g>
  <g id="axes_1">
   <g id="patch_2">
    <path d="M 53.328125 288.430125 
L 767.568125 288.430125 
L 767.568125 22.318125 
L 53.328125 22.318125 
z
" style="fill:#ffffff;"/>
   </g>
   <g id="PolyCollection_1">
    <defs>
     <path d="M 85.79358 -104.358255 
L 85.79358 -58.122743 
L 192.832739 -102.787472 
L 255.446634 -111.382505 
L 299.871899 -121.446458 
L 334.330812 -125.362977 
L 362.485794 -128.241426 
L 386.290492 -134.662055 
L 406.911059 -138.593331 
L 425.099689 -139.096889 
L 441.369972 -149.191076 
L 456.088234 -156.632498 
L 469.524954 -164.753849 
L 481.885538 -171.996223 
L 493.329652 -172.641598 
L 503.983867 -173.939545 
L 513.950219 -175.653945 
L 523.312168 -175.268088 
L 532.138849 -174.973296 
L 540.488172 -177.046917 
L 548.409132 -176.934255 
L 555.943547 -177.265761 
L 563.127394 -186.328357 
L 569.991851 -185.738774 
L 576.564114 -186.13219 
L 582.868045 -186.667422 
L 588.924698 -182.516221 
L 594.752743 -188.219128 
L 600.368812 -184.17663 
L 605.787784 -188.737443 
L 611.023027 -186.824356 
L 616.086591 -185.514531 
L 620.989379 -187.759123 
L 625.741288 -190.736556 
L 630.351328 -190.811784 
L 634.827725 -202.831656 
L 639.178009 -206.128356 
L 643.409091 -210.420294 
L 647.527332 -211.443246 
L 651.538593 -211.614938 
L 655.448292 -213.447398 
L 659.261445 -214.757944 
L 662.982706 -214.884283 
L 666.6164 -214.71835 
L 670.166554 -215.292456 
L 673.636921 -211.762154 
L 677.031011 -215.51526 
L 680.352104 -215.779816 
L 683.603274 -217.158751 
L 686.787404 -216.975181 
L 689.907205 -217.830761 
L 692.965223 -217.53237 
L 695.963858 -212.726076 
L 698.905373 -218.182783 
L 701.791903 -217.433746 
L 704.625466 -217.411069 
L 707.407972 -219.147425 
L 710.141227 -218.255131 
L 712.826944 -215.155319 
L 715.46675 -218.786764 
L 718.062187 -217.89519 
L 720.614722 -214.958071 
L 723.125751 -220.026761 
L 725.596601 -221.089667 
L 728.028539 -224.55554 
L 730.422771 -228.40655 
L 732.780448 -227.435069 
L 735.10267 -228.383873 
L 735.10267 -291.57225 
L 735.10267 -291.57225 
L 732.780448 -290.951352 
L 730.422771 -290.074535 
L 728.028539 -291.08273 
L 725.596601 -285.911097 
L 723.125751 -284.502647 
L 720.614722 -279.909439 
L 718.062187 -283.337518 
L 715.46675 -284.171861 
L 712.826944 -283.047405 
L 710.141227 -282.587761 
L 707.407972 -283.125873 
L 704.625466 -282.83324 
L 701.791903 -281.884076 
L 698.905373 -281.326167 
L 695.963858 -282.112279 
L 692.965223 -282.702582 
L 689.907205 -280.872641 
L 686.787404 -281.178591 
L 683.603274 -279.923117 
L 680.352104 -279.275583 
L 677.031011 -280.562372 
L 673.636921 -279.909799 
L 670.166554 -278.617611 
L 666.6164 -279.288901 
L 662.982706 -277.795145 
L 659.261445 -276.498277 
L 655.448292 -277.795145 
L 651.538593 -274.682375 
L 647.527332 -276.254237 
L 643.409091 -272.849555 
L 639.178009 -271.970219 
L 634.827725 -264.981243 
L 630.351328 -256.399887 
L 625.741288 -255.538188 
L 620.989379 -254.573906 
L 616.086591 -253.129103 
L 611.023027 -251.654784 
L 605.787784 -252.553557 
L 600.368812 -251.399946 
L 594.752743 -250.910786 
L 588.924698 -252.080594 
L 582.868045 -251.853472 
L 576.564114 -248.219506 
L 569.991851 -250.220419 
L 563.127394 -249.010657 
L 555.943547 -240.751449 
L 548.409132 -237.808931 
L 540.488172 -237.492902 
L 532.138849 -238.79193 
L 523.312168 -234.931202 
L 513.950219 -234.966836 
L 503.983867 -235.102174 
L 493.329652 -233.29023 
L 481.885538 -232.354383 
L 469.524954 -224.652724 
L 456.088234 -211.309348 
L 441.369972 -202.484673 
L 425.099689 -188.441931 
L 406.911059 -187.224971 
L 386.290492 -175.728453 
L 362.485794 -164.150588 
L 334.330812 -146.404773 
L 299.871899 -142.122913 
L 255.446634 -118.92939 
L 192.832739 -112.08943 
L 85.79358 -104.358255 
z
" id="m8bb6673e4d" style="stroke:#98df8a;stroke-opacity:0.2;"/>
    </defs>
    <g clip-path="url(#p189265c7a0)">
     <use style="fill:#98df8a;fill-opacity:0.2;stroke:#98df8a;stroke-opacity:0.2;" x="0" xlink:href="#m8bb6673e4d" y="325.986375"/>
    </g>
   </g>
   <g id="PolyCollection_2">
    <defs>
     <path d="M 85.79358 -95.200274 
L 85.79358 -49.65225 
L 192.832739 -96.838726 
L 255.446634 -102.153976 
L 299.871899 -107.436111 
L 334.330812 -111.410941 
L 362.485794 -115.586617 
L 386.290492 -119.947663 
L 406.911059 -122.177858 
L 425.099689 -124.254358 
L 441.369972 -125.434605 
L 456.088234 -126.514428 
L 469.524954 -127.493468 
L 481.885538 -128.64456 
L 493.329652 -128.731665 
L 503.983867 -128.989023 
L 513.950219 -128.861604 
L 523.312168 -129.537933 
L 532.138849 -130.948903 
L 540.488172 -131.294446 
L 548.409132 -132.012528 
L 555.943547 -132.316319 
L 563.127394 -132.704695 
L 569.991851 -133.123307 
L 576.564114 -133.208973 
L 582.868045 -134.288796 
L 588.924698 -134.301754 
L 594.752743 -134.243803 
L 600.368812 -134.489283 
L 605.787784 -135.091824 
L 611.023027 -135.91213 
L 616.086591 -135.91429 
L 620.989379 -135.873256 
L 625.741288 -136.534108 
L 630.351328 -139.021661 
L 634.827725 -139.94671 
L 639.178009 -143.229372 
L 643.409091 -142.781966 
L 647.527332 -142.737333 
L 651.538593 -142.491493 
L 655.448292 -143.906781 
L 659.261445 -143.36759 
L 662.982706 -142.005933 
L 666.6164 -148.237593 
L 670.166554 -150.006343 
L 673.636921 -147.877651 
L 677.031011 -149.449874 
L 680.352104 -149.429717 
L 683.603274 -150.464908 
L 686.787404 -151.017058 
L 689.907205 -150.525378 
L 692.965223 -150.2691 
L 695.963858 -150.499102 
L 698.905373 -152.914667 
L 701.791903 -151.099844 
L 704.625466 -150.717227 
L 707.407972 -151.278375 
L 710.141227 -155.266522 
L 712.826944 -160.155962 
L 715.46675 -157.552508 
L 718.062187 -160.880163 
L 720.614722 -161.428713 
L 723.125751 -162.97358 
L 725.596601 -161.109086 
L 728.028539 -159.213996 
L 730.422771 -160.47271 
L 732.780448 -163.455541 
L 735.10267 -179.043561 
L 735.10267 -246.59936 
L 735.10267 -246.59936 
L 732.780448 -216.952505 
L 730.422771 -217.742935 
L 728.028539 -218.576559 
L 725.596601 -217.700462 
L 723.125751 -217.438785 
L 720.614722 -216.951065 
L 718.062187 -213.12957 
L 715.46675 -213.120932 
L 712.826944 -214.487268 
L 710.141227 -207.794884 
L 707.407972 -207.38743 
L 704.625466 -206.77985 
L 701.791903 -208.095074 
L 698.905373 -205.530854 
L 695.963858 -204.235426 
L 692.965223 -206.269813 
L 689.907205 -205.745019 
L 686.787404 -204.541016 
L 683.603274 -206.40983 
L 680.352104 -205.18783 
L 677.031011 -201.908047 
L 673.636921 -202.520307 
L 670.166554 -202.234154 
L 666.6164 -199.106986 
L 662.982706 -189.273755 
L 659.261445 -190.534989 
L 655.448292 -189.952244 
L 651.538593 -191.523747 
L 647.527332 -187.676697 
L 643.409091 -187.83687 
L 639.178009 -183.479424 
L 634.827725 -177.429174 
L 630.351328 -179.033072 
L 625.741288 -171.667237 
L 620.989379 -170.883286 
L 616.086591 -169.45396 
L 611.023027 -170.461075 
L 605.787784 -170.081337 
L 600.368812 -169.854214 
L 594.752743 -169.168166 
L 588.924698 -168.59442 
L 582.868045 -169.250953 
L 576.564114 -163.724777 
L 569.991851 -163.867314 
L 563.127394 -164.395348 
L 555.943547 -161.309213 
L 548.409132 -161.552893 
L 540.488172 -162.222383 
L 532.138849 -158.607495 
L 523.312168 -144.457491 
L 513.950219 -144.025202 
L 503.983867 -144.397741 
L 493.329652 -143.737609 
L 481.885538 -143.735809 
L 469.524954 -143.390986 
L 456.088234 -142.367673 
L 441.369972 -140.25302 
L 425.099689 -140.037775 
L 406.911059 -139.646519 
L 386.290492 -136.52259 
L 362.485794 -132.807638 
L 334.330812 -119.246138 
L 299.871899 -114.133535 
L 255.446634 -110.533764 
L 192.832739 -105.595733 
L 85.79358 -95.200274 
z
" id="m340e02a36e" style="stroke:#1f77b4;stroke-opacity:0.2;"/>
    </defs>
    <g clip-path="url(#p189265c7a0)">
     <use style="fill:#1f77b4;fill-opacity:0.2;stroke:#1f77b4;stroke-opacity:0.2;" x="0" xlink:href="#m340e02a36e" y="325.986375"/>
    </g>
   </g>
   <g id="matplotlib.axis_1">
    <g id="xtick_1">
     <g id="line2d_1">
      <defs>
       <path d="M 0 0 
L 0 3.5 
" id="m0f23637b0e" style="stroke:#000000;stroke-width:0.8;"/>
      </defs>
      <g>
       <use style="stroke:#000000;stroke-width:0.8;" x="85.79358" xlink:href="#m0f23637b0e" y="288.430125"/>
      </g>
     </g>
     <g id="text_1">
      <!-- 14m -->
      <g transform="translate(74.560767 303.028562)scale(0.1 -0.1)">
       <defs>
        <path d="M 12.40625 8.296875 
L 28.515625 8.296875 
L 28.515625 63.921875 
L 10.984375 60.40625 
L 10.984375 69.390625 
L 28.421875 72.90625 
L 38.28125 72.90625 
L 38.28125 8.296875 
L 54.390625 8.296875 
L 54.390625 0 
L 12.40625 0 
z
" id="DejaVuSans-49"/>
        <path d="M 37.796875 64.3125 
L 12.890625 25.390625 
L 37.796875 25.390625 
z
M 35.203125 72.90625 
L 47.609375 72.90625 
L 47.609375 25.390625 
L 58.015625 25.390625 
L 58.015625 17.1875 
L 47.609375 17.1875 
L 47.609375 0 
L 37.796875 0 
L 37.796875 17.1875 
L 4.890625 17.1875 
L 4.890625 26.703125 
z
" id="DejaVuSans-52"/>
        <path d="M 52 44.1875 
Q 55.375 50.25 60.0625 53.125 
Q 64.75 56 71.09375 56 
Q 79.640625 56 84.28125 50.015625 
Q 88.921875 44.046875 88.921875 33.015625 
L 88.921875 0 
L 79.890625 0 
L 79.890625 32.71875 
Q 79.890625 40.578125 77.09375 44.375 
Q 74.3125 48.1875 68.609375 48.1875 
Q 61.625 48.1875 57.5625 43.546875 
Q 53.515625 38.921875 53.515625 30.90625 
L 53.515625 0 
L 44.484375 0 
L 44.484375 32.71875 
Q 44.484375 40.625 41.703125 44.40625 
Q 38.921875 48.1875 33.109375 48.1875 
Q 26.21875 48.1875 22.15625 43.53125 
Q 18.109375 38.875 18.109375 30.90625 
L 18.109375 0 
L 9.078125 0 
L 9.078125 54.6875 
L 18.109375 54.6875 
L 18.109375 46.1875 
Q 21.1875 51.21875 25.484375 53.609375 
Q 29.78125 56 35.6875 56 
Q 41.65625 56 45.828125 52.96875 
Q 50 49.953125 52 44.1875 
z
" id="DejaVuSans-109"/>
       </defs>
       <use xlink:href="#DejaVuSans-49"/>
       <use x="63.623047" xlink:href="#DejaVuSans-52"/>
       <use x="127.246094" xlink:href="#DejaVuSans-109"/>
      </g>
     </g>
    </g>
    <g id="xtick_2">
     <g id="line2d_2">
      <g>
       <use style="stroke:#000000;stroke-width:0.8;" x="144.821912" xlink:href="#m0f23637b0e" y="288.430125"/>
      </g>
     </g>
     <g id="text_2">
      <!-- 21m -->
      <g transform="translate(133.589099 303.028562)scale(0.1 -0.1)">
       <defs>
        <path d="M 19.1875 8.296875 
L 53.609375 8.296875 
L 53.609375 0 
L 7.328125 0 
L 7.328125 8.296875 
Q 12.9375 14.109375 22.625 23.890625 
Q 32.328125 33.6875 34.8125 36.53125 
Q 39.546875 41.84375 41.421875 45.53125 
Q 43.3125 49.21875 43.3125 52.78125 
Q 43.3125 58.59375 39.234375 62.25 
Q 35.15625 65.921875 28.609375 65.921875 
Q 23.96875 65.921875 18.8125 64.3125 
Q 13.671875 62.703125 7.8125 59.421875 
L 7.8125 69.390625 
Q 13.765625 71.78125 18.9375 73 
Q 24.125 74.21875 28.421875 74.21875 
Q 39.75 74.21875 46.484375 68.546875 
Q 53.21875 62.890625 53.21875 53.421875 
Q 53.21875 48.921875 51.53125 44.890625 
Q 49.859375 40.875 45.40625 35.40625 
Q 44.1875 33.984375 37.640625 27.21875 
Q 31.109375 20.453125 19.1875 8.296875 
z
" id="DejaVuSans-50"/>
       </defs>
       <use xlink:href="#DejaVuSans-50"/>
       <use x="63.623047" xlink:href="#DejaVuSans-49"/>
       <use x="127.246094" xlink:href="#DejaVuSans-109"/>
      </g>
     </g>
    </g>
    <g id="xtick_3">
     <g id="line2d_3">
      <g>
       <use style="stroke:#000000;stroke-width:0.8;" x="203.850244" xlink:href="#m0f23637b0e" y="288.430125"/>
      </g>
     </g>
     <g id="text_3">
      <!-- 32m -->
      <g transform="translate(192.617431 303.028562)scale(0.1 -0.1)">
       <defs>
        <path d="M 40.578125 39.3125 
Q 47.65625 37.796875 51.625 33 
Q 55.609375 28.21875 55.609375 21.1875 
Q 55.609375 10.40625 48.1875 4.484375 
Q 40.765625 -1.421875 27.09375 -1.421875 
Q 22.515625 -1.421875 17.65625 -0.515625 
Q 12.796875 0.390625 7.625 2.203125 
L 7.625 11.71875 
Q 11.71875 9.328125 16.59375 8.109375 
Q 21.484375 6.890625 26.8125 6.890625 
Q 36.078125 6.890625 40.9375 10.546875 
Q 45.796875 14.203125 45.796875 21.1875 
Q 45.796875 27.640625 41.28125 31.265625 
Q 36.765625 34.90625 28.71875 34.90625 
L 20.21875 34.90625 
L 20.21875 43.015625 
L 29.109375 43.015625 
Q 36.375 43.015625 40.234375 45.921875 
Q 44.09375 48.828125 44.09375 54.296875 
Q 44.09375 59.90625 40.109375 62.90625 
Q 36.140625 65.921875 28.71875 65.921875 
Q 24.65625 65.921875 20.015625 65.03125 
Q 15.375 64.15625 9.8125 62.3125 
L 9.8125 71.09375 
Q 15.4375 72.65625 20.34375 73.4375 
Q 25.25 74.21875 29.59375 74.21875 
Q 40.828125 74.21875 47.359375 69.109375 
Q 53.90625 64.015625 53.90625 55.328125 
Q 53.90625 49.265625 50.4375 45.09375 
Q 46.96875 40.921875 40.578125 39.3125 
z
" id="DejaVuSans-51"/>
       </defs>
       <use xlink:href="#DejaVuSans-51"/>
       <use x="63.623047" xlink:href="#DejaVuSans-50"/>
       <use x="127.246094" xlink:href="#DejaVuSans-109"/>
      </g>
     </g>
    </g>
    <g id="xtick_4">
     <g id="line2d_4">
      <g>
       <use style="stroke:#000000;stroke-width:0.8;" x="262.878575" xlink:href="#m0f23637b0e" y="288.430125"/>
      </g>
     </g>
     <g id="text_4">
      <!-- 47m -->
      <g transform="translate(251.645763 303.028562)scale(0.1 -0.1)">
       <defs>
        <path d="M 8.203125 72.90625 
L 55.078125 72.90625 
L 55.078125 68.703125 
L 28.609375 0 
L 18.3125 0 
L 43.21875 64.59375 
L 8.203125 64.59375 
z
" id="DejaVuSans-55"/>
       </defs>
       <use xlink:href="#DejaVuSans-52"/>
       <use x="63.623047" xlink:href="#DejaVuSans-55"/>
       <use x="127.246094" xlink:href="#DejaVuSans-109"/>
      </g>
     </g>
    </g>
    <g id="xtick_5">
     <g id="line2d_5">
      <g>
       <use style="stroke:#000000;stroke-width:0.8;" x="321.906907" xlink:href="#m0f23637b0e" y="288.430125"/>
      </g>
     </g>
     <g id="text_5">
      <!-- 1h:9m -->
      <g transform="translate(305.82097 303.028562)scale(0.1 -0.1)">
       <defs>
        <path d="M 54.890625 33.015625 
L 54.890625 0 
L 45.90625 0 
L 45.90625 32.71875 
Q 45.90625 40.484375 42.875 44.328125 
Q 39.84375 48.1875 33.796875 48.1875 
Q 26.515625 48.1875 22.3125 43.546875 
Q 18.109375 38.921875 18.109375 30.90625 
L 18.109375 0 
L 9.078125 0 
L 9.078125 75.984375 
L 18.109375 75.984375 
L 18.109375 46.1875 
Q 21.34375 51.125 25.703125 53.5625 
Q 30.078125 56 35.796875 56 
Q 45.21875 56 50.046875 50.171875 
Q 54.890625 44.34375 54.890625 33.015625 
z
" id="DejaVuSans-104"/>
        <path d="M 11.71875 12.40625 
L 22.015625 12.40625 
L 22.015625 0 
L 11.71875 0 
z
M 11.71875 51.703125 
L 22.015625 51.703125 
L 22.015625 39.3125 
L 11.71875 39.3125 
z
" id="DejaVuSans-58"/>
        <path d="M 10.984375 1.515625 
L 10.984375 10.5 
Q 14.703125 8.734375 18.5 7.8125 
Q 22.3125 6.890625 25.984375 6.890625 
Q 35.75 6.890625 40.890625 13.453125 
Q 46.046875 20.015625 46.78125 33.40625 
Q 43.953125 29.203125 39.59375 26.953125 
Q 35.25 24.703125 29.984375 24.703125 
Q 19.046875 24.703125 12.671875 31.3125 
Q 6.296875 37.9375 6.296875 49.421875 
Q 6.296875 60.640625 12.9375 67.421875 
Q 19.578125 74.21875 30.609375 74.21875 
Q 43.265625 74.21875 49.921875 64.515625 
Q 56.59375 54.828125 56.59375 36.375 
Q 56.59375 19.140625 48.40625 8.859375 
Q 40.234375 -1.421875 26.421875 -1.421875 
Q 22.703125 -1.421875 18.890625 -0.6875 
Q 15.09375 0.046875 10.984375 1.515625 
z
M 30.609375 32.421875 
Q 37.25 32.421875 41.125 36.953125 
Q 45.015625 41.5 45.015625 49.421875 
Q 45.015625 57.28125 41.125 61.84375 
Q 37.25 66.40625 30.609375 66.40625 
Q 23.96875 66.40625 20.09375 61.84375 
Q 16.21875 57.28125 16.21875 49.421875 
Q 16.21875 41.5 20.09375 36.953125 
Q 23.96875 32.421875 30.609375 32.421875 
z
" id="DejaVuSans-57"/>
       </defs>
       <use xlink:href="#DejaVuSans-49"/>
       <use x="63.623047" xlink:href="#DejaVuSans-104"/>
       <use x="127.001953" xlink:href="#DejaVuSans-58"/>
       <use x="160.693359" xlink:href="#DejaVuSans-57"/>
       <use x="224.316406" xlink:href="#DejaVuSans-109"/>
      </g>
     </g>
    </g>
    <g id="xtick_6">
     <g id="line2d_6">
      <g>
       <use style="stroke:#000000;stroke-width:0.8;" x="380.935239" xlink:href="#m0f23637b0e" y="288.430125"/>
      </g>
     </g>
     <g id="text_6">
      <!-- 1h:41m -->
      <g transform="translate(361.668052 303.028562)scale(0.1 -0.1)">
       <use xlink:href="#DejaVuSans-49"/>
       <use x="63.623047" xlink:href="#DejaVuSans-104"/>
       <use x="127.001953" xlink:href="#DejaVuSans-58"/>
       <use x="160.693359" xlink:href="#DejaVuSans-52"/>
       <use x="224.316406" xlink:href="#DejaVuSans-49"/>
       <use x="287.939453" xlink:href="#DejaVuSans-109"/>
      </g>
     </g>
    </g>
    <g id="xtick_7">
     <g id="line2d_7">
      <g>
       <use style="stroke:#000000;stroke-width:0.8;" x="439.963571" xlink:href="#m0f23637b0e" y="288.430125"/>
      </g>
     </g>
     <g id="text_7">
      <!-- 2h:28m -->
      <g transform="translate(420.696384 303.028562)scale(0.1 -0.1)">
       <defs>
        <path d="M 31.78125 34.625 
Q 24.75 34.625 20.71875 30.859375 
Q 16.703125 27.09375 16.703125 20.515625 
Q 16.703125 13.921875 20.71875 10.15625 
Q 24.75 6.390625 31.78125 6.390625 
Q 38.8125 6.390625 42.859375 10.171875 
Q 46.921875 13.96875 46.921875 20.515625 
Q 46.921875 27.09375 42.890625 30.859375 
Q 38.875 34.625 31.78125 34.625 
z
M 21.921875 38.8125 
Q 15.578125 40.375 12.03125 44.71875 
Q 8.5 49.078125 8.5 55.328125 
Q 8.5 64.0625 14.71875 69.140625 
Q 20.953125 74.21875 31.78125 74.21875 
Q 42.671875 74.21875 48.875 69.140625 
Q 55.078125 64.0625 55.078125 55.328125 
Q 55.078125 49.078125 51.53125 44.71875 
Q 48 40.375 41.703125 38.8125 
Q 48.828125 37.15625 52.796875 32.3125 
Q 56.78125 27.484375 56.78125 20.515625 
Q 56.78125 9.90625 50.3125 4.234375 
Q 43.84375 -1.421875 31.78125 -1.421875 
Q 19.734375 -1.421875 13.25 4.234375 
Q 6.78125 9.90625 6.78125 20.515625 
Q 6.78125 27.484375 10.78125 32.3125 
Q 14.796875 37.15625 21.921875 38.8125 
z
M 18.3125 54.390625 
Q 18.3125 48.734375 21.84375 45.5625 
Q 25.390625 42.390625 31.78125 42.390625 
Q 38.140625 42.390625 41.71875 45.5625 
Q 45.3125 48.734375 45.3125 54.390625 
Q 45.3125 60.0625 41.71875 63.234375 
Q 38.140625 66.40625 31.78125 66.40625 
Q 25.390625 66.40625 21.84375 63.234375 
Q 18.3125 60.0625 18.3125 54.390625 
z
" id="DejaVuSans-56"/>
       </defs>
       <use xlink:href="#DejaVuSans-50"/>
       <use x="63.623047" xlink:href="#DejaVuSans-104"/>
       <use x="127.001953" xlink:href="#DejaVuSans-58"/>
       <use x="160.693359" xlink:href="#DejaVuSans-50"/>
       <use x="224.316406" xlink:href="#DejaVuSans-56"/>
       <use x="287.939453" xlink:href="#DejaVuSans-109"/>
      </g>
     </g>
    </g>
    <g id="xtick_8">
     <g id="line2d_8">
      <g>
       <use style="stroke:#000000;stroke-width:0.8;" x="498.991903" xlink:href="#m0f23637b0e" y="288.430125"/>
      </g>
     </g>
     <g id="text_8">
      <!-- 3h:37m -->
      <g transform="translate(479.724716 303.028562)scale(0.1 -0.1)">
       <use xlink:href="#DejaVuSans-51"/>
       <use x="63.623047" xlink:href="#DejaVuSans-104"/>
       <use x="127.001953" xlink:href="#DejaVuSans-58"/>
       <use x="160.693359" xlink:href="#DejaVuSans-51"/>
       <use x="224.316406" xlink:href="#DejaVuSans-55"/>
       <use x="287.939453" xlink:href="#DejaVuSans-109"/>
      </g>
     </g>
    </g>
    <g id="xtick_9">
     <g id="line2d_9">
      <g>
       <use style="stroke:#000000;stroke-width:0.8;" x="558.020235" xlink:href="#m0f23637b0e" y="288.430125"/>
      </g>
     </g>
     <g id="text_9">
      <!-- 5h:19m -->
      <g transform="translate(538.753048 303.028562)scale(0.1 -0.1)">
       <defs>
        <path d="M 10.796875 72.90625 
L 49.515625 72.90625 
L 49.515625 64.59375 
L 19.828125 64.59375 
L 19.828125 46.734375 
Q 21.96875 47.46875 24.109375 47.828125 
Q 26.265625 48.1875 28.421875 48.1875 
Q 40.625 48.1875 47.75 41.5 
Q 54.890625 34.8125 54.890625 23.390625 
Q 54.890625 11.625 47.5625 5.09375 
Q 40.234375 -1.421875 26.90625 -1.421875 
Q 22.3125 -1.421875 17.546875 -0.640625 
Q 12.796875 0.140625 7.71875 1.703125 
L 7.71875 11.625 
Q 12.109375 9.234375 16.796875 8.0625 
Q 21.484375 6.890625 26.703125 6.890625 
Q 35.15625 6.890625 40.078125 11.328125 
Q 45.015625 15.765625 45.015625 23.390625 
Q 45.015625 31 40.078125 35.4375 
Q 35.15625 39.890625 26.703125 39.890625 
Q 22.75 39.890625 18.8125 39.015625 
Q 14.890625 38.140625 10.796875 36.28125 
z
" id="DejaVuSans-53"/>
       </defs>
       <use xlink:href="#DejaVuSans-53"/>
       <use x="63.623047" xlink:href="#DejaVuSans-104"/>
       <use x="127.001953" xlink:href="#DejaVuSans-58"/>
       <use x="160.693359" xlink:href="#DejaVuSans-49"/>
       <use x="224.316406" xlink:href="#DejaVuSans-57"/>
       <use x="287.939453" xlink:href="#DejaVuSans-109"/>
      </g>
     </g>
    </g>
    <g id="xtick_10">
     <g id="line2d_10">
      <g>
       <use style="stroke:#000000;stroke-width:0.8;" x="617.048567" xlink:href="#m0f23637b0e" y="288.430125"/>
      </g>
     </g>
     <g id="text_10">
      <!-- 7h:47m -->
      <g transform="translate(597.78138 303.028562)scale(0.1 -0.1)">
       <use xlink:href="#DejaVuSans-55"/>
       <use x="63.623047" xlink:href="#DejaVuSans-104"/>
       <use x="127.001953" xlink:href="#DejaVuSans-58"/>
       <use x="160.693359" xlink:href="#DejaVuSans-52"/>
       <use x="224.316406" xlink:href="#DejaVuSans-55"/>
       <use x="287.939453" xlink:href="#DejaVuSans-109"/>
      </g>
     </g>
    </g>
    <g id="xtick_11">
     <g id="line2d_11">
      <g>
       <use style="stroke:#000000;stroke-width:0.8;" x="676.076899" xlink:href="#m0f23637b0e" y="288.430125"/>
      </g>
     </g>
     <g id="text_11">
      <!-- 11h:25m -->
      <g transform="translate(653.628462 303.028562)scale(0.1 -0.1)">
       <use xlink:href="#DejaVuSans-49"/>
       <use x="63.623047" xlink:href="#DejaVuSans-49"/>
       <use x="127.246094" xlink:href="#DejaVuSans-104"/>
       <use x="190.625" xlink:href="#DejaVuSans-58"/>
       <use x="224.316406" xlink:href="#DejaVuSans-50"/>
       <use x="287.939453" xlink:href="#DejaVuSans-53"/>
       <use x="351.5625" xlink:href="#DejaVuSans-109"/>
      </g>
     </g>
    </g>
    <g id="xtick_12">
     <g id="line2d_12">
      <g>
       <use style="stroke:#000000;stroke-width:0.8;" x="735.105231" xlink:href="#m0f23637b0e" y="288.430125"/>
      </g>
     </g>
     <g id="text_12">
      <!-- 16h:45m -->
      <g transform="translate(712.656794 303.028562)scale(0.1 -0.1)">
       <defs>
        <path d="M 33.015625 40.375 
Q 26.375 40.375 22.484375 35.828125 
Q 18.609375 31.296875 18.609375 23.390625 
Q 18.609375 15.53125 22.484375 10.953125 
Q 26.375 6.390625 33.015625 6.390625 
Q 39.65625 6.390625 43.53125 10.953125 
Q 47.40625 15.53125 47.40625 23.390625 
Q 47.40625 31.296875 43.53125 35.828125 
Q 39.65625 40.375 33.015625 40.375 
z
M 52.59375 71.296875 
L 52.59375 62.3125 
Q 48.875 64.0625 45.09375 64.984375 
Q 41.3125 65.921875 37.59375 65.921875 
Q 27.828125 65.921875 22.671875 59.328125 
Q 17.53125 52.734375 16.796875 39.40625 
Q 19.671875 43.65625 24.015625 45.921875 
Q 28.375 48.1875 33.59375 48.1875 
Q 44.578125 48.1875 50.953125 41.515625 
Q 57.328125 34.859375 57.328125 23.390625 
Q 57.328125 12.15625 50.6875 5.359375 
Q 44.046875 -1.421875 33.015625 -1.421875 
Q 20.359375 -1.421875 13.671875 8.265625 
Q 6.984375 17.96875 6.984375 36.375 
Q 6.984375 53.65625 15.1875 63.9375 
Q 23.390625 74.21875 37.203125 74.21875 
Q 40.921875 74.21875 44.703125 73.484375 
Q 48.484375 72.75 52.59375 71.296875 
z
" id="DejaVuSans-54"/>
       </defs>
       <use xlink:href="#DejaVuSans-49"/>
       <use x="63.623047" xlink:href="#DejaVuSans-54"/>
       <use x="127.246094" xlink:href="#DejaVuSans-104"/>
       <use x="190.625" xlink:href="#DejaVuSans-58"/>
       <use x="224.316406" xlink:href="#DejaVuSans-52"/>
       <use x="287.939453" xlink:href="#DejaVuSans-53"/>
       <use x="351.5625" xlink:href="#DejaVuSans-109"/>
      </g>
     </g>
    </g>
    <g id="xtick_13">
     <g id="line2d_13">
      <defs>
       <path d="M 0 0 
L 0 2 
" id="mdb3e909e52" style="stroke:#000000;stroke-width:0.6;"/>
      </defs>
      <g>
       <use style="stroke:#000000;stroke-width:0.6;" x="67.60495" xlink:href="#mdb3e909e52" y="288.430125"/>
      </g>
     </g>
    </g>
    <g id="xtick_14">
     <g id="line2d_14">
      <g>
       <use style="stroke:#000000;stroke-width:0.6;" x="209.103023" xlink:href="#mdb3e909e52" y="288.430125"/>
      </g>
     </g>
    </g>
    <g id="xtick_15">
     <g id="line2d_15">
      <g>
       <use style="stroke:#000000;stroke-width:0.6;" x="271.716918" xlink:href="#mdb3e909e52" y="288.430125"/>
      </g>
     </g>
    </g>
    <g id="xtick_16">
     <g id="line2d_16">
      <g>
       <use style="stroke:#000000;stroke-width:0.6;" x="316.142183" xlink:href="#mdb3e909e52" y="288.430125"/>
      </g>
     </g>
    </g>
    <g id="xtick_17">
     <g id="line2d_17">
      <g>
       <use style="stroke:#000000;stroke-width:0.6;" x="350.601096" xlink:href="#mdb3e909e52" y="288.430125"/>
      </g>
     </g>
    </g>
    <g id="xtick_18">
     <g id="line2d_18">
      <g>
       <use style="stroke:#000000;stroke-width:0.6;" x="378.756077" xlink:href="#mdb3e909e52" y="288.430125"/>
      </g>
     </g>
    </g>
    <g id="xtick_19">
     <g id="line2d_19">
      <g>
       <use style="stroke:#000000;stroke-width:0.6;" x="402.560775" xlink:href="#mdb3e909e52" y="288.430125"/>
      </g>
     </g>
    </g>
    <g id="xtick_20">
     <g id="line2d_20">
      <g>
       <use style="stroke:#000000;stroke-width:0.6;" x="423.181343" xlink:href="#mdb3e909e52" y="288.430125"/>
      </g>
     </g>
    </g>
    <g id="xtick_21">
     <g id="line2d_21">
      <g>
       <use style="stroke:#000000;stroke-width:0.6;" x="441.369972" xlink:href="#mdb3e909e52" y="288.430125"/>
      </g>
     </g>
    </g>
    <g id="xtick_22">
     <g id="line2d_22">
      <g>
       <use style="stroke:#000000;stroke-width:0.6;" x="564.679415" xlink:href="#mdb3e909e52" y="288.430125"/>
      </g>
     </g>
    </g>
    <g id="xtick_23">
     <g id="line2d_23">
      <g>
       <use style="stroke:#000000;stroke-width:0.6;" x="627.29331" xlink:href="#mdb3e909e52" y="288.430125"/>
      </g>
     </g>
    </g>
    <g id="xtick_24">
     <g id="line2d_24">
      <g>
       <use style="stroke:#000000;stroke-width:0.6;" x="671.718575" xlink:href="#mdb3e909e52" y="288.430125"/>
      </g>
     </g>
    </g>
    <g id="xtick_25">
     <g id="line2d_25">
      <g>
       <use style="stroke:#000000;stroke-width:0.6;" x="706.177488" xlink:href="#mdb3e909e52" y="288.430125"/>
      </g>
     </g>
    </g>
    <g id="xtick_26">
     <g id="line2d_26">
      <g>
       <use style="stroke:#000000;stroke-width:0.6;" x="734.33247" xlink:href="#mdb3e909e52" y="288.430125"/>
      </g>
     </g>
    </g>
    <g id="xtick_27">
     <g id="line2d_27">
      <g>
       <use style="stroke:#000000;stroke-width:0.6;" x="758.137168" xlink:href="#mdb3e909e52" y="288.430125"/>
      </g>
     </g>
    </g>
    <g id="text_13">
     <!-- Time (hour:minute) -->
     <g transform="translate(362.041094 316.706687)scale(0.1 -0.1)">
      <defs>
       <path d="M -0.296875 72.90625 
L 61.375 72.90625 
L 61.375 64.59375 
L 35.5 64.59375 
L 35.5 0 
L 25.59375 0 
L 25.59375 64.59375 
L -0.296875 64.59375 
z
" id="DejaVuSans-84"/>
       <path d="M 9.421875 54.6875 
L 18.40625 54.6875 
L 18.40625 0 
L 9.421875 0 
z
M 9.421875 75.984375 
L 18.40625 75.984375 
L 18.40625 64.59375 
L 9.421875 64.59375 
z
" id="DejaVuSans-105"/>
       <path d="M 56.203125 29.59375 
L 56.203125 25.203125 
L 14.890625 25.203125 
Q 15.484375 15.921875 20.484375 11.0625 
Q 25.484375 6.203125 34.421875 6.203125 
Q 39.59375 6.203125 44.453125 7.46875 
Q 49.3125 8.734375 54.109375 11.28125 
L 54.109375 2.78125 
Q 49.265625 0.734375 44.1875 -0.34375 
Q 39.109375 -1.421875 33.890625 -1.421875 
Q 20.796875 -1.421875 13.15625 6.1875 
Q 5.515625 13.8125 5.515625 26.8125 
Q 5.515625 40.234375 12.765625 48.109375 
Q 20.015625 56 32.328125 56 
Q 43.359375 56 49.78125 48.890625 
Q 56.203125 41.796875 56.203125 29.59375 
z
M 47.21875 32.234375 
Q 47.125 39.59375 43.09375 43.984375 
Q 39.0625 48.390625 32.421875 48.390625 
Q 24.90625 48.390625 20.390625 44.140625 
Q 15.875 39.890625 15.1875 32.171875 
z
" id="DejaVuSans-101"/>
       <path id="DejaVuSans-32"/>
       <path d="M 31 75.875 
Q 24.46875 64.65625 21.28125 53.65625 
Q 18.109375 42.671875 18.109375 31.390625 
Q 18.109375 20.125 21.3125 9.0625 
Q 24.515625 -2 31 -13.1875 
L 23.1875 -13.1875 
Q 15.875 -1.703125 12.234375 9.375 
Q 8.59375 20.453125 8.59375 31.390625 
Q 8.59375 42.28125 12.203125 53.3125 
Q 15.828125 64.359375 23.1875 75.875 
z
" id="DejaVuSans-40"/>
       <path d="M 30.609375 48.390625 
Q 23.390625 48.390625 19.1875 42.75 
Q 14.984375 37.109375 14.984375 27.296875 
Q 14.984375 17.484375 19.15625 11.84375 
Q 23.34375 6.203125 30.609375 6.203125 
Q 37.796875 6.203125 41.984375 11.859375 
Q 46.1875 17.53125 46.1875 27.296875 
Q 46.1875 37.015625 41.984375 42.703125 
Q 37.796875 48.390625 30.609375 48.390625 
z
M 30.609375 56 
Q 42.328125 56 49.015625 48.375 
Q 55.71875 40.765625 55.71875 27.296875 
Q 55.71875 13.875 49.015625 6.21875 
Q 42.328125 -1.421875 30.609375 -1.421875 
Q 18.84375 -1.421875 12.171875 6.21875 
Q 5.515625 13.875 5.515625 27.296875 
Q 5.515625 40.765625 12.171875 48.375 
Q 18.84375 56 30.609375 56 
z
" id="DejaVuSans-111"/>
       <path d="M 8.5 21.578125 
L 8.5 54.6875 
L 17.484375 54.6875 
L 17.484375 21.921875 
Q 17.484375 14.15625 20.5 10.265625 
Q 23.53125 6.390625 29.59375 6.390625 
Q 36.859375 6.390625 41.078125 11.03125 
Q 45.3125 15.671875 45.3125 23.6875 
L 45.3125 54.6875 
L 54.296875 54.6875 
L 54.296875 0 
L 45.3125 0 
L 45.3125 8.40625 
Q 42.046875 3.421875 37.71875 1 
Q 33.40625 -1.421875 27.6875 -1.421875 
Q 18.265625 -1.421875 13.375 4.4375 
Q 8.5 10.296875 8.5 21.578125 
z
M 31.109375 56 
z
" id="DejaVuSans-117"/>
       <path d="M 41.109375 46.296875 
Q 39.59375 47.171875 37.8125 47.578125 
Q 36.03125 48 33.890625 48 
Q 26.265625 48 22.1875 43.046875 
Q 18.109375 38.09375 18.109375 28.8125 
L 18.109375 0 
L 9.078125 0 
L 9.078125 54.6875 
L 18.109375 54.6875 
L 18.109375 46.1875 
Q 20.953125 51.171875 25.484375 53.578125 
Q 30.03125 56 36.53125 56 
Q 37.453125 56 38.578125 55.875 
Q 39.703125 55.765625 41.0625 55.515625 
z
" id="DejaVuSans-114"/>
       <path d="M 54.890625 33.015625 
L 54.890625 0 
L 45.90625 0 
L 45.90625 32.71875 
Q 45.90625 40.484375 42.875 44.328125 
Q 39.84375 48.1875 33.796875 48.1875 
Q 26.515625 48.1875 22.3125 43.546875 
Q 18.109375 38.921875 18.109375 30.90625 
L 18.109375 0 
L 9.078125 0 
L 9.078125 54.6875 
L 18.109375 54.6875 
L 18.109375 46.1875 
Q 21.34375 51.125 25.703125 53.5625 
Q 30.078125 56 35.796875 56 
Q 45.21875 56 50.046875 50.171875 
Q 54.890625 44.34375 54.890625 33.015625 
z
" id="DejaVuSans-110"/>
       <path d="M 18.3125 70.21875 
L 18.3125 54.6875 
L 36.8125 54.6875 
L 36.8125 47.703125 
L 18.3125 47.703125 
L 18.3125 18.015625 
Q 18.3125 11.328125 20.140625 9.421875 
Q 21.96875 7.515625 27.59375 7.515625 
L 36.8125 7.515625 
L 36.8125 0 
L 27.59375 0 
Q 17.1875 0 13.234375 3.875 
Q 9.28125 7.765625 9.28125 18.015625 
L 9.28125 47.703125 
L 2.6875 47.703125 
L 2.6875 54.6875 
L 9.28125 54.6875 
L 9.28125 70.21875 
z
" id="DejaVuSans-116"/>
       <path d="M 8.015625 75.875 
L 15.828125 75.875 
Q 23.140625 64.359375 26.78125 53.3125 
Q 30.421875 42.28125 30.421875 31.390625 
Q 30.421875 20.453125 26.78125 9.375 
Q 23.140625 -1.703125 15.828125 -13.1875 
L 8.015625 -13.1875 
Q 14.5 -2 17.703125 9.0625 
Q 20.90625 20.125 20.90625 31.390625 
Q 20.90625 42.671875 17.703125 53.65625 
Q 14.5 64.65625 8.015625 75.875 
z
" id="DejaVuSans-41"/>
      </defs>
      <use xlink:href="#DejaVuSans-84"/>
      <use x="57.958984" xlink:href="#DejaVuSans-105"/>
      <use x="85.742188" xlink:href="#DejaVuSans-109"/>
      <use x="183.154297" xlink:href="#DejaVuSans-101"/>
      <use x="244.677734" xlink:href="#DejaVuSans-32"/>
      <use x="276.464844" xlink:href="#DejaVuSans-40"/>
      <use x="315.478516" xlink:href="#DejaVuSans-104"/>
      <use x="378.857422" xlink:href="#DejaVuSans-111"/>
      <use x="440.039062" xlink:href="#DejaVuSans-117"/>
      <use x="503.417969" xlink:href="#DejaVuSans-114"/>
      <use x="542.78125" xlink:href="#DejaVuSans-58"/>
      <use x="576.472656" xlink:href="#DejaVuSans-109"/>
      <use x="673.884766" xlink:href="#DejaVuSans-105"/>
      <use x="701.667969" xlink:href="#DejaVuSans-110"/>
      <use x="765.046875" xlink:href="#DejaVuSans-117"/>
      <use x="828.425781" xlink:href="#DejaVuSans-116"/>
      <use x="867.634766" xlink:href="#DejaVuSans-101"/>
      <use x="929.158203" xlink:href="#DejaVuSans-41"/>
     </g>
    </g>
   </g>
   <g id="matplotlib.axis_2">
    <g id="ytick_1">
     <g id="line2d_28">
      <defs>
       <path d="M 0 0 
L -3.5 0 
" id="mfb19c49869" style="stroke:#000000;stroke-width:0.8;"/>
      </defs>
      <g>
       <use style="stroke:#000000;stroke-width:0.8;" x="53.328125" xlink:href="#mfb19c49869" y="245.02573"/>
      </g>
     </g>
     <g id="text_14">
      <!-- 5000 -->
      <g transform="translate(20.878125 248.824949)scale(0.1 -0.1)">
       <defs>
        <path d="M 31.78125 66.40625 
Q 24.171875 66.40625 20.328125 58.90625 
Q 16.5 51.421875 16.5 36.375 
Q 16.5 21.390625 20.328125 13.890625 
Q 24.171875 6.390625 31.78125 6.390625 
Q 39.453125 6.390625 43.28125 13.890625 
Q 47.125 21.390625 47.125 36.375 
Q 47.125 51.421875 43.28125 58.90625 
Q 39.453125 66.40625 31.78125 66.40625 
z
M 31.78125 74.21875 
Q 44.046875 74.21875 50.515625 64.515625 
Q 56.984375 54.828125 56.984375 36.375 
Q 56.984375 17.96875 50.515625 8.265625 
Q 44.046875 -1.421875 31.78125 -1.421875 
Q 19.53125 -1.421875 13.0625 8.265625 
Q 6.59375 17.96875 6.59375 36.375 
Q 6.59375 54.828125 13.0625 64.515625 
Q 19.53125 74.21875 31.78125 74.21875 
z
" id="DejaVuSans-48"/>
       </defs>
       <use xlink:href="#DejaVuSans-53"/>
       <use x="63.623047" xlink:href="#DejaVuSans-48"/>
       <use x="127.246094" xlink:href="#DejaVuSans-48"/>
       <use x="190.869141" xlink:href="#DejaVuSans-48"/>
      </g>
     </g>
    </g>
    <g id="ytick_2">
     <g id="line2d_29">
      <g>
       <use style="stroke:#000000;stroke-width:0.8;" x="53.328125" xlink:href="#mfb19c49869" y="187.435157"/>
      </g>
     </g>
     <g id="text_15">
      <!-- 5200 -->
      <g transform="translate(20.878125 191.234376)scale(0.1 -0.1)">
       <use xlink:href="#DejaVuSans-53"/>
       <use x="63.623047" xlink:href="#DejaVuSans-50"/>
       <use x="127.246094" xlink:href="#DejaVuSans-48"/>
       <use x="190.869141" xlink:href="#DejaVuSans-48"/>
      </g>
     </g>
    </g>
    <g id="ytick_3">
     <g id="line2d_30">
      <g>
       <use style="stroke:#000000;stroke-width:0.8;" x="53.328125" xlink:href="#mfb19c49869" y="129.844584"/>
      </g>
     </g>
     <g id="text_16">
      <!-- 5400 -->
      <g transform="translate(20.878125 133.643803)scale(0.1 -0.1)">
       <use xlink:href="#DejaVuSans-53"/>
       <use x="63.623047" xlink:href="#DejaVuSans-52"/>
       <use x="127.246094" xlink:href="#DejaVuSans-48"/>
       <use x="190.869141" xlink:href="#DejaVuSans-48"/>
      </g>
     </g>
    </g>
    <g id="ytick_4">
     <g id="line2d_31">
      <g>
       <use style="stroke:#000000;stroke-width:0.8;" x="53.328125" xlink:href="#mfb19c49869" y="72.254011"/>
      </g>
     </g>
     <g id="text_17">
      <!-- 5600 -->
      <g transform="translate(20.878125 76.05323)scale(0.1 -0.1)">
       <use xlink:href="#DejaVuSans-53"/>
       <use x="63.623047" xlink:href="#DejaVuSans-54"/>
       <use x="127.246094" xlink:href="#DejaVuSans-48"/>
       <use x="190.869141" xlink:href="#DejaVuSans-48"/>
      </g>
     </g>
    </g>
    <g id="text_18">
     <!-- Edge coverage -->
     <g transform="translate(14.798438 192.762406)rotate(-90)scale(0.1 -0.1)">
      <defs>
       <path d="M 9.8125 72.90625 
L 55.90625 72.90625 
L 55.90625 64.59375 
L 19.671875 64.59375 
L 19.671875 43.015625 
L 54.390625 43.015625 
L 54.390625 34.71875 
L 19.671875 34.71875 
L 19.671875 8.296875 
L 56.78125 8.296875 
L 56.78125 0 
L 9.8125 0 
z
" id="DejaVuSans-69"/>
       <path d="M 45.40625 46.390625 
L 45.40625 75.984375 
L 54.390625 75.984375 
L 54.390625 0 
L 45.40625 0 
L 45.40625 8.203125 
Q 42.578125 3.328125 38.25 0.953125 
Q 33.9375 -1.421875 27.875 -1.421875 
Q 17.96875 -1.421875 11.734375 6.484375 
Q 5.515625 14.40625 5.515625 27.296875 
Q 5.515625 40.1875 11.734375 48.09375 
Q 17.96875 56 27.875 56 
Q 33.9375 56 38.25 53.625 
Q 42.578125 51.265625 45.40625 46.390625 
z
M 14.796875 27.296875 
Q 14.796875 17.390625 18.875 11.75 
Q 22.953125 6.109375 30.078125 6.109375 
Q 37.203125 6.109375 41.296875 11.75 
Q 45.40625 17.390625 45.40625 27.296875 
Q 45.40625 37.203125 41.296875 42.84375 
Q 37.203125 48.484375 30.078125 48.484375 
Q 22.953125 48.484375 18.875 42.84375 
Q 14.796875 37.203125 14.796875 27.296875 
z
" id="DejaVuSans-100"/>
       <path d="M 45.40625 27.984375 
Q 45.40625 37.75 41.375 43.109375 
Q 37.359375 48.484375 30.078125 48.484375 
Q 22.859375 48.484375 18.828125 43.109375 
Q 14.796875 37.75 14.796875 27.984375 
Q 14.796875 18.265625 18.828125 12.890625 
Q 22.859375 7.515625 30.078125 7.515625 
Q 37.359375 7.515625 41.375 12.890625 
Q 45.40625 18.265625 45.40625 27.984375 
z
M 54.390625 6.78125 
Q 54.390625 -7.171875 48.1875 -13.984375 
Q 42 -20.796875 29.203125 -20.796875 
Q 24.46875 -20.796875 20.265625 -20.09375 
Q 16.0625 -19.390625 12.109375 -17.921875 
L 12.109375 -9.1875 
Q 16.0625 -11.328125 19.921875 -12.34375 
Q 23.78125 -13.375 27.78125 -13.375 
Q 36.625 -13.375 41.015625 -8.765625 
Q 45.40625 -4.15625 45.40625 5.171875 
L 45.40625 9.625 
Q 42.625 4.78125 38.28125 2.390625 
Q 33.9375 0 27.875 0 
Q 17.828125 0 11.671875 7.65625 
Q 5.515625 15.328125 5.515625 27.984375 
Q 5.515625 40.671875 11.671875 48.328125 
Q 17.828125 56 27.875 56 
Q 33.9375 56 38.28125 53.609375 
Q 42.625 51.21875 45.40625 46.390625 
L 45.40625 54.6875 
L 54.390625 54.6875 
z
" id="DejaVuSans-103"/>
       <path d="M 48.78125 52.59375 
L 48.78125 44.1875 
Q 44.96875 46.296875 41.140625 47.34375 
Q 37.3125 48.390625 33.40625 48.390625 
Q 24.65625 48.390625 19.8125 42.84375 
Q 14.984375 37.3125 14.984375 27.296875 
Q 14.984375 17.28125 19.8125 11.734375 
Q 24.65625 6.203125 33.40625 6.203125 
Q 37.3125 6.203125 41.140625 7.25 
Q 44.96875 8.296875 48.78125 10.40625 
L 48.78125 2.09375 
Q 45.015625 0.34375 40.984375 -0.53125 
Q 36.96875 -1.421875 32.421875 -1.421875 
Q 20.0625 -1.421875 12.78125 6.34375 
Q 5.515625 14.109375 5.515625 27.296875 
Q 5.515625 40.671875 12.859375 48.328125 
Q 20.21875 56 33.015625 56 
Q 37.15625 56 41.109375 55.140625 
Q 45.0625 54.296875 48.78125 52.59375 
z
" id="DejaVuSans-99"/>
       <path d="M 2.984375 54.6875 
L 12.5 54.6875 
L 29.59375 8.796875 
L 46.6875 54.6875 
L 56.203125 54.6875 
L 35.6875 0 
L 23.484375 0 
z
" id="DejaVuSans-118"/>
       <path d="M 34.28125 27.484375 
Q 23.390625 27.484375 19.1875 25 
Q 14.984375 22.515625 14.984375 16.5 
Q 14.984375 11.71875 18.140625 8.90625 
Q 21.296875 6.109375 26.703125 6.109375 
Q 34.1875 6.109375 38.703125 11.40625 
Q 43.21875 16.703125 43.21875 25.484375 
L 43.21875 27.484375 
z
M 52.203125 31.203125 
L 52.203125 0 
L 43.21875 0 
L 43.21875 8.296875 
Q 40.140625 3.328125 35.546875 0.953125 
Q 30.953125 -1.421875 24.3125 -1.421875 
Q 15.921875 -1.421875 10.953125 3.296875 
Q 6 8.015625 6 15.921875 
Q 6 25.140625 12.171875 29.828125 
Q 18.359375 34.515625 30.609375 34.515625 
L 43.21875 34.515625 
L 43.21875 35.40625 
Q 43.21875 41.609375 39.140625 45 
Q 35.0625 48.390625 27.6875 48.390625 
Q 23 48.390625 18.546875 47.265625 
Q 14.109375 46.140625 10.015625 43.890625 
L 10.015625 52.203125 
Q 14.9375 54.109375 19.578125 55.046875 
Q 24.21875 56 28.609375 56 
Q 40.484375 56 46.34375 49.84375 
Q 52.203125 43.703125 52.203125 31.203125 
z
" id="DejaVuSans-97"/>
      </defs>
      <use xlink:href="#DejaVuSans-69"/>
      <use x="63.183594" xlink:href="#DejaVuSans-100"/>
      <use x="126.660156" xlink:href="#DejaVuSans-103"/>
      <use x="190.136719" xlink:href="#DejaVuSans-101"/>
      <use x="251.660156" xlink:href="#DejaVuSans-32"/>
      <use x="283.447266" xlink:href="#DejaVuSans-99"/>
      <use x="338.427734" xlink:href="#DejaVuSans-111"/>
      <use x="399.609375" xlink:href="#DejaVuSans-118"/>
      <use x="458.789062" xlink:href="#DejaVuSans-101"/>
      <use x="520.3125" xlink:href="#DejaVuSans-114"/>
      <use x="561.425781" xlink:href="#DejaVuSans-97"/>
      <use x="622.705078" xlink:href="#DejaVuSans-103"/>
      <use x="686.181641" xlink:href="#DejaVuSans-101"/>
     </g>
    </g>
   </g>
   <g id="line2d_32">
    <path clip-path="url(#p189265c7a0)" d="M 85.79358 238.575586 
L 192.832739 218.562862 
L 255.446634 210.773737 
L 299.871899 196.174526 
L 334.330812 192.128789 
L 362.485794 182.71273 
L 386.290492 171.367387 
L 406.911059 165.982668 
L 425.099689 164.586097 
L 441.369972 152.909608 
L 456.088234 144.371806 
L 469.524954 132.047423 
L 481.885538 124.114322 
L 493.329652 122.573774 
L 503.983867 122.185038 
L 513.950219 121.277986 
L 523.312168 120.39973 
L 532.138849 119.60786 
L 540.488172 119.075147 
L 548.409132 118.585627 
L 555.943547 116.598752 
L 563.127394 109.241556 
L 569.991851 108.996797 
L 576.564114 108.809627 
L 582.868045 108.392096 
L 588.924698 107.485044 
L 594.752743 107.427453 
L 600.368812 107.240284 
L 605.787784 105.987689 
L 611.023027 105.85811 
L 616.086591 105.239012 
L 620.989379 105.080638 
L 625.741288 101.250864 
L 630.351328 101.135683 
L 634.827725 90.697392 
L 639.178009 83.714535 
L 643.409091 83.484173 
L 647.527332 82.7067 
L 651.538593 81.828444 
L 655.448292 80.345486 
L 659.261445 80.287896 
L 662.982706 79.150482 
L 666.6164 79.092892 
L 670.166554 78.963313 
L 673.636921 78.531383 
L 677.031011 77.869092 
L 680.352104 77.869092 
L 683.603274 77.091619 
L 686.787404 76.990836 
L 689.907205 76.861257 
L 692.965223 76.184568 
L 695.963858 75.939808 
L 698.905373 75.723843 
L 701.791903 75.651855 
L 704.625466 75.536674 
L 707.407972 75.147937 
L 710.141227 74.442453 
L 712.826944 73.981728 
L 715.46675 73.636185 
L 718.062187 73.592992 
L 720.614722 73.578594 
L 723.125751 72.743531 
L 725.596601 72.325999 
L 728.028539 65.328745 
L 730.422771 65.271154 
L 732.780448 65.227961 
L 735.10267 65.026394 
" style="fill:none;stroke:#98df8a;stroke-linecap:square;stroke-width:1.5;"/>
   </g>
   <g id="line2d_33">
    <path clip-path="url(#p189265c7a0)" d="M 85.79358 247.257365 
L 192.832739 224.811439 
L 255.446634 219.772264 
L 299.871899 215.496164 
L 334.330812 210.62976 
L 362.485794 203.272564 
L 386.290492 199.111646 
L 406.911059 197.038385 
L 425.099689 195.54103 
L 441.369972 194.07247 
L 456.088234 193.050238 
L 469.524954 192.042403 
L 481.885538 191.120954 
L 493.329652 190.976977 
L 503.983867 190.789808 
L 513.950219 190.77541 
L 523.312168 190.386674 
L 532.138849 183.274238 
L 540.488172 182.021643 
L 548.409132 181.964052 
L 555.943547 181.215375 
L 563.127394 181.042603 
L 569.991851 180.581879 
L 576.564114 180.409107 
L 582.868045 176.075416 
L 588.924698 175.974633 
L 594.752743 175.888247 
L 600.368812 175.715475 
L 605.787784 175.571499 
L 611.023027 175.413125 
L 616.086591 174.966798 
L 620.989379 174.664447 
L 625.741288 174.592459 
L 630.351328 168.516654 
L 634.827725 168.516654 
L 639.178009 164.586097 
L 643.409091 162.210486 
L 647.527332 162.095305 
L 651.538593 162.023317 
L 655.448292 160.972289 
L 659.261445 160.9003 
L 662.982706 160.857107 
L 666.6164 154.522144 
L 670.166554 151.167494 
L 673.636921 151.023517 
L 677.031011 151.023517 
L 680.352104 149.439776 
L 683.603274 149.396583 
L 686.787404 149.338993 
L 689.907205 149.108631 
L 692.965223 149.108631 
L 695.963858 149.108631 
L 698.905373 149.079835 
L 701.791903 148.777485 
L 704.625466 148.777485 
L 707.407972 148.74869 
L 710.141227 144.760542 
L 712.826944 140.7436 
L 715.46675 140.095706 
L 718.062187 140.081308 
L 720.614722 137.547323 
L 723.125751 137.547323 
L 725.596601 137.518528 
L 728.028539 137.316961 
L 730.422771 137.288165 
L 732.780448 136.71226 
L 735.10267 114.068881 
" style="fill:none;stroke:#1f77b4;stroke-linecap:square;stroke-width:1.5;"/>
   </g>
   <g id="line2d_34"/>
   <g id="line2d_35"/>
   <g id="line2d_36"/>
   <g id="line2d_37">
    <path clip-path="url(#p189265c7a0)" d="M 735.10267 288.430125 
L 735.10267 22.318125 
" style="fill:none;stroke:#ff0000;stroke-linecap:square;stroke-width:1.5;"/>
   </g>
   <g id="patch_3">
    <path d="M 53.328125 245.02573 
L 53.328125 72.254011 
" style="fill:none;stroke:#000000;stroke-linecap:square;stroke-linejoin:miter;stroke-width:0.8;"/>
   </g>
   <g id="patch_4">
    <path d="M 85.79358 288.430125 
L 735.105231 288.430125 
" style="fill:none;stroke:#000000;stroke-linecap:square;stroke-linejoin:miter;stroke-width:0.8;"/>
   </g>
   <g id="text_19">
    <!-- openthread-2019-12-23 (16h:45m, 14 trials/fuzzer) -->
    <g transform="translate(256.545313 16.318125)scale(0.12 -0.12)">
     <defs>
      <path d="M 18.109375 8.203125 
L 18.109375 -20.796875 
L 9.078125 -20.796875 
L 9.078125 54.6875 
L 18.109375 54.6875 
L 18.109375 46.390625 
Q 20.953125 51.265625 25.265625 53.625 
Q 29.59375 56 35.59375 56 
Q 45.5625 56 51.78125 48.09375 
Q 58.015625 40.1875 58.015625 27.296875 
Q 58.015625 14.40625 51.78125 6.484375 
Q 45.5625 -1.421875 35.59375 -1.421875 
Q 29.59375 -1.421875 25.265625 0.953125 
Q 20.953125 3.328125 18.109375 8.203125 
z
M 48.6875 27.296875 
Q 48.6875 37.203125 44.609375 42.84375 
Q 40.53125 48.484375 33.40625 48.484375 
Q 26.265625 48.484375 22.1875 42.84375 
Q 18.109375 37.203125 18.109375 27.296875 
Q 18.109375 17.390625 22.1875 11.75 
Q 26.265625 6.109375 33.40625 6.109375 
Q 40.53125 6.109375 44.609375 11.75 
Q 48.6875 17.390625 48.6875 27.296875 
z
" id="DejaVuSans-112"/>
      <path d="M 4.890625 31.390625 
L 31.203125 31.390625 
L 31.203125 23.390625 
L 4.890625 23.390625 
z
" id="DejaVuSans-45"/>
      <path d="M 11.71875 12.40625 
L 22.015625 12.40625 
L 22.015625 4 
L 14.015625 -11.625 
L 7.71875 -11.625 
L 11.71875 4 
z
" id="DejaVuSans-44"/>
      <path d="M 9.421875 75.984375 
L 18.40625 75.984375 
L 18.40625 0 
L 9.421875 0 
z
" id="DejaVuSans-108"/>
      <path d="M 44.28125 53.078125 
L 44.28125 44.578125 
Q 40.484375 46.53125 36.375 47.5 
Q 32.28125 48.484375 27.875 48.484375 
Q 21.1875 48.484375 17.84375 46.4375 
Q 14.5 44.390625 14.5 40.28125 
Q 14.5 37.15625 16.890625 35.375 
Q 19.28125 33.59375 26.515625 31.984375 
L 29.59375 31.296875 
Q 39.15625 29.25 43.1875 25.515625 
Q 47.21875 21.78125 47.21875 15.09375 
Q 47.21875 7.46875 41.1875 3.015625 
Q 35.15625 -1.421875 24.609375 -1.421875 
Q 20.21875 -1.421875 15.453125 -0.5625 
Q 10.6875 0.296875 5.421875 2 
L 5.421875 11.28125 
Q 10.40625 8.6875 15.234375 7.390625 
Q 20.0625 6.109375 24.8125 6.109375 
Q 31.15625 6.109375 34.5625 8.28125 
Q 37.984375 10.453125 37.984375 14.40625 
Q 37.984375 18.0625 35.515625 20.015625 
Q 33.0625 21.96875 24.703125 23.78125 
L 21.578125 24.515625 
Q 13.234375 26.265625 9.515625 29.90625 
Q 5.8125 33.546875 5.8125 39.890625 
Q 5.8125 47.609375 11.28125 51.796875 
Q 16.75 56 26.8125 56 
Q 31.78125 56 36.171875 55.265625 
Q 40.578125 54.546875 44.28125 53.078125 
z
" id="DejaVuSans-115"/>
      <path d="M 25.390625 72.90625 
L 33.6875 72.90625 
L 8.296875 -9.28125 
L 0 -9.28125 
z
" id="DejaVuSans-47"/>
      <path d="M 37.109375 75.984375 
L 37.109375 68.5 
L 28.515625 68.5 
Q 23.6875 68.5 21.796875 66.546875 
Q 19.921875 64.59375 19.921875 59.515625 
L 19.921875 54.6875 
L 34.71875 54.6875 
L 34.71875 47.703125 
L 19.921875 47.703125 
L 19.921875 0 
L 10.890625 0 
L 10.890625 47.703125 
L 2.296875 47.703125 
L 2.296875 54.6875 
L 10.890625 54.6875 
L 10.890625 58.5 
Q 10.890625 67.625 15.140625 71.796875 
Q 19.390625 75.984375 28.609375 75.984375 
z
" id="DejaVuSans-102"/>
      <path d="M 5.515625 54.6875 
L 48.1875 54.6875 
L 48.1875 46.484375 
L 14.40625 7.171875 
L 48.1875 7.171875 
L 48.1875 0 
L 4.296875 0 
L 4.296875 8.203125 
L 38.09375 47.515625 
L 5.515625 47.515625 
z
" id="DejaVuSans-122"/>
     </defs>
     <use xlink:href="#DejaVuSans-111"/>
     <use x="61.181641" xlink:href="#DejaVuSans-112"/>
     <use x="124.658203" xlink:href="#DejaVuSans-101"/>
     <use x="186.181641" xlink:href="#DejaVuSans-110"/>
     <use x="249.560547" xlink:href="#DejaVuSans-116"/>
     <use x="288.769531" xlink:href="#DejaVuSans-104"/>
     <use x="352.148438" xlink:href="#DejaVuSans-114"/>
     <use x="391.011719" xlink:href="#DejaVuSans-101"/>
     <use x="452.535156" xlink:href="#DejaVuSans-97"/>
     <use x="513.814453" xlink:href="#DejaVuSans-100"/>
     <use x="577.291016" xlink:href="#DejaVuSans-45"/>
     <use x="613.375" xlink:href="#DejaVuSans-50"/>
     <use x="676.998047" xlink:href="#DejaVuSans-48"/>
     <use x="740.621094" xlink:href="#DejaVuSans-49"/>
     <use x="804.244141" xlink:href="#DejaVuSans-57"/>
     <use x="867.867188" xlink:href="#DejaVuSans-45"/>
     <use x="903.951172" xlink:href="#DejaVuSans-49"/>
     <use x="967.574219" xlink:href="#DejaVuSans-50"/>
     <use x="1031.197266" xlink:href="#DejaVuSans-45"/>
     <use x="1067.28125" xlink:href="#DejaVuSans-50"/>
     <use x="1130.904297" xlink:href="#DejaVuSans-51"/>
     <use x="1194.527344" xlink:href="#DejaVuSans-32"/>
     <use x="1226.314453" xlink:href="#DejaVuSans-40"/>
     <use x="1265.328125" xlink:href="#DejaVuSans-49"/>
     <use x="1328.951172" xlink:href="#DejaVuSans-54"/>
     <use x="1392.574219" xlink:href="#DejaVuSans-104"/>
     <use x="1455.953125" xlink:href="#DejaVuSans-58"/>
     <use x="1489.644531" xlink:href="#DejaVuSans-52"/>
     <use x="1553.267578" xlink:href="#DejaVuSans-53"/>
     <use x="1616.890625" xlink:href="#DejaVuSans-109"/>
     <use x="1714.302734" xlink:href="#DejaVuSans-44"/>
     <use x="1746.089844" xlink:href="#DejaVuSans-32"/>
     <use x="1777.876953" xlink:href="#DejaVuSans-49"/>
     <use x="1841.5" xlink:href="#DejaVuSans-52"/>
     <use x="1905.123047" xlink:href="#DejaVuSans-32"/>
     <use x="1936.910156" xlink:href="#DejaVuSans-116"/>
     <use x="1976.119141" xlink:href="#DejaVuSans-114"/>
     <use x="2017.232422" xlink:href="#DejaVuSans-105"/>
     <use x="2045.015625" xlink:href="#DejaVuSans-97"/>
     <use x="2106.294922" xlink:href="#DejaVuSans-108"/>
     <use x="2134.078125" xlink:href="#DejaVuSans-115"/>
     <use x="2186.177734" xlink:href="#DejaVuSans-47"/>
     <use x="2219.869141" xlink:href="#DejaVuSans-102"/>
     <use x="2255.074219" xlink:href="#DejaVuSans-117"/>
     <use x="2318.453125" xlink:href="#DejaVuSans-122"/>
     <use x="2370.943359" xlink:href="#DejaVuSans-122"/>
     <use x="2423.433594" xlink:href="#DejaVuSans-101"/>
     <use x="2484.957031" xlink:href="#DejaVuSans-114"/>
     <use x="2526.070312" xlink:href="#DejaVuSans-41"/>
    </g>
   </g>
   <g id="legend_1">
    <g id="line2d_38">
     <path d="M 771.568125 30.416562 
L 791.568125 30.416562 
" style="fill:none;"/>
    </g>
    <g id="line2d_39"/>
    <g id="text_20">
     <!-- fuzzer -->
     <g transform="translate(799.568125 33.916562)scale(0.1 -0.1)">
      <use xlink:href="#DejaVuSans-102"/>
      <use x="35.205078" xlink:href="#DejaVuSans-117"/>
      <use x="98.583984" xlink:href="#DejaVuSans-122"/>
      <use x="151.074219" xlink:href="#DejaVuSans-122"/>
      <use x="203.564453" xlink:href="#DejaVuSans-101"/>
      <use x="265.087891" xlink:href="#DejaVuSans-114"/>
     </g>
    </g>
    <g id="line2d_40">
     <path d="M 771.568125 45.094688 
L 791.568125 45.094688 
" style="fill:none;stroke:#98df8a;stroke-linecap:square;stroke-width:1.5;"/>
    </g>
    <g id="line2d_41"/>
    <g id="text_21">
     <!-- aflplusplus_some -->
     <g transform="translate(799.568125 48.594688)scale(0.1 -0.1)">
      <defs>
       <path d="M 50.984375 -16.609375 
L 50.984375 -23.578125 
L -0.984375 -23.578125 
L -0.984375 -16.609375 
z
" id="DejaVuSans-95"/>
      </defs>
      <use xlink:href="#DejaVuSans-97"/>
      <use x="61.279297" xlink:href="#DejaVuSans-102"/>
      <use x="96.484375" xlink:href="#DejaVuSans-108"/>
      <use x="124.267578" xlink:href="#DejaVuSans-112"/>
      <use x="187.744141" xlink:href="#DejaVuSans-108"/>
      <use x="215.527344" xlink:href="#DejaVuSans-117"/>
      <use x="278.90625" xlink:href="#DejaVuSans-115"/>
      <use x="331.005859" xlink:href="#DejaVuSans-112"/>
      <use x="394.482422" xlink:href="#DejaVuSans-108"/>
      <use x="422.265625" xlink:href="#DejaVuSans-117"/>
      <use x="485.644531" xlink:href="#DejaVuSans-115"/>
      <use x="537.744141" xlink:href="#DejaVuSans-95"/>
      <use x="587.744141" xlink:href="#DejaVuSans-115"/>
      <use x="639.84375" xlink:href="#DejaVuSans-111"/>
      <use x="701.025391" xlink:href="#DejaVuSans-109"/>
      <use x="798.4375" xlink:href="#DejaVuSans-101"/>
     </g>
    </g>
    <g id="line2d_42">
     <path d="M 771.568125 60.050937 
L 791.568125 60.050937 
" style="fill:none;stroke:#1f77b4;stroke-linecap:square;stroke-width:1.5;"/>
    </g>
    <g id="line2d_43"/>
    <g id="text_22">
     <!-- aflplusplus_flat -->
     <g transform="translate(799.568125 63.550937)scale(0.1 -0.1)">
      <use xlink:href="#DejaVuSans-97"/>
      <use x="61.279297" xlink:href="#DejaVuSans-102"/>
      <use x="96.484375" xlink:href="#DejaVuSans-108"/>
      <use x="124.267578" xlink:href="#DejaVuSans-112"/>
      <use x="187.744141" xlink:href="#DejaVuSans-108"/>
      <use x="215.527344" xlink:href="#DejaVuSans-117"/>
      <use x="278.90625" xlink:href="#DejaVuSans-115"/>
      <use x="331.005859" xlink:href="#DejaVuSans-112"/>
      <use x="394.482422" xlink:href="#DejaVuSans-108"/>
      <use x="422.265625" xlink:href="#DejaVuSans-117"/>
      <use x="485.644531" xlink:href="#DejaVuSans-115"/>
      <use x="537.744141" xlink:href="#DejaVuSans-95"/>
      <use x="587.744141" xlink:href="#DejaVuSans-102"/>
      <use x="622.949219" xlink:href="#DejaVuSans-108"/>
      <use x="650.732422" xlink:href="#DejaVuSans-97"/>
      <use x="712.011719" xlink:href="#DejaVuSans-116"/>
     </g>
    </g>
   </g>
  </g>
 </g>
 <defs>
  <clipPath id="p189265c7a0">
   <rect height="266.112" width="714.24" x="53.328125" y="22.318125"/>
  </clipPath>
 </defs>
</svg>
