<?xml version="1.0" encoding="utf-8" standalone="no"?>
<!DOCTYPE svg PUBLIC "-//W3C//DTD SVG 1.1//EN"
  "http://www.w3.org/Graphics/SVG/1.1/DTD/svg11.dtd">
<!-- Created with matplotlib (https://matplotlib.org/) -->
<svg height="325.986375pt" version="1.1" viewBox="0 0 896.763437 325.986375" width="896.763437pt" xmlns="http://www.w3.org/2000/svg" xmlns:xlink="http://www.w3.org/1999/xlink">
 <metadata>
  <rdf:RDF xmlns:cc="http://creativecommons.org/ns#" xmlns:dc="http://purl.org/dc/elements/1.1/" xmlns:rdf="http://www.w3.org/1999/02/22-rdf-syntax-ns#">
   <cc:Work>
    <dc:type rdf:resource="http://purl.org/dc/dcmitype/StillImage"/>
    <dc:date>2020-12-08T16:48:07.605875</dc:date>
    <dc:format>image/svg+xml</dc:format>
    <dc:creator>
     <cc:Agent>
      <dc:title>Matplotlib v3.3.3, https://matplotlib.org/</dc:title>
     </cc:Agent>
    </dc:creator>
   </cc:Work>
  </rdf:RDF>
 </metadata>
 <defs>
  <style type="text/css">*{stroke-linecap:butt;stroke-linejoin:round;}</style>
 </defs>
 <g id="figure_1">
  <g id="patch_1">
   <path d="M 0 325.986375 
L 896.763438 325.986375 
L 896.763438 0 
L 0 0 
z
" style="fill:#ffffff;"/>
  </g>
  <g id="axes_1">
   <g id="patch_2">
    <path d="M 53.328125 288.430125 
L 767.568125 288.430125 
L 767.568125 22.318125 
L 53.328125 22.318125 
z
" style="fill:#ffffff;"/>
   </g>
   <g id="PolyCollection_1">
    <defs>
     <path d="M 85.79358 -103.791713 
L 85.79358 -53.098845 
L 192.832739 -106.73369 
L 255.446634 -138.648871 
L 299.871899 -172.547108 
L 334.330812 -181.254986 
L 362.485794 -197.499161 
L 386.290492 -204.719645 
L 406.911059 -212.47479 
L 425.099689 -218.699309 
L 441.369972 -223.680845 
L 456.088234 -225.821849 
L 469.524954 -229.080861 
L 481.885538 -230.552216 
L 493.329652 -232.037493 
L 503.983867 -232.404762 
L 513.950219 -236.56318 
L 523.312168 -239.493351 
L 532.138849 -244.208982 
L 540.488172 -245.798309 
L 548.409132 -248.246741 
L 555.943547 -252.300132 
L 563.127394 -254.092674 
L 569.991851 -257.410713 
L 576.564114 -259.486665 
L 582.868045 -262.402426 
L 588.924698 -263.333503 
L 594.752743 -264.52275 
L 600.368812 -265.510981 
L 605.787784 -264.876423 
L 611.023027 -267.116999 
L 616.086591 -267.32803 
L 620.989379 -267.165686 
L 625.741288 -268.259595 
L 630.351328 -268.784648 
L 634.827725 -269.29065 
L 639.178009 -269.822136 
L 643.409091 -271.125448 
L 647.527332 -273.276547 
L 651.538593 -274.18328 
L 655.448292 -274.142898 
L 659.261445 -274.164473 
L 662.982706 -274.519204 
L 666.6164 -276.691634 
L 670.166554 -277.483163 
L 673.636921 -277.580781 
L 677.031011 -277.973941 
L 680.352104 -280.192534 
L 683.603274 -281.312252 
L 686.787404 -281.407265 
L 689.907205 -281.707121 
L 692.965223 -281.673578 
L 695.963858 -281.76509 
L 698.905373 -281.843656 
L 701.791903 -282.341517 
L 704.625466 -283.514481 
L 707.407972 -283.959991 
L 710.141227 -284.276619 
L 712.826944 -284.5273 
L 715.46675 -284.426181 
L 718.062187 -285.151518 
L 720.614722 -285.010342 
L 723.125751 -285.012622 
L 725.596601 -285.568939 
L 728.028539 -285.758151 
L 730.422771 -285.788682 
L 732.780448 -285.787379 
L 735.10267 -285.94291 
L 735.10267 -291.53458 
L 735.10267 -291.53458 
L 732.780448 -291.57225 
L 730.422771 -291.190815 
L 728.028539 -291.327431 
L 725.596601 -291.13879 
L 723.125751 -290.871582 
L 720.614722 -290.908545 
L 718.062187 -290.594766 
L 715.46675 -290.617888 
L 712.826944 -290.419151 
L 710.141227 -290.425746 
L 707.407972 -290.037716 
L 704.625466 -289.738593 
L 701.791903 -288.946819 
L 698.905373 -287.981548 
L 695.963858 -287.797059 
L 692.965223 -288.128179 
L 689.907205 -287.700092 
L 686.787404 -287.595146 
L 683.603274 -287.729402 
L 680.352104 -287.471394 
L 677.031011 -285.876286 
L 673.636921 -285.778831 
L 670.166554 -285.682352 
L 666.6164 -285.286425 
L 662.982706 -284.880809 
L 659.261445 -284.716755 
L 655.448292 -284.130477 
L 651.538593 -284.697948 
L 647.527332 -283.74896 
L 643.409091 -282.877969 
L 639.178009 -282.472516 
L 634.827725 -282.613447 
L 630.351328 -281.756866 
L 625.741288 -281.534844 
L 620.989379 -280.554674 
L 616.086591 -280.703096 
L 611.023027 -280.018548 
L 605.787784 -280.027585 
L 600.368812 -279.679286 
L 594.752743 -278.875952 
L 588.924698 -278.497854 
L 582.868045 -277.590877 
L 576.564114 -276.701893 
L 569.991851 -275.706579 
L 563.127394 -274.265999 
L 555.943547 -273.34396 
L 548.409132 -271.429456 
L 540.488172 -269.934897 
L 532.138849 -271.033447 
L 523.312168 -267.569103 
L 513.950219 -266.966704 
L 503.983867 -265.319816 
L 493.329652 -261.70819 
L 481.885538 -259.746139 
L 469.524954 -259.323833 
L 456.088234 -257.041734 
L 441.369972 -254.00678 
L 425.099689 -247.591421 
L 406.911059 -242.64009 
L 386.290492 -235.668659 
L 362.485794 -229.983767 
L 334.330812 -218.063122 
L 299.871899 -208.927401 
L 255.446634 -192.082618 
L 192.832739 -162.151226 
L 85.79358 -103.791713 
z
" id="m4c3a7f9e74" style="stroke:#98df8a;stroke-opacity:0.2;"/>
    </defs>
    <g clip-path="url(#p95b259dd6b)">
     <use style="fill:#98df8a;fill-opacity:0.2;stroke:#98df8a;stroke-opacity:0.2;" x="0" xlink:href="#m4c3a7f9e74" y="325.986375"/>
    </g>
   </g>
   <g id="PolyCollection_2">
    <defs>
     <path d="M 85.79358 -80.897782 
L 85.79358 -49.65225 
L 192.832739 -79.610428 
L 255.446634 -109.796408 
L 299.871899 -146.006704 
L 334.330812 -159.152502 
L 362.485794 -165.111848 
L 386.290492 -168.5008 
L 406.911059 -181.70074 
L 425.099689 -182.612602 
L 441.369972 -187.670995 
L 456.088234 -193.138343 
L 469.524954 -199.495326 
L 481.885538 -201.726213 
L 493.329652 -204.263877 
L 503.983867 -204.605662 
L 513.950219 -203.323926 
L 523.312168 -206.539136 
L 532.138849 -206.605409 
L 540.488172 -207.526227 
L 548.409132 -209.733748 
L 555.943547 -210.751207 
L 563.127394 -209.402628 
L 569.991851 -209.555854 
L 576.564114 -212.147008 
L 582.868045 -213.818566 
L 588.924698 -215.67046 
L 594.752743 -216.433494 
L 600.368812 -217.410407 
L 605.787784 -216.290364 
L 611.023027 -215.599384 
L 616.086591 -219.933009 
L 620.989379 -219.254405 
L 625.741288 -219.02994 
L 630.351328 -219.283145 
L 634.827725 -221.692904 
L 639.178009 -222.160803 
L 643.409091 -222.472872 
L 647.527332 -222.740813 
L 651.538593 -223.415102 
L 655.448292 -222.413926 
L 659.261445 -223.575085 
L 662.982706 -222.477105 
L 666.6164 -224.953951 
L 670.166554 -224.209969 
L 673.636921 -224.643592 
L 677.031011 -226.130661 
L 680.352104 -226.158505 
L 683.603274 -228.647645 
L 686.787404 -230.46966 
L 689.907205 -231.105521 
L 692.965223 -232.430896 
L 695.963858 -232.850842 
L 698.905373 -231.759131 
L 701.791903 -233.031667 
L 704.625466 -233.593195 
L 707.407972 -232.227844 
L 710.141227 -233.98383 
L 712.826944 -234.636219 
L 715.46675 -234.897077 
L 718.062187 -233.53311 
L 720.614722 -233.653769 
L 723.125751 -235.517632 
L 725.596601 -234.756797 
L 728.028539 -235.869106 
L 730.422771 -237.373923 
L 732.780448 -237.381739 
L 735.10267 -218.163182 
L 735.10267 -259.428371 
L 735.10267 -259.428371 
L 732.780448 -262.703504 
L 730.422771 -263.556583 
L 728.028539 -262.103384 
L 725.596601 -262.124634 
L 723.125751 -262.731104 
L 720.614722 -261.003613 
L 718.062187 -261.403693 
L 715.46675 -260.328917 
L 712.826944 -260.697488 
L 710.141227 -261.104976 
L 707.407972 -260.426372 
L 704.625466 -259.829183 
L 701.791903 -260.067082 
L 698.905373 -259.513288 
L 695.963858 -259.829753 
L 692.965223 -258.183435 
L 689.907205 -257.422518 
L 686.787404 -257.20074 
L 683.603274 -257.016658 
L 680.352104 -254.718358 
L 677.031011 -255.121124 
L 673.636921 -254.029739 
L 670.166554 -253.689908 
L 666.6164 -253.756588 
L 662.982706 -252.990053 
L 659.261445 -252.944949 
L 655.448292 -253.101187 
L 651.538593 -253.768474 
L 647.527332 -252.066793 
L 643.409091 -250.701849 
L 639.178009 -250.993482 
L 634.827725 -250.502216 
L 630.351328 -249.868228 
L 625.741288 -249.584655 
L 620.989379 -248.750382 
L 616.086591 -249.317202 
L 611.023027 -248.438802 
L 605.787784 -248.318794 
L 600.368812 -247.481672 
L 594.752743 -248.014216 
L 588.924698 -246.77677 
L 582.868045 -245.047326 
L 576.564114 -244.767905 
L 569.991851 -243.113689 
L 563.127394 -244.455185 
L 555.943547 -242.874488 
L 548.409132 -242.719309 
L 540.488172 -242.839886 
L 532.138849 -242.179681 
L 523.312168 -239.781891 
L 513.950219 -239.912808 
L 503.983867 -238.289612 
L 493.329652 -237.25416 
L 481.885538 -235.670776 
L 469.524954 -234.764857 
L 456.088234 -231.110976 
L 441.369972 -228.446302 
L 425.099689 -223.559128 
L 406.911059 -220.346604 
L 386.290492 -210.065357 
L 362.485794 -204.396097 
L 334.330812 -195.752619 
L 299.871899 -175.717702 
L 255.446634 -152.994093 
L 192.832739 -112.291654 
L 85.79358 -80.897782 
z
" id="m334be415da" style="stroke:#1f77b4;stroke-opacity:0.2;"/>
    </defs>
    <g clip-path="url(#p95b259dd6b)">
     <use style="fill:#1f77b4;fill-opacity:0.2;stroke:#1f77b4;stroke-opacity:0.2;" x="0" xlink:href="#m334be415da" y="325.986375"/>
    </g>
   </g>
   <g id="matplotlib.axis_1">
    <g id="xtick_1">
     <g id="line2d_1">
      <defs>
       <path d="M 0 0 
L 0 3.5 
" id="mdab19804e4" style="stroke:#000000;stroke-width:0.8;"/>
      </defs>
      <g>
       <use style="stroke:#000000;stroke-width:0.8;" x="85.79358" xlink:href="#mdab19804e4" y="288.430125"/>
      </g>
     </g>
     <g id="text_1">
      <!-- 14m -->
      <g transform="translate(74.560767 303.028562)scale(0.1 -0.1)">
       <defs>
        <path d="M 12.40625 8.296875 
L 28.515625 8.296875 
L 28.515625 63.921875 
L 10.984375 60.40625 
L 10.984375 69.390625 
L 28.421875 72.90625 
L 38.28125 72.90625 
L 38.28125 8.296875 
L 54.390625 8.296875 
L 54.390625 0 
L 12.40625 0 
z
" id="DejaVuSans-49"/>
        <path d="M 37.796875 64.3125 
L 12.890625 25.390625 
L 37.796875 25.390625 
z
M 35.203125 72.90625 
L 47.609375 72.90625 
L 47.609375 25.390625 
L 58.015625 25.390625 
L 58.015625 17.1875 
L 47.609375 17.1875 
L 47.609375 0 
L 37.796875 0 
L 37.796875 17.1875 
L 4.890625 17.1875 
L 4.890625 26.703125 
z
" id="DejaVuSans-52"/>
        <path d="M 52 44.1875 
Q 55.375 50.25 60.0625 53.125 
Q 64.75 56 71.09375 56 
Q 79.640625 56 84.28125 50.015625 
Q 88.921875 44.046875 88.921875 33.015625 
L 88.921875 0 
L 79.890625 0 
L 79.890625 32.71875 
Q 79.890625 40.578125 77.09375 44.375 
Q 74.3125 48.1875 68.609375 48.1875 
Q 61.625 48.1875 57.5625 43.546875 
Q 53.515625 38.921875 53.515625 30.90625 
L 53.515625 0 
L 44.484375 0 
L 44.484375 32.71875 
Q 44.484375 40.625 41.703125 44.40625 
Q 38.921875 48.1875 33.109375 48.1875 
Q 26.21875 48.1875 22.15625 43.53125 
Q 18.109375 38.875 18.109375 30.90625 
L 18.109375 0 
L 9.078125 0 
L 9.078125 54.6875 
L 18.109375 54.6875 
L 18.109375 46.1875 
Q 21.1875 51.21875 25.484375 53.609375 
Q 29.78125 56 35.6875 56 
Q 41.65625 56 45.828125 52.96875 
Q 50 49.953125 52 44.1875 
z
" id="DejaVuSans-109"/>
       </defs>
       <use xlink:href="#DejaVuSans-49"/>
       <use x="63.623047" xlink:href="#DejaVuSans-52"/>
       <use x="127.246094" xlink:href="#DejaVuSans-109"/>
      </g>
     </g>
    </g>
    <g id="xtick_2">
     <g id="line2d_2">
      <g>
       <use style="stroke:#000000;stroke-width:0.8;" x="144.821912" xlink:href="#mdab19804e4" y="288.430125"/>
      </g>
     </g>
     <g id="text_2">
      <!-- 21m -->
      <g transform="translate(133.589099 303.028562)scale(0.1 -0.1)">
       <defs>
        <path d="M 19.1875 8.296875 
L 53.609375 8.296875 
L 53.609375 0 
L 7.328125 0 
L 7.328125 8.296875 
Q 12.9375 14.109375 22.625 23.890625 
Q 32.328125 33.6875 34.8125 36.53125 
Q 39.546875 41.84375 41.421875 45.53125 
Q 43.3125 49.21875 43.3125 52.78125 
Q 43.3125 58.59375 39.234375 62.25 
Q 35.15625 65.921875 28.609375 65.921875 
Q 23.96875 65.921875 18.8125 64.3125 
Q 13.671875 62.703125 7.8125 59.421875 
L 7.8125 69.390625 
Q 13.765625 71.78125 18.9375 73 
Q 24.125 74.21875 28.421875 74.21875 
Q 39.75 74.21875 46.484375 68.546875 
Q 53.21875 62.890625 53.21875 53.421875 
Q 53.21875 48.921875 51.53125 44.890625 
Q 49.859375 40.875 45.40625 35.40625 
Q 44.1875 33.984375 37.640625 27.21875 
Q 31.109375 20.453125 19.1875 8.296875 
z
" id="DejaVuSans-50"/>
       </defs>
       <use xlink:href="#DejaVuSans-50"/>
       <use x="63.623047" xlink:href="#DejaVuSans-49"/>
       <use x="127.246094" xlink:href="#DejaVuSans-109"/>
      </g>
     </g>
    </g>
    <g id="xtick_3">
     <g id="line2d_3">
      <g>
       <use style="stroke:#000000;stroke-width:0.8;" x="203.850244" xlink:href="#mdab19804e4" y="288.430125"/>
      </g>
     </g>
     <g id="text_3">
      <!-- 32m -->
      <g transform="translate(192.617431 303.028562)scale(0.1 -0.1)">
       <defs>
        <path d="M 40.578125 39.3125 
Q 47.65625 37.796875 51.625 33 
Q 55.609375 28.21875 55.609375 21.1875 
Q 55.609375 10.40625 48.1875 4.484375 
Q 40.765625 -1.421875 27.09375 -1.421875 
Q 22.515625 -1.421875 17.65625 -0.515625 
Q 12.796875 0.390625 7.625 2.203125 
L 7.625 11.71875 
Q 11.71875 9.328125 16.59375 8.109375 
Q 21.484375 6.890625 26.8125 6.890625 
Q 36.078125 6.890625 40.9375 10.546875 
Q 45.796875 14.203125 45.796875 21.1875 
Q 45.796875 27.640625 41.28125 31.265625 
Q 36.765625 34.90625 28.71875 34.90625 
L 20.21875 34.90625 
L 20.21875 43.015625 
L 29.109375 43.015625 
Q 36.375 43.015625 40.234375 45.921875 
Q 44.09375 48.828125 44.09375 54.296875 
Q 44.09375 59.90625 40.109375 62.90625 
Q 36.140625 65.921875 28.71875 65.921875 
Q 24.65625 65.921875 20.015625 65.03125 
Q 15.375 64.15625 9.8125 62.3125 
L 9.8125 71.09375 
Q 15.4375 72.65625 20.34375 73.4375 
Q 25.25 74.21875 29.59375 74.21875 
Q 40.828125 74.21875 47.359375 69.109375 
Q 53.90625 64.015625 53.90625 55.328125 
Q 53.90625 49.265625 50.4375 45.09375 
Q 46.96875 40.921875 40.578125 39.3125 
z
" id="DejaVuSans-51"/>
       </defs>
       <use xlink:href="#DejaVuSans-51"/>
       <use x="63.623047" xlink:href="#DejaVuSans-50"/>
       <use x="127.246094" xlink:href="#DejaVuSans-109"/>
      </g>
     </g>
    </g>
    <g id="xtick_4">
     <g id="line2d_4">
      <g>
       <use style="stroke:#000000;stroke-width:0.8;" x="262.878575" xlink:href="#mdab19804e4" y="288.430125"/>
      </g>
     </g>
     <g id="text_4">
      <!-- 47m -->
      <g transform="translate(251.645763 303.028562)scale(0.1 -0.1)">
       <defs>
        <path d="M 8.203125 72.90625 
L 55.078125 72.90625 
L 55.078125 68.703125 
L 28.609375 0 
L 18.3125 0 
L 43.21875 64.59375 
L 8.203125 64.59375 
z
" id="DejaVuSans-55"/>
       </defs>
       <use xlink:href="#DejaVuSans-52"/>
       <use x="63.623047" xlink:href="#DejaVuSans-55"/>
       <use x="127.246094" xlink:href="#DejaVuSans-109"/>
      </g>
     </g>
    </g>
    <g id="xtick_5">
     <g id="line2d_5">
      <g>
       <use style="stroke:#000000;stroke-width:0.8;" x="321.906907" xlink:href="#mdab19804e4" y="288.430125"/>
      </g>
     </g>
     <g id="text_5">
      <!-- 1h:9m -->
      <g transform="translate(305.82097 303.028562)scale(0.1 -0.1)">
       <defs>
        <path d="M 54.890625 33.015625 
L 54.890625 0 
L 45.90625 0 
L 45.90625 32.71875 
Q 45.90625 40.484375 42.875 44.328125 
Q 39.84375 48.1875 33.796875 48.1875 
Q 26.515625 48.1875 22.3125 43.546875 
Q 18.109375 38.921875 18.109375 30.90625 
L 18.109375 0 
L 9.078125 0 
L 9.078125 75.984375 
L 18.109375 75.984375 
L 18.109375 46.1875 
Q 21.34375 51.125 25.703125 53.5625 
Q 30.078125 56 35.796875 56 
Q 45.21875 56 50.046875 50.171875 
Q 54.890625 44.34375 54.890625 33.015625 
z
" id="DejaVuSans-104"/>
        <path d="M 11.71875 12.40625 
L 22.015625 12.40625 
L 22.015625 0 
L 11.71875 0 
z
M 11.71875 51.703125 
L 22.015625 51.703125 
L 22.015625 39.3125 
L 11.71875 39.3125 
z
" id="DejaVuSans-58"/>
        <path d="M 10.984375 1.515625 
L 10.984375 10.5 
Q 14.703125 8.734375 18.5 7.8125 
Q 22.3125 6.890625 25.984375 6.890625 
Q 35.75 6.890625 40.890625 13.453125 
Q 46.046875 20.015625 46.78125 33.40625 
Q 43.953125 29.203125 39.59375 26.953125 
Q 35.25 24.703125 29.984375 24.703125 
Q 19.046875 24.703125 12.671875 31.3125 
Q 6.296875 37.9375 6.296875 49.421875 
Q 6.296875 60.640625 12.9375 67.421875 
Q 19.578125 74.21875 30.609375 74.21875 
Q 43.265625 74.21875 49.921875 64.515625 
Q 56.59375 54.828125 56.59375 36.375 
Q 56.59375 19.140625 48.40625 8.859375 
Q 40.234375 -1.421875 26.421875 -1.421875 
Q 22.703125 -1.421875 18.890625 -0.6875 
Q 15.09375 0.046875 10.984375 1.515625 
z
M 30.609375 32.421875 
Q 37.25 32.421875 41.125 36.953125 
Q 45.015625 41.5 45.015625 49.421875 
Q 45.015625 57.28125 41.125 61.84375 
Q 37.25 66.40625 30.609375 66.40625 
Q 23.96875 66.40625 20.09375 61.84375 
Q 16.21875 57.28125 16.21875 49.421875 
Q 16.21875 41.5 20.09375 36.953125 
Q 23.96875 32.421875 30.609375 32.421875 
z
" id="DejaVuSans-57"/>
       </defs>
       <use xlink:href="#DejaVuSans-49"/>
       <use x="63.623047" xlink:href="#DejaVuSans-104"/>
       <use x="127.001953" xlink:href="#DejaVuSans-58"/>
       <use x="160.693359" xlink:href="#DejaVuSans-57"/>
       <use x="224.316406" xlink:href="#DejaVuSans-109"/>
      </g>
     </g>
    </g>
    <g id="xtick_6">
     <g id="line2d_6">
      <g>
       <use style="stroke:#000000;stroke-width:0.8;" x="380.935239" xlink:href="#mdab19804e4" y="288.430125"/>
      </g>
     </g>
     <g id="text_6">
      <!-- 1h:41m -->
      <g transform="translate(361.668052 303.028562)scale(0.1 -0.1)">
       <use xlink:href="#DejaVuSans-49"/>
       <use x="63.623047" xlink:href="#DejaVuSans-104"/>
       <use x="127.001953" xlink:href="#DejaVuSans-58"/>
       <use x="160.693359" xlink:href="#DejaVuSans-52"/>
       <use x="224.316406" xlink:href="#DejaVuSans-49"/>
       <use x="287.939453" xlink:href="#DejaVuSans-109"/>
      </g>
     </g>
    </g>
    <g id="xtick_7">
     <g id="line2d_7">
      <g>
       <use style="stroke:#000000;stroke-width:0.8;" x="439.963571" xlink:href="#mdab19804e4" y="288.430125"/>
      </g>
     </g>
     <g id="text_7">
      <!-- 2h:28m -->
      <g transform="translate(420.696384 303.028562)scale(0.1 -0.1)">
       <defs>
        <path d="M 31.78125 34.625 
Q 24.75 34.625 20.71875 30.859375 
Q 16.703125 27.09375 16.703125 20.515625 
Q 16.703125 13.921875 20.71875 10.15625 
Q 24.75 6.390625 31.78125 6.390625 
Q 38.8125 6.390625 42.859375 10.171875 
Q 46.921875 13.96875 46.921875 20.515625 
Q 46.921875 27.09375 42.890625 30.859375 
Q 38.875 34.625 31.78125 34.625 
z
M 21.921875 38.8125 
Q 15.578125 40.375 12.03125 44.71875 
Q 8.5 49.078125 8.5 55.328125 
Q 8.5 64.0625 14.71875 69.140625 
Q 20.953125 74.21875 31.78125 74.21875 
Q 42.671875 74.21875 48.875 69.140625 
Q 55.078125 64.0625 55.078125 55.328125 
Q 55.078125 49.078125 51.53125 44.71875 
Q 48 40.375 41.703125 38.8125 
Q 48.828125 37.15625 52.796875 32.3125 
Q 56.78125 27.484375 56.78125 20.515625 
Q 56.78125 9.90625 50.3125 4.234375 
Q 43.84375 -1.421875 31.78125 -1.421875 
Q 19.734375 -1.421875 13.25 4.234375 
Q 6.78125 9.90625 6.78125 20.515625 
Q 6.78125 27.484375 10.78125 32.3125 
Q 14.796875 37.15625 21.921875 38.8125 
z
M 18.3125 54.390625 
Q 18.3125 48.734375 21.84375 45.5625 
Q 25.390625 42.390625 31.78125 42.390625 
Q 38.140625 42.390625 41.71875 45.5625 
Q 45.3125 48.734375 45.3125 54.390625 
Q 45.3125 60.0625 41.71875 63.234375 
Q 38.140625 66.40625 31.78125 66.40625 
Q 25.390625 66.40625 21.84375 63.234375 
Q 18.3125 60.0625 18.3125 54.390625 
z
" id="DejaVuSans-56"/>
       </defs>
       <use xlink:href="#DejaVuSans-50"/>
       <use x="63.623047" xlink:href="#DejaVuSans-104"/>
       <use x="127.001953" xlink:href="#DejaVuSans-58"/>
       <use x="160.693359" xlink:href="#DejaVuSans-50"/>
       <use x="224.316406" xlink:href="#DejaVuSans-56"/>
       <use x="287.939453" xlink:href="#DejaVuSans-109"/>
      </g>
     </g>
    </g>
    <g id="xtick_8">
     <g id="line2d_8">
      <g>
       <use style="stroke:#000000;stroke-width:0.8;" x="498.991903" xlink:href="#mdab19804e4" y="288.430125"/>
      </g>
     </g>
     <g id="text_8">
      <!-- 3h:37m -->
      <g transform="translate(479.724716 303.028562)scale(0.1 -0.1)">
       <use xlink:href="#DejaVuSans-51"/>
       <use x="63.623047" xlink:href="#DejaVuSans-104"/>
       <use x="127.001953" xlink:href="#DejaVuSans-58"/>
       <use x="160.693359" xlink:href="#DejaVuSans-51"/>
       <use x="224.316406" xlink:href="#DejaVuSans-55"/>
       <use x="287.939453" xlink:href="#DejaVuSans-109"/>
      </g>
     </g>
    </g>
    <g id="xtick_9">
     <g id="line2d_9">
      <g>
       <use style="stroke:#000000;stroke-width:0.8;" x="558.020235" xlink:href="#mdab19804e4" y="288.430125"/>
      </g>
     </g>
     <g id="text_9">
      <!-- 5h:19m -->
      <g transform="translate(538.753048 303.028562)scale(0.1 -0.1)">
       <defs>
        <path d="M 10.796875 72.90625 
L 49.515625 72.90625 
L 49.515625 64.59375 
L 19.828125 64.59375 
L 19.828125 46.734375 
Q 21.96875 47.46875 24.109375 47.828125 
Q 26.265625 48.1875 28.421875 48.1875 
Q 40.625 48.1875 47.75 41.5 
Q 54.890625 34.8125 54.890625 23.390625 
Q 54.890625 11.625 47.5625 5.09375 
Q 40.234375 -1.421875 26.90625 -1.421875 
Q 22.3125 -1.421875 17.546875 -0.640625 
Q 12.796875 0.140625 7.71875 1.703125 
L 7.71875 11.625 
Q 12.109375 9.234375 16.796875 8.0625 
Q 21.484375 6.890625 26.703125 6.890625 
Q 35.15625 6.890625 40.078125 11.328125 
Q 45.015625 15.765625 45.015625 23.390625 
Q 45.015625 31 40.078125 35.4375 
Q 35.15625 39.890625 26.703125 39.890625 
Q 22.75 39.890625 18.8125 39.015625 
Q 14.890625 38.140625 10.796875 36.28125 
z
" id="DejaVuSans-53"/>
       </defs>
       <use xlink:href="#DejaVuSans-53"/>
       <use x="63.623047" xlink:href="#DejaVuSans-104"/>
       <use x="127.001953" xlink:href="#DejaVuSans-58"/>
       <use x="160.693359" xlink:href="#DejaVuSans-49"/>
       <use x="224.316406" xlink:href="#DejaVuSans-57"/>
       <use x="287.939453" xlink:href="#DejaVuSans-109"/>
      </g>
     </g>
    </g>
    <g id="xtick_10">
     <g id="line2d_10">
      <g>
       <use style="stroke:#000000;stroke-width:0.8;" x="617.048567" xlink:href="#mdab19804e4" y="288.430125"/>
      </g>
     </g>
     <g id="text_10">
      <!-- 7h:47m -->
      <g transform="translate(597.78138 303.028562)scale(0.1 -0.1)">
       <use xlink:href="#DejaVuSans-55"/>
       <use x="63.623047" xlink:href="#DejaVuSans-104"/>
       <use x="127.001953" xlink:href="#DejaVuSans-58"/>
       <use x="160.693359" xlink:href="#DejaVuSans-52"/>
       <use x="224.316406" xlink:href="#DejaVuSans-55"/>
       <use x="287.939453" xlink:href="#DejaVuSans-109"/>
      </g>
     </g>
    </g>
    <g id="xtick_11">
     <g id="line2d_11">
      <g>
       <use style="stroke:#000000;stroke-width:0.8;" x="676.076899" xlink:href="#mdab19804e4" y="288.430125"/>
      </g>
     </g>
     <g id="text_11">
      <!-- 11h:25m -->
      <g transform="translate(653.628462 303.028562)scale(0.1 -0.1)">
       <use xlink:href="#DejaVuSans-49"/>
       <use x="63.623047" xlink:href="#DejaVuSans-49"/>
       <use x="127.246094" xlink:href="#DejaVuSans-104"/>
       <use x="190.625" xlink:href="#DejaVuSans-58"/>
       <use x="224.316406" xlink:href="#DejaVuSans-50"/>
       <use x="287.939453" xlink:href="#DejaVuSans-53"/>
       <use x="351.5625" xlink:href="#DejaVuSans-109"/>
      </g>
     </g>
    </g>
    <g id="xtick_12">
     <g id="line2d_12">
      <g>
       <use style="stroke:#000000;stroke-width:0.8;" x="735.105231" xlink:href="#mdab19804e4" y="288.430125"/>
      </g>
     </g>
     <g id="text_12">
      <!-- 16h:45m -->
      <g transform="translate(712.656794 303.028562)scale(0.1 -0.1)">
       <defs>
        <path d="M 33.015625 40.375 
Q 26.375 40.375 22.484375 35.828125 
Q 18.609375 31.296875 18.609375 23.390625 
Q 18.609375 15.53125 22.484375 10.953125 
Q 26.375 6.390625 33.015625 6.390625 
Q 39.65625 6.390625 43.53125 10.953125 
Q 47.40625 15.53125 47.40625 23.390625 
Q 47.40625 31.296875 43.53125 35.828125 
Q 39.65625 40.375 33.015625 40.375 
z
M 52.59375 71.296875 
L 52.59375 62.3125 
Q 48.875 64.0625 45.09375 64.984375 
Q 41.3125 65.921875 37.59375 65.921875 
Q 27.828125 65.921875 22.671875 59.328125 
Q 17.53125 52.734375 16.796875 39.40625 
Q 19.671875 43.65625 24.015625 45.921875 
Q 28.375 48.1875 33.59375 48.1875 
Q 44.578125 48.1875 50.953125 41.515625 
Q 57.328125 34.859375 57.328125 23.390625 
Q 57.328125 12.15625 50.6875 5.359375 
Q 44.046875 -1.421875 33.015625 -1.421875 
Q 20.359375 -1.421875 13.671875 8.265625 
Q 6.984375 17.96875 6.984375 36.375 
Q 6.984375 53.65625 15.1875 63.9375 
Q 23.390625 74.21875 37.203125 74.21875 
Q 40.921875 74.21875 44.703125 73.484375 
Q 48.484375 72.75 52.59375 71.296875 
z
" id="DejaVuSans-54"/>
       </defs>
       <use xlink:href="#DejaVuSans-49"/>
       <use x="63.623047" xlink:href="#DejaVuSans-54"/>
       <use x="127.246094" xlink:href="#DejaVuSans-104"/>
       <use x="190.625" xlink:href="#DejaVuSans-58"/>
       <use x="224.316406" xlink:href="#DejaVuSans-52"/>
       <use x="287.939453" xlink:href="#DejaVuSans-53"/>
       <use x="351.5625" xlink:href="#DejaVuSans-109"/>
      </g>
     </g>
    </g>
    <g id="xtick_13">
     <g id="line2d_13">
      <defs>
       <path d="M 0 0 
L 0 2 
" id="m50b6e5dc75" style="stroke:#000000;stroke-width:0.6;"/>
      </defs>
      <g>
       <use style="stroke:#000000;stroke-width:0.6;" x="67.60495" xlink:href="#m50b6e5dc75" y="288.430125"/>
      </g>
     </g>
    </g>
    <g id="xtick_14">
     <g id="line2d_14">
      <g>
       <use style="stroke:#000000;stroke-width:0.6;" x="209.103023" xlink:href="#m50b6e5dc75" y="288.430125"/>
      </g>
     </g>
    </g>
    <g id="xtick_15">
     <g id="line2d_15">
      <g>
       <use style="stroke:#000000;stroke-width:0.6;" x="271.716918" xlink:href="#m50b6e5dc75" y="288.430125"/>
      </g>
     </g>
    </g>
    <g id="xtick_16">
     <g id="line2d_16">
      <g>
       <use style="stroke:#000000;stroke-width:0.6;" x="316.142183" xlink:href="#m50b6e5dc75" y="288.430125"/>
      </g>
     </g>
    </g>
    <g id="xtick_17">
     <g id="line2d_17">
      <g>
       <use style="stroke:#000000;stroke-width:0.6;" x="350.601096" xlink:href="#m50b6e5dc75" y="288.430125"/>
      </g>
     </g>
    </g>
    <g id="xtick_18">
     <g id="line2d_18">
      <g>
       <use style="stroke:#000000;stroke-width:0.6;" x="378.756077" xlink:href="#m50b6e5dc75" y="288.430125"/>
      </g>
     </g>
    </g>
    <g id="xtick_19">
     <g id="line2d_19">
      <g>
       <use style="stroke:#000000;stroke-width:0.6;" x="402.560775" xlink:href="#m50b6e5dc75" y="288.430125"/>
      </g>
     </g>
    </g>
    <g id="xtick_20">
     <g id="line2d_20">
      <g>
       <use style="stroke:#000000;stroke-width:0.6;" x="423.181343" xlink:href="#m50b6e5dc75" y="288.430125"/>
      </g>
     </g>
    </g>
    <g id="xtick_21">
     <g id="line2d_21">
      <g>
       <use style="stroke:#000000;stroke-width:0.6;" x="441.369972" xlink:href="#m50b6e5dc75" y="288.430125"/>
      </g>
     </g>
    </g>
    <g id="xtick_22">
     <g id="line2d_22">
      <g>
       <use style="stroke:#000000;stroke-width:0.6;" x="564.679415" xlink:href="#m50b6e5dc75" y="288.430125"/>
      </g>
     </g>
    </g>
    <g id="xtick_23">
     <g id="line2d_23">
      <g>
       <use style="stroke:#000000;stroke-width:0.6;" x="627.29331" xlink:href="#m50b6e5dc75" y="288.430125"/>
      </g>
     </g>
    </g>
    <g id="xtick_24">
     <g id="line2d_24">
      <g>
       <use style="stroke:#000000;stroke-width:0.6;" x="671.718575" xlink:href="#m50b6e5dc75" y="288.430125"/>
      </g>
     </g>
    </g>
    <g id="xtick_25">
     <g id="line2d_25">
      <g>
       <use style="stroke:#000000;stroke-width:0.6;" x="706.177488" xlink:href="#m50b6e5dc75" y="288.430125"/>
      </g>
     </g>
    </g>
    <g id="xtick_26">
     <g id="line2d_26">
      <g>
       <use style="stroke:#000000;stroke-width:0.6;" x="734.33247" xlink:href="#m50b6e5dc75" y="288.430125"/>
      </g>
     </g>
    </g>
    <g id="xtick_27">
     <g id="line2d_27">
      <g>
       <use style="stroke:#000000;stroke-width:0.6;" x="758.137168" xlink:href="#m50b6e5dc75" y="288.430125"/>
      </g>
     </g>
    </g>
    <g id="text_13">
     <!-- Time (hour:minute) -->
     <g transform="translate(362.041094 316.706687)scale(0.1 -0.1)">
      <defs>
       <path d="M -0.296875 72.90625 
L 61.375 72.90625 
L 61.375 64.59375 
L 35.5 64.59375 
L 35.5 0 
L 25.59375 0 
L 25.59375 64.59375 
L -0.296875 64.59375 
z
" id="DejaVuSans-84"/>
       <path d="M 9.421875 54.6875 
L 18.40625 54.6875 
L 18.40625 0 
L 9.421875 0 
z
M 9.421875 75.984375 
L 18.40625 75.984375 
L 18.40625 64.59375 
L 9.421875 64.59375 
z
" id="DejaVuSans-105"/>
       <path d="M 56.203125 29.59375 
L 56.203125 25.203125 
L 14.890625 25.203125 
Q 15.484375 15.921875 20.484375 11.0625 
Q 25.484375 6.203125 34.421875 6.203125 
Q 39.59375 6.203125 44.453125 7.46875 
Q 49.3125 8.734375 54.109375 11.28125 
L 54.109375 2.78125 
Q 49.265625 0.734375 44.1875 -0.34375 
Q 39.109375 -1.421875 33.890625 -1.421875 
Q 20.796875 -1.421875 13.15625 6.1875 
Q 5.515625 13.8125 5.515625 26.8125 
Q 5.515625 40.234375 12.765625 48.109375 
Q 20.015625 56 32.328125 56 
Q 43.359375 56 49.78125 48.890625 
Q 56.203125 41.796875 56.203125 29.59375 
z
M 47.21875 32.234375 
Q 47.125 39.59375 43.09375 43.984375 
Q 39.0625 48.390625 32.421875 48.390625 
Q 24.90625 48.390625 20.390625 44.140625 
Q 15.875 39.890625 15.1875 32.171875 
z
" id="DejaVuSans-101"/>
       <path id="DejaVuSans-32"/>
       <path d="M 31 75.875 
Q 24.46875 64.65625 21.28125 53.65625 
Q 18.109375 42.671875 18.109375 31.390625 
Q 18.109375 20.125 21.3125 9.0625 
Q 24.515625 -2 31 -13.1875 
L 23.1875 -13.1875 
Q 15.875 -1.703125 12.234375 9.375 
Q 8.59375 20.453125 8.59375 31.390625 
Q 8.59375 42.28125 12.203125 53.3125 
Q 15.828125 64.359375 23.1875 75.875 
z
" id="DejaVuSans-40"/>
       <path d="M 30.609375 48.390625 
Q 23.390625 48.390625 19.1875 42.75 
Q 14.984375 37.109375 14.984375 27.296875 
Q 14.984375 17.484375 19.15625 11.84375 
Q 23.34375 6.203125 30.609375 6.203125 
Q 37.796875 6.203125 41.984375 11.859375 
Q 46.1875 17.53125 46.1875 27.296875 
Q 46.1875 37.015625 41.984375 42.703125 
Q 37.796875 48.390625 30.609375 48.390625 
z
M 30.609375 56 
Q 42.328125 56 49.015625 48.375 
Q 55.71875 40.765625 55.71875 27.296875 
Q 55.71875 13.875 49.015625 6.21875 
Q 42.328125 -1.421875 30.609375 -1.421875 
Q 18.84375 -1.421875 12.171875 6.21875 
Q 5.515625 13.875 5.515625 27.296875 
Q 5.515625 40.765625 12.171875 48.375 
Q 18.84375 56 30.609375 56 
z
" id="DejaVuSans-111"/>
       <path d="M 8.5 21.578125 
L 8.5 54.6875 
L 17.484375 54.6875 
L 17.484375 21.921875 
Q 17.484375 14.15625 20.5 10.265625 
Q 23.53125 6.390625 29.59375 6.390625 
Q 36.859375 6.390625 41.078125 11.03125 
Q 45.3125 15.671875 45.3125 23.6875 
L 45.3125 54.6875 
L 54.296875 54.6875 
L 54.296875 0 
L 45.3125 0 
L 45.3125 8.40625 
Q 42.046875 3.421875 37.71875 1 
Q 33.40625 -1.421875 27.6875 -1.421875 
Q 18.265625 -1.421875 13.375 4.4375 
Q 8.5 10.296875 8.5 21.578125 
z
M 31.109375 56 
z
" id="DejaVuSans-117"/>
       <path d="M 41.109375 46.296875 
Q 39.59375 47.171875 37.8125 47.578125 
Q 36.03125 48 33.890625 48 
Q 26.265625 48 22.1875 43.046875 
Q 18.109375 38.09375 18.109375 28.8125 
L 18.109375 0 
L 9.078125 0 
L 9.078125 54.6875 
L 18.109375 54.6875 
L 18.109375 46.1875 
Q 20.953125 51.171875 25.484375 53.578125 
Q 30.03125 56 36.53125 56 
Q 37.453125 56 38.578125 55.875 
Q 39.703125 55.765625 41.0625 55.515625 
z
" id="DejaVuSans-114"/>
       <path d="M 54.890625 33.015625 
L 54.890625 0 
L 45.90625 0 
L 45.90625 32.71875 
Q 45.90625 40.484375 42.875 44.328125 
Q 39.84375 48.1875 33.796875 48.1875 
Q 26.515625 48.1875 22.3125 43.546875 
Q 18.109375 38.921875 18.109375 30.90625 
L 18.109375 0 
L 9.078125 0 
L 9.078125 54.6875 
L 18.109375 54.6875 
L 18.109375 46.1875 
Q 21.34375 51.125 25.703125 53.5625 
Q 30.078125 56 35.796875 56 
Q 45.21875 56 50.046875 50.171875 
Q 54.890625 44.34375 54.890625 33.015625 
z
" id="DejaVuSans-110"/>
       <path d="M 18.3125 70.21875 
L 18.3125 54.6875 
L 36.8125 54.6875 
L 36.8125 47.703125 
L 18.3125 47.703125 
L 18.3125 18.015625 
Q 18.3125 11.328125 20.140625 9.421875 
Q 21.96875 7.515625 27.59375 7.515625 
L 36.8125 7.515625 
L 36.8125 0 
L 27.59375 0 
Q 17.1875 0 13.234375 3.875 
Q 9.28125 7.765625 9.28125 18.015625 
L 9.28125 47.703125 
L 2.6875 47.703125 
L 2.6875 54.6875 
L 9.28125 54.6875 
L 9.28125 70.21875 
z
" id="DejaVuSans-116"/>
       <path d="M 8.015625 75.875 
L 15.828125 75.875 
Q 23.140625 64.359375 26.78125 53.3125 
Q 30.421875 42.28125 30.421875 31.390625 
Q 30.421875 20.453125 26.78125 9.375 
Q 23.140625 -1.703125 15.828125 -13.1875 
L 8.015625 -13.1875 
Q 14.5 -2 17.703125 9.0625 
Q 20.90625 20.125 20.90625 31.390625 
Q 20.90625 42.671875 17.703125 53.65625 
Q 14.5 64.65625 8.015625 75.875 
z
" id="DejaVuSans-41"/>
      </defs>
      <use xlink:href="#DejaVuSans-84"/>
      <use x="57.958984" xlink:href="#DejaVuSans-105"/>
      <use x="85.742188" xlink:href="#DejaVuSans-109"/>
      <use x="183.154297" xlink:href="#DejaVuSans-101"/>
      <use x="244.677734" xlink:href="#DejaVuSans-32"/>
      <use x="276.464844" xlink:href="#DejaVuSans-40"/>
      <use x="315.478516" xlink:href="#DejaVuSans-104"/>
      <use x="378.857422" xlink:href="#DejaVuSans-111"/>
      <use x="440.039062" xlink:href="#DejaVuSans-117"/>
      <use x="503.417969" xlink:href="#DejaVuSans-114"/>
      <use x="542.78125" xlink:href="#DejaVuSans-58"/>
      <use x="576.472656" xlink:href="#DejaVuSans-109"/>
      <use x="673.884766" xlink:href="#DejaVuSans-105"/>
      <use x="701.667969" xlink:href="#DejaVuSans-110"/>
      <use x="765.046875" xlink:href="#DejaVuSans-117"/>
      <use x="828.425781" xlink:href="#DejaVuSans-116"/>
      <use x="867.634766" xlink:href="#DejaVuSans-101"/>
      <use x="929.158203" xlink:href="#DejaVuSans-41"/>
     </g>
    </g>
   </g>
   <g id="matplotlib.axis_2">
    <g id="ytick_1">
     <g id="line2d_28">
      <defs>
       <path d="M 0 0 
L -3.5 0 
" id="m4bf1b8321d" style="stroke:#000000;stroke-width:0.8;"/>
      </defs>
      <g>
       <use style="stroke:#000000;stroke-width:0.8;" x="53.328125" xlink:href="#m4bf1b8321d" y="266.229795"/>
      </g>
     </g>
     <g id="text_14">
      <!-- 1500 -->
      <g transform="translate(20.878125 270.029014)scale(0.1 -0.1)">
       <defs>
        <path d="M 31.78125 66.40625 
Q 24.171875 66.40625 20.328125 58.90625 
Q 16.5 51.421875 16.5 36.375 
Q 16.5 21.390625 20.328125 13.890625 
Q 24.171875 6.390625 31.78125 6.390625 
Q 39.453125 6.390625 43.28125 13.890625 
Q 47.125 21.390625 47.125 36.375 
Q 47.125 51.421875 43.28125 58.90625 
Q 39.453125 66.40625 31.78125 66.40625 
z
M 31.78125 74.21875 
Q 44.046875 74.21875 50.515625 64.515625 
Q 56.984375 54.828125 56.984375 36.375 
Q 56.984375 17.96875 50.515625 8.265625 
Q 44.046875 -1.421875 31.78125 -1.421875 
Q 19.53125 -1.421875 13.0625 8.265625 
Q 6.59375 17.96875 6.59375 36.375 
Q 6.59375 54.828125 13.0625 64.515625 
Q 19.53125 74.21875 31.78125 74.21875 
z
" id="DejaVuSans-48"/>
       </defs>
       <use xlink:href="#DejaVuSans-49"/>
       <use x="63.623047" xlink:href="#DejaVuSans-53"/>
       <use x="127.246094" xlink:href="#DejaVuSans-48"/>
       <use x="190.869141" xlink:href="#DejaVuSans-48"/>
      </g>
     </g>
    </g>
    <g id="ytick_2">
     <g id="line2d_29">
      <g>
       <use style="stroke:#000000;stroke-width:0.8;" x="53.328125" xlink:href="#m4bf1b8321d" y="233.663284"/>
      </g>
     </g>
     <g id="text_15">
      <!-- 2000 -->
      <g transform="translate(20.878125 237.462503)scale(0.1 -0.1)">
       <use xlink:href="#DejaVuSans-50"/>
       <use x="63.623047" xlink:href="#DejaVuSans-48"/>
       <use x="127.246094" xlink:href="#DejaVuSans-48"/>
       <use x="190.869141" xlink:href="#DejaVuSans-48"/>
      </g>
     </g>
    </g>
    <g id="ytick_3">
     <g id="line2d_30">
      <g>
       <use style="stroke:#000000;stroke-width:0.8;" x="53.328125" xlink:href="#m4bf1b8321d" y="201.096773"/>
      </g>
     </g>
     <g id="text_16">
      <!-- 2500 -->
      <g transform="translate(20.878125 204.895992)scale(0.1 -0.1)">
       <use xlink:href="#DejaVuSans-50"/>
       <use x="63.623047" xlink:href="#DejaVuSans-53"/>
       <use x="127.246094" xlink:href="#DejaVuSans-48"/>
       <use x="190.869141" xlink:href="#DejaVuSans-48"/>
      </g>
     </g>
    </g>
    <g id="ytick_4">
     <g id="line2d_31">
      <g>
       <use style="stroke:#000000;stroke-width:0.8;" x="53.328125" xlink:href="#m4bf1b8321d" y="168.530263"/>
      </g>
     </g>
     <g id="text_17">
      <!-- 3000 -->
      <g transform="translate(20.878125 172.329481)scale(0.1 -0.1)">
       <use xlink:href="#DejaVuSans-51"/>
       <use x="63.623047" xlink:href="#DejaVuSans-48"/>
       <use x="127.246094" xlink:href="#DejaVuSans-48"/>
       <use x="190.869141" xlink:href="#DejaVuSans-48"/>
      </g>
     </g>
    </g>
    <g id="ytick_5">
     <g id="line2d_32">
      <g>
       <use style="stroke:#000000;stroke-width:0.8;" x="53.328125" xlink:href="#m4bf1b8321d" y="135.963752"/>
      </g>
     </g>
     <g id="text_18">
      <!-- 3500 -->
      <g transform="translate(20.878125 139.762971)scale(0.1 -0.1)">
       <use xlink:href="#DejaVuSans-51"/>
       <use x="63.623047" xlink:href="#DejaVuSans-53"/>
       <use x="127.246094" xlink:href="#DejaVuSans-48"/>
       <use x="190.869141" xlink:href="#DejaVuSans-48"/>
      </g>
     </g>
    </g>
    <g id="ytick_6">
     <g id="line2d_33">
      <g>
       <use style="stroke:#000000;stroke-width:0.8;" x="53.328125" xlink:href="#m4bf1b8321d" y="103.397241"/>
      </g>
     </g>
     <g id="text_19">
      <!-- 4000 -->
      <g transform="translate(20.878125 107.19646)scale(0.1 -0.1)">
       <use xlink:href="#DejaVuSans-52"/>
       <use x="63.623047" xlink:href="#DejaVuSans-48"/>
       <use x="127.246094" xlink:href="#DejaVuSans-48"/>
       <use x="190.869141" xlink:href="#DejaVuSans-48"/>
      </g>
     </g>
    </g>
    <g id="ytick_7">
     <g id="line2d_34">
      <g>
       <use style="stroke:#000000;stroke-width:0.8;" x="53.328125" xlink:href="#m4bf1b8321d" y="70.83073"/>
      </g>
     </g>
     <g id="text_20">
      <!-- 4500 -->
      <g transform="translate(20.878125 74.629949)scale(0.1 -0.1)">
       <use xlink:href="#DejaVuSans-52"/>
       <use x="63.623047" xlink:href="#DejaVuSans-53"/>
       <use x="127.246094" xlink:href="#DejaVuSans-48"/>
       <use x="190.869141" xlink:href="#DejaVuSans-48"/>
      </g>
     </g>
    </g>
    <g id="ytick_8">
     <g id="line2d_35">
      <g>
       <use style="stroke:#000000;stroke-width:0.8;" x="53.328125" xlink:href="#m4bf1b8321d" y="38.264219"/>
      </g>
     </g>
     <g id="text_21">
      <!-- 5000 -->
      <g transform="translate(20.878125 42.063438)scale(0.1 -0.1)">
       <use xlink:href="#DejaVuSans-53"/>
       <use x="63.623047" xlink:href="#DejaVuSans-48"/>
       <use x="127.246094" xlink:href="#DejaVuSans-48"/>
       <use x="190.869141" xlink:href="#DejaVuSans-48"/>
      </g>
     </g>
    </g>
    <g id="text_22">
     <!-- Edge coverage -->
     <g transform="translate(14.798438 192.762406)rotate(-90)scale(0.1 -0.1)">
      <defs>
       <path d="M 9.8125 72.90625 
L 55.90625 72.90625 
L 55.90625 64.59375 
L 19.671875 64.59375 
L 19.671875 43.015625 
L 54.390625 43.015625 
L 54.390625 34.71875 
L 19.671875 34.71875 
L 19.671875 8.296875 
L 56.78125 8.296875 
L 56.78125 0 
L 9.8125 0 
z
" id="DejaVuSans-69"/>
       <path d="M 45.40625 46.390625 
L 45.40625 75.984375 
L 54.390625 75.984375 
L 54.390625 0 
L 45.40625 0 
L 45.40625 8.203125 
Q 42.578125 3.328125 38.25 0.953125 
Q 33.9375 -1.421875 27.875 -1.421875 
Q 17.96875 -1.421875 11.734375 6.484375 
Q 5.515625 14.40625 5.515625 27.296875 
Q 5.515625 40.1875 11.734375 48.09375 
Q 17.96875 56 27.875 56 
Q 33.9375 56 38.25 53.625 
Q 42.578125 51.265625 45.40625 46.390625 
z
M 14.796875 27.296875 
Q 14.796875 17.390625 18.875 11.75 
Q 22.953125 6.109375 30.078125 6.109375 
Q 37.203125 6.109375 41.296875 11.75 
Q 45.40625 17.390625 45.40625 27.296875 
Q 45.40625 37.203125 41.296875 42.84375 
Q 37.203125 48.484375 30.078125 48.484375 
Q 22.953125 48.484375 18.875 42.84375 
Q 14.796875 37.203125 14.796875 27.296875 
z
" id="DejaVuSans-100"/>
       <path d="M 45.40625 27.984375 
Q 45.40625 37.75 41.375 43.109375 
Q 37.359375 48.484375 30.078125 48.484375 
Q 22.859375 48.484375 18.828125 43.109375 
Q 14.796875 37.75 14.796875 27.984375 
Q 14.796875 18.265625 18.828125 12.890625 
Q 22.859375 7.515625 30.078125 7.515625 
Q 37.359375 7.515625 41.375 12.890625 
Q 45.40625 18.265625 45.40625 27.984375 
z
M 54.390625 6.78125 
Q 54.390625 -7.171875 48.1875 -13.984375 
Q 42 -20.796875 29.203125 -20.796875 
Q 24.46875 -20.796875 20.265625 -20.09375 
Q 16.0625 -19.390625 12.109375 -17.921875 
L 12.109375 -9.1875 
Q 16.0625 -11.328125 19.921875 -12.34375 
Q 23.78125 -13.375 27.78125 -13.375 
Q 36.625 -13.375 41.015625 -8.765625 
Q 45.40625 -4.15625 45.40625 5.171875 
L 45.40625 9.625 
Q 42.625 4.78125 38.28125 2.390625 
Q 33.9375 0 27.875 0 
Q 17.828125 0 11.671875 7.65625 
Q 5.515625 15.328125 5.515625 27.984375 
Q 5.515625 40.671875 11.671875 48.328125 
Q 17.828125 56 27.875 56 
Q 33.9375 56 38.28125 53.609375 
Q 42.625 51.21875 45.40625 46.390625 
L 45.40625 54.6875 
L 54.390625 54.6875 
z
" id="DejaVuSans-103"/>
       <path d="M 48.78125 52.59375 
L 48.78125 44.1875 
Q 44.96875 46.296875 41.140625 47.34375 
Q 37.3125 48.390625 33.40625 48.390625 
Q 24.65625 48.390625 19.8125 42.84375 
Q 14.984375 37.3125 14.984375 27.296875 
Q 14.984375 17.28125 19.8125 11.734375 
Q 24.65625 6.203125 33.40625 6.203125 
Q 37.3125 6.203125 41.140625 7.25 
Q 44.96875 8.296875 48.78125 10.40625 
L 48.78125 2.09375 
Q 45.015625 0.34375 40.984375 -0.53125 
Q 36.96875 -1.421875 32.421875 -1.421875 
Q 20.0625 -1.421875 12.78125 6.34375 
Q 5.515625 14.109375 5.515625 27.296875 
Q 5.515625 40.671875 12.859375 48.328125 
Q 20.21875 56 33.015625 56 
Q 37.15625 56 41.109375 55.140625 
Q 45.0625 54.296875 48.78125 52.59375 
z
" id="DejaVuSans-99"/>
       <path d="M 2.984375 54.6875 
L 12.5 54.6875 
L 29.59375 8.796875 
L 46.6875 54.6875 
L 56.203125 54.6875 
L 35.6875 0 
L 23.484375 0 
z
" id="DejaVuSans-118"/>
       <path d="M 34.28125 27.484375 
Q 23.390625 27.484375 19.1875 25 
Q 14.984375 22.515625 14.984375 16.5 
Q 14.984375 11.71875 18.140625 8.90625 
Q 21.296875 6.109375 26.703125 6.109375 
Q 34.1875 6.109375 38.703125 11.40625 
Q 43.21875 16.703125 43.21875 25.484375 
L 43.21875 27.484375 
z
M 52.203125 31.203125 
L 52.203125 0 
L 43.21875 0 
L 43.21875 8.296875 
Q 40.140625 3.328125 35.546875 0.953125 
Q 30.953125 -1.421875 24.3125 -1.421875 
Q 15.921875 -1.421875 10.953125 3.296875 
Q 6 8.015625 6 15.921875 
Q 6 25.140625 12.171875 29.828125 
Q 18.359375 34.515625 30.609375 34.515625 
L 43.21875 34.515625 
L 43.21875 35.40625 
Q 43.21875 41.609375 39.140625 45 
Q 35.0625 48.390625 27.6875 48.390625 
Q 23 48.390625 18.546875 47.265625 
Q 14.109375 46.140625 10.015625 43.890625 
L 10.015625 52.203125 
Q 14.9375 54.109375 19.578125 55.046875 
Q 24.21875 56 28.609375 56 
Q 40.484375 56 46.34375 49.84375 
Q 52.203125 43.703125 52.203125 31.203125 
z
" id="DejaVuSans-97"/>
      </defs>
      <use xlink:href="#DejaVuSans-69"/>
      <use x="63.183594" xlink:href="#DejaVuSans-100"/>
      <use x="126.660156" xlink:href="#DejaVuSans-103"/>
      <use x="190.136719" xlink:href="#DejaVuSans-101"/>
      <use x="251.660156" xlink:href="#DejaVuSans-32"/>
      <use x="283.447266" xlink:href="#DejaVuSans-99"/>
      <use x="338.427734" xlink:href="#DejaVuSans-111"/>
      <use x="399.609375" xlink:href="#DejaVuSans-118"/>
      <use x="458.789062" xlink:href="#DejaVuSans-101"/>
      <use x="520.3125" xlink:href="#DejaVuSans-114"/>
      <use x="561.425781" xlink:href="#DejaVuSans-97"/>
      <use x="622.705078" xlink:href="#DejaVuSans-103"/>
      <use x="686.181641" xlink:href="#DejaVuSans-101"/>
     </g>
    </g>
   </g>
   <g id="line2d_36">
    <path clip-path="url(#p95b259dd6b)" d="M 85.79358 245.442591 
L 192.832739 188.539127 
L 255.446634 158.57468 
L 299.871899 135.70322 
L 334.330812 126.171002 
L 362.485794 112.66567 
L 386.290492 104.738981 
L 406.911059 98.834673 
L 425.099689 91.7482 
L 441.369972 86.566868 
L 456.088234 82.870569 
L 469.524954 80.460647 
L 481.885538 78.943048 
L 493.329652 77.8423 
L 503.983867 74.914571 
L 513.950219 73.012686 
L 523.312168 71.892398 
L 532.138849 68.15702 
L 540.488172 67.189794 
L 548.409132 65.310707 
L 555.943547 62.096392 
L 563.127394 61.331079 
L 569.991851 58.98629 
L 576.564114 57.439381 
L 582.868045 55.785002 
L 588.924698 54.436749 
L 594.752743 53.788675 
L 600.368812 53.208991 
L 605.787784 53.026619 
L 611.023027 51.945411 
L 616.086591 51.828171 
L 620.989379 51.649055 
L 625.741288 50.864202 
L 630.351328 50.401758 
L 634.827725 50.203102 
L 639.178009 49.669011 
L 643.409091 48.685503 
L 647.527332 47.128824 
L 651.538593 46.757565 
L 655.448292 46.457953 
L 659.261445 46.327687 
L 662.982706 46.171368 
L 666.6164 44.712388 
L 670.166554 44.347644 
L 673.636921 44.126191 
L 677.031011 43.924279 
L 680.352104 42.175457 
L 683.603274 41.416658 
L 686.787404 41.315701 
L 689.907205 41.260338 
L 692.965223 41.146356 
L 695.963858 41.061683 
L 698.905373 40.833717 
L 701.791903 40.11074 
L 704.625466 39.101179 
L 707.407972 38.863443 
L 710.141227 38.365176 
L 712.826944 38.283759 
L 715.46675 38.257706 
L 718.062187 37.847368 
L 720.614722 37.756182 
L 723.125751 37.671509 
L 725.596601 37.511933 
L 728.028539 37.228604 
L 730.422771 37.212321 
L 732.780448 37.205808 
L 735.10267 37.054116 
" style="fill:none;stroke:#98df8a;stroke-linecap:square;stroke-width:1.5;"/>
   </g>
   <g id="line2d_37">
    <path clip-path="url(#p95b259dd6b)" d="M 85.79358 258.566895 
L 192.832739 228.905317 
L 255.446634 191.799035 
L 299.871899 166.097544 
L 334.330812 148.518142 
L 362.485794 141.529369 
L 386.290492 135.856282 
L 406.911059 125.350326 
L 425.099689 122.764545 
L 441.369972 117.755816 
L 456.088234 113.649179 
L 469.524954 108.48413 
L 481.885538 107.09354 
L 493.329652 104.761778 
L 503.983867 104.055084 
L 513.950219 103.654516 
L 523.312168 101.355321 
L 532.138849 100.394609 
L 540.488172 99.958217 
L 548.409132 99.557649 
L 555.943547 98.987735 
L 563.127394 98.561114 
L 569.991851 98.196369 
L 576.564114 96.073033 
L 582.868045 95.187224 
L 588.924698 93.578438 
L 594.752743 93.356986 
L 600.368812 92.796842 
L 605.787784 92.627496 
L 611.023027 92.285547 
L 616.086591 91.061047 
L 620.989379 90.875418 
L 625.741288 90.829824 
L 630.351328 89.62812 
L 634.827725 89.406668 
L 639.178009 88.993073 
L 643.409091 88.859551 
L 647.527332 87.667616 
L 651.538593 87.351721 
L 655.448292 87.214942 
L 659.261445 87.166092 
L 662.982706 87.019543 
L 666.6164 86.439859 
L 670.166554 86.18584 
L 673.636921 85.658263 
L 677.031011 85.329341 
L 680.352104 84.606364 
L 683.603274 82.531877 
L 686.787404 81.769821 
L 689.907205 80.51601 
L 692.965223 80.105672 
L 695.963858 79.379439 
L 698.905373 79.096111 
L 701.791903 78.61087 
L 704.625466 78.58156 
L 707.407972 78.418727 
L 710.141227 78.008389 
L 712.826944 77.878123 
L 715.46675 77.633874 
L 718.062187 77.243076 
L 720.614722 76.764348 
L 723.125751 76.357267 
L 725.596601 76.077195 
L 728.028539 76.051142 
L 730.422771 75.552874 
L 732.780448 75.334679 
L 735.10267 86.23469 
" style="fill:none;stroke:#1f77b4;stroke-linecap:square;stroke-width:1.5;"/>
   </g>
   <g id="line2d_38"/>
   <g id="line2d_39"/>
   <g id="line2d_40"/>
   <g id="line2d_41">
    <path clip-path="url(#p95b259dd6b)" d="M 735.10267 288.430125 
L 735.10267 22.318125 
" style="fill:none;stroke:#ff0000;stroke-linecap:square;stroke-width:1.5;"/>
   </g>
   <g id="patch_3">
    <path d="M 53.328125 266.229795 
L 53.328125 38.264219 
" style="fill:none;stroke:#000000;stroke-linecap:square;stroke-linejoin:miter;stroke-width:0.8;"/>
   </g>
   <g id="patch_4">
    <path d="M 85.79358 288.430125 
L 735.105231 288.430125 
" style="fill:none;stroke:#000000;stroke-linecap:square;stroke-linejoin:miter;stroke-width:0.8;"/>
   </g>
   <g id="text_23">
    <!-- proj4-2017-08-14 (16h:45m, 10 trials/fuzzer) -->
    <g transform="translate(275.887813 16.318125)scale(0.12 -0.12)">
     <defs>
      <path d="M 18.109375 8.203125 
L 18.109375 -20.796875 
L 9.078125 -20.796875 
L 9.078125 54.6875 
L 18.109375 54.6875 
L 18.109375 46.390625 
Q 20.953125 51.265625 25.265625 53.625 
Q 29.59375 56 35.59375 56 
Q 45.5625 56 51.78125 48.09375 
Q 58.015625 40.1875 58.015625 27.296875 
Q 58.015625 14.40625 51.78125 6.484375 
Q 45.5625 -1.421875 35.59375 -1.421875 
Q 29.59375 -1.421875 25.265625 0.953125 
Q 20.953125 3.328125 18.109375 8.203125 
z
M 48.6875 27.296875 
Q 48.6875 37.203125 44.609375 42.84375 
Q 40.53125 48.484375 33.40625 48.484375 
Q 26.265625 48.484375 22.1875 42.84375 
Q 18.109375 37.203125 18.109375 27.296875 
Q 18.109375 17.390625 22.1875 11.75 
Q 26.265625 6.109375 33.40625 6.109375 
Q 40.53125 6.109375 44.609375 11.75 
Q 48.6875 17.390625 48.6875 27.296875 
z
" id="DejaVuSans-112"/>
      <path d="M 9.421875 54.6875 
L 18.40625 54.6875 
L 18.40625 -0.984375 
Q 18.40625 -11.421875 14.421875 -16.109375 
Q 10.453125 -20.796875 1.609375 -20.796875 
L -1.8125 -20.796875 
L -1.8125 -13.1875 
L 0.59375 -13.1875 
Q 5.71875 -13.1875 7.5625 -10.8125 
Q 9.421875 -8.453125 9.421875 -0.984375 
z
M 9.421875 75.984375 
L 18.40625 75.984375 
L 18.40625 64.59375 
L 9.421875 64.59375 
z
" id="DejaVuSans-106"/>
      <path d="M 4.890625 31.390625 
L 31.203125 31.390625 
L 31.203125 23.390625 
L 4.890625 23.390625 
z
" id="DejaVuSans-45"/>
      <path d="M 11.71875 12.40625 
L 22.015625 12.40625 
L 22.015625 4 
L 14.015625 -11.625 
L 7.71875 -11.625 
L 11.71875 4 
z
" id="DejaVuSans-44"/>
      <path d="M 9.421875 75.984375 
L 18.40625 75.984375 
L 18.40625 0 
L 9.421875 0 
z
" id="DejaVuSans-108"/>
      <path d="M 44.28125 53.078125 
L 44.28125 44.578125 
Q 40.484375 46.53125 36.375 47.5 
Q 32.28125 48.484375 27.875 48.484375 
Q 21.1875 48.484375 17.84375 46.4375 
Q 14.5 44.390625 14.5 40.28125 
Q 14.5 37.15625 16.890625 35.375 
Q 19.28125 33.59375 26.515625 31.984375 
L 29.59375 31.296875 
Q 39.15625 29.25 43.1875 25.515625 
Q 47.21875 21.78125 47.21875 15.09375 
Q 47.21875 7.46875 41.1875 3.015625 
Q 35.15625 -1.421875 24.609375 -1.421875 
Q 20.21875 -1.421875 15.453125 -0.5625 
Q 10.6875 0.296875 5.421875 2 
L 5.421875 11.28125 
Q 10.40625 8.6875 15.234375 7.390625 
Q 20.0625 6.109375 24.8125 6.109375 
Q 31.15625 6.109375 34.5625 8.28125 
Q 37.984375 10.453125 37.984375 14.40625 
Q 37.984375 18.0625 35.515625 20.015625 
Q 33.0625 21.96875 24.703125 23.78125 
L 21.578125 24.515625 
Q 13.234375 26.265625 9.515625 29.90625 
Q 5.8125 33.546875 5.8125 39.890625 
Q 5.8125 47.609375 11.28125 51.796875 
Q 16.75 56 26.8125 56 
Q 31.78125 56 36.171875 55.265625 
Q 40.578125 54.546875 44.28125 53.078125 
z
" id="DejaVuSans-115"/>
      <path d="M 25.390625 72.90625 
L 33.6875 72.90625 
L 8.296875 -9.28125 
L 0 -9.28125 
z
" id="DejaVuSans-47"/>
      <path d="M 37.109375 75.984375 
L 37.109375 68.5 
L 28.515625 68.5 
Q 23.6875 68.5 21.796875 66.546875 
Q 19.921875 64.59375 19.921875 59.515625 
L 19.921875 54.6875 
L 34.71875 54.6875 
L 34.71875 47.703125 
L 19.921875 47.703125 
L 19.921875 0 
L 10.890625 0 
L 10.890625 47.703125 
L 2.296875 47.703125 
L 2.296875 54.6875 
L 10.890625 54.6875 
L 10.890625 58.5 
Q 10.890625 67.625 15.140625 71.796875 
Q 19.390625 75.984375 28.609375 75.984375 
z
" id="DejaVuSans-102"/>
      <path d="M 5.515625 54.6875 
L 48.1875 54.6875 
L 48.1875 46.484375 
L 14.40625 7.171875 
L 48.1875 7.171875 
L 48.1875 0 
L 4.296875 0 
L 4.296875 8.203125 
L 38.09375 47.515625 
L 5.515625 47.515625 
z
" id="DejaVuSans-122"/>
     </defs>
     <use xlink:href="#DejaVuSans-112"/>
     <use x="63.476562" xlink:href="#DejaVuSans-114"/>
     <use x="102.339844" xlink:href="#DejaVuSans-111"/>
     <use x="163.521484" xlink:href="#DejaVuSans-106"/>
     <use x="191.304688" xlink:href="#DejaVuSans-52"/>
     <use x="254.927734" xlink:href="#DejaVuSans-45"/>
     <use x="291.011719" xlink:href="#DejaVuSans-50"/>
     <use x="354.634766" xlink:href="#DejaVuSans-48"/>
     <use x="418.257812" xlink:href="#DejaVuSans-49"/>
     <use x="481.880859" xlink:href="#DejaVuSans-55"/>
     <use x="545.503906" xlink:href="#DejaVuSans-45"/>
     <use x="581.587891" xlink:href="#DejaVuSans-48"/>
     <use x="645.210938" xlink:href="#DejaVuSans-56"/>
     <use x="708.833984" xlink:href="#DejaVuSans-45"/>
     <use x="744.917969" xlink:href="#DejaVuSans-49"/>
     <use x="808.541016" xlink:href="#DejaVuSans-52"/>
     <use x="872.164062" xlink:href="#DejaVuSans-32"/>
     <use x="903.951172" xlink:href="#DejaVuSans-40"/>
     <use x="942.964844" xlink:href="#DejaVuSans-49"/>
     <use x="1006.587891" xlink:href="#DejaVuSans-54"/>
     <use x="1070.210938" xlink:href="#DejaVuSans-104"/>
     <use x="1133.589844" xlink:href="#DejaVuSans-58"/>
     <use x="1167.28125" xlink:href="#DejaVuSans-52"/>
     <use x="1230.904297" xlink:href="#DejaVuSans-53"/>
     <use x="1294.527344" xlink:href="#DejaVuSans-109"/>
     <use x="1391.939453" xlink:href="#DejaVuSans-44"/>
     <use x="1423.726562" xlink:href="#DejaVuSans-32"/>
     <use x="1455.513672" xlink:href="#DejaVuSans-49"/>
     <use x="1519.136719" xlink:href="#DejaVuSans-48"/>
     <use x="1582.759766" xlink:href="#DejaVuSans-32"/>
     <use x="1614.546875" xlink:href="#DejaVuSans-116"/>
     <use x="1653.755859" xlink:href="#DejaVuSans-114"/>
     <use x="1694.869141" xlink:href="#DejaVuSans-105"/>
     <use x="1722.652344" xlink:href="#DejaVuSans-97"/>
     <use x="1783.931641" xlink:href="#DejaVuSans-108"/>
     <use x="1811.714844" xlink:href="#DejaVuSans-115"/>
     <use x="1863.814453" xlink:href="#DejaVuSans-47"/>
     <use x="1897.505859" xlink:href="#DejaVuSans-102"/>
     <use x="1932.710938" xlink:href="#DejaVuSans-117"/>
     <use x="1996.089844" xlink:href="#DejaVuSans-122"/>
     <use x="2048.580078" xlink:href="#DejaVuSans-122"/>
     <use x="2101.070312" xlink:href="#DejaVuSans-101"/>
     <use x="2162.59375" xlink:href="#DejaVuSans-114"/>
     <use x="2203.707031" xlink:href="#DejaVuSans-41"/>
    </g>
   </g>
   <g id="legend_1">
    <g id="line2d_42">
     <path d="M 771.568125 30.416562 
L 791.568125 30.416562 
" style="fill:none;"/>
    </g>
    <g id="line2d_43"/>
    <g id="text_24">
     <!-- fuzzer -->
     <g transform="translate(799.568125 33.916562)scale(0.1 -0.1)">
      <use xlink:href="#DejaVuSans-102"/>
      <use x="35.205078" xlink:href="#DejaVuSans-117"/>
      <use x="98.583984" xlink:href="#DejaVuSans-122"/>
      <use x="151.074219" xlink:href="#DejaVuSans-122"/>
      <use x="203.564453" xlink:href="#DejaVuSans-101"/>
      <use x="265.087891" xlink:href="#DejaVuSans-114"/>
     </g>
    </g>
    <g id="line2d_44">
     <path d="M 771.568125 45.094688 
L 791.568125 45.094688 
" style="fill:none;stroke:#98df8a;stroke-linecap:square;stroke-width:1.5;"/>
    </g>
    <g id="line2d_45"/>
    <g id="text_25">
     <!-- aflplusplus_some -->
     <g transform="translate(799.568125 48.594688)scale(0.1 -0.1)">
      <defs>
       <path d="M 50.984375 -16.609375 
L 50.984375 -23.578125 
L -0.984375 -23.578125 
L -0.984375 -16.609375 
z
" id="DejaVuSans-95"/>
      </defs>
      <use xlink:href="#DejaVuSans-97"/>
      <use x="61.279297" xlink:href="#DejaVuSans-102"/>
      <use x="96.484375" xlink:href="#DejaVuSans-108"/>
      <use x="124.267578" xlink:href="#DejaVuSans-112"/>
      <use x="187.744141" xlink:href="#DejaVuSans-108"/>
      <use x="215.527344" xlink:href="#DejaVuSans-117"/>
      <use x="278.90625" xlink:href="#DejaVuSans-115"/>
      <use x="331.005859" xlink:href="#DejaVuSans-112"/>
      <use x="394.482422" xlink:href="#DejaVuSans-108"/>
      <use x="422.265625" xlink:href="#DejaVuSans-117"/>
      <use x="485.644531" xlink:href="#DejaVuSans-115"/>
      <use x="537.744141" xlink:href="#DejaVuSans-95"/>
      <use x="587.744141" xlink:href="#DejaVuSans-115"/>
      <use x="639.84375" xlink:href="#DejaVuSans-111"/>
      <use x="701.025391" xlink:href="#DejaVuSans-109"/>
      <use x="798.4375" xlink:href="#DejaVuSans-101"/>
     </g>
    </g>
    <g id="line2d_46">
     <path d="M 771.568125 60.050937 
L 791.568125 60.050937 
" style="fill:none;stroke:#1f77b4;stroke-linecap:square;stroke-width:1.5;"/>
    </g>
    <g id="line2d_47"/>
    <g id="text_26">
     <!-- aflplusplus_flat -->
     <g transform="translate(799.568125 63.550937)scale(0.1 -0.1)">
      <use xlink:href="#DejaVuSans-97"/>
      <use x="61.279297" xlink:href="#DejaVuSans-102"/>
      <use x="96.484375" xlink:href="#DejaVuSans-108"/>
      <use x="124.267578" xlink:href="#DejaVuSans-112"/>
      <use x="187.744141" xlink:href="#DejaVuSans-108"/>
      <use x="215.527344" xlink:href="#DejaVuSans-117"/>
      <use x="278.90625" xlink:href="#DejaVuSans-115"/>
      <use x="331.005859" xlink:href="#DejaVuSans-112"/>
      <use x="394.482422" xlink:href="#DejaVuSans-108"/>
      <use x="422.265625" xlink:href="#DejaVuSans-117"/>
      <use x="485.644531" xlink:href="#DejaVuSans-115"/>
      <use x="537.744141" xlink:href="#DejaVuSans-95"/>
      <use x="587.744141" xlink:href="#DejaVuSans-102"/>
      <use x="622.949219" xlink:href="#DejaVuSans-108"/>
      <use x="650.732422" xlink:href="#DejaVuSans-97"/>
      <use x="712.011719" xlink:href="#DejaVuSans-116"/>
     </g>
    </g>
   </g>
  </g>
 </g>
 <defs>
  <clipPath id="p95b259dd6b">
   <rect height="266.112" width="714.24" x="53.328125" y="22.318125"/>
  </clipPath>
 </defs>
</svg>
