<?xml version="1.0" encoding="utf-8" standalone="no"?>
<!DOCTYPE svg PUBLIC "-//W3C//DTD SVG 1.1//EN"
  "http://www.w3.org/Graphics/SVG/1.1/DTD/svg11.dtd">
<svg height="355.523584pt" version="1.1" viewBox="0 0 411.285625 355.523584" width="411.285625pt" xmlns="http://www.w3.org/2000/svg" xmlns:xlink="http://www.w3.org/1999/xlink">
 <metadata>
  <rdf:RDF xmlns:cc="http://creativecommons.org/ns#" xmlns:dc="http://purl.org/dc/elements/1.1/" xmlns:rdf="http://www.w3.org/1999/02/22-rdf-syntax-ns#">
   <cc:Work>
    <dc:type rdf:resource="http://purl.org/dc/dcmitype/StillImage"/>
    <dc:date>2021-07-09T20:07:07.456494</dc:date>
    <dc:format>image/svg+xml</dc:format>
    <dc:creator>
     <cc:Agent>
      <dc:title>Matplotlib v3.4.1, https://matplotlib.org/</dc:title>
     </cc:Agent>
    </dc:creator>
   </cc:Work>
  </rdf:RDF>
 </metadata>
 <defs>
  <style type="text/css">*{stroke-linecap:butt;stroke-linejoin:round;}</style>
 </defs>
 <g id="figure_1">
  <g id="patch_1">
   <path d="M 0 355.523584 
L 411.285625 355.523584 
L 411.285625 0 
L 0 0 
z
" style="fill:#ffffff;"/>
  </g>
  <g id="axes_1">
   <g id="patch_2">
    <path d="M 46.965625 288.430125 
L 404.085625 288.430125 
L 404.085625 22.318125 
L 46.965625 22.318125 
z
" style="fill:#ffffff;"/>
   </g>
   <g id="PolyCollection_1">
    <defs>
     <path d="M 239.23446 -79.189459 
L 211.81679 -79.189459 
L 209.716954 -81.633096 
L 207.39095 -84.076732 
L 204.831616 -86.520368 
L 202.034655 -88.964005 
L 198.999127 -91.407641 
L 195.727912 -93.851277 
L 192.228122 -96.294914 
L 188.511451 -98.73855 
L 184.594429 -101.182186 
L 180.498573 -103.625823 
L 176.250411 -106.069459 
L 171.881361 -108.513096 
L 167.427469 -110.956732 
L 162.928979 -113.400368 
L 158.429752 -115.844005 
L 153.97653 -118.287641 
L 149.618057 -120.731277 
L 145.404084 -123.174914 
L 141.384265 -125.61855 
L 137.606989 -128.062186 
L 134.118173 -130.505823 
L 130.960054 -132.949459 
L 128.170019 -135.393096 
L 125.779515 -137.836732 
L 123.813064 -140.280368 
L 122.287443 -142.724005 
L 121.211026 -145.167641 
L 120.583347 -147.611277 
L 120.39487 -150.054914 
L 120.627009 -152.49855 
L 121.252368 -154.942186 
L 122.235224 -157.385823 
L 123.532223 -159.829459 
L 125.093277 -162.273096 
L 126.862627 -164.716732 
L 128.780058 -167.160368 
L 130.782213 -169.604005 
L 132.803983 -172.047641 
L 134.779933 -174.491277 
L 136.645717 -176.934914 
L 138.339471 -179.37855 
L 139.803127 -181.822186 
L 140.983639 -184.265823 
L 141.834091 -186.709459 
L 142.314662 -189.153096 
L 142.39345 -191.596732 
L 142.047124 -194.040368 
L 141.261414 -196.484005 
L 140.031425 -198.927641 
L 138.361783 -201.371277 
L 136.266602 -203.814914 
L 133.76929 -206.25855 
L 130.902186 -208.702186 
L 127.706041 -211.145823 
L 124.229341 -213.589459 
L 120.527498 -216.033096 
L 116.661894 -218.476732 
L 112.69881 -220.920368 
L 108.708247 -223.364005 
L 104.762653 -225.807641 
L 100.935579 -228.251277 
L 97.300289 -230.694914 
L 93.928346 -233.13855 
L 90.888204 -235.582186 
L 88.243843 -238.025823 
L 86.053469 -240.469459 
L 84.368317 -242.913096 
L 83.231603 -245.356732 
L 82.677625 -247.800368 
L 82.731068 -250.244005 
L 83.406527 -252.687641 
L 84.708252 -255.131277 
L 86.630146 -257.574914 
L 89.156 -260.01855 
L 92.259967 -262.462186 
L 95.907261 -264.905823 
L 100.055059 -267.349459 
L 104.653579 -269.793096 
L 109.647293 -272.236732 
L 114.97625 -274.680368 
L 120.577459 -277.124005 
L 126.386289 -279.567641 
L 132.337847 -282.011277 
L 138.368305 -284.454914 
L 144.416116 -286.89855 
L 150.423111 -289.342186 
L 156.335447 -291.785823 
L 162.104377 -294.229459 
L 167.686847 -296.673096 
L 173.045897 -299.116732 
L 178.150892 -301.560368 
L 182.977572 -304.004005 
L 187.507935 -306.447641 
L 191.729992 -308.891277 
L 195.637387 -311.334914 
L 199.228925 -313.77855 
L 202.508027 -316.222186 
L 205.482132 -318.665823 
L 208.162073 -321.109459 
L 242.889177 -321.109459 
L 242.889177 -321.109459 
L 245.569118 -318.665823 
L 248.543223 -316.222186 
L 251.822325 -313.77855 
L 255.413863 -311.334914 
L 259.321258 -308.891277 
L 263.543315 -306.447641 
L 268.073678 -304.004005 
L 272.900358 -301.560368 
L 278.005353 -299.116732 
L 283.364403 -296.673096 
L 288.946873 -294.229459 
L 294.715803 -291.785823 
L 300.628139 -289.342186 
L 306.635134 -286.89855 
L 312.682945 -284.454914 
L 318.713403 -282.011277 
L 324.664961 -279.567641 
L 330.473791 -277.124005 
L 336.075 -274.680368 
L 341.403957 -272.236732 
L 346.397671 -269.793096 
L 350.996191 -267.349459 
L 355.143989 -264.905823 
L 358.791283 -262.462186 
L 361.89525 -260.01855 
L 364.421104 -257.574914 
L 366.342998 -255.131277 
L 367.644723 -252.687641 
L 368.320182 -250.244005 
L 368.373625 -247.800368 
L 367.819647 -245.356732 
L 366.682933 -242.913096 
L 364.997781 -240.469459 
L 362.807407 -238.025823 
L 360.163046 -235.582186 
L 357.122904 -233.13855 
L 353.750961 -230.694914 
L 350.115671 -228.251277 
L 346.288597 -225.807641 
L 342.343003 -223.364005 
L 338.35244 -220.920368 
L 334.389356 -218.476732 
L 330.523752 -216.033096 
L 326.821909 -213.589459 
L 323.345209 -211.145823 
L 320.149064 -208.702186 
L 317.28196 -206.25855 
L 314.784648 -203.814914 
L 312.689467 -201.371277 
L 311.019825 -198.927641 
L 309.789836 -196.484005 
L 309.004126 -194.040368 
L 308.6578 -191.596732 
L 308.736588 -189.153096 
L 309.217159 -186.709459 
L 310.067611 -184.265823 
L 311.248123 -181.822186 
L 312.711779 -179.37855 
L 314.405533 -176.934914 
L 316.271317 -174.491277 
L 318.247267 -172.047641 
L 320.269037 -169.604005 
L 322.271192 -167.160368 
L 324.188623 -164.716732 
L 325.957973 -162.273096 
L 327.519027 -159.829459 
L 328.816026 -157.385823 
L 329.798882 -154.942186 
L 330.424241 -152.49855 
L 330.65638 -150.054914 
L 330.467903 -147.611277 
L 329.840224 -145.167641 
L 328.763807 -142.724005 
L 327.238186 -140.280368 
L 325.271735 -137.836732 
L 322.881231 -135.393096 
L 320.091196 -132.949459 
L 316.933077 -130.505823 
L 313.444261 -128.062186 
L 309.666985 -125.61855 
L 305.647166 -123.174914 
L 301.433193 -120.731277 
L 297.07472 -118.287641 
L 292.621498 -115.844005 
L 288.122271 -113.400368 
L 283.623781 -110.956732 
L 279.169889 -108.513096 
L 274.800839 -106.069459 
L 270.552677 -103.625823 
L 266.456821 -101.182186 
L 262.539799 -98.73855 
L 258.823128 -96.294914 
L 255.323338 -93.851277 
L 252.052123 -91.407641 
L 249.016595 -88.964005 
L 246.219634 -86.520368 
L 243.6603 -84.076732 
L 241.334296 -81.633096 
L 239.23446 -79.189459 
z
" id="m175fb4870f" style="stroke:#3f3f3f;stroke-width:1.5;"/>
    </defs>
    <g clip-path="url(#p997b9f8ba6)">
     <use style="fill:#3274a1;stroke:#3f3f3f;stroke-width:1.5;" x="0" xlink:href="#m175fb4870f" y="355.523584"/>
    </g>
   </g>
   <g id="matplotlib.axis_1">
    <g id="xtick_1">
     <g id="line2d_1">
      <defs>
       <path d="M 0 0 
L 0 3.5 
" id="mebb21bdc56" style="stroke:#000000;stroke-width:0.8;"/>
      </defs>
      <g>
       <use style="stroke:#000000;stroke-width:0.8;" x="225.525625" xlink:href="#mebb21bdc56" y="288.430125"/>
      </g>
     </g>
     <g id="text_1">
      <!-- weizz_qemu -->
      <g transform="translate(171.358143 332.603534)rotate(-30)scale(0.1 -0.1)">
       <defs>
        <path d="M 269 3500 
L 844 3500 
L 1563 769 
L 2278 3500 
L 2956 3500 
L 3675 769 
L 4391 3500 
L 4966 3500 
L 4050 0 
L 3372 0 
L 2619 2869 
L 1863 0 
L 1184 0 
L 269 3500 
z
" id="DejaVuSans-77" transform="scale(0.015625)"/>
        <path d="M 3597 1894 
L 3597 1613 
L 953 1613 
Q 991 1019 1311 708 
Q 1631 397 2203 397 
Q 2534 397 2845 478 
Q 3156 559 3463 722 
L 3463 178 
Q 3153 47 2828 -22 
Q 2503 -91 2169 -91 
Q 1331 -91 842 396 
Q 353 884 353 1716 
Q 353 2575 817 3079 
Q 1281 3584 2069 3584 
Q 2775 3584 3186 3129 
Q 3597 2675 3597 1894 
z
M 3022 2063 
Q 3016 2534 2758 2815 
Q 2500 3097 2075 3097 
Q 1594 3097 1305 2825 
Q 1016 2553 972 2059 
L 3022 2063 
z
" id="DejaVuSans-65" transform="scale(0.015625)"/>
        <path d="M 603 3500 
L 1178 3500 
L 1178 0 
L 603 0 
L 603 3500 
z
M 603 4863 
L 1178 4863 
L 1178 4134 
L 603 4134 
L 603 4863 
z
" id="DejaVuSans-69" transform="scale(0.015625)"/>
        <path d="M 353 3500 
L 3084 3500 
L 3084 2975 
L 922 459 
L 3084 459 
L 3084 0 
L 275 0 
L 275 525 
L 2438 3041 
L 353 3041 
L 353 3500 
z
" id="DejaVuSans-7a" transform="scale(0.015625)"/>
        <path d="M 3263 -1063 
L 3263 -1509 
L -63 -1509 
L -63 -1063 
L 3263 -1063 
z
" id="DejaVuSans-5f" transform="scale(0.015625)"/>
        <path d="M 947 1747 
Q 947 1113 1208 752 
Q 1469 391 1925 391 
Q 2381 391 2643 752 
Q 2906 1113 2906 1747 
Q 2906 2381 2643 2742 
Q 2381 3103 1925 3103 
Q 1469 3103 1208 2742 
Q 947 2381 947 1747 
z
M 2906 525 
Q 2725 213 2448 61 
Q 2172 -91 1784 -91 
Q 1150 -91 751 415 
Q 353 922 353 1747 
Q 353 2572 751 3078 
Q 1150 3584 1784 3584 
Q 2172 3584 2448 3432 
Q 2725 3281 2906 2969 
L 2906 3500 
L 3481 3500 
L 3481 -1331 
L 2906 -1331 
L 2906 525 
z
" id="DejaVuSans-71" transform="scale(0.015625)"/>
        <path d="M 3328 2828 
Q 3544 3216 3844 3400 
Q 4144 3584 4550 3584 
Q 5097 3584 5394 3201 
Q 5691 2819 5691 2113 
L 5691 0 
L 5113 0 
L 5113 2094 
Q 5113 2597 4934 2840 
Q 4756 3084 4391 3084 
Q 3944 3084 3684 2787 
Q 3425 2491 3425 1978 
L 3425 0 
L 2847 0 
L 2847 2094 
Q 2847 2600 2669 2842 
Q 2491 3084 2119 3084 
Q 1678 3084 1418 2786 
Q 1159 2488 1159 1978 
L 1159 0 
L 581 0 
L 581 3500 
L 1159 3500 
L 1159 2956 
Q 1356 3278 1631 3431 
Q 1906 3584 2284 3584 
Q 2666 3584 2933 3390 
Q 3200 3197 3328 2828 
z
" id="DejaVuSans-6d" transform="scale(0.015625)"/>
        <path d="M 544 1381 
L 544 3500 
L 1119 3500 
L 1119 1403 
Q 1119 906 1312 657 
Q 1506 409 1894 409 
Q 2359 409 2629 706 
Q 2900 1003 2900 1516 
L 2900 3500 
L 3475 3500 
L 3475 0 
L 2900 0 
L 2900 538 
Q 2691 219 2414 64 
Q 2138 -91 1772 -91 
Q 1169 -91 856 284 
Q 544 659 544 1381 
z
M 1991 3584 
L 1991 3584 
z
" id="DejaVuSans-75" transform="scale(0.015625)"/>
       </defs>
       <use xlink:href="#DejaVuSans-77"/>
       <use x="81.787109" xlink:href="#DejaVuSans-65"/>
       <use x="143.310547" xlink:href="#DejaVuSans-69"/>
       <use x="171.09375" xlink:href="#DejaVuSans-7a"/>
       <use x="223.583984" xlink:href="#DejaVuSans-7a"/>
       <use x="276.074219" xlink:href="#DejaVuSans-5f"/>
       <use x="326.074219" xlink:href="#DejaVuSans-71"/>
       <use x="389.550781" xlink:href="#DejaVuSans-65"/>
       <use x="451.074219" xlink:href="#DejaVuSans-6d"/>
       <use x="548.486328" xlink:href="#DejaVuSans-75"/>
      </g>
     </g>
    </g>
    <g id="text_2">
     <!-- Fuzzer (highest median coverage on the left) -->
     <g transform="translate(112.907656 346.243897)scale(0.1 -0.1)">
      <defs>
       <path d="M 628 4666 
L 3309 4666 
L 3309 4134 
L 1259 4134 
L 1259 2759 
L 3109 2759 
L 3109 2228 
L 1259 2228 
L 1259 0 
L 628 0 
L 628 4666 
z
" id="DejaVuSans-46" transform="scale(0.015625)"/>
       <path d="M 2631 2963 
Q 2534 3019 2420 3045 
Q 2306 3072 2169 3072 
Q 1681 3072 1420 2755 
Q 1159 2438 1159 1844 
L 1159 0 
L 581 0 
L 581 3500 
L 1159 3500 
L 1159 2956 
Q 1341 3275 1631 3429 
Q 1922 3584 2338 3584 
Q 2397 3584 2469 3576 
Q 2541 3569 2628 3553 
L 2631 2963 
z
" id="DejaVuSans-72" transform="scale(0.015625)"/>
       <path id="DejaVuSans-20" transform="scale(0.015625)"/>
       <path d="M 1984 4856 
Q 1566 4138 1362 3434 
Q 1159 2731 1159 2009 
Q 1159 1288 1364 580 
Q 1569 -128 1984 -844 
L 1484 -844 
Q 1016 -109 783 600 
Q 550 1309 550 2009 
Q 550 2706 781 3412 
Q 1013 4119 1484 4856 
L 1984 4856 
z
" id="DejaVuSans-28" transform="scale(0.015625)"/>
       <path d="M 3513 2113 
L 3513 0 
L 2938 0 
L 2938 2094 
Q 2938 2591 2744 2837 
Q 2550 3084 2163 3084 
Q 1697 3084 1428 2787 
Q 1159 2491 1159 1978 
L 1159 0 
L 581 0 
L 581 4863 
L 1159 4863 
L 1159 2956 
Q 1366 3272 1645 3428 
Q 1925 3584 2291 3584 
Q 2894 3584 3203 3211 
Q 3513 2838 3513 2113 
z
" id="DejaVuSans-68" transform="scale(0.015625)"/>
       <path d="M 2906 1791 
Q 2906 2416 2648 2759 
Q 2391 3103 1925 3103 
Q 1463 3103 1205 2759 
Q 947 2416 947 1791 
Q 947 1169 1205 825 
Q 1463 481 1925 481 
Q 2391 481 2648 825 
Q 2906 1169 2906 1791 
z
M 3481 434 
Q 3481 -459 3084 -895 
Q 2688 -1331 1869 -1331 
Q 1566 -1331 1297 -1286 
Q 1028 -1241 775 -1147 
L 775 -588 
Q 1028 -725 1275 -790 
Q 1522 -856 1778 -856 
Q 2344 -856 2625 -561 
Q 2906 -266 2906 331 
L 2906 616 
Q 2728 306 2450 153 
Q 2172 0 1784 0 
Q 1141 0 747 490 
Q 353 981 353 1791 
Q 353 2603 747 3093 
Q 1141 3584 1784 3584 
Q 2172 3584 2450 3431 
Q 2728 3278 2906 2969 
L 2906 3500 
L 3481 3500 
L 3481 434 
z
" id="DejaVuSans-67" transform="scale(0.015625)"/>
       <path d="M 2834 3397 
L 2834 2853 
Q 2591 2978 2328 3040 
Q 2066 3103 1784 3103 
Q 1356 3103 1142 2972 
Q 928 2841 928 2578 
Q 928 2378 1081 2264 
Q 1234 2150 1697 2047 
L 1894 2003 
Q 2506 1872 2764 1633 
Q 3022 1394 3022 966 
Q 3022 478 2636 193 
Q 2250 -91 1575 -91 
Q 1294 -91 989 -36 
Q 684 19 347 128 
L 347 722 
Q 666 556 975 473 
Q 1284 391 1588 391 
Q 1994 391 2212 530 
Q 2431 669 2431 922 
Q 2431 1156 2273 1281 
Q 2116 1406 1581 1522 
L 1381 1569 
Q 847 1681 609 1914 
Q 372 2147 372 2553 
Q 372 3047 722 3315 
Q 1072 3584 1716 3584 
Q 2034 3584 2315 3537 
Q 2597 3491 2834 3397 
z
" id="DejaVuSans-73" transform="scale(0.015625)"/>
       <path d="M 1172 4494 
L 1172 3500 
L 2356 3500 
L 2356 3053 
L 1172 3053 
L 1172 1153 
Q 1172 725 1289 603 
Q 1406 481 1766 481 
L 2356 481 
L 2356 0 
L 1766 0 
Q 1100 0 847 248 
Q 594 497 594 1153 
L 594 3053 
L 172 3053 
L 172 3500 
L 594 3500 
L 594 4494 
L 1172 4494 
z
" id="DejaVuSans-74" transform="scale(0.015625)"/>
       <path d="M 2906 2969 
L 2906 4863 
L 3481 4863 
L 3481 0 
L 2906 0 
L 2906 525 
Q 2725 213 2448 61 
Q 2172 -91 1784 -91 
Q 1150 -91 751 415 
Q 353 922 353 1747 
Q 353 2572 751 3078 
Q 1150 3584 1784 3584 
Q 2172 3584 2448 3432 
Q 2725 3281 2906 2969 
z
M 947 1747 
Q 947 1113 1208 752 
Q 1469 391 1925 391 
Q 2381 391 2643 752 
Q 2906 1113 2906 1747 
Q 2906 2381 2643 2742 
Q 2381 3103 1925 3103 
Q 1469 3103 1208 2742 
Q 947 2381 947 1747 
z
" id="DejaVuSans-64" transform="scale(0.015625)"/>
       <path d="M 2194 1759 
Q 1497 1759 1228 1600 
Q 959 1441 959 1056 
Q 959 750 1161 570 
Q 1363 391 1709 391 
Q 2188 391 2477 730 
Q 2766 1069 2766 1631 
L 2766 1759 
L 2194 1759 
z
M 3341 1997 
L 3341 0 
L 2766 0 
L 2766 531 
Q 2569 213 2275 61 
Q 1981 -91 1556 -91 
Q 1019 -91 701 211 
Q 384 513 384 1019 
Q 384 1609 779 1909 
Q 1175 2209 1959 2209 
L 2766 2209 
L 2766 2266 
Q 2766 2663 2505 2880 
Q 2244 3097 1772 3097 
Q 1472 3097 1187 3025 
Q 903 2953 641 2809 
L 641 3341 
Q 956 3463 1253 3523 
Q 1550 3584 1831 3584 
Q 2591 3584 2966 3190 
Q 3341 2797 3341 1997 
z
" id="DejaVuSans-61" transform="scale(0.015625)"/>
       <path d="M 3513 2113 
L 3513 0 
L 2938 0 
L 2938 2094 
Q 2938 2591 2744 2837 
Q 2550 3084 2163 3084 
Q 1697 3084 1428 2787 
Q 1159 2491 1159 1978 
L 1159 0 
L 581 0 
L 581 3500 
L 1159 3500 
L 1159 2956 
Q 1366 3272 1645 3428 
Q 1925 3584 2291 3584 
Q 2894 3584 3203 3211 
Q 3513 2838 3513 2113 
z
" id="DejaVuSans-6e" transform="scale(0.015625)"/>
       <path d="M 3122 3366 
L 3122 2828 
Q 2878 2963 2633 3030 
Q 2388 3097 2138 3097 
Q 1578 3097 1268 2742 
Q 959 2388 959 1747 
Q 959 1106 1268 751 
Q 1578 397 2138 397 
Q 2388 397 2633 464 
Q 2878 531 3122 666 
L 3122 134 
Q 2881 22 2623 -34 
Q 2366 -91 2075 -91 
Q 1284 -91 818 406 
Q 353 903 353 1747 
Q 353 2603 823 3093 
Q 1294 3584 2113 3584 
Q 2378 3584 2631 3529 
Q 2884 3475 3122 3366 
z
" id="DejaVuSans-63" transform="scale(0.015625)"/>
       <path d="M 1959 3097 
Q 1497 3097 1228 2736 
Q 959 2375 959 1747 
Q 959 1119 1226 758 
Q 1494 397 1959 397 
Q 2419 397 2687 759 
Q 2956 1122 2956 1747 
Q 2956 2369 2687 2733 
Q 2419 3097 1959 3097 
z
M 1959 3584 
Q 2709 3584 3137 3096 
Q 3566 2609 3566 1747 
Q 3566 888 3137 398 
Q 2709 -91 1959 -91 
Q 1206 -91 779 398 
Q 353 888 353 1747 
Q 353 2609 779 3096 
Q 1206 3584 1959 3584 
z
" id="DejaVuSans-6f" transform="scale(0.015625)"/>
       <path d="M 191 3500 
L 800 3500 
L 1894 563 
L 2988 3500 
L 3597 3500 
L 2284 0 
L 1503 0 
L 191 3500 
z
" id="DejaVuSans-76" transform="scale(0.015625)"/>
       <path d="M 603 4863 
L 1178 4863 
L 1178 0 
L 603 0 
L 603 4863 
z
" id="DejaVuSans-6c" transform="scale(0.015625)"/>
       <path d="M 2375 4863 
L 2375 4384 
L 1825 4384 
Q 1516 4384 1395 4259 
Q 1275 4134 1275 3809 
L 1275 3500 
L 2222 3500 
L 2222 3053 
L 1275 3053 
L 1275 0 
L 697 0 
L 697 3053 
L 147 3053 
L 147 3500 
L 697 3500 
L 697 3744 
Q 697 4328 969 4595 
Q 1241 4863 1831 4863 
L 2375 4863 
z
" id="DejaVuSans-66" transform="scale(0.015625)"/>
       <path d="M 513 4856 
L 1013 4856 
Q 1481 4119 1714 3412 
Q 1947 2706 1947 2009 
Q 1947 1309 1714 600 
Q 1481 -109 1013 -844 
L 513 -844 
Q 928 -128 1133 580 
Q 1338 1288 1338 2009 
Q 1338 2731 1133 3434 
Q 928 4138 513 4856 
z
" id="DejaVuSans-29" transform="scale(0.015625)"/>
      </defs>
      <use xlink:href="#DejaVuSans-46"/>
      <use x="52.019531" xlink:href="#DejaVuSans-75"/>
      <use x="115.398438" xlink:href="#DejaVuSans-7a"/>
      <use x="167.888672" xlink:href="#DejaVuSans-7a"/>
      <use x="220.378906" xlink:href="#DejaVuSans-65"/>
      <use x="281.902344" xlink:href="#DejaVuSans-72"/>
      <use x="323.015625" xlink:href="#DejaVuSans-20"/>
      <use x="354.802734" xlink:href="#DejaVuSans-28"/>
      <use x="393.816406" xlink:href="#DejaVuSans-68"/>
      <use x="457.195312" xlink:href="#DejaVuSans-69"/>
      <use x="484.978516" xlink:href="#DejaVuSans-67"/>
      <use x="548.455078" xlink:href="#DejaVuSans-68"/>
      <use x="611.833984" xlink:href="#DejaVuSans-65"/>
      <use x="673.357422" xlink:href="#DejaVuSans-73"/>
      <use x="725.457031" xlink:href="#DejaVuSans-74"/>
      <use x="764.666016" xlink:href="#DejaVuSans-20"/>
      <use x="796.453125" xlink:href="#DejaVuSans-6d"/>
      <use x="893.865234" xlink:href="#DejaVuSans-65"/>
      <use x="955.388672" xlink:href="#DejaVuSans-64"/>
      <use x="1018.865234" xlink:href="#DejaVuSans-69"/>
      <use x="1046.648438" xlink:href="#DejaVuSans-61"/>
      <use x="1107.927734" xlink:href="#DejaVuSans-6e"/>
      <use x="1171.306641" xlink:href="#DejaVuSans-20"/>
      <use x="1203.09375" xlink:href="#DejaVuSans-63"/>
      <use x="1258.074219" xlink:href="#DejaVuSans-6f"/>
      <use x="1319.255859" xlink:href="#DejaVuSans-76"/>
      <use x="1378.435547" xlink:href="#DejaVuSans-65"/>
      <use x="1439.958984" xlink:href="#DejaVuSans-72"/>
      <use x="1481.072266" xlink:href="#DejaVuSans-61"/>
      <use x="1542.351562" xlink:href="#DejaVuSans-67"/>
      <use x="1605.828125" xlink:href="#DejaVuSans-65"/>
      <use x="1667.351562" xlink:href="#DejaVuSans-20"/>
      <use x="1699.138672" xlink:href="#DejaVuSans-6f"/>
      <use x="1760.320312" xlink:href="#DejaVuSans-6e"/>
      <use x="1823.699219" xlink:href="#DejaVuSans-20"/>
      <use x="1855.486328" xlink:href="#DejaVuSans-74"/>
      <use x="1894.695312" xlink:href="#DejaVuSans-68"/>
      <use x="1958.074219" xlink:href="#DejaVuSans-65"/>
      <use x="2019.597656" xlink:href="#DejaVuSans-20"/>
      <use x="2051.384766" xlink:href="#DejaVuSans-6c"/>
      <use x="2079.167969" xlink:href="#DejaVuSans-65"/>
      <use x="2140.691406" xlink:href="#DejaVuSans-66"/>
      <use x="2174.146484" xlink:href="#DejaVuSans-74"/>
      <use x="2213.355469" xlink:href="#DejaVuSans-29"/>
     </g>
    </g>
   </g>
   <g id="matplotlib.axis_2">
    <g id="ytick_1">
     <g id="line2d_2">
      <defs>
       <path d="M 0 0 
L -3.5 0 
" id="mbdb88db637" style="stroke:#000000;stroke-width:0.8;"/>
      </defs>
      <g>
       <use style="stroke:#000000;stroke-width:0.8;" x="46.965625" xlink:href="#mbdb88db637" y="280.412211"/>
      </g>
     </g>
     <g id="text_3">
      <!-- 634 -->
      <g transform="translate(20.878125 284.21143)scale(0.1 -0.1)">
       <defs>
        <path d="M 2113 2584 
Q 1688 2584 1439 2293 
Q 1191 2003 1191 1497 
Q 1191 994 1439 701 
Q 1688 409 2113 409 
Q 2538 409 2786 701 
Q 3034 994 3034 1497 
Q 3034 2003 2786 2293 
Q 2538 2584 2113 2584 
z
M 3366 4563 
L 3366 3988 
Q 3128 4100 2886 4159 
Q 2644 4219 2406 4219 
Q 1781 4219 1451 3797 
Q 1122 3375 1075 2522 
Q 1259 2794 1537 2939 
Q 1816 3084 2150 3084 
Q 2853 3084 3261 2657 
Q 3669 2231 3669 1497 
Q 3669 778 3244 343 
Q 2819 -91 2113 -91 
Q 1303 -91 875 529 
Q 447 1150 447 2328 
Q 447 3434 972 4092 
Q 1497 4750 2381 4750 
Q 2619 4750 2861 4703 
Q 3103 4656 3366 4563 
z
" id="DejaVuSans-36" transform="scale(0.015625)"/>
        <path d="M 2597 2516 
Q 3050 2419 3304 2112 
Q 3559 1806 3559 1356 
Q 3559 666 3084 287 
Q 2609 -91 1734 -91 
Q 1441 -91 1130 -33 
Q 819 25 488 141 
L 488 750 
Q 750 597 1062 519 
Q 1375 441 1716 441 
Q 2309 441 2620 675 
Q 2931 909 2931 1356 
Q 2931 1769 2642 2001 
Q 2353 2234 1838 2234 
L 1294 2234 
L 1294 2753 
L 1863 2753 
Q 2328 2753 2575 2939 
Q 2822 3125 2822 3475 
Q 2822 3834 2567 4026 
Q 2313 4219 1838 4219 
Q 1578 4219 1281 4162 
Q 984 4106 628 3988 
L 628 4550 
Q 988 4650 1302 4700 
Q 1616 4750 1894 4750 
Q 2613 4750 3031 4423 
Q 3450 4097 3450 3541 
Q 3450 3153 3228 2886 
Q 3006 2619 2597 2516 
z
" id="DejaVuSans-33" transform="scale(0.015625)"/>
        <path d="M 2419 4116 
L 825 1625 
L 2419 1625 
L 2419 4116 
z
M 2253 4666 
L 3047 4666 
L 3047 1625 
L 3713 1625 
L 3713 1100 
L 3047 1100 
L 3047 0 
L 2419 0 
L 2419 1100 
L 313 1100 
L 313 1709 
L 2253 4666 
z
" id="DejaVuSans-34" transform="scale(0.015625)"/>
       </defs>
       <use xlink:href="#DejaVuSans-36"/>
       <use x="63.623047" xlink:href="#DejaVuSans-33"/>
       <use x="127.246094" xlink:href="#DejaVuSans-34"/>
      </g>
     </g>
    </g>
    <g id="ytick_2">
     <g id="line2d_3">
      <g>
       <use style="stroke:#000000;stroke-width:0.8;" x="46.965625" xlink:href="#mbdb88db637" y="244.687044"/>
      </g>
     </g>
     <g id="text_4">
      <!-- 635 -->
      <g transform="translate(20.878125 248.486263)scale(0.1 -0.1)">
       <defs>
        <path d="M 691 4666 
L 3169 4666 
L 3169 4134 
L 1269 4134 
L 1269 2991 
Q 1406 3038 1543 3061 
Q 1681 3084 1819 3084 
Q 2600 3084 3056 2656 
Q 3513 2228 3513 1497 
Q 3513 744 3044 326 
Q 2575 -91 1722 -91 
Q 1428 -91 1123 -41 
Q 819 9 494 109 
L 494 744 
Q 775 591 1075 516 
Q 1375 441 1709 441 
Q 2250 441 2565 725 
Q 2881 1009 2881 1497 
Q 2881 1984 2565 2268 
Q 2250 2553 1709 2553 
Q 1456 2553 1204 2497 
Q 953 2441 691 2322 
L 691 4666 
z
" id="DejaVuSans-35" transform="scale(0.015625)"/>
       </defs>
       <use xlink:href="#DejaVuSans-36"/>
       <use x="63.623047" xlink:href="#DejaVuSans-33"/>
       <use x="127.246094" xlink:href="#DejaVuSans-35"/>
      </g>
     </g>
    </g>
    <g id="ytick_3">
     <g id="line2d_4">
      <g>
       <use style="stroke:#000000;stroke-width:0.8;" x="46.965625" xlink:href="#mbdb88db637" y="208.961876"/>
      </g>
     </g>
     <g id="text_5">
      <!-- 636 -->
      <g transform="translate(20.878125 212.761095)scale(0.1 -0.1)">
       <use xlink:href="#DejaVuSans-36"/>
       <use x="63.623047" xlink:href="#DejaVuSans-33"/>
       <use x="127.246094" xlink:href="#DejaVuSans-36"/>
      </g>
     </g>
    </g>
    <g id="ytick_4">
     <g id="line2d_5">
      <g>
       <use style="stroke:#000000;stroke-width:0.8;" x="46.965625" xlink:href="#mbdb88db637" y="173.236709"/>
      </g>
     </g>
     <g id="text_6">
      <!-- 637 -->
      <g transform="translate(20.878125 177.035928)scale(0.1 -0.1)">
       <defs>
        <path d="M 525 4666 
L 3525 4666 
L 3525 4397 
L 1831 0 
L 1172 0 
L 2766 4134 
L 525 4134 
L 525 4666 
z
" id="DejaVuSans-37" transform="scale(0.015625)"/>
       </defs>
       <use xlink:href="#DejaVuSans-36"/>
       <use x="63.623047" xlink:href="#DejaVuSans-33"/>
       <use x="127.246094" xlink:href="#DejaVuSans-37"/>
      </g>
     </g>
    </g>
    <g id="ytick_5">
     <g id="line2d_6">
      <g>
       <use style="stroke:#000000;stroke-width:0.8;" x="46.965625" xlink:href="#mbdb88db637" y="137.511541"/>
      </g>
     </g>
     <g id="text_7">
      <!-- 638 -->
      <g transform="translate(20.878125 141.31076)scale(0.1 -0.1)">
       <defs>
        <path d="M 2034 2216 
Q 1584 2216 1326 1975 
Q 1069 1734 1069 1313 
Q 1069 891 1326 650 
Q 1584 409 2034 409 
Q 2484 409 2743 651 
Q 3003 894 3003 1313 
Q 3003 1734 2745 1975 
Q 2488 2216 2034 2216 
z
M 1403 2484 
Q 997 2584 770 2862 
Q 544 3141 544 3541 
Q 544 4100 942 4425 
Q 1341 4750 2034 4750 
Q 2731 4750 3128 4425 
Q 3525 4100 3525 3541 
Q 3525 3141 3298 2862 
Q 3072 2584 2669 2484 
Q 3125 2378 3379 2068 
Q 3634 1759 3634 1313 
Q 3634 634 3220 271 
Q 2806 -91 2034 -91 
Q 1263 -91 848 271 
Q 434 634 434 1313 
Q 434 1759 690 2068 
Q 947 2378 1403 2484 
z
M 1172 3481 
Q 1172 3119 1398 2916 
Q 1625 2713 2034 2713 
Q 2441 2713 2670 2916 
Q 2900 3119 2900 3481 
Q 2900 3844 2670 4047 
Q 2441 4250 2034 4250 
Q 1625 4250 1398 4047 
Q 1172 3844 1172 3481 
z
" id="DejaVuSans-38" transform="scale(0.015625)"/>
       </defs>
       <use xlink:href="#DejaVuSans-36"/>
       <use x="63.623047" xlink:href="#DejaVuSans-33"/>
       <use x="127.246094" xlink:href="#DejaVuSans-38"/>
      </g>
     </g>
    </g>
    <g id="ytick_6">
     <g id="line2d_7">
      <g>
       <use style="stroke:#000000;stroke-width:0.8;" x="46.965625" xlink:href="#mbdb88db637" y="101.786374"/>
      </g>
     </g>
     <g id="text_8">
      <!-- 639 -->
      <g transform="translate(20.878125 105.585592)scale(0.1 -0.1)">
       <defs>
        <path d="M 703 97 
L 703 672 
Q 941 559 1184 500 
Q 1428 441 1663 441 
Q 2288 441 2617 861 
Q 2947 1281 2994 2138 
Q 2813 1869 2534 1725 
Q 2256 1581 1919 1581 
Q 1219 1581 811 2004 
Q 403 2428 403 3163 
Q 403 3881 828 4315 
Q 1253 4750 1959 4750 
Q 2769 4750 3195 4129 
Q 3622 3509 3622 2328 
Q 3622 1225 3098 567 
Q 2575 -91 1691 -91 
Q 1453 -91 1209 -44 
Q 966 3 703 97 
z
M 1959 2075 
Q 2384 2075 2632 2365 
Q 2881 2656 2881 3163 
Q 2881 3666 2632 3958 
Q 2384 4250 1959 4250 
Q 1534 4250 1286 3958 
Q 1038 3666 1038 3163 
Q 1038 2656 1286 2365 
Q 1534 2075 1959 2075 
z
" id="DejaVuSans-39" transform="scale(0.015625)"/>
       </defs>
       <use xlink:href="#DejaVuSans-36"/>
       <use x="63.623047" xlink:href="#DejaVuSans-33"/>
       <use x="127.246094" xlink:href="#DejaVuSans-39"/>
      </g>
     </g>
    </g>
    <g id="ytick_7">
     <g id="line2d_8">
      <g>
       <use style="stroke:#000000;stroke-width:0.8;" x="46.965625" xlink:href="#mbdb88db637" y="66.061206"/>
      </g>
     </g>
     <g id="text_9">
      <!-- 640 -->
      <g transform="translate(20.878125 69.860425)scale(0.1 -0.1)">
       <defs>
        <path d="M 2034 4250 
Q 1547 4250 1301 3770 
Q 1056 3291 1056 2328 
Q 1056 1369 1301 889 
Q 1547 409 2034 409 
Q 2525 409 2770 889 
Q 3016 1369 3016 2328 
Q 3016 3291 2770 3770 
Q 2525 4250 2034 4250 
z
M 2034 4750 
Q 2819 4750 3233 4129 
Q 3647 3509 3647 2328 
Q 3647 1150 3233 529 
Q 2819 -91 2034 -91 
Q 1250 -91 836 529 
Q 422 1150 422 2328 
Q 422 3509 836 4129 
Q 1250 4750 2034 4750 
z
" id="DejaVuSans-30" transform="scale(0.015625)"/>
       </defs>
       <use xlink:href="#DejaVuSans-36"/>
       <use x="63.623047" xlink:href="#DejaVuSans-34"/>
       <use x="127.246094" xlink:href="#DejaVuSans-30"/>
      </g>
     </g>
    </g>
    <g id="ytick_8">
     <g id="line2d_9">
      <g>
       <use style="stroke:#000000;stroke-width:0.8;" x="46.965625" xlink:href="#mbdb88db637" y="30.336039"/>
      </g>
     </g>
     <g id="text_10">
      <!-- 641 -->
      <g transform="translate(20.878125 34.135257)scale(0.1 -0.1)">
       <defs>
        <path d="M 794 531 
L 1825 531 
L 1825 4091 
L 703 3866 
L 703 4441 
L 1819 4666 
L 2450 4666 
L 2450 531 
L 3481 531 
L 3481 0 
L 794 0 
L 794 531 
z
" id="DejaVuSans-31" transform="scale(0.015625)"/>
       </defs>
       <use xlink:href="#DejaVuSans-36"/>
       <use x="63.623047" xlink:href="#DejaVuSans-34"/>
       <use x="127.246094" xlink:href="#DejaVuSans-31"/>
      </g>
     </g>
    </g>
    <g id="text_11">
     <!-- Reached region coverage -->
     <g transform="translate(14.798438 219.136625)rotate(-90)scale(0.1 -0.1)">
      <defs>
       <path d="M 2841 2188 
Q 3044 2119 3236 1894 
Q 3428 1669 3622 1275 
L 4263 0 
L 3584 0 
L 2988 1197 
Q 2756 1666 2539 1819 
Q 2322 1972 1947 1972 
L 1259 1972 
L 1259 0 
L 628 0 
L 628 4666 
L 2053 4666 
Q 2853 4666 3247 4331 
Q 3641 3997 3641 3322 
Q 3641 2881 3436 2590 
Q 3231 2300 2841 2188 
z
M 1259 4147 
L 1259 2491 
L 2053 2491 
Q 2509 2491 2742 2702 
Q 2975 2913 2975 3322 
Q 2975 3731 2742 3939 
Q 2509 4147 2053 4147 
L 1259 4147 
z
" id="DejaVuSans-52" transform="scale(0.015625)"/>
      </defs>
      <use xlink:href="#DejaVuSans-52"/>
      <use x="64.982422" xlink:href="#DejaVuSans-65"/>
      <use x="126.505859" xlink:href="#DejaVuSans-61"/>
      <use x="187.785156" xlink:href="#DejaVuSans-63"/>
      <use x="242.765625" xlink:href="#DejaVuSans-68"/>
      <use x="306.144531" xlink:href="#DejaVuSans-65"/>
      <use x="367.667969" xlink:href="#DejaVuSans-64"/>
      <use x="431.144531" xlink:href="#DejaVuSans-20"/>
      <use x="462.931641" xlink:href="#DejaVuSans-72"/>
      <use x="501.794922" xlink:href="#DejaVuSans-65"/>
      <use x="563.318359" xlink:href="#DejaVuSans-67"/>
      <use x="626.794922" xlink:href="#DejaVuSans-69"/>
      <use x="654.578125" xlink:href="#DejaVuSans-6f"/>
      <use x="715.759766" xlink:href="#DejaVuSans-6e"/>
      <use x="779.138672" xlink:href="#DejaVuSans-20"/>
      <use x="810.925781" xlink:href="#DejaVuSans-63"/>
      <use x="865.90625" xlink:href="#DejaVuSans-6f"/>
      <use x="927.087891" xlink:href="#DejaVuSans-76"/>
      <use x="986.267578" xlink:href="#DejaVuSans-65"/>
      <use x="1047.791016" xlink:href="#DejaVuSans-72"/>
      <use x="1088.904297" xlink:href="#DejaVuSans-61"/>
      <use x="1150.183594" xlink:href="#DejaVuSans-67"/>
      <use x="1213.660156" xlink:href="#DejaVuSans-65"/>
     </g>
    </g>
   </g>
   <g id="line2d_10">
    <path clip-path="url(#p997b9f8ba6)" d="M 225.525625 208.961876 
L 225.525625 101.786374 
" style="fill:none;stroke:#3f3f3f;stroke-linecap:square;stroke-width:1.5;"/>
   </g>
   <g id="line2d_11">
    <path clip-path="url(#p997b9f8ba6)" d="M 225.525625 208.961876 
L 225.525625 101.786374 
" style="fill:none;stroke:#3f3f3f;stroke-linecap:square;stroke-width:4.5;"/>
   </g>
   <g id="patch_3">
    <path d="M 46.965625 280.412211 
L 46.965625 30.336039 
" style="fill:none;stroke:#000000;stroke-linecap:square;stroke-linejoin:miter;stroke-width:0.8;"/>
   </g>
   <g id="patch_4">
    <path d="M 225.525625 288.430125 
L 225.525625 288.430125 
" style="fill:none;stroke:#000000;stroke-linecap:square;stroke-linejoin:miter;stroke-width:0.8;"/>
   </g>
   <g id="PathCollection_1">
    <defs>
     <path d="M 0 1.5 
C 0.397805 1.5 0.77937 1.341951 1.06066 1.06066 
C 1.341951 0.77937 1.5 0.397805 1.5 0 
C 1.5 -0.397805 1.341951 -0.77937 1.06066 -1.06066 
C 0.77937 -1.341951 0.397805 -1.5 0 -1.5 
C -0.397805 -1.5 -0.77937 -1.341951 -1.06066 -1.06066 
C -1.341951 -0.77937 -1.5 -0.397805 -1.5 0 
C -1.5 0.397805 -1.341951 0.77937 -1.06066 1.06066 
C -0.77937 1.341951 -0.397805 1.5 0 1.5 
z
" id="m50b2b9b23a" style="stroke:#3f3f3f;"/>
    </defs>
    <g clip-path="url(#p997b9f8ba6)">
     <use style="fill:#ffffff;stroke:#3f3f3f;" x="225.525625" xlink:href="#m50b2b9b23a" y="119.648957"/>
    </g>
   </g>
   <g id="text_12">
    <!-- jsoncpp_jsoncpp_fuzzer (19h, 10 trials/fuzzer) -->
    <g transform="translate(88.058125 16.318125)scale(0.12 -0.12)">
     <defs>
      <path d="M 603 3500 
L 1178 3500 
L 1178 -63 
Q 1178 -731 923 -1031 
Q 669 -1331 103 -1331 
L -116 -1331 
L -116 -844 
L 38 -844 
Q 366 -844 484 -692 
Q 603 -541 603 -63 
L 603 3500 
z
M 603 4863 
L 1178 4863 
L 1178 4134 
L 603 4134 
L 603 4863 
z
" id="DejaVuSans-6a" transform="scale(0.015625)"/>
      <path d="M 1159 525 
L 1159 -1331 
L 581 -1331 
L 581 3500 
L 1159 3500 
L 1159 2969 
Q 1341 3281 1617 3432 
Q 1894 3584 2278 3584 
Q 2916 3584 3314 3078 
Q 3713 2572 3713 1747 
Q 3713 922 3314 415 
Q 2916 -91 2278 -91 
Q 1894 -91 1617 61 
Q 1341 213 1159 525 
z
M 3116 1747 
Q 3116 2381 2855 2742 
Q 2594 3103 2138 3103 
Q 1681 3103 1420 2742 
Q 1159 2381 1159 1747 
Q 1159 1113 1420 752 
Q 1681 391 2138 391 
Q 2594 391 2855 752 
Q 3116 1113 3116 1747 
z
" id="DejaVuSans-70" transform="scale(0.015625)"/>
      <path d="M 750 794 
L 1409 794 
L 1409 256 
L 897 -744 
L 494 -744 
L 750 256 
L 750 794 
z
" id="DejaVuSans-2c" transform="scale(0.015625)"/>
      <path d="M 1625 4666 
L 2156 4666 
L 531 -594 
L 0 -594 
L 1625 4666 
z
" id="DejaVuSans-2f" transform="scale(0.015625)"/>
     </defs>
     <use xlink:href="#DejaVuSans-6a"/>
     <use x="27.783203" xlink:href="#DejaVuSans-73"/>
     <use x="79.882812" xlink:href="#DejaVuSans-6f"/>
     <use x="141.064453" xlink:href="#DejaVuSans-6e"/>
     <use x="204.443359" xlink:href="#DejaVuSans-63"/>
     <use x="259.423828" xlink:href="#DejaVuSans-70"/>
     <use x="322.900391" xlink:href="#DejaVuSans-70"/>
     <use x="386.376953" xlink:href="#DejaVuSans-5f"/>
     <use x="436.376953" xlink:href="#DejaVuSans-6a"/>
     <use x="464.160156" xlink:href="#DejaVuSans-73"/>
     <use x="516.259766" xlink:href="#DejaVuSans-6f"/>
     <use x="577.441406" xlink:href="#DejaVuSans-6e"/>
     <use x="640.820312" xlink:href="#DejaVuSans-63"/>
     <use x="695.800781" xlink:href="#DejaVuSans-70"/>
     <use x="759.277344" xlink:href="#DejaVuSans-70"/>
     <use x="822.753906" xlink:href="#DejaVuSans-5f"/>
     <use x="872.753906" xlink:href="#DejaVuSans-66"/>
     <use x="907.958984" xlink:href="#DejaVuSans-75"/>
     <use x="971.337891" xlink:href="#DejaVuSans-7a"/>
     <use x="1023.828125" xlink:href="#DejaVuSans-7a"/>
     <use x="1076.318359" xlink:href="#DejaVuSans-65"/>
     <use x="1137.841797" xlink:href="#DejaVuSans-72"/>
     <use x="1178.955078" xlink:href="#DejaVuSans-20"/>
     <use x="1210.742188" xlink:href="#DejaVuSans-28"/>
     <use x="1249.755859" xlink:href="#DejaVuSans-31"/>
     <use x="1313.378906" xlink:href="#DejaVuSans-39"/>
     <use x="1377.001953" xlink:href="#DejaVuSans-68"/>
     <use x="1440.380859" xlink:href="#DejaVuSans-2c"/>
     <use x="1472.167969" xlink:href="#DejaVuSans-20"/>
     <use x="1503.955078" xlink:href="#DejaVuSans-31"/>
     <use x="1567.578125" xlink:href="#DejaVuSans-30"/>
     <use x="1631.201172" xlink:href="#DejaVuSans-20"/>
     <use x="1662.988281" xlink:href="#DejaVuSans-74"/>
     <use x="1702.197266" xlink:href="#DejaVuSans-72"/>
     <use x="1743.310547" xlink:href="#DejaVuSans-69"/>
     <use x="1771.09375" xlink:href="#DejaVuSans-61"/>
     <use x="1832.373047" xlink:href="#DejaVuSans-6c"/>
     <use x="1860.15625" xlink:href="#DejaVuSans-73"/>
     <use x="1912.255859" xlink:href="#DejaVuSans-2f"/>
     <use x="1945.947266" xlink:href="#DejaVuSans-66"/>
     <use x="1981.152344" xlink:href="#DejaVuSans-75"/>
     <use x="2044.53125" xlink:href="#DejaVuSans-7a"/>
     <use x="2097.021484" xlink:href="#DejaVuSans-7a"/>
     <use x="2149.511719" xlink:href="#DejaVuSans-65"/>
     <use x="2211.035156" xlink:href="#DejaVuSans-72"/>
     <use x="2252.148438" xlink:href="#DejaVuSans-29"/>
    </g>
   </g>
  </g>
 </g>
 <defs>
  <clipPath id="p997b9f8ba6">
   <rect height="266.112" width="357.12" x="46.965625" y="22.318125"/>
  </clipPath>
 </defs>
</svg>
